<?xml version="1.0" encoding="UTF-8"?>
<svg id="Layer_2" data-name="Layer 2" xmlns="http://www.w3.org/2000/svg" viewBox="0 0 1080 1080">
  <defs>
    <style>
      .cls-1 {
        fill: #101010;
        stroke-width: 0px;
      }
    </style>
  </defs>
  <path class="cls-1" d="M830.34,761.99c-11.77-10.71-17.64-24.18-17.64-40.4s5.88-29.67,17.64-40.4c11.78-10.71,26.01-16.08,42.76-16.08s31.64,5.37,43.14,16.08c11.5,10.72,17.26,24.2,17.26,40.4s-5.76,29.69-17.26,40.4c-11.5,10.72-25.88,16.08-43.14,16.08s-30.98-5.36-42.76-16.08Z"/>
  <path class="cls-1" d="M633.05,778.08c-49.66,0-102.31-24.17-150-67.82-43.28,40.46-93.51,67.82-144.16,67.82-38.02,0-72.72-14.09-100.37-40.74-80.08-77.21-89.96-246.86-89.63-386.04v-9.46h98.07v9.68c-.43,172.39,20.1,279.78,60.97,319.2,9.36,9.02,18.9,13.03,30.95,13.03,24.31,0,54.02-18.43,81.98-46.06-39.84-58.64-63.83-124.12-63.83-176.46,0-35.34,10.75-65.6,31.07-87.5,16-17.25,45.98-37.8,97.86-37.8s79.62,19.98,95.2,36.73c19.79,21.29,30.24,50.73,30.24,85.13,0,51.33-25.65,118.86-66.01,178.67,30.02,28.53,62.24,47.28,87.67,47.28,12.95,0,22.43-3.94,31.71-13.17,38.1-37.92,54.46-140.02,48.65-303.46-.4-10.96-.68-19.6-.68-25.28h98.06c0,4.96.29,12.5.62,22.05,4.74,133.31.38,296.08-76.13,372.24-27.57,27.45-62.91,41.96-102.22,41.96ZM485.97,430.26c-7.05,0-19.64.82-24.72,6.3-3.91,4.21-6.16,13.21-6.16,24.67,0,29.9,10.84,62.75,27.78,93.82,18.48-33.54,30.47-68.34,30.47-97.25,0-10.39-1.98-18.71-5.29-22.27-3.06-3.3-11.32-5.27-22.08-5.27Z"/>
</svg>