<?xml version="1.0" standalone="no"?>
<!DOCTYPE svg PUBLIC "-//W3C//DTD SVG 20010904//EN"
 "http://www.w3.org/TR/2001/REC-SVG-20010904/DTD/svg10.dtd">
<svg version="1.0" xmlns="http://www.w3.org/2000/svg"
 width="1000.000000pt" height="1000.000000pt" viewBox="0 0 1000.000000 1000.000000"
 preserveAspectRatio="xMidYMid meet">
<metadata>
Created by potrace 1.14, written by Peter Selinger 2001-2017
</metadata>
<g transform="translate(0.000000,1000.000000) scale(0.100000,-0.100000)"
fill="#000000" stroke="none">
<path d="M0 5000 l0 -5000 5000 0 5000 0 0 5000 0 5000 -5000 0 -5000 0 0
-5000z m4730 1935 c138 -21 232 -49 345 -105 446 -217 633 -706 505 -1319 -71
-341 -243 -744 -472 -1104 l-68 -109 52 -46 c170 -154 380 -286 533 -335 132
-43 277 -39 367 10 64 35 162 139 216 230 254 429 354 1268 306 2576 l-7 167
436 0 435 0 8 -187 c12 -272 9 -1019 -5 -1223 -53 -783 -180 -1322 -407 -1722
-213 -376 -513 -608 -899 -694 -97 -21 -330 -29 -437 -15 -349 47 -699 212
-1035 488 -116 95 -116 95 -138 76 -13 -10 -67 -55 -121 -101 -264 -222 -577
-384 -864 -447 -116 -25 -344 -30 -465 -11 -373 62 -676 267 -908 616 -275
415 -446 1023 -521 1855 -29 310 -37 486 -43 928 l-6 437 435 0 435 0 6 -417
c12 -828 80 -1429 212 -1873 105 -354 263 -609 429 -689 181 -88 435 -9 721
224 130 106 162 141 148 163 -194 304 -303 516 -397 775 -151 417 -189 785
-112 1089 60 237 195 440 382 574 126 90 309 161 489 189 111 18 331 18 445 0z
m3325 -2900 c106 -22 190 -68 265 -144 99 -100 140 -200 140 -341 0 -149 -45
-254 -151 -354 -105 -100 -226 -146 -384 -146 -133 0 -237 34 -340 113 -76 57
-131 130 -161 211 -140 386 208 750 631 661z"/>
<path d="M4427 6109 c-120 -13 -158 -52 -178 -179 -24 -154 23 -421 114 -645
45 -113 113 -255 122 -255 10 0 124 239 160 335 58 154 95 315 102 436 10 189
-13 269 -87 294 -50 17 -154 24 -233 14z"/>
</g>
</svg>
