<?xml version="1.0" encoding="UTF-8"?>
<svg id="Layer_2" data-name="Layer 2" xmlns="http://www.w3.org/2000/svg" viewBox="0 0 500 500">
  <defs>
    <style>
      .cls-1 {
        fill: #ff6d2e;
      }

      .cls-1, .cls-2 {
        stroke-width: 0px;
      }

      .cls-2 {
        fill: #fff;
      }
    </style>
  </defs>
  <rect class="cls-1" y="0" width="500" height="500"/>
  <g>
    <path class="cls-2" d="M377.51,340.4c-5.19-4.72-7.78-10.67-7.78-17.82s2.59-13.09,7.78-17.81c5.19-4.72,11.47-7.09,18.85-7.09s13.95,2.37,19.02,7.09c5.07,4.73,7.61,10.67,7.61,17.81s-2.54,13.09-7.61,17.82c-5.07,4.73-11.41,7.09-19.02,7.09s-13.66-2.36-18.85-7.09Z"/>
    <path class="cls-2" d="M290.51,347.49c-21.9,0-45.11-10.66-66.15-29.91-19.09,17.84-41.23,29.91-63.57,29.91-16.76,0-32.07-6.21-44.26-17.96-35.31-34.05-39.67-108.86-39.52-170.24v-4.17h43.25v4.27c-.19,76.02,8.86,123.38,26.89,140.76,4.13,3.98,8.33,5.75,13.65,5.75,10.72,0,23.82-8.13,36.15-20.31-17.57-25.86-28.15-54.73-28.15-77.82,0-15.58,4.74-28.93,13.7-38.58,7.06-7.61,20.27-16.67,43.16-16.67s35.11,8.81,41.98,16.2c8.73,9.39,13.33,22.37,13.33,37.54,0,22.64-11.31,52.41-29.11,78.79,13.24,12.58,27.45,20.85,38.66,20.85,5.71,0,9.89-1.74,13.98-5.81,16.8-16.72,24.02-61.75,21.45-133.82-.17-4.83-.3-8.64-.3-11.15h43.24c0,2.19.13,5.51.27,9.72,2.09,58.79.17,130.57-33.57,164.15-12.16,12.1-27.74,18.5-45.08,18.5ZM225.65,194.11c-3.11,0-8.66.36-10.9,2.78-1.73,1.86-2.72,5.82-2.72,10.88,0,13.19,4.78,27.67,12.25,41.37,8.15-14.79,13.44-30.13,13.44-42.88,0-4.58-.87-8.25-2.33-9.82-1.35-1.46-4.99-2.33-9.74-2.33Z"/>
  </g>
</svg>