<svg width="251" height="252" viewBox="0 0 251 252" fill="none" xmlns="http://www.w3.org/2000/svg">
<path d="M191.713 100.801C219.21 100.801 241.5 78.4595 241.5 50.9003C241.5 23.3411 219.21 1 191.713 1C164.217 1 141.926 23.3411 141.926 50.9003C141.926 59.8107 144.256 68.1756 148.339 75.4163C156.884 90.5706 173.107 100.801 191.713 100.801Z" fill="#F9F9F9"/>
<path d="M191.713 251C219.21 251 241.5 228.659 241.5 201.1C241.5 173.541 219.21 151.199 191.713 151.199C173.157 151.199 156.972 161.374 148.409 176.46C144.283 183.729 141.926 192.139 141.926 201.1C141.926 228.659 164.217 251 191.713 251Z" fill="#F9F9F9"/>
<path d="M9.5 125.751C9.5 153.31 31.7903 175.651 59.2869 175.651C77.8427 175.651 94.0275 165.477 102.591 150.39C106.717 143.121 109.074 134.712 109.074 125.751C109.074 116.84 106.744 108.475 102.661 101.235C94.1158 86.0804 77.8933 75.8504 59.2869 75.8504C31.7903 75.8504 9.5 98.1916 9.5 125.751Z" fill="#F9F9F9"/>
<path d="M102.591 150.39C106.717 143.121 109.074 134.712 109.074 125.751C109.074 116.84 106.744 108.475 102.661 101.235M102.591 150.39C94.0275 165.477 77.8427 175.651 59.2869 175.651C31.7903 175.651 9.5 153.31 9.5 125.751C9.5 98.1916 31.7903 75.8504 59.2869 75.8504C77.8933 75.8504 94.1158 86.0804 102.661 101.235M102.591 150.39L148.409 176.46M102.661 101.235L148.339 75.4163M148.339 75.4163C144.256 68.1756 141.926 59.8107 141.926 50.9003C141.926 23.3411 164.217 1 191.713 1C219.21 1 241.5 23.3411 241.5 50.9003C241.5 78.4595 219.21 100.801 191.713 100.801C173.107 100.801 156.884 90.5706 148.339 75.4163ZM148.409 176.46C156.972 161.374 173.157 151.199 191.713 151.199C219.21 151.199 241.5 173.541 241.5 201.1C241.5 228.659 219.21 251 191.713 251C164.217 251 141.926 228.659 141.926 201.1C141.926 192.139 144.283 183.729 148.409 176.46Z" stroke="black" stroke-width="2" stroke-linejoin="round"/>
</svg>
