<svg width="253" height="259" viewBox="0 0 253 259" fill="none" xmlns="http://www.w3.org/2000/svg">
<path d="M1.5 104.876C1.5 158.103 44.7355 201.252 98.0692 201.252C124.736 201.252 148.878 190.465 166.354 173.024C183.83 155.584 194.638 131.49 194.638 104.876C194.638 51.6491 151.403 8.5 98.0692 8.5C44.7355 8.5 1.5 51.6491 1.5 104.876Z" fill="#F9F9F9"/>
<path d="M251.5 258L166.354 173.024M166.354 173.024C183.83 155.584 194.638 131.49 194.638 104.876C194.638 51.6491 151.403 8.5 98.0692 8.5C44.7355 8.5 1.5 51.6491 1.5 104.876C1.5 158.103 44.7355 201.252 98.0692 201.252C124.736 201.252 148.878 190.465 166.354 173.024Z" stroke="black" stroke-width="2" stroke-linejoin="round"/>
</svg>
