<svg width="251" height="252" viewBox="0 0 251 252" fill="none" xmlns="http://www.w3.org/2000/svg">
<path fill-rule="evenodd" clip-rule="evenodd" d="M125.25 1L5 93.2819V251H245.5V93.2819L125.25 1ZM167.919 250.748V174.58C167.919 151.115 148.931 132.092 125.509 132.092C102.086 132.092 83.0978 151.115 83.0978 174.58V250.748H167.919Z" fill="#F9F9F9"/>
<path d="M167.919 174.58V250.748H83.0978V174.58C83.0978 151.115 102.086 132.092 125.509 132.092C148.931 132.092 167.919 151.115 167.919 174.58Z" fill="#F9F9F9"/>
<path fill-rule="evenodd" clip-rule="evenodd" d="M125.25 1L5 93.2819V251H245.5V93.2819L125.25 1ZM167.919 250.748V174.58C167.919 151.115 148.931 132.092 125.509 132.092C102.086 132.092 83.0978 151.115 83.0978 174.58V250.748H167.919Z" stroke="black" stroke-width="2" stroke-linejoin="round"/>
<path d="M167.919 174.58V250.748H83.0978V174.58C83.0978 151.115 102.086 132.092 125.509 132.092C148.931 132.092 167.919 151.115 167.919 174.58Z" stroke="black" stroke-width="2" stroke-linejoin="round"/>
<path d="M167.919 174.58V250.748H83.0977V174.58C83.0977 151.114 102.086 132.092 125.508 132.092C148.931 132.092 167.919 151.114 167.919 174.58Z" fill="#F9F9F9" stroke="black" stroke-width="2" stroke-linejoin="round"/>
</svg>
