<svg width="253" height="252" viewBox="0 0 253 252" fill="none" xmlns="http://www.w3.org/2000/svg">
<path d="M1.5 1L39.4618 172.742L119.763 190.492L190.992 119.263L173.242 38.9618L1.5 1L90.7205 90.0175C98.7928 81.9451 111.881 81.9451 119.953 90.0175C128.025 98.0898 128.025 111.178 119.953 119.25C111.881 127.322 98.7928 127.322 90.7205 119.25C82.6481 111.178 82.6481 98.0898 90.7205 90.0175L1.5 1Z" fill="#F9F9F9"/>
<path d="M190.992 119.263L119.763 190.492L110.615 199.64L161.975 251L251.5 161.475L200.14 110.115L190.992 119.263Z" fill="#F9F9F9"/>
<path d="M1.5 1L39.4618 172.742L119.763 190.492M1.5 1L173.242 38.9618L190.992 119.263M1.5 1L90.7205 90.0175M190.992 119.263L119.763 190.492M190.992 119.263L200.14 110.115M119.763 190.492L110.615 199.64M90.7205 90.0175C82.6481 98.0898 82.6481 111.178 90.7205 119.25C98.7928 127.322 111.881 127.322 119.953 119.25C128.025 111.178 128.025 98.0898 119.953 90.0175C111.881 81.9451 98.7928 81.9451 90.7205 90.0175ZM110.615 199.64L200.14 110.115M110.615 199.64L161.975 251L251.5 161.475L200.14 110.115" stroke="black" stroke-width="2" stroke-linejoin="round"/>
<path d="M190.942 119.156L119.656 190.442L110.5 199.598L161.902 251L251.5 161.402L200.098 110L190.942 119.156Z" fill="#F9F9F9" stroke="black" stroke-width="2" stroke-linejoin="round"/>
</svg>
