<svg width="253" height="252" viewBox="0 0 253 252" fill="none" xmlns="http://www.w3.org/2000/svg">
<path d="M1.5 251L100.421 231.487L225.486 106.423L146.077 27.0142L21.0131 152.079L1.5 251Z" fill="#F9F9F9"/>
<path d="M235.054 96.8544C256.982 74.9264 256.982 39.374 235.054 17.446C213.126 -4.482 177.574 -4.48201 155.646 17.446L146.077 27.0142L225.486 106.423L235.054 96.8544Z" fill="#F9F9F9"/>
<path d="M100.421 231.487L1.5 251L21.0131 152.079M100.421 231.487L225.486 106.423M100.421 231.487L21.0131 152.079M21.0131 152.079L146.077 27.0142M225.486 106.423L235.054 96.8544C256.982 74.9264 256.982 39.374 235.054 17.446C213.126 -4.482 177.574 -4.48201 155.646 17.446L146.077 27.0142M225.486 106.423L146.077 27.0142" stroke="black" stroke-width="2" stroke-linejoin="round"/>
</svg>
