<svg width="251" height="254" viewBox="0 0 251 254" fill="none" xmlns="http://www.w3.org/2000/svg">
<path fill-rule="evenodd" clip-rule="evenodd" d="M108.024 1H142.976L151.546 44.0488C163.901 47.919 175.07 54.4665 184.371 63.0107L226.024 48.8853L243.5 79.115L210.432 108.071C211.787 114.165 212.501 120.499 212.501 127C212.501 133.501 211.787 139.835 210.431 145.929L243.5 174.886L226.024 205.115L184.37 190.989C175.069 199.533 163.901 206.08 151.546 209.95L142.976 253H108.024L99.4589 209.972C87.0844 206.107 75.8977 199.557 66.5828 191.005L24.9759 205.115L7.5 174.886L40.5148 145.976C39.1528 139.868 38.4344 133.517 38.4344 127C38.4344 120.482 39.1527 114.132 40.5145 108.024L7.50018 79.1149L24.9761 48.8853L66.5817 62.9947C75.8968 54.4425 87.0839 47.8923 99.459 44.0272L108.024 1ZM159.876 126.999C159.876 145.978 144.471 161.363 125.468 161.363C106.464 161.363 91.0592 145.978 91.0592 126.999C91.0592 108.021 106.464 92.6358 125.468 92.6358C144.471 92.6358 159.876 108.021 159.876 126.999Z" fill="#F9F9F9" stroke="black" stroke-width="2" stroke-linejoin="round"/>
</svg>
