<svg width="253" height="252" viewBox="0 0 253 252" fill="none" xmlns="http://www.w3.org/2000/svg">
<path d="M185.236 141.5C176.677 173.94 143.443 193.299 111.004 184.74C78.5653 176.182 59.2065 142.946 67.7649 110.507C76.3232 78.0674 109.558 58.7081 141.997 67.2667C174.435 75.8253 193.794 109.061 185.236 141.5Z" fill="#F9F9F9"/>
<path d="M189.4 233.991C161.807 250.064 127.979 255.642 94.62 246.841C27.8849 229.233 -11.9414 160.859 5.66544 94.1223C23.2723 27.3856 91.6449 -12.4417 158.38 5.16555C225.115 22.7728 264.941 91.1472 247.335 157.884C242.81 175.033 225.241 185.267 208.093 180.742C190.945 176.218 180.711 158.648 185.235 141.5M185.236 141.5C176.677 173.94 143.443 193.299 111.004 184.74C78.5653 176.182 59.2065 142.946 67.7649 110.507C76.3232 78.0674 109.558 58.7081 141.997 67.2667C174.435 75.8253 193.794 109.061 185.236 141.5Z" stroke="black" stroke-width="2" stroke-linejoin="round"/>
</svg>
