<svg width="253" height="250" viewBox="0 0 253 250" fill="none" xmlns="http://www.w3.org/2000/svg">
<path d="M65.4913 55.0044H1.5V145.473H126.5H251.5V55.0044H188.051H65.4913Z" fill="#F9F9F9"/>
<path d="M1.5 243.027H251.5V145.473H126.5H1.5V243.027Z" fill="#F9F9F9"/>
<path d="M1.5 55.0044H251.5M1.5 55.0044V145.473M1.5 55.0044H65.4913M251.5 55.0044V145.473M251.5 55.0044H188.051M1.5 145.473V243.027H251.5V145.473M1.5 145.473H126.5M251.5 145.473H126.5M126.5 145.473V171.905M65.4913 55.0044C65.4913 28.2161 92.9272 6.5 126.771 6.5C160.615 6.5 188.051 28.2161 188.051 55.0044M65.4913 55.0044H188.051" stroke="black" stroke-width="2" stroke-linejoin="round"/>
</svg>
