<svg width="253" height="252" viewBox="0 0 253 252" fill="none" xmlns="http://www.w3.org/2000/svg">
<path fill-rule="evenodd" clip-rule="evenodd" d="M1.5 251H251.5L82.617 82.117L1.5 163.234V251Z" fill="#F9F9F9"/>
<path d="M218.255 66.1596C218.255 83.7857 203.967 98.0745 186.34 98.0745C168.714 98.0745 154.426 83.7857 154.426 66.1596C154.426 48.5335 168.714 34.2447 186.34 34.2447C203.967 34.2447 218.255 48.5335 218.255 66.1596Z" fill="#F9F9F9"/>
<path d="M251.5 251V1H1.5V163.234M251.5 251H1.5V163.234M251.5 251L82.617 82.117L1.5 163.234M218.255 66.1596C218.255 83.7857 203.967 98.0745 186.34 98.0745C168.714 98.0745 154.426 83.7857 154.426 66.1596C154.426 48.5335 168.714 34.2447 186.34 34.2447C203.967 34.2447 218.255 48.5335 218.255 66.1596Z" stroke="black" stroke-width="2" stroke-linejoin="round"/>
</svg>
