<svg width="251" height="252" viewBox="0 0 251 252" fill="none" xmlns="http://www.w3.org/2000/svg">
<path d="M155.555 220.777C155.555 237.469 141.987 251 125.25 251C108.513 251 94.9447 237.469 94.9447 220.777C94.9447 218.872 95.1214 217.009 95.4593 215.202H5.5L43.4712 64.5028C52.8764 27.1758 86.5855 1 125.25 1C163.915 1 197.624 27.1757 207.029 64.5028L245 215.202H155.041C155.379 217.009 155.555 218.872 155.555 220.777Z" fill="#F9F9F9"/>
<path d="M155.041 215.202C155.379 217.009 155.555 218.872 155.555 220.777C155.555 237.469 141.987 251 125.25 251C108.513 251 94.9447 237.469 94.9447 220.777C94.9447 218.872 95.1214 217.009 95.4593 215.202M155.041 215.202H95.4593M155.041 215.202H245L207.029 64.5028C197.624 27.1757 163.915 1 125.25 1C86.5855 1 52.8764 27.1758 43.4712 64.5028L5.5 215.202H95.4593" stroke="black" stroke-width="2" stroke-linejoin="round"/>
</svg>
