<svg width="252" height="250" viewBox="0 0 252 250" fill="none" xmlns="http://www.w3.org/2000/svg">
<path d="M1.5 71.3523C36.6666 42.4567 80.7745 26.7729 126.226 27.0025C171.677 27.2321 215.625 43.3609 250.5 72.6103L125.242 223L1.5 71.3523Z" fill="#F9F9F9"/>
<path d="M42.7474 121.9C66.1918 102.637 95.5971 92.1808 125.898 92.3339C156.199 92.487 185.498 103.24 208.747 122.739L125.242 222.999L42.7474 121.9Z" fill="#F9F9F9"/>
<path d="M83.9948 172.451C95.717 162.819 110.42 157.591 125.57 157.668C140.72 157.744 155.37 163.121 166.995 172.871L125.242 223L83.9948 172.451Z" fill="#F9F9F9"/>
<path d="M125.242 223L250.5 72.6103C215.625 43.3609 171.677 27.2321 126.226 27.0025C80.7745 26.7729 36.6666 42.4567 1.5 71.3523L125.242 223ZM125.242 223L166.995 172.871C155.37 163.121 140.72 157.744 125.57 157.668C110.42 157.591 95.717 162.819 83.9948 172.451L125.242 223ZM42.7474 121.9C66.1918 102.637 95.5971 92.1808 125.898 92.3339C156.199 92.487 185.498 103.24 208.747 122.739L125.242 222.999L42.7474 121.9Z" stroke="black" stroke-width="2" stroke-linejoin="round"/>
</svg>
