<svg width="251" height="251" viewBox="0 0 251 251" fill="none" xmlns="http://www.w3.org/2000/svg">
<path d="M10 181.769V112.538C10 50.9375 59.9375 1 121.538 1H129.231C156.277 1 181.075 10.6263 200.385 26.6396M240.769 181.769V112.538C240.769 96.8241 237.519 81.8687 231.655 68.3077M48.4615 201V116.385C48.4615 93.4098 58.5337 72.7874 74.5034 58.6923M202.308 201V116.385C202.308 73.9012 167.868 39.4615 125.385 39.4615M86.9231 224.077V120.231C86.9231 98.989 104.143 81.7692 125.385 81.7692C146.626 81.7692 163.846 98.989 163.846 120.231V224.077M125.385 120.231V251" stroke="black" stroke-width="2" stroke-linejoin="round"/>
</svg>
