<svg width="253" height="252" viewBox="0 0 253 252" fill="none" xmlns="http://www.w3.org/2000/svg">
<path d="M163.265 108.435C163.265 115.428 161.253 121.098 158.771 121.098C156.29 121.098 154.278 115.428 154.278 108.435C154.278 101.441 156.29 95.7712 158.771 95.7712C161.253 95.7712 163.265 101.441 163.265 108.435Z" fill="#F9F9F9"/>
<path d="M93.0033 108.435C93.0033 115.428 90.9915 121.098 88.5098 121.098C86.0281 121.098 84.0163 115.428 84.0163 108.435C84.0163 101.441 86.0281 95.7712 88.5098 95.7712C90.9915 95.7712 93.0033 101.441 93.0033 108.435Z" fill="#F9F9F9"/>
<path d="M85.6503 1H42.3497C19.789 1 1.5 19.289 1.5 41.8497V85.1503M167.35 1H210.65C233.211 1 251.5 19.289 251.5 41.8497V85.1503M85.6503 251H42.3497C19.789 251 1.5 232.711 1.5 210.15V166.85M167.35 251H210.65C233.211 251 251.5 232.711 251.5 210.15V166.85M163.265 157.046C155.825 170.639 143.616 179.922 123.641 179.922C106.408 179.922 91.4561 170.639 84.0163 157.046M126.5 95.7712V130.854C126.5 137.953 124.38 145.608 111.794 145.608M163.265 108.435C163.265 115.428 161.253 121.098 158.771 121.098C156.29 121.098 154.278 115.428 154.278 108.435C154.278 101.441 156.29 95.7712 158.771 95.7712C161.253 95.7712 163.265 101.441 163.265 108.435ZM93.0033 108.435C93.0033 115.428 90.9915 121.098 88.5098 121.098C86.0281 121.098 84.0163 115.428 84.0163 108.435C84.0163 101.441 86.0281 95.7712 88.5098 95.7712C90.9915 95.7712 93.0033 101.441 93.0033 108.435Z" stroke="black" stroke-width="2" stroke-linejoin="round"/>
</svg>
