<svg width="252" height="252" viewBox="0 0 252 252" fill="none" xmlns="http://www.w3.org/2000/svg">
<path d="M126.846 63.4999H188.673V250.999H126.846V126V63.4999Z" fill="#F9F9F9"/>
<path d="M64.589 126H126.846V250.999H64.5913L64.5886 188.5L64.589 126Z" fill="#F9F9F9"/>
<path d="M188.673 1H250.5V250.999H188.673V126V63.4999V1Z" fill="#F9F9F9"/>
<path d="M2.33374 188.5H64.5886L64.5913 250.999H2.33374V188.5Z" fill="#F9F9F9"/>
<path d="M188.673 63.4999H126.846V126M188.673 63.4999V250.999M188.673 63.4999V126V250.999M188.673 63.4999V1H250.5V250.999H188.673M188.673 250.999H126.846M126.846 250.999V126M126.846 250.999H64.5913M126.846 126H64.589L64.5886 188.5M64.5913 250.999L64.5886 188.5M64.5913 250.999H2.33374V188.5H64.5886" stroke="black" stroke-width="2" stroke-linejoin="round"/>
</svg>
