<svg width="251" height="252" viewBox="0 0 251 252" fill="none" xmlns="http://www.w3.org/2000/svg">
<path d="M37.5 1H212.5V29.6885H203.316H46.6837H37.5V1Z" fill="#F9F9F9"/>
<path d="M212.5 251L37.5 251L37.5 222.311H46.6837L203.316 222.311H212.5V251Z" fill="#F9F9F9"/>
<path d="M125 126C125 126 46.6837 169.12 46.6837 222.311L203.316 222.311C203.316 169.12 125 126 125 126Z" fill="#F9F9F9"/>
<path d="M125 126C125 126 203.316 82.8799 203.316 29.6885H46.6837C46.6837 82.8799 125 126 125 126Z" fill="#F9F9F9"/>
<path d="M203.316 29.6885C203.316 82.8799 125 126 125 126M203.316 29.6885H212.5V1H37.5V29.6885H46.6837M203.316 29.6885H46.6837M125 126C125 126 46.6837 82.8799 46.6837 29.6885M125 126C125 126 46.6837 169.12 46.6837 222.311M125 126C125 126 203.316 169.12 203.316 222.311M46.6837 222.311H37.5L37.5 251L212.5 251V222.311H203.316M46.6837 222.311L203.316 222.311" stroke="black" stroke-width="2" stroke-linejoin="round"/>
<path d="M125 126C125 126 46.6836 169.12 46.6836 222.311L203.316 222.311C203.316 169.12 125 126 125 126Z" fill="#F9F9F9" stroke="black" stroke-width="2" stroke-linejoin="round"/>
</svg>
