<svg width="253" height="250" viewBox="0 0 253 250" fill="none" xmlns="http://www.w3.org/2000/svg">
<path fill-rule="evenodd" clip-rule="evenodd" d="M172.302 46.5H80.6985C36.9584 46.5 1.5 81.6456 1.5 125C1.5 168.354 36.9584 203.5 80.6985 203.5H172.302C216.042 203.5 251.5 168.354 251.5 125C251.5 81.6456 216.042 46.5 172.302 46.5ZM29.3125 96.0783C13.2298 123.925 22.774 159.533 50.6301 175.611C78.4863 191.688 114.106 182.147 130.189 154.3C146.271 126.453 136.727 90.8451 108.871 74.7676C81.0148 58.6901 45.3953 68.2312 29.3125 96.0783Z" fill="#F9F9F9"/>
<path d="M50.6301 175.611C22.774 159.533 13.2298 123.925 29.3125 96.0783C45.3953 68.2312 81.0148 58.6901 108.871 74.7676C136.727 90.8451 146.271 126.453 130.189 154.3C114.106 182.147 78.4863 191.688 50.6301 175.611Z" fill="#F9F9F9"/>
<path fill-rule="evenodd" clip-rule="evenodd" d="M172.302 46.5H80.6985C36.9584 46.5 1.5 81.6456 1.5 125C1.5 168.354 36.9584 203.5 80.6985 203.5H172.302C216.042 203.5 251.5 168.354 251.5 125C251.5 81.6456 216.042 46.5 172.302 46.5ZM29.3125 96.0783C13.2298 123.925 22.774 159.533 50.6301 175.611C78.4863 191.688 114.106 182.147 130.189 154.3C146.271 126.453 136.727 90.8451 108.871 74.7676C81.0148 58.6901 45.3953 68.2312 29.3125 96.0783Z" stroke="black" stroke-width="2" stroke-linejoin="round"/>
<path d="M50.6301 175.611C22.774 159.533 13.2298 123.925 29.3125 96.0783C45.3953 68.2312 81.0148 58.6901 108.871 74.7676C136.727 90.8451 146.271 126.453 130.189 154.3C114.106 182.147 78.4863 191.688 50.6301 175.611Z" stroke="black" stroke-width="2" stroke-linejoin="round"/>
<path d="M50.6301 175.611C22.774 159.533 13.2298 123.925 29.3125 96.0781C45.3953 68.2311 81.0148 58.69 108.871 74.7675C136.727 90.845 146.271 126.453 130.189 154.3C114.106 182.147 78.4863 191.688 50.6301 175.611Z" fill="#F9F9F9" stroke="black" stroke-width="2" stroke-linejoin="round"/>
</svg>
