<svg width="251" height="252" viewBox="0 0 251 252" fill="none" xmlns="http://www.w3.org/2000/svg">
<path fill-rule="evenodd" clip-rule="evenodd" d="M165.117 2.03125C139.308 8.45065 119.228 33.8019 121.2 57.4775C121.542 61.5821 121.542 61.5821 125.28 61.2811C150.707 59.2332 171.647 35.8737 172.551 8.54968C172.829 0.136988 172.808 0.118451 165.117 2.03125ZM77.3071 59.6864C54.0701 61.6909 30.7741 81.3359 22.9278 105.543C11.8647 139.675 21.9609 186.318 48.4288 223.353C67.5861 250.159 82.4123 256.249 104.965 246.575C123.7 238.54 136.022 238.481 154.112 246.341C167.841 252.306 176.397 252.515 186.338 247.129C198.751 240.403 214.996 219.875 226.796 196C233.166 183.115 233.126 184.772 227.139 181.732C189.622 162.679 186.467 109.091 221.58 87.3021C225.526 84.8537 225.487 85.161 222.316 81.5403C215.078 73.2774 203.303 65.3189 193.655 62.1694C179.517 57.5536 167.227 58.5322 147.558 65.8409C132.454 71.4529 126.828 71.3412 108.233 65.0589C93.693 60.1464 86.4872 58.8946 77.3071 59.6864Z" fill="#F9F9F9" stroke="black" stroke-width="2" stroke-linejoin="round"/>
</svg>
