<svg width="251" height="251" viewBox="0 0 251 251" fill="none" xmlns="http://www.w3.org/2000/svg">
<path fill-rule="evenodd" clip-rule="evenodd" d="M62.4783 72.1083H187.67C187.67 49.6289 175.818 29.9177 158.021 18.8813C148.451 12.947 137.163 9.52079 125.074 9.52079C113.093 9.52079 101.898 12.8865 92.3831 18.7238C74.444 29.7296 62.4783 49.5216 62.4783 72.1083ZM106.838 45.9891C106.838 50.344 103.307 53.8741 98.9515 53.8741C94.5964 53.8741 91.0654 50.344 91.0654 45.9891C91.0654 41.6341 94.5964 38.104 98.9515 38.104C103.307 38.104 106.838 41.6341 106.838 45.9891ZM151.69 53.8741C156.045 53.8741 159.576 50.344 159.576 45.9891C159.576 41.6341 156.045 38.104 151.69 38.104C147.335 38.104 143.804 41.6341 143.804 45.9891C143.804 50.344 147.335 53.8741 151.69 53.8741Z" fill="#F9F9F9"/>
<path d="M187.67 87.5284H62.4783V199.276H98.9515H151.69H187.67V87.5284Z" fill="#F9F9F9"/>
<path d="M41 172.642V98.2274M187.67 199.276V87.5284H62.4783V199.276M187.67 199.276H62.4783M187.67 199.276H151.69M151.69 251V199.276M98.9515 251V199.276M62.4783 199.276H98.9515M209.148 98.2274V172.642M175.904 1L158.021 18.8813M74.6569 1L92.3831 18.7238M92.3831 18.7238C101.898 12.8865 113.093 9.52079 125.074 9.52079C137.163 9.52079 148.451 12.947 158.021 18.8813M92.3831 18.7238C74.444 29.7296 62.4783 49.5216 62.4783 72.1083H187.67C187.67 49.6289 175.818 29.9177 158.021 18.8813M151.69 199.276H98.9515M98.9515 53.8741C103.307 53.8741 106.838 50.344 106.838 45.9891C106.838 41.6341 103.307 38.104 98.9515 38.104C94.5964 38.104 91.0654 41.6341 91.0654 45.9891C91.0654 50.344 94.5964 53.8741 98.9515 53.8741ZM159.576 45.9891C159.576 50.344 156.045 53.8741 151.69 53.8741C147.335 53.8741 143.804 50.344 143.804 45.9891C143.804 41.6341 147.335 38.104 151.69 38.104C156.045 38.104 159.576 41.6341 159.576 45.9891Z" stroke="black" stroke-width="2" stroke-linejoin="round"/>
</svg>
