<svg width="251" height="253" viewBox="0 0 251 253" fill="none" xmlns="http://www.w3.org/2000/svg">
<path fill-rule="evenodd" clip-rule="evenodd" d="M148.368 1H108.453V25.6175C101.321 26.8739 94.6499 28.8763 88.4383 31.6245C76.9947 36.6874 67.9893 43.7302 61.4222 52.7526C54.9202 61.7751 51.7016 72.3229 51.7667 84.3961C51.7016 99.1307 56.5457 110.847 66.2988 119.545C76.0519 128.243 89.3486 134.636 106.189 138.726L108.453 139.293V190.898C107.92 190.717 107.393 190.528 106.872 190.329C101.15 188.057 96.5658 184.714 93.1198 180.3C89.7387 175.822 87.8206 170.239 87.3654 163.554H46.5C46.8251 177.899 50.3037 189.94 56.9358 199.676C63.6329 209.348 72.9309 216.65 84.8296 221.583C91.9641 224.525 99.8384 226.59 108.453 227.777V251.5H148.368V227.36C155.778 226.147 162.525 224.254 168.609 221.68C180.182 216.747 189.025 209.834 195.137 200.942C201.314 191.984 204.435 181.404 204.5 169.201C204.435 160.892 202.907 153.525 199.916 147.099C196.99 140.673 192.861 135.091 187.53 130.352C182.198 125.614 175.891 121.622 168.609 118.376C162.384 115.602 155.638 113.303 148.368 111.477V63.9473C149.378 64.5133 150.338 65.1307 151.248 65.7995C157.165 70.1485 160.514 76.25 161.294 84.1041H201.769C201.574 72.2256 198.388 61.7751 192.211 52.7526C186.034 43.7302 177.386 36.6874 166.268 31.6245C160.768 29.1054 154.802 27.213 148.368 25.9473V1ZM148.368 189.075V150.917C152.462 152.875 155.632 155.173 157.88 157.809C160.546 160.86 161.879 164.625 161.879 169.103C161.879 173.907 160.416 178.158 157.49 181.858C155.192 184.765 152.151 187.17 148.368 189.075ZM108.453 62.7201V100.23C106.956 99.4763 105.551 98.6773 104.238 97.8325C101.312 95.8852 99.0041 93.5809 97.3136 90.9196C95.6881 88.2583 94.9403 85.1426 95.0704 81.5726C95.0704 77.2885 96.3058 73.4589 98.7766 70.0835C101.085 67.0102 104.311 64.5557 108.453 62.7201Z" fill="#F9F9F9" stroke="black" stroke-width="2" stroke-linejoin="round"/>
</svg>
