<svg width="253" height="252" viewBox="0 0 253 252" fill="none" xmlns="http://www.w3.org/2000/svg">
<path d="M151.246 225.308C116.989 259.564 61.4486 259.564 27.1923 225.308C-7.06409 191.051 -7.06409 135.511 27.1923 101.254C61.4486 66.9981 251.5 1 251.5 1C251.5 1 185.502 191.051 151.246 225.308Z" fill="#F9F9F9"/>
<path d="M134.778 208.842C109.617 234.003 68.8213 234.003 43.6595 208.842C18.4978 183.68 18.4978 142.885 43.6595 117.723C68.8213 92.561 109.617 92.561 134.778 117.723C159.94 142.885 159.94 183.68 134.778 208.842Z" fill="#F9F9F9"/>
<path d="M151.246 225.308C116.989 259.564 61.4486 259.564 27.1923 225.308C-7.06409 191.051 -7.06409 135.511 27.1923 101.254C61.4486 66.9981 251.5 1 251.5 1C251.5 1 185.502 191.051 151.246 225.308Z" stroke="black" stroke-width="2" stroke-linejoin="round"/>
<path d="M134.778 208.842C109.617 234.003 68.8213 234.003 43.6595 208.842C18.4978 183.68 18.4978 142.885 43.6595 117.723C68.8213 92.561 109.617 92.561 134.778 117.723C159.94 142.885 159.94 183.68 134.778 208.842Z" stroke="black" stroke-width="2" stroke-linejoin="round"/>
<path d="M134.778 208.842C109.616 234.003 68.8212 234.003 43.6594 208.842C18.4976 183.68 18.4976 142.885 43.6594 117.723C68.8212 92.5611 109.616 92.5611 134.778 117.723C159.94 142.885 159.94 183.68 134.778 208.842Z" fill="#F9F9F9" stroke="black" stroke-width="2" stroke-linejoin="round"/>
</svg>
