<svg width="251" height="250" viewBox="0 0 251 250" fill="none" xmlns="http://www.w3.org/2000/svg">
<path d="M31.5673 51C31.5673 39.9543 40.5216 31 51.5673 31H199.433C210.478 31 219.433 39.9543 219.433 51V77.9306V124.861V171.792V198.722C219.433 209.768 210.478 218.722 199.433 218.722H51.5672C40.5215 218.722 31.5673 209.768 31.5673 198.722V51Z" fill="#F9F9F9"/>
<path d="M167.532 125.226C167.532 149.028 148.877 168.322 125.866 168.322C102.854 168.322 84.1988 149.028 84.1988 125.226C84.1988 101.425 102.854 82.1306 125.866 82.1306C148.877 82.1306 167.532 101.425 167.532 125.226Z" fill="#F9F9F9"/>
<path d="M219.433 124.861H250.5M219.433 124.861V77.9306M219.433 124.861V171.792M219.433 77.9306V51C219.433 39.9543 210.478 31 199.433 31H51.5673C40.5216 31 31.5673 39.9543 31.5673 51V198.722C31.5673 209.768 40.5215 218.722 51.5672 218.722H199.433C210.478 218.722 219.433 209.768 219.433 198.722V171.792M219.433 77.9306H250.5M219.433 171.792H250.5M0.5 124.861H31.5673M0.5 77.9306H31.5673M0.5 171.792H31.5673M167.532 125.226C167.532 149.028 148.877 168.322 125.865 168.322C102.854 168.322 84.1988 149.028 84.1988 125.226C84.1988 101.425 102.854 82.1306 125.865 82.1306C148.877 82.1306 167.532 101.425 167.532 125.226Z" stroke="black" stroke-width="2" stroke-linejoin="round"/>
</svg>
