<svg width="253" height="250" viewBox="0 0 253 250" fill="none" xmlns="http://www.w3.org/2000/svg">
<path d="M126.499 237.5L1.5 82.3656L49.2449 12.5L203.753 12.5L251.5 82.3656L126.499 237.5Z" fill="#F9F9F9"/>
<path d="M126.5 237.5L77.1881 82.3656L96.0232 12.5L156.976 12.5L175.812 82.3656L126.5 237.5Z" fill="#F9F9F9"/>
<path d="M1.5 82.3656L126.499 237.5L251.5 82.3656M1.5 82.3656L49.2449 12.5L203.753 12.5L251.5 82.3656M1.5 82.3656L251.5 82.3656M77.1881 82.3656L126.5 237.5L175.812 82.3656M77.1881 82.3656L96.0232 12.5L156.976 12.5L175.812 82.3656M77.1881 82.3656L175.812 82.3656" stroke="black" stroke-width="2" stroke-linejoin="round"/>
</svg>
