<svg width="251" height="252" viewBox="0 0 251 252" fill="none" xmlns="http://www.w3.org/2000/svg">
<path d="M123.385 1C108.875 18.1895 32.5 110.88 32.5 157.493C32.5 208.998 74.2495 250.751 125.75 250.751C177.251 250.751 219 208.998 219 157.493C219 131.818 195.828 92.1637 172.587 58.8468L156.646 77.439C156.646 77.439 141.478 41.726 123.385 1Z" fill="#F9F9F9"/>
<path d="M124.454 114.483C116.499 123.879 74.631 174.545 74.631 200.024C74.631 228.177 97.5178 251 125.75 251C153.982 251 176.869 228.177 176.869 200.024C176.869 185.99 164.166 164.314 151.425 146.103L142.687 156.266C142.687 156.266 134.372 136.744 124.454 114.483Z" fill="#F9F9F9"/>
<path d="M123.385 1C108.875 18.1895 32.5 110.88 32.5 157.493C32.5 208.998 74.2495 250.751 125.75 250.751C177.251 250.751 219 208.998 219 157.493C219 131.818 195.828 92.1637 172.587 58.8468L156.646 77.439C156.646 77.439 141.478 41.726 123.385 1Z" stroke="black" stroke-width="2" stroke-linejoin="round"/>
<path d="M124.454 114.483C116.499 123.879 74.631 174.545 74.631 200.024C74.631 228.177 97.5178 251 125.75 251C153.982 251 176.869 228.177 176.869 200.024C176.869 185.99 164.166 164.314 151.425 146.103L142.687 156.266C142.687 156.266 134.372 136.744 124.454 114.483Z" stroke="black" stroke-width="2" stroke-linejoin="round"/>
<path d="M124.454 114.483C116.499 123.879 74.6309 174.545 74.6309 200.024C74.6309 228.177 97.5176 251 125.75 251C153.982 251 176.869 228.177 176.869 200.024C176.869 185.99 164.166 164.314 151.425 146.103L142.687 156.266C142.687 156.266 134.372 136.744 124.454 114.483Z" fill="#F9F9F9" stroke="black" stroke-width="2" stroke-linejoin="round"/>
</svg>
