<svg width="251" height="250" viewBox="0 0 251 250" fill="none" xmlns="http://www.w3.org/2000/svg">
<path d="M126.165 125L125.658 125.293L125.15 125L125.658 124.707L126.165 125Z" fill="#F9F9F9"/>
<path d="M125.658 250L125.658 125.293M125.658 125.293L126.165 125M125.658 125.293L125.15 125M126.165 125L234 62.6543M126.165 125L125.658 124.707M126.165 125L234 187.346M17.5002 62.7608L125.15 125M125.15 125L17.5 187.239M125.15 125L125.658 124.707M125.658 0L125.658 124.707M182.419 45.9843L184.341 91.2929L222.274 115.43M165.5 36.2028L125.355 57.1898L86.0398 36.6365M222.274 135.362L184.341 159.499L182.487 203.185M164.062 213.837L125.355 193.602L87.4776 213.404M68.1835 202.249L66.3695 159.499L30.0163 136.367M30.0163 114.425L66.3695 91.2929L68.2524 46.9204" stroke="black" stroke-width="2" stroke-linejoin="round"/>
</svg>
