<svg width="253" height="252" viewBox="0 0 253 252" fill="none" xmlns="http://www.w3.org/2000/svg">
<path d="M251.021 1.47873C251.021 1.47873 186.822 -7.65183 125.333 53.8368L115.92 63.25L59.85 119.32L133.18 192.65L189.33 136.5L198.663 127.167C260.152 65.678 251.021 1.47873 251.021 1.47873Z" fill="#F9F9F9"/>
<path d="M185.823 100.06C176.683 109.2 161.865 109.2 152.725 100.06C143.585 90.9205 143.585 76.1019 152.725 66.962C161.865 57.8222 176.683 57.8222 185.823 66.962C194.963 76.1019 194.963 90.9205 185.823 100.06Z" fill="#F9F9F9"/>
<path d="M41.5604 78.2611L115.92 63.25L59.85 119.32L1.82145 118.327L1.5 118.321L1.82145 118L41.5604 78.2611Z" fill="#F9F9F9"/>
<path d="M174.239 210.94L189.33 136.5L133.18 192.65L134.172 250.631L134.179 251L134.466 250.713L174.239 210.94Z" fill="#F9F9F9"/>
<path d="M59.85 119.32L133.18 192.65M59.85 119.32L115.92 63.25M59.85 119.32L1.82145 118.327L1.5 118.321L1.82145 118L41.5604 78.2611L115.92 63.25M133.18 192.65L189.33 136.5M133.18 192.65L134.172 250.631L134.179 251L134.466 250.713L174.239 210.94L189.33 136.5M115.92 63.25L125.333 53.8368C186.822 -7.65183 251.021 1.47873 251.021 1.47873C251.021 1.47873 260.152 65.678 198.663 127.167L189.33 136.5M65.6993 153.417L40.5902 178.526M82.2485 169.966L39.4489 212.766M99.0829 186.801L73.9739 211.91M185.823 100.06C176.683 109.2 161.865 109.2 152.725 100.06C143.585 90.9205 143.585 76.1019 152.725 66.962C161.865 57.8222 176.683 57.8222 185.823 66.962C194.963 76.1019 194.963 90.9205 185.823 100.06Z" stroke="black" stroke-width="2" stroke-linejoin="round"/>
</svg>
