<svg width="256" height="250" viewBox="0 0 256 250" fill="none" xmlns="http://www.w3.org/2000/svg">
<path d="M206.5 101C206.5 103.543 206.33 106.047 206.002 108.501C206.085 108.5 206.167 108.5 206.25 108.5C232.898 108.5 254.5 130.102 254.5 156.75C254.5 183.398 232.898 205 206.25 205C206.167 205 206.083 205 206 204.999V205H50V204.999C49.9167 205 49.8334 205 49.75 205C23.1023 205 1.5 183.398 1.5 156.75C1.5 130.102 23.1023 108.5 49.75 108.5C51.6958 108.5 53.6146 108.615 55.5001 108.839L55.5 108.75C55.5 90.9388 69.9388 76.5 87.75 76.5C91.7704 76.5 95.619 77.2357 99.1685 78.5798C107.815 58.8124 127.544 45 150.5 45C181.428 45 206.5 70.0721 206.5 101Z" fill="#F9F9F9" stroke="black" stroke-width="2" stroke-linejoin="round"/>
</svg>
