<svg width="253" height="252" viewBox="0 0 253 252" fill="none" xmlns="http://www.w3.org/2000/svg">
<path d="M126.5 1L152.905 62.2523L214.888 37.6117L190.248 99.5948L251.5 126L190.248 152.405L214.888 214.388L152.905 189.748L126.5 251L100.095 189.748L38.1117 214.388L62.7523 152.405L1.5 126L62.7523 99.5948L38.1117 37.6117L100.095 62.2523L126.5 1Z" fill="#F9F9F9"/>
<path d="M172.775 126C172.775 151.557 152.057 172.275 126.5 172.275C100.943 172.275 80.225 151.557 80.225 126C80.225 100.443 100.943 79.725 126.5 79.725C152.057 79.725 172.775 100.443 172.775 126Z" fill="#F9F9F9"/>
<path d="M126.5 1L152.905 62.2523L214.888 37.6117L190.248 99.5948L251.5 126L190.248 152.405L214.888 214.388L152.905 189.748L126.5 251L100.095 189.748L38.1117 214.388L62.7523 152.405L1.5 126L62.7523 99.5948L38.1117 37.6117L100.095 62.2523L126.5 1Z" stroke="black" stroke-width="2" stroke-linecap="round" stroke-linejoin="round"/>
<path d="M172.775 126C172.775 151.557 152.057 172.275 126.5 172.275C100.943 172.275 80.225 151.557 80.225 126C80.225 100.443 100.943 79.725 126.5 79.725C152.057 79.725 172.775 100.443 172.775 126Z" stroke="black" stroke-width="2" stroke-linecap="round" stroke-linejoin="round"/>
<path d="M172.775 126C172.775 151.557 152.057 172.275 126.5 172.275C100.943 172.275 80.2251 151.557 80.2251 126C80.2251 100.443 100.943 79.7251 126.5 79.7251C152.057 79.7251 172.775 100.443 172.775 126Z" fill="#F9F9F9" stroke="black" stroke-width="2" stroke-linecap="round" stroke-linejoin="round"/>
</svg>
