<svg width="251" height="251" viewBox="0 0 251 251" fill="none" xmlns="http://www.w3.org/2000/svg">
<path d="M209.167 143.319C209.167 189.343 171.857 226.653 125.833 226.653C79.8096 226.653 42.5 189.343 42.5 143.319C42.5 139.061 43.2133 134.373 44.508 129.37C48.5833 113.623 58.4187 94.7619 69.8973 76.4077C94.1863 37.5696 125.833 1 125.833 1C125.833 1 157.48 37.5696 181.769 76.4077C193.248 94.7619 203.083 113.623 207.159 129.37C208.453 134.373 209.167 139.061 209.167 143.319Z" fill="#F9F9F9"/>
<path d="M42.5 143.319C42.5 189.343 79.8096 226.653 125.833 226.653C171.857 226.653 209.167 189.343 209.167 143.319C209.167 139.061 208.453 134.373 207.159 129.37M42.5 143.319C42.5 139.061 43.2133 134.373 44.508 129.37M42.5 143.319L44.508 129.37M125.833 1V175.197M125.833 1C125.833 1 157.48 37.5696 181.769 76.4077M125.833 1V107.928M125.833 1C125.833 1 94.1863 37.5696 69.8973 76.4077M125.833 251V175.197M44.508 129.37L125.833 175.197M44.508 129.37C48.5833 113.623 58.4187 94.7619 69.8973 76.4077M207.159 129.37L125.833 175.197M207.159 129.37C203.083 113.623 193.248 94.7619 181.769 76.4077M125.833 107.928L181.769 76.4077M125.833 107.928L69.8973 76.4077" stroke="black" stroke-width="2" stroke-linejoin="round"/>
</svg>
