<svg width="251" height="252" viewBox="0 0 251 252" fill="none" xmlns="http://www.w3.org/2000/svg">
<path fill-rule="evenodd" clip-rule="evenodd" d="M168.163 208.631C168.163 232.031 149.15 251 125.697 251C102.244 251 83.2317 232.031 83.2317 208.631C83.2317 204.443 84.5921 199.109 86.8258 193.174C82.7906 198.072 78.8408 201.914 75.2054 204.009C54.8945 215.708 28.9229 208.765 17.1964 188.501C5.46986 168.236 12.4289 142.324 32.7399 130.624C36.375 128.53 41.6849 127.039 47.9534 126.001C41.6849 124.963 36.3751 123.472 32.74 121.378C12.429 109.678 5.46998 83.7659 17.1965 63.5014C28.9231 43.2368 54.8946 36.2936 75.2056 47.9934C78.8413 50.0877 82.7915 53.9307 86.8271 58.8293C84.5926 52.8926 83.2317 47.5574 83.2317 43.3685C83.2317 19.969 102.244 0.999998 125.697 1C149.15 1 168.163 19.9691 168.163 43.3686C168.163 47.5574 166.802 52.8924 164.568 58.829C168.603 53.9302 172.554 50.087 176.189 47.9926C196.5 36.2929 222.472 43.2361 234.199 63.5006C245.925 83.7652 238.966 109.677 218.655 121.377C215.019 123.472 209.708 124.963 203.437 126.001C209.708 127.039 215.019 128.53 218.655 130.625C238.966 142.325 245.925 168.237 234.199 188.501C222.472 208.766 196.501 215.709 176.19 204.009C172.554 201.915 168.604 198.072 164.569 193.174C166.802 199.11 168.163 204.443 168.163 208.631ZM125.85 172.006C151.422 172.006 172.153 151.322 172.153 125.809C172.153 100.295 151.422 79.6115 125.85 79.6115C100.278 79.6115 79.5472 100.295 79.5472 125.809C79.5472 151.322 100.278 172.006 125.85 172.006Z" fill="#F9F9F9"/>
<path d="M172.153 125.809C172.153 151.322 151.422 172.006 125.85 172.006C100.278 172.006 79.5472 151.322 79.5472 125.809C79.5472 100.295 100.278 79.6115 125.85 79.6115C151.422 79.6115 172.153 100.295 172.153 125.809Z" fill="#F9F9F9"/>
<path fill-rule="evenodd" clip-rule="evenodd" d="M168.163 208.631C168.163 232.031 149.15 251 125.697 251C102.244 251 83.2317 232.031 83.2317 208.631C83.2317 204.443 84.5921 199.109 86.8258 193.174C82.7906 198.072 78.8408 201.914 75.2054 204.009C54.8945 215.708 28.9229 208.765 17.1964 188.501C5.46986 168.236 12.4289 142.324 32.7399 130.624C36.375 128.53 41.6849 127.039 47.9534 126.001C41.6849 124.963 36.3751 123.472 32.74 121.378C12.429 109.678 5.46998 83.7659 17.1965 63.5014C28.9231 43.2368 54.8946 36.2936 75.2056 47.9934C78.8413 50.0877 82.7915 53.9307 86.8271 58.8293C84.5926 52.8926 83.2317 47.5574 83.2317 43.3685C83.2317 19.969 102.244 0.999998 125.697 1C149.15 1 168.163 19.9691 168.163 43.3686C168.163 47.5574 166.802 52.8924 164.568 58.829C168.603 53.9302 172.554 50.087 176.189 47.9926C196.5 36.2929 222.472 43.2361 234.199 63.5006C245.925 83.7652 238.966 109.677 218.655 121.377C215.019 123.472 209.708 124.963 203.437 126.001C209.708 127.039 215.019 128.53 218.655 130.625C238.966 142.325 245.925 168.237 234.199 188.501C222.472 208.766 196.501 215.709 176.19 204.009C172.554 201.915 168.604 198.072 164.569 193.174C166.802 199.11 168.163 204.443 168.163 208.631ZM125.85 172.006C151.422 172.006 172.153 151.322 172.153 125.809C172.153 100.295 151.422 79.6115 125.85 79.6115C100.278 79.6115 79.5472 100.295 79.5472 125.809C79.5472 151.322 100.278 172.006 125.85 172.006Z" stroke="black" stroke-width="2" stroke-linejoin="round"/>
<path d="M172.153 125.809C172.153 151.322 151.422 172.006 125.85 172.006C100.278 172.006 79.5472 151.322 79.5472 125.809C79.5472 100.295 100.278 79.6115 125.85 79.6115C151.422 79.6115 172.153 100.295 172.153 125.809Z" stroke="black" stroke-width="2" stroke-linejoin="round"/>
<path d="M172.153 125.809C172.153 151.323 151.422 172.006 125.85 172.006C100.278 172.006 79.5471 151.323 79.5471 125.809C79.5471 100.295 100.278 79.6116 125.85 79.6116C151.422 79.6116 172.153 100.295 172.153 125.809Z" fill="#F9F9F9" stroke="black" stroke-width="2" stroke-linejoin="round"/>
</svg>
