<svg width="251" height="252" viewBox="0 0 251 252" fill="none" xmlns="http://www.w3.org/2000/svg">
<path fill-rule="evenodd" clip-rule="evenodd" d="M159.25 1V26H149.25V66.492L196.125 158.746H54.875L101.75 66.4921V26H91.75V1L159.25 1Z" fill="#F9F9F9"/>
<path d="M8 251H243L196.125 158.746H54.875L8 251Z" fill="#F9F9F9"/>
<path d="M101.75 26H91.75V1L159.25 1V26H149.25M101.75 26V66.4921L54.875 158.746M101.75 26L149.25 26M149.25 26V66.492L196.125 158.746M54.875 158.746L8 251H243L196.125 158.746M54.875 158.746H196.125" stroke="black" stroke-width="2" stroke-linejoin="round"/>
<path d="M8 251H243L196.125 158.746H54.875L8 251Z" fill="#F9F9F9" stroke="black" stroke-width="2" stroke-linejoin="round"/>
</svg>
