<svg width="253" height="250" viewBox="0 0 253 250" fill="none" xmlns="http://www.w3.org/2000/svg">
<path d="M126.5 42.5L251.5 100.856L194.679 127.383L126.5 159.212L57.54 127.018L1.5 100.856L126.5 42.5Z" fill="#F9F9F9"/>
<path d="M126.109 207.341C163.979 207.341 194.679 190.024 194.679 168.663V127.383L126.5 159.212L57.54 127.018V168.663C57.54 190.024 88.2396 207.341 126.109 207.341Z" fill="#F9F9F9"/>
<path d="M251.5 100.856L126.5 42.5L1.5 100.856L57.54 127.018M251.5 100.856V176.713M251.5 100.856L194.679 127.383M57.54 127.018L126.5 159.212L194.679 127.383M57.54 127.018V168.663C57.54 190.024 88.2396 207.341 126.109 207.341C163.979 207.341 194.679 190.024 194.679 168.663V127.383" stroke="black" stroke-width="2" stroke-linejoin="round"/>
</svg>
