<svg width="253" height="252" viewBox="0 0 253 252" fill="none" xmlns="http://www.w3.org/2000/svg">
<path fill-rule="evenodd" clip-rule="evenodd" d="M17.391 133.415C17.3902 133.592 17.3898 133.768 17.3898 133.945C17.3898 198.593 69.7972 251 134.445 251C199.093 251 251.5 198.593 251.5 133.945C251.5 69.2972 199.093 16.8898 134.445 16.8898C134.268 16.8898 134.092 16.8902 133.915 16.891V133.415L17.391 133.415Z" fill="#F9F9F9"/>
<path d="M133.915 1C116.526 1 99.3075 4.42502 83.2421 11.0795C67.1768 17.734 52.5794 27.4876 40.2835 39.7835C27.9876 52.0794 18.234 66.6768 11.5795 82.7421C4.92502 98.8075 1.5 116.026 1.5 133.415H17.391L133.915 133.415V16.891V1Z" fill="#F9F9F9"/>
<path d="M133.915 16.891V1C116.526 1 99.3075 4.42502 83.2421 11.0795C67.1768 17.734 52.5794 27.4876 40.2835 39.7835C27.9876 52.0794 18.234 66.6768 11.5795 82.7421C4.92502 98.8075 1.5 116.026 1.5 133.415H17.391M133.915 16.891C134.092 16.8902 134.268 16.8898 134.445 16.8898C199.093 16.8898 251.5 69.2972 251.5 133.945C251.5 198.593 199.093 251 134.445 251C69.7972 251 17.3898 198.593 17.3898 133.945C17.3898 133.768 17.3902 133.592 17.391 133.415M133.915 16.891V133.415L17.391 133.415" stroke="black" stroke-width="2" stroke-linejoin="round"/>
</svg>
