<svg width="251" height="251" viewBox="0 0 251 251" fill="none" xmlns="http://www.w3.org/2000/svg">
<path d="M245.5 87.2121V39.5589H135.849C129.931 39.7195 125.5 39.5617 125.5 39.5617C125.5 39.5617 125.501 39.5607 125.501 39.5589H125.5V39.5632V87.2121H230.931H245.5Z" fill="#F9F9F9"/>
<path d="M5.5 39.5589V87.2121H20.0695H125.5V39.5632C125.5 39.5632 121.041 39.722 115.094 39.5589H5.5Z" fill="#F9F9F9"/>
<path d="M20.0695 250H125.5V87.2121H20.0695V250Z" fill="#F9F9F9"/>
<path d="M125.5 250H230.931V87.2121H125.5V250Z" fill="#F9F9F9"/>
<path fill-rule="evenodd" clip-rule="evenodd" d="M135.849 39.5589H125.501L125.5 39.5617C125.5 39.5617 129.931 39.7195 135.849 39.5589Z" fill="#F9F9F9"/>
<path fill-rule="evenodd" clip-rule="evenodd" d="M115.094 39.5589C121.041 39.722 125.5 39.5632 125.5 39.5632C125.5 39.5632 125.058 37.7739 124.266 34.9933" fill="#F9F9F9"/>
<path d="M125.5 250H230.931V87.2121M125.5 250H20.0695V87.2121M125.5 250V87.2121M125.5 87.2121V39.5589M125.5 87.2121H230.931M125.5 87.2121H20.0695M125.5 87.2121V39.5632M125.5 39.5589H125.501M125.5 39.5589V39.5632M125.5 39.5589H115.094M230.931 87.2121H245.5V39.5589H135.849M20.0695 87.2121H5.5V39.5589H115.094M125.5 39.5632C125.5 39.5632 121.041 39.722 115.094 39.5589M125.5 39.5632C125.5 39.5632 125.058 37.7739 124.266 34.9933C121.889 26.6514 116.361 9.38792 110.159 4.75071C101.89 -1.43222 90.1002 0.202038 83.8251 8.40094C77.5501 16.5998 79.1663 28.2586 87.435 34.4415C92.505 38.2326 105.668 39.3002 115.094 39.5589M125.5 39.5617C125.5 39.5617 129.931 39.7195 135.849 39.5589M125.5 39.5617C125.5 39.5617 125.501 39.5607 125.501 39.5589M125.5 39.5617L125.501 39.5589M135.849 39.5589C145.279 39.303 158.485 38.2387 163.565 34.44C171.834 28.2571 173.45 16.5983 167.175 8.39938C160.9 0.200479 149.11 -1.43378 140.841 4.74915C132.62 10.8966 125.582 39.2339 125.501 39.5589M135.849 39.5589H125.501" stroke="black" stroke-width="2" stroke-linejoin="round"/>
</svg>
