<svg width="253" height="252" viewBox="0 0 253 252" fill="none" xmlns="http://www.w3.org/2000/svg">
<path d="M39.7194 215.968C63.2829 193.234 77.9388 161.328 77.9388 126C77.9388 90.6716 63.2829 58.7663 39.7194 36.0324C16.1559 58.7663 1.5 90.6716 1.5 126C1.5 161.328 16.1559 193.234 39.7194 215.968Z" fill="#F9F9F9"/>
<path d="M126.5 251V1C92.7928 1 62.2017 14.3417 39.7194 36.0324C63.2829 58.7663 77.9388 90.6716 77.9388 126C77.9388 161.328 63.2829 193.234 39.7194 215.968C62.2017 237.658 92.7928 251 126.5 251Z" fill="#F9F9F9"/>
<path d="M126.5 251C160.207 251 190.798 237.658 213.281 215.968C189.717 193.234 175.061 161.328 175.061 126C175.061 90.6716 189.717 58.7663 213.281 36.0324C190.798 14.3417 160.207 1 126.5 1V251Z" fill="#F9F9F9"/>
<path d="M175.061 126C175.061 161.328 189.717 193.234 213.281 215.968C236.844 193.234 251.5 161.328 251.5 126C251.5 90.6716 236.844 58.7663 213.281 36.0324C189.717 58.7663 175.061 90.6716 175.061 126Z" fill="#F9F9F9"/>
<path d="M251.5 126C251.5 90.6716 236.844 58.7663 213.281 36.0324M251.5 126C251.5 161.328 236.844 193.234 213.281 215.968M251.5 126H1.5M126.5 251V1M126.5 251C92.7928 251 62.2017 237.658 39.7194 215.968M126.5 251C160.207 251 190.798 237.658 213.281 215.968M1.5 126C1.5 90.6716 16.1559 58.7663 39.7194 36.0324M1.5 126C1.5 161.328 16.1559 193.234 39.7194 215.968M126.5 1C92.7928 1 62.2017 14.3417 39.7194 36.0324M126.5 1C160.207 1 190.798 14.3417 213.281 36.0324M39.7194 215.968C63.2829 193.234 77.9388 161.328 77.9388 126C77.9388 90.6716 63.2829 58.7663 39.7194 36.0324M213.281 215.968C189.717 193.234 175.061 161.328 175.061 126C175.061 90.6716 189.717 58.7663 213.281 36.0324" stroke="black" stroke-width="2" stroke-linejoin="round"/>
</svg>
