<svg width="251" height="250" viewBox="0 0 251 250" fill="none" xmlns="http://www.w3.org/2000/svg">
<path fill-rule="evenodd" clip-rule="evenodd" d="M125.25 202.993L181.795 249V152.34C166.654 165.492 146.882 173.454 125.25 173.454C103.618 173.454 83.8457 165.492 68.7054 152.34V249L125.25 202.993Z" fill="#F9F9F9"/>
<path d="M125.25 1C77.6154 1 39 39.6051 39 87.2269C39 113.222 50.5065 136.531 68.7054 152.34C83.8457 165.492 103.618 173.454 125.25 173.454C146.882 173.454 166.654 165.492 181.795 152.34C199.993 136.531 211.5 113.222 211.5 87.2269C211.5 39.6051 172.885 1 125.25 1Z" fill="#F9F9F9"/>
<path d="M68.7054 152.34C83.8457 165.492 103.618 173.454 125.25 173.454C146.882 173.454 166.654 165.492 181.795 152.34M68.7054 152.34C50.5065 136.531 39 113.222 39 87.2269C39 39.6051 77.6154 1 125.25 1C172.885 1 211.5 39.6051 211.5 87.2269C211.5 113.222 199.993 136.531 181.795 152.34M68.7054 152.34V249L125.25 202.993L181.795 249V152.34" stroke="black" stroke-width="2" stroke-linejoin="round"/>
<path d="M125.25 1C77.6154 1 39 39.6051 39 87.2269C39 113.222 50.5065 136.531 68.7054 152.34C83.8457 165.492 103.618 173.454 125.25 173.454C146.882 173.454 166.654 165.492 181.795 152.34C199.993 136.531 211.5 113.222 211.5 87.2269C211.5 39.6051 172.885 1 125.25 1Z" fill="#F9F9F9" stroke="black" stroke-width="2" stroke-linejoin="round"/>
</svg>
