<svg width="253" height="251" viewBox="0 0 253 251" fill="none" xmlns="http://www.w3.org/2000/svg">
<path d="M168.136 59.0802L192.42 83.3638L25.7837 250L1.5 225.716L168.136 59.0802Z" fill="#F9F9F9"/>
<path d="M168.136 59.0802L192.42 83.3638L149.714 126.07L125.43 101.786L168.136 59.0802Z" fill="#F9F9F9"/>
<path d="M168.136 59.0802L192.42 83.3638M168.136 59.0802L1.5 225.716L25.7837 250L192.42 83.3638M168.136 59.0802L125.43 101.786L149.714 126.07L192.42 83.3638M228.406 0V24.2764M228.406 24.2764V48.5529M228.406 24.2764H252.683M228.406 24.2764H204.13M228.406 116.053V140.33M228.406 140.33V164.606M228.406 140.33H252.683M228.406 140.33H204.13M121.235 0V24.2764M121.235 24.2764V48.5529M121.235 24.2764H145.511M121.235 24.2764H96.9583" stroke="black" stroke-width="2" stroke-linejoin="round"/>
</svg>
