<svg width="251" height="254" viewBox="0 0 251 254" fill="none" xmlns="http://www.w3.org/2000/svg">
<path fill-rule="evenodd" clip-rule="evenodd" d="M125.25 1.5C68.2266 1.5 22 47.8136 22 104.944V252.5L73.625 209.01L125.25 252.5L176.875 209.01L228.5 252.5V104.944C228.5 47.8136 182.273 1.5 125.25 1.5ZM115.638 94.3824C115.638 117.887 106.615 136.941 95.4842 136.941C84.3535 136.941 75.3303 117.887 75.3303 94.3824C75.3303 70.8782 84.3535 51.8243 95.4842 51.8243C106.615 51.8243 115.638 70.8782 115.638 94.3824ZM175.17 94.3824C175.17 117.887 166.146 136.941 155.016 136.941C143.885 136.941 134.862 117.887 134.862 94.3824C134.862 70.8782 143.885 51.8243 155.016 51.8243C166.146 51.8243 175.17 70.8782 175.17 94.3824Z" fill="#F9F9F9"/>
<path d="M155.016 136.941C166.146 136.941 175.17 117.887 175.17 94.3824C175.17 70.8782 166.146 51.8243 155.016 51.8243C143.885 51.8243 134.862 70.8782 134.862 94.3824C134.862 117.887 143.885 136.941 155.016 136.941Z" fill="#F9F9F9"/>
<path d="M95.4842 136.941C106.615 136.941 115.638 117.887 115.638 94.3824C115.638 70.8782 106.615 51.8243 95.4842 51.8243C84.3535 51.8243 75.3303 70.8782 75.3303 94.3824C75.3303 117.887 84.3535 136.941 95.4842 136.941Z" fill="#F9F9F9"/>
<path fill-rule="evenodd" clip-rule="evenodd" d="M125.25 1.5C68.2266 1.5 22 47.8136 22 104.944V252.5L73.625 209.01L125.25 252.5L176.875 209.01L228.5 252.5V104.944C228.5 47.8136 182.273 1.5 125.25 1.5ZM115.638 94.3824C115.638 117.887 106.615 136.941 95.4842 136.941C84.3535 136.941 75.3303 117.887 75.3303 94.3824C75.3303 70.8782 84.3535 51.8243 95.4842 51.8243C106.615 51.8243 115.638 70.8782 115.638 94.3824ZM175.17 94.3824C175.17 117.887 166.146 136.941 155.016 136.941C143.885 136.941 134.862 117.887 134.862 94.3824C134.862 70.8782 143.885 51.8243 155.016 51.8243C166.146 51.8243 175.17 70.8782 175.17 94.3824Z" stroke="black" stroke-width="2" stroke-linejoin="round"/>
<path d="M155.016 136.941C166.146 136.941 175.17 117.887 175.17 94.3824C175.17 70.8782 166.146 51.8243 155.016 51.8243C143.885 51.8243 134.862 70.8782 134.862 94.3824C134.862 117.887 143.885 136.941 155.016 136.941Z" stroke="black" stroke-width="2" stroke-linejoin="round"/>
<path d="M95.4842 136.941C106.615 136.941 115.638 117.887 115.638 94.3824C115.638 70.8782 106.615 51.8243 95.4842 51.8243C84.3535 51.8243 75.3303 70.8782 75.3303 94.3824C75.3303 117.887 84.3535 136.941 95.4842 136.941Z" stroke="black" stroke-width="2" stroke-linejoin="round"/>
<path d="M155.016 136.941C166.146 136.941 175.17 117.887 175.17 94.3824C175.17 70.8782 166.146 51.8242 155.016 51.8242C143.885 51.8242 134.862 70.8782 134.862 94.3824C134.862 117.887 143.885 136.941 155.016 136.941Z" fill="#F9F9F9"/>
<path d="M95.4842 136.941C106.615 136.941 115.638 117.887 115.638 94.3824C115.638 70.8782 106.615 51.8242 95.4842 51.8242C84.3535 51.8242 75.3303 70.8782 75.3303 94.3824C75.3303 117.887 84.3535 136.941 95.4842 136.941Z" fill="#F9F9F9"/>
<path d="M155.016 136.941C166.146 136.941 175.17 117.887 175.17 94.3824C175.17 70.8782 166.146 51.8242 155.016 51.8242C143.885 51.8242 134.862 70.8782 134.862 94.3824C134.862 117.887 143.885 136.941 155.016 136.941Z" stroke="black" stroke-width="2" stroke-linejoin="round"/>
<path d="M95.4842 136.941C106.615 136.941 115.638 117.887 115.638 94.3824C115.638 70.8782 106.615 51.8242 95.4842 51.8242C84.3535 51.8242 75.3303 70.8782 75.3303 94.3824C75.3303 117.887 84.3535 136.941 95.4842 136.941Z" stroke="black" stroke-width="2" stroke-linejoin="round"/>
</svg>
