<svg width="251" height="252" viewBox="0 0 251 252" fill="none" xmlns="http://www.w3.org/2000/svg">
<path d="M216.5 91.9686C216.5 161.843 125.5 251 125.5 251C125.5 251 34.5 161.843 34.5 91.9686C34.5 41.728 75.2421 1 125.5 1C175.758 1 216.5 41.728 216.5 91.9686Z" fill="#F9F9F9"/>
<path d="M184.421 91.9686C184.421 124.498 158.041 150.869 125.5 150.869C92.9589 150.869 66.5791 124.498 66.5791 91.9686C66.5791 59.4387 92.9589 33.0681 125.5 33.0681C158.041 33.0681 184.421 59.4387 184.421 91.9686Z" fill="#F9F9F9"/>
<path d="M216.5 91.9686C216.5 161.843 125.5 251 125.5 251C125.5 251 34.5 161.843 34.5 91.9686C34.5 41.728 75.2421 1 125.5 1C175.758 1 216.5 41.728 216.5 91.9686Z" stroke="black" stroke-width="2" stroke-linejoin="round"/>
<path d="M184.421 91.9686C184.421 124.498 158.041 150.869 125.5 150.869C92.9589 150.869 66.5791 124.498 66.5791 91.9686C66.5791 59.4387 92.9589 33.0681 125.5 33.0681C158.041 33.0681 184.421 59.4387 184.421 91.9686Z" stroke="black" stroke-width="2" stroke-linejoin="round"/>
<path d="M184.421 91.9686C184.421 124.499 158.041 150.869 125.5 150.869C92.9589 150.869 66.5791 124.499 66.5791 91.9686C66.5791 59.4388 92.9589 33.0681 125.5 33.0681C158.041 33.0681 184.421 59.4388 184.421 91.9686Z" fill="#F9F9F9" stroke="black" stroke-width="2" stroke-linejoin="round"/>
</svg>
