<svg width="251" height="252" viewBox="0 0 251 252" fill="none" xmlns="http://www.w3.org/2000/svg">
<path d="M155.31 1.02878C155.31 17.2185 142.306 30.3428 126.264 30.3428C110.223 30.3428 97.2186 17.2185 97.2186 1.02878C97.2186 1.01919 97.2186 1.00959 97.2186 1H35.0141V251H97.2186C97.2186 250.99 97.2186 250.98 97.2186 250.97C97.2186 234.78 110.223 221.656 126.264 221.656C142.306 221.656 155.31 234.78 155.31 250.97C155.31 250.98 155.31 250.99 155.31 251H217V1H155.31C155.31 1.00959 155.31 1.01919 155.31 1.02878Z" fill="#F9F9F9"/>
<path d="M34.5 170.228H88.2022M163.516 170.228H217M102.392 170.228H149.108M126.264 30.3428C142.306 30.3428 155.31 17.2185 155.31 1.02878C155.31 1.01919 155.31 1.00959 155.31 1H217V251H155.31C155.31 250.99 155.31 250.98 155.31 250.97C155.31 234.78 142.306 221.656 126.264 221.656C110.223 221.656 97.2186 234.78 97.2186 250.97C97.2186 250.98 97.2186 250.99 97.2186 251H35.0141V1H97.2186C97.2186 1.00959 97.2186 1.01919 97.2186 1.02878C97.2186 17.2185 110.223 30.3428 126.264 30.3428Z" stroke="black" stroke-width="2" stroke-linejoin="round"/>
</svg>
