<svg width="251" height="250" viewBox="0 0 251 250" fill="none" xmlns="http://www.w3.org/2000/svg">
<path d="M231.5 73.9494C231.5 104.297 206.79 128.899 176.309 128.899C161.069 128.899 147.271 122.748 137.283 112.804C127.296 102.861 121.118 89.1232 121.118 73.9494C121.118 43.6017 145.828 19 176.309 19C206.79 19 231.5 43.6017 231.5 73.9494Z" fill="#F9F9F9"/>
<path d="M19 231L137.283 112.804M137.283 112.804C127.296 102.861 121.118 89.1232 121.118 73.9494C121.118 43.6017 145.828 19 176.309 19C206.79 19 231.5 43.6017 231.5 73.9494C231.5 104.297 206.79 128.899 176.309 128.899C161.069 128.899 147.271 122.748 137.283 112.804Z" stroke="black" stroke-width="2" stroke-linejoin="round"/>
</svg>
