<svg width="252" height="250" viewBox="0 0 252 250" fill="none" xmlns="http://www.w3.org/2000/svg">
<path d="M1 159.879C1 194.464 29.0484 222.5 63.6479 222.5V97.2578C58.2417 97.2578 52.9955 97.9423 47.9912 99.2293C47.551 99.3425 47.1126 99.4604 46.6762 99.5829C20.3228 106.979 1 131.173 1 159.879Z" fill="#F9F9F9"/>
<path d="M187.852 222.5C222.452 222.5 250.5 194.464 250.5 159.879C250.5 131.092 231.068 106.842 204.6 99.5206C204.238 99.4203 203.874 99.3232 203.509 99.2293C198.505 97.9423 193.258 97.2578 187.852 97.2578V222.5Z" fill="#F9F9F9"/>
<path d="M187.852 222.5C222.452 222.5 250.5 194.464 250.5 159.879C250.5 131.092 231.068 106.842 204.6 99.5206M187.852 222.5V97.2578C193.258 97.2578 198.505 97.9423 203.509 99.2293C203.874 99.3232 204.238 99.4203 204.6 99.5206M187.852 222.5H148.561M204.6 99.5206C201.206 58.9052 167.151 27 125.641 27C84.1098 27 50.0413 58.9378 46.6762 99.5829M46.6762 99.5829C47.1126 99.4604 47.551 99.3425 47.9912 99.2293C52.9955 97.9423 58.2417 97.2578 63.6479 97.2578V222.5C29.0484 222.5 1 194.464 1 159.879C1 131.173 20.3228 106.979 46.6762 99.5829Z" stroke="black" stroke-width="2" stroke-linejoin="round"/>
</svg>
