<svg width="251" height="256" viewBox="0 0 251 256" fill="none" xmlns="http://www.w3.org/2000/svg">
<path d="M185.886 62.346V86.8402V111.334C185.886 144.691 158.738 171.731 125.25 171.731C91.7611 171.731 64.6133 144.691 64.6133 111.334V86.8402V62.346C64.6133 28.9898 91.7611 1.94922 125.25 1.94922C158.738 1.94922 185.886 28.9898 185.886 62.346Z" fill="#F9F9F9"/>
<path d="M64.6133 86.8402V111.334C64.6133 144.691 91.7611 171.731 125.25 171.731C158.738 171.731 185.886 144.691 185.886 111.334V86.8402M64.6133 86.8402V62.346C64.6133 28.9898 91.7611 1.94922 125.25 1.94922C158.738 1.94922 185.886 28.9898 185.886 62.346V86.8402M64.6133 86.8402H185.886" stroke="black" stroke-width="2" stroke-linejoin="round"/>
<path d="M125.25 195.453C80.653 195.453 44.5 159.407 44.5 114.941M125.25 195.453C169.847 195.453 206 159.407 206 114.941M125.25 195.453V254.553M125.25 254.553H175.382M125.25 254.553H75.1177" stroke="black" stroke-width="2" stroke-linejoin="round"/>
</svg>
