<svg width="254" height="250" viewBox="0 0 254 250" fill="none" xmlns="http://www.w3.org/2000/svg">
<path d="M241.444 170.658L163.226 173.181L163.685 150.976L133.75 197.127L162 246.057L163.142 224.036L213.43 222.137L241.444 170.658Z" fill="#F9F9F9"/>
<path d="M32.0755 208.5L69 139.5L88 151L63 102H6.5L25 114L1.5 158.5L32.0755 208.5Z" fill="#F9F9F9"/>
<path d="M125.5 177H48.9324L32.0755 208.5L44 228H125.5V177Z" fill="#F9F9F9"/>
<path d="M167.452 105.5L205.667 171.812L241.444 170.658L252.369 150.581L211.619 80.0001L167.452 105.5Z" fill="#F9F9F9"/>
<path d="M103.099 5.22943L144.392 71.707L124.933 82.4114L179.868 85.2608L208.118 36.3304L188.476 46.3518L161.688 3.75024L103.099 5.22943Z" fill="#F9F9F9"/>
<path d="M83.6664 101.887L121.95 35.5779L103.099 5.22943L80.2491 5.80632L39.4991 76.3874L83.6664 101.887Z" fill="#F9F9F9"/>
<path d="M32.0755 208.5L44 228H125.5V177H48.9324L32.0755 208.5ZM32.0755 208.5L69 139.5L88 151L63 102H6.5L25 114L1.5 158.5L32.0755 208.5ZM241.444 170.658L252.369 150.581L211.619 80.0001L167.452 105.5L205.667 171.812L241.444 170.658ZM241.444 170.658L163.226 173.181L163.685 150.976L133.75 197.127L162 246.057L163.142 224.036L213.43 222.137L241.444 170.658ZM103.099 5.22943L80.2491 5.80632L39.4991 76.3874L83.6664 101.887L121.95 35.5779L103.099 5.22943ZM103.099 5.22943L144.392 71.707L124.933 82.4114L179.868 85.2608L208.118 36.3304L188.476 46.3518L161.688 3.75024L103.099 5.22943Z" stroke="black" stroke-width="2" stroke-linejoin="round"/>
</svg>
