<svg width="251" height="252" viewBox="0 0 251 252" fill="none" xmlns="http://www.w3.org/2000/svg">
<path d="M125.5 114L169.5 114C169.5 51.5918 149.801 1 125.5 1C101.199 0.999998 81.5 51.5917 81.5 114L125.5 114Z" fill="#F9F9F9"/>
<path d="M238.5 114C238.5 51.5918 187.908 1.00001 125.5 1C149.801 1 169.5 51.5918 169.5 114H238.5Z" fill="#F9F9F9"/>
<path d="M125.5 1C63.0919 0.999995 12.5 51.5917 12.5 114L81.5 114C81.5 51.5917 101.199 0.999998 125.5 1Z" fill="#F9F9F9"/>
<path d="M54.5 211V215C54.5 234.606 70.3939 250.5 90 250.5C109.606 250.5 125.5 234.606 125.5 215V114M238.5 114C238.5 51.5918 187.908 1.00001 125.5 1M238.5 114L125.5 114M238.5 114H169.5M125.5 1C63.0919 0.999995 12.5 51.5917 12.5 114M125.5 1C149.801 1 169.5 51.5918 169.5 114M125.5 1C101.199 0.999998 81.5 51.5917 81.5 114M12.5 114L125.5 114M12.5 114L81.5 114M169.5 114L125.5 114M81.5 114L125.5 114" stroke="black" stroke-width="2" stroke-linejoin="round"/>
</svg>
