<svg width="252" height="251" viewBox="0 0 252 251" fill="none" xmlns="http://www.w3.org/2000/svg">
<path d="M41.1643 159.344C24.2217 163.988 6.92201 154.13 2.52429 137.326C-1.87343 120.522 8.29619 103.135 25.2388 98.4908C42.1813 93.8467 59.4811 103.704 63.8788 120.508C68.2765 137.312 58.1069 154.7 41.1643 159.344Z" fill="#F9F9F9"/>
<path d="M92.5203 210.494C87.8576 227.369 97.7548 244.6 114.626 248.98C131.498 253.36 148.955 243.231 153.618 226.356C158.28 209.481 148.383 192.251 131.512 187.871C114.64 183.491 97.1831 193.62 92.5203 210.494Z" fill="#F9F9F9"/>
<path d="M41.1643 159.344C24.2217 163.988 6.92201 154.13 2.52429 137.326C-1.87343 120.522 8.29619 103.135 25.2388 98.4908C42.1813 93.8467 59.4811 103.704 63.8788 120.508C68.2765 137.312 58.1069 154.7 41.1643 159.344ZM41.1643 159.344L251.5 101.689M92.5203 210.494C87.8576 227.369 97.7548 244.6 114.626 248.98C131.498 253.36 148.955 243.231 153.618 226.356C158.28 209.481 148.383 192.251 131.512 187.871C114.64 183.491 97.1831 193.62 92.5203 210.494ZM92.5203 210.494L150.407 1" stroke="black" stroke-width="2" stroke-linejoin="round"/>
</svg>
