<svg width="253" height="252" viewBox="0 0 253 252" fill="none" xmlns="http://www.w3.org/2000/svg">
<path d="M126.104 251V126L69.6035 126C69.6035 161.788 60.759 194.881 45.7647 221.767C67.4901 240.012 95.5136 251 126.104 251Z" fill="#F9F9F9"/>
<path d="M1.10352 126C1.10352 164.446 18.46 198.838 45.7647 221.767C60.759 194.881 69.6035 161.788 69.6035 126L1.10352 126Z" fill="#F9F9F9"/>
<path d="M206.783 221.481C191.885 194.646 183.104 161.66 183.104 126L126.104 126V251C156.853 251 185.01 239.897 206.783 221.481Z" fill="#F9F9F9"/>
<path d="M206.783 221.481C233.891 198.551 251.104 164.286 251.104 126L183.104 126C183.104 161.66 191.885 194.646 206.783 221.481Z" fill="#F9F9F9"/>
<path d="M251.104 126C251.104 87.7143 233.891 53.4487 206.783 30.5194C191.885 57.3538 183.104 90.3396 183.104 126L251.104 126Z" fill="#F9F9F9"/>
<path d="M183.104 126C183.104 90.3396 191.885 57.3538 206.783 30.5194C185.01 12.1033 156.853 1 126.104 1V126L183.104 126Z" fill="#F9F9F9"/>
<path d="M45.7647 30.2326C60.759 57.1186 69.6035 90.2124 69.6035 126L126.104 126V1C95.5136 1 67.4902 11.9881 45.7647 30.2326Z" fill="#F9F9F9"/>
<path d="M45.7647 30.2326C18.46 53.1624 1.10352 87.5543 1.10352 126L69.6035 126C69.6035 90.2124 60.759 57.1186 45.7647 30.2326Z" fill="#F9F9F9"/>
<path d="M251.104 126C251.104 164.286 233.891 198.551 206.783 221.481M251.104 126C251.104 87.7143 233.891 53.4487 206.783 30.5194M251.104 126H126.104M251.104 126L183.104 126M126.104 251C156.853 251 185.01 239.897 206.783 221.481M126.104 251C95.5136 251 67.4901 240.012 45.7647 221.767M126.104 251V126M1.10352 126C1.10352 164.446 18.46 198.838 45.7647 221.767M1.10352 126C1.10352 87.5543 18.46 53.1624 45.7647 30.2326M1.10352 126H126.104M1.10352 126L69.6035 126M126.104 1C156.853 1 185.01 12.1033 206.783 30.5194M126.104 1C95.5136 1 67.4902 11.9881 45.7647 30.2326M126.104 1V126M183.104 126C183.104 90.3396 191.885 57.3538 206.783 30.5194M183.104 126C183.104 161.66 191.885 194.646 206.783 221.481M183.104 126L126.104 126M69.6035 126C69.6035 90.2124 60.759 57.1186 45.7647 30.2326M69.6035 126C69.6035 161.788 60.759 194.881 45.7647 221.767M69.6035 126L126.104 126" stroke="black" stroke-width="2" stroke-linejoin="round"/>
</svg>
