<svg width="253" height="252" viewBox="0 0 253 252" fill="none" xmlns="http://www.w3.org/2000/svg">
<path d="M251.104 126C251.104 146.432 246.201 165.72 237.509 182.75C216.831 223.261 174.707 251 126.104 251C77.5003 251 35.3759 223.261 14.6985 182.75C6.00584 165.72 1.10352 146.432 1.10352 126C1.10352 105.568 6.00584 86.2803 14.6985 69.25C35.3759 28.7393 77.5003 1 126.104 1C174.707 1 216.831 28.7394 237.509 69.25C246.201 86.2803 251.104 105.568 251.104 126Z" fill="#F9F9F9"/>
<path d="M251.104 126H126.104H1.10352M251.104 126C251.104 105.568 246.201 86.2803 237.509 69.25M251.104 126C251.104 146.432 246.201 165.72 237.509 182.75M126.104 251V69.25M126.104 251C174.707 251 216.831 223.261 237.509 182.75M126.104 251C77.5003 251 35.3759 223.261 14.6985 182.75M1.10352 126C1.10352 146.432 6.00584 165.72 14.6985 182.75M1.10352 126C1.10352 105.568 6.00584 86.2803 14.6985 69.25M126.104 1V69.25M126.104 1C174.707 1 216.831 28.7394 237.509 69.25M126.104 1C77.5003 1 35.3759 28.7393 14.6985 69.25M126.104 69.25H237.509M126.104 69.25H14.6985M237.509 182.75H14.6985" stroke="black" stroke-width="2" stroke-linejoin="round"/>
<ellipse cx="126.104" cy="126" rx="125" ry="48" transform="rotate(90 126.104 126)" stroke="black" stroke-width="2" stroke-linejoin="round"/>
<ellipse cx="126.104" cy="126" rx="125" ry="92" transform="rotate(90 126.104 126)" stroke="black" stroke-width="2" stroke-linejoin="round"/>
</svg>
