<svg width="253" height="253" viewBox="0 0 253 253" fill="none" xmlns="http://www.w3.org/2000/svg">
<path d="M126.104 1C57.0679 1 1.10352 56.9644 1.10352 126L1.10366 126.191C1.1855 108.629 38.0734 93.7712 88.8895 88.786C93.8746 37.971 108.732 1.08356 126.294 1.00014L126.104 1Z" fill="#F9F9F9"/>
<path d="M88.8895 163.714C87.729 151.885 87.1035 139.3 87.1035 126.25C87.1035 113.2 87.729 100.615 88.8895 88.786C38.0734 93.7712 1.1855 108.629 1.10366 126.191L1.10403 126.363C1.26194 143.901 38.1261 158.734 88.8895 163.714Z" fill="#F9F9F9"/>
<path fill-rule="evenodd" clip-rule="evenodd" d="M1.10403 126.363L1.10366 126.191L1.10352 126.25C1.10352 126.288 1.10369 126.325 1.10403 126.363Z" fill="#F9F9F9"/>
<path d="M88.8895 88.786C100.719 87.6255 113.303 87 126.354 87C139.404 87 151.988 87.6255 163.818 88.786C158.838 38.0236 144.005 1.16 126.468 1.00052L126.294 1.00014C108.732 1.08356 93.8746 37.971 88.8895 88.786Z" fill="#F9F9F9"/>
<path d="M87.1035 126.25C87.1035 139.3 87.729 151.885 88.8895 163.714L163.818 88.786C151.988 87.6255 139.404 87 126.354 87C113.303 87 100.719 87.6255 88.8895 88.786C87.729 100.615 87.1035 113.2 87.1035 126.25Z" fill="#F9F9F9"/>
<path d="M165.604 126.25C165.604 113.2 164.978 100.615 163.818 88.786L88.8895 163.714C100.719 164.875 113.303 165.5 126.354 165.5C139.404 165.5 151.988 164.875 163.818 163.714C164.978 151.885 165.604 139.3 165.604 126.25Z" fill="#F9F9F9"/>
<path d="M163.818 88.786C164.978 100.615 165.604 113.2 165.604 126.25C165.604 139.3 164.978 151.885 163.818 163.714C211.037 159.082 246.23 145.925 251.041 129.995C251.083 128.668 251.104 127.337 251.104 126C251.104 124.849 251.088 123.702 251.057 122.559C246.309 106.605 211.09 93.4235 163.818 88.786Z" fill="#F9F9F9"/>
<path d="M251.057 122.559C249.238 55.2352 194.186 1.19369 126.468 1.00052C144.005 1.16 158.838 38.0236 163.818 88.786C211.09 93.4235 246.309 106.605 251.057 122.559Z" fill="#F9F9F9"/>
<path d="M130.104 250.5C129.148 250.788 128.183 250.968 127.209 251.034L131.104 250.902C196.497 248.329 248.984 195.52 251.041 129.995C246.23 145.925 211.037 159.082 163.818 163.714C159.185 210.933 146.033 245.689 130.104 250.5Z" fill="#F9F9F9"/>
<path d="M88.8895 163.714C38.1261 158.734 1.26194 143.901 1.10403 126.363C1.29559 193.726 54.7723 248.556 121.604 250.921L125.609 251.04C124.619 250.981 123.639 250.805 122.668 250.516C106.714 245.768 93.5271 210.987 88.8895 163.714Z" fill="#F9F9F9"/>
<path d="M163.818 163.714C151.988 164.875 139.404 165.5 126.354 165.5C113.303 165.5 100.719 164.875 88.8895 163.714C93.5271 210.987 106.714 245.768 122.668 250.516C123.639 250.805 124.619 250.981 125.609 251.04L126.359 251.063L127.209 251.034C128.183 250.968 129.148 250.788 130.104 250.5C146.033 245.689 159.185 210.933 163.818 163.714Z" fill="#F9F9F9"/>
<path d="M1.10352 126C1.10352 56.9644 57.0679 1 126.104 1M1.10352 126L1.10366 126.191M1.10352 126C1.10352 126.064 1.10356 126.128 1.10366 126.191M126.104 1L126.294 1.00014M126.104 1C126.167 1 126.23 1.00005 126.294 1.00014M126.359 251.063L127.209 251.034M126.359 251.063C126.643 251.063 126.927 251.053 127.209 251.034M126.359 251.063L125.609 251.04M126.359 251.063C126.108 251.063 125.858 251.055 125.609 251.04M126.354 1L126.294 1.00014M126.354 1C126.392 1 126.43 1.00017 126.468 1.00052M126.354 1C126.334 1 126.314 1.00005 126.294 1.00014M1.10352 126.25C1.10352 126.288 1.10369 126.325 1.10403 126.363M1.10352 126.25L1.10366 126.191M1.10352 126.25C1.10352 126.23 1.10357 126.211 1.10366 126.191M126.294 1.00014C108.732 1.08356 93.8746 37.971 88.8895 88.786M126.294 1.00014C126.352 1.00023 126.41 1.00035 126.468 1.00052M126.294 1.00014L126.468 1.00052M126.468 1.00052C194.186 1.19369 249.238 55.2352 251.057 122.559M126.468 1.00052C144.005 1.16 158.838 38.0236 163.818 88.786M251.057 122.559C251.419 123.774 251.604 125.005 251.604 126.25C251.604 127.513 251.413 128.762 251.041 129.995M251.057 122.559C246.309 106.605 211.09 93.4235 163.818 88.786M251.057 122.559C251.088 123.702 251.104 124.849 251.104 126C251.104 127.337 251.083 128.668 251.041 129.995M251.041 129.995C246.23 145.925 211.037 159.082 163.818 163.714M251.041 129.995C248.984 195.52 196.497 248.329 131.104 250.902L127.209 251.034M1.10403 126.363C1.26194 143.901 38.1261 158.734 88.8895 163.714M1.10403 126.363C1.10387 126.306 1.10374 126.249 1.10366 126.191M1.10403 126.363L1.10366 126.191M1.10403 126.363C1.29559 193.726 54.7723 248.556 121.604 250.921L125.609 251.04M1.10366 126.191C1.1855 108.629 38.0734 93.7712 88.8895 88.786M88.8895 163.714C87.729 151.885 87.1035 139.3 87.1035 126.25C87.1035 113.2 87.729 100.615 88.8895 88.786M88.8895 163.714C100.719 164.875 113.303 165.5 126.354 165.5C139.404 165.5 151.988 164.875 163.818 163.714M88.8895 163.714C93.5271 210.987 106.714 245.768 122.668 250.516C123.639 250.805 124.619 250.981 125.609 251.04M88.8895 163.714L163.818 88.786M88.8895 88.786C100.719 87.6255 113.303 87 126.354 87C139.404 87 151.988 87.6255 163.818 88.786M163.818 88.786C164.978 100.615 165.604 113.2 165.604 126.25C165.604 139.3 164.978 151.885 163.818 163.714M163.818 163.714C159.185 210.933 146.033 245.689 130.104 250.5C129.148 250.788 128.183 250.968 127.209 251.034" stroke="black" stroke-width="2" stroke-linecap="round" stroke-linejoin="round"/>
<path d="M88.8895 88.7858C100.719 87.6253 113.303 86.9999 126.354 86.9999C139.404 86.9999 151.988 87.6253 163.818 88.7858C158.838 38.0235 144.006 1.15986 126.468 1.00038L126.294 1C108.732 1.08341 93.8746 37.9708 88.8895 88.7858Z" fill="#F9F9F9"/>
<path d="M87.1035 126.25C87.1035 139.3 87.729 151.884 88.8895 163.714L163.818 88.7858C151.988 87.6253 139.404 86.9999 126.354 86.9999C113.303 86.9999 100.719 87.6253 88.8895 88.7858C87.729 100.615 87.1035 113.199 87.1035 126.25Z" fill="#F9F9F9"/>
<path d="M165.604 126.25C165.604 113.199 164.978 100.615 163.818 88.7858L88.8895 163.714C100.719 164.874 113.303 165.5 126.354 165.5C139.404 165.5 151.988 164.874 163.818 163.714C164.978 151.884 165.604 139.3 165.604 126.25Z" fill="#F9F9F9"/>
<path d="M163.818 88.7858C164.978 100.615 165.604 113.199 165.604 126.25C165.604 139.3 164.978 151.884 163.818 163.714C211.037 159.082 246.23 145.924 251.041 129.995C251.083 128.668 251.104 127.336 251.104 126C251.104 124.849 251.088 123.702 251.057 122.559C246.309 106.605 211.09 93.4234 163.818 88.7858Z" fill="#F9F9F9"/>
<path d="M251.057 122.559C249.238 55.235 194.186 1.19355 126.468 1.00038C144.006 1.15986 158.838 38.0235 163.818 88.7858C211.09 93.4234 246.309 106.605 251.057 122.559Z" fill="#F9F9F9"/>
<path d="M126.468 1.00038C194.186 1.19355 249.238 55.235 251.057 122.559M126.468 1.00038C144.005 1.15986 158.838 38.0235 163.818 88.7858M126.468 1.00038L126.294 1C108.732 1.08341 93.8746 37.9708 88.8895 88.7858M251.057 122.559C246.309 106.605 211.09 93.4234 163.818 88.7858M251.057 122.559C251.088 123.702 251.104 124.849 251.104 126C251.104 127.336 251.083 128.668 251.041 129.995C246.23 145.924 211.037 159.082 163.818 163.714M88.8895 163.714C87.729 151.884 87.1035 139.3 87.1035 126.25C87.1035 113.199 87.729 100.615 88.8895 88.7858M88.8895 163.714C100.719 164.874 113.303 165.5 126.354 165.5C139.404 165.5 151.988 164.874 163.818 163.714M88.8895 163.714L163.818 88.7858M88.8895 88.7858C100.719 87.6253 113.303 86.9999 126.354 86.9999C139.404 86.9999 151.988 87.6253 163.818 88.7858M163.818 88.7858C164.978 100.615 165.604 113.199 165.604 126.25C165.604 139.3 164.978 151.884 163.818 163.714" stroke="black" stroke-width="2" stroke-linejoin="round"/>
</svg>
