<svg width="253" height="253" viewBox="0 0 253 253" fill="none" xmlns="http://www.w3.org/2000/svg">
<path d="M163.818 88.786C175.217 89.9042 185.915 91.5193 195.654 93.5502C187.468 40.5399 159.711 1.43214 126.652 1.00356C144.11 1.41913 158.855 38.2019 163.818 88.786Z" fill="#F9F9F9"/>
<path d="M195.573 158.967C197.223 148.464 198.104 137.41 198.104 126C198.104 114.776 197.251 103.898 195.654 93.5502C185.915 91.5193 175.217 89.9042 163.818 88.786C164.978 100.615 165.604 113.2 165.604 126.25C165.604 139.3 164.978 151.885 163.818 163.714C175.185 162.599 185.856 160.99 195.573 158.967Z" fill="#F9F9F9"/>
<path d="M195.573 158.967C185.856 160.99 175.185 162.599 163.818 163.714C159.24 210.373 146.339 245.289 130.664 250.753C161.833 247.371 187.626 209.559 195.573 158.967Z" fill="#F9F9F9"/>
<path d="M88.8895 163.714C77.32 162.579 66.4725 160.932 56.6169 158.858C64.6039 209.888 90.7429 247.94 122.251 250.824C106.482 245.598 93.4871 210.58 88.8895 163.714Z" fill="#F9F9F9"/>
<path d="M88.8895 88.786C77.2886 89.924 66.4136 91.5767 56.5367 93.6586C54.9496 103.974 54.1035 114.816 54.1035 126C54.1035 137.371 54.9781 148.388 56.6169 158.858C66.4725 160.932 77.32 162.579 88.8895 163.714C87.729 151.885 87.1035 139.3 87.1035 126.25C87.1035 113.2 87.729 100.615 88.8895 88.786Z" fill="#F9F9F9"/>
<path d="M126.104 1C92.7812 1 64.746 40.2999 56.5367 93.6586C66.4136 91.5767 77.2886 89.924 88.8895 88.786C93.8719 37.9984 108.716 1.1234 126.265 1.00031C126.232 1.00018 126.2 1.0001 126.167 1.00005C126.146 1.00004 126.125 1 126.104 1Z" fill="#F9F9F9"/>
<path d="M126.104 251C124.811 251 123.527 250.941 122.251 250.824M126.104 251C127.635 251 129.156 250.917 130.664 250.753M126.104 251C124.953 251 123.806 250.984 122.663 250.954M126.104 251C127.44 251 128.772 250.979 130.098 250.937M1.10352 126C1.10352 56.9644 57.0679 1 126.104 1M1.10352 126L1.10366 126.192M1.10352 126C1.10352 126.064 1.10356 126.128 1.10366 126.192M126.104 1C92.7812 1 64.746 40.2999 56.5367 93.6586M126.104 1C126.125 1 126.146 1.00004 126.167 1.00005M126.354 1L126.294 1.00014M126.354 1C126.392 1 126.43 1.00017 126.468 1.00052M126.354 1C126.334 1 126.314 1.00005 126.294 1.00014M1.10353 126.25C1.10353 126.287 1.1037 126.325 1.10403 126.362M1.10353 126.25L1.10366 126.192M1.10353 126.25C1.10353 126.231 1.10357 126.212 1.10366 126.192M251.057 122.559C251.419 123.774 251.604 125.005 251.604 126.25C251.604 127.513 251.413 128.762 251.041 129.995M251.057 122.559C251.088 123.702 251.104 124.849 251.104 126C251.104 127.337 251.083 128.668 251.041 129.995M251.057 122.559C249.238 55.2352 194.186 1.19369 126.468 1.00052M251.041 129.995C247.388 142.09 226.221 152.586 195.573 158.967M251.041 129.995C248.973 195.855 195.959 248.87 130.098 250.937M1.10403 126.362C1.10387 126.306 1.10375 126.249 1.10366 126.192M1.10403 126.362C1.2248 139.904 23.2284 151.832 56.6169 158.858M1.10403 126.362C1.29603 194.081 55.338 249.134 122.663 250.954M195.573 158.967C197.223 148.464 198.104 137.41 198.104 126C198.104 114.776 197.251 103.898 195.654 93.5502M195.573 158.967C185.856 160.99 175.185 162.599 163.818 163.714M195.573 158.967C187.626 209.559 161.833 247.371 130.664 250.753M163.818 163.714C164.978 151.885 165.604 139.3 165.604 126.25C165.604 113.2 164.978 100.615 163.818 88.786M163.818 163.714C151.988 164.875 139.404 165.5 126.354 165.5C113.303 165.5 100.719 164.875 88.8895 163.714M163.818 163.714C159.24 210.373 146.339 245.289 130.664 250.753M163.818 88.786C175.217 89.9042 185.915 91.5193 195.654 93.5502M163.818 88.786C158.855 38.2019 144.11 1.41913 126.652 1.00356M195.654 93.5502C187.468 40.5399 159.711 1.43214 126.652 1.00356M126.652 1.00356C126.591 1.00209 126.529 1.00108 126.468 1.00052M126.652 1.00356C126.533 1.00201 126.413 1.00068 126.294 1.00014M56.5367 93.6586C66.4136 91.5767 77.2886 89.924 88.8895 88.786M56.5367 93.6586C54.9496 103.974 54.1035 114.816 54.1035 126C54.1035 137.371 54.9781 148.388 56.6169 158.858M88.8895 88.786C93.8719 37.9984 108.716 1.1234 126.265 1.00031M88.8895 88.786C87.729 100.615 87.1035 113.2 87.1035 126.25C87.1035 139.3 87.729 151.885 88.8895 163.714M126.265 1.00031L126.167 1.00005M126.265 1.00031C126.275 1.00024 126.284 1.00019 126.294 1.00014M126.265 1.00031C126.232 1.00018 126.2 1.0001 126.167 1.00005M126.265 1.00031L126.294 1.00014M56.6169 158.858C66.4725 160.932 77.32 162.579 88.8895 163.714M56.6169 158.858C64.6039 209.888 90.7429 247.94 122.251 250.824M88.8895 163.714C93.4871 210.58 106.482 245.598 122.251 250.824M122.251 250.824C122.388 250.87 122.526 250.913 122.663 250.954M130.664 250.753C130.476 250.819 130.287 250.88 130.098 250.937M126.167 1.00005L126.294 1.00014M126.167 1.00005C126.209 1.00007 126.251 1.00008 126.294 1.00014M126.294 1.00014C126.352 1.00023 126.41 1.00035 126.468 1.00052M130.098 250.937C128.866 251.31 127.617 251.5 126.354 251.5C125.109 251.5 123.878 251.315 122.663 250.954" stroke="black" stroke-width="2" stroke-linecap="round" stroke-linejoin="round"/>
<path fill-rule="evenodd" clip-rule="evenodd" d="M1.10352 126C1.10352 56.9644 57.0679 1 126.104 1C92.7812 1 64.746 40.2999 56.5367 93.6586C54.9496 103.974 54.1035 114.816 54.1035 126C54.1035 137.371 54.9781 148.388 56.6169 158.858C64.6039 209.888 90.7429 247.94 122.251 250.824C106.482 245.598 93.4871 210.58 88.8895 163.714C100.719 164.875 113.303 165.5 126.354 165.5C139.404 165.5 151.988 164.875 163.818 163.714C159.24 210.373 146.339 245.289 130.664 250.753C161.833 247.371 187.626 209.559 195.573 158.967C197.223 148.464 198.104 137.41 198.104 126C198.104 114.776 197.251 103.898 195.654 93.5502C187.468 40.5399 159.711 1.43214 126.652 1.00356C126.533 1.00201 126.413 1.00068 126.294 1.00014C126.284 1.00019 126.275 1.00024 126.265 1.00031L126.167 1.00005L126.294 1.00014L126.354 1C126.392 1 126.43 1.00017 126.468 1.00052C194.186 1.19369 249.238 55.2352 251.057 122.559C251.419 123.774 251.604 125.005 251.604 126.25C251.604 127.513 251.413 128.762 251.041 129.995C248.973 195.855 195.959 248.87 130.098 250.937C128.866 251.31 127.617 251.5 126.354 251.5C125.109 251.5 123.878 251.315 122.663 250.954C55.338 249.134 1.29603 194.081 1.10403 126.362C1.1037 126.325 1.10353 126.287 1.10353 126.25L1.10366 126.192L1.10352 126Z" fill="#F9F9F9"/>
<path d="M163.818 163.714C164.978 151.885 165.604 139.3 165.604 126.25C165.604 113.2 164.978 100.615 163.818 88.786C158.855 38.2019 144.11 1.41913 126.652 1.00356C126.533 1.00201 126.413 1.00068 126.294 1.00014L126.265 1.00031C108.716 1.1234 93.8719 37.9984 88.8895 88.786C87.729 100.615 87.1035 113.2 87.1035 126.25C87.1035 139.3 87.729 151.885 88.8895 163.714C100.719 164.875 113.303 165.5 126.354 165.5C139.404 165.5 151.988 164.875 163.818 163.714Z" fill="#F9F9F9"/>
<path d="M163.818 163.714C164.978 151.885 165.604 139.3 165.604 126.25C165.604 113.2 164.978 100.615 163.818 88.786C158.855 38.2019 144.11 1.41913 126.652 1.00356M163.818 163.714C151.988 164.875 139.404 165.5 126.354 165.5C113.303 165.5 100.719 164.875 88.8895 163.714M163.818 163.714C159.24 210.373 146.339 245.289 130.664 250.753C161.833 247.371 187.626 209.559 195.573 158.967C197.223 148.464 198.104 137.41 198.104 126C198.104 114.776 197.251 103.898 195.654 93.5502C187.468 40.5399 159.711 1.43214 126.652 1.00356M126.652 1.00356C126.533 1.00201 126.413 1.00068 126.294 1.00014M126.265 1.00031C108.716 1.1234 93.8719 37.9984 88.8895 88.786C87.729 100.615 87.1035 113.2 87.1035 126.25C87.1035 139.3 87.729 151.885 88.8895 163.714M126.265 1.00031L126.167 1.00005L126.294 1.00014M126.265 1.00031C126.275 1.00024 126.284 1.00019 126.294 1.00014M126.265 1.00031L126.294 1.00014M88.8895 163.714C93.4871 210.58 106.482 245.598 122.251 250.824C90.7429 247.94 64.6039 209.888 56.6169 158.858C54.9781 148.388 54.1035 137.371 54.1035 126C54.1035 114.816 54.9496 103.974 56.5367 93.6586C64.746 40.2999 92.7812 1 126.104 1C57.0679 1 1.10352 56.9644 1.10352 126L1.10366 126.192L1.10353 126.25C1.10353 126.287 1.1037 126.325 1.10403 126.362C1.29603 194.081 55.338 249.134 122.663 250.954C123.878 251.315 125.109 251.5 126.354 251.5C127.617 251.5 128.866 251.31 130.098 250.937C195.959 248.87 248.973 195.855 251.041 129.995C251.413 128.762 251.604 127.513 251.604 126.25C251.604 125.005 251.419 123.774 251.057 122.559C249.238 55.2352 194.186 1.19369 126.468 1.00052C126.43 1.00017 126.392 1 126.354 1L126.294 1.00014" stroke="black" stroke-width="2" stroke-linejoin="round"/>
</svg>
