<svg width="251" height="250" viewBox="0 0 251 250" fill="none" xmlns="http://www.w3.org/2000/svg">
<path fill-rule="evenodd" clip-rule="evenodd" d="M247.354 99.7501C247.354 109.263 236.698 117.981 218.995 124.75C236.698 131.519 247.354 140.237 247.354 149.75C247.354 150.347 247.311 150.94 247.228 151.53C247.126 152.253 246.962 152.971 246.738 153.683C235.888 199.47 199.853 235.513 154.071 246.376C153.345 246.606 152.614 246.773 151.877 246.876C151.289 246.958 150.698 247 150.103 247C140.59 247 131.872 236.345 125.103 218.641C125.036 218.464 124.968 218.286 124.901 218.107C118.128 235.978 109.395 246.811 99.8542 246.998C99.3415 246.987 98.8311 246.946 98.3233 246.875C97.6004 246.773 96.8827 246.609 96.1707 246.385C50.3719 235.531 14.322 199.482 3.46887 153.683C3.24483 152.971 3.08097 152.253 2.97892 151.53C2.89562 150.94 2.85352 150.347 2.85352 149.75C2.85352 140.237 14.0088 131.519 31.7123 124.75C14.0088 117.981 3.10352 109.263 3.10352 99.7501C3.10352 99.1535 3.14562 98.5599 3.22892 97.9698C3.33097 97.247 3.49483 96.5293 3.71887 95.8172C14.566 50.0437 50.4095 14.0083 96.1139 3.13334L96.1707 3.11535C96.8827 2.89132 97.6004 2.72745 98.3233 2.62541L98.3683 2.61913C98.9436 2.53999 99.5221 2.5 100.104 2.5C109.617 2.5 118.334 13.6552 125.103 31.3588C131.873 13.6552 140.71 2.52627 150.224 2.52627C150.82 2.52627 151.414 2.56838 152.004 2.65168C198.755 12.9048 235.706 49.3248 246.73 95.7823C246.959 96.5081 247.126 97.2398 247.23 97.9769C247.312 98.5646 247.354 99.1558 247.354 99.7501ZM111.349 110.985C111.734 100.281 112.564 90.0139 113.778 80.3548L80.7763 113.356C90.4378 112.167 100.688 111.358 111.349 110.985ZM136.114 169.391C137.347 159.648 138.192 149.294 138.591 138.515C149.326 138.138 159.659 137.318 169.393 136.112L136.114 169.391Z" fill="#F9F9F9"/>
<path d="M218.995 124.75C236.698 117.981 247.354 109.263 247.354 99.7501C247.354 99.1558 247.312 98.5646 247.23 97.9769M218.995 124.75C236.698 131.519 247.354 140.237 247.354 149.75C247.354 150.347 247.311 150.94 247.228 151.53M218.995 124.75C205.888 129.761 188.833 133.705 169.393 136.112M31.7123 124.75C14.0088 131.519 2.85352 140.237 2.85352 149.75C2.85352 150.347 2.89562 150.94 2.97892 151.53M31.7123 124.75C14.0088 117.981 3.10352 109.263 3.10352 99.7501C3.10352 99.1534 3.14562 98.5599 3.22892 97.9698M31.7123 124.75C40.1077 127.96 50.0531 130.732 61.19 132.943M3.22892 97.9698C3.38606 97.2499 3.54938 96.5324 3.71887 95.8172M3.22892 97.9698C3.33097 97.247 3.49483 96.5293 3.71887 95.8172M3.71887 95.8172C14.566 50.0437 50.4095 14.0083 96.1139 3.13334M247.23 97.9769C247.126 97.2398 246.959 96.5081 246.73 95.7823M247.23 97.9769C247.07 97.2429 246.903 96.5114 246.73 95.7823M246.73 95.7823C235.706 49.3248 198.755 12.9048 152.004 2.65168C151.414 2.56838 150.82 2.52627 150.224 2.52627C140.71 2.52627 131.873 13.6552 125.103 31.3588M247.228 151.53C247.126 152.253 246.962 152.971 246.738 153.683M247.228 151.53C247.071 152.25 246.908 152.968 246.738 153.683M246.738 153.683C240.542 173.375 188.33 188.75 125.104 188.75C122.328 188.75 119.574 188.72 116.844 188.662M246.738 153.683C235.888 199.47 199.853 235.513 154.071 246.376M246.738 153.683C235.724 200.161 198.76 236.599 151.992 246.851M2.97892 151.53C3.08097 152.253 3.24483 152.971 3.46887 153.683M2.97892 151.53C3.13605 152.25 3.29939 152.968 3.46887 153.683M3.46887 153.683C14.322 199.482 50.3719 235.531 96.1707 246.385M3.46887 153.683C7.5646 166.701 31.7696 177.832 65.9719 183.882M3.46887 153.683C14.483 200.161 51.4469 236.599 98.2151 246.851M125.103 31.3588C118.334 13.6552 109.617 2.5 100.104 2.5C99.5221 2.5 98.9436 2.53999 98.3683 2.61913M125.103 31.3588C120.117 44.399 116.189 61.1785 113.778 80.3548M151.877 246.876C151.289 246.958 150.698 247 150.103 247C140.59 247 131.872 236.345 125.103 218.641C125.036 218.464 124.968 218.286 124.901 218.107M151.877 246.876C152.614 246.773 153.345 246.606 154.071 246.376M151.877 246.876C151.915 246.868 151.954 246.859 151.992 246.851M154.071 246.376C153.38 246.54 152.687 246.699 151.992 246.851M98.3233 246.875C97.6004 246.773 96.8827 246.609 96.1707 246.385M98.3233 246.875C98.2872 246.867 98.2511 246.859 98.2151 246.851M98.3233 246.875C98.8311 246.946 99.3415 246.987 99.8542 246.998C109.395 246.811 118.128 235.978 124.901 218.107M98.3233 246.875L98.2151 246.851M96.1707 246.385C83.153 242.289 72.022 218.084 65.9719 183.882M96.1707 246.385C96.85 246.546 97.5315 246.701 98.2151 246.851M98.3233 2.62541C97.6004 2.72745 96.8827 2.89132 96.1707 3.11535M98.3233 2.62541C97.6034 2.78254 96.8858 2.94587 96.1707 3.11535M98.3233 2.62541C98.3383 2.62329 98.3533 2.62119 98.3683 2.61913M98.3233 2.62541L98.3683 2.61913M96.1707 3.11535C96.1517 3.12131 96.1328 3.1273 96.1139 3.13334M96.1707 3.11535L96.1139 3.13334M61.19 132.943C61.1327 130.235 61.1035 127.503 61.1035 124.75C61.1035 61.5847 76.4489 9.41146 96.1139 3.13334M61.19 132.943L80.7763 113.356M96.1139 3.13334C96.8628 2.95516 97.6142 2.78373 98.3683 2.61913M65.9719 183.882L111.349 138.505M116.844 188.662C119.019 199.789 121.744 209.736 124.901 218.107M116.844 188.662L136.114 169.391M111.349 138.505L111.348 138.504C111.187 133.986 111.104 129.397 111.104 124.75C111.104 120.093 111.187 115.5 111.349 110.985M111.349 138.505C115.861 138.667 120.45 138.75 125.104 138.75C129.659 138.75 134.159 138.67 138.591 138.515M113.778 80.3548C112.564 90.0139 111.734 100.281 111.349 110.985M113.778 80.3548L80.7763 113.356M169.393 136.112C159.659 137.318 149.326 138.138 138.591 138.515M169.393 136.112L136.114 169.391M111.349 110.985C100.688 111.358 90.4378 112.167 80.7763 113.356M136.114 169.391C137.347 159.648 138.192 149.294 138.591 138.515" stroke="black" stroke-width="2" stroke-linecap="round" stroke-linejoin="round"/>
<path d="M3.10352 100C3.10352 109.513 14.0088 118.231 31.7123 125C40.1077 128.21 50.0531 130.982 61.19 133.193C61.1327 130.485 61.1035 127.753 61.1035 125C61.1035 61.8348 76.4489 9.66155 96.1139 3.38344C50.4095 14.2584 14.566 50.2938 3.71887 96.0673C3.54938 96.7825 3.38606 97.5 3.22892 98.2199C3.14562 98.81 3.10352 99.4035 3.10352 100Z" fill="#F9F9F9"/>
<path d="M218.995 125C236.698 118.231 247.354 109.513 247.354 100C247.354 99.4059 247.312 98.8147 247.23 98.227C247.07 97.493 246.903 96.7614 246.73 96.0324C235.706 49.5749 198.755 13.1549 152.004 2.90177C151.414 2.81847 150.82 2.77637 150.224 2.77637C140.71 2.77637 131.873 13.9053 125.103 31.6088C120.117 44.6491 116.189 61.4286 113.778 80.6049C112.564 90.264 111.734 100.531 111.349 111.235C111.187 115.75 111.104 120.343 111.104 125C111.104 129.647 111.187 134.236 111.348 138.755L111.349 138.755C115.861 138.917 120.45 139 125.104 139C129.659 139 134.159 138.92 138.591 138.765C149.326 138.388 159.659 137.568 169.393 136.362C188.833 133.955 205.888 130.011 218.995 125Z" fill="#F9F9F9"/>
<path d="M3.46887 153.933C14.322 199.732 50.3719 235.782 96.1707 246.635C83.153 242.539 72.022 218.334 65.9719 184.132C31.7696 178.082 7.5646 166.951 3.46887 153.933Z" fill="#F9F9F9"/>
<path d="M246.738 153.933C240.542 173.625 188.33 189 125.104 189C122.328 189 119.574 188.97 116.844 188.912C119.019 200.039 121.744 209.986 124.901 218.357C124.968 218.536 125.036 218.714 125.103 218.891C131.872 236.595 140.59 247.25 150.103 247.25C150.698 247.25 151.289 247.209 151.877 247.126C151.915 247.118 151.954 247.109 151.992 247.101C152.687 246.949 153.38 246.79 154.071 246.626C199.853 235.763 235.888 199.72 246.738 153.933Z" fill="#F9F9F9"/>
<path d="M3.10352 100C3.10352 109.513 14.0088 118.231 31.7123 125C40.1077 128.21 50.0531 130.982 61.19 133.193C61.1327 130.485 61.1035 127.753 61.1035 125C61.1035 61.8348 76.4489 9.66155 96.1139 3.38344C50.4095 14.2584 14.566 50.2938 3.71887 96.0673C3.54938 96.7825 3.38606 97.5 3.22892 98.2199C3.14562 98.81 3.10352 99.4035 3.10352 100Z" stroke="black" stroke-width="2" stroke-linejoin="round"/>
<path d="M218.995 125C236.698 118.231 247.354 109.513 247.354 100C247.354 99.4059 247.312 98.8147 247.23 98.227C247.07 97.493 246.903 96.7614 246.73 96.0324C235.706 49.5749 198.755 13.1549 152.004 2.90177C151.414 2.81847 150.82 2.77637 150.224 2.77637C140.71 2.77637 131.873 13.9053 125.103 31.6088C120.117 44.6491 116.189 61.4286 113.778 80.6049C112.564 90.264 111.734 100.531 111.349 111.235C111.187 115.75 111.104 120.343 111.104 125C111.104 129.647 111.187 134.236 111.348 138.755L111.349 138.755C115.861 138.917 120.45 139 125.104 139C129.659 139 134.159 138.92 138.591 138.765C149.326 138.388 159.659 137.568 169.393 136.362C188.833 133.955 205.888 130.011 218.995 125Z" stroke="black" stroke-width="2" stroke-linejoin="round"/>
<path d="M3.46887 153.933C14.322 199.732 50.3719 235.782 96.1707 246.635C83.153 242.539 72.022 218.334 65.9719 184.132C31.7696 178.082 7.5646 166.951 3.46887 153.933Z" stroke="black" stroke-width="2" stroke-linejoin="round"/>
<path d="M246.738 153.933C240.542 173.625 188.33 189 125.104 189C122.328 189 119.574 188.97 116.844 188.912C119.019 200.039 121.744 209.986 124.901 218.357C124.968 218.536 125.036 218.714 125.103 218.891C131.872 236.595 140.59 247.25 150.103 247.25C150.698 247.25 151.289 247.209 151.877 247.126C151.915 247.118 151.954 247.109 151.992 247.101C152.687 246.949 153.38 246.79 154.071 246.626C199.853 235.763 235.888 199.72 246.738 153.933Z" stroke="black" stroke-width="2" stroke-linejoin="round"/>
</svg>
