<svg width="251" height="250" viewBox="0 0 251 250" fill="none" xmlns="http://www.w3.org/2000/svg">
<path d="M53.4984 25.1049C-1.672 64.6513 -14.3378 141.434 25.2086 196.605C64.755 251.775 145.297 219.817 176.854 197.197C208.412 174.576 264.545 108.565 224.998 53.3947C185.452 -1.77572 108.669 -14.4415 53.4984 25.1049Z" fill="#F9F9F9"/>
<path d="M224.998 53.3947C264.545 108.565 251.879 185.348 196.709 224.895C141.538 264.441 64.755 251.775 25.2086 196.605M224.998 53.3947C185.452 -1.77572 108.669 -14.4415 53.4984 25.1049C-1.67201 64.6513 -14.3378 141.434 25.2086 196.605M224.998 53.3947C264.545 108.565 208.412 174.576 176.854 197.197C145.297 219.817 64.755 251.775 25.2086 196.605" stroke="black" stroke-width="2" stroke-linejoin="round"/>
<path d="M196.707 224.895C251.877 185.349 264.543 108.566 224.997 53.3953C264.543 108.566 208.411 174.576 176.853 197.197C145.295 219.818 64.7534 251.776 25.207 196.605C64.7534 251.776 141.537 264.442 196.707 224.895Z" fill="#F9F9F9" stroke="black" stroke-width="2" stroke-linejoin="round"/>
<path d="M26.2213 114.622C16.6166 104.622 28.3367 80.3842 45.7119 81.364C63.087 82.3438 35.8261 124.622 26.2213 114.622Z" fill="#F9F9F9" stroke="black" stroke-width="2" stroke-linejoin="round"/>
<path d="M53.2522 70.8568C30.186 66.8089 83.2043 17.1104 112.359 24.2759C141.513 31.4413 76.3184 74.9048 53.2522 70.8568Z" fill="#F9F9F9" stroke="black" stroke-width="2" stroke-linejoin="round"/>
</svg>
