<svg width="253" height="252" viewBox="0 0 253 252" fill="none" xmlns="http://www.w3.org/2000/svg">
<path d="M214.492 214.388C165.676 263.204 86.5307 263.204 37.7152 214.388C-11.1004 165.573 -11.1004 86.4272 37.7152 37.6116C86.5307 -11.2039 165.676 -11.2039 214.492 37.6116C263.307 86.4272 263.307 165.573 214.492 214.388Z" fill="#F9F9F9" stroke="black" stroke-width="2" stroke-linejoin="round"/>
<path d="M197.521 197.418C158.078 236.861 94.1287 236.861 54.6857 197.418C15.2428 157.975 15.2428 94.0252 54.6857 54.5822C94.1287 15.1393 158.078 15.1393 197.521 54.5822C236.964 94.0252 236.964 157.975 197.521 197.418Z" fill="#F9F9F9" stroke="black" stroke-width="2" stroke-linejoin="round"/>
<path d="M106.71 166.607C100.852 172.464 91.3548 172.464 85.4969 166.607C79.639 160.749 79.639 151.251 85.4969 145.393C91.3548 139.536 100.852 139.536 106.71 145.393C112.568 151.251 112.568 160.749 106.71 166.607Z" fill="#F9F9F9" stroke="black" stroke-width="2" stroke-linejoin="round"/>
<path d="M166.71 106.607C160.852 112.464 151.355 112.464 145.497 106.607C139.639 100.749 139.639 91.2513 145.497 85.3934C151.355 79.5355 160.852 79.5355 166.71 85.3934C172.568 91.2513 172.568 100.749 166.71 106.607Z" fill="#F9F9F9" stroke="black" stroke-width="2" stroke-linejoin="round"/>
<path d="M106.71 106.607C100.852 112.464 91.3548 112.464 85.4969 106.607C79.639 100.749 79.639 91.2513 85.4969 85.3934C91.3548 79.5355 100.852 79.5355 106.71 85.3934C112.568 91.2513 112.568 100.749 106.71 106.607Z" fill="#F9F9F9" stroke="black" stroke-width="2" stroke-linejoin="round"/>
<path d="M166.71 166.607C160.852 172.464 151.355 172.464 145.497 166.607C139.639 160.749 139.639 151.251 145.497 145.393C151.355 139.536 160.852 139.536 166.71 145.393C172.568 151.251 172.568 160.749 166.71 166.607Z" fill="#F9F9F9" stroke="black" stroke-width="2" stroke-linejoin="round"/>
</svg>
