<svg width="253" height="252" viewBox="0 0 253 252" fill="none" xmlns="http://www.w3.org/2000/svg">
<path d="M126.495 156.956C126.495 169.941 115.969 180.467 102.984 180.467C89.9996 180.467 79.4734 169.941 79.4734 156.956C79.4734 143.971 89.9996 133.445 102.984 133.445C115.969 133.445 126.495 143.971 126.495 156.956Z" fill="#F9F9F9"/>
<path fill-rule="evenodd" clip-rule="evenodd" d="M83.0001 8.63053C66.0955 14.8406 50.9044 24.5985 38.3292 37.0018C22.9585 52.1625 11.496 71.2755 5.58992 92.6928C19.5204 118.555 73.2038 128.351 102.984 96.2194C132.765 64.0878 113.564 20.2006 83.0001 8.63053ZM53.6114 102.097C59.2381 102.097 63.7994 97.5358 63.7994 91.9091C63.7994 86.2824 59.2381 81.721 53.6114 81.721C47.9846 81.721 43.4233 86.2824 43.4233 91.9091C43.4233 97.5358 47.9846 102.097 53.6114 102.097Z" fill="#F9F9F9"/>
<path d="M184.881 15.6533C167.36 6.30129 147.351 1 126.104 1C169.207 8.63053 216.307 53.7429 197.812 128.351C174.693 221.611 9.72421 217.301 1.10352 126C1.10352 144.601 5.16624 162.252 12.4527 178.116C22.2903 199.534 38.0043 217.693 57.5298 230.528C118.267 250.758 172.187 238.069 207.608 198.884C243.03 159.699 251.104 91.1254 223.174 47.2382C212.683 34.3256 199.669 23.5466 184.881 15.6533Z" fill="#F9F9F9"/>
<path d="M1.10352 126C1.10352 144.601 5.16624 162.252 12.4527 178.116C22.2903 199.534 38.0043 217.693 57.5298 230.528M1.10352 126C9.72421 217.301 174.693 221.611 197.812 128.351C216.307 53.7429 169.207 8.63053 126.104 1M1.10352 126C1.10352 114.466 2.66566 103.297 5.58992 92.6928M126.104 1C147.351 1 167.36 6.30129 184.881 15.6533C199.669 23.5466 212.683 34.3256 223.174 47.2382M126.104 1C110.955 1 96.4364 3.69456 83.0001 8.63053M223.174 47.2382C240.637 68.7349 251.104 96.1452 251.104 126C251.104 144.601 247.041 162.252 239.754 178.116C219.997 221.13 176.539 251 126.104 251C100.781 251 77.218 243.471 57.5298 230.528M223.174 47.2382C251.104 91.1254 243.03 159.699 207.608 198.884C172.187 238.069 118.267 250.758 57.5298 230.528M83.0001 8.63053C66.0955 14.8406 50.9044 24.5985 38.3292 37.0018C22.9585 52.1625 11.496 71.2755 5.58992 92.6928M83.0001 8.63053C113.564 20.2006 132.765 64.0878 102.984 96.2194C73.2038 128.351 19.5204 118.555 5.58992 92.6928M63.7994 91.9091C63.7994 97.5358 59.2381 102.097 53.6114 102.097C47.9846 102.097 43.4233 97.5358 43.4233 91.9091C43.4233 86.2824 47.9846 81.721 53.6114 81.721C59.2381 81.721 63.7994 86.2824 63.7994 91.9091ZM126.495 156.956C126.495 169.941 115.969 180.467 102.984 180.467C89.9996 180.467 79.4734 169.941 79.4734 156.956C79.4734 143.971 89.9996 133.445 102.984 133.445C115.969 133.445 126.495 143.971 126.495 156.956Z" stroke="black" stroke-width="2" stroke-linejoin="round"/>
<path d="M63.7994 91.9091C63.7994 97.5358 59.2381 102.097 53.6114 102.097C47.9846 102.097 43.4233 97.5358 43.4233 91.9091C43.4233 86.2824 47.9846 81.721 53.6114 81.721C59.2381 81.721 63.7994 86.2824 63.7994 91.9091Z" fill="#F9F9F9"/>
<path fill-rule="evenodd" clip-rule="evenodd" d="M197.812 128.351C216.307 53.7429 169.207 8.63053 126.104 1C110.955 1 96.4364 3.69456 83.0001 8.63053C113.564 20.2006 132.765 64.0878 102.984 96.2194C73.2038 128.351 19.5204 118.555 5.58992 92.6928C2.66566 103.297 1.10352 114.466 1.10352 126C9.72421 217.301 174.693 221.611 197.812 128.351Z" fill="#F9F9F9"/>
<path d="M251.104 126C251.104 96.1452 240.637 68.7349 223.174 47.2382C251.104 91.1254 243.03 159.699 207.608 198.884C172.187 238.069 118.267 250.758 57.5298 230.528C77.218 243.471 100.781 251 126.104 251C176.539 251 219.997 221.13 239.754 178.116C247.041 162.252 251.104 144.601 251.104 126Z" fill="#F9F9F9"/>
<path d="M63.7994 91.9091C63.7994 97.5358 59.2381 102.097 53.6114 102.097C47.9846 102.097 43.4233 97.5358 43.4233 91.9091C43.4233 86.2824 47.9846 81.721 53.6114 81.721C59.2381 81.721 63.7994 86.2824 63.7994 91.9091Z" stroke="black" stroke-width="2" stroke-linejoin="round"/>
<path fill-rule="evenodd" clip-rule="evenodd" d="M197.812 128.351C216.307 53.7429 169.207 8.63053 126.104 1C110.955 1 96.4364 3.69456 83.0001 8.63053C113.564 20.2006 132.765 64.0878 102.984 96.2194C73.2038 128.351 19.5204 118.555 5.58992 92.6928C2.66566 103.297 1.10352 114.466 1.10352 126C9.72421 217.301 174.693 221.611 197.812 128.351Z" stroke="black" stroke-width="2" stroke-linejoin="round"/>
<path d="M251.104 126C251.104 96.1452 240.637 68.7349 223.174 47.2382C251.104 91.1254 243.03 159.699 207.608 198.884C172.187 238.069 118.267 250.758 57.5298 230.528C77.218 243.471 100.781 251 126.104 251C176.539 251 219.997 221.13 239.754 178.116C247.041 162.252 251.104 144.601 251.104 126Z" stroke="black" stroke-width="2" stroke-linejoin="round"/>
<path d="M126.495 156.956C126.495 169.941 115.968 180.467 102.984 180.467C89.9989 180.467 79.4727 169.941 79.4727 156.956C79.4727 143.972 89.9989 133.445 102.984 133.445C115.968 133.445 126.495 143.972 126.495 156.956Z" fill="#F9F9F9" stroke="black" stroke-width="2" stroke-linejoin="round"/>
</svg>
