<svg width="253" height="252" viewBox="0 0 253 252" fill="none" xmlns="http://www.w3.org/2000/svg">
<path fill-rule="evenodd" clip-rule="evenodd" d="M239.754 178.116C247.041 162.252 251.104 144.601 251.104 126C251.104 117.411 250.237 109.024 248.587 100.922C243.328 116.987 222.312 124.798 197.028 102.489C170.383 78.9781 171.166 56.6426 154.709 31.1724C138.251 5.70219 100.633 7.9196 86.9186 7.26498C80.1102 9.51063 73.5606 12.3255 67.3261 15.6533C79.2122 12.8588 112.075 15.0282 134.332 39.7931C162.154 70.7492 129.269 165.42 163.329 193.398C196.245 220.436 229.317 196.533 239.754 178.116ZM198.596 191.439C218.073 191.439 233.862 175.65 233.862 156.172C233.862 136.695 218.073 120.906 198.596 120.906C179.119 120.906 163.329 136.695 163.329 156.172C163.329 175.65 179.119 191.439 198.596 191.439Z" fill="#F9F9F9"/>
<path d="M126.104 251C151.182 248.649 176.245 243.063 196.245 229.481C186.056 235.478 160.978 241.204 142.169 216.125C118.658 184.777 126.887 147.16 103.376 92.6928C79.8653 38.2257 35.0959 53.4643 24.2226 85.2477C14.0345 115.028 15.6019 158.915 38.3292 196.533C44.0763 207.243 60.6646 227.724 67.3261 222.395C75.1631 216.125 55.1787 208.68 47.3418 193.398C39.5048 178.116 31.2759 156.172 48.5173 147.16C65.7587 138.147 88.0941 164.009 91.6208 184.777C89.5309 181.643 83.5487 176.47 76.3386 180.859C67.3261 186.345 86.1349 212.207 99.4577 205.154C112.781 198.1 93.1882 164.793 81.0408 151.078C68.8935 137.364 32.8433 90.3417 59.0972 77.4107C85.688 64.3137 104.765 119.339 110.821 154.213C122.185 219.652 148.047 234.934 126.104 251Z" fill="#F9F9F9"/>
<path d="M126.104 251C113.714 251 101.745 249.197 90.4452 245.84C78.6506 242.336 67.5848 237.138 57.5298 230.528C38.0043 217.693 22.2903 199.534 12.4527 178.116C5.16624 162.252 1.10352 144.601 1.10352 126C1.10352 91.1709 15.3481 59.6689 38.3292 37.0018C46.8799 28.568 56.6401 21.3572 67.3261 15.6533M126.104 251C151.182 248.649 176.245 243.063 196.245 229.481M126.104 251C148.047 234.934 122.185 219.652 110.821 154.213C104.765 119.339 85.688 64.3137 59.0972 77.4107C32.8433 90.3417 68.8935 137.364 81.0408 151.078C93.1882 164.793 112.781 198.1 99.4577 205.154C86.1349 212.207 67.3261 186.345 76.3386 180.859C83.5487 176.47 89.5309 181.643 91.6208 184.777C88.0941 164.009 65.7587 138.147 48.5173 147.16C31.2759 156.172 39.5048 178.116 47.3418 193.398C55.1787 208.68 75.1631 216.125 67.3261 222.395C60.6646 227.724 44.0763 207.243 38.3292 196.533C15.6019 158.915 14.0345 115.028 24.2226 85.2476C35.0959 53.4643 79.8653 38.2257 103.376 92.6928C126.887 147.16 118.658 184.777 142.169 216.125C160.978 241.204 186.056 235.478 196.245 229.481M239.754 178.116C247.041 162.252 251.104 144.601 251.104 126C251.104 117.411 250.237 109.024 248.587 100.922M239.754 178.116C229.317 196.533 196.245 220.436 163.329 193.398C129.269 165.42 162.154 70.7492 134.332 39.7931C112.075 15.0282 79.2122 12.8588 67.3261 15.6533M239.754 178.116C230.181 198.958 215.044 216.714 196.245 229.481M86.9186 7.26498C99.2436 3.19974 112.417 1 126.104 1C147.351 1 167.36 6.30129 184.881 15.6533C199.669 23.5466 212.683 34.3256 223.174 47.2382C235.613 62.5502 244.502 80.8626 248.587 100.922M86.9186 7.26498C100.633 7.9196 138.251 5.70219 154.709 31.1724C171.166 56.6426 170.383 78.9781 197.028 102.489C222.312 124.798 243.328 116.987 248.587 100.922M86.9186 7.26498C80.1102 9.51063 73.5606 12.3255 67.3261 15.6533M233.862 156.172C233.862 175.65 218.073 191.439 198.596 191.439C179.119 191.439 163.329 175.65 163.329 156.172C163.329 136.695 179.119 120.906 198.596 120.906C218.073 120.906 233.862 136.695 233.862 156.172Z" stroke="black" stroke-width="2" stroke-linejoin="round"/>
<path d="M233.862 156.172C233.862 175.65 218.073 191.439 198.596 191.439C179.119 191.439 163.329 175.65 163.329 156.172C163.329 136.695 179.119 120.906 198.596 120.906C218.073 120.906 233.862 136.695 233.862 156.172Z" fill="#F9F9F9"/>
<path d="M184.881 15.6533C167.36 6.30129 147.351 1 126.104 1C112.417 1 99.2436 3.19974 86.9186 7.26498C100.633 7.9196 138.251 5.70219 154.709 31.1724C171.166 56.6426 170.383 78.9781 197.028 102.489C222.312 124.798 243.328 116.987 248.587 100.922C244.502 80.8626 235.613 62.5502 223.174 47.2382C212.683 34.3256 199.669 23.5466 184.881 15.6533Z" fill="#F9F9F9"/>
<path d="M38.3292 37.0018C15.3481 59.6689 1.10352 91.1709 1.10352 126C1.10352 144.601 5.16624 162.252 12.4527 178.116C22.2903 199.534 38.0043 217.693 57.5298 230.528C67.5848 237.138 78.6506 242.336 90.4452 245.84C101.745 249.197 113.714 251 126.104 251C148.047 234.934 122.185 219.652 110.821 154.213C104.765 119.339 85.688 64.3137 59.0972 77.4107C32.8433 90.3417 68.8935 137.364 81.0408 151.078C93.1882 164.793 112.781 198.1 99.4577 205.154C86.1349 212.207 67.3261 186.345 76.3386 180.859C83.5487 176.47 89.5309 181.643 91.6208 184.777C88.0941 164.009 65.7587 138.147 48.5173 147.16C31.2759 156.172 39.5048 178.116 47.3418 193.398C55.1787 208.68 75.1631 216.125 67.3261 222.395C60.6646 227.724 44.0763 207.243 38.3292 196.533C15.6019 158.915 14.0345 115.028 24.2226 85.2477C35.0959 53.4643 79.8653 38.2257 103.376 92.6928C126.887 147.16 118.658 184.777 142.169 216.125C160.978 241.204 186.056 235.478 196.245 229.481C215.044 216.714 230.181 198.958 239.754 178.116C229.317 196.533 196.245 220.436 163.329 193.398C129.269 165.42 162.154 70.7492 134.332 39.7931C112.075 15.0282 79.2122 12.8588 67.3261 15.6533C56.6401 21.3572 46.8799 28.568 38.3292 37.0018Z" fill="#F9F9F9"/>
<path d="M233.862 156.172C233.862 175.65 218.073 191.439 198.596 191.439C179.119 191.439 163.329 175.65 163.329 156.172C163.329 136.695 179.119 120.906 198.596 120.906C218.073 120.906 233.862 136.695 233.862 156.172Z" stroke="black" stroke-width="2" stroke-linejoin="round"/>
<path d="M184.881 15.6533C167.36 6.30129 147.351 1 126.104 1C112.417 1 99.2436 3.19974 86.9186 7.26498C100.633 7.9196 138.251 5.70219 154.709 31.1724C171.166 56.6426 170.383 78.9781 197.028 102.489C222.312 124.798 243.328 116.987 248.587 100.922C244.502 80.8626 235.613 62.5502 223.174 47.2382C212.683 34.3256 199.669 23.5466 184.881 15.6533Z" stroke="black" stroke-width="2" stroke-linejoin="round"/>
<path d="M38.3292 37.0018C15.3481 59.6689 1.10352 91.1709 1.10352 126C1.10352 144.601 5.16624 162.252 12.4527 178.116C22.2903 199.534 38.0043 217.693 57.5298 230.528C67.5848 237.138 78.6506 242.336 90.4452 245.84C101.745 249.197 113.714 251 126.104 251C148.047 234.934 122.185 219.652 110.821 154.213C104.765 119.339 85.688 64.3137 59.0972 77.4107C32.8433 90.3417 68.8935 137.364 81.0408 151.078C93.1882 164.793 112.781 198.1 99.4577 205.154C86.1349 212.207 67.3261 186.345 76.3386 180.859C83.5487 176.47 89.5309 181.643 91.6208 184.777C88.0941 164.009 65.7587 138.147 48.5173 147.16C31.2759 156.172 39.5048 178.116 47.3418 193.398C55.1787 208.68 75.1631 216.125 67.3261 222.395C60.6646 227.724 44.0763 207.243 38.3292 196.533C15.6019 158.915 14.0345 115.028 24.2226 85.2477C35.0959 53.4643 79.8653 38.2257 103.376 92.6928C126.887 147.16 118.658 184.777 142.169 216.125C160.978 241.204 186.056 235.478 196.245 229.481C215.044 216.714 230.181 198.958 239.754 178.116C229.317 196.533 196.245 220.436 163.329 193.398C129.269 165.42 162.154 70.7492 134.332 39.7931C112.075 15.0282 79.2122 12.8588 67.3261 15.6533C56.6401 21.3572 46.8799 28.568 38.3292 37.0018Z" stroke="black" stroke-width="2" stroke-linejoin="round"/>
</svg>
