<svg width="254" height="253" viewBox="0 0 254 253" fill="none" xmlns="http://www.w3.org/2000/svg">
<path d="M252.104 126.25C252.104 96.3355 241.616 68.8704 224.118 47.3307C213.607 34.3922 200.566 23.5917 185.749 15.6827C168.193 6.31189 148.144 1 126.854 1C113.139 1 99.9399 3.20414 87.5902 7.27751C115.336 2.69833 177.896 2.96317 174.755 49.6865C171.376 99.9436 92.3018 72.0666 65.6027 72.0666C38.9037 72.0666 6.31511 86.9867 6.31511 134.495C6.31511 182.004 58.1427 203.206 103.296 193.783C78.9523 188.286 52.6458 176.9 52.6458 146.274C52.6458 119.575 74.3049 109.073 101.332 110.937C135.491 113.293 166.117 140.385 191.245 131.747C225.012 120.14 210.092 87.3793 192.816 66.5697C207.605 69.7108 240.796 84.1597 237.969 119.968C234.435 164.728 177.896 152.556 163.368 149.415C148.841 146.274 92.6944 126.25 85.2344 151.379C77.7744 176.507 133.528 184.752 143.344 186.716C153.16 188.679 177.111 194.861 174.755 219.304C172.399 243.747 139.418 256.473 91.1239 246.33C102.446 249.694 114.439 251.5 126.854 251.5C177.389 251.5 220.935 221.571 240.732 178.47C248.033 162.575 252.104 144.888 252.104 126.25Z" fill="#F9F9F9"/>
<path d="M91.1239 246.33C102.446 249.694 114.439 251.5 126.854 251.5C177.389 251.5 220.935 221.571 240.732 178.47C248.033 162.575 252.104 144.888 252.104 126.25C252.104 96.3355 241.616 68.8704 224.118 47.3307C213.607 34.3922 200.566 23.5917 185.749 15.6827C168.193 6.31189 148.144 1 126.854 1C113.139 1 99.9399 3.20414 87.5902 7.27751M91.1239 246.33C79.3057 242.819 68.2178 237.61 58.1427 230.987C38.5781 218.126 22.8327 199.931 12.9754 178.47C5.67437 162.575 1.60352 144.888 1.60352 126.25C1.60352 91.3513 15.8766 59.7862 38.9037 37.0738C52.4702 23.6927 69.0752 13.3844 87.5902 7.27751M91.1239 246.33C139.418 256.473 172.399 243.747 174.755 219.304C177.111 194.861 153.16 188.679 143.344 186.716C133.528 184.752 77.7744 176.507 85.2344 151.379C92.6944 126.25 148.841 146.274 163.368 149.415C177.896 152.556 234.435 164.728 237.969 119.968C240.796 84.1597 207.605 69.7108 192.816 66.5697C210.092 87.3793 225.012 120.14 191.245 131.747C166.117 140.385 135.491 113.293 101.332 110.937C74.3049 109.073 52.6458 119.575 52.6458 146.274C52.6458 176.9 78.9523 188.286 103.296 193.783C58.1427 203.206 6.31511 182.004 6.31511 134.495C6.31511 86.9867 38.9037 72.0666 65.6027 72.0666C92.3018 72.0666 171.376 99.9436 174.755 49.6865C177.896 2.96317 115.336 2.69833 87.5902 7.27751" stroke="black" stroke-width="2" stroke-linejoin="round"/>
<path d="M38.8981 37.1892C15.8745 59.9067 1.60352 91.4789 1.60352 126.386C1.60352 145.027 5.67376 162.718 12.9737 178.618C22.8296 200.083 38.5726 218.283 58.1343 231.147C68.2079 237.771 79.2942 242.981 91.1106 246.493C139.397 256.638 172.374 243.909 174.729 219.461C177.085 195.012 153.137 188.828 143.323 186.865C133.509 184.901 77.7631 176.654 85.222 151.52C92.6809 126.386 148.819 146.414 163.344 149.556C177.87 152.698 234.401 164.872 237.934 120.102C240.76 84.2857 207.575 69.8336 192.788 66.6918C210.061 87.5061 224.979 120.274 191.217 131.884C166.092 140.524 135.472 113.426 101.318 111.069C74.2941 109.205 52.6383 119.709 52.6383 146.414C52.6383 177.047 78.9408 188.436 103.28 193.934C58.1343 203.359 6.31442 182.152 6.31442 134.633C6.31442 87.1133 38.8981 72.1899 65.5932 72.1899C92.2883 72.1899 171.351 100.073 174.729 49.8047C177.87 3.07083 115.319 2.80593 87.5774 7.38615C69.0652 13.4944 52.4626 23.8051 38.8981 37.1892Z" fill="#F9F9F9" stroke="black" stroke-width="2" stroke-linejoin="round"/>
</svg>
