<svg width="253" height="252" viewBox="0 0 253 252" fill="none" xmlns="http://www.w3.org/2000/svg">
<path d="M223.174 47.2382C240.637 68.7349 251.104 96.1452 251.104 126C251.104 144.601 247.041 162.252 239.754 178.116C219.997 221.13 176.539 251 126.104 251C100.781 251 77.218 243.471 57.5298 230.528C38.0043 217.693 22.2903 199.534 12.4527 178.116C5.16624 162.252 1.10352 144.601 1.10352 126C1.10352 91.1709 15.3481 59.6689 38.3292 37.0018C60.8996 14.7399 91.897 1 126.104 1C147.351 1 167.36 6.30129 184.881 15.6533C199.669 23.5466 212.683 34.3256 223.174 47.2382Z" fill="#F9F9F9"/>
<path d="M126.104 251C176.539 251 219.997 221.13 239.754 178.116M126.104 251C194.677 228.665 208 150.295 190.759 95.8276C176.966 52.2539 181.093 24.2224 184.881 15.6533M126.104 251C100.781 251 77.218 243.471 57.5298 230.528M126.104 1C147.351 1 167.36 6.30129 184.881 15.6533M126.104 1C48.5173 47.6301 84.1756 135.013 92.0126 178.116C98.2822 212.599 71.6364 227.425 57.5298 230.528M126.104 1C91.897 1 60.8996 14.7399 38.3292 37.0018M223.174 47.2382C240.637 68.7349 251.104 96.1452 251.104 126C251.104 144.601 247.041 162.252 239.754 178.116M223.174 47.2382C219.823 72.0554 218.449 132.975 239.754 178.116M223.174 47.2382C212.683 34.3256 199.669 23.5466 184.881 15.6533M57.5298 230.528C38.0043 217.693 22.2903 199.534 12.4527 178.116M38.3292 37.0018C15.3481 59.6689 1.10352 91.1709 1.10352 126C1.10352 144.601 5.16624 162.252 12.4527 178.116M38.3292 37.0018C43.162 52.6919 52.6709 92.4577 52.044 126C51.2603 167.928 35.1656 196.925 12.4527 178.116" stroke="black" stroke-width="2" stroke-linejoin="round"/>
<path d="M126.103 251C176.538 251 219.997 221.13 239.754 178.116C218.449 132.975 219.823 72.0554 223.173 47.2382C212.683 34.3256 199.668 23.5466 184.88 15.6533C181.092 24.2224 176.965 52.2539 190.758 95.8276C208 150.295 194.677 228.665 126.103 251Z" fill="#F9F9F9"/>
<path d="M57.5293 230.528C71.6359 227.425 98.2816 212.599 92.012 178.116C84.175 135.013 48.5167 47.6301 126.103 1C91.8964 1 60.899 14.7399 38.3286 37.0018C43.1615 52.6919 52.6703 92.4577 52.0434 126C51.2597 167.928 35.165 196.925 12.4521 178.116C22.2898 199.534 38.0037 217.693 57.5293 230.528Z" fill="#F9F9F9"/>
<path d="M126.103 251C176.538 251 219.997 221.13 239.754 178.116C218.449 132.975 219.823 72.0554 223.173 47.2382C212.683 34.3256 199.668 23.5466 184.88 15.6533C181.092 24.2224 176.965 52.2539 190.758 95.8276C208 150.295 194.677 228.665 126.103 251Z" stroke="black" stroke-width="2" stroke-linejoin="round"/>
<path d="M57.5293 230.528C71.6359 227.425 98.2816 212.599 92.012 178.116C84.175 135.013 48.5167 47.6301 126.103 1C91.8964 1 60.899 14.7399 38.3286 37.0018C43.1615 52.6919 52.6703 92.4577 52.0434 126C51.2597 167.928 35.165 196.925 12.4521 178.116C22.2898 199.534 38.0037 217.693 57.5293 230.528Z" stroke="black" stroke-width="2" stroke-linejoin="round"/>
</svg>
