<svg width="253" height="252" viewBox="0 0 253 252" fill="none" xmlns="http://www.w3.org/2000/svg">
<path fill-rule="evenodd" clip-rule="evenodd" d="M184.881 15.6533C167.36 6.30129 147.351 1 126.104 1C91.897 1 60.8996 14.7399 38.3292 37.0018C15.3481 59.6689 1.10352 91.1709 1.10352 126C1.10352 144.601 5.16624 162.252 12.4527 178.116C30.2214 190.786 92.982 212.628 102.593 185.169C116.307 145.984 51.0739 158.523 30.1004 128.351C7.76496 96.2194 38.3292 60.1693 74.7712 69.9655C106.091 78.3847 138.643 97.7868 148.831 147.16C156.671 185.153 134.724 229.448 74.7712 227.881C141.777 253.743 207.026 191.822 174.693 135.404C136.292 68.3981 170.383 26.4702 223.174 47.2382C212.683 34.3256 199.669 23.5466 184.881 15.6533ZM122.185 66.8307C136.685 66.8307 148.439 55.0764 148.439 40.5768C148.439 26.0772 136.685 14.3229 122.185 14.3229C107.685 14.3229 95.9311 26.0772 95.9311 40.5768C95.9311 55.0764 107.685 66.8307 122.185 66.8307Z" fill="#F9F9F9"/>
<path d="M223.174 47.2382C240.637 68.7349 251.104 96.1452 251.104 126C251.104 144.601 247.041 162.252 239.754 178.116C219.997 221.13 176.539 251 126.104 251C113.714 251 101.745 249.197 90.4452 245.84C78.6506 242.336 67.5848 237.138 57.5298 230.528C38.0043 217.693 22.2903 199.534 12.4527 178.116M223.174 47.2382C212.683 34.3256 199.669 23.5466 184.881 15.6533C167.36 6.30129 147.351 1 126.104 1C91.897 1 60.8996 14.7399 38.3292 37.0018C15.3481 59.6689 1.10352 91.1709 1.10352 126C1.10352 144.601 5.16624 162.252 12.4527 178.116M223.174 47.2382C170.383 26.4702 136.292 68.3981 174.693 135.404C207.026 191.822 141.777 253.743 74.7712 227.881C134.724 229.448 156.671 185.153 148.831 147.16C138.643 97.7868 106.091 78.3847 74.7712 69.9655C38.3292 60.1693 7.76496 96.2194 30.1004 128.351C51.0739 158.524 116.307 145.984 102.593 185.169C92.982 212.628 30.2214 190.786 12.4527 178.116M148.439 40.5768C148.439 55.0764 136.685 66.8307 122.185 66.8307C107.685 66.8307 95.9311 55.0764 95.9311 40.5768C95.9311 26.0772 107.685 14.3229 122.185 14.3229C136.685 14.3229 148.439 26.0772 148.439 40.5768Z" stroke="black" stroke-width="2" stroke-linejoin="round"/>
<path d="M148.439 40.5772C148.439 55.0768 136.685 66.8311 122.186 66.8311C107.686 66.8311 95.9316 55.0768 95.9316 40.5772C95.9316 26.0775 107.686 14.3232 122.186 14.3232C136.685 14.3232 148.439 26.0775 148.439 40.5772Z" fill="#F9F9F9" stroke="black" stroke-width="2" stroke-linejoin="round"/>
<path d="M251.102 126C251.102 96.1451 240.636 68.7349 223.172 47.2382C170.381 26.4702 136.29 68.3981 174.691 135.404C207.024 191.822 141.776 253.743 74.7697 227.881C134.723 229.448 156.669 185.153 148.829 147.16C138.641 97.7868 106.089 78.3847 74.7697 69.9655C38.3277 60.1692 7.76341 96.2194 30.0988 128.351C51.0723 158.523 116.306 145.984 102.591 185.169C92.9804 212.628 30.2198 190.786 12.4512 178.116C22.2888 199.534 38.0027 217.693 57.5283 230.528C67.5833 237.138 78.6491 242.336 90.4437 245.84C101.743 249.197 113.712 251 126.102 251C176.537 251 219.996 221.13 239.753 178.116C247.039 162.252 251.102 144.601 251.102 126Z" fill="#F9F9F9" stroke="black" stroke-width="2" stroke-linejoin="round"/>
</svg>
