<svg width="253" height="252" viewBox="0 0 253 252" fill="none" xmlns="http://www.w3.org/2000/svg">
<path fill-rule="evenodd" clip-rule="evenodd" d="M239.754 178.116C247.041 162.252 251.104 144.601 251.104 126C217.796 47.2382 110.038 107.583 179.787 238.918C206.213 226.332 227.525 204.742 239.754 178.116ZM181.746 188.696C160.116 158.288 179.787 130.31 192.326 120.122C198.415 114.245 217.796 111.502 227.201 136.58C236.605 161.658 208.784 226.705 181.746 188.696Z" fill="#F9F9F9"/>
<path d="M223.174 47.2382C212.683 34.3256 199.669 23.5466 184.881 15.6533C161.37 6.04404 119.442 1.7837 101.417 51.9404C85.0536 97.4732 92.4044 210.639 126.104 251C131.547 251 136.909 250.652 142.169 249.977C130.733 171.818 130.924 21.8464 223.174 47.2382Z" fill="#F9F9F9"/>
<path d="M126.104 1C91.897 1 60.8996 14.7399 38.3292 37.0018C12.4527 86.815 83.0001 144.809 12.4527 178.116C22.2903 199.534 38.0043 217.693 57.5298 230.528C99.8496 175.373 64.4824 136.188 67.6172 80.5455C69.6809 43.9144 80.2571 9.67516 126.104 1Z" fill="#F9F9F9"/>
<path d="M251.104 126C251.104 96.1452 240.637 68.7349 223.174 47.2382M251.104 126C251.104 144.601 247.041 162.252 239.754 178.116C227.525 204.742 206.213 226.332 179.787 238.918M251.104 126C217.796 47.2382 110.038 107.583 179.787 238.918M126.104 251C104.974 251 85.0682 245.757 67.6172 236.502C64.1549 234.665 60.7893 232.671 57.5298 230.528M126.104 251C131.547 251 136.909 250.652 142.169 249.977M126.104 251C92.4045 210.639 85.0536 97.4732 101.417 51.9404C119.442 1.7837 161.37 6.04404 184.881 15.6533M126.104 1C147.351 1 167.36 6.30129 184.881 15.6533M126.104 1C91.897 1 60.8996 14.7399 38.3292 37.0018M126.104 1C80.2571 9.67516 69.6809 43.9144 67.6172 80.5455C64.4824 136.188 99.8496 175.373 57.5298 230.528M223.174 47.2382C212.683 34.3256 199.669 23.5466 184.881 15.6533M223.174 47.2382C130.924 21.8464 130.733 171.818 142.169 249.977M57.5298 230.528C38.0043 217.693 22.2903 199.534 12.4527 178.116M38.3292 37.0018C15.3481 59.6689 1.10352 91.1709 1.10352 126C1.10352 144.601 5.16624 162.252 12.4527 178.116M38.3292 37.0018C12.4527 86.815 83.0001 144.809 12.4527 178.116M142.169 249.977C155.477 248.27 168.13 244.47 179.787 238.918M192.326 120.122C179.787 130.31 160.116 158.288 181.746 188.696C208.784 226.705 236.605 161.658 227.201 136.58C217.796 111.502 198.415 114.245 192.326 120.122Z" stroke="black" stroke-width="2" stroke-linejoin="round"/>
<path d="M192.326 120.122C179.787 130.31 160.116 158.288 181.746 188.696C208.784 226.705 236.605 161.658 227.201 136.58C217.796 111.502 198.415 114.245 192.326 120.122Z" fill="#F9F9F9"/>
<path d="M251.104 126C251.104 96.1452 240.637 68.7349 223.174 47.2382C130.924 21.8464 130.733 171.818 142.169 249.977C155.477 248.27 168.13 244.47 179.787 238.918C110.038 107.583 217.796 47.2382 251.104 126Z" fill="#F9F9F9"/>
<path d="M184.881 15.6533C167.36 6.30129 147.351 1 126.104 1C80.2571 9.67516 69.6809 43.9144 67.6172 80.5455C64.4824 136.188 99.8496 175.373 57.5298 230.528C60.7893 232.671 64.1549 234.665 67.6172 236.502C85.0682 245.757 104.974 251 126.104 251C92.4044 210.639 85.0536 97.4732 101.417 51.9404C119.442 1.7837 161.37 6.04404 184.881 15.6533Z" fill="#F9F9F9"/>
<path d="M38.3292 37.0018C15.3481 59.6689 1.10352 91.1709 1.10352 126C1.10352 144.601 5.16624 162.252 12.4527 178.116C83.0001 144.809 12.4527 86.815 38.3292 37.0018Z" fill="#F9F9F9"/>
<path d="M192.326 120.122C179.787 130.31 160.116 158.288 181.746 188.696C208.784 226.705 236.605 161.658 227.201 136.58C217.796 111.502 198.415 114.245 192.326 120.122Z" stroke="black" stroke-width="2" stroke-linejoin="round"/>
<path d="M251.104 126C251.104 96.1452 240.637 68.7349 223.174 47.2382C130.924 21.8464 130.733 171.818 142.169 249.977C155.477 248.27 168.13 244.47 179.787 238.918C110.038 107.583 217.796 47.2382 251.104 126Z" stroke="black" stroke-width="2" stroke-linejoin="round"/>
<path d="M184.881 15.6533C167.36 6.30129 147.351 1 126.104 1C80.2571 9.67516 69.6809 43.9144 67.6172 80.5455C64.4824 136.188 99.8496 175.373 57.5298 230.528C60.7893 232.671 64.1549 234.665 67.6172 236.502C85.0682 245.757 104.974 251 126.104 251C92.4044 210.639 85.0536 97.4732 101.417 51.9404C119.442 1.7837 161.37 6.04404 184.881 15.6533Z" stroke="black" stroke-width="2" stroke-linejoin="round"/>
<path d="M38.3292 37.0018C15.3481 59.6689 1.10352 91.1709 1.10352 126C1.10352 144.601 5.16624 162.252 12.4527 178.116C83.0001 144.809 12.4527 86.815 38.3292 37.0018Z" stroke="black" stroke-width="2" stroke-linejoin="round"/>
</svg>
