<svg width="253" height="252" viewBox="0 0 253 252" fill="none" xmlns="http://www.w3.org/2000/svg">
<path d="M57.5298 230.528C63.4664 234.431 69.7554 237.841 76.3386 240.701C90.6133 216.691 138.531 177.506 216.007 212.847C225.757 202.756 233.823 191.028 239.754 178.116C241.464 174.393 242.997 170.572 244.341 166.663C148.168 142.968 73.5696 194.904 48.2923 223.835C51.2642 226.201 54.3463 228.436 57.5298 230.528Z" fill="#F9F9F9"/>
<path d="M12.4527 178.116C18.3836 191.028 26.4503 202.756 36.2005 212.847C48.3771 179.882 108.389 117.265 251.023 130.518C251.077 129.019 251.104 127.512 251.104 126C251.104 101.448 244.025 78.549 231.797 59.2329C166.152 36.743 65.7532 46.5154 23.7597 54.2128C20.8289 58.3835 18.1466 62.7414 15.7342 67.2651C64.5722 65.0897 162.348 66.261 162.75 88.3494C163.252 115.96 23.8019 117.782 12.4527 178.116Z" fill="#F9F9F9"/>
<path d="M184.881 15.6533C167.36 6.30129 147.351 1 126.104 1C94.198 1 65.0844 12.9535 42.9969 32.6265C71.3684 24.7825 144.778 14.2087 211.445 34.6657C203.492 27.2311 194.567 20.8233 184.881 15.6533Z" fill="#F9F9F9"/>
<path d="M12.4527 178.116C5.16624 162.252 1.10352 144.601 1.10352 126C1.10352 104.77 6.39624 84.7755 15.7342 67.2651M12.4527 178.116C18.3836 191.028 26.4503 202.756 36.2005 212.847M12.4527 178.116C23.8019 117.782 163.252 115.96 162.75 88.3494C162.348 66.261 64.5722 65.0897 15.7342 67.2651M76.3386 240.701C91.5881 247.327 108.417 251 126.104 251C143.79 251 160.619 247.327 175.868 240.701C191.05 234.105 204.667 224.583 216.007 212.847M76.3386 240.701C69.7554 237.841 63.4664 234.431 57.5298 230.528C54.3463 228.436 51.2642 226.201 48.2923 223.835M76.3386 240.701C90.6133 216.691 138.531 177.506 216.007 212.847M216.007 212.847C225.757 202.756 233.823 191.028 239.754 178.116C241.464 174.393 242.997 170.572 244.341 166.663M48.2923 223.835C73.5696 194.904 148.168 142.968 244.341 166.663M48.2923 223.835C44.0255 220.437 39.9861 216.765 36.2005 212.847M244.341 166.663C248.258 155.269 250.575 143.132 251.023 130.518M36.2005 212.847C48.3771 179.882 108.389 117.265 251.023 130.518M251.023 130.518C251.077 129.019 251.104 127.512 251.104 126C251.104 101.448 244.025 78.549 231.797 59.2329M42.9969 32.6265C41.4039 34.0453 39.8475 35.5043 38.3292 37.0018C32.9753 42.2825 28.0956 48.0427 23.7597 54.2128M42.9969 32.6265C65.0844 12.9535 94.198 1 126.104 1C147.351 1 167.36 6.30129 184.881 15.6533C194.567 20.8233 203.492 27.2311 211.445 34.6657M42.9969 32.6265C71.3684 24.7825 144.778 14.2087 211.445 34.6657M211.445 34.6657C215.634 38.5819 219.554 42.7831 223.174 47.2382C226.275 51.0564 229.156 55.0611 231.797 59.2329M23.7597 54.2128C65.7532 46.5154 166.152 36.743 231.797 59.2329M23.7597 54.2128C20.8289 58.3835 18.1466 62.7414 15.7342 67.2651" stroke="black" stroke-width="2" stroke-linejoin="round"/>
<path d="M126.104 251C143.79 251 160.619 247.327 175.868 240.701C191.05 234.105 204.667 224.583 216.007 212.847C138.531 177.506 90.6133 216.691 76.3386 240.701C91.5881 247.327 108.417 251 126.104 251Z" fill="#F9F9F9"/>
<path d="M48.2923 223.835C73.5696 194.904 148.168 142.968 244.341 166.663C248.258 155.269 250.575 143.132 251.023 130.518C108.389 117.265 48.3771 179.882 36.2005 212.847C39.9861 216.765 44.0255 220.437 48.2923 223.835Z" fill="#F9F9F9"/>
<path d="M1.10352 126C1.10352 144.601 5.16624 162.252 12.4527 178.116C23.8019 117.782 163.252 115.96 162.75 88.3494C162.349 66.261 64.5722 65.0897 15.7342 67.265C6.39624 84.7755 1.10352 104.77 1.10352 126Z" fill="#F9F9F9"/>
<path d="M42.9969 32.6265C41.4039 34.0453 39.8475 35.5043 38.3292 37.0018C32.9753 42.2825 28.0956 48.0427 23.7597 54.2128C65.7532 46.5154 166.152 36.743 231.797 59.2329C229.156 55.0611 226.275 51.0564 223.174 47.2382C219.554 42.7831 215.634 38.5819 211.445 34.6657C144.778 14.2086 71.3684 24.7824 42.9969 32.6265Z" fill="#F9F9F9"/>
<path d="M126.104 251C143.79 251 160.619 247.327 175.868 240.701C191.05 234.105 204.667 224.583 216.007 212.847C138.531 177.506 90.6133 216.691 76.3386 240.701C91.5881 247.327 108.417 251 126.104 251Z" stroke="black" stroke-width="2" stroke-linejoin="round"/>
<path d="M48.2923 223.835C73.5696 194.904 148.168 142.968 244.341 166.663C248.258 155.269 250.575 143.132 251.023 130.518C108.389 117.265 48.3771 179.882 36.2005 212.847C39.9861 216.765 44.0255 220.437 48.2923 223.835Z" stroke="black" stroke-width="2" stroke-linejoin="round"/>
<path d="M1.10352 126C1.10352 144.601 5.16624 162.252 12.4527 178.116C23.8019 117.782 163.252 115.96 162.75 88.3494C162.349 66.261 64.5722 65.0897 15.7342 67.265C6.39624 84.7755 1.10352 104.77 1.10352 126Z" stroke="black" stroke-width="2" stroke-linejoin="round"/>
<path d="M42.9969 32.6265C41.4039 34.0453 39.8475 35.5043 38.3292 37.0018C32.9753 42.2825 28.0956 48.0427 23.7597 54.2128C65.7532 46.5154 166.152 36.743 231.797 59.2329C229.156 55.0611 226.275 51.0564 223.174 47.2382C219.554 42.7831 215.634 38.5819 211.445 34.6657C144.778 14.2086 71.3684 24.7824 42.9969 32.6265Z" stroke="black" stroke-width="2" stroke-linejoin="round"/>
</svg>
