<svg width="253" height="252" viewBox="0 0 253 252" fill="none" xmlns="http://www.w3.org/2000/svg">
<path fill-rule="evenodd" clip-rule="evenodd" d="M251.104 126C251.104 96.1452 240.637 68.7349 223.174 47.2382C212.683 34.3256 199.669 23.5466 184.881 15.6533C167.36 6.30129 147.351 1 126.104 1C114.609 8.57576 97.4985 29.2132 121.009 51.1567C150.398 78.5862 96.7148 170.279 1.10352 126C1.10352 144.601 5.16624 162.252 12.4527 178.116C22.2903 199.534 38.0043 217.693 57.5298 230.528C53.2195 214.166 100.297 238.231 136.292 223.962C179.787 206.721 154.317 119.339 203.69 113.069C249.685 107.228 239.754 178.116 239.754 178.116C247.041 162.252 251.104 144.601 251.104 126ZM131.981 37.0018C122.577 25.6779 130.319 16.7175 139.035 15.6533C153.141 13.931 173.909 28.4295 169.207 40.9687C164.505 53.5078 143.737 51.1567 131.981 37.0018Z" fill="#F9F9F9"/>
<path d="M1.10352 126C1.10352 91.1709 15.3481 59.6689 38.3292 37.0018C60.8996 14.7399 91.897 1 126.104 1M1.10352 126C1.10352 144.601 5.16624 162.252 12.4527 178.116C22.2903 199.534 38.0043 217.693 57.5298 230.528M1.10352 126C96.7148 170.279 150.398 78.5862 121.009 51.1567C97.4985 29.2132 114.609 8.57576 126.104 1M126.104 1C147.351 1 167.36 6.30129 184.881 15.6533C199.669 23.5466 212.683 34.3256 223.174 47.2382C240.637 68.7349 251.104 96.1452 251.104 126C251.104 144.601 247.041 162.252 239.754 178.116M239.754 178.116C219.997 221.13 176.539 251 126.104 251C100.781 251 77.218 243.471 57.5298 230.528M239.754 178.116C239.754 178.116 249.685 107.228 203.69 113.069C154.317 119.339 179.787 206.721 136.292 223.962C100.297 238.231 53.2195 214.166 57.5298 230.528M139.035 15.6533C130.319 16.7175 122.577 25.6779 131.981 37.0018C143.737 51.1567 164.505 53.5078 169.207 40.9687C173.909 28.4295 153.141 13.931 139.035 15.6533Z" stroke="black" stroke-width="2" stroke-linejoin="round"/>
<path d="M139.034 15.6537C130.318 16.7178 122.576 25.6782 131.981 37.0021C143.736 51.1571 164.504 53.5082 169.206 40.969C173.909 28.4298 153.141 13.9314 139.034 15.6537Z" fill="#F9F9F9" stroke="black" stroke-width="2" stroke-linejoin="round"/>
<path d="M126.104 251C176.539 251 219.997 221.13 239.754 178.116C239.754 178.116 249.685 107.228 203.69 113.069C154.317 119.339 179.787 206.721 136.292 223.962C100.297 238.231 53.2195 214.166 57.5299 230.528C77.218 243.471 100.781 251 126.104 251Z" fill="#F9F9F9"/>
<path d="M38.3292 37.0018C15.3481 59.6689 1.10352 91.1709 1.10352 126C96.7148 170.279 150.398 78.5862 121.009 51.1567C97.4985 29.2132 114.609 8.57576 126.104 1C91.897 1 60.8996 14.7399 38.3292 37.0018Z" fill="#F9F9F9"/>
<path d="M126.104 251C176.539 251 219.997 221.13 239.754 178.116C239.754 178.116 249.685 107.228 203.69 113.069C154.317 119.339 179.787 206.721 136.292 223.962C100.297 238.231 53.2195 214.166 57.5299 230.528C77.218 243.471 100.781 251 126.104 251Z" stroke="black" stroke-width="2" stroke-linejoin="round"/>
<path d="M38.3292 37.0018C15.3481 59.6689 1.10352 91.1709 1.10352 126C96.7148 170.279 150.398 78.5862 121.009 51.1567C97.4985 29.2132 114.609 8.57576 126.104 1C91.897 1 60.8996 14.7399 38.3292 37.0018Z" stroke="black" stroke-width="2" stroke-linejoin="round"/>
</svg>
