<svg width="253" height="252" viewBox="0 0 253 252" fill="none" xmlns="http://www.w3.org/2000/svg">
<path fill-rule="evenodd" clip-rule="evenodd" d="M223.174 47.2382C240.637 68.7349 251.104 96.1452 251.104 126C251.104 144.601 247.041 162.252 239.754 178.116C219.997 221.13 176.539 251 126.104 251C100.781 251 77.218 243.471 57.5298 230.528C38.0043 217.693 22.2903 199.534 12.4527 178.116C5.16624 162.252 1.10352 144.601 1.10352 126C1.10352 91.1709 15.3481 59.6689 38.3292 37.0018C60.8996 14.7399 91.897 1 126.104 1C147.351 1 167.36 6.30129 184.881 15.6533C199.669 23.5466 212.683 34.3256 223.174 47.2382ZM126.104 80.9373C144.066 80.9373 158.627 66.376 158.627 48.4138C158.627 30.4516 144.066 15.8903 126.104 15.8903C108.141 15.8903 93.58 30.4516 93.58 48.4138C93.58 66.376 108.141 80.9373 126.104 80.9373ZM168.873 168.757C188.814 176.81 215.284 157.819 227.995 126.341C240.706 94.8634 234.844 62.8177 214.903 54.7652C194.961 46.7128 168.491 65.7029 155.78 97.1809C143.069 128.659 148.931 160.705 168.873 168.757ZM120.478 229.423C149.714 214.985 155.383 166.77 133.142 121.733C110.9 76.6951 69.1686 51.8894 39.9329 66.3276C10.6972 80.7658 5.0276 128.98 27.2696 174.018C49.5115 219.055 91.2424 243.861 120.478 229.423ZM173.125 231.408C186.327 231.408 197.028 220.706 197.028 207.505C197.028 194.304 186.327 183.602 173.125 183.602C159.924 183.602 149.223 194.304 149.223 207.505C149.223 220.706 159.924 231.408 173.125 231.408Z" fill="#F9F9F9" stroke="black" stroke-width="2" stroke-linejoin="round"/>
<path d="M197.028 207.504C197.028 220.706 186.327 231.407 173.125 231.407C159.924 231.407 149.223 220.706 149.223 207.504C149.223 194.303 159.924 183.602 173.125 183.602C186.327 183.602 197.028 194.303 197.028 207.504Z" fill="#F9F9F9" stroke="black" stroke-width="2" stroke-linejoin="round"/>
<path d="M133.142 121.733C155.384 166.77 149.714 214.985 120.479 229.423C91.2429 243.861 49.512 219.056 27.27 174.018C5.02804 128.981 10.6976 80.766 39.9333 66.3278C69.1691 51.8896 110.9 76.6953 133.142 121.733Z" fill="#F9F9F9" stroke="black" stroke-width="2" stroke-linejoin="round"/>
<path d="M227.995 126.342C215.284 157.82 188.814 176.81 168.873 168.757C148.931 160.705 143.069 128.659 155.78 97.1812C168.491 65.7032 194.961 46.7131 214.903 54.7655C234.844 62.818 240.706 94.8637 227.995 126.342Z" fill="#F9F9F9" stroke="black" stroke-width="2" stroke-linejoin="round"/>
<path d="M158.627 48.4141C158.627 66.3764 144.066 80.9376 126.104 80.9376C108.141 80.9376 93.5801 66.3764 93.5801 48.4141C93.5801 30.4519 108.141 15.8906 126.104 15.8906C144.066 15.8906 158.627 30.4519 158.627 48.4141Z" fill="#F9F9F9" stroke="black" stroke-width="2" stroke-linejoin="round"/>
</svg>
