<svg width="289" height="251" viewBox="0 0 289 251" fill="none" xmlns="http://www.w3.org/2000/svg">
<path d="M223.837 224C262.279 218.807 287.604 209.942 287.604 199.879C287.604 193.132 276.219 186.924 257.13 182C249.16 198.304 237.747 212.619 223.837 224Z" fill="black"/>
<path d="M32.0773 182C12.9879 186.924 1.60352 193.132 1.60352 199.879C1.60352 209.942 26.928 218.807 65.3698 224C51.4596 212.619 40.0467 198.304 32.0773 182Z" fill="black"/>
<path d="M223.837 224C262.279 218.807 287.604 209.942 287.604 199.879C287.604 193.132 276.219 186.924 257.13 182C249.16 198.304 237.747 212.619 223.837 224Z" stroke="black" stroke-width="2" stroke-linejoin="round"/>
<path d="M32.0773 182C12.9879 186.924 1.60352 193.132 1.60352 199.879C1.60352 209.942 26.928 218.807 65.3698 224C51.4596 212.619 40.0467 198.304 32.0773 182Z" stroke="black" stroke-width="2" stroke-linejoin="round"/>
<path d="M145.104 1C75.7918 1 19.6035 57.3065 19.6035 126.764C19.6035 146.538 24.1574 165.246 32.2715 181.892C40.2625 198.286 51.7065 212.68 65.6544 224.123C88.3969 227.204 115.718 229 145.104 229C174.489 229 201.81 227.204 224.553 224.123C238.501 212.68 249.945 198.286 257.936 181.892C266.05 165.246 270.604 146.538 270.604 126.764C270.604 57.3065 214.415 1 145.104 1Z" fill="#F9F9F9" stroke="black" stroke-width="2" stroke-linejoin="round"/>
<ellipse cx="86.5572" cy="67.8255" rx="20.5664" ry="29.6901" transform="rotate(40.9497 86.5572 67.8255)" fill="#F9F9F9" stroke="black" stroke-width="2" stroke-linejoin="round"/>
</svg>
