<svg width="253" height="254" viewBox="0 0 253 254" fill="none" xmlns="http://www.w3.org/2000/svg">
<circle cx="124.484" cy="126.749" r="122.958" fill="#F9F9F9" stroke="black" stroke-width="2" stroke-linejoin="round"/>
<path d="M249.638 108.474C252.684 138.4 250.414 151.806 229.24 120.237C242.054 176.88 235.954 188.548 179.676 159.339C220.615 209.431 211.385 218.654 151.069 219.56C190.457 233.966 178.778 240.056 145.168 245.795C153.679 248.401 140.222 250.657 126.254 250.657C112.286 250.657 98.8286 248.401 94.015 249.534C73.7394 240.093 62.0506 233.966 84.8702 252.149C41.1318 218.654 31.9113 209.431 88.2652 238.979C16.5627 188.548 10.463 176.88 91.1685 126.987C2.10305 151.806 -0.166618 138.4 21.1872 56.4662C-0.166618 110.513 2.10305 97.0604 14.8605 49.6974C10.463 72.0336 16.5627 60.3652 25.6603 45.4869C31.8924 39.4828 41.1318 30.2594 51.5912 22.6032C57.8662 18.1126 64.4134 14.0139 71.1954 10.3305C82.0047 5.9218 90.4025 3.10853 78.5529 6.79033C107.869 -0.705428 116.948 -1.70612 85.3336 11.841C140.184 -1.70612 153.66 0.512399 115.435 50.0184C178.796 8.905 190.457 14.9847 200.462 89.0076C211.385 30.2972 220.615 39.5205 242.016 88.8283C235.954 60.4029 242.016 72.0714 250.196 94.4076C248.305 90.8768 249.932 97.3625 250.868 102.611C251.35 106.652 251.161 109.494 249.638 108.474Z" fill="#F9F9F9" stroke="black" stroke-width="2" stroke-linejoin="round"/>
</svg>
