<svg width="263" height="263" viewBox="0 0 263 263" fill="none" xmlns="http://www.w3.org/2000/svg">
<path d="M56.6035 131C56.6035 89.8548 89.9583 56.5 131.104 56.5C172.249 56.5 205.604 89.8548 205.604 131C205.604 172.145 172.249 205.5 131.104 205.5C89.9583 205.5 56.6035 172.145 56.6035 131Z" fill="#F9F9F9" stroke="black" stroke-width="2" stroke-linejoin="round"/>
<path fill-rule="evenodd" clip-rule="evenodd" d="M95.0427 11.2798C94.428 12.2346 94.1033 13.2287 94.1033 14.2498C94.1033 21.5675 110.781 36.7498 131.353 36.7498C151.926 36.7498 168.603 21.5675 168.603 14.2498C168.603 13.2952 168.32 12.3643 167.78 11.467C207.386 23.6047 238.622 54.8863 250.696 94.5198C249.897 94.0963 249.072 93.8748 248.228 93.8748C240.911 93.8748 225.728 110.552 225.728 131.125C225.728 151.697 240.911 168.375 248.228 168.375C249.04 168.375 249.834 168.17 250.605 167.777C238.483 207.212 207.377 238.335 167.952 250.48C168.38 249.676 168.603 248.847 168.603 248C168.603 240.682 151.926 225.5 131.353 225.5C110.781 225.5 94.1033 240.682 94.1033 248C94.1033 248.912 94.3625 249.803 94.8563 250.663C55.0288 238.616 23.5999 207.228 11.4939 167.426C12.4531 168.047 13.4521 168.375 14.4783 168.375C21.796 168.375 36.9783 151.697 36.9783 131.125C36.9783 110.552 21.7961 93.8748 14.4783 93.8748C13.4183 93.8748 12.3874 94.2247 11.3994 94.8856C23.4544 54.8732 55.0227 23.3174 95.0427 11.2798ZM131.103 56.4998C89.9581 56.4998 56.6033 89.8546 56.6033 131C56.6033 172.145 89.9581 205.5 131.103 205.5C172.248 205.5 205.603 172.145 205.603 131C205.603 89.8546 172.248 56.4998 131.103 56.4998Z" fill="#F9F9F9"/>
<path d="M56.6033 131C56.6033 89.8546 89.9581 56.4998 131.103 56.4998M56.6033 131C56.6033 172.145 89.9581 205.5 131.103 205.5M56.6033 131H36.9781M131.103 56.4998C172.248 56.4998 205.603 89.8546 205.603 131M131.103 56.4998V36.749M131.103 205.5C172.248 205.5 205.603 172.145 205.603 131M131.103 205.5V225.501M205.603 131H225.728M94.1033 14.2498C94.1033 13.2287 94.428 12.2346 95.0427 11.2798C55.0227 23.3174 23.4544 54.8732 11.3994 94.8856C12.3874 94.2247 13.4183 93.8748 14.4783 93.8748C21.7961 93.8748 36.9783 110.552 36.9783 131.125C36.9783 151.697 21.796 168.375 14.4783 168.375C13.4521 168.375 12.4531 168.047 11.4939 167.426C23.5999 207.228 55.0288 238.616 94.8563 250.663C94.3625 249.803 94.1033 248.912 94.1033 248C94.1033 240.682 110.781 225.5 131.353 225.5C151.926 225.5 168.603 240.682 168.603 248C168.603 248.847 168.38 249.676 167.952 250.48C207.377 238.335 238.483 207.212 250.605 167.777C249.834 168.17 249.04 168.375 248.228 168.375C240.911 168.375 225.728 151.697 225.728 131.125C225.728 110.552 240.911 93.8748 248.228 93.8748C249.072 93.8748 249.897 94.0963 250.696 94.5198C238.622 54.8863 207.386 23.6047 167.78 11.467C168.32 12.3643 168.603 13.2952 168.603 14.2498C168.603 21.5675 151.926 36.7498 131.353 36.7498C110.781 36.7498 94.1033 21.5675 94.1033 14.2498Z" stroke="black" stroke-width="2"/>
<path d="M248.229 93.875C255.546 93.875 261.479 110.552 261.479 131.125C261.479 151.698 255.546 168.375 248.229 168.375C240.911 168.375 225.729 151.698 225.729 131.125C225.729 110.552 240.911 93.875 248.229 93.875Z" fill="#F9F9F9"/>
<path d="M14.4785 168.375C7.16074 168.375 1.22851 151.698 1.22852 131.125C1.22852 110.552 7.16075 93.875 14.4785 93.875C21.7963 93.875 36.9785 110.552 36.9785 131.125C36.9785 151.698 21.7963 168.375 14.4785 168.375Z" fill="#F9F9F9"/>
<path d="M168.604 248C168.604 255.318 151.926 261.25 131.354 261.25C110.781 261.25 94.1035 255.318 94.1035 248C94.1035 240.682 110.781 225.5 131.354 225.5C151.926 225.5 168.604 240.682 168.604 248Z" fill="#F9F9F9"/>
<path d="M94.1035 14.25C94.1035 6.93222 110.781 0.999996 131.354 1C151.926 1 168.604 6.93224 168.604 14.25C168.604 21.5678 151.926 36.75 131.354 36.75C110.781 36.75 94.1035 21.5678 94.1035 14.25Z" fill="#F9F9F9"/>
<path d="M248.229 93.875C255.546 93.875 261.479 110.552 261.479 131.125C261.479 151.698 255.546 168.375 248.229 168.375C240.911 168.375 225.729 151.698 225.729 131.125C225.729 110.552 240.911 93.875 248.229 93.875Z" stroke="black" stroke-width="2" stroke-linejoin="round"/>
<path d="M14.4785 168.375C7.16074 168.375 1.22851 151.698 1.22852 131.125C1.22852 110.552 7.16075 93.875 14.4785 93.875C21.7963 93.875 36.9785 110.552 36.9785 131.125C36.9785 151.698 21.7963 168.375 14.4785 168.375Z" stroke="black" stroke-width="2" stroke-linejoin="round"/>
<path d="M168.604 248C168.604 255.318 151.926 261.25 131.354 261.25C110.781 261.25 94.1035 255.318 94.1035 248C94.1035 240.682 110.781 225.5 131.354 225.5C151.926 225.5 168.604 240.682 168.604 248Z" stroke="black" stroke-width="2" stroke-linejoin="round"/>
<path d="M94.1035 14.25C94.1035 6.93222 110.781 0.999996 131.354 1C151.926 1 168.604 6.93224 168.604 14.25C168.604 21.5678 151.926 36.75 131.354 36.75C110.781 36.75 94.1035 21.5678 94.1035 14.25Z" stroke="black" stroke-width="2" stroke-linejoin="round"/>
<path d="M81.6035 131C81.6035 103.662 103.765 81.5 131.104 81.5C158.442 81.5 180.604 103.662 180.604 131C180.604 158.338 158.442 180.5 131.104 180.5C103.765 180.5 81.6035 158.338 81.6035 131Z" fill="#F9F9F9" stroke="black" stroke-width="2" stroke-linejoin="round"/>
<path d="M99.1035 131C99.1035 113.327 113.43 99 131.104 99C148.777 99 163.104 113.327 163.104 131C163.104 148.673 148.777 163 131.104 163C113.43 163 99.1035 148.673 99.1035 131Z" fill="#F9F9F9" stroke="black" stroke-width="2" stroke-linejoin="round"/>
</svg>
