<svg width="254" height="254" viewBox="0 0 254 254" fill="none" xmlns="http://www.w3.org/2000/svg">
<path fill-rule="evenodd" clip-rule="evenodd" d="M252.103 127C252.103 126.917 252.104 126.833 252.104 126.75C252.104 57.5763 196.027 1.5 126.854 1.5C57.6799 1.5 1.60352 57.5763 1.60352 126.75C1.60352 195.924 57.6799 252 126.854 252C126.937 252 127.02 252 127.103 252L113.447 195.655L79.2681 242.485L88.2136 185.203L38.7152 215.388L68.9006 165.89L11.6186 174.835L58.4485 140.656L2.10352 127L58.4485 113.344L11.6186 79.1646L68.9006 88.1101L38.7152 38.6116L88.2136 68.7971L79.2681 11.5151L113.447 58.345L127.104 2L140.76 58.345L174.939 11.5151L165.993 68.7971L215.492 38.6116L185.306 88.1101L242.588 79.1646L195.758 113.344L252.103 127ZM252.103 127L195.758 140.656L242.552 174.809C248.676 160.082 252.07 143.936 252.103 127ZM242.544 174.828L185.306 165.89L215.436 215.297C226.931 203.798 236.2 190.075 242.544 174.828ZM215.401 215.333L165.993 185.203L174.932 242.44C190.178 236.097 203.902 226.827 215.401 215.333ZM174.912 242.448L140.76 195.655L127.104 252C144.039 251.967 160.186 248.572 174.912 242.448Z" fill="#F9F9F9"/>
<path d="M252.103 127L251.868 127.972L253.101 128.271L253.103 127.002L252.103 127ZM127.103 252L127.105 253L128.374 252.997L128.075 251.764L127.103 252ZM113.447 195.655L114.419 195.419L113.911 193.323L112.639 195.065L113.447 195.655ZM79.2681 242.485L78.2801 242.331L80.0758 243.074L79.2681 242.485ZM88.2136 185.203L89.2016 185.357L89.5344 183.226L87.6929 184.349L88.2136 185.203ZM38.7152 215.388L37.8614 214.868L39.2358 216.242L38.7152 215.388ZM68.9006 165.89L69.7544 166.411L70.8774 164.569L68.7463 164.902L68.9006 165.89ZM11.6186 174.835L11.029 174.028L11.7729 175.823L11.6186 174.835ZM58.4485 140.656L59.0381 141.464L60.7803 140.193L58.6841 139.684L58.4485 140.656ZM2.10352 127L1.86797 126.028V127.972L2.10352 127ZM58.4485 113.344L58.6841 114.316L60.7803 113.807L59.0381 112.536L58.4485 113.344ZM11.6186 79.1646L11.7729 78.1765L11.029 79.9723L11.6186 79.1646ZM68.9006 88.1101L68.7463 89.0981L70.8774 89.4309L69.7544 87.5894L68.9006 88.1101ZM38.7152 38.6116L39.2358 37.7579L37.8614 39.1323L38.7152 38.6116ZM88.2136 68.7971L87.6929 69.6509L89.5344 70.7739L89.2016 68.6428L88.2136 68.7971ZM79.2681 11.5151L80.0758 10.9255L78.2801 11.6694L79.2681 11.5151ZM113.447 58.345L112.639 58.9346L113.911 60.6768L114.419 58.5806L113.447 58.345ZM127.104 2L128.075 1.76445H126.132L127.104 2ZM140.76 58.345L139.788 58.5806L140.296 60.6768L141.568 58.9346L140.76 58.345ZM174.939 11.5151L175.927 11.6694L174.131 10.9255L174.939 11.5151ZM165.993 68.7971L165.005 68.6428L164.673 70.7739L166.514 69.6509L165.993 68.7971ZM215.492 38.6116L216.346 39.1323L214.971 37.7579L215.492 38.6116ZM185.306 88.1101L184.453 87.5894L183.33 89.4309L185.461 89.0981L185.306 88.1101ZM242.588 79.1646L243.178 79.9723L242.434 78.1765L242.588 79.1646ZM195.758 113.344L195.169 112.536L193.427 113.807L195.523 114.316L195.758 113.344ZM252.103 127L253.103 127.002L253.106 125.728L251.868 126.028L252.103 127ZM195.758 140.656L195.523 139.684L193.427 140.193L195.169 141.464L195.758 140.656ZM242.552 174.809L241.962 175.616L242.988 176.365L243.475 175.193L242.552 174.809ZM242.544 174.828L243.467 175.213L243.956 174.037L242.698 173.84L242.544 174.828ZM185.306 165.89L185.461 164.902L183.33 164.569L184.453 166.411L185.306 165.89ZM215.436 215.297L214.583 215.818L215.245 216.904L216.144 216.004L215.436 215.297ZM215.401 215.333L216.108 216.04L217.007 215.141L215.922 214.479L215.401 215.333ZM165.993 185.203L166.514 184.349L164.673 183.226L165.005 185.357L165.993 185.203ZM174.932 242.44L173.944 242.594L174.14 243.853L175.316 243.363L174.932 242.44ZM174.912 242.448L175.296 243.372L176.468 242.884L175.72 241.859L174.912 242.448ZM140.76 195.655L141.568 195.065L140.296 193.323L139.788 195.419L140.76 195.655ZM127.104 252L126.132 251.764L125.832 253.002L127.106 253L127.104 252ZM251.104 126.75C251.104 126.833 251.103 126.915 251.103 126.998L253.103 127.002C253.103 126.918 253.104 126.834 253.104 126.75H251.104ZM126.854 2.5C195.475 2.5 251.104 58.1286 251.104 126.75H253.104C253.104 57.0241 196.579 0.5 126.854 0.5V2.5ZM2.60352 126.75C2.60352 58.1286 58.2321 2.5 126.854 2.5V0.5C57.1276 0.5 0.603516 57.0241 0.603516 126.75H2.60352ZM126.854 251C58.2321 251 2.60352 195.371 2.60352 126.75H0.603516C0.603516 196.476 57.1276 253 126.854 253V251ZM127.101 251C127.019 251 126.936 251 126.854 251V253C126.937 253 127.021 253 127.105 253L127.101 251ZM128.075 251.764L114.419 195.419L112.475 195.891L126.132 252.235L128.075 251.764ZM112.639 195.065L78.4603 241.895L80.0758 243.074L114.255 196.245L112.639 195.065ZM80.2561 242.639L89.2016 185.357L87.2256 185.049L78.2801 242.331L80.2561 242.639ZM87.6929 184.349L38.1945 214.535L39.2358 216.242L88.7343 186.057L87.6929 184.349ZM39.5689 215.909L69.7544 166.411L68.0469 165.369L37.8614 214.868L39.5689 215.909ZM68.7463 164.902L11.4643 173.847L11.7729 175.823L69.0549 166.878L68.7463 164.902ZM12.2081 175.643L59.0381 141.464L57.859 139.849L11.029 174.028L12.2081 175.643ZM58.6841 139.684L2.33907 126.028L1.86797 127.972L58.213 141.628L58.6841 139.684ZM2.33907 127.972L58.6841 114.316L58.213 112.372L1.86797 126.028L2.33907 127.972ZM59.0381 112.536L12.2081 78.3568L11.029 79.9723L57.859 114.151L59.0381 112.536ZM11.4643 80.1526L68.7463 89.0981L69.0549 87.1221L11.7729 78.1765L11.4643 80.1526ZM69.7544 87.5894L39.5689 38.091L37.8614 39.1323L68.0469 88.6307L69.7544 87.5894ZM38.1945 39.4654L87.6929 69.6509L88.7343 67.9434L39.2358 37.7579L38.1945 39.4654ZM89.2016 68.6428L80.2561 11.3608L78.2801 11.6694L87.2256 68.9514L89.2016 68.6428ZM78.4603 12.1046L112.639 58.9346L114.255 57.7555L80.0758 10.9255L78.4603 12.1046ZM114.419 58.5806L128.075 2.23555L126.132 1.76445L112.475 58.1095L114.419 58.5806ZM126.132 2.23555L139.788 58.5806L141.732 58.1095L128.075 1.76445L126.132 2.23555ZM141.568 58.9346L175.747 12.1046L174.131 10.9255L139.952 57.7555L141.568 58.9346ZM173.951 11.3608L165.005 68.6428L166.981 68.9514L175.927 11.6694L173.951 11.3608ZM166.514 69.6509L216.013 39.4654L214.971 37.7579L165.473 67.9434L166.514 69.6509ZM214.638 38.091L184.453 87.5894L186.16 88.6307L216.346 39.1323L214.638 38.091ZM185.461 89.0981L242.743 80.1526L242.434 78.1765L185.152 87.1221L185.461 89.0981ZM241.999 78.3568L195.169 112.536L196.348 114.151L243.178 79.9723L241.999 78.3568ZM195.523 114.316L251.868 127.972L252.339 126.028L195.994 112.372L195.523 114.316ZM251.868 126.028L195.523 139.684L195.994 141.628L252.339 127.972L251.868 126.028ZM195.169 141.464L241.962 175.616L243.141 174.001L196.348 139.849L195.169 141.464ZM251.103 126.998C251.07 143.8 247.703 159.817 241.629 174.425L243.475 175.193C249.649 160.347 253.07 144.071 253.103 127.002L251.103 126.998ZM242.698 173.84L185.461 164.902L185.152 166.878L242.389 175.816L242.698 173.84ZM184.453 166.411L214.583 215.818L216.29 214.777L186.16 165.369L184.453 166.411ZM241.62 174.444C235.328 189.568 226.133 203.182 214.729 214.59L216.144 216.004C227.729 204.414 237.073 190.582 243.467 175.213L241.62 174.444ZM215.922 214.479L166.514 184.349L165.473 186.057L214.88 216.187L215.922 214.479ZM165.005 185.357L173.944 242.594L175.92 242.286L166.981 185.049L165.005 185.357ZM214.694 214.626C203.286 226.029 189.672 235.225 174.548 241.517L175.316 243.363C190.685 236.969 204.518 227.626 216.108 216.04L214.694 214.626ZM175.72 241.859L141.568 195.065L139.952 196.245L174.105 243.038L175.72 241.859ZM139.788 195.419L126.132 251.764L128.075 252.235L141.732 195.891L139.788 195.419ZM174.528 241.525C159.921 247.6 143.904 250.967 127.102 251L127.106 253C144.175 252.966 160.451 249.545 175.296 243.372L174.528 241.525Z" fill="black"/>
<path d="M127.104 2L140.76 58.345L174.939 11.5151L165.993 68.7971L215.492 38.6116L185.306 88.1101L242.588 79.1646L195.758 113.344L252.104 127L195.758 140.656L242.588 174.835L185.306 165.89L215.492 215.388L165.993 185.203L174.939 242.485L140.76 195.655L127.104 252L113.447 195.655L79.2681 242.485L88.2136 185.203L38.7152 215.388L68.9006 165.89L11.6186 174.835L58.4485 140.656L2.10352 127L58.4485 113.344L11.6186 79.1646L68.9006 88.1101L38.7152 38.6116L88.2136 68.7971L79.2681 11.5151L113.447 58.345L127.104 2Z" fill="#F9F9F9" stroke="black" stroke-width="2" stroke-linejoin="round"/>
<circle cx="126.998" cy="127" r="69" fill="#F9F9F9" stroke="black" stroke-width="2" stroke-linejoin="round"/>
<circle cx="126.998" cy="127" r="48" fill="#F9F9F9" stroke="black" stroke-width="2" stroke-linejoin="round"/>
</svg>
