<svg width="253" height="252" viewBox="0 0 253 252" fill="none" xmlns="http://www.w3.org/2000/svg">
<path fill-rule="evenodd" clip-rule="evenodd" d="M1.10352 126C1.10352 195.036 57.0679 251 126.104 251C91.5857 251 63.6035 223.018 63.6035 188.5C63.6035 153.982 94.6035 133.5 126.104 126C157.604 118.5 188.604 98.0178 188.604 63.5C188.604 28.9822 160.621 1 126.104 1C57.0679 1 1.10352 56.9644 1.10352 126Z" fill="#F9F9F9"/>
<path d="M126.104 251C195.139 251 251.104 195.036 251.104 126C251.104 56.9644 195.139 1 126.104 1C160.621 1 188.604 28.9822 188.604 63.5C188.604 98.0178 157.604 118.5 126.104 126C94.6035 133.5 63.6035 153.982 63.6035 188.5C63.6035 223.018 91.5857 251 126.104 251Z" fill="#F9F9F9"/>
<path d="M126.104 251C195.139 251 251.104 195.036 251.104 126C251.104 56.9644 195.139 1 126.104 1M126.104 251C57.0679 251 1.10352 195.036 1.10352 126C1.10352 56.9644 57.0679 1 126.104 1M126.104 251C91.5857 251 63.6035 223.018 63.6035 188.5C63.6035 153.982 94.6035 133.5 126.104 126C157.604 118.5 188.604 98.0178 188.604 63.5C188.604 28.9822 160.621 1 126.104 1" stroke="black" stroke-width="2" stroke-linejoin="round"/>
<path d="M126.104 251C195.139 251 251.104 195.036 251.104 126C251.104 56.9644 195.139 1 126.104 1C160.621 1 188.604 28.9822 188.604 63.5C188.604 98.0178 157.604 118.5 126.104 126C94.6035 133.5 63.6035 153.982 63.6035 188.5C63.6035 223.018 91.5857 251 126.104 251Z" fill="#F9F9F9" stroke="black" stroke-width="2" stroke-linejoin="round"/>
<path d="M102.936 40.4809C115.628 27.7889 136.206 27.7889 148.898 40.4809C161.59 53.173 161.59 73.7508 148.898 86.4429C136.206 99.1349 115.628 99.1349 102.936 86.4429C90.244 73.7508 90.244 53.173 102.936 40.4809Z" fill="#F9F9F9"/>
<path d="M148.898 40.4809C136.206 27.7889 115.628 27.7889 102.936 40.4809C90.244 53.173 90.244 73.7508 102.936 86.4429M148.898 40.4809C161.59 53.173 161.59 73.7508 148.898 86.4429C136.206 99.1349 115.628 99.1349 102.936 86.4429M148.898 40.4809L102.936 86.4429" stroke="black" stroke-width="2" stroke-linejoin="round"/>
<path d="M102.936 165.481C115.628 152.789 136.206 152.789 148.898 165.481C161.59 178.173 161.59 198.751 148.898 211.443C136.206 224.135 115.628 224.135 102.936 211.443C90.244 198.751 90.244 178.173 102.936 165.481Z" fill="#F9F9F9"/>
<path d="M148.898 165.481C136.206 152.789 115.628 152.789 102.936 165.481C90.244 178.173 90.244 198.751 102.936 211.443M148.898 165.481C161.59 178.173 161.59 198.751 148.898 211.443C136.206 224.135 115.628 224.135 102.936 211.443M148.898 165.481L102.936 211.443" stroke="black" stroke-width="2" stroke-linejoin="round"/>
</svg>
