<svg width="253" height="253" viewBox="0 0 253 253" fill="none" xmlns="http://www.w3.org/2000/svg">
<path fill-rule="evenodd" clip-rule="evenodd" d="M126.354 1.02344C143.302 1.02344 159.463 4.39662 174.201 10.5083C189.479 16.8436 203.228 26.1215 214.742 37.6351C226.255 49.1486 235.533 62.8978 241.869 78.1755C247.98 92.9138 251.354 109.075 251.354 126.023C251.354 142.972 247.98 159.133 241.869 173.871C235.533 189.149 226.255 202.898 214.742 214.412C203.228 225.925 189.479 235.203 174.201 241.539C159.463 247.65 143.302 251.023 126.354 251.023C109.405 251.023 93.2439 247.65 78.5056 241.539C63.2278 235.203 49.4787 225.925 37.9652 214.412C26.4516 202.898 17.1737 189.149 10.8384 173.871C4.7267 159.133 1.35352 142.972 1.35352 126.023C1.35352 109.075 4.7267 92.9138 10.8384 78.1755C17.1737 62.8978 26.4516 49.1486 37.9652 37.6351C49.4787 26.1216 63.2278 16.8436 78.5056 10.5083C93.2439 4.39662 109.405 1.02344 126.354 1.02344ZM184.861 126.023C184.861 158.612 158.442 185.031 125.853 185.031C93.2642 185.031 66.8457 158.612 66.8457 126.023C66.8457 122.258 67.1983 118.576 67.8722 115.007C59.1578 109.408 53.3848 99.6282 53.3848 88.5003C53.3848 71.1118 67.4809 57.0156 84.8695 57.0156C95.0002 57.0156 104.013 61.8004 109.773 69.2333C114.885 67.7887 120.279 67.0156 125.853 67.0156C158.442 67.0156 184.861 93.4342 184.861 126.023Z" fill="#F9F9F9"/>
<path d="M174.201 10.5083C159.463 4.39662 143.302 1.02344 126.354 1.02344M174.201 10.5083C189.479 16.8436 203.228 26.1215 214.742 37.6351M174.201 10.5083L148.867 71.6719M126.354 1.02344C109.405 1.02344 93.2439 4.39662 78.5056 10.5083M126.354 1.02344L126.354 67.0177M214.742 37.6351C226.255 49.1486 235.533 62.8978 241.869 78.1755M214.742 37.6351L167.827 84.5496M241.869 78.1755C247.98 92.9138 251.354 109.075 251.354 126.023M241.869 78.1755L180.456 103.613M251.354 126.023C251.354 142.972 247.98 159.133 241.869 173.871M251.354 126.023L184.861 126.023M241.869 173.871C235.533 189.149 226.255 202.898 214.742 214.412M241.869 173.871L180.456 148.433M214.742 214.412C203.228 225.925 189.479 235.203 174.201 241.539M214.742 214.412L167.827 167.497M174.201 241.539C159.463 247.65 143.302 251.023 126.354 251.023M174.201 241.539L148.866 180.374M126.354 251.023C109.405 251.023 93.2439 247.65 78.5056 241.539M126.354 251.023L126.354 185.028M78.5056 241.539C63.2278 235.203 49.4787 225.925 37.9652 214.412M78.5056 241.539L103.694 180.729M37.9652 214.412C26.4516 202.898 17.1737 189.149 10.8384 173.871M37.9652 214.412L84.3797 167.997M10.8384 173.871C4.7267 159.133 1.35352 142.972 1.35352 126.023M10.8384 173.871L71.3969 148.787M1.35352 126.023C1.35352 109.075 4.7267 92.9138 10.8384 78.1755M1.35352 126.023L66.8457 126.023M10.8384 78.1755C17.1737 62.8978 26.4516 49.1486 37.9652 37.6351M10.8384 78.1755L54.3307 96.1906M37.9652 37.6351C49.4787 26.1216 63.2278 16.8436 78.5056 10.5083M37.9652 37.6351L64.6746 64.3445M78.5056 10.5083L99.1945 60.4557M184.861 126.023C184.861 158.612 158.442 185.031 125.853 185.031C93.2642 185.031 66.8457 158.612 66.8457 126.023M184.861 126.023C184.861 93.4342 158.442 67.0156 125.853 67.0156C120.279 67.0156 114.885 67.7887 109.773 69.2333C104.013 61.8004 95.0002 57.0156 84.8695 57.0156C67.4809 57.0156 53.3848 71.1118 53.3848 88.5003C53.3848 99.6282 59.1578 109.408 67.8722 115.007C67.1983 118.576 66.8457 122.258 66.8457 126.023" stroke="black" stroke-width="2" stroke-linejoin="round"/>
<path d="M84.8695 119.985C102.258 119.985 116.354 105.889 116.354 88.5003C116.354 81.2426 113.898 74.5583 109.773 69.2333C114.885 67.7886 120.279 67.0156 125.853 67.0156C158.442 67.0156 184.861 93.4342 184.861 126.023C184.861 158.612 158.442 185.031 125.853 185.031C93.2642 185.031 66.8457 158.612 66.8457 126.023C66.8457 122.258 67.1983 118.576 67.8721 115.007C72.775 118.158 78.6088 119.985 84.8695 119.985Z" fill="black" stroke="black" stroke-width="2" stroke-linejoin="round"/>
<circle cx="84.8695" cy="88.4994" r="31.4847" fill="#F9F9F9" stroke="black" stroke-width="2" stroke-linejoin="round"/>
</svg>
