<svg width="253" height="253" viewBox="0 0 253 253" fill="none" xmlns="http://www.w3.org/2000/svg">
<circle cx="126.104" cy="126.934" r="125" fill="#F9F9F9" stroke="black" stroke-width="2" stroke-linejoin="round"/>
<ellipse cx="176.088" cy="127" rx="62.9847" ry="74" fill="#F9F9F9" stroke="black" stroke-width="2" stroke-linejoin="round"/>
<path d="M214.112 127.001C214.112 149.775 198.343 168.237 178.892 168.237C159.44 168.237 143.672 149.775 143.672 127.001C143.672 126.015 143.701 125.038 143.759 124.07C138.71 118.432 136.63 109.62 139 100.775C142.472 87.8172 154.181 79.6959 165.152 82.6357C167.86 83.3613 170.27 84.6929 172.312 86.4821C174.444 86.0106 176.643 85.7639 178.892 85.7639C198.343 85.7639 214.112 104.226 214.112 127.001Z" fill="black"/>
<path d="M143.759 124.07C138.71 118.432 136.63 109.62 139 100.775C142.472 87.8172 154.181 79.6959 165.152 82.6357C167.86 83.3613 170.27 84.6929 172.312 86.4821M143.759 124.07C143.701 125.038 143.672 126.015 143.672 127.001C143.672 149.775 159.44 168.237 178.892 168.237C198.343 168.237 214.112 149.775 214.112 127.001C214.112 104.226 198.343 85.7639 178.892 85.7639C176.643 85.7639 174.444 86.0106 172.312 86.4821M143.759 124.07C146.107 126.692 149.096 128.627 152.579 129.561C163.55 132.5 175.259 124.379 178.731 111.421C181.346 101.661 178.543 91.9417 172.312 86.4821" stroke="black" stroke-width="2" stroke-linejoin="round"/>
<ellipse cx="158.866" cy="106.098" rx="20.5664" ry="24.2901" transform="rotate(15 158.866 106.098)" fill="#F9F9F9" stroke="black" stroke-width="2" stroke-linejoin="round"/>
</svg>
