<svg width="253" height="252" viewBox="0 0 253 252" fill="none" xmlns="http://www.w3.org/2000/svg">
<path fill-rule="evenodd" clip-rule="evenodd" d="M37.7152 214.388C86.5307 263.203 165.676 263.203 214.492 214.388C263.307 165.572 263.307 86.4267 214.492 37.6112C219.637 42.7568 208.593 62.8703 187.591 89.2011C187.72 89.3282 187.848 89.4558 187.977 89.5841C215.118 116.726 215.118 160.731 187.977 187.872C160.835 215.013 116.83 215.013 89.6888 187.872C89.5606 187.744 89.433 187.615 89.3059 187.486C62.9748 208.488 42.8609 219.534 37.7152 214.388Z" fill="#F9F9F9"/>
<path d="M37.7152 37.6112C-11.1004 86.4267 -11.1004 165.572 37.7152 214.388C42.8609 219.534 62.9748 208.488 89.3059 187.486C62.548 160.315 62.6757 116.597 89.6888 89.5841C116.702 62.5709 160.42 62.4433 187.591 89.2011C208.593 62.8703 219.637 42.7568 214.492 37.6112C165.676 -11.2044 86.5307 -11.2044 37.7152 37.6112Z" fill="#F9F9F9"/>
<path d="M214.492 37.6112C263.307 86.4267 263.307 165.572 214.492 214.388C165.676 263.203 86.5307 263.203 37.7152 214.388M214.492 37.6112C165.676 -11.2044 86.5307 -11.2044 37.7152 37.6112C-11.1004 86.4267 -11.1004 165.572 37.7152 214.388M214.492 37.6112C219.637 42.7568 208.593 62.8703 187.591 89.2011M37.7152 214.388C42.8609 219.534 62.9748 208.488 89.3059 187.486M89.3059 187.486C89.433 187.615 89.5606 187.744 89.6888 187.872C116.83 215.013 160.835 215.013 187.977 187.872C215.118 160.731 215.118 116.726 187.977 89.5841C187.848 89.4558 187.72 89.3282 187.591 89.2011M89.3059 187.486C62.548 160.315 62.6757 116.597 89.6888 89.5841C116.702 62.5709 160.42 62.4433 187.591 89.2011" stroke="black" stroke-width="2" stroke-linejoin="round"/>
<circle cx="138.833" cy="138.728" r="69.5" transform="rotate(-45 138.833 138.728)" fill="#F9F9F9" stroke="black" stroke-width="2" stroke-linejoin="round"/>
<path d="M37.7152 37.6112C-11.1004 86.4267 -11.1004 165.572 37.7152 214.388C42.8609 219.534 62.9748 208.488 89.3059 187.486C62.548 160.315 62.6757 116.597 89.6888 89.5841C116.702 62.5709 160.42 62.4433 187.591 89.2011C208.593 62.8703 219.637 42.7568 214.492 37.6112C165.676 -11.2044 86.5307 -11.2044 37.7152 37.6112Z" fill="#F9F9F9" stroke="black" stroke-width="2" stroke-linejoin="round"/>
<circle cx="138.832" cy="138.728" r="48.5" transform="rotate(-45 138.832 138.728)" fill="#F9F9F9" stroke="black" stroke-width="2" stroke-linejoin="round"/>
</svg>
