<svg width="253" height="252" viewBox="0 0 253 252" fill="none" xmlns="http://www.w3.org/2000/svg">
<circle cx="126.104" cy="126" r="125" fill="#F9F9F9" stroke="black" stroke-width="2" stroke-linejoin="round"/>
<path d="M151.574 50.6942C147.527 60.3782 150.966 72.6978 160.73 80.6221C170.493 88.5464 183.499 89.5735 192.474 83.8888C196.52 74.2048 193.082 61.8852 183.318 53.9609C173.554 46.0366 160.548 45.0095 151.574 50.6942Z" fill="#F9F9F9"/>
<path d="M89.0399 69.9326C85.0159 79.635 88.53 92.0157 98.3834 100.013C108.237 108.01 121.318 109.098 130.315 103.432C134.339 93.7293 130.825 81.3486 120.972 73.3516C111.118 65.3546 98.0369 64.2663 89.0399 69.9326Z" fill="#F9F9F9"/>
<path d="M143.255 115.313C139.208 124.997 142.647 137.316 152.411 145.241C162.175 153.165 175.181 154.192 184.155 148.508C188.202 138.823 184.763 126.504 174.999 118.58C165.236 110.655 152.229 109.628 143.255 115.313Z" fill="#F9F9F9"/>
<path d="M154.896 45.2718C163.385 35.2526 179.759 34.8352 191.47 44.3394C203.18 53.8436 205.792 69.6705 197.303 79.6897M154.896 45.2718L154.865 45.3086M154.896 45.2718C154.886 45.2841 154.875 45.2963 154.865 45.3086M197.303 79.6897L197.272 79.7264M197.303 79.6897C197.293 79.7019 197.282 79.7141 197.272 79.7264M151.574 50.6942C147.527 60.3782 150.966 72.6978 160.73 80.6221C170.493 88.5464 183.499 89.5735 192.474 83.8888M151.574 50.6942C160.548 45.0095 173.554 46.0366 183.318 53.9609C193.082 61.8852 196.52 74.2048 192.474 83.8888M151.574 50.6942C152.374 48.7776 153.469 46.9642 154.865 45.3086M192.474 83.8888C194.25 82.7638 195.868 81.3758 197.272 79.7264M197.272 79.7264L197.241 79.7631C197.251 79.7509 197.262 79.7386 197.272 79.7264ZM197.272 79.7264C205.723 69.7053 203.104 53.9055 191.407 44.4129C179.711 34.9202 163.362 35.3251 154.865 45.3086M154.865 45.3086L154.834 45.3453C154.844 45.333 154.854 45.3208 154.865 45.3086ZM92.3552 64.5046C100.844 54.4854 117.306 54.1386 129.123 63.7301C140.941 73.3215 143.64 89.219 135.152 99.2382M92.3552 64.5046L92.3242 64.5413M92.3552 64.5046C92.3449 64.5168 92.3345 64.5291 92.3242 64.5413M135.152 99.2382L135.12 99.2749M135.152 99.2382C135.141 99.2504 135.131 99.2627 135.12 99.2749M89.0399 69.9326C85.0159 79.635 88.53 92.0157 98.3834 100.013C108.237 108.01 121.318 109.098 130.315 103.432M89.0399 69.9326C98.0369 64.2663 111.118 65.3546 120.972 73.3516C130.825 81.3486 134.339 93.7293 130.315 103.432M89.0399 69.9326C89.8363 68.0123 90.9279 66.197 92.3242 64.5413M130.315 103.432C132.096 102.31 133.717 100.924 135.12 99.2749M135.12 99.2749L135.089 99.3116C135.1 99.2994 135.11 99.2871 135.12 99.2749ZM135.12 99.2749C143.571 89.2536 140.865 73.3832 129.061 63.8035C117.258 54.2238 100.822 54.558 92.3242 64.5413M92.3242 64.5413L92.293 64.578C92.3034 64.5658 92.3138 64.5536 92.3242 64.5413ZM146.577 109.891C155.066 99.8713 171.441 99.4539 183.151 108.958C194.861 118.462 197.473 134.289 188.985 144.308M146.577 109.891L146.546 109.927M146.577 109.891C146.567 109.903 146.557 109.915 146.546 109.927M188.985 144.308L188.953 144.345M188.985 144.308C188.974 144.321 188.964 144.333 188.953 144.345M143.255 115.313C139.208 124.997 142.647 137.316 152.411 145.241C162.175 153.165 175.181 154.192 184.155 148.508M143.255 115.313C152.229 109.628 165.236 110.655 174.999 118.58C184.763 126.504 188.202 138.823 184.155 148.508M143.255 115.313C144.056 113.396 145.15 111.583 146.546 109.927M184.155 148.508C185.931 147.382 187.55 145.994 188.953 144.345M188.953 144.345L188.922 144.382C188.933 144.37 188.943 144.357 188.953 144.345ZM188.953 144.345C197.405 134.324 194.785 118.524 183.089 109.032C171.393 99.5389 155.044 99.9438 146.546 109.927M146.546 109.927L146.515 109.964C146.525 109.952 146.536 109.939 146.546 109.927Z" stroke="black" stroke-width="2" stroke-linejoin="round"/>
</svg>
