<svg width="253" height="252" viewBox="0 0 253 252" fill="none" xmlns="http://www.w3.org/2000/svg">
<path fill-rule="evenodd" clip-rule="evenodd" d="M251.104 126C251.104 195.036 195.139 251 126.104 251C104.015 251 83.264 245.271 65.2566 235.217C63.9799 234.504 62.717 233.769 61.4684 233.014C25.2864 211.113 1.10352 171.381 1.10352 126C1.10352 80.6192 25.2865 40.8866 61.4687 18.9862C62.7173 18.2304 63.9801 17.4959 65.2568 16.7831C83.2642 6.72938 104.015 1 126.104 1C195.139 1 251.104 56.9644 251.104 126ZM78.8535 47.5C91.4869 47.5 103.294 51.6766 113.34 58.9246C132.389 72.6683 145.104 97.4554 145.104 125.75C145.104 154.174 132.272 179.058 113.078 192.763C103.089 199.896 91.3772 204 78.8535 204C68.7444 204 59.1642 201.326 50.5922 196.543C28.1388 184.017 12.6035 157.026 12.6035 125.75C12.6035 94.4865 28.1263 67.5052 50.565 54.9718C59.1439 50.18 68.7337 47.5 78.8535 47.5ZM123.604 125.75C123.604 147.465 114.814 166.604 101.457 177.869C93.4971 184.583 83.9148 188.5 73.6035 188.5C65.9692 188.5 58.7345 186.353 52.2619 182.513C35.3226 172.464 23.6035 150.825 23.6035 125.75C23.6035 100.713 35.2868 79.1016 52.1844 69.033C58.6767 65.1645 65.9387 63 73.6035 63C84.0121 63 93.6779 66.9915 101.682 73.8213C114.913 85.1112 123.604 104.157 123.604 125.75ZM66.6035 164C83.4482 164 97.1035 146.875 97.1035 125.75C97.1035 104.625 83.4482 87.5 66.6035 87.5C49.7588 87.5 36.1035 104.625 36.1035 125.75C36.1035 146.875 49.7588 164 66.6035 164Z" fill="#F9F9F9"/>
<path d="M97.1035 125.75C97.1035 146.875 83.4482 164 66.6035 164C49.7588 164 36.1035 146.875 36.1035 125.75C36.1035 104.625 49.7588 87.5 66.6035 87.5C83.4482 87.5 97.1035 104.625 97.1035 125.75Z" fill="#F9F9F9"/>
<path d="M188.353 234.253C173.793 242.659 150.043 231.173 125.853 206.802C121.593 202.509 117.318 197.817 113.078 192.763M188.353 17.7468C173.793 9.34055 150.043 20.827 125.853 45.1977C121.68 49.4019 117.494 53.9895 113.34 58.9246M61.4684 233.014C62.717 233.769 63.9799 234.504 65.2566 235.217M61.4684 233.014C62.0713 233.462 62.6995 233.876 63.3532 234.253C63.9713 234.61 64.606 234.931 65.2566 235.217M61.4684 233.014C25.2864 211.113 1.10352 171.381 1.10352 126C1.10352 80.6192 25.2865 40.8866 61.4687 18.9862M61.4684 233.014C53.0683 226.764 49.5811 213.703 50.5922 196.543M65.2566 235.217C83.264 245.271 104.015 251 126.104 251C195.139 251 251.104 195.036 251.104 126C251.104 56.9644 195.139 1 126.104 1C104.015 1 83.2642 6.72938 65.2568 16.7831M65.2568 16.7831C63.9801 17.4959 62.7173 18.2304 61.4687 18.9862M65.2568 16.7831C64.6063 17.0688 63.9716 17.3898 63.3535 17.7467C62.6998 18.1241 62.0716 18.5376 61.4687 18.9862M61.4687 18.9862C53.1478 25.1771 49.6476 38.051 50.565 54.9718M50.5922 196.543C28.1388 184.017 12.6035 157.026 12.6035 125.75C12.6035 94.4865 28.1263 67.5052 50.565 54.9718M50.5922 196.543C59.1642 201.326 68.7444 204 78.8535 204C91.3772 204 103.089 199.896 113.078 192.763M50.565 54.9718C59.1439 50.18 68.7338 47.5 78.8535 47.5C91.4869 47.5 103.294 51.6766 113.34 58.9246M113.078 192.763C132.272 179.058 145.104 154.174 145.104 125.75C145.104 97.4554 132.389 72.6683 113.34 58.9246M123.604 125.75C123.604 147.465 114.814 166.604 101.457 177.869C93.4971 184.583 83.9148 188.5 73.6035 188.5C65.9692 188.5 58.7345 186.353 52.2619 182.513C35.3226 172.464 23.6035 150.825 23.6035 125.75C23.6035 100.713 35.2868 79.1016 52.1844 69.033C58.6767 65.1645 65.9387 63 73.6035 63C84.0121 63 93.6779 66.9915 101.682 73.8213C114.913 85.1112 123.604 104.157 123.604 125.75ZM97.1035 125.75C97.1035 146.875 83.4482 164 66.6035 164C49.7588 164 36.1035 146.875 36.1035 125.75C36.1035 104.625 49.7588 87.5 66.6035 87.5C83.4482 87.5 97.1035 104.625 97.1035 125.75Z" stroke="black" stroke-width="2" stroke-linejoin="round"/>
<path fill-rule="evenodd" clip-rule="evenodd" d="M12.6035 125.75C12.6035 157.026 28.1388 184.017 50.5922 196.543C59.1642 201.326 68.7444 204 78.8535 204C91.3772 204 103.089 199.896 113.078 192.763C132.272 179.058 145.104 154.174 145.104 125.75C145.104 97.4554 132.389 72.6683 113.34 58.9246C103.294 51.6766 91.4869 47.5 78.8535 47.5C68.7337 47.5 59.1439 50.18 50.565 54.9718C28.1263 67.5052 12.6035 94.4865 12.6035 125.75ZM123.604 125.75C123.604 147.465 114.814 166.604 101.457 177.869C93.4971 184.583 83.9148 188.5 73.6035 188.5C65.9692 188.5 58.7345 186.353 52.2619 182.513C35.3226 172.464 23.6035 150.825 23.6035 125.75C23.6035 100.713 35.2868 79.1016 52.1844 69.033C58.6767 65.1645 65.9387 63 73.6035 63C84.0121 63 93.6779 66.9915 101.682 73.8213C114.913 85.1112 123.604 104.157 123.604 125.75Z" fill="#F9F9F9" stroke="black" stroke-width="2" stroke-linejoin="round"/>
</svg>
