<svg width="254" height="252" viewBox="0 0 254 252" fill="none" xmlns="http://www.w3.org/2000/svg">
<circle cx="127.104" cy="126" r="125" fill="#F9F9F9" stroke="black" stroke-width="2" stroke-linejoin="round"/>
<path d="M1.67008 130.441C1.74456 167.393 27.8175 212.205 59.9057 230.532C91.9939 248.858 117.946 233.758 117.872 196.805C117.797 159.853 91.7242 115.041 59.636 96.7144C27.5478 78.3883 1.5956 93.488 1.67008 130.441Z" fill="#F9F9F9"/>
<path d="M184.886 81.9527C152.909 100.472 101.064 100.472 69.0867 81.9527C37.1095 63.4336 37.1095 33.4083 69.0867 14.8893C101.064 -3.62976 152.909 -3.62976 184.886 14.8893C216.864 33.4083 216.864 63.4336 184.886 81.9527Z" fill="#F9F9F9"/>
<path d="M252.371 130.441C252.297 167.393 226.224 212.205 194.136 230.532C162.048 248.858 136.095 233.758 136.17 196.805C136.244 159.853 162.317 115.041 194.406 96.7144C226.494 78.3883 252.446 93.488 252.371 130.441Z" fill="#F9F9F9"/>
<path d="M1.67008 130.441C1.74456 167.393 27.8175 212.205 59.9057 230.532C91.9939 248.858 117.946 233.758 117.872 196.805C117.797 159.853 91.7242 115.041 59.636 96.7144C27.5478 78.3883 1.5956 93.488 1.67008 130.441Z" stroke="black" stroke-width="2" stroke-linejoin="round"/>
<path d="M184.886 81.9527C152.909 100.472 101.064 100.472 69.0867 81.9527C37.1095 63.4336 37.1095 33.4083 69.0867 14.8893C101.064 -3.62976 152.909 -3.62976 184.886 14.8893C216.864 33.4083 216.864 63.4336 184.886 81.9527Z" stroke="black" stroke-width="2" stroke-linejoin="round"/>
<path d="M252.371 130.441C252.297 167.393 226.224 212.205 194.136 230.532C162.048 248.858 136.095 233.758 136.17 196.805C136.244 159.853 162.317 115.041 194.406 96.7144C226.494 78.3883 252.446 93.488 252.371 130.441Z" stroke="black" stroke-width="2" stroke-linejoin="round"/>
<path d="M186.683 38.6054C192.649 42.0793 192.649 47.7115 186.683 51.1854C180.717 54.6593 171.045 54.6593 165.079 51.1854C159.113 47.7115 159.113 42.0793 165.079 38.6054C171.045 35.1315 180.717 35.1315 186.683 38.6054Z" fill="#F9F9F9"/>
<path d="M89.1831 38.6054C95.149 42.0793 95.149 47.7115 89.1831 51.1854C83.2173 54.6593 73.5447 54.6593 67.5789 51.1854C61.613 47.7115 61.613 42.0793 67.5789 38.6054C73.5447 35.1315 83.2173 35.1315 89.1831 38.6054Z" fill="#F9F9F9"/>
<path d="M137.683 10.1054C143.649 13.5793 143.649 19.2115 137.683 22.6854C131.717 26.1593 122.045 26.1593 116.079 22.6854C110.113 19.2115 110.113 13.5793 116.079 10.1054C122.045 6.63153 131.717 6.63153 137.683 10.1054Z" fill="#F9F9F9"/>
<path d="M137.683 66.6054C143.649 70.0793 143.649 75.7115 137.683 79.1854C131.717 82.6593 122.045 82.6593 116.079 79.1854C110.113 75.7115 110.113 70.0793 116.079 66.6054C122.045 63.1315 131.717 63.1315 137.683 66.6054Z" fill="#F9F9F9"/>
<path d="M186.683 38.6054C192.649 42.0793 192.649 47.7115 186.683 51.1854C180.717 54.6593 171.045 54.6593 165.079 51.1854C159.113 47.7115 159.113 42.0793 165.079 38.6054C171.045 35.1315 180.717 35.1315 186.683 38.6054Z" stroke="black" stroke-width="2" stroke-linejoin="round"/>
<path d="M89.1831 38.6054C95.149 42.0793 95.149 47.7115 89.1831 51.1854C83.2173 54.6593 73.5447 54.6593 67.5789 51.1854C61.613 47.7115 61.613 42.0793 67.5789 38.6054C73.5447 35.1315 83.2173 35.1315 89.1831 38.6054Z" stroke="black" stroke-width="2" stroke-linejoin="round"/>
<path d="M137.683 10.1054C143.649 13.5793 143.649 19.2115 137.683 22.6854C131.717 26.1593 122.045 26.1593 116.079 22.6854C110.113 19.2115 110.113 13.5793 116.079 10.1054C122.045 6.63153 131.717 6.63153 137.683 10.1054Z" stroke="black" stroke-width="2" stroke-linejoin="round"/>
<path d="M137.683 66.6054C143.649 70.0793 143.649 75.7115 137.683 79.1854C131.717 82.6593 122.045 82.6593 116.079 79.1854C110.113 75.7115 110.113 70.0793 116.079 66.6054C122.045 63.1315 131.717 63.1315 137.683 66.6054Z" stroke="black" stroke-width="2" stroke-linejoin="round"/>
<path d="M218.9 106.177C224.891 102.748 229.769 105.564 229.794 112.467C229.82 119.371 224.984 127.748 218.992 131.177C213.001 134.607 208.123 131.791 208.098 124.887C208.072 117.984 212.908 109.607 218.9 106.177Z" fill="#F9F9F9"/>
<path d="M169.9 191.177C175.891 187.748 180.769 190.564 180.794 197.467C180.82 204.371 175.984 212.748 169.992 216.177C164.001 219.607 159.123 216.791 159.098 209.887C159.072 202.984 163.908 194.607 169.9 191.177Z" fill="#F9F9F9"/>
<path d="M218.9 106.177C224.891 102.748 229.769 105.564 229.794 112.467C229.82 119.371 224.984 127.748 218.992 131.177C213.001 134.607 208.123 131.791 208.098 124.887C208.072 117.984 212.908 109.607 218.9 106.177Z" stroke="black" stroke-width="2" stroke-linejoin="round"/>
<path d="M169.9 191.177C175.891 187.748 180.769 190.564 180.794 197.467C180.82 204.371 175.984 212.748 169.992 216.177C164.001 219.607 159.123 216.791 159.098 209.887C159.072 202.984 163.908 194.607 169.9 191.177Z" stroke="black" stroke-width="2" stroke-linejoin="round"/>
<path d="M79.4675 191.602C73.4761 188.172 68.5984 190.988 68.5729 197.892C68.5473 204.795 73.3836 213.172 79.375 216.602C85.3664 220.031 90.244 217.215 90.2696 210.311C90.2951 203.408 85.4588 195.031 79.4675 191.602Z" fill="#F9F9F9"/>
<path d="M54.7175 148.733C48.7261 145.304 43.8484 148.12 43.8229 155.023C43.7973 161.927 48.6336 170.304 54.625 173.733C60.6164 177.163 65.494 174.347 65.5196 167.443C65.5451 160.54 60.7088 152.163 54.7175 148.733Z" fill="#F9F9F9"/>
<path d="M30.0412 105.993C24.0498 102.563 19.1721 105.379 19.1466 112.283C19.121 119.186 23.9573 127.563 29.9487 130.993C35.9401 134.422 40.8178 131.606 40.8433 124.703C40.8689 117.799 36.0326 109.423 30.0412 105.993Z" fill="#F9F9F9"/>
<path d="M79.4675 191.602C73.4761 188.172 68.5984 190.988 68.5729 197.892C68.5473 204.795 73.3836 213.172 79.375 216.602C85.3664 220.031 90.244 217.215 90.2696 210.311C90.2951 203.408 85.4588 195.031 79.4675 191.602Z" stroke="black" stroke-width="2" stroke-linejoin="round"/>
<path d="M54.7175 148.733C48.7261 145.304 43.8484 148.12 43.8229 155.023C43.7973 161.927 48.6336 170.304 54.625 173.733C60.6164 177.163 65.494 174.347 65.5196 167.443C65.5451 160.54 60.7088 152.163 54.7175 148.733Z" stroke="black" stroke-width="2" stroke-linejoin="round"/>
<path d="M30.0412 105.993C24.0498 102.563 19.1721 105.379 19.1466 112.283C19.121 119.186 23.9573 127.563 29.9487 130.993C35.9401 134.422 40.8178 131.606 40.8433 124.703C40.8689 117.799 36.0326 109.423 30.0412 105.993Z" stroke="black" stroke-width="2" stroke-linejoin="round"/>
</svg>
