<svg width="253" height="253" viewBox="0 0 253 253" fill="none" xmlns="http://www.w3.org/2000/svg">
<circle cx="126.104" cy="126.934" r="125" fill="#F9F9F9" stroke="black" stroke-width="2" stroke-linejoin="round"/>
<path d="M203.303 111.842C207.963 109.997 212.252 107.246 215.927 103.572C232.472 87.0267 230.29 58.021 211.055 38.7855C191.819 19.55 162.814 17.3687 146.269 33.9136C142.594 37.5881 139.844 41.8772 137.998 46.5373M203.303 111.842C186.98 118.306 166.104 113.663 151.141 98.6997C136.177 83.7362 131.534 62.8604 137.998 46.5373M203.303 111.842L179.576 121.703C166.747 126.64 150.436 122.948 138.722 111.233C127.007 99.5187 123.315 83.2082 128.252 70.3792L137.998 46.5373" stroke="black" stroke-width="2" stroke-linejoin="round"/>
<path d="M227.462 21.7922C244.468 38.7982 246.397 64.4419 231.769 79.0691C228.521 82.3177 224.729 84.7496 220.609 86.3812C206.178 92.096 187.722 87.991 174.492 74.7619C161.263 61.5328 157.158 43.0766 162.873 28.6456C164.505 24.5255 166.937 20.7336 170.185 17.485C184.812 2.85785 210.456 4.78625 227.462 21.7922Z" fill="#F9F9F9"/>
<path d="M220.609 86.3812C206.178 92.096 187.722 87.991 174.492 74.7619C161.263 61.5328 157.158 43.0766 162.873 28.6456L154.257 49.7239C149.892 61.066 153.156 75.486 163.513 85.8428C173.87 96.1996 188.29 99.4639 199.632 95.0987L220.609 86.3812Z" fill="#F9F9F9"/>
<path d="M220.609 86.3812C224.729 84.7497 228.521 82.3177 231.769 79.0691C246.397 64.4419 244.468 38.7982 227.462 21.7922C210.456 4.78625 184.812 2.85785 170.185 17.485C166.937 20.7336 164.505 24.5255 162.873 28.6456M220.609 86.3812C206.178 92.096 187.722 87.991 174.492 74.7619C161.263 61.5328 157.158 43.0766 162.873 28.6456M220.609 86.3812L199.632 95.0987C188.29 99.4639 173.87 96.1996 163.513 85.8428C153.156 75.486 149.892 61.066 154.257 49.7239L162.873 28.6456" stroke="black" stroke-width="2" stroke-linejoin="round"/>
<ellipse cx="185.983" cy="46.9222" rx="7.99859" ry="8.25" transform="rotate(-27.1103 185.983 46.9222)" fill="#F9F9F9" stroke="black" stroke-width="2" stroke-linejoin="round"/>
<ellipse cx="201.999" cy="21.8961" rx="4.6997" ry="4.85433" transform="rotate(-27.1103 201.999 21.8961)" fill="#F9F9F9" stroke="black" stroke-width="2" stroke-linejoin="round"/>
<ellipse cx="218.216" cy="51.256" rx="11.0645" ry="11.5495" transform="rotate(-27.1103 218.216 51.256)" fill="#F9F9F9" stroke="black" stroke-width="2" stroke-linejoin="round"/>
</svg>
