<svg width="253" height="252" viewBox="0 0 253 252" fill="none" xmlns="http://www.w3.org/2000/svg">
<circle cx="126.104" cy="126" r="125" fill="#F9F9F9" stroke="black" stroke-width="2" stroke-linejoin="round"/>
<circle cx="126.104" cy="126" r="67.5" fill="#F9F9F9" stroke="black" stroke-width="2" stroke-linejoin="round"/>
<circle cx="126.104" cy="126" r="61" fill="#F9F9F9" stroke="black" stroke-width="2" stroke-linejoin="round"/>
<path d="M28.0263 88.2015C25.6527 94.3825 23.8254 100.835 22.6035 107.5M36.8532 70.3249C51.2705 46.8342 74.3349 29.2421 101.604 22" stroke="black" stroke-width="2" stroke-linejoin="round"/>
<path d="M126.07 176.75L80.6035 98H171.536L126.07 176.75Z" fill="#F9F9F9" stroke="black" stroke-width="2" stroke-linejoin="round"/>
<path d="M125.604 107.5L125.665 107.891C127.134 117.182 134.421 124.47 143.712 125.938L144.104 126L143.712 126.062C134.421 127.53 127.134 134.818 125.665 144.109L125.604 144.5L125.542 144.109C124.073 134.818 116.786 127.53 107.495 126.062L107.104 126L107.495 125.938C116.786 124.47 124.073 117.182 125.542 107.891L125.604 107.5Z" fill="black" stroke="black" stroke-width="2" stroke-linejoin="round"/>
</svg>
