<svg width="253" height="251" viewBox="0 0 253 251" fill="none" xmlns="http://www.w3.org/2000/svg">
<path fill-rule="evenodd" clip-rule="evenodd" d="M126.104 250C195.139 250 251.104 194.036 251.104 125C251.104 141.845 195.139 155.5 126.104 155.5C57.0679 155.5 1.10352 141.845 1.10352 125C1.10352 194.036 57.0679 250 126.104 250Z" fill="#F9F9F9"/>
<path d="M251.104 125C251.104 194.036 195.139 250 126.104 250C57.0679 250 1.10352 194.036 1.10352 125M251.104 125C251.104 141.845 195.139 155.5 126.104 155.5C57.0679 155.5 1.10352 141.845 1.10352 125M251.104 125C251.104 108.155 195.139 94.5 126.104 94.5C57.0679 94.5 1.10352 108.155 1.10352 125M212.604 125C212.604 132.456 173.876 138.5 126.104 138.5C78.3309 138.5 39.6035 132.456 39.6035 125C39.6035 117.544 78.3309 111.5 126.104 111.5C173.876 111.5 212.604 117.544 212.604 125Z" stroke="black" stroke-width="2" stroke-linejoin="round"/>
<path d="M212.604 125C212.604 132.456 173.876 138.5 126.104 138.5C78.3309 138.5 39.6035 132.456 39.6035 125C39.6035 117.544 78.3309 111.5 126.104 111.5C173.876 111.5 212.604 117.544 212.604 125Z" fill="#F9F9F9" stroke="black" stroke-width="2" stroke-linejoin="round"/>
<path fill-rule="evenodd" clip-rule="evenodd" d="M126.104 155.5C195.139 155.5 251.104 141.845 251.104 125C251.104 108.155 195.139 94.5 126.104 94.5C57.0679 94.5 1.10352 108.155 1.10352 125C1.10352 141.845 57.0679 155.5 126.104 155.5ZM126.104 138.5C173.876 138.5 212.604 132.456 212.604 125C212.604 117.544 173.876 111.5 126.104 111.5C78.3309 111.5 39.6035 117.544 39.6035 125C39.6035 132.456 78.3309 138.5 126.104 138.5Z" fill="#F9F9F9" stroke="black" stroke-width="2" stroke-linejoin="round"/>
</svg>
