<svg width="253" height="251" viewBox="0 0 253 251" fill="none" xmlns="http://www.w3.org/2000/svg">
<path d="M251.994 124.75C251.994 193.786 196.03 249.75 126.994 249.75C57.9585 249.75 1.99414 193.786 1.99414 124.75C1.99414 115.428 19.133 107.083 46.1415 101.489C56.0095 66.127 88.0191 41 126.994 41C166.161 41 200.023 66.3747 210.303 102.011C235.89 107.596 251.994 115.714 251.994 124.75Z" fill="#F9F9F9"/>
<path d="M251.994 124.75C251.994 193.786 196.03 249.75 126.994 249.75C57.9585 249.75 1.99414 193.786 1.99414 124.75M251.994 124.75C251.994 141.595 196.03 155.25 126.994 155.25C57.9585 155.25 1.99414 141.595 1.99414 124.75M251.994 124.75C251.994 115.714 235.89 107.596 210.303 102.011M1.99414 124.75C1.99414 115.428 19.133 107.083 46.1415 101.489M46.1415 101.489C56.0095 66.127 88.0191 41 126.994 41C166.161 41 200.023 66.3747 210.303 102.011M46.1415 101.489C44.0888 108.844 42.9941 116.643 42.9941 124.75C42.9941 132.206 79.2215 138.25 126.994 138.25C174.767 138.25 213.494 132.206 213.494 124.75C213.494 116.834 212.38 109.213 210.303 102.011" stroke="black" stroke-width="2" stroke-linejoin="round"/>
<path d="M126.994 155.25C196.03 155.25 251.994 141.594 251.994 124.75C251.994 115.714 235.89 107.595 210.303 102.01C212.38 109.213 213.494 116.834 213.494 124.75C213.494 132.206 174.767 138.25 126.994 138.25C79.2215 138.25 42.9941 132.206 42.9941 124.75C42.9941 116.642 44.0888 108.844 46.1415 101.488C19.133 107.083 1.99414 115.428 1.99414 124.75C1.99414 141.594 57.9585 155.25 126.994 155.25Z" fill="#F9F9F9" stroke="black" stroke-width="2" stroke-linejoin="round"/>
<path d="M126.994 138.25C174.767 138.25 213.494 132.206 213.494 124.75C213.494 116.834 212.38 109.213 210.303 102.011C200.023 66.3747 166.161 41 126.994 41C88.0191 41 56.0095 66.127 46.1415 101.489C44.0888 108.844 42.9941 116.643 42.9941 124.75C42.9941 132.206 79.2215 138.25 126.994 138.25Z" fill="#F9F9F9" stroke="black" stroke-width="2" stroke-linejoin="round"/>
</svg>
