<svg width="253" height="252" viewBox="0 0 253 252" fill="none" xmlns="http://www.w3.org/2000/svg">
<path d="M251.104 126C251.104 195.036 195.139 251 126.104 251C57.0679 251 1.10352 195.036 1.10352 126M251.104 126C251.104 56.9644 195.139 1 126.104 1C57.0679 1 1.10352 56.9644 1.10352 126M251.104 126C251.104 142.845 195.139 156.5 126.104 156.5C57.0679 156.5 1.10352 142.845 1.10352 126M251.104 126C251.104 109.155 195.139 95.5 126.104 95.5C57.0679 95.5 1.10352 109.155 1.10352 126M212.604 126C212.604 133.456 173.876 139.5 126.104 139.5C78.3309 139.5 39.6035 133.456 39.6035 126C39.6035 118.544 78.3309 112.5 126.104 112.5C173.876 112.5 212.604 118.544 212.604 126Z" stroke="black" stroke-width="2" stroke-linejoin="round"/>
<path d="M212.604 126C212.604 133.456 173.876 139.5 126.104 139.5C78.3309 139.5 39.6035 133.456 39.6035 126C39.6035 118.544 78.3309 112.5 126.104 112.5C173.876 112.5 212.604 118.544 212.604 126Z" fill="#F9F9F9" stroke="black" stroke-width="2" stroke-linejoin="round"/>
<path fill-rule="evenodd" clip-rule="evenodd" d="M126.104 156.5C195.139 156.5 251.104 142.845 251.104 126C251.104 109.155 195.139 95.5 126.104 95.5C57.0679 95.5 1.10352 109.155 1.10352 126C1.10352 142.845 57.0679 156.5 126.104 156.5ZM126.104 139.5C173.876 139.5 212.604 133.456 212.604 126C212.604 118.544 173.876 112.5 126.104 112.5C78.3309 112.5 39.6035 118.544 39.6035 126C39.6035 133.456 78.3309 139.5 126.104 139.5Z" fill="#F9F9F9" stroke="black" stroke-width="2" stroke-linejoin="round"/>
<path fill-rule="evenodd" clip-rule="evenodd" d="M126.104 251C195.139 251 251.104 195.036 251.104 126C251.104 142.845 195.139 156.5 126.104 156.5C57.0679 156.5 1.10352 142.845 1.10352 126C1.10352 195.036 57.0679 251 126.104 251Z" fill="#F9F9F9" stroke="black" stroke-width="2" stroke-linejoin="round"/>
</svg>
