<svg width="253" height="252" viewBox="0 0 253 252" fill="none" xmlns="http://www.w3.org/2000/svg">
<path d="M251.104 126C251.104 195.036 195.139 251 126.104 251C57.0679 251 1.10352 195.036 1.10352 126M251.104 126C251.104 56.9644 195.139 1 126.104 1C57.0679 1 1.10352 56.9644 1.10352 126M251.104 126C251.104 142.845 195.139 156.5 126.104 156.5C57.0679 156.5 1.10352 142.845 1.10352 126M251.104 126C251.104 116.964 234.999 108.846 209.412 103.261M1.10352 126C1.10352 116.678 18.2424 108.333 45.2508 102.739M212.604 126C212.604 133.456 173.876 139.5 126.104 139.5C78.3309 139.5 42.1035 133.456 42.1035 126M212.604 126C212.604 118.544 173.876 112.5 126.104 112.5C78.3309 112.5 42.1035 118.544 42.1035 126M212.604 126C212.604 118.084 211.489 110.463 209.412 103.261M42.1035 126C42.1035 117.893 43.1982 110.094 45.2508 102.739M45.2508 102.739C55.1189 67.377 87.1285 42.25 126.104 42.25C165.27 42.25 199.133 67.6247 209.412 103.261" stroke="black" stroke-width="2" stroke-linejoin="round"/>
<path fill-rule="evenodd" clip-rule="evenodd" d="M126.104 139.5C173.876 139.5 212.604 133.456 212.604 126C212.604 118.544 173.876 112.5 126.104 112.5C78.3309 112.5 42.1035 118.544 42.1035 126C42.1035 133.456 78.3309 139.5 126.104 139.5Z" fill="#F9F9F9" stroke="black" stroke-width="2" stroke-linejoin="round"/>
<path d="M42.1035 126C42.1035 118.544 78.3309 112.5 126.104 112.5C173.876 112.5 212.604 118.544 212.604 126C212.604 118.084 211.489 110.463 209.412 103.261C199.133 67.6247 165.27 42.25 126.104 42.25C87.1285 42.25 55.1189 67.377 45.2508 102.739C43.1982 110.094 42.1035 117.893 42.1035 126Z" fill="#F9F9F9" stroke="black" stroke-width="2" stroke-linejoin="round"/>
<path d="M126.104 156.5C195.139 156.5 251.104 142.844 251.104 126C251.104 116.964 234.999 108.845 209.412 103.26C211.489 110.463 212.604 118.084 212.604 126C212.604 133.456 173.876 139.5 126.104 139.5C78.3309 139.5 42.1035 133.456 42.1035 126C42.1035 117.892 43.1982 110.094 45.2508 102.738C18.2424 108.333 1.10352 116.678 1.10352 126C1.10352 142.844 57.0679 156.5 126.104 156.5Z" fill="#F9F9F9" stroke="black" stroke-width="2" stroke-linejoin="round"/>
<path fill-rule="evenodd" clip-rule="evenodd" d="M126.104 251C195.139 251 251.104 195.036 251.104 126C251.104 142.845 195.139 156.5 126.104 156.5C57.0679 156.5 1.10352 142.845 1.10352 126C1.10352 195.036 57.0679 251 126.104 251Z" fill="#F9F9F9" stroke="black" stroke-width="2" stroke-linejoin="round"/>
</svg>
