<svg width="253" height="252" viewBox="0 0 253 252" fill="none" xmlns="http://www.w3.org/2000/svg">
<path d="M251.104 126C251.104 195.036 195.139 251 126.104 251C57.0679 251 1.10352 195.036 1.10352 126C1.10352 116.985 17.1312 108.884 42.6126 103.301C50.6214 73.7729 73.8764 50.5179 103.404 42.5091C108.988 17.0277 117.089 1 126.104 1C195.139 0.999997 251.104 56.9644 251.104 126Z" fill="#F9F9F9"/>
<path d="M1.10352 126C1.10352 195.036 57.0679 251 126.104 251C195.139 251 251.104 195.036 251.104 126C251.104 56.9644 195.139 0.999997 126.104 1M1.10352 126C1.10352 140.353 41.7363 152.391 96.4659 155.638C101.995 155.966 107.668 156.204 113.458 156.346C117.616 156.448 121.835 156.5 126.104 156.5C130.372 156.5 134.591 156.448 138.749 156.346C144.539 156.204 150.212 155.966 155.741 155.638M1.10352 126C1.10352 116.985 17.1312 108.884 42.6126 103.301M126.104 1C140.457 1 152.494 41.6328 155.741 96.3624C156.069 101.892 156.307 107.565 156.449 113.354C156.551 117.513 156.604 121.731 156.604 126C156.604 130.269 156.551 134.487 156.449 138.646C156.307 144.435 156.069 150.108 155.741 155.638M126.104 1C117.089 1 108.988 17.0277 103.404 42.5091M155.741 155.638L139.444 139.34M139.444 139.34C139.549 134.992 139.604 130.537 139.604 126C139.604 121.463 139.549 117.008 139.444 112.66C139.302 106.774 139.067 101.085 138.749 95.6542C136.831 62.8502 131.893 39.5 126.104 39.5C118.249 39.5 110.638 40.547 103.404 42.5091M139.444 139.34C135.096 139.445 130.64 139.5 126.104 139.5C121.567 139.5 117.111 139.445 112.763 139.34C106.878 139.198 101.188 138.963 95.7577 138.646C62.9537 136.728 39.6035 131.789 39.6035 126C39.6035 118.145 40.6505 110.535 42.6126 103.301M42.6126 103.301C50.6214 73.7729 73.8764 50.5179 103.404 42.5091" stroke="black" stroke-width="2" stroke-linejoin="round"/>
<path d="M138.749 95.6542C136.831 62.8502 131.893 39.5 126.104 39.5C118.249 39.5 110.638 40.547 103.404 42.5091C73.8764 50.5179 50.6214 73.7729 42.6126 103.301C40.6505 110.535 39.6035 118.145 39.6035 126C39.6035 131.789 62.9537 136.728 95.7577 138.646C101.188 138.963 106.878 139.198 112.763 139.34C117.111 139.445 121.567 139.5 126.104 139.5C130.64 139.5 135.096 139.445 139.444 139.34C139.549 134.992 139.604 130.537 139.604 126C139.604 121.463 139.549 117.008 139.444 112.66C139.302 106.774 139.067 101.085 138.749 95.6542Z" fill="#F9F9F9" stroke="black" stroke-width="2" stroke-linejoin="round"/>
<path d="M126.104 251C195.139 251 251.104 195.036 251.104 126C251.104 56.9644 195.139 0.999997 126.104 1C140.457 1 152.494 41.6328 155.741 96.3624C156.069 101.892 156.307 107.565 156.449 113.354C156.551 117.513 156.604 121.731 156.604 126C156.604 130.269 156.551 134.487 156.449 138.646C156.307 144.435 156.069 150.108 155.741 155.638C150.212 155.966 144.539 156.204 138.749 156.346C134.591 156.448 130.372 156.5 126.104 156.5C121.835 156.5 117.616 156.448 113.458 156.346C107.668 156.204 101.995 155.966 96.4659 155.638C41.7363 152.391 1.10352 140.353 1.10352 126C1.10352 195.036 57.0679 251 126.104 251Z" fill="#F9F9F9" stroke="black" stroke-width="2" stroke-linejoin="round"/>
</svg>
