<svg width="253" height="252" viewBox="0 0 253 252" fill="none" xmlns="http://www.w3.org/2000/svg">
<circle cx="126.104" cy="126" r="125" fill="#F9F9F9" stroke="black" stroke-width="2" stroke-linejoin="round"/>
<path d="M101.016 31.6875C115.687 19.4375 137.02 19.4375 151.691 31.6875C170.522 28.4142 188.998 39.0811 195.578 57.0254C213.522 63.606 224.189 82.0815 220.916 100.912C233.166 115.583 233.166 136.917 220.916 151.588C224.189 170.418 213.522 188.894 195.578 195.475C188.998 213.419 170.522 224.086 151.691 220.813C137.02 233.062 115.687 233.062 101.016 220.813C82.1851 224.086 63.7095 213.419 57.1289 195.475C39.1846 188.894 28.5177 170.418 31.791 151.588C19.541 136.917 19.541 115.583 31.791 100.912C28.5177 82.0815 39.1846 63.606 57.1289 57.0254C63.7095 39.0811 82.1851 28.4142 101.016 31.6875Z" fill="#F9F9F9"/>
<path d="M151.691 31.6875L101.016 220.813M151.691 31.6875C170.522 28.4142 188.998 39.0811 195.578 57.0254M151.691 31.6875C137.02 19.4375 115.687 19.4375 101.016 31.6875M195.578 57.0254L57.1289 195.475M195.578 57.0254C213.522 63.606 224.189 82.0815 220.916 100.912M220.916 100.912L31.791 151.588M220.916 100.912C233.166 115.583 233.166 136.917 220.916 151.588M220.916 151.588L31.791 100.912M220.916 151.588C224.189 170.418 213.522 188.894 195.578 195.475M195.578 195.475L57.1289 57.0254M195.578 195.475C188.998 213.419 170.522 224.086 151.691 220.813M151.691 220.813L101.016 31.6875M151.691 220.813C137.02 233.062 115.687 233.062 101.016 220.813M101.016 220.813C82.1851 224.086 63.7095 213.419 57.1289 195.475M57.1289 195.475C39.1846 188.894 28.5177 170.418 31.791 151.588M31.791 151.588C19.541 136.917 19.541 115.583 31.791 100.912M31.791 100.912C28.5177 82.0815 39.1846 63.606 57.1289 57.0254M57.1289 57.0254C63.7095 39.0811 82.1851 28.4142 101.016 31.6875" stroke="black" stroke-width="2" stroke-linejoin="round"/>
<circle cx="126.354" cy="126.25" r="81.75" fill="#F9F9F9" stroke="black" stroke-width="2" stroke-linejoin="round"/>
<rect x="120.104" y="70" width="12" height="33.5" rx="6" fill="#F9F9F9" stroke="black" stroke-width="2" stroke-linejoin="round"/>
</svg>
