<svg width="253" height="306" viewBox="0 0 253 306" fill="none" xmlns="http://www.w3.org/2000/svg">
<circle cx="126.104" cy="180" r="125" fill="#F9F9F9" stroke="black" stroke-width="2" stroke-linejoin="round"/>
<path d="M217.104 180.25C217.104 184.267 216.842 188.224 216.336 192.103C210.529 236.622 172.456 271 126.354 271C80.251 271 42.1779 236.622 36.3706 192.103C35.8646 188.224 35.6035 184.267 35.6035 180.25C35.6035 130.13 76.2337 89.5 126.354 89.5C176.473 89.5 217.104 130.13 217.104 180.25Z" fill="#F9F9F9"/>
<path d="M216.336 192.103C210.529 236.622 172.456 271 126.354 271C80.251 271 42.1779 236.622 36.3706 192.103M216.336 192.103C210.529 147.584 172.456 113.206 126.354 113.206C80.251 113.206 42.1779 147.584 36.3706 192.103M216.336 192.103C216.842 188.224 217.104 184.267 217.104 180.25C217.104 130.13 176.473 89.5 126.354 89.5C76.2337 89.5 35.6035 130.13 35.6035 180.25C35.6035 184.267 35.8646 188.224 36.3706 192.103" stroke="black" stroke-width="2" stroke-linejoin="round"/>
<path fill-rule="evenodd" clip-rule="evenodd" d="M216.337 192.103C210.53 236.622 172.457 271 126.354 271C80.2515 271 42.1784 236.622 36.3711 192.103C42.1784 147.584 80.2515 113.206 126.354 113.206C172.457 113.206 210.53 147.584 216.337 192.103Z" fill="#F9F9F9" stroke="black" stroke-width="2" stroke-linejoin="round"/>
<path d="M156.341 174.262C156.341 190.962 142.803 204.5 126.103 204.5C109.403 204.5 95.8652 190.962 95.8652 174.262L95.8652 145.838C95.8652 129.138 109.403 115.6 126.103 115.6C142.803 115.6 156.341 129.138 156.341 145.838L156.341 174.262Z" fill="#F9F9F9" stroke="black" stroke-width="2" stroke-linejoin="round"/>
<path d="M189.604 63.2878C189.604 32.3928 161.174 1.29974 126.104 1.29974C91.0334 1.29974 62.6035 32.3928 62.6035 63.2878C62.6035 65.8516 62.7993 68.3751 63.1784 70.8474C65.1388 83.632 72.0017 95.0462 82.0452 103.573C93.4637 113.267 108.993 119.228 126.104 119.228C143.214 119.228 158.743 113.267 170.162 103.573C180.205 95.0462 187.068 83.632 189.029 70.8474C189.408 68.3751 189.604 65.8516 189.604 63.2878Z" fill="#F9F9F9"/>
<path d="M63.1784 70.8474C62.7993 68.3751 62.6035 65.8516 62.6035 63.2878C62.6035 32.3928 91.0334 1.29974 126.104 1.29974C161.174 1.29974 189.604 32.3928 189.604 63.2878C189.604 65.8516 189.408 68.3751 189.029 70.8474M63.1784 70.8474L71.6749 134.65C75.0011 164.585 96.0434 187.566 126.104 187.566C156.164 187.566 175.694 163.981 180.834 134.65L189.029 70.8474M63.1784 70.8474C65.1388 83.6321 72.0017 95.0462 82.0452 103.573C93.4637 113.267 108.993 119.228 126.104 119.228C143.214 119.228 158.743 113.267 170.162 103.573C180.205 95.0462 187.068 83.632 189.029 70.8474" stroke="black" stroke-width="2" stroke-linejoin="round"/>
<path d="M126.103 187.566C156.163 187.566 175.693 163.981 180.834 134.65L189.028 70.8474C187.068 83.632 180.205 95.0462 170.161 103.573C158.743 113.267 143.213 119.228 126.103 119.228C108.993 119.228 93.4631 113.267 82.0445 103.573C72.0011 95.0462 65.1382 83.632 63.1777 70.8474L71.6743 134.65C75.0005 164.585 96.0428 187.566 126.103 187.566Z" fill="#F9F9F9" stroke="black" stroke-width="2" stroke-linejoin="round"/>
</svg>
