<svg width="253" height="252" viewBox="0 0 253 252" fill="none" xmlns="http://www.w3.org/2000/svg">
<circle cx="126.104" cy="126" r="125" fill="#F9F9F9" stroke="black" stroke-width="2" stroke-linejoin="round"/>
<path d="M32.6035 126C32.6035 74.3614 74.4649 32.5 126.104 32.5C177.742 32.5 219.604 74.3614 219.604 126C219.604 177.639 177.742 219.5 126.104 219.5C74.4649 219.5 32.6035 177.639 32.6035 126Z" fill="#F9F9F9"/>
<path d="M32.6035 126C32.6035 74.3614 74.4649 32.5 126.104 32.5C177.742 32.5 219.604 74.3614 219.604 126M32.6035 126C32.6035 177.639 74.4649 219.5 126.104 219.5C177.742 219.5 219.604 177.639 219.604 126M32.6035 126C32.6035 84.3025 74.4651 50.5 126.104 50.5C177.742 50.5 219.604 84.3025 219.604 126" stroke="black" stroke-width="2" stroke-linejoin="round"/>
<rect x="120.104" y="70" width="12" height="33.5" rx="6" fill="#F9F9F9" stroke="black" stroke-width="2" stroke-linejoin="round"/>
</svg>
