<svg width="253" height="252" viewBox="0 0 253 252" fill="none" xmlns="http://www.w3.org/2000/svg">
<path d="M251.104 149.75C251.104 205.669 195.139 251 126.104 251C57.0679 251 1.10352 205.669 1.10352 149.75V102.25C1.10352 46.3312 57.0679 1 126.104 1C195.139 1 251.104 46.3312 251.104 102.25V149.75Z" fill="#F9F9F9"/>
<path d="M251.104 102.25C251.104 158.169 195.139 203.5 126.104 203.5C57.0679 203.5 1.10352 158.169 1.10352 102.25M251.104 102.25C251.104 46.3312 195.139 1 126.104 1C57.0679 1 1.10352 46.3312 1.10352 102.25M251.104 102.25V149.75C251.104 205.669 195.139 251 126.104 251C57.0679 251 1.10352 205.669 1.10352 149.75V102.25" stroke="black" stroke-width="2" stroke-linecap="round" stroke-linejoin="round"/>
<path d="M251.104 102.25C251.104 158.169 195.139 203.5 126.104 203.5C57.0679 203.5 1.10352 158.169 1.10352 102.25C1.10352 46.3312 57.0679 1 126.104 1C195.139 1 251.104 46.3312 251.104 102.25Z" fill="#F9F9F9" stroke="black" stroke-width="2" stroke-linejoin="round"/>
</svg>
