<svg width="253" height="252" viewBox="0 0 253 252" fill="none" xmlns="http://www.w3.org/2000/svg">
<path d="M238.42 169.75L240.033 168.68C247.851 163.496 251.528 155.928 251.064 148.502V103.5C250.652 110.094 246.975 116.577 240.033 121.181L233.448 125.548L236.455 131.997C237.777 134.831 238.405 137.719 238.42 140.548C238.42 140.616 238.42 140.683 238.42 140.751V169.75Z" fill="#F9F9F9"/>
<path d="M12.1739 168.681L13.7958 169.756L13.7872 140.762C13.787 140.727 13.7869 140.692 13.7869 140.657C13.7869 140.621 13.787 140.584 13.7872 140.548C13.8018 137.719 14.4304 134.831 15.7521 131.997L18.7595 125.548L12.1739 121.181C5.23131 116.576 1.55416 110.093 1.14245 103.498L1.14245 148.502C0.678828 155.928 4.35598 163.496 12.1739 168.681Z" fill="#F9F9F9"/>
<path d="M39.1231 212.286L47.5222 213.401V165.901L39.1231 164.786C24.082 162.789 13.8536 152.28 13.7872 140.762L13.7958 169.756L13.8011 187.406C13.3505 199.254 23.7099 210.24 39.1231 212.286Z" fill="#F9F9F9"/>
<path d="M89.3786 239.135L97.3408 236.699V189.199L89.3786 191.635C71.5326 197.095 51.9843 187.953 48.8988 172.704L47.5222 165.901V213.401L48.8988 220.204C51.9843 235.453 71.5326 244.595 89.3786 239.135Z" fill="#F9F9F9"/>
<path d="M149.475 242.033L154.866 236.699V189.199L149.475 194.533C137.39 206.489 114.817 206.489 102.733 194.533L97.3408 189.199V236.699L102.733 242.033C114.817 253.989 137.39 253.989 149.475 242.033Z" fill="#F9F9F9"/>
<path d="M203.308 220.204L204.685 213.401V165.901L203.308 172.704C200.223 187.953 180.674 197.095 162.828 191.635L154.866 189.199V236.699L162.828 239.135C180.674 244.595 200.223 235.453 203.308 220.204Z" fill="#F9F9F9"/>
<path d="M204.685 213.401L213.084 212.286C228.13 210.288 238.361 199.772 238.42 188.25V169.75V140.751C238.36 152.272 228.13 162.788 213.084 164.786L204.685 165.901V213.401Z" fill="#F9F9F9"/>
<path fill-rule="evenodd" clip-rule="evenodd" d="M238.42 140.548C238.42 140.616 238.42 140.683 238.42 140.751V140.548ZM13.7872 140.762C13.787 140.727 13.7869 140.692 13.7869 140.657C13.7869 140.621 13.787 140.584 13.7872 140.548L13.7872 140.762Z" fill="#F9F9F9"/>
<path d="M204.685 213.401L213.084 212.286C228.13 210.288 238.361 199.772 238.42 188.25V169.75M204.685 213.401L203.308 220.204C200.223 235.453 180.674 244.595 162.828 239.135L154.866 236.699M204.685 213.401V165.901M154.866 236.699L149.475 242.033C137.39 253.989 114.817 253.989 102.733 242.033L97.3408 236.699M154.866 236.699V189.199M97.3408 236.699L89.3786 239.135C71.5326 244.595 51.9843 235.453 48.8988 220.204L47.5222 213.401M97.3408 236.699V189.199M47.5222 213.401L39.1231 212.286C23.7099 210.24 13.3505 199.254 13.8011 187.406L13.7958 169.756M47.5222 213.401V165.901M204.685 165.901L213.084 164.786C228.13 162.788 238.36 152.272 238.42 140.751M204.685 165.901L203.308 172.704C200.223 187.953 180.674 197.095 162.828 191.635L154.866 189.199M154.866 189.199L149.475 194.533C137.39 206.489 114.817 206.489 102.733 194.533L97.3408 189.199M97.3408 189.199L89.3786 191.635C71.5326 197.095 51.9843 187.953 48.8988 172.704L47.5222 165.901M47.5222 165.901L39.1231 164.786C24.082 162.789 13.8536 152.28 13.7872 140.762M251.064 103.5C251.529 96.073 247.852 88.5045 240.033 83.3195L233.448 78.9522L236.455 72.5028C243.196 58.0476 231.909 42.2134 213.084 39.7142L204.685 38.5992L203.308 31.7959C200.223 16.5473 180.674 7.40546 162.828 12.8653L154.866 15.3013L149.475 9.96701C137.39 -1.98901 114.817 -1.989 102.733 9.96703L97.3408 15.3013L89.3786 12.8653C71.5326 7.40545 51.9843 16.5473 48.8988 31.7959L47.5222 38.5992L39.1231 39.7142C20.2977 42.2134 9.01149 58.0476 15.7521 72.5028L18.7595 78.9522L12.1739 83.3195C4.35598 88.5041 0.678829 96.0718 1.14245 103.498M251.064 103.5C250.652 110.094 246.975 116.577 240.033 121.181L233.448 125.548L236.455 131.997C237.777 134.831 238.405 137.719 238.42 140.548M251.064 103.5V148.502C251.528 155.928 247.851 163.496 240.033 168.68L238.42 169.75M238.42 140.548C238.42 140.616 238.42 140.683 238.42 140.751M238.42 140.548V140.751M13.7872 140.548C13.8018 137.719 14.4304 134.831 15.7521 131.997L18.7595 125.548L12.1739 121.181C5.23131 116.576 1.55416 110.093 1.14245 103.498M13.7872 140.548C13.787 140.584 13.7869 140.621 13.7869 140.657M13.7872 140.548L13.7872 140.762M13.7872 140.548L13.7869 140.657M1.14245 103.432L1.14245 103.498M238.42 169.75V140.751M13.7958 169.756L12.1739 168.681C4.35598 163.496 0.678828 155.928 1.14245 148.502L1.14245 103.498M13.7958 169.756L13.7872 140.762M13.7872 140.762C13.787 140.727 13.7869 140.692 13.7869 140.657M13.7872 140.762L13.7869 140.657" stroke="black" stroke-width="2" stroke-linejoin="round"/>
<path d="M154.866 15.3013L149.475 9.96702C137.39 -1.98901 114.817 -1.989 102.733 9.96703L97.3408 15.3013L89.3786 12.8653C71.5326 7.40545 51.9843 16.5473 48.8988 31.7959L47.5222 38.5992L39.1231 39.7142C20.2977 42.2134 9.01149 58.0476 15.7521 72.5028L18.7595 78.9522L12.1739 83.3195C4.35598 88.5041 0.678829 96.0718 1.14245 103.498C1.55416 110.093 5.23131 116.576 12.1739 121.181L18.7595 125.548L15.7521 131.997C14.4304 134.831 13.8018 137.719 13.7872 140.548L13.7872 140.762C13.8536 152.28 24.082 162.789 39.1231 164.786L47.5222 165.901L48.8988 172.704C51.9843 187.953 71.5326 197.095 89.3786 191.635L97.3408 189.199L102.733 194.533C114.817 206.489 137.39 206.489 149.475 194.533L154.866 189.199L162.828 191.635C180.674 197.095 200.223 187.953 203.308 172.704L204.685 165.901L213.084 164.786C228.13 162.788 238.36 152.272 238.42 140.751V140.548C238.405 137.719 237.777 134.831 236.455 131.997L233.448 125.548L240.033 121.181C246.975 116.577 250.652 110.094 251.064 103.5C251.529 96.073 247.852 88.5045 240.033 83.3195L233.448 78.9522L236.455 72.5028C243.196 58.0476 231.909 42.2134 213.084 39.7142L204.685 38.5992L203.308 31.7959C200.223 16.5473 180.674 7.40546 162.828 12.8653L154.866 15.3013Z" fill="#F9F9F9" stroke="black" stroke-width="2" stroke-linejoin="round"/>
</svg>
