<svg width="253" height="252" viewBox="0 0 253 252" fill="none" xmlns="http://www.w3.org/2000/svg">
<path d="M251.104 102.5L195.856 125.961L211.435 166.346L251.104 149.5V102.5Z" fill="#F9F9F9"/>
<path d="M154.996 206.139L214.492 221.271V174.271L154.996 159.139V206.139Z" fill="#F9F9F9"/>
<path d="M126.104 251L154.996 206.139V159.139L126.104 204V251Z" fill="#F9F9F9"/>
<path d="M97.2109 206.139L126.104 251V204L97.2109 159.139V206.139Z" fill="#F9F9F9"/>
<path d="M37.7152 221.271L97.2109 206.139V159.139L37.7152 174.271V221.271Z" fill="#F9F9F9"/>
<path d="M56.3506 125.961L1.10352 102.5V149.5L40.7725 166.346L56.3144 126.055L56.3506 125.961Z" fill="#F9F9F9"/>
<path d="M154.996 206.139L214.492 221.271V174.271M154.996 206.139L126.104 251M154.996 206.139V159.139M126.104 251L97.2109 206.139M126.104 251V204M97.2109 206.139L37.7152 221.271V174.271M97.2109 206.139V159.139M56.3506 126.039L56.3144 126.055M251.104 102.5L195.856 79.0392L214.492 30.7287L154.996 45.8606L126.104 1L97.2109 45.8606L37.7152 30.7287L56.3506 79.0392L1.10352 102.5M251.104 102.5L195.856 125.961L211.435 166.346M251.104 102.5V149.5L211.435 166.346M214.492 174.271L154.996 159.139M214.492 174.271L211.435 166.346M154.996 159.139L126.104 204M126.104 204L97.2109 159.139M97.2109 159.139L37.7152 174.271M37.7152 174.271L40.7725 166.346M1.10352 102.5L56.3506 125.961L56.3144 126.055M1.10352 102.5V149.5L40.7725 166.346M40.7725 166.346L56.3144 126.055" stroke="black" stroke-width="2" stroke-linejoin="round"/>
<path d="M154.996 45.8606L126.104 1L97.2109 45.8606L37.7152 30.7287L56.3506 79.0392L1.10352 102.5L56.3506 125.961L56.3144 126.055L40.7725 166.346L37.7152 174.271L97.2109 159.139L126.104 204L154.996 159.139L214.492 174.271L211.435 166.346L195.856 125.961L251.104 102.5L195.856 79.0392L214.492 30.7287L154.996 45.8606Z" fill="#F9F9F9" stroke="black" stroke-width="2" stroke-linejoin="round"/>
</svg>
