<svg width="253" height="252" viewBox="0 0 253 252" fill="none" xmlns="http://www.w3.org/2000/svg">
<path d="M24.9911 205.902L32.1725 208.449V159.449L24.9911 156.902C19.8728 155.086 16.4598 151.229 15.8715 146.89L15.8413 186.361L15.8358 193.499L15.8342 195.578C16.2979 200.044 19.7507 204.043 24.9911 205.902Z" fill="#F9F9F9"/>
<path d="M15.8715 144.202L16.7185 137.928L10.6019 133.973C7.34619 131.869 5.37574 128.862 4.93178 125.677L4.92621 129.46L4.90736 142.263L4.88314 158.71L4.86275 172.56L4.86063 174C5.10383 177.433 7.11627 180.72 10.6019 182.973L15.8413 186.361L15.8715 146.89C15.7522 146.009 15.7491 145.109 15.8715 144.202Z" fill="#F9F9F9"/>
<path d="M5.88118 119.809L8.71891 113.925L4.08379 108.832C2.09827 106.651 1.10484 104.078 1.10352 101.505L1.11601 150C0.979033 152.74 1.96829 155.508 4.08379 157.832L4.88314 158.71L4.90736 142.263L4.92621 129.46C4.67715 128.195 4.68419 126.918 4.93178 125.677C4.66065 123.732 4.95879 121.721 5.88118 119.809Z" fill="#F9F9F9"/>
<path d="M46.2711 225.055L54.0277 226.021V177.021L46.2711 176.055C39.6214 175.226 34.4041 171.032 33.374 165.685L32.1725 159.449V208.449L33.374 214.685C34.4041 220.032 39.6214 224.226 46.2711 225.055Z" fill="#F9F9F9"/>
<path d="M72.9915 239.127L80.7948 238.446V189.446L72.9915 190.127C66.3017 190.71 59.9119 187.744 57.1958 182.794L54.0277 177.021V226.021L57.1958 231.794C59.9119 236.744 66.3017 239.71 72.9915 239.127Z" fill="#F9F9F9"/>
<path d="M103.331 247.159L110.65 244.877V195.877L103.331 198.159C97.0575 200.115 89.9306 198.579 85.7136 194.363L80.7948 189.446V238.446L85.7136 243.363C89.9306 247.579 97.0575 249.115 103.331 247.159Z" fill="#F9F9F9"/>
<path d="M135.223 248.604L141.557 244.877V195.877L135.223 199.604C129.793 202.799 122.414 202.799 116.984 199.604L110.65 195.877V244.877L116.984 248.604C122.414 251.799 129.793 251.799 135.223 248.604Z" fill="#F9F9F9"/>
<path d="M166.493 243.363L171.412 238.446V189.446L166.493 194.363C162.277 198.579 155.15 200.115 148.876 198.159L141.557 195.877V244.877L148.876 247.159C155.15 249.115 162.277 247.579 166.493 243.363Z" fill="#F9F9F9"/>
<path d="M195.011 231.794L198.179 226.021V177.021L195.011 182.794C192.295 187.744 185.905 190.71 179.216 190.127L171.412 189.446V238.446L179.216 239.127C185.905 239.71 192.295 236.744 195.011 231.794Z" fill="#F9F9F9"/>
<path d="M218.833 214.685L220.035 208.449V159.449L218.833 165.685C217.803 171.032 212.586 175.226 205.936 176.055L198.179 177.021V226.021L205.936 225.055C212.586 224.226 217.803 220.032 218.833 214.685Z" fill="#F9F9F9"/>
<path d="M235.489 186.928L236.253 186.434L236.336 146.89C235.747 151.229 232.334 155.086 227.216 156.902L220.035 159.449V208.449L227.216 205.902C233.372 203.718 237.062 198.581 236.336 193.202L236.241 192.5L235.489 186.928Z" fill="#F9F9F9"/>
<path d="M248.123 108.832L243.488 113.925L246.326 119.809C247.238 121.7 247.54 123.688 247.284 125.613C247.267 125.743 247.247 125.871 247.225 126C247.416 127.105 247.422 128.235 247.233 129.359L247.266 142.226L247.308 158.728L248.123 157.832C250.239 155.508 251.228 152.74 251.091 150L251.104 101.505C251.102 104.078 250.109 106.651 248.123 108.832Z" fill="#F9F9F9"/>
<path d="M241.605 133.974L235.489 137.928L236.336 144.202C236.458 145.109 236.455 146.009 236.336 146.89L236.253 186.434L241.605 182.974C245.091 180.72 247.103 177.433 247.346 174L247.343 172.539L247.308 158.728L247.266 142.226L247.233 129.359L247.225 126C246.696 129.064 244.751 131.94 241.605 133.974Z" fill="#F9F9F9"/>
<path d="M220.035 208.449L227.216 205.902C233.372 203.718 237.062 198.581 236.336 193.202L236.241 192.5M220.035 208.449L218.833 214.685C217.803 220.032 212.586 224.226 205.936 225.055L198.179 226.021M220.035 208.449V159.449M198.179 226.021L195.011 231.794C192.295 236.744 185.905 239.71 179.216 239.127L171.412 238.446M198.179 226.021V177.021M171.412 238.446L166.493 243.363C162.277 247.579 155.15 249.115 148.876 247.159L141.557 244.877M171.412 238.446V189.446M141.557 244.877L135.223 248.604C129.793 251.799 122.414 251.799 116.984 248.604L110.65 244.877M141.557 244.877V195.877M110.65 244.877L103.331 247.159C97.0575 249.115 89.9306 247.579 85.7136 243.363L80.7948 238.446M110.65 244.877V195.877M80.7948 238.446L72.9915 239.127C66.3017 239.71 59.9119 236.744 57.1958 231.794L54.0277 226.021M80.7948 238.446V189.446M54.0277 226.021L46.2711 225.055C39.6214 224.226 34.4041 220.032 33.374 214.685L32.1725 208.449M54.0277 226.021V177.021M32.1725 208.449L24.9911 205.902C19.7506 204.043 16.2979 200.044 15.8342 195.578M32.1725 208.449V159.449M15.8715 193.202C15.8581 193.301 15.8462 193.4 15.8358 193.499M220.035 159.449L227.216 156.902C232.334 155.086 235.747 151.229 236.336 146.89M220.035 159.449L218.833 165.685C217.803 171.032 212.586 175.226 205.936 176.055L198.179 177.021M198.179 177.021L195.011 182.794C192.295 187.744 185.905 190.71 179.216 190.127L171.412 189.446M171.412 189.446L166.493 194.363C162.277 198.579 155.15 200.115 148.876 198.159L141.557 195.877M141.557 195.877L135.223 199.604C129.793 202.799 122.414 202.799 116.984 199.604L110.65 195.877M110.65 195.877L103.331 198.159C97.0575 200.115 89.9306 198.579 85.7136 194.363L80.7948 189.446M80.7948 189.446L72.9915 190.127C66.3017 190.71 59.9119 187.744 57.1958 182.794L54.0277 177.021M54.0277 177.021L46.2711 176.055C39.6214 175.226 34.4041 171.032 33.374 165.685L32.1725 159.449M32.1725 159.449L24.9911 156.902C19.8728 155.086 16.4598 151.229 15.8715 146.89M4.93178 125.677C5.37574 128.862 7.34619 131.869 10.6019 133.973L16.7185 137.928L15.8715 144.202C15.7491 145.109 15.7522 146.009 15.8715 146.89M4.93178 125.677C4.66065 123.732 4.95879 121.721 5.88118 119.809L8.71891 113.925L4.08379 108.832C2.09827 106.651 1.10484 104.078 1.10352 101.505M4.93178 125.677C4.68419 126.918 4.67715 128.195 4.92621 129.46M4.93178 125.677L4.92621 129.46M247.225 126C247.247 125.871 247.267 125.743 247.284 125.613C247.54 123.688 247.238 121.7 246.326 119.809L243.488 113.925L248.123 108.832C250.109 106.651 251.102 104.078 251.104 101.505M247.225 126C246.696 129.064 244.751 131.94 241.605 133.974L235.489 137.928L236.336 144.202C236.458 145.109 236.455 146.009 236.336 146.89M247.225 126L247.233 129.359M247.225 126C247.416 127.105 247.422 128.235 247.233 129.359M251.104 101.5C251.104 98.9254 250.11 96.3509 248.123 94.1678L243.488 89.075L246.326 83.1912C248.759 78.147 246.849 72.4169 241.605 69.0265L235.489 65.0718L236.336 58.7979C237.062 53.4194 233.372 48.2819 227.216 46.0982L220.035 43.551L218.833 37.3147C217.803 31.9683 212.586 27.7736 205.936 26.9455L198.179 25.9794L195.011 20.2057C192.295 15.2558 185.905 12.2897 179.216 12.8735L171.412 13.5544L166.493 8.63666C162.277 4.42064 155.15 2.88527 148.876 4.84124L141.557 7.12278L135.223 3.39614C129.793 0.201286 122.414 0.201285 116.984 3.39614L110.65 7.12278L103.331 4.84124C97.0575 2.88527 89.9306 4.42064 85.7136 8.63666L80.7948 13.5544L72.9915 12.8735C66.3017 12.2897 59.9119 15.2558 57.1958 20.2057L54.0277 25.9794L46.2711 26.9455C39.6214 27.7736 34.4041 31.9683 33.374 37.3147L32.1725 43.551L24.6751 46.2103C18.7067 48.3273 15.1303 53.3077 15.8342 58.5218C16.3852 62.6028 14.3113 66.6281 10.3326 69.2006C5.24913 72.4874 3.39786 78.0422 5.75628 82.9322L8.71891 89.075L4.08379 94.1678C2.09694 96.3509 1.10352 98.9254 1.10352 101.5M251.104 101.5V101.505M251.104 101.5C251.104 101.502 251.104 101.503 251.104 101.505M247.346 174C247.103 177.433 245.091 180.72 241.605 182.974L236.253 186.434M247.346 174L247.343 172.539M247.346 174C247.381 173.515 247.38 173.027 247.343 172.539M236.336 146.89L236.253 186.434M236.241 192.5L235.489 186.928L236.253 186.434M236.241 192.5L236.253 186.434M15.8715 146.89L15.8413 186.361M15.8342 195.578C15.7632 194.894 15.7623 194.199 15.8358 193.499M15.8342 195.578L15.8358 193.499M4.86063 174C5.10383 177.433 7.11627 180.72 10.6019 182.973L15.8413 186.361M4.86063 174C4.82677 173.522 4.82721 173.041 4.86275 172.56M4.86063 174L4.86275 172.56M1.10352 101.5C1.10352 101.502 1.10352 101.503 1.10352 101.505M1.10352 101.5L1.10352 101.505M4.92621 129.46L4.90736 142.263L4.88314 158.71M1.10352 101.505L1.11601 150C0.979033 152.74 1.96829 155.508 4.08379 157.832L4.88314 158.71M4.88314 158.71L4.86275 172.56M15.8413 186.361L15.8358 193.499M247.233 129.359L247.266 142.226L247.308 158.728M247.343 172.539L247.308 158.728M247.308 158.728L248.123 157.832C250.239 155.508 251.228 152.74 251.091 150L251.104 101.505" stroke="black" stroke-width="2" stroke-linejoin="round"/>
<path d="M141.557 7.12278L135.223 3.39614C129.793 0.201286 122.414 0.201285 116.984 3.39614L110.65 7.12278L103.331 4.84124C97.0575 2.88527 89.9306 4.42064 85.7136 8.63666L80.7948 13.5544L72.9915 12.8735C66.3017 12.2897 59.9119 15.2558 57.1958 20.2057L54.0277 25.9794L46.2711 26.9455C39.6214 27.7736 34.4041 31.9683 33.374 37.3147L32.1725 43.551L24.6751 46.2103C18.7067 48.3273 15.1303 53.3077 15.8342 58.5218C16.3852 62.6028 14.3113 66.6281 10.3326 69.2006C5.24913 72.4874 3.39786 78.0422 5.75628 82.9322L8.71891 89.075L4.08379 94.1678C2.09694 96.3509 1.10352 98.9254 1.10352 101.5L1.10352 101.505C1.10484 104.078 2.09827 106.651 4.08379 108.832L8.71891 113.925L5.88118 119.809C4.95879 121.721 4.66065 123.732 4.93178 125.677C5.37574 128.862 7.34619 131.869 10.6019 133.973L16.7185 137.928L15.8715 144.202C15.7491 145.109 15.7522 146.009 15.8715 146.89C16.4598 151.229 19.8728 155.086 24.9911 156.902L32.1725 159.449L33.374 165.685C34.4041 171.032 39.6214 175.226 46.2711 176.055L54.0277 177.021L57.1958 182.794C59.9119 187.744 66.3017 190.71 72.9915 190.127L80.7948 189.446L85.7136 194.363C89.9306 198.579 97.0575 200.115 103.331 198.159L110.65 195.877L116.984 199.604C122.414 202.799 129.793 202.799 135.223 199.604L141.557 195.877L148.876 198.159C155.15 200.115 162.277 198.579 166.493 194.363L171.412 189.446L179.216 190.127C185.905 190.71 192.295 187.744 195.011 182.794L198.179 177.021L205.936 176.055C212.586 175.226 217.803 171.032 218.833 165.685L220.035 159.449L227.216 156.902C232.334 155.086 235.747 151.229 236.336 146.89C236.455 146.009 236.458 145.109 236.336 144.202L235.489 137.928L241.605 133.974C244.751 131.94 246.696 129.064 247.225 126C247.247 125.871 247.267 125.743 247.284 125.613C247.54 123.688 247.238 121.7 246.326 119.809L243.488 113.925L248.123 108.832C250.109 106.651 251.102 104.078 251.104 101.505V101.5C251.104 98.9254 250.11 96.3509 248.123 94.1678L243.488 89.075L246.326 83.1912C248.759 78.147 246.849 72.4169 241.605 69.0265L235.489 65.0718L236.336 58.7979C237.062 53.4194 233.372 48.2819 227.216 46.0982L220.035 43.551L218.833 37.3147C217.803 31.9683 212.586 27.7736 205.936 26.9455L198.179 25.9794L195.011 20.2057C192.295 15.2558 185.905 12.2897 179.216 12.8735L171.412 13.5544L166.493 8.63666C162.277 4.42064 155.15 2.88527 148.876 4.84124L141.557 7.12278Z" fill="#F9F9F9" stroke="black" stroke-width="2" stroke-linejoin="round"/>
<path fill-rule="evenodd" clip-rule="evenodd" d="M222.663 104.5C217.982 67.4671 176.538 38.5 126.104 38.5C75.6694 38.5 34.2252 67.4671 29.5437 104.5C34.2252 141.533 75.6694 170.5 126.104 170.5C176.538 170.5 217.982 141.533 222.663 104.5Z" fill="#F9F9F9"/>
<path d="M222.663 104.5C222.955 102.196 223.104 99.8612 223.104 97.5C223.104 57.1832 179.675 24.5 126.104 24.5C72.5319 24.5 29.1035 57.1832 29.1035 97.5C29.1035 99.8612 29.2525 102.196 29.5437 104.5M222.663 104.5C217.982 67.4671 176.538 38.5 126.104 38.5C75.6694 38.5 34.2252 67.4671 29.5437 104.5M222.663 104.5C217.982 141.533 176.538 170.5 126.104 170.5C75.6694 170.5 34.2252 141.533 29.5437 104.5" stroke="black" stroke-width="2" stroke-linejoin="round"/>
<path d="M126.104 24.5C72.5319 24.5 29.1035 57.1832 29.1035 97.5C29.1035 99.8612 29.2525 102.196 29.5437 104.5C34.2252 67.4671 75.6694 38.5 126.104 38.5C176.538 38.5 217.982 67.4671 222.663 104.5C222.955 102.196 223.104 99.8612 223.104 97.5C223.104 57.1832 179.675 24.5 126.104 24.5Z" fill="#F9F9F9" stroke="black" stroke-width="2" stroke-linejoin="round"/>
</svg>
