<svg width="254" height="256" viewBox="0 0 254 256" fill="none" xmlns="http://www.w3.org/2000/svg">
<path d="M127.104 255C196.139 255 252.104 212.9 252.104 160.966L252.104 123.533C252.104 175.467 196.139 217.567 127.104 217.567C58.0679 217.567 2.10351 175.467 2.10351 123.533L2.10351 160.966C2.10351 212.9 58.0679 255 127.104 255Z" fill="#F9F9F9"/>
<path d="M252.104 123.533C252.104 175.467 196.139 217.567 127.104 217.567C58.0679 217.567 2.10351 175.467 2.10351 123.533M252.104 123.533L252.104 160.966C252.104 212.9 196.139 255 127.104 255C58.0679 255 2.10351 212.9 2.10351 160.966L2.10351 123.533M252.104 123.533C252.104 97.0354 237.534 73.0972 214.092 56.0051M2.10351 123.533C2.10351 97.0354 16.6732 73.0973 40.1148 56.0052M214.604 62.716C214.604 96.8008 175.428 124.432 127.104 124.432C78.7786 124.432 39.6035 96.8008 39.6035 62.716M214.604 62.716L214.604 103.034C214.604 137.119 175.428 164.75 127.104 164.75C78.7786 164.75 39.6035 137.119 39.6035 103.034L39.6035 62.716M214.604 62.716C214.604 60.4484 214.43 58.2094 214.092 56.0051M39.6035 62.716C39.6035 60.4484 39.7769 58.2094 40.1148 56.0052M214.092 56.0051C209.351 25.077 172.213 0.999993 127.104 0.999995C81.9935 0.999997 44.8565 25.077 40.1148 56.0052" stroke="black" stroke-width="2" stroke-linejoin="round"/>
<path d="M127.104 217.567C196.139 217.567 252.104 175.467 252.104 123.534C252.104 97.0358 237.534 73.0976 214.092 56.0055C214.43 58.2098 214.604 60.4488 214.604 62.7164L214.604 103.034C214.604 137.119 175.428 164.75 127.104 164.75C78.7786 164.75 39.6035 137.119 39.6035 103.034L39.6035 62.7164C39.6035 60.4488 39.7769 58.2098 40.1148 56.0055C16.6732 73.0976 2.10351 97.0358 2.10351 123.534C2.10351 175.467 58.0679 217.567 127.104 217.567Z" fill="#F9F9F9" stroke="black" stroke-width="2" stroke-linejoin="round"/>
<path d="M127.104 164.75C175.428 164.75 214.604 137.119 214.604 103.034L214.604 62.716C214.604 96.8008 175.428 124.432 127.104 124.432C78.7786 124.432 39.6035 96.8008 39.6035 62.716L39.6035 103.034C39.6035 137.119 78.7786 164.75 127.104 164.75Z" fill="#F9F9F9" stroke="black" stroke-width="2" stroke-linejoin="round"/>
<path d="M127.104 0.999599C172.213 0.999597 209.351 25.0766 214.092 56.0048C214.43 58.209 214.604 60.448 214.604 62.7156C214.604 96.8004 175.428 124.432 127.104 124.432C78.7786 124.432 39.6035 96.8004 39.6035 62.7156C39.6035 60.448 39.7769 58.209 40.1148 56.0048C44.8565 25.0766 81.9936 0.999601 127.104 0.999599Z" fill="#F9F9F9" stroke="black" stroke-width="2" stroke-linejoin="round"/>
<path d="M82.1035 53.25L172.604 53.25M104.729 20.5001L149.979 86M149.979 20.5L104.729 85.9999" stroke="black" stroke-width="2" stroke-linejoin="round"/>
</svg>
