<svg width="253" height="251" viewBox="0 0 253 251" fill="none" xmlns="http://www.w3.org/2000/svg">
<path d="M126.104 250C157.718 250 186.591 242.984 208.604 231.413C234.66 217.718 251.104 197.642 251.104 175.27V89.73C251.104 112.102 234.66 132.178 208.604 145.873C186.591 157.444 157.718 164.46 126.104 164.46C94.4893 164.46 65.6162 157.444 43.6035 145.873C17.5474 132.178 1.10352 112.102 1.10352 89.73V175.27C1.10352 197.642 17.5474 217.718 43.6035 231.413C65.6162 242.984 94.4893 250 126.104 250Z" fill="#F9F9F9"/>
<path d="M126.104 250V164.46M126.104 250C94.4893 250 65.6162 242.984 43.6035 231.413M126.104 250C157.718 250 186.591 242.984 208.604 231.413M251.104 89.73C251.104 48.4578 195.139 15 126.104 15C57.0679 15 1.10352 48.4578 1.10352 89.73M251.104 89.73V175.27C251.104 197.642 234.66 217.718 208.604 231.413M251.104 89.73C251.104 112.102 234.66 132.178 208.604 145.873M126.104 164.46C94.4893 164.46 65.6162 157.444 43.6035 145.873M126.104 164.46C157.718 164.46 186.591 157.444 208.604 145.873M1.10352 89.73V175.27C1.10352 197.642 17.5474 217.718 43.6035 231.413M1.10352 89.73C1.10352 112.102 17.5474 132.178 43.6035 145.873M43.6035 145.873V231.413M208.604 145.873V231.413" stroke="black" stroke-width="2" stroke-linejoin="round"/>
<path d="M126.104 15C57.0679 15 1.10352 48.4578 1.10352 89.73C1.10352 112.102 17.5474 132.178 43.6035 145.873C65.6162 157.444 94.4893 164.46 126.104 164.46C157.718 164.46 186.591 157.444 208.604 145.873C234.66 132.178 251.104 112.102 251.104 89.73C251.104 48.4578 195.139 15 126.104 15Z" fill="#F9F9F9" stroke="black" stroke-width="2" stroke-linejoin="round"/>
<path d="M128.104 1.99999C78.3979 1.99999 38.1035 32.0863 38.1035 82.4717L38.1035 87.1311C38.1035 112.464 78.3979 133 128.104 133C177.809 133 218.104 112.464 218.104 87.1311L218.104 82.4717C218.104 32.0863 177.809 2 128.104 1.99999Z" fill="#F9F9F9" stroke="black" stroke-width="2" stroke-linejoin="round"/>
</svg>
