<svg width="251" height="252" viewBox="0 0 251 252" fill="none" xmlns="http://www.w3.org/2000/svg">
<path d="M83.8535 251C48.6454 251 20.1035 195.036 20.1035 126C20.1035 56.9644 48.6454 1 83.8535 1H166.104C201.312 1 229.854 56.9644 229.854 126C229.854 195.036 201.312 251 166.104 251H83.8535Z" fill="#F9F9F9"/>
<path d="M166.104 251C201.312 251 229.854 195.036 229.854 126C229.854 56.9644 201.312 1 166.104 1M166.104 251C130.895 251 102.354 195.036 102.354 126C102.354 56.9644 130.895 1 166.104 1M166.104 251H83.8535C48.6454 251 20.1035 195.036 20.1035 126C20.1035 56.9644 48.6454 1 83.8535 1H166.104" stroke="black" stroke-width="2" stroke-linejoin="round"/>
<path d="M229.854 126C229.854 195.036 201.312 251 166.104 251C130.895 251 102.354 195.036 102.354 126C102.354 56.9644 130.895 1 166.104 1C201.312 1 229.854 56.9644 229.854 126Z" fill="#F9F9F9" stroke="black" stroke-width="2" stroke-linejoin="round"/>
</svg>
