<svg width="253" height="252" viewBox="0 0 253 252" fill="none" xmlns="http://www.w3.org/2000/svg">
<path d="M251.104 219.125C251.104 236.729 195.139 251 126.104 251C57.0679 251 1.10352 236.729 1.10351 219.125L1.10351 157.875C1.10351 140.271 57.0679 126 126.104 126C195.139 126 251.104 140.271 251.104 157.875L251.104 219.125Z" fill="#F9F9F9"/>
<path d="M251.104 157.875C251.104 140.271 195.139 126 126.104 126C57.0679 126 1.10351 140.271 1.10351 157.875M251.104 157.875C251.104 175.479 195.139 189.75 126.104 189.75C57.0679 189.75 1.10351 175.479 1.10351 157.875M251.104 157.875L251.104 219.125C251.104 236.729 195.139 251 126.104 251C57.0679 251 1.10352 236.729 1.10351 219.125L1.10351 157.875" stroke="black" stroke-width="2" stroke-linejoin="round"/>
<path d="M126.104 126C195.139 126 251.104 140.271 251.104 157.875C251.104 175.479 195.139 189.75 126.104 189.75C57.0679 189.75 1.10352 175.479 1.10351 157.875C1.10351 140.271 57.0679 126 126.104 126Z" fill="#F9F9F9" stroke="black" stroke-width="2" stroke-linejoin="round"/>
<path d="M1.10351 32.875C1.10352 15.2709 57.0679 0.999992 126.104 0.999995C195.139 0.999998 251.104 15.2709 251.104 32.875L251.104 94.125C251.104 111.729 195.139 126 126.104 126C57.0679 126 1.10351 111.729 1.10351 94.125L1.10351 32.875Z" fill="#F9F9F9"/>
<path d="M1.10351 94.125C1.10351 111.729 57.0679 126 126.104 126C195.139 126 251.104 111.729 251.104 94.125M1.10351 94.125C1.10351 76.5209 57.0679 62.25 126.104 62.25C195.139 62.25 251.104 76.5209 251.104 94.125M1.10351 94.125L1.10351 32.875C1.10352 15.2709 57.0679 0.999992 126.104 0.999995C195.139 0.999998 251.104 15.2709 251.104 32.875L251.104 94.125" stroke="black" stroke-width="2" stroke-linejoin="round"/>
<path d="M126.104 126C57.0679 126 1.10351 111.729 1.10351 94.125C1.10352 76.5209 57.0679 62.25 126.104 62.25C195.139 62.25 251.104 76.5209 251.104 94.125C251.104 111.729 195.139 126 126.104 126Z" fill="#F9F9F9" stroke="black" stroke-width="2" stroke-linejoin="round"/>
</svg>
