<svg width="254" height="252" viewBox="0 0 254 252" fill="none" xmlns="http://www.w3.org/2000/svg">
<path d="M27.736 250.5C13.4415 250.5 1.85352 194.648 1.85352 125.75C1.85352 56.8525 13.4415 1 27.736 0.999999L77.471 0.999997C91.7655 0.999997 103.354 56.8525 103.354 125.75C103.354 194.648 91.7655 250.5 77.471 250.5L27.736 250.5Z" fill="#F9F9F9"/>
<path d="M77.471 250.5C91.7655 250.5 103.354 194.648 103.354 125.75C103.354 56.8525 91.7655 0.999997 77.471 0.999997M77.471 250.5C63.1765 250.5 51.5885 194.648 51.5885 125.75C51.5885 56.8525 63.1765 0.999998 77.471 0.999997M77.471 250.5L27.736 250.5C13.4415 250.5 1.85352 194.648 1.85352 125.75C1.85352 56.8525 13.4415 1 27.736 0.999999L77.471 0.999997" stroke="black" stroke-width="2" stroke-linejoin="round"/>
<path d="M2.10352 125.75C2.10352 194.648 13.6915 250.5 27.986 250.5L77.721 250.5C63.4265 250.5 51.8385 194.648 51.8385 125.75C51.8385 56.8525 63.4265 0.999998 77.721 0.999997L27.986 0.999999C13.6915 1 2.10352 56.8525 2.10352 125.75Z" fill="#F9F9F9" stroke="black" stroke-width="2" stroke-linejoin="round"/>
<path d="M101.986 250.5C87.6915 250.5 76.1035 194.648 76.1035 125.75C76.1035 56.8525 87.6915 1 101.986 0.999999L151.721 0.999997C166.016 0.999997 177.604 56.8525 177.604 125.75C177.604 194.648 166.016 250.5 151.721 250.5L101.986 250.5Z" fill="#F9F9F9"/>
<path d="M151.721 250.5C166.016 250.5 177.604 194.648 177.604 125.75C177.604 56.8525 166.016 0.999997 151.721 0.999997M151.721 250.5C137.427 250.5 125.839 194.648 125.839 125.75C125.839 56.8525 137.427 0.999998 151.721 0.999997M151.721 250.5L101.986 250.5C87.6915 250.5 76.1035 194.648 76.1035 125.75C76.1035 56.8525 87.6915 1 101.986 0.999999L151.721 0.999997" stroke="black" stroke-width="2" stroke-linejoin="round"/>
<path d="M76.1035 125.75C76.1035 194.648 87.6915 250.5 101.986 250.5L151.721 250.5C137.427 250.5 125.839 194.648 125.839 125.75C125.839 56.8525 137.427 0.999998 151.721 0.999997L101.986 0.999999C87.6915 1 76.1035 56.8525 76.1035 125.75Z" fill="#F9F9F9" stroke="black" stroke-width="2" stroke-linejoin="round"/>
<path d="M176.986 250.5C162.692 250.5 151.104 194.648 151.104 125.75C151.104 56.8525 162.692 1 176.986 0.999999L226.721 0.999997C241.016 0.999997 252.604 56.8525 252.604 125.75C252.604 194.648 241.016 250.5 226.721 250.5L176.986 250.5Z" fill="#F9F9F9"/>
<path d="M226.721 250.5C241.016 250.5 252.604 194.648 252.604 125.75C252.604 56.8525 241.016 0.999997 226.721 0.999997M226.721 250.5C212.427 250.5 200.839 194.648 200.839 125.75C200.839 56.8525 212.427 0.999998 226.721 0.999997M226.721 250.5L176.986 250.5C162.692 250.5 151.104 194.648 151.104 125.75C151.104 56.8525 162.692 1 176.986 0.999999L226.721 0.999997" stroke="black" stroke-width="2" stroke-linejoin="round"/>
<path d="M151.104 125.75C151.104 194.648 162.692 250.5 176.986 250.5L226.721 250.5C212.427 250.5 200.839 194.648 200.839 125.75C200.839 56.8525 212.427 0.999998 226.721 0.999997L176.986 0.999999C162.692 1 151.104 56.8525 151.104 125.75Z" fill="#F9F9F9" stroke="black" stroke-width="2" stroke-linejoin="round"/>
</svg>
