<svg width="253" height="252" viewBox="0 0 253 252" fill="none" xmlns="http://www.w3.org/2000/svg">
<path fill-rule="evenodd" clip-rule="evenodd" d="M1.10352 63.5C1.10352 98.0178 15.3744 126 32.9785 126H63.6035C29.0857 126 1.10351 140.271 1.10352 157.875L1.10352 219.125C1.10352 236.729 29.0857 251 63.6035 251C98.1213 251 126.104 236.729 126.104 219.125L126.104 188.5C126.104 223.018 140.374 251 157.979 251L219.229 251C236.833 251 251.104 223.018 251.104 188.5C251.104 153.982 236.833 126 219.229 126H188.634C223.138 125.991 251.104 111.724 251.104 94.125V32.875C251.104 15.2709 223.121 1 188.604 1C154.086 0.999998 126.104 15.2709 126.104 32.875V63.5C126.104 28.9822 111.833 1 94.2285 1H32.9785C15.3744 1 1.10352 28.9822 1.10352 63.5ZM126.104 63.5V94.125C126.104 111.724 154.069 125.991 188.573 126H157.979C140.374 126 126.104 153.982 126.104 188.5L126.104 157.875C126.104 140.271 98.1213 126 63.6035 126H94.2285C111.833 126 126.104 98.0178 126.104 63.5Z" fill="#F9F9F9"/>
<path d="M32.9785 126C15.3744 126 1.10352 98.0178 1.10352 63.5C1.10352 28.9822 15.3744 1 32.9785 1H94.2285M32.9785 126H94.2285M32.9785 126H63.6035M126.104 63.5C126.104 98.0178 111.833 126 94.2285 126M126.104 63.5C126.104 28.9822 111.833 1 94.2285 1M126.104 63.5V32.875M126.104 63.5V94.125M94.2285 126C76.6244 126 62.3535 98.0178 62.3535 63.5C62.3535 28.9822 76.6244 1 94.2285 1M94.2285 126H63.6035M126.104 219.125C126.104 236.729 98.1213 251 63.6035 251C29.0857 251 1.10352 236.729 1.10352 219.125L1.10352 157.875M126.104 219.125V157.875M126.104 219.125L126.104 188.5M63.6035 126C98.1213 126 126.104 140.271 126.104 157.875M63.6035 126C29.0857 126 1.10351 140.271 1.10352 157.875M126.104 157.875C126.104 175.479 98.1213 189.75 63.6035 189.75C29.0857 189.75 1.10352 175.479 1.10352 157.875M126.104 157.875L126.104 188.5M126.104 32.875C126.104 15.2709 154.086 0.999998 188.604 1C223.121 1 251.104 15.2709 251.104 32.875V94.125M126.104 32.875V94.125M126.104 94.125C126.104 76.5209 154.086 62.25 188.604 62.25C223.121 62.25 251.104 76.5209 251.104 94.125M126.104 94.125C126.104 111.724 154.069 125.991 188.573 126M251.104 94.125C251.104 111.724 223.138 125.991 188.634 126M126.104 188.5C126.104 153.982 140.374 126 157.979 126M126.104 188.5C126.104 223.018 140.374 251 157.979 251M157.979 126C175.583 126 189.854 153.982 189.854 188.5C189.854 223.018 175.583 251 157.979 251M157.979 126H188.573M157.979 251L219.229 251C236.833 251 251.104 223.018 251.104 188.5C251.104 153.982 236.833 126 219.229 126H188.634M188.634 126L188.573 126M188.634 126C188.624 126 188.614 126 188.604 126C188.593 126 188.583 126 188.573 126" stroke="black" stroke-width="2" stroke-linejoin="round"/>
<path d="M63.6035 126C98.1213 126 126.104 140.271 126.104 157.875C126.104 175.479 98.1213 189.75 63.6035 189.75C29.0857 189.75 1.10352 175.479 1.10352 157.875C1.10351 140.271 29.0857 126 63.6035 126Z" fill="#F9F9F9" stroke="black" stroke-width="2" stroke-linejoin="round"/>
<path d="M126.104 188.5C126.104 153.982 140.374 126 157.979 126C175.583 126 189.854 153.982 189.854 188.5C189.854 223.018 175.583 251 157.979 251C140.374 251 126.104 223.018 126.104 188.5Z" fill="#F9F9F9" stroke="black" stroke-width="2" stroke-linejoin="round"/>
<path d="M188.604 126C154.086 126 126.104 111.729 126.104 94.125C126.104 76.5209 154.086 62.25 188.604 62.25C223.121 62.25 251.104 76.5209 251.104 94.125C251.104 111.729 223.121 126 188.604 126Z" fill="#F9F9F9" stroke="black" stroke-width="2" stroke-linejoin="round"/>
<path d="M126.104 63.5C126.104 98.0178 111.833 126 94.2285 126C76.6244 126 62.3535 98.0178 62.3535 63.5C62.3535 28.9822 76.6244 1 94.2285 1C111.833 1 126.104 28.9822 126.104 63.5Z" fill="#F9F9F9" stroke="black" stroke-width="2" stroke-linejoin="round"/>
</svg>
