<svg width="253" height="252" viewBox="0 0 253 252" fill="none" xmlns="http://www.w3.org/2000/svg">
<path d="M251.104 187.25C251.104 222.458 195.139 251 126.104 251C57.0679 251 1.10351 222.458 1.10351 187.25L1.10351 126L1.10351 64.75C1.10351 29.5418 57.0679 0.999998 126.104 0.999995C195.139 0.999992 251.104 29.5418 251.104 64.75L251.104 126L251.104 187.25Z" fill="#F9F9F9"/>
<path d="M251.104 64.75C251.104 29.5418 195.139 0.999992 126.104 0.999995C57.0679 0.999998 1.10351 29.5418 1.10351 64.75M251.104 64.75C251.104 99.9581 195.139 128.5 126.104 128.5C57.0679 128.5 1.10351 99.9582 1.10351 64.75M251.104 64.75L251.104 126M1.10351 64.75L1.10351 126M1.10351 126L1.10351 187.25C1.10351 222.458 57.0679 251 126.104 251C195.139 251 251.104 222.458 251.104 187.25L251.104 126M1.10351 126C1.10351 161.208 57.0679 189.75 126.104 189.75C195.139 189.75 251.104 161.208 251.104 126" stroke="black" stroke-width="2" stroke-linejoin="round"/>
<path d="M251.104 64.75C251.104 99.9581 195.139 128.5 126.104 128.5C57.0679 128.5 1.10351 99.9581 1.10351 64.75L1.10351 126C1.10351 161.208 57.0679 189.75 126.104 189.75C195.139 189.75 251.104 161.208 251.104 126L251.104 64.75Z" fill="#F9F9F9" stroke="black" stroke-width="2" stroke-linejoin="round"/>
<path d="M251.104 64.75C251.104 29.5418 195.139 0.999992 126.104 0.999995C57.0679 0.999998 1.10351 29.5418 1.10351 64.75C1.10351 99.9582 57.0679 128.5 126.104 128.5C195.139 128.5 251.104 99.9581 251.104 64.75Z" fill="#F9F9F9" stroke="black" stroke-width="2" stroke-linejoin="round"/>
<path d="M188.104 64.75C188.104 47.215 160.345 33 126.104 33C91.8619 33 64.1035 47.215 64.1035 64.75C64.1035 82.285 91.8619 96.5 126.104 96.5C160.345 96.5 188.104 82.285 188.104 64.75Z" fill="#F9F9F9" stroke="black" stroke-width="2" stroke-linejoin="round"/>
</svg>
