<svg width="253" height="252" viewBox="0 0 253 252" fill="none" xmlns="http://www.w3.org/2000/svg">
<path d="M251.104 187.25C251.104 222.458 195.139 251 126.104 251C57.0679 251 1.10352 222.458 1.10352 187.25L1.10352 166.234L1.10352 64.75C1.10352 29.5419 57.0679 1 126.104 1C195.139 0.999997 251.104 29.5418 251.104 64.75V179.985V187.25Z" fill="#F9F9F9"/>
<path d="M251.104 64.75C251.104 29.5418 195.139 0.999997 126.104 1C57.0679 1 1.10351 29.5419 1.10352 64.75M251.104 64.75C251.104 99.9581 195.139 128.5 126.104 128.5C57.0679 128.5 1.10352 99.9582 1.10352 64.75M251.104 64.75V179.985M1.10352 64.75L1.10352 166.234M1.10352 166.234C14.544 163.321 29.5316 136.353 39.3535 153.5C83.6035 230.75 109.219 125.453 128.854 184C142.604 225 180.976 243.35 191.604 179.985C198.604 138.25 217.604 112.25 238.354 163.5C242.297 173.241 245.566 178.941 251.104 179.985M1.10352 166.234L1.10352 187.25C1.10352 222.458 57.0679 251 126.104 251C195.139 251 251.104 222.458 251.104 187.25V179.985" stroke="black" stroke-width="2" stroke-linejoin="round"/>
<path d="M251.104 64.75C251.104 99.9582 195.139 128.5 126.104 128.5C57.0679 128.5 1.10352 99.9582 1.10352 64.75L1.10352 166.234C14.544 163.321 29.5316 136.353 39.3535 153.5C83.6035 230.75 109.219 125.453 128.854 184C142.604 225 180.976 243.35 191.604 179.985C198.604 138.25 217.604 112.25 238.354 163.5C242.297 173.241 245.566 178.941 251.104 179.985V64.75Z" fill="#F9F9F9" stroke="black" stroke-width="2" stroke-linejoin="round"/>
<path d="M126.104 1C195.139 0.999997 251.104 29.5418 251.104 64.75C251.104 99.9581 195.139 128.5 126.104 128.5C57.0679 128.5 1.10352 99.9582 1.10352 64.75C1.10351 29.5419 57.0679 1 126.104 1Z" fill="#F9F9F9" stroke="black" stroke-width="2" stroke-linejoin="round"/>
</svg>
