<svg width="253" height="250" viewBox="0 0 253 250" fill="none" xmlns="http://www.w3.org/2000/svg">
<path d="M126.854 61C195.889 61 251.854 89.5418 251.854 124.75C251.854 140.481 240.681 154.882 222.162 166C199.233 179.766 165.043 188.5 126.854 188.5C88.6636 188.5 54.4737 179.766 31.5452 166C13.0261 154.882 1.85351 140.481 1.85351 124.75C1.85351 89.5418 57.8179 61 126.854 61Z" fill="#F9F9F9"/>
<path d="M222.162 166C199.233 179.766 165.043 188.5 126.854 188.5C88.6636 188.5 54.4737 179.766 31.5452 166M222.162 166C240.681 154.882 251.854 140.481 251.854 124.75C251.854 89.5418 195.889 61 126.854 61C57.8179 61 1.85351 89.5418 1.85351 124.75C1.85351 140.481 13.0261 154.882 31.5452 166M222.162 166C199.233 152.234 165.043 143.5 126.854 143.5C88.6635 143.5 54.4737 152.234 31.5452 166" stroke="black" stroke-width="2" stroke-linejoin="round"/>
<path d="M31.5449 166.25C54.4734 180.016 88.6633 188.75 126.853 188.75C165.043 188.75 199.233 180.016 222.162 166.25C199.233 152.484 165.043 143.75 126.853 143.75C88.6633 143.75 54.4734 152.484 31.5449 166.25Z" fill="#F9F9F9" stroke="black" stroke-width="2" stroke-linejoin="round"/>
</svg>
