<svg width="253" height="252" viewBox="0 0 253 252" fill="none" xmlns="http://www.w3.org/2000/svg">
<path fill-rule="evenodd" clip-rule="evenodd" d="M46.0863 96.75C65.2557 85.8972 93.9877 79 126.104 79C158.219 79 186.951 85.8972 206.121 96.75C186.951 107.603 158.219 114.5 126.104 114.5C93.9877 114.5 65.2557 107.603 46.0863 96.75Z" fill="#F9F9F9"/>
<path fill-rule="evenodd" clip-rule="evenodd" d="M126.104 15C68.3898 15 21.6035 37.2738 21.6035 64.75C21.6035 76.9366 30.8074 88.0998 46.0863 96.75C65.2557 107.603 93.9877 114.5 126.104 114.5C158.219 114.5 186.951 107.603 206.121 96.75C221.4 88.0998 230.604 76.9366 230.604 64.75C230.604 37.2738 183.817 15 126.104 15Z" fill="#F9F9F9"/>
<path d="M1.10351 187.25C1.10351 222.458 57.0679 251 126.104 251C195.139 251 251.104 222.458 251.104 187.25L251.104 64.75C251.104 99.9582 195.139 128.5 126.104 128.5C57.0679 128.5 1.10351 99.9581 1.10351 64.75L1.10351 187.25Z" fill="#F9F9F9"/>
<path fill-rule="evenodd" clip-rule="evenodd" d="M126.104 0.999995C57.0679 0.999992 1.10351 29.5418 1.10351 64.75C1.10351 99.9581 57.0679 128.5 126.104 128.5C195.139 128.5 251.104 99.9582 251.104 64.75C251.104 29.5418 195.139 0.999998 126.104 0.999995ZM21.6035 64.75C21.6035 37.2738 68.3898 15 126.104 15C183.817 15 230.604 37.2738 230.604 64.75C230.604 76.9366 221.4 88.0998 206.121 96.75C186.951 107.603 158.219 114.5 126.104 114.5C93.9877 114.5 65.2557 107.603 46.0863 96.75C30.8074 88.0998 21.6035 76.9366 21.6035 64.75Z" fill="#F9F9F9"/>
<path d="M1.10351 64.75C1.10351 29.5418 57.0679 0.999992 126.104 0.999995C195.139 0.999998 251.104 29.5418 251.104 64.75M1.10351 64.75C1.10351 99.9581 57.0679 128.5 126.104 128.5C195.139 128.5 251.104 99.9582 251.104 64.75M1.10351 64.75L1.10351 187.25C1.10351 222.458 57.0679 251 126.104 251C195.139 251 251.104 222.458 251.104 187.25L251.104 64.75M206.121 96.75C221.4 88.0998 230.604 76.9366 230.604 64.75C230.604 37.2738 183.817 15 126.104 15C68.3898 15 21.6035 37.2738 21.6035 64.75C21.6035 76.9366 30.8074 88.0998 46.0863 96.75M206.121 96.75C186.951 85.8972 158.219 79 126.104 79C93.9877 79 65.2557 85.8972 46.0863 96.75M206.121 96.75C186.951 107.603 158.219 114.5 126.104 114.5C93.9877 114.5 65.2557 107.603 46.0863 96.75" stroke="black" stroke-width="2" stroke-linejoin="round"/>
<path d="M126.104 15C68.3898 15 21.6035 37.2738 21.6035 64.75C21.6035 76.9366 30.8074 88.0998 46.0863 96.75C65.2557 107.603 93.9877 114.5 126.104 114.5C158.219 114.5 186.951 107.603 206.121 96.75C221.4 88.0998 230.604 76.9366 230.604 64.75C230.604 37.2738 183.817 15 126.104 15Z" fill="#F9F9F9" stroke="black" stroke-width="2" stroke-linejoin="round"/>
<path fill-rule="evenodd" clip-rule="evenodd" d="M46.0867 96.75C65.2561 85.8972 93.9881 79 126.104 79C158.22 79 186.952 85.8972 206.121 96.75C186.952 107.603 158.22 114.5 126.104 114.5C93.9881 114.5 65.2561 107.603 46.0867 96.75Z" fill="#F9F9F9"/>
<path d="M46.0867 96.75C65.2561 85.8972 93.9881 79 126.104 79C158.22 79 186.952 85.8972 206.121 96.75C186.952 107.603 158.22 114.5 126.104 114.5C93.9881 114.5 65.2561 107.603 46.0867 96.75Z" fill="#F9F9F9"/>
<path fill-rule="evenodd" clip-rule="evenodd" d="M46.0867 96.75C65.2561 85.8972 93.9881 79 126.104 79C158.22 79 186.952 85.8972 206.121 96.75C186.952 107.603 158.22 114.5 126.104 114.5C93.9881 114.5 65.2561 107.603 46.0867 96.75Z" stroke="black" stroke-width="2" stroke-linejoin="round"/>
<path d="M46.0867 96.75C65.2561 85.8972 93.9881 79 126.104 79C158.22 79 186.952 85.8972 206.121 96.75C186.952 107.603 158.22 114.5 126.104 114.5C93.9881 114.5 65.2561 107.603 46.0867 96.75Z" stroke="black" stroke-width="2" stroke-linejoin="round"/>
</svg>
