<svg width="253" height="250" viewBox="0 0 253 250" fill="none" xmlns="http://www.w3.org/2000/svg">
<path d="M208.762 131.908L215.229 138.375L222.479 124.809L46.4785 34.9241L40.5432 45.4866L208.762 131.908Z" fill="#F9F9F9"/>
<path d="M1.85351 83.75C1.85351 118.958 57.8179 147.5 126.854 147.5C158.185 147.5 186.824 141.621 208.762 131.908L40.5432 45.4866L33.0282 41.6257C13.6242 52.8584 1.85351 67.6031 1.85351 83.75Z" fill="#F9F9F9"/>
<path d="M251.854 83.75C251.854 48.5418 195.889 20 126.854 20C96.2466 20 68.209 25.6102 46.4785 34.9241L222.479 124.809C240.808 113.717 251.854 99.3914 251.854 83.75Z" fill="#F9F9F9"/>
<path d="M126.854 229.75C195.889 229.75 251.854 201.208 251.854 166L251.854 83.75C251.854 99.3914 240.808 113.717 222.479 124.809L215.229 138.375L208.762 131.908C186.824 141.621 158.185 147.5 126.854 147.5C57.8179 147.5 1.85351 118.958 1.85351 83.75L1.85351 166C1.85351 201.208 57.8179 229.75 126.854 229.75Z" fill="#F9F9F9"/>
<path d="M251.854 83.75C251.854 48.5418 195.889 20 126.854 20C96.2466 20 68.209 25.6101 46.4785 34.9241M251.854 83.75L251.854 166C251.854 201.208 195.889 229.75 126.854 229.75C57.8179 229.75 1.85351 201.208 1.85351 166L1.85351 83.75M251.854 83.75C251.854 99.3914 240.808 113.717 222.479 124.809M1.85351 83.75C1.85351 118.958 57.8179 147.5 126.854 147.5C158.185 147.5 186.824 141.621 208.762 131.908M1.85351 83.75C1.85351 67.6031 13.6242 52.8584 33.0282 41.6257L40.5432 45.4866M208.762 131.908L215.229 138.375L222.479 124.809M208.762 131.908L40.5432 45.4866M222.479 124.809L46.4785 34.9241M46.4785 34.9241L40.5432 45.4866" stroke="black" stroke-width="2" stroke-linejoin="round"/>
<path d="M1.97851 83.875C1.97851 119.083 57.9429 147.625 126.979 147.625C158.31 147.625 186.949 141.746 208.887 132.033L40.6682 45.6116L33.1532 41.7507C13.7492 52.9834 1.97851 67.7281 1.97851 83.875Z" fill="#F9F9F9"/>
<path d="M251.979 83.875C251.979 48.6668 196.014 20.125 126.979 20.125C96.3716 20.125 68.334 25.7352 46.6035 35.0491L222.604 124.934C240.933 113.842 251.979 99.5164 251.979 83.875Z" fill="#F9F9F9"/>
<path d="M1.97851 83.875C1.97851 119.083 57.9429 147.625 126.979 147.625C158.31 147.625 186.949 141.746 208.887 132.033L40.6682 45.6116L33.1532 41.7507C13.7492 52.9834 1.97851 67.7281 1.97851 83.875Z" stroke="black" stroke-width="2" stroke-linejoin="round"/>
<path d="M251.979 83.875C251.979 48.6668 196.014 20.125 126.979 20.125C96.3716 20.125 68.334 25.7352 46.6035 35.0491L222.604 124.934C240.933 113.842 251.979 99.5164 251.979 83.875Z" stroke="black" stroke-width="2" stroke-linejoin="round"/>
</svg>
