<svg width="253" height="252" viewBox="0 0 253 252" fill="none" xmlns="http://www.w3.org/2000/svg">
<path d="M251.104 143V206.937C251.104 231.272 195.139 251 126.104 251C57.0679 251 1.10352 231.272 1.10352 206.937V143C1.10352 139.236 2.44267 135.581 4.96221 132.093C2.44267 128.605 1.10352 124.951 1.10352 121.187V45.0631C1.10352 20.7277 57.0679 1 126.104 1C195.139 1 251.104 20.7277 251.104 45.0631V121.187C251.104 124.951 249.764 128.605 247.245 132.093C249.764 135.581 251.104 139.236 251.104 143Z" fill="#F9F9F9"/>
<path d="M126.104 1C66.4742 1 18.1351 16.7548 18.1351 36.1893C18.1351 55.6238 66.4742 71.3785 126.104 71.3785C185.733 71.3785 234.072 55.6238 234.072 36.1893C234.072 16.7548 185.733 1 126.104 1ZM126.104 1C57.0679 1 1.10352 20.7277 1.10352 45.0631V121.187C1.10352 124.951 2.44267 128.605 4.96221 132.093M126.104 1C195.139 1 251.104 20.7277 251.104 45.0631V121.187C251.104 124.951 249.764 128.605 247.245 132.093M247.245 132.093C233.477 151.154 184.46 165.25 126.104 165.25C67.747 165.25 18.7304 151.154 4.96221 132.093M247.245 132.093C249.764 135.581 251.104 139.236 251.104 143V206.937C251.104 231.272 195.139 251 126.104 251C57.0679 251 1.10352 231.272 1.10352 206.937V143C1.10352 139.236 2.44267 135.581 4.96221 132.093" stroke="black" stroke-width="2" stroke-linejoin="round"/>
<path d="M251.104 206.937V143C251.104 139.236 249.764 135.582 247.245 132.094C233.477 151.154 184.46 165.25 126.104 165.25C67.747 165.25 18.7304 151.154 4.96221 132.094C2.44267 135.582 1.10352 139.236 1.10352 143V206.937C1.10352 231.273 57.0679 251 126.104 251C195.139 251 251.104 231.273 251.104 206.937Z" fill="#F9F9F9" stroke="black" stroke-width="2" stroke-linejoin="round"/>
<path d="M126.103 71.3785C185.732 71.3785 234.072 55.6238 234.072 36.1893C234.072 16.7548 185.732 1 126.103 1C66.4739 1 18.1348 16.7548 18.1348 36.1893C18.1348 55.6238 66.4739 71.3785 126.103 71.3785Z" fill="#F9F9F9" stroke="black" stroke-width="2" stroke-linejoin="round"/>
</svg>
