<svg width="253" height="250" viewBox="0 0 253 250" fill="none" xmlns="http://www.w3.org/2000/svg">
<path d="M23.4834 81.7109C23.4834 56.4655 69.428 36 126.104 36C57.0679 36 1.10352 62.5644 1.10352 95.3333L1.10352 154.667C1.10352 187.436 57.0679 214 126.104 214C195.139 214 251.104 187.436 251.104 154.667V95.3333C251.104 62.5644 195.139 36 126.104 36C182.779 36 228.724 56.4655 228.724 81.7109C228.724 92.2105 220.776 101.883 207.415 109.601C188.651 120.44 159.208 127.422 126.104 127.422C92.9995 127.422 63.5565 120.44 44.7918 109.601C31.4307 101.883 23.4834 92.2105 23.4834 81.7109Z" fill="#F9F9F9"/>
<path d="M126.104 36C69.428 36 23.4834 56.4655 23.4834 81.7109C23.4834 92.2105 31.4307 101.883 44.7918 109.601M126.104 36C182.779 36 228.724 56.4655 228.724 81.7109C228.724 92.2105 220.776 101.883 207.415 109.601M126.104 36C57.0679 36 1.10352 62.5644 1.10352 95.3333L1.10352 154.667C1.10352 187.436 57.0679 214 126.104 214C195.139 214 251.104 187.436 251.104 154.667V95.3333C251.104 62.5644 195.139 36 126.104 36ZM207.415 109.601C185.557 100.707 157.152 95.3333 126.104 95.3333C95.055 95.3333 66.6504 100.707 44.7918 109.601M207.415 109.601C188.651 120.44 159.208 127.422 126.104 127.422C92.9994 127.422 63.5565 120.44 44.7918 109.601" stroke="black" stroke-width="2" stroke-linejoin="round"/>
<path d="M207.416 109.601C220.777 101.883 228.725 92.2105 228.725 81.7109C228.725 56.4655 182.78 36 126.104 36C69.429 36 23.4844 56.4655 23.4844 81.7109C23.4844 92.2105 31.4316 101.883 44.7928 109.601C66.6514 100.707 95.056 95.3333 126.104 95.3333C157.153 95.3333 185.558 100.707 207.416 109.601Z" fill="#F9F9F9" stroke="black" stroke-width="2" stroke-linejoin="round"/>
</svg>
