<svg width="253" height="252" viewBox="0 0 253 252" fill="none" xmlns="http://www.w3.org/2000/svg">
<path fill-rule="evenodd" clip-rule="evenodd" d="M126.104 251C195.139 251 251.104 195.036 251.104 126C251.104 56.9644 195.139 1 126.104 1C57.0679 1 1.10352 56.9644 1.10352 126C1.10352 195.036 57.0679 251 126.104 251ZM80.6033 126C80.6033 87.09 104.024 54.3224 135.898 44.5034C167.773 54.3224 191.193 87.0901 191.193 126C191.193 164.91 167.773 197.678 135.898 207.497C104.024 197.678 80.6033 164.91 80.6033 126Z" fill="#F9F9F9" stroke="black" stroke-width="2"/>
<path fill-rule="evenodd" clip-rule="evenodd" d="M135.899 44.5032C167.773 54.3222 191.194 87.0898 191.194 126C191.194 164.91 167.773 197.678 135.899 207.497C142.207 209.44 148.846 210.485 155.701 210.5C197.191 210.408 230.799 172.611 230.799 126C230.799 79.389 197.191 41.5925 155.701 41.5002C148.847 41.5154 142.207 42.5599 135.899 44.5032Z" fill="#F9F9F9"/>
<path d="M135.899 44.5032C167.773 54.3222 191.194 87.0898 191.194 126C191.194 164.91 167.773 197.678 135.899 207.497C142.207 209.44 148.846 210.485 155.701 210.5C197.191 210.408 230.799 172.611 230.799 126C230.799 79.389 197.191 41.5925 155.701 41.5002C148.847 41.5154 142.207 42.5599 135.899 44.5032Z" fill="#F9F9F9"/>
<path d="M155.854 41.5C197.413 41.5 231.104 79.332 231.104 126C231.104 172.668 197.413 210.5 155.854 210.5M155.854 41.5L155.701 41.5002M155.854 41.5C155.803 41.5 155.752 41.5001 155.701 41.5002M155.854 210.5L155.701 210.5M155.854 210.5C155.803 210.5 155.752 210.5 155.701 210.5M135.899 44.5032C104.024 54.3222 80.6035 87.0898 80.6035 126C80.6035 164.91 104.024 197.678 135.899 207.497M135.899 44.5032C167.773 54.3222 191.194 87.0898 191.194 126C191.194 164.91 167.773 197.678 135.899 207.497M135.899 44.5032C142.207 42.5599 148.847 41.5154 155.701 41.5002M135.899 207.497C142.207 209.44 148.846 210.485 155.701 210.5M155.701 210.5L155.549 210.5C155.6 210.5 155.65 210.5 155.701 210.5ZM155.701 210.5C197.191 210.408 230.799 172.611 230.799 126C230.799 79.389 197.191 41.5925 155.701 41.5002M155.701 41.5002L155.549 41.5C155.6 41.5 155.65 41.5001 155.701 41.5002Z" stroke="black" stroke-width="2" stroke-linejoin="round"/>
</svg>
