<svg width="253" height="251" viewBox="0 0 253 251" fill="none" xmlns="http://www.w3.org/2000/svg">
<path d="M126.979 40C196.014 40 251.979 68.5418 251.979 103.75C251.979 138.958 196.014 167.5 126.979 167.5C57.9429 167.5 1.97851 138.958 1.97851 103.75C1.97851 68.5418 57.9429 40 126.979 40Z" fill="#F9F9F9"/>
<path d="M126.979 249.75C196.014 249.75 251.979 221.208 251.979 186L251.979 103.75C251.979 138.958 196.014 167.5 126.979 167.5C57.9429 167.5 1.97851 138.958 1.97851 103.75L1.97851 186C1.97851 221.208 57.9429 249.75 126.979 249.75Z" fill="#F9F9F9"/>
<path d="M251.979 103.75C251.979 68.5418 196.014 40 126.979 40C57.9429 40 1.97851 68.5418 1.97851 103.75M251.979 103.75C251.979 138.958 196.014 167.5 126.979 167.5C57.9429 167.5 1.97851 138.958 1.97851 103.75M251.979 103.75L251.979 186C251.979 221.208 196.014 249.75 126.979 249.75C57.9429 249.75 1.97851 221.208 1.97851 186L1.97851 103.75" stroke="black" stroke-width="2" stroke-linejoin="round"/>
<path d="M126.979 40C196.014 40 251.979 68.5418 251.979 103.75C251.979 138.958 196.014 167.5 126.979 167.5C57.9429 167.5 1.97851 138.958 1.97851 103.75C1.97851 68.5418 57.9429 40 126.979 40Z" fill="#F9F9F9"/>
<path d="M251.979 103.75C251.979 68.5418 196.014 40 126.979 40C57.9429 40 1.97851 68.5418 1.97851 103.75M251.979 103.75C251.979 138.958 196.014 167.5 126.979 167.5C57.9429 167.5 1.97851 138.958 1.97851 103.75M251.979 103.75L251.979 186C251.979 221.208 196.014 249.75 126.979 249.75C57.9429 249.75 1.97851 221.208 1.97851 186L1.97851 103.75" stroke="black" stroke-width="2" stroke-linejoin="round"/>
<path d="M182.232 86.1945L186.565 90.511L191.422 81.4563L73.5023 21.4615L69.5256 28.5115L182.232 86.1945Z" fill="#F9F9F9"/>
<path d="M43.6035 54.0509C43.6035 77.551 81.0997 96.6016 127.354 96.6016C148.346 96.6016 167.534 92.6776 182.232 86.1945L69.5256 28.5115L64.4905 25.9346C51.4899 33.4319 43.6035 43.2735 43.6035 54.0509Z" fill="#F9F9F9"/>
<path d="M211.104 54.0509C211.104 30.5508 173.607 11.5003 127.354 11.5003C106.847 11.5003 88.0617 15.2448 73.5023 21.4615L191.422 81.4563C203.703 74.0528 211.104 64.4909 211.104 54.0509Z" fill="#F9F9F9"/>
<path d="M127.354 142.102C173.607 142.102 211.104 123.051 211.104 99.5509L211.104 54.0509C211.104 64.4909 203.703 74.0528 191.422 81.4563L186.565 90.511L182.232 86.1945C167.534 92.6776 148.346 96.6016 127.354 96.6016C81.0997 96.6016 43.6035 77.551 43.6035 54.0509L43.6035 99.5509C43.6035 123.051 81.0997 142.102 127.354 142.102Z" fill="#F9F9F9"/>
<path d="M211.104 54.0509C211.104 30.5508 173.607 11.5003 127.354 11.5003C106.847 11.5003 88.0617 15.2448 73.5023 21.4615M211.104 54.0509L211.104 99.5509C211.104 123.051 173.607 142.102 127.354 142.102C81.0997 142.102 43.6035 123.051 43.6035 99.5509L43.6035 54.0509M211.104 54.0509C211.104 64.4909 203.703 74.0528 191.422 81.4563M43.6035 54.0509C43.6035 77.551 81.0997 96.6016 127.354 96.6016C148.346 96.6016 167.534 92.6776 182.232 86.1945M43.6035 54.0509C43.6035 43.2735 51.4899 33.4319 64.4905 25.9346L69.5256 28.5115M182.232 86.1945L186.565 90.511L191.422 81.4563M182.232 86.1945L69.5256 28.5115M191.422 81.4563L73.5023 21.4615M73.5023 21.4615L69.5256 28.5115" stroke="black" stroke-width="2" stroke-linejoin="round"/>
</svg>
