<svg width="253" height="251" viewBox="0 0 253 251" fill="none" xmlns="http://www.w3.org/2000/svg">
<path d="M126.979 40C196.014 40 251.979 68.5418 251.979 103.75C251.979 138.958 196.014 167.5 126.979 167.5C57.9429 167.5 1.97851 138.958 1.97851 103.75C1.97851 68.5418 57.9429 40 126.979 40Z" fill="#F9F9F9"/>
<path d="M126.979 249.75C196.014 249.75 251.979 221.208 251.979 186L251.979 103.75C251.979 138.958 196.014 167.5 126.979 167.5C57.9429 167.5 1.97851 138.958 1.97851 103.75L1.97851 186C1.97851 221.208 57.9429 249.75 126.979 249.75Z" fill="#F9F9F9"/>
<path d="M251.979 103.75C251.979 68.5418 196.014 40 126.979 40C57.9429 40 1.97851 68.5418 1.97851 103.75M251.979 103.75C251.979 138.958 196.014 167.5 126.979 167.5C57.9429 167.5 1.97851 138.958 1.97851 103.75M251.979 103.75L251.979 186C251.979 221.208 196.014 249.75 126.979 249.75C57.9429 249.75 1.97851 221.208 1.97851 186L1.97851 103.75" stroke="black" stroke-width="2" stroke-linejoin="round"/>
<path d="M126.979 40C196.014 40 251.979 68.5418 251.979 103.75C251.979 138.958 196.014 167.5 126.979 167.5C57.9429 167.5 1.97851 138.958 1.97851 103.75C1.97851 68.5418 57.9429 40 126.979 40Z" fill="#F9F9F9"/>
<path d="M251.979 103.75C251.979 68.5418 196.014 40 126.979 40C57.9429 40 1.97851 68.5418 1.97851 103.75M251.979 103.75C251.979 138.958 196.014 167.5 126.979 167.5C57.9429 167.5 1.97851 138.958 1.97851 103.75M251.979 103.75L251.979 186C251.979 221.208 196.014 249.75 126.979 249.75C57.9429 249.75 1.97851 221.208 1.97851 186L1.97851 103.75" stroke="black" stroke-width="2" stroke-linejoin="round"/>
<path d="M168.138 18L209.104 53.3801L168.069 88.7801L86.0689 88.8L45.1035 53.4199L86.1381 18.0199L168.138 18Z" fill="#F9F9F9"/>
<path d="M168.069 135.98L209.104 100.58V53.3801L168.069 88.7801V135.98Z" fill="#F9F9F9"/>
<path d="M86.0689 136L168.069 135.98V88.7801L86.0689 88.8V136Z" fill="#F9F9F9"/>
<path d="M45.1035 100.62L86.0689 136V88.8L45.1035 53.4199V100.62Z" fill="#F9F9F9"/>
<path d="M168.069 135.98L209.104 100.58V53.3801M168.069 135.98L86.0689 136M168.069 135.98V88.7801M86.0689 136L45.1035 100.62V53.4199M86.0689 136V88.8M209.104 53.3801L168.138 18L86.1381 18.0199L45.1035 53.4199M209.104 53.3801L168.069 88.7801M168.069 88.7801L86.0689 88.8M86.0689 88.8L45.1035 53.4199" stroke="black" stroke-width="2" stroke-linejoin="round"/>
</svg>
