<svg width="253" height="252" viewBox="0 0 253 252" fill="none" xmlns="http://www.w3.org/2000/svg">
<path d="M126.979 41C196.014 41 251.979 69.5418 251.979 104.75C251.979 139.958 196.014 168.5 126.979 168.5C57.9429 168.5 1.97851 139.958 1.97851 104.75C1.97851 69.5418 57.9429 41 126.979 41Z" fill="#F9F9F9"/>
<path d="M126.979 250.75C196.014 250.75 251.979 222.208 251.979 187L251.979 104.75C251.979 139.958 196.014 168.5 126.979 168.5C57.9429 168.5 1.97851 139.958 1.97851 104.75L1.97851 187C1.97851 222.208 57.9429 250.75 126.979 250.75Z" fill="#F9F9F9"/>
<path d="M251.979 104.75C251.979 69.5418 196.014 41 126.979 41C57.9429 41 1.97851 69.5418 1.97851 104.75M251.979 104.75C251.979 139.958 196.014 168.5 126.979 168.5C57.9429 168.5 1.97851 139.958 1.97851 104.75M251.979 104.75L251.979 187C251.979 222.208 196.014 250.75 126.979 250.75C57.9429 250.75 1.97851 222.208 1.97851 187L1.97851 104.75" stroke="black" stroke-width="2" stroke-linejoin="round"/>
<path d="M126.979 41C196.014 41 251.979 69.5418 251.979 104.75C251.979 139.958 196.014 168.5 126.979 168.5C57.9429 168.5 1.97851 139.958 1.97851 104.75C1.97851 69.5418 57.9429 41 126.979 41Z" fill="#F9F9F9"/>
<path d="M251.979 104.75C251.979 69.5418 196.014 41 126.979 41C57.9429 41 1.97851 69.5418 1.97851 104.75M251.979 104.75C251.979 139.958 196.014 168.5 126.979 168.5C57.9429 168.5 1.97851 139.958 1.97851 104.75M251.979 104.75L251.979 187C251.979 222.208 196.014 250.75 126.979 250.75C57.9429 250.75 1.97851 222.208 1.97851 187L1.97851 104.75" stroke="black" stroke-width="2" stroke-linejoin="round"/>
<path d="M127.354 1C154.767 0.999999 177.686 10.9086 183.34 24.1499C184.216 26.2008 184.678 28.3317 184.678 30.5181C184.678 34.4829 183.16 38.2652 180.407 41.7192C177.528 45.3308 173.299 48.5835 168.043 51.3106C162.809 54.0258 156.558 56.2201 149.609 57.7291C142.766 59.2148 135.246 60.0362 127.354 60.0362C119.461 60.0362 111.941 59.2148 105.098 57.7291C98.1486 56.2201 91.8976 54.0258 86.6645 51.3106C81.4084 48.5835 77.1793 45.3308 74.3005 41.7192C71.5473 38.2652 70.0292 34.4829 70.0292 30.5181C70.0292 28.3317 70.4909 26.2008 71.3667 24.1499C77.0212 10.9086 99.9402 1 127.354 1Z" fill="#F9F9F9"/>
<path d="M127.354 138C138.904 138 149.915 136.814 159.95 134.667C169.991 132.518 179.054 129.407 186.701 125.557C194.722 121.519 201.185 116.67 205.584 111.267C209.784 106.11 212.104 100.45 212.104 94.5115C212.104 91.9764 211.681 89.4919 210.87 87.0757C210.564 86.1643 210.202 85.2627 209.788 84.3717L183.34 24.1499C184.216 26.2008 184.678 28.3317 184.678 30.5181C184.678 34.4829 183.16 38.2652 180.407 41.7192C177.528 45.3308 173.299 48.5835 168.043 51.3106C162.809 54.0258 156.558 56.2201 149.609 57.7291C142.766 59.2148 135.246 60.0362 127.354 60.0362C119.461 60.0362 111.941 59.2148 105.098 57.7291C98.1486 56.2201 91.8976 54.0258 86.6645 51.3106C81.4084 48.5835 77.1793 45.3308 74.3005 41.7192C71.5473 38.2652 70.0292 34.4829 70.0292 30.5181C70.0292 28.3317 70.4909 26.2008 71.3667 24.1499L44.9195 84.3717C43.4053 87.625 42.6035 91.0202 42.6035 94.5115C42.6035 100.45 44.9231 106.11 49.1227 111.267C53.5223 116.67 59.9852 121.519 68.006 125.557C75.653 129.407 84.7161 132.518 94.7574 134.667C104.792 136.814 115.803 138 127.354 138Z" fill="#F9F9F9"/>
<path d="M127.354 138V60.0362M127.354 138C138.904 138 149.915 136.814 159.95 134.667M127.354 138C115.803 138 104.792 136.814 94.7574 134.667M127.354 60.0362C135.246 60.0362 142.766 59.2148 149.609 57.7291M127.354 60.0362C119.461 60.0362 111.941 59.2148 105.098 57.7291M183.34 24.1499C177.686 10.9086 154.767 0.999999 127.354 1C99.9402 1 77.0212 10.9086 71.3667 24.1499M183.34 24.1499C184.216 26.2008 184.678 28.3317 184.678 30.5181C184.678 34.4829 183.16 38.2652 180.407 41.7192M183.34 24.1499L209.788 84.3717C210.202 85.2627 210.564 86.1643 210.87 87.0757C211.681 89.4919 212.104 91.9764 212.104 94.5115C212.104 100.45 209.784 106.11 205.584 111.267M71.3667 24.1499C70.4909 26.2008 70.0292 28.3317 70.0292 30.5181C70.0292 34.4829 71.5473 38.2652 74.3005 41.7192M71.3667 24.1499L44.9195 84.3717C43.4053 87.625 42.6035 91.0202 42.6035 94.5115C42.6035 100.45 44.9231 106.11 49.1227 111.267M149.609 57.7291L159.95 134.667M149.609 57.7291C156.558 56.2201 162.809 54.0258 168.043 51.3106M159.95 134.667C169.991 132.518 179.054 129.407 186.701 125.557M168.043 51.3106L186.701 125.557M168.043 51.3106C173.299 48.5835 177.528 45.3308 180.407 41.7192M186.701 125.557C194.722 121.519 201.185 116.67 205.584 111.267M180.407 41.7192L205.584 111.267M105.098 57.7291L94.7574 134.667M105.098 57.7291C98.1486 56.2201 91.8976 54.0258 86.6645 51.3106M94.7574 134.667C84.7161 132.518 75.653 129.407 68.006 125.557M68.006 125.557L86.6645 51.3106M68.006 125.557C59.9852 121.519 53.5223 116.67 49.1227 111.267M86.6645 51.3106C81.4084 48.5835 77.1793 45.3308 74.3005 41.7192M74.3005 41.7192L49.1227 111.267M177.035 30.5181H157.926" stroke="black" stroke-width="2" stroke-linejoin="round"/>
</svg>
