<svg width="253" height="252" viewBox="0 0 253 252" fill="none" xmlns="http://www.w3.org/2000/svg">
<path d="M126.104 40.5C195.139 40.5 251.104 69.0418 251.104 104.25C251.104 139.458 195.139 168 126.104 168C57.0679 168 1.10351 139.458 1.10351 104.25C1.10351 69.0418 57.0679 40.5 126.104 40.5Z" fill="#F9F9F9"/>
<path d="M126.104 250.25C195.139 250.25 251.104 221.708 251.104 186.5L251.104 104.25C251.104 139.458 195.139 168 126.104 168C57.0679 168 1.10351 139.458 1.10351 104.25L1.10351 186.5C1.10351 221.708 57.0679 250.25 126.104 250.25Z" fill="#F9F9F9"/>
<path d="M251.104 104.25C251.104 69.0418 195.139 40.5 126.104 40.5C57.0679 40.5 1.10351 69.0418 1.10351 104.25M251.104 104.25C251.104 139.458 195.139 168 126.104 168C57.0679 168 1.10351 139.458 1.10351 104.25M251.104 104.25L251.104 186.5C251.104 221.708 195.139 250.25 126.104 250.25C57.0679 250.25 1.10351 221.708 1.10351 186.5L1.10351 104.25" stroke="black" stroke-width="2" stroke-linejoin="round"/>
<path d="M126.104 40.5C195.139 40.5 251.104 69.0418 251.104 104.25C251.104 139.458 195.139 168 126.104 168C57.0679 168 1.10351 139.458 1.10351 104.25C1.10351 69.0418 57.0679 40.5 126.104 40.5Z" fill="#F9F9F9"/>
<path d="M251.104 104.25C251.104 69.0418 195.139 40.5 126.104 40.5C57.0679 40.5 1.10351 69.0418 1.10351 104.25M251.104 104.25C251.104 139.458 195.139 168 126.104 168C57.0679 168 1.10351 139.458 1.10351 104.25M251.104 104.25L251.104 186.5C251.104 221.708 195.139 250.25 126.104 250.25C57.0679 250.25 1.10351 221.708 1.10351 186.5L1.10351 104.25" stroke="black" stroke-width="2" stroke-linejoin="round"/>
<path d="M216.604 84.9349V109.375C216.604 113.635 215.478 117.76 213.37 121.678C220.232 115.701 224.104 108.927 224.104 101.75C224.104 95.7916 221.436 90.1116 216.604 84.9349Z" fill="#F9F9F9"/>
<path d="M216.604 47.6246C216.604 22.0703 176.086 1.35449 126.104 1.35449C76.1222 1.35449 35.604 22.0703 35.604 47.6246C35.604 73.179 76.1222 93.8948 126.104 93.8948C176.086 93.8948 216.604 73.1789 216.604 47.6246Z" fill="#F9F9F9"/>
<path d="M216.604 47.6246C216.604 73.1789 176.086 93.8948 126.104 93.8948C76.1222 93.8948 35.604 73.179 35.604 47.6246L35.604 84.9339L35.604 109.375C35.604 113.635 36.7304 117.762 38.8393 121.68C55.0779 135.822 88.0591 145.5 126.104 145.5C164.149 145.5 197.132 135.821 213.37 121.678C215.478 117.76 216.604 113.635 216.604 109.375V84.9349V47.6246Z" fill="#F9F9F9"/>
<path d="M35.604 109.375L35.604 84.9339C30.7718 90.1109 28.1035 95.7912 28.1035 101.75C28.1035 108.928 31.976 115.703 38.8393 121.68C36.7304 117.762 35.604 113.635 35.604 109.375Z" fill="#F9F9F9"/>
<path d="M216.604 47.6246C216.604 22.0703 176.086 1.35449 126.104 1.35449C76.1222 1.35449 35.604 22.0703 35.604 47.6246M216.604 47.6246C216.604 73.1789 176.086 93.8948 126.104 93.8948C76.1222 93.8948 35.604 73.179 35.604 47.6246M216.604 47.6246V84.9349M35.604 47.6246L35.604 84.9339M213.37 121.678C197.132 135.821 164.149 145.5 126.104 145.5C88.0591 145.5 55.0779 135.822 38.8393 121.68M213.37 121.678C215.478 117.76 216.604 113.635 216.604 109.375V84.9349M213.37 121.678C220.232 115.701 224.104 108.927 224.104 101.75C224.104 95.7916 221.436 90.1116 216.604 84.9349M35.604 84.9339L35.604 109.375C35.604 113.635 36.7304 117.762 38.8393 121.68M35.604 84.9339C30.7718 90.1109 28.1035 95.7912 28.1035 101.75C28.1035 108.928 31.976 115.703 38.8393 121.68" stroke="black" stroke-width="2" stroke-linejoin="round"/>
<path d="M216.604 84.9346V109.374C216.604 113.635 215.478 117.76 213.37 121.678C220.232 115.701 224.104 108.927 224.104 101.749C224.104 95.7913 221.436 90.1113 216.604 84.9346Z" fill="#F9F9F9"/>
<path d="M35.604 109.374L35.604 84.9336C30.7718 90.1106 28.1035 95.7909 28.1035 101.75C28.1035 108.928 31.976 115.702 38.8393 121.679C36.7304 117.761 35.604 113.635 35.604 109.374Z" fill="#F9F9F9"/>
<path d="M216.604 84.9346V109.374C216.604 113.635 215.478 117.76 213.37 121.678C220.232 115.701 224.104 108.927 224.104 101.749C224.104 95.7913 221.436 90.1113 216.604 84.9346Z" stroke="black" stroke-width="2" stroke-linejoin="round"/>
<path d="M35.604 109.374L35.604 84.9336C30.7718 90.1106 28.1035 95.7909 28.1035 101.75C28.1035 108.928 31.976 115.702 38.8393 121.679C36.7304 117.761 35.604 113.635 35.604 109.374Z" stroke="black" stroke-width="2" stroke-linejoin="round"/>
</svg>
