<svg width="253" height="253" viewBox="0 0 253 253" fill="none" xmlns="http://www.w3.org/2000/svg">
<path d="M126.104 41.5C195.139 41.5 251.104 70.0418 251.104 105.25C251.104 140.458 195.139 169 126.104 169C57.0679 169 1.10351 140.458 1.10351 105.25C1.10351 70.0418 57.0679 41.5 126.104 41.5Z" fill="#F9F9F9"/>
<path d="M126.104 251.25C195.139 251.25 251.104 222.708 251.104 187.5L251.104 105.25C251.104 140.458 195.139 169 126.104 169C57.0679 169 1.10351 140.458 1.10351 105.25L1.10351 187.5C1.10351 222.708 57.0679 251.25 126.104 251.25Z" fill="#F9F9F9"/>
<path d="M251.104 105.25C251.104 70.0418 195.139 41.5 126.104 41.5C57.0679 41.5 1.10351 70.0418 1.10351 105.25M251.104 105.25C251.104 140.458 195.139 169 126.104 169C57.0679 169 1.10351 140.458 1.10351 105.25M251.104 105.25L251.104 187.5C251.104 222.708 195.139 251.25 126.104 251.25C57.0679 251.25 1.10351 222.708 1.10351 187.5L1.10351 105.25" stroke="black" stroke-width="2" stroke-linejoin="round"/>
<path d="M126.104 41.5C195.139 41.5 251.104 70.0418 251.104 105.25C251.104 140.458 195.139 169 126.104 169C57.0679 169 1.10351 140.458 1.10351 105.25C1.10351 70.0418 57.0679 41.5 126.104 41.5Z" fill="#F9F9F9"/>
<path d="M251.104 105.25C251.104 70.0418 195.139 41.5 126.104 41.5C57.0679 41.5 1.10351 70.0418 1.10351 105.25M251.104 105.25C251.104 140.458 195.139 169 126.104 169C57.0679 169 1.10351 140.458 1.10351 105.25M251.104 105.25L251.104 187.5C251.104 222.708 195.139 251.25 126.104 251.25C57.0679 251.25 1.10351 222.708 1.10351 187.5L1.10351 105.25" stroke="black" stroke-width="2" stroke-linejoin="round"/>
<path d="M228.104 76.0743C228.104 109.447 182.437 136.5 126.104 136.5C69.7705 136.5 24.1035 109.447 24.1035 76.0743C24.1035 42.7021 69.7705 1 126.104 1C182.437 1 228.104 42.7021 228.104 76.0743Z" fill="#F9F9F9" stroke="black" stroke-width="2" stroke-linejoin="round"/>
<path d="M173.104 23.75C173.104 36.3145 152.061 46.5 126.104 46.5C100.146 46.5 79.1035 36.3145 79.1035 23.75C79.1035 11.1855 100.146 1 126.104 1C152.061 1 173.104 11.1855 173.104 23.75Z" fill="#F9F9F9" stroke="black" stroke-width="2" stroke-linejoin="round"/>
</svg>
