<svg width="253" height="268" viewBox="0 0 253 268" fill="none" xmlns="http://www.w3.org/2000/svg">
<path d="M251.104 202.5C251.104 237.708 195.139 266.25 126.104 266.25C57.0679 266.25 1.10351 237.708 1.10351 202.5L1.10351 120.25C1.10351 85.0418 57.0679 56.5 126.104 56.5C195.139 56.5 251.104 85.0418 251.104 120.25L251.104 202.5Z" fill="#F9F9F9"/>
<path d="M251.104 120.25C251.104 85.0418 195.139 56.5 126.104 56.5C57.0679 56.5 1.10351 85.0418 1.10351 120.25M251.104 120.25C251.104 155.458 195.139 184 126.104 184C57.0679 184 1.10351 155.458 1.10351 120.25M251.104 120.25L251.104 202.5C251.104 237.708 195.139 266.25 126.104 266.25C57.0679 266.25 1.10351 237.708 1.10351 202.5L1.10351 120.25" stroke="black" stroke-width="2" stroke-linejoin="round"/>
<path d="M251.104 120.25C251.104 85.0418 195.139 56.5 126.104 56.5C57.0679 56.5 1.10351 85.0418 1.10351 120.25M251.104 120.25C251.104 155.458 195.139 184 126.104 184C57.0679 184 1.10351 155.458 1.10351 120.25M251.104 120.25L251.104 202.5C251.104 237.708 195.139 266.25 126.104 266.25C57.0679 266.25 1.10351 237.708 1.10351 202.5L1.10351 120.25" stroke="black" stroke-width="2" stroke-linejoin="round"/>
<path d="M126.104 56.5C195.139 56.5 251.104 85.0418 251.104 120.25C251.104 155.458 195.139 184 126.104 184C57.0679 184 1.10351 155.458 1.10351 120.25C1.10351 85.0418 57.0679 56.5 126.104 56.5Z" fill="#F9F9F9" stroke="black" stroke-width="2" stroke-linejoin="round"/>
<path d="M188.604 63.5C188.604 98.0178 160.621 146 126.104 146C91.5857 146 63.6035 98.0178 63.6035 63.5C63.6035 28.9822 91.5857 1 126.104 1C160.621 1 188.604 28.9822 188.604 63.5Z" fill="#F9F9F9" stroke="black" stroke-width="2" stroke-linejoin="round"/>
<path d="M125.604 39L125.685 39.518C127.63 51.8227 137.281 61.4735 149.586 63.4181L150.104 63.5L149.586 63.5819C137.281 65.5265 127.63 75.1773 125.685 87.482L125.604 88L125.522 87.482C123.577 75.1773 113.926 65.5265 101.621 63.5819L101.104 63.5L101.621 63.4181C113.926 61.4735 123.577 51.8227 125.522 39.518L125.604 39Z" fill="#F9F9F9" stroke="black" stroke-width="2" stroke-linejoin="round"/>
</svg>
