<svg width="251" height="253" viewBox="0 0 251 253" fill="none" xmlns="http://www.w3.org/2000/svg">
<path d="M124.854 1.75C152.322 1.75 175.286 11.655 180.952 24.8915C181.83 26.9417 182.292 29.0718 182.292 31.2574C182.292 35.2208 180.771 39.0018 178.012 42.4545C175.128 46.0648 170.89 49.3163 165.624 52.0425C160.38 54.7567 154.117 56.9502 147.153 58.4586C140.297 59.9438 132.762 60.7649 124.854 60.7649C116.946 60.7649 109.411 59.9438 102.554 58.4586C95.591 56.9502 89.3275 54.7567 84.0841 52.0425C78.8176 49.3163 74.58 46.0648 71.6955 42.4545C68.9368 39.0018 67.4158 35.2209 67.4158 31.2574C67.4158 29.0718 67.8783 26.9417 68.7559 24.8915C74.4216 11.655 97.3861 1.75 124.854 1.75Z" fill="#F9F9F9"/>
<path d="M124.854 252C136.428 252 147.461 250.815 157.515 248.668C167.576 246.52 176.657 243.41 184.319 239.562C192.356 235.525 198.832 230.677 203.24 225.277C207.448 220.122 209.772 214.463 209.772 208.527C209.772 208.527 189.645 81.8068 180.952 24.8915C181.83 26.9417 182.292 29.0718 182.292 31.2574C182.292 35.2208 180.771 39.0018 178.012 42.4545C175.128 46.0648 170.89 49.3163 165.624 52.0425C160.38 54.7567 154.117 56.9502 147.153 58.4586C140.297 59.9438 132.762 60.7649 124.854 60.7649C116.946 60.7649 109.411 59.9438 102.554 58.4586C95.591 56.9502 89.3275 54.7567 84.0841 52.0425C78.8176 49.3163 74.58 46.0648 71.6955 42.4545C68.9368 39.0018 67.4158 35.2209 67.4158 31.2574C67.4158 29.0718 67.8783 26.9417 68.7559 24.8915C59.785 83.6254 39.9355 208.527 39.9355 208.527C39.9355 214.463 42.2598 220.122 46.4677 225.277C50.876 230.677 57.3518 235.525 65.3885 239.562C73.0507 243.41 82.1318 246.52 92.193 248.668C102.247 250.815 113.28 252 124.854 252Z" fill="#F9F9F9"/>
<path d="M124.854 252V60.7649M124.854 252C136.428 252 147.461 250.815 157.515 248.668M124.854 252C113.28 252 102.247 250.815 92.193 248.668M124.854 60.7649C132.762 60.7649 140.297 59.9438 147.153 58.4586M124.854 60.7649C116.946 60.7649 109.411 59.9438 102.554 58.4586M180.952 24.8915C175.286 11.655 152.322 1.75 124.854 1.75C97.3861 1.75 74.4216 11.655 68.7559 24.8915M180.952 24.8915C181.83 26.9417 182.292 29.0718 182.292 31.2574C182.292 35.2208 180.771 39.0018 178.012 42.4545M180.952 24.8915C189.645 81.8068 209.772 208.527 209.772 208.527C209.772 214.463 207.448 220.122 203.24 225.277M68.7559 24.8915C67.8783 26.9417 67.4158 29.0718 67.4158 31.2574C67.4158 35.2209 68.9368 39.0018 71.6955 42.4545M68.7559 24.8915C59.785 83.6254 39.9355 208.527 39.9355 208.527C39.9355 214.463 42.2598 220.122 46.4677 225.277M147.153 58.4586L157.515 248.668M147.153 58.4586C154.117 56.9502 160.38 54.7567 165.624 52.0425M157.515 248.668C167.576 246.52 176.657 243.41 184.319 239.562M165.624 52.0425L184.319 239.562M165.624 52.0425C170.89 49.3163 175.128 46.0648 178.012 42.4545M184.319 239.562C192.356 235.525 198.832 230.677 203.24 225.277M178.012 42.4545L203.24 225.277M102.554 58.4586L92.193 248.668M102.554 58.4586C95.591 56.9502 89.3275 54.7567 84.0841 52.0425M92.193 248.668C82.1318 246.52 73.0507 243.41 65.3885 239.562M65.3885 239.562L84.0841 52.0425M65.3885 239.562C57.3518 235.525 50.876 230.677 46.4677 225.277M84.0841 52.0425C78.8176 49.3163 74.58 46.0648 71.6955 42.4545M71.6955 42.4545L46.4677 225.277M174.634 31.2574H155.488" stroke="black" stroke-width="2" stroke-linejoin="round"/>
</svg>
