<svg width="252" height="250" viewBox="0 0 252 250" fill="none" xmlns="http://www.w3.org/2000/svg">
<path d="M48.4008 137.245C29.2651 118.109 33.7764 82.573 58.4771 57.8724C83.1777 33.1717 118.714 28.6604 137.85 47.7961L103.202 13.1479C84.0659 -5.98782 48.5295 -1.47652 23.8289 23.2241C-0.87181 47.9248 -5.38311 83.4612 13.7526 102.597L48.4008 137.245Z" fill="#F9F9F9"/>
<path d="M64.3632 137.193C49.6209 122.45 54.1087 94.0605 74.387 73.7823C94.6653 53.504 123.055 49.0162 137.797 63.7585C152.54 78.5008 148.052 106.891 127.774 127.169C152.474 102.468 156.986 66.9318 137.85 47.7961C118.714 28.6604 83.1777 33.1717 58.4771 57.8724C33.7764 82.573 29.2651 118.109 48.4008 137.245C67.5365 156.381 103.073 151.869 127.774 127.169C107.495 147.447 79.1055 151.935 64.3632 137.193Z" fill="#F9F9F9"/>
<path d="M74.387 73.7823C54.1087 94.0605 49.6209 122.45 64.3632 137.193C79.1055 151.935 107.495 147.447 127.774 127.169C148.052 106.891 152.54 78.5008 137.797 63.7585C123.055 49.0162 94.6653 53.504 74.387 73.7823Z" fill="#F9F9F9"/>
<path d="M127.774 127.169C148.052 106.891 152.54 78.5008 137.797 63.7585C123.055 49.0162 94.6653 53.504 74.387 73.7823C54.1087 94.0605 49.6209 122.45 64.3632 137.193C79.1055 151.935 107.495 147.447 127.774 127.169ZM127.774 127.169C152.474 102.468 156.986 66.9318 137.85 47.7961M127.774 127.169C103.073 151.869 67.5365 156.381 48.4008 137.245M48.4008 137.245C29.2651 118.109 33.7764 82.573 58.4771 57.8724C83.1777 33.1717 118.714 28.6604 137.85 47.7961M48.4008 137.245L13.7526 102.597C-5.38311 83.4612 -0.871807 47.9248 23.8289 23.2241C48.5295 -1.47652 84.0659 -5.98782 103.202 13.1479L137.85 47.7961" stroke="black" stroke-width="2" stroke-linejoin="round"/>
<path d="M64.3632 137.193C49.6209 122.45 54.1087 94.0605 74.387 73.7823C94.6653 53.504 123.055 49.0162 137.797 63.7585C152.54 78.5008 148.052 106.891 127.774 127.169C152.474 102.468 156.986 66.9318 137.85 47.7961C118.714 28.6604 83.1777 33.1717 58.4771 57.8724C33.7764 82.573 29.2651 118.109 48.4008 137.245C67.5365 156.381 103.073 151.869 127.774 127.169C107.495 147.447 79.1055 151.935 64.3632 137.193Z" fill="#F9F9F9"/>
<path d="M74.387 73.7823C54.1087 94.0605 49.6209 122.45 64.3632 137.193C79.1055 151.935 107.495 147.447 127.774 127.169C148.052 106.891 152.54 78.5008 137.797 63.7585C123.055 49.0162 94.6653 53.504 74.387 73.7823Z" fill="#F9F9F9"/>
<path d="M127.774 127.169C148.052 106.891 152.54 78.5008 137.797 63.7585C123.055 49.0162 94.6653 53.504 74.387 73.7823C54.1087 94.0605 49.6209 122.45 64.3632 137.193C79.1055 151.935 107.495 147.447 127.774 127.169ZM127.774 127.169C152.474 102.468 156.986 66.9318 137.85 47.7961C118.714 28.6604 83.1777 33.1717 58.4771 57.8724C33.7764 82.573 29.2651 118.109 48.4008 137.245C67.5365 156.381 103.073 151.869 127.774 127.169Z" stroke="black" stroke-width="2" stroke-linejoin="round"/>
<path d="M145.401 232.245C126.265 213.109 130.776 177.573 155.477 152.872C180.178 128.172 215.714 123.66 234.85 142.796L200.202 108.148C181.066 89.0122 145.53 93.5235 120.829 118.224C96.1282 142.925 91.6169 178.461 110.753 197.597L145.401 232.245Z" fill="#F9F9F9"/>
<path d="M161.363 232.193C146.621 217.45 151.109 189.061 171.387 168.782C191.665 148.504 220.055 144.016 234.797 158.758C249.54 173.501 245.052 201.891 224.774 222.169C249.474 197.468 253.986 161.932 234.85 142.796C215.714 123.66 180.178 128.172 155.477 152.872C130.776 177.573 126.265 213.109 145.401 232.245C164.537 251.381 200.073 246.869 224.774 222.169C204.495 242.447 176.105 246.935 161.363 232.193Z" fill="#F9F9F9"/>
<path d="M171.387 168.782C151.109 189.061 146.621 217.45 161.363 232.193C176.105 246.935 204.495 242.447 224.774 222.169C245.052 201.891 249.54 173.501 234.797 158.758C220.055 144.016 191.665 148.504 171.387 168.782Z" fill="#F9F9F9"/>
<path d="M224.774 222.169C245.052 201.891 249.54 173.501 234.797 158.758C220.055 144.016 191.665 148.504 171.387 168.782C151.109 189.061 146.621 217.45 161.363 232.193C176.105 246.935 204.495 242.447 224.774 222.169ZM224.774 222.169C249.474 197.468 253.986 161.932 234.85 142.796M224.774 222.169C200.073 246.869 164.537 251.381 145.401 232.245M145.401 232.245C126.265 213.109 130.776 177.573 155.477 152.872C180.178 128.172 215.714 123.66 234.85 142.796M145.401 232.245L110.753 197.597C91.6169 178.461 96.1282 142.925 120.829 118.224C145.53 93.5235 181.066 89.0122 200.202 108.148L234.85 142.796" stroke="black" stroke-width="2" stroke-linejoin="round"/>
<path d="M161.363 232.193C146.621 217.45 151.109 189.061 171.387 168.782C191.665 148.504 220.055 144.016 234.797 158.758C249.54 173.501 245.052 201.891 224.774 222.169C249.474 197.468 253.986 161.932 234.85 142.796C215.714 123.66 180.178 128.172 155.477 152.872C130.776 177.573 126.265 213.109 145.401 232.245C164.537 251.381 200.073 246.869 224.774 222.169C204.495 242.447 176.105 246.935 161.363 232.193Z" fill="#F9F9F9"/>
<path d="M171.387 168.782C151.109 189.061 146.621 217.45 161.363 232.193C176.105 246.935 204.495 242.447 224.774 222.169C245.052 201.891 249.54 173.501 234.797 158.758C220.055 144.016 191.665 148.504 171.387 168.782Z" fill="#F9F9F9"/>
<path d="M224.774 222.169C245.052 201.891 249.54 173.501 234.797 158.758C220.055 144.016 191.665 148.504 171.387 168.782C151.109 189.061 146.621 217.45 161.363 232.193C176.105 246.935 204.495 242.447 224.774 222.169ZM224.774 222.169C249.474 197.468 253.986 161.932 234.85 142.796C215.714 123.66 180.178 128.172 155.477 152.872C130.776 177.573 126.265 213.109 145.401 232.245C164.537 251.381 200.073 246.869 224.774 222.169Z" stroke="black" stroke-width="2" stroke-linejoin="round"/>
</svg>
