<svg width="253" height="261" viewBox="0 0 253 261" fill="none" xmlns="http://www.w3.org/2000/svg">
<path d="M214.492 237.113C165.676 254.296 86.5307 254.296 37.7152 237.113C6.39981 226.09 -4.82662 210.673 4.03587 196.5C4.08395 196.423 4.13261 196.346 4.18188 196.269C9.20711 188.433 20.3849 180.988 37.7152 174.887C45.7359 172.064 54.5753 169.705 63.9646 167.809C83.1477 163.936 104.626 162 126.104 162C158.094 162 190.084 166.296 214.492 174.887C231.822 180.988 243 188.433 248.025 196.269C248.074 196.346 248.123 196.423 248.171 196.5C257.034 210.673 245.807 226.09 214.492 237.113Z" fill="#F9F9F9"/>
<path d="M37.7152 174.887C45.7359 172.064 54.5753 169.705 63.9646 167.809L126.104 3.75L4.18188 196.269C9.20711 188.433 20.3849 180.988 37.7152 174.887Z" fill="#F9F9F9"/>
<path d="M126.104 162V3.75L63.9646 167.809C83.1477 163.936 104.626 162 126.104 162Z" fill="#F9F9F9"/>
<path d="M214.492 174.887L126.104 3.75V162C158.094 162 190.084 166.296 214.492 174.887Z" fill="#F9F9F9"/>
<path d="M214.492 174.887C231.822 180.988 243 188.433 248.025 196.269L126.104 3.75L214.492 174.887Z" fill="#F9F9F9"/>
<path d="M37.7152 237.113C86.5307 254.296 165.676 254.296 214.492 237.113C245.807 226.09 257.034 210.673 248.171 196.5M37.7152 237.113L126.104 206M37.7152 237.113C6.39981 226.09 -4.82662 210.673 4.03587 196.5M37.7152 237.113L63.9646 167.809M214.492 174.887L126.104 206M214.492 174.887L126.104 3.75M214.492 174.887C190.084 166.296 158.094 162 126.104 162M214.492 174.887C231.822 180.988 243 188.433 248.025 196.269M126.104 206V260.75M126.104 206V162M126.104 3.75L63.9646 167.809M126.104 3.75L4.18188 196.269M126.104 3.75V162M126.104 3.75L248.025 196.269M248.171 196.5L248.025 196.269M248.171 196.5C248.123 196.423 248.074 196.346 248.025 196.269M4.03587 196.5L4.18188 196.269M4.03587 196.5C4.08395 196.423 4.13261 196.346 4.18188 196.269M63.9646 167.809C54.5753 169.705 45.7359 172.064 37.7152 174.887C20.3849 180.988 9.20711 188.433 4.18188 196.269M63.9646 167.809C83.1477 163.936 104.626 162 126.104 162" stroke="black" stroke-width="2" stroke-linejoin="round"/>
<path d="M126.103 162V3.75L63.9642 167.809C83.1474 163.936 104.625 162 126.103 162Z" fill="#F9F9F9"/>
<path d="M214.492 174.887L126.103 3.75V162C158.093 162 190.084 166.296 214.492 174.887Z" fill="#F9F9F9"/>
<path d="M37.7148 237.113L126.103 206V162C104.625 162 83.1474 163.936 63.9642 167.809L37.7148 237.113Z" fill="#F9F9F9"/>
<path d="M126.103 206L214.492 174.887C190.084 166.296 158.093 162 126.103 162V206Z" fill="#F9F9F9"/>
<path d="M214.492 174.887L126.103 206M214.492 174.887L126.103 3.75M214.492 174.887C190.084 166.296 158.093 162 126.103 162M126.103 206L37.7148 237.113L63.9642 167.809M126.103 206V260.75M126.103 206V162M126.103 3.75L63.9642 167.809M126.103 3.75V162M63.9642 167.809C83.1474 163.936 104.625 162 126.103 162" stroke="black" stroke-width="2" stroke-linejoin="round"/>
</svg>
