<svg width="253" height="251" viewBox="0 0 253 251" fill="none" xmlns="http://www.w3.org/2000/svg">
<path d="M248.035 196.033C235.451 176.33 185.638 161.616 126.104 161.616V4L248.035 196.033Z" fill="#F9F9F9"/>
<path d="M4.17194 196.033L126.104 4L64.1244 167.422C34.1707 173.48 11.9887 183.794 4.17194 196.033Z" fill="#F9F9F9"/>
<path d="M126.104 4V161.616C103.55 161.616 82.3921 163.728 64.1244 167.422L126.104 4Z" fill="#F9F9F9"/>
<path d="M126.104 205.692L37.7152 237.056L64.1244 167.422C82.3921 163.728 103.55 161.616 126.104 161.616V205.692Z" fill="#F9F9F9"/>
<path fill-rule="evenodd" clip-rule="evenodd" d="M1.1035 205.808C1.1035 218.011 15.0946 229.059 37.7152 237.056L64.1244 167.422C34.1707 173.48 11.9887 183.794 4.17194 196.033C4.149 196.069 4.12619 196.105 4.10352 196.141C2.13953 199.252 1.1035 202.487 1.1035 205.808Z" fill="#F9F9F9"/>
<path d="M251.104 205.808C251.104 230.215 195.139 250 126.104 250C91.5857 250 60.3357 245.054 37.7152 237.056L126.104 205.692V161.616C185.638 161.616 235.451 176.33 248.035 196.033L248.104 196.141C250.068 199.252 251.104 202.487 251.104 205.808Z" fill="#F9F9F9"/>
<path d="M126.104 161.616C185.638 161.616 235.451 176.33 248.035 196.033M126.104 161.616V4M126.104 161.616C103.55 161.616 82.3921 163.728 64.1244 167.422M126.104 161.616V205.692M126.104 205.692L37.7152 237.056M126.104 205.692V4M37.7152 237.056C15.0946 229.059 1.1035 218.011 1.1035 205.808C1.1035 202.487 2.13953 199.252 4.10352 196.141M37.7152 237.056C60.3357 245.054 91.5857 250 126.104 250C195.139 250 251.104 230.215 251.104 205.808C251.104 202.487 250.068 199.252 248.104 196.141M37.7152 237.056L64.1244 167.422M126.104 4L248.035 196.033M126.104 4L64.1244 167.422M126.104 4L4.17194 196.033M4.10352 196.141C4.1262 196.105 4.14901 196.069 4.17194 196.033M4.10352 196.141L4.17194 196.033M248.104 196.141L248.035 196.033M248.104 196.141C248.081 196.105 248.058 196.069 248.035 196.033M64.1244 167.422C34.1707 173.48 11.9887 183.794 4.17194 196.033" stroke="black" stroke-width="2" stroke-linejoin="round"/>
<path d="M126.104 4V161.616C103.55 161.616 82.3921 163.728 64.1244 167.422L126.104 4Z" fill="#F9F9F9"/>
<path d="M126.104 205.692L37.7152 237.056L64.1244 167.422C82.3921 163.728 103.55 161.616 126.104 161.616V205.692Z" fill="#F9F9F9"/>
<path d="M126.104 161.616V4M126.104 161.616C103.55 161.616 82.3921 163.728 64.1244 167.422M126.104 161.616V205.692M126.104 205.692L37.7152 237.056L64.1244 167.422M126.104 205.692V4M126.104 4L64.1244 167.422" stroke="black" stroke-width="2" stroke-linejoin="round"/>
<path d="M131.437 205.808C131.437 208.754 129.049 211.141 126.104 211.141C123.158 211.141 120.77 208.754 120.77 205.808C120.77 202.863 123.158 200.475 126.104 200.475C129.049 200.475 131.437 202.863 131.437 205.808ZM43.0872 237.043C43.0872 239.988 40.6994 242.376 37.7539 242.376C34.8084 242.376 32.4206 239.988 32.4206 237.043C32.4206 234.097 34.8084 231.709 37.7539 231.709C40.6994 231.709 43.0872 234.097 43.0872 237.043ZM126.104 4L125.169 3.64539C125.34 3.194 125.809 2.92936 126.284 3.01638C126.759 3.1034 127.104 3.51724 127.104 4L126.104 4ZM126.437 206.751L38.0872 237.986L37.4206 236.1L125.77 204.865L126.437 206.751ZM127.039 4.35461L38.6502 237.411L36.7802 236.702L125.169 3.64539L127.039 4.35461ZM125.104 205.692V4H127.104V205.692H125.104Z" fill="black"/>
</svg>
