<svg width="262" height="262" viewBox="0 0 262 262" fill="none" xmlns="http://www.w3.org/2000/svg">
<path d="M198.367 256L256.104 201.902L256.104 6L198.367 60.0967V201.903V256Z" fill="#F9F9F9"/>
<path d="M63.8396 201.903L6.10352 256V60.0967L63.8396 6V60.0967V201.903Z" fill="#F9F9F9"/>
<path d="M63.8396 201.903L6.10352 256H198.367V201.903L63.8396 201.903Z" fill="#F9F9F9"/>
<path d="M63.8396 60.0967V201.903L198.367 201.903V60.0967H63.8396Z" fill="#F9F9F9"/>
<path d="M198.367 60.0967L256.104 6H63.8396V60.0967H198.367Z" fill="#F9F9F9"/>
<path d="M256.104 201.902L198.367 256M256.104 201.902L256.104 6M256.104 201.902L198.367 201.903M198.367 256H6.10352M198.367 256V201.903M6.10352 256L63.8396 201.903M6.10352 256V60.0967M63.8396 201.903L198.367 201.903M63.8396 201.903V60.0967M256.104 6L198.367 60.0967M256.104 6H63.8396M198.367 60.0967V201.903M198.367 60.0967H63.8396M6.10352 60.0967L63.8396 6M6.10352 60.0967H63.8396M63.8396 6V60.0967" stroke="black" stroke-width="2" stroke-linejoin="round"/>
<path d="M63.8396 201.903L6.10352 256H198.367V201.903L63.8396 201.903Z" fill="#F9F9F9"/>
<path d="M198.367 60.0967L256.104 6H63.8396V60.0967H198.367Z" fill="#F9F9F9"/>
<path d="M63.8396 6L6.10352 60.0967H63.8396V6Z" fill="#F9F9F9"/>
<path d="M198.367 256L256.104 201.902L198.367 201.903V256Z" fill="#F9F9F9"/>
<path d="M198.367 256L256.104 201.902L198.367 201.903M198.367 256H6.10352L63.8396 201.903L198.367 201.903M198.367 256V201.903M63.8396 6L6.10352 60.0967H63.8396M63.8396 6H256.104L198.367 60.0967H63.8396M63.8396 6V60.0967" stroke="black" stroke-width="2" stroke-linejoin="round"/>
<path d="M58.5065 201.903C58.5065 204.849 60.8943 207.237 63.8398 207.237C66.7854 207.237 69.1732 204.849 69.1732 201.903C69.1732 198.958 66.7854 196.57 63.8398 196.57C60.8943 196.57 58.5065 198.958 58.5065 201.903ZM250.77 201.903C250.77 204.849 253.158 207.237 256.104 207.237C259.049 207.237 261.437 204.849 261.437 201.903C261.437 198.958 259.049 196.57 256.104 196.57C253.158 196.57 250.77 198.958 250.77 201.903ZM63.8398 202.903H256.104V200.903H63.8398V202.903Z" fill="black"/>
<path d="M58.5065 6C58.5065 8.94552 60.8943 11.3333 63.8398 11.3333C66.7854 11.3333 69.1732 8.94552 69.1732 6C69.1732 3.05448 66.7854 0.666667 63.8398 0.666667C60.8943 0.666667 58.5065 3.05448 58.5065 6ZM250.77 6C250.77 8.94552 253.158 11.3333 256.104 11.3333C259.049 11.3333 261.437 8.94552 261.437 6C261.437 3.05448 259.049 0.666667 256.104 0.666667C253.158 0.666667 250.77 3.05448 250.77 6ZM63.8398 7H256.104V5H63.8398V7Z" fill="black"/>
<path d="M193.034 256C193.034 258.946 195.422 261.333 198.367 261.333C201.313 261.333 203.701 258.946 203.701 256C203.701 253.054 201.313 250.667 198.367 250.667C195.422 250.667 193.034 253.054 193.034 256ZM0.770182 256C0.770182 258.946 3.158 261.333 6.10352 261.333C9.04903 261.333 11.4368 258.946 11.4368 256C11.4368 253.054 9.04903 250.667 6.10352 250.667C3.158 250.667 0.770182 253.054 0.770182 256ZM198.367 255H6.10352V257H198.367V255Z" fill="black"/>
<path d="M193.034 60.0967C193.034 63.0422 195.422 65.43 198.367 65.43C201.313 65.43 203.701 63.0422 203.701 60.0967C203.701 57.1512 201.313 54.7633 198.367 54.7633C195.422 54.7633 193.034 57.1512 193.034 60.0967ZM0.770182 60.0967C0.770182 63.0422 3.158 65.43 6.10352 65.43C9.04903 65.43 11.4368 63.0422 11.4368 60.0967C11.4368 57.1512 9.04903 54.7633 6.10352 54.7633C3.158 54.7633 0.770182 57.1512 0.770182 60.0967ZM198.367 59.0967H6.10352V61.0967H198.367V59.0967Z" fill="black"/>
</svg>
