<svg width="251" height="256" viewBox="0 0 251 256" fill="none" xmlns="http://www.w3.org/2000/svg">
<path d="M125.127 1L233.138 63.5V153.457C233.138 153.554 233.138 153.652 233.138 153.75V188.5L125.127 251L17.1152 188.5V153.75V63.5L125.127 1Z" fill="#F9F9F9"/>
<path d="M233.138 63.5L125.127 1L17.1152 63.5M233.138 63.5L125.127 126M233.138 63.5V153.457M233.138 153.75C233.138 153.652 233.138 153.554 233.138 153.457M233.138 153.75V153.457M233.138 153.75V188.5L125.127 251M17.1152 63.5V153.75V188.5L125.127 251M17.1152 63.5L125.127 126M125.127 126V216.25V251" stroke="black" stroke-width="2" stroke-linejoin="round"/>
<path d="M125.009 250.644L232.957 63.3223H17.1035L125.009 250.644Z" fill="#F9F9F9" stroke="black" stroke-width="2" stroke-linejoin="round"/>
<path d="M227.582 63.6782C227.582 66.6237 229.97 69.0116 232.916 69.0116C235.861 69.0116 238.249 66.6237 238.249 63.6782C238.249 60.7327 235.861 58.3449 232.916 58.3449C229.97 58.3449 227.582 60.7327 227.582 63.6782ZM119.676 250.288C119.676 253.233 122.064 255.621 125.01 255.621C127.955 255.621 130.343 253.233 130.343 250.288C130.343 247.342 127.955 244.955 125.01 244.955C122.064 244.955 119.676 247.342 119.676 250.288ZM232.05 63.1776L124.144 249.787L125.875 250.788L233.781 64.1788L232.05 63.1776Z" fill="black"/>
<path d="M12.1266 64.3901C12.1266 67.3357 14.5144 69.7235 17.46 69.7235C20.4055 69.7235 22.7933 67.3357 22.7933 64.3901C22.7933 61.4446 20.4055 59.0568 17.46 59.0568C14.5144 59.0568 12.1266 61.4446 12.1266 64.3901ZM119.676 250.644C119.676 253.589 122.064 255.977 125.01 255.977C127.955 255.977 130.343 253.589 130.343 250.644C130.343 247.698 127.955 245.31 125.01 245.31C122.064 245.31 119.676 247.698 119.676 250.644ZM16.594 64.8902L124.144 251.144L125.876 250.144L18.326 63.8901L16.594 64.8902Z" fill="black"/>
<path d="M12.4831 63.3218C12.4831 66.2673 14.8709 68.6551 17.8164 68.6551C20.7619 68.6551 23.1497 66.2673 23.1497 63.3218C23.1497 60.3763 20.7619 57.9884 17.8164 57.9884C14.8709 57.9884 12.4831 60.3763 12.4831 63.3218ZM226.871 63.3218C226.871 66.2673 229.258 68.6551 232.204 68.6551C235.149 68.6551 237.537 66.2673 237.537 63.3218C237.537 60.3763 235.149 57.9884 232.204 57.9884C229.258 57.9884 226.871 60.3763 226.871 63.3218ZM17.8164 64.3218H232.204V62.3218H17.8164V64.3218Z" fill="black"/>
<path d="M233.138 63.5L125.127 126M17.1152 63.5L125.127 126M125.127 126V216.25V251" stroke="black" stroke-width="2" stroke-linejoin="round"/>
</svg>
