<svg width="262" height="262" viewBox="0 0 262 262" fill="none" xmlns="http://www.w3.org/2000/svg">
<path d="M6.10352 256L131.104 6L63.8396 201.903L6.10352 256Z" fill="#F9F9F9"/>
<path d="M198.367 256L183.812 201.903H63.8396L6.10352 256H198.367Z" fill="#F9F9F9"/>
<path d="M198.367 256L256.104 201.903H183.812L198.367 256Z" fill="#F9F9F9"/>
<path d="M131.104 6L63.8396 201.903H183.812L131.104 6Z" fill="#F9F9F9"/>
<path d="M256.104 201.903L131.104 6L183.812 201.903H256.104Z" fill="#F9F9F9"/>
<path d="M256.104 201.903L131.104 6M256.104 201.903L198.367 256M256.104 201.903H183.812M198.367 256H6.10352M198.367 256L183.812 201.903M6.10352 256L131.104 6M6.10352 256L63.8396 201.903M63.8396 201.903L131.104 6M63.8396 201.903H183.812M131.104 6L183.812 201.903" stroke="black" stroke-width="2" stroke-linejoin="round"/>
<path d="M198.367 256L183.812 201.903H63.8396L6.10352 256H198.367Z" fill="#F9F9F9"/>
<path d="M198.367 256L256.104 201.903H183.812L198.367 256Z" fill="#F9F9F9"/>
<path d="M198.367 256H6.10352L63.8396 201.903H183.812M198.367 256L256.104 201.903H183.812M198.367 256L183.812 201.903" stroke="black" stroke-width="2" stroke-linejoin="round"/>
<path d="M131.104 6L198.367 256L227.235 228.952L256.104 201.903L131.169 6.10192M131.104 6L6.10352 256L34.9715 228.952L63.8396 201.903L131.104 6Z" stroke="black" stroke-width="2" stroke-linejoin="round"/>
<path d="M58.5065 201.903C58.5065 204.849 60.8943 207.237 63.8398 207.237C66.7854 207.237 69.1732 204.849 69.1732 201.903C69.1732 198.958 66.7854 196.57 63.8398 196.57C60.8943 196.57 58.5065 198.958 58.5065 201.903ZM250.77 201.903C250.77 204.849 253.158 207.237 256.104 207.237C259.049 207.237 261.437 204.849 261.437 201.903C261.437 198.958 259.049 196.57 256.104 196.57C253.158 196.57 250.77 198.958 250.77 201.903ZM63.8398 202.903H256.104V200.903H63.8398V202.903Z" fill="black"/>
<path d="M193.034 256C193.034 258.946 195.422 261.333 198.367 261.333C201.313 261.333 203.701 258.946 203.701 256C203.701 253.054 201.313 250.667 198.367 250.667C195.422 250.667 193.034 253.054 193.034 256ZM0.770182 256C0.770182 258.946 3.158 261.333 6.10352 261.333C9.04903 261.333 11.4368 258.946 11.4368 256C11.4368 253.054 9.04903 250.667 6.10352 250.667C3.158 250.667 0.770182 253.054 0.770182 256ZM198.367 255H6.10352V257H198.367V255Z" fill="black"/>
</svg>
