<svg width="253" height="252" viewBox="0 0 253 252" fill="none" xmlns="http://www.w3.org/2000/svg">
<path d="M251.104 126C251.104 91.4822 237.112 60.2322 214.492 37.6116C191.871 14.9911 160.621 1 126.104 1C57.0679 1 1.10352 56.9644 1.10352 126C1.10352 195.036 57.0679 251 126.104 251C195.139 251 251.104 195.036 251.104 126Z" fill="#F9F9F9"/>
<path d="M251.104 126C251.104 138.012 237.112 148.887 214.492 156.759C191.871 164.631 160.621 169.5 126.104 169.5C57.0679 169.5 1.10352 150.024 1.10352 126C1.10352 101.976 57.0679 82.5 126.104 82.5C195.139 82.5 251.104 101.976 251.104 126Z" fill="#F9F9F9"/>
<path d="M126.104 1C151.371 0.999999 174.246 14.9911 190.804 37.6117C207.362 60.2322 217.604 91.4822 217.604 126C217.604 195.036 176.638 251 126.104 251C75.5695 251 34.6035 195.036 34.6035 126C34.6035 56.9644 75.5695 1 126.104 1Z" fill="#F9F9F9"/>
<path d="M251.104 126C251.104 195.036 195.139 251 126.104 251M251.104 126C251.104 91.4822 237.112 60.2322 214.492 37.6116C191.871 14.9911 160.621 1 126.104 1M251.104 126C251.104 101.976 195.139 82.5 126.104 82.5C57.0679 82.5 1.10352 101.976 1.10352 126M251.104 126C251.104 138.012 237.112 148.887 214.492 156.759C191.871 164.631 160.621 169.5 126.104 169.5C57.0679 169.5 1.10352 150.024 1.10352 126M126.104 1C57.0679 1 1.10352 56.9644 1.10352 126M126.104 1C75.5695 1 34.6035 56.9644 34.6035 126C34.6035 195.036 75.5695 251 126.104 251M126.104 1C151.371 0.999999 174.246 14.9911 190.804 37.6117C207.362 60.2322 217.604 91.4822 217.604 126C217.604 195.036 176.638 251 126.104 251M1.10352 126C1.10352 195.036 57.0679 251 126.104 251M214.453 156.746L126.104 126L190.775 37.6504" stroke="black" stroke-width="2" stroke-linejoin="round"/>
<path d="M214.835 156.639C237.254 148.777 251.104 137.951 251.104 126C251.104 114.049 237.254 103.223 214.835 95.3606C216.643 105.165 217.604 115.429 217.604 126C217.604 136.571 216.643 146.835 214.835 156.639Z" fill="#F9F9F9"/>
<path fill-rule="evenodd" clip-rule="evenodd" d="M217.604 126C217.604 115.429 216.643 105.165 214.835 95.3606C199.141 89.8569 179.248 85.8052 156.967 83.8361C147.096 82.9636 136.755 82.5 126.104 82.5C91.411 82.5 60.0194 87.4183 37.3723 95.3606C14.9533 103.223 1.10352 114.049 1.10352 126C1.10352 137.951 14.9533 148.777 37.3723 156.639C60.0194 164.582 91.411 169.5 126.104 169.5C160.621 169.5 191.871 164.631 214.492 156.759C214.562 156.735 214.632 156.71 214.702 156.686C214.746 156.67 214.79 156.655 214.835 156.639C216.643 146.835 217.604 136.571 217.604 126Z" fill="#F9F9F9"/>
<path d="M251.104 126C251.104 195.036 195.139 251 126.104 251M251.104 126C251.104 91.4822 237.112 60.2322 214.492 37.6116C191.871 14.9911 160.621 1 126.104 1M251.104 126C251.104 137.951 237.254 148.777 214.835 156.639M251.104 126C251.104 114.049 237.254 103.223 214.835 95.3606M126.104 1C57.0679 1 1.10352 56.9644 1.10352 126M126.104 1C151.371 0.999999 174.246 14.9911 190.804 37.6117C202.291 53.3048 210.738 73.1512 214.835 95.3606M126.104 1C83.3074 1 47.3735 41.1377 37.3723 95.3606M1.10352 126C1.10352 195.036 57.0679 251 126.104 251M1.10352 126C1.10352 114.049 14.9533 103.223 37.3723 95.3606M1.10352 126C1.10352 137.951 14.9533 148.777 37.3723 156.639M126.104 251C168.9 251 204.834 210.862 214.835 156.639M126.104 251C83.3074 251 47.3735 210.862 37.3723 156.639M214.453 156.746L126.104 126L156.967 83.8361M190.775 37.6504L156.967 83.8361M214.835 156.639C216.643 146.835 217.604 136.571 217.604 126C217.604 115.429 216.643 105.165 214.835 95.3606M214.835 156.639C214.79 156.655 214.746 156.67 214.702 156.686C214.632 156.71 214.562 156.735 214.492 156.759C191.871 164.631 160.621 169.5 126.104 169.5C91.411 169.5 60.0194 164.582 37.3723 156.639M214.835 95.3606C199.141 89.8569 179.248 85.8052 156.967 83.8361M37.3723 95.3606C60.0194 87.4183 91.411 82.5 126.104 82.5C136.755 82.5 147.096 82.9636 156.967 83.8361M37.3723 95.3606C35.564 105.165 34.6035 115.429 34.6035 126C34.6035 136.571 35.564 146.835 37.3723 156.639" stroke="black" stroke-width="2" stroke-linejoin="round"/>
<path d="M120.77 126C120.77 128.946 123.158 131.333 126.104 131.333C129.049 131.333 131.437 128.946 131.437 126C131.437 123.054 129.049 120.667 126.104 120.667C123.158 120.667 120.77 123.054 120.77 126ZM214.492 156.759L214.821 157.704L214.492 156.759ZM209.12 156.746C209.12 159.691 211.508 162.079 214.453 162.079C217.399 162.079 219.786 159.691 219.786 156.746C219.786 153.8 217.399 151.412 214.453 151.412C211.508 151.412 209.12 153.8 209.12 156.746ZM126.104 168.5C91.667 168.5 60.5332 163.641 38.0438 155.815C26.7945 151.9 17.7622 147.261 11.562 142.16C5.35488 137.053 2.10352 131.587 2.10352 126H0.103516C0.103516 132.425 3.8477 138.403 10.2913 143.704C16.7417 149.012 26.0153 153.746 37.3865 157.704C60.1382 165.621 91.5044 170.5 126.104 170.5V168.5ZM2.10352 126C2.10352 120.413 5.35488 114.947 11.562 109.84C17.7622 104.739 26.7945 100.1 38.0438 96.1853C60.5332 88.359 91.667 83.5 126.104 83.5V81.5C91.5044 81.5 60.1382 86.3788 37.3865 94.2964C26.0153 98.2536 16.7417 102.988 10.2913 108.296C3.8477 113.597 0.103516 119.575 0.103516 126H2.10352ZM126.104 83.5C160.54 83.5 191.674 88.359 214.163 96.1853C225.413 100.1 234.445 104.739 240.645 109.84C246.852 114.947 250.104 120.413 250.104 126H252.104C252.104 119.575 248.359 113.597 241.916 108.296C235.465 102.988 226.192 98.2536 214.821 94.2964C192.069 86.3788 160.703 81.5 126.104 81.5V83.5ZM250.104 126C250.104 131.587 246.852 137.053 240.645 142.16C234.445 147.261 225.413 151.9 214.163 155.815L214.821 157.704C226.192 153.746 235.465 149.012 241.916 143.704C248.359 138.403 252.104 132.425 252.104 126H250.104ZM214.163 155.815C191.674 163.641 160.54 168.5 126.104 168.5V170.5C160.703 170.5 192.069 165.621 214.821 157.704L214.163 155.815ZM125.775 126.944L214.124 157.69L214.782 155.801L126.432 125.056L125.775 126.944Z" fill="black"/>
<path d="M126.104 131.333C129.049 131.333 131.437 128.946 131.437 126C131.437 123.054 129.049 120.667 126.104 120.667C123.158 120.667 120.77 123.054 120.77 126C120.77 128.946 123.158 131.333 126.104 131.333ZM190.804 37.6117L191.611 37.021L190.804 37.6117ZM190.775 42.9837C193.721 42.9837 196.109 40.5959 196.109 37.6504C196.109 34.7049 193.721 32.3171 190.775 32.3171C187.83 32.3171 185.442 34.7049 185.442 37.6504C185.442 40.5959 187.83 42.9837 190.775 42.9837ZM216.604 126C216.604 160.328 206.417 191.366 189.997 213.798C173.576 236.23 150.975 250 126.104 250L126.104 252C151.766 252 174.915 237.788 191.611 214.979C208.307 192.17 218.604 160.708 218.604 126L216.604 126ZM126.104 250C101.232 250 78.6308 236.23 62.2102 213.798C45.7901 191.366 35.6035 160.328 35.6035 126L33.6035 126C33.6035 160.708 43.8999 192.17 60.5963 214.979C77.2922 237.788 100.441 252 126.104 252L126.104 250ZM35.6035 126C35.6035 91.6721 45.7901 60.6342 62.2102 38.2023C78.6307 15.7698 101.232 2.00001 126.104 2.00001L126.104 1.12592e-05C100.441 1.2381e-05 77.2922 14.2124 60.5963 37.021C43.8999 59.8303 33.6035 91.2924 33.6035 126L35.6035 126ZM126.104 2.00001C150.975 2.00001 173.576 15.7698 189.997 38.2023L191.611 37.021C174.915 14.2124 151.766 1.01374e-05 126.104 1.12592e-05L126.104 2.00001ZM189.997 38.2023C206.417 60.6341 216.604 91.6721 216.604 126L218.604 126C218.604 91.2924 208.307 59.8303 191.611 37.021L189.997 38.2023ZM126.91 126.591L191.582 38.2411L189.969 37.0597L125.297 125.409L126.91 126.591Z" fill="black"/>
</svg>
