<svg width="251" height="266" viewBox="0 0 251 266" fill="none" xmlns="http://www.w3.org/2000/svg">
<path d="M125.104 34.5C82.8537 34.5 48.6035 42.3582 48.6035 52.0519C48.6035 53.6048 49.4825 55.1105 51.1324 56.5444C59.7823 64.0616 89.6219 69.6038 125.104 69.6038C160.585 69.6038 190.425 64.0616 199.075 56.5444C200.725 55.1105 201.604 53.6048 201.604 52.0519C201.604 42.3582 167.353 34.5 125.104 34.5Z" fill="#F9F9F9"/>
<path d="M125.104 248.001C167.353 248.001 201.604 240.143 201.604 230.449C201.604 228.896 200.725 227.391 199.075 225.957L125.068 141.211L50.0833 226.996C49.1126 228.113 48.6035 229.267 48.6035 230.449C48.6035 240.143 82.8537 248.001 125.104 248.001Z" fill="#F9F9F9"/>
<path d="M100.42 112.985L125.068 141.211L158.632 102.812L248.104 151.634L92.1458 180.001L2.10352 130.868L100.42 112.985Z" fill="#F9F9F9"/>
<path d="M199.075 56.5444C190.425 64.0616 160.585 69.6038 125.104 69.6038C89.6219 69.6038 59.7823 64.0616 51.1324 56.5444L125.068 141.211L199.075 56.5444Z" fill="#F9F9F9"/>
<path d="M199.075 56.5444C200.725 55.1105 201.604 53.6048 201.604 52.0519C201.604 42.3582 167.353 34.5 125.104 34.5C82.8537 34.5 48.6035 42.3582 48.6035 52.0519C48.6035 53.6048 49.4825 55.1105 51.1324 56.5444M199.075 56.5444C190.425 64.0616 160.585 69.6038 125.104 69.6038C89.6219 69.6038 59.7823 64.0616 51.1324 56.5444M199.075 56.5444L125.068 141.211M51.1324 56.5444L125.068 141.211M125.103 16V266M125.068 141.211L199.075 225.957C200.725 227.391 201.604 228.896 201.604 230.449C201.604 240.143 167.353 248.001 125.104 248.001C82.8537 248.001 48.6035 240.143 48.6035 230.449C48.6035 229.267 49.1126 228.113 50.0833 226.996L125.068 141.211ZM125.068 141.211L100.42 112.985L2.10352 130.868L92.1458 180.001L248.104 151.634L158.632 102.812L125.068 141.211Z" stroke="black" stroke-width="2" stroke-linejoin="round"/>
<path d="M125.104 34.5C82.8537 34.5 48.6035 42.3582 48.6035 52.0519C48.6035 53.6048 49.4825 55.1105 51.1324 56.5444C59.7823 64.0616 89.6219 69.6038 125.104 69.6038C160.585 69.6038 190.425 64.0616 199.075 56.5444C200.725 55.1105 201.604 53.6048 201.604 52.0519C201.604 42.3582 167.353 34.5 125.104 34.5Z" fill="#F9F9F9"/>
<path d="M100.42 112.985L125.068 141.211L125.103 141.171L158.632 102.812L248.104 151.634L149.787 169.517L125.103 174.006L92.1458 180.001L91.4798 179.637L2.10352 130.868L100.42 112.985Z" fill="#F9F9F9"/>
<path fill-rule="evenodd" clip-rule="evenodd" d="M91.4798 179.637L92.1458 180.001L125.103 174.006L149.787 169.517L125.068 141.211L91.4798 179.637Z" fill="#F9F9F9"/>
<path fill-rule="evenodd" clip-rule="evenodd" d="M125.104 69.6038C125.103 69.6038 125.104 69.6038 125.104 69.6038V69.6038Z" fill="#F9F9F9"/>
<path d="M125.104 69.6038C160.585 69.6038 190.425 64.0616 199.075 56.5444M125.104 69.6038C89.6219 69.6038 59.7823 64.0616 51.1324 56.5444M125.104 69.6038L125.103 141.171M125.104 69.6038C125.104 69.6038 125.103 69.6038 125.104 69.6038ZM199.075 56.5444C200.725 55.1105 201.604 53.6048 201.604 52.0519C201.604 42.3582 167.353 34.5 125.104 34.5C82.8537 34.5 48.6035 42.3582 48.6035 52.0519C48.6035 53.6048 49.4825 55.1105 51.1324 56.5444M199.075 56.5444L125.103 141.171M51.1324 56.5444L125.068 141.211M125.103 16V141.171M125.103 266V174.006M125.104 248.001C167.353 248.001 201.604 240.143 201.604 230.449C201.604 228.896 200.725 227.391 199.075 225.957L149.787 169.517M125.104 248.001C82.8537 248.001 48.6035 240.143 48.6035 230.449C48.6035 229.267 49.1126 228.113 50.0833 226.996L91.4798 179.637M125.104 248.001L125.103 174.006M125.068 141.211L100.42 112.985L2.10352 130.868L91.4798 179.637M125.068 141.211L149.787 169.517M125.068 141.211L91.4798 179.637M125.068 141.211L125.103 141.171M125.103 174.006L149.787 169.517M125.103 174.006L92.1458 180.001L91.4798 179.637M125.103 174.006V141.171M149.787 169.517L248.104 151.634L158.632 102.812L125.103 141.171" stroke="black" stroke-width="2" stroke-linejoin="round"/>
<path d="M124.604 0L124.886 1.2757C127.236 11.8958 130.453 22.0998 134.472 31.6854L134.604 32C127.99 30.3346 121.217 30.3346 114.604 32L114.735 31.6854C118.754 22.0998 121.971 11.8958 124.321 1.2757L124.604 0Z" fill="black"/>
</svg>
