<svg width="266" height="266" viewBox="0 0 266 266" fill="none" xmlns="http://www.w3.org/2000/svg">
<path d="M201.604 230.448C201.604 240.142 167.353 248 125.104 248C82.8537 248 48.6035 240.142 48.6035 230.448C48.6035 229.266 49.1126 228.112 50.0833 226.995C57.0741 218.955 88.0049 212.896 125.104 212.896C160.585 212.896 190.425 218.438 199.075 225.956C200.725 227.389 201.604 228.895 201.604 230.448Z" fill="#F9F9F9"/>
<path d="M125.104 141V69.6038C89.6219 69.6038 59.7823 64.0616 51.1324 56.5444L124.885 141H125.104Z" fill="#F9F9F9"/>
<path d="M125.104 69.6038V141H125.252L199.075 56.5444C190.425 64.0616 160.585 69.6038 125.104 69.6038Z" fill="#F9F9F9"/>
<path d="M125.104 16V141M125.104 141V266M125.104 141V69.6038M125.104 141H124.885M125.104 141H125.252M250.104 141H125.252M0.103516 141H124.885M125.104 69.6038C160.585 69.6038 190.425 64.0616 199.075 56.5444M125.104 69.6038C89.6219 69.6038 59.7823 64.0616 51.1324 56.5444M125.104 69.6038V34.5M125.104 34.5C82.8537 34.5 48.6035 42.3582 48.6035 52.0519C48.6035 53.6048 49.4825 55.1105 51.1324 56.5444M125.104 34.5C167.353 34.5 201.604 42.3582 201.604 52.0519C201.604 53.6048 200.725 55.1105 199.075 56.5444M199.075 56.5444L125.252 141M50.0833 226.995C49.1126 228.112 48.6035 229.266 48.6035 230.448C48.6035 240.142 82.8537 248 125.104 248C167.353 248 201.604 240.142 201.604 230.448C201.604 228.895 200.725 227.389 199.075 225.956M50.0833 226.995C57.0741 218.955 88.0049 212.896 125.104 212.896C160.585 212.896 190.425 218.438 199.075 225.956M50.0833 226.995L125.252 141M199.075 225.956L124.885 141M51.1324 56.5444L124.885 141" stroke="black" stroke-width="2" stroke-linejoin="round"/>
<path d="M125.104 141.25V212.896C160.585 212.896 190.425 218.438 199.075 225.956L125.104 141.25Z" fill="#F9F9F9"/>
<path d="M125.104 212.896V141.25L125.068 141.21L50.1138 226.96C51.8686 224.963 55.1008 223.089 59.5375 221.4C72.925 216.304 97.2796 212.896 125.104 212.896Z" fill="#F9F9F9"/>
<path d="M125.104 34.5V69.6038C160.585 69.6038 190.425 64.0616 199.075 56.5444C200.725 55.1105 201.604 53.6048 201.604 52.0519C201.604 42.3582 167.353 34.5 125.104 34.5Z" fill="#F9F9F9"/>
<path d="M125.104 69.6038V34.5C82.8537 34.5 48.6035 42.3582 48.6035 52.0519C48.6035 53.6048 49.4825 55.1105 51.1324 56.5444C59.7823 64.0616 89.6219 69.6038 125.104 69.6038Z" fill="#F9F9F9"/>
<path d="M125.104 16V141M125.104 141V141.25M125.104 141V69.6038M125.104 141H124.885M125.104 141H125.252M125.104 266V141.25M250.104 141H125.252M0.103516 141H124.885M125.104 69.6038C160.585 69.6038 190.425 64.0616 199.075 56.5444M125.104 69.6038C89.6219 69.6038 59.7823 64.0616 51.1324 56.5444M125.104 69.6038V34.5M125.104 34.5C82.8537 34.5 48.6035 42.3582 48.6035 52.0519C48.6035 53.6048 49.4825 55.1105 51.1324 56.5444M125.104 34.5C167.353 34.5 201.604 42.3582 201.604 52.0519C201.604 53.6048 200.725 55.1105 199.075 56.5444M125.104 248C167.353 248 201.604 240.142 201.604 230.448C201.604 228.895 200.725 227.389 199.075 225.956M125.104 248C82.8537 248 48.6035 240.142 48.6035 230.448C48.6035 229.266 49.1126 228.112 50.0833 226.995M125.104 248V212.896M125.104 212.896C160.585 212.896 190.425 218.438 199.075 225.956M125.104 212.896V141.25M125.104 212.896C97.2796 212.896 72.925 216.304 59.5375 221.4C55.1008 223.089 51.8686 224.963 50.1138 226.96M199.075 56.5444L125.252 141M50.0833 226.995L50.1138 226.96M50.0833 226.995C50.0934 226.984 50.1036 226.972 50.1138 226.96M199.075 225.956L125.104 141.25M51.1324 56.5444L124.885 141M125.104 141.25L125.068 141.21M50.1138 226.96L125.068 141.21M125.068 141.21L124.885 141M125.068 141.21L125.252 141" stroke="black" stroke-width="2" stroke-linejoin="round"/>
<path d="M124.604 0L124.886 1.2757C127.236 11.8958 130.453 22.0998 134.472 31.6854L134.604 32C127.99 30.3346 121.217 30.3346 114.604 32L114.735 31.6854C118.754 22.0998 121.971 11.8958 124.321 1.2757L124.604 0Z" fill="black"/>
<path d="M265.604 141L264.328 141.282C253.708 143.633 243.504 146.849 233.918 150.868L233.604 151C235.269 144.386 235.269 137.614 233.604 131L233.918 131.132C243.504 135.151 253.708 138.367 264.328 140.718L265.604 141Z" fill="black"/>
</svg>
