<svg width="251" height="252" viewBox="0 0 251 252" fill="none" xmlns="http://www.w3.org/2000/svg">
<path d="M233.499 63.5L125.301 1L17.1035 63.5M233.499 63.5V188.5L125.301 251M233.499 63.5L125.301 126M125.301 251L17.1035 188.5V63.5M125.301 251V126M17.1035 63.5L125.301 126" stroke="black" stroke-width="2" stroke-linejoin="round"/>
<path d="M233.499 63.5L125.301 1L17.1035 63.5L125.301 126L233.499 63.5Z" fill="#F9F9F9" stroke="black" stroke-width="2" stroke-linejoin="round"/>
<path d="M17.1035 188.5L125.301 251V126L17.1035 63.5V188.5Z" fill="#F9F9F9" stroke="black" stroke-width="2" stroke-linejoin="round"/>
<path d="M233.498 188.5V63.5L125.301 126V251L233.498 188.5Z" fill="#F9F9F9" stroke="black" stroke-width="2" stroke-linejoin="round"/>
<path fill-rule="evenodd" clip-rule="evenodd" d="M162.655 79.9132C152.772 75.5848 139.586 72.9421 125.104 72.9421C110.621 72.9421 97.4349 75.5848 87.5525 79.9132C76.5184 75.0804 69.6035 68.146 69.6035 60.4422C69.6035 45.8386 94.4517 34 125.104 34C155.755 34 180.604 45.8386 180.604 60.4422C180.604 68.146 173.689 75.0804 162.655 79.9132Z" fill="#F9F9F9"/>
<path d="M162.655 79.9132C152.772 75.5848 139.586 72.9421 125.104 72.9421C110.621 72.9421 97.4349 75.5848 87.5525 79.9132M162.655 79.9132C173.689 75.0804 180.604 68.146 180.604 60.4422C180.604 45.8386 155.755 34 125.104 34C94.4517 34 69.6035 45.8386 69.6035 60.4422C69.6035 68.146 76.5184 75.0804 87.5525 79.9132M162.655 79.9132C152.772 84.2417 139.586 86.8844 125.104 86.8844C110.621 86.8844 97.4349 84.2417 87.5525 79.9132" stroke="black" stroke-width="2" stroke-linejoin="round"/>
<path d="M162.654 79.9135C152.772 75.5851 139.585 72.9424 125.103 72.9424C110.621 72.9424 97.4346 75.5851 87.5522 79.9135C97.4346 84.242 110.621 86.8847 125.103 86.8847C139.585 86.8847 152.772 84.242 162.654 79.9135Z" fill="#F9F9F9" stroke="black" stroke-width="2" stroke-linejoin="round"/>
<path fill-rule="evenodd" clip-rule="evenodd" d="M69.6035 60.4422C69.6035 68.146 76.5184 75.0804 87.5525 79.9132C97.4349 75.5848 110.621 72.9421 125.104 72.9421C139.586 72.9421 152.772 75.5848 162.655 79.9132C173.689 75.0804 180.604 68.146 180.604 60.4422C180.604 45.8386 155.755 34 125.104 34C94.4517 34 69.6035 45.8386 69.6035 60.4422Z" fill="#F9F9F9" stroke="black" stroke-width="2" stroke-linejoin="round"/>
</svg>
