<svg width="251" height="252" viewBox="0 0 251 252" fill="none" xmlns="http://www.w3.org/2000/svg">
<path d="M233.499 63.5L125.301 1L17.1035 63.5M233.499 63.5V188.5L125.301 251M233.499 63.5L125.301 126M125.301 251L17.1035 188.5V63.5M125.301 251V126M17.1035 63.5L125.301 126" stroke="black" stroke-width="2" stroke-linejoin="round"/>
<path fill-rule="evenodd" clip-rule="evenodd" d="M125.301 1L233.499 63.5L125.301 126L17.1035 63.5L125.301 1Z" fill="#F9F9F9" stroke="black" stroke-width="2" stroke-linejoin="round"/>
<path d="M17.1035 188.5L125.301 251V126L17.1035 63.5V188.5Z" fill="#F9F9F9" stroke="black" stroke-width="2" stroke-linejoin="round"/>
<path d="M233.498 188.5V63.5L125.301 126V251L233.498 188.5Z" fill="#F9F9F9" stroke="black" stroke-width="2" stroke-linejoin="round"/>
<path d="M180.604 27.4422C180.604 12.8386 155.755 1 125.104 1.00001C94.4517 1.00001 69.6035 12.8386 69.6035 27.4422M180.604 27.4422C180.604 42.0458 155.755 53.8844 125.104 53.8844C94.4517 53.8844 69.6035 42.0458 69.6035 27.4422M180.604 27.4422L180.604 61.5578C180.604 76.1614 155.755 88 125.104 88C94.4517 88 69.6035 76.1614 69.6035 61.5578L69.6035 27.4422" stroke="black" stroke-width="2" stroke-linejoin="round"/>
<path d="M125.104 1.00038C155.755 1.00038 180.604 12.839 180.604 27.4426C180.604 42.0462 155.755 53.8848 125.104 53.8848C94.4517 53.8848 69.6035 42.0462 69.6035 27.4426C69.6035 12.839 94.4517 1.00038 125.104 1.00038Z" fill="#F9F9F9" stroke="black" stroke-width="2" stroke-linejoin="round"/>
<path d="M125.104 88C155.755 88 180.604 76.1614 180.604 61.5578L180.604 27.4422C180.604 42.0458 155.755 53.8844 125.104 53.8844C94.4517 53.8844 69.6035 42.0458 69.6035 27.4422L69.6035 61.5578C69.6035 76.1614 94.4517 88 125.104 88Z" fill="#F9F9F9" stroke="black" stroke-width="2" stroke-linejoin="round"/>
</svg>
