<svg width="253" height="250" viewBox="0 0 253 250" fill="none" xmlns="http://www.w3.org/2000/svg">
<path d="M222.716 69.3017L126.294 13.6035V69.3017V125L222.716 69.3017Z" fill="#F9F9F9"/>
<path d="M126.294 13.6035L29.8711 69.3017L126.294 125V69.3017V13.6035Z" fill="#F9F9F9"/>
<path d="M126.294 13.6035L222.716 69.3017M126.294 13.6035L29.8711 69.3017M126.294 13.6035V69.3017V125M222.716 69.3017V180.698L126.294 236.396M222.716 69.3017L126.294 125M126.294 236.396L29.8711 180.698V69.3017M126.294 236.396V125M29.8711 69.3017L126.294 125" stroke="black" stroke-width="2" stroke-linejoin="round"/>
<path d="M222.715 180.698V69.3018L126.293 125V236.396L222.715 180.698Z" fill="#F9F9F9" stroke="black" stroke-width="2" stroke-linejoin="round"/>
<path fill-rule="evenodd" clip-rule="evenodd" d="M126.294 236.396L29.8711 180.698V69.3018L126.294 125V236.396Z" fill="#F9F9F9" stroke="black" stroke-width="2" stroke-linejoin="round"/>
<path d="M222.715 69.3017L251.104 108.736L154.681 164.434L126.293 125M222.715 69.3017L126.293 125M222.715 69.3017L126.293 13.6035M126.293 125L29.7417 69.3017M126.293 125L97.776 164.434L1.35352 108.736L29.7417 69.3017M126.293 125L126.293 69.3017V13.6035M29.7417 69.3017L126.293 13.6035" stroke="black" stroke-width="2" stroke-linejoin="round"/>
<path d="M126.293 125L222.715 69.3017L126.293 13.6035V69.3017L126.293 125Z" fill="#F9F9F9" stroke="black" stroke-width="2" stroke-linejoin="round"/>
<path d="M29.7422 69.3017L126.293 125L126.294 69.3017V13.6035L29.7422 69.3017Z" fill="#F9F9F9" stroke="black" stroke-width="2" stroke-linejoin="round"/>
<path d="M1.35352 108.736L29.7417 69.3018L126.293 125L97.776 164.434L1.35352 108.736Z" fill="#F9F9F9" stroke="black" stroke-width="2" stroke-linejoin="round"/>
<path d="M251.104 108.736L222.715 69.3018L126.293 125L154.681 164.434L251.104 108.736Z" fill="#F9F9F9" stroke="black" stroke-width="2" stroke-linejoin="round"/>
</svg>
