<svg width="251" height="252" viewBox="0 0 251 252" fill="none" xmlns="http://www.w3.org/2000/svg">
<path d="M233.499 63.5L125.301 1L71.2023 25.5M233.499 63.5V188.5L125.301 251M233.499 63.5L179.4 88M233.499 63.5L125.301 126M125.301 251L17.1035 188.5V63.5M125.301 251V126M17.1035 63.5L125.301 126M17.1035 63.5L71.2023 25.5M125.301 126L179.4 88M71.2023 25.5L179.4 88" stroke="black" stroke-width="2" stroke-linejoin="round"/>
<path d="M233.499 63.5L125.302 1L71.2031 25.5L179.401 88L233.499 63.5Z" fill="#F9F9F9" stroke="black" stroke-width="2" stroke-linejoin="round"/>
<path d="M17.1035 63.5L125.301 126L179.4 88L71.2023 25.5L17.1035 63.5Z" fill="#F9F9F9" stroke="black" stroke-width="2" stroke-linejoin="round"/>
<path d="M233.498 63.5L179.4 88L125.301 126L233.498 63.5Z" fill="#F9F9F9" stroke="black" stroke-width="2" stroke-linejoin="round"/>
<path fill-rule="evenodd" clip-rule="evenodd" d="M125.301 251L17.1035 188.5V63.5L125.301 126V251Z" fill="#F9F9F9" stroke="black" stroke-width="2" stroke-linejoin="round"/>
<path fill-rule="evenodd" clip-rule="evenodd" d="M233.498 63.5V188.5L125.301 251V126L233.498 63.5Z" fill="#F9F9F9" stroke="black" stroke-width="2" stroke-linejoin="round"/>
</svg>
