<svg width="251" height="252" viewBox="0 0 251 252" fill="none" xmlns="http://www.w3.org/2000/svg">
<path d="M233.499 63.5L125.301 126M233.499 63.5L197.434 42.6673M233.499 63.5V105.244M233.499 63.5L197.434 84.3327M233.499 188.5L125.301 251M233.499 188.5V146.989M233.499 188.5L197.434 209.333M125.301 251L89.2347 230.166M125.301 251V209.333M125.301 251L161.367 230.166M17.1035 63.5L53.1683 84.3327M17.1035 63.5L53.1683 42.6673M17.1035 63.5V105.244M125.301 126L89.2347 105.166M125.301 126V167.666M125.301 126L161.367 105.166M161.367 105.166L125.301 84.3334M161.367 105.166L197.434 84.3327M161.367 105.166V146.859M161.367 230.166L197.434 209.333M161.367 230.166V188.551M197.434 84.3327L161.368 63.5M197.434 84.3327V126.051M197.434 209.333V167.77M89.2347 105.166L53.1683 84.3327M89.2347 105.166L125.301 84.3334M89.2347 105.166V146.859M89.2347 230.166L53.1683 209.333M89.2347 230.166V188.551M53.1683 84.3327L89.2341 63.5M53.1683 84.3327V126.051M53.1683 209.333L17.1035 188.5V146.989M53.1683 209.333V167.77M161.367 21.8336L125.301 1L89.2347 21.8336M161.367 21.8336L125.301 42.6667M161.367 21.8336L197.434 42.6673M89.2347 21.8336L125.301 42.6667M89.2347 21.8336L53.1683 42.6673M125.301 42.6667L161.368 63.5M125.301 42.6667L89.2341 63.5M197.434 42.6673L161.368 63.5M53.1683 42.6673L89.2341 63.5M233.499 146.989V105.244M233.499 146.989L197.434 167.77M125.301 209.333V167.666M125.301 209.333L161.367 188.551M125.301 209.333L89.2347 188.551M233.499 105.244L197.434 126.051M125.301 167.666L161.367 146.859M125.301 167.666L89.2347 146.859M17.1035 146.989V105.244M17.1035 146.989L53.1683 167.77M17.1035 105.244L53.1683 126.051M125.301 84.3334L161.368 63.5M125.301 84.3334L89.2341 63.5M161.367 146.859V188.551M161.367 146.859L197.434 126.051M197.434 167.77L161.367 188.551M197.434 167.77V126.051M89.2347 188.551V146.859M89.2347 188.551L53.1683 167.77M89.2347 146.859L53.1683 126.051M53.1683 126.051V167.77" stroke="black" stroke-width="2" stroke-linejoin="round"/>
<path d="M17.1035 188.5L53.1683 209.333V167.77L17.1035 146.989V188.5Z" fill="#F9F9F9"/>
<path d="M53.1683 209.333L89.2344 230.166V188.551L53.1683 167.77V209.333Z" fill="#F9F9F9"/>
<path d="M89.2344 230.166L125.301 251V209.333L89.2344 188.551V230.166Z" fill="#F9F9F9"/>
<path d="M125.301 209.333V167.666L89.2344 146.859L89.2344 188.551L125.301 209.333Z" fill="#F9F9F9"/>
<path d="M89.2344 188.551L89.2344 146.859L53.168 126.051L53.1683 167.77L89.2344 188.551Z" fill="#F9F9F9"/>
<path d="M17.1035 105.244V146.989L53.1683 167.77L53.168 126.051L17.1035 105.244Z" fill="#F9F9F9"/>
<path d="M125.301 126L89.2344 105.166V146.859L125.301 167.666V126Z" fill="#F9F9F9"/>
<path d="M89.2344 105.166L53.168 84.3328V126.051L89.2344 146.859V105.166Z" fill="#F9F9F9"/>
<path d="M53.168 84.3328L17.1035 63.5V105.244L53.168 126.051V84.3328Z" fill="#F9F9F9"/>
<path d="M53.1683 209.333L17.1035 188.5V146.989M53.1683 209.333V167.77M53.1683 209.333L89.2344 230.166M53.1683 167.77L17.1035 146.989M53.1683 167.77L89.2344 188.551M53.1683 167.77L53.168 126.051M17.1035 146.989V105.244M89.2344 230.166V188.551M89.2344 230.166L125.301 251V209.333M89.2344 188.551L125.301 209.333M89.2344 188.551L89.2344 146.859M125.301 209.333V167.666M125.301 167.666L89.2344 146.859M125.301 167.666V126L89.2344 105.166M89.2344 146.859L53.168 126.051M89.2344 146.859V105.166M53.168 126.051L17.1035 105.244M53.168 126.051V84.3328M17.1035 105.244V63.5L53.168 84.3328M89.2344 105.166L53.168 84.3328" stroke="black" stroke-width="2" stroke-linejoin="round"/>
<path d="M125.301 126L161.367 105.166L125.301 84.333L89.2344 105.166L125.301 126Z" fill="#F9F9F9" stroke="black" stroke-width="2" stroke-linejoin="round"/>
<path d="M161.367 21.8337L125.301 42.6668L161.368 63.5001L197.434 42.6674L161.367 21.8337Z" fill="#F9F9F9"/>
<path d="M17.1035 63.4999L53.1683 84.3327L89.2341 63.5L53.1683 42.6672L17.1035 63.4999Z" fill="#F9F9F9"/>
<path d="M125.301 42.6668L89.2344 21.8337L53.1683 42.6672L89.2341 63.5L125.301 42.6668Z" fill="#F9F9F9"/>
<path d="M161.367 21.8337L125.301 1L89.2344 21.8337L125.301 42.6668L161.367 21.8337Z" fill="#F9F9F9"/>
<path d="M53.1683 84.3327L89.2344 105.166L125.301 84.3333L89.2341 63.5L53.1683 84.3327Z" fill="#F9F9F9"/>
<path d="M125.301 84.3335L161.368 63.5001L125.301 42.6667L89.2341 63.5L125.301 84.3335Z" fill="#F9F9F9"/>
<path d="M161.367 105.166L197.434 84.3327L161.368 63.5001L125.301 84.3333L161.367 105.166Z" fill="#F9F9F9"/>
<path d="M197.433 84.3327L233.498 63.4999L197.433 42.6672L161.367 63.4999L197.433 84.3327Z" fill="#F9F9F9"/>
<path d="M161.367 105.166L125.301 126V167.666L161.367 146.859V105.166Z" fill="#F9F9F9"/>
<path d="M161.367 21.8337L125.301 42.6668M161.367 21.8337L197.434 42.6674L161.368 63.5001M161.367 21.8337L125.301 1L89.2344 21.8337M125.301 42.6668L161.368 63.5001M125.301 42.6668L89.2344 21.8337M125.301 42.6668L89.2341 63.5M161.368 63.5001L197.434 84.3327L161.367 105.166M161.368 63.5001L125.301 84.3333M53.1683 84.3327L17.1035 63.4999L53.1683 42.6672M53.1683 84.3327L89.2341 63.5M53.1683 84.3327L89.2344 105.166L125.301 84.3333M89.2341 63.5L53.1683 42.6672M89.2341 63.5L125.301 84.3333M89.2341 63.5L125.301 42.6667L161.368 63.5001L125.301 84.3335L89.2341 63.5ZM53.1683 42.6672L89.2344 21.8337M125.301 84.3333L161.367 105.166M161.367 105.166L125.301 126V167.666L161.367 146.859V105.166ZM197.433 84.3327L233.498 63.4999L197.433 42.6672L161.367 63.4999L197.433 84.3327Z" stroke="black" stroke-width="2" stroke-linejoin="round"/>
<path d="M197.434 84.3328L161.367 105.166V146.859L197.434 126.051V84.3328Z" fill="#F9F9F9"/>
<path d="M233.498 63.5L197.434 84.3328V126.051L233.498 105.244V63.5Z" fill="#F9F9F9"/>
<path d="M125.301 167.666V209.333L161.367 188.551L161.367 146.859L125.301 167.666Z" fill="#F9F9F9"/>
<path d="M161.367 188.551L197.434 167.77V126.051L161.367 146.859L161.367 188.551Z" fill="#F9F9F9"/>
<path d="M233.498 146.989V105.244L197.434 126.051V167.77L233.498 146.989Z" fill="#F9F9F9"/>
<path d="M125.301 251L161.367 230.166V188.551L125.301 209.333V251Z" fill="#F9F9F9"/>
<path d="M161.367 230.166L197.434 209.333V167.77L161.367 188.551V230.166Z" fill="#F9F9F9"/>
<path d="M197.434 209.333L233.498 188.5V146.989L197.434 167.77V209.333Z" fill="#F9F9F9"/>
<path d="M197.434 84.3328L161.367 105.166V146.859M197.434 84.3328V126.051M197.434 84.3328L233.498 63.5V105.244M161.367 146.859L197.434 126.051M161.367 146.859L161.367 188.551M161.367 146.859L125.301 167.666V209.333M197.434 126.051L233.498 105.244M197.434 126.051V167.77M233.498 105.244V146.989M125.301 209.333L161.367 188.551M125.301 209.333V251L161.367 230.166M161.367 188.551L197.434 167.77M161.367 188.551V230.166M197.434 167.77L233.498 146.989M197.434 167.77V209.333M233.498 146.989V188.5L197.434 209.333M161.367 230.166L197.434 209.333" stroke="black" stroke-width="2" stroke-linejoin="round"/>
</svg>
