<svg width="251" height="252" viewBox="0 0 251 252" fill="none" xmlns="http://www.w3.org/2000/svg">
<path fill-rule="evenodd" clip-rule="evenodd" d="M125.301 251V126L17.1035 63.5V188.5L125.301 251Z" fill="#F9F9F9" stroke="black" stroke-width="2" stroke-linejoin="round"/>
<path d="M233.499 63.5L125.301 1L17.1035 63.5L125.301 126L233.499 63.5Z" fill="#F9F9F9" stroke="black" stroke-width="2" stroke-linejoin="round"/>
<path d="M233.498 188.5V63.5L125.301 126V251L233.498 188.5Z" fill="#F9F9F9" stroke="black" stroke-width="2" stroke-linejoin="round"/>
<path d="M136.155 88.4931C142.121 91.967 142.121 97.5992 136.155 101.073C130.189 104.547 120.517 104.547 114.551 101.073C108.585 97.5992 108.585 91.967 114.551 88.4931C120.517 85.0192 130.189 85.0192 136.155 88.4931Z" fill="#F9F9F9"/>
<path d="M192.299 55.8002C198.265 59.2741 198.265 64.9064 192.299 68.3802C186.333 71.8541 176.661 71.8541 170.695 68.3802C164.729 64.9064 164.729 59.2741 170.695 55.8002C176.661 52.3264 186.333 52.3264 192.299 55.8002Z" fill="#F9F9F9"/>
<path d="M80.0103 55.8002C85.9761 59.2741 85.9761 64.9064 80.0103 68.3802C74.0444 71.8541 64.3719 71.8541 58.406 68.3802C52.4402 64.9064 52.4402 59.2741 58.406 55.8002C64.3719 52.3264 74.0444 52.3264 80.0103 55.8002Z" fill="#F9F9F9"/>
<path d="M136.155 23.1074C142.121 26.5812 142.121 32.2135 136.155 35.6874C130.189 39.1612 120.517 39.1612 114.551 35.6874C108.585 32.2135 108.585 26.5812 114.551 23.1074C120.517 19.6335 130.189 19.6335 136.155 23.1074Z" fill="#F9F9F9"/>
<path d="M136.155 55.6074C142.121 59.0812 142.121 64.7135 136.155 68.1874C130.189 71.6612 120.517 71.6612 114.551 68.1874C108.585 64.7135 108.585 59.0812 114.551 55.6074C120.517 52.1335 130.189 52.1335 136.155 55.6074Z" fill="#F9F9F9"/>
<path d="M136.155 88.4931C142.121 91.967 142.121 97.5992 136.155 101.073C130.189 104.547 120.517 104.547 114.551 101.073C108.585 97.5992 108.585 91.967 114.551 88.4931C120.517 85.0192 130.189 85.0192 136.155 88.4931Z" stroke="black" stroke-width="2" stroke-linejoin="round"/>
<path d="M192.299 55.8002C198.265 59.2741 198.265 64.9064 192.299 68.3802C186.333 71.8541 176.661 71.8541 170.695 68.3802C164.729 64.9064 164.729 59.2741 170.695 55.8002C176.661 52.3264 186.333 52.3264 192.299 55.8002Z" stroke="black" stroke-width="2" stroke-linejoin="round"/>
<path d="M80.0103 55.8002C85.9761 59.2741 85.9761 64.9064 80.0103 68.3802C74.0444 71.8541 64.3719 71.8541 58.406 68.3802C52.4402 64.9064 52.4402 59.2741 58.406 55.8002C64.3719 52.3264 74.0444 52.3264 80.0103 55.8002Z" stroke="black" stroke-width="2" stroke-linejoin="round"/>
<path d="M136.155 23.1074C142.121 26.5812 142.121 32.2135 136.155 35.6874C130.189 39.1612 120.517 39.1612 114.551 35.6874C108.585 32.2135 108.585 26.5812 114.551 23.1074C120.517 19.6335 130.189 19.6335 136.155 23.1074Z" stroke="black" stroke-width="2" stroke-linejoin="round"/>
<path d="M136.155 55.6074C142.121 59.0812 142.121 64.7135 136.155 68.1874C130.189 71.6612 120.517 71.6612 114.551 68.1874C108.585 64.7135 108.585 59.0812 114.551 55.6074C120.517 52.1335 130.189 52.1335 136.155 55.6074Z" stroke="black" stroke-width="2" stroke-linejoin="round"/>
<path d="M107.606 211.302C107.58 218.205 102.703 221.021 96.7114 217.592C90.72 214.162 85.8837 205.785 85.9093 198.882C85.9348 191.978 90.8125 189.162 96.8039 192.592C102.795 196.022 107.632 204.398 107.606 211.302Z" fill="#F9F9F9"/>
<path d="M51.4615 114.056C51.4359 120.96 46.5583 123.776 40.5669 120.346C34.5755 116.917 29.7392 108.54 29.7647 101.636C29.7903 94.7329 34.668 91.9167 40.6594 95.3464C46.6507 98.776 51.487 107.153 51.4615 114.056Z" fill="#F9F9F9"/>
<path d="M77.7911 162.761C77.7655 169.664 72.8878 172.48 66.8965 169.051C60.9051 165.621 56.0688 157.244 56.0943 150.341C56.1199 143.437 60.9976 140.621 66.9889 144.051C72.9803 147.481 77.8166 155.857 77.7911 162.761Z" fill="#F9F9F9"/>
<path d="M107.606 211.302C107.58 218.205 102.703 221.021 96.7114 217.592C90.72 214.162 85.8837 205.785 85.9093 198.882C85.9348 191.978 90.8125 189.162 96.8039 192.592C102.795 196.022 107.632 204.398 107.606 211.302Z" stroke="black" stroke-width="2" stroke-linejoin="round"/>
<path d="M51.4615 114.056C51.4359 120.96 46.5583 123.776 40.5669 120.346C34.5755 116.917 29.7392 108.54 29.7647 101.636C29.7903 94.7329 34.668 91.9167 40.6594 95.3464C46.6507 98.776 51.487 107.153 51.4615 114.056Z" stroke="black" stroke-width="2" stroke-linejoin="round"/>
<path d="M77.7911 162.761C77.7655 169.664 72.8878 172.48 66.8965 169.051C60.9051 165.621 56.0688 157.244 56.0943 150.341C56.1199 143.437 60.9976 140.621 66.9889 144.051C72.9803 147.481 77.8166 155.857 77.7911 162.761Z" stroke="black" stroke-width="2" stroke-linejoin="round"/>
<path d="M172.451 163.598C172.477 170.502 178.104 172.889 185.021 168.93C191.937 164.97 197.523 156.165 197.497 149.261C197.472 142.358 191.844 139.971 184.928 143.93C178.012 147.889 172.426 156.695 172.451 163.598Z" fill="#F9F9F9" stroke="black" stroke-width="2" stroke-linejoin="round"/>
</svg>
