<svg width="251" height="252" viewBox="0 0 251 252" fill="none" xmlns="http://www.w3.org/2000/svg">
<path fill-rule="evenodd" clip-rule="evenodd" d="M233.499 63.5L125.301 1L17.1035 63.5V188.5L125.301 251V126L233.499 63.5Z" fill="#F9F9F9"/>
<path d="M233.499 188.5V63.5L125.301 126V251L233.499 188.5Z" fill="#F9F9F9"/>
<path d="M233.499 63.5L125.301 1L17.1035 63.5M233.499 63.5V188.5L125.301 251M233.499 63.5L125.301 126M125.301 251L17.1035 188.5V63.5M125.301 251V126M17.1035 63.5L125.301 126" stroke="black" stroke-width="2" stroke-linejoin="round"/>
<path d="M42.1035 125.75C42.1035 171.452 79.152 208.5 124.854 208.5C124.986 208.5 125.118 208.5 125.251 208.499V125.972L53.1905 84.3467C46.1395 96.5245 42.1035 110.666 42.1035 125.75Z" fill="#F9F9F9"/>
<path fill-rule="evenodd" clip-rule="evenodd" d="M125.251 208.499C125.118 208.5 124.986 208.5 124.854 208.5C79.152 208.5 42.1035 171.452 42.1035 125.75C42.1035 110.666 46.1395 96.5245 53.1905 84.3467L125.251 125.972V208.499Z" fill="#F9F9F9"/>
<path d="M42.1035 125.75C42.1035 171.452 79.152 208.5 124.854 208.5C124.986 208.5 125.118 208.5 125.251 208.499V125.972L53.1905 84.3467C46.1395 96.5245 42.1035 110.666 42.1035 125.75Z" stroke="black" stroke-width="2" stroke-linejoin="round"/>
<path fill-rule="evenodd" clip-rule="evenodd" d="M125.251 208.499C125.118 208.5 124.986 208.5 124.854 208.5C79.152 208.5 42.1035 171.452 42.1035 125.75C42.1035 110.666 46.1395 96.5245 53.1905 84.3467L125.251 125.972V208.499Z" stroke="black" stroke-width="2" stroke-linejoin="round"/>
<path d="M125.252 125.972L196.716 84.6908C182.453 59.7827 155.614 43 124.854 43C94.237 43 67.5033 59.6282 53.1914 84.3465L125.252 125.972Z" fill="#F9F9F9" stroke="black" stroke-width="2" stroke-linejoin="round"/>
<path d="M125.251 208.5C170.77 208.286 207.604 171.32 207.604 125.751C207.604 110.808 203.643 96.7912 196.715 84.6914L125.251 125.972V208.5Z" fill="#F9F9F9" stroke="black" stroke-width="2" stroke-linejoin="round"/>
</svg>
