<svg width="251" height="252" viewBox="0 0 251 252" fill="none" xmlns="http://www.w3.org/2000/svg">
<path d="M125.301 251L179.4 219.75L233.499 188.5L179.4 157.25L125.301 126L71.2023 157.25L17.1035 188.5L71.2023 219.75L125.301 251Z" fill="#F9F9F9" stroke="black" stroke-width="2" stroke-linejoin="round"/>
<path d="M233.499 63.5L179.4 32.25L125.301 1L71.2023 32.25L17.1035 63.5L71.2023 94.75L125.301 126L179.4 94.75L233.499 63.5Z" fill="#F9F9F9" stroke="black" stroke-width="2" stroke-linejoin="round"/>
<path d="M233.499 63.5V188.5M233.499 63.5L179.4 32.25M233.499 63.5L179.4 94.75M233.499 188.5L179.4 157.25M233.499 188.5L179.4 219.75M17.1035 188.5V63.5M17.1035 188.5L71.2023 219.75M17.1035 188.5L71.2023 157.25M17.1035 63.5L71.2023 94.75M17.1035 63.5L71.2023 32.25M125.301 126L179.4 157.25M125.301 126L71.2023 157.25M125.301 126L71.2023 94.75M125.301 126L179.4 94.75M179.4 157.25L71.2023 219.75M71.2023 219.75L125.301 251L179.4 219.75M71.2023 157.25L179.4 219.75M71.2023 94.75L179.4 32.25M179.4 32.25L125.301 1L71.2023 32.25M179.4 94.75L71.2023 32.25" stroke="black" stroke-width="2" stroke-linejoin="round"/>
<path d="M233.499 188.5V63.5L179.4 94.75L125.301 126L179.4 157.25L233.499 188.5Z" fill="#F9F9F9"/>
<path d="M17.1035 63.5V188.5L71.2023 157.25L125.301 126L71.2023 94.75L17.1035 63.5Z" fill="#F9F9F9"/>
<path d="M125.301 126L179.4 157.25L233.499 188.5V63.5L179.4 94.75L125.301 126ZM125.301 126L71.2023 157.25L17.1035 188.5V63.5L71.2023 94.75L125.301 126Z" stroke="black" stroke-width="2" stroke-linejoin="round"/>
</svg>
