<svg width="251" height="252" viewBox="0 0 251 252" fill="none" xmlns="http://www.w3.org/2000/svg">
<path d="M233.499 188.5V63.5H161.367L197.433 126L233.499 188.5Z" fill="#F9F9F9"/>
<path d="M17.1035 188.5L125.301 251L161.367 188.5H89.2352H17.1035Z" fill="#F9F9F9"/>
<path d="M125.301 1L17.1035 63.5L53.1694 126L89.2352 63.5L125.301 1Z" fill="#F9F9F9"/>
<path d="M233.499 63.5L125.301 1L89.2352 63.5H161.367H233.499Z" fill="#F9F9F9"/>
<path d="M17.1035 63.5V188.5H89.2352L53.1694 126L17.1035 63.5Z" fill="#F9F9F9"/>
<path d="M125.301 251L233.499 188.5L197.433 126L161.367 188.5L125.301 251Z" fill="#F9F9F9"/>
<path d="M125.301 1L233.499 63.5M125.301 1L17.1035 63.5M125.301 1L89.2352 63.5M233.499 63.5V188.5M233.499 63.5H161.367M233.499 188.5L125.301 251M233.499 188.5L197.433 126M125.301 251L17.1035 188.5M125.301 251L161.367 188.5M17.1035 188.5V63.5M17.1035 188.5H89.2352M17.1035 63.5L53.1694 126M197.433 126L161.367 63.5M197.433 126L161.367 188.5M161.367 63.5H89.2352M89.2352 63.5L53.1694 126M53.1694 126L89.2352 188.5M89.2352 188.5H161.367" stroke="black" stroke-width="2" stroke-linejoin="round"/>
<path d="M233.499 188.5V63.5H161.367L197.433 126L233.499 188.5Z" fill="#F9F9F9"/>
<path d="M17.1035 188.5L125.301 251L161.367 188.5H89.2352H17.1035Z" fill="#F9F9F9"/>
<path d="M125.301 1L17.1035 63.5L53.1694 126L89.2352 63.5L125.301 1Z" fill="#F9F9F9"/>
<path d="M233.499 188.5V63.5H161.367L197.433 126L233.499 188.5Z" stroke="black" stroke-width="2" stroke-linejoin="round"/>
<path d="M17.1035 188.5L125.301 251L161.367 188.5H89.2352H17.1035Z" stroke="black" stroke-width="2" stroke-linejoin="round"/>
<path d="M125.301 1L17.1035 63.5L53.1694 126L89.2352 63.5L125.301 1Z" stroke="black" stroke-width="2" stroke-linejoin="round"/>
</svg>
