<svg width="251" height="252" viewBox="0 0 251 252" fill="none" xmlns="http://www.w3.org/2000/svg">
<path d="M233.499 188.5L197.434 209.333L161.367 230.166L125.301 251L89.2347 230.166L53.1683 209.333L17.1035 188.5V146.989V105.244V63.5L53.1683 42.6673L89.2347 21.8336L125.301 1L161.367 21.8336L197.434 42.6673L233.499 63.5V105.244V146.989V188.5Z" fill="#F9F9F9"/>
<path d="M125.301 1L161.367 21.8336L197.434 42.6673L233.499 63.5M125.301 1L89.2347 21.8336L53.1683 42.6673L17.1035 63.5M125.301 1L58.1683 84.3327M125.301 1L192.434 84.3327M233.499 63.5V105.244V146.989V188.5M233.499 63.5L192.434 84.3327M233.499 188.5L125.301 251M233.499 188.5L197.434 209.333L161.367 230.166L125.301 251M233.499 188.5L192.434 84.3327M233.499 188.5L125.301 199.333M125.301 251L89.2347 230.166L53.1683 209.333L17.1035 188.5M125.301 251V199.333M17.1035 188.5V146.989V105.244V63.5M17.1035 188.5L125.301 199.333M17.1035 188.5L58.1683 84.3327M17.1035 63.5L58.1683 84.3327M192.434 84.3327H58.1683M192.434 84.3327L125.301 199.333M58.1683 84.3327L125.301 199.333" stroke="black" stroke-width="2" stroke-linejoin="round"/>
<path fill-rule="evenodd" clip-rule="evenodd" d="M58.1683 84.3327L17.1035 63.5L53.1683 42.6673L89.2347 21.8336L125.301 1L58.1683 84.3327Z" fill="#F9F9F9" stroke="black" stroke-width="2" stroke-linejoin="round"/>
<path d="M125.301 1L58.168 84.3327H192.434L125.301 1Z" fill="#F9F9F9" stroke="black" stroke-width="2" stroke-linejoin="round"/>
<path d="M192.434 84.333H58.168L125.301 199.333L192.434 84.333Z" fill="#F9F9F9" stroke="black" stroke-width="2" stroke-linejoin="round"/>
<path d="M58.1683 84.3327L17.1035 63.5V105.244V146.989V188.5L58.1683 84.3327Z" fill="#F9F9F9" stroke="black" stroke-width="2" stroke-linejoin="round"/>
<path d="M125.301 199.333L58.1683 84.333L17.1035 188.5L125.301 199.333Z" fill="#F9F9F9" stroke="black" stroke-width="2" stroke-linejoin="round"/>
<path d="M89.2347 230.166L125.301 251V199.333L17.1035 188.5L53.1683 209.333L89.2347 230.166Z" fill="#F9F9F9" stroke="black" stroke-width="2" stroke-linejoin="round"/>
<path d="M197.434 209.333L233.498 188.5L125.301 199.333V251L161.367 230.166L197.434 209.333Z" fill="#F9F9F9" stroke="black" stroke-width="2" stroke-linejoin="round"/>
<path d="M192.434 84.333L125.301 199.333L233.498 188.5L192.434 84.333Z" fill="#F9F9F9" stroke="black" stroke-width="2" stroke-linejoin="round"/>
<path d="M233.498 188.5V146.989V105.244V63.5L192.434 84.3327L233.498 188.5Z" fill="#F9F9F9" stroke="black" stroke-width="2" stroke-linejoin="round"/>
<path d="M161.367 21.8336L125.301 1L192.434 84.3327L233.498 63.5L197.434 42.6673L161.367 21.8336Z" fill="#F9F9F9" stroke="black" stroke-width="2" stroke-linejoin="round"/>
<path d="M125.104 155L130.928 134.589L151.517 139.75L136.753 124.5L151.517 109.25L130.928 114.411L125.104 94L119.279 114.411L98.6897 109.25L113.454 124.5L98.6897 139.75L119.279 134.589L125.104 155Z" fill="#F9F9F9" stroke="black" stroke-width="2" stroke-linejoin="round"/>
</svg>
