<svg width="251" height="252" viewBox="0 0 251 252" fill="none" xmlns="http://www.w3.org/2000/svg">
<path d="M125.301 216.25V251L233.499 188.5L155.381 143.375C137.699 163.894 125.35 192.154 125.301 216.25Z" fill="#F9F9F9"/>
<path d="M233.499 63.5L125.301 126V216.25C125.35 192.154 137.699 163.894 155.381 143.375C162.782 134.786 171.118 127.554 179.877 122.552C209.475 105.647 233.43 119.487 233.499 153.457V63.5Z" fill="#F9F9F9"/>
<path d="M233.499 63.5L125.301 1L17.1035 63.5L125.301 126L233.499 63.5Z" fill="#F9F9F9"/>
<path d="M17.1035 63.5V153.75V188.5L125.301 251V216.25V126L17.1035 63.5Z" fill="#F9F9F9"/>
<path d="M233.499 63.5L125.301 1L17.1035 63.5M233.499 63.5L125.301 126M233.499 63.5V153.457M233.499 153.75C233.499 153.652 233.499 153.554 233.499 153.457M233.499 153.75V153.457M233.499 153.75V188.5M125.301 216.25V126M125.301 216.25V251M125.301 216.25C125.35 192.154 137.699 163.894 155.381 143.375M17.1035 63.5V153.75V188.5L125.301 251M17.1035 63.5L125.301 126M233.499 153.457C233.43 119.487 209.475 105.647 179.877 122.552C171.118 127.554 162.782 134.786 155.381 143.375M125.301 251L233.499 188.5M233.499 188.5L155.381 143.375" stroke="black" stroke-width="2" stroke-linejoin="round"/>
<path d="M233.499 153.457C233.43 119.487 209.476 105.647 179.877 122.552C171.118 127.554 162.782 134.786 155.381 143.375L233.499 188.5V153.75V153.457Z" fill="#F9F9F9" stroke="black" stroke-width="2" stroke-linejoin="round"/>
<path d="M233.499 63.5L125.301 1L17.1035 63.5M233.499 63.5L125.301 126M233.499 63.5V153.457C233.43 119.487 209.475 105.647 179.877 122.552C171.118 127.554 162.782 134.786 155.381 143.375C137.699 163.894 125.35 192.154 125.301 216.25M125.301 216.25V126M125.301 216.25V251L17.1035 188.5V153.75V63.5M17.1035 63.5L125.301 126" stroke="black" stroke-width="2" stroke-linejoin="round"/>
<path d="M233.499 63.5L125.301 1L17.1035 63.5L125.301 126L233.499 63.5Z" fill="#F9F9F9" stroke="black" stroke-width="2" stroke-linejoin="round"/>
<path d="M17.1035 63.5V153.75V188.5L125.301 251V216.25V126L17.1035 63.5Z" fill="#F9F9F9" stroke="black" stroke-width="2" stroke-linejoin="round"/>
<path d="M233.498 63.5L125.301 126V216.25C125.349 192.154 137.699 163.894 155.38 143.375C162.782 134.786 171.118 127.554 179.877 122.552C209.475 105.647 233.43 119.487 233.498 153.457V63.5Z" fill="#F9F9F9" stroke="black" stroke-width="2" stroke-linejoin="round"/>
</svg>
