<svg width="251" height="252" viewBox="0 0 251 252" fill="none" xmlns="http://www.w3.org/2000/svg">
<path d="M233.499 63.5L197.434 42.6673L161.367 21.8336L125.301 1L89.2347 21.8336L53.1683 42.6673L17.1035 63.5M233.499 63.5V105.244V146.989V188.5L125.301 251M233.499 63.5L197.434 84.3327M125.301 251L89.2347 230.166L53.1683 209.333L17.1035 188.5V146.989V105.244V63.5M125.301 251V209.333M17.1035 63.5L53.1683 84.3327M125.301 126V167.666M125.301 126L89.2347 146.885M125.301 126L161.367 146.885M197.434 84.3327V126.051M197.434 84.3327L161.367 63.4997L125.301 42.6667M53.1683 84.3327L125.301 42.6667M53.1683 84.3327V126.051M125.301 42.6667L125.301 84.3334M125.301 209.333L161.367 188.551M125.301 209.333L89.2347 188.551M125.301 167.666L161.367 188.551M125.301 167.666L89.2347 188.551M161.367 188.551L161.367 146.885M89.2347 188.551V146.859M89.2347 188.551L89.2347 146.885M197.434 126.051L161.367 105.166L125.301 84.3334M197.434 126.051L161.367 146.885M53.1683 126.051L89.2347 105.166L125.301 84.3334M53.1683 126.051L89.2347 146.859M89.2347 146.885L89.2347 146.859" stroke="black" stroke-width="2" stroke-linejoin="round"/>
<path d="M125.301 167.667V126L89.2344 146.885L89.2344 188.552L125.301 167.667Z" fill="#F9F9F9"/>
<path d="M125.301 42.667L53.168 84.333V126.051L89.2344 105.167L125.301 84.3337L125.301 42.667Z" fill="#F9F9F9"/>
<path d="M125.301 167.667V126L89.2344 146.885L89.2344 188.552L125.301 167.667Z" stroke="black" stroke-width="2" stroke-linejoin="round"/>
<path d="M125.301 42.667L53.168 84.333V126.051L89.2344 105.167L125.301 84.3337L125.301 42.667Z" stroke="black" stroke-width="2" stroke-linejoin="round"/>
<path d="M125.301 126V167.667L161.367 188.551L161.367 146.885L125.301 126Z" fill="#F9F9F9"/>
<path d="M197.434 126.051V84.333L161.367 63.5L125.301 42.667L125.301 84.3337L161.367 105.167L197.434 126.051Z" fill="#F9F9F9"/>
<path d="M125.301 126V167.667L161.367 188.551L161.367 146.885L125.301 126Z" stroke="black" stroke-width="2" stroke-linejoin="round"/>
<path d="M197.434 126.051V84.333L161.367 63.5L125.301 42.667L125.301 84.3337L161.367 105.167L197.434 126.051Z" stroke="black" stroke-width="2" stroke-linejoin="round"/>
<path d="M89.2347 230.166L125.301 251V209.333L89.2347 188.551L89.2347 146.885L89.2347 146.859L53.1683 126.051V84.3327L17.1035 63.5V105.244V146.989V188.5L53.1683 209.333L89.2347 230.166Z" fill="#F9F9F9" stroke="black" stroke-width="2" stroke-linejoin="round"/>
<path d="M125.301 251L233.498 188.5V146.989V105.244V63.5L197.434 84.3327V126.051L161.367 146.885L161.367 188.551L125.301 209.333V251Z" fill="#F9F9F9" stroke="black" stroke-width="2" stroke-linejoin="round"/>
<path d="M17.1035 63.5L53.1683 84.3327L125.301 42.6667L161.367 63.4997L197.434 84.3327L233.499 63.5L197.434 42.6673L161.367 21.8336L125.301 1L89.2347 21.8336L53.1683 42.6673L17.1035 63.5Z" fill="#F9F9F9"/>
<path d="M197.434 126.051L161.367 105.166L125.301 84.3334L89.2347 105.166L53.1683 126.051L89.2347 146.859L89.2347 146.885L125.301 126L161.367 146.885L197.434 126.051Z" fill="#F9F9F9"/>
<path d="M125.301 209.333L161.367 188.551L125.301 167.666L89.2347 188.551L125.301 209.333Z" fill="#F9F9F9"/>
<path d="M17.1035 63.5L53.1683 84.3327L125.301 42.6667L161.367 63.4997L197.434 84.3327L233.499 63.5L197.434 42.6673L161.367 21.8336L125.301 1L89.2347 21.8336L53.1683 42.6673L17.1035 63.5Z" stroke="black" stroke-width="2" stroke-linejoin="round"/>
<path d="M197.434 126.051L161.367 105.166L125.301 84.3334L89.2347 105.166L53.1683 126.051L89.2347 146.859L89.2347 146.885L125.301 126L161.367 146.885L197.434 126.051Z" stroke="black" stroke-width="2" stroke-linejoin="round"/>
<path d="M125.301 209.333L161.367 188.551L125.301 167.666L89.2347 188.551L125.301 209.333Z" stroke="black" stroke-width="2" stroke-linejoin="round"/>
</svg>
