<svg width="251" height="252" viewBox="0 0 251 252" fill="none" xmlns="http://www.w3.org/2000/svg">
<path d="M125.301 209.333L161.367 188.551C141.646 177.226 108.956 177.226 89.2347 188.551L125.301 209.333Z" fill="#F9F9F9"/>
<path d="M161.367 146.885L198.125 126.051C158.096 103.01 93.197 103.01 53.1683 126.051L89.2347 146.859L89.2347 146.885C108.956 135.56 141.646 135.56 161.367 146.885Z" fill="#F9F9F9"/>
<path d="M17.1035 63.5L53.1683 84.3327C93.197 61.2918 157.405 61.2918 197.434 84.3327L233.499 63.5L197.434 42.6673L161.367 21.8336L125.301 1L89.2347 21.8336L53.1683 42.6673L17.1035 63.5Z" fill="#F9F9F9"/>
<path d="M233.499 63.5L197.434 42.6673L161.367 21.8336L125.301 1L89.2347 21.8336L53.1683 42.6673L17.1035 63.5M233.499 63.5V105.244V146.989V188.5L125.301 251M233.499 63.5L197.434 84.3327M125.301 251L89.2347 230.166L53.1683 209.333L17.1035 188.5V146.989V105.244V63.5M125.301 251V209.333M17.1035 63.5L53.1683 84.3327M197.434 84.3327L198.125 126.051M197.434 84.3327C157.405 61.2918 93.197 61.2918 53.1683 84.3327M53.1683 84.3327V126.051M125.301 209.333L161.367 188.551M125.301 209.333L89.2347 188.551M161.367 188.551L161.367 146.885M161.367 188.551C141.646 177.226 108.956 177.226 89.2347 188.551M89.2347 188.551V146.859M89.2347 188.551L89.2347 146.885M198.125 126.051L161.367 146.885M198.125 126.051C158.096 103.01 93.197 103.01 53.1683 126.051M53.1683 126.051L89.2347 146.859M89.2347 146.885L89.2347 146.859M89.2347 146.885C108.956 135.56 141.646 135.56 161.367 146.885" stroke="black" stroke-width="2" stroke-linejoin="round"/>
<path d="M89.2347 230.166L125.301 251V209.333L89.2347 188.551L89.2347 146.885L89.2347 146.859L53.1683 126.051V84.3327L17.1035 63.5V105.244V146.989V188.5L53.1683 209.333L89.2347 230.166Z" fill="#F9F9F9" stroke="black" stroke-width="2" stroke-linejoin="round"/>
<path d="M125.301 251L233.498 188.5V146.989V105.244V63.5L197.434 84.3327L198.125 126.051L161.367 146.885L161.367 188.551L125.301 209.333V251Z" fill="#F9F9F9" stroke="black" stroke-width="2" stroke-linejoin="round"/>
<path d="M161.367 188.551L161.367 146.885C141.645 135.56 108.956 135.559 89.2344 146.885L89.2344 188.551C108.956 177.226 141.646 177.226 161.367 188.551Z" fill="#F9F9F9"/>
<path d="M198.125 126.051L197.434 84.3325C157.405 61.2915 93.1967 61.2915 53.168 84.3325V126.051C93.1967 103.01 158.096 103.01 198.125 126.051Z" fill="#F9F9F9"/>
<path d="M161.367 188.551L161.367 146.885C141.645 135.56 108.956 135.559 89.2344 146.885L89.2344 188.551C108.956 177.226 141.646 177.226 161.367 188.551Z" stroke="black" stroke-width="2" stroke-linejoin="round"/>
<path d="M198.125 126.051L197.434 84.3325C157.405 61.2915 93.1967 61.2915 53.168 84.3325V126.051C93.1967 103.01 158.096 103.01 198.125 126.051Z" stroke="black" stroke-width="2" stroke-linejoin="round"/>
<path d="M125.301 209.333L161.367 188.551C141.646 177.226 108.956 177.226 89.2347 188.551L125.301 209.333Z" fill="#F9F9F9"/>
<path d="M161.367 146.885L198.125 126.051C158.096 103.01 93.197 103.01 53.1683 126.051L89.2347 146.859L89.2347 146.885C108.956 135.56 141.646 135.56 161.367 146.885Z" fill="#F9F9F9"/>
<path d="M17.1035 63.5L53.1683 84.3327C93.197 61.2918 157.405 61.2918 197.434 84.3327L233.499 63.5L197.434 42.6673L161.367 21.8336L125.301 1L89.2347 21.8336L53.1683 42.6673L17.1035 63.5Z" fill="#F9F9F9"/>
<path d="M125.301 209.333L161.367 188.551C141.646 177.226 108.956 177.226 89.2347 188.551L125.301 209.333Z" stroke="black" stroke-width="2" stroke-linejoin="round"/>
<path d="M161.367 146.885L198.125 126.051C158.096 103.01 93.197 103.01 53.1683 126.051L89.2347 146.859L89.2347 146.885C108.956 135.56 141.646 135.56 161.367 146.885Z" stroke="black" stroke-width="2" stroke-linejoin="round"/>
<path d="M17.1035 63.5L53.1683 84.3327C93.197 61.2918 157.405 61.2918 197.434 84.3327L233.499 63.5L197.434 42.6673L161.367 21.8336L125.301 1L89.2347 21.8336L53.1683 42.6673L17.1035 63.5Z" stroke="black" stroke-width="2" stroke-linejoin="round"/>
</svg>
