<svg width="251" height="252" viewBox="0 0 251 252" fill="none" xmlns="http://www.w3.org/2000/svg">
<path d="M125.301 219.75V251L179.4 219.75L233.498 188.5V157.25V126V94.75V63.5L206.449 79.125V110.375L179.4 126V157.25L152.35 172.875V204.125L125.301 219.75Z" fill="#F9F9F9" stroke="black" stroke-width="2" stroke-linejoin="round"/>
<path d="M125.301 251V219.75L17.1035 157.25V188.5L44.1529 204.125L125.301 251Z" fill="#F9F9F9"/>
<path d="M152.35 204.125V172.875L125.301 157.25L44.1529 110.375V141.625L125.301 188.5L152.35 204.125Z" fill="#F9F9F9"/>
<path d="M206.449 110.375V79.125L98.2517 16.625V47.875L179.4 94.75L206.449 110.375Z" fill="#F9F9F9"/>
<path d="M179.4 157.25V126L152.35 110.375L71.2023 63.5V94.75L125.301 126L179.4 157.25Z" fill="#F9F9F9"/>
<path d="M125.301 251V219.75L17.1035 157.25V188.5L44.1529 204.125L125.301 251Z" stroke="black" stroke-width="2" stroke-linejoin="round"/>
<path d="M152.35 204.125V172.875L125.301 157.25L44.1529 110.375V141.625L125.301 188.5L152.35 204.125Z" stroke="black" stroke-width="2" stroke-linejoin="round"/>
<path d="M206.449 110.375V79.125L98.2517 16.625V47.875L179.4 94.75L206.449 110.375Z" stroke="black" stroke-width="2" stroke-linejoin="round"/>
<path d="M179.4 157.25V126L152.35 110.375L71.2023 63.5V94.75L125.301 126L179.4 157.25Z" stroke="black" stroke-width="2" stroke-linejoin="round"/>
<path d="M125.301 219.75L152.35 204.125L125.301 188.5L44.1529 141.625L17.1035 157.25L125.301 219.75Z" fill="#F9F9F9"/>
<path d="M152.35 172.875L179.4 157.25L125.301 126L71.2023 94.75L44.1529 110.375L125.301 157.25L152.35 172.875Z" fill="#F9F9F9"/>
<path d="M179.4 126L206.449 110.375L179.4 94.75L98.2517 47.875L71.2023 63.5L152.35 110.375L179.4 126Z" fill="#F9F9F9"/>
<path d="M233.499 63.5L125.301 1L98.2517 16.625L206.449 79.125L233.499 63.5Z" fill="#F9F9F9"/>
<path d="M125.301 219.75L152.35 204.125L125.301 188.5L44.1529 141.625L17.1035 157.25L125.301 219.75Z" stroke="black" stroke-width="2" stroke-linejoin="round"/>
<path d="M152.35 172.875L179.4 157.25L125.301 126L71.2023 94.75L44.1529 110.375L125.301 157.25L152.35 172.875Z" stroke="black" stroke-width="2" stroke-linejoin="round"/>
<path d="M179.4 126L206.449 110.375L179.4 94.75L98.2517 47.875L71.2023 63.5L152.35 110.375L179.4 126Z" stroke="black" stroke-width="2" stroke-linejoin="round"/>
<path d="M233.499 63.5L125.301 1L98.2517 16.625L206.449 79.125L233.499 63.5Z" stroke="black" stroke-width="2" stroke-linejoin="round"/>
</svg>
