<svg width="251" height="253" viewBox="0 0 251 253" fill="none" xmlns="http://www.w3.org/2000/svg">
<path d="M125.354 251.5L233.604 188.875L233.604 147.125L197.52 168L161.437 188.875L125.354 209.75L125.354 251.5Z" fill="#F9F9F9"/>
<path d="M17.1035 147.125L17.1035 188.875L125.354 251.5L125.354 209.75L53.1869 168L17.1035 147.125Z" fill="#F9F9F9"/>
<path d="M53.1869 84.5L53.1869 126.25L89.2702 147.125L125.354 168L125.354 126.25L53.1869 84.5Z" fill="#F9F9F9"/>
<path d="M197.52 84.5L125.354 126.25L125.354 168L197.52 126.25L197.52 84.5Z" fill="#F9F9F9"/>
<path d="M89.2702 21.875L89.2702 63.625L125.354 84.5L125.354 42.75L89.2702 21.875Z" fill="#F9F9F9"/>
<path d="M161.437 21.875L125.354 42.75L125.354 84.5L161.437 63.625L161.437 21.875Z" fill="#F9F9F9"/>
<path d="M125.354 126.25L53.1869 84.5M125.354 126.25L197.52 84.5M125.354 126.25L125.354 168M125.354 42.75L89.2702 21.875M125.354 42.75L161.437 21.875M125.354 42.75L125.354 84.5M53.1869 84.5L89.2702 63.625M53.1869 84.5L53.1869 126.25M89.2702 21.875L125.354 0.999991L161.437 21.875M89.2702 21.875L89.2702 63.625M89.2702 63.625L125.354 84.5M53.1869 126.25L17.1035 147.125M53.1869 126.25L89.2702 147.125L125.354 168M17.1035 147.125L17.1035 188.875L125.354 251.5M17.1035 147.125L53.1869 168L125.354 209.75M125.354 84.5L161.437 63.625M125.354 251.5L233.604 188.875L233.604 147.125M125.354 251.5L125.354 209.75M233.604 147.125L197.52 168L161.437 188.875L125.354 209.75M233.604 147.125L197.52 126.25M161.437 21.875L161.437 63.625M161.437 63.625L197.52 84.5M197.52 84.5L197.52 126.25M125.354 168L197.52 126.25" stroke="black" stroke-width="2" stroke-linejoin="round"/>
<path d="M17.1035 147.125L17.1035 188.875L125.354 251.5L125.354 209.75L53.1869 168L17.1035 147.125Z" fill="#F9F9F9"/>
<path d="M53.1869 84.5L53.1869 126.25L89.2702 147.125L125.354 168L125.354 126.25L53.1869 84.5Z" fill="#F9F9F9"/>
<path d="M89.2702 21.875L89.2702 63.625L125.354 84.5L125.354 42.75L89.2702 21.875Z" fill="#F9F9F9"/>
<path d="M17.1035 147.125L17.1035 188.875L125.354 251.5L125.354 209.75L53.1869 168L17.1035 147.125Z" stroke="black" stroke-width="2" stroke-linejoin="round"/>
<path d="M53.1869 84.5L53.1869 126.25L89.2702 147.125L125.354 168L125.354 126.25L53.1869 84.5Z" stroke="black" stroke-width="2" stroke-linejoin="round"/>
<path d="M89.2702 21.875L89.2702 63.625L125.354 84.5L125.354 42.75L89.2702 21.875Z" stroke="black" stroke-width="2" stroke-linejoin="round"/>
<path d="M53.1869 126.25L17.1035 147.125L53.1868 168L125.354 209.75L161.437 188.875L197.52 168L233.604 147.125L197.52 126.25L125.354 168L89.2702 147.125L53.1869 126.25Z" fill="#F9F9F9"/>
<path d="M89.2702 63.625L53.1869 84.5L125.354 126.25L197.52 84.5L161.437 63.625L125.354 84.5L89.2702 63.625Z" fill="#F9F9F9"/>
<path d="M125.354 0.999991L89.2702 21.875L125.354 42.75L161.437 21.875L125.354 0.999991Z" fill="#F9F9F9"/>
<path d="M53.1869 126.25L17.1035 147.125L53.1868 168L125.354 209.75L161.437 188.875L197.52 168L233.604 147.125L197.52 126.25L125.354 168L89.2702 147.125L53.1869 126.25Z" stroke="black" stroke-width="2" stroke-linejoin="round"/>
<path d="M89.2702 63.625L53.1869 84.5L125.354 126.25L197.52 84.5L161.437 63.625L125.354 84.5L89.2702 63.625Z" stroke="black" stroke-width="2" stroke-linejoin="round"/>
<path d="M125.354 0.999991L89.2702 21.875L125.354 42.75L161.437 21.875L125.354 0.999991Z" stroke="black" stroke-width="2" stroke-linejoin="round"/>
</svg>
