<svg width="251" height="252" viewBox="0 0 251 252" fill="none" xmlns="http://www.w3.org/2000/svg">
<path d="M233.499 63.5L125.301 1L98.2517 16.625M233.499 63.5V94.75V126V157.25V188.5L179.4 219.75L125.301 251M233.499 63.5L206.449 79.125M125.301 251L17.1035 188.5V63.5M125.301 251V219.75M17.1035 63.5L44.1529 47.875L71.2023 32.25L98.2517 16.625M17.1035 63.5L71.2023 94.75M125.301 126V157.25M125.301 126L179.4 157.25M125.301 126L71.2023 94.75M125.301 188.5V219.75M125.301 188.5L152.35 204.125M125.301 188.5V157.25M125.301 219.75L152.35 204.125M179.4 157.25L152.35 172.875M179.4 157.25V126M152.35 204.125V172.875M152.35 172.875L125.301 157.25M179.4 126L206.449 110.375M179.4 126L152.35 110.375L71.2023 63.5M206.449 110.375V79.125M206.449 110.375L179.4 94.75L98.2517 47.875M206.449 79.125L98.2517 16.625M98.2517 16.625V47.875M98.2517 47.875L71.2023 63.5M71.2023 63.5V94.75" stroke="black" stroke-width="2" stroke-linejoin="round"/>
<path d="M206.45 110.375V79.125L98.2525 16.625V47.875L179.401 94.75L206.45 110.375Z" fill="#F9F9F9"/>
<path d="M179.401 157.25V126L152.351 110.375L71.2031 63.5V94.75L125.302 126L179.401 157.25Z" fill="#F9F9F9"/>
<path d="M152.351 204.125V172.875L125.302 157.25V188.5L152.351 204.125Z" fill="#F9F9F9"/>
<path d="M206.45 110.375V79.125L98.2525 16.625V47.875L179.401 94.75L206.45 110.375Z" stroke="black" stroke-width="2" stroke-linejoin="round"/>
<path d="M179.401 157.25V126L152.351 110.375L71.2031 63.5V94.75L125.302 126L179.401 157.25Z" stroke="black" stroke-width="2" stroke-linejoin="round"/>
<path d="M152.351 204.125V172.875L125.302 157.25V188.5L152.351 204.125Z" stroke="black" stroke-width="2" stroke-linejoin="round"/>
<path d="M233.499 63.5L125.302 1L98.2525 16.625L206.45 79.125L233.499 63.5Z" fill="#F9F9F9"/>
<path d="M179.401 126L206.45 110.375L179.401 94.75L98.2525 47.875L71.2031 63.5L152.351 110.375L179.401 126Z" fill="#F9F9F9"/>
<path d="M152.351 172.875L179.401 157.25L125.302 126V157.25L152.351 172.875Z" fill="#F9F9F9"/>
<path d="M125.302 188.5V219.75L152.351 204.125L125.302 188.5Z" fill="#F9F9F9"/>
<path d="M233.499 63.5L125.302 1L98.2525 16.625L206.45 79.125L233.499 63.5Z" stroke="black" stroke-width="2" stroke-linejoin="round"/>
<path d="M179.401 126L206.45 110.375L179.401 94.75L98.2525 47.875L71.2031 63.5L152.351 110.375L179.401 126Z" stroke="black" stroke-width="2" stroke-linejoin="round"/>
<path d="M152.351 172.875L179.401 157.25L125.302 126V157.25L152.351 172.875Z" stroke="black" stroke-width="2" stroke-linejoin="round"/>
<path d="M125.302 188.5V219.75L152.351 204.125L125.302 188.5Z" stroke="black" stroke-width="2" stroke-linejoin="round"/>
<path d="M98.2517 16.625L71.2023 32.25L44.1529 47.875L17.1035 63.5L71.2023 94.75V63.5L98.2517 47.875V16.625Z" fill="#F9F9F9" stroke="black" stroke-width="2" stroke-linejoin="round"/>
<path d="M17.1035 188.5L125.301 251V219.75V188.5V157.25V126L71.2023 94.75L17.1035 63.5V188.5Z" fill="#F9F9F9" stroke="black" stroke-width="2" stroke-linejoin="round"/>
</svg>
