<svg width="251" height="252" viewBox="0 0 251 252" fill="none" xmlns="http://www.w3.org/2000/svg">
<path d="M233.499 63.5L125.301 1L98.2517 16.625L71.2023 32.25L44.1529 47.875L17.1035 63.5M233.499 63.5V94.75V126V157.25V188.5L179.4 219.75L125.301 251M233.499 63.5L206.449 79.125M125.301 251V219.75M125.301 251L71.2023 219.75L17.1035 188.5V157.25V126V94.75V63.5M17.1035 63.5L44.1529 79.125M125.301 188.5L152.35 204.125M125.301 188.5L98.2517 204.125M125.301 188.5V157.25M125.301 219.75L152.35 204.125M125.301 219.75L98.2517 204.125M179.4 157.25L152.35 172.875M179.4 157.25V126M179.4 157.25L125.301 126L71.2023 157.25M152.35 204.125V172.875M152.35 172.875L125.301 157.25M179.4 126L206.449 110.375M179.4 126L152.35 110.375L125.301 94.75L71.2023 126M206.449 110.375V79.125M206.449 110.375L179.4 94.75L125.301 63.5L98.2517 79.125L71.2023 94.75L44.1529 110.375M206.449 79.125L125.301 32.25L44.1529 79.125M125.301 157.25L98.2517 172.875M44.1529 79.125V110.375M44.1529 110.375L71.2023 126M98.2517 204.125V172.875M98.2517 172.875L71.2023 157.25M71.2023 157.25V126" stroke="black" stroke-width="2" stroke-linejoin="round"/>
<path d="M206.449 110.375V79.125L125.301 32.25L44.1523 79.125V110.375L71.2017 94.75L98.2511 79.125L125.301 63.5L179.399 94.75L206.449 110.375Z" fill="#F9F9F9"/>
<path d="M179.399 157.25V126L152.35 110.375L125.301 94.75L71.2017 126V157.25L125.301 126L179.399 157.25Z" fill="#F9F9F9"/>
<path d="M98.2511 204.125L125.301 188.5V157.25L98.2511 172.875V204.125Z" fill="#F9F9F9"/>
<path d="M152.35 204.125V172.875L125.301 157.25V188.5L152.35 204.125Z" fill="#F9F9F9"/>
<path d="M125.301 188.5L152.35 204.125V172.875L125.301 157.25M125.301 188.5L98.2511 204.125V172.875L125.301 157.25M125.301 188.5V157.25M125.301 126L179.399 157.25V126L152.35 110.375L125.301 94.75L71.2017 126V157.25L125.301 126ZM179.399 94.75L206.449 110.375V79.125L125.301 32.25L44.1523 79.125V110.375L71.2017 94.75L98.2511 79.125L125.301 63.5L179.399 94.75Z" stroke="black" stroke-width="2" stroke-linejoin="round"/>
<path d="M233.499 63.5L125.301 1L98.2517 16.625L71.2023 32.25L44.1529 47.875L17.1035 63.5L44.1529 79.125L125.301 32.25L206.449 79.125L233.499 63.5Z" fill="#F9F9F9"/>
<path d="M179.4 126L206.449 110.375L179.4 94.75L125.301 63.5L98.2517 79.125L71.2023 94.75L44.1529 110.375L71.2023 126L125.301 94.75L152.35 110.375L179.4 126Z" fill="#F9F9F9"/>
<path d="M152.35 172.875L179.4 157.25L125.301 126L71.2023 157.25L98.2517 172.875L125.301 157.25L152.35 172.875Z" fill="#F9F9F9"/>
<path d="M125.301 219.75L152.35 204.125L125.301 188.5L98.2517 204.125L125.301 219.75Z" fill="#F9F9F9"/>
<path d="M233.499 63.5L125.301 1L98.2517 16.625L71.2023 32.25L44.1529 47.875L17.1035 63.5L44.1529 79.125L125.301 32.25L206.449 79.125L233.499 63.5Z" stroke="black" stroke-width="2" stroke-linejoin="round"/>
<path d="M179.4 126L206.449 110.375L179.4 94.75L125.301 63.5L98.2517 79.125L71.2023 94.75L44.1529 110.375L71.2023 126L125.301 94.75L152.35 110.375L179.4 126Z" stroke="black" stroke-width="2" stroke-linejoin="round"/>
<path d="M152.35 172.875L179.4 157.25L125.301 126L71.2023 157.25L98.2517 172.875L125.301 157.25L152.35 172.875Z" stroke="black" stroke-width="2" stroke-linejoin="round"/>
<path d="M125.301 219.75L152.35 204.125L125.301 188.5L98.2517 204.125L125.301 219.75Z" stroke="black" stroke-width="2" stroke-linejoin="round"/>
<path d="M125.301 251V219.75L98.2517 204.125V172.875L71.2023 157.25V126L44.1529 110.375V79.125L17.1035 63.5V94.75V126V157.25V188.5L71.2023 219.75L125.301 251Z" fill="#F9F9F9" stroke="black" stroke-width="2" stroke-linejoin="round"/>
<path d="M125.301 219.75V251L179.4 219.75L233.498 188.5V157.25V126V94.75V63.5L206.449 79.125V110.375L179.4 126V157.25L152.35 172.875V204.125L125.301 219.75Z" fill="#F9F9F9" stroke="black" stroke-width="2" stroke-linejoin="round"/>
</svg>
