<svg width="253" height="250" viewBox="0 0 253 250" fill="none" xmlns="http://www.w3.org/2000/svg">
<path d="M251.104 104.766L188.729 68.6328M251.104 104.766V145.234L188.729 181.367M251.104 104.766L216.174 125L188.729 140.898M1.60352 104.766L63.9785 68.6328M1.60352 104.766V145.234L63.9785 181.367M1.60352 104.766L36.5335 125L63.9785 140.898M126.354 177.031L153.799 161.133L188.729 140.898M126.354 177.031L98.9085 161.133L63.9785 140.898M126.354 177.031V217.5M63.9785 140.898V181.367M63.9785 140.898L126.354 104.766M188.729 68.6328L126.354 32.5L63.9785 68.6328M188.729 68.6328L126.354 104.766M188.729 140.898V181.367M188.729 140.898L126.354 104.766M63.9785 68.6328L126.354 104.766M126.354 217.5L63.9785 181.367M126.354 217.5L188.729 181.367" stroke="black" stroke-width="2" stroke-linejoin="round"/>
<path d="M1.60352 145.234L63.9785 181.367V140.898L36.5335 125L1.60352 104.766V145.234Z" fill="#F9F9F9" stroke="black" stroke-width="2" stroke-linejoin="round"/>
<path d="M63.9785 181.367L126.354 217.5V177.031L98.9085 161.133L63.9785 140.898V181.367Z" fill="#F9F9F9" stroke="black" stroke-width="2" stroke-linejoin="round"/>
<path d="M126.354 217.5L188.729 181.367V140.898L153.799 161.133L126.354 177.031V217.5Z" fill="#F9F9F9" stroke="black" stroke-width="2" stroke-linejoin="round"/>
<path d="M188.729 181.367L251.104 145.234V104.766L216.174 125L188.729 140.898V181.367Z" fill="#F9F9F9" stroke="black" stroke-width="2" stroke-linejoin="round"/>
<path d="M63.9785 68.6328L1.60352 104.766L36.5335 125L63.9785 140.898L126.354 104.766L63.9785 68.6328Z" fill="#F9F9F9" stroke="black" stroke-width="2" stroke-linejoin="round"/>
<path d="M188.729 68.6328L126.354 32.5L63.9785 68.6328L126.354 104.766L188.729 68.6328Z" fill="#F9F9F9" stroke="black" stroke-width="2" stroke-linejoin="round"/>
<path d="M251.104 104.766L188.729 68.6328L126.354 104.766L188.729 140.898L216.174 125L251.104 104.766Z" fill="#F9F9F9" stroke="black" stroke-width="2" stroke-linejoin="round"/>
<path d="M126.354 104.766L63.9785 140.898L98.9085 161.133L126.354 177.031L153.799 161.133L188.729 140.898L126.354 104.766Z" fill="#F9F9F9" stroke="black" stroke-width="2" stroke-linejoin="round"/>
</svg>
