<svg width="251" height="252" viewBox="0 0 251 252" fill="none" xmlns="http://www.w3.org/2000/svg">
<path d="M219.66 71.25L164.422 103.169M30.1602 180.75V164.568V87.4321L43.1602 94.9376M30.1602 180.75L43.1602 173.25V173.168L110.91 134.053M30.1602 180.75L110.91 227.41V212.408M124.91 126V235.5V220.5V126ZM124.91 126L164.422 103.169M124.91 126L158.239 106.736M206.66 78.75L158.239 106.736M124.857 1L110.91 9.05676L16.6598 63.5M124.857 1L138.805 9.05676L233.055 63.5M124.857 1V1.06453M233.055 63.5L233.027 63.5162M233.055 63.5V63.5637M124.857 251L110.91 242.943L16.6598 188.5V188.468M124.857 251L138.805 242.943L233.055 188.5V188.468M124.857 251V250.935M16.6598 63.5L16.6874 63.5159M16.6598 63.5V63.5324M124.857 126L16.6874 63.5159M124.857 126L125.666 125.533M124.857 126V129.086M233.11 63.4999L219.159 55.4494L124.885 1.04809M233.11 63.4999L233.107 79.6073L233.082 188.452L233.055 188.468M233.11 63.4999L125.666 125.533M124.885 1.04809L124.857 1.06423M124.885 1.04809L124.885 1.08035M124.884 250.952L219.159 196.55L233.11 188.5L233.106 172.393L233.082 63.5481M124.884 250.952L124.884 250.92M124.884 250.952L124.857 250.936M16.6035 63.4999L16.6313 188.452L16.6598 188.468M16.6035 63.4999L124.829 1.04808L124.857 1.06423M16.6035 63.4999L16.6598 63.5324M233.082 63.5481L233.027 63.5162M233.082 63.5481L233.055 63.5637M124.857 126L125.666 125.533M124.857 126L124.857 129.086M124.857 126L16.6598 63.5324M192.738 70.7034L138.805 39.5309V101.842M192.738 70.7034L138.805 101.842M192.738 70.7034L205.732 63.2016L124.91 16.5L124.881 16.5166M138.805 101.842L124.861 109.892M57.0288 70.7342L110.91 39.5919V101.842M57.0288 70.7342L110.91 101.842M57.0288 70.7342L44.0353 63.2324L124.857 16.5305M110.91 101.842L124.857 109.895L124.857 109.894M43.1602 94.9376V157.062L96.9617 126M43.1602 94.9376L96.9617 126M96.9617 126L110.91 134.053M110.91 212.408L57.0288 181.266L110.91 150.158M110.91 212.408V150.158M110.91 150.158L110.91 134.053M138.805 212.469L192.738 181.297L138.805 150.158M138.805 212.469V150.158M138.805 212.469V227.471L219.66 180.75V180.706M138.805 150.158L138.808 134.05M206.66 94.8761V157.124L152.752 126M206.66 94.8761L152.752 126M206.66 94.8761L219.66 87.3705V164.629V180.706M152.752 126L138.808 134.05M124.857 16.5305V109.894M124.857 16.5305L124.881 16.5166M124.857 16.5305V1.06453M124.857 109.894L124.861 109.892M124.881 16.5166L124.861 109.892M124.881 16.5166L124.885 1.08035M138.808 134.05L219.66 180.706M125.666 125.533L233.027 63.5162M125.666 125.533L158.239 106.736M233.027 63.5162L124.885 1.08035M124.885 1.08035L124.857 1.06453M124.857 1.06453L124.857 1.06423M124.857 1.06423L16.6874 63.5159M16.6874 63.5159L16.6316 63.5481L16.6038 188.5L124.829 250.952L124.857 250.936M164.422 103.169L233.055 63.5637M164.422 103.169L158.239 106.736M124.857 129.086L124.884 250.92M124.857 129.086V250.935M124.884 250.92L233.055 188.468M124.884 250.92L124.857 250.935M233.055 188.468V63.5637M16.6598 63.5324V188.468M16.6598 188.468L124.857 250.936M124.857 250.936L124.857 250.935" stroke="black" stroke-width="2" stroke-linejoin="round"/>
<path d="M30.1602 180.75L110.91 227.41V212.408L57.0288 181.266L110.91 150.158L110.91 134.053L43.1602 173.168V173.25L30.1602 180.75Z" fill="#F9F9F9"/>
<path d="M192.738 181.297L138.805 212.469V227.471L219.66 180.75V180.707L138.808 134.051L138.805 150.159L192.738 181.297Z" fill="#F9F9F9"/>
<path d="M30.1602 180.75L110.91 227.41V212.408L57.0288 181.266L110.91 150.158L110.91 134.053L43.1602 173.168V173.25L30.1602 180.75Z" stroke="black" stroke-width="2" stroke-linejoin="round"/>
<path d="M192.738 181.297L138.805 212.469V227.471L219.66 180.75V180.707L138.808 134.051L138.805 150.159L192.738 181.297Z" stroke="black" stroke-width="2" stroke-linejoin="round"/>
<path d="M205.732 63.2016L124.911 16.5L124.882 16.5166L124.861 109.892L138.805 101.842V39.5309L192.739 70.7034L205.732 63.2016Z" fill="#F9F9F9"/>
<path d="M138.809 134.05L219.661 180.706V164.629V87.3705L206.661 94.8761V157.124L152.752 126L138.809 134.05Z" fill="#F9F9F9"/>
<path d="M205.732 63.2016L124.911 16.5L124.882 16.5166L124.861 109.892L138.805 101.842V39.5309L192.739 70.7034L205.732 63.2016Z" stroke="black" stroke-width="2" stroke-linejoin="round"/>
<path d="M138.809 134.05L219.661 180.706V164.629V87.3705L206.661 94.8761V157.124L152.752 126L138.809 134.05Z" stroke="black" stroke-width="2" stroke-linejoin="round"/>
<path d="M124.857 16.5303L44.0353 63.2322L57.0288 70.734L110.91 39.5917V101.842L124.857 109.895L124.857 109.894V16.5303Z" fill="#F9F9F9"/>
<path d="M43.1602 157.062V94.9374L30.1602 87.4319V164.568V180.75L43.1602 173.25V173.167L110.91 134.053L96.9617 126L43.1602 157.062Z" fill="#F9F9F9"/>
<path d="M124.857 16.5303L44.0353 63.2322L57.0288 70.734L110.91 39.5917V101.842L124.857 109.895L124.857 109.894V16.5303Z" stroke="black" stroke-width="2" stroke-linejoin="round"/>
<path d="M43.1602 157.062V94.9374L30.1602 87.4319V164.568V180.75L43.1602 173.25V173.167L110.91 134.053L96.9617 126L43.1602 157.062Z" stroke="black" stroke-width="2" stroke-linejoin="round"/>
<path fill-rule="evenodd" clip-rule="evenodd" d="M16.6602 63.5322V188.468L124.857 250.936L124.858 250.935V129.086L124.857 126L16.6602 63.5322ZM43.1605 94.9375L96.9621 126L110.91 134.053L110.91 150.157V212.408V227.41L30.1605 180.75V164.568V87.4319L43.1605 94.9375Z" fill="#F9F9F9" stroke="black" stroke-width="2" stroke-linejoin="round"/>
<path fill-rule="evenodd" clip-rule="evenodd" d="M164.422 103.168L124.91 126L158.239 106.736L125.666 125.532L124.857 126V129.086L124.885 250.92L233.055 188.467V63.5635L164.422 103.168ZM138.805 212.469V150.158L138.808 134.05L152.752 126L206.66 94.8758L219.66 87.3703V164.629V180.706V180.75L138.805 227.471V212.469Z" fill="#F9F9F9" stroke="black" stroke-width="2" stroke-linejoin="round"/>
<path d="M125.666 125.533L233.027 63.5164L124.885 1.08058L124.882 16.5168L124.91 16.5002L205.732 63.2019L192.738 70.7036L138.805 101.842L124.861 109.893L124.858 109.895L124.857 109.895L110.91 101.843L57.0289 70.7344L44.0355 63.2327L124.858 16.5307V1.06476L124.857 1.06445L16.6875 63.5161L124.858 126L125.666 125.533Z" fill="#F9F9F9" stroke="black" stroke-width="2" stroke-linejoin="round"/>
<path fill-rule="evenodd" clip-rule="evenodd" d="M173.025 82.0847C161.143 69.1251 144.072 61 125.104 61C106.044 61 88.9009 69.203 77.0114 82.2712L110.91 101.842L124.857 109.895L124.857 109.894L124.861 109.892L138.805 101.842L173.025 82.0847ZM187.035 106.207C189.028 112.448 190.104 119.098 190.104 126C190.104 157.198 168.124 183.263 138.805 189.553V150.158L138.808 134.05L152.752 126L187.035 106.207ZM110.91 189.446V150.158L110.91 134.053L96.9617 126L63.0958 106.447C61.1518 112.618 60.1035 119.187 60.1035 126C60.1035 157.023 81.8374 182.97 110.91 189.446Z" fill="#F9F9F9" stroke="black" stroke-width="2" stroke-linejoin="round"/>
</svg>
