<svg width="251" height="253" viewBox="0 0 251 253" fill="none" xmlns="http://www.w3.org/2000/svg">
<path fill-rule="evenodd" clip-rule="evenodd" d="M100.162 66.5L81.6035 55.78L56.8825 41.5L13.6035 66.5V183L56.8825 208V91.5L100.162 66.5Z" fill="#F9F9F9"/>
<path d="M236.662 183V66.5L193.383 91.5V208L236.662 183Z" fill="#F9F9F9"/>
<path fill-rule="evenodd" clip-rule="evenodd" d="M168.162 110L150.104 99.5688L138.732 93L124.883 85L111.033 93L100.162 99.28L81.6035 110V193.72V226.5L124.883 251.5V135L168.162 110Z" fill="#F9F9F9"/>
<path d="M168.162 226.5V193.431V110L124.883 135V251.5L168.162 226.5Z" fill="#F9F9F9"/>
<path fill-rule="evenodd" clip-rule="evenodd" d="M124.883 1L168.162 26L124.883 51L81.6035 26L124.883 1Z" fill="#F9F9F9"/>
<path fill-rule="evenodd" clip-rule="evenodd" d="M193.383 41.5L236.662 66.5L193.383 91.5L150.104 66.5L168.162 56.0688L193.383 41.5Z" fill="#F9F9F9"/>
<path d="M193.383 208V91.5L150.104 66.5V86.4312V99.5688L168.162 110V193.431L193.383 208Z" fill="#F9F9F9"/>
<path d="M168.162 26L124.883 51V85L138.732 93L150.104 99.5688V86.4312V66.5L168.162 56.0688V26Z" fill="#F9F9F9"/>
<path d="M124.883 51L81.6035 26V55.78L100.162 66.5V86.72V99.28L111.033 93L124.883 85V51Z" fill="#F9F9F9"/>
<path d="M100.162 66.5L56.8825 91.5V208L81.6035 193.72V110L100.162 99.28V86.72V66.5Z" fill="#F9F9F9"/>
<path d="M168.162 26L124.883 1L81.6035 26M168.162 26L124.883 51M168.162 26V56.0688M81.6035 26L124.883 51M81.6035 26V55.78M124.883 51V85M100.162 66.5L56.8825 91.5M100.162 66.5V86.72V99.28M100.162 66.5L81.6035 55.78M56.8825 208L13.6035 183V66.5M56.8825 208V91.5M56.8825 208L81.6035 193.72M13.6035 66.5L56.8825 41.5L81.6035 55.78M13.6035 66.5L56.8825 91.5M236.662 66.5L193.383 41.5L168.162 56.0688M236.662 66.5V183L193.383 208M236.662 66.5L193.383 91.5M193.383 208V91.5M193.383 208L168.162 193.431M150.104 66.5L193.383 91.5M150.104 66.5V86.4312V99.5688M150.104 66.5L168.162 56.0688M124.883 85L138.732 93L150.104 99.5688M124.883 85L111.033 93L100.162 99.28M168.162 110L124.883 135M168.162 110V193.431M168.162 110L150.104 99.5688M124.883 251.5L168.162 226.5V193.431M124.883 251.5L81.6035 226.5V193.72M124.883 251.5V135M81.6035 110L124.883 135M81.6035 110V193.72M81.6035 110L100.162 99.28" stroke="black" stroke-width="2" stroke-linejoin="round"/>
<path fill-rule="evenodd" clip-rule="evenodd" d="M100.162 66.5L81.6035 55.78L56.8825 41.5L13.6035 66.5V183L56.8825 208V91.5L100.162 66.5Z" fill="#F9F9F9"/>
<path d="M236.662 183V66.5L193.383 91.5V208L236.662 183Z" fill="#F9F9F9"/>
<path fill-rule="evenodd" clip-rule="evenodd" d="M168.162 110L150.104 99.5688L138.732 93L124.883 85L111.033 93L100.162 99.28L81.6035 110V193.72V226.5L124.883 251.5V135L168.162 110Z" fill="#F9F9F9"/>
<path d="M168.162 226.5V193.431V110L124.883 135V251.5L168.162 226.5Z" fill="#F9F9F9"/>
<path fill-rule="evenodd" clip-rule="evenodd" d="M124.883 1L168.162 26L124.883 51L81.6035 26L124.883 1Z" fill="#F9F9F9"/>
<path fill-rule="evenodd" clip-rule="evenodd" d="M193.383 41.5L236.662 66.5L193.383 91.5L150.104 66.5L168.162 56.0688L193.383 41.5Z" fill="#F9F9F9"/>
<path d="M168.162 26L124.883 1L81.6035 26M168.162 26L124.883 51M168.162 26V56.0688M81.6035 26L124.883 51M81.6035 26V55.78M124.883 51V85M100.162 66.5L56.8825 91.5M100.162 66.5V86.72V99.28M100.162 66.5L81.6035 55.78M56.8825 208L13.6035 183V66.5M56.8825 208V91.5M56.8825 208L81.6035 193.72M13.6035 66.5L56.8825 41.5L81.6035 55.78M13.6035 66.5L56.8825 91.5M236.662 66.5L193.383 41.5L168.162 56.0688M236.662 66.5V183L193.383 208M236.662 66.5L193.383 91.5M193.383 208V91.5M193.383 208L168.162 193.431M150.104 66.5L193.383 91.5M150.104 66.5V86.4312V99.5688M150.104 66.5L168.162 56.0688M124.883 85L138.732 93L150.104 99.5688M124.883 85L111.033 93L100.162 99.28M168.162 110L124.883 135M168.162 110V193.431M168.162 110L150.104 99.5688M124.883 251.5L168.162 226.5V193.431M124.883 251.5L81.6035 226.5V193.72M124.883 251.5V135M81.6035 110L124.883 135M81.6035 110V193.72M81.6035 110L100.162 99.28" stroke="black" stroke-width="2" stroke-linejoin="round"/>
</svg>
