<svg width="251" height="254" viewBox="0 0 251 254" fill="none" xmlns="http://www.w3.org/2000/svg">
<path d="M236.411 184.25V151.181V67.75L193.132 92.75V209.25L236.411 184.25Z" fill="#F9F9F9"/>
<path fill-rule="evenodd" clip-rule="evenodd" d="M218.353 57.3188L236.411 67.75L193.132 92.75L79.1035 26L122.383 1L218.353 57.3188Z" fill="#F9F9F9"/>
<path d="M236.411 67.75L193.132 92.75M236.411 67.75V151.181V184.25L193.132 209.25M236.411 67.75L218.353 57.3188L122.383 1L79.1035 26M193.132 209.25L79.1035 142.5V26M193.132 209.25V92.75M79.1035 26L193.132 92.75" stroke="black" stroke-width="2" stroke-linejoin="round"/>
<path d="M79.1035 142.5L193.132 209.25V92.75L79.1035 26V142.5Z" fill="#F9F9F9" stroke="black" stroke-width="2" stroke-linejoin="round"/>
<path fill-rule="evenodd" clip-rule="evenodd" d="M168.161 111L150.103 100.569L54.1325 44.25L10.8535 69.25V185.75L124.882 252.5V136L168.161 111Z" fill="#F9F9F9"/>
<path d="M168.161 227.5V194.431V111L124.882 136V252.5L168.161 227.5Z" fill="#F9F9F9"/>
<path d="M168.161 111L124.882 136M168.161 111V194.431V227.5L124.882 252.5M168.161 111L150.103 100.569L54.1325 44.25L10.8535 69.25M124.882 252.5L10.8535 185.75V69.25M124.882 252.5V136M10.8535 69.25L124.882 136" stroke="black" stroke-width="2" stroke-linejoin="round"/>
</svg>
