<svg width="253" height="252" viewBox="0 0 253 252" fill="none" xmlns="http://www.w3.org/2000/svg">
<path d="M126.104 1H251.104V126M126.104 1V126M126.104 1L1.10352 126M251.104 126H126.104M251.104 126L126.104 251M126.104 126H1.10352M126.104 126L126.104 251M1.10352 126V251H126.104" stroke="black" stroke-width="2" stroke-linejoin="round"/>
<path d="M126.104 126V1L1.10352 126H126.104Z" fill="#F9F9F9"/>
<path d="M251.104 126H126.104L126.104 251L251.104 126Z" fill="#F9F9F9"/>
<path d="M126.104 126H251.104L126.104 251L126.104 126ZM126.104 126V1L1.10352 126H126.104Z" stroke="black" stroke-width="2" stroke-linejoin="round"/>
<path d="M251.104 1H126.104V126H251.104V1Z" fill="#F9F9F9"/>
<path d="M126.104 126H1.10352V251H126.104L126.104 126Z" fill="#F9F9F9"/>
<path d="M126.104 126H251.104V1H126.104V126ZM126.104 126H1.10352V251H126.104L126.104 126Z" stroke="black" stroke-width="2" stroke-linejoin="round"/>
</svg>
