<svg width="251" height="252" viewBox="0 0 251 252" fill="none" xmlns="http://www.w3.org/2000/svg">
<path d="M153.6 34.0479L96.3519 1L39.1035 34.0479M153.6 34.0479L96.3519 67.0957M153.6 34.0479V109.476M39.1035 34.0479L96.3519 67.0957M39.1035 34.0479V184.904L96.3519 217.952L153.6 251M96.3519 67.0957V142.524M96.3519 142.524L153.6 175.572M96.3519 142.524L124.976 126L153.6 109.476M153.6 109.476L210.849 142.524M153.6 175.572L210.849 142.524M153.6 175.572V251M210.849 142.524V217.952L153.6 251" stroke="black" stroke-width="2" stroke-linejoin="round"/>
<path d="M96.3519 67.0957L39.1035 34.0479V184.904L96.3519 217.952L153.6 251V175.572L96.3519 142.524V67.0957Z" fill="#F9F9F9" stroke="black" stroke-width="2" stroke-linejoin="round"/>
<path d="M153.601 34.0479L96.3525 67.0957V142.524L124.977 126L153.601 109.476V34.0479Z" fill="#F9F9F9"/>
<path d="M210.849 142.524L153.601 175.572V251L210.849 217.952V142.524Z" fill="#F9F9F9"/>
<path d="M153.601 34.0479L96.3525 67.0957V142.524L124.977 126L153.601 109.476V34.0479Z" stroke="black" stroke-width="2" stroke-linejoin="round"/>
<path d="M210.849 142.524L153.601 175.572V251L210.849 217.952V142.524Z" stroke="black" stroke-width="2" stroke-linejoin="round"/>
<path d="M153.6 34.0479L96.3519 1L39.1035 34.0479L96.3519 67.0957L153.6 34.0479Z" fill="#F9F9F9"/>
<path d="M96.3519 142.524L153.6 175.572L210.849 142.524L153.6 109.476L124.976 126L96.3519 142.524Z" fill="#F9F9F9"/>
<path d="M153.6 34.0479L96.3519 1L39.1035 34.0479L96.3519 67.0957L153.6 34.0479Z" stroke="black" stroke-width="2" stroke-linejoin="round"/>
<path d="M96.3519 142.524L153.6 175.572L210.849 142.524L153.6 109.476L124.976 126L96.3519 142.524Z" stroke="black" stroke-width="2" stroke-linejoin="round"/>
</svg>
