<svg width="251" height="252" viewBox="0 0 251 252" fill="none" xmlns="http://www.w3.org/2000/svg">
<path d="M15.6035 39.674V220.613L65.4453 251M15.6035 39.674L170.667 132.215M15.6035 39.674L79.2902 1L234.353 96.3038M65.4453 251V144.646L130.516 183.084M65.4453 251L130.516 212.326V183.084M170.667 206.801V132.215M170.667 206.801L130.516 183.084M170.667 206.801L234.353 168.127V96.3038M170.667 132.215L234.353 96.3038" stroke="black" stroke-width="2" stroke-linecap="round" stroke-linejoin="round"/>
<path d="M15.6035 39.6738V220.613L65.4453 251V144.646L130.516 183.084L170.667 206.801V132.215L15.6035 39.6738Z" fill="#F9F9F9" stroke="black" stroke-width="2" stroke-linecap="round" stroke-linejoin="round"/>
<path d="M15.6035 39.674L170.667 132.215L234.353 96.3039L79.2902 1L15.6035 39.674Z" fill="#F9F9F9" stroke="black" stroke-width="2" stroke-linecap="round" stroke-linejoin="round"/>
<path d="M65.4443 144.646V251L130.516 212.326V183.084L65.4443 144.646Z" fill="#F9F9F9"/>
<path d="M170.666 132.215V206.801L234.353 168.127V96.3037L170.666 132.215Z" fill="#F9F9F9"/>
<path d="M65.4443 144.646V251L130.516 212.326V183.084L65.4443 144.646Z" stroke="black" stroke-width="2" stroke-linejoin="round"/>
<path d="M170.666 132.215V206.801L234.353 168.127V96.3037L170.666 132.215Z" stroke="black" stroke-width="2" stroke-linejoin="round"/>
</svg>
