<svg width="251" height="252" viewBox="0 0 251 252" fill="none" xmlns="http://www.w3.org/2000/svg">
<path d="M165.769 1.00004C200.655 1.00004 228.936 56.9644 228.936 126C228.936 195.036 200.655 251 165.769 251L84.2711 251M165.769 1.00004L84.2711 1.00005C49.385 1.00004 21.1043 56.9644 21.1042 126C21.1042 195.036 49.3851 251 84.2711 251M165.769 1.00004C152.139 1.00004 137.635 6.45687 125.02 18.4293M84.2711 251C97.901 251 112.405 245.543 125.02 233.571M125.02 233.571C144.693 214.899 159.771 180.381 159.771 126C159.771 71.6189 144.693 37.1007 125.02 18.4293M125.02 233.571C105.347 214.899 90.2689 180.381 90.2689 126C90.2689 71.619 105.347 37.1007 125.02 18.4293" stroke="black" stroke-width="2" stroke-linejoin="round"/>
<path d="M229.268 126C229.268 56.9644 200.987 1.00003 166.101 1.00004C152.471 1.00004 137.967 6.45687 125.352 18.4293C145.025 37.1007 160.103 71.6189 160.103 126C160.103 180.381 145.025 214.899 125.352 233.571C112.737 245.543 98.233 251 84.6032 251L166.101 251C200.987 251 229.268 195.036 229.268 126Z" fill="#F9F9F9" stroke="black" stroke-width="2" stroke-linejoin="round"/>
<path d="M165.768 1.00004L84.27 1.00004C49.3839 1.00004 21.1031 56.9644 21.1031 126C21.1031 195.036 49.3839 251 84.27 251C97.8999 251 112.404 245.543 125.019 233.571C105.346 214.899 90.2677 180.381 90.2677 126C90.2677 71.6189 105.346 37.1007 125.019 18.4293C137.634 6.45687 152.138 1.00003 165.768 1.00004Z" fill="#F9F9F9" stroke="black" stroke-width="2" stroke-linejoin="round"/>
</svg>
