<svg width="251" height="250" viewBox="0 0 251 250" fill="none" xmlns="http://www.w3.org/2000/svg">
<path d="M61.0369 89.7959C72.1422 57.2691 113.089 41.8073 152.493 55.261C191.898 68.7146 214.839 105.989 203.734 138.516C200.957 146.647 196.316 153.713 190.3 159.526M61.0369 89.7959C49.9315 122.323 72.8726 159.597 112.277 173.051M61.0369 89.7959C79.2085 73.1815 108.995 67.8361 137.932 77.7159C177.337 91.1696 200.175 128.153 189.069 160.68M112.277 173.051C141.169 182.915 170.89 177.235 189.069 160.68M112.277 173.051C141.831 183.141 172.251 176.966 190.3 159.526M20.2664 75.8759C2.81507 126.989 38.8654 185.563 100.787 206.705C149.276 223.26 199.25 211.952 227.03 181.724C229.974 178.521 232.669 175.105 235.086 171.487M20.2664 75.8759L20.3117 75.7431M20.2664 75.8759C20.2816 75.8312 20.2967 75.787 20.3117 75.7431M189.069 160.68C189.486 160.301 189.896 159.916 190.3 159.526M235.086 171.487C238.988 165.647 242.167 159.282 244.504 152.436C261.955 101.322 225.905 42.7482 163.984 21.6068C108.918 2.80614 51.9365 19.9391 27.7207 59.9094M235.086 171.487C235.086 171.487 226.024 185.081 219.972 192.232C184.541 234.097 141.267 247.697 86.1226 228.869C24.201 207.728 -11.8493 149.154 5.602 98.0403C8.15581 90.5604 13.4102 81.7145 17.998 73.9095C22.1483 66.8489 27.7207 59.9094 27.7207 59.9094M27.7207 59.9094C27.7207 59.9094 24.675 65.195 23.0759 68.752C21.5062 72.2438 21.1124 73.3974 20.3117 75.7431" stroke="black" stroke-width="2" stroke-linejoin="round"/>
<path d="M203.735 138.515C214.84 105.988 191.899 68.714 152.494 55.2603C113.09 41.8067 72.1432 57.2685 61.0378 89.7952C79.2095 73.1809 108.996 67.8355 137.933 77.7153C177.338 91.1689 200.176 128.153 189.07 160.68C189.487 160.301 189.897 159.916 190.301 159.525C196.317 153.712 200.958 146.647 203.735 138.515Z" fill="#F9F9F9"/>
<path d="M100.788 206.704C38.8663 185.563 2.81605 126.989 20.2673 75.8753L20.3127 75.7425C21.1134 73.3967 21.5072 72.2432 23.0769 68.7514C24.6759 65.1944 27.7217 59.9088 27.7217 59.9088C27.7217 59.9088 22.1493 66.8483 17.999 73.9089C13.4112 81.7138 8.15679 90.5597 5.60298 98.0397C-11.8483 149.153 24.202 207.727 86.1235 228.869C141.268 247.696 184.542 234.097 219.973 192.232C226.025 185.081 235.087 171.486 235.087 171.486C232.67 175.104 229.975 178.52 227.031 181.723C199.251 211.952 149.277 223.259 100.788 206.704Z" fill="#F9F9F9"/>
<path d="M203.735 138.515C214.84 105.988 191.899 68.714 152.494 55.2603C113.09 41.8067 72.1432 57.2685 61.0378 89.7952C79.2095 73.1809 108.996 67.8355 137.933 77.7153C177.338 91.1689 200.176 128.153 189.07 160.68C189.487 160.301 189.897 159.916 190.301 159.525C196.317 153.712 200.958 146.647 203.735 138.515Z" stroke="black" stroke-width="2" stroke-linejoin="round"/>
<path d="M100.788 206.704C38.8663 185.563 2.81605 126.989 20.2673 75.8753L20.3127 75.7425C21.1134 73.3967 21.5072 72.2432 23.0769 68.7514C24.6759 65.1944 27.7217 59.9088 27.7217 59.9088C27.7217 59.9088 22.1493 66.8483 17.999 73.9089C13.4112 81.7138 8.15679 90.5597 5.60298 98.0397C-11.8483 149.153 24.202 207.727 86.1235 228.869C141.268 247.696 184.542 234.097 219.973 192.232C226.025 185.081 235.087 171.486 235.087 171.486C232.67 175.104 229.975 178.52 227.031 181.723C199.251 211.952 149.277 223.259 100.788 206.704Z" stroke="black" stroke-width="2" stroke-linejoin="round"/>
<path fill-rule="evenodd" clip-rule="evenodd" d="M244.504 152.436C261.955 101.322 225.905 42.7482 163.984 21.6068C108.918 2.80614 51.9365 19.9391 27.7207 59.9094C27.7207 59.9094 24.675 65.195 23.0759 68.752C21.5062 72.2438 21.1124 73.3974 20.3117 75.7431L20.2664 75.8759C2.81507 126.989 38.8654 185.563 100.787 206.705C149.276 223.26 199.25 211.952 227.03 181.724C229.974 178.521 232.669 175.105 235.086 171.487C238.988 165.647 242.167 159.282 244.504 152.436ZM152.493 55.261C191.898 68.7146 214.839 105.989 203.734 138.516C200.957 146.647 196.316 153.713 190.3 159.526C189.896 159.916 189.486 160.301 189.069 160.68C170.89 177.235 141.169 182.915 112.277 173.051C72.8726 159.597 49.9315 122.323 61.0369 89.7959C72.1422 57.2691 113.089 41.8073 152.493 55.261Z" fill="#F9F9F9" stroke="black" stroke-width="2" stroke-linejoin="round"/>
</svg>
