<svg width="253" height="250" viewBox="0 0 253 250" fill="none" xmlns="http://www.w3.org/2000/svg">
<path d="M163.822 132.996V154.197C163.822 165.421 171.916 172.28 181.902 172.28M163.822 132.996V131.749M163.822 132.996C163.822 122.321 155.169 113.666 144.495 113.666M181.902 172.28C191.887 172.28 201.228 166.668 201.228 154.197V95.5831C201.228 85.5961 209.323 77.5 219.308 77.5M181.902 172.28H251.104C242.999 172.28 237.388 167.915 237.388 158.562V95.5721C237.388 85.5851 229.293 77.5 219.308 77.5M181.902 172.28H103.348M144.495 113.666C133.821 113.666 125.168 122.321 125.168 132.996V153.262C125.168 153.262 126.104 172.28 103.348 172.28M144.495 113.666C122.675 113.666 79.0337 113.666 79.0337 113.666M144.495 113.666H79.0337M103.348 172.28H1.10352C24.1708 172.28 24.1708 152.638 24.1708 152.638V132.996C24.1708 122.321 32.8237 113.666 43.4975 113.666H79.0337M219.308 77.5H97.1135C87.1283 77.5 79.0337 85.5961 79.0337 95.5831V113.666" stroke="black" stroke-width="2" stroke-linejoin="round"/>
<path d="M125.168 132.996C125.168 122.321 133.821 113.666 144.495 113.666H79.0337H43.4975C32.8237 113.666 24.1708 122.321 24.1708 132.996V152.638C24.1708 152.638 24.1708 172.28 1.10352 172.28H103.348C126.104 172.28 125.168 153.262 125.168 153.262V132.996Z" fill="#F9F9F9"/>
<path d="M163.822 132.996V154.197C163.822 165.421 171.916 172.28 181.902 172.28C191.887 172.28 201.228 166.668 201.228 154.197V95.5831C201.228 85.5961 209.323 77.5 219.308 77.5H97.1135C87.1283 77.5 79.0337 85.5961 79.0337 95.5831V113.666H144.495C155.169 113.666 163.822 122.321 163.822 132.996Z" fill="#F9F9F9"/>
<path d="M144.495 113.666C155.169 113.666 163.822 122.321 163.822 132.996V154.197C163.822 165.421 171.916 172.28 181.902 172.28C191.887 172.28 201.228 166.668 201.228 154.197V95.5831C201.228 85.5961 209.323 77.5 219.308 77.5H97.1135C87.1283 77.5 79.0337 85.5961 79.0337 95.5831V113.666M144.495 113.666C133.821 113.666 125.168 122.321 125.168 132.996V153.262C125.168 153.262 126.104 172.28 103.348 172.28H1.10352C24.1708 172.28 24.1708 152.638 24.1708 152.638V132.996C24.1708 122.321 32.8237 113.666 43.4975 113.666H79.0337M144.495 113.666H79.0337" stroke="black" stroke-width="2" stroke-linejoin="round"/>
<path d="M163.821 154.197V132.996C163.821 122.321 155.169 113.666 144.495 113.666C133.821 113.666 125.168 122.321 125.168 132.996V153.262C125.168 153.262 126.103 172.28 103.348 172.28H181.901C171.916 172.28 163.821 165.421 163.821 154.197Z" fill="#F9F9F9"/>
<path d="M201.228 154.197C201.228 166.668 191.886 172.28 181.901 172.28H251.103C242.999 172.28 237.388 167.915 237.388 158.562V95.5721C237.388 85.5851 229.293 77.5 219.308 77.5C209.323 77.5 201.228 85.5961 201.228 95.5831V154.197Z" fill="#F9F9F9"/>
<path d="M181.901 172.28C171.916 172.28 163.821 165.421 163.821 154.197V132.996C163.821 122.321 155.169 113.666 144.495 113.666C133.821 113.666 125.168 122.321 125.168 132.996V153.262C125.168 153.262 126.103 172.28 103.348 172.28H181.901ZM181.901 172.28C191.886 172.28 201.228 166.668 201.228 154.197V95.5831C201.228 85.5961 209.323 77.5 219.308 77.5C229.293 77.5 237.388 85.5851 237.388 95.5721V158.562C237.388 167.915 242.999 172.28 251.103 172.28H181.901Z" stroke="black" stroke-width="2" stroke-linejoin="round"/>
</svg>
