<svg width="253" height="250" viewBox="0 0 253 250" fill="none" xmlns="http://www.w3.org/2000/svg">
<path d="M18.1449 23.2451C27.5285 23.2451 35.1354 30.852 35.1354 40.2357V46.2768L35.0175 64.0224M18.1449 23.2451C8.76123 23.2451 1.1543 30.852 1.1543 40.2357V64.0224H35.0175M18.1449 23.2451H193.336M18.1449 23.2451H176.346H193.336M193.336 23.2451V23.2451C202.72 23.2451 210.327 30.852 210.327 40.2357V43.2562M210.327 43.2562V63.2673V121.413M210.327 43.2562V121.413M210.327 121.413H239.022C245.695 121.413 251.104 126.822 251.104 133.495V148.598V226.754H79.6884L80.0642 187.865M210.327 121.413H68.3614M68.3614 121.413C75.0342 121.413 80.4435 126.822 80.4435 133.495V148.598L80.066 187.676L80.0642 187.865M68.3614 121.413C61.6886 121.413 57.0343 126.822 57.0343 133.495V148.598V159.925V176.538C57.0343 182.793 51.9631 187.865 45.7073 187.865M45.7073 187.865C39.4516 187.865 34.3803 182.793 34.3803 176.538V159.925L35.0175 64.0224M45.7073 187.865H80.0642" stroke="black" stroke-width="2" stroke-linejoin="round"/>
<path d="M80.4426 148.598V133.495C80.4426 126.822 75.0332 121.413 68.3604 121.413C61.6876 121.413 57.0334 126.822 57.0334 133.495V148.598V159.925V176.538C57.0334 182.793 51.9621 187.865 45.7063 187.865H79.8744C79.979 187.865 80.064 187.78 80.065 187.676V187.676L80.4426 148.598Z" fill="#F9F9F9"/>
<path d="M35.1344 46.2768V40.2357C35.1344 30.852 27.5275 23.2451 18.1439 23.2451C8.76025 23.2451 1.15332 30.852 1.15332 40.2357V64.0224H35.0165L35.1344 46.2768Z" fill="#F9F9F9"/>
<path d="M80.4426 148.598V133.495C80.4426 126.822 75.0332 121.413 68.3604 121.413C61.6876 121.413 57.0334 126.822 57.0334 133.495V148.598V159.925V176.538C57.0334 182.793 51.9621 187.865 45.7063 187.865H79.8744C79.979 187.865 80.064 187.78 80.065 187.676V187.676L80.4426 148.598Z" stroke="black" stroke-width="2" stroke-linejoin="round"/>
<path d="M35.1344 46.2768V40.2357C35.1344 30.852 27.5275 23.2451 18.1439 23.2451C8.76025 23.2451 1.15332 30.852 1.15332 40.2357V64.0224H35.0165L35.1344 46.2768Z" stroke="black" stroke-width="2" stroke-linejoin="round"/>
<path d="M251.103 133.495C251.103 126.822 245.694 121.413 239.021 121.413H210.326H68.3601C75.0329 121.413 80.4422 126.822 80.4422 133.495V148.598L79.6871 226.754H251.103V133.495Z" fill="#F9F9F9"/>
<path d="M35.1341 40.2357V46.2768L34.379 159.925V176.538C34.379 182.793 39.4503 187.865 45.706 187.865C51.9618 187.865 57.033 182.793 57.033 176.538V133.495C57.033 126.822 61.6873 121.413 68.3601 121.413H210.326V40.2357C210.326 30.852 202.719 23.2451 193.335 23.2451H18.1436C27.5272 23.2451 35.1341 30.852 35.1341 40.2357Z" fill="#F9F9F9"/>
<path d="M210.326 121.413H239.021C245.694 121.413 251.103 126.822 251.103 133.495V226.754H79.6871L80.4422 148.598V133.495C80.4422 126.822 75.0329 121.413 68.3601 121.413M210.326 121.413H68.3601M210.326 121.413V40.2357C210.326 30.852 202.719 23.2451 193.335 23.2451H18.1436C27.5272 23.2451 35.1341 30.852 35.1341 40.2357V46.2768L34.379 159.925V176.538C34.379 182.793 39.4503 187.865 45.706 187.865C51.9618 187.865 57.033 182.793 57.033 176.538V133.495C57.033 126.822 61.6873 121.413 68.3601 121.413" stroke="black" stroke-width="2" stroke-linejoin="round"/>
</svg>
