<svg width="253" height="252" viewBox="0 0 253 252" fill="none" xmlns="http://www.w3.org/2000/svg">
<path d="M213.413 0.999998C206.94 0.999998 200.993 11.2839 196.31 28.4731C202.551 51.3826 206.547 86.558 206.547 126C206.547 150.799 202.79 173.912 196.31 193.35C200.812 206.855 206.629 218.587 213.413 227.877C229.961 205.216 240.753 168.03 240.753 126C240.753 56.9644 228.513 0.999999 213.413 0.999998Z" fill="#F9F9F9"/>
<path d="M158.619 246.632C164.069 249.48 169.803 251 175.722 251C182.917 251 189.84 248.754 196.31 244.607C190.146 240.656 184.394 234.98 179.206 227.877C173.053 236.302 166.105 242.72 158.619 246.632Z" fill="#F9F9F9"/>
<path d="M138.032 0.999995C131.559 0.999995 125.611 11.2839 120.928 28.4731C127.17 51.3826 131.165 86.558 131.165 126C131.165 150.799 127.408 173.912 120.928 193.35C125.431 206.855 131.247 218.587 138.032 227.877C146.727 215.97 153.833 200.052 158.619 181.529C154.296 164.8 151.866 145.946 151.866 126C151.866 94.503 154.414 65.7269 158.619 43.7453C153.607 17.5471 146.242 0.999995 138.032 0.999995Z" fill="#F9F9F9"/>
<path d="M83.2377 246.632C88.6875 249.48 94.4219 251 100.341 251C107.536 251 114.458 248.754 120.928 244.607C114.765 240.656 109.012 234.98 103.825 227.877C97.6721 236.302 90.7234 242.72 83.2377 246.632Z" fill="#F9F9F9"/>
<path fill-rule="evenodd" clip-rule="evenodd" d="M7.85643 246.632C13.3062 249.48 19.0406 251 24.9597 251C32.1549 251 39.0772 248.754 45.5471 244.607C39.3838 240.656 33.631 234.98 28.4438 227.877C22.2909 236.302 15.3421 242.72 7.85643 246.632Z" fill="#F9F9F9"/>
<path d="M83.2301 181.5C78.9123 164.778 76.4848 145.934 76.4848 126C76.4848 94.503 79.0327 65.7269 83.2377 43.7452C78.2262 17.5471 70.8609 0.999992 62.6504 0.999992C56.1776 0.999991 50.2302 11.2839 45.5471 28.4731C51.7886 51.3826 55.7842 86.5579 55.7842 126C55.7842 150.799 52.027 173.912 45.5471 193.35C50.0268 206.788 55.8078 218.469 62.5483 227.737C71.1986 215.845 78.4627 199.951 83.2301 181.5Z" fill="#F9F9F9"/>
<path d="M216.897 251L251.104 251C245.184 251 239.45 249.48 234 246.632C226.515 242.72 219.566 236.302 213.413 227.877C206.629 218.587 200.812 206.855 196.31 193.35C189.83 173.912 186.073 150.799 186.073 126C186.073 86.558 190.068 51.3826 196.31 28.4731C200.993 11.2839 206.94 0.999998 213.413 0.999998L179.206 0.999997C170.996 0.999996 163.631 17.5471 158.619 43.7453C154.414 65.7269 151.866 94.503 151.866 126C151.866 145.946 154.296 164.8 158.619 181.529C163.405 200.052 170.511 215.97 179.206 227.877C184.394 234.98 190.146 240.656 196.31 244.607C202.78 248.754 209.702 251 216.897 251Z" fill="#F9F9F9"/>
<path d="M83.2301 181.5C88.0164 200.036 95.1253 215.963 103.825 227.877C109.012 234.98 114.765 240.656 120.928 244.607C127.398 248.754 134.321 251 141.516 251L175.722 251C169.803 251 164.069 249.48 158.619 246.632C151.133 242.72 144.185 236.302 138.032 227.877C131.247 218.587 125.431 206.855 120.928 193.35C114.448 173.912 110.691 150.799 110.691 126C110.691 86.558 114.687 51.3826 120.928 28.4731C125.611 11.2839 131.559 0.999995 138.032 0.999995L103.825 0.999994C95.6145 0.999993 88.2493 17.5471 83.2377 43.7452C79.0327 65.7269 76.4848 94.503 76.4848 126C76.4848 145.934 78.9123 164.778 83.2301 181.5Z" fill="#F9F9F9"/>
<path d="M28.4438 0.99999C13.3442 0.99999 1.1035 56.9644 1.10349 126C1.10349 168.03 11.8956 205.216 28.4438 227.877C33.631 234.98 39.3838 240.656 45.5471 244.607C52.017 248.754 58.9393 251 66.1344 251L100.341 251C94.4219 251 88.6875 249.48 83.2377 246.632C75.752 242.72 68.8033 236.302 62.6503 227.877L62.6107 227.822L62.5483 227.737C55.8078 218.469 50.0268 206.788 45.5471 193.35L45.5168 193.259C39.0555 173.84 35.31 150.761 35.31 126C35.31 86.5579 39.3056 51.3826 45.5471 28.4731C50.2302 11.2839 56.1776 0.999991 62.6504 0.999992L28.4438 0.99999Z" fill="#F9F9F9"/>
<path d="M213.413 0.999998C228.513 0.999999 240.753 56.9644 240.753 126C240.753 168.03 229.961 205.216 213.413 227.877M213.413 0.999998L179.206 0.999997C170.996 0.999996 163.631 17.5471 158.619 43.7453M213.413 0.999998C206.94 0.999998 200.993 11.2839 196.31 28.4731M213.413 227.877C206.629 218.587 200.812 206.855 196.31 193.35M213.413 227.877C219.566 236.302 226.515 242.72 234 246.632C239.45 249.48 245.184 251 251.104 251L216.897 251C209.702 251 202.78 248.754 196.31 244.607M138.032 0.999995L103.825 0.999994C95.6146 0.999993 88.2493 17.5471 83.2377 43.7452M138.032 0.999995C131.559 0.999995 125.611 11.2839 120.928 28.4731M138.032 0.999995C146.242 0.999995 153.607 17.5471 158.619 43.7453M175.722 251L141.516 251C134.321 251 127.398 248.754 120.928 244.607M175.722 251C169.803 251 164.069 249.48 158.619 246.632M175.722 251C182.917 251 189.84 248.754 196.31 244.607M138.032 227.877C144.185 236.302 151.133 242.72 158.619 246.632M138.032 227.877C131.247 218.587 125.431 206.855 120.928 193.35M138.032 227.877C146.727 215.97 153.833 200.052 158.619 181.529M62.6504 0.999992L28.4438 0.99999C13.3442 0.99999 1.1035 56.9644 1.10349 126C1.10349 168.03 11.8956 205.216 28.4438 227.877M62.6504 0.999992C56.1776 0.999991 50.2302 11.2839 45.5471 28.4731M62.6504 0.999992C70.8609 0.999992 78.2262 17.5471 83.2377 43.7452M100.341 251L66.1344 251C58.9393 251 52.017 248.754 45.5471 244.607M100.341 251C94.4219 251 88.6875 249.48 83.2377 246.632M100.341 251C107.536 251 114.458 248.754 120.928 244.607M179.206 227.877C184.394 234.98 190.146 240.656 196.31 244.607M179.206 227.877C173.053 236.302 166.105 242.72 158.619 246.632M179.206 227.877C170.511 215.97 163.405 200.052 158.619 181.529M76.4848 126C76.4847 168.03 87.2768 205.216 103.825 227.877M76.4848 126C76.4848 94.503 79.0327 65.7269 83.2377 43.7452M76.4848 126C76.4848 145.934 78.9123 164.778 83.2301 181.5M103.825 227.877C109.012 234.98 114.765 240.656 120.928 244.607M103.825 227.877C97.6721 236.302 90.7234 242.72 83.2377 246.632M103.825 227.877C95.1253 215.963 88.0164 200.036 83.2301 181.5M55.7842 126C55.7842 86.5579 51.7886 51.3826 45.5471 28.4731M55.7842 126C55.7842 150.761 51.9783 173.84 45.5168 193.259M55.7842 126C55.7842 150.799 52.027 173.912 45.5471 193.35M196.31 28.4731C202.551 51.3826 206.547 86.558 206.547 126C206.547 150.799 202.79 173.912 196.31 193.35M196.31 28.4731C190.068 51.3826 186.073 86.558 186.073 126C186.073 150.799 189.83 173.912 196.31 193.35M120.928 28.4731C127.17 51.3826 131.165 86.558 131.165 126C131.165 150.799 127.408 173.912 120.928 193.35M120.928 28.4731C114.687 51.3826 110.691 86.558 110.691 126C110.691 150.799 114.448 173.912 120.928 193.35M158.619 181.529C154.296 164.8 151.866 145.946 151.866 126C151.866 94.503 154.414 65.7269 158.619 43.7453M83.2377 246.632C75.752 242.72 68.8033 236.302 62.6503 227.877M45.5471 28.4731C39.3056 51.3826 35.31 86.5579 35.31 126C35.31 150.761 39.0555 173.84 45.5168 193.259M45.4865 193.35C45.4966 193.319 45.5067 193.289 45.5168 193.259M62.4462 227.877C62.4803 227.83 62.5143 227.783 62.5483 227.737M83.2301 181.5C78.4627 199.951 71.1986 215.845 62.5483 227.737M45.5168 193.259L45.5471 193.35M45.5168 193.259C45.5269 193.289 45.537 193.319 45.5471 193.35M62.5483 227.737C55.8078 218.469 50.0268 206.788 45.5471 193.35M62.5483 227.737L62.6107 227.822M62.5483 227.737C62.5691 227.765 62.5899 227.794 62.6107 227.822M45.5471 244.607C39.0772 248.754 32.1549 251 24.9597 251C19.0406 251 13.3062 249.48 7.85643 246.632C15.3421 242.72 22.2909 236.302 28.4438 227.877M45.5471 244.607C39.3838 240.656 33.631 234.98 28.4438 227.877M62.6107 227.822L62.6503 227.877M62.6107 227.822C62.6239 227.84 62.6371 227.858 62.6503 227.877" stroke="black" stroke-width="2" stroke-linejoin="round"/>
<path d="M213.413 0.999998C206.94 0.999998 200.993 11.2839 196.31 28.4731C202.551 51.3826 206.547 86.558 206.547 126C206.547 150.799 202.79 173.912 196.31 193.35C200.812 206.855 206.629 218.587 213.413 227.877C229.961 205.216 240.753 168.03 240.753 126C240.753 56.9644 228.513 0.999999 213.413 0.999998Z" fill="#F9F9F9"/>
<path d="M158.619 246.632C164.069 249.48 169.803 251 175.722 251C182.917 251 189.84 248.754 196.31 244.607C190.146 240.656 184.394 234.98 179.206 227.877C173.053 236.302 166.105 242.72 158.619 246.632Z" fill="#F9F9F9"/>
<path d="M138.032 0.999995C131.559 0.999995 125.611 11.2839 120.928 28.4731C127.17 51.3826 131.165 86.558 131.165 126C131.165 150.799 127.408 173.912 120.928 193.35C125.431 206.855 131.247 218.587 138.032 227.877C146.727 215.97 153.833 200.052 158.619 181.529C154.296 164.8 151.866 145.946 151.866 126C151.866 94.503 154.414 65.7269 158.619 43.7453C153.607 17.5471 146.242 0.999995 138.032 0.999995Z" fill="#F9F9F9"/>
<path d="M83.2377 246.632C88.6875 249.48 94.4219 251 100.341 251C107.536 251 114.458 248.754 120.928 244.607C114.765 240.656 109.012 234.98 103.825 227.877C97.6721 236.302 90.7234 242.72 83.2377 246.632Z" fill="#F9F9F9"/>
<path fill-rule="evenodd" clip-rule="evenodd" d="M7.85643 246.632C13.3062 249.48 19.0406 251 24.9597 251C32.1549 251 39.0772 248.754 45.5471 244.607C39.3838 240.656 33.631 234.98 28.4438 227.877C22.2909 236.302 15.3422 242.72 7.85643 246.632Z" fill="#F9F9F9"/>
<path d="M83.2301 181.5C78.9123 164.778 76.4848 145.934 76.4848 126C76.4848 94.503 79.0327 65.7269 83.2377 43.7452C78.2262 17.5471 70.8609 0.999992 62.6504 0.999992C56.1776 0.999991 50.2302 11.2839 45.5471 28.4731C51.7886 51.3826 55.7842 86.5579 55.7842 126C55.7842 150.799 52.027 173.912 45.5471 193.35C50.0268 206.788 55.8078 218.469 62.5483 227.737C71.1986 215.845 78.4627 199.951 83.2301 181.5Z" fill="#F9F9F9"/>
<path d="M213.413 0.999998C228.513 0.999999 240.753 56.9644 240.753 126C240.753 168.03 229.961 205.216 213.413 227.877M213.413 0.999998L179.206 0.999997C170.996 0.999996 163.631 17.5471 158.619 43.7453M213.413 0.999998C206.94 0.999998 200.993 11.2839 196.31 28.4731M213.413 227.877C206.629 218.587 200.812 206.855 196.31 193.35M213.413 227.877C219.566 236.302 226.515 242.72 234 246.632C239.45 249.48 245.184 251 251.104 251L216.897 251C209.702 251 202.78 248.754 196.31 244.607M138.032 0.999995L103.825 0.999994C95.6145 0.999993 88.2493 17.5471 83.2377 43.7452M138.032 0.999995C131.559 0.999995 125.611 11.2839 120.928 28.4731M138.032 0.999995C146.242 0.999995 153.607 17.5471 158.619 43.7453M175.722 251L141.516 251C134.321 251 127.398 248.754 120.928 244.607M175.722 251C169.803 251 164.069 249.48 158.619 246.632M175.722 251C182.917 251 189.84 248.754 196.31 244.607M138.032 227.877C144.185 236.302 151.133 242.72 158.619 246.632M138.032 227.877C131.247 218.587 125.431 206.855 120.928 193.35M138.032 227.877C146.727 215.97 153.833 200.052 158.619 181.529M62.6504 0.999992L28.4438 0.99999C13.3442 0.99999 1.10349 56.9644 1.10349 126C1.10349 168.03 11.8956 205.216 28.4438 227.877M62.6504 0.999992C56.1776 0.999991 50.2302 11.2839 45.5471 28.4731M62.6504 0.999992C70.8609 0.999992 78.2262 17.5471 83.2377 43.7452M100.341 251L66.1345 251C58.9393 251 52.017 248.754 45.5471 244.607M100.341 251C94.4219 251 88.6875 249.48 83.2377 246.632M100.341 251C107.536 251 114.458 248.754 120.928 244.607M179.206 227.877C184.394 234.98 190.146 240.656 196.31 244.607M179.206 227.877C173.053 236.302 166.105 242.72 158.619 246.632M179.206 227.877C170.511 215.97 163.405 200.052 158.619 181.529M76.4847 126C76.4847 168.03 87.2768 205.216 103.825 227.877M76.4847 126C76.4847 94.503 79.0327 65.7269 83.2377 43.7452M76.4847 126C76.4847 145.934 78.9123 164.778 83.2301 181.5C78.4627 199.951 71.1986 215.845 62.5483 227.737M103.825 227.877C109.012 234.98 114.765 240.656 120.928 244.607M103.825 227.877C97.6721 236.302 90.7234 242.72 83.2377 246.632M55.7842 126C55.7842 86.5579 51.7886 51.3826 45.5471 28.4731M55.7842 126C55.7842 150.761 51.9783 173.84 45.5168 193.259M55.7842 126C55.7842 150.799 52.027 173.912 45.5471 193.35M196.31 28.4731C202.551 51.3826 206.547 86.558 206.547 126C206.547 150.799 202.79 173.912 196.31 193.35M196.31 28.4731C190.068 51.3826 186.073 86.558 186.073 126C186.073 150.799 189.83 173.912 196.31 193.35M120.928 28.4731C127.17 51.3826 131.165 86.558 131.165 126C131.165 150.799 127.408 173.912 120.928 193.35M120.928 28.4731C114.687 51.3826 110.691 86.558 110.691 126C110.691 150.799 114.448 173.912 120.928 193.35M158.619 181.529C154.296 164.8 151.866 145.946 151.866 126C151.866 94.503 154.414 65.7269 158.619 43.7453M83.2377 246.632C75.752 242.72 68.8033 236.302 62.6503 227.877M45.5471 28.4731C39.3056 51.3826 35.31 86.5579 35.31 126C35.31 150.761 39.0555 173.84 45.5168 193.259M45.4865 193.35C45.4966 193.32 45.5067 193.289 45.5168 193.259M62.4462 227.877C62.4803 227.83 62.5143 227.783 62.5483 227.737M45.5168 193.259L45.5471 193.35M45.5168 193.259C45.5269 193.289 45.537 193.32 45.5471 193.35M62.5483 227.737C55.8078 218.469 50.0268 206.788 45.5471 193.35M62.5483 227.737L62.6107 227.822M62.5483 227.737C62.5691 227.765 62.5899 227.794 62.6107 227.822M45.5471 244.607C39.0772 248.754 32.1549 251 24.9597 251C19.0406 251 13.3062 249.48 7.85644 246.632C15.3421 242.72 22.2909 236.302 28.4438 227.877M45.5471 244.607C39.3838 240.656 33.631 234.98 28.4438 227.877M62.6107 227.822L62.6503 227.877M62.6107 227.822C62.6239 227.84 62.6371 227.858 62.6503 227.877" stroke="black" stroke-width="2" stroke-linejoin="round"/>
</svg>
