<svg width="253" height="252" viewBox="0 0 253 252" fill="none" xmlns="http://www.w3.org/2000/svg">
<path d="M251.104 80.932V50.8866C251.104 56.1217 249.083 61.1684 245.336 65.9093C241.009 71.3851 234.378 76.4529 225.899 80.932C213.832 87.3057 198.02 92.487 179.769 95.9546C163.508 99.0441 145.312 100.773 126.104 100.773C102.943 100.773 81.2544 99.0165 62.6561 95.9546C41.3037 92.4394 24.025 87.204 13.271 80.932C5.47107 76.3828 1.10352 71.2883 1.10352 65.9093L1.10352 95.9546C1.10352 101.334 5.47107 106.428 13.271 110.977C24.025 117.249 41.3037 122.485 62.6561 126C81.2544 129.062 102.943 130.819 126.104 130.819C145.312 130.819 163.508 129.089 179.769 126C198.02 122.532 213.832 117.351 225.899 110.977C234.378 106.498 241.009 101.43 245.336 95.9546C249.083 91.2137 251.104 86.167 251.104 80.932Z" fill="#F9F9F9"/>
<path d="M251.104 141.023V110.977C251.104 116.212 249.083 121.259 245.336 126C241.009 131.476 234.378 136.544 225.899 141.023C213.832 147.396 198.02 152.578 179.769 156.045C163.508 159.135 145.312 160.864 126.104 160.864C102.943 160.864 81.2544 159.107 62.6561 156.045C41.3037 152.53 24.025 147.295 13.271 141.023C5.47107 136.474 1.10352 131.379 1.10352 126V156.045C1.10352 161.424 5.47107 166.519 13.271 171.068C24.0251 177.34 41.3037 182.575 62.6561 186.091C81.2544 189.153 102.943 190.909 126.104 190.909C145.274 190.909 163.437 189.187 179.673 186.109C197.964 182.641 213.811 177.453 225.899 171.068C234.378 166.589 241.009 161.521 245.336 156.045C249.083 151.304 251.104 146.258 251.104 141.023Z" fill="#F9F9F9"/>
<path d="M1.10352 216.136C1.10352 235.391 57.0679 251 126.104 251C195.139 251 251.104 228.665 251.104 201.113V171.068C251.104 176.303 249.083 181.35 245.336 186.091C240.98 191.603 234.29 196.702 225.729 201.203C202.901 213.204 166.77 220.955 126.104 220.955C103.077 220.955 81.5038 219.218 62.9771 216.189C41.4769 212.673 24.0789 207.417 13.271 201.113C5.47107 196.564 1.10352 191.47 1.10352 186.091L1.10352 216.136Z" fill="#F9F9F9"/>
<path d="M126.104 31.0454C57.0679 31.0454 1.10352 46.6545 1.10352 65.9093C1.10352 71.2883 5.47107 76.3828 13.271 80.932C33.392 69.1969 76.3537 61.0907 126.104 61.0907C166.871 61.0907 203.081 68.8795 225.899 80.932C234.378 76.4529 241.009 71.3851 245.336 65.9093C229.364 45.699 182.022 31.0454 126.104 31.0454Z" fill="#F9F9F9"/>
<path d="M225.899 141.023C234.378 136.544 241.009 131.476 245.336 126C241.009 120.524 234.378 115.456 225.899 110.977C213.832 117.351 198.02 122.532 179.769 126C198.02 129.468 213.832 134.649 225.899 141.023Z" fill="#F9F9F9"/>
<path d="M62.6561 95.9546C81.2544 99.0165 102.943 100.773 126.104 100.773C145.312 100.773 163.508 99.0441 179.769 95.9546C163.508 92.8652 145.312 91.136 126.104 91.136C102.943 91.136 81.2544 92.8928 62.6561 95.9546Z" fill="#F9F9F9"/>
<path d="M62.6561 126C41.3037 122.485 24.025 117.249 13.271 110.977C5.47107 115.526 1.10352 120.621 1.10352 126C1.10352 131.379 5.47107 136.474 13.271 141.023C24.025 134.751 41.3037 129.515 62.6561 126Z" fill="#F9F9F9"/>
<path d="M1.10352 186.091C1.10352 191.47 5.47107 196.564 13.271 201.113C24.0251 194.841 41.3037 189.606 62.6561 186.091C41.3037 182.575 24.0251 177.34 13.271 171.068C5.47108 175.617 1.10352 180.712 1.10352 186.091Z" fill="#F9F9F9"/>
<path d="M62.6561 156.045C81.2544 159.107 102.943 160.864 126.104 160.864C145.312 160.864 163.508 159.135 179.769 156.045C163.508 152.956 145.312 151.227 126.104 151.227C102.943 151.227 81.2544 152.984 62.6561 156.045Z" fill="#F9F9F9"/>
<path d="M62.9771 216.189C81.5038 219.218 103.077 220.955 126.104 220.955C145.335 220.955 163.552 219.221 179.828 216.125C163.567 213.035 145.371 211.306 126.162 211.306C103.157 211.306 81.4935 213.163 62.9771 216.189Z" fill="#F9F9F9"/>
<path d="M225.899 171.068C213.811 177.453 197.964 182.641 179.673 186.109C197.674 189.576 213.793 194.905 225.729 201.203C234.29 196.702 240.98 191.603 245.336 186.091C241.009 180.615 234.378 175.547 225.899 171.068Z" fill="#F9F9F9"/>
<path d="M1.10352 65.9093C1.10352 46.6545 57.0679 31.0454 126.104 31.0454C182.022 31.0454 229.364 45.699 245.336 65.9093M1.10352 65.9093L1.10352 95.9546C1.10352 101.334 5.47107 106.428 13.271 110.977M1.10352 65.9093C1.10352 71.2883 5.47107 76.3828 13.271 80.932M251.104 50.8866C251.104 23.335 195.139 1 126.104 1M251.104 50.8866V80.932C251.104 86.167 249.083 91.2137 245.336 95.9546M251.104 50.8866C251.104 56.1217 249.083 61.1684 245.336 65.9093M1.10352 126C1.10352 120.621 5.47107 115.526 13.271 110.977M1.10352 126V156.045C1.10352 161.424 5.47107 166.519 13.271 171.068M1.10352 126C1.10352 131.379 5.47107 136.474 13.271 141.023M251.104 110.977C251.104 105.742 249.083 100.696 245.336 95.9546M251.104 110.977V141.023C251.104 146.258 249.083 151.304 245.336 156.045M251.104 110.977C251.104 116.212 249.083 121.259 245.336 126M126.104 220.955C145.335 220.955 163.552 219.221 179.828 216.125M126.104 220.955C166.77 220.955 202.901 213.204 225.729 201.203M126.104 220.955C103.077 220.955 81.5038 219.218 62.9771 216.189M1.10352 186.091L1.10352 216.136C1.10352 235.391 57.0679 251 126.104 251C195.139 251 251.104 228.665 251.104 201.113V171.068M1.10352 186.091C1.10352 191.47 5.47107 196.564 13.271 201.113M1.10352 186.091C1.10352 180.712 5.47108 175.617 13.271 171.068M251.104 171.068C251.104 165.833 249.083 160.786 245.336 156.045M251.104 171.068C251.104 176.303 249.083 181.35 245.336 186.091M245.336 65.9093C241.009 71.3851 234.378 76.4529 225.899 80.932M225.899 80.932C203.081 68.8795 166.871 61.0907 126.104 61.0907C76.3537 61.0907 33.392 69.1969 13.271 80.932M225.899 80.932C213.832 87.3057 198.02 92.487 179.769 95.9546M245.336 95.9546C241.009 101.43 234.378 106.498 225.899 110.977M245.336 126C241.009 131.476 234.378 136.544 225.899 141.023M245.336 126C241.009 120.524 234.378 115.456 225.899 110.977M225.899 141.023C213.832 134.649 198.02 129.468 179.769 126M225.899 141.023C213.832 147.396 198.02 152.578 179.769 156.045M245.336 156.045C241.009 161.521 234.378 166.589 225.899 171.068M62.6561 95.9546C81.2544 99.0165 102.943 100.773 126.104 100.773C145.312 100.773 163.508 99.0441 179.769 95.9546M62.6561 95.9546C81.2544 92.8928 102.943 91.136 126.104 91.136C145.312 91.136 163.508 92.8652 179.769 95.9546M62.6561 95.9546C41.3037 92.4394 24.025 87.204 13.271 80.932M13.271 110.977C24.025 117.249 41.3037 122.485 62.6561 126M62.6561 126C81.2544 129.062 102.943 130.819 126.104 130.819C145.312 130.819 163.508 129.089 179.769 126M62.6561 126C41.3037 129.515 24.025 134.751 13.271 141.023M179.769 126C198.02 122.532 213.832 117.351 225.899 110.977M13.271 201.113C24.0251 194.841 41.3037 189.606 62.6561 186.091M13.271 201.113C24.0789 207.417 41.4769 212.673 62.9771 216.189M245.336 186.091C241.009 180.615 234.378 175.547 225.899 171.068M245.336 186.091C240.98 191.603 234.29 196.702 225.729 201.203M13.271 141.023C24.025 147.295 41.3037 152.53 62.6561 156.045M13.271 171.068C24.0251 177.34 41.3037 182.575 62.6561 186.091M62.6561 156.045C81.2544 159.107 102.943 160.864 126.104 160.864C145.312 160.864 163.508 159.135 179.769 156.045M62.6561 156.045C81.2544 152.984 102.943 151.227 126.104 151.227C145.312 151.227 163.508 152.956 179.769 156.045M225.899 171.068C213.811 177.453 197.964 182.641 179.673 186.109M62.6561 186.091C81.2544 189.153 102.943 190.909 126.104 190.909C145.274 190.909 163.437 189.187 179.673 186.109M225.769 201.224C225.756 201.217 225.742 201.21 225.729 201.203M179.828 216.125C163.567 213.035 145.371 211.306 126.162 211.306C103.157 211.306 81.4935 213.163 62.9771 216.189M179.828 216.125C197.968 212.674 213.697 207.529 225.729 201.203M225.729 201.203C213.793 194.905 197.674 189.576 179.673 186.109" stroke="black" stroke-width="2" stroke-linejoin="round"/>
<path d="M251.104 80.932V50.8866C251.104 56.1217 249.083 61.1684 245.336 65.9093C241.009 71.3851 234.378 76.4529 225.899 80.932C213.832 87.3057 198.02 92.487 179.769 95.9546C163.508 99.0441 145.312 100.773 126.104 100.773C102.943 100.773 81.2544 99.0165 62.6561 95.9546C41.3037 92.4394 24.025 87.204 13.271 80.932C5.47107 76.3828 1.10352 71.2883 1.10352 65.9093L1.10352 95.9546C1.10352 101.334 5.47107 106.428 13.271 110.977C24.025 117.249 41.3037 122.485 62.6561 126C81.2544 129.062 102.943 130.819 126.104 130.819C145.312 130.819 163.508 129.089 179.769 126C198.02 122.532 213.832 117.351 225.899 110.977C234.378 106.498 241.009 101.43 245.336 95.9546C249.083 91.2137 251.104 86.167 251.104 80.932Z" fill="#F9F9F9"/>
<path d="M251.104 141.023V110.977C251.104 116.212 249.083 121.259 245.336 126C241.009 131.476 234.378 136.544 225.899 141.023C213.832 147.396 198.02 152.578 179.769 156.045C163.508 159.135 145.312 160.864 126.104 160.864C102.943 160.864 81.2544 159.107 62.6561 156.045C41.3037 152.53 24.025 147.295 13.271 141.023C5.47107 136.474 1.10352 131.379 1.10352 126V156.045C1.10352 161.424 5.47107 166.519 13.271 171.068C24.0251 177.34 41.3037 182.575 62.6561 186.091C81.2544 189.153 102.943 190.909 126.104 190.909C166.871 190.909 203.081 183.12 225.899 171.068C234.378 166.589 241.009 161.521 245.336 156.045C249.083 151.304 251.104 146.258 251.104 141.023Z" fill="#F9F9F9"/>
<path d="M1.10352 216.136C1.10352 235.391 57.0679 251 126.104 251C195.139 251 251.104 228.665 251.104 201.113V171.068C251.104 176.303 249.083 181.35 245.336 186.091C229.364 206.301 182.022 220.955 126.104 220.955C76.3537 220.955 33.392 212.848 13.271 201.113C5.47107 196.564 1.10352 191.47 1.10352 186.091L1.10352 216.136Z" fill="#F9F9F9"/>
<path d="M1.10352 65.9093C1.10352 46.6545 57.0679 31.0454 126.104 31.0454C182.022 31.0454 229.364 45.699 245.336 65.9093M1.10352 65.9093L1.10352 95.9546C1.10352 101.334 5.47107 106.428 13.271 110.977M1.10352 65.9093C1.10352 71.2883 5.47107 76.3828 13.271 80.932M251.104 50.8866C251.104 23.335 195.139 1 126.104 1M251.104 50.8866V80.932C251.104 86.167 249.083 91.2137 245.336 95.9546M251.104 50.8866C251.104 56.1217 249.083 61.1684 245.336 65.9093M1.10352 126C1.10352 120.621 5.47107 115.526 13.271 110.977M1.10352 126V156.045C1.10352 161.424 5.47107 166.519 13.271 171.068M1.10352 126C1.10352 131.379 5.47107 136.474 13.271 141.023M251.104 110.977C251.104 105.742 249.083 100.696 245.336 95.9546M251.104 110.977V141.023C251.104 146.258 249.083 151.304 245.336 156.045M251.104 110.977C251.104 116.212 249.083 121.259 245.336 126M1.10352 186.091L1.10352 216.136C1.10352 235.391 57.0679 251 126.104 251C195.139 251 251.104 228.665 251.104 201.113V171.068M1.10352 186.091C1.10352 191.47 5.47107 196.564 13.271 201.113M1.10352 186.091C1.10352 180.712 5.47108 175.617 13.271 171.068M251.104 171.068C251.104 165.833 249.083 160.786 245.336 156.045M251.104 171.068C251.104 176.303 249.083 181.35 245.336 186.091M245.336 65.9093C241.009 71.3851 234.378 76.4529 225.899 80.932M225.899 80.932C203.081 68.8795 166.871 61.0907 126.104 61.0907C76.3537 61.0907 33.392 69.1969 13.271 80.932M225.899 80.932C213.832 87.3057 198.02 92.487 179.769 95.9546M245.336 95.9546C241.009 101.43 234.378 106.498 225.899 110.977M245.336 126C241.009 131.476 234.378 136.544 225.899 141.023M245.336 126C241.009 120.524 234.378 115.456 225.899 110.977M225.899 141.023C213.832 134.649 198.02 129.468 179.769 126M225.899 141.023C213.832 147.396 198.02 152.578 179.769 156.045M245.336 156.045C241.009 161.521 234.378 166.589 225.899 171.068M62.6561 95.9546C81.2544 99.0165 102.943 100.773 126.104 100.773C145.312 100.773 163.508 99.0441 179.769 95.9546M62.6561 95.9546C81.2544 92.8928 102.943 91.136 126.104 91.136C145.312 91.136 163.508 92.8652 179.769 95.9546M62.6561 95.9546C41.3037 92.4394 24.025 87.204 13.271 80.932M13.271 110.977C24.025 117.249 41.3037 122.485 62.6561 126M62.6561 126C81.2544 129.062 102.943 130.819 126.104 130.819C145.312 130.819 163.508 129.089 179.769 126M62.6561 126C41.3037 129.515 24.025 134.751 13.271 141.023M179.769 126C198.02 122.532 213.832 117.351 225.899 110.977M13.271 201.113C33.392 212.848 76.3537 220.955 126.104 220.955C182.022 220.955 229.364 206.301 245.336 186.091M13.271 201.113C24.0251 194.841 41.3037 189.606 62.6561 186.091M245.336 186.091C241.009 180.615 234.378 175.547 225.899 171.068M13.271 141.023C24.025 147.295 41.3037 152.53 62.6561 156.045M13.271 171.068C24.0251 177.34 41.3037 182.575 62.6561 186.091M62.6561 156.045C81.2544 159.107 102.943 160.864 126.104 160.864C145.312 160.864 163.508 159.135 179.769 156.045M62.6561 156.045C81.2544 152.984 102.943 151.227 126.104 151.227C145.312 151.227 163.508 152.956 179.769 156.045M225.899 171.068C203.081 183.12 166.871 190.909 126.104 190.909C102.943 190.909 81.2544 189.153 62.6561 186.091M225.769 201.224C213.702 194.85 197.89 189.669 179.639 186.201M62.7148 216.125C81.3131 213.063 103.002 211.306 126.162 211.306C145.371 211.306 163.567 213.035 179.828 216.125" stroke="black" stroke-width="2" stroke-linejoin="round"/>
</svg>
