<svg width="253" height="252" viewBox="0 0 253 252" fill="none" xmlns="http://www.w3.org/2000/svg">
<path d="M114.145 112.254C115.028 110.014 115.113 107.272 114.381 104.631C114.291 104.306 114.192 103.985 114.084 103.668L101.491 110.193C102.076 112.306 103.267 114.166 104.801 115.362C106.335 116.559 108.088 116.995 109.672 116.574C110.23 116.426 110.758 116.196 111.249 115.892C112.501 115.118 113.51 113.863 114.145 112.254Z" fill="#F9F9F9"/>
<path d="M114.217 128.86C110.354 129.886 106.083 128.824 102.343 125.907C98.6029 122.991 95.6997 118.459 94.2722 113.308C93.1309 109.187 93.2637 104.91 94.6414 101.416C96.0192 97.9216 98.529 95.4977 101.619 94.677L118.754 85.7719C100.905 62.8754 76.0965 58.1729 53.86 66.5276C25.3713 77.2315 1.10352 99.7482 1.10352 152.133L1.10352 250.75H213.87V77.1642L117.252 127.665C117.182 127.702 117.111 127.739 117.041 127.775C116.142 128.235 115.198 128.6 114.217 128.86Z" fill="#F9F9F9"/>
<path fill-rule="evenodd" clip-rule="evenodd" d="M126.857 106.857C127.066 110.924 126.483 114.873 125.119 118.331C123.438 122.594 120.679 125.837 117.252 127.665L117.041 127.775C116.142 128.235 115.198 128.6 114.217 128.86C110.354 129.886 106.083 128.824 102.343 125.907C98.6029 122.991 95.6997 118.459 94.2722 113.308C93.1309 109.187 93.2637 104.91 94.6414 101.416C96.0192 97.9216 98.529 95.4977 101.619 94.677C104.091 94.0205 106.824 94.7004 109.217 96.5671C111.375 98.2499 113.097 100.773 114.084 103.668L101.491 110.193C102.076 112.306 103.267 114.166 104.801 115.362C106.335 116.559 108.088 116.995 109.672 116.574C110.23 116.426 110.758 116.196 111.249 115.892L126.857 106.857Z" fill="#F9F9F9"/>
<path d="M101.619 94.677C104.091 94.0205 106.824 94.7004 109.217 96.5671C111.375 98.2499 113.097 100.773 114.084 103.668C114.192 103.985 114.291 104.306 114.381 104.631C115.113 107.272 115.028 110.014 114.145 112.254C113.51 113.863 112.501 115.118 111.249 115.892L126.857 106.857C126.737 104.503 126.35 102.109 125.696 99.7481C125.528 99.1389 125.346 98.5344 125.15 97.9351C124.068 94.613 122.58 91.4548 120.747 88.5922C120.119 87.6104 119.453 86.6689 118.754 85.7719L101.619 94.677Z" fill="#F9F9F9"/>
<path d="M237.579 64.9043C239.9 63.6141 245.831 60.2599 248.482 54.3751C262.115 24.1051 220.559 -16.8871 170.531 9.43057L53.86 66.5276C76.0965 58.1729 100.905 62.8754 118.754 85.7719C119.453 86.6689 120.119 87.6104 120.747 88.5922C122.58 91.4548 124.068 94.613 125.15 97.9351C125.346 98.5344 125.528 99.1389 125.696 99.7481C126.35 102.109 126.737 104.503 126.857 106.857C127.066 110.924 126.483 114.873 125.119 118.331C123.438 122.594 120.679 125.837 117.252 127.665L213.87 77.1642L237.579 64.9043Z" fill="#F9F9F9"/>
<path d="M101.619 94.677C98.529 95.4977 96.0192 97.9216 94.6414 101.416C93.2637 104.91 93.1308 109.187 94.2722 113.308C95.6997 118.459 98.6029 122.991 102.343 125.907C106.083 128.824 110.354 129.886 114.217 128.86C115.198 128.6 116.142 128.235 117.041 127.775M101.619 94.677C104.091 94.0205 106.824 94.7004 109.217 96.5671C111.375 98.2499 113.097 100.773 114.084 103.668M101.619 94.677L118.754 85.7719M118.754 85.7719C119.453 86.6689 120.119 87.6104 120.747 88.5922C122.58 91.4548 124.068 94.613 125.15 97.9351C125.346 98.5344 125.528 99.1389 125.696 99.7481C126.35 102.109 126.737 104.503 126.857 106.857M118.754 85.7719C100.905 62.8754 76.0965 58.1729 53.86 66.5276M114.084 103.668L101.491 110.193C102.076 112.306 103.267 114.166 104.801 115.362C106.335 116.559 108.088 116.995 109.672 116.574C110.23 116.426 110.758 116.196 111.249 115.892M114.084 103.668C114.192 103.985 114.291 104.306 114.381 104.631C115.113 107.272 115.028 110.014 114.145 112.254C113.51 113.863 112.501 115.118 111.249 115.892M117.041 127.775L117.252 127.665M117.041 127.775C117.111 127.739 117.182 127.702 117.252 127.665M213.87 77.1642L237.579 64.9043C239.9 63.6141 245.831 60.2599 248.482 54.3751C262.115 24.1051 220.559 -16.8871 170.531 9.43057L53.86 66.5276M213.87 77.1642V250.75H1.10352L1.10352 152.133C1.10352 99.7482 25.3713 77.2315 53.86 66.5276M213.87 77.1642L117.252 127.665M117.252 127.665C120.679 125.837 123.438 122.594 125.119 118.331C126.483 114.873 127.066 110.924 126.857 106.857M111.249 115.892L126.857 106.857" stroke="black" stroke-width="2" stroke-linejoin="round"/>
<path d="M101.803 94.5553C104.272 93.8996 107.002 94.5786 109.393 96.4429C111.547 98.1234 113.267 100.643 114.254 103.535C114.361 103.851 114.46 104.172 114.55 104.496C115.281 107.134 115.196 109.873 114.314 112.11C113.68 113.716 112.673 114.97 111.422 115.743L127.011 106.72C126.89 104.368 126.504 101.977 125.851 99.6197C125.683 99.0114 125.501 98.4076 125.306 97.8091C124.224 94.4913 122.739 91.3372 120.908 88.4783C120.28 87.4978 119.615 86.5575 118.917 85.6617L101.803 94.5553Z" fill="#F9F9F9"/>
<path d="M237.596 64.8212C239.914 63.5327 245.838 60.1829 248.485 54.3057C262.102 24.0751 220.597 -16.8638 170.63 9.41961L54.1035 66.4425C76.3125 58.0986 101.09 62.7949 118.917 85.6617C119.615 86.5575 120.28 87.4978 120.908 88.4783C122.739 91.3372 124.224 94.4913 125.306 97.8091C125.501 98.4076 125.683 99.0114 125.851 99.6197C126.504 101.977 126.89 104.368 127.011 106.72C127.219 110.781 126.637 114.725 125.275 118.178C123.596 122.436 120.84 125.675 117.417 127.5L213.916 77.0651L237.596 64.8212Z" fill="#F9F9F9"/>
<path d="M118.917 85.6617C119.615 86.5575 120.28 87.4978 120.908 88.4783C122.739 91.3372 124.224 94.4913 125.306 97.8091C125.501 98.4076 125.683 99.0114 125.851 99.6197C126.504 101.977 126.89 104.368 127.011 106.72M118.917 85.6617L101.803 94.5553C104.272 93.8996 107.002 94.5786 109.393 96.4429C111.547 98.1234 113.267 100.643 114.254 103.535C114.361 103.851 114.46 104.172 114.55 104.496C115.281 107.134 115.196 109.873 114.314 112.11C113.68 113.716 112.673 114.97 111.422 115.743L127.011 106.72M118.917 85.6617C101.09 62.7949 76.3125 58.0986 54.1035 66.4425L170.63 9.41961C220.597 -16.8638 262.102 24.0751 248.485 54.3057C245.838 60.1829 239.914 63.5327 237.596 64.8212L213.916 77.0651L117.417 127.5C120.84 125.675 123.596 122.436 125.275 118.178C126.637 114.725 127.219 110.781 127.011 106.72" stroke="black" stroke-width="2" stroke-linejoin="round"/>
</svg>
