<svg width="253" height="250" viewBox="0 0 253 250" fill="none" xmlns="http://www.w3.org/2000/svg">
<path d="M32.4901 125.028V85C24.8094 85 20.8278 94.9817 16.8413 104.976C12.8446 114.996 8.84284 125.028 1.10352 125.028V165.056C8.84284 165.056 12.8446 155.024 16.8413 145.004C20.8278 135.01 24.8094 125.028 32.4901 125.028Z" fill="#F9F9F9"/>
<path d="M32.4901 85V125.028C40.0735 125.028 43.9184 134.959 47.778 144.928C51.6671 154.973 55.5712 165.056 63.3302 165.056V125.028C55.5712 125.028 51.6672 114.945 47.778 104.899C43.9184 94.9308 40.0735 85 32.4901 85Z" fill="#F9F9F9"/>
<path d="M63.3302 125.028V165.056C71.0696 165.056 75.0713 155.024 79.068 145.004C82.9747 135.21 86.8766 125.428 94.2598 125.04L94.7169 85C87.0361 85 83.0546 94.9817 79.068 104.976C75.0713 114.996 71.0696 125.028 63.3302 125.028Z" fill="#F9F9F9"/>
<path d="M94.7169 85L94.2598 125.04C101.919 124.84 105.936 134.769 109.988 144.785C114.07 154.876 118.188 165.056 126.104 165.056V125.028C118.168 125.028 114.166 114.895 110.19 104.826C106.262 94.882 102.359 85 94.7169 85Z" fill="#F9F9F9"/>
<path d="M126.104 125.028V165.056C133.843 165.056 137.845 155.024 141.841 145.004C145.828 135.01 149.809 125.028 157.49 125.028V85C149.809 85 145.828 94.9817 141.841 104.976C137.845 114.996 133.843 125.028 126.104 125.028Z" fill="#F9F9F9"/>
<path d="M157.49 85V125.028C165.074 125.028 168.918 134.959 172.778 144.928C176.667 154.973 180.571 165.056 188.33 165.056V125.028C180.571 125.028 176.667 114.945 172.778 104.899C168.918 94.9308 165.074 85 157.49 85Z" fill="#F9F9F9"/>
<path d="M188.33 125.028V165.056C196.07 165.056 200.071 155.024 204.068 145.004C208.055 135.01 212.036 125.028 219.717 125.028V85C212.036 85 208.055 94.9817 204.068 104.976C200.071 114.996 196.07 125.028 188.33 125.028Z" fill="#F9F9F9"/>
<path d="M251.104 125.028C235.332 125.028 235.098 85 219.717 85V125.028C235.098 125.028 235.332 165.056 251.104 165.056V125.028Z" fill="#F9F9F9"/>
<path d="M32.4901 85V125.028M32.4901 85C40.0735 85 43.9184 94.9308 47.778 104.899C51.6672 114.945 55.5712 125.028 63.3302 125.028M32.4901 85C24.8094 85 20.8278 94.9817 16.8413 104.976C12.8446 114.996 8.84284 125.028 1.10352 125.028V165.056C8.84284 165.056 12.8446 155.024 16.8413 145.004C20.8278 135.01 24.8094 125.028 32.4901 125.028M63.3302 125.028V165.056M63.3302 125.028C71.0696 125.028 75.0713 114.996 79.068 104.976C83.0546 94.9817 87.0361 85 94.7169 85M94.7169 85L94.2598 125.04M94.7169 85C102.359 85 106.262 94.882 110.19 104.826C114.166 114.895 118.168 125.028 126.104 125.028M126.104 125.028V165.056M126.104 125.028C133.843 125.028 137.845 114.996 141.841 104.976C145.828 94.9817 149.809 85 157.49 85M157.49 85V125.028M157.49 85C165.074 85 168.918 94.9308 172.778 104.899C176.667 114.945 180.571 125.028 188.33 125.028M188.33 125.028V165.056M188.33 125.028C196.07 125.028 200.071 114.996 204.068 104.976C208.055 94.9817 212.036 85 219.717 85M219.717 85C235.098 85 235.332 125.028 251.104 125.028V165.056C235.332 165.056 235.098 125.028 219.717 125.028M219.717 85V125.028M32.4901 125.028C40.0735 125.028 43.9184 134.959 47.778 144.928C51.6671 154.973 55.5712 165.056 63.3302 165.056M63.3302 165.056C71.0696 165.056 75.0713 155.024 79.068 145.004C82.9747 135.21 86.8766 125.428 94.2598 125.04M94.2598 125.04C94.4107 125.032 93.8028 125.052 94.2598 125.04ZM94.2598 125.04C101.919 124.84 105.936 134.769 109.988 144.785C114.07 154.876 118.188 165.056 126.104 165.056M126.104 165.056C133.843 165.056 137.845 155.024 141.841 145.004C145.828 135.01 149.809 125.028 157.49 125.028M157.49 125.028C165.074 125.028 168.918 134.959 172.778 144.928C176.667 154.973 180.571 165.056 188.33 165.056M188.33 165.056C196.07 165.056 200.071 155.024 204.068 145.004C208.055 135.01 212.036 125.028 219.717 125.028" stroke="black" stroke-width="2" stroke-linejoin="round"/>
<path d="M32.4902 85V125.028C40.0736 125.028 43.9185 134.959 47.7781 144.928C51.6672 154.973 55.5713 165.056 63.3303 165.056V125.028C55.5713 125.028 51.6672 114.945 47.7781 104.899C43.9185 94.9308 40.0736 85 32.4902 85Z" fill="#F9F9F9"/>
<path d="M94.717 85L94.2599 125.04C101.919 124.84 105.936 134.769 109.988 144.785C114.07 154.876 118.189 165.056 126.104 165.056V125.028C118.169 125.028 114.167 114.895 110.19 104.826C106.262 94.882 102.359 85 94.717 85Z" fill="#F9F9F9"/>
<path d="M157.49 85V125.028C165.074 125.028 168.919 134.959 172.778 144.928C176.667 154.973 180.571 165.056 188.33 165.056V125.028C180.571 125.028 176.667 114.945 172.778 104.899C168.919 94.9308 165.074 85 157.49 85Z" fill="#F9F9F9"/>
<path d="M251.104 125.028C235.332 125.028 235.098 85 219.717 85V125.028C235.098 125.028 235.332 165.056 251.104 165.056V125.028Z" fill="#F9F9F9"/>
<path d="M32.4902 85V125.028C40.0736 125.028 43.9185 134.959 47.7781 144.928C51.6672 154.973 55.5713 165.056 63.3303 165.056V125.028C55.5713 125.028 51.6672 114.945 47.7781 104.899C43.9185 94.9308 40.0736 85 32.4902 85Z" stroke="black" stroke-width="2" stroke-linejoin="round"/>
<path d="M94.717 85L94.2599 125.04C101.919 124.84 105.936 134.769 109.988 144.785C114.07 154.876 118.189 165.056 126.104 165.056V125.028C118.169 125.028 114.167 114.895 110.19 104.826C106.262 94.882 102.359 85 94.717 85Z" stroke="black" stroke-width="2" stroke-linejoin="round"/>
<path d="M157.49 85V125.028C165.074 125.028 168.919 134.959 172.778 144.928C176.667 154.973 180.571 165.056 188.33 165.056V125.028C180.571 125.028 176.667 114.945 172.778 104.899C168.919 94.9308 165.074 85 157.49 85Z" stroke="black" stroke-width="2" stroke-linejoin="round"/>
<path d="M251.104 125.028C235.332 125.028 235.098 85 219.717 85V125.028C235.098 125.028 235.332 165.056 251.104 165.056V125.028Z" stroke="black" stroke-width="2" stroke-linejoin="round"/>
</svg>
