<svg width="253" height="251" viewBox="0 0 253 251" fill="none" xmlns="http://www.w3.org/2000/svg">
<path d="M104.657 250L104.657 158.024C64.2168 158.024 27.6051 147.729 1.10352 131.084L1.10352 223.061C27.6051 239.705 64.2168 250 104.657 250Z" fill="#F9F9F9"/>
<path d="M104.657 158.024L104.657 250C145.097 250 181.709 239.705 208.21 223.061L208.21 131.084C181.709 147.729 145.097 158.024 104.657 158.024Z" fill="#F9F9F9"/>
<path d="M251.104 158.024L251.104 66.0474C251.104 83.2222 243.608 99.2976 230.56 113.054C224.312 119.64 216.791 125.695 208.21 131.084L208.21 223.061C234.712 206.416 251.104 183.422 251.104 158.024Z" fill="#F9F9F9"/>
<path d="M251.104 66.0474L251.104 158.024C251.104 183.422 234.712 206.416 208.21 223.061M251.104 66.0474C251.104 83.2222 243.608 99.2976 230.56 113.054C224.312 119.64 216.791 125.695 208.21 131.084M251.104 66.0474C251.104 41.1668 235.374 18.5935 209.819 2.03624L158.218 34.4445C170.576 42.7029 178.146 53.8199 178.146 66.0474C178.146 70.6832 177.058 75.1594 175.034 79.3807C165.925 98.371 137.863 112.203 104.657 112.203C84.3633 112.203 65.9909 107.037 52.6919 98.6842L1.10352 131.084M104.657 158.024L104.657 250M104.657 158.024C64.2168 158.024 27.6051 147.729 1.10352 131.084M104.657 158.024C145.097 158.024 181.709 147.729 208.21 131.084M104.657 250C64.2168 250 27.6051 239.705 1.10352 223.061L1.10352 131.084M104.657 250C145.097 250 181.709 239.705 208.21 223.061M208.21 131.084L208.21 223.061" stroke="black" stroke-width="2" stroke-linejoin="round"/>
<path d="M1.10352 131.084C27.6051 147.729 64.2168 158.023 104.657 158.023C145.097 158.023 181.709 147.729 208.21 131.084C216.791 125.695 224.312 119.64 230.56 113.053C243.608 99.2973 251.104 83.2219 251.104 66.0471C251.104 41.1665 235.374 18.5932 209.819 2.03595L158.218 34.4442C170.576 42.7026 178.146 53.8196 178.146 66.0471C178.146 70.6829 177.058 75.1591 175.034 79.3804C165.925 98.3708 137.863 112.203 104.657 112.203C84.3633 112.203 65.9909 107.036 52.6919 98.6839L1.10352 131.084Z" fill="#F9F9F9" stroke="black" stroke-width="2" stroke-linejoin="round"/>
</svg>
