<svg width="253" height="252" viewBox="0 0 253 252" fill="none" xmlns="http://www.w3.org/2000/svg">
<path fill-rule="evenodd" clip-rule="evenodd" d="M251.104 81.6927C251.104 37.1273 195.139 0.999992 126.104 0.999995C57.0679 0.999998 1.10351 37.1273 1.10351 81.6927C1.10351 103.975 15.0946 124.149 37.7152 138.751C60.3357 153.354 91.5857 162.385 126.104 162.385C160.621 162.385 191.871 153.354 214.492 138.751C237.112 124.149 251.104 103.975 251.104 81.6927ZM188.831 81.6927C188.831 59.329 160.747 41.1996 126.104 41.1996C91.4602 41.1996 63.3762 59.329 63.3762 81.6927C63.3762 104.056 91.4602 122.186 126.104 122.186C160.747 122.186 188.831 104.056 188.831 81.6927Z" fill="#F9F9F9"/>
<path d="M214.492 138.751C191.871 153.354 160.621 162.385 126.104 162.385L126.104 251C160.621 251 191.871 241.968 214.492 227.366L214.492 192.475L214.492 138.751Z" fill="#F9F9F9"/>
<path d="M251.104 170.307L251.104 81.6927C251.104 103.975 237.112 124.149 214.492 138.751L214.492 192.475L214.492 227.366C237.112 212.763 251.104 192.59 251.104 170.307Z" fill="#F9F9F9"/>
<path d="M126.104 162.385C91.5857 162.385 60.3357 153.354 37.7152 138.751L37.7152 192.475L37.7152 227.366C60.3357 241.968 91.5857 251 126.104 251L126.104 162.385Z" fill="#F9F9F9"/>
<path d="M1.10351 81.6927L1.10351 170.307C1.10351 192.59 15.0946 212.763 37.7152 227.366L37.7152 192.475L37.7152 138.751C15.0946 124.149 1.10351 103.975 1.10351 81.6927Z" fill="#F9F9F9"/>
<path d="M251.104 81.6927C251.104 37.1273 195.139 0.999992 126.104 0.999995C57.0679 0.999998 1.10351 37.1273 1.10351 81.6927M251.104 81.6927L251.104 170.307C251.104 192.59 237.112 212.763 214.492 227.366M251.104 81.6927C251.104 103.975 237.112 124.149 214.492 138.751M126.104 162.385C160.621 162.385 191.871 153.354 214.492 138.751M126.104 162.385C91.5857 162.385 60.3357 153.354 37.7152 138.751M126.104 162.385L126.104 251M1.10351 81.6927L1.10351 170.307C1.10351 192.59 15.0946 212.763 37.7152 227.366M1.10351 81.6927C1.10351 103.975 15.0946 124.149 37.7152 138.751M126.104 251C160.621 251 191.871 241.968 214.492 227.366M126.104 251C91.5857 251 60.3357 241.968 37.7152 227.366M214.492 138.751L214.492 192.475L214.492 227.366M37.7152 138.751L37.7152 192.475L37.7152 227.366M126.104 41.1996C160.747 41.1996 188.831 59.329 188.831 81.6927C188.831 104.056 160.747 122.186 126.104 122.186C91.4602 122.186 63.3762 104.056 63.3762 81.6927C63.3762 59.329 91.4602 41.1996 126.104 41.1996Z" stroke="black" stroke-width="2" stroke-linejoin="round"/>
<path fill-rule="evenodd" clip-rule="evenodd" d="M251.104 81.6931C251.104 37.1278 195.139 1.0004 126.104 1.00041C57.0679 1.00041 1.10351 37.1278 1.10351 81.6931C1.10351 103.976 15.0946 124.149 37.7152 138.751C60.3357 153.354 91.5857 162.386 126.104 162.386C160.621 162.386 191.871 153.354 214.492 138.751C237.112 124.149 251.104 103.976 251.104 81.6931ZM188.831 81.6931C188.831 59.3294 160.747 41.2 126.104 41.2C91.4602 41.2 63.3762 59.3294 63.3762 81.6931C63.3762 104.057 91.4602 122.186 126.104 122.186C160.747 122.186 188.831 104.057 188.831 81.6931Z" fill="#F9F9F9" stroke="black" stroke-width="2" stroke-linejoin="round"/>
</svg>
