<svg width="251" height="252" viewBox="0 0 251 252" fill="none" xmlns="http://www.w3.org/2000/svg">
<path d="M122.783 249.997C74.5274 248.424 36.0584 227.199 36.8603 202.589L38.7224 44.5257M122.783 249.997L122.783 90.8979M122.783 249.997C144.412 250.701 164.336 247.338 179.81 241.197M213.483 49.2548C214.285 24.6443 175.816 3.41891 127.561 1.84654C79.3048 0.274175 39.5357 18.9503 38.7338 43.5607M213.483 49.2548L211.61 208.283C211.168 221.862 198.861 233.635 179.81 241.197M213.483 49.2548C213.027 63.2747 199.924 75.3688 179.81 82.8907M38.7338 43.5607C38.7233 43.883 38.7195 44.2046 38.7224 44.5257M38.7338 43.5607L38.7224 44.5257M122.783 90.8979C123.406 90.9249 124.03 90.9486 124.657 90.969C145.422 91.6457 164.616 88.5727 179.81 82.8907M122.783 90.8979C76.0376 88.8725 38.9381 68.4055 38.7224 44.5257M179.81 82.8907L179.81 241.197" stroke="black" stroke-width="2" stroke-linejoin="round"/>
<path d="M127.56 1.84759C175.816 3.41996 214.285 24.6454 213.483 49.2558C213.026 63.2758 199.923 75.3699 179.81 82.8918C164.616 88.5737 145.422 91.6467 124.656 90.9701C124.03 90.9497 123.405 90.926 122.783 90.899C76.037 88.8735 38.9375 68.4066 38.7219 44.5267C38.719 44.2057 38.7227 43.884 38.7332 43.5618C39.5351 18.9513 79.3043 0.275225 127.56 1.84759Z" fill="#F9F9F9" stroke="black" stroke-width="2" stroke-linejoin="round"/>
<path d="M36.8598 202.589C36.0579 227.199 74.5269 248.425 122.783 249.997L122.783 90.8982C76.0371 88.8728 38.9375 68.4058 38.7219 44.526L36.8598 202.589Z" fill="#F9F9F9"/>
<path d="M211.609 208.283L213.483 49.2551C213.026 63.275 199.923 75.3691 179.81 82.891L179.81 241.197C198.86 233.636 211.167 221.863 211.609 208.283Z" fill="#F9F9F9"/>
<path d="M36.8598 202.589C36.0579 227.199 74.5269 248.425 122.783 249.997L122.783 90.8982C76.0371 88.8728 38.9375 68.4058 38.7219 44.526L36.8598 202.589Z" stroke="black" stroke-width="2" stroke-linejoin="round"/>
<path d="M211.609 208.283L213.483 49.2551C213.026 63.275 199.923 75.3691 179.81 82.891L179.81 241.197C198.86 233.636 211.167 221.863 211.609 208.283Z" stroke="black" stroke-width="2" stroke-linejoin="round"/>
<path d="M124.657 90.9702C124.03 90.9498 123.406 90.9261 122.783 90.8991L122.783 249.998C144.412 250.703 164.336 247.34 179.81 241.198L179.81 82.8919C164.616 88.5738 145.422 91.6468 124.657 90.9702Z" fill="#F9F9F9" stroke="black" stroke-width="2" stroke-linejoin="round"/>
</svg>
