<svg width="253" height="252" viewBox="0 0 253 252" fill="none" xmlns="http://www.w3.org/2000/svg">
<path d="M69.2852 1H251.103V182.818L215.87 216.909L180.638 251H135.907H92.0124V203.818V160.091H46.558H1.10352V114.358V69.0146L69.2852 1Z" fill="#F9F9F9"/>
<path d="M69.2852 1H251.103V182.818M69.2852 1L1.10352 69.0146V114.358M69.2852 1V46.4545M251.103 182.818H207.069M251.103 182.818L215.87 216.909L180.638 251H135.907M163.035 182.818L92.0124 251M163.035 182.818V137.363M163.035 182.818H207.069M163.035 91.9089L92.0124 160.091M163.035 91.9089H119.363M163.035 91.9089V137.363M69.2852 91.9089L1.10352 160.091M69.2852 91.9089H119.363M69.2852 91.9089V46.4545M1.10352 160.091H46.558M1.10352 160.091V114.358M92.0124 160.091H46.558M92.0124 160.091V203.818M92.0124 251V203.818M92.0124 251H135.907M119.363 91.9089L46.558 160.091M92.0124 203.818L163.035 137.363M207.069 182.818L135.907 251M1.10352 114.358L69.2852 46.4545" stroke="black" stroke-width="2" stroke-linejoin="round"/>
<path d="M69.2852 1L1.10352 69.0146V114.358L69.2852 46.4545V1Z" fill="#F9F9F9"/>
<path d="M1.10352 160.091L69.2852 91.9089V46.4545L1.10352 114.358V160.091Z" fill="#F9F9F9"/>
<path d="M69.2852 91.9089L1.10352 160.091H46.558L119.363 91.9089H69.2852Z" fill="#F9F9F9"/>
<path d="M92.0124 160.091L163.035 91.9089H119.363L46.558 160.091H92.0124Z" fill="#F9F9F9"/>
<path d="M163.035 91.9089L92.0124 160.091V203.818L163.035 137.363V91.9089Z" fill="#F9F9F9"/>
<path d="M92.0124 251L163.035 182.818V137.363L92.0124 203.818V251Z" fill="#F9F9F9"/>
<path d="M163.035 182.818L92.0124 251H135.907L207.069 182.818H163.035Z" fill="#F9F9F9"/>
<path d="M180.638 251L215.87 216.909L251.103 182.818H207.069L135.907 251H180.638Z" fill="#F9F9F9"/>
<path d="M163.035 182.818L92.0124 251M163.035 182.818V137.363M163.035 182.818H207.069M163.035 91.9089L92.0124 160.091M163.035 91.9089H119.363M163.035 91.9089V137.363M69.2852 91.9089L1.10352 160.091M69.2852 91.9089H119.363M69.2852 91.9089V46.4545M1.10352 160.091H46.558M1.10352 160.091V114.358M92.0124 160.091H46.558M92.0124 160.091V203.818M92.0124 251V203.818M92.0124 251H135.907M119.363 91.9089L46.558 160.091M92.0124 203.818L163.035 137.363M207.069 182.818H251.103L215.87 216.909L180.638 251H135.907M207.069 182.818L135.907 251M1.10352 114.358V69.0146L69.2852 1V46.4545M1.10352 114.358L69.2852 46.4545" stroke="black" stroke-width="2" stroke-linejoin="round"/>
<path d="M250.921 1H69.1035V46.4545V91.9089H119.181H162.853V137.363V182.818H206.887H250.921V1Z" fill="#F9F9F9" stroke="black" stroke-width="2" stroke-linejoin="round"/>
</svg>
