<svg width="253" height="252" viewBox="0 0 253 252" fill="none" xmlns="http://www.w3.org/2000/svg">
<path d="M100.101 251L1.1035 251L1.10351 152.003L19.9789 133.127L38.8542 114.252L57.7295 95.3767L76.6049 76.5014L95.4802 57.626L114.356 38.7507L133.231 19.8753L152.106 0.999996L251.104 1L251.104 99.9973L232.228 118.873L213.353 137.748L194.477 156.623L175.602 175.499L156.727 194.374L137.851 213.249L118.976 232.125L100.101 251Z" fill="#F9F9F9"/>
<path d="M1.10351 251L100.101 251L118.976 232.125M1.10351 251L1.10351 152.003L19.9789 133.127M1.10351 251L19.9789 232.125M251.104 99.9973L251.104 1L152.106 0.999996M251.104 99.9973L152.106 99.9973M251.104 99.9973L232.228 118.873M152.106 99.9973L152.106 0.999996M152.106 99.9973L133.231 118.873M152.106 0.999996L133.231 19.8753M76.6049 76.5014L76.6049 175.499M76.6049 76.5014L57.7295 95.3767M76.6049 76.5014L95.4802 57.626M76.6049 175.499L57.7295 194.374M76.6049 175.499L95.4802 156.623M76.6049 175.499L175.602 175.499M114.356 38.7507L114.356 137.748M114.356 38.7507L95.4802 57.626M114.356 38.7507L133.231 19.8753M114.356 137.748L95.4802 156.623M114.356 137.748L133.231 118.873M114.356 137.748L213.353 137.748M38.8542 114.252L38.8542 213.249M38.8542 114.252L19.9789 133.127M38.8542 114.252L57.7295 95.3767M38.8542 213.249L19.9789 232.125M38.8542 213.249L57.7295 194.374M38.8542 213.249L137.851 213.249M19.9789 133.127L19.9789 232.125M19.9789 232.125L118.976 232.125M57.7295 95.3767L57.7295 194.374M57.7295 194.374L156.727 194.374M95.4802 57.626L95.4802 156.623M95.4802 156.623L194.477 156.623M133.231 19.8753L133.231 118.873M133.231 118.873L232.228 118.873M194.477 156.623L213.353 137.748M194.477 156.623L175.602 175.499M213.353 137.748L232.228 118.873M175.602 175.499L156.727 194.374M156.727 194.374L137.851 213.249M137.851 213.249L118.976 232.125" stroke="black" stroke-width="2" stroke-linejoin="round"/>
<path d="M152.106 99.9973L152.106 0.999996L133.231 19.8753L133.231 118.873L152.106 99.9973Z" fill="#F9F9F9"/>
<path d="M114.356 38.7507L114.356 137.748L133.231 118.873L133.231 19.8753L114.356 38.7507Z" fill="#F9F9F9"/>
<path d="M114.356 137.748L114.356 38.7507L95.4802 57.626L95.4802 156.623L114.356 137.748Z" fill="#F9F9F9"/>
<path d="M76.6049 76.5014L76.6049 175.499L95.4802 156.623L95.4802 57.626L76.6049 76.5014Z" fill="#F9F9F9"/>
<path d="M76.6049 175.499L76.6049 76.5014L57.7295 95.3767L57.7295 194.374L76.6049 175.499Z" fill="#F9F9F9"/>
<path d="M38.8542 114.252L38.8542 213.249L57.7295 194.374L57.7295 95.3767L38.8542 114.252Z" fill="#F9F9F9"/>
<path d="M38.8542 213.249L38.8542 114.252L19.9789 133.127L19.9789 232.125L38.8542 213.249Z" fill="#F9F9F9"/>
<path d="M1.10351 152.003L1.1035 251L19.9789 232.125L19.9789 133.127L1.10351 152.003Z" fill="#F9F9F9"/>
<path d="M1.1035 251L100.101 251L118.976 232.125L19.9789 232.125L1.1035 251Z" fill="#F9F9F9"/>
<path d="M38.8542 213.249L19.9789 232.125L118.976 232.125L137.851 213.249L38.8542 213.249Z" fill="#F9F9F9"/>
<path d="M57.7295 194.374L38.8542 213.249L137.851 213.249L156.727 194.374L57.7295 194.374Z" fill="#F9F9F9"/>
<path d="M76.6049 175.499L57.7295 194.374L156.727 194.374L175.602 175.499L76.6049 175.499Z" fill="#F9F9F9"/>
<path d="M95.4802 156.623L76.6049 175.499L175.602 175.499L194.477 156.623L95.4802 156.623Z" fill="#F9F9F9"/>
<path d="M114.356 137.748L95.4802 156.623L194.477 156.623L213.353 137.748L114.356 137.748Z" fill="#F9F9F9"/>
<path d="M133.231 118.873L114.356 137.748L213.353 137.748L232.228 118.873L133.231 118.873Z" fill="#F9F9F9"/>
<path d="M251.104 99.9973L152.106 99.9973L133.231 118.873L232.228 118.873L251.104 99.9973Z" fill="#F9F9F9"/>
<path d="M1.10351 251L100.101 251L118.976 232.125M1.10351 251L1.10351 152.003L19.9789 133.127M1.10351 251L19.9789 232.125M152.106 99.9973L251.104 99.9973L232.228 118.873M152.106 99.9973L152.106 0.999996L133.231 19.8753M152.106 99.9973L133.231 118.873M76.6049 76.5014L76.6049 175.499M76.6049 76.5014L57.7295 95.3767M76.6049 76.5014L95.4802 57.626M76.6049 175.499L57.7295 194.374M76.6049 175.499L95.4802 156.623M76.6049 175.499L175.602 175.499M114.356 38.7507L114.356 137.748M114.356 38.7507L95.4802 57.626M114.356 38.7507L133.231 19.8753M114.356 137.748L95.4802 156.623M114.356 137.748L133.231 118.873M114.356 137.748L213.353 137.748M38.8542 114.252L38.8542 213.249M38.8542 114.252L19.9789 133.127M38.8542 114.252L57.7295 95.3767M38.8542 213.249L19.9789 232.125M38.8542 213.249L57.7295 194.374M38.8542 213.249L137.851 213.249M19.9789 133.127L19.9789 232.125M19.9789 232.125L118.976 232.125M57.7295 95.3767L57.7295 194.374M57.7295 194.374L156.727 194.374M95.4802 57.626L95.4802 156.623M95.4802 156.623L194.477 156.623M133.231 19.8753L133.231 118.873M133.231 118.873L232.228 118.873M194.477 156.623L213.353 137.748M194.477 156.623L175.602 175.499M213.353 137.748L232.228 118.873M175.602 175.499L156.727 194.374M156.727 194.374L137.851 213.249M137.851 213.249L118.976 232.125" stroke="black" stroke-width="2" stroke-linejoin="round"/>
<path d="M251.104 99.9973L251.104 1L152.106 0.999996L152.106 99.9973L251.104 99.9973Z" fill="#F9F9F9" stroke="black" stroke-width="2" stroke-linejoin="round"/>
</svg>
