<svg width="253" height="250" viewBox="0 0 253 250" fill="none" xmlns="http://www.w3.org/2000/svg">
<path d="M126.103 32.4999L251.103 104.856V104.517C251.103 104.629 251.103 104.742 251.103 104.856V145.086L126.103 217.441L1.10352 145.086V104.856L126.103 32.4999Z" fill="#F9F9F9"/>
<path d="M251.103 104.856L126.103 32.4999L1.10352 104.856M251.103 104.856L126.103 177.212M251.103 104.856V104.517C251.103 104.629 251.103 104.742 251.103 104.856ZM251.103 104.856V145.086L126.103 217.441M126.103 177.212L1.10352 104.856M126.103 177.212V217.441M1.10352 104.856V145.086L126.103 217.441" stroke="black" stroke-width="2" stroke-linejoin="round"/>
<path d="M1.10352 104.856V145.086L126.103 217.442V177.212L1.10352 104.856Z" fill="#F9F9F9" stroke="black" stroke-width="2" stroke-linejoin="round"/>
<path d="M251.103 104.856L126.104 177.212V217.441L251.103 145.086V104.856C251.104 104.742 251.104 104.629 251.103 104.516V104.856Z" fill="#F9F9F9"/>
<path d="M251.103 104.856L126.104 177.212V217.441L251.103 145.086V104.856ZM251.103 104.856V104.516C251.104 104.629 251.104 104.742 251.103 104.856Z" stroke="black" stroke-width="2" stroke-linejoin="round"/>
<path d="M251.103 104.856L126.103 32.5L1.10352 104.856L126.103 177.212L251.103 104.856Z" fill="#F9F9F9" stroke="black" stroke-width="2" stroke-linejoin="round"/>
</svg>
