<svg width="253" height="250" viewBox="0 0 253 250" fill="none" xmlns="http://www.w3.org/2000/svg">
<path d="M1.10352 128.987V46.5392L66.96 16.5L251.103 120.679V197.374L185.246 233.166L1.10352 128.987Z" fill="#F9F9F9"/>
<path d="M1.10352 46.5392V128.987L185.246 233.166M1.10352 46.5392L185.246 156.47M1.10352 46.5392L66.96 16.5L251.103 120.679M185.246 233.166V156.47M185.246 233.166L251.103 197.374V120.679M185.246 156.47L251.103 120.679" stroke="black" stroke-width="2" stroke-linejoin="round"/>
<path d="M1.10352 46.5392V128.987L185.246 233.166V156.47L1.10352 46.5392Z" fill="#F9F9F9" stroke="black" stroke-width="2" stroke-linejoin="round"/>
<path d="M185.247 156.47V233.166L251.104 197.375V120.679L185.247 156.47Z" fill="#F9F9F9" stroke="black" stroke-width="2" stroke-linejoin="round"/>
<path d="M1.10352 46.5392L185.246 156.47L251.103 120.679L66.96 16.5L1.10352 46.5392Z" fill="#F9F9F9" stroke="black" stroke-width="2" stroke-linejoin="round"/>
</svg>
