<svg width="251" height="252" viewBox="0 0 251 252" fill="none" xmlns="http://www.w3.org/2000/svg">
<path d="M166.35 1L207.766 24.9402V59.3975V59.5098V102.007L166.35 125.947L166.35 173.626L124.935 197.566L124.935 227.06L83.5191 251L42.1035 227.06V184.562V167.312L83.5191 143.372L83.5191 96.5592L124.935 72.6189V24.9402L166.35 1Z" fill="#F9F9F9"/>
<path d="M207.766 24.9402L166.35 1L124.935 24.9402M207.766 24.9402L166.35 48.8804M207.766 24.9402V59.3975M207.766 59.5098C207.766 59.4723 207.766 59.4349 207.766 59.3975M207.766 59.5098V59.3975M207.766 59.5098V102.007L166.35 125.947L166.35 173.626L124.935 197.566L124.935 227.06L83.5191 251M124.935 72.6189V24.9402M124.935 72.6189L166.35 96.5591M124.935 72.6189L83.5191 96.5591M124.935 24.9402L166.35 48.8804M166.35 48.8804L166.35 96.5591M166.35 96.5591L124.935 120.499M83.5191 96.5591L83.5191 143.372M83.5191 96.5591L124.935 120.499M124.935 120.499L124.935 167.312M83.5191 143.372L124.935 167.312M83.5191 143.372L42.1035 167.312M124.935 167.312L83.5191 191.252M42.1035 167.312V184.562V227.06L83.5191 251M42.1035 167.312L83.5191 191.252M83.5191 191.252V237.689V251" stroke="black" stroke-width="2" stroke-linejoin="round"/>
<path d="M207.766 24.9404L166.351 48.8806L166.351 96.5594L124.935 120.5L124.935 167.312L83.5195 191.252V237.689V251L124.935 227.06L124.935 197.566L166.351 173.626L166.351 125.947L207.766 102.007V59.5101C207.766 59.4726 207.766 59.4351 207.766 59.3978V24.9404Z" fill="#F9F9F9" stroke="black" stroke-width="2" stroke-linejoin="round"/>
<path d="M207.766 24.9402L166.35 1L124.935 24.9402L166.35 48.8804L207.766 24.9402Z" fill="#F9F9F9"/>
<path d="M166.35 96.5592L124.935 72.6189L83.5191 96.5592L124.935 120.499L166.35 96.5592Z" fill="#F9F9F9"/>
<path d="M124.935 167.312L83.5191 143.372L42.1035 167.312L83.5191 191.252L124.935 167.312Z" fill="#F9F9F9"/>
<path d="M207.766 24.9402L166.35 1L124.935 24.9402L166.35 48.8804L207.766 24.9402Z" stroke="black" stroke-width="2" stroke-linejoin="round"/>
<path d="M166.35 96.5592L124.935 72.6189L83.5191 96.5592L124.935 120.499L166.35 96.5592Z" stroke="black" stroke-width="2" stroke-linejoin="round"/>
<path d="M124.935 167.312L83.5191 143.372L42.1035 167.312L83.5191 191.252L124.935 167.312Z" stroke="black" stroke-width="2" stroke-linejoin="round"/>
</svg>
