<svg width="253" height="250" viewBox="0 0 253 250" fill="none" xmlns="http://www.w3.org/2000/svg">
<path d="M44.4745 84.5L1.10352 137.045L15.9946 154.752M44.4745 84.5L64.0305 86.5858L89.3171 117.221M44.4745 84.5L55.1133 97.3893L80.3999 128.025L89.3171 117.221M116.325 84.5L135.881 86.5858L148.525 101.904L161.168 117.221M116.325 84.5L126.964 97.3893L152.251 128.025L161.168 117.221M116.325 84.5L89.3171 117.221M188.176 84.5L207.732 86.5858L251.103 139.131M188.176 84.5L198.815 97.3893L231.547 137.045M188.176 84.5L161.168 117.221M231.547 137.045L251.103 139.131M231.547 137.045L225.657 144.05L216.656 154.752M216.656 154.752L236.212 156.838L251.103 139.131M216.656 154.752L198.815 133.137M152.251 163.773L171.807 165.858L198.815 133.137M152.251 163.773L161.168 152.969L188.176 120.248L198.815 133.137M152.251 163.773L126.964 133.137M80.3999 163.773L99.9559 165.858L126.964 133.137M80.3999 163.773L89.3171 152.969L116.325 120.248L126.964 133.137M80.3999 163.773L55.1133 133.137M15.9946 154.752L24.8123 144.069L44.4745 120.248L55.1133 133.137M15.9946 154.752L35.5506 156.838L55.1133 133.137" stroke="black" stroke-width="2" stroke-linejoin="round"/>
<path d="M24.8118 144.07L15.9941 154.752L35.5501 156.838L55.1128 133.137L44.474 120.248L24.8118 144.07Z" fill="#F9F9F9"/>
<path d="M80.3994 163.773L99.9554 165.859L126.964 133.137L116.325 120.248L89.3166 152.969L80.3994 163.773Z" fill="#F9F9F9"/>
<path d="M152.25 163.773L171.806 165.859L198.814 133.137L188.176 120.248L161.167 152.969L152.25 163.773Z" fill="#F9F9F9"/>
<path d="M236.212 156.838L251.103 139.132L231.547 137.046L225.656 144.05L216.656 154.752L236.212 156.838Z" fill="#F9F9F9"/>
<path d="M24.8118 144.07L15.9941 154.752L35.5501 156.838L55.1128 133.137L44.474 120.248L24.8118 144.07Z" stroke="black" stroke-width="2" stroke-linejoin="round"/>
<path d="M80.3994 163.773L99.9554 165.859L126.964 133.137L116.325 120.248L89.3166 152.969L80.3994 163.773Z" stroke="black" stroke-width="2" stroke-linejoin="round"/>
<path d="M152.25 163.773L171.806 165.859L198.814 133.137L188.176 120.248L161.167 152.969L152.25 163.773Z" stroke="black" stroke-width="2" stroke-linejoin="round"/>
<path d="M236.212 156.838L251.103 139.132L231.547 137.046L225.656 144.05L216.656 154.752L236.212 156.838Z" stroke="black" stroke-width="2" stroke-linejoin="round"/>
<path d="M251.103 139.131L207.732 86.5858L188.176 84.5L198.815 97.3893L231.547 137.045L251.103 139.131Z" fill="#F9F9F9"/>
<path d="M135.881 86.5858L116.325 84.5L126.964 97.3893L152.251 128.025L161.168 117.221L148.525 101.904L135.881 86.5858Z" fill="#F9F9F9"/>
<path d="M64.0306 86.5858L44.4746 84.5L55.1134 97.3893L80.4 128.025L89.3172 117.221L64.0306 86.5858Z" fill="#F9F9F9"/>
<path d="M251.103 139.131L207.732 86.5858L188.176 84.5L198.815 97.3893L231.547 137.045L251.103 139.131Z" stroke="black" stroke-width="2" stroke-linejoin="round"/>
<path d="M135.881 86.5858L116.325 84.5L126.964 97.3893L152.251 128.025L161.168 117.221L148.525 101.904L135.881 86.5858Z" stroke="black" stroke-width="2" stroke-linejoin="round"/>
<path d="M64.0306 86.5858L44.4746 84.5L55.1134 97.3893L80.4 128.025L89.3172 117.221L64.0306 86.5858Z" stroke="black" stroke-width="2" stroke-linejoin="round"/>
<path fill-rule="evenodd" clip-rule="evenodd" d="M44.4745 84.5L55.1133 97.3893L80.3999 128.025L89.3171 117.221L116.325 84.5L126.964 97.3893L152.251 128.025L161.168 117.221L188.176 84.5L198.815 97.3893L231.547 137.045L225.657 144.05L216.656 154.752L198.815 133.137L188.176 120.248L161.168 152.969L152.251 163.773L126.964 133.137L116.325 120.248L89.3171 152.969L80.3999 163.773L55.1133 133.137L44.4745 120.248L24.8123 144.069L15.9946 154.752L1.10352 137.045L44.4745 84.5Z" fill="#F9F9F9" stroke="black" stroke-width="2" stroke-linejoin="round"/>
</svg>
