<svg width="251" height="252" viewBox="0 0 251 252" fill="none" xmlns="http://www.w3.org/2000/svg">
<path d="M97.8764 63.1302L151.411 32.0651M97.8764 63.1302L43.6035 32.0651M97.8764 63.1302V95.6745M151.411 32.0651L97.5072 1L43.6035 32.0651M151.411 32.0651V64.6095V92.716M43.6035 32.0651V64.6095L70.74 80.142M97.8764 95.6745L70.74 80.142M97.8764 95.6745L124.644 80.142V171.964V202.923M97.8764 218.456L43.6035 187.39M97.8764 218.456V251M97.8764 218.456L124.644 202.923M43.6035 187.39V219.935L97.8764 251M43.6035 187.39L70.74 171.752M97.8764 251L206.791 187.39V126M70.74 80.142V171.752M70.74 171.752L124.644 202.923M206.791 126L151.411 158.175V92.716M206.791 126L151.411 92.716" stroke="black" stroke-width="2" stroke-linecap="round" stroke-linejoin="round"/>
<path d="M97.8764 63.1295L43.6035 32.0645V64.6088L70.74 80.1414L97.8764 95.6739V63.1295Z" fill="#F9F9F9"/>
<path d="M97.8764 95.6739L70.74 80.1414V171.751L124.644 202.922V171.964V80.1414L97.8764 95.6739Z" fill="#F9F9F9"/>
<path d="M97.8764 218.455L43.6035 187.39V219.934L97.8764 250.999V218.455Z" fill="#F9F9F9"/>
<path d="M97.8764 95.6739V63.1295L43.6035 32.0645V64.6088L70.74 80.1414M97.8764 95.6739L70.74 80.1414M97.8764 95.6739L124.644 80.1414V171.964V202.922L70.74 171.751V80.1414M97.8764 218.455L43.6035 187.39V219.934L97.8764 250.999V218.455Z" stroke="black" stroke-width="2" stroke-linejoin="round"/>
<path d="M151.412 32.0645L97.8779 63.1295V95.6739L124.645 80.1414V171.964V202.922L97.8779 218.455V250.999L206.793 187.39V125.999L151.412 158.174V92.7153V64.6088V32.0645Z" fill="#F9F9F9" stroke="black" stroke-width="2" stroke-linecap="round" stroke-linejoin="round"/>
<path d="M43.6035 187.39L97.8764 218.456L124.644 202.923L70.74 171.752L43.6035 187.39Z" fill="#F9F9F9"/>
<path d="M151.411 158.175L206.791 126L151.411 92.716V158.175Z" fill="#F9F9F9"/>
<path d="M97.8764 63.1302L151.411 32.0651L97.5072 1L43.6035 32.0651L97.8764 63.1302Z" fill="#F9F9F9"/>
<path d="M43.6035 187.39L97.8764 218.456L124.644 202.923L70.74 171.752L43.6035 187.39Z" stroke="black" stroke-width="2" stroke-linejoin="round"/>
<path d="M151.411 158.175L206.791 126L151.411 92.716V158.175Z" stroke="black" stroke-width="2" stroke-linejoin="round"/>
<path d="M97.8764 63.1302L151.411 32.0651L97.5072 1L43.6035 32.0651L97.8764 63.1302Z" stroke="black" stroke-width="2" stroke-linejoin="round"/>
</svg>
