<svg width="251" height="250" viewBox="0 0 251 250" fill="none" xmlns="http://www.w3.org/2000/svg">
<path d="M8.02402 112.149C15.358 129.052 50.8056 125.577 85.1286 126.571V79.3241C85.1286 91.2602 45.3339 87.2815 33.3954 87.7789C21.457 88.2762 1.04021 96.0522 8.02402 112.149Z" fill="#F9F9F9"/>
<path d="M93.8594 151.802C75.6094 154.052 59.6094 164.867 69.2107 179.289C76.4332 190.138 100.736 192.708 123.929 194.527L124.094 194.54V139.733C124.06 140.145 124.004 140.565 123.929 140.994C122.435 149.449 110.674 149.729 93.8594 151.802Z" fill="#F9F9F9"/>
<path d="M204.359 134.052C187.732 129.088 155.764 119.608 147.308 115.132C144.021 113.393 141.261 110.677 139.844 107.48C139.291 106.234 138.943 104.915 138.848 103.552V195.394C139.18 195.408 139.512 195.421 139.844 195.433C151.906 195.888 163.44 195.85 172.677 195.701C203.518 195.204 240.89 185.302 243.81 164.867C246.141 148.552 227.609 140.994 204.359 134.052Z" fill="#F9F9F9"/>
<path d="M85.1286 126.571C50.8056 125.577 15.358 129.052 8.02402 112.149C1.04021 96.0522 21.457 88.2762 33.3954 87.7789C45.3339 87.2815 85.1286 91.2602 85.1286 79.3241M85.1286 126.571V79.3241M85.1286 126.571C115.203 127.443 123.492 131.468 124.094 138.052M85.1286 79.3241C85.1286 67.388 53.7903 75.9264 53.7903 63.0523C53.7903 52.5611 70.3589 46.5 112.488 46.5C162.353 46.5 176.359 60.3397 176.359 69.8022C176.359 79.2647 156.609 83.3514 146.313 90.7629C140.595 94.8794 138.558 99.4165 138.848 103.552M123.929 194.527C100.736 192.708 76.4332 190.138 69.2107 179.289C59.6094 164.867 75.6094 154.052 93.8594 151.802C110.674 149.729 122.435 149.449 123.929 140.994C124.004 140.565 124.06 140.145 124.094 139.733M123.929 194.527C123.984 194.532 124.039 194.536 124.094 194.54M123.929 194.527L124.094 194.54M138.848 103.552C138.943 104.915 139.291 106.234 139.844 107.48C141.261 110.677 144.021 113.393 147.308 115.132C155.764 119.608 187.732 129.088 204.359 134.052C227.609 140.994 246.141 148.552 243.81 164.867C240.89 185.302 203.518 195.204 172.677 195.701C163.44 195.85 151.906 195.888 139.844 195.433C139.512 195.421 139.18 195.408 138.848 195.394M138.848 103.552V195.394M138.848 195.394C133.969 195.2 129.012 194.923 124.094 194.54M124.094 138.052C124.144 138.595 124.141 139.156 124.094 139.733M124.094 138.052V139.733M124.094 194.54V139.733" stroke="black" stroke-width="2" stroke-linejoin="round"/>
<path d="M111.988 46.5C69.8597 46.5 53.291 52.5611 53.291 63.0523C53.291 75.9264 84.6294 67.388 84.6294 79.3241V126.571C114.704 127.443 122.993 131.468 123.595 138.052C123.644 138.595 123.642 139.156 123.595 139.733V194.54C128.513 194.923 133.47 195.2 138.348 195.394V103.552C138.058 99.4165 140.095 94.8794 145.814 90.7629C156.11 83.3514 175.86 79.2647 175.86 69.8022C175.86 60.3397 161.854 46.5 111.988 46.5Z" fill="black" stroke="black" stroke-width="2" stroke-linejoin="round"/>
<path d="M112.488 46.5C70.3597 46.5 53.791 52.5611 53.791 63.0523C53.791 75.9264 85.1294 67.388 85.1294 79.3241V126.571C115.204 127.443 123.493 131.468 124.095 138.052C124.144 138.595 124.142 139.156 124.095 139.733V194.54C129.013 194.923 133.97 195.2 138.848 195.394V103.552C138.558 99.4165 140.595 94.8794 146.314 90.7629C156.61 83.3514 176.36 79.2647 176.36 69.8022C176.36 60.3397 162.354 46.5 112.488 46.5Z" fill="#F9F9F9" stroke="black" stroke-width="2" stroke-linejoin="round"/>
</svg>
