<svg width="251" height="250" viewBox="0 0 251 250" fill="none" xmlns="http://www.w3.org/2000/svg">
<path d="M1.83543 175.36L1.83542 77.5053M1.83543 175.36L171.325 175.36C206.161 175.36 235.648 162.138 245.551 143.911C247.859 139.663 249.103 135.143 249.103 130.455M1.83543 175.36L1.83542 104.417M1.83543 175.36L1.83542 202.272M1.83542 77.5053C1.83543 52.705 36.6577 32.6003 79.6132 32.6003C122.569 32.6003 157.391 52.705 157.391 77.5054L157.391 85.5502L171.325 85.5502C214.281 85.5502 249.103 105.655 249.103 130.455M1.83542 77.5053L1.83542 104.417M249.103 130.455L249.103 157.376M249.103 130.455L249.103 157.367M1.83542 202.272L1.83542 104.417M1.83542 202.272L171.325 202.272C214.275 202.272 249.094 182.173 249.103 157.376M249.103 157.367C249.103 157.37 249.103 157.373 249.103 157.376M249.103 157.367L249.103 157.376" stroke="black" stroke-width="2" stroke-linejoin="round"/>
<path d="M171.323 175.361L1.83371 175.361L1.83369 202.273L171.323 202.273C214.274 202.273 249.093 182.173 249.101 157.377L249.101 157.368L249.101 130.456C249.101 135.144 247.857 139.664 245.549 143.912C235.646 162.138 206.16 175.361 171.323 175.361Z" fill="#F9F9F9" stroke="black" stroke-width="2" stroke-linejoin="round"/>
<path d="M1.83542 104.417L1.83544 175.36L171.325 175.36C206.161 175.36 235.648 162.138 245.551 143.911C247.859 139.663 249.103 135.143 249.103 130.455C249.103 105.655 214.281 85.5502 171.325 85.5502L157.391 85.5502L157.391 77.5054C157.391 52.705 122.569 32.6003 79.6132 32.6003C36.6577 32.6003 1.83543 52.705 1.83543 77.5053L1.83542 104.417Z" fill="#F9F9F9" stroke="black" stroke-width="2" stroke-linejoin="round"/>
</svg>
