<svg width="253" height="250" viewBox="0 0 253 250" fill="none" xmlns="http://www.w3.org/2000/svg">
<path d="M251.103 40L126.104 73.1845L1.10353 40M251.103 40L251.104 65.4713L203.769 124.904M251.103 40L193.626 112.169L203.769 124.904M251.103 184.338V209.809L126.104 176.624L1.10352 209.809L1.10352 184.338M251.103 184.338L203.769 124.904M251.103 184.338L126.104 151.153L1.10352 184.338M1.10352 184.338L48.4378 124.904M1.10353 40L1.10352 65.4713L48.4378 124.904M1.10353 40L58.5808 112.169L48.4378 124.904" stroke="black" stroke-width="2" stroke-linejoin="round"/>
<path d="M1.10352 209.809L126.104 176.624L251.103 209.809V184.338L126.104 151.153L1.10352 184.338L1.10352 209.809Z" fill="#F9F9F9"/>
<path d="M251.104 65.4713L251.103 40L193.626 112.169L203.769 124.904L251.104 65.4713Z" fill="#F9F9F9"/>
<path d="M1.10353 40L1.10352 65.4713L48.4378 124.904L58.5808 112.169L1.10353 40Z" fill="#F9F9F9"/>
<path d="M1.10352 209.809L126.104 176.624L251.103 209.809V184.338L126.104 151.153L1.10352 184.338L1.10352 209.809Z" stroke="black" stroke-width="2" stroke-linejoin="round"/>
<path d="M251.104 65.4713L251.103 40L193.626 112.169L203.769 124.904L251.104 65.4713Z" stroke="black" stroke-width="2" stroke-linejoin="round"/>
<path d="M1.10353 40L1.10352 65.4713L48.4378 124.904L58.5808 112.169L1.10353 40Z" stroke="black" stroke-width="2" stroke-linejoin="round"/>
<path d="M126.104 73.1845L1.10352 40L58.5808 112.169L48.4378 124.904L1.10352 184.338L126.104 151.153L251.103 184.338L203.769 124.904L193.626 112.169L251.103 40L126.104 73.1845Z" fill="#F9F9F9" stroke="black" stroke-width="2" stroke-linejoin="round"/>
</svg>
