<svg width="252" height="250" viewBox="0 0 252 250" fill="none" xmlns="http://www.w3.org/2000/svg">
<path d="M217.295 59.8642C173.103 70.3711 122.197 62.496 93.0244 40.6395C86.6883 67.9892 49.423 89.5044 2.05184 93.1625M217.295 59.8642L217.295 84.1396C214.691 87.7912 212.738 91.5222 211.416 95.2845M217.295 59.8642C211.288 68.2869 208.75 77.132 209.407 85.8085C209.649 88.9998 210.323 92.1682 211.416 95.2845M250.594 131.612L250.594 155.887C203.222 159.546 165.957 181.061 159.621 208.41M250.594 131.612C240.477 132.393 230.821 133.989 221.829 136.282C188.716 144.726 164.604 162.626 159.621 184.135M250.594 131.612C229.83 122.374 216.352 109.362 211.416 95.2845M159.621 184.135L159.621 208.41M159.621 184.135C132.17 163.568 85.4752 155.382 43.2381 163.241C40.5893 163.734 37.958 164.29 35.3501 164.91M35.3501 164.91L35.3501 189.186C79.5428 178.679 130.448 186.554 159.621 208.41M35.3501 164.91C37.9546 161.259 39.907 157.528 41.2296 153.765M2.05184 93.1625L2.05183 117.438C22.8152 126.676 36.2936 139.688 41.2296 153.765M2.05184 93.1625C14.2311 98.5813 23.9039 105.299 30.8163 112.768C42.3146 125.193 46.1751 139.697 41.2296 153.765" stroke="black" stroke-width="2" stroke-linejoin="round"/>
<path d="M2.05177 93.8335L2.05176 118.109C22.8151 127.347 36.2935 140.359 41.2295 154.436C46.175 140.368 42.3145 125.863 30.8162 113.439C23.9038 105.97 14.231 99.2522 2.05177 93.8335Z" fill="#F9F9F9"/>
<path d="M159.621 184.806V209.081C165.957 181.732 203.222 160.216 250.594 156.558V132.283C240.477 133.064 230.821 134.66 221.829 136.953C188.716 145.397 164.604 163.297 159.621 184.806Z" fill="#F9F9F9"/>
<path d="M217.295 84.8105V60.5352C211.288 68.9579 208.75 77.8029 209.407 86.4795C209.649 89.6707 210.323 92.8391 211.416 95.9554C212.738 92.1931 214.691 88.4621 217.295 84.8105Z" fill="#F9F9F9"/>
<path d="M35.35 165.581L35.35 189.857C79.5427 179.35 130.448 187.225 159.621 209.081V184.806C132.17 164.239 85.4751 156.053 43.238 163.912C40.5892 164.405 37.9579 164.961 35.35 165.581Z" fill="#F9F9F9"/>
<path d="M159.621 184.806V209.081M159.621 184.806C132.17 164.239 85.4751 156.053 43.238 163.912C40.5892 164.405 37.9579 164.961 35.35 165.581L35.35 189.857C79.5427 179.35 130.448 187.225 159.621 209.081M159.621 184.806C164.604 163.297 188.716 145.397 221.829 136.953C230.821 134.66 240.477 133.064 250.594 132.283V156.558C203.222 160.216 165.957 181.732 159.621 209.081M217.295 60.5352V84.8105C214.691 88.4621 212.738 92.1931 211.416 95.9554C210.323 92.8391 209.649 89.6707 209.407 86.4795C208.75 77.8029 211.288 68.9579 217.295 60.5352ZM2.05177 93.8335L2.05176 118.109C22.8151 127.347 36.2935 140.359 41.2295 154.436C46.175 140.368 42.3145 125.863 30.8162 113.439C23.9038 105.97 14.231 99.2522 2.05177 93.8335Z" stroke="black" stroke-width="2" stroke-linejoin="round"/>
<path d="M217.166 60.0898C172.974 70.5966 122.068 62.7216 92.8955 40.865C86.5594 68.2148 49.2941 89.73 1.92293 93.3881C14.1022 98.8068 23.775 105.524 30.6874 112.994C42.1857 125.418 46.0462 139.923 41.1007 153.991C39.7781 157.753 37.8257 161.484 35.2212 165.136C37.8291 164.516 40.4604 163.96 43.1092 163.467C85.3463 155.607 132.041 163.794 159.492 184.361C164.475 162.852 188.587 144.952 221.7 136.508C230.692 134.215 240.348 132.619 250.465 131.838C229.701 122.6 216.223 109.587 211.287 95.51C210.194 92.3938 209.52 89.2254 209.278 86.0341C208.621 77.3575 211.159 68.5125 217.166 60.0898Z" fill="#F9F9F9" stroke="black" stroke-width="2" stroke-linejoin="round"/>
</svg>
