<svg width="251" height="250" viewBox="0 0 251 250" fill="none" xmlns="http://www.w3.org/2000/svg">
<path d="M249.095 164.958C247.877 117.13 246.393 69.2436 197.074 40.2494C117.196 -5.86815 -4.77108 45.8714 1.71699 97.9983C2.55917 104.765 5.56567 111.537 11.1095 118.103C16.1117 124.028 23.1797 129.784 32.5874 135.216C82.4595 164.01 166.377 164.487 249.095 164.958Z" fill="#F9F9F9"/>
<path d="M249.095 164.958C247.877 117.13 246.393 69.2436 197.074 40.2494C117.196 -5.86815 -4.77108 45.8714 1.71699 97.9983M249.095 164.958L249.095 204.871C249.095 204.871 94.1437 203.989 43.6753 180.837C39.8235 179.07 36.1237 177.17 32.5874 175.129C12.8031 163.706 3.36652 150.847 1.72919 138.008L1.71699 97.9983M249.095 164.958C166.377 164.487 82.4595 164.01 32.5874 135.216C23.1797 129.784 16.1117 124.028 11.1095 118.103C5.56567 111.537 2.55917 104.765 1.71699 97.9983" stroke="black" stroke-width="2" stroke-linejoin="round"/>
<path d="M32.5883 135.216C23.1806 129.784 16.1126 124.028 11.1104 118.103C5.56659 111.537 2.56008 104.765 1.71791 97.9984L1.73011 138.008C3.36744 150.847 12.804 163.706 32.5883 175.129C36.1246 177.17 39.8244 179.07 43.6762 180.837C94.1446 203.989 249.096 204.871 249.096 204.871L249.096 164.958C166.378 164.487 82.4604 164.01 32.5883 135.216Z" fill="#F9F9F9" stroke="black" stroke-width="2" stroke-linejoin="round"/>
<path d="M249.095 164.958C247.877 117.13 246.393 69.2436 197.074 40.2494C117.196 -5.86815 -4.77107 45.8714 1.717 97.9983C2.55917 104.765 5.56568 111.537 11.1095 118.103C16.1117 124.028 23.1797 129.784 32.5874 135.216C82.4595 164.01 166.377 164.487 249.095 164.958Z" fill="#F9F9F9"/>
<path d="M249.095 164.958C247.877 117.13 246.393 69.2436 197.074 40.2494C117.196 -5.86815 -4.77107 45.8714 1.717 97.9983C2.55917 104.765 5.56568 111.537 11.1095 118.103C16.1117 124.028 23.1797 129.784 32.5874 135.216C82.4595 164.01 166.377 164.487 249.095 164.958Z" fill="#F9F9F9"/>
<path d="M249.095 164.958C247.877 117.13 246.393 69.2436 197.074 40.2494C117.196 -5.86815 -4.77107 45.8714 1.717 97.9983C2.55917 104.765 5.56568 111.537 11.1095 118.103C16.1117 124.028 23.1797 129.784 32.5874 135.216C82.4595 164.01 166.377 164.487 249.095 164.958Z" stroke="black" stroke-width="2" stroke-linejoin="round"/>
<path d="M249.095 164.958C247.877 117.13 246.393 69.2436 197.074 40.2494C117.196 -5.86815 -4.77107 45.8714 1.717 97.9983C2.55917 104.765 5.56568 111.537 11.1095 118.103C16.1117 124.028 23.1797 129.784 32.5874 135.216C82.4595 164.01 166.377 164.487 249.095 164.958Z" stroke="black" stroke-width="2" stroke-linejoin="round"/>
</svg>
