<svg width="251" height="250" viewBox="0 0 251 250" fill="none" xmlns="http://www.w3.org/2000/svg">
<path d="M7.61325 204.096C17.1383 186.191 67.3925 172.532 127.957 172.532C188.521 172.532 238.775 186.191 248.3 204.096M7.61325 204.096C17.1383 222.002 67.3925 235.66 127.957 235.66C188.521 235.66 238.775 222.002 248.3 204.096M7.61325 204.096C6.54427 202.087 5.98828 200.024 5.98828 197.92C5.98828 177.077 60.5955 160.181 127.957 160.181C195.318 160.181 249.925 177.077 249.925 197.92C249.925 200.024 249.369 202.087 248.3 204.096" stroke="black" stroke-width="2" stroke-linejoin="round"/>
<path d="M127.957 160.181C60.5955 160.181 5.98828 177.077 5.98828 197.92C5.98828 200.024 6.54427 202.087 7.61325 204.096C17.1383 186.191 67.3925 172.532 127.957 172.532C188.521 172.532 238.775 186.191 248.301 204.096C249.369 202.087 249.925 200.024 249.925 197.92C249.925 177.077 195.318 160.181 127.957 160.181Z" fill="#F9F9F9" stroke="black" stroke-width="2" stroke-linejoin="round"/>
<path d="M127.961 172.531C67.3964 172.531 17.1422 186.19 7.61719 204.095C17.1422 222.001 67.3964 235.66 127.961 235.66C188.525 235.66 238.779 222.001 248.304 204.095C238.779 186.19 188.525 172.531 127.961 172.531Z" fill="#F9F9F9" stroke="black" stroke-width="2" stroke-linejoin="round"/>
<path d="M201.548 151.603C201.548 182.868 176.203 208.213 144.938 208.213C113.673 208.213 88.3281 182.868 88.3281 151.603C88.3281 120.338 113.673 94.9932 144.938 94.9932C176.203 94.9932 201.548 120.338 201.548 151.603Z" fill="#F9F9F9" stroke="black" stroke-width="2" stroke-linejoin="round"/>
<path d="M234.874 29.4783C228.58 9.60815 171.419 9.98974 107.203 30.3307C42.9858 50.6716 -3.97001 83.2691 2.32394 103.139M234.874 29.4783C235.509 31.4833 235.602 33.6179 235.189 35.8564C235.178 35.9201 235.166 35.9839 235.153 36.0479C231.236 55.9823 187.548 84.057 129.995 102.287C72.4425 120.517 20.5578 122.715 5.87794 108.672C5.83087 108.627 5.78419 108.581 5.73788 108.536C4.11201 106.943 2.95903 105.144 2.32394 103.139M234.874 29.4783L238.707 41.5801C239.342 43.5851 239.435 45.7196 239.023 47.9581C235.349 67.9039 191.565 96.1003 133.828 114.389C76.0912 132.677 24.0584 134.831 9.57115 120.638C7.94528 119.045 6.7923 117.246 6.15721 115.241L2.32394 103.139" stroke="black" stroke-width="2" stroke-linejoin="round"/>
<path d="M5.73816 108.536C4.11229 106.943 2.9593 105.145 2.32422 103.14L6.15749 115.241C6.79257 117.246 7.94556 119.045 9.57143 120.638C24.0587 134.831 76.0915 132.678 133.829 114.389C191.566 96.1007 235.349 67.9043 239.023 47.9585C239.435 45.72 239.342 43.5854 238.707 41.5804L234.874 29.4787C235.509 31.4837 235.602 33.6182 235.19 35.8567C235.178 35.9205 235.166 35.9843 235.153 36.0482C231.236 55.9827 187.548 84.0574 129.995 102.287C72.4427 120.517 20.5581 122.716 5.87821 108.672C5.83115 108.627 5.78446 108.582 5.73816 108.536Z" fill="#F9F9F9" stroke="black" stroke-width="2" stroke-linejoin="round"/>
<path d="M107.203 30.3307C42.9858 50.6716 -3.97001 83.2691 2.32394 103.139C2.95903 105.144 4.11201 106.943 5.73789 108.536C5.78419 108.581 5.83087 108.627 5.87794 108.672C20.5578 122.715 72.4425 120.517 129.995 102.287C187.548 84.057 231.236 55.9823 235.153 36.0479C235.166 35.9839 235.178 35.9201 235.189 35.8564C235.602 33.6179 235.509 31.4833 234.874 29.4783C228.58 9.60815 171.419 9.98974 107.203 30.3307Z" fill="#F9F9F9" stroke="black" stroke-width="2" stroke-linejoin="round"/>
</svg>
