<svg width="251" height="252" viewBox="0 0 251 252" fill="none" xmlns="http://www.w3.org/2000/svg">
<path d="M64.425 235.083C69.2405 226.054 94.647 219.166 125.266 219.166C155.885 219.166 181.291 226.054 186.107 235.083M64.425 235.083C69.2405 244.113 94.647 251.001 125.266 251.001C155.885 251.001 181.291 244.113 186.107 235.083M64.425 235.083C63.8846 234.07 63.6035 233.03 63.6035 231.969C63.6035 221.458 91.2107 212.938 125.266 212.938C159.321 212.938 186.928 221.458 186.928 231.969C186.928 233.03 186.647 234.07 186.107 235.083" stroke="black" stroke-width="2" stroke-linejoin="round"/>
<path d="M125.265 219.166C94.6458 219.166 69.2393 226.053 64.4238 235.083C69.2393 244.112 94.6458 251 125.265 251C155.884 251 181.29 244.112 186.106 235.083C181.29 226.053 155.884 219.166 125.265 219.166Z" fill="#F9F9F9" stroke="black" stroke-width="2" stroke-linejoin="round"/>
<path d="M124.766 212.938C90.7107 212.938 63.1035 221.458 63.1035 231.969C63.1035 233.03 63.3846 234.07 63.925 235.084C68.7405 226.054 94.147 219.166 124.766 219.166C155.385 219.166 180.791 226.054 185.607 235.084C186.147 234.07 186.428 233.03 186.428 231.969C186.428 221.458 158.821 212.938 124.766 212.938Z" fill="#F9F9F9" stroke="black" stroke-width="2" stroke-linejoin="round"/>
<path d="M186.107 16.9176C181.292 25.947 155.885 32.8349 125.266 32.8349C94.6474 32.8349 69.2408 25.947 64.4254 16.9176M186.107 16.9176C181.292 7.88821 155.885 1.00026 125.266 1.00026C94.6474 1.00025 69.2408 7.8882 64.4254 16.9176M186.107 16.9176C186.648 17.931 186.929 18.9713 186.929 20.0319C186.929 30.5427 159.322 39.0635 125.266 39.0635C91.2111 39.0635 63.6038 30.5427 63.6038 20.0319C63.6038 18.9713 63.8849 17.9309 64.4254 16.9176" stroke="black" stroke-width="2" stroke-linejoin="round"/>
<path d="M124.766 39.0627C158.822 39.0627 186.429 30.542 186.429 20.0311C186.429 18.9705 186.148 17.9302 185.607 16.9169C180.792 25.9463 155.385 32.8342 124.766 32.8342C94.1474 32.8342 68.7408 25.9463 63.9254 16.9169C63.3849 17.9302 63.1038 18.9705 63.1038 20.0311C63.1038 30.542 90.7111 39.0627 124.766 39.0627Z" fill="#F9F9F9" stroke="black" stroke-width="2" stroke-linejoin="round"/>
<path d="M125.267 32.835C155.885 32.835 181.292 25.947 186.107 16.9176C181.292 7.88821 155.885 1.00027 125.267 1.00026C94.6476 1.00026 69.2411 7.8882 64.4256 16.9176C69.2411 25.947 94.6476 32.835 125.267 32.835Z" fill="#F9F9F9" stroke="black" stroke-width="2" stroke-linejoin="round"/>
<path d="M152.824 208.522C152.824 223.741 140.486 236.079 125.266 236.079C110.046 236.079 97.708 223.741 97.708 208.522C97.708 193.302 110.046 180.964 125.266 180.964C140.486 180.964 152.824 193.302 152.824 208.522Z" fill="#F9F9F9" stroke="black" stroke-width="2" stroke-linejoin="round"/>
<path d="M97.7106 43.784C97.7106 28.5643 110.049 16.2262 125.268 16.2262C140.488 16.2262 152.826 28.5643 152.826 43.784C152.826 59.0038 140.488 71.3418 125.268 71.3418C110.049 71.3418 97.7106 59.0038 97.7106 43.784Z" fill="#F9F9F9" stroke="black" stroke-width="2" stroke-linejoin="round"/>
<path d="M152.824 126C152.824 141.22 140.486 153.558 125.266 153.558C110.046 153.558 97.708 141.22 97.708 126C97.708 110.78 110.046 98.4424 125.266 98.4424C140.486 98.4424 152.824 110.78 152.824 126Z" fill="#F9F9F9" stroke="black" stroke-width="2" stroke-linejoin="round"/>
</svg>
