<svg width="251" height="250" viewBox="0 0 251 250" fill="none" xmlns="http://www.w3.org/2000/svg">
<path d="M228.192 164.976C206.573 177.481 171.522 177.481 149.903 164.976L85.8603 128.07L21.8177 91.1638C11.0115 84.9131 5.60679 76.7212 5.60352 68.5287L5.61142 108.141C5.84479 116.154 11.2469 124.126 21.8177 130.241L149.903 204.052C171.522 216.557 206.573 216.557 228.192 204.052C238.285 198.214 243.666 190.682 244.335 183.038V143.961C243.666 151.605 238.285 159.137 228.192 164.976Z" fill="#F9F9F9"/>
<path d="M244.335 143.961C245.099 135.232 239.718 126.357 228.192 119.691L164.15 82.7847L100.107 45.8788C78.488 33.3737 43.4367 33.3737 21.8177 45.8788C11.0083 52.1314 5.60352 60.3263 5.60352 68.5213M244.335 143.961C243.666 151.605 238.285 159.137 228.192 164.976C206.573 177.481 171.522 177.481 149.903 164.976L85.8603 128.07L21.8177 91.1638C11.0115 84.9131 5.60679 76.7212 5.60352 68.5287M244.335 143.961V183.038C243.666 190.682 238.285 198.214 228.192 204.052C206.573 216.557 171.522 216.557 149.903 204.052L21.8177 130.241C11.2469 124.126 5.84479 116.154 5.61142 108.141L5.60352 68.5287M5.60352 68.5213L5.60352 68.5287M5.60352 68.5213C5.60352 68.5238 5.60352 68.5262 5.60352 68.5287" stroke="black" stroke-width="2" stroke-linejoin="round"/>
<path d="M149.903 164.976C171.522 177.481 206.573 177.481 228.192 164.976C238.285 159.137 243.666 151.605 244.335 143.961C245.099 135.232 239.718 126.357 228.192 119.691L164.15 82.7847L100.107 45.8788C78.488 33.3737 43.4367 33.3737 21.8177 45.8788C11.0083 52.1314 5.60352 60.3263 5.60352 68.5213L5.60352 68.5287C5.60679 76.7212 11.0115 84.9131 21.8177 91.1638L85.8603 128.07L149.903 164.976Z" fill="#F9F9F9" stroke="black" stroke-width="2" stroke-linejoin="round"/>
<path d="M198.834 136.673L189.047 142.334L179.261 147.994L208.62 153.681L198.834 136.673Z" fill="#F9F9F9"/>
<path d="M51.1762 74.1824L60.9623 68.5218L70.7485 62.8612L38.6816 55.6113L51.1762 74.1824Z" fill="#F9F9F9"/>
<path d="M198.834 136.673L189.047 142.334L179.261 147.994L208.62 153.681L198.834 136.673Z" stroke="black" stroke-width="2" stroke-linejoin="round"/>
<path d="M51.1762 74.1824L60.9623 68.5218L70.7485 62.8612L38.6816 55.6113L51.1762 74.1824Z" stroke="black" stroke-width="2" stroke-linejoin="round"/>
</svg>
