<svg width="251" height="250" viewBox="0 0 251 250" fill="none" xmlns="http://www.w3.org/2000/svg">
<path d="M149.903 164.976C171.522 177.481 206.573 177.481 228.192 164.976C238.285 159.137 243.666 151.605 244.335 143.961C245.099 135.232 239.718 126.357 228.192 119.691L100.107 45.8788C78.488 33.3737 43.4367 33.3737 21.8177 45.8788C11.0083 52.1314 5.60352 60.3263 5.60352 68.5213L5.60352 68.5287C5.60679 76.7212 11.0115 84.9131 21.8177 91.1638L149.903 164.976Z" fill="#F9F9F9"/>
<path d="M228.192 164.976C206.573 177.481 171.522 177.481 149.903 164.976L21.8177 91.1638C11.0115 84.9131 5.60679 76.7212 5.60352 68.5287L5.61142 108.141C5.84479 116.154 11.2469 124.126 21.8177 130.241L149.903 204.052C171.522 216.557 206.573 216.557 228.192 204.052C238.285 198.214 243.666 190.682 244.335 183.038V143.961C243.666 151.605 238.285 159.137 228.192 164.976Z" fill="#F9F9F9"/>
<path d="M244.335 143.961C245.099 135.232 239.718 126.357 228.192 119.691L100.107 45.8788C78.488 33.3737 43.4367 33.3737 21.8177 45.8788C11.0083 52.1314 5.60352 60.3263 5.60352 68.5213M244.335 143.961C243.666 151.605 238.285 159.137 228.192 164.976C206.573 177.481 171.522 177.481 149.903 164.976L21.8177 91.1638C11.0115 84.9131 5.60679 76.7212 5.60352 68.5287M244.335 143.961V183.038C243.666 190.682 238.285 198.214 228.192 204.052C206.573 216.557 171.522 216.557 149.903 204.052L21.8177 130.241C11.2469 124.126 5.84479 116.154 5.61142 108.141L5.60352 68.5287M5.60352 68.5213L5.60352 68.5287M5.60352 68.5213C5.60352 68.5238 5.60352 68.5262 5.60352 68.5287M81.3999 56.6996L40.5683 80.3179M40.5683 56.6996L81.4948 80.3179M168.002 130.241L202.242 150" stroke="black" stroke-width="2" stroke-linejoin="round"/>
<path d="M228.192 164.975C206.573 177.48 171.522 177.48 149.903 164.975L21.8177 91.1634C11.0115 84.9127 5.60678 76.7208 5.60352 68.5283L5.61142 108.14C5.84479 116.154 11.2469 124.126 21.8177 130.24L149.903 204.052C171.522 216.557 206.573 216.557 228.192 204.052C238.285 198.214 243.666 190.682 244.335 183.038V143.961C243.666 151.605 238.285 159.137 228.192 164.975Z" fill="#F9F9F9" stroke="black" stroke-width="2" stroke-linejoin="round"/>
</svg>
