<svg width="251" height="250" viewBox="0 0 251 250" fill="none" xmlns="http://www.w3.org/2000/svg">
<path d="M228.192 188.573C206.573 201.078 171.522 201.078 149.903 188.573L21.8177 114.761C20.1085 113.773 18.5344 112.735 17.0954 111.657C0.33391 99.099 1.90801 80.9929 21.8177 69.4765C43.4367 56.9714 78.488 56.9714 100.107 69.4765L228.192 143.288C248.102 154.805 249.676 172.911 232.914 185.469C231.475 186.547 229.901 187.585 228.192 188.573Z" fill="#F9F9F9"/>
<path d="M232.914 185.469C231.475 186.547 229.901 187.585 228.192 188.573C206.573 201.078 171.522 201.078 149.903 188.573L21.8177 114.761C20.1085 113.773 18.5344 112.735 17.0954 111.657M232.914 185.469C231.475 184.391 229.901 183.354 228.192 182.365L100.107 108.553C78.488 96.0482 43.4367 96.0482 21.8177 108.553C20.1085 109.542 18.5344 110.579 17.0954 111.657M232.914 185.469C249.676 172.911 248.102 154.805 228.192 143.288L100.107 69.4765C78.488 56.9714 43.4367 56.9714 21.8177 69.4765C1.90801 80.9929 0.33391 99.099 17.0954 111.657" stroke="black" stroke-width="2" stroke-linejoin="round"/>
<path fill-rule="evenodd" clip-rule="evenodd" d="M86.8452 151.937C107.125 145.192 121.749 126.062 121.749 103.517C121.749 75.3411 98.9077 52.5 70.7318 52.5C42.5559 52.5 19.7148 75.3411 19.7148 103.517C19.7148 107.073 20.0786 110.544 20.771 113.894L86.8452 151.937Z" fill="#F9F9F9" stroke="black" stroke-width="2" stroke-linejoin="round"/>
</svg>
