<svg width="253" height="250" viewBox="0 0 253 250" fill="none" xmlns="http://www.w3.org/2000/svg">
<path fill-rule="evenodd" clip-rule="evenodd" d="M251.103 120.89L93.7584 30L1.05078 83.5532V145.722L158.396 236.612V174.443L251.103 120.89Z" fill="#F9F9F9"/>
<path d="M251.103 174.443V120.89L158.396 174.443V236.612L251.103 174.443Z" fill="#F9F9F9"/>
<path d="M251.103 120.89L93.7584 30L1.05078 83.5532M251.103 120.89V174.443L158.396 236.612M251.103 120.89L158.396 174.443M158.396 236.612L1.05078 145.722V83.5532M158.396 236.612V174.443M1.05078 83.5532L158.396 174.443" stroke="black" stroke-width="2" stroke-linejoin="round"/>
<path d="M190.453 138.649C176.918 146.45 154.975 146.45 141.441 138.649L61.2543 92.6018C60.1842 91.985 59.1988 91.3379 58.2979 90.6654C47.8045 82.8308 48.79 71.5354 61.2543 64.3509C74.7886 56.5497 96.7321 56.5497 110.266 64.3509L190.453 110.398C202.917 117.583 203.902 128.878 193.409 136.713C192.508 137.385 191.523 138.032 190.453 138.649Z" fill="#F9F9F9"/>
<path d="M193.409 136.713C192.508 137.385 191.523 138.032 190.453 138.649C176.918 146.45 154.975 146.45 141.441 138.649L61.2543 92.6018C60.1842 91.985 59.1988 91.3379 58.2979 90.6654M193.409 136.713C192.508 136.04 191.523 135.393 190.453 134.776L110.266 88.7289C96.7321 80.9276 74.7886 80.9276 61.2543 88.7289C60.1842 89.3457 59.1988 89.9928 58.2979 90.6654M193.409 136.713C203.902 128.878 202.917 117.583 190.453 110.398L110.266 64.3509C96.7321 56.5497 74.7886 56.5497 61.2543 64.3509C48.79 71.5354 47.8045 82.8308 58.2979 90.6654" stroke="black" stroke-width="2" stroke-linejoin="round"/>
</svg>
