<svg width="251" height="251" viewBox="0 0 251 251" fill="none" xmlns="http://www.w3.org/2000/svg">
<path d="M124.874 3.10292C143.624 9.71292 161.974 28.8279 182.914 47.5629C203.209 66.9129 226.089 85.8779 238.874 106.428C251.659 126.978 249.074 148.133 228.119 171.848C207.819 194.933 169.149 220.633 124.899 235.953C80.6435 251.348 41.9535 250.743 21.6435 232.563C0.678516 214.913 -1.91148 179.688 10.8735 137.438C23.6585 95.1879 46.5435 55.4079 66.8285 30.9379C87.7635 5.96792 106.104 -3.66208 124.874 3.10292Z" fill="#F9F9F9" stroke="black" stroke-width="2" stroke-linejoin="round"/>
<path d="M207.584 135.238C201.699 157.738 168.119 184.238 124.889 197.138C81.6588 210.038 48.0688 199.453 42.1738 169.638M215.834 133.873C214.044 135.233 210.784 135.863 207.584 135.233C204.379 134.608 202.169 132.878 201.734 131.003M33.9238 171.758C35.7188 172.843 38.9738 172.088 42.1788 169.643C45.3838 167.198 47.5888 163.783 48.0238 160.993" stroke="black" stroke-width="2" stroke-linejoin="round"/>
<path d="M106.874 50.3572C111.064 50.7722 113.739 71.9972 112.839 97.7222C111.939 123.447 106.144 145.372 99.8792 146.697C93.6142 148.022 90.9492 126.847 93.9142 99.3822C96.8792 71.9172 102.679 49.9472 106.874 50.3572Z" fill="black" stroke="black" stroke-width="2" stroke-linejoin="round"/>
<path d="M144.178 53.3977C148.373 53.9727 154.383 72.3977 157.613 94.5377C160.843 116.678 158.383 135.603 152.113 136.853C145.843 138.103 139.873 119.713 138.688 95.7577C137.503 71.8027 139.988 52.8177 144.178 53.3977Z" fill="black" stroke="black" stroke-width="2" stroke-linejoin="round"/>
</svg>
