<svg width="251" height="281" viewBox="0 0 251 281" fill="none" xmlns="http://www.w3.org/2000/svg">
<path d="M231.789 125.087C231.789 214.48 188.854 352.48 111.104 232.98C75.9807 178.997 9.24352 184.902 8.60352 106.762C9.16352 41.0569 58.1885 0.681888 121.094 1.00189C184.039 1.13189 235.054 52.3619 231.789 125.087Z" fill="#F9F9F9" stroke="black" stroke-width="2" stroke-linejoin="round"/>
<ellipse cx="96.3535" cy="87.4805" rx="10.25" ry="37.75" fill="black" stroke="black" stroke-width="2" stroke-linejoin="round"/>
<ellipse cx="144.354" cy="101.98" rx="10.25" ry="51.25" transform="rotate(1.33966 144.354 101.98)" fill="black" stroke="black" stroke-width="2" stroke-linejoin="round"/>
<path d="M191.104 165.98C179.065 192.093 169.354 252.73 123.604 198.73C95.8474 165.969 61.0203 166.124 48.982 140.012M191.104 165.98C193.645 167.448 196.546 167.453 198.483 166.199M191.104 165.98C188.562 164.513 187.986 160.034 188.104 157.73M41.6035 140.23C43.54 141.484 46.4408 141.479 48.9827 140.012C51.5245 138.544 52.9791 136.034 52.8618 133.73" stroke="black" stroke-width="2" stroke-linejoin="round"/>
</svg>
