<svg width="251" height="286" viewBox="0 0 251 286" fill="none" xmlns="http://www.w3.org/2000/svg">
<path d="M239.104 142.96C239.104 158.765 235.914 172.96 230.144 180.695C224.379 188.935 216.029 190.695 205.714 193.575C195.399 196.455 183.119 200.33 169.479 211.625C155.839 222.3 140.844 240.34 125.104 256.96C109.364 273.58 94.3685 285.245 80.7285 284.37C67.0885 284.125 54.8085 271.34 44.4935 253.535C34.1785 235.73 25.8285 212.995 20.0635 193.96C14.2935 174.42 11.1035 158.635 11.1035 142.96C11.1035 127.285 14.2935 111.5 20.0635 91.9601C25.8285 72.9101 34.1785 50.1101 44.4935 32.3551C54.8085 14.6001 67.1035 1.78512 80.7285 1.54512C94.3685 0.68012 109.364 12.3401 125.104 28.9601C140.844 45.5801 155.839 63.6251 169.479 74.2901C183.119 85.5801 195.399 89.4901 205.714 92.3151C216.029 95.1401 224.379 96.9701 230.144 105.22C235.914 112.96 239.104 127.155 239.104 142.96Z" fill="#F9F9F9"/>
<path d="M200.354 163C200.354 167.5 162.354 190.25 128.854 218.5C74.8535 264.037 55.3535 197.75 51.6035 187.75M200.354 163C202.895 164.468 206.417 165.004 208.354 163.75M200.354 163C197.812 161.533 196.486 160.554 196.604 158.25M51.6035 187.75C47.6035 190.06 46.0315 188.449 44.0952 187.195M51.6035 187.75C54.1454 186.283 55.4708 181.804 55.3535 179.5M239.104 142.96C239.104 158.765 235.914 172.96 230.144 180.695C224.379 188.935 216.029 190.695 205.714 193.575C195.399 196.455 183.119 200.33 169.479 211.625C155.839 222.3 140.844 240.34 125.104 256.96C109.364 273.58 94.3685 285.245 80.7285 284.37C67.0885 284.125 54.8085 271.34 44.4935 253.535C34.1785 235.73 25.8285 212.995 20.0635 193.96C14.2935 174.42 11.1035 158.635 11.1035 142.96C11.1035 127.285 14.2935 111.5 20.0635 91.9601C25.8285 72.9101 34.1785 50.1101 44.4935 32.3551C54.8085 14.6001 67.1035 1.78512 80.7285 1.54512C94.3685 0.68012 109.364 12.3401 125.104 28.9601C140.844 45.5801 155.839 63.6251 169.479 74.2901C183.119 85.5801 195.399 89.4901 205.714 92.3151C216.029 95.1401 224.379 96.9701 230.144 105.22C235.914 112.96 239.104 127.155 239.104 142.96Z" stroke="black" stroke-width="2" stroke-linejoin="round"/>
<path d="M112.104 118.185C112.104 144.975 107.514 167.96 101.854 169.375C96.1935 170.79 91.6035 146.075 91.6035 114.525C91.6035 82.9752 96.1935 59.6952 101.854 63.1052C107.514 66.5152 112.104 91.4002 112.104 118.185Z" fill="black"/>
<path d="M160.604 127.34C160.604 144.195 156.014 158.715 150.354 160.02C144.694 161.325 140.104 145.255 140.104 123.82C140.104 102.385 144.694 88.0652 150.354 91.4002C156.014 94.7352 160.604 110.485 160.604 127.34Z" fill="black"/>
<path fill-rule="evenodd" clip-rule="evenodd" d="M112.104 118.185C112.104 144.975 107.514 167.96 101.854 169.375C96.1935 170.79 91.6035 146.075 91.6035 114.525C91.6035 82.9752 96.1935 59.6952 101.854 63.1052C107.514 66.5152 112.104 91.4002 112.104 118.185ZM160.604 127.34C160.604 144.195 156.014 158.715 150.354 160.02C144.694 161.325 140.104 145.255 140.104 123.82C140.104 102.385 144.694 88.0652 150.354 91.4002C156.014 94.7352 160.604 110.485 160.604 127.34Z" fill="black"/>
<path d="M112.104 118.185C112.104 144.975 107.514 167.96 101.854 169.375C96.1935 170.79 91.6035 146.075 91.6035 114.525C91.6035 82.9752 96.1935 59.6952 101.854 63.1052C107.514 66.5152 112.104 91.4002 112.104 118.185Z" stroke="black" stroke-width="2" stroke-miterlimit="10" stroke-linejoin="round"/>
<path d="M160.604 127.34C160.604 144.195 156.014 158.715 150.354 160.02C144.694 161.325 140.104 145.255 140.104 123.82C140.104 102.385 144.694 88.0652 150.354 91.4002C156.014 94.7352 160.604 110.485 160.604 127.34Z" stroke="black" stroke-width="2" stroke-miterlimit="10" stroke-linejoin="round"/>
<path fill-rule="evenodd" clip-rule="evenodd" d="M112.104 118.185C112.104 144.975 107.514 167.96 101.854 169.375C96.1935 170.79 91.6035 146.075 91.6035 114.525C91.6035 82.9752 96.1935 59.6952 101.854 63.1052C107.514 66.5152 112.104 91.4002 112.104 118.185ZM160.604 127.34C160.604 144.195 156.014 158.715 150.354 160.02C144.694 161.325 140.104 145.255 140.104 123.82C140.104 102.385 144.694 88.0652 150.354 91.4002C156.014 94.7352 160.604 110.485 160.604 127.34Z" stroke="black" stroke-width="2" stroke-miterlimit="10" stroke-linejoin="round"/>
</svg>
