<svg width="251" height="250" viewBox="0 0 251 250" fill="none" xmlns="http://www.w3.org/2000/svg">
<path d="M125.134 14.4946C134.634 7.42965 143.704 3.82965 153.259 8.06465C162.759 11.8496 172.759 23.4746 183.099 36.6446C193.439 49.8146 204.034 64.6146 213.929 75.5396C223.779 86.9696 232.874 94.5396 239.134 105.225C245.394 115.475 248.109 129.635 246.424 149.15C244.779 168.15 238.724 192.515 228.389 211.29C218.094 230.18 203.519 243.5 185.754 243.29C168.034 243.82 147.134 230.82 125.134 214.59C103.134 198.255 82.2337 182.09 64.5136 175.715C46.7486 168.56 32.1737 171.16 21.8787 174.585C11.5437 177.925 5.48865 182.11 3.84365 176.35C2.15865 171.2 4.87365 156.1 11.1337 134.95C17.3937 114.23 26.4887 91.2596 36.3387 75.9496C46.2337 60.0546 56.8737 51.8396 67.1687 46.7846C77.5037 41.6497 87.4937 39.6796 97.0087 34.4596C106.564 29.6996 115.634 21.6596 125.134 14.4946Z" fill="#F9F9F9" stroke="black" stroke-width="2" stroke-linejoin="round"/>
<path d="M207.813 160.489C204.573 176.599 195.103 192.769 180.523 197.064C166.023 202.064 146.443 195.159 125.133 181.239C103.823 167.239 84.2281 154.489 69.7431 147.739C55.1631 140.309 45.6931 138.854 42.4531 131.879M216.063 157.754C215.106 158.968 213.815 159.874 212.349 160.362C210.883 160.85 209.306 160.898 207.813 160.499C204.608 159.654 202.398 157.079 201.963 154.464M34.2031 136.684C35.9931 136.254 39.2481 134.284 42.4531 131.869C45.6581 129.454 47.8681 127.109 48.3031 125.484" stroke="black" stroke-width="2" stroke-linejoin="round"/>
<path d="M107.158 58.9312C111.343 58.0962 114.003 73.3462 113.103 93.1762C112.203 113.006 106.398 126.946 100.133 124.786C93.868 122.626 91.213 107.786 94.188 90.8312C97.163 73.8762 102.973 59.7012 107.158 58.9312Z" fill="black" stroke="black" stroke-width="2" stroke-linejoin="round"/>
<path d="M144.413 52.8855C148.598 52.0105 154.608 73.2005 157.843 100.001C161.078 126.801 158.618 147.076 152.343 144.716C146.068 142.356 140.073 120.946 138.918 97.3705C137.763 73.7955 140.228 53.8105 144.413 52.8855Z" fill="black" stroke="black" stroke-width="2" stroke-linejoin="round"/>
</svg>
