<svg width="297" height="290" viewBox="0 0 297 290" fill="none" xmlns="http://www.w3.org/2000/svg">
<path d="M141.11 1.9209C207.483 -5.64878 205.974 91.0552 267.41 117.291C301.06 131.661 312.045 179.909 255.81 191.661C219.157 199.321 219.746 209.52 201.705 246.096C185.835 278.316 159.39 297.001 123.205 284.516C81.9919 270.337 14.4111 220.119 2.89468 175.046C-3.96032 148.211 19.1044 122.75 59.604 102C108.874 76.7566 83.7959 8.45737 141.11 1.9209Z" fill="#F9F9F9" stroke="black" stroke-width="2" stroke-linejoin="round"/>
<path d="M252.18 163.571C249.075 169.736 236.485 164.841 231.38 164.446C212.03 162.946 199.575 177.501 189.35 191.561C168.35 220.421 137.005 241.316 100.575 225.836C75.8051 215.311 54.9001 191.546 53.3951 163.926M252.18 163.571C255.715 164.986 259.005 165.616 260.68 165.171M252.18 163.571C248.645 162.151 245.8 160.501 244.68 159.526M53.3951 163.926C48.8301 164.861 44.4951 163.241 42.4951 160.106M53.3951 163.926C55.5931 163.459 57.6344 162.435 59.3232 160.953C61.0121 159.471 62.2919 157.58 63.0401 155.461" stroke="black" stroke-width="2" stroke-linejoin="round"/>
<path d="M166.123 76.9609C161.874 76.5703 160.831 92.0154 163.809 111.641C166.788 131.267 174.026 144.52 180.029 141.713C186.032 138.907 187.113 123.87 182.373 107.322C177.633 90.773 170.366 77.2869 166.123 76.9609Z" fill="black" stroke="black" stroke-width="2" stroke-linejoin="round"/>
<path d="M128.441 74.8638C124.187 74.4333 120.437 96.1375 120.035 123.129C119.634 150.121 124.211 170.025 130.203 167.019C136.196 164.012 139.908 142.091 138.579 118.525C137.251 94.9593 132.7 75.3439 128.441 74.8638Z" fill="black" stroke="black" stroke-width="2" stroke-linejoin="round"/>
</svg>
