<svg width="253" height="253" viewBox="0 0 253 253" fill="none" xmlns="http://www.w3.org/2000/svg">
<path d="M22.0326 230.582C47.4346 255.984 88.6193 255.984 114.021 230.582C125.203 219.401 131.462 205.161 132.8 190.555C134.501 171.981 128.242 152.814 114.021 138.593C99.8008 124.373 80.6342 118.113 62.0593 119.815C47.4537 121.152 33.2141 127.412 22.0325 138.593C-3.36946 163.995 -3.36944 205.18 22.0326 230.582Z" fill="#F9F9F9"/>
<path d="M172.827 79.7879C158.705 65.6659 139.705 59.3949 121.251 60.9749C106.51 62.2369 92.1181 68.5079 80.8381 79.7879C69.6565 90.9694 63.3969 105.209 62.0593 119.815C80.6342 118.113 99.8008 124.373 114.021 138.593C128.242 152.814 134.501 171.981 132.8 190.555C147.406 189.218 161.645 182.958 172.827 171.777C184.107 160.497 190.378 146.104 191.64 131.364C193.22 112.91 186.949 93.9099 172.827 79.7879Z" fill="#F9F9F9"/>
<path d="M232.052 20.5623C206.65 -4.8397 165.466 -4.83972 140.064 20.5623C128.784 31.8423 122.513 46.2345 121.251 60.9749C139.705 59.3949 158.705 65.6659 172.827 79.7879C186.949 93.9099 193.22 112.91 191.64 131.364C206.38 130.102 220.772 123.831 232.052 112.551C257.319 87.2847 257.454 46.4035 232.457 20.9704C232.323 20.8339 232.188 20.6979 232.052 20.5623Z" fill="#F9F9F9"/>
<path d="M121.251 60.9749C139.705 59.3949 158.705 65.6659 172.827 79.7879C186.949 93.9099 193.22 112.91 191.64 131.364M121.251 60.9749C122.513 46.2345 128.784 31.8423 140.064 20.5623C165.466 -4.83972 206.65 -4.8397 232.052 20.5623C232.188 20.6979 232.323 20.8339 232.457 20.9704M121.251 60.9749C106.51 62.2369 92.1181 68.5079 80.8381 79.7879C69.6565 90.9694 63.3969 105.209 62.0593 119.815M191.64 131.364C206.38 130.102 220.772 123.831 232.052 112.551C257.319 87.2847 257.454 46.4035 232.457 20.9704M191.64 131.364C190.378 146.104 184.107 160.497 172.827 171.777C161.645 182.958 147.406 189.218 132.8 190.555M62.0593 119.815C80.6342 118.113 99.8008 124.373 114.021 138.593C128.242 152.814 134.501 171.981 132.8 190.555M62.0593 119.815C47.4537 121.152 33.2141 127.412 22.0325 138.593C-3.36946 163.995 -3.36944 205.18 22.0326 230.582C47.4346 255.984 88.6193 255.984 114.021 230.582C125.203 219.401 131.462 205.161 132.8 190.555M68.0269 184.588L1.10912 251.506M251.831 1.59616L232.457 20.9704" stroke="black" stroke-width="2" stroke-linejoin="round"/>
<path d="M172.827 79.7877C158.705 65.6657 139.705 59.3947 121.25 60.9746C106.51 62.2366 92.1178 68.5076 80.8378 79.7876C69.6563 90.9692 63.3967 105.209 62.059 119.814C80.6339 118.113 99.8006 124.373 114.021 138.593C128.241 152.814 134.501 171.98 132.8 190.555C147.405 189.218 161.645 182.958 172.827 171.776C184.107 160.496 190.378 146.104 191.64 131.364C193.22 112.91 186.949 93.9097 172.827 79.7877Z" fill="#F9F9F9" stroke="black" stroke-width="2" stroke-linejoin="round"/>
</svg>
