<svg width="253" height="250" viewBox="0 0 253 250" fill="none" xmlns="http://www.w3.org/2000/svg">
<path d="M101.588 172.979C83.627 172.778 38.6135 189.029 35.9644 214.759C33.6434 237.303 55.0729 253.252 72.6896 240.609C91.9557 226.782 103.696 216.262 126.273 217.765C136.95 218.476 149.497 220.408 163.3 218.682C178.683 216.757 195.625 210.288 213.27 192.516C225.336 180.363 232.183 169.051 235.202 157.649C240.845 136.337 231.976 115.174 221.097 86.7115C202.512 38.0866 155.041 37.9444 139.548 55.581C132.118 51.6328 118.928 48.3277 109.114 50.3412C91.5343 53.9483 85.6341 64.7387 82.3228 69.3825C73.2703 60.229 65.4652 50.9425 57.9395 29C47.2179 -2.26047 7.68135 -5.04324 1.65977 29C-2.55449 52.8255 17.3487 87.29 55.531 120.677C87.7547 148.854 98.6784 162.558 101.588 172.979Z" fill="#F9F9F9"/>
<path d="M213.27 192.516C195.625 210.288 178.683 216.757 163.3 218.682C165.005 227.288 175.987 243.858 202.132 231.592C227.118 219.869 245.48 196.724 249.093 185.603C252.705 174.481 253.22 159.152 235.202 157.649C232.183 169.051 225.336 180.363 213.27 192.516Z" fill="#F9F9F9"/>
<path d="M126.273 99.9371C113.674 97.2414 97.2694 84.4958 82.3228 69.3825M82.3228 69.3825C73.2703 60.229 65.4652 50.9425 57.9395 29C47.2179 -2.26047 7.68135 -5.04324 1.65977 29C-2.55449 52.8255 17.3487 87.29 55.531 120.677C87.7547 148.854 98.6784 162.558 101.588 172.979C83.627 172.778 38.6135 189.029 35.9644 214.759C33.6434 237.303 55.0729 253.252 72.6896 240.609C91.9557 226.782 103.696 216.262 126.273 217.765C136.95 218.476 149.497 220.408 163.3 218.682M82.3228 69.3825C85.6341 64.7387 91.5343 53.9483 109.114 50.3412C118.928 48.3277 132.118 51.6328 139.548 55.581M174.137 72.5842C162.396 70.7808 149.151 60.6832 139.548 55.581M139.548 55.581C155.041 37.9444 202.512 38.0866 221.097 86.7115C231.976 115.174 240.845 136.337 235.202 157.649M163.3 218.682C178.683 216.757 195.625 210.288 213.27 192.516C225.336 180.363 232.183 169.051 235.202 157.649M163.3 218.682C165.005 227.288 175.987 243.858 202.132 231.592C227.118 219.869 245.48 196.724 249.093 185.603C252.705 174.481 253.22 159.152 235.202 157.649M163.3 160.955C168.016 164.562 179.615 174.782 188.285 186.805M202.132 123.382C209.73 136.558 214.02 143.941 218.388 157.649M174.137 128.492C187.521 144.435 194.812 153.614 205.143 172.979" stroke="black" stroke-width="2" stroke-linejoin="round"/>
</svg>
