<svg width="253" height="250" viewBox="0 0 253 250" fill="none" xmlns="http://www.w3.org/2000/svg">
<path d="M104.56 153.317C82.7592 160.364 82.2494 155.342 49.2091 149.26C1.74127 140.521 -0.398852 202.854 43.1235 206.349C63.4729 207.983 87.0491 202.963 121.355 216.556C133.923 221.536 144.867 224.932 159.298 223.127C175.383 221.115 193.097 214.351 211.546 195.769C224.162 183.063 231.321 171.234 234.477 159.313C240.378 137.03 239.436 98.7059 228.157 68.9096C210.404 22.0092 178.346 13.3309 160.091 26.9399C154.117 22.5665 144.444 16.3181 132.198 14.8144C115.961 12.8207 95.9582 22.0845 92.4959 26.9399C83.1748 23.4039 44.8011 6.52591 27.8716 9.30818C-5.43231 14.7815 -6.53033 48.391 18.3132 61.4709C51.8372 79.121 67.9715 72.3816 95.2764 93.3857C122.944 114.669 119.547 148.472 104.56 153.317Z" fill="#F9F9F9"/>
<path d="M211.546 195.769C193.097 214.351 175.383 221.115 159.298 223.127C161.081 232.126 172.564 249.451 199.9 236.625C226.024 224.369 245.224 200.169 249.001 188.541C252.778 176.912 253.317 160.884 234.477 159.313C231.321 171.234 224.162 183.063 211.546 195.769Z" fill="#F9F9F9"/>
<path d="M154.157 78.9975C143.574 57.4146 122.104 38.1716 92.496 26.9399M92.496 26.9399C95.9582 22.0845 115.961 12.8207 132.198 14.8144C144.444 16.3181 154.117 22.5665 160.091 26.9399M92.496 26.9399C83.1748 23.4039 44.8011 6.52591 27.8716 9.30818C-5.43231 14.7815 -6.53033 48.391 18.3132 61.4709C51.8372 79.121 67.9715 72.3816 95.2764 93.3857C122.944 114.669 119.547 148.472 104.56 153.317C82.7592 160.364 82.2494 155.342 49.2091 149.26C1.74127 140.521 -0.398852 202.854 43.1235 206.349C63.4729 207.983 87.0491 202.963 121.355 216.556C133.923 221.536 144.867 224.932 159.298 223.127M195.797 65.3778C188.485 50.0916 170.665 34.6801 160.091 26.9399M160.091 26.9399C178.346 13.3309 210.404 22.0092 228.157 68.9096C239.436 98.7059 240.378 137.03 234.477 159.313M159.298 223.127C175.383 221.115 193.097 214.351 211.546 195.769C224.162 183.063 231.321 171.234 234.477 159.313M159.298 223.127C161.081 232.126 172.564 249.451 199.9 236.625C226.024 224.369 245.224 200.169 249.001 188.541C252.778 176.912 253.317 160.884 234.477 159.313M183.48 133.281C188.411 137.052 198.716 158.186 201.263 174.563M211.817 94.8533C219.76 108.63 222.774 123.65 225.276 139.736M196.977 111.532C207.966 124.78 212.078 141.789 215.269 162.3" stroke="black" stroke-width="2" stroke-linejoin="round"/>
</svg>
