<svg width="253" height="252" viewBox="0 0 253 252" fill="none" xmlns="http://www.w3.org/2000/svg">
<path d="M92.4227 111.645C97.5952 119.787 105.039 128.996 114.074 138.03C123.108 147.064 132.317 154.508 140.459 159.681M92.4227 111.645C85.0956 100.111 82.3266 90.7172 86.0524 86.9914L105.067 67.977C107.926 65.1181 114.122 66.0832 122.061 69.9973M92.4227 111.645L33.0124 171.055C27.447 176.62 24.2166 183.636 23.3212 190.886C22.4434 197.994 20.8139 205.27 15.7497 210.334L6.49236 219.592C-0.692774 226.777 -0.692759 238.426 6.49237 245.611C13.6775 252.796 25.3269 252.796 32.512 245.611L41.7694 236.354C46.8336 231.29 54.1096 229.66 61.2175 228.782C68.4671 227.887 75.4833 224.657 81.0487 219.091L140.459 159.681M140.459 159.681C151.993 167.008 161.386 169.777 165.112 166.051L184.127 147.037C186.985 144.178 186.02 137.982 182.106 130.043M182.106 130.043L238.668 73.4812C255.249 56.9001 255.249 30.0169 238.668 13.4358C222.087 -3.14527 195.203 -3.14527 178.622 13.4358L122.061 69.9973M182.106 130.043C177.132 135.017 159.934 125.884 143.077 109.027C126.219 92.1693 117.087 74.9716 122.061 69.9973" stroke="black" stroke-width="2" stroke-linejoin="round"/>
<path d="M238.668 13.4358C222.087 -3.14527 195.203 -3.14527 178.622 13.4358L122.061 69.9973C117.086 74.9716 126.219 92.1693 143.077 109.027C159.934 125.884 177.132 135.017 182.106 130.043L238.668 73.4812C255.249 56.9001 255.249 30.0169 238.668 13.4358Z" fill="#F9F9F9"/>
<path d="M92.4226 111.645C97.5951 119.787 105.039 128.996 114.074 138.03C123.108 147.064 132.317 154.508 140.459 159.681C151.993 167.008 161.386 169.777 165.112 166.051L184.126 147.037C186.985 144.178 186.02 137.982 182.106 130.043C177.132 135.017 159.934 125.884 143.077 109.027C126.219 92.1693 117.086 74.9716 122.061 69.9973C114.122 66.0832 107.926 65.1181 105.067 67.977L86.0523 86.9914C82.3265 90.7172 85.0955 100.111 92.4226 111.645Z" fill="#F9F9F9"/>
<path d="M182.106 130.043C186.02 137.982 186.985 144.178 184.126 147.037L165.112 166.051C161.386 169.777 151.993 167.008 140.459 159.681C132.317 154.508 123.108 147.064 114.074 138.03C105.039 128.996 97.5951 119.787 92.4226 111.645C85.0955 100.111 82.3265 90.7172 86.0523 86.9914L105.067 67.977C107.926 65.1181 114.122 66.0832 122.061 69.9973M182.106 130.043L238.668 73.4812C255.249 56.9001 255.249 30.0169 238.668 13.4358C222.087 -3.14527 195.203 -3.14527 178.622 13.4358L122.061 69.9973M182.106 130.043C177.132 135.017 159.934 125.884 143.077 109.027C126.219 92.1693 117.086 74.9716 122.061 69.9973" stroke="black" stroke-width="2" stroke-linejoin="round"/>
<path d="M121.209 177.098C121.07 178.28 120.608 179.515 119.626 180.514C119.605 180.535 119.583 180.557 119.561 180.578C114.186 185.865 97.3834 188.121 78.1678 185.861C55.2825 183.168 37.4485 174.881 38.3345 167.349C38.4709 166.189 39.0133 165.077 39.9679 164.099C40.0139 164.052 40.0608 164.005 40.1085 163.958C45.5067 158.686 62.1852 156.33 81.3762 158.587C104.261 161.279 122.095 169.567 121.209 177.098Z" fill="#F9F9F9"/>
<path fill-rule="evenodd" clip-rule="evenodd" d="M32.512 245.611C25.3269 252.796 13.6775 252.796 6.49237 245.611C-0.69276 238.426 -0.692772 226.776 6.49236 219.591L15.7497 210.334C20.8139 205.27 22.4434 197.994 23.3212 190.886C24.2166 183.636 27.447 176.62 33.0124 171.055L39.9679 164.099L40.1085 163.958C45.5067 158.686 62.1852 156.33 81.3762 158.587C104.261 161.279 122.095 169.567 121.209 177.098C121.07 178.28 120.608 179.515 119.626 180.514L119.561 180.578L81.0487 219.091C75.4833 224.656 68.4671 227.887 61.2175 228.782C54.1097 229.66 46.8336 231.289 41.7694 236.353L32.512 245.611Z" fill="#F9F9F9"/>
<path d="M119.561 180.578L81.0487 219.091C75.4833 224.656 68.4671 227.887 61.2175 228.782C54.1097 229.66 46.8336 231.289 41.7694 236.353L32.512 245.611C25.3269 252.796 13.6775 252.796 6.49237 245.611C-0.69276 238.426 -0.692772 226.776 6.49236 219.591L15.7497 210.334C20.8139 205.27 22.4434 197.994 23.3212 190.886C24.2166 183.636 27.447 176.62 33.0124 171.055L39.9679 164.099M119.561 180.578C114.186 185.865 97.3835 188.121 78.1678 185.861C55.2825 183.168 37.4485 174.881 38.3345 167.349C38.4709 166.189 39.0133 165.077 39.9679 164.099M119.561 180.578L119.626 180.514M119.561 180.578C119.583 180.557 119.605 180.535 119.626 180.514M39.9679 164.099L40.1085 163.958M39.9679 164.099C40.0139 164.052 40.0608 164.005 40.1085 163.958M40.1085 163.958C45.5067 158.686 62.1852 156.33 81.3762 158.587C104.261 161.279 122.095 169.567 121.209 177.098C121.07 178.28 120.608 179.515 119.626 180.514" stroke="black" stroke-width="2" stroke-linejoin="round"/>
</svg>
