<svg width="251" height="250" viewBox="0 0 251 250" fill="none" xmlns="http://www.w3.org/2000/svg">
<path d="M5.2457 203.364C-4.89636 189.422 5.0803 165.915 27.5292 150.858C49.9781 135.801 76.3983 134.897 86.5403 148.838M5.2457 203.364C15.3878 217.305 41.8079 216.4 64.2568 201.344C86.7057 186.287 96.6824 162.779 86.5403 148.838M5.2457 203.364L16.5814 218.945C18.0841 221.011 19.9442 222.751 22.0958 224.167M86.5403 148.838L97.876 164.42C99.3787 166.486 100.44 168.761 101.084 171.188M22.0421 224.093C22.0599 224.118 22.0779 224.142 22.0958 224.167M101.03 171.115C101.048 171.139 101.066 171.164 101.084 171.188M101.084 171.188C104.788 185.142 94.7152 204.1 75.5925 216.925C56.4698 229.751 34.4655 232.308 22.0958 224.167M101.084 171.188C101.111 171.226 101.139 171.264 101.166 171.302M22.0958 224.167C31.5063 237.052 46.2995 244.12 61.3433 244.447M203.468 5.14146C189.527 -5.00061 166.019 4.97605 150.962 27.4249C135.906 49.8738 135.001 76.294 148.942 86.4361M203.468 5.14146C217.409 15.2835 216.505 41.7037 201.448 64.1526C186.391 86.6015 162.883 96.5782 148.942 86.4361M203.468 5.14146L219.05 16.4771C221.115 17.9799 222.855 19.84 224.271 21.9915M148.942 86.4361L164.524 97.7718C166.59 99.2745 168.865 100.336 171.293 100.98M224.197 21.9378C224.222 21.9557 224.247 21.9736 224.271 21.9915M171.219 100.926C171.243 100.944 171.268 100.962 171.293 100.98M171.293 100.98C185.246 104.684 204.204 94.611 217.03 75.4883C229.856 56.3656 232.412 34.3612 224.271 21.9915M171.293 100.98C171.311 100.994 171.33 101.007 171.349 101.021M224.271 21.9915C237.266 31.4824 244.344 46.448 244.558 61.6241M199.996 109.889C198.211 125.348 188.505 149.517 169.02 169.002C149.563 188.458 125.436 198.165 109.99 199.987M199.996 109.889C190.167 110.214 180.106 107.347 171.349 101.021M199.996 109.889C214.11 109.423 227.745 102.376 236.351 89.5446C242.041 81.0619 244.695 71.3002 244.558 61.6241M109.99 199.987C110.336 190.149 107.484 180.073 101.166 171.302M109.99 199.987C109.495 214.067 102.452 227.66 89.6488 236.247C81.0536 242.012 71.1453 244.66 61.3433 244.447M101.166 171.302C116.049 167.879 131.906 159.049 145.486 145.468C159.106 131.849 167.948 115.941 171.349 101.021M244.558 61.6241C254.655 94.5 233.746 146.86 190.312 190.294C146.747 233.86 94.2001 254.764 61.3433 244.447M19.6596 193.696C14.0251 185.951 21.2026 171.795 35.6909 162.077C50.1792 152.36 66.4919 150.761 72.1264 158.506C77.7609 166.251 70.5834 180.407 56.0951 190.125C41.6068 199.842 25.2941 201.441 19.6596 193.696ZM193.8 19.5554C186.055 13.9209 171.899 21.0984 162.181 35.5866C152.464 50.0749 150.865 66.3877 158.61 72.0222C166.355 77.6566 180.511 70.4792 190.229 55.9909C199.946 41.5026 201.545 25.1899 193.8 19.5554Z" stroke="black" stroke-width="2" stroke-linejoin="round"/>
<path d="M35.6877 162.077C21.1994 171.794 14.0219 185.95 19.6564 193.695C25.2909 201.441 41.6037 199.842 56.0919 190.124C70.5802 180.407 77.7577 166.25 72.1232 158.505C66.4887 150.76 50.176 152.359 35.6877 162.077Z" fill="#F9F9F9"/>
<path fill-rule="evenodd" clip-rule="evenodd" d="M203.465 5.141C189.523 -5.00107 166.016 4.97559 150.959 27.4245C135.902 49.8734 134.998 76.2936 148.939 86.4356C162.88 96.5777 186.388 86.601 201.445 64.1521C216.501 41.7033 217.406 15.2831 203.465 5.141ZM162.178 35.5862C171.896 21.0979 186.052 13.9205 193.797 19.5549C201.542 25.1894 199.943 41.5022 190.226 55.9905C180.508 70.4787 166.352 77.6562 158.607 72.0217C150.862 66.3872 152.461 50.0745 162.178 35.5862Z" fill="#F9F9F9"/>
<path fill-rule="evenodd" clip-rule="evenodd" d="M19.6564 193.695C14.0219 185.95 21.1994 171.794 35.6877 162.077C50.176 152.359 66.4887 150.76 72.1232 158.505C77.7577 166.25 70.5802 180.407 56.0919 190.124C41.6037 199.842 25.2909 201.441 19.6564 193.695Z" fill="#F9F9F9"/>
<path fill-rule="evenodd" clip-rule="evenodd" d="M27.526 150.858C5.0771 165.914 -4.89955 189.422 5.2425 203.363C15.3846 217.304 41.8047 216.4 64.2536 201.343C86.7025 186.286 96.6792 162.779 86.5371 148.838C76.3951 134.896 49.9749 135.801 27.526 150.858ZM35.6877 162.077C21.1994 171.794 14.0219 185.95 19.6564 193.695C25.2909 201.441 41.6037 199.842 56.0919 190.124C70.5802 180.407 77.7577 166.25 72.1232 158.505C66.4887 150.76 50.176 152.359 35.6877 162.077Z" fill="#F9F9F9"/>
<path d="M35.6877 162.077C21.1994 171.794 14.0219 185.95 19.6564 193.695C25.2909 201.441 41.6037 199.842 56.0919 190.124C70.5802 180.407 77.7577 166.25 72.1232 158.505C66.4887 150.76 50.176 152.359 35.6877 162.077Z" stroke="black" stroke-width="2" stroke-linejoin="round"/>
<path fill-rule="evenodd" clip-rule="evenodd" d="M203.465 5.141C189.523 -5.00107 166.016 4.97559 150.959 27.4245C135.902 49.8734 134.998 76.2936 148.939 86.4356C162.88 96.5777 186.388 86.601 201.445 64.1521C216.501 41.7033 217.406 15.2831 203.465 5.141ZM162.178 35.5862C171.896 21.0979 186.052 13.9205 193.797 19.5549C201.542 25.1894 199.943 41.5022 190.226 55.9905C180.508 70.4787 166.352 77.6562 158.607 72.0217C150.862 66.3872 152.461 50.0745 162.178 35.5862Z" stroke="black" stroke-width="2" stroke-linejoin="round"/>
<path fill-rule="evenodd" clip-rule="evenodd" d="M19.6564 193.695C14.0219 185.95 21.1994 171.794 35.6877 162.077C50.176 152.359 66.4887 150.76 72.1232 158.505C77.7577 166.25 70.5802 180.407 56.0919 190.124C41.6037 199.842 25.2909 201.441 19.6564 193.695Z" stroke="black" stroke-width="2" stroke-linejoin="round"/>
<path fill-rule="evenodd" clip-rule="evenodd" d="M27.526 150.858C5.0771 165.914 -4.89955 189.422 5.2425 203.363C15.3846 217.304 41.8047 216.4 64.2536 201.343C86.7025 186.286 96.6792 162.779 86.5371 148.838C76.3951 134.896 49.9749 135.801 27.526 150.858ZM35.6877 162.077C21.1994 171.794 14.0219 185.95 19.6564 193.695C25.2909 201.441 41.6037 199.842 56.0919 190.124C70.5802 180.407 77.7577 166.25 72.1232 158.505C66.4887 150.76 50.176 152.359 35.6877 162.077Z" stroke="black" stroke-width="2" stroke-linejoin="round"/>
<path d="M193.802 19.5552C186.057 13.9207 171.901 21.0982 162.183 35.5865C152.466 50.0747 150.867 66.3875 158.612 72.022C166.357 77.6564 180.513 70.479 190.231 55.9907C199.948 41.5024 201.547 25.1897 193.802 19.5552Z" fill="#F9F9F9"/>
<path d="M19.6618 193.696C14.0273 185.951 21.2048 171.794 35.6931 162.077C50.1813 152.359 66.4941 150.76 72.1286 158.505C77.763 166.251 70.5856 180.407 56.0973 190.124C41.609 199.842 25.2963 201.441 19.6618 193.696Z" fill="#F9F9F9"/>
<path d="M193.802 19.5552C186.057 13.9207 171.901 21.0982 162.183 35.5865C152.466 50.0747 150.867 66.3875 158.612 72.022C166.357 77.6564 180.513 70.479 190.231 55.9907C199.948 41.5024 201.547 25.1897 193.802 19.5552Z" stroke="black" stroke-width="2" stroke-linejoin="round"/>
<path d="M19.6618 193.696C14.0273 185.951 21.2048 171.794 35.6931 162.077C50.1813 152.359 66.4941 150.76 72.1286 158.505C77.763 166.251 70.5856 180.407 56.0973 190.124C41.609 199.842 25.2963 201.441 19.6618 193.696Z" stroke="black" stroke-width="2" stroke-linejoin="round"/>
<path d="M86.5421 148.839C96.6842 162.78 86.7075 186.287 64.2586 201.344C41.8097 216.401 15.3895 217.305 5.24746 203.364L16.5832 218.946C18.0859 221.012 19.946 222.752 22.0975 224.168C34.4673 232.309 56.4716 229.752 75.5943 216.926C94.717 204.1 104.79 185.142 101.086 171.189C100.442 168.762 99.3805 166.486 97.8778 164.421L86.5421 148.839Z" fill="#F9F9F9"/>
<path d="M148.944 86.4368C162.885 96.5789 186.393 86.6023 201.45 64.1534C216.506 41.7045 217.411 15.2843 203.47 5.14221L219.051 16.4779C221.117 17.9806 222.857 19.8407 224.273 21.9923C232.414 34.362 229.857 56.3664 217.031 75.4891C204.206 94.6118 185.248 104.684 171.294 100.981C168.867 100.336 166.592 99.2753 164.526 97.7725L148.944 86.4368Z" fill="#F9F9F9"/>
<path d="M86.5421 148.839C96.6842 162.78 86.7075 186.287 64.2586 201.344C41.8097 216.401 15.3895 217.305 5.24746 203.364L16.5832 218.946C18.0859 221.012 19.946 222.752 22.0975 224.168C34.4673 232.309 56.4716 229.752 75.5943 216.926C94.717 204.1 104.79 185.142 101.086 171.189C100.442 168.762 99.3805 166.486 97.8778 164.421L86.5421 148.839Z" stroke="black" stroke-width="2" stroke-linejoin="round"/>
<path d="M148.944 86.4368C162.885 96.5789 186.393 86.6023 201.45 64.1534C216.506 41.7045 217.411 15.2843 203.47 5.14221L219.051 16.4779C221.117 17.9806 222.857 19.8407 224.273 21.9923C232.414 34.362 229.857 56.3664 217.031 75.4891C204.206 94.6118 185.248 104.684 171.294 100.981C168.867 100.336 166.592 99.2753 164.526 97.7725L148.944 86.4368Z" stroke="black" stroke-width="2" stroke-linejoin="round"/>
<path d="M101.084 171.188C104.788 185.141 94.715 204.099 75.5923 216.925C56.4696 229.751 34.4652 232.308 22.0955 224.167C31.5061 237.052 46.2993 244.119 61.3431 244.447C71.145 244.66 81.0534 242.012 89.6486 236.247C102.451 227.66 109.495 214.066 109.99 199.986C110.335 190.149 107.484 180.073 101.166 171.302C101.139 171.264 101.111 171.226 101.084 171.188Z" fill="#F9F9F9"/>
<path d="M171.292 100.98C185.246 104.683 204.204 94.6108 217.029 75.4881C229.855 56.3654 232.412 34.361 224.271 21.9913C237.266 31.4821 244.344 46.4478 244.558 61.6239C244.694 71.3 242.04 81.0617 236.351 89.5443C227.745 102.376 214.11 109.422 199.996 109.889C190.167 110.214 180.106 107.347 171.349 101.021C171.33 101.007 171.311 100.993 171.292 100.98Z" fill="#F9F9F9"/>
<path d="M101.084 171.188C104.788 185.141 94.715 204.099 75.5923 216.925C56.4696 229.751 34.4652 232.308 22.0955 224.167C31.5061 237.052 46.2993 244.119 61.3431 244.447C71.145 244.66 81.0534 242.012 89.6486 236.247C102.451 227.66 109.495 214.066 109.99 199.986C110.335 190.149 107.484 180.073 101.166 171.302C101.139 171.264 101.111 171.226 101.084 171.188Z" stroke="black" stroke-width="2" stroke-linejoin="round"/>
<path d="M171.292 100.98C185.246 104.683 204.204 94.6108 217.029 75.4881C229.855 56.3654 232.412 34.361 224.271 21.9913C237.266 31.4821 244.344 46.4478 244.558 61.6239C244.694 71.3 242.04 81.0617 236.351 89.5443C227.745 102.376 214.11 109.422 199.996 109.889C190.167 110.214 180.106 107.347 171.349 101.021C171.33 101.007 171.311 100.993 171.292 100.98Z" stroke="black" stroke-width="2" stroke-linejoin="round"/>
<path d="M169.018 169.001C188.503 149.517 198.209 125.348 199.994 109.888C190.165 110.213 180.104 107.347 171.347 101.02C167.946 115.94 159.104 131.848 145.484 145.468C131.904 159.048 116.047 167.879 101.164 171.301C107.482 180.073 110.334 190.148 109.988 199.986C125.434 198.165 149.561 188.458 169.018 169.001Z" fill="#F9F9F9" stroke="black" stroke-width="2" stroke-linejoin="round"/>
<path d="M199.995 109.889C198.21 125.348 188.503 149.517 169.018 169.001C149.562 188.458 125.434 198.165 109.988 199.986C109.494 214.066 102.45 227.66 89.6471 236.247C81.0519 242.012 71.1436 244.66 61.3416 244.447C94.1984 254.763 146.745 233.86 190.311 190.294C233.744 146.86 254.653 94.4998 244.556 61.6238C244.693 71.3 242.039 81.0616 236.35 89.5443C227.743 102.376 214.108 109.422 199.995 109.889Z" fill="#F9F9F9" stroke="black" stroke-width="2" stroke-linejoin="round"/>
<ellipse rx="1.99214" ry="1.10587" transform="matrix(-0.830496 0.557025 -0.588287 -0.808652 47.4821 180.146)" fill="black"/>
<ellipse rx="1.99214" ry="1.10587" transform="matrix(-0.830496 0.557025 -0.588287 -0.808652 45.0426 176.794)" fill="black"/>
<ellipse rx="1.99214" ry="1.10587" transform="matrix(-0.830496 0.557025 -0.588287 -0.808652 42.6022 173.439)" fill="black"/>
<ellipse rx="1.3818" ry="1.81169" transform="matrix(-1.0064 -0.158937 0.611322 -0.777252 40.8868 182.072)" fill="black"/>
<ellipse rx="1.3818" ry="1.81169" transform="matrix(-1.0064 -0.158937 0.611322 -0.777252 49.1974 171.513)" fill="black"/>
<ellipse rx="1.3818" ry="1.81169" transform="matrix(0.190928 -0.962001 0.970418 -0.283643 38.4477 178.72)" fill="black"/>
<ellipse rx="1.3818" ry="1.81169" transform="matrix(0.190928 -0.962001 0.970418 -0.283643 51.6342 174.866)" fill="black"/>
<ellipse rx="2.13013" ry="1.18247" transform="matrix(0.557025 -0.830496 -0.808652 -0.588287 179.984 48.0429)" fill="black"/>
<ellipse rx="2.13013" ry="1.18247" transform="matrix(0.557025 -0.830496 -0.808652 -0.588287 176.394 45.4335)" fill="black"/>
<ellipse rx="2.13013" ry="1.18247" transform="matrix(0.557025 -0.830496 -0.808652 -0.588287 172.808 42.826)" fill="black"/>
<ellipse rx="1.47751" ry="1.93718" transform="matrix(-0.158937 -1.0064 -0.777252 0.611322 182.042 40.9939)" fill="black"/>
<ellipse rx="1.47751" ry="1.93718" transform="matrix(-0.158937 -1.0064 -0.777252 0.611322 170.748 49.8748)" fill="black"/>
<ellipse rx="1.47751" ry="1.93718" transform="matrix(-0.962001 0.190928 -0.283643 0.970418 178.453 38.3843)" fill="black"/>
<ellipse rx="1.47751" ry="1.93718" transform="matrix(-0.962001 0.190928 -0.283643 0.970418 174.335 52.482)" fill="black"/>
</svg>
