<svg width="251" height="250" viewBox="0 0 251 250" fill="none" xmlns="http://www.w3.org/2000/svg">
<path fill-rule="evenodd" clip-rule="evenodd" d="M209.963 75.9087C176.99 18.7977 123.753 -12.1966 91.0562 6.6812C78.8856 13.7079 71.2761 26.6538 68.219 43.0842C63.0628 70.7953 70.8558 108.418 91.5556 144.271C112.255 180.124 140.941 205.685 167.518 215.075C183.275 220.642 198.292 220.525 210.462 213.499C243.16 194.621 242.936 133.02 209.963 75.9087ZM161.147 77.082C171.738 95.4252 177.904 111.692 174.919 113.415C171.935 115.138 160.931 101.665 150.34 83.3215C139.75 64.9783 133.584 48.7114 136.568 46.9885C139.552 45.2655 150.557 58.7389 161.147 77.082ZM149.077 128.335C152.061 126.612 145.895 110.346 135.304 92.0024C124.714 73.6592 113.71 60.1859 110.725 61.9088C107.741 63.6318 113.907 79.8986 124.497 98.2418C135.088 116.585 146.092 130.058 149.077 128.335Z" fill="#F9F9F9"/>
<path d="M161.147 77.082C171.738 95.4252 177.904 111.692 174.919 113.415C171.935 115.138 160.931 101.665 150.34 83.3215C139.75 64.9783 133.584 48.7114 136.568 46.9885C139.552 45.2655 150.557 58.7389 161.147 77.082Z" fill="black"/>
<path d="M135.304 92.0024C145.895 110.346 152.061 126.612 149.077 128.335C146.092 130.058 135.088 116.585 124.497 98.2418C113.907 79.8986 107.741 63.6318 110.725 61.9088C113.71 60.1859 124.714 73.6592 135.304 92.0024Z" fill="black"/>
<path fill-rule="evenodd" clip-rule="evenodd" d="M209.963 75.9087C176.99 18.7977 123.753 -12.1966 91.0562 6.6812C78.8856 13.7079 71.2761 26.6538 68.219 43.0842C63.0628 70.7953 70.8558 108.418 91.5556 144.271C112.255 180.124 140.941 205.685 167.518 215.075C183.275 220.642 198.292 220.525 210.462 213.499C243.16 194.621 242.936 133.02 209.963 75.9087ZM161.147 77.082C171.738 95.4252 177.904 111.692 174.919 113.415C171.935 115.138 160.931 101.665 150.34 83.3215C139.75 64.9783 133.584 48.7114 136.568 46.9885C139.552 45.2655 150.557 58.7389 161.147 77.082ZM149.077 128.335C152.061 126.612 145.895 110.346 135.304 92.0024C124.714 73.6592 113.71 60.1859 110.725 61.9088C107.741 63.6318 113.907 79.8986 124.497 98.2418C135.088 116.585 146.092 130.058 149.077 128.335Z" stroke="black" stroke-width="2" stroke-linejoin="round"/>
<path d="M161.147 77.082C171.738 95.4252 177.904 111.692 174.919 113.415C171.935 115.138 160.931 101.665 150.34 83.3215C139.75 64.9783 133.584 48.7114 136.568 46.9885C139.552 45.2655 150.557 58.7389 161.147 77.082Z" stroke="black" stroke-width="2" stroke-linejoin="round"/>
<path d="M135.304 92.0024C145.895 110.346 152.061 126.612 149.077 128.335C146.092 130.058 135.088 116.585 124.497 98.2418C113.907 79.8986 107.741 63.6318 110.725 61.9088C113.71 60.1859 124.714 73.6592 135.304 92.0024Z" stroke="black" stroke-width="2" stroke-linejoin="round"/>
<path d="M161.584 77.082C172.174 95.4252 178.34 111.692 175.356 113.415C172.372 115.138 161.367 101.665 150.777 83.3215C140.186 64.9783 134.02 48.7114 137.005 46.9885C139.989 45.2655 150.993 58.7389 161.584 77.082Z" fill="black"/>
<path d="M135.741 92.0024C146.331 110.346 152.497 126.612 149.513 128.335C146.529 130.058 135.524 116.585 124.934 98.2418C114.344 79.8986 108.178 63.6318 111.162 61.9088C114.146 60.1859 125.151 73.6592 135.741 92.0024Z" fill="black"/>
<path d="M210.899 213.499C243.596 194.621 243.372 133.02 210.399 75.9087C177.426 18.7977 124.19 -12.1966 91.4927 6.6812M210.899 213.499L159.213 243.339C126.516 262.217 73.2796 231.223 40.3065 174.112C7.33342 117.001 7.1098 55.3997 39.807 36.5219L91.4927 6.6812M210.899 213.499C198.728 220.525 183.712 220.642 167.954 215.075C141.378 205.685 112.692 180.124 91.9922 144.271C71.2923 108.418 63.4993 70.7953 68.6555 43.0842C71.7127 26.6538 79.3221 13.7079 91.4927 6.6812M205.361 105.526C210.3 128.838 202.978 151.488 185.121 161.798C167.264 172.107 143.988 167.123 126.269 151.19M205.361 105.526C207.347 105.85 208.889 104.964 209.373 103.429M205.361 105.526C203.375 105.202 201.514 103.762 200.577 101.995M126.269 151.19C125.556 153.071 124.019 153.964 122.447 153.616M126.269 151.19C126.981 149.308 126.665 146.976 125.603 145.281M135.741 92.0024C146.331 110.346 152.497 126.612 149.513 128.335C146.529 130.058 135.524 116.585 124.934 98.2418C114.344 79.8986 108.178 63.6318 111.162 61.9088C114.146 60.1859 125.151 73.6592 135.741 92.0024ZM161.584 77.082C172.174 95.4252 178.34 111.692 175.356 113.415C172.372 115.138 161.367 101.665 150.777 83.3215C140.186 64.9783 134.02 48.7114 137.005 46.9885C139.989 45.2655 150.993 58.7389 161.584 77.082Z" stroke="black" stroke-width="2" stroke-linejoin="round"/>
<path d="M40.3079 174.112C73.281 231.223 126.517 262.218 159.215 243.34L210.9 213.499C198.73 220.526 183.713 220.643 167.956 215.075C141.379 205.685 112.693 180.125 91.9936 144.272C71.2938 108.418 63.5008 70.7957 68.6569 43.0846C71.7141 26.6543 79.3236 13.7083 91.4941 6.68164L39.8085 36.5224C7.11123 55.4001 7.33484 117.001 40.3079 174.112Z" fill="#F9F9F9" stroke="black" stroke-width="2" stroke-linejoin="round"/>
</svg>
