<svg width="251" height="254" viewBox="0 0 251 254" fill="none" xmlns="http://www.w3.org/2000/svg">
<path d="M54.3862 102.246C44.7288 76.1942 52.2684 50.2777 67.767 33.1244C83.3948 15.8282 104.803 9.64533 122.22 20.5368C131.129 26.1082 138.331 37.3634 138.993 50.535C139.637 63.378 134.055 78.7163 116.108 92.4728C61.1334 134.609 40.7837 172.245 45.4267 207.548C50.1945 243.802 91.7789 263.218 120.655 245.14C140.672 232.608 147.863 212.078 152.529 194.159C153.423 190.725 154.207 187.467 154.957 184.35L154.957 184.349C156.251 178.969 157.444 174.011 158.925 169.307C161.226 162.001 163.809 156.852 167.269 153.626C174.879 146.529 183.095 146.225 189.14 150.379C195.561 154.791 201.943 164.919 201.086 184.372C201.302 182.292 204.322 180.903 207.831 181.269C211.183 181.618 213.768 183.443 213.805 185.419C214.702 163.619 208.001 147.505 196.515 139.611C184.603 131.425 169.68 133.536 158.386 144.068C152.393 149.657 148.979 157.484 146.493 165.379C144.891 170.466 143.499 176.235 142.119 181.955L142.119 181.956L142.119 181.956C141.39 184.975 140.665 187.979 139.915 190.863C135.358 208.365 129.187 224.399 113.746 234.066C93.2351 246.907 61.9298 233.053 58.3513 205.843C54.6478 177.683 70.1768 144.12 124.03 102.844C144.926 86.8266 152.9 67.5602 152.013 49.8791C151.141 32.5267 141.723 17.3387 129.124 9.45978C104.432 -5.98111 76.2375 4.28966 58.1016 24.3617C39.8475 44.5648 30.0239 76.1929 41.5846 107.449C41.1806 106.226 43.6157 104.108 47.0915 102.678C50.6209 101.226 53.8868 101.033 54.3862 102.246Z" fill="#F9F9F9"/>
<path d="M54.3862 102.246C44.7288 76.1942 52.2684 50.2777 67.767 33.1244C83.3948 15.8282 104.803 9.64533 122.22 20.5368C131.129 26.1082 138.331 37.3634 138.993 50.535C139.637 63.378 134.055 78.7163 116.108 92.4728C61.1334 134.609 40.7837 172.245 45.4267 207.548C50.1945 243.802 91.7789 263.218 120.655 245.14C140.672 232.608 147.863 212.078 152.529 194.159C153.423 190.725 154.207 187.467 154.957 184.35L154.957 184.349C156.251 178.969 157.444 174.011 158.925 169.307C161.226 162.001 163.809 156.852 167.269 153.626C174.879 146.529 183.095 146.225 189.14 150.379C195.561 154.791 201.943 164.919 201.086 184.372M54.3862 102.246C54.8855 103.46 52.4292 105.621 48.8999 107.073C45.3706 108.525 42.1047 108.718 41.6053 107.505M54.3862 102.246C53.8868 101.033 50.6209 101.226 47.0915 102.678C43.6157 104.108 41.1806 106.226 41.5846 107.449M41.6053 107.505C41.5984 107.486 41.5915 107.467 41.5846 107.449M41.6053 107.505C41.5977 107.486 41.5908 107.468 41.5846 107.449M213.793 185.698C213.577 187.778 210.557 189.168 207.048 188.802C203.539 188.436 200.87 186.453 201.086 184.372M213.793 185.698C213.803 185.605 213.807 185.512 213.805 185.419M213.793 185.698C213.797 185.605 213.801 185.512 213.805 185.419M201.086 184.372C201.302 182.292 204.322 180.903 207.831 181.269C211.183 181.618 213.768 183.443 213.805 185.419M213.805 185.419C214.702 163.619 208.001 147.505 196.515 139.611C184.603 131.425 169.68 133.536 158.386 144.068C152.393 149.657 148.979 157.484 146.493 165.379C144.891 170.466 143.499 176.235 142.119 181.955L142.119 181.956L142.119 181.956C141.39 184.975 140.665 187.979 139.915 190.863C135.358 208.365 129.187 224.399 113.746 234.066C93.2351 246.907 61.9298 233.053 58.3513 205.843C54.6478 177.683 70.1768 144.12 124.03 102.844C144.926 86.8266 152.9 67.5601 152.013 49.8791C151.141 32.5267 141.723 17.3387 129.124 9.45978C104.432 -5.98111 76.2375 4.28966 58.1016 24.3617C39.8475 44.5648 30.0239 76.1929 41.5846 107.449" stroke="black" stroke-width="2" stroke-linejoin="round"/>
<path d="M207.048 188.802C210.557 189.168 213.577 187.779 213.793 185.699C213.797 185.606 213.801 185.513 213.805 185.42C213.769 183.444 211.183 181.619 207.831 181.269C204.323 180.903 201.303 182.293 201.086 184.373C200.87 186.453 203.539 188.436 207.048 188.802Z" fill="#F9F9F9"/>
<path d="M54.3863 102.247C54.8857 103.461 52.4294 105.622 48.9001 107.074C45.3708 108.526 42.1048 108.719 41.6055 107.505C41.5979 107.487 41.591 107.468 41.5848 107.449C41.1808 106.226 43.6159 104.108 47.0917 102.678C50.6211 101.226 53.887 101.033 54.3863 102.247Z" fill="#F9F9F9"/>
<path d="M207.048 188.802C210.557 189.168 213.577 187.779 213.793 185.699C213.797 185.606 213.801 185.513 213.805 185.42C213.769 183.444 211.183 181.619 207.831 181.269C204.323 180.903 201.303 182.293 201.086 184.373C200.87 186.453 203.539 188.436 207.048 188.802Z" stroke="black" stroke-width="2" stroke-linecap="round" stroke-linejoin="round"/>
<path d="M54.3863 102.247C54.8857 103.461 52.4294 105.622 48.9001 107.074C45.3708 108.526 42.1048 108.719 41.6055 107.505C41.5979 107.487 41.591 107.468 41.5848 107.449C41.1808 106.226 43.6159 104.108 47.0917 102.678C50.6211 101.226 53.887 101.033 54.3863 102.247Z" stroke="black" stroke-width="2" stroke-linecap="round" stroke-linejoin="round"/>
</svg>
