<svg width="251" height="252" viewBox="0 0 251 252" fill="none" xmlns="http://www.w3.org/2000/svg">
<path d="M166.494 68.0145C149.435 64.8465 139.005 54.8139 132.204 42.6019C125.299 30.2016 122.518 15.1569 120.767 4.11453C121.03 6.36986 118.049 8.80716 113.96 9.62687C109.754 10.4699 105.97 9.28282 105.508 6.9755C107.309 18.3646 110.594 35.0724 118.909 50.0053C127.369 65.1984 141.205 78.7958 163.716 82.9762C188.773 87.6294 206.405 94.2919 216.937 102.533C222.1 106.573 225.358 110.837 227.109 115.263C228.846 119.652 229.303 124.701 228.08 130.683C226.925 136.332 224.4 140.577 220.437 143.987C216.328 147.522 210.315 150.457 201.797 152.686C184.583 157.189 159.367 158.274 124.991 157.682C89.3893 157.069 64.478 165.203 45.8971 180.89C27.5841 196.351 16.1367 218.128 6.2813 243.169C7.16619 240.988 11.1056 240.528 15.0798 242.141C19.026 243.742 21.5229 246.785 20.6917 248.963C30.3616 224.402 40.4494 205.405 55.7138 192.518C70.72 179.849 91.6765 172.328 124.729 172.897C159.006 173.487 186.168 172.504 205.649 167.408C215.478 164.836 223.891 161.089 230.361 155.523C236.977 149.831 241.184 142.557 242.989 133.732C244.725 125.241 244.22 117.146 241.259 109.664C238.313 102.22 233.137 95.8867 226.315 90.5487C212.877 80.0335 192.336 72.8134 166.494 68.0145Z" fill="#F9F9F9"/>
<path d="M120.737 3.92268C120.274 1.61536 116.49 0.428311 112.285 1.27133C108.079 2.11435 105.045 4.66818 105.508 6.9755M120.737 3.92268C120.747 3.9865 120.757 4.05045 120.767 4.11453M120.737 3.92268C120.749 3.98646 120.759 4.05042 120.767 4.11453M6.2813 243.169C16.1367 218.128 27.5841 196.351 45.8971 180.89C64.478 165.203 89.3893 157.069 124.991 157.682C159.367 158.274 184.583 157.189 201.797 152.686C210.315 150.457 216.328 147.522 220.437 143.987C224.4 140.577 226.925 136.332 228.08 130.683C229.303 124.701 228.846 119.652 227.109 115.263C225.358 110.837 222.1 106.573 216.937 102.533C206.405 94.2919 188.773 87.6294 163.716 82.9762C141.205 78.7958 127.369 65.1984 118.909 50.0053C110.594 35.0724 107.309 18.3646 105.508 6.9755M6.2813 243.169C5.39641 245.349 7.90112 248.424 11.8754 250.037C15.8496 251.65 19.7885 251.19 20.6734 249.009C20.6782 248.997 20.6828 248.986 20.6874 248.974M6.2813 243.169C7.16619 240.988 11.1056 240.528 15.0798 242.141C19.026 243.742 21.5229 246.785 20.6917 248.963M105.508 6.9755C105.97 9.28282 109.754 10.4699 113.96 9.62687C118.049 8.80716 121.03 6.36986 120.767 4.11453M120.767 4.11453C122.518 15.1569 125.299 30.2016 132.204 42.6019C139.005 54.8139 149.435 64.8465 166.494 68.0145C192.336 72.8134 212.877 80.0335 226.315 90.5487C233.137 95.8867 238.313 102.22 241.259 109.664C244.22 117.146 244.725 125.241 242.989 133.732C241.184 142.557 236.977 149.831 230.361 155.523C223.891 161.089 215.478 164.836 205.649 167.408C186.168 172.504 159.006 173.487 124.729 172.897C91.6765 172.328 70.72 179.849 55.7138 192.518C40.4494 205.405 30.3616 224.402 20.6917 248.963M20.6917 248.963L20.6874 248.974M20.6917 248.963C20.6903 248.966 20.6888 248.97 20.6874 248.974" stroke="black" stroke-width="2" stroke-linejoin="round"/>
<path d="M120.767 4.11453C120.757 4.05045 120.747 3.9865 120.737 3.92268C120.274 1.61536 116.49 0.428311 112.285 1.27133C108.079 2.11435 105.045 4.66818 105.508 6.9755C105.97 9.28282 109.754 10.4699 113.96 9.62687C118.049 8.80716 121.03 6.36986 120.767 4.11453Z" fill="#F9F9F9"/>
<path d="M11.8754 250.037C15.8496 251.65 19.7885 251.19 20.6734 249.009C20.6782 248.997 20.6828 248.986 20.6874 248.974L20.6917 248.963C21.5229 246.785 19.026 243.742 15.0798 242.141C11.1056 240.528 7.16619 240.988 6.2813 243.169C5.39641 245.349 7.90112 248.424 11.8754 250.037Z" fill="#F9F9F9"/>
<path d="M120.767 4.11453C120.757 4.05045 120.747 3.9865 120.737 3.92268C120.274 1.61536 116.49 0.428311 112.285 1.27133C108.079 2.11435 105.045 4.66818 105.508 6.9755C105.97 9.28282 109.754 10.4699 113.96 9.62687C118.049 8.80716 121.03 6.36986 120.767 4.11453Z" stroke="black" stroke-width="2" stroke-linecap="round" stroke-linejoin="round"/>
<path d="M11.8754 250.037C15.8496 251.65 19.7885 251.19 20.6734 249.009C20.6782 248.997 20.6828 248.986 20.6874 248.974L20.6917 248.963C21.5229 246.785 19.026 243.742 15.0798 242.141C11.1056 240.528 7.16619 240.988 6.2813 243.169C5.39641 245.349 7.90112 248.424 11.8754 250.037Z" stroke="black" stroke-width="2" stroke-linecap="round" stroke-linejoin="round"/>
</svg>
