<svg width="251" height="252" viewBox="0 0 251 252" fill="none" xmlns="http://www.w3.org/2000/svg">
<path d="M134.466 121.418C116.142 84.8221 117.279 59.7176 124.89 44.5166C132.487 29.3427 147.759 21.4918 163.594 21.4918C179.429 21.4918 194.7 29.3427 202.298 44.5166C209.909 59.7176 211.416 84.866 193.092 121.462C194.119 119.444 198.976 119.849 203.942 122.368C208.892 124.878 212.082 128.541 211.085 130.563C231.057 90.6648 232.191 58.3989 220.652 35.3523C209.097 12.2748 186.063 1 163.594 1C141.124 1 118.091 12.2748 106.536 35.3523C94.9947 58.4026 96.1307 90.6751 116.112 130.582C134.436 167.178 133.299 192.282 125.688 207.483C118.091 222.657 102.819 230.508 86.9842 230.508C71.149 230.508 55.8777 222.657 48.2801 207.483C40.669 192.282 39.5329 167.178 57.8563 130.582C56.83 132.6 51.9232 132.169 46.896 129.62C41.8845 127.078 38.6458 123.39 39.6423 121.368C19.67 161.266 18.3869 193.601 29.9263 216.648C41.4812 239.725 64.5146 251 86.9842 251C109.454 251 132.487 239.725 144.042 216.648C155.583 193.597 154.447 161.325 134.466 121.418Z" fill="#F9F9F9"/>
<path d="M39.6518 121.349C40.6782 119.331 45.5855 119.762 50.6128 122.312C55.64 124.861 58.8827 128.564 57.8563 130.582M39.6518 121.349C39.6486 121.355 39.6454 121.362 39.6423 121.368M39.6518 121.349L39.6423 121.368M57.8563 130.582C39.5329 167.178 40.669 192.282 48.2801 207.483C55.8777 222.657 71.149 230.508 86.9842 230.508C102.819 230.508 118.091 222.657 125.688 207.483C133.299 192.282 134.436 167.178 116.112 130.582C96.1307 90.6751 94.9946 58.4026 106.536 35.3523C118.091 12.2748 141.124 1 163.594 1C186.063 1 209.097 12.2748 220.652 35.3523C232.191 58.3989 231.057 90.6648 211.085 130.563M57.8563 130.582C56.83 132.6 51.9232 132.169 46.896 129.62C41.8845 127.078 38.6458 123.39 39.6423 121.368M211.076 130.582C210.049 132.6 205.191 132.195 200.226 129.676C195.26 127.158 192.066 123.48 193.092 121.462M211.076 130.582C211.079 130.576 211.082 130.569 211.085 130.563M211.076 130.582L211.085 130.563M193.092 121.462C211.416 84.866 209.909 59.7176 202.298 44.5166C194.7 29.3427 179.429 21.4918 163.594 21.4918C147.759 21.4918 132.487 29.3427 124.89 44.5166C117.279 59.7176 116.142 84.8221 134.466 121.418C154.447 161.325 155.583 193.597 144.042 216.648C132.487 239.725 109.454 251 86.9842 251C64.5146 251 41.4812 239.725 29.9263 216.648C18.3869 193.601 19.67 161.266 39.6423 121.368M193.092 121.462C194.119 119.444 198.976 119.849 203.942 122.368C208.892 124.878 212.082 128.541 211.085 130.563" stroke="black" stroke-width="2" stroke-linejoin="round"/>
<path d="M200.226 129.676C205.192 132.195 210.05 132.601 211.076 130.583L211.086 130.563C212.082 128.541 208.893 124.879 203.943 122.368C198.977 119.85 194.119 119.444 193.093 121.462C192.067 123.48 195.26 127.158 200.226 129.676Z" fill="#F9F9F9"/>
<path d="M46.8967 129.62C51.9239 132.17 56.8307 132.601 57.857 130.583C58.8834 128.564 55.6406 124.862 50.6134 122.312C45.5862 119.762 40.6788 119.331 39.6525 121.35L39.643 121.369C38.6465 123.391 41.8852 127.079 46.8967 129.62Z" fill="#F9F9F9"/>
<path d="M200.226 129.676C205.192 132.195 210.05 132.601 211.076 130.583L211.086 130.563C212.082 128.541 208.893 124.879 203.943 122.368C198.977 119.85 194.119 119.444 193.093 121.462C192.067 123.48 195.26 127.158 200.226 129.676Z" stroke="black" stroke-width="2" stroke-linecap="round" stroke-linejoin="round"/>
<path d="M46.8967 129.62C51.9239 132.17 56.8307 132.601 57.857 130.583C58.8834 128.564 55.6406 124.862 50.6134 122.312C45.5862 119.762 40.6788 119.331 39.6525 121.35L39.643 121.369C38.6465 123.391 41.8852 127.079 46.8967 129.62Z" stroke="black" stroke-width="2" stroke-linecap="round" stroke-linejoin="round"/>
</svg>
