<svg width="253" height="250" viewBox="0 0 253 250" fill="none" xmlns="http://www.w3.org/2000/svg">
<path d="M61.4481 34.6577C88.0151 59.214 113.008 75.2967 135.634 84.8366C138.138 85.9237 144.4 88.4681 149.411 89.9493C177.441 98.9083 201.208 97.5326 218.979 90.0367C235.975 82.8677 247.52 69.9031 250.407 55.3101C253.378 40.292 246.829 25.2247 231.043 15.5493C220.32 8.97752 209.438 7.94845 198.918 11.5504C188.817 15.0092 179.635 22.5288 171.244 31.8646C161.541 42.6593 152.135 56.7716 142.96 72.1959C145.039 73.1622 150.745 75.4937 156.932 77.0886C165.288 63.2117 173.607 50.9258 182.028 41.5578C189.703 33.0191 196.893 27.5705 203.615 25.2688C209.919 23.1102 216.313 23.5281 223.465 27.9121C234.65 34.7669 237.851 44.06 236.182 52.4959C234.429 61.3571 226.943 70.9403 213.343 76.6764C200.01 82.3003 180.794 84.0481 156.932 77.0886C150.745 75.4937 145.039 73.1622 142.96 72.1959C121.829 63.5911 97.8812 49.4236 71.4213 24.954C72.3086 25.8784 70.7798 28.7856 68.0067 31.4476C65.3018 34.044 62.4121 35.448 61.4481 34.6577Z" fill="#F9F9F9"/>
<path d="M30.3009 220.859C41.4766 224.706 52.1906 222.767 61.9674 217.254C71.5065 211.874 80.3281 203.025 88.5622 192.558C94.2138 185.373 99.7829 177.165 105.28 168.346C107.817 164.341 111.38 158.305 112.845 155.788C119.669 144.113 126.386 131.777 133.016 119.6L133.032 119.572C134.038 117.723 135.043 115.879 136.045 114.04C140.536 105.808 144.984 97.7123 149.411 89.9493C144.4 88.4681 138.138 85.9237 135.634 84.8366C131.485 92.1585 127.381 99.6429 123.315 107.097C122.374 108.822 121.435 110.546 120.498 112.268C113.306 125.47 106.208 138.5 99.1124 150.539C97.2026 153.725 92.9791 160.727 91.364 163.245C86.6538 170.674 81.9299 177.536 77.1654 183.593C69.4254 193.433 61.9907 200.593 54.8445 204.623C47.9359 208.52 41.5355 209.391 35.0209 207.148C21.7216 202.57 15.8997 193.204 15.6152 184.622C15.3306 176.033 20.5283 166.331 33.3781 160.935C45.4468 155.868 64.5419 154.626 91.364 163.245C92.9791 160.727 97.2026 153.725 99.1124 150.539C68.5803 140.104 44.6244 140.486 27.7644 147.566C10.1194 154.975 0.613437 169.727 1.12299 185.103C1.6328 200.485 12.1031 214.594 30.3009 220.859Z" fill="#F9F9F9"/>
<path d="M223.511 229.414C180.634 192.187 143.204 168.574 112.845 155.788C111.38 158.305 107.817 164.341 105.28 168.346C134.159 180.18 170.102 202.329 213.22 239.778C212.318 238.868 213.909 235.827 216.774 232.985C219.556 230.227 222.515 228.671 223.511 229.414Z" fill="#F9F9F9"/>
<path d="M99.1124 150.539C68.5803 140.104 44.6244 140.486 27.7644 147.566C10.1194 154.975 0.613437 169.727 1.12299 185.103C1.6328 200.485 12.1031 214.594 30.3009 220.859C41.4766 224.706 52.1906 222.767 61.9674 217.254C71.5065 211.874 80.3281 203.025 88.5622 192.558C94.2138 185.373 99.7829 177.165 105.28 168.346M99.1124 150.539C106.208 138.5 113.306 125.47 120.498 112.268C121.435 110.546 122.374 108.822 123.315 107.097C127.381 99.6429 131.485 92.1585 135.634 84.8366M99.1124 150.539C97.2026 153.725 92.9791 160.727 91.364 163.245M135.634 84.8366C138.138 85.9237 144.4 88.4681 149.411 89.9493M135.634 84.8366C113.008 75.2967 88.0151 59.214 61.4481 34.6577M61.3789 34.5937C60.4916 33.6693 62.0204 30.7621 64.7935 28.1001C67.5666 25.4382 70.534 24.0296 71.4213 24.954M61.3789 34.5937C61.4008 34.6164 61.4238 34.6377 61.4481 34.6577M61.3789 34.5937C61.402 34.615 61.4251 34.6363 61.4481 34.6577M61.3789 34.5937L61.4481 34.6577M71.4213 24.954C97.8812 49.4236 121.829 63.5911 142.96 72.1959M71.4213 24.954C72.3086 25.8784 70.7798 28.7856 68.0067 31.4476C65.3018 34.044 62.4121 35.448 61.4481 34.6577M142.96 72.1959C152.135 56.7716 161.541 42.6593 171.244 31.8646C179.635 22.5288 188.817 15.0092 198.918 11.5504C209.438 7.94845 220.32 8.97752 231.043 15.5493C246.829 25.2247 253.378 40.292 250.407 55.3101C247.52 69.9031 235.975 82.8677 218.979 90.0367C201.208 97.5326 177.441 98.9083 149.411 89.9493M142.96 72.1959C145.039 73.1622 150.745 75.4937 156.932 77.0886M149.411 89.9493C144.984 97.7123 140.536 105.808 136.045 114.04C135.043 115.879 134.038 117.723 133.032 119.572M133.016 119.6C126.386 131.777 119.669 144.113 112.845 155.788M133.016 119.6L133.032 119.572M133.016 119.6C133.022 119.59 133.027 119.581 133.032 119.572M112.845 155.788C111.38 158.305 107.817 164.341 105.28 168.346M112.845 155.788C143.204 168.574 180.634 192.187 223.511 229.414M223.596 229.488C224.498 230.398 222.907 233.439 220.042 236.28C217.176 239.122 214.122 240.687 213.22 239.778M223.596 229.488C223.57 229.461 223.541 229.437 223.511 229.414M223.596 229.488C223.568 229.463 223.54 229.439 223.511 229.414M223.596 229.488L223.511 229.414M213.22 239.778C170.102 202.329 134.159 180.18 105.28 168.346M213.22 239.778C212.318 238.868 213.909 235.827 216.774 232.985C219.556 230.227 222.515 228.671 223.511 229.414M91.364 163.245C86.6538 170.674 81.9299 177.536 77.1654 183.593C69.4254 193.433 61.9907 200.593 54.8445 204.623C47.9359 208.52 41.5355 209.391 35.0209 207.148C21.7216 202.57 15.8997 193.204 15.6152 184.622C15.3306 176.033 20.5283 166.331 33.3781 160.935C45.4467 155.868 64.5419 154.626 91.364 163.245ZM156.932 77.0886C180.794 84.0481 200.01 82.3003 213.343 76.6764C226.943 70.9403 234.429 61.3571 236.182 52.4959C237.851 44.06 234.65 34.7669 223.465 27.9121C216.313 23.5281 209.919 23.1102 203.615 25.2688C196.893 27.5705 189.703 33.0191 182.028 41.5578C173.607 50.9258 165.288 63.2117 156.932 77.0886Z" stroke="black" stroke-width="2" stroke-linejoin="round"/>
<path d="M68.0069 31.4472C70.78 28.7853 72.3088 25.878 71.4215 24.9536C70.5342 24.0293 67.5668 25.4378 64.7937 28.0998C62.0206 30.7617 60.4918 33.669 61.3791 34.5933L61.4483 34.6573C62.4122 35.4477 65.302 34.0437 68.0069 31.4472Z" fill="#F9F9F9"/>
<path d="M220.042 236.28C222.907 233.438 224.499 230.397 223.596 229.488L223.512 229.414C222.515 228.671 219.556 230.227 216.775 232.985C213.909 235.827 212.318 238.867 213.22 239.777C214.123 240.687 217.177 239.121 220.042 236.28Z" fill="#F9F9F9"/>
<path d="M68.0069 31.4472C70.78 28.7853 72.3088 25.878 71.4215 24.9536C70.5342 24.0293 67.5668 25.4378 64.7937 28.0998C62.0206 30.7617 60.4918 33.669 61.3791 34.5933L61.4483 34.6573C62.4122 35.4477 65.302 34.0437 68.0069 31.4472Z" stroke="black" stroke-width="2" stroke-linecap="round" stroke-linejoin="round"/>
<path d="M220.042 236.28C222.907 233.438 224.499 230.397 223.596 229.488L223.512 229.414C222.515 228.671 219.556 230.227 216.775 232.985C213.909 235.827 212.318 238.867 213.22 239.777C214.123 240.687 217.177 239.121 220.042 236.28Z" stroke="black" stroke-width="2" stroke-linecap="round" stroke-linejoin="round"/>
</svg>
