<svg width="253" height="250" viewBox="0 0 253 250" fill="none" xmlns="http://www.w3.org/2000/svg">
<path d="M101.492 127.548C107.68 96.5971 113.729 74.1518 119.512 59.6898C122.053 53.3366 124.317 49.1072 126.154 46.5019C127.991 49.1072 130.255 53.3366 132.796 59.6898C138.579 74.1518 144.628 96.5971 150.816 127.548C157.092 158.939 163.508 183.25 170.19 199.959C173.504 208.247 177.182 215.441 181.455 220.783C185.558 225.914 192.006 231.502 200.942 231.502C209.878 231.502 216.326 225.914 220.429 220.783C224.702 215.441 228.38 208.247 231.694 199.959C238.376 183.25 244.792 158.939 251.068 127.548C250.548 130.077 244.452 130.96 237.452 129.518C230.47 128.081 225.227 124.875 225.718 122.348C219.53 153.29 213.366 175.853 207.584 190.312C205.043 196.666 202.779 200.895 200.942 203.5C199.105 200.895 196.841 196.666 194.3 190.312C188.517 175.85 182.468 153.405 176.28 122.454C170.004 91.063 163.588 66.7517 156.906 50.0426C153.592 41.7549 149.914 34.5612 145.641 29.219C141.538 24.0879 135.09 18.5 126.154 18.5C117.218 18.5 110.77 24.0879 106.667 29.219C102.394 34.5612 98.7158 41.7549 95.4017 50.0426C88.72 66.7517 82.3044 91.063 76.0281 122.454C69.8398 153.405 63.7907 175.85 58.0077 190.312C55.4671 196.666 53.2027 200.895 51.366 203.5C49.5293 200.895 47.2649 196.666 44.7244 190.312C38.9463 175.863 32.9026 153.443 26.7198 122.533C27.1151 125.05 21.8508 128.227 14.8644 129.666C7.80442 131.119 1.65924 130.247 1.13878 127.718C7.41509 159.109 13.932 183.25 20.6136 199.959C23.9277 208.247 27.6062 215.441 31.8787 220.783C35.9824 225.914 42.4301 231.502 51.366 231.502C60.302 231.502 66.7497 225.914 70.8533 220.783C75.1258 215.441 78.8043 208.247 82.1184 199.959C88.8 183.25 95.2156 158.939 101.492 127.548Z" fill="#F9F9F9"/>
<path d="M1.13878 127.718C7.41509 159.109 13.932 183.25 20.6136 199.959C23.9277 208.247 27.6062 215.441 31.8787 220.783C35.9824 225.914 42.4301 231.502 51.366 231.502C60.302 231.502 66.7497 225.914 70.8533 220.783C75.1258 215.441 78.8043 208.247 82.1184 199.959C88.8 183.25 95.2156 158.939 101.492 127.548C107.68 96.5971 113.729 74.1518 119.512 59.6898C122.053 53.3366 124.317 49.1072 126.154 46.5019C127.991 49.1072 130.255 53.3366 132.796 59.6898C138.579 74.1518 144.628 96.5971 150.816 127.548C157.092 158.939 163.508 183.25 170.19 199.959C173.504 208.247 177.182 215.441 181.455 220.783C185.558 225.914 192.006 231.502 200.942 231.502C209.878 231.502 216.326 225.914 220.429 220.783C224.702 215.441 228.38 208.247 231.694 199.959C238.376 183.25 244.792 158.939 251.068 127.548M1.13878 127.718C1.65924 130.247 7.80442 131.119 14.8644 129.666C21.8508 128.227 27.1151 125.05 26.7198 122.533M1.13878 127.718C0.61833 125.189 5.9197 121.96 12.9797 120.506C20.0397 119.053 26.1849 119.925 26.7054 122.454C26.7108 122.48 26.7156 122.507 26.7198 122.533M26.7039 122.454C26.7092 122.48 26.7145 122.507 26.7198 122.533M225.721 122.329C226.242 119.8 232.338 118.918 239.337 120.359C246.336 121.8 251.588 125.019 251.068 127.548M225.721 122.329C225.72 122.336 225.719 122.342 225.718 122.348M225.721 122.329L225.718 122.348M251.068 127.548C250.548 130.077 244.452 130.96 237.452 129.518C230.47 128.081 225.227 124.875 225.718 122.348M225.718 122.348C219.53 153.29 213.366 175.853 207.584 190.312C205.043 196.666 202.779 200.895 200.942 203.5C199.105 200.895 196.841 196.666 194.3 190.312C188.517 175.85 182.468 153.405 176.28 122.454C170.004 91.063 163.588 66.7517 156.906 50.0426C153.592 41.7549 149.914 34.5612 145.641 29.219C141.538 24.0879 135.09 18.5 126.154 18.5C117.218 18.5 110.77 24.0879 106.667 29.219C102.394 34.5612 98.7158 41.7549 95.4017 50.0426C88.72 66.7517 82.3044 91.063 76.0281 122.454C69.8398 153.405 63.7907 175.85 58.0077 190.312C55.4671 196.666 53.2027 200.895 51.366 203.5C49.5293 200.895 47.2649 196.666 44.7244 190.312C38.9463 175.863 32.9026 153.443 26.7198 122.533" stroke="black" stroke-width="2" stroke-linejoin="round"/>
<path d="M237.452 129.519C244.452 130.961 250.548 130.078 251.068 127.549C251.588 125.02 246.336 121.801 239.337 120.36C232.338 118.919 226.242 119.801 225.721 122.33L225.718 122.349C225.227 124.876 230.47 128.082 237.452 129.519Z" fill="#F9F9F9"/>
<path d="M1.13878 127.719C1.65924 130.248 7.80442 131.12 14.8644 129.667C21.8508 128.228 27.1151 125.051 26.7198 122.534C26.7156 122.508 26.7108 122.481 26.7054 122.455C26.1849 119.926 20.0397 119.054 12.9797 120.507C5.9197 121.961 0.61833 125.19 1.13878 127.719Z" fill="#F9F9F9"/>
<path d="M237.452 129.519C244.452 130.961 250.548 130.078 251.068 127.549C251.588 125.02 246.336 121.801 239.337 120.36C232.338 118.919 226.242 119.801 225.721 122.33L225.718 122.349C225.227 124.876 230.47 128.082 237.452 129.519Z" stroke="black" stroke-width="2" stroke-linecap="round" stroke-linejoin="round"/>
<path d="M1.13878 127.719C1.65924 130.248 7.80442 131.12 14.8644 129.667C21.8508 128.228 27.1151 125.051 26.7198 122.534C26.7156 122.508 26.7108 122.481 26.7054 122.455C26.1849 119.926 20.0397 119.054 12.9797 120.507C5.9197 121.961 0.61833 125.19 1.13878 127.719Z" stroke="black" stroke-width="2" stroke-linecap="round" stroke-linejoin="round"/>
</svg>
