<svg width="253" height="250" viewBox="0 0 253 250" fill="none" xmlns="http://www.w3.org/2000/svg">
<path d="M26.5535 80.4564C29.7577 71.3364 38.0915 55.423 48.7916 45.0525C59.3534 34.8161 72.4402 28.3895 88.5611 30.5463C95.8919 31.5271 100.579 34.6929 103.433 38.4573C106.386 42.3535 108.023 47.7663 107.515 54.0939C106.519 66.5044 96.9113 82.7179 73.0662 91.1193C42.6609 101.832 21.8486 118.119 10.6221 137.218C-0.700359 156.48 -1.65798 177.715 6.34705 195.884C22.4331 232.392 76.846 244.133 118.529 205.868C113.796 201.059 104.804 189.663 100.899 184.566C69.9139 214.629 38.2487 199.682 31.675 184.763C27.3622 174.974 27.5113 163.063 34.4866 151.197C41.5579 139.167 56.2344 126.341 82.2752 117.166C114.876 105.68 133.104 81.1237 135.096 56.2999C136.083 44.0105 133.002 31.69 125.496 21.7891C117.891 11.7563 106.377 5.06112 92.2365 3.16924C65.414 -0.419314 44.2827 10.9241 29.5175 25.2344C14.9946 39.3098 5.74891 56.9699 1.50478 69.2566C2.52246 67.0487 8.93424 67.8251 15.8259 70.9907C22.4527 74.0346 27.1102 78.1794 26.5535 80.4564Z" fill="#F9F9F9"/>
<path d="M90.3637 169.046C93.8142 174.52 97.3305 179.692 100.899 184.566C104.804 189.663 113.796 201.059 118.529 205.868C141.312 230.047 165.23 243.267 187.088 246.718C202.744 249.189 217.681 246.616 229.487 238.721C241.442 230.726 248.946 218.072 250.781 203.043C252.74 187.009 245.571 173.775 234.753 164.653C224.252 155.799 210.051 150.418 195.369 148.218C171.703 144.673 143.075 148.953 120.96 165.104C124.137 169.664 132.071 180.357 138.391 186.649C153.295 176.32 173.293 172.842 191.262 175.534C202.401 177.203 211.348 181.075 216.899 185.755C222.132 190.168 223.92 194.747 223.315 199.7C222.384 207.326 218.889 212.561 214.086 215.773C209.135 219.085 201.555 221.037 191.41 219.435C176.968 217.155 158.059 207.623 138.391 186.649C132.071 180.357 124.137 169.664 120.96 165.104C118.544 161.679 116.478 159.018 114.078 155.208C115.298 157.311 110.967 162.093 104.403 165.89C97.9335 169.632 91.7101 171.02 90.3637 169.046Z" fill="#F9F9F9"/>
<path d="M26.5587 80.7202C25.541 82.9281 19.1293 82.1518 12.2376 78.9862C5.34598 75.8206 0.487094 71.4645 1.50478 69.2566M26.5587 80.7202C26.5978 80.6354 26.5313 80.5474 26.5535 80.4564M26.5587 80.7202C26.5889 80.6329 26.5224 80.545 26.5535 80.4564M1.50478 69.2566C5.74891 56.9699 14.9946 39.3098 29.5175 25.2344C44.2827 10.9241 65.414 -0.419314 92.2365 3.16924C106.377 5.06112 117.891 11.7563 125.496 21.7891C133.002 31.69 136.083 44.0105 135.096 56.2999C133.104 81.1237 114.876 105.68 82.2752 117.166C56.2344 126.341 41.5579 139.167 34.4866 151.197C27.5113 163.063 27.3622 174.974 31.675 184.763C38.2487 199.682 69.9139 214.629 100.899 184.566M1.50478 69.2566C2.52246 67.0487 8.93424 67.8251 15.8259 70.9907C22.4527 74.0346 27.1102 78.1794 26.5535 80.4564M100.899 184.566C104.804 189.663 113.796 201.059 118.529 205.868M100.899 184.566C97.3305 179.692 93.8142 174.52 90.3637 169.046M90.405 168.957C89.1844 166.854 93.516 162.072 100.08 158.275C106.644 154.478 112.857 153.105 114.078 155.208M90.405 168.957C90.4225 168.988 90.344 169.017 90.3637 169.046M90.405 168.957C90.4236 168.987 90.3451 169.016 90.3637 169.046M90.405 168.957L90.3637 169.046M114.078 155.208C116.478 159.018 118.544 161.679 120.96 165.104M114.078 155.208C115.298 157.311 110.967 162.093 104.403 165.89C97.9335 169.632 91.7101 171.02 90.3637 169.046M120.96 165.104C143.075 148.953 171.703 144.673 195.369 148.218C210.051 150.418 224.252 155.799 234.753 164.653C245.571 173.775 252.74 187.009 250.781 203.043C248.946 218.072 241.442 230.726 229.487 238.721C217.681 246.616 202.744 249.189 187.088 246.718C165.23 243.267 141.312 230.047 118.529 205.868M120.96 165.104C124.137 169.664 132.071 180.357 138.391 186.649M118.529 205.868C76.846 244.133 22.4331 232.392 6.34705 195.884C-1.65798 177.715 -0.700359 156.48 10.6221 137.218C21.8486 118.119 42.6609 101.832 73.0662 91.1193C96.9113 82.7179 106.519 66.5044 107.515 54.0939C108.023 47.7663 106.386 42.3535 103.432 38.4573C100.579 34.6929 95.8919 31.5271 88.5611 30.5463C72.4402 28.3895 59.3534 34.8161 48.7916 45.0525C38.0915 55.423 29.7577 71.3364 26.5535 80.4564M138.391 186.649C158.059 207.623 176.968 217.155 191.41 219.435C201.555 221.037 209.135 219.085 214.086 215.773C218.889 212.561 222.384 207.326 223.315 199.7C223.92 194.747 222.132 190.168 216.899 185.755C211.348 181.075 202.401 177.203 191.262 175.534C173.293 172.842 153.295 176.32 138.391 186.649Z" stroke="black" stroke-width="2" stroke-linejoin="round"/>
<path d="M15.827 70.9911C8.93534 67.8255 2.52357 67.0492 1.50588 69.257C0.488196 71.4649 5.34708 75.821 12.2387 78.9866C19.1304 82.1522 25.5421 82.9286 26.5598 80.7207C26.59 80.6334 26.5235 80.5455 26.5546 80.4569C27.1113 78.1798 22.4538 74.0351 15.827 70.9911Z" fill="#F9F9F9"/>
<path d="M104.404 165.891C110.968 162.094 115.3 157.311 114.079 155.208C112.858 153.105 106.645 154.479 100.081 158.275C93.5171 162.072 89.1855 166.855 90.4061 168.958L90.3648 169.046C91.7112 171.021 97.9346 169.633 104.404 165.891Z" fill="#F9F9F9"/>
<path d="M15.827 70.9911C8.93534 67.8255 2.52357 67.0492 1.50588 69.257C0.488196 71.4649 5.34708 75.821 12.2387 78.9866C19.1304 82.1522 25.5421 82.9286 26.5598 80.7207C26.59 80.6334 26.5235 80.5455 26.5546 80.4569C27.1113 78.1798 22.4538 74.0351 15.827 70.9911Z" stroke="black" stroke-width="2" stroke-linecap="round" stroke-linejoin="round"/>
<path d="M104.404 165.891C110.968 162.094 115.3 157.311 114.079 155.208C112.858 153.105 106.645 154.479 100.081 158.275C93.5171 162.072 89.1855 166.855 90.4061 168.958L90.3648 169.046C91.7112 171.021 97.9346 169.633 104.404 165.891Z" stroke="black" stroke-width="2" stroke-linecap="round" stroke-linejoin="round"/>
</svg>
