<svg width="251" height="252" viewBox="0 0 251 252" fill="none" xmlns="http://www.w3.org/2000/svg">
<path d="M192.127 126C192.127 56.9644 136.163 1 67.1273 1C72.3872 1 76.6511 6.32994 76.6511 12.9048C76.6511 19.4796 72.3872 24.8095 67.1273 24.8095C123.013 24.8095 168.318 70.1141 168.318 126C168.318 181.886 123.013 227.19 67.1273 227.19C72.3872 227.19 76.6511 232.52 76.6511 239.095C76.6511 245.67 72.3872 251 67.1273 251C136.163 251 192.127 195.036 192.127 126Z" fill="#F9F9F9"/>
<path d="M67.1273 1C136.163 1 192.127 56.9644 192.127 126C192.127 195.036 136.163 251 67.1273 251M67.1273 1C61.8675 1 57.6035 6.32994 57.6035 12.9048C57.6035 19.4796 61.8675 24.8095 67.1273 24.8095M67.1273 1C72.3872 1 76.6511 6.32994 76.6511 12.9048C76.6511 19.4796 72.3872 24.8095 67.1273 24.8095M67.1273 251C72.3872 251 76.6511 245.67 76.6511 239.095C76.6511 232.52 72.3872 227.19 67.1273 227.19M67.1273 251C61.8675 251 57.6035 245.67 57.6035 239.095C57.6035 232.52 61.8675 227.19 67.1273 227.19M67.1273 227.19C123.013 227.19 168.318 181.886 168.318 126C168.318 70.1141 123.013 24.8095 67.1273 24.8095" stroke="black" stroke-width="2" stroke-linejoin="round"/>
<path d="M67.1273 24.8095C72.3872 24.8095 76.6511 19.4796 76.6511 12.9048C76.6511 6.32994 72.3872 1 67.1273 1C61.8675 1 57.6035 6.32994 57.6035 12.9048C57.6035 19.4796 61.8675 24.8095 67.1273 24.8095Z" fill="#F9F9F9"/>
<path d="M67.1273 251C72.3872 251 76.6511 245.67 76.6511 239.095C76.6511 232.52 72.3872 227.19 67.1273 227.19C61.8675 227.19 57.6035 232.52 57.6035 239.095C57.6035 245.67 61.8675 251 67.1273 251Z" fill="#F9F9F9"/>
<path d="M67.1273 24.8095C72.3872 24.8095 76.6511 19.4796 76.6511 12.9048C76.6511 6.32994 72.3872 1 67.1273 1C61.8675 1 57.6035 6.32994 57.6035 12.9048C57.6035 19.4796 61.8675 24.8095 67.1273 24.8095Z" stroke="black" stroke-width="2" stroke-linecap="round" stroke-linejoin="round"/>
<path d="M67.1273 251C72.3872 251 76.6511 245.67 76.6511 239.095C76.6511 232.52 72.3872 227.19 67.1273 227.19C61.8675 227.19 57.6035 232.52 57.6035 239.095C57.6035 245.67 61.8675 251 67.1273 251Z" stroke="black" stroke-width="2" stroke-linecap="round" stroke-linejoin="round"/>
</svg>
