<svg width="251" height="252" viewBox="0 0 251 252" fill="none" xmlns="http://www.w3.org/2000/svg">
<path fill-rule="evenodd" clip-rule="evenodd" d="M162.42 205.923C172.668 205.923 179.967 199.581 184.704 193.218C189.48 186.802 193.22 178.382 196.332 169.521C202.544 151.831 207.494 128.612 212.214 106.473L212.309 106.028C217.172 83.2188 221.356 61.7988 226.955 45.7929C229.769 37.7463 230.038 36.2323 233.6 30.5346C234.83 28.5658 236.061 26.3509 238.228 25.6102C234.014 25.6102 230.599 20.101 230.599 13.3051C230.599 6.50918 234.014 1 238.228 1C227.975 1 220.455 7.37656 215.747 13.73C210.996 20.1439 207.274 28.5608 204.176 37.4182C198.02 55.0191 193.099 78.0997 188.401 100.141L188.239 100.897C183.377 123.702 178.73 145.368 173.112 161.367C170.287 169.41 167.528 175.077 164.964 178.522C163.502 180.485 162.946 181.212 162.224 181.306C161.311 181.424 160.601 180.986 158.811 179.17C156.603 176.929 154.103 173.104 151.446 167.338C146.113 155.764 141.694 139.944 136.944 122.728L136.663 121.711C132.17 105.42 127.335 87.8953 121.199 74.4167C118.058 67.5178 114.193 60.781 109.183 55.623C103.999 50.2846 96.9883 46.0798 88.1677 46.0798C77.9149 46.0798 70.6349 52.454 65.9278 58.8075C61.176 65.2213 57.4544 73.6383 54.3564 82.4957C48.2001 100.097 43.2796 123.177 38.5808 145.219L38.4197 145.974C33.5577 168.779 31.756 178.748 25.8894 201.822C23.811 209.996 20.1687 218.024 17.2758 222.002C15.307 224.709 14.0765 225.447 12.3876 226.392C16.601 226.392 19.8618 231.956 19.8618 238.752C19.8618 245.548 16.8134 251 12.6 251C22.8486 251 30.1475 244.658 34.8847 238.295C39.6606 231.88 43.4004 223.46 46.512 214.598C52.7242 196.908 57.6743 173.689 62.3941 151.551L62.489 151.106C67.3519 128.296 71.9882 106.627 77.5866 90.621C80.401 82.5744 83.1487 76.9046 85.7023 73.4578C87.1199 71.5444 87.5751 70.7806 88.385 70.6998C89.1949 70.619 89.8494 71.0395 91.5285 72.7684C93.7015 75.0059 96.1696 78.8341 98.8006 84.6133C104.08 96.2097 108.465 112.041 113.22 129.274L113.317 129.625C117.868 146.12 122.789 163.952 129.095 177.637C132.28 184.549 136.202 191.289 141.282 196.444C146.542 201.781 153.597 205.923 162.42 205.923Z" fill="#F9F9F9"/>
<path d="M12.6 251C22.8486 251 30.1475 244.658 34.8847 238.295C39.6606 231.88 43.4004 223.46 46.512 214.598C52.7242 196.908 57.6743 173.689 62.3941 151.551L62.489 151.106C67.3519 128.296 71.9882 106.627 77.5866 90.621C80.401 82.5744 83.1487 76.9046 85.7023 73.4578C87.1199 71.5444 87.5751 70.7806 88.385 70.6998C89.1949 70.619 89.8494 71.0394 91.5285 72.7684C93.7015 75.0059 96.1697 78.8341 98.8006 84.6133C104.08 96.2097 108.465 112.041 113.22 129.274L113.317 129.625C117.868 146.12 122.789 163.952 129.095 177.637C132.28 184.549 136.202 191.289 141.282 196.444C146.542 201.781 153.597 205.923 162.42 205.923C172.668 205.923 179.967 199.581 184.704 193.218C189.48 186.802 193.22 178.382 196.332 169.521C202.544 151.831 207.494 128.612 212.214 106.473L212.309 106.028C217.172 83.2188 221.356 61.7988 226.955 45.7929C229.769 37.7463 230.038 36.2323 233.6 30.5346C234.83 28.5658 236.061 26.3509 238.228 25.6102M12.6 251C16.8134 251 19.8618 245.548 19.8618 238.752C19.8618 231.956 16.601 226.392 12.3876 226.392M12.6 251C8.38649 251 4.60352 245.548 4.60352 238.752C4.60352 231.956 8.17411 226.392 12.3876 226.392M12.3876 226.392C14.0765 225.447 15.307 224.709 17.2758 222.002C20.1687 218.024 23.811 209.996 25.8894 201.822C31.756 178.748 33.5577 168.779 38.4197 145.974L38.5808 145.219C43.2796 123.177 48.2001 100.097 54.3564 82.4957C57.4544 73.6383 61.176 65.2213 65.9278 58.8075C70.6349 52.454 77.9149 46.0798 88.1677 46.0798C96.9883 46.0798 103.999 50.2846 109.183 55.623C114.193 60.781 118.058 67.5178 121.199 74.4167C127.335 87.8953 132.17 105.42 136.663 121.711M136.663 121.711C136.757 122.051 136.851 122.39 136.944 122.728M136.663 121.711L136.944 122.728M136.944 122.728C141.694 139.944 146.113 155.764 151.446 167.338C154.103 173.104 156.603 176.929 158.811 179.17C160.601 180.986 161.311 181.424 162.224 181.306C162.946 181.212 163.502 180.485 164.964 178.522C167.528 175.077 170.287 169.41 173.112 161.367C178.73 145.368 183.377 123.702 188.239 100.897L188.401 100.141C193.099 78.0997 198.02 55.0191 204.176 37.4182C207.274 28.5608 210.996 20.1439 215.748 13.73C220.455 7.37656 227.975 1 238.228 1M238.228 1C234.014 1 230.599 6.50918 230.599 13.3051C230.599 20.101 234.014 25.6102 238.228 25.6102M238.228 1C242.441 1 245.857 6.50918 245.857 13.3051C245.857 20.101 242.441 25.6102 238.228 25.6102" stroke="black" stroke-width="2" stroke-linejoin="round"/>
<path d="M238.228 25.6102C242.441 25.6102 245.857 20.101 245.857 13.3051C245.857 6.50918 242.441 1 238.228 1C234.014 1 230.599 6.50918 230.599 13.3051C230.599 20.101 234.014 25.6102 238.228 25.6102Z" fill="#F9F9F9"/>
<path d="M12.6 251C16.8134 251 19.8618 245.548 19.8618 238.752C19.8618 231.956 16.601 226.392 12.3876 226.392C8.17411 226.392 4.60352 231.956 4.60352 238.752C4.60352 245.548 8.38649 251 12.6 251Z" fill="#F9F9F9"/>
<path d="M238.228 25.6102C242.441 25.6102 245.857 20.101 245.857 13.3051C245.857 6.50918 242.441 1 238.228 1C234.014 1 230.599 6.50918 230.599 13.3051C230.599 20.101 234.014 25.6102 238.228 25.6102Z" stroke="black" stroke-width="2" stroke-linecap="round" stroke-linejoin="round"/>
<path d="M12.6 251C16.8134 251 19.8618 245.548 19.8618 238.752C19.8618 231.956 16.601 226.392 12.3876 226.392C8.17411 226.392 4.60352 231.956 4.60352 238.752C4.60352 245.548 8.38649 251 12.6 251Z" stroke="black" stroke-width="2" stroke-linecap="round" stroke-linejoin="round"/>
</svg>
