<svg width="251" height="252" viewBox="0 0 251 252" fill="none" xmlns="http://www.w3.org/2000/svg">
<path d="M171.273 223.109C163.404 227.829 151.739 230.695 137.941 231.178C110.126 232.151 78.4981 223.359 61.2876 208.457C62.5642 209.617 60.8139 213.912 57.3412 218.11C53.836 222.346 49.9032 224.88 48.5572 223.768C70.6556 242.937 107.516 252.002 138.633 250.913C154.309 250.364 169.664 247.106 181.445 240.04C193.631 232.731 202.207 221.085 202.207 205.115C202.207 196.261 200.289 188.567 196.473 182.068C192.661 175.574 187.304 170.867 181.341 167.44C169.823 160.822 155.199 158.557 142.515 157.134C138.989 156.739 135.626 156.406 132.429 156.09C123.214 155.179 115.382 154.405 109.037 152.657C104.932 151.526 102.724 150.279 101.626 149.253C100.902 148.576 100.382 147.806 100.382 145.905C100.382 145.339 100.445 145.016 100.484 144.87C100.503 144.796 100.519 144.755 100.527 144.738C100.534 144.722 100.537 144.716 100.538 144.714C100.54 144.713 100.546 144.702 100.564 144.681C100.582 144.66 100.619 144.62 100.683 144.562C100.813 144.445 101.061 144.253 101.494 144.009C103.696 142.769 107.268 141.887 113.55 140.55C113.915 140.472 114.287 140.393 114.666 140.313C125.736 137.972 142.694 134.385 153.799 119.513C158.639 113.032 161.147 105.247 162.459 97.1269C163.771 89.0091 163.982 79.9245 163.76 70.3668C163.583 62.7399 163.116 54.4609 162.631 45.8444L162.631 45.8415C162.508 43.6628 162.384 41.4626 162.264 39.246C161.66 28.1605 161.12 16.4438 161.12 4.15968C161.12 5.90464 157.309 7.31919 151.633 7.31919C145.957 7.31919 141.356 5.90464 141.356 4.15968C141.356 16.995 141.921 29.1431 142.529 40.3194C142.656 42.6368 142.783 44.9037 142.908 47.1223L142.908 47.1267C143.391 55.702 143.833 63.5563 144.002 70.8249C144.214 79.9736 143.972 87.6435 142.949 93.9795C141.925 100.313 140.216 104.682 137.959 107.704C131.58 116.246 121.637 118.638 109.432 121.236L108.856 121.359C103.611 122.473 96.9868 123.88 91.7888 126.807C88.8501 128.463 85.9097 130.826 83.7564 134.285C81.5727 137.793 80.619 141.754 80.619 145.905C80.619 153.098 83.281 159.147 88.1258 163.675C92.5961 167.852 98.3428 170.194 103.784 171.693C111.916 173.934 122.229 174.946 131.919 175.897C134.795 176.179 137.617 176.456 140.311 176.758C153.083 178.19 163.915 180.207 171.489 184.559C175.071 186.617 177.67 189.066 179.426 192.058C181.179 195.045 182.443 199.167 182.443 205.115C182.443 212.829 178.737 218.632 171.273 223.109Z" fill="#F9F9F9"/>
<path d="M108.856 121.359C103.611 122.473 96.9868 123.88 91.7888 126.807C88.8501 128.463 85.9097 130.826 83.7564 134.285C81.5727 137.793 80.619 141.754 80.619 145.905C80.619 153.098 83.281 159.147 88.1258 163.675C92.5961 167.852 98.3428 170.194 103.784 171.693C111.916 173.934 122.229 174.946 131.919 175.897C134.795 176.179 137.617 176.456 140.311 176.758C153.083 178.19 163.915 180.207 171.489 184.559C175.071 186.617 177.67 189.066 179.426 192.058C181.179 195.045 182.443 199.167 182.443 205.115C182.443 212.829 178.737 218.632 171.273 223.109C163.404 227.829 151.739 230.695 137.941 231.178C110.126 232.151 78.4981 223.359 61.2876 208.457M108.856 121.359C109.05 121.317 109.242 121.277 109.432 121.236M108.856 121.359L109.432 121.236M109.432 121.236C121.637 118.638 131.58 116.246 137.959 107.704C140.216 104.682 141.925 100.313 142.949 93.9795C143.972 87.6435 144.214 79.9737 144.002 70.8249C143.833 63.5563 143.391 55.702 142.908 47.1267L142.908 47.1223C142.783 44.9037 142.656 42.6368 142.529 40.3194C141.921 29.1431 141.356 16.995 141.356 4.15969M141.356 4.15969C141.356 5.90464 145.957 7.31919 151.633 7.31919C157.309 7.31919 161.12 5.90464 161.12 4.15968M141.356 4.15969C141.356 2.41473 145.957 1.00016 151.633 1.00016C157.309 1.00016 161.12 2.41473 161.12 4.15968M161.12 4.15968C161.12 16.4438 161.66 28.1605 162.264 39.246C162.384 41.4626 162.508 43.6628 162.631 45.8415L162.631 45.8444C163.116 54.461 163.583 62.7399 163.76 70.3669C163.982 79.9245 163.771 89.0091 162.459 97.1269C161.147 105.247 158.639 113.032 153.799 119.513C142.694 134.385 125.736 137.972 114.666 140.313C114.287 140.393 113.915 140.472 113.55 140.55C107.268 141.887 103.696 142.769 101.494 144.009C101.061 144.253 100.813 144.445 100.683 144.562C100.619 144.62 100.582 144.66 100.564 144.681C100.546 144.702 100.54 144.713 100.538 144.714C100.537 144.716 100.534 144.722 100.527 144.738C100.519 144.755 100.503 144.796 100.484 144.87C100.445 145.016 100.382 145.339 100.382 145.905C100.382 147.806 100.902 148.576 101.626 149.253C102.724 150.279 104.932 151.526 109.037 152.657C115.382 154.405 123.214 155.179 132.429 156.09C135.626 156.406 138.989 156.739 142.515 157.134C155.199 158.557 169.823 160.822 181.341 167.44C187.304 170.867 192.661 175.574 196.473 182.068C200.289 188.567 202.207 196.261 202.207 205.115C202.207 221.085 193.631 232.731 181.445 240.04C169.664 247.106 154.309 250.364 138.633 250.913C107.516 252.002 70.6556 242.937 48.5572 223.768M48.5572 223.768C49.9032 224.88 53.836 222.346 57.3412 218.11C60.8139 213.912 62.5642 209.617 61.2876 208.457M48.5572 223.768C47.2112 222.656 48.9616 218.32 52.4668 214.083C55.9721 209.847 59.9048 207.313 61.2509 208.425C61.2631 208.436 61.2753 208.446 61.2876 208.457" stroke="black" stroke-width="2" stroke-linejoin="round"/>
<path d="M61.2876 208.457C61.2753 208.446 61.2631 208.435 61.2509 208.425C59.9048 207.313 55.9721 209.846 52.4668 214.083C48.9616 218.32 47.2112 222.656 48.5572 223.768C49.9032 224.88 53.836 222.346 57.3412 218.109C60.8139 213.912 62.5642 209.617 61.2876 208.457Z" fill="#F9F9F9"/>
<path d="M161.12 4.15946C161.12 2.4145 157.309 0.999934 151.633 0.999934C145.957 0.999935 141.356 2.4145 141.356 4.15947C141.356 5.90441 145.957 7.31897 151.633 7.31897C157.309 7.31896 161.12 5.90441 161.12 4.15946Z" fill="#F9F9F9"/>
<path d="M61.2876 208.457C61.2753 208.446 61.2631 208.435 61.2509 208.425C59.9048 207.313 55.9721 209.846 52.4668 214.083C48.9616 218.32 47.2112 222.656 48.5572 223.768C49.9032 224.88 53.836 222.346 57.3412 218.109C60.8139 213.912 62.5642 209.617 61.2876 208.457Z" stroke="black" stroke-width="2" stroke-linecap="round" stroke-linejoin="round"/>
<path d="M161.12 4.15946C161.12 2.4145 157.309 0.999934 151.633 0.999934C145.957 0.999935 141.356 2.4145 141.356 4.15947C141.356 5.90441 145.957 7.31897 151.633 7.31897C157.309 7.31896 161.12 5.90441 161.12 4.15946Z" stroke="black" stroke-width="2" stroke-linecap="round" stroke-linejoin="round"/>
</svg>
