<svg width="251" height="252" viewBox="0 0 251 252" fill="none" xmlns="http://www.w3.org/2000/svg">
<path d="M140.27 5.54064C140.27 8.04837 133.48 10.0813 125.103 10.0813C116.727 10.0813 109.936 8.04837 109.936 5.54064V136.225L17.5733 228.937C19.3398 227.164 25.5736 230.546 31.4967 236.492C37.4199 242.438 40.7695 248.704 39.0029 250.477L125.079 164.076L210.946 250.526C209.186 248.748 212.555 242.495 218.475 236.552C224.398 230.607 230.632 227.225 232.398 228.998L140.27 136.522V5.54064Z" fill="#F9F9F9"/>
<path d="M109.936 5.54064C109.936 8.04837 116.727 10.0813 125.103 10.0813C133.48 10.0813 140.27 8.04837 140.27 5.54064M109.936 5.54064C109.936 3.03291 116.727 1 125.103 1C133.48 1 140.27 3.03291 140.27 5.54064M109.936 5.54064V136.225L17.5733 228.937M140.27 5.54064V136.522L232.398 228.998M17.5733 228.937C19.3398 227.164 25.5736 230.546 31.4967 236.492C37.4199 242.438 40.7695 248.704 39.0029 250.477M17.5733 228.937C15.8067 230.711 19.1763 236.968 25.0995 242.913C31.0226 248.859 37.2364 252.25 39.0029 250.477M39.0029 250.477L125.079 164.076L210.946 250.526M232.398 228.998C230.632 227.225 224.398 230.607 218.475 236.552C212.555 242.495 209.186 248.748 210.946 250.526M232.398 228.998C234.165 230.771 230.795 237.028 224.872 242.974C218.949 248.919 212.715 252.302 210.948 250.528M210.948 250.528L210.946 250.526M210.948 250.528C210.947 250.527 210.947 250.526 210.946 250.526" stroke="black" stroke-width="2" stroke-linejoin="round"/>
<path d="M140.27 5.54064C140.27 8.04837 133.48 10.0813 125.103 10.0813C116.727 10.0813 109.936 8.04837 109.936 5.54064C109.936 3.03291 116.727 1 125.103 1C133.48 1 140.27 3.03291 140.27 5.54064Z" fill="#F9F9F9"/>
<path d="M39.0029 250.477C40.7695 248.704 37.4199 242.438 31.4967 236.492C25.5736 230.546 19.3398 227.164 17.5733 228.937C15.8067 230.711 19.1763 236.968 25.0995 242.913C31.0226 248.859 37.2364 252.25 39.0029 250.477Z" fill="#F9F9F9"/>
<path d="M210.948 250.528C209.182 248.755 212.551 242.498 218.475 236.552C224.398 230.607 230.632 227.225 232.398 228.998C234.165 230.771 230.795 237.028 224.872 242.974C218.949 248.919 212.715 252.302 210.948 250.528Z" fill="#F9F9F9"/>
<path d="M140.27 5.54064C140.27 8.04837 133.48 10.0813 125.103 10.0813C116.727 10.0813 109.936 8.04837 109.936 5.54064C109.936 3.03291 116.727 1 125.103 1C133.48 1 140.27 3.03291 140.27 5.54064Z" stroke="black" stroke-width="2" stroke-linejoin="round"/>
<path d="M39.0029 250.477C40.7695 248.704 37.4199 242.438 31.4967 236.492C25.5736 230.546 19.3398 227.164 17.5733 228.937C15.8067 230.711 19.1763 236.968 25.0995 242.913C31.0226 248.859 37.2364 252.25 39.0029 250.477Z" stroke="black" stroke-width="2" stroke-linejoin="round"/>
<path d="M210.948 250.528C209.182 248.755 212.551 242.498 218.475 236.552C224.398 230.607 230.632 227.225 232.398 228.998C234.165 230.771 230.795 237.028 224.872 242.974C218.949 248.919 212.715 252.302 210.948 250.528Z" stroke="black" stroke-width="2" stroke-linejoin="round"/>
</svg>
