<svg width="253" height="252" viewBox="0 0 253 252" fill="none" xmlns="http://www.w3.org/2000/svg">
<path d="M137.372 4.21112C137.372 5.98457 132.327 7.42223 126.104 7.42223C119.88 7.42223 114.835 5.98457 114.835 4.21112C114.835 2.43767 119.88 1 126.104 1C132.327 1 137.372 2.43767 137.372 4.21112Z" fill="#F9F9F9"/>
<path d="M4.31463 114.732C6.08808 114.732 7.52575 119.777 7.52575 126C7.52575 132.223 6.08808 137.268 4.31463 137.268C2.54118 137.268 1.10352 132.223 1.10352 126C1.10352 119.777 2.54118 114.732 4.31463 114.732Z" fill="#F9F9F9"/>
<path d="M47.9535 31.9145C49.2075 33.1686 46.6568 37.7524 42.2564 42.1529C37.8559 46.5534 33.272 49.1041 32.018 47.85C30.764 46.596 33.3147 42.0122 37.7152 37.6117C42.1156 33.2112 46.6995 30.6605 47.9535 31.9145Z" fill="#F9F9F9"/>
<path d="M32.018 204.15C33.272 202.896 37.8559 205.447 42.2564 209.847C46.6568 214.248 49.2075 218.831 47.9535 220.085C46.6995 221.339 42.1156 218.789 37.7152 214.388C33.3147 209.988 30.764 205.404 32.018 204.15Z" fill="#F9F9F9"/>
<path d="M114.835 247.789C114.835 246.015 119.88 244.578 126.104 244.578C132.327 244.578 137.372 246.015 137.372 247.789C137.372 249.562 132.327 251 126.104 251C119.88 251 114.835 249.562 114.835 247.789Z" fill="#F9F9F9"/>
<path d="M247.892 137.268C246.119 137.268 244.681 132.223 244.681 126C244.681 119.777 246.119 114.732 247.892 114.732C249.666 114.732 251.104 119.777 251.104 126C251.104 132.223 249.666 137.268 247.892 137.268Z" fill="#F9F9F9"/>
<path d="M204.254 220.085C202.999 218.831 205.55 214.248 209.951 209.847C214.351 205.447 218.935 202.896 220.189 204.15C221.443 205.404 218.892 209.988 214.492 214.388C210.091 218.789 205.508 221.339 204.254 220.085Z" fill="#F9F9F9"/>
<path d="M220.189 47.85C218.935 49.1041 214.351 46.5534 209.951 42.1529C205.55 37.7524 202.999 33.1686 204.254 31.9145C205.508 30.6605 210.091 33.2112 214.492 37.6117C218.892 42.0122 221.443 46.596 220.189 47.85Z" fill="#F9F9F9"/>
<path d="M137.372 4.21112C137.372 5.98457 132.327 7.42223 126.104 7.42223C119.88 7.42223 114.835 5.98457 114.835 4.21112M137.372 4.21112C137.372 2.43767 132.327 1 126.104 1C119.88 1 114.835 2.43767 114.835 4.21112M137.372 4.21112V98.7964L204.254 31.9145M114.835 4.21112L114.835 98.7964L47.9535 31.9145M4.31463 114.732C6.08808 114.732 7.52575 119.777 7.52575 126C7.52575 132.223 6.08808 137.268 4.31463 137.268M4.31463 114.732C2.54118 114.732 1.10352 119.777 1.10352 126C1.10352 132.223 2.54118 137.268 4.31463 137.268M4.31463 114.732H98.8999L32.018 47.85M4.31463 137.268H98.8999L32.018 204.15M47.9535 31.9145C49.2075 33.1686 46.6568 37.7524 42.2564 42.1529C37.8559 46.5534 33.272 49.1041 32.018 47.85M47.9535 31.9145C46.6995 30.6605 42.1156 33.2112 37.7152 37.6117C33.3147 42.0122 30.764 46.596 32.018 47.85M32.018 204.15C33.272 202.896 37.8559 205.447 42.2564 209.847C46.6568 214.248 49.2075 218.831 47.9535 220.085M32.018 204.15C30.764 205.404 33.3147 209.988 37.7152 214.388C42.1156 218.789 46.6995 221.339 47.9535 220.085M47.9535 220.085L114.835 153.204V247.789M114.835 247.789C114.835 246.015 119.88 244.578 126.104 244.578C132.327 244.578 137.372 246.015 137.372 247.789M114.835 247.789C114.835 249.562 119.88 251 126.104 251C132.327 251 137.372 249.562 137.372 247.789M137.372 247.789L137.372 153.204L204.254 220.085M247.892 137.268C246.119 137.268 244.681 132.223 244.681 126C244.681 119.777 246.119 114.732 247.892 114.732M247.892 137.268C249.666 137.268 251.104 132.223 251.104 126C251.104 119.777 249.666 114.732 247.892 114.732M247.892 137.268H153.307L220.189 204.15M247.892 114.732L153.307 114.732L220.189 47.85M204.254 220.085C202.999 218.831 205.55 214.248 209.951 209.847C214.351 205.447 218.935 202.896 220.189 204.15M204.254 220.085C205.508 221.339 210.091 218.789 214.492 214.388C218.892 209.988 221.443 205.404 220.189 204.15M220.189 47.85C218.935 49.1041 214.351 46.5534 209.951 42.1529C205.55 37.7524 202.999 33.1686 204.254 31.9145M220.189 47.85C221.443 46.596 218.892 42.0122 214.492 37.6117C210.091 33.2112 205.508 30.6605 204.254 31.9145" stroke="black" stroke-width="2" stroke-linejoin="round"/>
<path d="M137.373 4.21094C137.373 5.98439 132.328 7.42205 126.105 7.42205C119.882 7.42205 114.837 5.98439 114.837 4.21094L114.837 98.7963L47.9553 31.9144C49.2093 33.1684 46.6586 37.7523 42.2582 42.1527C37.8577 46.5532 33.2738 49.1039 32.0198 47.8499L98.9017 114.732H4.31641C6.08986 114.732 7.52752 119.777 7.52752 126C7.52752 132.223 6.08986 137.268 4.31641 137.268H98.9017L32.0198 204.15C33.2738 202.896 37.8577 205.446 42.2581 209.847C46.6586 214.247 49.2093 218.831 47.9553 220.085L114.837 153.203V247.789C114.837 246.015 119.882 244.578 126.105 244.578C132.328 244.578 137.373 246.015 137.373 247.789V153.203L204.255 220.085C203.001 218.831 205.552 214.247 209.952 209.847C214.353 205.446 218.937 202.896 220.191 204.15L153.309 137.268H247.894C246.121 137.268 244.683 132.223 244.683 126C244.683 119.777 246.121 114.732 247.894 114.732L153.309 114.732L220.191 47.8499C218.937 49.1039 214.353 46.5532 209.952 42.1527C205.552 37.7522 203.001 33.1684 204.255 31.9144L137.373 98.7962V4.21094Z" fill="#F9F9F9" stroke="black" stroke-width="2" stroke-linejoin="round"/>
</svg>
