<svg width="251" height="252" viewBox="0 0 251 252" fill="none" xmlns="http://www.w3.org/2000/svg">
<path d="M135.982 4.14764C135.982 5.88603 131.247 7.29528 125.407 7.29528C119.566 7.29528 114.831 5.88603 114.831 4.14764C114.831 2.40925 119.566 1 125.407 1C131.247 1 135.982 2.40925 135.982 4.14764Z" fill="#F9F9F9"/>
<path d="M65.373 173.941C66.6047 172.712 64.2692 168.368 60.1392 164.247C56.0093 160.125 51.6628 157.78 50.4311 159.01C49.1993 160.239 51.5488 164.577 55.6787 168.698C59.8087 172.82 64.1412 175.171 65.373 173.941Z" fill="#F9F9F9"/>
<path d="M185.263 173.977L185.261 173.975C184.033 172.743 186.383 168.408 190.51 164.289C194.64 160.167 198.987 157.822 200.218 159.052C201.45 160.281 199.101 164.618 194.971 168.74C190.841 172.861 186.494 175.206 185.263 173.977Z" fill="#F9F9F9"/>
<path d="M114.667 247.852C114.667 246.114 119.402 244.705 125.243 244.705C131.083 244.705 135.818 246.114 135.818 247.852C135.818 249.591 131.083 251 125.243 251C119.402 251 114.667 249.591 114.667 247.852Z" fill="#F9F9F9"/>
<path d="M185.277 78.0585C184.045 79.2877 186.38 83.6318 190.51 87.7533C194.64 91.8749 198.987 94.2195 200.218 92.9903C201.45 91.7611 199.101 87.4234 194.971 83.3019C190.841 79.1803 186.508 76.8293 185.277 78.0585Z" fill="#F9F9F9"/>
<path d="M65.3869 78.023L65.3889 78.0251C66.616 79.2571 64.2669 83.5922 60.1392 87.7115C56.0093 91.833 51.6628 94.1777 50.4311 92.9484C49.1993 91.7192 51.5488 87.3816 55.6787 83.26C59.8087 79.1385 64.1552 76.7938 65.3869 78.023Z" fill="#F9F9F9"/>
<path d="M114.831 4.14764C114.831 5.88603 119.566 7.29528 125.407 7.29528C131.247 7.29528 135.982 5.88603 135.982 4.14764M114.831 4.14764C114.831 2.40925 119.566 1 125.407 1C131.247 1 135.982 2.40925 135.982 4.14764M114.831 4.14764V94.7404L98.4351 111.103L65.3889 78.0251M135.982 4.14764V94.9459L152.168 111.099L185.277 78.0585M50.4311 159.01C51.6628 157.78 56.0093 160.125 60.1392 164.247C64.2692 168.368 66.6047 172.712 65.373 173.941M50.4311 159.01C49.1993 160.239 51.5488 164.577 55.6787 168.698C59.8087 172.82 64.1412 175.171 65.373 173.941M50.4311 159.01L83.529 125.979L50.4311 92.9484M65.373 173.941L98.4811 140.901L114.667 157.054L114.667 247.852M200.218 159.052C198.987 157.822 194.64 160.167 190.51 164.289C186.383 168.408 184.033 172.743 185.261 173.975M200.218 159.052C201.45 160.281 199.101 164.618 194.971 168.74C190.841 172.862 186.494 175.206 185.263 173.977M200.218 159.052L167.12 126.021L200.218 92.9903M185.263 173.977L185.261 173.975M185.263 173.977L185.261 173.975M135.818 247.852C135.818 246.114 131.083 244.705 125.243 244.705C119.402 244.705 114.667 246.114 114.667 247.852M135.818 247.852C135.818 249.591 131.083 251 125.243 251C119.402 251 114.667 249.591 114.667 247.852M135.818 247.852L135.818 157.26L151.469 141.64L152.214 140.897L185.261 173.975M200.218 92.9903C198.987 94.2195 194.64 91.8749 190.51 87.7533C186.38 83.6318 184.045 79.2877 185.277 78.0585M200.218 92.9903C201.45 91.7611 199.101 87.4234 194.971 83.3019C190.841 79.1803 186.508 76.8293 185.277 78.0585M50.4311 92.9484C51.6628 94.1777 56.0093 91.833 60.1392 87.7115C64.2669 83.5922 66.616 79.2571 65.3889 78.0251M50.4311 92.9484C49.1993 91.7192 51.5488 87.3816 55.6787 83.26C59.8087 79.1385 64.1552 76.7938 65.3869 78.023M65.3869 78.023L65.3889 78.0251M65.3869 78.023L65.3889 78.0251M125.39 114.046L137.285 125.953L125.259 137.954L113.365 126.047L125.39 114.046Z" stroke="black" stroke-width="2" stroke-linejoin="round"/>
<path fill-rule="evenodd" clip-rule="evenodd" d="M135.983 4.14844C135.983 5.88683 131.248 7.29608 125.407 7.29608C119.567 7.29608 114.832 5.88683 114.832 4.14844V94.7412L98.4357 111.104L65.3895 78.0259C66.6166 79.2579 64.2675 83.593 60.1398 87.7123C56.0099 91.8338 51.6634 94.1785 50.4316 92.9492L83.5296 125.98L50.4316 159.01C51.6634 157.781 56.0099 160.126 60.1398 164.247C64.2698 168.369 66.6053 172.713 65.3735 173.942L98.4817 140.901L114.668 157.055L114.668 247.853C114.668 246.115 119.403 244.706 125.243 244.706C131.084 244.706 135.819 246.115 135.819 247.853L135.819 157.26L151.47 141.641L152.215 140.897L185.261 173.976C184.034 172.744 186.383 168.409 190.511 164.289C194.641 160.168 198.987 157.823 200.219 159.052L167.121 126.022L200.219 92.9911C198.987 94.2203 194.641 91.8756 190.511 87.7541C186.381 83.6326 184.045 79.2885 185.277 78.0593L152.169 111.1L135.983 94.9467V4.14844ZM125.391 114.047L137.285 125.953L125.26 137.954L113.365 126.048L125.391 114.047Z" fill="#F9F9F9" stroke="black" stroke-width="2" stroke-linejoin="round"/>
</svg>
