<svg width="251" height="253" viewBox="0 0 251 253" fill="none" xmlns="http://www.w3.org/2000/svg">
<path d="M55.0503 41.6426C74.1583 29.5432 74.1172 28.8083 104.361 14.8981C102.491 15.8576 99.5203 13.801 97.7259 10.3044C95.9315 6.80776 95.9926 3.19531 97.8624 2.23573C68.2458 15.8574 67.4823 17.2455 47.5813 29.8471C37.5681 36.1875 29.0947 42.7738 23.5923 49.7244C18.0002 56.7883 14.8417 65.1282 17.6415 74.0917C19.2115 79.118 22.2458 82.9848 26.4354 85.5439C30.463 88.0041 35.1435 89.0095 39.7988 89.2363C48.9838 89.6838 59.956 87.1706 70.6879 83.7578C81.576 80.2953 92.9606 75.6551 103.17 71.3321C105.833 70.2042 108.4 69.1054 110.856 68.0544C117.973 65.0077 124.151 62.3634 129.01 60.5821C139.4 56.7726 147.986 56.2343 154.215 57.3913C160.54 58.5662 163.928 61.3356 165.256 63.702C166.401 65.7419 166.678 68.6178 164.088 72.3765C161.333 76.3742 155.317 81.1925 144.283 85.1514C116.035 95.2855 87.2639 106.056 67.5649 117.987C57.7744 123.918 49.3912 130.614 44.6527 138.359C42.2195 142.336 40.6623 146.729 40.5087 151.475C40.3543 156.243 41.6328 160.906 44.166 165.369C47.7617 171.704 53.7042 174.747 60.1538 175.696C66.328 176.605 73.3277 175.688 80.3626 174.012C93.0282 170.996 108.034 164.931 122.527 159.072L122.549 159.063C124.144 158.419 125.733 157.776 127.312 157.141C143.699 150.546 158.979 144.702 170.917 142.924C176.871 142.037 181.165 142.305 184.052 143.382C186.527 144.305 188.329 145.927 189.439 149.26C190.584 152.696 189.712 156.017 185.196 160.604C180.583 165.29 173.627 169.731 165.655 174.82L165.138 175.15C157.405 180.087 148.668 185.699 142.673 192.246C136.401 199.096 132.205 208.063 135.944 218.873C137.539 223.484 140.229 227.073 144.02 229.466C147.66 231.763 151.74 232.591 155.547 232.83C159.343 233.067 163.386 232.743 167.255 232.322C168.943 232.138 170.537 231.944 172.116 231.752C174.425 231.472 176.703 231.195 179.2 230.958C187.295 230.191 194.903 230.192 201.793 232.7C208.394 235.103 215.016 240.063 220.683 250.605C219.736 248.764 221.679 245.769 225.07 243.873C228.5 241.954 232.113 241.886 233.139 243.721C226.013 230.43 216.735 223.281 206.569 219.581C196.679 215.981 186.523 216.24 177.882 217.059C175.303 217.304 172.585 217.632 170.071 217.935L170.07 217.936C168.524 218.122 167.056 218.299 165.744 218.442C162.011 218.849 158.959 219.055 156.419 218.896C153.891 218.737 152.395 218.242 151.471 217.659C150.697 217.17 149.834 216.322 149.138 214.31C147.669 210.062 148.725 206.31 152.97 201.675C157.491 196.737 164.535 192.099 172.651 186.917C173.054 186.66 173.46 186.401 173.868 186.141C181.226 181.45 189.39 176.245 195.146 170.398C201.418 164.026 206.206 155.416 202.685 144.847C200.264 137.581 195.432 132.725 188.93 130.3C182.838 128.029 175.812 128.079 168.86 129.115C154.987 131.181 138.12 137.742 122.1 144.188C120.537 144.817 118.981 145.446 117.434 146.071C102.67 152.033 88.6983 157.676 77.1283 160.431C70.7388 161.952 65.7685 162.411 62.1868 161.884C58.8804 161.397 57.2808 160.192 56.3081 158.478C54.8668 155.938 54.4024 153.792 54.4628 151.926C54.5239 150.038 55.1391 147.971 56.562 145.645C59.5356 140.785 65.599 135.501 74.7981 129.929C93.0782 118.857 120.457 108.532 148.997 98.2926C161.618 93.7645 170.585 87.5529 175.584 80.2979C180.748 72.8041 181.549 64.2052 177.431 56.8685C173.496 49.8581 165.833 45.3492 156.765 43.6647C147.601 41.9625 136.45 42.9839 124.204 47.474C118.966 49.3942 112.273 52.2594 105.033 55.3593C102.646 56.3811 100.199 57.4284 97.7259 58.4759C87.5727 62.7752 76.6894 67.1991 66.4569 70.4531C56.068 73.7568 47.0667 75.6125 40.4782 75.2915C37.2469 75.134 35.0906 74.4709 33.7131 73.6295C32.4975 72.887 31.5583 71.8193 30.9679 69.9293C30.0419 66.9646 30.5922 63.3753 34.5387 58.3901C38.575 53.2916 45.47 47.709 55.0503 41.6426Z" fill="#F9F9F9"/>
<path d="M104.361 14.8981C74.1172 28.8083 74.1583 29.5432 55.0503 41.6426C45.47 47.709 38.575 53.2916 34.5387 58.3901C30.5922 63.3753 30.0419 66.9646 30.9679 69.9293C31.5583 71.8193 32.4975 72.887 33.7131 73.6295C35.0906 74.4709 37.2469 75.134 40.4782 75.2915C47.0667 75.6125 56.068 73.7568 66.4569 70.4531C76.6894 67.1991 87.5727 62.7752 97.7259 58.4759C100.199 57.4284 102.646 56.3811 105.033 55.3593C112.273 52.2594 118.966 49.3942 124.204 47.474C136.45 42.9839 147.601 41.9625 156.765 43.6647C165.833 45.3492 173.496 49.8581 177.431 56.8685C181.549 64.2053 180.748 72.8041 175.584 80.2979C170.585 87.5529 161.618 93.7645 148.997 98.2926C120.457 108.532 93.0782 118.857 74.7981 129.929C65.599 135.501 59.5356 140.785 56.562 145.645C55.1391 147.971 54.5239 150.038 54.4628 151.926C54.4024 153.792 54.8668 155.938 56.3081 158.478C57.2808 160.192 58.8804 161.397 62.1868 161.884C65.7685 162.411 70.7388 161.952 77.1283 160.431C88.6983 157.676 102.67 152.033 117.434 146.071C118.981 145.446 120.537 144.817 122.1 144.188C138.12 137.742 154.987 131.181 168.86 129.115C175.812 128.079 182.838 128.029 188.93 130.3C195.432 132.725 200.264 137.581 202.685 144.847C206.206 155.416 201.418 164.026 195.146 170.398C189.39 176.245 181.226 181.45 173.868 186.141C173.46 186.401 173.054 186.66 172.651 186.917C164.535 192.099 157.491 196.737 152.97 201.675C148.725 206.31 147.669 210.062 149.138 214.31C149.834 216.322 150.697 217.17 151.471 217.659C152.395 218.242 153.891 218.737 156.419 218.896C158.959 219.055 162.011 218.849 165.744 218.442C167.056 218.299 168.524 218.122 170.07 217.936L170.071 217.935C172.585 217.632 175.303 217.304 177.882 217.059C186.523 216.24 196.679 215.981 206.569 219.581C216.735 223.281 226.013 230.43 233.139 243.721M104.361 14.8981C106.23 13.9385 106.292 10.326 104.497 6.82942C102.703 3.33282 99.7322 1.27616 97.8624 2.23573M104.361 14.8981C102.491 15.8576 99.5203 13.801 97.7259 10.3044C95.9315 6.80776 95.9926 3.19531 97.8624 2.23573M233.139 243.721C234.164 245.555 232.215 248.597 228.785 250.515C225.355 252.434 221.743 252.502 220.717 250.668C220.705 250.647 220.694 250.626 220.683 250.605M233.139 243.721C232.113 241.886 228.5 241.954 225.07 243.873C221.679 245.769 219.736 248.764 220.683 250.605M122.527 159.072C108.034 164.931 93.0282 170.996 80.3626 174.012C73.3277 175.688 66.328 176.605 60.1538 175.696C53.7042 174.747 47.7617 171.705 44.166 165.369C41.6328 160.906 40.3543 156.243 40.5087 151.475C40.6623 146.729 42.2195 142.336 44.6527 138.359C49.3912 130.614 57.7744 123.918 67.5649 117.987C87.2639 106.056 116.035 95.2855 144.283 85.1514C155.317 81.1925 161.333 76.3742 164.088 72.3766C166.678 68.6178 166.401 65.7419 165.256 63.7019C163.928 61.3356 160.54 58.5662 154.215 57.3913C147.986 56.2343 139.4 56.7726 129.01 60.5821C124.151 62.3634 117.973 65.0077 110.856 68.0544C108.4 69.1054 105.833 70.2042 103.17 71.3321C92.9606 75.6551 81.576 80.2953 70.6879 83.7578C59.956 87.1706 48.9838 89.6838 39.7988 89.2363C35.1435 89.0095 30.463 88.0041 26.4354 85.5439C22.2458 82.9848 19.2115 79.118 17.6415 74.0917C14.8417 65.1282 18.0002 56.7883 23.5923 49.7244C29.0947 42.7738 37.5681 36.1875 47.5813 29.8471C67.4823 17.2455 68.2458 15.8574 97.8624 2.23573M122.527 159.072L122.549 159.063M122.527 159.072C122.535 159.069 122.542 159.066 122.549 159.063M122.549 159.063C124.144 158.419 125.733 157.776 127.312 157.141C143.699 150.546 158.979 144.702 170.917 142.924C176.871 142.037 181.165 142.305 184.052 143.382C186.527 144.305 188.329 145.927 189.439 149.26C190.584 152.696 189.712 156.017 185.196 160.604C180.583 165.29 173.627 169.731 165.655 174.82L165.138 175.15C157.405 180.087 148.668 185.699 142.673 192.246C136.401 199.096 132.205 208.063 135.944 218.873C137.539 223.484 140.229 227.073 144.02 229.466C147.66 231.763 151.74 232.591 155.547 232.83C159.343 233.067 163.386 232.743 167.255 232.322C168.943 232.138 170.537 231.944 172.116 231.752C174.425 231.472 176.703 231.195 179.2 230.958C187.295 230.191 194.903 230.192 201.793 232.7C208.394 235.103 215.016 240.063 220.683 250.605" stroke="black" stroke-width="2" stroke-linejoin="round"/>
<path d="M104.499 6.82942C102.705 3.33282 99.7341 1.27616 97.8643 2.23573C95.9944 3.19531 95.9333 6.80776 97.7277 10.3044C99.5221 13.801 102.493 15.8576 104.362 14.8981C106.232 13.9385 106.293 10.326 104.499 6.82942Z" fill="#F9F9F9"/>
<path d="M228.787 250.515C232.217 248.597 234.166 245.555 233.14 243.721C232.115 241.886 228.502 241.954 225.072 243.873C221.681 245.769 219.737 248.764 220.685 250.605C220.696 250.626 220.707 250.647 220.719 250.668C221.745 252.502 225.357 252.434 228.787 250.515Z" fill="#F9F9F9"/>
<path d="M104.499 6.82942C102.705 3.33282 99.7341 1.27616 97.8643 2.23573C95.9944 3.19531 95.9333 6.80776 97.7277 10.3044C99.5221 13.801 102.493 15.8576 104.362 14.8981C106.232 13.9385 106.293 10.326 104.499 6.82942Z" stroke="black" stroke-width="2" stroke-linecap="round" stroke-linejoin="round"/>
<path d="M228.787 250.515C232.217 248.597 234.166 245.555 233.14 243.721C232.115 241.886 228.502 241.954 225.072 243.873C221.681 245.769 219.737 248.764 220.685 250.605C220.696 250.626 220.707 250.647 220.719 250.668C221.745 252.502 225.357 252.434 228.787 250.515Z" stroke="black" stroke-width="2" stroke-linecap="round" stroke-linejoin="round"/>
</svg>
