<svg width="253" height="250" viewBox="0 0 253 250" fill="none" xmlns="http://www.w3.org/2000/svg">
<path d="M25.5045 81.0845C14.6452 71.0907 9.47725 57.1244 9.47725 43.4496C9.47725 44.2503 7.60273 44.8993 5.29038 44.8993C2.97804 44.8993 1.10352 44.2503 1.10352 43.4496C1.10352 59.09 7.33671 75.3086 20.0528 87.0112C32.8268 98.7672 52.0573 105.595 77.9663 103.19C91.2461 101.958 102.382 101.365 111.748 101.965C121.106 102.565 128.423 104.343 134.215 107.649C145.512 114.095 152.457 127.255 155.561 154.244C160.5 197.186 205.973 219.729 250.403 202.791C249.63 202.998 248.534 201.413 247.954 199.251C247.401 197.186 247.519 195.341 248.204 194.999C207.323 210.525 167.735 189.623 163.56 153.324C160.384 125.71 152.997 109.094 138.206 100.653C130.954 96.5151 122.289 94.571 112.263 93.9283C102.244 93.286 90.5937 93.93 77.2224 95.171C53.1467 97.4053 36.3057 91.0249 25.5045 81.0845Z" fill="#F9F9F9"/>
<path d="M9.47725 43.4496C9.47725 57.1244 14.6452 71.0907 25.5045 81.0845C36.3057 91.0249 53.1467 97.4053 77.2224 95.171C90.5937 93.93 102.244 93.286 112.263 93.9283C122.289 94.571 130.954 96.5151 138.206 100.653C152.997 109.094 160.384 125.71 163.56 153.324C167.735 189.623 207.323 210.525 248.204 194.999M9.47725 43.4496C9.47725 44.2503 7.60273 44.8993 5.29038 44.8993C2.97804 44.8993 1.10352 44.2503 1.10352 43.4496M9.47725 43.4496C9.47725 42.649 7.60273 42 5.29038 42C2.97804 42 1.10352 42.649 1.10352 43.4496M248.305 194.96C249.078 194.753 250.175 196.338 250.754 198.5C251.333 200.663 251.176 202.584 250.403 202.791M248.305 194.96C248.27 194.97 248.237 194.982 248.204 194.999M248.305 194.96C248.272 194.973 248.238 194.986 248.204 194.999M248.305 194.96L248.204 194.999M250.403 202.791C205.973 219.729 160.5 197.186 155.561 154.244C152.457 127.255 145.512 114.095 134.215 107.649C128.423 104.343 121.106 102.565 111.748 101.965C102.382 101.365 91.2461 101.958 77.9663 103.19C52.0573 105.595 32.8268 98.7672 20.0528 87.0112C7.33671 75.3086 1.10352 59.09 1.10352 43.4496M250.403 202.791C249.63 202.998 248.534 201.413 247.954 199.251C247.401 197.186 247.519 195.341 248.204 194.999" stroke="black" stroke-width="2" stroke-linejoin="round"/>
<path d="M247.954 199.251C248.534 201.413 249.63 202.998 250.403 202.791C251.176 202.584 251.333 200.663 250.754 198.5C250.175 196.338 249.078 194.753 248.305 194.96L248.204 194.999C247.519 195.341 247.401 197.186 247.954 199.251Z" fill="#F9F9F9"/>
<path d="M5.29038 44.8993C7.60273 44.8993 9.47725 44.2503 9.47725 43.4496C9.47725 42.649 7.60273 42 5.29038 42C2.97804 42 1.10352 42.649 1.10352 43.4496C1.10352 44.2503 2.97804 44.8993 5.29038 44.8993Z" fill="#F9F9F9"/>
<path d="M247.954 199.251C248.534 201.413 249.63 202.998 250.403 202.791C251.176 202.584 251.333 200.663 250.754 198.5C250.175 196.338 249.078 194.753 248.305 194.96L248.204 194.999C247.519 195.341 247.401 197.186 247.954 199.251Z" stroke="black" stroke-width="2" stroke-linecap="round" stroke-linejoin="round"/>
<path d="M5.29038 44.8993C7.60273 44.8993 9.47725 44.2503 9.47725 43.4496C9.47725 42.649 7.60273 42 5.29038 42C2.97804 42 1.10352 42.649 1.10352 43.4496C1.10352 44.2503 2.97804 44.8993 5.29038 44.8993Z" stroke="black" stroke-width="2" stroke-linecap="round" stroke-linejoin="round"/>
</svg>
