<svg width="253" height="250" viewBox="0 0 253 250" fill="none" xmlns="http://www.w3.org/2000/svg">
<path d="M13.924 193.936C30.697 193.936 41.1543 181.311 47.6264 170.025C54.2492 158.476 59.451 143.533 64.1346 130.079L64.3593 129.433C69.3504 115.098 73.8201 102.383 79.0953 93.1472C84.6365 83.4459 88.4455 82.141 90.4365 82.141C92.3961 82.141 96.1617 83.4057 101.644 93.0994C106.866 102.335 111.267 115.042 116.215 129.397L116.322 129.706C120.994 143.258 126.207 158.378 132.942 170.054C139.516 181.449 150.078 193.936 166.949 193.936C183.876 193.936 194.35 181.38 200.805 169.954C207.41 158.263 212.446 143.131 216.954 129.587L217.06 129.267C221.84 114.906 226.084 102.216 231.187 92.9978C236.538 83.3322 240.228 82.141 242.129 82.141C237.173 82.141 233.155 76.4011 233.155 69.3205C233.155 62.2399 237.173 56.5 242.129 56.5C225.282 56.5 215.008 69.2831 208.754 80.5791C202.441 91.9837 197.544 106.703 193.124 119.988L192.732 121.169C187.964 135.493 183.666 148.163 178.48 157.341C173.094 166.876 169.245 168.295 166.949 168.295C164.596 168.295 160.67 166.807 155.152 157.241C149.847 148.044 145.392 135.357 140.456 121.039L140.052 119.867C135.472 106.575 130.404 91.8674 123.963 80.4776C117.591 69.2097 107.224 56.5 90.4365 56.5C73.68 56.5 63.262 69.1695 56.8303 80.4297C50.2667 91.9209 45.0944 106.78 40.4295 120.182L40.144 121.003C35.1554 135.331 30.6749 148.042 25.3832 157.27C19.8349 166.945 15.9937 168.295 13.924 168.295C6.84345 168.295 1.10352 174.035 1.10352 181.115C1.10352 188.196 6.84345 193.936 13.924 193.936Z" fill="#F9F9F9"/>
<path d="M40.144 121.003C35.1554 135.331 30.6749 148.042 25.3832 157.27C19.8349 166.945 15.9937 168.295 13.924 168.295C6.84346 168.295 1.10352 174.035 1.10352 181.115C1.10352 188.196 6.84346 193.936 13.924 193.936C30.697 193.936 41.1543 181.311 47.6264 170.025C54.2492 158.476 59.451 143.533 64.1346 130.079L64.3593 129.433C69.3504 115.098 73.8201 102.383 79.0953 93.1472C84.6365 83.4459 88.4455 82.141 90.4365 82.141C92.3961 82.141 96.1617 83.4057 101.644 93.0994C106.866 102.335 111.267 115.042 116.215 129.397L116.322 129.706C120.994 143.258 126.207 158.378 132.942 170.054C139.515 181.449 150.078 193.936 166.949 193.936C183.876 193.936 194.35 181.38 200.805 169.954C207.41 158.263 212.446 143.131 216.954 129.587L217.06 129.267C221.84 114.906 226.084 102.216 231.187 92.9978C236.538 83.3322 240.228 82.141 242.129 82.141M40.144 121.003C40.2389 120.73 40.3341 120.456 40.4295 120.182M40.144 121.003L40.4295 120.182M40.4295 120.182C45.0944 106.78 50.2667 91.9209 56.8303 80.4297C63.262 69.1695 73.68 56.5 90.4365 56.5C107.224 56.5 117.591 69.2097 123.963 80.4776C130.404 91.8674 135.472 106.575 140.052 119.867M140.052 119.867C140.187 120.259 140.322 120.65 140.456 121.039M140.052 119.867L140.456 121.039M140.456 121.039C145.392 135.357 149.847 148.044 155.152 157.241C160.67 166.807 164.596 168.295 166.949 168.295C169.245 168.295 173.094 166.876 178.48 157.341C183.666 148.163 187.964 135.493 192.732 121.169M192.732 121.169C192.862 120.777 192.993 120.383 193.124 119.988M192.732 121.169L193.124 119.988M193.124 119.988C197.544 106.703 202.441 91.9837 208.754 80.5791C215.008 69.2831 225.282 56.5 242.129 56.5M242.129 56.5C237.173 56.5 233.155 62.2399 233.155 69.3205C233.155 76.4011 237.173 82.141 242.129 82.141M242.129 56.5C247.086 56.5 251.104 62.2399 251.104 69.3205C251.104 76.4011 247.086 82.141 242.129 82.141" stroke="black" stroke-width="2" stroke-linejoin="round"/>
<path d="M242.128 82.141C247.084 82.141 251.102 76.4011 251.102 69.3205C251.102 62.2399 247.084 56.5 242.128 56.5C237.171 56.5 233.153 62.2399 233.153 69.3205C233.153 76.4011 237.171 82.141 242.128 82.141Z" fill="#F9F9F9" stroke="black" stroke-width="2" stroke-linecap="round" stroke-linejoin="round"/>
</svg>
