<svg width="251" height="252" viewBox="0 0 251 252" fill="none" xmlns="http://www.w3.org/2000/svg">
<path d="M155.021 59.8816C147.43 47.5289 146.676 38.7856 149.442 31.6984C152.364 24.2086 159.672 17.2507 171.309 9.69699C170.118 10.3939 167.921 9.19966 166.32 6.95559C164.671 4.64544 164.277 2.09755 165.441 1.26473C153.434 9.0455 144.306 17.4582 140.165 28.0681C135.86 39.1026 137.995 51.2052 146.539 65.1091C151.174 72.6526 153.554 79.4563 154.027 85.4576C154.146 87.9348 153.985 93.6598 152.391 96.7428C149.911 102.838 144.618 108.449 135.713 113.138C125.035 118.762 111.377 121.17 100.377 119.387C94.9105 118.501 90.412 116.633 87.2355 113.942C84.1596 111.335 82.1058 107.788 81.6377 102.912C81.117 97.4874 83.3758 93.4651 87.9192 90.3803C92.7084 87.1286 99.9425 85.0699 108.407 84.528C116.791 83.9912 125.915 84.9757 134.129 87.3638C141.587 89.5322 147.967 92.7601 152.391 96.7428C153.985 93.6598 154.146 87.9348 154.027 85.4576C148.978 82.1147 143.061 79.5747 136.906 77.7852C127.581 75.074 117.302 73.964 107.771 74.5742C98.3207 75.1793 89.1279 77.5093 82.3303 82.1247C75.2869 86.9069 70.799 94.2301 71.7239 103.866C72.443 111.358 75.7632 117.286 80.8028 121.556C85.7417 125.741 92.1 128.149 98.7858 129.233C112.091 131.39 127.922 128.511 140.349 121.966C148.81 117.51 155.218 111.912 159.231 105.264C161.533 101.99 163.04 96.4094 163.506 94.0283C165.486 83.2898 162.253 71.6515 155.021 59.8816Z" fill="#F9F9F9"/>
<path d="M171.852 128.003C174.744 116.468 172.108 104.45 163.506 94.0283C163.04 96.4094 161.533 101.99 159.231 105.264C163.088 111.987 163.847 118.975 162.192 125.574C159.889 134.76 152.707 143.923 140.919 150.736C134.733 154.311 127.663 156.384 120.283 157.82C115.621 158.727 111.208 159.326 106.84 159.919C104.064 160.295 101.307 160.669 98.5139 161.119C91.8244 162.195 85.0159 163.702 79.9574 167.124C77.315 168.912 75.0788 171.262 73.5938 174.352C72.1185 177.422 71.5283 180.922 71.7063 184.807C72.1481 194.454 79.8333 201.37 89.2442 204.541C98.8305 207.77 111.268 207.651 124.056 202.808C135.437 198.498 147.492 196.56 156.353 197.866C160.761 198.515 163.95 199.901 165.972 201.746C167.849 203.458 169.104 205.902 169.104 209.713C169.104 215.607 165.524 220.053 159.165 222.717C152.696 225.427 143.995 225.89 135.978 223.659C128.819 221.668 118.492 219.201 108.791 221.463C103.801 222.627 98.9549 225.04 94.8373 229.327C90.7468 233.587 87.5005 238.733 85.4951 246.44C85.9443 245.081 88.4907 244.701 91.1826 245.593C93.7687 246.45 95.5483 248.168 95.286 249.508C96.9642 243.144 99.387 238.979 102.016 236.242C104.639 233.51 107.699 231.959 111.05 231.177C118.031 229.549 126.129 231.271 133.312 233.27C143.222 236.026 154.24 235.591 163.009 231.918C171.887 228.199 179.064 220.775 179.064 209.713C179.064 203.351 176.808 198.14 172.679 194.372C168.694 190.737 163.38 188.82 157.803 187.998C146.697 186.361 132.857 188.812 120.534 193.479C109.618 197.612 99.5595 197.493 92.42 195.087C85.105 192.623 81.8348 188.268 81.6553 184.35C81.5363 181.752 81.9508 179.962 82.568 178.678C83.1756 177.414 84.1202 176.345 85.5329 175.389C88.5847 173.324 93.3846 172.046 100.094 170.967C102.379 170.599 104.939 170.249 107.642 169.879C112.284 169.244 117.35 168.552 122.183 167.611C130.073 166.076 138.356 163.733 145.898 159.374C159.408 151.566 168.738 140.424 171.852 128.003Z" fill="#F9F9F9"/>
<path d="M171.412 9.63049C172.575 8.79767 172.182 6.24981 170.533 3.93966C168.884 1.62951 166.604 0.4319 165.441 1.26473M171.412 9.63049C171.378 9.65266 171.343 9.67483 171.309 9.69699M171.412 9.63049C171.378 9.65431 171.344 9.67647 171.309 9.69699M163.506 94.0283C165.486 83.2898 162.253 71.6515 155.021 59.8816C147.43 47.5289 146.676 38.7856 149.442 31.6984C152.364 24.2086 159.672 17.2507 171.309 9.69699M163.506 94.0283C172.108 104.45 174.744 116.468 171.852 128.003C168.738 140.424 159.408 151.566 145.898 159.374C138.356 163.733 130.073 166.076 122.183 167.611C117.35 168.552 112.284 169.244 107.642 169.879C104.939 170.249 102.379 170.599 100.094 170.967C93.3846 172.046 88.5847 173.324 85.5329 175.389C84.1202 176.345 83.1756 177.414 82.568 178.678C81.9508 179.962 81.5363 181.752 81.6553 184.35C81.8348 188.268 85.105 192.623 92.42 195.087C99.5595 197.493 109.618 197.612 120.534 193.479C132.857 188.812 146.697 186.361 157.803 187.998C163.38 188.82 168.694 190.737 172.679 194.372C176.808 198.14 179.064 203.351 179.064 209.713C179.064 220.775 171.887 228.199 163.009 231.918C154.24 235.591 143.222 236.026 133.312 233.27C126.129 231.271 118.031 229.549 111.05 231.177C107.699 231.959 104.639 233.51 102.016 236.242C99.387 238.979 96.9642 243.144 95.286 249.508M163.506 94.0283C163.04 96.4094 161.533 101.99 159.231 105.264M95.2434 249.67C94.7942 251.03 92.2479 251.409 89.5559 250.517C86.864 249.625 85.0459 247.8 85.4951 246.44M95.2434 249.67C95.2611 249.617 95.2753 249.563 95.286 249.508M95.2434 249.67L95.2531 249.633M95.2434 249.67C95.2466 249.658 95.2499 249.646 95.2531 249.633M85.4951 246.44C87.5005 238.733 90.7468 233.587 94.8373 229.327C98.9549 225.04 103.801 222.627 108.791 221.463C118.492 219.201 128.819 221.668 135.978 223.659C143.995 225.89 152.696 225.427 159.165 222.717C165.524 220.053 169.104 215.607 169.104 209.713C169.104 205.902 167.849 203.458 165.972 201.746C163.95 199.901 160.761 198.515 156.353 197.866C147.492 196.56 135.437 198.498 124.056 202.808C111.268 207.651 98.8305 207.77 89.2442 204.541C79.8333 201.37 72.1481 194.454 71.7063 184.807C71.5283 180.922 72.1185 177.422 73.5938 174.352C75.0788 171.262 77.315 168.912 79.9574 167.124C85.0159 163.702 91.8244 162.195 98.5139 161.119C101.307 160.669 104.064 160.295 106.84 159.919C111.208 159.326 115.621 158.727 120.283 157.82C127.663 156.384 134.733 154.311 140.919 150.736C152.707 143.923 159.889 134.76 162.192 125.574C163.847 118.975 163.088 111.987 159.231 105.264M85.4951 246.44C85.9443 245.081 88.4907 244.701 91.1826 245.593C93.7687 246.45 95.5483 248.168 95.286 249.508M159.231 105.264C155.218 111.912 148.81 117.51 140.349 121.966C127.922 128.511 112.091 131.39 98.7858 129.233C92.1 128.149 85.7417 125.741 80.8028 121.556C75.7632 117.286 72.443 111.358 71.7239 103.866C70.799 94.2301 75.2869 86.9069 82.3303 82.1247C89.1279 77.5093 98.3207 75.1793 107.771 74.5742C117.302 73.964 127.581 75.074 136.906 77.7852C143.061 79.5747 148.978 82.1147 154.027 85.4576M154.027 85.4576C153.554 79.4563 151.174 72.6526 146.539 65.1091C137.995 51.2052 135.86 39.1026 140.165 28.0681C144.306 17.4582 153.434 9.0455 165.441 1.26473M154.027 85.4576C154.146 87.9348 153.985 93.6598 152.391 96.7428M165.441 1.26473C164.277 2.09755 164.671 4.64544 166.32 6.95559C167.921 9.19966 170.118 10.3939 171.309 9.69699M152.391 96.7428C147.968 92.7601 141.587 89.5322 134.129 87.3638C125.915 84.9757 116.791 83.9912 108.407 84.528C99.9425 85.0699 92.7084 87.1286 87.9192 90.3803C83.3758 93.4651 81.117 97.4875 81.6377 102.912C82.1058 107.788 84.1596 111.335 87.2355 113.942C90.412 116.633 94.9105 118.501 100.377 119.387C111.377 121.17 125.035 118.762 135.713 113.138C144.618 108.449 149.911 102.838 152.391 96.7428ZM95.286 249.508C95.275 249.549 95.264 249.591 95.2531 249.633" stroke="black" stroke-width="2" stroke-linejoin="round"/>
<path d="M171.31 9.69699C171.344 9.67483 171.378 9.65267 171.413 9.6305C172.576 8.79767 172.183 6.24981 170.534 3.93966C168.885 1.62951 166.605 0.4319 165.442 1.26473C164.278 2.09755 164.672 4.64544 166.32 6.95559C167.922 9.19966 170.119 10.3939 171.31 9.69699Z" fill="#F9F9F9"/>
<path d="M89.5567 250.517C92.2487 251.409 94.7951 251.03 95.2443 249.67L95.2539 249.633C95.2648 249.591 95.2758 249.549 95.2868 249.508C95.5491 248.168 93.7695 246.45 91.1834 245.593C88.4915 244.701 85.9451 245.081 85.4959 246.44C85.0467 247.8 86.8648 249.625 89.5567 250.517Z" fill="#F9F9F9"/>
<path d="M171.31 9.69699C171.344 9.67483 171.378 9.65267 171.413 9.6305C172.576 8.79767 172.183 6.24981 170.534 3.93966C168.885 1.62951 166.605 0.4319 165.442 1.26473C164.278 2.09755 164.672 4.64544 166.32 6.95559C167.922 9.19966 170.119 10.3939 171.31 9.69699Z" stroke="black" stroke-width="2" stroke-linecap="round" stroke-linejoin="round"/>
<path d="M89.5567 250.517C92.2487 251.409 94.7951 251.03 95.2443 249.67L95.2539 249.633C95.2648 249.591 95.2758 249.549 95.2868 249.508C95.5491 248.168 93.7695 246.45 91.1834 245.593C88.4915 244.701 85.9451 245.081 85.4959 246.44C85.0467 247.8 86.8648 249.625 89.5567 250.517Z" stroke="black" stroke-width="2" stroke-linecap="round" stroke-linejoin="round"/>
</svg>
