<svg width="253" height="250" viewBox="0 0 253 250" fill="none" xmlns="http://www.w3.org/2000/svg">
<path d="M100.379 120.72C84.1523 88.2868 85.1584 66.0381 91.8984 52.5663C98.6264 39.1185 112.15 32.1607 126.173 32.1607C140.195 32.1607 153.719 39.1185 160.447 52.5663C167.187 66.0381 168.193 88.2868 151.967 120.72C134.272 156.087 133.266 184.688 143.487 205.116C153.719 225.569 174.116 235.561 194.014 235.561C213.912 235.561 234.309 225.569 244.541 205.116C254.762 184.688 253.832 157.002 236.138 121.635C236.756 123.034 233.602 125.782 229.093 127.772C224.666 129.726 220.578 130.223 219.845 128.916C236.033 161.308 235.023 183.533 228.288 196.995C221.56 210.442 208.037 217.4 194.014 217.4C179.991 217.4 166.468 210.442 159.74 196.995C153 183.523 151.994 161.274 168.22 128.841C185.914 93.474 186.92 64.8727 176.7 44.4445C166.468 23.9922 146.07 14 126.173 14C106.275 14 85.8776 23.9922 75.6453 44.4445C65.4249 64.8727 66.431 93.474 84.1254 128.841C100.352 161.274 99.3456 183.523 92.6056 196.995C85.8776 210.442 72.3541 217.4 58.3314 217.4C44.3086 217.4 30.7851 210.442 24.0571 196.995C17.3252 183.539 16.3135 161.327 32.4793 128.957C31.7002 130.223 27.5874 129.751 23.108 127.851C18.4972 125.896 15.2441 123.169 15.842 121.761C-1.85238 157.128 -2.4163 184.688 7.80401 205.116C18.0364 225.569 38.4335 235.561 58.3314 235.561C78.2292 235.561 98.6263 225.569 108.859 205.116C119.079 184.688 118.073 156.087 100.379 120.72Z" fill="#F9F9F9"/>
<path d="M15.842 121.761C-1.85238 157.128 -2.4163 184.688 7.80401 205.116C18.0364 225.569 38.4335 235.561 58.3314 235.561C78.2292 235.561 98.6263 225.569 108.859 205.116C119.079 184.688 118.073 156.087 100.379 120.72C84.1523 88.2868 85.1584 66.0381 91.8984 52.5663C98.6264 39.1185 112.15 32.1607 126.173 32.1607C140.195 32.1607 153.719 39.1185 160.447 52.5663C167.187 66.0381 168.193 88.2868 151.967 120.72C134.272 156.087 133.266 184.688 143.487 205.116C153.719 225.569 174.116 235.561 194.014 235.561C213.912 235.561 234.309 225.569 244.541 205.116C254.762 184.688 253.832 157.002 236.138 121.635M15.842 121.761C15.2441 123.169 18.4972 125.896 23.108 127.851C27.5874 129.751 31.7002 130.223 32.4793 128.957M15.842 121.761C16.4399 120.353 20.6624 120.796 25.2732 122.751C29.884 124.706 33.1371 127.433 32.5392 128.841C32.5222 128.882 32.5022 128.92 32.4793 128.957M32.5373 128.841C32.518 128.88 32.4986 128.919 32.4793 128.957M219.808 128.841C219.19 127.442 222.344 124.694 226.853 122.704C231.363 120.714 235.52 120.235 236.138 121.635M219.808 128.841C219.819 128.867 219.832 128.892 219.845 128.916M219.808 128.841C219.821 128.866 219.833 128.891 219.845 128.916M219.808 128.841L219.845 128.916M236.138 121.635C236.756 123.034 233.602 125.782 229.093 127.772C224.666 129.726 220.578 130.223 219.845 128.916M219.845 128.916C236.033 161.308 235.023 183.533 228.288 196.995C221.56 210.442 208.037 217.4 194.014 217.4C179.991 217.4 166.468 210.442 159.74 196.995C153 183.523 151.994 161.274 168.22 128.841C185.914 93.474 186.92 64.8727 176.7 44.4445C166.468 23.9922 146.07 14 126.173 14C106.275 14 85.8776 23.9922 75.6453 44.4445C65.4249 64.8727 66.431 93.474 84.1254 128.841C100.352 161.274 99.3456 183.523 92.6056 196.995C85.8776 210.442 72.3541 217.4 58.3314 217.4C44.3086 217.4 30.7851 210.442 24.0571 196.995C17.3252 183.539 16.3135 161.327 32.4793 128.957" stroke="black" stroke-width="2" stroke-linejoin="round"/>
<path d="M15.8423 121.76C15.2444 123.169 18.4975 125.895 23.1083 127.851C27.5877 129.75 31.7005 130.223 32.4796 128.957C32.5025 128.92 32.5225 128.881 32.5395 128.841C33.1374 127.432 29.8843 124.706 25.2735 122.751C20.6627 120.795 16.4402 120.352 15.8423 121.76Z" fill="#F9F9F9"/>
<path d="M229.093 127.771C233.602 125.781 236.757 123.034 236.138 121.634C235.52 120.235 231.363 120.713 226.854 122.703C222.344 124.694 219.19 127.441 219.808 128.841L219.846 128.916C220.579 130.222 224.666 129.725 229.093 127.771Z" fill="#F9F9F9"/>
<path d="M15.8423 121.76C15.2444 123.169 18.4975 125.895 23.1083 127.851C27.5877 129.75 31.7005 130.223 32.4796 128.957C32.5025 128.92 32.5225 128.881 32.5395 128.841C33.1374 127.432 29.8843 124.706 25.2735 122.751C20.6627 120.795 16.4402 120.352 15.8423 121.76Z" stroke="black" stroke-width="2" stroke-linecap="round" stroke-linejoin="round"/>
<path d="M229.093 127.771C233.602 125.781 236.757 123.034 236.138 121.634C235.52 120.235 231.363 120.713 226.854 122.703C222.344 124.694 219.19 127.441 219.808 128.841L219.846 128.916C220.579 130.222 224.666 129.725 229.093 127.771Z" stroke="black" stroke-width="2" stroke-linecap="round" stroke-linejoin="round"/>
</svg>
