<svg width="251" height="252" viewBox="0 0 251 252" fill="none" xmlns="http://www.w3.org/2000/svg">
<path d="M36.5504 12.787C36.1188 12.9228 35.953 12.9312 35.7691 12.9801C36.9093 12.7029 38.388 14.7881 39.0855 17.6511C39.7773 20.4906 39.4299 23.018 38.3116 23.3295C38.7504 23.2147 39.2435 23.0659 39.7424 22.9089C40.5067 22.6684 41.4711 22.349 42.562 21.9876L42.5632 21.9872C42.9224 21.8682 43.2953 21.7447 43.6794 21.6179C46.8397 20.5748 51.1094 19.1934 56.2179 17.7873C66.4599 14.9685 79.955 12.0855 94.3302 11.6647C108.713 11.2436 123.723 13.2946 137.2 20.106C150.575 26.8658 162.787 38.4835 171.446 57.8458C186.994 92.6098 182.21 122.405 177.672 150.664L177.672 150.666C177.1 154.23 176.532 157.769 176.009 161.291C173.699 176.839 172.266 192.314 176.206 207.391C180.205 222.693 189.57 237.023 207.728 250.724C206.887 249.907 207.887 247.518 209.961 245.39C211.909 243.391 214.112 242.332 215.069 242.887C198.597 230.414 189.773 217.289 186.486 204.711C183.128 191.864 184.232 178.235 186.517 162.848C187.022 159.452 187.584 155.983 188.158 152.439L188.158 152.436C192.727 124.234 198.057 91.3299 181.146 53.5171C171.533 32.0221 157.637 18.5417 141.996 10.6367C126.457 2.78323 109.542 0.602522 94.019 1.05696C78.4883 1.51163 64.0961 4.61135 53.396 7.55629C48.0335 9.03219 43.5684 10.4779 40.3462 11.5415C39.9187 11.6826 39.5188 11.8151 39.1449 11.9389C38.0841 12.2903 37.2321 12.5725 36.5504 12.787Z" fill="#F9F9F9"/>
<path d="M38.2839 23.3367C38.2934 23.3343 38.2756 23.3389 38.2839 23.3367ZM38.2839 23.3367C37.1437 23.6139 35.654 21.5178 34.9565 18.6548C34.259 15.7919 34.6289 13.2572 35.7691 12.9801M38.2839 23.3367C38.2932 23.3345 38.3024 23.3321 38.3116 23.3295M35.7691 12.9801C35.953 12.9312 36.1188 12.9228 36.5504 12.787C37.2321 12.5725 38.0841 12.2903 39.1449 11.9389C39.5188 11.8151 39.9187 11.6826 40.3462 11.5415C43.5684 10.4779 48.0335 9.03219 53.396 7.5563C64.0961 4.61135 78.4883 1.51163 94.019 1.05696C109.542 0.602522 126.457 2.78323 141.996 10.6367C157.637 18.5417 171.533 32.0221 181.146 53.5171C198.057 91.3299 192.727 124.234 188.158 152.436L188.158 152.439C187.584 155.983 187.022 159.452 186.517 162.848C184.232 178.235 183.128 191.864 186.486 204.711C189.773 217.289 198.597 230.414 215.069 242.887M35.7691 12.9801C35.8451 12.9636 35.7213 12.9889 35.7691 12.9801ZM35.7691 12.9801C36.9093 12.7029 38.388 14.7881 39.0855 17.6511C39.7773 20.4906 39.4299 23.018 38.3116 23.3295M215.239 243.016C216.08 243.834 215.081 246.222 213.006 248.351C210.932 250.479 208.569 251.542 207.728 250.724M215.239 243.016C215.183 242.973 215.126 242.93 215.069 242.887M215.239 243.016C215.188 242.966 215.131 242.923 215.069 242.887M207.728 250.724C189.57 237.023 180.205 222.693 176.206 207.391C172.266 192.314 173.699 176.839 176.009 161.291C176.532 157.769 177.1 154.23 177.672 150.666L177.672 150.664C182.21 122.405 186.994 92.6098 171.446 57.8458C162.787 38.4835 150.575 26.8658 137.2 20.106C123.723 13.2946 108.713 11.2436 94.3302 11.6647C79.955 12.0855 66.4599 14.9685 56.2179 17.7873C51.1094 19.1934 46.8397 20.5748 43.6794 21.6179C43.2953 21.7447 42.9224 21.8682 42.5632 21.9872L42.562 21.9876C41.4711 22.349 40.5067 22.6684 39.7424 22.9089C39.2435 23.0659 38.7504 23.2147 38.3116 23.3295M207.728 250.724C206.887 249.907 207.887 247.518 209.961 245.39C211.909 243.391 214.112 242.332 215.069 242.887" stroke="black" stroke-width="2" stroke-linejoin="round"/>
<path d="M215.239 243.016C215.183 242.973 215.126 242.93 215.069 242.887C214.112 242.332 211.909 243.391 209.961 245.389C207.887 247.518 206.887 249.906 207.728 250.724C208.569 251.542 210.932 250.479 213.006 248.35C215.081 246.222 216.08 243.833 215.239 243.016Z" fill="#F9F9F9"/>
<path d="M34.9565 18.6546C35.654 21.5175 37.1437 23.6137 38.2839 23.3365C38.2932 23.3342 38.3024 23.3318 38.3116 23.3293C39.4299 23.0178 39.7773 20.4904 39.0855 17.6508C38.388 14.7879 36.9093 12.7026 35.7691 12.9798C34.6289 13.257 34.259 15.7916 34.9565 18.6546Z" fill="#F9F9F9"/>
<path d="M215.239 243.016C215.183 242.973 215.126 242.93 215.069 242.887C214.112 242.332 211.909 243.391 209.961 245.389C207.887 247.518 206.887 249.906 207.728 250.724C208.569 251.542 210.932 250.479 213.006 248.35C215.081 246.222 216.08 243.833 215.239 243.016Z" stroke="black" stroke-width="2" stroke-linecap="round" stroke-linejoin="round"/>
<path d="M34.9565 18.6546C35.654 21.5175 37.1437 23.6137 38.2839 23.3365C38.2932 23.3342 38.3024 23.3318 38.3116 23.3293C39.4299 23.0178 39.7773 20.4904 39.0855 17.6508C38.388 14.7879 36.9093 12.7026 35.7691 12.9798C34.6289 13.257 34.259 15.7916 34.9565 18.6546Z" stroke="black" stroke-width="2" stroke-linecap="round" stroke-linejoin="round"/>
</svg>
