<svg width="251" height="252" viewBox="0 0 251 252" fill="none" xmlns="http://www.w3.org/2000/svg">
<path d="M103.913 25.987C105.339 18.4814 112.464 13.888 123.519 14.4857C134.281 15.0675 145.688 20.775 151.401 30.2587C150.572 28.4548 152.134 25.4181 155.121 23.2049C158.331 20.8268 161.971 20.3001 163.252 22.0286C154.912 7.6513 138.747 1.84824 124.245 1.06423C109.893 0.288329 93.9398 6.47167 90.7084 23.478C89.2845 30.972 90.2652 37.8213 93.6598 43.775C96.9822 49.6018 102.276 53.9771 108.464 57.305C120.665 63.8664 137.999 67.2274 156.797 69.0359C173.262 70.6201 182.751 76.3678 186.932 82.1387C190.819 87.5027 190.84 93.7745 186.367 99.7269C183.983 102.899 179.699 105.137 172.893 106.78C168.074 107.944 162.891 108.632 157.235 109.384C154.805 109.706 152.289 110.041 149.676 110.429C141.435 111.655 132.464 113.413 124.874 117.44C116.956 121.64 110.56 128.304 107.756 138.798C106.3 144.245 105.973 149.999 107.503 155.777C109.039 161.575 112.328 166.957 117.426 171.813C127.418 181.33 144.593 189.06 170.812 194.851C180.415 196.973 186.294 200.793 189.666 204.753C193.013 208.685 194.23 213.137 193.929 217.343C193.304 226.057 186.331 233.552 176.919 233.552C160.661 233.552 149.923 225.877 140.846 216.227C137.501 212.671 134.56 209.05 131.604 205.41C130.419 203.951 129.232 202.49 128.016 201.028C124.003 196.205 119.548 191.232 114.378 188.057C103.808 181.565 92.1973 182.625 84.2028 189.626C76.3604 196.493 73.1221 208.044 76.4186 220.445C78.5951 228.633 75.8947 233.682 73.0141 235.881C70.1244 238.086 66.0319 238.377 62.3139 235.178C59.1583 232.463 57.967 228.907 57.9497 225.395C57.9335 222.122 58.9241 219.688 59.5637 218.66C58.223 220.097 54.857 219.898 51.6545 218.102C48.1701 216.147 46.1986 213.042 47.251 211.166C44.2397 215.247 42.779 221.413 43.1641 227.613C43.5492 233.812 46.8791 239.629 53.5475 245.367C62.1095 252.733 73.2609 252.601 81.1689 246.566C89.0859 240.523 92.7369 229.513 89.4086 216.992C87.2002 208.685 89.6785 202.697 93.0575 199.738C96.2844 196.912 101.4 195.859 107.344 199.51C110.431 201.407 113.652 204.78 117.684 209.626C118.696 210.841 119.76 212.151 120.872 213.52L120.874 213.523C123.93 217.286 127.35 221.497 131.055 225.436C141.457 236.495 155.49 246.993 176.919 246.993C194.184 246.993 206.266 233.22 207.335 218.304C207.881 210.695 205.605 202.741 199.901 196.04C194.221 189.369 185.491 184.329 173.711 181.727C148.269 176.107 134.01 169.046 126.696 162.08C123.142 158.694 121.311 155.413 120.497 152.336C119.676 149.238 119.769 145.906 120.742 142.267C122.455 135.855 126.097 132.006 131.174 129.313C136.578 126.446 143.557 124.928 151.654 123.724C153.762 123.411 155.981 123.116 158.249 122.814L158.25 122.814C164.206 122.022 170.503 121.185 176.048 119.846C183.789 117.976 191.874 114.772 197.112 107.802C204.918 97.4129 205.363 84.6665 197.816 74.2522C190.565 64.2447 176.765 57.454 158.084 55.6567C139.597 53.8779 124.538 50.688 114.83 45.4673C110.064 42.9042 107.026 40.0805 105.336 37.1174C103.719 34.281 103.008 30.749 103.913 25.987Z" fill="#F9F9F9"/>
<path d="M47.251 211.166C44.2397 215.247 42.779 221.413 43.1641 227.613C43.5492 233.812 46.8791 239.629 53.5475 245.367C62.1095 252.733 73.2609 252.601 81.1689 246.566C89.0859 240.523 92.7369 229.513 89.4086 216.992C87.2002 208.685 89.6785 202.697 93.0575 199.738C96.2844 196.912 101.4 195.859 107.344 199.51C110.431 201.407 113.652 204.78 117.684 209.626C118.696 210.841 119.76 212.151 120.872 213.52L120.874 213.523C123.93 217.286 127.35 221.497 131.055 225.436C141.457 236.495 155.49 246.993 176.919 246.993C194.184 246.993 206.266 233.22 207.335 218.304C207.881 210.695 205.605 202.741 199.901 196.04C194.221 189.369 185.491 184.329 173.711 181.727C148.269 176.107 134.01 169.046 126.696 162.08C123.142 158.694 121.311 155.413 120.497 152.336C119.676 149.238 119.769 145.906 120.742 142.267C122.455 135.855 126.097 132.006 131.174 129.313C136.578 126.446 143.557 124.928 151.654 123.724C153.762 123.411 155.981 123.116 158.249 122.814L158.25 122.814C164.206 122.022 170.503 121.185 176.048 119.846C183.789 117.976 191.874 114.772 197.112 107.802C204.918 97.413 205.363 84.6665 197.816 74.2522C190.565 64.2447 176.765 57.454 158.084 55.6567C139.597 53.878 124.538 50.688 114.83 45.4673C110.064 42.9042 107.026 40.0805 105.336 37.1174C103.719 34.281 103.008 30.749 103.913 25.987C105.339 18.4814 112.464 13.888 123.519 14.4857C134.281 15.0675 145.688 20.775 151.401 30.2587M47.251 211.166C46.1986 213.042 48.1701 216.147 51.6545 218.102C54.857 219.898 58.223 220.097 59.5637 218.66M47.251 211.166C48.3034 209.289 51.9811 209.353 55.4655 211.307C58.9498 213.262 60.9214 216.367 59.8691 218.243M59.8691 218.243C59.7839 218.395 59.6816 218.534 59.5637 218.66M59.8691 218.243C59.7842 218.334 59.6797 218.474 59.5637 218.66M163.252 22.0286C154.912 7.6513 138.747 1.84824 124.245 1.06423C109.893 0.288329 93.9398 6.47167 90.7084 23.478C89.2845 30.972 90.2652 37.8213 93.6598 43.775C96.9822 49.6018 102.276 53.9771 108.464 57.305C120.665 63.8664 137.999 67.2274 156.797 69.0359C173.262 70.6201 182.751 76.3678 186.932 82.1387C190.819 87.5027 190.84 93.7745 186.367 99.7269C183.983 102.899 179.699 105.137 172.893 106.78C168.074 107.944 162.891 108.632 157.235 109.384C154.805 109.706 152.289 110.041 149.676 110.429C141.435 111.655 132.464 113.413 124.874 117.44C116.956 121.64 110.56 128.304 107.756 138.798C106.3 144.245 105.973 149.999 107.503 155.777C109.039 161.575 112.328 166.957 117.426 171.813C127.418 181.33 144.593 189.06 170.812 194.851C180.415 196.973 186.294 200.793 189.666 204.753C193.013 208.685 194.23 213.137 193.929 217.343C193.304 226.057 186.331 233.552 176.919 233.552C160.661 233.552 149.923 225.877 140.846 216.227C137.501 212.671 134.56 209.05 131.604 205.41C130.419 203.951 129.232 202.49 128.016 201.028C124.003 196.205 119.548 191.232 114.378 188.057C103.808 181.565 92.1973 182.625 84.2028 189.626C76.3604 196.493 73.1221 208.044 76.4186 220.445C78.5951 228.633 75.8947 233.682 73.0141 235.881C70.1244 238.086 66.0319 238.377 62.3139 235.178C59.1583 232.463 57.967 228.907 57.9497 225.395C57.9335 222.122 58.9241 219.688 59.5637 218.66M163.252 22.0286C164.532 23.7572 162.968 27.0863 159.758 29.4644C156.548 31.8426 152.908 32.3692 151.627 30.6407M163.252 22.0286C161.971 20.3001 158.331 20.8268 155.121 23.2049C152.134 25.4181 150.572 28.4548 151.401 30.2587M151.627 30.6407C151.538 30.5208 151.463 30.3932 151.401 30.2587M151.627 30.6407C151.553 30.5127 151.478 30.3854 151.401 30.2587" stroke="black" stroke-width="2" stroke-linejoin="round"/>
<path d="M159.757 29.4651C162.967 27.087 164.532 23.7578 163.251 22.0293C161.97 20.3008 158.33 20.8275 155.12 23.2056C152.133 25.4188 150.571 28.4555 151.4 30.2594C151.477 30.3861 151.552 30.5134 151.626 30.6414C152.907 32.3699 156.547 31.8433 159.757 29.4651Z" fill="#F9F9F9"/>
<path d="M47.25 211.166C46.1976 213.042 48.1692 216.148 51.6535 218.102C54.856 219.899 58.222 220.097 59.5627 218.661C59.6787 218.475 59.7832 218.334 59.8681 218.244C60.9204 216.368 58.9488 213.262 55.4645 211.308C51.9801 209.354 48.3024 209.29 47.25 211.166Z" fill="#F9F9F9"/>
<path d="M159.757 29.4651C162.967 27.087 164.532 23.7578 163.251 22.0293C161.97 20.3008 158.33 20.8275 155.12 23.2056C152.133 25.4188 150.571 28.4555 151.4 30.2594C151.477 30.3861 151.552 30.5134 151.626 30.6414C152.907 32.3699 156.547 31.8433 159.757 29.4651Z" stroke="black" stroke-width="2" stroke-linecap="round" stroke-linejoin="round"/>
<path d="M47.25 211.166C46.1976 213.042 48.1692 216.148 51.6535 218.102C54.856 219.899 58.222 220.097 59.5627 218.661C59.6787 218.475 59.7832 218.334 59.8681 218.244C60.9204 216.368 58.9488 213.262 55.4645 211.308C51.9801 209.354 48.3024 209.29 47.25 211.166Z" stroke="black" stroke-width="2" stroke-linecap="round" stroke-linejoin="round"/>
</svg>
