<svg width="253" height="250" viewBox="0 0 253 250" fill="none" xmlns="http://www.w3.org/2000/svg">
<path d="M122.166 103.562C136.699 84.2398 165.257 78.4527 183.417 98.1236C187.021 102.027 190.014 107.351 193.293 113.568C193.668 114.28 194.047 115.003 194.43 115.734L194.432 115.737C197.312 121.232 200.446 127.213 204.308 132.68C208.725 138.933 214.236 144.737 221.763 148.739C229.32 152.757 238.109 154.83 249.854 154.022C249.155 154.025 248.581 152.26 248.572 150.078C248.563 147.953 249.094 146.217 249.768 146.128C239.308 146.839 231.54 144.994 225.485 141.775C219.39 138.535 214.741 133.748 210.775 128.134C207.237 123.125 204.357 117.635 201.449 112.092C201.065 111.36 200.681 110.627 200.294 109.894C197.063 103.768 193.64 97.5471 189.237 92.7778C166.89 68.5714 132.548 76.609 115.837 98.8261C111.439 104.674 109.194 111.424 107.903 118.129C106.811 123.803 106.363 129.687 105.952 135.104L105.951 135.106C105.88 136.04 105.81 136.96 105.738 137.863C105.234 144.181 104.632 149.59 103.104 153.918C101.635 158.081 99.426 160.926 95.7809 162.56C92.2592 164.139 89.4274 164.662 86.8237 164.496C84.1923 164.329 81.4629 163.437 78.1712 161.675C74.8413 159.892 71.1367 157.33 66.5302 153.977C65.2385 153.037 63.8783 152.036 62.4448 150.981C58.837 148.327 54.7645 145.331 50.1517 142.097C27.9532 126.534 4.61228 136.877 1.12204 151.699C1.32755 151.032 3.1884 151.012 5.27836 151.653C7.30574 152.275 8.80398 153.291 8.70431 153.96C10.6612 145.943 26.8299 135.392 45.6023 148.554C50.1366 151.733 54.0899 154.641 57.6744 157.278L57.6751 157.279L57.6756 157.279C59.1284 158.348 60.5207 159.372 61.8665 160.352C66.4689 163.702 70.5668 166.56 74.4293 168.628C78.3301 170.717 82.1829 172.108 86.3201 172.372C90.4851 172.637 94.6082 171.738 99.0241 169.758C105.163 167.006 108.593 162.134 110.567 156.538C112.483 151.109 113.128 144.718 113.625 138.489C113.701 137.53 113.774 136.573 113.847 135.618C114.262 130.183 114.673 124.81 115.673 119.618C116.838 113.565 118.753 108.099 122.166 103.562Z" fill="#F9F9F9"/>
<path d="M8.68971 154.021C8.69448 154 8.69935 153.98 8.70431 153.96M1.12204 151.699C4.61228 136.877 27.9532 126.534 50.1517 142.097C54.7645 145.331 58.837 148.327 62.4448 150.981C63.8783 152.036 65.2385 153.037 66.5302 153.977C71.1367 157.33 74.8413 159.892 78.1712 161.675C81.4629 163.437 84.1923 164.329 86.8237 164.496C89.4274 164.662 92.2592 164.139 95.7809 162.56C99.426 160.926 101.636 158.081 103.104 153.918C104.632 149.59 105.234 144.181 105.738 137.863C105.81 136.96 105.88 136.04 105.951 135.106L105.952 135.104C106.363 129.687 106.811 123.803 107.903 118.129C109.194 111.424 111.439 104.674 115.837 98.8261C132.548 76.609 166.89 68.5714 189.237 92.7778C193.64 97.5471 197.063 103.768 200.294 109.894C200.681 110.627 201.065 111.36 201.449 112.092C204.357 117.635 207.237 123.125 210.775 128.134C214.741 133.748 219.39 138.535 225.485 141.775C231.54 144.994 239.308 146.839 249.768 146.128M1.12204 151.699C0.916536 152.365 2.44419 153.425 4.53416 154.067C6.62413 154.708 8.48498 154.687 8.69048 154.021C8.69664 154.001 8.70123 153.98 8.70431 153.96M1.12204 151.699C1.32755 151.032 3.1884 151.012 5.27836 151.653C7.30574 152.275 8.80398 153.291 8.70431 153.96M249.821 146.124C250.52 146.121 251.094 147.887 251.103 150.068C251.113 152.249 250.553 154.019 249.854 154.022M249.821 146.124C249.803 146.124 249.786 146.125 249.768 146.128M249.821 146.124C249.803 146.125 249.786 146.126 249.768 146.128M249.821 146.124L249.768 146.128M249.854 154.022C238.109 154.83 229.32 152.757 221.763 148.739C214.236 144.737 208.725 138.933 204.308 132.68C200.446 127.213 197.312 121.232 194.432 115.737L194.43 115.734C194.047 115.003 193.668 114.28 193.293 113.568C190.014 107.351 187.021 102.027 183.417 98.1236C165.257 78.4527 136.699 84.2398 122.166 103.562C118.753 108.099 116.838 113.565 115.673 119.618C114.673 124.81 114.262 130.183 113.847 135.618C113.774 136.573 113.701 137.53 113.625 138.489C113.128 144.718 112.483 151.109 110.567 156.538C108.593 162.134 105.163 167.006 99.0241 169.758C94.6082 171.738 90.4851 172.637 86.3201 172.372C82.1829 172.108 78.3301 170.717 74.4293 168.628C70.5668 166.56 66.4689 163.702 61.8665 160.352C60.5207 159.372 59.1284 158.348 57.6756 157.279L57.6751 157.279L57.6744 157.278C54.0899 154.641 50.1366 151.733 45.6023 148.554C26.8299 135.392 10.6612 145.943 8.70431 153.96M249.854 154.022C249.155 154.025 248.581 152.26 248.572 150.078C248.563 147.953 249.094 146.217 249.768 146.128" stroke="black" stroke-width="2" stroke-linejoin="round"/>
<path d="M4.53416 154.068C6.62413 154.709 8.48498 154.688 8.69048 154.022C8.69664 154.002 8.70123 153.981 8.70431 153.961C8.80398 153.292 7.30574 152.276 5.27836 151.654C3.1884 151.013 1.32755 151.033 1.12204 151.7C0.916536 152.366 2.44419 153.426 4.53416 154.068Z" fill="#F9F9F9"/>
<path d="M248.572 150.079C248.581 152.261 249.155 154.026 249.854 154.023C250.553 154.02 251.113 152.25 251.103 150.069C251.094 147.888 250.52 146.122 249.821 146.125L249.768 146.129C249.094 146.218 248.563 147.954 248.572 150.079Z" fill="#F9F9F9"/>
<path d="M4.53416 154.068C6.62413 154.709 8.48498 154.688 8.69048 154.022C8.69664 154.002 8.70123 153.981 8.70431 153.961C8.80398 153.292 7.30574 152.276 5.27836 151.654C3.1884 151.013 1.32755 151.033 1.12204 151.7C0.916536 152.366 2.44419 153.426 4.53416 154.068Z" stroke="black" stroke-width="2" stroke-linecap="round" stroke-linejoin="round"/>
<path d="M248.572 150.079C248.581 152.261 249.155 154.026 249.854 154.023C250.553 154.02 251.113 152.25 251.103 150.069C251.094 147.888 250.52 146.122 249.821 146.125L249.768 146.129C249.094 146.218 248.563 147.954 248.572 150.079Z" stroke="black" stroke-width="2" stroke-linecap="round" stroke-linejoin="round"/>
</svg>
