<svg width="253" height="250" viewBox="0 0 253 250" fill="none" xmlns="http://www.w3.org/2000/svg">
<path d="M117.448 68.2896C118.273 47.5574 127.765 33.1353 141.021 24.63C154.397 16.0471 171.872 13.3349 188.667 16.7502C205.428 20.1588 221.256 29.62 231.44 45.0532C241.588 60.4309 246.381 82.1203 240.403 110.475C240.688 109.235 242.65 108.568 244.826 108.984C247.03 109.405 248.618 110.778 248.374 112.05C254.724 81.9894 249.477 58.1675 237.987 40.7547C226.527 23.3884 208.793 12.8643 190.232 9.08976C171.704 5.32192 152.095 8.22869 136.781 18.0548C121.346 27.9584 110.541 44.7351 109.617 67.9797C108.932 85.2081 107.959 98.6154 106.091 109.169C104.224 119.724 101.515 127.091 97.5836 132.452C89.8583 142.989 76.4342 147.104 49.6449 149.855C30.0622 151.866 16.6252 160.707 8.9171 172.476C1.27604 184.142 -0.518681 198.357 2.4794 210.841C5.47539 223.316 13.3788 234.469 25.5676 239.481C37.846 244.531 53.5416 242.977 71.3215 231.918C70.1836 232.542 68.3822 231.454 67.2979 229.488C66.2554 227.597 66.2554 225.582 67.2683 224.875C51.0129 234.95 37.8231 236.065 28.555 232.254C19.1733 228.395 12.6447 219.609 10.1015 209.02C7.56035 198.438 9.11918 186.462 15.4786 176.752C21.771 167.145 32.9815 159.425 50.4475 157.632C76.9546 154.91 93.9021 150.718 103.91 137.067C108.846 130.335 111.844 121.638 113.81 110.528C115.776 99.417 116.762 85.5586 117.448 68.2896Z" fill="#F9F9F9"/>
<path d="M67.3949 224.797C68.5328 224.172 70.3342 225.26 71.4185 227.227C72.5028 229.194 72.4593 231.294 71.3215 231.918M67.3949 224.797C67.3511 224.821 67.3089 224.847 67.2683 224.875M67.3949 224.797C67.3527 224.823 67.3105 224.849 67.2683 224.875M71.3215 231.918C53.5416 242.977 37.846 244.531 25.5676 239.481C13.3788 234.469 5.47539 223.316 2.4794 210.841C-0.518681 198.357 1.27604 184.142 8.9171 172.476C16.6252 160.707 30.0622 151.866 49.6449 149.855C76.4342 147.104 89.8583 142.989 97.5836 132.452C101.515 127.091 104.224 119.724 106.091 109.169C107.959 98.6154 108.932 85.2081 109.617 67.9797C110.541 44.7351 121.346 27.9584 136.781 18.0548C152.095 8.22869 171.704 5.32192 190.232 9.08976C208.793 12.8643 226.527 23.3884 237.987 40.7547C249.477 58.1675 254.724 81.9894 248.374 112.05M71.3215 231.918C70.1836 232.542 68.3822 231.454 67.2979 229.488C66.2554 227.597 66.2554 225.582 67.2683 224.875M248.374 112.05C248.13 113.322 246.145 114.012 243.941 113.591C241.737 113.17 240.148 111.797 240.392 110.525C240.396 110.508 240.399 110.492 240.403 110.475M248.374 112.05C248.618 110.778 247.03 109.405 244.826 108.984C242.65 108.568 240.688 109.235 240.403 110.475M240.403 110.475C246.381 82.1203 241.588 60.4309 231.44 45.0532C221.256 29.62 205.428 20.1588 188.667 16.7502C171.872 13.3349 154.397 16.0471 141.021 24.63C127.765 33.1353 118.273 47.5574 117.448 68.2896C116.762 85.5586 115.776 99.417 113.81 110.528C111.844 121.638 108.846 130.335 103.91 137.067C93.9021 150.718 76.9546 154.91 50.4475 157.632C32.9815 159.425 21.771 167.145 15.4786 176.752C9.11918 186.462 7.56035 198.438 10.1015 209.02C12.6447 219.609 19.1733 228.395 28.555 232.254C37.8231 236.065 51.0129 234.95 67.2683 224.875" stroke="black" stroke-width="2" stroke-linejoin="round"/>
<path d="M240.404 110.475C240.401 110.491 240.397 110.507 240.394 110.524C240.149 111.796 241.738 113.169 243.942 113.59C246.146 114.011 248.131 113.322 248.375 112.049C248.62 110.777 247.031 109.404 244.827 108.983C242.652 108.567 240.69 109.234 240.404 110.475Z" fill="#F9F9F9"/>
<path d="M67.2993 229.487C68.3836 231.453 70.185 232.542 71.3229 231.917C72.4607 231.293 72.5042 229.193 71.4199 227.226C70.3356 225.26 68.5342 224.172 67.3963 224.796C67.3541 224.822 67.3119 224.848 67.2697 224.874C66.2568 225.582 66.2568 227.596 67.2993 229.487Z" fill="#F9F9F9"/>
<path d="M240.404 110.475C240.401 110.491 240.397 110.507 240.394 110.524C240.149 111.796 241.738 113.169 243.942 113.59C246.146 114.011 248.131 113.322 248.375 112.049C248.62 110.777 247.031 109.404 244.827 108.983C242.652 108.567 240.69 109.234 240.404 110.475Z" stroke="black" stroke-width="2" stroke-linecap="round" stroke-linejoin="round"/>
<path d="M67.2993 229.487C68.3836 231.453 70.185 232.542 71.3229 231.917C72.4607 231.293 72.5042 229.193 71.4199 227.226C70.3356 225.26 68.5342 224.172 67.3963 224.796C67.3541 224.822 67.3119 224.848 67.2697 224.874C66.2568 225.582 66.2568 227.596 67.2993 229.487Z" stroke="black" stroke-width="2" stroke-linecap="round" stroke-linejoin="round"/>
</svg>
