<svg width="251" height="252" viewBox="0 0 251 252" fill="none" xmlns="http://www.w3.org/2000/svg">
<path d="M131.024 39.988C133.101 29.9941 130.912 17.8192 123.377 1.85428C123.932 3.09714 121.843 5.24057 118.709 6.64178C115.606 8.02901 112.644 8.16865 112.046 6.96523C119.039 21.7931 120.253 31.2408 118.957 37.4807C117.689 43.5798 113.982 47.9743 108.456 52.6616C106.896 53.985 105.155 55.3322 103.322 56.7513C92.7549 64.9303 79.1037 75.4967 79.1035 97.6659C79.1034 111.578 84.9998 122.23 93.5405 129.826C94.53 126.366 97.5708 120.386 98.9675 117.827C94.2825 112.493 91.429 105.739 91.4291 97.666C91.4292 81.9493 99.7806 75.347 110.085 67.201C112.139 65.5772 114.27 63.892 116.429 62.0611C122.673 56.7648 128.918 50.1278 131.024 39.988Z" fill="#F9F9F9"/>
<path d="M141.267 89.8084C126.326 89.7763 109.8 98.5169 98.9675 117.827C97.5708 120.386 94.53 126.366 93.5405 129.826C91.4064 136.085 90.8881 141.806 91.9694 147.093C93.173 152.979 96.2261 157.677 99.9736 161.556C103.657 165.369 108.183 168.563 112.614 171.44C114.416 172.61 116.151 173.697 117.854 174.765L117.856 174.766C120.582 176.475 123.227 178.132 125.929 179.992C134.465 185.867 140.783 191.989 142.881 200.827C144.998 209.751 143.034 223.149 131.041 244.257C131.721 243.088 134.675 243.478 137.662 245.136C140.663 246.803 142.56 249.119 141.899 250.309C154.545 228.058 158.042 211.335 154.873 197.981C151.684 184.539 142.118 176.171 132.917 169.838C130.055 167.869 126.942 165.915 124.019 164.08C122.368 163.043 120.777 162.044 119.326 161.102C115.055 158.329 111.507 155.754 108.838 152.992C106.234 150.297 104.657 147.614 104.045 144.624C103.636 142.623 103.6 140.195 104.256 137.178C104.662 133.606 107.42 128.001 108.748 125.645C117.699 108.332 131.064 102.112 141.241 102.134C147.06 102.146 151.792 104.14 154.719 107.089C157.513 109.902 159.095 113.989 158.088 119.48C157.254 124.029 153.789 127.753 147.438 130.053C141.051 132.366 132.532 132.85 123.873 131.133C118.455 130.059 113.295 128.218 108.748 125.645C107.42 128.001 104.662 133.606 104.256 137.178C109.753 140.067 115.669 142.072 121.475 143.223C131.86 145.283 142.722 144.87 151.635 141.642C160.583 138.402 168.334 131.945 170.212 121.703C171.917 112.403 169.216 104.195 163.466 98.4043C157.849 92.7477 149.777 89.8267 141.267 89.8084Z" fill="#F9F9F9"/>
<path d="M123.377 1.85428C130.912 17.8192 133.101 29.9941 131.024 39.988C128.918 50.1278 122.673 56.7648 116.429 62.0611C114.27 63.892 112.139 65.5772 110.085 67.201C99.7806 75.347 91.4292 81.9493 91.4291 97.666C91.429 105.739 94.2825 112.493 98.9675 117.827M123.377 1.85428C123.932 3.09714 121.843 5.24057 118.709 6.64177C115.606 8.02901 112.644 8.16865 112.046 6.96523M123.377 1.85428C122.821 0.611415 119.83 0.739774 116.696 2.14098C113.563 3.54218 111.473 5.68561 112.028 6.92848C112.034 6.94086 112.04 6.95312 112.046 6.96523M98.9675 117.827C109.8 98.5169 126.326 89.7763 141.267 89.8084C149.777 89.8267 157.849 92.7477 163.466 98.4043C169.216 104.195 171.917 112.403 170.212 121.703C168.334 131.945 160.583 138.402 151.635 141.642C142.722 144.87 131.86 145.283 121.475 143.223C115.669 142.072 109.753 140.067 104.256 137.178M98.9675 117.827C97.5708 120.386 94.53 126.366 93.5405 129.826M104.256 137.178C103.6 140.195 103.636 142.623 104.045 144.624C104.657 147.614 106.234 150.297 108.838 152.992C111.507 155.754 115.055 158.329 119.326 161.102C120.777 162.044 122.368 163.043 124.019 164.08C126.942 165.915 130.055 167.869 132.917 169.838C142.118 176.171 151.684 184.539 154.873 197.981C158.042 211.335 154.545 228.058 141.899 250.309M104.256 137.178C104.662 133.606 107.42 128.001 108.748 125.645M141.899 250.309C141.238 251.499 138.269 251.113 135.268 249.447C132.267 247.78 130.37 245.464 131.031 244.274C131.034 244.268 131.037 244.263 131.041 244.257M141.899 250.309C142.56 249.119 140.663 246.803 137.662 245.136C134.675 243.478 131.721 243.088 131.041 244.257M93.5405 129.826C91.4064 136.085 90.8881 141.806 91.9694 147.093C93.173 152.979 96.2261 157.677 99.9736 161.556C103.657 165.369 108.183 168.563 112.614 171.44C114.416 172.61 116.151 173.697 117.854 174.765L117.856 174.766C120.582 176.475 123.227 178.132 125.929 179.992C134.465 185.867 140.783 191.989 142.881 200.827C144.998 209.751 143.034 223.149 131.041 244.257M93.5405 129.826C84.9998 122.23 79.1034 111.579 79.1035 97.6659C79.1037 75.4967 92.7549 64.9303 103.322 56.7513C105.155 55.3322 106.896 53.985 108.456 52.6616C113.982 47.9743 117.689 43.5798 118.957 37.4807C120.253 31.2408 119.039 21.7931 112.046 6.96523M108.748 125.645C113.295 128.218 118.455 130.059 123.873 131.133C132.532 132.85 141.051 132.366 147.438 130.053C153.789 127.753 157.254 124.029 158.088 119.48C159.095 113.989 157.513 109.902 154.719 107.089C151.792 104.14 147.06 102.146 141.241 102.134C131.064 102.112 117.699 108.332 108.748 125.645Z" stroke="black" stroke-width="2" stroke-linejoin="round"/>
<path d="M118.709 6.64178C121.843 5.24057 123.933 3.09714 123.377 1.85428C122.822 0.611415 119.831 0.739774 116.697 2.14098C113.563 3.54218 111.473 5.68561 112.029 6.92847C112.034 6.94086 112.04 6.95312 112.046 6.96523C112.644 8.16865 115.607 8.02901 118.709 6.64178Z" fill="#F9F9F9"/>
<path d="M135.269 249.447C138.27 251.113 141.238 251.499 141.899 250.309C142.56 249.119 140.663 246.803 137.662 245.136C134.676 243.478 131.721 243.088 131.041 244.257C131.038 244.263 131.035 244.268 131.032 244.274C130.371 245.464 132.268 247.78 135.269 249.447Z" fill="#F9F9F9"/>
<path d="M118.709 6.64178C121.843 5.24057 123.933 3.09714 123.377 1.85428C122.822 0.611415 119.831 0.739774 116.697 2.14098C113.563 3.54218 111.473 5.68561 112.029 6.92847C112.034 6.94086 112.04 6.95312 112.046 6.96523C112.644 8.16865 115.607 8.02901 118.709 6.64178Z" stroke="black" stroke-width="2" stroke-linecap="round" stroke-linejoin="round"/>
<path d="M135.269 249.447C138.27 251.113 141.238 251.499 141.899 250.309C142.56 249.119 140.663 246.803 137.662 245.136C134.676 243.478 131.721 243.088 131.041 244.257C131.038 244.263 131.035 244.268 131.032 244.274C130.371 245.464 132.268 247.78 135.269 249.447Z" stroke="black" stroke-width="2" stroke-linecap="round" stroke-linejoin="round"/>
</svg>
