<svg width="253" height="250" viewBox="0 0 253 250" fill="none" xmlns="http://www.w3.org/2000/svg">
<path d="M231.119 67.5834C240.551 61.1755 247.28 50.1172 251.084 33.143C250.804 34.4414 247.654 34.8653 244.048 34.0897C240.441 33.3142 237.744 31.6329 238.023 30.3346C234.661 45.3374 229.272 52.6875 223.612 56.5332C217.856 60.4434 210.607 61.4763 201.704 60.9634C197.284 60.7087 192.681 60.0901 187.862 59.3752C186.913 59.2344 185.951 59.0892 184.981 58.9427C181.122 58.3598 177.127 57.7565 173.245 57.3302C163.665 56.2785 153.138 56.0678 144.028 60.6793C135.29 65.1021 131.016 71.6506 129.364 78.9958C127.997 85.0704 128.478 91.6786 128.872 97.103C128.912 97.6469 128.951 98.1789 128.987 98.6973C129.421 104.968 129.508 109.666 128.157 113.466C127.019 116.663 124.605 119.881 118.025 122.354C114.082 123.836 110.13 123.498 105.447 121.565C100.54 119.539 95.4178 116.009 89.4314 111.669C88.8421 111.242 88.2448 110.807 87.64 110.367C82.3408 106.509 76.4572 102.226 70.223 98.8559C63.1907 95.0544 55.2392 92.1349 46.3378 92.1349C8.83506 92.1349 -9.45161 130.688 7.4107 155.05C15.3862 166.573 26.7055 171.724 38.6178 173.634C50.2824 175.504 62.9657 174.343 74.3883 173.01C76.2536 172.792 78.0781 172.572 79.8608 172.356C89.4242 171.199 97.7846 170.188 104.788 170.578C112.957 171.034 116.845 173.256 118.734 177.184C120.89 181.665 120.911 185.476 119.71 188.753C118.451 192.184 115.59 195.708 110.826 198.855C101.251 205.179 84.1318 208.978 65.2733 207.319C66.5286 207.543 67.5218 210.442 67.5218 213.985C67.5218 217.674 66.4452 220.664 65.1172 220.664C86.1319 222.546 105.388 218.457 118.189 210.002C124.627 205.75 129.755 200.163 132.252 193.353C134.806 186.388 134.35 178.829 130.773 171.393C125.709 160.864 115.473 157.794 105.532 157.24C97.2349 156.777 87.4497 157.969 77.9558 159.126C76.2375 159.336 74.5288 159.544 72.8401 159.741C61.372 161.079 50.3671 161.988 40.7324 160.443C31.3454 158.938 23.7545 155.19 18.3954 147.448C8.25475 132.796 18.5609 105.494 46.3378 105.494C52.2498 105.494 57.9744 107.421 63.8701 110.608C69.268 113.526 74.411 117.266 79.8229 121.201L79.8264 121.204C80.4109 121.629 80.9985 122.056 81.5899 122.485C87.4241 126.715 93.7631 131.194 100.349 133.913C107.158 136.724 114.727 137.866 122.725 134.859C132.466 131.199 138.112 125.342 140.743 117.942C143.161 111.145 142.726 103.725 142.314 97.7749C142.285 97.3595 142.257 96.9504 142.228 96.5472C141.812 90.6101 141.487 85.9744 142.397 81.9273C143.221 78.2669 145.066 75.1271 150.061 72.5984C155.469 69.8612 162.598 69.6008 171.787 70.6097C175.373 71.0034 179.022 71.5542 182.851 72.1321C183.855 72.2836 184.871 72.4369 185.902 72.5898C190.768 73.3118 195.875 74.0089 200.935 74.3005C210.992 74.8799 221.783 73.9267 231.119 67.5834Z" fill="#F9F9F9"/>
<path d="M251.084 33.143C247.28 50.1172 240.551 61.1755 231.119 67.5834C221.783 73.9267 210.992 74.8799 200.935 74.3005C195.875 74.0089 190.768 73.3118 185.902 72.5898C184.871 72.4369 183.855 72.2836 182.851 72.1321C179.022 71.5542 175.373 71.0034 171.787 70.6097C162.598 69.6008 155.469 69.8612 150.061 72.5984C145.066 75.1271 143.221 78.2669 142.397 81.9273C141.487 85.9744 141.812 90.61 142.228 96.5472C142.257 96.9504 142.285 97.3595 142.314 97.7749C142.726 103.725 143.161 111.145 140.743 117.942C138.112 125.342 132.466 131.199 122.725 134.859C114.727 137.866 107.158 136.724 100.349 133.913C93.7631 131.194 87.4241 126.715 81.5899 122.485C80.9985 122.056 80.4109 121.629 79.8264 121.204L79.8229 121.201C74.411 117.266 69.268 113.526 63.8701 110.608C57.9744 107.421 52.2498 105.494 46.3378 105.494C18.5609 105.494 8.25475 132.796 18.3954 147.448C23.7545 155.19 31.3454 158.938 40.7324 160.443C50.3671 161.988 61.372 161.079 72.8401 159.741C74.5288 159.544 76.2375 159.336 77.9558 159.126C87.4497 157.969 97.2349 156.777 105.532 157.24C115.473 157.794 125.709 160.864 130.773 171.393C134.35 178.829 134.806 186.388 132.252 193.353C129.755 200.163 124.627 205.75 118.189 210.002C105.388 218.457 86.1319 222.546 65.1172 220.664M251.084 33.143C251.363 31.8446 248.665 30.1634 245.059 29.3879C241.452 28.6123 238.302 29.0362 238.023 30.3346M251.084 33.143C250.804 34.4414 247.654 34.8653 244.048 34.0897C240.441 33.3142 237.744 31.6329 238.023 30.3346M65.1172 220.664C66.4452 220.664 67.5218 217.674 67.5218 213.985C67.5218 210.442 66.5286 207.543 65.2733 207.319M65.1172 220.664C63.7891 220.664 62.7125 217.674 62.7125 213.985C62.7125 210.296 63.7891 207.305 65.1172 207.305M65.1172 207.305C65.1696 207.305 65.2217 207.31 65.2733 207.319M65.1172 207.305C65.1692 207.31 65.2213 207.315 65.2733 207.319M65.1172 207.305L65.2733 207.319M238.023 30.3346C234.661 45.3374 229.272 52.6875 223.612 56.5332C217.856 60.4434 210.607 61.4763 201.704 60.9634C197.284 60.7087 192.681 60.0901 187.862 59.3752C186.913 59.2344 185.951 59.0892 184.981 58.9427C181.122 58.3598 177.127 57.7565 173.245 57.3302C163.665 56.2785 153.138 56.0678 144.028 60.6793C135.29 65.1021 131.016 71.6506 129.364 78.9958C127.997 85.0704 128.478 91.6786 128.872 97.103C128.912 97.6469 128.951 98.1789 128.987 98.6973C129.421 104.968 129.508 109.666 128.157 113.466C127.019 116.663 124.605 119.881 118.025 122.354C114.082 123.836 110.13 123.498 105.447 121.565C100.54 119.539 95.4178 116.009 89.4314 111.669C88.8421 111.242 88.2448 110.807 87.64 110.367C82.3408 106.509 76.4572 102.226 70.223 98.8559C63.1907 95.0544 55.2392 92.1349 46.3378 92.1349C8.83506 92.1349 -9.45161 130.688 7.4107 155.05C15.3862 166.573 26.7055 171.724 38.6178 173.634C50.2824 175.504 62.9657 174.343 74.3883 173.01C76.2536 172.792 78.0781 172.572 79.8608 172.356C89.4242 171.199 97.7846 170.188 104.788 170.578C112.957 171.034 116.845 173.256 118.734 177.184C120.89 181.665 120.911 185.476 119.71 188.753C118.451 192.184 115.59 195.708 110.826 198.855C101.251 205.179 84.1318 208.978 65.2733 207.319" stroke="black" stroke-width="2" stroke-linejoin="round"/>
<path d="M65.1175 220.664C66.4456 220.664 67.5222 217.674 67.5222 213.985C67.5222 210.442 66.529 207.543 65.2737 207.319L65.1175 207.305C63.7895 207.305 62.7129 210.296 62.7129 213.985C62.7129 217.674 63.7895 220.664 65.1175 220.664Z" fill="#F9F9F9"/>
<path d="M251.084 33.143C251.363 31.8446 248.666 30.1634 245.059 29.3879C241.453 28.6123 238.303 29.0362 238.023 30.3346C237.744 31.6329 240.442 33.3142 244.048 34.0897C247.655 34.8653 250.805 34.4414 251.084 33.143Z" fill="#F9F9F9"/>
<path d="M65.1175 220.664C66.4456 220.664 67.5222 217.674 67.5222 213.985C67.5222 210.442 66.529 207.543 65.2737 207.319L65.1175 207.305C63.7895 207.305 62.7129 210.296 62.7129 213.985C62.7129 217.674 63.7895 220.664 65.1175 220.664Z" stroke="black" stroke-width="2" stroke-linecap="round" stroke-linejoin="round"/>
<path d="M251.084 33.143C251.363 31.8446 248.666 30.1634 245.059 29.3879C241.453 28.6123 238.303 29.0362 238.023 30.3346C237.744 31.6329 240.442 33.3142 244.048 34.0897C247.655 34.8653 250.805 34.4414 251.084 33.143Z" stroke="black" stroke-width="2" stroke-linecap="round" stroke-linejoin="round"/>
</svg>
