<svg width="251" height="252" viewBox="0 0 251 252" fill="none" xmlns="http://www.w3.org/2000/svg">
<path d="M120.219 96.5804C141.991 84.3424 153.81 65.9557 158.559 48.2412C163.185 30.9849 161.169 13.1683 154.132 2.57833C155.436 4.64044 154.053 8.00282 150.975 10.1733C147.834 12.3884 144.116 12.5233 142.671 10.4744C146.867 16.7191 149.152 29.843 145.181 44.6547C141.315 59.0766 131.686 74.2463 113.432 84.507C112.516 85.022 111.604 85.5344 110.696 86.0444L110.678 86.0544C87.1567 99.2685 66.5589 110.84 53.1454 123.642C46.0428 130.421 40.5547 137.893 37.7194 146.571C34.8542 155.341 34.8907 164.752 37.879 175.025C41.5016 187.478 49.243 195.74 59.0981 200.904C68.6962 205.933 80.1237 207.95 91.4246 208.637C102.778 209.328 114.62 208.702 125.256 208.044C126.316 207.979 127.36 207.913 128.39 207.849L128.419 207.847C137.95 207.249 146.155 206.734 152.593 207.082C165.594 207.785 176.474 214.561 184.997 223.182C193.284 231.563 198.786 242.622 201.295 248.494C200.566 246.217 202.412 243.162 205.694 241.406C209.236 239.51 213.11 239.846 214.346 242.156C211.368 235.052 204.808 223.52 194.846 213.444C184.866 203.351 170.937 194.204 153.34 193.252C146.035 192.857 136.958 193.43 127.666 194.016L127.666 194.016C126.58 194.085 125.491 194.153 124.402 194.221C113.742 194.88 102.673 195.446 92.2655 194.813C81.8056 194.177 72.6226 192.354 65.5264 188.636C58.6874 185.052 53.6509 179.658 51.1778 171.156C48.848 163.147 49.0087 156.614 50.8846 150.872C52.7905 145.039 56.6606 139.433 62.7079 133.661C74.832 122.09 94.0833 111.27 118.741 97.4112L120.219 96.5804Z" fill="#F9F9F9"/>
<path d="M154.048 2.45262C152.603 0.403766 148.885 0.538585 145.744 2.75374C142.602 4.9689 141.226 8.42558 142.671 10.4744M154.048 2.45262C154.076 2.49441 154.104 2.53631 154.132 2.57833M154.048 2.45262C154.077 2.49395 154.105 2.53586 154.132 2.57833M120.219 96.5804C141.991 84.3424 153.81 65.9557 158.559 48.2412C163.185 30.9849 161.169 13.1683 154.132 2.57833M120.219 96.5804C119.724 96.8586 119.232 97.1355 118.741 97.4112M120.219 96.5804L118.741 97.4112M118.741 97.4112C94.0833 111.27 74.832 122.09 62.7079 133.661C56.6606 139.433 52.7905 145.039 50.8846 150.872C49.0087 156.614 48.848 163.147 51.1778 171.156C53.6509 179.658 58.6874 185.052 65.5264 188.636C72.6226 192.354 81.8056 194.177 92.2655 194.813C102.673 195.446 113.742 194.88 124.402 194.221C125.491 194.153 126.58 194.085 127.666 194.016L127.666 194.016C136.958 193.43 146.035 192.857 153.34 193.252C170.937 194.204 184.866 203.351 194.846 213.444C204.808 223.52 211.368 235.052 214.346 242.156M214.346 242.156C215.583 244.467 213.713 247.876 210.171 249.772C206.628 251.668 202.754 251.331 201.518 249.021M214.346 242.156C213.11 239.846 209.236 239.51 205.694 241.406C202.412 243.162 200.566 246.217 201.295 248.494M201.518 249.021C201.427 248.851 201.353 248.675 201.295 248.494M201.518 249.021C201.446 248.85 201.372 248.675 201.295 248.494M128.419 207.847C137.95 207.249 146.155 206.734 152.593 207.082C165.594 207.785 176.474 214.561 184.997 223.182C193.284 231.563 198.786 242.622 201.295 248.494M128.419 207.847L128.39 207.849M128.419 207.847C128.409 207.847 128.399 207.848 128.39 207.849M110.678 86.0544C87.1567 99.2685 66.5589 110.84 53.1454 123.642C46.0428 130.421 40.5547 137.893 37.7194 146.571C34.8542 155.341 34.8907 164.752 37.879 175.025C41.5016 187.478 49.243 195.74 59.0981 200.904C68.6962 205.933 80.1237 207.95 91.4246 208.637C102.778 209.328 114.62 208.702 125.256 208.044C126.316 207.979 127.36 207.913 128.39 207.849M110.678 86.0544L110.696 86.0444M110.678 86.0544C110.684 86.0511 110.69 86.0477 110.696 86.0444M142.671 10.4744C146.867 16.7191 149.152 29.843 145.181 44.6547C141.315 59.0766 131.686 74.2463 113.432 84.507C112.516 85.022 111.604 85.5344 110.696 86.0444M142.671 10.4744C144.116 12.5233 147.834 12.3884 150.975 10.1733C154.053 8.00282 155.436 4.64044 154.132 2.57833" stroke="black" stroke-width="2" stroke-linejoin="round"/>
<path d="M154.132 2.57833C154.105 2.53631 154.077 2.49441 154.048 2.45262C152.604 0.403766 148.886 0.538585 145.744 2.75374C142.603 4.9689 141.227 8.42558 142.672 10.4744C144.116 12.5233 147.834 12.3884 150.976 10.1733C154.054 8.00282 155.437 4.64044 154.132 2.57833Z" fill="#F9F9F9"/>
<path d="M210.171 249.772C213.714 247.876 215.583 244.467 214.347 242.156C213.111 239.846 209.237 239.51 205.695 241.406C202.413 243.162 200.567 246.217 201.296 248.494C201.373 248.675 201.447 248.85 201.519 249.021C202.755 251.331 206.629 251.668 210.171 249.772Z" fill="#F9F9F9"/>
<path d="M154.132 2.57833C154.105 2.53631 154.077 2.49441 154.048 2.45262C152.604 0.403766 148.886 0.538585 145.744 2.75374C142.603 4.9689 141.227 8.42558 142.672 10.4744C144.116 12.5233 147.834 12.3884 150.976 10.1733C154.054 8.00282 155.437 4.64044 154.132 2.57833Z" stroke="black" stroke-width="2" stroke-linecap="round" stroke-linejoin="round"/>
<path d="M210.171 249.772C213.714 247.876 215.583 244.467 214.347 242.156C213.111 239.846 209.237 239.51 205.695 241.406C202.413 243.162 200.567 246.217 201.296 248.494C201.373 248.675 201.447 248.85 201.519 249.021C202.755 251.331 206.629 251.668 210.171 249.772Z" stroke="black" stroke-width="2" stroke-linecap="round" stroke-linejoin="round"/>
</svg>
