<svg width="251" height="252" viewBox="0 0 251 252" fill="none" xmlns="http://www.w3.org/2000/svg">
<path d="M196.862 126C196.862 56.9644 140.926 1 71.9249 1C81.9736 1 90.1196 14.5836 90.1196 31.3398C90.1196 48.096 81.9736 61.6796 71.9249 61.6796C107.43 61.6796 136.213 90.4768 136.213 126C136.213 161.523 107.43 190.32 71.9249 190.32C81.9736 190.32 89.9929 203.904 89.9929 220.66C89.9929 237.416 81.8469 251 71.7982 251C140.799 251 196.862 195.036 196.862 126Z" fill="#F9F9F9"/>
<path d="M71.9249 1C140.926 1 196.862 56.9644 196.862 126C196.862 195.036 140.799 251 71.7982 251M71.9249 1C61.8763 1 53.7302 14.5836 53.7302 31.3398C53.7302 48.096 61.8763 61.6796 71.9249 61.6796M71.9249 1C81.9736 1 90.1196 14.5836 90.1196 31.3398C90.1196 48.096 81.9736 61.6796 71.9249 61.6796M71.7982 251C81.8469 251 89.9929 237.416 89.9929 220.66C89.9929 203.904 81.9736 190.32 71.9249 190.32M71.7982 251C61.7496 251 53.6035 237.416 53.6035 220.66C53.6035 203.904 61.8763 190.32 71.9249 190.32M71.9249 190.32C107.43 190.32 136.213 161.523 136.213 126C136.213 90.4768 107.43 61.6796 71.9249 61.6796" stroke="black" stroke-width="2" stroke-linecap="round" stroke-linejoin="round"/>
<path d="M71.7982 251C81.8469 251 89.9929 237.416 89.9929 220.66C89.9929 203.904 81.9736 190.32 71.9249 190.32C61.8763 190.32 53.6035 203.904 53.6035 220.66C53.6035 237.416 61.7496 251 71.7982 251Z" fill="#F9F9F9"/>
<path d="M71.9249 61.6796C81.9736 61.6796 90.1196 48.096 90.1196 31.3398C90.1196 14.5836 81.9736 1 71.9249 1C61.8763 1 53.7302 14.5836 53.7302 31.3398C53.7302 48.096 61.8763 61.6796 71.9249 61.6796Z" fill="#F9F9F9"/>
<path d="M71.7982 251C81.8469 251 89.9929 237.416 89.9929 220.66C89.9929 203.904 81.9736 190.32 71.9249 190.32C61.8763 190.32 53.6035 203.904 53.6035 220.66C53.6035 237.416 61.7496 251 71.7982 251Z" stroke="black" stroke-width="2" stroke-linecap="round" stroke-linejoin="round"/>
<path d="M71.9249 61.6796C81.9736 61.6796 90.1196 48.096 90.1196 31.3398C90.1196 14.5836 81.9736 1 71.9249 1C61.8763 1 53.7302 14.5836 53.7302 31.3398C53.7302 48.096 61.8763 61.6796 71.9249 61.6796Z" stroke="black" stroke-width="2" stroke-linecap="round" stroke-linejoin="round"/>
</svg>
