<svg width="252" height="252" viewBox="0 0 252 252" fill="none" xmlns="http://www.w3.org/2000/svg">
<path d="M1.60352 231.196C1.60352 105.145 103.003 1.00356 228.97 1.00356C217.482 1.28854 208.608 19.2396 209.15 41.0983C209.683 62.6298 219.153 79.9213 230.417 80.1621C148.877 80.4437 80.9219 147.588 80.9219 229.239C80.6807 240.479 63.3551 250.444 41.7803 250.977C19.8775 251.517 1.88907 242.661 1.60352 231.196Z" fill="#F9F9F9"/>
<path d="M80.9219 229.239C80.9219 147.588 148.877 80.4437 230.417 80.1621M80.9219 229.239C80.9219 229.41 80.9213 229.067 80.9219 229.239ZM80.9219 229.239C80.6807 240.479 63.3551 250.444 41.7803 250.977C19.8775 251.517 1.88907 242.661 1.60352 231.196C1.60352 105.145 103.003 1.00356 228.97 1.00356M230.931 80.1612C242.42 79.8762 251.294 61.9251 250.752 40.0663C250.211 18.2075 240.459 0.718575 228.97 1.00356M230.931 80.1612C230.76 80.1612 230.588 80.1615 230.417 80.1621M230.931 80.1612C230.759 80.1654 230.588 80.1657 230.417 80.1621M228.97 1.00356C217.482 1.28854 208.608 19.2396 209.15 41.0983C209.683 62.6298 219.153 79.9213 230.417 80.1621" stroke="black" stroke-width="2" stroke-linecap="round" stroke-linejoin="round"/>
<path d="M230.933 80.1613C230.762 80.1613 230.59 80.1616 230.418 80.1622C219.155 79.9215 209.685 62.6299 209.151 41.0985C208.61 19.2397 217.484 1.28871 228.972 1.00372C240.46 0.718742 250.212 18.2077 250.754 40.0665C251.295 61.9253 242.421 79.8764 230.933 80.1613Z" fill="#F9F9F9" stroke="black" stroke-width="2" stroke-linecap="round" stroke-linejoin="round"/>
</svg>
