<svg width="251" height="252" viewBox="0 0 251 252" fill="none" xmlns="http://www.w3.org/2000/svg">
<path d="M99.1535 184.794V8.90514C99.1535 13.271 92.5385 16.8103 84.3785 16.8103C76.2185 16.8103 69.6035 13.271 69.6035 8.90514V184.794C69.6035 198.843 71.8726 215.049 80.3311 228.17C89.4809 242.363 104.622 251 125.475 251C146.791 251 161.732 241.473 170.554 227.185C178.726 213.95 180.909 197.916 180.909 184.794V74.1225C180.909 78.4884 174.294 82.0277 166.134 82.0277C157.974 82.0277 151.359 78.4884 151.359 74.1225V184.794C151.359 195.388 149.465 205.046 145.434 211.574C142.053 217.049 136.665 221.356 125.475 221.356C113.824 221.356 108.416 217.147 105.144 212.071C101.18 205.923 99.1535 196.438 99.1535 184.794Z" fill="#F9F9F9"/>
<path d="M99.1535 8.90514V184.794C99.1535 196.438 101.18 205.923 105.144 212.071C108.416 217.147 113.824 221.356 125.475 221.356C136.665 221.356 142.053 217.049 145.434 211.574C149.465 205.046 151.359 195.388 151.359 184.794V74.1225M99.1535 8.90514C99.1535 13.271 92.5385 16.8103 84.3785 16.8103C76.2185 16.8103 69.6035 13.271 69.6035 8.90514M99.1535 8.90514C99.1535 4.53925 92.5385 1 84.3785 1C76.2185 1 69.6035 4.53925 69.6035 8.90514M151.359 74.1225C151.359 78.4884 157.974 82.0277 166.134 82.0277C174.294 82.0277 180.909 78.4884 180.909 74.1225M151.359 74.1225C151.359 69.7566 157.974 66.2174 166.134 66.2174C174.294 66.2174 180.909 69.7566 180.909 74.1225M180.909 74.1225V184.794C180.909 197.916 178.726 213.95 170.554 227.185C161.732 241.473 146.791 251 125.475 251C104.622 251 89.4809 242.363 80.3311 228.17C71.8726 215.049 69.6035 198.843 69.6035 184.794V8.90514" stroke="black" stroke-width="2" stroke-linecap="round" stroke-linejoin="round"/>
<path d="M84.3785 16.8103C92.5385 16.8103 99.1535 13.271 99.1535 8.90514C99.1535 4.53925 92.5385 1 84.3785 1C76.2185 1 69.6035 4.53925 69.6035 8.90514C69.6035 13.271 76.2185 16.8103 84.3785 16.8103Z" fill="#F9F9F9"/>
<path d="M166.134 82.0277C174.294 82.0277 180.909 78.4884 180.909 74.1225C180.909 69.7566 174.294 66.2174 166.134 66.2174C157.974 66.2174 151.359 69.7566 151.359 74.1225C151.359 78.4884 157.974 82.0277 166.134 82.0277Z" fill="#F9F9F9"/>
<path d="M84.3785 16.8103C92.5385 16.8103 99.1535 13.271 99.1535 8.90514C99.1535 4.53925 92.5385 1 84.3785 1C76.2185 1 69.6035 4.53925 69.6035 8.90514C69.6035 13.271 76.2185 16.8103 84.3785 16.8103Z" stroke="black" stroke-width="2" stroke-linecap="round" stroke-linejoin="round"/>
<path d="M166.134 82.0277C174.294 82.0277 180.909 78.4884 180.909 74.1225C180.909 69.7566 174.294 66.2174 166.134 66.2174C157.974 66.2174 151.359 69.7566 151.359 74.1225C151.359 78.4884 157.974 82.0277 166.134 82.0277Z" stroke="black" stroke-width="2" stroke-linecap="round" stroke-linejoin="round"/>
</svg>
