<svg width="253" height="250" viewBox="0 0 253 250" fill="none" xmlns="http://www.w3.org/2000/svg">
<path d="M32.1979 94C15.025 94 1.10352 107.885 1.10352 125.013C1.10352 142.14 15.025 156.025 32.1979 156.025H234.311C225.038 156.025 217.521 142.14 217.521 125.013C217.521 107.885 225.038 94 234.311 94H32.1979Z" fill="#F9F9F9"/>
<path d="M234.311 94H32.1979C15.025 94 1.10352 107.885 1.10352 125.013C1.10352 142.14 15.025 156.025 32.1979 156.025H234.311M234.311 94C225.038 94 217.521 107.885 217.521 125.013C217.521 142.14 225.038 156.025 234.311 156.025M234.311 94C243.585 94 251.102 107.885 251.102 125.013C251.102 142.14 243.585 156.025 234.311 156.025" stroke="black" stroke-width="2" stroke-linecap="round" stroke-linejoin="round"/>
<path d="M234.312 156.025C243.586 156.025 251.103 142.14 251.103 125.013C251.103 107.885 243.586 94 234.312 94C225.039 94 217.521 107.885 217.521 125.013C217.521 142.14 225.039 156.025 234.312 156.025Z" fill="#F9F9F9" stroke="black" stroke-width="2" stroke-linecap="round" stroke-linejoin="round"/>
</svg>
