<svg width="251" height="252" viewBox="0 0 251 252" fill="none" xmlns="http://www.w3.org/2000/svg">
<circle cx="124.862" cy="89.7581" r="88.7581" fill="#F9F9F9" stroke="black" stroke-width="2" stroke-linejoin="round"/>
<path fill-rule="evenodd" clip-rule="evenodd" d="M85.9419 93.5011C85.9419 69.4688 106.004 52.5474 125.632 52.5474C145.484 52.5474 165.323 68.1859 165.323 93.5011V239.658C165.323 233.395 170.4 228.319 176.663 228.319C182.926 228.319 188.003 233.395 188.003 239.658V93.5011C188.003 54.4943 156.811 29.8672 125.632 29.8672C94.23 29.8672 63.2617 56.204 63.2617 93.5011V239.658C63.2617 233.395 68.3389 228.319 74.6018 228.319C80.8648 228.319 85.9419 233.395 85.9419 239.658V93.5011Z" fill="#F9F9F9"/>
<path d="M85.9419 239.658C85.9419 245.921 80.8648 250.999 74.6018 250.999C68.3389 250.999 63.2617 245.921 63.2617 239.658M85.9419 239.658V93.5011C85.9419 69.4688 106.004 52.5474 125.632 52.5474C145.484 52.5474 165.323 68.1859 165.323 93.5011V239.658M85.9419 239.658C85.9419 233.395 80.8648 228.319 74.6018 228.319C68.3389 228.319 63.2617 233.395 63.2617 239.658M63.2617 239.658V93.5011C63.2617 56.204 94.23 29.8672 125.632 29.8672C156.811 29.8672 188.003 54.4943 188.003 93.5011V239.658M188.003 239.658C188.003 245.921 182.926 250.999 176.663 250.999C170.4 250.999 165.323 245.921 165.323 239.658M188.003 239.658C188.003 233.395 182.926 228.319 176.663 228.319C170.4 228.319 165.323 233.395 165.323 239.658" stroke="black" stroke-width="2" stroke-linecap="round" stroke-linejoin="round"/>
<path d="M63.2617 239.66C63.2617 245.923 68.3389 251.001 74.6018 251.001C80.8648 251.001 85.9419 245.923 85.9419 239.66C85.9419 233.397 80.8648 228.32 74.6018 228.32C68.3389 228.32 63.2617 233.397 63.2617 239.66Z" fill="#F9F9F9"/>
<path d="M165.323 239.66C165.323 245.923 170.4 251.001 176.663 251.001C182.926 251.001 188.003 245.923 188.003 239.66C188.003 233.397 182.926 228.32 176.663 228.32C170.4 228.32 165.323 233.397 165.323 239.66Z" fill="#F9F9F9"/>
<path d="M63.2617 239.66C63.2617 245.923 68.3389 251.001 74.6018 251.001C80.8648 251.001 85.9419 245.923 85.9419 239.66C85.9419 233.397 80.8648 228.32 74.6018 228.32C68.3389 228.32 63.2617 233.397 63.2617 239.66Z" stroke="black" stroke-width="2" stroke-linecap="round" stroke-linejoin="round"/>
<path d="M165.323 239.66C165.323 245.923 170.4 251.001 176.663 251.001C182.926 251.001 188.003 245.923 188.003 239.66C188.003 233.397 182.926 228.32 176.663 228.32C170.4 228.32 165.323 233.397 165.323 239.66Z" stroke="black" stroke-width="2" stroke-linecap="round" stroke-linejoin="round"/>
<circle cx="125.635" cy="90.6123" r="38.3819" fill="#F9F9F9" stroke="black" stroke-width="2" stroke-linejoin="round"/>
</svg>
