<svg width="251" height="252" viewBox="0 0 251 252" fill="none" xmlns="http://www.w3.org/2000/svg">
<circle cx="125.165" cy="57.5618" r="56.5618" fill="#F9F9F9" stroke="black" stroke-width="2" stroke-linejoin="round"/>
<path fill-rule="evenodd" clip-rule="evenodd" d="M100.363 58.9107C100.363 43.5958 113.148 32.8125 125.656 32.8125C138.307 32.8125 150.949 42.7783 150.949 58.9107V243.772C150.949 239.781 154.185 236.546 158.176 236.546C162.167 236.546 165.402 239.781 165.402 243.772V58.9107C165.402 34.0532 145.525 18.3594 125.656 18.3594C105.645 18.3594 85.9102 35.1427 85.9102 58.9107V152.05C85.9102 148.059 89.1456 144.824 93.1367 144.824C97.1279 144.824 100.363 148.059 100.363 152.05V58.9107Z" fill="#F9F9F9"/>
<path d="M100.363 152.05C100.363 156.042 97.1279 159.278 93.1367 159.278C89.1456 159.278 85.9102 156.042 85.9102 152.05M100.363 152.05V58.9107C100.363 43.5958 113.148 32.8125 125.656 32.8125C138.307 32.8125 150.949 42.7783 150.949 58.9107V243.772M100.363 152.05C100.363 148.059 97.1279 144.824 93.1367 144.824C89.1456 144.824 85.9102 148.059 85.9102 152.05M85.9102 152.05V58.9107C85.9102 35.1427 105.645 18.3594 125.656 18.3594C145.525 18.3594 165.402 34.0532 165.402 58.9107V243.772M165.402 243.772C165.402 247.763 162.167 250.999 158.176 250.999C154.185 250.999 150.949 247.763 150.949 243.772M165.402 243.772C165.402 239.781 162.167 236.546 158.176 236.546C154.185 236.546 150.949 239.781 150.949 243.772" stroke="black" stroke-width="2" stroke-linecap="round" stroke-linejoin="round"/>
<path d="M85.9102 152.05C85.9102 156.041 89.1456 159.277 93.1367 159.277C97.1279 159.277 100.363 156.041 100.363 152.05C100.363 148.059 97.1279 144.824 93.1367 144.824C89.1456 144.824 85.9102 148.059 85.9102 152.05Z" fill="#F9F9F9"/>
<path d="M150.949 243.772C150.949 247.763 154.185 250.999 158.176 250.999C162.167 250.999 165.402 247.763 165.402 243.772C165.402 239.781 162.167 236.546 158.176 236.546C154.185 236.546 150.949 239.781 150.949 243.772Z" fill="#F9F9F9"/>
<path d="M85.9102 152.05C85.9102 156.041 89.1456 159.277 93.1367 159.277C97.1279 159.277 100.363 156.041 100.363 152.05C100.363 148.059 97.1279 144.824 93.1367 144.824C89.1456 144.824 85.9102 148.059 85.9102 152.05Z" stroke="black" stroke-width="2" stroke-linecap="round" stroke-linejoin="round"/>
<path d="M150.949 243.772C150.949 247.763 154.185 250.999 158.176 250.999C162.167 250.999 165.402 247.763 165.402 243.772C165.402 239.781 162.167 236.546 158.176 236.546C154.185 236.546 150.949 239.781 150.949 243.772Z" stroke="black" stroke-width="2" stroke-linecap="round" stroke-linejoin="round"/>
<circle cx="125.658" cy="57.0705" r="24.4592" fill="#F9F9F9" stroke="black" stroke-width="2" stroke-linecap="round" stroke-linejoin="round"/>
</svg>
