<svg width="251" height="253" viewBox="0 0 251 253" fill="none" xmlns="http://www.w3.org/2000/svg">
<path d="M90.5671 60.3439C77.2035 47.4866 68.455 28.4833 66.5427 5.5356C66.5641 7.46296 63.2376 9.06251 59.1121 9.10831C55.1611 9.15218 51.9106 7.75498 51.624 5.94367C53.8281 31.7604 64.2468 55.2 80.485 70.823C88.2019 78.2476 97.2423 84.0489 107.35 87.935C105.181 81.7102 103.949 73.4604 103.605 70.1137C98.848 67.4 94.491 64.1192 90.5671 60.3439Z" fill="#F9F9F9"/>
<path d="M118.537 19.4644C107.463 31.6153 101.323 49.0202 103.605 70.1137C103.949 73.4604 105.181 81.7102 107.35 87.935C109.83 95.9889 113.461 104.445 118.394 113.234C140.611 152.826 145.25 185.157 138.856 206.47C135.7 216.991 129.869 224.882 121.977 230.052C114.042 235.251 103.966 237.656 90.9463 236.991C92.8677 237.145 94.1585 240.604 93.8295 244.716C93.506 248.759 91.7376 251.929 89.8525 251.889C105.294 252.661 118.981 249.399 129.946 242.216C140.976 234.99 148.742 224.122 152.784 210.649C160.786 183.975 154.228 147.378 131.075 106.118C128.426 101.397 126.22 96.8488 124.414 92.477C121.873 86.8611 119.979 79.5289 119.35 76.5648C114.654 55.0482 120.369 39.0427 129.285 29.2596C142.416 14.8513 163.045 12.4329 176.573 23.4172C183.489 29.0328 186.919 41.7688 182.389 54.2954C178.138 66.0519 166.685 77.4315 144.052 78.8623C135.191 79.4225 126.929 78.5945 119.35 76.5648C119.979 79.5289 121.873 86.8611 124.414 92.477C130.963 93.5073 137.832 93.8262 144.97 93.375C172.943 91.6066 189.7 76.8423 196.064 59.2401C202.151 42.408 198.6 22.5707 185.739 12.1283C165.24 -4.51663 135.959 0.348003 118.537 19.4644Z" fill="#F9F9F9"/>
<path d="M66.5427 5.5356C68.455 28.4833 77.2035 47.4866 90.5671 60.3439C94.491 64.1192 98.848 67.4 103.605 70.1137M66.5427 5.5356C66.5213 3.60824 63.1601 2.08294 59.0346 2.12874C54.9092 2.17454 51.5822 3.7741 51.6036 5.70145M66.5427 5.5356C66.5641 7.46296 63.2376 9.06251 59.1121 9.10831C55.1611 9.15218 51.9106 7.75498 51.624 5.94367M103.605 70.1137C101.323 49.0202 107.463 31.6153 118.537 19.4644C135.959 0.348003 165.24 -4.51663 185.739 12.1283C198.6 22.5707 202.151 42.408 196.064 59.2401C189.7 76.8423 172.943 91.6066 144.97 93.375C137.832 93.8262 130.963 93.5073 124.414 92.477M103.605 70.1137C103.949 73.4604 105.181 81.7102 107.35 87.935M124.414 92.477C126.22 96.8488 128.426 101.397 131.075 106.118C154.228 147.378 160.786 183.975 152.784 210.649C148.742 224.122 140.976 234.99 129.946 242.216C118.981 249.399 105.294 252.661 89.8525 251.889M124.414 92.477C121.873 86.8611 119.979 79.5289 119.35 76.5648M89.7548 251.884C87.8335 251.731 86.5427 248.272 86.8717 244.16C87.2007 240.047 89.025 236.838 90.9463 236.991M89.7548 251.884C89.7874 251.887 89.82 251.889 89.8525 251.889M89.7548 251.884C89.7874 251.886 89.8199 251.888 89.8525 251.889M89.7548 251.884L89.8525 251.889M90.9463 236.991C103.966 237.656 114.042 235.251 121.977 230.052C129.869 224.882 135.7 216.991 138.856 206.47C145.25 185.157 140.611 152.826 118.394 113.234C113.461 104.445 109.83 95.9889 107.35 87.935M90.9463 236.991C92.8677 237.145 94.1585 240.604 93.8295 244.716C93.506 248.759 91.7376 251.929 89.8525 251.889M107.35 87.935C97.2423 84.0489 88.2019 78.2476 80.485 70.823C64.2468 55.2 53.8281 31.7604 51.624 5.94367M51.6036 5.70145C51.6045 5.78294 51.6114 5.86371 51.624 5.94367M51.6036 5.70145C51.6103 5.78221 51.6172 5.86295 51.624 5.94367M119.35 76.5648C126.929 78.5945 135.191 79.4225 144.052 78.8623C166.685 77.4315 178.138 66.0519 182.389 54.2954C186.919 41.7688 183.489 29.0328 176.573 23.4172C163.045 12.4329 142.416 14.8513 129.285 29.2596C120.369 39.0427 114.654 55.0482 119.35 76.5648Z" stroke="black" stroke-width="2" stroke-linejoin="round"/>
<path d="M59.0346 2.12991C54.9092 2.17571 51.5822 3.77527 51.6036 5.70263C51.6103 5.78339 51.6172 5.86413 51.624 5.94484C51.9106 7.75615 55.1611 9.15335 59.1121 9.10949C63.2376 9.06369 66.5641 7.46413 66.5427 5.53677C66.5213 3.60942 63.1601 2.08411 59.0346 2.12991Z" fill="#F9F9F9"/>
<path d="M86.8717 244.161C86.5427 248.273 87.8335 251.732 89.7548 251.886L89.8525 251.89C91.7376 251.93 93.506 248.76 93.8295 244.717C94.1585 240.605 92.8677 237.146 90.9463 236.993C89.025 236.839 87.2007 240.048 86.8717 244.161Z" fill="#F9F9F9"/>
<path d="M59.0346 2.12991C54.9092 2.17571 51.5822 3.77527 51.6036 5.70263C51.6103 5.78339 51.6172 5.86413 51.624 5.94484C51.9106 7.75615 55.1611 9.15335 59.1121 9.10949C63.2376 9.06369 66.5641 7.46413 66.5427 5.53677C66.5213 3.60942 63.1601 2.08411 59.0346 2.12991Z" stroke="black" stroke-width="2" stroke-linecap="round" stroke-linejoin="round"/>
<path d="M86.8717 244.161C86.5427 248.273 87.8335 251.732 89.7548 251.886L89.8525 251.89C91.7376 251.93 93.506 248.76 93.8295 244.717C94.1585 240.605 92.8677 237.146 90.9463 236.993C89.025 236.839 87.2007 240.048 86.8717 244.161Z" stroke="black" stroke-width="2" stroke-linecap="round" stroke-linejoin="round"/>
</svg>
