<svg width="251" height="252" viewBox="0 0 251 252" fill="none" xmlns="http://www.w3.org/2000/svg">
<path d="M28.2944 6.84069C28.2796 5.53608 28.2647 4.26731 28.2162 3.04217C28.2343 4.21448 25.8733 5.20159 22.9427 5.24694C20.046 5.29176 17.677 4.39964 17.6052 3.24683C17.6367 4.07354 17.6475 5.28186 17.6513 6.36247C17.6748 12.9131 17.7139 23.8555 24.0664 34.0961C31.7062 46.412 47.5436 56.7782 78.8232 61.3091C91.2395 63.1076 98.7413 69.1712 102.995 76.9212C104.379 79.4437 105.444 82.1932 106.207 85.0949C107.858 85.0131 112.397 85.1442 117.346 86.3226C116.416 81.2515 114.779 76.3315 112.299 71.8138C106.395 61.0557 95.9593 53.0659 80.3446 50.8041C50.6402 46.5015 38.4041 37.0742 33.0857 28.5005C28.4555 21.0364 28.3697 13.4751 28.2944 6.84069Z" fill="#F9F9F9"/>
<path d="M147.719 104.996C141.729 95.7416 131.856 89.0262 117.346 86.3226C112.397 85.1442 107.858 85.0131 106.207 85.0949C84.9472 84.2346 67.9325 95.9723 60.9245 109.913C57.394 116.936 56.2223 124.941 58.9986 132.218C61.8294 139.637 68.3603 145.249 78.0868 148.109C88.789 151.256 98.237 145.787 104.796 137.843C111.384 129.865 115.975 118.499 117.627 106.783C118.063 103.696 118.3 100.541 118.308 97.3739C114.298 96.1591 109.55 95.8214 107.678 95.8043C107.759 98.9302 107.566 102.12 107.118 105.301C105.684 115.464 101.725 124.892 96.6115 131.085C91.4693 137.313 86.0659 139.392 81.081 137.926C73.7862 135.78 70.3113 132.093 68.915 128.434C67.4642 124.631 67.8442 119.779 70.4074 114.681C75.5551 104.441 88.7737 94.9225 106.01 95.7108C106.574 95.7366 107.13 95.7678 107.678 95.8043C109.55 95.8214 114.298 96.1591 118.308 97.3739C128.722 99.9084 135.037 104.936 138.809 110.764C144.065 118.884 145.121 129.676 143.552 140.488C143.481 140.973 143.41 141.461 143.338 141.952C141.741 152.896 139.925 165.338 142.337 178.224C143.863 186.375 147.038 194.562 152.729 202.723C153.934 204.43 156.966 208.486 159.458 211.057C162.061 213.878 165.001 216.694 168.316 219.502C184.874 233.527 202.784 235.512 215.814 229.019C228.872 222.513 235.905 207.888 230.715 192.013C228.499 185.235 224.124 180.504 218.468 177.765C212.959 175.096 206.549 174.454 200.196 175.082C187.551 176.331 173.673 182.746 163.698 191.67C162.609 192.644 161.464 193.737 160.271 194.919C161.765 197.009 165.166 201.626 166.817 203.377C168.205 201.976 169.517 200.705 170.774 199.581C179.231 192.016 191.041 186.653 201.24 185.645C206.31 185.144 210.611 185.753 213.841 187.318C216.923 188.81 219.313 191.294 220.627 195.312C224.15 206.09 219.515 215.316 211.081 219.519C202.617 223.736 189.208 223.288 175.176 211.402C171.989 208.703 169.22 206.027 166.817 203.377C165.166 201.626 161.765 197.009 160.271 194.919C156.144 188.532 153.9 182.308 152.77 176.271C150.69 165.16 152.271 154.288 153.919 142.953C153.964 142.64 154.01 142.327 154.055 142.013C155.82 129.859 154.915 116.112 147.719 104.996Z" fill="#F9F9F9"/>
<path d="M154.451 216.267C156.227 214.449 157.89 212.707 159.458 211.057C156.966 208.486 153.934 204.43 152.729 202.723C150.822 204.733 148.856 206.805 146.857 208.852C140.467 215.397 133.303 222.19 125.232 227.805C109.257 238.922 90.6875 244.652 66.9494 235.021C68.0208 235.497 67.847 238.228 66.5614 241.121C65.2952 243.97 63.4228 245.913 62.343 245.516C90.3503 256.86 113.357 249 131.294 236.518C140.185 230.332 147.899 222.979 154.451 216.267Z" fill="#F9F9F9"/>
<path d="M28.2162 3.04217C28.2647 4.26731 28.2796 5.53608 28.2944 6.84069C28.3697 13.4751 28.4555 21.0364 33.0857 28.5005C38.4041 37.0742 50.6402 46.5015 80.3446 50.8041C95.9593 53.0659 106.395 61.0557 112.299 71.8138C114.779 76.3315 116.416 81.2515 117.346 86.3226M28.2162 3.04217C28.198 1.86986 25.8076 0.956271 22.8771 1.00162C19.9465 1.04696 17.5855 2.03407 17.6036 3.20638C17.6038 3.2199 17.6044 3.23339 17.6052 3.24683M28.2162 3.04217C28.2343 4.21448 25.8733 5.20159 22.9427 5.24694C20.046 5.29176 17.677 4.39964 17.6052 3.24683M117.346 86.3226C131.856 89.0262 141.729 95.7416 147.719 104.996C154.915 116.112 155.82 129.859 154.055 142.013C154.01 142.327 153.964 142.64 153.919 142.953C152.271 154.288 150.69 165.16 152.77 176.271C153.9 182.308 156.144 188.532 160.271 194.919M117.346 86.3226C112.397 85.1442 107.858 85.0131 106.207 85.0949M160.271 194.919C161.464 193.737 162.609 192.644 163.698 191.67C173.673 182.746 187.551 176.331 200.196 175.082C206.549 174.454 212.959 175.096 218.468 177.765C224.124 180.504 228.499 185.235 230.715 192.013C235.905 207.888 228.872 222.513 215.814 229.019C202.784 235.512 184.874 233.527 168.316 219.502C165.001 216.694 162.061 213.878 159.458 211.057M160.271 194.919C161.765 197.009 165.166 201.626 166.817 203.377M159.458 211.057C157.89 212.707 156.227 214.449 154.451 216.267C147.899 222.979 140.185 230.332 131.294 236.518C113.357 249 90.3503 256.86 62.343 245.516M159.458 211.057C156.966 208.486 153.934 204.43 152.729 202.723M66.9494 235.021C90.6875 244.652 109.257 238.922 125.232 227.805C133.303 222.19 140.467 215.397 146.857 208.852C148.856 206.805 150.822 204.733 152.729 202.723M66.9494 235.021C65.8781 234.544 63.9674 236.503 62.6818 239.396C61.3962 242.289 61.2224 245.02 62.2938 245.496C62.3102 245.503 62.3266 245.51 62.343 245.516M66.9494 235.021C68.0208 235.497 67.847 238.228 66.5614 241.121C65.2953 243.97 63.4228 245.913 62.343 245.516M152.729 202.723C147.038 194.562 143.863 186.375 142.337 178.224C139.925 165.338 141.741 152.896 143.338 141.952C143.41 141.461 143.481 140.973 143.552 140.488C145.121 129.676 144.065 118.884 138.809 110.764C135.037 104.936 128.722 99.9084 118.308 97.3739M118.308 97.3739C118.3 100.541 118.063 103.696 117.627 106.783C115.975 118.499 111.384 129.865 104.796 137.843C98.237 145.787 88.789 151.256 78.0868 148.109C68.3603 145.249 61.8294 139.637 58.9986 132.218C56.2223 124.941 57.394 116.936 60.9245 109.913C67.9325 95.9723 84.9472 84.2346 106.207 85.0949M118.308 97.3739C114.298 96.1591 109.55 95.8214 107.678 95.8043M106.207 85.0949C105.444 82.1932 104.379 79.4437 102.995 76.9212C98.7413 69.1712 91.2395 63.1076 78.8232 61.3091C47.5436 56.7782 31.7062 46.412 24.0664 34.0961C17.7139 23.8555 17.6748 12.9131 17.6513 6.36247C17.6475 5.28186 17.6367 4.07354 17.6052 3.24683M107.678 95.8043C107.13 95.7678 106.574 95.7366 106.01 95.7108C88.7737 94.9225 75.5551 104.441 70.4074 114.681C67.8442 119.779 67.4642 124.631 68.915 128.434C70.3113 132.093 73.7862 135.78 81.081 137.926C86.0659 139.392 91.4693 137.313 96.6115 131.085C101.725 124.892 105.684 115.464 107.118 105.301C107.566 102.12 107.759 98.9302 107.678 95.8043ZM166.817 203.377C169.22 206.027 171.989 208.703 175.176 211.402C189.208 223.288 202.617 223.736 211.081 219.519C219.515 215.316 224.15 206.09 220.627 195.312C219.313 191.294 216.923 188.81 213.841 187.318C210.611 185.753 206.31 185.144 201.24 185.645C191.041 186.653 179.231 192.016 170.774 199.581C169.517 200.705 168.205 201.976 166.817 203.377Z" stroke="black" stroke-width="2" stroke-linejoin="round"/>
<path d="M22.8771 1.00162C19.9465 1.04696 17.5855 2.03407 17.6036 3.20638C17.6038 3.2199 17.6044 3.23339 17.6052 3.24683C17.677 4.39964 20.046 5.29176 22.9427 5.24694C25.8733 5.20159 28.2343 4.21448 28.2162 3.04217C28.198 1.86986 25.8076 0.956271 22.8771 1.00162Z" fill="#F9F9F9"/>
<path d="M62.2938 245.496C62.3102 245.503 62.3266 245.51 62.343 245.516C63.4228 245.913 65.2952 243.97 66.5614 241.121C67.847 238.228 68.0208 235.497 66.9494 235.021C65.8781 234.544 63.9674 236.503 62.6818 239.396C61.3962 242.289 61.2224 245.02 62.2938 245.496Z" fill="#F9F9F9"/>
<path d="M22.8771 1.00162C19.9465 1.04696 17.5855 2.03407 17.6036 3.20638C17.6038 3.2199 17.6044 3.23339 17.6052 3.24683C17.677 4.39964 20.046 5.29176 22.9427 5.24694C25.8733 5.20159 28.2343 4.21448 28.2162 3.04217C28.198 1.86986 25.8076 0.956271 22.8771 1.00162Z" stroke="black" stroke-width="2" stroke-linecap="round" stroke-linejoin="round"/>
<path d="M62.2938 245.496C62.3102 245.503 62.3266 245.51 62.343 245.516C63.4228 245.913 65.2952 243.97 66.5614 241.121C67.847 238.228 68.0208 235.497 66.9494 235.021C65.8781 234.544 63.9674 236.503 62.6818 239.396C61.3962 242.289 61.2224 245.02 62.2938 245.496Z" stroke="black" stroke-width="2" stroke-linecap="round" stroke-linejoin="round"/>
</svg>
