<svg width="251" height="253" viewBox="0 0 251 253" fill="none" xmlns="http://www.w3.org/2000/svg">
<path d="M109.694 14.9803C113.381 10.764 119.587 8.91703 125.282 9.82524C130.943 10.7281 135.146 14.1247 135.987 19.5297C136.707 24.1578 135.228 27.4146 132.24 30.3996C128.993 33.6428 124.202 36.3141 118.554 39.3791C118.378 39.4746 118.202 39.5704 118.024 39.6666C112.775 42.5136 106.874 45.714 102.309 49.8962C97.4176 54.3773 93.79 60.2206 93.79 68.2035C93.79 79.1851 98.2063 86.301 105.02 90.8978C111.414 95.2119 119.712 97.1353 127.052 98.7441C127.496 98.8413 127.936 98.9374 128.373 99.0328C135.57 100.604 141.79 101.962 146.419 104.573C148.76 105.892 150.487 107.434 151.652 109.321C152.806 111.191 153.583 113.682 153.583 117.193C153.583 121.752 152.143 124.914 149.545 127.838C146.741 130.995 142.655 133.817 137.139 137.538L136.689 137.841C125.867 145.138 111.43 154.872 98.1023 174.948C83.376 197.13 85.5704 219.261 95.8868 233.971C106.033 248.439 124.464 255.92 140.981 247.413C153.259 241.089 157.751 230.38 156.037 221.201C155.199 216.713 152.853 212.622 149.246 209.925C145.572 207.177 141.379 206.01 136.234 207.184C137.542 206.975 138.903 208.685 139.273 211.003C139.628 213.226 138.943 215.201 137.732 215.543C140.394 214.978 142.521 215.591 144.116 216.783C145.809 218.05 147.126 220.149 147.616 222.772C148.557 227.814 146.367 235.005 137.058 239.799C125.307 245.852 111.262 240.977 102.901 229.054C94.7092 217.374 92.3635 199.079 105.239 179.685C117.626 161.027 130.908 152.07 141.565 144.884L141.929 144.638C147.206 141.079 152.286 137.649 155.95 133.526C159.819 129.171 162.149 124.024 162.149 117.193C162.149 112.353 161.057 108.25 158.941 104.823C156.836 101.412 153.892 98.9538 150.627 97.1127C144.816 93.8359 137.349 92.2156 130.582 90.7473C130.012 90.6235 129.446 90.5007 128.887 90.3781C121.279 88.7109 114.628 87.0479 109.811 83.7984C105.414 80.8316 102.356 76.4067 102.356 68.2035C102.356 63.2197 104.481 59.5231 108.096 56.2108C111.874 52.7497 116.974 49.9821 122.598 46.9294L122.686 46.8817C128.048 43.9719 134.014 40.7339 138.294 36.4588C142.845 31.9137 145.667 26.0255 144.451 18.2133C142.894 8.20207 134.933 2.69152 126.631 1.36757C118.431 0.0598908 109.468 2.14858 103.543 9.1296C104.479 8.19193 106.585 8.77569 108.247 10.4335C109.824 12.0065 110.435 13.9814 109.694 14.9803Z" fill="#F9F9F9"/>
<path d="M109.563 15.133C108.627 16.0707 106.521 15.4869 104.859 13.8291C103.197 12.1713 102.608 10.0673 103.543 9.1296M109.563 15.133C109.61 15.0851 109.654 15.0341 109.694 14.9803M109.563 15.133C109.606 15.0817 109.65 15.0308 109.694 14.9803M103.543 9.1296C109.468 2.14858 118.431 0.0598908 126.631 1.36757C134.933 2.69152 142.894 8.20207 144.451 18.2133C145.667 26.0255 142.845 31.9137 138.294 36.4588C134.014 40.7339 128.048 43.9719 122.686 46.8817L122.598 46.9294C116.974 49.9821 111.874 52.7497 108.096 56.2108C104.481 59.5231 102.356 63.2197 102.356 68.2035C102.356 76.4067 105.414 80.8316 109.811 83.7984C114.628 87.0479 121.279 88.7109 128.887 90.3781C129.446 90.5007 130.012 90.6234 130.582 90.7473C137.349 92.2156 144.816 93.8359 150.627 97.1127C153.892 98.9538 156.836 101.412 158.942 104.823C161.057 108.25 162.149 112.353 162.149 117.193C162.149 124.024 159.819 129.171 155.95 133.526C152.286 137.649 147.206 141.079 141.929 144.638L141.565 144.884C130.908 152.07 117.626 161.027 105.239 179.685C92.3635 199.079 94.7092 217.374 102.901 229.054C111.262 240.977 125.307 245.852 137.058 239.799C146.367 235.005 148.557 227.814 147.616 222.772C147.126 220.149 145.809 218.05 144.116 216.783C142.521 215.591 140.394 214.978 137.732 215.543M103.543 9.1296C104.479 8.19193 106.585 8.77569 108.247 10.4335C109.824 12.0065 110.435 13.9814 109.694 14.9803M137.574 215.578C136.266 215.787 134.906 214.077 134.536 211.759C134.166 209.441 134.926 207.393 136.234 207.184M137.574 215.578C137.628 215.57 137.681 215.558 137.732 215.543M137.574 215.578C137.627 215.566 137.68 215.555 137.732 215.543M136.234 207.184C141.379 206.01 145.572 207.177 149.246 209.925C152.853 212.622 155.199 216.713 156.037 221.201C157.751 230.38 153.259 241.089 140.981 247.413C124.464 255.92 106.033 248.439 95.8868 233.971C85.5704 219.261 83.376 197.13 98.1023 174.948C111.43 154.872 125.867 145.138 136.689 137.841M136.234 207.184C137.543 206.975 138.903 208.685 139.273 211.003C139.628 213.226 138.943 215.201 137.732 215.543M136.689 137.841C136.84 137.74 136.989 137.639 137.139 137.538M136.689 137.841L137.139 137.538M137.139 137.538C142.655 133.817 146.741 130.995 149.545 127.838C152.143 124.914 153.583 121.752 153.583 117.193C153.583 113.682 152.806 111.191 151.652 109.321C150.487 107.434 148.76 105.892 146.419 104.573C141.79 101.962 135.57 100.604 128.373 99.0328C127.936 98.9374 127.496 98.8413 127.052 98.7441C119.712 97.1353 111.414 95.2119 105.02 90.8978C98.2063 86.301 93.79 79.1851 93.79 68.2035C93.79 60.2206 97.4176 54.3773 102.309 49.8962C106.874 45.714 112.775 42.5136 118.024 39.6666C118.202 39.5704 118.378 39.4746 118.554 39.3791C124.202 36.3141 128.993 33.6428 132.24 30.3996C135.228 27.4146 136.707 24.1578 135.987 19.5297C135.146 14.1247 130.943 10.7281 125.282 9.82524C119.587 8.91703 113.381 10.764 109.694 14.9803" stroke="black" stroke-width="2" stroke-linejoin="round"/>
<path d="M134.535 211.759C134.905 214.077 136.265 215.787 137.573 215.578C137.626 215.566 137.679 215.554 137.731 215.543C138.942 215.201 139.627 213.226 139.272 211.003C138.902 208.685 137.542 206.975 136.233 207.183C134.925 207.392 134.165 209.441 134.535 211.759Z" fill="#F9F9F9"/>
<path d="M104.858 13.8286C106.52 15.4864 108.626 16.0702 109.562 15.1325C109.605 15.0813 109.649 15.0304 109.693 14.9798C110.434 13.9809 109.823 12.006 108.246 10.433C106.584 8.77523 104.478 8.19146 103.542 9.12913C102.607 10.0668 103.196 12.1708 104.858 13.8286Z" fill="#F9F9F9"/>
<path d="M134.535 211.759C134.905 214.077 136.265 215.787 137.573 215.578C137.626 215.566 137.679 215.554 137.731 215.543C138.942 215.201 139.627 213.226 139.272 211.003C138.902 208.685 137.542 206.975 136.233 207.183C134.925 207.392 134.165 209.441 134.535 211.759Z" stroke="black" stroke-width="2" stroke-linecap="round" stroke-linejoin="round"/>
<path d="M104.858 13.8286C106.52 15.4864 108.626 16.0702 109.562 15.1325C109.605 15.0813 109.649 15.0304 109.693 14.9798C110.434 13.9809 109.823 12.006 108.246 10.433C106.584 8.77523 104.478 8.19146 103.542 9.12913C102.607 10.0668 103.196 12.1708 104.858 13.8286Z" stroke="black" stroke-width="2" stroke-linecap="round" stroke-linejoin="round"/>
</svg>
