<svg width="252" height="252" viewBox="0 0 252 252" fill="none" xmlns="http://www.w3.org/2000/svg">
<path d="M1 42.6667C1 19.6548 19.6548 1 42.6667 1C65.6785 1 84.3333 19.6548 84.3333 42.6667V84.3333H42.6667C19.6548 84.3333 1 65.6785 1 42.6667Z" fill="#F9F9F9"/>
<path d="M251 209.333C251 232.345 232.345 251 209.333 251C186.321 251 167.667 232.345 167.667 209.333V167.667H209.333C232.345 167.667 251 186.321 251 209.333Z" fill="#F9F9F9"/>
<path d="M209.333 1C232.345 1 251 19.6548 251 42.6667C251 65.6785 232.345 84.3333 209.333 84.3333H167.667V42.6667C167.667 19.6548 186.321 0.999999 209.333 1Z" fill="#F9F9F9"/>
<path d="M42.6667 251C19.6548 251 0.999997 232.345 1 209.333C1 186.321 19.6548 167.667 42.6667 167.667H84.3333V209.333C84.3333 232.345 65.6785 251 42.6667 251Z" fill="#F9F9F9"/>
<path d="M167.667 84.3333V167.667H84.3333V84.3333H167.667Z" fill="#F9F9F9"/>
<path d="M84.3333 84.3333V42.6667C84.3333 19.6548 65.6785 1 42.6667 1C19.6548 1 1 19.6548 1 42.6667C1 65.6785 19.6548 84.3333 42.6667 84.3333H84.3333ZM84.3333 84.3333L84.3333 167.667M84.3333 84.3333H167.667M167.667 167.667L167.667 209.333C167.667 232.345 186.321 251 209.333 251C232.345 251 251 232.345 251 209.333C251 186.321 232.345 167.667 209.333 167.667H167.667ZM167.667 167.667L167.667 84.3333M167.667 167.667L84.3333 167.667M167.667 84.3333H209.333C232.345 84.3333 251 65.6785 251 42.6667C251 19.6548 232.345 1 209.333 1C186.321 0.999999 167.667 19.6548 167.667 42.6667V84.3333ZM84.3333 167.667H42.6667C19.6548 167.667 1 186.321 1 209.333C0.999997 232.345 19.6548 251 42.6667 251C65.6785 251 84.3333 232.345 84.3333 209.333L84.3333 167.667Z" stroke="black" stroke-width="2" stroke-linejoin="round"/>
</svg>
