<svg width="250" height="250" viewBox="0 0 250 250" fill="none" xmlns="http://www.w3.org/2000/svg">
<path d="M34 125C34 178.295 66.1063 221.5 105.712 221.5C144.526 221.5 170.789 178.658 185.846 128.181C186.011 127.629 186.176 127.077 186.34 126.526C186.188 126.018 186.037 125.509 185.885 125C170.442 73.2505 145.317 28.5 105.712 28.5C66.1063 28.5 34 71.7045 34 125Z" fill="#F9F9F9"/>
<path d="M215.462 28.5C215.462 28.5 200.904 77.7044 185.846 128.181C170.789 178.658 144.526 221.5 105.712 221.5C66.1063 221.5 34 178.295 34 125C34 71.7045 66.1063 28.5 105.712 28.5C145.317 28.5 170.442 73.2505 185.885 125C201.327 176.749 215.5 221.5 215.5 221.5" stroke="black" stroke-width="2" stroke-linejoin="round"/>
</svg>
