<svg width="251" height="250" viewBox="0 0 251 250" fill="none" xmlns="http://www.w3.org/2000/svg">
<path d="M56.9072 221C87.7839 221 112.814 194.512 112.814 161.837C112.814 129.163 87.7839 102.674 56.9072 102.674C26.0305 102.674 1 129.163 1 161.837C1 194.512 26.0305 221 56.9072 221Z" fill="#F9F9F9"/>
<path d="M181.907 221C212.784 221 237.814 194.512 237.814 161.837C237.814 129.163 212.784 102.674 181.907 102.674C151.03 102.674 126 129.163 126 161.837C126 194.512 151.03 221 181.907 221Z" fill="#F9F9F9"/>
<path d="M1 161.837C1 194.512 26.0305 221 56.9072 221C87.7839 221 112.814 194.512 112.814 161.837C112.814 129.163 87.7839 102.674 56.9072 102.674C26.0305 102.674 1 129.163 1 161.837ZM1 161.837C1 88.4733 56.9644 29 126 29M126 161.837C126 194.512 151.03 221 181.907 221C212.784 221 237.814 194.512 237.814 161.837C237.814 129.163 212.784 102.674 181.907 102.674C151.03 102.674 126 129.163 126 161.837ZM126 161.837C126 88.4733 181.964 29 251 29" stroke="black" stroke-width="2" stroke-linejoin="round"/>
</svg>
