<svg width="250" height="250" viewBox="0 0 250 250" fill="none" xmlns="http://www.w3.org/2000/svg">
<path d="M173.077 124.923C173.077 146.165 155.857 163.385 134.615 163.385C113.374 163.385 96.1539 146.165 96.1539 124.923C96.1539 103.681 113.374 86.4615 134.615 86.4615C155.857 86.4615 173.077 103.681 173.077 124.923Z" fill="#F9F9F9"/>
<path d="M57.6923 124.923C57.6923 167.407 92.1319 201.846 134.615 201.846C162.134 201.846 186.277 187.397 199.872 165.671M57.6923 124.923C57.6923 82.4396 92.1319 48 134.615 48C162.134 48 186.277 62.4497 199.872 84.1754M57.6923 124.923H0M57.6923 124.923H250M173.077 124.923C173.077 146.165 155.857 163.385 134.615 163.385C113.374 163.385 96.1539 146.165 96.1539 124.923C96.1539 103.681 113.374 86.4615 134.615 86.4615C155.857 86.4615 173.077 103.681 173.077 124.923Z" stroke="black" stroke-width="2" stroke-linejoin="round"/>
</svg>
