<svg width="250" height="250" viewBox="0 0 250 250" fill="none" xmlns="http://www.w3.org/2000/svg">
<path d="M207.91 125C207.91 170.79 170.79 207.91 125 207.91C79.21 207.91 42.09 170.79 42.09 125C42.09 79.2099 79.21 42.0898 125 42.0898C170.79 42.0898 207.91 79.2099 207.91 125Z" fill="#F9F9F9"/>
<path d="M125 207.91C170.79 207.91 207.91 170.79 207.91 125C207.91 79.2099 170.79 42.0898 125 42.0898M125 207.91C79.21 207.91 42.09 170.79 42.09 125C42.09 79.2099 79.21 42.0898 125 42.0898M125 207.91V42.0898M0 125H250" stroke="black" stroke-width="2" stroke-linejoin="round"/>
</svg>
