<svg width="250" height="250" viewBox="0 0 250 250" fill="none" xmlns="http://www.w3.org/2000/svg">
<path d="M125 202.228C138.123 202.24 151.425 198.904 163.607 191.87C169.594 188.414 174.943 184.276 179.613 179.613C194.247 164.997 202.209 145.211 202.228 125C202.24 111.877 198.904 98.5747 191.87 86.3924C188.414 80.4056 184.276 75.0567 179.613 70.3872C164.997 55.7532 145.211 47.791 125 47.772C111.877 47.7597 98.5746 51.0962 86.3922 58.1297C80.4054 61.5862 75.0566 65.7234 70.3871 70.387C55.753 85.0025 47.7907 104.789 47.7718 125C47.7595 138.123 51.0961 151.425 58.1295 163.608C61.5861 169.594 65.7233 174.943 70.387 179.613C85.0025 194.247 104.789 202.209 125 202.228Z" fill="#F9F9F9"/>
<path d="M125 0L125 47.772M125 250V202.228M250 125H202.228M0 125H47.7718M213.388 36.6115L179.613 70.3872M36.6117 213.388L70.387 179.613M213.388 213.388L179.613 179.613M36.6117 36.6115L70.3871 70.387M179.613 179.613C174.943 184.276 169.594 188.414 163.607 191.87C151.425 198.904 138.123 202.24 125 202.228M179.613 179.613C194.247 164.997 202.209 145.211 202.228 125M125 202.228C104.789 202.209 85.0025 194.247 70.387 179.613M202.228 125C202.24 111.877 198.904 98.5747 191.87 86.3924C188.414 80.4056 184.276 75.0567 179.613 70.3872M179.613 70.3872C164.997 55.7532 145.211 47.791 125 47.772M125 47.772C111.877 47.7597 98.5746 51.0962 86.3922 58.1297C80.4054 61.5862 75.0566 65.7234 70.3871 70.387M70.3871 70.387C55.753 85.0025 47.7907 104.789 47.7718 125M47.7718 125C47.7595 138.123 51.0961 151.425 58.1295 163.608C61.5861 169.594 65.7233 174.943 70.387 179.613" stroke="black" stroke-width="2" stroke-linejoin="round"/>
</svg>
