<svg width="250" height="253" viewBox="0 0 250 253" fill="none" xmlns="http://www.w3.org/2000/svg">
<path d="M125.202 40.9707C111.387 40.9707 97.7067 43.6918 84.943 48.9787C72.1793 54.2656 60.5819 62.0147 50.813 71.7836C41.0441 81.5526 33.2949 93.15 28.008 105.914C22.7211 118.677 20 132.357 20 146.173C20 159.988 22.7211 173.668 28.008 186.432C33.2949 199.196 41.0441 210.793 50.813 220.562C60.5819 230.331 72.1793 238.08 84.943 243.367C97.7068 248.654 111.387 251.375 125.202 251.375L125.202 40.9707Z" fill="#F9F9F9" stroke="black" stroke-width="2" stroke-linejoin="round"/>
<path d="M125.048 211.404C138.863 211.404 152.543 208.683 165.307 203.396C178.071 198.109 189.668 190.36 199.437 180.591C209.206 170.822 216.955 159.225 222.242 146.461C227.529 133.698 230.25 120.018 230.25 106.202C230.25 92.3868 227.529 78.7067 222.242 65.943C216.955 53.1793 209.206 41.5819 199.437 31.813C189.668 22.0441 178.071 14.2949 165.307 9.00803C152.543 3.72113 138.863 0.999995 125.048 0.999995L125.048 211.404Z" fill="#F9F9F9" stroke="black" stroke-width="2" stroke-linejoin="round"/>
</svg>
