<svg width="252" height="251" viewBox="0 0 252 251" fill="none" xmlns="http://www.w3.org/2000/svg">
<path d="M126 1.5C91.4822 1.5 60.2322 15.4515 37.6117 38.0079C14.9911 60.5644 1 91.7259 1 126.146H126V1.5Z" fill="#F9F9F9"/>
<path d="M126 1.5C160.518 1.5 191.768 15.4515 214.388 38.0079C237.009 60.5644 251 91.7259 251 126.146H126V1.5Z" fill="#F9F9F9"/>
<path d="M126 1.5V126.146M126 1.5C91.4822 1.5 60.2322 15.4515 37.6117 38.0079M126 1.5C160.518 1.5 191.768 15.4515 214.388 38.0079M126 126.146H1C1 91.7259 14.9911 60.5644 37.6117 38.0079M126 126.146L37.6117 38.0079M126 126.146H251C251 91.7259 237.009 60.5644 214.388 38.0079M126 126.146L214.388 38.0079" stroke="black" stroke-width="2" stroke-linejoin="round"/>
</svg>
