<svg width="252" height="252" viewBox="0 0 252 252" fill="none" xmlns="http://www.w3.org/2000/svg">
<path d="M251 89.75C251 124.375 231.171 154.369 202.25 168.996C190.23 175.075 176.64 178.5 162.25 178.5C113.235 178.5 73.5 138.765 73.5 89.75C73.5 74.8587 77.1675 60.8241 83.6485 48.5C98.5001 20.2587 128.126 1 162.25 1C211.265 1 251 40.7347 251 89.75Z" fill="#F9F9F9"/>
<path d="M58.5 222.25C58.5 233.35 52.21 242.98 43 247.771C39.0349 249.834 34.5286 251 29.75 251C13.8718 251 1 238.128 1 222.25C1 217.869 1.98005 213.716 3.73289 210C8.33244 200.248 18.2531 193.5 29.75 193.5C45.6282 193.5 58.5 206.372 58.5 222.25Z" fill="#F9F9F9"/>
<path d="M83.6485 48.5C77.1675 60.8241 73.5 74.8588 73.5 89.75C73.5 138.765 113.235 178.5 162.25 178.5C176.64 178.5 190.23 175.075 202.25 168.996M83.6485 48.5C98.5001 20.2587 128.126 1 162.25 1C211.265 1 251 40.7347 251 89.75C251 124.375 231.171 154.369 202.25 168.996M83.6485 48.5L3.73289 210M3.73289 210C1.98005 213.716 1 217.869 1 222.25C1 238.128 13.8718 251 29.75 251C34.5286 251 39.0349 249.834 43 247.771M3.73289 210C8.33244 200.248 18.2531 193.5 29.75 193.5C45.6282 193.5 58.5 206.372 58.5 222.25C58.5 233.35 52.21 242.98 43 247.771M202.25 168.996L43 247.771" stroke="black" stroke-width="2" stroke-linejoin="round"/>
</svg>
