<svg width="251" height="251" viewBox="0 0 251 251" fill="none" xmlns="http://www.w3.org/2000/svg">
<path d="M150 1C205.228 1 250 45.7715 250 101C250 146.326 219.844 184.609 178.5 196.88C178.354 196.923 178.208 196.966 178.062 197.009L2.25 248.75L53.9911 72.9376C54.0337 72.7916 54.0766 72.6457 54.1199 72.5C66.3906 31.1563 104.674 1 150 1Z" fill="#F9F9F9"/>
<path d="M178.5 196.88C219.844 184.609 250 146.326 250 101C250 45.7715 205.228 1 150 1C104.674 1 66.3906 31.1563 54.1199 72.5M178.5 196.88C169.468 199.561 159.902 201 150 201C94.7715 201 50 156.228 50 101C50 91.0979 51.4392 81.532 54.1199 72.5M178.5 196.88L2.25 248.75L54.1199 72.5" stroke="black" stroke-width="2" stroke-linejoin="round"/>
</svg>
