<svg width="252" height="252" viewBox="0 0 252 252" fill="none" xmlns="http://www.w3.org/2000/svg">
<path d="M240.667 246C240.667 248.946 243.054 251.333 246 251.333C248.946 251.333 251.333 248.946 251.333 246C251.333 243.054 248.946 240.667 246 240.667C243.054 240.667 240.667 243.054 240.667 246ZM0.666667 6C0.666667 8.94552 3.05448 11.3333 6 11.3333C8.94552 11.3333 11.3333 8.94552 11.3333 6C11.3333 3.05448 8.94552 0.666667 6 0.666667C3.05448 0.666667 0.666667 3.05448 0.666667 6ZM0.666667 246C0.666667 248.946 3.05448 251.333 6 251.333C8.94552 251.333 11.3333 248.946 11.3333 246C11.3333 243.054 8.94552 240.667 6 240.667C3.05448 240.667 0.666667 243.054 0.666667 246ZM240.667 6C240.667 8.94552 243.054 11.3333 246 11.3333C248.946 11.3333 251.333 8.94552 251.333 6C251.333 3.05448 248.946 0.666667 246 0.666667C243.054 0.666667 240.667 3.05448 240.667 6ZM245 7.90476V246H247V7.90476H245ZM7 242.571V6H5V242.571H7ZM244.476 245H6V247H244.476V245ZM6.7619 7H246V5H6.7619V7Z" fill="black"/>
</svg>
