<svg width="262" height="262" viewBox="0 0 262 262" fill="none" xmlns="http://www.w3.org/2000/svg">
<path d="M63.7024 6L6 255.999M255.854 6L198.152 255.999" stroke="black" stroke-width="2" stroke-linejoin="round"/>
<path d="M58.3688 6C58.3688 8.94552 60.7566 11.3333 63.7021 11.3333C66.6477 11.3333 69.0355 8.94552 69.0355 6C69.0355 3.05448 66.6477 0.666667 63.7021 0.666667C60.7566 0.666667 58.3688 3.05448 58.3688 6ZM250.521 6C250.521 8.94552 252.908 11.3333 255.854 11.3333C258.799 11.3333 261.187 8.94552 261.187 6C261.187 3.05448 258.799 0.666667 255.854 0.666667C252.908 0.666667 250.521 3.05448 250.521 6ZM63.7021 7H255.854V5H63.7021V7Z" fill="black"/>
<path d="M192.818 256C192.818 258.945 195.206 261.333 198.152 261.333C201.097 261.333 203.485 258.945 203.485 256C203.485 253.054 201.097 250.667 198.152 250.667C195.206 250.667 192.818 253.054 192.818 256ZM0.666667 256C0.666667 258.945 3.05448 261.333 6 261.333C8.94552 261.333 11.3333 258.945 11.3333 256C11.3333 253.054 8.94552 250.667 6 250.667C3.05448 250.667 0.666667 253.054 0.666667 256ZM198.152 255H6V257H198.152V255Z" fill="black"/>
</svg>
