<svg width="262" height="262" viewBox="0 0 262 262" fill="none" xmlns="http://www.w3.org/2000/svg">
<path d="M250.667 256C250.667 258.946 253.054 261.333 256 261.333C258.946 261.333 261.333 258.946 261.333 256C261.333 253.054 258.946 250.667 256 250.667C253.054 250.667 250.667 253.054 250.667 256ZM0.666667 6C0.666667 8.94552 3.05448 11.3333 6 11.3333C8.94552 11.3333 11.3333 8.94552 11.3333 6C11.3333 3.05448 8.94552 0.666667 6 0.666667C3.05448 0.666667 0.666667 3.05448 0.666667 6ZM0.666667 256C0.666667 258.946 3.05448 261.333 6 261.333C8.94552 261.333 11.3333 258.946 11.3333 256C11.3333 253.054 8.94552 250.667 6 250.667C3.05448 250.667 0.666667 253.054 0.666667 256ZM6.07304 6.706L255.292 256.706L256.708 255.294L7.48946 5.294L6.07304 6.706ZM7 252.429V6H5V252.429H7ZM254.413 255H6V257H254.413V255Z" fill="black"/>
</svg>
