<svg width="262" height="252" viewBox="0 0 262 252" fill="none" xmlns="http://www.w3.org/2000/svg">
<path d="M250.667 246C250.667 248.946 253.054 251.333 256 251.333C258.946 251.333 261.333 248.946 261.333 246C261.333 243.054 258.946 240.667 256 240.667C253.054 240.667 250.667 243.054 250.667 246ZM124.635 6C124.635 8.94552 127.023 11.3333 129.969 11.3333C132.914 11.3333 135.302 8.94552 135.302 6C135.302 3.05448 132.914 0.666667 129.969 0.666667C127.023 0.666667 124.635 3.05448 124.635 6ZM0.666667 246C0.666667 248.946 3.05448 251.333 6 251.333C8.94552 251.333 11.3333 248.946 11.3333 246C11.3333 243.054 8.94552 240.667 6 240.667C3.05448 240.667 0.666667 243.054 0.666667 246ZM129.863 6.46266L255.113 246.463L256.887 245.537L131.637 5.53734L129.863 6.46266ZM6.88575 243.036L130.855 6.46416L129.083 5.53584L5.11425 242.107L6.88575 243.036ZM254.413 245H130.206V247H254.413V245ZM130.206 245H6V247H130.206V245Z" fill="black"/>
</svg>
