<svg width="252" height="252" viewBox="0 0 252 252" fill="none" xmlns="http://www.w3.org/2000/svg">
<path d="M251 126C251 160.518 237.009 191.768 214.388 214.388C191.768 237.009 160.518 251 126 251C56.9644 251 1 195.036 1 126C1 56.9644 56.9644 1 126 1C195.036 1 251 56.9644 251 126Z" fill="#F9F9F9"/>
<path d="M120.667 126C120.667 128.946 123.054 131.333 126 131.333C128.946 131.333 131.333 128.946 131.333 126C131.333 123.054 128.946 120.667 126 120.667C123.054 120.667 120.667 123.054 120.667 126ZM214.388 214.388L215.095 215.095L214.388 214.388ZM209.016 214.35C209.016 217.295 211.404 219.683 214.35 219.683C217.295 219.683 219.683 217.295 219.683 214.35C219.683 211.404 217.295 209.016 214.35 209.016C211.404 209.016 209.016 211.404 209.016 214.35ZM126 250C57.5167 250 2 194.483 2 126H0C0 195.588 56.4121 252 126 252V250ZM2 126C2 57.5167 57.5167 2 126 2V0C56.4121 0 0 56.4121 0 126H2ZM126 2C194.483 2 250 57.5167 250 126H252C252 56.4121 195.588 0 126 0V2ZM250 126C250 160.242 236.122 191.241 213.681 213.681L215.095 215.095C237.896 192.295 252 160.794 252 126H250ZM213.681 213.681C191.241 236.122 160.242 250 126 250V252C160.794 252 192.295 237.896 215.095 215.095L213.681 213.681ZM125.293 126.707L213.643 215.057L215.057 213.643L126.707 125.293L125.293 126.707Z" fill="black"/>
</svg>
