<svg width="250" height="252" viewBox="0 0 250 252" fill="none" xmlns="http://www.w3.org/2000/svg">
<path d="M214.657 21.5526C214.657 23.3709 213.628 25.1341 211.696 26.8132C201.567 35.6154 166.626 42.1051 125.078 42.1051C83.531 42.1051 48.5899 35.6154 38.4613 26.8132C36.5292 25.1341 35.5 23.3709 35.5 21.5526C35.5 10.2017 75.6056 1 125.078 1C174.551 1 214.657 10.2017 214.657 21.5526Z" fill="#F9F9F9"/>
<path d="M211.696 26.8132C213.628 25.1341 214.657 23.3709 214.657 21.5526C214.657 10.2017 174.551 1 125.078 1C75.6056 1 35.5 10.2017 35.5 21.5526C35.5 23.3709 36.5292 25.1341 38.4613 26.8132M211.696 26.8132C201.567 35.6154 166.626 42.1051 125.078 42.1051C83.531 42.1051 48.5899 35.6154 38.4613 26.8132M211.696 26.8132L37.2328 226.404C36.0962 227.712 35.5 229.064 35.5 230.447C35.5 241.798 75.6056 251 125.078 251C174.551 251 214.657 241.798 214.657 230.447C214.657 228.629 213.628 226.866 211.696 225.187L38.4613 26.8132" stroke="black" stroke-width="2" stroke-linejoin="round"/>
<path d="M37.2334 226.404C45.4193 216.989 81.6381 209.895 125.079 209.895C166.627 209.895 201.568 216.384 211.696 225.187" stroke="black" stroke-width="2" stroke-linejoin="round" stroke-dasharray="6 6"/>
</svg>
