<svg width="252" height="250" viewBox="0 0 252 250" fill="none" xmlns="http://www.w3.org/2000/svg">
<path d="M96.1743 124.587C96.1743 150.869 74.8688 172.174 48.5871 172.174C22.3055 172.174 1 150.869 1 124.587C1 98.3055 22.3055 77 48.5871 77C74.8688 77 96.1743 98.3055 96.1743 124.587Z" fill="#F9F9F9"/>
<path d="M251 124.587C251 150.869 229.695 172.174 203.413 172.174C177.131 172.174 155.826 150.869 155.826 124.587C155.826 98.3055 177.131 77 203.413 77C229.695 77 251 98.3055 251 124.587Z" fill="#F9F9F9"/>
<path d="M96.1743 124.587C96.1743 150.869 74.8688 172.174 48.5871 172.174C22.3055 172.174 1 150.869 1 124.587C1 98.3055 22.3055 77 48.5871 77C74.8688 77 96.1743 98.3055 96.1743 124.587ZM96.1743 124.587H155.826M155.826 124.587C155.826 150.869 177.131 172.174 203.413 172.174C229.695 172.174 251 150.869 251 124.587C251 98.3055 229.695 77 203.413 77C177.131 77 155.826 98.3055 155.826 124.587Z" stroke="black" stroke-width="2" stroke-linejoin="round"/>
</svg>
