<svg width="252" height="250" viewBox="0 0 252 250" fill="none" xmlns="http://www.w3.org/2000/svg">
<path d="M106.903 177.845C106.903 207.089 83.1959 230.796 53.9515 230.796C24.7072 230.796 1 207.089 1 177.845C1 148.601 24.7072 124.894 53.9515 124.894C83.1959 124.894 106.903 148.601 106.903 177.845Z" fill="#F9F9F9"/>
<path d="M251 71.9514C251 101.196 227.293 124.903 198.048 124.903C168.804 124.903 145.097 101.196 145.097 71.9514C145.097 42.707 168.804 18.9998 198.048 18.9998C227.293 18.9998 251 42.707 251 71.9514Z" fill="#F9F9F9"/>
<path d="M53.9515 124.894C24.7072 124.894 1 148.601 1 177.845C1 207.089 24.7072 230.796 53.9515 230.796C83.1959 230.796 106.903 207.089 106.903 177.845C106.903 148.601 83.1959 124.894 53.9515 124.894ZM53.9515 124.894L198.048 124.903M198.048 124.903C227.293 124.903 251 101.196 251 71.9514C251 42.707 227.293 18.9998 198.048 18.9998C168.804 18.9998 145.097 42.707 145.097 71.9514C145.097 101.196 168.804 124.903 198.048 124.903Z" stroke="black" stroke-width="2" stroke-linejoin="round"/>
</svg>
