<svg width="252" height="250" viewBox="0 0 252 250" fill="none" xmlns="http://www.w3.org/2000/svg">
<path d="M126 190.845C150.903 176.436 167.927 150.028 167.927 119.184C167.927 88.3391 151.173 61.4085 126.27 47C101.367 61.4085 84.6124 88.3391 84.6124 119.184C84.6124 150.028 101.097 176.436 126 190.845Z" fill="#F9F9F9"/>
<path d="M126 190.845C101.073 205.212 69.378 206.259 42.6713 190.837C15.9646 175.415 1.02412 147.436 1 118.661C25.927 104.294 57.622 103.247 84.3287 118.669C111.035 134.091 125.976 162.07 126 190.845Z" fill="#F9F9F9"/>
<path d="M126 190.845C150.927 205.212 182.622 206.259 209.329 190.837C236.035 175.415 250.976 147.436 251 118.661C226.073 104.294 194.378 103.247 167.671 118.669C140.965 134.091 126.024 162.07 126 190.845Z" fill="#F9F9F9"/>
<path d="M126 190.845C150.903 176.436 167.927 150.028 167.927 119.184C167.927 88.3391 151.173 61.4085 126.27 47C101.367 61.4085 84.6124 88.3391 84.6124 119.184C84.6124 150.028 101.097 176.436 126 190.845ZM126 190.845C101.073 205.212 69.378 206.259 42.6713 190.837C15.9646 175.415 1.02412 147.436 1 118.661C25.927 104.294 57.622 103.247 84.3287 118.669C111.035 134.091 125.976 162.07 126 190.845ZM126 190.845C150.927 205.212 182.622 206.259 209.329 190.837C236.035 175.415 250.976 147.436 251 118.661C226.073 104.294 194.378 103.247 167.671 118.669C140.965 134.091 126.024 162.07 126 190.845Z" stroke="black" stroke-width="2" stroke-linejoin="round"/>
</svg>
