<svg width="252" height="250" viewBox="0 0 252 250" fill="none" xmlns="http://www.w3.org/2000/svg">
<path d="M134.994 191.994C184.546 191.994 227.817 165.095 251 125.102C227.817 85.1097 184.546 58.211 134.994 58.211C85.4406 58.211 42.1701 85.1097 18.987 125.102C42.1701 165.095 85.4406 191.994 134.994 191.994Z" fill="#F9F9F9"/>
<path d="M1 58C1 82.4496 7.54841 105.37 18.987 125.102M1 192.205C1 167.755 7.54842 144.835 18.987 125.102M18.987 125.102C42.1701 85.1097 85.4406 58.211 134.994 58.211C184.546 58.211 227.817 85.1097 251 125.102C227.817 165.095 184.546 191.994 134.994 191.994C85.4406 191.994 42.1701 165.095 18.987 125.102Z" stroke="black" stroke-width="2" stroke-linejoin="round"/>
</svg>
