<svg width="252" height="250" viewBox="0 0 252 250" fill="none" xmlns="http://www.w3.org/2000/svg">
<path d="M0.999993 163.552C0.999987 87.0435 63.1944 25 139.889 25C201.25 25 251 74.6292 251 135.841C251 184.806 211.194 224.515 162.111 224.515C122.833 224.515 91 192.759 91 153.576C91 122.236 116.472 96.8253 147.889 96.8253C173.028 96.8252 193.389 117.165 193.389 142.215C193.389 162.277 177.083 178.543 156.972 178.543C140.889 178.543 127.833 165.547 127.833 149.475C127.833 136.645 138.278 126.226 151.139 126.226C161.444 126.226 169.778 134.539 169.778 144.82" stroke="black" stroke-width="2" stroke-linejoin="round"/>
</svg>
