<svg width="252" height="250" viewBox="0 0 252 250" fill="none" xmlns="http://www.w3.org/2000/svg">
<path d="M126.205 3C139.183 17.7229 148.915 35.3764 154.279 54.8405C194.684 66.9858 224.119 104.472 224.119 148.833C224.119 155.859 223.38 162.713 221.976 169.322C234.986 183.243 245.002 199.996 251 218.557C242.526 220.274 233.755 221.175 224.774 221.175C214.769 221.175 205.025 220.056 195.66 217.937C177.88 235.863 153.23 246.965 125.986 246.965C98.7839 246.965 74.1666 235.896 56.3923 218.018C47.1373 220.085 37.5139 221.175 27.6357 221.175C18.5099 221.175 9.60139 220.244 1 218.473C7.00093 199.946 17.0067 183.222 29.9964 169.322C28.5928 162.713 27.8543 155.859 27.8543 148.833C27.8543 104.298 57.5209 66.6916 98.17 54.6987C103.543 35.2907 113.258 17.6871 126.205 3Z" fill="#F9F9F9"/>
<path d="M154.279 54.8405C148.915 35.3764 139.183 17.7229 126.205 3C113.258 17.6871 103.543 35.2907 98.17 54.6987M154.279 54.8405C145.32 52.1476 135.822 50.7005 125.986 50.7005C116.325 50.7005 106.989 52.0968 98.17 54.6987M154.279 54.8405C194.684 66.9858 224.119 104.472 224.119 148.833C224.119 155.859 223.38 162.713 221.976 169.322M154.279 54.8405C157.349 65.9782 158.989 77.7087 158.989 89.8222C158.989 152.488 115.105 204.905 56.3922 218.018M98.17 54.6987C57.5209 66.6916 27.8543 104.298 27.8543 148.833C27.8543 155.859 28.5928 162.713 29.9964 169.322M98.17 54.6987C95.0751 65.8786 93.4214 77.6573 93.4214 89.8222C93.4214 152.361 137.127 204.692 195.66 217.937M221.976 169.322C234.986 183.243 245.002 199.996 251 218.557C242.526 220.274 233.755 221.175 224.774 221.175C214.769 221.175 205.025 220.056 195.66 217.937M221.976 169.322C217.996 188.062 208.666 204.825 195.66 217.937M221.976 169.322C198.004 143.668 163.868 127.633 125.986 127.633C88.1052 127.633 53.9693 143.668 29.9964 169.322M195.66 217.937C177.88 235.863 153.23 246.965 125.986 246.965C98.7839 246.965 74.1666 235.896 56.3922 218.018M56.3922 218.018C47.1373 220.085 37.5139 221.175 27.6357 221.175C18.5099 221.175 9.60139 220.244 1 218.473C7.00093 199.946 17.0067 183.222 29.9964 169.322M56.3922 218.018C43.3451 204.894 33.9852 188.1 29.9964 169.322" stroke="black" stroke-width="2" stroke-linejoin="round"/>
</svg>
