<svg width="252" height="250" viewBox="0 0 252 250" fill="none" xmlns="http://www.w3.org/2000/svg">
<path d="M168.213 132.943C162.805 161.968 147.536 187.525 126.014 206.007C148.26 225.111 177.187 236.656 208.811 236.656C223.599 236.656 237.798 234.131 251 229.489C248.422 215.712 243.506 202.131 236.1 189.303C220.298 161.935 195.859 142.663 168.213 132.943Z" fill="#F9F9F9"/>
<path d="M1 229.479C14.2097 234.127 28.4182 236.656 43.2172 236.656C74.8406 236.656 103.768 225.111 126.014 206.007C104.482 187.516 89.2088 161.944 83.8068 132.902C76.5116 135.475 69.3487 138.754 62.4066 142.762C28.9608 162.072 7.60651 194.282 1 229.479Z" fill="#F9F9F9"/>
<path d="M170.369 109.503C170.369 70.9027 153.169 36.3194 126.014 13C98.8592 36.3194 81.6585 70.9027 81.6585 109.503C81.6585 117.497 82.3961 125.317 83.8068 132.902C111.66 123.075 141.44 123.529 168.213 132.943C169.629 125.346 170.369 117.511 170.369 109.503Z" fill="#F9F9F9"/>
<path d="M126.014 206.007C147.536 187.525 162.805 161.968 168.213 132.943C141.44 123.529 111.66 123.075 83.8068 132.902C89.2088 161.944 104.482 187.516 126.014 206.007Z" fill="#F9F9F9"/>
<path d="M168.213 132.943C162.805 161.968 147.536 187.525 126.014 206.007M168.213 132.943C195.859 142.663 220.298 161.935 236.1 189.303C243.506 202.131 248.422 215.712 251 229.489C237.798 234.131 223.599 236.656 208.811 236.656C177.187 236.656 148.26 225.111 126.014 206.007M168.213 132.943C169.629 125.346 170.369 117.511 170.369 109.503C170.369 70.9027 153.169 36.3194 126.014 13C98.8592 36.3194 81.6585 70.9027 81.6585 109.503C81.6585 117.497 82.3961 125.317 83.8068 132.902M168.213 132.943C141.44 123.529 111.66 123.075 83.8068 132.902M126.014 206.007C103.768 225.111 74.8406 236.656 43.2172 236.656C28.4182 236.656 14.2097 234.127 1 229.479C7.60651 194.282 28.9608 162.072 62.4066 142.762C69.3487 138.754 76.5116 135.475 83.8068 132.902M126.014 206.007C104.482 187.516 89.2088 161.944 83.8068 132.902" stroke="black" stroke-width="2" stroke-linejoin="round"/>
</svg>
