<svg width="253" height="250" viewBox="0 0 253 250" fill="none" xmlns="http://www.w3.org/2000/svg">
<path d="M127.658 145.121C87.333 132.969 64.3692 90.0142 76.4862 48.8313C85.575 17.9404 117.451 0.281593 147.713 9.40072C170.395 16.2357 183.257 40.5559 176.442 63.7203C171.329 81.0974 153.399 91.0234 136.384 85.8961C123.619 82.0495 116.386 68.373 120.221 55.3365M127.658 145.121C158.314 115.531 206.581 116.768 235.445 147.883C257.095 171.222 256.017 208.126 233.011 230.332C215.768 246.976 188.627 246.28 172.392 228.779C160.212 215.65 160.825 194.894 173.76 182.409C183.465 173.042 198.727 173.434 207.864 183.283M127.658 145.121C137.327 186.862 111.929 228.877 70.9483 238.945C40.2089 246.497 9.41164 227.251 2.1556 195.926C-3.28293 172.448 10.9952 148.823 34.046 143.16C51.3378 138.912 68.6552 149.741 72.735 167.354C75.7957 180.567 67.7664 193.852 54.7938 197.039" stroke="black" stroke-width="2" stroke-miterlimit="10" stroke-linejoin="round"/>
</svg>
