<svg width="252" height="250" viewBox="0 0 252 250" fill="none" xmlns="http://www.w3.org/2000/svg">
<path d="M126.006 158.338C146.691 141.123 159.858 115.184 159.858 86.1688C159.858 57.154 146.691 31.2146 126.006 14C105.321 31.2146 92.1543 57.154 92.1543 86.1688C92.1543 115.184 105.321 141.123 126.006 158.338Z" fill="#F9F9F9"/>
<path d="M1 230.506C26.2508 239.813 55.2985 238.246 80.426 223.739C105.554 209.231 121.434 184.859 126 158.338C100.749 149.031 71.7015 150.598 46.574 165.105C21.4465 179.613 5.56587 203.985 1 230.506Z" fill="#F9F9F9"/>
<path d="M251 230.506C225.749 239.813 196.702 238.246 171.574 223.739C146.446 209.231 130.566 184.859 126 158.338C151.251 149.031 180.299 150.598 205.426 165.105C230.554 179.613 246.434 203.985 251 230.506Z" fill="#F9F9F9"/>
<path d="M126 158.338C121.434 184.859 105.554 209.231 80.426 223.739C55.2985 238.246 26.2508 239.813 1 230.506C5.56587 203.985 21.4465 179.613 46.574 165.105C71.7015 150.598 100.749 149.031 126 158.338ZM126 158.338C130.566 184.859 146.446 209.231 171.574 223.739C196.702 238.246 225.749 239.813 251 230.506C246.434 203.985 230.554 179.613 205.426 165.105C180.299 150.598 151.251 149.031 126 158.338ZM159.858 86.1688C159.858 115.184 146.691 141.123 126.006 158.338C105.321 141.123 92.1543 115.184 92.1543 86.1688C92.1543 57.154 105.321 31.2146 126.006 14C146.691 31.2146 159.858 57.154 159.858 86.1688Z" stroke="black" stroke-width="2" stroke-linejoin="round"/>
</svg>
