<svg width="252" height="252" viewBox="0 0 252 252" fill="none" xmlns="http://www.w3.org/2000/svg">
<path d="M251 126.244C251 195.145 195.036 251 126 251C56.9644 251 1 195.145 1 126.244C1 57.3435 57.1139 1 126.149 1C195.185 1 251 57.3435 251 126.244Z" fill="#F9F9F9"/>
<path d="M126.149 1L234.631 188.528H126.149H17.6684L71.9089 94.7638L126.149 1Z" fill="#F9F9F9"/>
<path d="M126.149 1C57.1139 1 1 57.3435 1 126.244C1 195.145 56.9644 251 126 251C195.036 251 251 195.145 251 126.244C251 57.3435 195.185 1 126.149 1ZM126.149 1L234.631 188.528H126.149H17.6684L71.9089 94.7638L126.149 1Z" stroke="black" stroke-width="2" stroke-linejoin="round"/>
</svg>
