<svg width="252" height="252" viewBox="0 0 252 252" fill="none" xmlns="http://www.w3.org/2000/svg">
<path d="M251 126.244C251 195.145 195.036 251 126 251C56.9644 251 1 195.145 1 126.244C1 57.3435 57.1139 1 126.149 1C195.185 1 251 57.3435 251 126.244Z" fill="#F9F9F9"/>
<path d="M126.149 1L234.631 188.528H126.149H17.6684L71.9089 94.7638L126.149 1Z" fill="#F9F9F9"/>
<path d="M188.518 126.281C188.518 160.659 160.595 188.528 126.149 188.528C91.7043 188.528 63.781 160.659 63.781 126.281C63.781 91.9032 91.7043 64.0345 126.149 64.0345C160.595 64.0345 188.518 91.9032 188.518 126.281Z" fill="#F9F9F9"/>
<path d="M126.149 1C57.1139 1 1 57.3435 1 126.244C1 195.145 56.9644 251 126 251C195.036 251 251 195.145 251 126.244C251 57.3435 195.185 1 126.149 1ZM126.149 1L234.631 188.528H126.149M126.149 1L71.9089 94.7638L17.6684 188.528H126.149M126.149 188.528C160.595 188.528 188.518 160.659 188.518 126.281C188.518 91.9032 160.595 64.0345 126.149 64.0345C91.7043 64.0345 63.781 91.9032 63.781 126.281C63.781 160.659 91.7043 188.528 126.149 188.528Z" stroke="black" stroke-width="2" stroke-linejoin="round"/>
</svg>
