<svg width="250" height="252" viewBox="0 0 250 252" fill="none" xmlns="http://www.w3.org/2000/svg">
<path d="M178.557 126C178.557 195.036 154.423 251 124.653 251C94.8819 251 70.748 195.036 70.748 126C70.748 56.9644 94.8819 1 124.653 1C154.423 1 178.557 56.9644 178.557 126Z" fill="#F9F9F9"/>
<path d="M151.605 172.652C91.7794 207.17 31.2144 214.265 16.3291 188.5C1.44374 162.735 37.8749 113.865 97.7003 79.3476C157.526 44.8299 218.091 37.7346 232.976 63.5C247.861 89.2654 211.43 138.135 151.605 172.652Z" fill="#F9F9F9"/>
<path d="M151.605 79.3476C211.43 113.865 247.861 162.735 232.976 188.5C218.091 214.265 157.526 207.17 97.7003 172.652C37.8748 138.135 1.44368 89.2654 16.329 63.5C31.2143 37.7346 91.7793 44.8298 151.605 79.3476Z" fill="#F9F9F9"/>
<path d="M178.557 126C178.557 195.036 154.423 251 124.653 251C94.8819 251 70.748 195.036 70.748 126C70.748 56.9644 94.8819 1 124.653 1C154.423 1 178.557 56.9644 178.557 126Z" stroke="black" stroke-width="2" stroke-linejoin="round"/>
<path d="M151.605 172.652C91.7794 207.17 31.2144 214.265 16.3291 188.5C1.44374 162.735 37.8749 113.865 97.7003 79.3476C157.526 44.8299 218.091 37.7346 232.976 63.5C247.861 89.2654 211.43 138.135 151.605 172.652Z" stroke="black" stroke-width="2" stroke-linejoin="round"/>
<path d="M151.605 79.3476C211.43 113.865 247.861 162.735 232.976 188.5C218.091 214.265 157.526 207.17 97.7003 172.652C37.8748 138.135 1.44368 89.2654 16.329 63.5C31.2143 37.7346 91.7793 44.8298 151.605 79.3476Z" stroke="black" stroke-width="2" stroke-linejoin="round"/>
</svg>
