<svg width="252" height="252" viewBox="0 0 252 252" fill="none" xmlns="http://www.w3.org/2000/svg">
<path d="M251 126C251 160.518 195.036 188.5 126 188.5C56.9644 188.5 1 160.518 1 126C1 91.4822 56.9644 63.5 126 63.5C195.036 63.5 251 91.4822 251 126Z" fill="#F9F9F9"/>
<path d="M126 251C91.4822 251 63.5 195.036 63.5 126C63.5 56.9644 91.4822 0.999998 126 1C160.518 1 188.5 56.9644 188.5 126C188.5 195.036 160.518 251 126 251Z" fill="#F9F9F9"/>
<path d="M251 126C251 160.518 195.036 188.5 126 188.5C56.9644 188.5 1 160.518 1 126C1 91.4822 56.9644 63.5 126 63.5C195.036 63.5 251 91.4822 251 126Z" stroke="black" stroke-width="2" stroke-linejoin="round"/>
<path d="M126 251C91.4822 251 63.5 195.036 63.5 126C63.5 56.9644 91.4822 0.999998 126 1C160.518 1 188.5 56.9644 188.5 126C188.5 195.036 160.518 251 126 251Z" stroke="black" stroke-width="2" stroke-linejoin="round"/>
</svg>
