<svg width="250" height="252" viewBox="0 0 250 252" fill="none" xmlns="http://www.w3.org/2000/svg">
<path d="M221.778 126C236.211 112.857 245.269 93.9146 245.269 72.8563C245.269 33.1712 213.098 1 173.413 1C154.828 1 137.891 8.05554 125.135 19.6342C139.618 32.7799 148.713 51.756 148.713 72.8563C148.713 92.8958 140.509 111.019 127.278 124.052C139.76 113.588 155.851 107.287 173.413 107.287C192.04 107.287 209.011 114.375 221.778 126Z" fill="#F9F9F9"/>
<path d="M122.992 124.052C109.76 111.019 101.557 92.8958 101.557 72.8563C101.557 51.756 110.652 32.7799 125.135 19.6342C112.378 8.05554 95.4412 1 76.8563 1C37.1712 1 5 33.1712 5 72.8563C5 93.9146 14.0586 112.857 28.4916 126C41.2581 114.375 58.2295 107.287 76.8563 107.287C94.4187 107.287 110.51 113.588 122.992 124.052Z" fill="#F9F9F9"/>
<path d="M125.135 232.366C110.652 219.22 101.557 200.244 101.557 179.144C101.557 159.104 109.76 140.981 122.992 127.948C110.51 138.412 94.4187 144.713 76.8563 144.713C58.2295 144.713 41.2581 137.625 28.4916 126C14.0586 139.143 5 158.085 5 179.144C5 218.829 37.1712 251 76.8563 251C95.4412 251 112.378 243.944 125.135 232.366Z" fill="#F9F9F9"/>
<path d="M173.413 251C213.098 251 245.269 218.829 245.269 179.144C245.269 158.085 236.211 139.143 221.778 126C209.011 137.625 192.04 144.713 173.413 144.713C155.851 144.713 139.76 138.412 127.278 127.948C140.509 140.981 148.713 159.104 148.713 179.144C148.713 200.244 139.618 219.22 125.135 232.366C137.891 243.944 154.828 251 173.413 251Z" fill="#F9F9F9"/>
<path d="M221.778 126C236.211 112.857 245.269 93.9146 245.269 72.8563C245.269 33.1712 213.098 1 173.413 1C154.828 1 137.891 8.05554 125.135 19.6342M221.778 126C209.011 114.375 192.04 107.287 173.413 107.287C155.851 107.287 139.76 113.588 127.278 124.052M221.778 126C209.011 137.625 192.04 144.713 173.413 144.713C155.851 144.713 139.76 138.412 127.278 127.948M221.778 126C236.211 139.143 245.269 158.085 245.269 179.144C245.269 218.829 213.098 251 173.413 251C154.828 251 137.891 243.944 125.135 232.366M125.135 19.6342C139.618 32.7799 148.713 51.756 148.713 72.8563C148.713 92.8958 140.509 111.019 127.278 124.052M125.135 19.6342C112.378 8.05554 95.4412 1 76.8563 1C37.1712 1 5 33.1712 5 72.8563C5 93.9146 14.0586 112.857 28.4916 126M125.135 19.6342C110.652 32.7799 101.557 51.756 101.557 72.8563C101.557 92.8958 109.76 111.019 122.992 124.052M127.278 124.052C126.605 124.715 125.919 125.364 125.221 126M127.278 124.052C126.551 124.661 125.837 125.285 125.135 125.922M122.992 124.052C110.51 113.588 94.4187 107.287 76.8563 107.287C58.2295 107.287 41.2581 114.375 28.4916 126M122.992 124.052C123.718 124.661 124.433 125.285 125.135 125.922M122.992 124.052C123.664 124.715 124.35 125.364 125.048 126M28.4916 126C14.0586 139.143 5 158.085 5 179.144C5 218.829 37.1712 251 76.8563 251C95.4412 251 112.378 243.944 125.135 232.366M28.4916 126C41.2581 137.625 58.2295 144.713 76.8563 144.713C94.4187 144.713 110.51 138.412 122.992 127.948M125.135 232.366C110.652 219.22 101.557 200.244 101.557 179.144C101.557 159.104 109.76 140.981 122.992 127.948M125.135 232.366C139.618 219.22 148.713 200.244 148.713 179.144C148.713 159.104 140.509 140.981 127.278 127.948M122.992 127.948C123.664 127.285 124.35 126.636 125.048 126M122.992 127.948C123.718 127.339 124.433 126.715 125.135 126.078M127.278 127.948C126.605 127.285 125.919 126.636 125.221 126M127.278 127.948C126.551 127.339 125.837 126.715 125.135 126.078M125.221 126C125.192 125.974 125.163 125.948 125.135 125.922M125.221 126C125.192 126.026 125.163 126.052 125.135 126.078M125.135 125.922C125.106 125.948 125.077 125.974 125.048 126M125.048 126C125.077 126.026 125.106 126.052 125.135 126.078" stroke="black" stroke-width="2" stroke-linejoin="round"/>
</svg>
