<svg width="252" height="252" viewBox="0 0 252 252" fill="none" xmlns="http://www.w3.org/2000/svg">
<path d="M237.779 237.779C206.912 268.646 131.844 243.623 70.1105 181.889C8.37675 120.156 -16.6458 45.088 14.2211 14.2211C45.088 -16.6458 120.156 8.37675 181.889 70.1105C243.623 131.844 268.646 206.912 237.779 237.779Z" fill="#F9F9F9"/>
<path d="M14.2211 237.779C-16.6458 206.912 8.37676 131.844 70.1105 70.1105C131.844 8.37674 206.912 -16.6458 237.779 14.2211C268.646 45.088 243.623 120.156 181.889 181.889C120.156 243.623 45.088 268.646 14.2211 237.779Z" fill="#F9F9F9"/>
<path d="M237.779 237.779C206.912 268.646 131.844 243.623 70.1105 181.889C8.37675 120.156 -16.6458 45.088 14.2211 14.2211C45.088 -16.6458 120.156 8.37675 181.889 70.1105C243.623 131.844 268.646 206.912 237.779 237.779Z" stroke="black" stroke-width="2" stroke-linejoin="round"/>
<path d="M14.2211 237.779C-16.6458 206.912 8.37676 131.844 70.1105 70.1105C131.844 8.37674 206.912 -16.6458 237.779 14.2211C268.646 45.088 243.623 120.156 181.889 181.889C120.156 243.623 45.088 268.646 14.2211 237.779Z" stroke="black" stroke-width="2" stroke-linejoin="round"/>
<path d="M126.199 1L126.199 250.765" stroke="black" stroke-width="2" stroke-linejoin="round"/>
</svg>
