<svg width="250" height="252" viewBox="0 0 250 252" fill="none" xmlns="http://www.w3.org/2000/svg">
<path d="M186.25 126C186.25 195.036 158.827 251 125 251C91.1726 251 63.75 195.036 63.75 126C63.75 56.9644 91.1726 1 125 1C158.827 1 186.25 56.9644 186.25 126Z" fill="#F9F9F9"/>
<path d="M94.3748 179.045C34.5882 144.527 -0.167095 92.7965 16.7466 63.5011C33.6604 34.2057 95.8382 38.4392 155.625 72.957C215.411 107.475 250.167 159.206 233.253 188.501C216.339 217.797 154.161 213.563 94.3748 179.045Z" fill="#F9F9F9"/>
<path d="M155.625 179.045C95.8382 213.563 33.6603 217.797 16.7466 188.501C-0.167104 159.206 34.5882 107.475 94.3748 72.957C154.161 38.4392 216.339 34.2057 233.253 63.5011C250.167 92.7965 215.411 144.527 155.625 179.045Z" fill="#F9F9F9"/>
<path d="M186.25 126C186.25 195.036 158.827 251 125 251C91.1726 251 63.75 195.036 63.75 126C63.75 56.9644 91.1726 1 125 1C158.827 1 186.25 56.9644 186.25 126Z" stroke="black" stroke-width="2" stroke-linejoin="round"/>
<path d="M94.3748 179.045C34.5882 144.527 -0.167095 92.7965 16.7466 63.5011C33.6604 34.2057 95.8382 38.4392 155.625 72.957C215.411 107.475 250.167 159.206 233.253 188.501C216.339 217.797 154.161 213.563 94.3748 179.045Z" stroke="black" stroke-width="2" stroke-linejoin="round"/>
<path d="M155.625 179.045C95.8382 213.563 33.6603 217.797 16.7466 188.501C-0.167104 159.206 34.5882 107.475 94.3748 72.957C154.161 38.4392 216.339 34.2057 233.253 63.5011C250.167 92.7965 215.411 144.527 155.625 179.045Z" stroke="black" stroke-width="2" stroke-linejoin="round"/>
</svg>
