<svg width="250" height="250" viewBox="0 0 250 250" fill="none" xmlns="http://www.w3.org/2000/svg">
<path d="M124.289 240.231C162.119 240.231 192.786 209.564 192.786 171.734C192.786 133.905 162.119 103.238 124.289 103.238C86.4594 103.238 55.7923 133.905 55.7923 171.734C55.7923 209.564 86.4594 240.231 124.289 240.231Z" fill="#F9F9F9"/>
<path d="M77.9969 192.786C115.827 192.786 146.494 162.119 146.494 124.289C146.494 86.4594 115.827 55.7923 77.9969 55.7923C40.1671 55.7923 9.5 86.4594 9.5 124.289C9.5 162.119 40.1671 192.786 77.9969 192.786Z" fill="#F9F9F9"/>
<path d="M125.434 146.494C163.264 146.494 193.931 115.827 193.931 77.9969C193.931 40.1671 163.264 9.5 125.434 9.5C87.6046 9.5 56.9375 40.1671 56.9375 77.9969C56.9375 115.827 87.6046 146.494 125.434 146.494Z" fill="#F9F9F9"/>
<path d="M171.734 193.931C209.564 193.931 240.231 163.264 240.231 125.434C240.231 87.6046 209.564 56.9375 171.734 56.9375C133.905 56.9375 103.238 87.6046 103.238 125.434C103.238 163.264 133.905 193.931 171.734 193.931Z" fill="#F9F9F9"/>
<path d="M124.289 240.231C162.119 240.231 192.786 209.564 192.786 171.734C192.786 133.905 162.119 103.238 124.289 103.238C86.4594 103.238 55.7923 133.905 55.7923 171.734C55.7923 209.564 86.4594 240.231 124.289 240.231Z" stroke="black" stroke-width="2" stroke-linejoin="round"/>
<path d="M77.9969 192.786C115.827 192.786 146.494 162.119 146.494 124.289C146.494 86.4594 115.827 55.7923 77.9969 55.7923C40.1671 55.7923 9.5 86.4594 9.5 124.289C9.5 162.119 40.1671 192.786 77.9969 192.786Z" stroke="black" stroke-width="2" stroke-linejoin="round"/>
<path d="M125.434 146.494C163.264 146.494 193.931 115.827 193.931 77.9969C193.931 40.1671 163.264 9.5 125.434 9.5C87.6046 9.5 56.9375 40.1671 56.9375 77.9969C56.9375 115.827 87.6046 146.494 125.434 146.494Z" stroke="black" stroke-width="2" stroke-linejoin="round"/>
<path d="M171.734 193.931C209.564 193.931 240.231 163.264 240.231 125.434C240.231 87.6046 209.564 56.9375 171.734 56.9375C133.905 56.9375 103.238 87.6046 103.238 125.434C103.238 163.264 133.905 193.931 171.734 193.931Z" stroke="black" stroke-width="2" stroke-linejoin="round"/>
</svg>
