<svg width="250" height="250" viewBox="0 0 250 250" fill="none" xmlns="http://www.w3.org/2000/svg">
<path d="M186.872 186.872C138.056 235.687 70.7826 247.559 36.6118 213.388C2.44089 179.217 14.3127 111.944 63.1283 63.1282C111.944 14.3126 179.218 2.44077 213.388 36.6117C247.559 70.7825 235.687 138.056 186.872 186.872Z" fill="#F9F9F9"/>
<path d="M63.1283 186.872C14.3127 138.056 2.44089 70.7825 36.6118 36.6116C70.7826 2.44077 138.056 14.3126 186.872 63.1282C235.688 111.944 247.559 179.217 213.388 213.388C179.218 247.559 111.944 235.687 63.1283 186.872Z" fill="#F9F9F9"/>
<path d="M186.872 186.872C138.056 235.687 70.7826 247.559 36.6118 213.388C2.44089 179.217 14.3127 111.944 63.1283 63.1282C111.944 14.3126 179.218 2.44077 213.388 36.6117C247.559 70.7825 235.687 138.056 186.872 186.872Z" stroke="black" stroke-width="2" stroke-linejoin="round"/>
<path d="M63.1283 186.872C14.3127 138.056 2.44089 70.7825 36.6118 36.6116C70.7826 2.44077 138.056 14.3126 186.872 63.1282C235.688 111.944 247.559 179.217 213.388 213.388C179.218 247.559 111.944 235.687 63.1283 186.872Z" stroke="black" stroke-width="2" stroke-linejoin="round"/>
</svg>
