<svg width="252" height="252" viewBox="0 0 252 252" fill="none" xmlns="http://www.w3.org/2000/svg">
<path d="M101 201C45.7715 201 1 156.228 1 101C1 45.7715 45.7715 1 101 1C156.228 1 201 45.7715 201 101C201 109.874 199.844 118.477 197.675 126.669C227.843 131.107 251 157.099 251 188.5C251 223.018 223.018 251 188.5 251C157.099 251 131.107 227.843 126.669 197.675C118.477 199.844 109.874 201 101 201Z" fill="#F9F9F9"/>
<path d="M197.675 126.669C188.512 161.268 161.268 188.512 126.669 197.675M197.675 126.669C227.843 131.107 251 157.099 251 188.5C251 223.018 223.018 251 188.5 251C157.099 251 131.107 227.843 126.669 197.675M197.675 126.669C194.68 126.228 191.617 126 188.5 126C153.982 126 126 153.982 126 188.5C126 191.617 126.228 194.68 126.669 197.675M197.675 126.669C199.844 118.477 201 109.874 201 101C201 45.7715 156.228 1 101 1C45.7715 1 1 45.7715 1 101C1 156.228 45.7715 201 101 201C109.874 201 118.477 199.844 126.669 197.675" stroke="black" stroke-width="2" stroke-linejoin="round"/>
</svg>
