<svg width="252" height="252" viewBox="0 0 252 252" fill="none" xmlns="http://www.w3.org/2000/svg">
<path d="M250.948 84.3269V250.775H84.5V167.674C84.4081 167.675 84.3161 167.675 84.2241 167.675C38.2607 167.675 1 130.414 1 84.4506C1 38.4872 38.2607 1.22656 84.2241 1.22656C130.146 1.22656 167.381 38.4204 167.448 84.3269H250.948Z" fill="#F9F9F9"/>
<path d="M167.448 84.3269H84.5V167.674M167.448 84.3269C167.448 84.3681 167.448 84.4094 167.448 84.4506C167.448 130.322 130.336 167.525 84.5 167.674M167.448 84.3269C167.381 38.4204 130.146 1.22656 84.2241 1.22656C38.2607 1.22656 1 38.4872 1 84.4506C1 130.414 38.2607 167.675 84.2241 167.675C84.3161 167.675 84.4081 167.675 84.5 167.674M167.448 84.3269H250.948V250.775H84.5V167.674" stroke="black" stroke-width="2" stroke-linejoin="round"/>
</svg>
