<svg width="250" height="250" viewBox="0 0 250 250" fill="none" xmlns="http://www.w3.org/2000/svg">
<path d="M51 84.75C51 43.7429 84.2429 10.5 125.25 10.5C166.257 10.5 199.5 43.7429 199.5 84.75C199.5 88.5487 199.215 92.2807 198.664 95.9259C225.838 106.958 245 133.616 245 164.75C245 205.757 211.757 239 170.75 239C153.086 239 136.863 232.832 124.117 222.533C111.571 232.23 95.8342 238 78.75 238C37.7429 238 4.5 204.757 4.5 163.75C4.5 132.307 24.0446 105.429 51.6478 94.6017C51.2205 91.3785 51 88.09 51 84.75Z" fill="#F9F9F9"/>
<path d="M125.25 159C126.321 159 127.386 158.977 128.446 158.932C132.604 158.756 136.674 158.238 140.628 157.405M125.25 159C121.408 159 117.635 158.708 113.95 158.146M125.25 159C130.522 159 135.667 158.45 140.628 157.405M125.25 159C134.233 159 142.844 157.405 150.815 154.482M125.25 159C121.393 159 117.605 158.706 113.907 158.139M152.352 153.898C152.779 157.122 153 160.41 153 163.75C153 187.673 141.686 208.953 124.117 222.533M152.352 153.898C179.955 143.071 199.5 116.193 199.5 84.75C199.5 43.7429 166.257 10.5 125.25 10.5C84.2429 10.5 51 43.7429 51 84.75C51 115.884 70.162 142.542 97.3355 153.574M152.352 153.898C151.987 154.042 151.62 154.182 151.252 154.32C151.167 154.352 151.082 154.383 150.997 154.414M152.352 153.898C151.632 148.469 150.326 143.225 148.499 138.232M152.352 153.898C151.903 154.075 151.451 154.247 150.997 154.414M125.383 105.967C137.929 96.2699 153.666 90.5 170.75 90.5C211.757 90.5 245 123.743 245 164.75C245 205.757 211.757 239 170.75 239C153.086 239 136.863 232.832 124.117 222.533M125.383 105.967C112.637 95.6679 96.4136 89.5 78.75 89.5C37.7429 89.5 4.5 122.743 4.5 163.75C4.5 204.757 37.7429 238 78.75 238C95.8342 238 111.571 232.23 124.117 222.533M125.383 105.967C135.596 114.22 143.577 125.126 148.278 137.637C148.353 137.835 148.426 138.033 148.499 138.232M125.383 105.967C123.739 107.238 122.149 108.576 120.619 109.978C118.234 112.162 115.991 114.5 113.908 116.976M125.383 105.967C121.176 109.219 117.328 112.911 113.908 116.976M125.383 105.967C115.931 113.273 108.29 122.807 103.246 133.782M125.383 105.967C135.758 114.351 143.829 125.472 148.499 138.232M97.3355 153.574C96.7853 157.219 96.5 160.951 96.5 164.75C96.5 188.094 107.272 208.921 124.117 222.533M97.3355 153.574C97.8435 150.209 98.5774 146.918 99.5212 143.717C99.5284 143.692 99.5357 143.667 99.543 143.643M97.3355 153.574C97.8474 150.183 98.5887 146.867 99.543 143.643M97.3355 153.574C102.587 155.706 108.137 157.255 113.907 158.139M113.908 116.976C111.806 119.475 109.865 122.115 108.102 124.879M140.628 157.405C144.12 156.67 147.522 155.689 150.815 154.482M108.102 124.879C106.296 127.711 104.677 130.673 103.262 133.748M108.102 124.879C106.29 127.721 104.665 130.695 103.246 133.782M103.262 133.748C103.257 133.76 103.252 133.771 103.246 133.782M103.262 133.748L103.246 133.782M113.95 158.146C113.936 158.143 113.921 158.141 113.907 158.139M113.95 158.146L113.907 158.139M150.815 154.482C150.834 154.475 150.853 154.468 150.872 154.461M150.815 154.482L150.872 154.461M150.889 154.454C150.883 154.457 150.877 154.459 150.872 154.461M150.889 154.454C150.925 154.441 150.961 154.428 150.997 154.414M150.889 154.454L150.872 154.461M150.889 154.454L150.997 154.414M99.543 143.643C99.57 143.552 99.5971 143.461 99.6244 143.37C100.614 140.071 101.828 136.87 103.246 133.782" stroke="black" stroke-width="2" stroke-linejoin="round"/>
</svg>
