<svg width="252" height="250" viewBox="0 0 252 250" fill="none" xmlns="http://www.w3.org/2000/svg">
<path d="M76 200C34.5786 200 1 166.421 1 125C1 83.5786 34.5786 50 76 50C95.2089 50 112.731 57.2213 126 69.0973C139.269 57.2213 156.791 50 176 50C217.421 50 251 83.5786 251 125C251 166.421 217.421 200 176 200C156.791 200 139.269 192.779 126 180.903C112.731 192.779 95.2089 200 76 200Z" fill="#F9F9F9"/>
<path d="M126 180.903C141.344 167.17 151 147.212 151 125C151 102.788 141.344 82.8304 126 69.0973M126 180.903C110.656 167.17 101 147.212 101 125C101 102.788 110.656 82.8304 126 69.0973M126 180.903C139.269 192.779 156.791 200 176 200C217.421 200 251 166.421 251 125C251 83.5786 217.421 50 176 50C156.791 50 139.269 57.2213 126 69.0973M126 180.903C112.731 192.779 95.2089 200 76 200C34.5786 200 1 166.421 1 125C1 83.5786 34.5786 50 76 50C95.2089 50 112.731 57.2213 126 69.0973" stroke="black" stroke-width="2" stroke-linejoin="round"/>
</svg>
