<svg width="252" height="252" viewBox="0 0 252 252" fill="none" xmlns="http://www.w3.org/2000/svg">
<path d="M126.008 126C209.873 277.842 277.858 209.861 126.008 126C-25.8433 209.861 42.142 277.842 126.008 126C-25.8433 42.1395 42.142 -25.8417 126.008 126C209.845 -25.8417 277.83 42.1395 126.008 126Z" fill="#F9F9F9"/>
<path d="M126.008 126C77.9347 292.667 174.08 292.667 126.008 126C-40.6692 77.93 -40.6692 174.07 126.008 126C77.9347 -40.6667 174.08 -40.6667 126.008 126C292.664 77.91 292.664 174.05 126.008 126Z" fill="#F9F9F9"/>
<path d="M126.008 126C277.858 209.861 209.873 277.842 126.008 126ZM126.008 126C42.142 277.842 -25.8433 209.861 126.008 126ZM126.008 126C-25.8433 42.1395 42.142 -25.8417 126.008 126ZM126.008 126C209.845 -25.8417 277.83 42.1395 126.008 126ZM126.008 126C174.08 292.667 77.9347 292.667 126.008 126ZM126.008 126C-40.6692 174.07 -40.6692 77.93 126.008 126ZM126.008 126C77.9347 -40.6667 174.08 -40.6667 126.008 126ZM126.008 126C292.664 77.91 292.664 174.05 126.008 126Z" stroke="black" stroke-width="2" stroke-linejoin="round"/>
</svg>
