<svg width="252" height="252" viewBox="0 0 252 252" fill="none" xmlns="http://www.w3.org/2000/svg">
<path d="M45.6959 76.9284C75.3911 77.1971 100.578 101.498 125.655 125.849C150.629 101.364 175.737 76.9284 206.053 76.9284C266.809 76.9284 265.149 174.801 206.053 175.071C176.322 175.207 151.044 150.503 125.655 125.849C100.578 150.435 75.6374 175.071 45.6959 175.071C-14.0645 175.071 -13.7325 76.9284 45.6959 76.9284Z" fill="#F9F9F9"/>
<path d="M175.072 45.6959C174.803 75.3911 150.502 100.578 126.151 125.655C150.636 150.629 175.072 175.737 175.072 206.053C175.072 266.809 77.1993 265.149 76.9289 206.053C76.7929 176.322 101.497 151.044 126.151 125.655C101.565 100.578 76.9289 75.6374 76.9289 45.6959C76.9289 -14.0645 175.072 -13.7325 175.072 45.6959Z" fill="#F9F9F9"/>
<path d="M125.655 125.849C100.578 101.498 75.3911 77.1971 45.6959 76.9284C-13.7325 76.9284 -14.0645 175.071 45.6959 175.071C75.6374 175.071 100.578 150.435 125.655 125.849ZM125.655 125.849C151.044 150.503 176.322 175.207 206.053 175.071C265.149 174.801 266.809 76.9284 206.053 76.9284C175.737 76.9284 150.629 101.364 125.655 125.849ZM126.151 125.655C150.502 100.578 174.803 75.3911 175.072 45.6959C175.072 -13.7325 76.9289 -14.0645 76.9289 45.6959C76.9289 75.6374 101.565 100.578 126.151 125.655ZM126.151 125.655C101.497 151.044 76.7929 176.322 76.9289 206.053C77.1993 265.149 175.072 266.809 175.072 206.053C175.072 175.737 150.636 150.629 126.151 125.655Z" stroke="black" stroke-width="2" stroke-linejoin="round"/>
</svg>
