<svg width="252" height="252" viewBox="0 0 252 252" fill="none" xmlns="http://www.w3.org/2000/svg">
<path d="M211.945 96.0096C264.018 96.0096 264.018 155.884 211.945 155.884C187.335 155.884 165.681 144.576 144.902 126.187C141.63 129.007 138.359 131.978 135.077 135.077C131.925 138.054 128.838 141.201 125.867 144.501C144.486 165.367 155.884 187.185 155.884 211.945C155.884 264.018 96.0095 264.018 96.0095 211.945C96.0095 186.696 109.073 163.158 125.867 144.501C123.047 141.34 120.06 138.201 116.923 135.077C113.839 132.006 110.62 128.974 107.274 126.039C86.449 144.525 64.7324 155.884 40.055 155.884C-12.0183 155.884 -12.0183 96.0096 40.055 96.0096C65.4731 96.0096 88.3927 109.48 107.274 126.039C110.509 123.167 113.723 120.123 116.923 116.923C120.106 113.74 123.134 110.544 125.993 107.326C107.446 86.4865 96.0095 64.7527 96.0095 40.0549C96.0095 -12.0183 155.884 -12.0183 155.884 40.0549C155.884 64.7529 144.506 86.4854 125.993 107.326C128.857 110.544 131.89 113.74 135.077 116.923C138.336 120.178 141.608 123.271 144.902 126.187C166.043 107.967 187.256 96.0096 211.945 96.0096Z" fill="#F9F9F9" stroke="black" stroke-width="2" stroke-linejoin="round"/>
</svg>
