<svg width="252" height="250" viewBox="0 0 252 250" fill="none" xmlns="http://www.w3.org/2000/svg">
<path d="M117.612 18.4694C98.1574 -13.4608 54.8637 12.9172 74.3182 44.8474C83.5452 59.9916 99.9345 68.2798 121.131 72.8874C126.731 51.9525 126.839 33.6138 117.612 18.4694Z" fill="#F9F9F9"/>
<path d="M130.216 209.521C178.989 289.572 287.45 223.489 238.676 143.438C215.485 105.374 174.401 84.4152 121.131 72.8874C108.184 120.104 106.566 170.706 130.216 209.521Z" fill="#F9F9F9"/>
<path d="M156.429 64.1174C179.372 50.1387 168.036 31.5332 145.093 45.5119C134.211 52.1418 126.801 61.53 121.131 72.8874C133.818 73.0456 145.547 70.7474 156.429 64.1174Z" fill="#F9F9F9"/>
<path d="M32.471 95.0341C-25.0486 130.08 3.35072 176.691 60.8703 141.645C88.2205 124.981 106.913 101.424 121.131 72.8874C92.5566 72.3698 60.3611 78.0413 32.471 95.0341Z" fill="#F9F9F9"/>
<path d="M121.131 72.8874C99.9345 68.2798 83.5452 59.9916 74.3182 44.8474C54.8637 12.9172 98.1574 -13.4608 117.612 18.4694C126.839 33.6138 126.731 51.9525 121.131 72.8874ZM121.131 72.8874C174.401 84.4152 215.485 105.374 238.676 143.438C287.45 223.489 178.989 289.572 130.216 209.521C106.566 170.706 108.184 120.104 121.131 72.8874ZM121.131 72.8874C126.801 61.53 134.211 52.1418 145.093 45.5119C168.036 31.5332 179.372 50.1387 156.429 64.1174C145.547 70.7474 133.818 73.0456 121.131 72.8874ZM121.131 72.8874C106.913 101.424 88.2205 124.981 60.8703 141.645C3.35072 176.691 -25.0486 130.08 32.471 95.0341C60.3611 78.0413 92.5566 72.3698 121.131 72.8874Z" stroke="black" stroke-width="2" stroke-linejoin="round"/>
</svg>
