<svg width="252" height="252" viewBox="0 0 252 252" fill="none" xmlns="http://www.w3.org/2000/svg">
<path fill-rule="evenodd" clip-rule="evenodd" d="M126 126C79.7952 126 39.4456 113.465 17.8109 94.8261C7.12078 103.992 1 114.641 1 126.001C1 137.361 7.12043 148.009 17.81 157.175C7.12043 166.385 1 177.085 1 188.5C1 223.018 56.9644 251 126 251C195.036 251 251 223.018 251 188.5C251 177.085 244.88 166.385 234.19 157.175C244.88 148.009 251 137.361 251 126.001C251 114.641 244.879 103.992 234.189 94.8261C212.554 113.465 172.205 126 126 126Z" fill="#F9F9F9"/>
<path d="M126 1C56.9644 1 1 28.9822 1 63.5C1 74.9154 7.12078 85.616 17.8109 94.8261C39.4456 113.465 79.7952 126 126 126C172.205 126 212.554 113.465 234.189 94.8261C244.879 85.616 251 74.9154 251 63.5C251 28.9822 195.036 1 126 1Z" fill="#F9F9F9"/>
<path d="M234.189 94.8261C244.879 85.616 251 74.9154 251 63.5C251 28.9822 195.036 1 126 1C56.9644 1 1 28.9822 1 63.5C1 74.9154 7.12078 85.616 17.8109 94.8261M234.189 94.8261C244.879 103.992 251 114.641 251 126.001C251 137.361 244.88 148.009 234.19 157.175M234.189 94.8261C212.554 113.465 172.205 126 126 126C79.7952 126 39.4456 113.465 17.8109 94.8261M17.8109 94.8261C7.12078 103.992 1 114.641 1 126.001C1 137.361 7.12043 148.009 17.81 157.175M17.81 157.175C7.12043 166.385 1 177.085 1 188.5C1 223.018 56.9644 251 126 251C195.036 251 251 223.018 251 188.5C251 177.085 244.88 166.385 234.19 157.175M17.81 157.175C39.4444 175.724 79.7945 188.199 126 188.199C172.205 188.199 212.556 175.724 234.19 157.175" stroke="black" stroke-width="2" stroke-linejoin="round"/>
</svg>
