<svg width="252" height="252" viewBox="0 0 252 252" fill="none" xmlns="http://www.w3.org/2000/svg">
<path d="M251 63.3898C251 97.8467 195.036 125.78 126 125.78C56.9644 125.78 1 97.8467 1 63.3898C1 28.9328 56.9644 1 126 1C195.036 1 251 28.9328 251 63.3898Z" fill="#F9F9F9"/>
<path d="M251 125.87C251 160.327 195.036 188.26 126 188.26C56.9644 188.26 1 160.327 1 125.87C1 91.4133 56.9644 63.4805 126 63.4805C195.036 63.4805 251 91.4133 251 125.87Z" fill="#F9F9F9"/>
<path d="M251 188.39C251 222.968 195.036 251 126 251C56.9644 251 1 222.968 1 188.39C1 153.811 56.9644 125.78 126 125.78C195.036 125.78 251 153.811 251 188.39Z" fill="#F9F9F9"/>
<path d="M126 125.78C195.036 125.78 251 97.8467 251 63.3898C251 28.9328 195.036 1 126 1C56.9644 1 1 28.9328 1 63.3898C1 97.8467 56.9644 125.78 126 125.78ZM126 125.78C56.9644 125.78 1 153.811 1 188.39C1 222.968 56.9644 251 126 251C195.036 251 251 222.968 251 188.39C251 153.811 195.036 125.78 126 125.78ZM251 125.87C251 160.327 195.036 188.26 126 188.26C56.9644 188.26 1 160.327 1 125.87C1 91.4133 56.9644 63.4805 126 63.4805C195.036 63.4805 251 91.4133 251 125.87Z" stroke="black" stroke-width="2" stroke-linejoin="round"/>
</svg>
