<svg width="252" height="252" viewBox="0 0 252 252" fill="none" xmlns="http://www.w3.org/2000/svg">
<path d="M1 101.25C1 45.8835 45.8835 1 101.25 1C141.739 1 176.622 25.0028 192.445 59.5552C226.997 75.3785 251 110.261 251 150.75C251 206.117 206.117 251 150.75 251C110.261 251 75.3785 226.997 59.5552 192.445C25.0028 176.622 1 141.739 1 101.25Z" fill="#F9F9F9"/>
<path d="M192.445 59.5552C198.259 72.2515 201.5 86.3723 201.5 101.25C201.5 156.617 156.617 201.5 101.25 201.5C86.3723 201.5 72.2515 198.259 59.5552 192.445M192.445 59.5552C179.748 53.7409 165.628 50.5 150.75 50.5C95.3835 50.5 50.5 95.3835 50.5 150.75C50.5 165.628 53.7409 179.748 59.5552 192.445M192.445 59.5552C226.997 75.3785 251 110.261 251 150.75C251 206.117 206.117 251 150.75 251C110.261 251 75.3785 226.997 59.5552 192.445M192.445 59.5552C176.622 25.0028 141.739 1 101.25 1C45.8835 1 1 45.8835 1 101.25C1 141.739 25.0028 176.622 59.5552 192.445" stroke="black" stroke-width="2" stroke-linejoin="round"/>
</svg>
