<svg width="252" height="252" viewBox="0 0 252 252" fill="none" xmlns="http://www.w3.org/2000/svg">
<path d="M63.5 126C98.0178 126 126 98.0178 126 63.5C126 98.0178 153.982 126 188.5 126C153.982 126 126 153.982 126 188.5C126 153.982 98.0178 126 63.5 126Z" fill="#F9F9F9"/>
<path d="M126 63.5C126 98.0178 98.0178 126 63.5 126M126 63.5C126 28.9822 98.0178 1 63.5 1M126 63.5C126 98.0178 153.982 126 188.5 126M126 63.5C126 28.9822 153.982 1 188.5 1M63.5 126C28.9822 126 1 98.0178 1 63.5M63.5 126C28.9822 126 1 153.982 1 188.5M63.5 126C98.0178 126 126 153.982 126 188.5M126 188.5C126 223.018 98.0178 251 63.5 251M126 188.5C126 223.018 153.982 251 188.5 251M126 188.5C126 153.982 153.982 126 188.5 126M251 63.5C251 98.0178 223.018 126 188.5 126M188.5 126C223.018 126 251 153.982 251 188.5" stroke="black" stroke-width="2" stroke-linejoin="round"/>
</svg>
