<svg width="250" height="250" viewBox="0 0 250 250" fill="none" xmlns="http://www.w3.org/2000/svg">
<path d="M229.561 20.4405C221.313 62.8758 187.875 96.3135 145.44 104.56C144.154 111.176 143.481 118.01 143.481 125.001C143.481 131.991 144.154 138.824 145.439 145.438C187.875 153.686 221.314 187.125 229.56 229.561C187.124 221.314 153.686 187.875 145.439 145.438C138.824 144.152 131.99 143.479 124.999 143.479C118.008 143.479 111.175 144.152 104.56 145.438C96.3126 187.873 62.8745 221.311 20.439 229.558C28.6865 187.122 62.1246 153.685 104.56 145.438C105.846 138.823 106.519 131.989 106.519 124.997C106.519 118.007 105.846 111.174 104.561 104.56C62.1247 96.3126 28.6865 62.8736 20.4401 20.4372C62.8762 28.6847 96.3144 62.1237 104.561 104.56C111.176 105.846 118.01 106.519 125.001 106.519C131.992 106.519 138.825 105.846 145.44 104.56C153.687 62.1251 187.126 28.6874 229.561 20.4405Z" fill="#F9F9F9"/>
<path d="M231.52 0C231.52 58.829 183.83 106.519 125.001 106.519C66.1719 106.519 18.4815 58.829 18.4815 0M0 231.517C58.829 231.517 106.519 183.826 106.519 124.997C106.519 66.1683 58.829 18.478 0 18.478M250 231.52C191.171 231.52 143.481 183.83 143.481 125.001C143.481 66.1719 191.171 18.4815 250 18.4815M231.518 249.998C231.518 191.169 183.828 143.479 124.999 143.479C66.1701 143.479 18.4798 191.169 18.4798 249.998" stroke="black" stroke-width="2" stroke-linejoin="round"/>
</svg>
