<svg width="250" height="250" viewBox="0 0 250 250" fill="none" xmlns="http://www.w3.org/2000/svg">
<path d="M244.083 222.853C190.162 222.853 146.45 179.009 146.45 124.926M146.45 124.926C146.45 70.8431 190.162 27 244.083 27M146.45 124.926L103.55 124.926M250 173.889C222.222 173.889 199.704 151.304 199.704 123.443C199.704 95.5815 222.222 72.9957 250 72.9957M5.91717 27C59.8385 27 103.55 70.8431 103.55 124.926M103.55 124.926C103.55 179.009 59.8384 222.853 5.91713 222.853M-2.25722e-05 75.9631C27.7776 75.9631 50.2958 98.549 50.2958 126.41C50.2958 154.271 27.7776 176.857 -3.38583e-05 176.857" stroke="black" stroke-width="2" stroke-linejoin="round"/>
</svg>
