<svg width="250" height="250" viewBox="0 0 250 250" fill="none" xmlns="http://www.w3.org/2000/svg">
<path d="M125 62.5C159.518 62.5 187.5 90.4822 187.5 125C187.5 159.518 159.518 187.5 125 187.5C90.4822 187.5 62.5 159.518 62.5 125C62.5 90.4822 90.4822 62.5 125 62.5Z" fill="#F9F9F9"/>
<path d="M150.449 125.374C150.449 139.429 139.055 150.823 125 150.823C110.945 150.823 99.5509 139.429 99.5509 125.374C99.5509 111.319 110.945 99.9252 125 99.9252C139.055 99.9251 150.449 111.319 150.449 125.374Z" fill="#F9F9F9"/>
<path d="M187.5 125C187.5 159.518 159.518 187.5 125 187.5C90.4822 187.5 62.5 159.518 62.5 125C62.5 90.4822 90.4822 62.5 125 62.5C159.518 62.5 187.5 90.4822 187.5 125Z" fill="#F9F9F9"/>
<path d="M125 187.5C159.518 187.5 187.5 159.518 187.5 125C187.5 90.4822 159.518 62.5 125 62.5C90.4822 62.5 62.5 90.4822 62.5 125C62.5 159.518 90.4822 187.5 125 187.5ZM125 187.5C90.4822 187.5 62.5 215.482 62.5 250M125 187.5C159.518 187.5 187.5 215.482 187.5 250M187.5 -8.96545e-08C187.5 34.5178 159.518 62.5 125 62.5C90.4822 62.5 62.5 34.5178 62.5 5.37427e-06M62.5 125C62.5 159.518 90.4822 187.5 125 187.5C159.518 187.5 187.5 159.518 187.5 125C187.5 90.4822 159.518 62.5 125 62.5C90.4822 62.5 62.5 90.4822 62.5 125ZM62.5 125C62.5 90.4822 34.5178 62.5 8.93599e-06 62.5M62.5 125C62.5 159.518 34.5178 187.5 -2.73196e-06 187.5M250 187.5C215.482 187.5 187.5 159.518 187.5 125C187.5 90.4822 215.482 62.5 250 62.5M150.449 125.374C150.449 139.429 139.055 150.823 125 150.823C110.945 150.823 99.5509 139.429 99.5509 125.374C99.5509 111.319 110.945 99.9251 125 99.9251C139.055 99.9251 150.449 111.319 150.449 125.374Z" stroke="black" stroke-width="2" stroke-linejoin="round"/>
</svg>
