<svg width="251" height="252" viewBox="0 0 251 252" fill="none" xmlns="http://www.w3.org/2000/svg">
<path d="M214.5 37.6117C197.009 20.1301 174.725 8.22505 150.464 3.4019C126.204 -1.42126 101.058 1.05416 78.2049 10.5151C55.3522 19.9761 35.8197 35.9976 22.0773 56.5538C8.33496 77.1099 1 101.277 1 126C1 150.723 8.33496 174.89 22.0773 195.446C35.8197 216.002 55.3522 232.024 78.2049 241.485C101.058 250.946 126.204 253.421 150.464 248.598C174.725 243.775 197.009 231.87 214.5 214.388M206.522 126C206.522 110.096 201.803 94.5484 192.962 81.3244C184.122 68.1004 171.556 57.7935 156.855 51.7072C142.153 45.6208 125.976 44.0283 110.369 47.1311C94.7623 50.2339 80.4264 57.8926 69.1744 69.1387C57.9224 80.3848 50.2597 94.7132 47.1553 110.312C44.0509 125.911 45.6442 142.079 51.7337 156.773C57.8232 171.467 68.1355 184.026 81.3664 192.862C94.5974 201.698 110.153 206.414 126.065 206.414" stroke="black" stroke-width="2" stroke-linejoin="round"/>
</svg>
