<svg width="252" height="252" viewBox="0 0 252 252" fill="none" xmlns="http://www.w3.org/2000/svg">
<path d="M209.333 126L126 42.6668L42.6667 126L126 209.333L209.333 126Z" fill="#F9F9F9"/>
<path d="M84.3333 1L126 42.6668M126 42.6668L167.667 1M126 42.6668L209.333 126M126 42.6668L42.6667 126M126 209.333L167.666 251M126 209.333L84.3335 251M126 209.333L42.6667 126M126 209.333L209.333 126M209.333 126L251 167.667M209.333 126L251 84.3333M1 84.3333L42.6667 126M42.6667 126L1.0002 167.667" stroke="black" stroke-width="2" stroke-linejoin="round"/>
</svg>
