<svg width="252" height="252" viewBox="0 0 252 252" fill="none" xmlns="http://www.w3.org/2000/svg">
<path d="M13.1675 106.224C5.36756 100.235 1 93.5288 1 86.4478C1 61.1004 56.9644 40.5522 126 40.5522C181.918 40.5522 229.261 59.8426 245.233 86.4478C248.98 92.6888 251 99.3324 251 106.224C251 113.115 248.98 119.759 245.233 126C248.98 132.241 251 138.885 251 145.776C251 152.668 248.98 159.311 245.233 165.552C229.261 192.157 181.918 211.448 126 211.448C56.9644 211.448 1 190.9 1 165.552C1 158.471 5.36756 151.765 13.1675 145.776C5.36756 139.788 1 133.081 1 126C1 118.919 5.36756 112.212 13.1675 106.224Z" fill="#F9F9F9"/>
<path d="M126 1C195.036 1 251 30.4022 251 66.6716C251 102.941 195.036 132.343 126 132.343C56.9644 132.343 1 111.795 1 86.4478C1 61.1004 56.9644 40.5522 126 40.5522C195.036 40.5522 251 69.9544 251 106.224C251 142.493 195.036 171.896 126 171.896C56.9644 171.896 1 151.347 1 126C1 100.653 56.9644 80.1045 126 80.1045C195.036 80.1045 251 109.507 251 145.776C251 182.046 195.036 211.448 126 211.448C56.9644 211.448 1 190.9 1 165.552C1 140.205 56.9644 119.657 126 119.657C195.036 119.657 251 149.059 251 185.328C251 221.598 195.036 251 126 251" stroke="black" stroke-width="2" stroke-linejoin="round"/>
</svg>
