<svg width="252" height="250" viewBox="0 0 252 250" fill="none" xmlns="http://www.w3.org/2000/svg">
<path d="M126 84.1667C56.9644 84.1667 0.999997 65.8849 0.999998 43.3333C0.999999 20.7817 56.9644 2.49999 126 2.49999C195.036 2.5 251 20.7817 251 43.3333C251 65.885 195.036 84.1667 126 84.1667Z" fill="#F9F9F9"/>
<path d="M126 198.5C84.5786 198.5 51 187.531 51 174C51 160.469 84.5786 149.5 126 149.5C167.421 149.5 201 160.469 201 174C201 187.531 167.421 198.5 126 198.5Z" fill="#F9F9F9"/>
<path d="M126 247.5C112.193 247.5 101 243.844 101 239.333C101 234.823 112.193 231.167 126 231.167C139.807 231.167 151 234.823 151 239.333C151 243.844 139.807 247.5 126 247.5Z" fill="#F9F9F9"/>
<path d="M126 84.1667C56.9644 84.1667 0.999997 65.8849 0.999998 43.3333C0.999999 20.7817 56.9644 2.49999 126 2.49999C195.036 2.5 251 20.7817 251 43.3333C251 65.885 195.036 84.1667 126 84.1667ZM126 84.1667C70.7715 84.1667 26 98.792 26 116.833C26 134.875 70.7715 149.5 126 149.5M126 149.5C84.5786 149.5 51 160.469 51 174C51 187.531 84.5786 198.5 126 198.5M126 149.5C167.421 149.5 201 160.469 201 174C201 187.531 167.421 198.5 126 198.5M126 198.5C153.614 198.5 176 205.813 176 214.833C176 223.854 153.614 231.167 126 231.167M126 231.167C112.193 231.167 101 234.823 101 239.333C101 243.844 112.193 247.5 126 247.5C139.807 247.5 151 243.844 151 239.333C151 234.823 139.807 231.167 126 231.167Z" stroke="black" stroke-width="2" stroke-linejoin="round"/>
</svg>
