<svg width="252" height="250" viewBox="0 0 252 250" fill="none" xmlns="http://www.w3.org/2000/svg">
<path d="M251 53.75C251 78.4647 195.036 98.5 126 98.5C56.9644 98.5 1 78.4647 1 53.75C1 29.0353 56.9644 9 126 9C195.036 9 251 29.0353 251 53.75Z" fill="#F9F9F9"/>
<path d="M225 110.25C225 129.718 180.676 145.5 126 145.5C71.3238 145.5 27 129.718 27 110.25C27 90.782 71.3238 75 126 75C180.676 75 225 90.782 225 110.25Z" fill="#F9F9F9"/>
<path d="M202 155.25C202 170.3 167.974 182.5 126 182.5C84.0264 182.5 50 170.3 50 155.25C50 140.2 84.0264 128 126 128C167.974 128 202 140.2 202 155.25Z" fill="#F9F9F9"/>
<path d="M180.5 195C180.5 207.15 156.1 217 126 217C95.9005 217 71.5 207.15 71.5 195C71.5 182.85 95.9005 173 126 173C156.1 173 180.5 182.85 180.5 195Z" fill="#F9F9F9"/>
<path d="M165 226.25C165 234.12 147.539 240.5 126 240.5C104.461 240.5 87 234.12 87 226.25C87 218.38 104.461 212 126 212C147.539 212 165 218.38 165 226.25Z" fill="#F9F9F9"/>
<path d="M251 53.75C251 78.4647 195.036 98.5 126 98.5C56.9644 98.5 1 78.4647 1 53.75C1 29.0353 56.9644 9 126 9C195.036 9 251 29.0353 251 53.75Z" stroke="black" stroke-width="2" stroke-linejoin="round"/>
<path d="M225 110.25C225 129.718 180.676 145.5 126 145.5C71.3238 145.5 27 129.718 27 110.25C27 90.782 71.3238 75 126 75C180.676 75 225 90.782 225 110.25Z" stroke="black" stroke-width="2" stroke-linejoin="round"/>
<path d="M202 155.25C202 170.3 167.974 182.5 126 182.5C84.0264 182.5 50 170.3 50 155.25C50 140.2 84.0264 128 126 128C167.974 128 202 140.2 202 155.25Z" stroke="black" stroke-width="2" stroke-linejoin="round"/>
<path d="M180.5 195C180.5 207.15 156.1 217 126 217C95.9005 217 71.5 207.15 71.5 195C71.5 182.85 95.9005 173 126 173C156.1 173 180.5 182.85 180.5 195Z" stroke="black" stroke-width="2" stroke-linejoin="round"/>
<path d="M165 226.25C165 234.12 147.539 240.5 126 240.5C104.461 240.5 87 234.12 87 226.25C87 218.38 104.461 212 126 212C147.539 212 165 218.38 165 226.25Z" stroke="black" stroke-width="2" stroke-linejoin="round"/>
</svg>
