<svg width="252" height="252" viewBox="0 0 252 252" fill="none" xmlns="http://www.w3.org/2000/svg">
<path d="M251 206.25C251 230.965 195.036 251 126 251C56.9644 251 1 230.965 1 206.25C1 181.535 56.9644 161.5 126 161.5C195.036 161.5 251 181.535 251 206.25Z" fill="#F9F9F9"/>
<path d="M251 166.25C251 213.056 195.036 251 126 251C56.9644 251 1 213.056 1 166.25C1 119.444 56.9644 81.5 126 81.5C195.036 81.5 251 119.444 251 166.25Z" fill="#F9F9F9"/>
<path d="M251 126.25C251 195.148 195.036 251 126 251C56.9644 251 1 195.148 1 126.25C1 57.3525 56.9644 1.5 126 1.5C195.036 1.5 251 57.3525 251 126.25Z" fill="#F9F9F9"/>
<path d="M126 251C195.036 251 251 230.965 251 206.25C251 181.535 195.036 161.5 126 161.5C56.9644 161.5 1 181.535 1 206.25C1 230.965 56.9644 251 126 251ZM126 251C195.036 251 251 213.056 251 166.25C251 119.444 195.036 81.5 126 81.5C56.9644 81.5 1 119.444 1 166.25C1 213.056 56.9644 251 126 251ZM126 251C195.036 251 251 195.148 251 126.25C251 57.3525 195.036 1.5 126 1.5C56.9644 1.5 1 57.3525 1 126.25C1 195.148 56.9644 251 126 251Z" stroke="black" stroke-width="2" stroke-linejoin="round"/>
</svg>
