<svg width="252" height="252" viewBox="0 0 252 252" fill="none" xmlns="http://www.w3.org/2000/svg">
<path d="M241.261 206.36C239.57 209.051 237.545 211.505 235.217 213.722C215.672 235.74 173.144 251 123.829 251C55.9923 251 1.00002 222.125 1.00002 186.507C1.00002 170.193 12.5359 155.294 31.5581 143.936C54.0683 130.496 87.0619 122.014 123.829 122.014C191.665 122.014 246.93 150.721 246.93 186.34C246.877 193.563 245.048 200.332 241.261 206.36Z" fill="#F9F9F9"/>
<path d="M204.448 0.999998C165.684 0.999996 134.26 51.5305 134.26 113.863C134.26 176.195 165.684 226.726 204.448 226.726C212.022 226.726 219.316 224.797 226.15 221.227C259.721 203.418 259.145 145.086 225.227 91.1048C191.309 37.1233 136.599 7.79993 103.028 25.6092C69.4579 43.4185 69.7399 101.616 103.658 155.598C137.576 209.579 192.287 238.903 225.857 221.094C232.416 217.614 237.684 212.592 241.66 206.36C261.042 175.514 228.73 125.242 169.982 94.0755C111.234 62.9093 47.8975 62.6501 28.5157 93.4967C19.713 107.506 21.4909 125.523 31.5581 143.936M235.217 213.722C237.545 211.505 239.57 209.051 241.261 206.36C245.048 200.332 246.877 193.563 246.93 186.34C246.93 150.721 191.665 122.014 123.829 122.014C87.0619 122.014 54.0683 130.496 31.5581 143.936M235.217 213.722C210.864 236.926 153.418 234.228 99.7945 205.781C67.7282 188.769 43.6569 166.066 31.5581 143.936M235.217 213.722C242.558 205.454 246.657 196.232 246.657 186.507C246.657 179.547 244.558 172.845 240.673 166.565M235.217 213.722C215.672 235.74 173.144 251 123.829 251C55.9923 251 1.00002 222.125 1.00002 186.507C1.00002 170.193 12.5359 155.294 31.5581 143.936" stroke="black" stroke-width="2" stroke-linejoin="round"/>
</svg>
