<svg width="256" height="256" viewBox="0 0 256 256" fill="none" xmlns="http://www.w3.org/2000/svg">
<path d="M128 0.0292969V128M161.595 46.8947L128 128M218.49 37.5112L128 128M209.106 94.4053L128 128M255.971 128H128M209.106 161.595L128 128M218.49 218.49L128 128M161.595 209.106L128 128M128 255.971V128M94.4053 209.106L128 128M37.5112 218.49L128 128M46.8947 161.595L128 128M0.0292969 128H128M46.8947 94.4053L128 128M37.5112 37.5112L128 128M94.4053 46.8947L128 128" stroke="black" stroke-width="2" stroke-linejoin="round"/>
</svg>
