<svg width="250" height="250" viewBox="0 0 250 250" fill="none" xmlns="http://www.w3.org/2000/svg">
<path d="M125 124.997V125L125.001 124.999L125 125L125.001 125.001L125 125.001V125.003L124.999 125.001L124.998 125.002L124.999 125L124.999 125H124.999L124.998 124.998L124.999 124.999L125 124.997Z" fill="#F9F9F9"/>
<path d="M125 0V125M125 125V250M125 125H250M125 125H0M125 125L213.388 36.6117M125 125L36.6117 213.388M125 125L36.6117 36.6117M125 125L213.388 213.388M155.729 50.8097L124.999 125M124.999 125L94.2681 199.19M124.999 125L199.189 155.731M124.999 125L50.8084 94.2694M124.999 125L199.189 94.2694M124.999 125L50.8084 155.731M124.999 125L94.2681 50.8097M124.999 125L155.729 199.19" stroke="black" stroke-width="2" stroke-linejoin="round"/>
</svg>
