<svg width="250" height="250" viewBox="0 0 250 250" fill="none" xmlns="http://www.w3.org/2000/svg">
<path d="M124.882 124.998V124.999L124.883 124.999L124.882 125H124.883L124.882 125V125.001L124.882 125L124.881 125.001L124.881 125L124.881 125L124.882 125L124.881 124.999L124.882 124.999L124.882 124.998Z" fill="#F9F9F9"/>
<path d="M124.882 0V125M124.882 125V250M124.882 125L198.355 226.127M124.882 125L51.4089 23.8729M124.882 125L6 86.3729M124.882 125L243.764 163.627M124.882 125L243.764 86.3729M124.882 125L6 163.627M124.882 125L51.4089 226.127M124.882 125L198.355 23.8729M155.011 29.4418L124.882 125M124.882 125L94.7523 220.558M124.882 125L156.674 220.017M124.882 125L93.0891 29.9822M124.882 125L43.311 66.816M124.882 125L206.452 183.183M124.882 125L225.073 124.125M124.882 125L24.6901 125.874M124.882 125L44.3389 184.598M124.882 125L205.424 65.4013" stroke="black" stroke-width="2" stroke-linejoin="round"/>
</svg>
