<svg width="250" height="251" viewBox="0 0 250 251" fill="none" xmlns="http://www.w3.org/2000/svg">
<path d="M208 84.3333C208 130.357 170.84 167.667 125 167.667C79.1604 167.667 42 130.357 42 84.3333C42 38.3096 79.1604 1 125 1C170.84 1 208 38.3096 208 84.3333Z" fill="#F9F9F9"/>
<path d="M125 167.667C170.84 167.667 208 130.357 208 84.3333C208 38.3096 170.84 1 125 1C79.1604 1 42 38.3096 42 84.3333C42 130.357 79.1604 167.667 125 167.667ZM125 167.667C79.1604 167.667 42 204.976 42 251M125 167.667C170.84 167.667 208 204.976 208 251" stroke="black" stroke-width="2" stroke-linejoin="round"/>
</svg>
