<svg width="252" height="252" viewBox="0 0 252 252" fill="none" xmlns="http://www.w3.org/2000/svg">
<path d="M172.411 79.5884C187.643 94.8199 201.015 110.54 212.207 126C201.015 141.46 187.643 157.18 172.411 172.411C157.18 187.643 141.46 201.015 126 212.207C110.54 201.015 94.8199 187.643 79.5884 172.411C64.3569 157.18 50.9848 141.46 39.7931 126C50.9848 110.54 64.3569 94.8199 79.5884 79.5884C94.8199 64.3569 110.54 50.9848 126 39.7931C141.46 50.9848 157.18 64.3569 172.411 79.5884Z" fill="#F9F9F9"/>
<path d="M9.97127 9.97127L9.26416 9.26416L9.97127 9.97127ZM242.028 242.028L241.321 241.321L242.028 242.028ZM242.028 9.97126L241.321 10.6784V10.6784L242.028 9.97126ZM9.97126 242.028L10.6784 241.321L9.97126 242.028ZM235.403 77.0655C235.403 80.011 237.791 82.3988 240.737 82.3988C243.682 82.3988 246.07 80.011 246.07 77.0655C246.07 74.12 243.682 71.7322 240.737 71.7322C237.791 71.7322 235.403 74.12 235.403 77.0655ZM5.9116 174.976C5.9116 177.922 8.29941 180.31 11.2449 180.31C14.1904 180.31 16.5783 177.922 16.5783 174.976C16.5783 172.031 14.1904 169.643 11.2449 169.643C8.29941 169.643 5.9116 172.031 5.9116 174.976ZM10.6784 10.6784C16.8294 4.52738 25.8743 1.70956 37.1269 2.02356C48.3824 2.33763 61.7503 5.78702 76.3792 12.0565L77.167 10.2183C62.4 3.88957 48.7751 0.347811 37.1827 0.0243332C25.5873 -0.299225 15.9293 2.599 9.26416 9.26416L10.6784 10.6784ZM241.321 241.321C235.17 247.472 226.125 250.29 214.873 249.976C203.617 249.662 190.249 246.213 175.62 239.943L174.833 241.781C189.6 248.11 203.225 251.652 214.817 251.975C226.412 252.299 236.07 249.401 242.735 242.735L241.321 241.321ZM241.321 10.6784C247.472 16.8294 250.29 25.8743 249.976 37.1269C249.662 48.3824 246.213 61.7503 239.943 76.3792L241.781 77.167C248.11 62.4 251.652 48.7751 251.975 37.1827C252.299 25.5873 249.401 15.9293 242.735 9.26416L241.321 10.6784ZM10.6784 241.321C4.52737 235.17 1.70956 226.125 2.02356 214.873C2.33763 203.617 5.78703 190.249 12.0566 175.62L10.2183 174.833C3.88958 189.6 0.347816 203.225 0.0243338 214.817C-0.299229 226.412 2.59899 236.07 9.26415 242.735L10.6784 241.321ZM213.017 125.413C201.792 109.909 188.386 94.1485 173.118 78.8813L171.704 80.2955C186.9 95.4913 200.237 111.171 211.397 126.586L213.017 125.413ZM173.118 78.8813C157.851 63.6141 142.091 50.2073 126.586 38.983L125.413 40.6031C140.829 51.7624 156.508 65.0997 171.704 80.2955L173.118 78.8813ZM125.413 38.983C109.909 50.2073 94.1485 63.6141 78.8813 78.8813L80.2955 80.2955C95.4913 65.0997 111.171 51.7624 126.586 40.6031L125.413 38.983ZM78.8813 78.8813C63.6141 94.1485 50.2073 109.909 38.983 125.413L40.6031 126.586C51.7624 111.171 65.0997 95.4913 80.2955 80.2955L78.8813 78.8813ZM38.983 126.586C50.2073 142.091 63.6141 157.851 78.8813 173.118L80.2955 171.704C65.0997 156.508 51.7624 140.829 40.6031 125.413L38.983 126.586ZM78.8813 173.118C94.1485 188.386 109.909 201.792 125.413 213.017L126.586 211.397C111.171 200.237 95.4913 186.9 80.2955 171.704L78.8813 173.118ZM126.586 213.017C142.091 201.792 157.851 188.386 173.118 173.118L171.704 171.704C156.508 186.9 140.829 200.237 125.413 211.397L126.586 213.017ZM173.118 173.118C188.386 157.851 201.792 142.091 213.017 126.586L211.397 125.413C200.237 140.829 186.9 156.508 171.704 171.704L173.118 173.118ZM125.413 211.397C100.684 229.299 76.6732 241.569 56.463 246.938C36.1955 252.323 20.0574 250.7 10.6784 241.321L9.26415 242.735C19.4248 252.896 36.5101 254.309 56.9765 248.871C77.5002 243.419 101.734 231.008 126.586 213.017L125.413 211.397ZM175.372 239.836C160.099 233.264 143.508 223.646 126.586 211.397L125.413 213.017C142.429 225.335 159.149 235.032 174.581 241.673L175.372 239.836ZM40.6031 125.413C22.7007 100.684 10.4308 76.6732 5.0612 56.463C-0.323598 36.1955 1.29933 20.0574 10.6784 10.6784L9.26416 9.26416C-0.896518 19.4248 -2.30941 36.5101 3.12826 56.9765C8.58114 77.5002 20.9919 101.734 38.983 126.586L40.6031 125.413ZM126.586 40.6031C151.316 22.7007 175.326 10.4308 195.537 5.0612C215.804 -0.323599 231.942 1.29933 241.321 10.6784L242.735 9.26416C232.575 -0.89652 215.49 -2.30941 195.023 3.12826C174.499 8.58114 150.266 20.9919 125.413 38.983L126.586 40.6031ZM126.586 38.983C109.586 26.676 92.8816 16.9852 77.461 10.3446L76.67 12.1815C91.9308 18.7533 108.508 28.3645 125.413 40.6031L126.586 38.983ZM213.017 126.586C225.324 109.586 235.014 92.8816 241.655 77.461L239.818 76.67C233.246 91.9308 223.635 108.508 211.397 125.413L213.017 126.586ZM12.1635 175.372C18.7357 160.099 28.3533 143.508 40.6031 126.586L38.983 125.413C26.6647 142.429 16.9675 159.149 10.3264 174.581L12.1635 175.372ZM211.397 126.586C229.299 151.316 241.569 175.326 246.938 195.537C252.323 215.804 250.7 231.942 241.321 241.321L242.735 242.735C252.896 232.575 254.309 215.49 248.871 195.023C243.419 174.499 231.008 150.266 213.017 125.413L211.397 126.586Z" fill="black"/>
</svg>
