<svg width="252" height="250" viewBox="0 0 252 250" fill="none" xmlns="http://www.w3.org/2000/svg">
<path d="M126 13C126 77.2902 138.234 112.051 155.047 146.57C160.158 157.063 165.692 166.384 171.434 174.656C179.695 186.556 188.387 196.285 196.869 204.212C225.094 230.587 251 237 251 237H126H1C1 237 27.0088 230.658 55.2988 204.212C63.7748 196.288 72.4556 186.56 80.7031 174.656C86.4335 166.386 91.9547 157.065 97.0526 146.57C113.814 112.063 126 77.3075 126 13Z" fill="#F9F9F9"/>
<path d="M126 13V237M126 13C126 77.3075 113.814 112.063 97.0526 146.57M126 13C126 77.2902 138.234 112.051 155.047 146.57M126 237H251C251 237 225.094 230.587 196.869 204.212M126 237H1C1 237 27.0088 230.658 55.2988 204.212M55.2988 204.212H196.869M55.2988 204.212C63.7748 196.288 72.4556 186.56 80.7031 174.656M196.869 204.212C188.387 196.285 179.695 186.556 171.434 174.656M80.7031 174.656H171.434M80.7031 174.656C86.4335 166.386 91.9547 157.065 97.0526 146.57M171.434 174.656C165.692 166.384 160.158 157.063 155.047 146.57M97.0526 146.57H155.047" stroke="black" stroke-width="2" stroke-linejoin="round"/>
</svg>
