<svg width="250" height="250" viewBox="0 0 250 250" fill="none" xmlns="http://www.w3.org/2000/svg">
<path d="M135.077 124.765C134.952 119.391 130.543 115.071 125.122 115.071C119.701 115.071 115.292 119.391 115.167 124.765L115.166 124.827L115.165 124.88C115.164 124.92 115.164 124.96 115.164 125C115.164 125.079 115.165 125.157 115.167 125.235C115.292 130.609 119.701 134.926 125.122 134.926C130.543 134.926 134.952 130.609 135.077 125.235V124.765Z" fill="#F9F9F9"/>
<path d="M125.122 157.353V134.926M125.122 157.353C155.519 157.353 182.058 150.847 196.258 141.176M125.122 157.353C94.7253 157.353 68.1858 150.847 53.9865 141.176M125.122 92.6471C155.519 92.6471 182.058 99.1532 196.258 108.824M125.122 92.6471V115.071M125.122 92.6471C94.7253 92.6471 68.1858 99.1532 53.9865 108.824M125.122 134.926C130.543 134.926 134.952 130.609 135.077 125.235M125.122 134.926C119.701 134.926 115.292 130.609 115.167 125.235M125.122 134.926V250M125.122 115.071C130.543 115.071 134.952 119.391 135.077 124.765M125.122 115.071C119.701 115.071 115.292 119.391 115.167 124.765M125.122 115.071V115.074V0M135.077 124.765C161.251 123.519 183.632 117.422 196.258 108.824M135.077 124.765V125.235M135.077 125.235C161.251 126.481 183.632 132.578 196.258 141.176M115.167 124.765C115.166 124.785 115.166 124.806 115.166 124.827M115.167 124.765L115.166 124.827M115.167 124.765C88.9929 123.519 66.6117 117.422 53.9865 108.824M115.167 125.235C115.165 125.157 115.164 125.079 115.164 125C115.164 124.96 115.164 124.92 115.165 124.88M115.167 125.235C88.9929 126.481 66.6117 132.578 53.9865 141.176M196.258 141.176C203.245 136.418 207.244 130.893 207.244 125C207.244 119.107 203.245 113.582 196.258 108.824M196.258 141.176C203.245 145.935 207.244 151.46 207.244 157.353C207.244 175.221 170.477 189.706 125.122 189.706C79.7673 189.706 43 175.221 43 157.353C43 151.46 46.9991 145.935 53.9865 141.176M115.165 124.88C115.165 124.862 115.165 124.844 115.166 124.827M115.165 124.88L115.166 124.827M196.258 108.824C203.245 104.065 207.244 98.5399 207.244 92.6471C207.244 74.779 170.477 60.2941 125.122 60.2941C79.7673 60.2941 43 74.779 43 92.6471C43 98.5399 46.9991 104.065 53.9865 108.824M53.9865 108.824C46.9991 113.582 43 119.107 43 125C43 130.893 46.9991 136.418 53.9865 141.176" stroke="black" stroke-width="2" stroke-linejoin="round"/>
</svg>
