<svg width="250" height="250" viewBox="0 0 250 250" fill="none" xmlns="http://www.w3.org/2000/svg">
<path d="M199.31 90.5172C199.31 100.039 165.997 107.759 124.905 107.759C83.8121 107.759 50.5 100.039 50.5 90.5172C50.5 80.9951 83.8121 73.2759 124.905 73.2759C165.997 73.2759 199.31 80.9951 199.31 90.5172Z" fill="#F9F9F9"/>
<path d="M199.31 125C199.31 134.522 165.997 142.241 124.905 142.241C83.8121 142.241 50.5 134.522 50.5 125C50.5 115.478 83.8121 107.759 124.905 107.759C165.997 107.759 199.31 115.478 199.31 125Z" fill="#F9F9F9"/>
<path d="M199.31 159.483C199.31 169.005 165.997 176.724 124.905 176.724C83.8121 176.724 50.5 169.005 50.5 159.483C50.5 149.961 83.8121 142.241 124.905 142.241C165.997 142.241 199.31 149.961 199.31 159.483Z" fill="#F9F9F9"/>
<path d="M124.905 73.2759C165.997 73.2759 199.31 65.5566 199.31 56.0345C199.31 46.5123 165.997 38.7931 124.905 38.7931M124.905 73.2759C83.8121 73.2759 50.5 80.9951 50.5 90.5172C50.5 100.039 83.8121 107.759 124.905 107.759M124.905 73.2759C165.997 73.2759 199.31 80.9951 199.31 90.5172C199.31 100.039 165.997 107.759 124.905 107.759M124.905 0L124.905 90.5172M124.905 107.759C83.8121 107.759 50.5 115.478 50.5 125C50.5 134.522 83.8121 142.241 124.905 142.241M124.905 107.759C165.997 107.759 199.31 115.478 199.31 125C199.31 134.522 165.997 142.241 124.905 142.241M124.905 142.241C83.8121 142.241 50.5 149.961 50.5 159.483C50.5 169.005 83.8121 176.724 124.905 176.724M124.905 142.241C165.997 142.241 199.31 149.961 199.31 159.483C199.31 169.005 165.997 176.724 124.905 176.724M124.905 176.724C83.8121 176.724 50.5 184.443 50.5 193.966C50.5 203.488 83.8121 211.207 124.905 211.207M124.905 159.483L124.905 250" stroke="black" stroke-width="2" stroke-linejoin="round"/>
</svg>
