<svg width="252" height="250" viewBox="0 0 252 250" fill="none" xmlns="http://www.w3.org/2000/svg">
<path d="M66 125C66 142.949 51.4493 157.5 33.5 157.5C15.5507 157.5 1 142.949 1 125C1 107.051 15.5507 92.5 33.5 92.5C51.4493 92.5 66 107.051 66 125Z" fill="#F9F9F9"/>
<path d="M251 125C251 142.949 236.449 157.5 218.5 157.5C200.551 157.5 186 142.949 186 125C186 107.051 200.551 92.5 218.5 92.5C236.449 92.5 251 107.051 251 125Z" fill="#F9F9F9"/>
<path d="M226 125C226 129.142 222.642 132.5 218.5 132.5C214.358 132.5 211 129.142 211 125C211 120.858 214.358 117.5 218.5 117.5C222.642 117.5 226 120.858 226 125Z" fill="#F9F9F9"/>
<path d="M66 125C66 142.949 51.4493 157.5 33.5 157.5C15.5507 157.5 1 142.949 1 125C1 107.051 15.5507 92.5 33.5 92.5C51.4493 92.5 66 107.051 66 125ZM66 125H186M186 125C186 142.949 200.551 157.5 218.5 157.5C236.449 157.5 251 142.949 251 125C251 107.051 236.449 92.5 218.5 92.5C200.551 92.5 186 107.051 186 125ZM226 125C226 129.142 222.642 132.5 218.5 132.5C214.358 132.5 211 129.142 211 125C211 120.858 214.358 117.5 218.5 117.5C222.642 117.5 226 120.858 226 125Z" stroke="black" stroke-width="2" stroke-linejoin="round"/>
</svg>
