<svg width="252" height="250" viewBox="0 0 252 250" fill="none" xmlns="http://www.w3.org/2000/svg">
<path d="M1.00001 88.0587C1.00001 81.0458 6.71067 75.3606 13.7551 75.3606C20.7996 75.3606 26.5102 81.0458 26.5102 88.0587C26.5102 95.0717 20.7996 100.757 13.7551 100.757C6.71067 100.757 1.00001 95.0717 1.00001 88.0587Z" fill="#F9F9F9"/>
<path d="M225.49 88.0587C225.49 81.0458 231.2 75.3607 238.245 75.3607C245.289 75.3607 251 81.0458 251 88.0587C251 95.0717 245.289 100.757 238.245 100.757C231.2 100.757 225.49 95.0717 225.49 88.0587Z" fill="#F9F9F9"/>
<path d="M74.9796 88.0587C74.9796 60.0069 97.8222 37.2664 126 37.2664C154.178 37.2664 177.02 60.0069 177.02 88.0587C177.02 116.111 154.178 138.851 126 138.851C97.8222 138.851 74.9796 116.111 74.9796 88.0587Z" fill="#F9F9F9"/>
<path d="M113.245 88.0587C113.245 81.0458 118.956 75.3606 126 75.3606C133.044 75.3606 138.755 81.0458 138.755 88.0587C138.755 95.0717 133.044 100.757 126 100.757C118.956 100.757 113.245 95.0717 113.245 88.0587Z" fill="#F9F9F9"/>
<path d="M13.7551 100.757C13.7551 162.471 64.0089 212.5 126 212.5M13.7551 100.757C20.7996 100.757 26.5102 95.0717 26.5102 88.0587C26.5102 81.0458 20.7996 75.3606 13.7551 75.3606C6.71067 75.3606 1.00001 81.0458 1.00001 88.0587C1.00001 95.0717 6.71067 100.757 13.7551 100.757ZM238.245 100.757C238.245 162.471 187.991 212.5 126 212.5M238.245 100.757C245.289 100.757 251 95.0717 251 88.0587C251 81.0458 245.289 75.3607 238.245 75.3607C231.2 75.3607 225.49 81.0458 225.49 88.0587C225.49 95.0717 231.2 100.757 238.245 100.757ZM126 212.5L126 138.851M126 138.851C154.178 138.851 177.02 116.111 177.02 88.0587C177.02 60.0069 154.178 37.2664 126 37.2664C97.8222 37.2664 74.9796 60.0069 74.9796 88.0587C74.9796 116.111 97.8222 138.851 126 138.851ZM113.245 88.0587C113.245 81.0458 118.956 75.3606 126 75.3606C133.044 75.3606 138.755 81.0458 138.755 88.0587C138.755 95.0717 133.044 100.757 126 100.757C118.956 100.757 113.245 95.0717 113.245 88.0587Z" stroke="black" stroke-width="2" stroke-linejoin="round"/>
</svg>
