<svg width="253" height="250" viewBox="0 0 253 250" fill="none" xmlns="http://www.w3.org/2000/svg">
<path d="M252 170.639C252 189.34 236.826 204.5 218.109 204.5C199.391 204.5 184.218 189.34 184.218 170.639C184.218 151.938 199.391 136.778 218.109 136.778C236.826 136.778 252 151.938 252 170.639Z" fill="#F9F9F9"/>
<path d="M69.2824 170.639C69.2824 189.34 54.1088 204.5 35.3912 204.5C16.6736 204.5 1.5 189.34 1.5 170.639C1.5 151.938 16.6736 136.778 35.3912 136.778C54.1088 136.778 69.2824 151.938 69.2824 170.639Z" fill="#F9F9F9"/>
<path d="M252 170.639C252 101.527 195.924 45.5 126.75 45.5C57.5763 45.5 1.5 101.527 1.5 170.639M252 170.639C252 189.34 236.826 204.5 218.109 204.5C199.391 204.5 184.218 189.34 184.218 170.639C184.218 151.938 199.391 136.778 218.109 136.778C236.826 136.778 252 151.938 252 170.639ZM69.2824 170.639C69.2824 189.34 54.1088 204.5 35.3912 204.5C16.6736 204.5 1.5 189.34 1.5 170.639C1.5 151.938 16.6736 136.778 35.3912 136.778C54.1088 136.778 69.2824 151.938 69.2824 170.639Z" stroke="black" stroke-width="2" stroke-linejoin="round"/>
</svg>
