<svg width="252" height="250" viewBox="0 0 252 250" fill="none" xmlns="http://www.w3.org/2000/svg">
<path d="M251 124.086C251 133.682 243.214 141.462 233.609 141.462C224.004 141.462 216.217 133.682 216.217 124.086C216.217 114.49 224.004 106.711 233.609 106.711C243.214 106.711 251 114.49 251 124.086Z" fill="#F9F9F9"/>
<path d="M35.7826 125.172C35.7826 134.768 27.9963 142.547 18.3913 142.547C8.78635 142.547 1 134.768 1 125.172C1 115.576 8.78635 107.797 18.3913 107.797C27.9963 107.797 35.7826 115.576 35.7826 125.172Z" fill="#F9F9F9"/>
<path d="M22.7391 53.5C62.3596 53.5 94.4783 85.5888 94.4783 125.172M94.4783 125.172C94.4783 164.756 62.3596 196.845 22.7391 196.845M94.4783 125.172H126L157.522 125.172M18.3913 89.3362C38.8018 89.3362 55.3478 105.867 55.3478 126.258C55.3478 146.65 38.8018 163.18 18.3913 163.18M229.261 196.845C189.64 196.845 157.522 164.756 157.522 125.172M157.522 125.172C157.522 85.5888 189.64 53.5 229.261 53.5M233.609 161.009C213.198 161.009 196.652 144.478 196.652 124.086C196.652 103.695 213.198 87.1643 233.609 87.1643M251 124.086C251 133.682 243.214 141.462 233.609 141.462C224.004 141.462 216.217 133.682 216.217 124.086C216.217 114.49 224.004 106.711 233.609 106.711C243.214 106.711 251 114.49 251 124.086ZM35.7826 125.172C35.7826 134.768 27.9963 142.547 18.3913 142.547C8.78635 142.547 1 134.768 1 125.172C1 115.576 8.78635 107.797 18.3913 107.797C27.9963 107.797 35.7826 115.576 35.7826 125.172Z" stroke="black" stroke-width="2" stroke-linejoin="round"/>
</svg>
