<svg width="250" height="250" viewBox="0 0 250 250" fill="none" xmlns="http://www.w3.org/2000/svg">
<path d="M125.25 75C153.129 75 175.73 97.3858 175.73 125C175.73 152.614 153.129 175 125.25 175C97.3705 175 74.7698 152.614 74.7698 125C74.7698 97.3858 97.3705 75 125.25 75Z" fill="#F9F9F9"/>
<path d="M125.25 102.586C137.748 102.586 147.879 112.621 147.879 125C147.879 137.379 137.748 147.414 125.25 147.414C112.752 147.414 102.621 137.379 102.621 125C102.621 112.621 112.752 102.586 125.25 102.586Z" fill="#F9F9F9"/>
<path d="M175.73 125C175.73 97.3858 153.129 75 125.25 75C97.3705 75 74.7698 97.3858 74.7698 125M175.73 125C175.73 152.614 153.129 175 125.25 175C97.3705 175 74.7698 152.614 74.7698 125M175.73 125L250 125M74.7698 125L0.499998 125M125.25 102.586C137.748 102.586 147.879 112.621 147.879 125C147.879 137.379 137.748 147.414 125.25 147.414C112.752 147.414 102.621 137.379 102.621 125C102.621 112.621 112.752 102.586 125.25 102.586Z" stroke="black" stroke-width="2" stroke-linejoin="round"/>
</svg>
