<svg width="250" height="250" viewBox="0 0 250 250" fill="none" xmlns="http://www.w3.org/2000/svg">
<path d="M156.25 124.75C156.25 142.009 142.259 156 125 156C107.741 156 93.75 142.009 93.75 124.75C93.75 107.491 107.741 93.5 125 93.5C142.259 93.5 156.25 107.491 156.25 124.75Z" fill="#F9F9F9"/>
<path d="M218.75 124.75C218.75 142.009 204.759 156 187.5 156C170.241 156 156.25 142.009 156.25 124.75C156.25 107.491 170.241 93.5 187.5 93.5C204.759 93.5 218.75 107.491 218.75 124.75Z" fill="#F9F9F9"/>
<path d="M93.75 124.75C93.75 142.009 79.7589 156 62.5 156C45.2411 156 31.25 142.009 31.25 124.75C31.25 107.491 45.2411 93.5 62.5 93.5C79.7589 93.5 93.75 107.491 93.75 124.75Z" fill="#F9F9F9"/>
<path d="M156.25 124.75C156.25 142.009 142.259 156 125 156C107.741 156 93.75 142.009 93.75 124.75M156.25 124.75C156.25 107.491 142.259 93.5 125 93.5C107.741 93.5 93.75 107.491 93.75 124.75M156.25 124.75C156.25 142.009 170.241 156 187.5 156C204.759 156 218.75 142.009 218.75 124.75M156.25 124.75C156.25 107.491 170.241 93.5 187.5 93.5C204.759 93.5 218.75 107.491 218.75 124.75M93.75 124.75C93.75 142.009 79.7589 156 62.5 156C45.2411 156 31.25 142.009 31.25 124.75M93.75 124.75C93.75 107.491 79.7589 93.5 62.5 93.5C45.2411 93.5 31.25 107.491 31.25 124.75M218.75 124.75C218.75 107.491 232.741 93.5 250 93.5M218.75 124.75C218.75 142.009 232.741 156 250 156M31.25 124.75C31.25 142.009 17.2589 156 0 156M31.25 124.75C31.25 107.491 17.2589 93.5 0 93.5" stroke="black" stroke-width="2" stroke-linejoin="round"/>
<path d="M0 124.938L250 124.938" stroke="black" stroke-width="2" stroke-linejoin="round" stroke-dasharray="15 10"/>
</svg>
