<svg width="252" height="250" viewBox="0 0 252 250" fill="none" xmlns="http://www.w3.org/2000/svg">
<path d="M124.965 89.9515C109.522 80.7353 88.1223 75.0285 64.4726 75.0285C40.8229 75.0285 19.4227 80.7353 3.98056 89.9515M78.2926 102.43C56.4702 103.641 35.4369 109.809 20.4128 120.63C5.38862 131.452 -0.768277 144.87 1.434 157.791M164.621 98.7744C163.007 85.8228 153.016 73.2409 135.052 64.127C117.088 55.0131 94.5681 51.1009 72.7218 52.1506M182.88 121.511C197.322 111.742 205.44 98.6957 203.794 84.7168C202.147 70.7379 191.05 58.486 174.458 50M171.709 146.986C193.517 145.688 214.48 139.437 229.382 128.556C244.283 117.675 250.288 104.233 247.94 91.3206M130.464 159.391C147.185 167.787 169.334 172.383 192.896 171.179C216.458 169.975 236.952 163.199 251 153.231M87.5254 153.603C90.4248 166.475 101.651 178.686 120.491 187.157C139.331 195.627 162.201 198.746 183.904 196.934M64.744 128.792C51.0724 138.943 43.9708 152.196 46.6957 166.115C49.4205 180.035 61.4534 191.973 78.6834 200" stroke="black" stroke-width="2" stroke-linecap="round" stroke-linejoin="round" stroke-dasharray="15 15"/>
</svg>
