<svg width="250" height="250" viewBox="0 0 250 250" fill="none" xmlns="http://www.w3.org/2000/svg">
<path d="M189.26 125L176.352 125.463C148.669 126.457 126.457 148.669 125.463 176.352L125 189.261L124.537 176.352C123.543 148.669 101.331 126.457 73.6482 125.463L60.7393 125L73.6482 124.537C101.331 123.543 123.543 101.331 124.537 73.6482L125 60.7394L125.463 73.6482C126.457 101.331 148.669 123.543 176.352 124.537L189.26 125Z" fill="#F9F9F9"/>
<path d="M189.26 125L176.352 125.463C148.669 126.457 126.457 148.669 125.463 176.352L125 189.261M189.26 125L176.352 124.537C148.669 123.543 126.457 101.331 125.463 73.6482L125 60.7394M189.26 125L250 125M125 189.261L124.537 176.352C123.543 148.669 101.331 126.457 73.6482 125.463L60.7393 125M125 189.261V250M60.7393 125L73.6482 124.537C101.331 123.543 123.543 101.331 124.537 73.6482L125 60.7394M60.7393 125L0 125M125 60.7394V0" stroke="black" stroke-width="2" stroke-linejoin="round"/>
</svg>
