<svg width="252" height="250" viewBox="0 0 252 250" fill="none" xmlns="http://www.w3.org/2000/svg">
<path d="M137.919 13.3388C137.919 20.1533 132.359 25.6776 125.5 25.6776C118.64 25.6776 113.08 20.1533 113.08 13.3388C113.08 6.52426 118.64 0.999995 125.5 0.999995C132.359 0.999995 137.919 6.52426 137.919 13.3388Z" fill="#F9F9F9"/>
<path d="M137.919 236.161C137.919 242.976 132.359 248.5 125.5 248.5C118.64 248.5 113.08 242.976 113.08 236.161C113.08 229.347 118.64 223.822 125.5 223.822C132.359 223.822 137.919 229.347 137.919 236.161Z" fill="#F9F9F9"/>
<path d="M251 124.578C251 131.393 245.439 136.917 238.58 136.917C231.721 136.917 226.16 131.393 226.16 124.578C226.16 117.764 231.721 112.239 238.58 112.239C245.439 112.239 251 117.764 251 124.578Z" fill="#F9F9F9"/>
<path d="M25.8397 124.578C25.8397 131.393 20.2791 136.917 13.4199 136.917C6.56057 136.917 1.00001 131.393 1.00001 124.578C1.00001 117.764 6.56057 112.239 13.4199 112.239C20.2791 112.239 25.8397 117.764 25.8397 124.578Z" fill="#F9F9F9"/>
<path d="M194.082 68.9367C194.082 75.7512 188.521 81.2755 181.662 81.2755C178.168 81.2755 175.011 79.8418 172.754 77.5343C170.581 75.3122 169.242 72.2797 169.242 68.9367C169.242 62.1222 174.803 56.5979 181.662 56.5979C188.521 56.5979 194.082 62.1222 194.082 68.9367Z" fill="#F9F9F9"/>
<path d="M82.2692 68.4416C82.2692 72.0401 80.7187 75.2789 78.2451 77.5343C76.0344 79.55 73.0865 80.7804 69.8494 80.7804C62.9901 80.7804 57.4296 75.2561 57.4296 68.4416C57.4296 61.6271 62.9901 56.1029 69.8494 56.1029C76.7087 56.1029 82.2692 61.6271 82.2692 68.4416Z" fill="#F9F9F9"/>
<path d="M194.375 179.91C194.375 186.725 188.814 192.249 181.955 192.249C175.095 192.249 169.535 186.725 169.535 179.91C169.535 176.72 170.754 173.812 172.754 171.622C175.026 169.134 178.307 167.571 181.955 167.571C188.814 167.571 194.375 173.096 194.375 179.91Z" fill="#F9F9F9"/>
<path d="M83.2141 181.495C83.2141 188.309 77.6535 193.834 70.7942 193.834C63.935 193.834 58.3744 188.309 58.3744 181.495C58.3744 174.68 63.935 169.156 70.7942 169.156C73.5897 169.156 76.1695 170.074 78.245 171.622C81.2623 173.873 83.2141 177.458 83.2141 181.495Z" fill="#F9F9F9"/>
<path d="M226.16 124.578L25.8397 124.578M226.16 124.578C226.16 131.393 231.721 136.917 238.58 136.917C245.439 136.917 251 131.393 251 124.578C251 117.764 245.439 112.239 238.58 112.239C231.721 112.239 226.16 117.764 226.16 124.578ZM25.8397 124.578C25.8397 131.393 20.2791 136.917 13.4198 136.917C6.56057 136.917 1.00001 131.393 1.00001 124.578C1.00001 117.764 6.56058 112.239 13.4199 112.239C20.2791 112.239 25.8397 117.764 25.8397 124.578ZM125.5 25.6776L125.5 223.822M125.5 25.6776C132.359 25.6776 137.919 20.1533 137.919 13.3388C137.919 6.52426 132.359 0.999995 125.5 0.999995C118.64 0.999995 113.08 6.52426 113.08 13.3388C113.08 20.1533 118.64 25.6776 125.5 25.6776ZM125.5 223.822C118.64 223.822 113.08 229.347 113.08 236.161C113.08 242.976 118.64 248.5 125.5 248.5C132.359 248.5 137.919 242.976 137.919 236.161C137.919 229.347 132.359 223.822 125.5 223.822ZM172.754 77.5343L125.499 124.578M172.754 77.5343C175.011 79.8418 178.168 81.2755 181.662 81.2755C188.521 81.2755 194.082 75.7512 194.082 68.9367C194.082 62.1222 188.521 56.5979 181.662 56.5979C174.803 56.5979 169.242 62.1222 169.242 68.9367C169.242 72.2797 170.581 75.3122 172.754 77.5343ZM125.499 124.578L78.245 171.622M125.499 124.578L78.2451 77.5343M125.499 124.578L172.754 171.622M78.245 171.622C76.1695 170.074 73.5897 169.156 70.7942 169.156C63.935 169.156 58.3744 174.68 58.3744 181.495C58.3744 188.309 63.935 193.834 70.7942 193.834C77.6535 193.834 83.2141 188.309 83.2141 181.495C83.2141 177.458 81.2623 173.873 78.245 171.622ZM78.2451 77.5343C80.7187 75.2789 82.2692 72.0401 82.2692 68.4416C82.2692 61.6271 76.7087 56.1029 69.8494 56.1029C62.9901 56.1029 57.4296 61.6271 57.4296 68.4416C57.4296 75.2561 62.9901 80.7804 69.8494 80.7804C73.0865 80.7804 76.0344 79.55 78.2451 77.5343ZM172.754 171.622C170.754 173.812 169.535 176.72 169.535 179.91C169.535 186.725 175.095 192.249 181.955 192.249C188.814 192.249 194.375 186.725 194.375 179.91C194.375 173.096 188.814 167.571 181.955 167.571C178.307 167.571 175.026 169.134 172.754 171.622Z" stroke="black" stroke-width="2" stroke-linecap="square" stroke-linejoin="round"/>
</svg>
