<svg width="252" height="250" viewBox="0 0 252 250" fill="none" xmlns="http://www.w3.org/2000/svg">
<path d="M142.888 122.861C142.888 124.453 142.672 125.994 142.268 127.457C141.395 130.616 139.644 133.408 137.295 135.554C134.255 138.331 130.212 140.025 125.776 140.025C121.314 140.025 117.251 138.312 114.205 135.507C111.919 133.402 110.206 130.682 109.326 127.608C108.894 126.1 108.663 124.508 108.663 122.861C108.663 120.571 109.11 118.386 109.922 116.388C111.084 113.527 112.994 111.052 115.408 109.206C118.285 107.005 121.878 105.698 125.776 105.698C129.416 105.698 132.791 106.838 135.565 108.782C138.257 110.668 140.383 113.312 141.636 116.405C142.444 118.398 142.888 120.578 142.888 122.861Z" fill="#F9F9F9"/>
<path d="M136.709 57.0676C136.709 63.1237 131.814 68.0332 125.776 68.0332C119.738 68.0332 114.843 63.1237 114.843 57.0676C114.843 51.0114 119.738 46.1019 125.776 46.1019C131.814 46.1019 136.709 51.0114 136.709 57.0676Z" fill="#F9F9F9"/>
<path d="M191.103 114.463C185.27 116.031 179.275 112.559 177.713 106.709C176.15 100.86 179.611 94.8467 185.443 93.2793C191.276 91.7118 197.271 95.1834 198.834 101.033C200.396 106.883 196.935 112.896 191.103 114.463Z" fill="#F9F9F9"/>
<path d="M33.6629 62.578C39.4953 64.1455 45.4902 60.6739 47.053 54.8241C48.6158 48.9744 45.1546 42.9615 39.3222 41.3941C33.4898 39.8266 27.4949 43.2981 25.9321 49.1479C24.3693 54.9977 27.8305 61.0106 33.6629 62.578Z" fill="#F9F9F9"/>
<path d="M72.393 15.9425C72.393 21.9986 77.2879 26.9081 83.326 26.9081C89.3641 26.9081 94.259 21.9986 94.259 15.9425C94.259 9.88632 89.3641 4.97684 83.326 4.97684C77.2879 4.97684 72.393 9.88632 72.393 15.9425Z" fill="#F9F9F9"/>
<path d="M60.5183 114.463C66.3506 116.031 72.3456 112.559 73.9084 106.709C75.4712 100.86 72.01 94.8467 66.1776 93.2792C60.3452 91.7118 54.3503 95.1833 52.7875 101.033C51.2247 106.883 54.6859 112.896 60.5183 114.463Z" fill="#F9F9F9"/>
<path d="M14.8928 126.004C20.7059 127.642 24.0944 133.696 22.4613 139.526C20.8282 145.357 14.7919 148.755 8.9788 147.117C3.16572 145.479 -0.222835 139.425 1.41026 133.595C3.04336 127.764 9.07969 124.366 14.8928 126.004Z" fill="#F9F9F9"/>
<path d="M24.4648 185.934C27.5468 180.727 34.2544 179.011 39.4468 182.102C44.6391 185.193 46.3499 191.921 43.2679 197.128C40.1859 202.336 33.4782 204.052 28.2859 200.961C23.0936 197.87 21.3828 191.142 24.4648 185.934Z" fill="#F9F9F9"/>
<path d="M80.38 172.366C83.3991 167.121 90.0856 165.324 95.3148 168.352C100.544 171.38 102.336 178.087 99.3165 183.331C96.2975 188.576 89.611 190.373 84.3818 187.345C79.1526 184.317 77.361 177.611 80.38 172.366Z" fill="#F9F9F9"/>
<path d="M164.374 226.247C160.585 221.532 153.702 220.789 149.001 224.589C144.299 228.389 143.559 235.292 147.347 240.008C151.136 244.724 158.018 245.466 162.72 241.666C167.422 237.866 168.162 230.963 164.374 226.247Z" fill="#F9F9F9"/>
<path d="M105.674 241.001C109.235 236.11 108.169 229.25 103.293 225.678C98.4163 222.106 91.5765 223.176 88.0155 228.067C84.4546 232.958 85.5209 239.818 90.3972 243.389C95.2735 246.961 102.113 245.891 105.674 241.001Z" fill="#F9F9F9"/>
<path d="M171.094 172.366C168.075 167.121 161.388 165.324 156.159 168.352C150.93 171.38 149.138 178.087 152.158 183.331C155.177 188.576 161.863 190.373 167.092 187.345C172.321 184.317 174.113 177.611 171.094 172.366Z" fill="#F9F9F9"/>
<path d="M237.107 126.004C231.294 127.642 227.906 133.696 229.539 139.526C231.172 145.357 237.208 148.755 243.021 147.117C248.834 145.479 252.223 139.425 250.59 133.595C248.957 127.764 242.92 124.366 237.107 126.004Z" fill="#F9F9F9"/>
<path d="M227.535 185.934C224.453 180.727 217.746 179.011 212.553 182.102C207.361 185.193 205.65 191.921 208.732 197.128C211.814 202.336 218.522 204.052 223.714 200.961C228.906 197.87 230.617 191.142 227.535 185.934Z" fill="#F9F9F9"/>
<path d="M217.348 62.1012C211.515 63.6686 205.52 60.1971 203.957 54.3473C202.395 48.4975 205.856 42.4847 211.688 40.9172C217.521 39.3498 223.516 42.8213 225.078 48.6711C226.641 54.5209 223.18 60.5337 217.348 62.1012Z" fill="#F9F9F9"/>
<path d="M178.617 15.4656C178.617 21.5218 173.723 26.4312 167.684 26.4312C161.646 26.4312 156.751 21.5218 156.751 15.4656C156.751 9.40948 161.646 4.5 167.684 4.5C173.723 4.5 178.617 9.40948 178.617 15.4656Z" fill="#F9F9F9"/>
<path d="M125.776 140.025C121.314 140.025 117.251 138.312 114.205 135.507M125.776 140.025L125.439 195.261M125.776 140.025C130.212 140.025 134.255 138.331 137.295 135.554M125.776 105.698V68.0332M125.776 105.698C121.878 105.698 118.285 107.005 115.408 109.206M125.776 105.698C129.416 105.698 132.791 106.838 135.565 108.782M125.776 68.0332C131.814 68.0332 136.709 63.1237 136.709 57.0676C136.709 51.0114 131.814 46.1019 125.776 46.1019C119.738 46.1019 114.843 51.0114 114.843 57.0676C114.843 63.1237 119.738 68.0332 125.776 68.0332ZM177.713 106.709C179.275 112.559 185.27 116.031 191.103 114.463C196.935 112.896 200.396 106.883 198.834 101.033C197.271 95.1834 191.276 91.7118 185.443 93.2793C179.611 94.8467 176.15 100.86 177.713 106.709ZM177.713 106.709L141.636 116.405M141.636 116.405C142.444 118.398 142.888 120.578 142.888 122.861C142.888 124.453 142.672 125.994 142.268 127.457M141.636 116.405C140.383 113.312 138.257 110.668 135.565 108.782M47.053 54.8241C45.4902 60.6739 39.4953 64.1455 33.6629 62.578C27.8305 61.0106 24.3693 54.9977 25.9321 49.1479C27.4949 43.2981 33.4899 39.8266 39.3222 41.3941C45.1546 42.9615 48.6158 48.9744 47.053 54.8241ZM47.053 54.8241L83.3259 64.5724M83.3259 64.5724L83.326 26.9081M83.3259 64.5724L115.408 109.206M83.326 26.9081C77.2879 26.9081 72.393 21.9986 72.393 15.9425C72.393 9.88632 77.2879 4.97684 83.326 4.97684C89.3641 4.97684 94.259 9.88632 94.259 15.9425C94.259 21.9986 89.3641 26.9081 83.326 26.9081ZM115.408 109.206C112.994 111.052 111.084 113.527 109.922 116.388M73.9084 106.709C72.3456 112.559 66.3506 116.031 60.5183 114.463C54.6859 112.896 51.2247 106.883 52.7875 101.033C54.3503 95.1833 60.3452 91.7118 66.1776 93.2792C72.01 94.8467 75.4712 100.86 73.9084 106.709ZM73.9084 106.709L109.922 116.388M109.922 116.388C109.11 118.386 108.663 120.571 108.663 122.861C108.663 124.508 108.894 126.1 109.326 127.608M22.4613 139.526C24.0944 133.696 20.7059 127.642 14.8928 126.004C9.07969 124.366 3.04336 127.764 1.41026 133.595C-0.222835 139.425 3.16572 145.479 8.9788 147.117C14.7919 148.755 20.8282 145.357 22.4613 139.526ZM22.4613 139.526L58.6142 149.713M58.6142 149.713L39.4468 182.102M58.6142 149.713L109.326 127.608M39.4468 182.102C34.2544 179.011 27.5468 180.726 24.4648 185.934C21.3828 191.142 23.0936 197.87 28.2859 200.961C33.4782 204.052 40.1859 202.336 43.2679 197.128C46.3499 191.921 44.6391 185.193 39.4468 182.102ZM109.326 127.608C110.206 130.682 111.919 133.402 114.205 135.507M95.3148 168.352C90.0856 165.324 83.3991 167.121 80.38 172.366C77.361 177.611 79.1526 184.317 84.3818 187.345C89.611 190.373 96.2975 188.576 99.3165 183.332C102.336 178.087 100.544 171.38 95.3148 168.352ZM95.3148 168.352L114.205 135.507M149.001 224.589C153.702 220.789 160.585 221.532 164.374 226.247C168.162 230.963 167.422 237.866 162.72 241.666C158.018 245.466 151.136 244.724 147.347 240.008C143.559 235.292 144.299 228.389 149.001 224.589ZM149.001 224.589L125.439 195.261M125.439 195.261L103.293 225.678M103.293 225.678C108.169 229.25 109.235 236.11 105.674 241.001C102.113 245.891 95.2735 246.961 90.3972 243.389C85.5209 239.818 84.4546 232.958 88.0155 228.067C91.5765 223.176 98.4163 222.106 103.293 225.678ZM156.159 168.352C161.388 165.324 168.075 167.121 171.094 172.366C174.113 177.611 172.321 184.317 167.092 187.345C161.863 190.373 155.177 188.576 152.158 183.332C149.138 178.087 150.93 171.38 156.159 168.352ZM156.159 168.352L137.295 135.554M137.295 135.554C139.644 133.408 141.395 130.616 142.268 127.457M229.539 139.526C227.906 133.696 231.294 127.642 237.107 126.004C242.92 124.366 248.957 127.764 250.59 133.595C252.223 139.425 248.834 145.479 243.021 147.117C237.208 148.755 231.172 145.357 229.539 139.526ZM229.539 139.526L193.386 149.713M193.386 149.713L212.553 182.102M193.386 149.713L142.268 127.457M212.553 182.102C217.746 179.011 224.453 180.726 227.535 185.934C230.617 191.142 228.906 197.87 223.714 200.961C218.522 204.052 211.814 202.336 208.732 197.128C205.65 191.921 207.361 185.193 212.553 182.102ZM203.957 54.3473C205.52 60.1971 211.515 63.6686 217.348 62.1012C223.18 60.5337 226.641 54.5209 225.078 48.6711C223.516 42.8213 217.521 39.3498 211.688 40.9172C205.856 42.4847 202.395 48.4975 203.957 54.3473ZM203.957 54.3473L167.685 64.0956M167.685 64.0956L167.684 26.4312M167.685 64.0956L135.565 108.782M167.684 26.4312C173.723 26.4312 178.617 21.5218 178.617 15.4656C178.617 9.40948 173.723 4.5 167.684 4.5C161.646 4.5 156.751 9.40948 156.751 15.4656C156.751 21.5218 161.646 26.4312 167.684 26.4312Z" stroke="black" stroke-width="2" stroke-linejoin="round"/>
</svg>
