<svg width="252" height="257" viewBox="0 0 252 257" fill="none" xmlns="http://www.w3.org/2000/svg">
<path d="M65.5255 41.7305C57.8206 41.7305 51.5746 35.5305 51.5746 27.8825C51.5746 20.2345 57.8206 14.0345 65.5255 14.0345C72.5212 14.0345 78.3143 19.1461 79.3214 25.8116C79.4235 26.4873 79.4764 27.1786 79.4764 27.8825C79.4764 30.3692 78.8161 32.7028 77.6601 34.72C76.5708 36.6205 75.0414 38.2402 73.2096 39.4424C71.0061 40.8885 68.3648 41.7305 65.5255 41.7305Z" fill="#F9F9F9"/>
<path d="M15.4509 104.828C7.74604 104.828 1.5 98.6276 1.5 90.9796C1.5 83.3316 7.74604 77.1316 15.4509 77.1316C17.8864 77.1316 20.1761 77.7511 22.1689 78.84C26.4804 81.1958 29.4019 85.7491 29.4019 90.9796C29.4019 93.4663 28.7416 95.7999 27.5855 97.817C26.4962 99.7176 24.9669 101.337 23.135 102.54C20.9315 103.986 18.2903 104.828 15.4509 104.828Z" fill="#F9F9F9"/>
<path d="M20.0529 201.704C12.348 201.704 6.10199 195.504 6.10199 187.856C6.10199 180.208 12.348 174.008 20.0529 174.008C27.7578 174.008 34.0039 180.208 34.0039 187.856C34.0039 190.342 33.3435 192.676 32.1875 194.693C31.0982 196.594 29.5689 198.214 27.737 199.416C25.5335 200.862 22.8923 201.704 20.0529 201.704Z" fill="#F9F9F9"/>
<path d="M95.3449 255.5C87.6401 255.5 81.394 249.3 81.394 241.652C81.394 238.479 82.4693 235.555 84.2779 233.219C86.8283 229.926 90.8369 227.804 95.3449 227.804C103.05 227.804 109.296 234.004 109.296 241.652C109.296 244.139 108.636 246.472 107.48 248.489C106.39 250.39 104.861 252.01 103.029 253.212C100.826 254.658 98.1843 255.5 95.3449 255.5Z" fill="#F9F9F9"/>
<path d="M185.709 242.767C178.004 242.767 171.758 236.567 171.758 228.919C171.758 221.271 178.004 215.071 185.709 215.071C193.414 215.071 199.66 221.271 199.66 228.919C199.66 231.406 199 233.739 197.844 235.757C196.755 237.657 195.225 239.277 193.393 240.479C191.19 241.925 188.549 242.767 185.709 242.767Z" fill="#F9F9F9"/>
<path d="M237.049 171.324C233.375 171.324 230.033 169.914 227.542 167.61C224.808 165.082 223.098 161.477 223.098 157.476C223.098 149.828 229.344 143.628 237.049 143.628C244.754 143.628 251 149.828 251 157.476C251 159.963 250.34 162.296 249.184 164.313C248.094 166.214 246.565 167.834 244.733 169.036C242.53 170.482 239.888 171.324 237.049 171.324Z" fill="#F9F9F9"/>
<path d="M222.336 81.0123C214.631 81.0123 208.385 74.8124 208.385 67.1643C208.385 59.5163 214.631 53.3164 222.336 53.3164C230.041 53.3164 236.287 59.5163 236.287 67.1643C236.287 69.651 235.627 71.9846 234.471 74.0018C233.381 75.9024 231.852 77.5221 230.02 78.7243C228.523 79.7068 226.824 80.4105 224.998 80.7606C224.136 80.9258 223.246 81.0123 222.336 81.0123Z" fill="#F9F9F9"/>
<path d="M152.478 28.6959C144.773 28.6959 138.527 22.4959 138.527 14.8479C138.527 7.19989 144.773 0.999972 152.478 0.999972C160.183 0.999972 166.429 7.19989 166.429 14.8479C166.429 17.3346 165.769 19.6682 164.613 21.6854C164.394 22.0668 164.158 22.437 163.905 22.7947C162.897 24.2193 161.626 25.4469 160.162 26.4078C157.959 27.854 155.317 28.6959 152.478 28.6959Z" fill="#F9F9F9"/>
<path d="M122.756 78.84C109.917 65.9111 92.1254 57.9055 72.4631 57.9055C52.8008 57.9055 35.0087 65.9111 22.1701 78.84M83.953 96.3454C65.8099 98.0446 48.3229 106.696 35.8318 121.877C23.3408 137.059 18.222 155.882 20.0529 174.008M20.0529 174.008C12.348 174.008 6.10199 180.208 6.10199 187.856C6.10199 195.504 12.348 201.704 20.0529 201.704C22.8923 201.704 25.5335 200.862 27.737 199.416C29.5689 198.214 31.0982 196.594 32.1875 194.693C33.3435 192.676 34.0039 190.342 34.0039 187.856C34.0039 180.208 27.7578 174.008 20.0529 174.008ZM155.726 91.2169C154.385 73.0481 146.078 55.3978 131.143 42.6125C116.207 29.8272 97.4844 24.3391 79.3214 25.8116M79.3214 25.8116C78.3143 19.1461 72.5212 14.0345 65.5255 14.0345C57.8206 14.0345 51.5746 20.2345 51.5746 27.8825C51.5746 35.5305 57.8206 41.7305 65.5255 41.7305C68.3648 41.7305 71.0061 40.8885 73.2096 39.4424C75.0414 38.2402 76.5708 36.6205 77.6601 34.72C78.8161 32.7028 79.4764 30.3692 79.4764 27.8825C79.4764 27.1785 79.4235 26.4873 79.3214 25.8116ZM170.907 123.113C182.914 109.409 189.663 91.1065 188.294 71.4965C186.926 51.8865 177.699 34.6991 163.905 22.7947M163.905 22.7947C164.158 22.437 164.394 22.0668 164.613 21.6854C165.769 19.6682 166.429 17.3346 166.429 14.8479C166.429 7.19989 160.183 0.999972 152.478 0.999972C144.773 0.999972 138.527 7.19989 138.527 14.8479C138.527 22.4959 144.773 28.6959 152.478 28.6959C155.317 28.6959 157.959 27.854 160.162 26.4078C161.626 25.4469 162.897 24.2193 163.905 22.7947ZM161.619 158.849C179.75 157.028 197.179 148.26 209.568 132.996C221.957 117.731 226.95 98.8741 224.998 80.7606M224.998 80.7606C226.824 80.4105 228.523 79.7068 230.02 78.7243C231.852 77.5221 233.381 75.9024 234.471 74.0018C235.627 71.9846 236.287 69.651 236.287 67.1643C236.287 59.5163 230.041 53.3164 222.336 53.3164C214.631 53.3164 208.385 59.5163 208.385 67.1643C208.385 74.8124 214.631 81.0123 222.336 81.0123C223.246 81.0123 224.136 80.9258 224.998 80.7606ZM127.328 176.252C141.23 188.03 159.645 194.478 179.234 192.788C198.824 191.099 215.862 181.594 227.542 167.61M227.542 167.61C230.033 169.914 233.375 171.324 237.049 171.324C239.888 171.324 242.53 170.482 244.733 169.036C246.565 167.834 248.094 166.214 249.184 164.313C250.34 162.296 251 159.963 251 157.476C251 149.828 244.754 143.628 237.049 143.628C229.344 143.628 223.098 149.828 223.098 157.476C223.098 161.477 224.808 165.082 227.542 167.61ZM91.6292 168.132C94.0397 186.19 103.373 203.32 119.036 215.202C134.7 227.085 153.714 231.46 171.758 228.919M171.758 228.919C171.758 236.567 178.004 242.767 185.709 242.767C188.549 242.767 191.19 241.925 193.393 240.479C195.225 239.277 196.755 237.657 197.844 235.757C199 233.739 199.66 231.406 199.66 228.919C199.66 221.271 193.414 215.071 185.709 215.071C178.004 215.071 171.758 221.271 171.758 228.919ZM72.6887 133.327C61.3222 147.567 55.418 166.158 57.6834 185.685C59.9488 205.212 69.9529 221.959 84.2779 233.22M84.2779 233.22C82.4693 235.555 81.394 238.479 81.394 241.652C81.394 249.3 87.6401 255.5 95.3449 255.5C98.1843 255.5 100.826 254.658 103.029 253.212C104.861 252.01 106.39 250.39 107.48 248.489C108.636 246.472 109.296 244.139 109.296 241.652C109.296 234.004 103.05 227.804 95.3449 227.804C90.8369 227.804 86.8283 229.926 84.2779 233.22ZM27.5855 97.817C28.7416 95.7999 29.4019 93.4663 29.4019 90.9796C29.4019 85.7491 26.4804 81.1958 22.1689 78.84C20.1761 77.7511 17.8864 77.1316 15.4509 77.1316C7.74604 77.1316 1.5 83.3316 1.5 90.9796C1.5 98.6276 7.74604 104.828 15.4509 104.828C18.2903 104.828 20.9315 103.986 23.135 102.54C24.9669 101.337 26.4962 99.7176 27.5855 97.817Z" stroke="black" stroke-width="2" stroke-linecap="round" stroke-linejoin="round"/>
</svg>
