<svg width="253" height="250" viewBox="0 0 253 250" fill="none" xmlns="http://www.w3.org/2000/svg">
<path d="M252 30.8545C252 37.9539 246.198 43.709 239.04 43.709C235.981 43.709 233.169 42.6573 230.952 40.8984C227.983 38.5429 226.081 34.919 226.081 30.8545C226.081 23.7552 231.883 18 239.04 18C246.198 18 252 23.7552 252 30.8545Z" fill="#F9F9F9"/>
<path d="M214.193 113.484C214.193 120.583 208.391 126.339 201.233 126.339C196.413 126.339 192.207 123.728 189.975 119.855C188.893 117.977 188.274 115.802 188.274 113.484C188.274 106.385 194.076 100.63 201.233 100.63C208.391 100.63 214.193 106.385 214.193 113.484Z" fill="#F9F9F9"/>
<path d="M230.952 219.145C230.952 226.245 225.15 232 217.992 232C210.835 232 205.033 226.245 205.033 219.145C205.033 216.11 206.094 213.32 207.868 211.121C210.243 208.177 213.895 206.291 217.992 206.291C225.15 206.291 230.952 212.046 230.952 219.145Z" fill="#F9F9F9"/>
<path d="M166.856 197.096C166.856 204.195 161.054 209.95 153.897 209.95C146.739 209.95 140.937 204.195 140.937 197.096C140.937 191.631 144.375 186.963 149.222 185.103C150.672 184.546 152.249 184.241 153.897 184.241C161.054 184.241 166.856 189.996 166.856 197.096Z" fill="#F9F9F9"/>
<path d="M27.419 151.247C27.419 158.347 21.6169 164.102 14.4595 164.102C7.30217 164.102 1.5 158.347 1.5 151.247C1.5 144.148 7.30217 138.393 14.4595 138.393C18.7717 138.393 22.592 140.482 24.9478 143.695C26.5022 145.815 27.419 148.425 27.419 151.247Z" fill="#F9F9F9"/>
<path d="M54.505 119.855C47.3477 119.855 41.5455 114.1 41.5455 107C41.5455 99.9008 47.3477 94.1457 54.505 94.1457C61.6623 94.1457 67.4645 99.9008 67.4645 107C67.4645 109.308 66.8511 111.475 65.7772 113.347C63.5482 117.234 59.3352 119.855 54.505 119.855Z" fill="#F9F9F9"/>
<path d="M122.499 71.6372C115.342 71.6372 109.54 65.8821 109.54 58.7827C109.54 51.6833 115.342 45.9282 122.499 45.9282C129.657 45.9282 135.459 51.6833 135.459 58.7827C135.459 61.091 134.846 63.2572 133.772 65.1296C131.543 69.0161 127.33 71.6372 122.499 71.6372Z" fill="#F9F9F9"/>
<path d="M130.171 145.553L189.975 119.855M130.171 145.553L65.7772 113.347M130.171 145.553L230.952 40.8984M130.171 145.553L122.499 71.6372M189.975 119.855C192.207 123.728 196.413 126.339 201.233 126.339C208.391 126.339 214.193 120.583 214.193 113.484C214.193 106.385 208.391 100.63 201.233 100.63C194.076 100.63 188.274 106.385 188.274 113.484C188.274 115.802 188.893 117.977 189.975 119.855ZM65.7772 113.347C66.8511 111.475 67.4645 109.308 67.4645 107C67.4645 99.9009 61.6623 94.1457 54.505 94.1457C47.3477 94.1457 41.5455 99.9009 41.5455 107C41.5455 114.1 47.3477 119.855 54.505 119.855C59.3352 119.855 63.5482 117.234 65.7772 113.347ZM130.171 145.395L207.868 211.121M130.171 145.395L27.419 151.247M130.171 145.395L149.222 185.103M207.868 211.121C206.094 213.32 205.033 216.11 205.033 219.145C205.033 226.245 210.835 232 217.992 232C225.15 232 230.952 226.245 230.952 219.145C230.952 212.046 225.15 206.291 217.992 206.291C213.895 206.291 210.243 208.177 207.868 211.121ZM27.419 151.247C27.419 158.347 21.6169 164.102 14.4595 164.102C7.30217 164.102 1.5 158.347 1.5 151.247C1.5 144.148 7.30217 138.393 14.4595 138.393C18.7717 138.393 22.592 140.482 24.9478 143.695C26.5022 145.815 27.419 148.425 27.419 151.247ZM149.222 185.103C144.375 186.963 140.937 191.631 140.937 197.096C140.937 204.195 146.739 209.95 153.897 209.95C161.054 209.95 166.856 204.195 166.856 197.096C166.856 189.996 161.054 184.241 153.897 184.241C152.249 184.241 150.672 184.546 149.222 185.103ZM230.952 40.8984C233.169 42.6573 235.981 43.709 239.04 43.709C246.198 43.709 252 37.9539 252 30.8545C252 23.7552 246.198 18 239.04 18C231.883 18 226.081 23.7552 226.081 30.8545C226.081 34.919 227.983 38.5429 230.952 40.8984ZM122.499 71.6372C115.342 71.6372 109.54 65.8821 109.54 58.7827C109.54 51.6833 115.342 45.9282 122.499 45.9282C129.657 45.9282 135.459 51.6833 135.459 58.7827C135.459 61.091 134.846 63.2572 133.772 65.1296C131.543 69.0161 127.33 71.6372 122.499 71.6372Z" stroke="black" stroke-width="2" stroke-linejoin="round"/>
</svg>
