<svg width="252" height="250" viewBox="0 0 252 250" fill="none" xmlns="http://www.w3.org/2000/svg">
<path d="M215.433 34.4746C215.433 41.3052 209.862 46.8425 202.989 46.8425C200.052 46.8425 197.352 45.8306 195.223 44.1382C192.372 41.8719 190.546 38.3852 190.546 34.4746C190.546 27.644 196.117 22.1066 202.989 22.1066C209.862 22.1066 215.433 27.644 215.433 34.4746Z" fill="#F9F9F9"/>
<path d="M179.132 113.976C179.132 120.807 173.561 126.344 166.689 126.344C162.061 126.344 158.023 123.833 155.879 120.106C154.84 118.299 154.246 116.207 154.246 113.976C154.246 107.146 159.817 101.608 166.689 101.608C173.561 101.608 179.132 107.146 179.132 113.976Z" fill="#F9F9F9"/>
<path d="M251 222.132C251 228.963 245.429 234.5 238.557 234.5C231.685 234.5 226.114 228.963 226.114 222.132C226.114 219.211 227.132 216.527 228.836 214.411C231.116 211.578 234.623 209.764 238.557 209.764C245.429 209.764 251 215.301 251 222.132Z" fill="#F9F9F9"/>
<path d="M133.681 194.423C133.681 201.253 128.111 206.791 121.238 206.791C114.366 206.791 108.795 201.253 108.795 194.423C108.795 189.165 112.096 184.674 116.75 182.884C118.142 182.349 119.656 182.055 121.238 182.055C128.111 182.055 133.681 187.592 133.681 194.423Z" fill="#F9F9F9"/>
<path d="M26.6388 138.712C26.6388 145.543 21.0679 151.08 14.1957 151.08C7.32357 151.08 1.7526 145.543 1.7526 138.712C1.7526 131.881 7.32357 126.344 14.1957 126.344C18.3361 126.344 22.0041 128.354 24.2661 131.446C25.7585 133.486 26.6388 135.997 26.6388 138.712Z" fill="#F9F9F9"/>
<path d="M13.4431 40.7358C6.57092 40.7358 0.999947 35.1985 0.999947 28.3679C0.999947 21.5373 6.57092 16 13.4431 16C20.3152 16 25.8862 21.5373 25.8862 28.3679C25.8862 30.5888 25.2973 32.673 24.2661 34.4746C23.2946 36.172 21.9305 37.6186 20.2967 38.6923C18.3313 39.9838 15.9755 40.7358 13.4431 40.7358Z" fill="#F9F9F9"/>
<path d="M91.0921 73.7135C84.22 73.7135 78.649 68.1762 78.649 61.3456C78.649 54.515 84.22 48.9776 91.0921 48.9776C97.9643 48.9776 103.535 54.515 103.535 61.3456C103.535 63.5665 102.946 65.6507 101.915 67.4523C99.775 71.1917 95.7299 73.7135 91.0921 73.7135Z" fill="#F9F9F9"/>
<path d="M98.4578 144.831L155.879 120.106M98.4578 144.831L195.223 44.1382M98.4578 144.831L91.0921 73.7135M155.879 120.106C158.023 123.833 162.061 126.344 166.689 126.344C173.561 126.344 179.132 120.807 179.132 113.976C179.132 107.146 173.561 101.608 166.689 101.608C159.817 101.608 154.246 107.146 154.246 113.976C154.246 116.207 154.84 118.299 155.879 120.106ZM98.4578 144.679L228.836 214.411M98.4578 144.679L26.6388 138.712M98.4578 144.679L116.75 182.884M98.4578 144.679L20.2967 38.6923M228.836 214.411C227.132 216.527 226.114 219.211 226.114 222.132C226.114 228.963 231.685 234.5 238.557 234.5C245.429 234.5 251 228.963 251 222.132C251 215.301 245.429 209.764 238.557 209.764C234.623 209.764 231.116 211.578 228.836 214.411ZM26.6388 138.712C26.6388 145.543 21.0679 151.08 14.1957 151.08C7.32357 151.08 1.7526 145.543 1.7526 138.712C1.7526 131.881 7.32357 126.344 14.1957 126.344C18.3361 126.344 22.0041 128.354 24.2661 131.446C25.7585 133.486 26.6388 135.997 26.6388 138.712ZM116.75 182.884C112.096 184.674 108.795 189.165 108.795 194.423C108.795 201.253 114.366 206.791 121.238 206.791C128.111 206.791 133.681 201.253 133.681 194.423C133.681 187.592 128.111 182.055 121.238 182.055C119.656 182.055 118.142 182.349 116.75 182.884ZM195.223 44.1382C197.352 45.8305 200.052 46.8425 202.989 46.8425C209.862 46.8425 215.433 41.3052 215.433 34.4746C215.433 27.6439 209.862 22.1066 202.989 22.1066C196.117 22.1066 190.546 27.6439 190.546 34.4746C190.546 38.3852 192.372 41.8718 195.223 44.1382ZM91.0921 73.7135C84.22 73.7135 78.649 68.1762 78.649 61.3456C78.649 54.515 84.22 48.9776 91.0921 48.9776C97.9643 48.9776 103.535 54.515 103.535 61.3456C103.535 63.5665 102.946 65.6507 101.915 67.4523C99.775 71.1916 95.7299 73.7135 91.0921 73.7135ZM20.2967 38.6923C21.9305 37.6186 23.2946 36.172 24.2661 34.4746C25.2973 32.673 25.8862 30.5888 25.8862 28.3679C25.8862 21.5373 20.3152 16 13.4431 16C6.57092 16 0.999947 21.5373 0.999947 28.3679C0.999947 35.1985 6.57092 40.7358 13.4431 40.7358C15.9755 40.7358 18.3313 39.9838 20.2967 38.6923Z" stroke="black" stroke-width="2" stroke-linejoin="round"/>
</svg>
