<svg width="250" height="251" viewBox="0 0 250 251" fill="none" xmlns="http://www.w3.org/2000/svg">
<path d="M154.737 30.6178C154.737 46.9752 141.449 60.2355 125.058 60.2355C108.666 60.2355 95.3784 46.9752 95.3784 30.6178C95.3784 14.2603 108.666 0.999985 125.058 0.999985C141.449 0.999985 154.737 14.2603 154.737 30.6178Z" fill="#F9F9F9"/>
<path d="M61.1794 142.4C44.7879 142.4 31.5 129.14 31.5 112.782C31.5 96.4249 44.7879 83.1646 61.1794 83.1646C77.5709 83.1646 90.8589 96.4249 90.8589 112.782C90.8589 120.092 88.2051 126.784 83.8065 131.95C78.3624 138.343 70.2456 142.4 61.1794 142.4Z" fill="#F9F9F9"/>
<path d="M218.733 112.817C218.733 129.174 205.445 142.434 189.053 142.434C179.955 142.434 171.813 138.349 166.368 131.916C162.005 126.759 159.374 120.094 159.374 112.817C159.374 96.4591 172.662 83.1988 189.053 83.1988C205.445 83.1988 218.733 96.4591 218.733 112.817Z" fill="#F9F9F9"/>
<path d="M125.058 155.806V251M125.058 155.806L83.8065 131.95M125.058 155.806L166.368 131.916M125.058 60.2355V155.43M125.058 60.2355C141.449 60.2355 154.737 46.9752 154.737 30.6178C154.737 14.2603 141.449 0.999989 125.058 0.999989C108.666 0.999989 95.3784 14.2603 95.3784 30.6178C95.3784 46.9752 108.666 60.2355 125.058 60.2355ZM83.8065 131.95C88.2051 126.784 90.8589 120.092 90.8589 112.782C90.8589 96.4249 77.5709 83.1646 61.1794 83.1646C44.7879 83.1646 31.5 96.4249 31.5 112.782C31.5 129.14 44.7879 142.4 61.1794 142.4C70.2456 142.4 78.3624 138.344 83.8065 131.95ZM166.368 131.916C171.813 138.349 179.955 142.434 189.053 142.434C205.445 142.434 218.733 129.174 218.733 112.817C218.733 96.4591 205.445 83.1988 189.053 83.1988C172.662 83.1988 159.374 96.4591 159.374 112.817C159.374 120.094 162.005 126.759 166.368 131.916Z" stroke="black" stroke-width="2" stroke-linejoin="round"/>
</svg>
