<svg width="252" height="252" viewBox="0 0 252 252" fill="none" xmlns="http://www.w3.org/2000/svg">
<path d="M251 125.987C129.208 125.987 127.975 126.818 203.013 157.895C127.975 126.818 128.252 128.252 214.387 214.387C128.252 128.252 126.818 127.975 157.895 203.013C126.818 127.975 125.987 129.208 125.987 251C125.987 129.208 125.182 127.975 94.1052 203.013C125.182 127.975 123.723 128.252 37.613 214.387C123.723 128.252 124.025 126.818 48.9617 157.895C124.025 126.818 122.792 125.987 1 125.987C122.792 125.987 124.025 125.182 48.9617 94.1052C124.025 125.182 123.723 123.723 37.613 37.613C123.723 123.723 125.182 124.025 94.1052 48.9618C125.182 124.025 125.987 122.792 125.987 1C125.987 122.792 126.818 124.025 157.895 48.9618C126.818 124.025 128.252 123.723 214.387 37.613C128.252 123.723 127.975 125.182 203.013 94.1052C127.975 125.182 129.183 125.987 251 125.987Z" fill="#F9F9F9" stroke="black" stroke-width="2" stroke-linejoin="round"/>
</svg>
