<svg width="253" height="253" viewBox="0 0 253 253" fill="none" xmlns="http://www.w3.org/2000/svg">
<path d="M203.201 126.25C203.201 168.473 168.973 202.701 126.75 202.701C84.5271 202.701 50.2987 168.473 50.2987 126.25C50.2987 84.0271 84.5271 49.7987 126.75 49.7987C168.973 49.7987 203.201 84.0271 203.201 126.25Z" fill="#F9F9F9"/>
<path d="M192.959 88.0243C214.07 124.59 201.542 171.347 164.976 192.459C128.41 213.57 81.6527 201.042 60.5412 164.476C39.4298 127.909 51.9583 81.1526 88.5243 60.0412C125.09 38.9297 171.847 51.4582 192.959 88.0243Z" fill="#F9F9F9"/>
<path d="M164.976 60.0413C201.542 81.1527 214.07 127.91 192.959 164.476C171.847 201.042 125.09 213.57 88.5243 192.459C51.9582 171.347 39.4298 124.59 60.5412 88.0244C81.6526 51.4583 128.41 38.9298 164.976 60.0413Z" fill="#F9F9F9"/>
<path d="M203.201 126.25C203.201 168.473 168.973 202.701 126.75 202.701M203.201 126.25C203.201 84.0271 168.973 49.7987 126.75 49.7987M203.201 126.25C203.201 139.905 214.125 150.975 227.601 150.975C241.076 150.975 252 139.905 252 126.25M126.75 202.701C84.5271 202.701 50.2987 168.473 50.2987 126.25M126.75 202.701C113.095 202.701 102.025 213.625 102.025 227.101C102.025 240.576 113.095 251.5 126.75 251.5M50.2987 126.25C50.2987 84.0271 84.5271 49.7987 126.75 49.7987M50.2987 126.25C50.2987 112.595 39.3747 101.525 25.8994 101.525C12.424 101.525 1.5 112.595 1.5 126.25M126.75 49.7987C140.405 49.7987 151.475 38.8747 151.475 25.3994C151.475 11.924 140.405 1 126.75 1M192.959 88.0243C214.07 124.59 201.542 171.347 164.976 192.459M192.959 88.0243C171.847 51.4582 125.09 38.9297 88.5243 60.0412M192.959 88.0243C199.786 99.8499 214.782 103.974 226.452 97.2368C238.122 90.4991 242.047 75.4506 235.22 63.6249M164.976 192.459C128.41 213.57 81.6527 201.042 60.5412 164.476M164.976 192.459C153.15 199.286 149.025 214.281 155.763 225.951C162.501 237.622 177.549 241.547 189.375 234.72M60.5412 164.476C39.4298 127.909 51.9583 81.1526 88.5243 60.0412M60.5412 164.476C53.7137 152.65 38.7185 148.525 27.0484 155.263C15.3784 162.001 11.4528 177.049 18.2803 188.875M88.5243 60.0412C100.35 53.2136 104.475 38.2184 97.7369 26.5484C90.9992 14.8784 75.9506 10.9527 64.125 17.7803M164.976 60.0413C201.542 81.1527 214.07 127.91 192.959 164.476M164.976 60.0413C128.41 38.9298 81.6526 51.4583 60.5412 88.0244M164.976 60.0413C176.801 66.8688 191.85 62.9432 198.587 51.2731C205.325 39.6031 201.201 24.6079 189.375 17.7803M192.959 164.476C171.847 201.042 125.09 213.57 88.5243 192.459M192.959 164.476C186.131 176.301 190.057 191.35 201.727 198.088C213.397 204.825 228.392 200.701 235.22 188.875M88.5243 192.459C51.9582 171.347 39.4298 124.59 60.5412 88.0244M88.5243 192.459C76.6987 185.631 61.6501 189.557 54.9125 201.227C48.1748 212.897 52.2993 227.892 64.125 234.72M60.5412 88.0244C67.3687 76.1988 63.4431 61.1502 51.7731 54.4125C40.1031 47.6748 25.1079 51.7994 18.2803 63.6251" stroke="black" stroke-width="2" stroke-linejoin="round"/>
</svg>
