<svg width="252" height="252" viewBox="0 0 252 252" fill="none" xmlns="http://www.w3.org/2000/svg">
<path d="M126 126C126 126 13.1965 133.857 8.85714 133.857C4.51776 133.857 1 130.339 1 126C1 121.661 4.51776 118.143 8.85714 118.143M126 126C126 126 238.803 118.143 243.143 118.143C247.482 118.143 251 121.661 251 126C251 130.339 247.482 133.857 243.143 133.857M126 126C126 126 133.857 238.803 133.857 243.143C133.857 247.482 130.339 251 126 251C121.661 251 118.143 247.482 118.143 243.143M126 126C126 126 118.143 13.1965 118.143 8.85714C118.143 4.51776 121.661 1 126 1C130.339 1 133.857 4.51776 133.857 8.85714M126 126C126 126 51.7918 211.32 48.7234 214.388C45.655 217.457 40.6801 217.457 37.6117 214.388C34.5433 211.32 34.5433 206.345 37.6117 203.277M126 126C126 126 200.208 40.68 203.277 37.6116C206.345 34.5432 211.32 34.5432 214.388 37.6116C217.457 40.68 217.457 45.6549 214.388 48.7233M126 126C126 126 211.32 200.208 214.388 203.277C217.457 206.345 217.457 211.32 214.388 214.388C211.32 217.457 206.345 217.457 203.277 214.388M126 126C126 126 40.68 51.7918 37.6116 48.7234C34.5432 45.6549 34.5432 40.6801 37.6116 37.6117C40.68 34.5433 45.6549 34.5433 48.7233 37.6117" stroke="black" stroke-width="2" stroke-linejoin="round"/>
</svg>
