<svg width="250" height="252" viewBox="0 0 250 252" fill="none" xmlns="http://www.w3.org/2000/svg">
<path d="M149.315 25.3902C149.315 38.8606 138.373 49.7805 124.874 49.7805C111.376 49.7805 100.433 38.8606 100.433 25.3902C100.433 11.9199 111.376 1 124.874 1C138.373 1 149.315 11.9199 149.315 25.3902Z" fill="#F9F9F9"/>
<path d="M236.818 75.8816C236.818 89.352 225.875 100.272 212.377 100.272C203.286 100.272 195.354 95.3188 191.143 87.9693C189.102 84.4062 187.936 80.2799 187.936 75.8816C187.936 62.4112 198.878 51.4913 212.377 51.4913C225.875 51.4913 236.818 62.4112 236.818 75.8816Z" fill="#F9F9F9"/>
<path d="M234.679 179.257C234.679 192.727 223.736 203.647 210.238 203.647C196.739 203.647 185.797 192.727 185.797 179.257C185.797 173.497 187.798 168.204 191.143 164.031C195.622 158.445 202.511 154.867 210.238 154.867C223.736 154.867 234.679 165.787 234.679 179.257Z" fill="#F9F9F9"/>
<path d="M149.315 226.61C149.315 240.08 138.373 251 124.874 251C111.376 251 100.433 240.08 100.433 226.61C100.433 213.139 111.376 202.22 124.874 202.22C138.373 202.22 149.315 213.139 149.315 226.61Z" fill="#F9F9F9"/>
<path d="M63.3604 178.305C63.3604 191.776 52.4178 202.696 38.9194 202.696C25.421 202.696 14.4784 191.776 14.4784 178.305C14.4784 164.835 25.421 153.915 38.9194 153.915C47.052 153.915 54.2568 157.879 58.6998 163.976C61.6313 167.999 63.3604 172.951 63.3604 178.305Z" fill="#F9F9F9"/>
<path d="M37.441 100.371C23.9426 100.371 13 89.4516 13 75.9812C13 62.5109 23.9426 51.591 37.441 51.591C50.9394 51.591 61.8821 62.5109 61.8821 75.9812C61.8821 80.361 60.7253 84.4711 58.6999 88.0239C54.4961 95.3982 46.5506 100.371 37.441 100.371Z" fill="#F9F9F9"/>
<path d="M124.874 126.15V202.22M124.874 126.15L191.143 87.9693M124.874 126.15L58.6999 88.0239M124.874 202.22C111.376 202.22 100.433 213.139 100.433 226.61C100.433 240.08 111.376 251 124.874 251C138.373 251 149.315 240.08 149.315 226.61C149.315 213.139 138.373 202.22 124.874 202.22ZM191.143 87.9693C195.354 95.3188 203.286 100.272 212.377 100.272C225.875 100.272 236.818 89.352 236.818 75.8816C236.818 62.4112 225.875 51.4913 212.377 51.4913C198.878 51.4913 187.936 62.4112 187.936 75.8816C187.936 80.2799 189.102 84.4062 191.143 87.9693ZM58.6999 88.0239C60.7252 84.4711 61.8821 80.361 61.8821 75.9812C61.8821 62.5109 50.9394 51.591 37.441 51.591C23.9426 51.591 13 62.5109 13 75.9812C13 89.4516 23.9426 100.371 37.441 100.371C46.5506 100.371 54.4961 95.3982 58.6999 88.0239ZM124.874 49.7805V125.85M124.874 49.7805C138.373 49.7805 149.315 38.8606 149.315 25.3902C149.315 11.9199 138.373 0.999994 124.874 0.999994C111.376 0.999994 100.433 11.9199 100.433 25.3902C100.433 38.8606 111.376 49.7805 124.874 49.7805ZM124.874 125.85L191.143 164.031M124.874 125.85L58.6998 163.976M191.143 164.031C187.798 168.204 185.797 173.497 185.797 179.257C185.797 192.727 196.739 203.647 210.238 203.647C223.736 203.647 234.679 192.727 234.679 179.257C234.679 165.787 223.736 154.867 210.238 154.867C202.511 154.867 195.622 158.445 191.143 164.031ZM58.6998 163.976C54.2568 157.879 47.052 153.915 38.9194 153.915C25.421 153.915 14.4784 164.835 14.4784 178.305C14.4784 191.776 25.421 202.696 38.9194 202.696C52.4178 202.696 63.3604 191.776 63.3604 178.305C63.3604 172.951 61.6313 167.999 58.6998 163.976Z" stroke="black" stroke-width="2" stroke-linejoin="round"/>
</svg>
