<svg width="250" height="250" viewBox="0 0 250 250" fill="none" xmlns="http://www.w3.org/2000/svg">
<path d="M173.392 32.9586C173.392 46.4667 162.423 57.4171 148.892 57.4171C135.361 57.4171 124.392 46.4667 124.392 32.9586C124.392 19.4505 135.361 8.5 148.892 8.5C162.423 8.5 173.392 19.4505 173.392 32.9586Z" fill="#F9F9F9"/>
<path d="M124.392 217.041C124.392 230.55 113.423 241.5 99.8916 241.5C86.3606 241.5 75.3916 230.55 75.3916 217.041C75.3916 203.533 86.3606 192.583 99.8916 192.583C113.423 192.583 124.392 203.533 124.392 217.041Z" fill="#F9F9F9"/>
<path d="M124.392 32.9586C124.392 46.4667 135.361 57.4171 148.892 57.4171C162.423 57.4171 173.392 46.4667 173.392 32.9586C173.392 19.4505 162.423 8.5 148.892 8.5C135.361 8.5 124.392 19.4505 124.392 32.9586ZM124.392 32.9586C124.392 32.9586 99.8916 32.9586 124.392 125C148.892 217.041 124.392 217.041 124.392 217.041M124.392 217.041C124.392 230.55 113.423 241.5 99.8916 241.5C86.3606 241.5 75.3916 230.55 75.3916 217.041C75.3916 203.533 86.3606 192.583 99.8916 192.583C113.423 192.583 124.392 203.533 124.392 217.041Z" stroke="black" stroke-width="2" stroke-linejoin="round"/>
<path d="M179.602 213.456C167.904 206.702 163.905 191.727 170.671 180.009C177.436 168.291 192.404 164.266 204.102 171.02C215.801 177.774 219.8 192.749 213.034 204.467C206.269 216.185 191.301 220.21 179.602 213.456Z" fill="#F9F9F9"/>
<path d="M44.682 78.979C32.9836 72.2249 28.9848 57.2502 35.7503 45.5321C42.5158 33.8139 57.4836 29.7897 69.182 36.5437C80.8803 43.2978 84.8792 58.2725 78.1137 69.9906C71.3483 81.7088 56.3803 85.733 44.682 78.979Z" fill="#F9F9F9"/>
<path d="M204.102 171.02C192.404 164.266 177.436 168.291 170.671 180.009C163.905 191.727 167.904 206.702 179.602 213.456C191.301 220.21 206.269 216.185 213.034 204.467C219.8 192.749 215.801 177.774 204.102 171.02ZM204.102 171.02C204.102 171.02 216.352 149.803 124.392 125C32.432 100.197 44.682 78.979 44.682 78.979M44.682 78.979C32.9836 72.2249 28.9848 57.2502 35.7503 45.5321C42.5157 33.8139 57.4836 29.7897 69.182 36.5437C80.8803 43.2978 84.8792 58.2725 78.1137 69.9906C71.3482 81.7088 56.3803 85.733 44.682 78.979Z" stroke="black" stroke-width="2" stroke-linejoin="round"/>
<path d="M228.602 121.414C216.904 128.168 201.936 124.144 195.171 112.426C188.405 100.708 192.404 85.733 204.102 78.979C215.801 72.2249 230.769 76.2492 237.534 87.9673C244.3 99.6855 240.301 114.66 228.602 121.414Z" fill="#F9F9F9"/>
<path d="M44.682 171.02C32.9836 177.774 18.0157 173.75 11.2502 162.032C4.48476 150.314 8.48364 135.339 20.182 128.585C31.8803 121.831 46.8482 125.855 53.6137 137.574C60.3792 149.292 56.3803 164.266 44.682 171.02Z" fill="#F9F9F9"/>
<path d="M204.102 78.979C192.404 85.733 188.405 100.708 195.171 112.426C201.936 124.144 216.904 128.168 228.602 121.414C240.301 114.66 244.3 99.6855 237.534 87.9673C230.769 76.2492 215.801 72.2249 204.102 78.979ZM204.102 78.979C204.102 78.979 191.852 57.7614 124.392 125C56.932 192.238 44.682 171.02 44.682 171.02M44.682 171.02C32.9836 177.774 18.0157 173.75 11.2502 162.032C4.48476 150.314 8.48363 135.339 20.182 128.585C31.8803 121.831 46.8482 125.855 53.6137 137.574C60.3792 149.292 56.3803 164.266 44.682 171.02Z" stroke="black" stroke-width="2" stroke-linejoin="round"/>
</svg>
