<svg width="250" height="250" viewBox="0 0 250 250" fill="none" xmlns="http://www.w3.org/2000/svg">
<path d="M31.25 0L25.4765 10H37.0235L31.25 0ZM30.25 9V250H32.25V9H30.25Z" fill="black"/>
<path d="M250 125L240 119.226L240 130.774L250 125ZM241 124L2.18557e-08 124L-2.18557e-08 126L241 126L241 124Z" fill="black"/>
<path d="M250 225C218.457 225 217.989 25 187.227 25C156.465 25 155.372 225 124.453 225C93.5353 225 93.223 25 62.7733 25C32.0112 25 30.9182 225 0 225" stroke="black" stroke-width="2" stroke-linejoin="round"/>
</svg>
