<svg width="261" height="250" viewBox="0 0 261 250" fill="none" xmlns="http://www.w3.org/2000/svg">
<path d="M36.7144 0L30.9409 10H42.4879L36.7144 0ZM35.7144 9V250H37.7144V9H35.7144Z" fill="black"/>
<path d="M261 125L251 119.226L251 130.774L261 125ZM252 124L1 124L1 126L252 126L252 124Z" fill="black"/>
<path d="M36.5 125C45.5908 93.75 54.6593 62.5 72.1741 62.5C106.848 62.5 107.204 187.5 142.411 187.5C177.618 187.5 178.863 62.5 213.893 62.5C231.407 62.5 240.298 93.75 249.3 125" stroke="black" stroke-width="2" stroke-linejoin="round" stroke-dasharray="9.03 9.03"/>
<path d="M1 125C10.0908 93.75 19.1593 62.5 36.6741 62.5C71.348 62.5 71.7036 187.5 106.911 187.5C142.118 187.5 143.363 62.5 178.393 62.5C195.907 62.5 204.798 93.75 213.8 125" stroke="black" stroke-width="2" stroke-linejoin="round"/>
</svg>
