<svg width="256" height="250" viewBox="0 0 256 250" fill="none" xmlns="http://www.w3.org/2000/svg">
<path d="M201.946 83.8378H219.514V179.108H201.946V83.8378Z" fill="#F9F9F9"/>
<path d="M147.216 126.405H164.784V179.108H147.216V126.405Z" fill="#F9F9F9"/>
<path d="M97.8919 94.6486H115.459V179.108H97.8919V94.6486Z" fill="#F9F9F9"/>
<path d="M43.1622 71H60.7297V179.108H43.1622V71Z" fill="#F9F9F9"/>
<path d="M6 71L0.226497 81H11.7735L6 71ZM6 179.108H5C5 179.66 5.44772 180.108 6 180.108V179.108ZM256 179.108L246 173.335V184.882L256 179.108ZM201.946 83.8378V82.8378C201.394 82.8378 200.946 83.2856 200.946 83.8378H201.946ZM219.514 83.8378H220.514C220.514 83.2856 220.066 82.8378 219.514 82.8378V83.8378ZM219.514 179.108V180.108C220.066 180.108 220.514 179.66 220.514 179.108H219.514ZM201.946 179.108H200.946C200.946 179.66 201.394 180.108 201.946 180.108V179.108ZM147.216 126.405V125.405C146.664 125.405 146.216 125.853 146.216 126.405H147.216ZM164.784 126.405H165.784C165.784 125.853 165.336 125.405 164.784 125.405V126.405ZM164.784 179.108V180.108C165.336 180.108 165.784 179.66 165.784 179.108H164.784ZM147.216 179.108H146.216C146.216 179.66 146.664 180.108 147.216 180.108V179.108ZM97.8919 94.6486V93.6486C97.3396 93.6486 96.8919 94.0964 96.8919 94.6486H97.8919ZM115.459 94.6486H116.459C116.459 94.0964 116.012 93.6486 115.459 93.6486V94.6486ZM115.459 179.108V180.108C116.012 180.108 116.459 179.66 116.459 179.108H115.459ZM97.8919 179.108H96.8919C96.8919 179.66 97.3396 180.108 97.8919 180.108V179.108ZM43.1622 71V70C42.6099 70 42.1622 70.4477 42.1622 71H43.1622ZM60.7297 71H61.7297C61.7297 70.4477 61.282 70 60.7297 70V71ZM60.7297 179.108V180.108C61.282 180.108 61.7297 179.66 61.7297 179.108H60.7297ZM43.1622 179.108H42.1622C42.1622 179.66 42.6099 180.108 43.1622 180.108V179.108ZM5 80V179.108H7V80H5ZM6 180.108H247V178.108H6V180.108ZM201.946 84.8378H219.514V82.8378H201.946V84.8378ZM218.514 83.8378V179.108H220.514V83.8378H218.514ZM219.514 178.108H201.946V180.108H219.514V178.108ZM202.946 179.108V83.8378H200.946V179.108H202.946ZM147.216 127.405H164.784V125.405H147.216V127.405ZM163.784 126.405V179.108H165.784V126.405H163.784ZM164.784 178.108H147.216V180.108H164.784V178.108ZM148.216 179.108V126.405H146.216V179.108H148.216ZM97.8919 95.6486H115.459V93.6486H97.8919V95.6486ZM114.459 94.6486V179.108H116.459V94.6486H114.459ZM115.459 178.108H97.8919V180.108H115.459V178.108ZM98.8919 179.108V94.6486H96.8919V179.108H98.8919ZM43.1622 72H60.7297V70H43.1622V72ZM59.7297 71V179.108H61.7297V71H59.7297ZM60.7297 178.108H43.1622V180.108H60.7297V178.108ZM44.1622 179.108V71H42.1622V179.108H44.1622Z" fill="black"/>
</svg>
