<svg width="252" height="250" viewBox="0 0 252 250" fill="none" xmlns="http://www.w3.org/2000/svg">
<path d="M1 70H251V97.4139V124.828V152.242V179.656H1V152.242V124.828V97.4139V70Z" fill="#F9F9F9"/>
<path d="M251 124.828H1M251 124.828V97.4139M251 124.828V152.242M1 124.828V97.4139M1 124.828V152.242M1 97.4139V70H251V97.4139M1 97.4139H251M251 152.242V179.656H1V152.242M251 152.242H1" stroke="black" stroke-width="2" stroke-linejoin="round"/>
<path d="M1 124.802C1 124.802 19.6548 86.8418 42.6667 86.8418C65.6785 86.8418 84.3333 124.802 84.3333 124.802C84.3333 124.802 102.988 166.557 126 166.557C149.012 166.557 167.667 124.802 167.667 124.802C167.667 124.802 186.321 86.8418 209.333 86.8418C232.345 86.8418 251 124.802 251 124.802" stroke="black" stroke-width="2" stroke-linejoin="round"/>
<path d="M251 125.228C251 125.228 232.345 163.187 209.333 163.187C186.321 163.187 167.667 125.228 167.667 125.228C167.667 125.228 149.012 83.4719 126 83.4719C102.988 83.4719 84.3333 125.228 84.3333 125.228C84.3333 125.228 65.6785 163.187 42.6667 163.187C19.6548 163.187 1.00001 125.228 1.00001 125.228" stroke="black" stroke-width="2" stroke-linejoin="round" stroke-dasharray="9.03 9.03"/>
</svg>
