<svg width="252" height="250" viewBox="0 0 252 250" fill="none" xmlns="http://www.w3.org/2000/svg">
<path d="M1 0L1.00001 250" stroke="black" stroke-width="2" stroke-linejoin="round"/>
<path d="M14.8882 53.8672L14.8882 250" stroke="black" stroke-width="2" stroke-linejoin="round"/>
<path d="M28.7778 96.6846L28.7778 249.999" stroke="black" stroke-width="2" stroke-linejoin="round"/>
<path d="M42.666 118.094L42.666 250" stroke="black" stroke-width="2" stroke-linejoin="round"/>
<path d="M56.5557 96.6846L56.5557 249.999" stroke="black" stroke-width="2" stroke-linejoin="round"/>
<path d="M70.4443 151.934L70.4444 250" stroke="black" stroke-width="2" stroke-linejoin="round"/>
<path d="M84.3335 129.144L84.3335 250" stroke="black" stroke-width="2" stroke-linejoin="round"/>
<path d="M98.2222 163.674L98.2222 250" stroke="black" stroke-width="2" stroke-linejoin="round"/>
<path d="M112.111 160.911L112.111 250" stroke="black" stroke-width="2" stroke-linejoin="round"/>
<path d="M126 148.479L126 249.999" stroke="black" stroke-width="2" stroke-linejoin="round"/>
<path d="M139.889 173.343L139.889 250" stroke="black" stroke-width="2" stroke-linejoin="round"/>
<path d="M153.778 160.911L153.778 250" stroke="black" stroke-width="2" stroke-linejoin="round"/>
<path d="M167.667 144.338L167.667 250.001" stroke="black" stroke-width="2" stroke-linejoin="round"/>
<path d="M181.556 111.188L181.556 250.001" stroke="black" stroke-width="2" stroke-linejoin="round"/>
<path d="M195.444 69.751L195.444 250" stroke="black" stroke-width="2" stroke-linejoin="round"/>
<path d="M209.333 42.127L209.333 250" stroke="black" stroke-width="2" stroke-linejoin="round"/>
<path d="M223.222 69.751L223.222 250" stroke="black" stroke-width="2" stroke-linejoin="round"/>
<path d="M237.111 20.7178L237.111 250" stroke="black" stroke-width="2" stroke-linejoin="round"/>
<path d="M251 0L251 250" stroke="black" stroke-width="2" stroke-linejoin="round"/>
</svg>
