<svg width="252" height="252" viewBox="0 0 252 252" fill="none" xmlns="http://www.w3.org/2000/svg">
<path d="M84.6667 84.3333H167.833V167.667H84.6667V84.3333Z" fill="#F9F9F9"/>
<path d="M1.5 1H84.6667V84.3333H1.5V1Z" fill="#F9F9F9"/>
<path d="M1.5 167.667H84.6667V251H1.5V167.667Z" fill="#F9F9F9"/>
<path d="M167.833 1H251V84.3333H167.833V1Z" fill="#F9F9F9"/>
<path d="M167.833 167.667H251V251H167.833V167.667Z" fill="#F9F9F9"/>
<path d="M84.6667 84.3333H167.833M84.6667 84.3333V167.667M84.6667 84.3333V1H1.5V84.3333H84.6667ZM167.833 84.3333V167.667M167.833 84.3333H251V1H167.833V84.3333ZM167.833 167.667H84.6667M167.833 167.667H251V251H167.833V167.667ZM84.6667 167.667H1.5V251H84.6667V167.667Z" stroke="black" stroke-width="2" stroke-linejoin="round"/>
</svg>
