<svg width="258" height="254" viewBox="0 0 258 254" fill="none" xmlns="http://www.w3.org/2000/svg">
<path d="M57.25 39L57.2501 197.25L1.50011 159.75L1.5 1.5L57.25 39Z" fill="#F9F9F9"/>
<path d="M201 39L201 197.25L256.75 159.75L256.75 1.5L201 39Z" fill="#F9F9F9"/>
<path d="M123.75 118.25L123.75 252.75L68.0001 215.25L68 80.75L123.75 118.25Z" fill="#F9F9F9"/>
<path d="M134.5 118.25L134.5 252.75L190.25 215.25L190.25 80.75L134.5 118.25Z" fill="#F9F9F9"/>
<path d="M57.25 39L57.2501 197.25L1.50011 159.75L1.5 1.5L57.25 39Z" stroke="black" stroke-width="2" stroke-linejoin="round"/>
<path d="M201 39L201 197.25L256.75 159.75L256.75 1.5L201 39Z" stroke="black" stroke-width="2" stroke-linejoin="round"/>
<path d="M123.75 118.25L123.75 252.75L68.0001 215.25L68 80.75L123.75 118.25Z" stroke="black" stroke-width="2" stroke-linejoin="round"/>
<path d="M134.5 118.25L134.5 252.75L190.25 215.25L190.25 80.75L134.5 118.25Z" stroke="black" stroke-width="2" stroke-linejoin="round"/>
</svg>
