<svg width="250" height="250" viewBox="0 0 250 250" fill="none" xmlns="http://www.w3.org/2000/svg">
<path d="M92.1972 8.5H166.697L127.349 66.875L88 125.25H13.5L92.1972 8.5Z" fill="#F9F9F9"/>
<path d="M127.349 66.875H201.849L162.5 125.25L123.151 183.625H48.6514L127.349 66.875Z" fill="#F9F9F9"/>
<path d="M162.5 125.25H237L197.651 183.625L158.303 242H83.8028L162.5 125.25Z" fill="#F9F9F9"/>
<path d="M127.349 66.875L166.697 8.5H92.1972L13.5 125.25H88L127.349 66.875ZM127.349 66.875H201.849L162.5 125.25M127.349 66.875L48.6514 183.625H123.151L162.5 125.25M162.5 125.25H237L197.651 183.625L158.303 242H83.8028L162.5 125.25Z" stroke="black" stroke-width="2" stroke-linejoin="round"/>
</svg>
