<svg width="250" height="252" viewBox="0 0 250 252" fill="none" xmlns="http://www.w3.org/2000/svg">
<path fill-rule="evenodd" clip-rule="evenodd" d="M175.548 1H107.929L36.5 107.19H103.914L55.5479 179.095H122.962L74.5957 251H142.215L213.643 144.81H146.229L194.595 72.9043H127.182L175.548 1Z" fill="#F9F9F9"/>
<path d="M107.929 1V0H107.396L107.099 0.44187L107.929 1ZM175.548 1L176.377 1.55813L177.425 0H175.548V1ZM36.5 107.19L35.6702 106.632L34.6222 108.19H36.5V107.19ZM103.914 107.19L104.744 107.749L105.792 106.19H103.914V107.19ZM55.5479 179.095L54.7181 178.537L53.67 180.095H55.5479V179.095ZM122.962 179.095L123.792 179.653L124.84 178.095H122.962V179.095ZM74.5957 251L73.7659 250.442L72.7179 252H74.5957V251ZM142.215 251V252H142.747L143.045 251.558L142.215 251ZM213.643 144.81L214.473 145.368L215.521 143.81H213.643V144.81ZM146.229 144.81L145.399 144.251L144.351 145.81H146.229V144.81ZM194.595 72.9043L195.425 73.4624L196.473 71.9043H194.595V72.9043ZM127.182 72.9043L126.352 72.3462L125.304 73.9043H127.182V72.9043ZM107.929 2H175.548V0H107.929V2ZM37.3298 107.749L108.758 1.55813L107.099 0.44187L35.6702 106.632L37.3298 107.749ZM103.914 106.19H36.5V108.19H103.914V106.19ZM103.084 106.632L54.7181 178.537L56.3776 179.653L104.744 107.749L103.084 106.632ZM55.5479 180.095H122.962V178.095H55.5479V180.095ZM122.133 178.537L73.7659 250.442L75.4255 251.558L123.792 179.653L122.133 178.537ZM74.5957 252H142.215V250H74.5957V252ZM143.045 251.558L214.473 145.368L212.814 144.251L141.385 250.442L143.045 251.558ZM213.643 143.81H146.229V145.81H213.643V143.81ZM147.058 145.368L195.425 73.4624L193.766 72.3462L145.399 144.251L147.058 145.368ZM194.595 71.9043H127.182V73.9043H194.595V71.9043ZM174.718 0.44187L126.352 72.3462L128.011 73.4624L176.377 1.55813L174.718 0.44187Z" fill="black"/>
</svg>
