<svg width="262" height="256" viewBox="0 0 262 256" fill="none" xmlns="http://www.w3.org/2000/svg">
<rect width="94.3902" height="30.5" transform="matrix(-1 0 0 1 100.39 219.5)" fill="#F9F9F9"/>
<path d="M36.6099 219.5L100.39 219.5" stroke="black" stroke-width="2" stroke-linejoin="round"/>
<path d="M6 255.333C8.94552 255.333 11.3333 252.946 11.3333 250C11.3333 247.054 8.94552 244.667 6 244.667C3.05448 244.667 0.666667 247.054 0.666667 250C0.666666 252.946 3.05448 255.333 6 255.333ZM7 250C7 233.711 20.2534 220.5 36.6098 220.5L36.6098 218.5C19.1556 218.5 5 232.6 5 250L7 250Z" fill="black"/>
<rect width="61.2196" height="61" transform="translate(100.39 189)" fill="#F9F9F9"/>
<path d="M100.39 219.5C117.295 219.5 131 205.845 131 189C131 205.845 144.704 219.5 161.61 219.5" stroke="black" stroke-width="2" stroke-linejoin="round"/>
<rect width="94.3902" height="30.5" transform="translate(161.61 219.5)" fill="#F9F9F9"/>
<path d="M225.39 219.5L161.61 219.5" stroke="black" stroke-width="2" stroke-linejoin="round"/>
<path d="M256 255.333C253.054 255.333 250.667 252.946 250.667 250C250.667 247.054 253.054 244.667 256 244.667C258.946 244.667 261.333 247.054 261.333 250C261.333 252.946 258.946 255.333 256 255.333ZM255 250C255 233.711 241.747 220.5 225.39 220.5L225.39 218.5C242.844 218.5 257 232.6 257 250L255 250Z" fill="black"/>
</svg>
