<svg width="250" height="252" viewBox="0 0 250 252" fill="none" xmlns="http://www.w3.org/2000/svg">
<path fill-rule="evenodd" clip-rule="evenodd" d="M123.5 45C123.5 20.1472 143.647 0 168.5 0C193.353 0 213.5 20.1472 213.5 45H211.5C211.5 21.2518 192.248 2 168.5 2C144.752 2 125.5 21.2518 125.5 45V73.2603C127.665 73.671 129.367 75.3905 129.752 77.5647C141.524 77.8567 152.113 79.1196 160.088 81.0234C164.652 82.1131 168.415 83.4255 171.062 84.9194C173.628 86.3677 175.5 88.1937 175.5 90.4364C175.5 91.7817 174.827 92.9771 173.734 94.0309C174.827 95.0848 175.5 96.2801 175.5 97.6254C175.5 98.9707 174.827 100.166 173.734 101.22C174.827 102.274 175.5 103.469 175.5 104.814C175.5 106.16 174.827 107.355 173.734 108.409C174.827 109.463 175.5 110.658 175.5 112.003C175.5 113.349 174.827 114.544 173.734 115.598C174.827 116.652 175.5 117.847 175.5 119.192C175.5 120.538 174.827 121.733 173.734 122.787C174.827 123.841 175.5 125.036 175.5 126.381C175.5 127.727 174.827 128.922 173.734 129.976C174.827 131.03 175.5 132.225 175.5 133.57C175.5 134.925 174.811 136.125 173.734 137.165C174.811 138.205 175.5 139.404 175.5 140.759C175.5 142.114 174.811 143.314 173.734 144.354C174.811 145.394 175.5 146.593 175.5 147.948C175.5 149.303 174.811 150.503 173.734 151.543C174.811 152.583 175.5 153.782 175.5 155.137C175.5 156.492 174.811 157.692 173.734 158.732C174.811 159.772 175.5 160.971 175.5 162.326C175.5 164.042 174.394 165.509 172.797 166.718C169.396 169.292 162.854 171.407 154.514 172.89C147.393 174.156 138.841 174.981 129.556 175.203C128.949 177.006 127.403 178.379 125.5 178.74V207C125.5 231.853 105.353 252 80.5 252C55.6472 252 35.5 231.853 35.5 207L37.5 207C37.5 230.748 56.7518 250 80.5 250C104.248 250 123.5 230.748 123.5 207V178.74C121.032 178.272 119.167 176.104 119.167 173.5C119.167 170.554 121.554 168.167 124.5 168.167C127.343 168.167 129.667 170.392 129.825 173.195C138.901 172.965 147.237 172.152 154.163 170.921C162.48 169.442 168.601 167.385 171.59 165.123C172.989 164.064 173.5 163.116 173.5 162.326C173.5 161.653 173.128 160.863 172.15 159.988C170.314 161.214 167.777 162.314 164.719 163.28C155.458 166.206 140.862 168.074 124.5 168.074C115.207 168.074 106.499 167.652 99.023 166.916C90.4605 166.073 83.4538 164.811 79.0376 163.27C77.4385 162.713 76.1165 162.097 75.1751 161.412C74.2617 160.747 73.5 159.861 73.5 158.732C73.5 157.603 74.2617 156.716 75.1751 156.051C75.6141 155.732 76.1359 155.428 76.7299 155.137C76.1359 154.847 75.6141 154.543 75.1751 154.223C74.2617 153.558 73.5 152.672 73.5 151.543C73.5 150.414 74.2617 149.527 75.1751 148.863C75.6141 148.543 76.1359 148.239 76.7299 147.948C76.1359 147.658 75.6141 147.354 75.1751 147.034C74.2617 146.369 73.5 145.483 73.5 144.354C73.5 143.225 74.2617 142.338 75.1751 141.674C75.6141 141.354 76.1359 141.05 76.7299 140.759C76.1359 140.469 75.6141 140.165 75.1751 139.845C74.2617 139.18 73.5 138.294 73.5 137.165C73.5 136.153 74.1159 135.335 74.8839 134.709C75.3813 134.303 76.0045 133.925 76.7298 133.57C76.0045 133.216 75.3813 132.838 74.8839 132.432C74.1159 131.806 73.5 130.988 73.5 129.976C73.5 128.964 74.1159 128.146 74.8839 127.52C75.3813 127.114 76.0045 126.736 76.7298 126.381C76.0045 126.027 75.3813 125.649 74.8839 125.243C74.1159 124.617 73.5 123.799 73.5 122.787C73.5 121.775 74.1159 120.957 74.8839 120.331C75.3813 119.925 76.0045 119.547 76.7298 119.192C76.0045 118.838 75.3813 118.46 74.8839 118.054C74.1159 117.428 73.5 116.61 73.5 115.598C73.5 114.586 74.1159 113.768 74.8839 113.142C75.3813 112.736 76.0045 112.358 76.7298 112.003C76.0045 111.649 75.3813 111.271 74.8839 110.865C74.1159 110.239 73.5 109.421 73.5 108.409C73.5 107.397 74.1159 106.579 74.8839 105.953C75.3813 105.547 76.0045 105.169 76.7298 104.814C76.0045 104.46 75.3813 104.082 74.8839 103.676C74.1159 103.05 73.5 102.232 73.5 101.22C73.5 100.208 74.1159 99.3898 74.8839 98.7637C75.3813 98.3581 76.0045 97.9799 76.7298 97.6254C76.0045 97.2709 75.3813 96.8927 74.8839 96.4872C74.1159 95.861 73.5 95.0431 73.5 94.0309C73.5 93.0187 74.1159 92.2009 74.8839 91.5747C75.6643 90.9385 76.7542 90.3696 78.0623 89.8536C80.6884 88.8177 84.4294 87.9052 88.9801 87.1459C98.0976 85.6248 110.655 84.689 124.5 84.689C138.362 84.689 150.943 86.0294 160.088 88.2124C164.652 89.302 168.415 90.6144 171.062 92.1084C171.441 92.3222 171.805 92.5443 172.15 92.7748C173.109 91.9158 173.5 91.1211 173.5 90.4364C173.5 89.383 172.573 88.0688 170.079 86.6611C167.666 85.2989 164.107 84.0392 159.623 82.9688C151.821 81.1061 141.385 79.8552 129.727 79.5648C129.234 82.0001 127.081 83.8333 124.5 83.8333C121.554 83.8333 119.167 81.4455 119.167 78.5C119.167 75.8963 121.032 73.7283 123.5 73.2603V45ZM170.079 93.8501C170.186 93.9105 170.291 93.9708 170.392 94.0309C170.291 94.091 170.186 94.1513 170.079 94.2118C168.603 95.045 166.698 95.8399 164.415 96.5766C163.071 96.1607 161.625 95.7684 160.088 95.4014C150.943 93.2184 138.362 91.878 124.5 91.878C110.655 91.878 98.0976 92.8137 88.9801 94.3349C85.1403 94.9755 81.877 95.7253 79.3735 96.5663C79.1745 96.4939 78.982 96.421 78.7962 96.3477C77.5741 95.8657 76.6995 95.3869 76.1477 94.9371C75.5837 94.4772 75.5 94.1705 75.5 94.0309C75.5 93.8913 75.5837 93.5847 76.1477 93.1248C76.6995 92.6749 77.5741 92.1961 78.7962 91.7141C81.2304 90.7539 84.8117 89.869 89.3092 89.1186C98.2881 87.6206 110.73 86.689 124.5 86.689C138.253 86.689 150.671 88.0206 159.623 90.1577C164.107 91.2282 167.666 92.4879 170.079 93.8501ZM159.623 97.3467C160.007 97.4383 160.383 97.5312 160.753 97.6254C160.383 97.7197 160.007 97.8126 159.623 97.9041C155.682 98.845 151.069 99.6297 145.966 100.213C139.446 99.4772 132.169 99.0669 124.5 99.0669C115.252 99.0669 106.579 99.4845 99.1213 100.215C95.5318 99.8597 92.2365 99.4316 89.3092 98.9432C86.8911 98.5398 84.7379 98.0974 82.8853 97.6254C84.7379 97.1534 86.8911 96.7111 89.3092 96.3076C98.2881 94.8096 110.73 93.878 124.5 93.878C138.253 93.878 150.671 95.2096 159.623 97.3467ZM160.088 99.8494C157.977 100.353 155.684 100.812 153.235 101.22C155.684 101.628 157.977 102.087 160.088 102.59C161.625 102.957 163.071 103.35 164.415 103.766C166.698 103.029 168.603 102.234 170.079 101.401C170.186 101.34 170.291 101.28 170.392 101.22C170.291 101.16 170.186 101.1 170.079 101.039C168.603 100.206 166.698 99.4109 164.415 98.6742C163.071 99.0901 161.625 99.4824 160.088 99.8494ZM124.5 101.067C127.227 101.067 129.901 101.119 132.506 101.22C129.901 101.32 127.227 101.373 124.5 101.373C121.228 101.373 118.03 101.32 114.936 101.22C118.03 101.12 121.228 101.067 124.5 101.067ZM124.5 103.373C115.252 103.373 106.579 102.955 99.1213 102.225C95.5318 102.58 92.2365 103.008 89.3092 103.497C86.8911 103.9 84.7379 104.342 82.8853 104.814C84.7379 105.286 86.8911 105.729 89.3092 106.132C92.2365 106.621 95.5318 107.049 99.1213 107.404C106.579 106.673 115.252 106.256 124.5 106.256C132.169 106.256 139.446 106.666 145.966 107.402C151.069 106.819 155.682 106.034 159.623 105.093C160.007 105.002 160.383 104.909 160.753 104.814C160.383 104.72 160.007 104.627 159.623 104.536C155.682 103.595 151.069 102.81 145.966 102.226C139.446 102.963 132.169 103.373 124.5 103.373ZM88.9801 100.916C89.6041 101.02 90.2442 101.121 90.8997 101.22C90.2442 101.318 89.6041 101.42 88.9801 101.524C85.1403 102.165 81.877 102.914 79.3735 103.755C79.1745 103.683 78.982 103.61 78.7962 103.537C77.5741 103.055 76.6995 102.576 76.1477 102.126C75.5837 101.666 75.5 101.359 75.5 101.22C75.5 101.08 75.5837 100.774 76.1477 100.314C76.6995 99.8639 77.5741 99.3851 78.7962 98.9031C78.982 98.8298 79.1745 98.7569 79.3735 98.6846C81.877 99.5255 85.1403 100.275 88.9801 100.916ZM78.7962 106.092C78.982 106.019 79.1745 105.946 79.3735 105.874C81.877 106.714 85.1403 107.464 88.9801 108.105C89.6041 108.209 90.2442 108.31 90.8997 108.409C90.2442 108.507 89.6041 108.609 88.9801 108.713C85.1403 109.353 81.877 110.103 79.3735 110.944C79.1745 110.872 78.982 110.799 78.7962 110.726C77.5741 110.244 76.6995 109.765 76.1477 109.315C75.5837 108.855 75.5 108.548 75.5 108.409C75.5 108.269 75.5837 107.963 76.1477 107.503C76.6995 107.053 77.5741 106.574 78.7962 106.092ZM89.3092 110.686C92.2365 110.197 95.5318 109.769 99.1213 109.414C106.579 110.144 115.252 110.562 124.5 110.562C132.169 110.562 139.446 110.152 145.966 109.415C151.069 109.999 155.682 110.784 159.623 111.725C160.007 111.816 160.383 111.909 160.753 112.003C160.383 112.098 160.007 112.191 159.623 112.282C155.682 113.223 151.069 114.008 145.966 114.591C139.446 113.855 132.169 113.445 124.5 113.445C115.252 113.445 106.579 113.862 99.1213 114.593C95.5318 114.238 92.2365 113.81 89.3092 113.321C86.8911 112.918 84.7379 112.475 82.8853 112.003C84.7379 111.531 86.8911 111.089 89.3092 110.686ZM124.5 108.256C127.227 108.256 129.901 108.308 132.506 108.409C129.901 108.509 127.227 108.562 124.5 108.562C121.228 108.562 118.03 108.509 114.936 108.409C118.03 108.309 121.228 108.256 124.5 108.256ZM160.088 109.779C157.977 109.276 155.684 108.817 153.235 108.409C155.684 108.001 157.977 107.542 160.088 107.038C161.625 106.671 163.071 106.279 164.415 105.863C166.698 106.6 168.603 107.395 170.079 108.228C170.126 108.254 170.172 108.281 170.218 108.307C170.277 108.341 170.335 108.375 170.392 108.409C170.291 108.469 170.186 108.529 170.079 108.59C168.603 109.423 166.698 110.218 164.415 110.955C163.071 110.539 161.625 110.146 160.088 109.779ZM171.062 106.486C170.024 105.9 168.814 105.342 167.451 104.814C168.814 104.287 170.024 103.729 171.062 103.142C171.441 102.929 171.805 102.706 172.15 102.476C173.109 103.335 173.5 104.13 173.5 104.814C173.5 105.499 173.109 106.294 172.15 107.153C171.805 106.922 171.441 106.7 171.062 106.486ZM171.062 110.331C171.441 110.118 171.805 109.895 172.15 109.665C173.109 110.524 173.5 111.319 173.5 112.003C173.5 112.688 173.109 113.483 172.15 114.342C171.805 114.111 171.441 113.889 171.062 113.675C170.024 113.089 168.814 112.531 167.451 112.003C168.814 111.476 170.024 110.918 171.062 110.331ZM170.285 115.535C170.321 115.556 170.357 115.577 170.392 115.598C170.291 115.658 170.186 115.718 170.079 115.779C168.603 116.612 166.698 117.407 164.415 118.144C163.071 117.728 161.625 117.335 160.088 116.968C157.977 116.465 155.684 116.006 153.235 115.598C155.684 115.19 157.977 114.731 160.088 114.227C161.625 113.86 163.071 113.468 164.415 113.052C166.698 113.789 168.603 114.584 170.079 115.417C170.149 115.456 170.218 115.496 170.285 115.535ZM159.623 118.914C160.007 119.005 160.383 119.098 160.753 119.192C160.383 119.287 160.007 119.38 159.623 119.471C155.682 120.412 151.069 121.197 145.966 121.78C139.446 121.044 132.169 120.634 124.5 120.634C115.252 120.634 106.579 121.051 99.1213 121.782C95.5318 121.427 92.2365 120.999 89.3092 120.51C86.8911 120.107 84.7379 119.664 82.8854 119.192C84.7379 118.72 86.8911 118.278 89.3092 117.875C92.2365 117.386 95.5318 116.958 99.1213 116.603C106.579 117.333 115.252 117.751 124.5 117.751C132.169 117.751 139.446 117.341 145.966 116.604C151.069 117.188 155.682 117.973 159.623 118.914ZM160.088 121.416C157.977 121.92 155.684 122.379 153.235 122.787C155.684 123.195 157.977 123.654 160.088 124.157C161.625 124.524 163.071 124.917 164.415 125.333C166.698 124.596 168.603 123.801 170.079 122.968C170.186 122.907 170.291 122.847 170.392 122.787C170.291 122.727 170.186 122.666 170.079 122.606C168.603 121.773 166.698 120.978 164.415 120.241C163.071 120.657 161.625 121.049 160.088 121.416ZM124.5 122.634C127.227 122.634 129.901 122.686 132.506 122.787C129.901 122.887 127.227 122.94 124.5 122.94C121.228 122.94 118.03 122.887 114.937 122.787C118.03 122.687 121.228 122.634 124.5 122.634ZM124.5 124.94C115.252 124.94 106.579 124.522 99.1213 123.792C95.5318 124.147 92.2365 124.575 89.3092 125.064C86.8911 125.467 84.7379 125.909 82.8853 126.381C84.7379 126.853 86.8911 127.296 89.3092 127.699C92.2365 128.188 95.5318 128.616 99.1213 128.971C106.579 128.24 115.252 127.823 124.5 127.823C132.171 127.823 139.448 128.233 145.966 128.969C151.069 128.386 155.682 127.601 159.623 126.66C160.007 126.568 160.383 126.476 160.753 126.381C160.383 126.287 160.007 126.194 159.623 126.103C155.682 125.162 151.069 124.377 145.966 123.793C139.446 124.53 132.169 124.94 124.5 124.94ZM88.9801 122.483C89.6041 122.587 90.2442 122.688 90.8997 122.787C90.2442 122.885 89.6041 122.987 88.9801 123.091C85.1403 123.731 81.877 124.481 79.3735 125.322C79.1745 125.25 78.982 125.177 78.7962 125.104C77.5741 124.622 76.6995 124.143 76.1477 123.693C75.5837 123.233 75.5 122.926 75.5 122.787C75.5 122.647 75.5837 122.341 76.1477 121.881C76.6995 121.431 77.5741 120.952 78.7962 120.47C78.982 120.397 79.1745 120.324 79.3736 120.252C81.877 121.092 85.1403 121.842 88.9801 122.483ZM78.7962 127.659C78.982 127.586 79.1745 127.513 79.3735 127.44C81.877 128.281 85.1403 129.031 88.9801 129.672C89.6041 129.776 90.2442 129.877 90.8997 129.976C90.2442 130.074 89.6041 130.176 88.9801 130.28C85.1403 130.92 81.877 131.67 79.3735 132.511C79.1745 132.439 78.982 132.366 78.7962 132.293C77.5741 131.811 76.6995 131.332 76.1477 130.882C75.5837 130.422 75.5 130.115 75.5 129.976C75.5 129.836 75.5837 129.53 76.1477 129.07C76.6995 128.62 77.5741 128.141 78.7962 127.659ZM89.3092 132.253C92.2365 131.764 95.5318 131.336 99.1213 130.981C106.579 131.711 115.252 132.129 124.5 132.129C132.169 132.129 139.446 131.719 145.966 130.982C148.867 131.314 151.611 131.711 154.163 132.165C156.548 132.589 158.751 133.06 160.752 133.57C160.383 133.665 160.006 133.758 159.623 133.849C155.682 134.79 151.069 135.575 145.966 136.158C139.443 135.422 132.165 135.012 124.5 135.012C115.268 135.012 106.592 135.428 99.1211 136.16C95.5317 135.805 92.2364 135.376 89.3092 134.888C86.8911 134.485 84.7379 134.042 82.8853 133.57C84.7379 133.098 86.8911 132.656 89.3092 132.253ZM124.5 129.823C127.226 129.823 129.901 129.875 132.506 129.976C129.901 130.076 127.227 130.129 124.5 130.129C121.228 130.129 118.03 130.076 114.937 129.976C118.03 129.876 121.228 129.823 124.5 129.823ZM154.514 130.196C154.092 130.121 153.666 130.048 153.235 129.976C155.684 129.568 157.977 129.109 160.088 128.605C161.625 128.238 163.071 127.846 164.415 127.43C166.698 128.167 168.603 128.962 170.079 129.795C170.133 129.825 170.186 129.855 170.238 129.886C170.29 129.916 170.341 129.946 170.392 129.976C170.291 130.036 170.186 130.096 170.079 130.157C168.603 130.99 166.698 131.785 164.415 132.522C161.545 131.633 158.205 130.852 154.514 130.196ZM171.062 128.053C170.024 127.467 168.814 126.909 167.451 126.381C168.814 125.854 170.024 125.295 171.062 124.709C171.441 124.496 171.805 124.273 172.15 124.043C173.109 124.902 173.5 125.697 173.5 126.381C173.5 127.066 173.109 127.861 172.15 128.72C171.805 128.489 171.441 128.267 171.062 128.053ZM171.062 131.898C171.441 131.685 171.805 131.462 172.15 131.232C173.109 132.091 173.5 132.886 173.5 133.57C173.5 134.244 173.128 135.033 172.15 135.908C170.902 135.076 169.319 134.294 167.45 133.57C168.813 133.043 170.024 132.485 171.062 131.898ZM164.415 134.619C166.865 135.41 168.879 136.266 170.392 137.165C168.892 138.054 166.885 138.914 164.415 139.711C161.247 138.73 157.474 137.871 153.235 137.165C155.684 136.757 157.977 136.298 160.088 135.794C161.625 135.427 163.071 135.035 164.415 134.619ZM145.966 138.171C151.568 138.812 156.577 139.695 160.753 140.759C156.583 141.822 151.576 142.706 145.966 143.347C139.45 142.612 132.174 142.201 124.5 142.201C115.248 142.201 106.575 142.619 99.1213 143.349C92.5471 142.698 86.9923 141.806 82.8845 140.759C87.0071 139.708 92.5684 138.818 99.1215 138.17C106.579 138.9 115.252 139.318 124.5 139.318C132.169 139.318 139.446 138.907 145.966 138.171ZM164.415 141.808C161.242 142.79 157.469 143.649 153.235 144.354C157.469 145.059 161.242 145.917 164.415 146.9C166.885 146.103 168.892 145.244 170.392 144.354C168.892 143.464 166.885 142.605 164.415 141.808ZM124.5 144.201C127.226 144.201 129.9 144.253 132.506 144.354C129.9 144.454 127.226 144.507 124.5 144.507C121.228 144.507 118.031 144.454 114.936 144.354C118.031 144.253 121.228 144.201 124.5 144.201ZM124.5 146.507C115.248 146.507 106.575 146.089 99.1213 145.359C92.5474 146.009 86.9928 146.902 82.885 147.948C86.9928 148.995 92.5474 149.887 99.1213 150.538C106.575 149.808 115.248 149.39 124.5 149.39C132.174 149.39 139.45 149.801 145.966 150.536C151.576 149.895 156.583 149.011 160.753 147.948C156.583 146.885 151.576 146.002 145.966 145.36C139.45 146.096 132.174 146.507 124.5 146.507ZM79.3735 141.818C82.2658 142.79 86.1967 143.647 90.8995 144.354C86.1967 145.061 82.2658 145.918 79.3735 146.889C78.0172 146.396 77.0126 145.898 76.3519 145.417C75.6118 144.878 75.5 144.512 75.5 144.354C75.5 144.196 75.6118 143.829 76.3519 143.291C77.0126 142.81 78.0172 142.312 79.3735 141.818ZM76.3519 150.48C77.0126 149.999 78.0172 149.501 79.3735 149.007C82.2658 149.979 86.1967 150.836 90.8995 151.543C86.1967 152.25 82.2658 153.107 79.3735 154.078C78.0172 153.585 77.0126 153.087 76.3519 152.606C75.6118 152.067 75.5 151.701 75.5 151.543C75.5 151.385 75.6118 151.018 76.3519 150.48ZM82.885 155.137C86.9928 154.09 92.5474 153.198 99.1213 152.548C106.575 153.278 115.248 153.696 124.5 153.696C132.174 153.696 139.45 153.285 145.966 152.549C151.576 153.191 156.583 154.074 160.753 155.137C156.555 156.207 151.509 157.095 145.853 157.738C139.389 158.473 132.149 158.885 124.5 158.885C115.265 158.885 106.622 158.466 99.219 157.737C92.6024 157.085 87.0131 156.189 82.885 155.137ZM124.5 151.39C127.226 151.39 129.9 151.442 132.506 151.543C129.9 151.643 127.226 151.696 124.5 151.696C121.228 151.696 118.031 151.643 114.937 151.543C118.031 151.442 121.228 151.39 124.5 151.39ZM164.415 154.089C161.242 153.106 157.469 152.248 153.235 151.543C157.469 150.838 161.242 149.979 164.415 148.997C166.885 149.794 168.892 150.653 170.392 151.543C168.892 152.433 166.885 153.292 164.415 154.089ZM172.15 150.286C170.893 149.447 169.307 148.667 167.451 147.948C169.307 147.23 170.893 146.449 172.15 145.61C173.128 146.485 173.5 147.275 173.5 147.948C173.5 148.622 173.128 149.411 172.15 150.286ZM167.451 155.137C169.307 154.419 170.893 153.638 172.15 152.799C173.128 153.674 173.5 154.464 173.5 155.137C173.5 155.811 173.128 156.6 172.15 157.475C170.893 156.636 169.307 155.856 167.451 155.137ZM164.415 156.186C166.885 156.983 168.892 157.842 170.392 158.732C168.832 159.657 166.723 160.549 164.117 161.373C155.124 164.214 140.753 166.074 124.5 166.074C115.265 166.074 106.622 165.655 99.219 164.926C90.6997 164.087 83.8835 162.843 79.6964 161.382C78.1756 160.851 77.064 160.313 76.3519 159.795C75.6118 159.256 75.5 158.89 75.5 158.732C75.5 158.574 75.6118 158.207 76.3519 157.669C77.0126 157.188 78.0172 156.69 79.3735 156.196C83.8049 157.685 90.6744 158.905 99.023 159.727C106.499 160.463 115.207 160.885 124.5 160.885C132.218 160.885 139.535 160.469 146.079 159.725C153.268 158.908 159.548 157.693 164.415 156.186ZM167.451 140.759C169.307 141.478 170.893 142.258 172.15 143.097C173.128 142.222 173.5 141.433 173.5 140.759C173.5 140.086 173.128 139.297 172.15 138.421C170.893 139.26 169.307 140.041 167.451 140.759ZM90.9005 137.165C86.1835 137.874 82.2552 138.732 79.3735 139.7C78.0172 139.207 77.0126 138.709 76.3519 138.228C75.6118 137.689 75.5 137.323 75.5 137.165C75.5 137.025 75.5837 136.719 76.1477 136.259C76.6995 135.809 77.5741 135.33 78.7962 134.848C78.982 134.775 79.1745 134.702 79.3735 134.629C81.877 135.47 85.1403 136.22 88.9801 136.861C89.6043 136.965 90.2447 137.066 90.9005 137.165ZM124.5 137.318C121.228 137.318 118.031 137.265 114.937 137.165C118.029 137.065 121.226 137.012 124.5 137.012C127.227 137.012 129.902 137.064 132.506 137.165C129.901 137.265 127.227 137.318 124.5 137.318ZM171.062 120.864C171.441 121.078 171.805 121.3 172.15 121.531C173.109 120.672 173.5 119.877 173.5 119.192C173.5 118.508 173.109 117.713 172.15 116.854C171.805 117.084 171.441 117.307 171.062 117.52C170.024 118.106 168.814 118.665 167.451 119.192C168.814 119.72 170.024 120.278 171.062 120.864ZM88.9801 115.902C85.1403 116.542 81.877 117.292 79.3736 118.133C79.1745 118.061 78.982 117.988 78.7962 117.915C77.5741 117.433 76.6995 116.954 76.1477 116.504C75.5837 116.044 75.5 115.737 75.5 115.598C75.5 115.458 75.5837 115.152 76.1477 114.692C76.6995 114.242 77.5741 113.763 78.7962 113.281C78.982 113.208 79.1745 113.135 79.3735 113.063C81.877 113.903 85.1403 114.653 88.9801 115.294C89.6041 115.398 90.2442 115.499 90.8997 115.598C90.2442 115.696 89.6041 115.798 88.9801 115.902ZM124.5 115.751C121.228 115.751 118.03 115.698 114.937 115.598C118.03 115.498 121.228 115.445 124.5 115.445C127.227 115.445 129.901 115.497 132.506 115.598C129.901 115.698 127.227 115.751 124.5 115.751ZM171.062 99.2973C171.441 99.5112 171.805 99.7333 172.15 99.9638C173.109 99.1048 173.5 98.3101 173.5 97.6254C173.5 96.9408 173.109 96.146 172.15 95.287C171.805 95.5175 171.441 95.7396 171.062 95.9535C170.024 96.5396 168.814 97.0977 167.451 97.6254C168.814 98.1531 170.024 98.7113 171.062 99.2973Z" fill="#F9F9F9"/>
</svg>
