<svg width="250" height="252" viewBox="0 0 250 252" fill="none" xmlns="http://www.w3.org/2000/svg">
<path fill-rule="evenodd" clip-rule="evenodd" d="M123.5 45C123.5 20.1472 143.647 0 168.5 0C193.353 0 213.5 20.1472 213.5 45H211.5C211.5 21.2518 192.248 2 168.5 2C144.752 2 125.5 21.2518 125.5 45V73.2603C127.968 73.7283 129.833 75.8963 129.833 78.5C129.833 81.4455 127.446 83.8333 124.5 83.8333C121.775 83.8333 119.527 81.7891 119.206 79.1504H89.1465L174.636 90.8788C175.157 90.9503 175.533 91.413 175.498 91.9376C175.462 92.4623 175.026 92.8695 174.5 92.8695H89.1465L174.636 104.598C175.157 104.669 175.533 105.132 175.498 105.657C175.462 106.181 175.026 106.589 174.5 106.589L89.1465 106.589L174.636 118.317C175.157 118.389 175.533 118.851 175.498 119.376C175.462 119.901 175.026 120.308 174.5 120.308H89.1465L174.636 132.036C175.157 132.108 175.533 132.57 175.498 133.095C175.462 133.62 175.026 134.027 174.5 134.027H89.1465L174.636 145.755C175.157 145.827 175.533 146.29 175.498 146.814C175.462 147.339 175.026 147.746 174.5 147.746L89.1464 147.746L174.636 159.474C175.157 159.546 175.533 160.009 175.498 160.533C175.462 161.058 175.026 161.465 174.5 161.465H89.1464L174.636 173.194C175.157 173.265 175.533 173.728 175.498 174.252C175.462 174.777 175.026 175.184 174.5 175.184H129.562C128.959 176.997 127.41 178.377 125.5 178.74V207C125.5 231.853 105.353 252 80.5 252C55.6472 252 35.5 231.853 35.5 207L37.5 207C37.5 230.748 56.7518 250 80.5 250C104.248 250 123.5 230.748 123.5 207V178.74C121.032 178.272 119.167 176.104 119.167 173.5C119.167 170.824 121.137 168.608 123.707 168.225L74.3641 161.456C73.8431 161.384 73.4665 160.922 73.5023 160.397C73.5381 159.872 73.9742 159.465 74.5 159.465H159.853L74.3641 147.737C73.8431 147.665 73.4665 147.203 73.5023 146.678C73.5381 146.153 73.9742 145.746 74.5 145.746H159.854L74.3641 134.018C73.8432 133.946 73.4666 133.483 73.5024 132.959C73.5382 132.434 73.9742 132.027 74.5001 132.027H159.854L74.3641 120.299C73.8432 120.227 73.4666 119.764 73.5024 119.24C73.5382 118.715 73.9742 118.308 74.5001 118.308H159.854L74.3641 106.579C73.8432 106.508 73.4666 106.045 73.5024 105.521C73.5382 104.996 73.9742 104.589 74.5001 104.589L159.854 104.589L74.3641 92.8602C73.8432 92.7888 73.4666 92.326 73.5024 91.8014C73.5382 91.2768 73.9742 90.8695 74.5001 90.8695H159.854L74.3641 79.1411C73.8432 79.0696 73.4666 78.6069 73.5024 78.0823C73.5382 77.5576 73.9742 77.1504 74.5001 77.1504H119.339C119.854 75.1743 121.474 73.6445 123.5 73.2603V45ZM126.687 168.634C128.451 169.428 129.706 171.154 129.824 173.184H159.854L126.687 168.634Z" fill="#F9F9F9"/>
</svg>
