<svg width="252" height="252" viewBox="0 0 252 252" fill="none" xmlns="http://www.w3.org/2000/svg">
<path d="M1 250.977C69.6123 250.904 97.2809 161.05 39.2271 126.885C97.3315 160.931 163.583 97.8082 130.697 39.5798C130.69 39.5671 130.683 39.5544 130.676 39.5417L130.913 39.9582C163.96 97.6068 250.645 69.6927 250.98 1L250.985 97.8579L251 251L97.7158 250.992L1 250.977Z" fill="#F9F9F9"/>
<path d="M39.2271 126.885C97.2809 161.05 69.6123 250.904 1 250.977L97.7158 250.992M39.2271 126.885C97.3315 160.931 163.583 97.8082 130.697 39.5798M39.2271 126.885L121.288 174.979M130.697 39.5798C130.69 39.5671 130.683 39.5544 130.676 39.5417L130.913 39.9582M130.697 39.5798C130.769 39.7063 130.841 39.8325 130.913 39.9582M130.913 39.9582C163.96 97.6068 250.645 69.6927 250.98 1L250.985 97.8579M130.913 39.9582L177.364 121.598M97.7158 250.992C139.635 250.892 156.729 195.837 121.288 174.979M97.7158 250.992L251 251M121.288 174.979C121.291 174.981 121.294 174.983 121.298 174.985M121.298 174.985C156.776 195.761 197.439 157.203 177.364 121.598M121.298 174.985L251 251M177.364 121.598C177.432 121.718 177.5 121.838 177.569 121.957M177.364 121.598L177.569 121.957M177.569 121.957C197.759 157.065 250.727 139.848 250.985 97.8579M177.569 121.957L251 251M250.985 97.8579L251 251" stroke="black" stroke-width="2" stroke-linejoin="round"/>
</svg>
