<svg width="252" height="252" viewBox="0 0 252 252" fill="none" xmlns="http://www.w3.org/2000/svg">
<path d="M206.683 44.3931C209.096 47.4185 198.924 58.6411 190.54 68.6851C204.598 68.1475 219.316 67.5304 220.938 71.4448C222.115 74.2851 215.335 80.5924 206.869 87.62C200.84 92.6238 193.957 97.9927 188.482 102.735C186.261 106.812 183.829 110.97 183.829 114.803C183.829 121.665 169.915 123.132 168.225 129.455C167.302 132.91 157.787 129.729 148.513 126.808C151.401 135.433 198.764 168.414 195.104 173.446C192.208 177.428 155.763 146.861 135.67 133.12C149.537 148.803 185.691 179.468 181.975 183.183C177.259 187.899 180.087 216.64 174.35 219.948C168.612 223.256 149.02 220.922 142.473 222.67C136.149 224.359 120.44 251 113.588 251C106.361 251 105 169.387 98.3366 167.604C91.4498 165.762 62.9405 212.546 56.8163 209.015C50.6921 205.484 73.8749 160.413 68.9005 155.439C65.7498 152.289 74.4689 144.22 80.3974 137.193C80.1901 136.813 79.9498 136.431 79.6706 136.048C75.6582 130.534 6.48513 153.398 4.33813 146.77C2.285 140.376 18.7101 118.205 18.7101 111.166C18.7101 110.48 19.4504 109.951 20.7966 109.553C18.8825 101.495 -0.155607 86.3422 1.61626 79.6566C3.56381 72.4068 49.8826 80.1727 53.6134 73.7207C54.5315 72.1329 55.4837 70.8009 56.4754 69.617C42.0277 59.877 30.6284 51.5591 32.2842 49.2849C34.2132 46.6355 47.1623 55.1273 61.3126 64.847C63.0419 63.3362 64.8842 61.7868 66.859 59.8077C72.0799 54.5756 85.9356 70.2013 92.3179 66.5295C98.7003 62.8577 97.3159 63.3152 104.566 61.3679C110.056 59.8992 110.424 51.2843 113.967 47.6056C113.78 24.5284 113.563 1 117.413 1C121.322 1 122.005 21.1783 122.569 41.7551C128.957 32.1245 136.682 9.30591 141.734 10.4552C148.339 11.9568 161.315 9.45807 167.381 12.4026C171.299 14.3049 164.254 33.7021 160.183 48.3083C167.984 38.5552 174.671 31.1217 177.013 32.8263C180.884 35.6448 179.39 46.8326 178.846 56.2892C190.992 49.4713 204.344 41.4586 206.683 44.3931Z" fill="#F9F9F9"/>
<path d="M100.378 111.506C100.378 103.869 68.525 99.177 71.2821 92.5372C74.133 85.6511 108.485 113.243 113.671 108.093C118.856 102.943 100.836 91.7161 107.722 88.8654C114.374 86.1086 109.459 80.161 117.108 80.161C125.145 80.161 124.804 75.9613 131.844 78.8588C139.094 81.862 159.098 61.579 164.553 67.034C170.009 72.4889 217.935 64.1951 220.938 71.4448C223.836 78.4365 178.514 106.438 178.514 114.474C178.514 121.208 150.404 119.601 148.433 125.677C146.392 131.965 198.952 168.155 195.104 173.446C191.256 178.737 128.172 123.026 122.927 126.85C117.683 130.675 129.638 141.233 123.35 143.274C117.249 145.245 120.686 137.796 113.964 137.796C106.866 137.796 102.548 168.026 96.1544 165.95C89.5257 163.791 90.7458 154.806 85.2082 150.758C79.6706 146.711 83.6831 141.561 79.6706 136.048C75.6582 130.534 6.48513 153.398 4.33813 146.77C2.285 140.376 18.7101 118.205 18.7101 111.166C18.7101 103.705 106.138 114.932 108.321 108.198C110.585 101.218 28.0137 55.1504 32.2842 49.2849C36.5548 43.4194 94.8404 92.1618 100.589 87.9387C106.338 83.7155 104.062 93.8276 111.031 91.5636C117.765 89.3698 109.951 1 117.413 1C125.274 1 120.088 82.601 127.127 84.9472C134.472 87.3286 170.842 28.3333 177.013 32.8263C183.184 37.3193 175.722 63.0806 180.204 69.1925C184.686 75.3044 189.378 83.3166 191.725 90.6603C194.024 97.7458 183.829 106.955 183.829 114.803C183.829 121.665 169.915 123.132 168.225 129.455C166.477 136.001 133.897 118.733 130.53 124.528C127.163 130.323 186.692 178.467 181.975 183.183C177.259 187.899 180.087 216.64 174.35 219.948C168.612 223.256 149.02 220.922 142.473 222.67C136.149 224.359 120.44 251 113.588 251C106.361 251 105 169.387 98.3366 167.604C91.4498 165.762 62.9405 212.546 56.8163 209.015C50.6921 205.484 73.8749 160.413 68.9005 155.439C63.926 150.465 88.5402 133.232 85.044 127.191C81.5478 121.149 58.5292 132.915 56.6872 126.018C54.9743 119.366 20.9509 117.994 20.9509 110.767C20.9509 103.119 -0.24916 86.6952 1.61626 79.6566C3.56381 72.4068 49.8826 80.1727 53.6134 73.7207C57.3442 67.2686 61.6382 65.0397 66.859 59.8077C72.0799 54.5756 85.9356 70.2013 92.318 66.5295C98.7003 62.8577 97.3159 63.3152 104.566 61.3679C111.582 59.4909 110.233 45.9416 117.835 45.9416C124.664 45.9416 135.34 9.00056 141.734 10.4552C148.339 11.9568 161.315 9.45807 167.381 12.4026C173.446 15.3471 153.243 60.2065 158.464 64.3358C163.685 68.4652 202.53 39.1845 206.683 44.3931C210.837 49.6017 177.693 79.1052 180.579 85.0646C183.465 91.0239 223.859 84.1378 225.361 90.7424C226.816 97.1358 205.649 103.33 242.748 115.26C279.848 127.191 162.392 133.413 183.829 137.796" stroke="black" stroke-width="2" stroke-linejoin="round"/>
</svg>
