<svg width="250" height="252" viewBox="0 0 250 252" fill="none" xmlns="http://www.w3.org/2000/svg">
<path d="M209.336 70.4693C194.83 79.0594 175.157 73.1252 175.157 73.1252C175.157 73.1252 179.003 53.264 193.509 44.6739C208.016 36.0838 227.689 42.0179 227.689 42.0179C227.689 42.0179 223.843 61.8792 209.336 70.4693Z" fill="#F9F9F9"/>
<path d="M49.9891 106.825C66.6949 109.072 82.4973 95.9297 82.4973 95.9297C82.4973 95.9297 71.214 79.1429 54.5081 76.8951C37.8023 74.6473 22 87.7899 22 87.7899C22 87.7899 33.2832 104.577 49.9891 106.825Z" fill="#F9F9F9"/>
<path d="M72.5059 32.4775C85.2461 43.5219 105.662 41.1989 105.662 41.1989C105.662 41.1989 105.423 20.9698 92.6823 9.92532C79.942 -1.11914 59.5258 1.20362 59.5258 1.20362C59.5258 1.20362 59.7656 21.433 72.5059 32.4775Z" fill="#F9F9F9"/>
<path d="M151.992 251C152.825 223.122 151.142 177.023 143.019 133.599M105.662 41.1989C124.443 61.3689 136.08 96.5085 143.019 133.599M105.662 41.1989C105.662 41.1989 85.2461 43.5219 72.5059 32.4775C59.7656 21.433 59.5258 1.20362 59.5258 1.20362C59.5258 1.20362 79.942 -1.11914 92.6823 9.92532C105.422 20.9698 105.662 41.1989 105.662 41.1989ZM143.019 133.599C144.465 122.563 152.918 95.0175 175.157 73.1252M143.019 133.599C138.288 125.603 119.561 106.876 82.4973 95.9297M175.157 73.1252C175.157 73.1252 194.83 79.0594 209.336 70.4693C223.843 61.8792 227.689 42.0179 227.689 42.0179C227.689 42.0179 208.016 36.0838 193.509 44.6739C179.003 53.264 175.157 73.1252 175.157 73.1252ZM82.4973 95.9297C82.4973 95.9297 66.6949 109.072 49.9891 106.825C33.2832 104.577 22 87.7899 22 87.7899C22 87.7899 37.8023 74.6473 54.5081 76.8951C71.214 79.1429 82.4973 95.9297 82.4973 95.9297Z" stroke="black" stroke-width="2" stroke-linejoin="round"/>
</svg>
