<svg width="250" height="252" viewBox="0 0 250 252" fill="none" xmlns="http://www.w3.org/2000/svg">
<path d="M206.754 22.5517C206.754 34.4544 197.137 44.1035 185.273 44.1035C173.41 44.1035 163.793 34.4544 163.793 22.5517C163.793 10.649 173.41 1 185.273 1C197.137 1 206.754 10.649 206.754 22.5517Z" fill="#F9F9F9"/>
<path d="M125.951 66.8761C131.33 77.4905 127.114 90.4525 116.535 95.8276C105.955 101.203 93.0183 96.9554 87.6392 86.341C82.26 75.7267 86.4757 62.7646 97.0551 57.3895C107.635 52.0144 120.572 56.2617 125.951 66.8761Z" fill="#F9F9F9"/>
<path d="M43.5 251C63.9498 239.952 97.4458 213.995 127.474 173.414M185.273 44.1035C174.429 96.952 152.119 140.108 127.474 173.414M185.273 44.1035C197.137 44.1035 206.754 34.4544 206.754 22.5517C206.754 10.649 197.137 1 185.273 1C173.41 1 163.793 10.649 163.793 22.5517C163.793 34.4544 173.41 44.1035 185.273 44.1035ZM127.474 173.414C133.13 161.577 129.929 116.064 116.535 95.8276M116.535 95.8276C127.114 90.4525 131.33 77.4905 125.951 66.8761C120.572 56.2617 107.635 52.0144 97.0551 57.3895C86.4757 62.7646 82.26 75.7267 87.6392 86.341C93.0183 96.9554 105.955 101.203 116.535 95.8276Z" stroke="black" stroke-width="2" stroke-linejoin="round"/>
</svg>
