<svg width="250" height="250" viewBox="0 0 250 250" fill="none" xmlns="http://www.w3.org/2000/svg">
<path d="M214.195 109.027C224.652 124.628 247.278 128.121 247.278 128.121C247.278 128.121 252.951 106.321 242.494 90.7203C232.037 75.1192 209.411 71.6249 209.411 71.6249C209.411 71.6249 203.739 93.4256 214.195 109.027Z" fill="#F9F9F9"/>
<path d="M100.497 238.35C73.7989 220.909 58.2312 192.832 55.7279 163.342M209.411 71.6249C209.411 71.6249 232.037 75.1192 242.494 90.7203C252.951 106.321 247.278 128.121 247.278 128.121C247.278 128.121 224.652 124.628 214.195 109.027C203.739 93.4256 209.411 71.6249 209.411 71.6249ZM209.411 71.6249C172.695 47.6397 126.017 51.0131 93.3622 76.7144M93.3622 76.7144C93.3622 76.7144 79.9215 58.1809 83.6465 39.7728C87.3716 21.3647 106.852 10.053 106.852 10.053C106.852 10.053 120.292 28.5868 116.567 46.9949C112.842 65.403 93.3622 76.7144 93.3622 76.7144ZM93.3622 76.7144C85.0703 83.2408 77.6825 91.207 71.5919 100.53C58.9571 119.872 53.9144 141.978 55.7279 163.342M55.7279 163.342C55.7279 163.342 33.1726 167.267 18.2761 155.829C3.37964 144.391 1.78312 121.921 1.78312 121.921C1.78312 121.921 24.3386 117.996 39.2351 129.434C54.1315 140.872 55.7279 163.342 55.7279 163.342ZM76.7878 106.397C76.7878 106.397 91.361 88.7397 110.115 87.7321C128.869 86.7245 144.702 102.748 144.702 102.748C144.702 102.748 130.129 120.405 111.375 121.412C92.6206 122.42 76.7878 106.397 76.7878 106.397ZM123.876 196.966C123.876 206.871 115.846 214.902 105.94 214.902C96.0344 214.902 88.0042 206.871 88.0042 196.966C88.0042 187.06 96.0344 179.03 105.94 179.03C115.846 179.03 123.876 187.06 123.876 196.966Z" stroke="black" stroke-width="2" stroke-linejoin="round"/>
<path d="M123.876 196.965C123.876 206.871 115.846 214.901 105.94 214.901C96.0339 214.901 88.0037 206.871 88.0037 196.965C88.0037 187.059 96.0339 179.029 105.94 179.029C115.846 179.029 123.876 187.059 123.876 196.965Z" fill="#F9F9F9" stroke="black" stroke-width="2" stroke-linejoin="round"/>
<path d="M18.2753 155.828C33.1718 167.266 55.7271 163.341 55.7271 163.341C55.7271 163.341 54.1307 140.872 39.2342 129.433C24.3378 117.995 1.78231 121.92 1.78231 121.92C1.78231 121.92 3.37883 144.39 18.2753 155.828Z" fill="#F9F9F9" stroke="black" stroke-width="2" stroke-linejoin="round"/>
<path d="M83.6458 39.7724C79.9208 58.1805 93.3615 76.714 93.3615 76.714C93.3615 76.714 112.842 65.4026 116.567 46.9945C120.292 28.5864 106.851 10.0526 106.851 10.0526C106.851 10.0526 87.3709 21.3642 83.6458 39.7724Z" fill="#F9F9F9" stroke="black" stroke-width="2" stroke-linejoin="round"/>
<path d="M110.116 87.7329C91.3619 88.7405 76.7887 106.397 76.7887 106.397C76.7887 106.397 92.6215 122.421 111.376 121.413C130.13 120.405 144.703 102.749 144.703 102.749C144.703 102.749 128.87 86.7253 110.116 87.7329Z" fill="#F9F9F9" stroke="black" stroke-width="2" stroke-linejoin="round"/>
</svg>
