<svg width="250" height="253" viewBox="0 0 250 253" fill="none" xmlns="http://www.w3.org/2000/svg">
<path d="M166.864 51.9553C145.958 84.861 142.935 120.963 142.935 120.963C142.935 120.963 173.806 103.714 194.712 70.8084C215.618 37.9026 218.642 1.80065 218.642 1.80065C218.642 1.80065 187.77 19.0495 166.864 51.9553Z" fill="#F9F9F9"/>
<path d="M60.5343 69.3969C55.8735 96.4999 63.7461 120.832 63.7461 120.832C63.7461 120.832 79.1751 101.222 83.8359 74.1192C88.4968 47.0162 80.6243 22.6837 80.6243 22.6837C80.6243 22.6837 65.1952 42.2939 60.5343 69.3969Z" fill="#F9F9F9"/>
<path d="M142.935 120.963L47.2564 251.862L63.7461 120.832M142.935 120.963C142.935 120.963 145.958 84.8611 166.864 51.9553C187.77 19.0495 218.642 1.80065 218.642 1.80065C218.642 1.80065 215.618 37.9026 194.712 70.8084C173.806 103.714 142.935 120.963 142.935 120.963ZM63.7461 120.832C63.7461 120.832 55.8735 96.4999 60.5343 69.3969C65.1952 42.2939 80.6243 22.6837 80.6243 22.6837C80.6243 22.6837 88.4968 47.0162 83.8359 74.1192C79.1751 101.222 63.7461 120.832 63.7461 120.832Z" stroke="black" stroke-width="2" stroke-linejoin="round"/>
</svg>
