<svg width="252" height="252" viewBox="0 0 252 252" fill="none" xmlns="http://www.w3.org/2000/svg">
<path d="M251 1C247.148 17.8067 235.244 46.7364 199.233 64.0009C190.691 69.8136 180.987 75.7157 169.956 82.0025C196.024 67.7347 222.18 71.6683 231.999 75.4186C216.799 88.907 184.304 85.428 169.956 82.0025C154.315 90.9171 132.97 99.2576 111.985 110.674C157.277 99.9499 193.934 107.309 203.305 114.178C163.287 129.682 123.554 119.535 111.985 110.674C107.107 113.494 101.897 116.691 96.2805 120.38C84.6023 128.051 69.4231 139.854 59.8306 147.903C120.536 135.5 161.862 144.023 172.671 151.775C123.347 168.829 75.3817 157.593 59.8306 147.903C41.4297 163.982 23.2764 187.228 13.4322 203.132C68.8054 177.729 127.948 184.741 148.629 194.798C108.147 214.178 40.3175 210.68 13.4322 203.132C5.76146 183.817 -3.06543 130.767 22.9926 73.093C29.9323 93.8295 37.7359 148.868 13.4322 203.132C23.2764 187.228 41.4297 163.982 59.8306 147.903C56.8577 132.527 59.6754 90.7674 94.7297 46.7364C98.1291 62.8245 95.9084 105.581 59.8306 147.903C69.4231 139.854 84.6023 128.051 96.2805 120.38C101.897 116.691 107.107 113.494 111.985 110.674C111.598 95.1751 118.926 58.3256 151.344 34.9147C155.609 55.4574 138.741 93.0543 111.985 110.674C132.97 99.2576 154.315 90.9171 169.956 82.0025C164.062 54.2464 179.651 28.5805 188.181 19.2171C196.557 44.0233 179.521 71.4099 169.956 82.0025C180.987 75.7157 190.691 69.8136 199.233 64.0009C207.454 24.7892 237.17 5.66208 251 1Z" fill="#F9F9F9"/>
<path d="M1.27747 251C-0.156398 236.819 3.97773 220.418 13.4322 203.132M199.233 64.0009C235.244 46.7364 247.148 17.8067 251 1C237.17 5.66208 207.454 24.7892 199.233 64.0009ZM199.233 64.0009C190.691 69.8136 180.987 75.7157 169.956 82.0025M169.956 82.0025C184.304 85.428 216.799 88.907 231.999 75.4186C222.18 71.6683 196.024 67.7347 169.956 82.0025ZM169.956 82.0025C179.521 71.4099 196.557 44.0233 188.181 19.2171C179.651 28.5805 164.062 54.2464 169.956 82.0025ZM169.956 82.0025C154.315 90.9171 132.97 99.2576 111.985 110.674M111.985 110.674C123.554 119.535 163.287 129.682 203.305 114.178C193.934 107.309 157.277 99.9499 111.985 110.674ZM111.985 110.674C107.107 113.494 101.897 116.691 96.2805 120.38C84.6023 128.051 69.4231 139.854 59.8306 147.903M111.985 110.674C114.252 109.363 109.855 111.833 111.985 110.674ZM111.985 110.674C111.598 95.1751 118.926 58.3256 151.344 34.9147C155.609 55.4574 138.741 93.0543 111.985 110.674ZM59.8306 147.903C56.8577 132.527 59.6754 90.7674 94.7297 46.7364C98.1291 62.8245 95.9084 105.581 59.8306 147.903ZM59.8306 147.903C61.314 146.607 58.2928 149.194 59.8306 147.903ZM59.8306 147.903C75.3817 157.593 123.347 168.829 172.671 151.775C161.862 144.023 120.536 135.5 59.8306 147.903ZM59.8306 147.903C41.4297 163.982 23.2764 187.228 13.4322 203.132M13.4322 203.132C40.3175 210.68 108.147 214.178 148.629 194.798C127.948 184.741 68.8054 177.729 13.4322 203.132ZM13.4322 203.132C14.6558 200.895 12.0308 205.396 13.4322 203.132ZM13.4322 203.132C5.76146 183.817 -3.06543 130.767 22.9926 73.093C29.9323 93.8295 37.7359 148.868 13.4322 203.132Z" stroke="black" stroke-width="2" stroke-linejoin="round"/>
</svg>
