<svg width="250" height="250" viewBox="0 0 250 250" fill="none" xmlns="http://www.w3.org/2000/svg">
<path d="M164.599 109.091C137.523 127.513 127.313 158.658 127.313 158.658C127.313 158.658 161 159.934 188.075 141.512C215.151 123.09 225.361 91.9458 225.361 91.9458C225.361 91.9458 191.674 90.669 164.599 109.091Z" fill="#F9F9F9"/>
<path d="M96.7999 53.4643C86.7937 75.533 89.6142 101.966 89.6142 101.966C89.6142 101.966 108.657 92.618 118.664 70.5494C128.67 48.4807 125.85 22.048 125.85 22.048C125.85 22.048 106.806 31.3956 96.7999 53.4643Z" fill="#F9F9F9"/>
<path d="M182.042 69.96C160.328 94.626 128.506 100.602 128.506 100.602C128.506 100.602 131.889 66.5872 153.603 41.9212C175.317 17.2552 207.139 11.2788 207.139 11.2788C207.139 11.2788 203.756 45.294 182.042 69.96Z" fill="#F9F9F9"/>
<path d="M103.093 183.501C126.023 176.483 151.451 182.949 151.451 182.949C151.451 182.949 139.704 200.794 116.775 207.812C93.8453 214.83 68.4165 208.364 68.4165 208.364C68.4165 208.364 80.1638 190.519 103.093 183.501Z" fill="#F9F9F9"/>
<path d="M127.313 158.658C127.313 158.658 137.523 127.513 164.599 109.091C191.674 90.669 225.361 91.9458 225.361 91.9458C225.361 91.9458 215.151 123.09 188.075 141.512C161 159.934 127.313 158.658 127.313 158.658ZM127.313 158.658C97.4285 174.18 87.4897 176.117 68.7096 180.621M89.6142 101.966C89.6142 101.966 86.7937 75.533 96.7999 53.4643C106.806 31.3956 125.85 22.048 125.85 22.048C125.85 22.048 128.67 48.4807 118.664 70.5494C108.657 92.618 89.6142 101.966 89.6142 101.966ZM89.6142 101.966C87.464 121.066 89.692 129.323 98.6077 140.612M128.506 100.602C128.506 100.602 160.328 94.626 182.042 69.96C203.756 45.294 207.139 11.2788 207.139 11.2788C207.139 11.2788 175.317 17.2552 153.603 41.9212C131.889 66.5872 128.506 100.602 128.506 100.602ZM128.506 100.602L98.6077 140.612M68.4165 208.364C68.4165 208.364 93.8453 214.83 116.775 207.812C139.704 200.794 151.451 182.949 151.451 182.949C151.451 182.949 126.023 176.483 103.093 183.501C80.1638 190.519 68.4165 208.364 68.4165 208.364ZM68.4165 208.364C52.9988 213.018 45.8626 219.052 32.6929 228.819L68.7096 180.621M68.7096 180.621L98.6077 140.612" stroke="black" stroke-width="2" stroke-linejoin="round"/>
</svg>
