<svg width="250" height="250" viewBox="0 0 250 250" fill="none" xmlns="http://www.w3.org/2000/svg">
<path d="M180.643 112.419C208.663 164.228 183.912 197.487 140.079 217.621C140.07 217.619 140.061 217.617 140.052 217.614C120.7 146.423 120.14 74.8315 138.392 5.5C129.943 43.1353 163.601 82.1752 180.643 112.419Z" fill="#F9F9F9"/>
<path d="M138.392 5.5C120.14 74.8315 120.7 146.423 140.052 217.614C97.457 220.6 32.5091 176.75 67.4616 111.466C86.4839 74.1879 126.627 46.256 138.392 5.5Z" fill="#F9F9F9"/>
<path d="M138.392 5.5C120.14 74.8315 120.7 146.423 140.052 217.614M138.392 5.5C126.627 46.256 86.4839 74.1879 67.4616 111.466C32.5091 176.75 97.457 220.6 140.052 217.614M138.392 5.5C129.943 43.1353 163.601 82.1752 180.643 112.419C208.663 164.228 183.912 197.487 140.079 217.621M140.079 217.621C140.07 217.619 140.061 217.617 140.052 217.614M140.079 217.621C146.75 237.5 156.25 244 156.25 244M140.054 217.619L140.052 217.614" stroke="black" stroke-width="2" stroke-linejoin="round"/>
</svg>
