<svg width="250" height="252" viewBox="0 0 250 252" fill="none" xmlns="http://www.w3.org/2000/svg">
<path d="M138.703 192.948C174.437 207.72 215.348 190.805 230.08 155.168C261.304 79.6368 206.681 31.9778 163.207 12.5217C118.856 -5.07001 46.7106 -10.8545 14.8582 66.198C0.126118 101.836 17.1519 142.701 52.8863 157.473C69.3485 164.278 86.9094 164.358 102.503 158.981C109.749 173.8 122.24 186.143 138.703 192.948Z" fill="#F9F9F9"/>
<path d="M102.503 158.981C86.9094 164.358 69.3485 164.278 52.8863 157.473C17.1519 142.701 0.126118 101.836 14.8582 66.198C46.7106 -10.8545 118.856 -5.07001 163.207 12.5217C206.681 31.9778 261.304 79.6368 230.08 155.168C215.348 190.805 174.437 207.72 138.703 192.948C122.24 186.143 109.749 173.8 102.503 158.981ZM102.503 158.981L64.611 250.645M102.503 158.981L148.582 47.514M102.503 158.981L176.511 87.2131M102.503 158.981L103.09 56.862M102.503 158.981L184.155 127.753M102.503 158.981L69.0519 80.1707M102.503 158.981L161.995 166.311M102.503 158.981L56.2912 122.614" stroke="black" stroke-width="2" stroke-linejoin="round"/>
</svg>
