<svg width="250" height="250" viewBox="0 0 250 250" fill="none" xmlns="http://www.w3.org/2000/svg">
<path d="M155.912 2.42715C167.654 6.33439 191.052 24.8693 154.16 73.0304C164.31 68.659 187.775 63.0142 191.565 78.2111C197.887 103.56 138.059 121.425 138.059 121.425C138.059 121.425 187.675 108.879 189.816 131.382C192.726 161.971 101.079 167.233 92.8108 192.085C101.079 167.234 32.0495 109.147 51.5099 85.365C64.5905 69.3797 98.9157 108.401 98.9157 108.401C98.9157 108.401 62.9805 57.2218 81.9643 41.7447C94.1037 31.8477 109.51 50.4254 115.017 60.0062C114.332 -0.657466 144.17 -1.47963 155.912 2.42715Z" fill="#F9F9F9"/>
<path d="M73.6625 249.637L92.8108 192.085M92.8108 192.085C101.079 167.233 192.726 161.971 189.816 131.382C187.675 108.879 138.059 121.425 138.059 121.425C138.059 121.425 197.887 103.56 191.565 78.2111C187.775 63.0142 164.31 68.659 154.16 73.0304C191.052 24.8693 167.654 6.33439 155.912 2.42715C144.17 -1.47963 114.332 -0.657466 115.017 60.0062C109.51 50.4254 94.1037 31.8477 81.9643 41.7447C62.9805 57.2218 98.9157 108.401 98.9157 108.401C98.9157 108.401 64.5905 69.3797 51.5099 85.365C32.0495 109.147 101.08 167.234 92.8108 192.085ZM92.8108 192.085L139.81 50.8228" stroke="black" stroke-width="2" stroke-linejoin="round"/>
</svg>
