<svg width="250" height="252" viewBox="0 0 250 252" fill="none" xmlns="http://www.w3.org/2000/svg">
<path d="M105.551 203.929C101.893 197.592 97.4717 195.879 84.6222 203.298C68.131 212.819 52.3426 203.434 51.0563 189.672C49.7838 176.056 70.3417 163.488 84.8108 178.276C96.386 190.107 104.999 184.947 106.837 178.762C109.029 171.383 103.593 162.416 87.5732 164.8C67.5479 167.779 58.689 159.521 61.4974 148.169C64.3058 136.818 80.1516 134.825 89.9796 144.095C98.6615 152.285 108.165 149.343 110.259 142.46C112.76 134.244 99.9931 129.244 87.822 130.99C74.9158 132.842 65.6849 124.659 68.4037 114.477C71.5294 102.77 88.1547 98.9411 97.5315 111.522C103.379 119.368 114.872 123.295 118.827 115.07C121.903 108.673 118.634 98.995 100.791 98.9066C86.2357 98.8344 76.5082 86.522 82.2599 75.94C86.6985 67.774 102.368 61.6899 113.516 80.9981C119.159 90.7712 128.112 92.2612 133.357 83.4054C137.027 77.2086 135.424 68.7264 125.068 69.0481C106.942 69.6112 100.263 59.1848 104.608 50.4953C108.953 41.8059 119.332 41.9942 127.464 52.6537C132.512 59.2716 138.255 54.8334 139.868 48.7928C142.368 39.4278 126.698 28.5005 132.217 14.0919C138.061 -1.1642 155.63 -4.70624 164.074 12.2022C172.518 29.1106 147.097 49.9002 156.04 53.978C164.984 58.0558 174.632 41.0868 184.442 47.4818C192.895 52.9918 188.525 65.4165 176.113 66.153C165.918 66.758 155.773 70.6349 156.446 77.5075C157.119 84.3801 164.634 85.9827 174.649 78.2201C184.665 70.4574 197.015 75.8694 198.414 86.2831C199.814 96.6967 183.999 105.828 171.78 98.3599C159.561 90.8921 147.128 96.75 147.099 104.688C147.069 112.627 156.638 114.363 165.612 110.503C176.169 105.961 187.591 108.863 188.08 121.123C188.569 133.383 172.959 140.586 161.962 130.433C154.823 123.841 138.835 118.537 133.071 130.611C128.833 139.486 137.873 146.137 148.462 141.527C165.841 133.963 177.798 145.542 170.069 157.266C160.083 172.413 136.555 154.306 131.943 165.416C127.257 176.702 144.263 178.766 158.927 173.112C175.524 166.713 187.607 193.348 167.916 200.096C147.094 207.231 140.093 187.286 127.66 193.144C115.228 199.002 127.673 222.842 128.734 236.092C129.794 249.342 111.561 256.568 103.999 245.752C96.4361 234.936 110.125 211.85 105.551 203.929Z" fill="#F9F9F9" stroke="black" stroke-width="2" stroke-linejoin="round"/>
</svg>
