<svg width="250" height="252" viewBox="0 0 250 252" fill="none" xmlns="http://www.w3.org/2000/svg">
<path d="M116.988 21.8399C118.843 33.8807 128.901 96.5956 122.206 99.4107C111.192 104.042 114.09 57.7309 98.4369 47.3109C83.6717 37.4816 69.3978 54.3837 92.06 79.7285C106.553 95.9374 111.771 102.884 114.669 110.41C117.568 117.935 112.35 123.145 103.074 113.304C93.7986 103.463 75.4963 76.5028 58.4363 59.4675C41.0444 42.1009 24.8119 68.1508 44.5223 82.623C57.7408 92.3285 117.568 132.407 118.727 145.143C119.411 152.647 107.771 151.51 98.4369 138.196C89.1034 124.882 80.7022 109.081 65.0468 105.931C46.539 102.207 43.3631 120.251 63.6534 135.881C80.8833 149.153 113.51 155.563 111.771 170.035C110.379 181.613 97.2777 176.981 89.1613 171.193C77.3561 162.773 61.1617 158.06 58.4363 170.035C55.5377 182.77 71.1899 192.611 99.5964 188.559C120.89 185.522 116.728 201.551 114.093 211.7L114.09 211.715C110.031 227.345 107.713 250.5 122.206 250.5C134.96 250.5 136.699 228.502 133.8 211.715C131.929 200.876 136.119 193.19 153.511 196.085C169.743 198.786 184.816 194.583 184.816 181.034C184.816 172.35 170.903 167.719 153.511 181.034C143.681 188.559 135.539 192.032 132.641 186.244C130.25 181.47 134.529 171.393 150.032 170.035C194.092 166.176 213.73 143.985 203.367 131.249C195.831 121.987 179.868 127.752 163.946 146.3C150.032 162.509 140.141 164.246 137.858 159.036C133.8 149.774 146.39 140.295 166.844 131.249C207.425 113.304 225.955 78.1843 210.678 66.911C193.08 53.9243 170.574 86.2511 156.081 116.932C146.51 137.193 136.699 135.881 134.96 134.144C131.481 130.671 132.559 125.567 143.655 115.041C155.25 104.042 167.301 88.0398 171.482 77.413C177.859 61.2042 179.019 46.732 165.685 45.5742C149.974 44.2101 150.612 79.7285 143.655 97.0951C138.09 110.988 132.006 101.814 131.481 97.0951C129.742 81.4652 139.481 33.4176 141.337 21.8399C143.655 7.36775 134.379 1 129.162 1C123.944 1 114.669 6.78886 116.988 21.8399Z" fill="#F9F9F9" stroke="black" stroke-width="2" stroke-linejoin="round"/>
</svg>
