<svg width="250" height="252" viewBox="0 0 250 252" fill="none" xmlns="http://www.w3.org/2000/svg">
<path d="M97.0577 40.0954C72.9449 27.081 55.6789 43.7069 54.0475 64.717C52.5521 83.9759 75.778 97.4785 95.0436 95.3593C122.289 92.3622 124.491 120.065 111.359 126.113C96.5018 132.955 86.9903 117.076 62.6218 108.039C38.2533 99.0024 15.3621 110.782 9.61535 134.7C4.20432 157.221 15.9717 183.882 41.5676 189.73C76.7837 197.777 89.4058 160.567 113.077 171.484C136.749 182.4 118.852 220.472 148.537 241.799C167.689 255.559 191.682 254.247 208.608 228.251C225.535 202.256 213.241 166.982 177.73 163.077C138.681 158.783 134.855 128.165 152.598 122.878C166.448 118.751 172.245 136.34 193.906 144.373C215.567 152.405 231.431 142.849 236.464 129.276C241.498 115.703 243.447 100.755 220.332 89.9741C195.608 78.443 171.325 100.567 166.691 84.8742C162.595 71.0037 193.471 65.9713 202.291 51.8088C211.112 37.6463 204.846 17.3164 185.879 7.44685C165.224 -3.30037 146.708 -0.875408 138.233 18.2949C130.694 35.3472 149.057 65.9833 131.492 71.8211C116.959 76.6513 118.27 51.5445 97.0577 40.0954Z" fill="#F9F9F9" stroke="black" stroke-width="2" stroke-linecap="round" stroke-linejoin="round"/>
</svg>
