<svg width="253" height="250" viewBox="0 0 253 250" fill="none" xmlns="http://www.w3.org/2000/svg">
<path d="M93.1856 233.699L160.223 233.669L160.175 128.154L93.1377 128.184L93.1856 233.699Z" fill="#F9F9F9"/>
<path d="M35.0907 17.2286L1.59863 75.2996L93.0017 128.016L126.494 69.9448L35.0907 17.2286Z" fill="#F9F9F9"/>
<path d="M251.605 75.1615L218.061 17.1211L126.705 69.9204L160.25 127.961L251.605 75.1615Z" fill="#F9F9F9"/>
<path d="M93.1856 233.699L160.223 233.669L160.175 128.154L93.1377 128.184L93.1856 233.699Z" stroke="black" stroke-width="2" stroke-linejoin="round"/>
<path d="M35.0907 17.2286L1.59863 75.2996L93.0017 128.016L126.494 69.9448L35.0907 17.2286Z" stroke="black" stroke-width="2" stroke-linejoin="round"/>
<path d="M251.605 75.1615L218.061 17.1211L126.705 69.9204L160.25 127.961L251.605 75.1615Z" stroke="black" stroke-width="2" stroke-linejoin="round"/>
</svg>
