<svg width="252" height="250" viewBox="0 0 252 250" fill="none" xmlns="http://www.w3.org/2000/svg">
<path d="M126 16.168L159.698 72.2213L126 160.506L92.3018 72.2215L126 16.168Z" fill="#F9F9F9"/>
<path d="M251 232.674L185.607 233.831L126 160.506L219.305 175.464L251 232.674Z" fill="#F9F9F9"/>
<path d="M1 232.674L32.6946 175.464L126 160.505L66.3929 233.831L1 232.674Z" fill="#F9F9F9"/>
<path d="M126 16.168L159.698 72.2213L126 160.506L92.3018 72.2215L126 16.168Z" stroke="black" stroke-width="2" stroke-linejoin="round"/>
<path d="M251 232.674L185.607 233.831L126 160.506L219.305 175.464L251 232.674Z" stroke="black" stroke-width="2" stroke-linejoin="round"/>
<path d="M1 232.674L32.6946 175.464L126 160.505L66.3929 233.831L1 232.674Z" stroke="black" stroke-width="2" stroke-linejoin="round"/>
</svg>
