<svg width="252" height="250" viewBox="0 0 252 250" fill="none" xmlns="http://www.w3.org/2000/svg">
<path d="M103.129 128.496L80.2574 233.254L171.743 233.254L148.871 128.496L103.129 128.496Z" fill="#F9F9F9"/>
<path d="M126.03 88.9326L46.7428 16.7461L1 95.9747L103.159 128.547L126.03 88.9326Z" fill="#F9F9F9"/>
<path d="M148.841 128.548L251 95.9757L205.258 16.7471L125.97 88.9334L148.841 128.548Z" fill="#F9F9F9"/>
<path d="M103.129 128.496L80.2574 233.254L171.743 233.254L148.871 128.496L103.129 128.496Z" stroke="black" stroke-width="2" stroke-linejoin="round"/>
<path d="M126.03 88.9326L46.7428 16.7461L1 95.9747L103.159 128.547L126.03 88.9326Z" stroke="black" stroke-width="2" stroke-linejoin="round"/>
<path d="M148.841 128.548L251 95.9757L205.258 16.7471L125.97 88.9334L148.841 128.548Z" stroke="black" stroke-width="2" stroke-linejoin="round"/>
</svg>
