<svg width="252" height="252" viewBox="0 0 252 252" fill="none" xmlns="http://www.w3.org/2000/svg">
<path d="M97.4523 250.921L154.157 251L154.292 154.487L97.5871 154.408L97.4523 250.921Z" fill="#F9F9F9"/>
<path d="M1.07918 97.4608L1 154.166L97.5129 154.3L97.5921 97.5955L1.07918 97.4608Z" fill="#F9F9F9"/>
<path d="M154.532 1.07918L97.8271 1L97.6924 97.5129L154.397 97.5921L154.532 1.07918Z" fill="#F9F9F9"/>
<path d="M250.921 154.541L251 97.8363L154.487 97.7015L154.408 154.406L250.921 154.541Z" fill="#F9F9F9"/>
<path d="M97.4523 250.921L154.157 251L154.292 154.487L97.5871 154.408L97.4523 250.921Z" stroke="black" stroke-width="2" stroke-linejoin="round"/>
<path d="M1.07918 97.4608L1 154.166L97.5129 154.3L97.5921 97.5955L1.07918 97.4608Z" stroke="black" stroke-width="2" stroke-linejoin="round"/>
<path d="M154.532 1.07918L97.8271 1L97.6924 97.5129L154.397 97.5921L154.532 1.07918Z" stroke="black" stroke-width="2" stroke-linejoin="round"/>
<path d="M250.921 154.541L251 97.8363L154.487 97.7015L154.408 154.406L250.921 154.541Z" stroke="black" stroke-width="2" stroke-linejoin="round"/>
</svg>
