<svg width="252" height="252" viewBox="0 0 252 252" fill="none" xmlns="http://www.w3.org/2000/svg">
<path d="M126 1L155.184 49.5437L126 126L96.8164 49.5437L126 1Z" fill="#F9F9F9"/>
<path d="M251 126L202.456 155.184L126 126L202.456 96.8164L251 126Z" fill="#F9F9F9"/>
<path d="M126 251L96.8164 202.456L126 126L155.184 202.456L126 251Z" fill="#F9F9F9"/>
<path d="M1 126L49.5437 96.8164L126 126L49.5437 155.184L1 126Z" fill="#F9F9F9"/>
<path d="M126 126L155.184 49.5437L126 1L96.8164 49.5437L126 126ZM126 126L202.456 155.184L251 126L202.456 96.8164L126 126ZM126 126L96.8164 202.456L126 251L155.184 202.456L126 126ZM126 126L49.5437 96.8164L1 126L49.5437 155.184L126 126Z" stroke="black" stroke-width="2" stroke-linejoin="round"/>
</svg>
