<svg width="252" height="252" viewBox="0 0 252 252" fill="none" xmlns="http://www.w3.org/2000/svg">
<path d="M126.141 125.858L53.7203 251L2.15541 199.435L126.141 125.858Z" fill="#F9F9F9"/>
<path d="M126.142 126.141L1 53.7202L52.5648 2.1554L126.142 126.141Z" fill="#F9F9F9"/>
<path d="M125.859 126.142L198.28 1L249.845 52.5648L125.859 126.142Z" fill="#F9F9F9"/>
<path d="M125.858 125.859L251 198.28L199.435 249.845L125.858 125.859Z" fill="#F9F9F9"/>
<path d="M126.141 125.858L53.7203 251L2.15541 199.435L126.141 125.858Z" stroke="black" stroke-width="2" stroke-linejoin="round"/>
<path d="M126.142 126.141L1 53.7202L52.5648 2.1554L126.142 126.141Z" stroke="black" stroke-width="2" stroke-linejoin="round"/>
<path d="M125.859 126.142L198.28 1L249.845 52.5648L125.859 126.142Z" stroke="black" stroke-width="2" stroke-linejoin="round"/>
<path d="M125.858 125.859L251 198.28L199.435 249.845L125.858 125.859Z" stroke="black" stroke-width="2" stroke-linejoin="round"/>
</svg>
