<svg width="252" height="250" viewBox="0 0 252 250" fill="none" xmlns="http://www.w3.org/2000/svg">
<path d="M99.8361 243.865L151.293 244.062L151.63 156.481L100.172 156.283L99.8361 243.865Z" fill="#F9F9F9"/>
<path d="M1 133.96L16.7133 182.96L100.112 156.216L84.3988 107.216L1 133.96Z" fill="#F9F9F9"/>
<path d="M74.9784 6L33.2324 36.086L84.4394 107.139L126.185 77.0525L74.9784 6Z" fill="#F9F9F9"/>
<path d="M219.542 36.811L178.028 6.4053L126.277 77.0625L167.79 107.468L219.542 36.811Z" fill="#F9F9F9"/>
<path d="M234.91 183.827L251 134.949L167.809 107.565L151.719 156.443L234.91 183.827Z" fill="#F9F9F9"/>
<path d="M99.8361 243.865L151.293 244.062L151.63 156.481L100.172 156.283L99.8361 243.865Z" stroke="black" stroke-width="2" stroke-linejoin="round"/>
<path d="M1 133.96L16.7133 182.96L100.112 156.216L84.3988 107.216L1 133.96Z" stroke="black" stroke-width="2" stroke-linejoin="round"/>
<path d="M74.9784 6L33.2324 36.086L84.4394 107.139L126.185 77.0525L74.9784 6Z" stroke="black" stroke-width="2" stroke-linejoin="round"/>
<path d="M219.542 36.811L178.028 6.4053L126.277 77.0625L167.79 107.468L219.542 36.811Z" stroke="black" stroke-width="2" stroke-linejoin="round"/>
<path d="M234.91 183.827L251 134.949L167.809 107.565L151.719 156.443L234.91 183.827Z" stroke="black" stroke-width="2" stroke-linejoin="round"/>
</svg>
