<svg width="252" height="250" viewBox="0 0 252 250" fill="none" xmlns="http://www.w3.org/2000/svg">
<path d="M126 6.11816L156.685 57.16L126 137.551L95.3143 57.1601L126 6.11816Z" fill="#F9F9F9"/>
<path d="M1 96.9358L59.0261 83.5252L126 137.551L40.0613 141.892L1 96.9358Z" fill="#F9F9F9"/>
<path d="M48.7456 243.882L53.9222 184.552L126 137.551L103.572 220.625L48.7456 243.882Z" fill="#F9F9F9"/>
<path d="M251 96.9358L211.939 141.892L126 137.551L192.974 83.5251L251 96.9358Z" fill="#F9F9F9"/>
<path d="M203.254 243.882L148.427 220.625L126 137.551L198.077 184.552L203.254 243.882Z" fill="#F9F9F9"/>
<path d="M126 137.551L156.685 57.16L126 6.11816L95.3143 57.1601L126 137.551ZM126 137.551L148.427 220.625L203.254 243.882L198.077 184.552L126 137.551ZM126 137.551L59.0261 83.5252L1 96.9358L40.0613 141.892L126 137.551ZM126 137.551L53.9222 184.552L48.7456 243.882L103.572 220.625L126 137.551ZM126 137.551L211.939 141.892L251 96.9358L192.974 83.5251L126 137.551Z" stroke="black" stroke-width="2" stroke-linejoin="round"/>
</svg>
