<svg width="252" height="250" viewBox="0 0 252 250" fill="none" xmlns="http://www.w3.org/2000/svg">
<path d="M106.099 152.728L86.1977 243.882L165.802 243.882L145.901 152.728L106.099 152.728Z" fill="#F9F9F9"/>
<path d="M93.8424 114.905L1 124.146L25.5991 199.855L106.142 152.759L93.8424 114.905Z" fill="#F9F9F9"/>
<path d="M126.027 91.5614L88.5482 6.11861L24.1467 52.9091L93.8261 114.957L126.027 91.5614Z" fill="#F9F9F9"/>
<path d="M158.174 114.955L227.854 52.9077L163.452 6.11719L125.973 91.5599L158.174 114.955Z" fill="#F9F9F9"/>
<path d="M145.858 152.759L226.401 199.854L251 124.146L158.158 114.905L145.858 152.759Z" fill="#F9F9F9"/>
<path d="M106.099 152.728L86.1977 243.882L165.802 243.882L145.901 152.728L106.099 152.728Z" stroke="black" stroke-width="2" stroke-linejoin="round"/>
<path d="M93.8424 114.905L1 124.146L25.5991 199.855L106.142 152.759L93.8424 114.905Z" stroke="black" stroke-width="2" stroke-linejoin="round"/>
<path d="M126.027 91.5614L88.5482 6.11861L24.1467 52.9091L93.8261 114.957L126.027 91.5614Z" stroke="black" stroke-width="2" stroke-linejoin="round"/>
<path d="M158.174 114.955L227.854 52.9077L163.452 6.11719L125.973 91.5599L158.174 114.955Z" stroke="black" stroke-width="2" stroke-linejoin="round"/>
<path d="M145.858 152.759L226.401 199.854L251 124.146L158.158 114.905L145.858 152.759Z" stroke="black" stroke-width="2" stroke-linejoin="round"/>
</svg>
