<svg width="252" height="250" viewBox="0 0 252 250" fill="none" xmlns="http://www.w3.org/2000/svg">
<path d="M126.334 127.031L94.0095 6L157.253 6.00001L126.334 127.031Z" fill="#F9F9F9"/>
<path d="M126.216 127.191L231.455 59.0771L251 119.162L126.216 127.191Z" fill="#F9F9F9"/>
<path d="M126.021 127.129L223.39 206.057L172.223 243.194L126.021 127.129Z" fill="#F9F9F9"/>
<path d="M126.021 126.927L80.9658 243.819L29.7991 206.689L126.021 126.927Z" fill="#F9F9F9"/>
<path d="M126.216 126.865L1 120.176L20.5447 60.0911L126.216 126.865Z" fill="#F9F9F9"/>
<path d="M126.334 127.031L94.0095 6L157.253 6.00001L126.334 127.031Z" stroke="black" stroke-width="2" stroke-linejoin="round"/>
<path d="M126.216 127.191L231.455 59.0771L251 119.162L126.216 127.191Z" stroke="black" stroke-width="2" stroke-linejoin="round"/>
<path d="M126.021 127.129L223.39 206.057L172.223 243.194L126.021 127.129Z" stroke="black" stroke-width="2" stroke-linejoin="round"/>
<path d="M126.021 126.927L80.9658 243.819L29.7991 206.689L126.021 126.927Z" stroke="black" stroke-width="2" stroke-linejoin="round"/>
<path d="M126.216 126.865L1 120.176L20.5447 60.0911L126.216 126.865Z" stroke="black" stroke-width="2" stroke-linejoin="round"/>
</svg>
