<svg width="252" height="264" viewBox="0 0 252 264" fill="none" xmlns="http://www.w3.org/2000/svg">
<path d="M85.4809 131.67C38.0629 103.57 6.86072 114.241 1 132.278C11.5872 99.6945 56.7291 77.9748 121.944 81.8936C134.015 28.1132 114.225 1.73546 95.2595 1.73535C129.52 1.73554 164.126 37.9564 180.552 101.19C235.43 96.0522 254.402 69.0793 248.541 51.042C259.128 83.6257 235.374 127.731 180.31 162.893C202.155 213.497 233.671 223.205 249.014 212.057C221.297 232.195 172.009 223.233 121.553 181.73C80.1758 218.144 80.6821 251.116 96.0255 262.264C68.3083 242.126 61.6013 192.482 85.4809 131.67Z" fill="#F9F9F9" stroke="black" stroke-width="2" stroke-linecap="round" stroke-linejoin="round"/>
</svg>
