<svg width="251" height="252" viewBox="0 0 251 252" fill="none" xmlns="http://www.w3.org/2000/svg">
<path d="M96.6264 250.796L145.292 251L145.639 168.17L96.9733 167.966L96.6264 250.796Z" fill="#F9F9F9"/>
<path d="M1 166.842L25.1563 209.09L97.0626 167.975L72.9063 125.728L1 166.842Z" fill="#F9F9F9"/>
<path d="M25.8824 42.0583L1.37303 84.1021L72.9324 125.818L97.4417 83.7738L25.8824 42.0583Z" fill="#F9F9F9"/>
<path d="M146.39 1.20385L97.7247 1L97.3777 83.8299L146.043 84.0338L146.39 1.20385Z" fill="#F9F9F9"/>
<path d="M242.037 85.1428L217.88 42.8951L145.974 84.0096L170.13 126.257L242.037 85.1428Z" fill="#F9F9F9"/>
<path d="M219.544 209.217L243.877 167.365L172.643 125.949L148.31 167.802L219.544 209.217Z" fill="#F9F9F9"/>
<path d="M96.6264 250.796L145.292 251L145.639 168.17L96.9733 167.966L96.6264 250.796Z" stroke="black" stroke-width="2" stroke-linejoin="round"/>
<path d="M1 166.842L25.1563 209.09L97.0626 167.975L72.9063 125.728L1 166.842Z" stroke="black" stroke-width="2" stroke-linejoin="round"/>
<path d="M25.8824 42.0583L1.37303 84.1021L72.9324 125.818L97.4417 83.7738L25.8824 42.0583Z" stroke="black" stroke-width="2" stroke-linejoin="round"/>
<path d="M146.39 1.20385L97.7247 1L97.3777 83.8299L146.043 84.0338L146.39 1.20385Z" stroke="black" stroke-width="2" stroke-linejoin="round"/>
<path d="M242.037 85.1428L217.88 42.8951L145.974 84.0096L170.13 126.257L242.037 85.1428Z" stroke="black" stroke-width="2" stroke-linejoin="round"/>
<path d="M219.544 209.217L243.877 167.365L172.643 125.949L148.31 167.802L219.544 209.217Z" stroke="black" stroke-width="2" stroke-linejoin="round"/>
</svg>
