<svg width="250" height="252" viewBox="0 0 250 252" fill="none" xmlns="http://www.w3.org/2000/svg">
<path d="M125 1L154.184 49.5436L125 126L95.8166 49.5437L125 1Z" fill="#F9F9F9"/>
<path d="M233.253 63.4999L205.805 113.045L125 126L176.621 62.4981L233.253 63.4999Z" fill="#F9F9F9"/>
<path d="M16.7474 63.4999L73.3792 62.4982L125 126L44.1955 113.046L16.7474 63.4999Z" fill="#F9F9F9"/>
<path d="M233.253 188.5L176.621 189.502L125 126L205.805 138.954L233.253 188.5Z" fill="#F9F9F9"/>
<path d="M125 251L95.8166 202.456L125 126L154.184 202.456L125 251Z" fill="#F9F9F9"/>
<path d="M16.7471 188.5L44.1953 138.954L125 126L73.3789 189.502L16.7471 188.5Z" fill="#F9F9F9"/>
<path d="M125 126L154.184 49.5436L125 1L95.8166 49.5437L125 126ZM125 126L205.805 113.045L233.253 63.4999L176.621 62.4981L125 126ZM125 126L73.3792 62.4982L16.7474 63.4999L44.1955 113.046L125 126ZM125 126L176.621 189.502L233.253 188.5L205.805 138.954L125 126ZM125 126L95.8166 202.456L125 251L154.184 202.456L125 126ZM125 126L44.1953 138.954L16.7471 188.5L73.3789 189.502L125 126Z" stroke="black" stroke-width="2" stroke-linejoin="round"/>
</svg>
