<svg width="258" height="252" viewBox="0 0 258 252" fill="none" xmlns="http://www.w3.org/2000/svg">
<path d="M109.265 160.607L89.5299 251L168.47 251L148.735 160.607L109.265 160.607Z" fill="#F9F9F9"/>
<path d="M89.1614 126.213L1.01173 154.318L40.4816 222.682L108.896 160.395L89.1614 126.213Z" fill="#F9F9F9"/>
<path d="M108.896 91.6055L40.4815 29.3183L1.01172 97.682L89.1614 125.787L108.896 91.6055Z" fill="#F9F9F9"/>
<path d="M148.735 91.3926L168.47 1L89.5299 1.00006L109.265 91.3926L148.735 91.3926Z" fill="#F9F9F9"/>
<path d="M168.838 125.788L256.988 97.6826L217.518 29.3189L149.103 91.6061L168.838 125.788Z" fill="#F9F9F9"/>
<path d="M149.103 160.395L217.518 222.683L256.988 154.319L168.838 126.214L149.103 160.395Z" fill="#F9F9F9"/>
<path d="M109.265 160.607L89.5299 251L168.47 251L148.735 160.607L109.265 160.607Z" stroke="black" stroke-width="2" stroke-linejoin="round"/>
<path d="M89.1614 126.213L1.01173 154.318L40.4816 222.682L108.896 160.395L89.1614 126.213Z" stroke="black" stroke-width="2" stroke-linejoin="round"/>
<path d="M108.896 91.6055L40.4815 29.3183L1.01172 97.682L89.1614 125.787L108.896 91.6055Z" stroke="black" stroke-width="2" stroke-linejoin="round"/>
<path d="M148.735 91.3926L168.47 1L89.5299 1.00006L109.265 91.3926L148.735 91.3926Z" stroke="black" stroke-width="2" stroke-linejoin="round"/>
<path d="M168.838 125.788L256.988 97.6826L217.518 29.3189L149.103 91.6061L168.838 125.788Z" stroke="black" stroke-width="2" stroke-linejoin="round"/>
<path d="M149.103 160.395L217.518 222.683L256.988 154.319L168.838 126.214L149.103 160.395Z" stroke="black" stroke-width="2" stroke-linejoin="round"/>
</svg>
