<svg width="252" height="254" viewBox="0 0 252 254" fill="none" xmlns="http://www.w3.org/2000/svg">
<path d="M125.82 126.808L159.22 252.116H93.8791L125.82 126.808Z" fill="#F9F9F9"/>
<path d="M125.907 126.65L34.2198 218.266L1.55307 161.614L125.907 126.65Z" fill="#F9F9F9"/>
<path d="M126.086 126.657L1 92.9586L33.6668 36.3057L126.086 126.657Z" fill="#F9F9F9"/>
<path d="M126.18 126.808L92.7801 1.5H158.114L126.18 126.808Z" fill="#F9F9F9"/>
<path d="M126.086 126.966L217.78 35.3493L250.447 92.0021L126.086 126.966Z" fill="#F9F9F9"/>
<path d="M125.907 126.966L251 160.657L218.333 217.31L125.907 126.966Z" fill="#F9F9F9"/>
<path d="M125.82 126.808L159.22 252.116H93.8791L125.82 126.808Z" stroke="black" stroke-width="2" stroke-linejoin="round"/>
<path d="M125.907 126.65L34.2198 218.266L1.55307 161.614L125.907 126.65Z" stroke="black" stroke-width="2" stroke-linejoin="round"/>
<path d="M126.086 126.657L1 92.9586L33.6668 36.3057L126.086 126.657Z" stroke="black" stroke-width="2" stroke-linejoin="round"/>
<path d="M126.18 126.808L92.7801 1.5H158.114L126.18 126.808Z" stroke="black" stroke-width="2" stroke-linejoin="round"/>
<path d="M126.086 126.966L217.78 35.3493L250.447 92.0021L126.086 126.966Z" stroke="black" stroke-width="2" stroke-linejoin="round"/>
<path d="M125.907 126.966L251 160.657L218.333 217.31L125.907 126.966Z" stroke="black" stroke-width="2" stroke-linejoin="round"/>
</svg>
