<svg width="252" height="250" viewBox="0 0 252 250" fill="none" xmlns="http://www.w3.org/2000/svg">
<path d="M140.577 175.649C128.665 224.215 146.162 248.025 162.914 248.025C133.462 248.025 103.714 217.056 89.4257 162.948C41.4099 176.916 29.5376 203.973 37.9136 218.481C23.1877 192.975 35.1339 151.728 74.8487 112.3C38.7448 77.7007 9.37607 80.9479 1 95.4555C15.7261 69.9494 57.42 59.6717 111.423 74.3516C123.335 25.7852 105.838 1.97471 89.0864 1.97461C118.538 1.97478 148.286 32.9439 162.574 87.0518C210.59 73.0846 222.462 46.0269 214.086 31.5192C228.812 57.0255 216.866 98.2722 177.151 137.7C213.255 172.3 242.624 169.052 251 154.545C236.274 180.051 194.58 190.329 140.577 175.649Z" fill="#F9F9F9" stroke="black" stroke-width="2" stroke-linecap="round" stroke-linejoin="round"/>
</svg>
