<svg width="252" height="252" viewBox="0 0 252 252" fill="none" xmlns="http://www.w3.org/2000/svg">
<path fill-rule="evenodd" clip-rule="evenodd" d="M126 1C126 1 107.608 67.2126 126 104.577C144.392 67.2126 126 1 126 1ZM104.577 126C67.2126 107.608 1 126 1 126C1 126 67.2126 144.392 104.577 126ZM126 147.423C107.608 184.787 126 251 126 251C126 251 144.392 184.787 126 147.423ZM147.423 126C184.787 144.392 251 126 251 126C251 126 184.787 107.608 147.423 126Z" fill="#F9F9F9"/>
<path d="M126 104.577C107.608 67.2126 126 1 126 1C126 1 144.392 67.2126 126 104.577ZM126 104.577C123.677 109.296 120.768 113.554 117.161 117.161C113.554 120.768 109.296 123.677 104.577 126M126 104.577C128.323 109.296 131.232 113.554 134.839 117.161C138.446 120.768 142.704 123.677 147.423 126M104.577 126C67.2126 107.608 1 126 1 126C1 126 67.2126 144.392 104.577 126ZM104.577 126C109.296 128.323 113.554 131.232 117.161 134.839C120.768 138.446 123.677 142.704 126 147.423M126 147.423C107.608 184.787 126 251 126 251C126 251 144.392 184.787 126 147.423ZM126 147.423C128.323 142.704 131.232 138.446 134.839 134.839C138.446 131.232 142.704 128.323 147.423 126M147.423 126C184.787 144.392 251 126 251 126C251 126 184.787 107.608 147.423 126Z" stroke="black" stroke-width="2" stroke-linejoin="round"/>
</svg>
