<svg width="252" height="250" viewBox="0 0 252 250" fill="none" xmlns="http://www.w3.org/2000/svg">
<path fill-rule="evenodd" clip-rule="evenodd" d="M126 6C126 6 100.047 85.1016 126 119.203C151.953 85.1016 126 6 126 6ZM108.662 131.799C84.2501 96.5784 1 96.8178 1 96.8178C1 96.8178 68.2101 145.945 108.662 131.799ZM115.285 152.181C74.2438 164.515 48.7458 243.764 48.7458 243.764C48.7458 243.764 116.237 195.025 115.285 152.181ZM203.254 243.764C203.254 243.764 177.756 164.515 136.715 152.181C135.763 195.025 203.254 243.764 203.254 243.764ZM143.338 131.799C183.79 145.945 251 96.8178 251 96.8178C251 96.8178 167.75 96.5784 143.338 131.799Z" fill="#F9F9F9"/>
<path d="M126 119.203C100.047 85.1016 126 6 126 6C126 6 151.953 85.1016 126 119.203ZM126 119.203C123.81 122.08 121.25 124.638 118.275 126.8C115.299 128.962 112.076 130.606 108.662 131.799M126 119.203C128.19 122.08 130.75 124.638 133.725 126.8C136.701 128.962 139.924 130.606 143.338 131.799M108.662 131.799C84.2501 96.5784 1 96.8178 1 96.8178C1 96.8178 68.2101 145.945 108.662 131.799ZM108.662 131.799C110.722 134.771 112.363 137.996 113.5 141.494C114.637 144.993 115.204 148.566 115.285 152.181M115.285 152.181C74.2438 164.515 48.7458 243.764 48.7458 243.764C48.7458 243.764 116.237 195.025 115.285 152.181ZM115.285 152.181C118.748 151.14 122.322 150.576 126 150.576C129.678 150.576 133.252 151.14 136.715 152.181M136.715 152.181C177.756 164.515 203.254 243.764 203.254 243.764C203.254 243.764 135.763 195.025 136.715 152.181ZM136.715 152.181C136.796 148.566 137.363 144.993 138.5 141.494C139.637 137.996 141.278 134.771 143.338 131.799M143.338 131.799C183.79 145.945 251 96.8178 251 96.8178C251 96.8178 167.75 96.5784 143.338 131.799Z" stroke="black" stroke-width="2" stroke-linejoin="round"/>
</svg>
