<svg width="250" height="252" viewBox="0 0 250 252" fill="none" xmlns="http://www.w3.org/2000/svg">
<path fill-rule="evenodd" clip-rule="evenodd" d="M124.753 1C124.753 1 96.1279 82.0912 124.753 110.406C153.378 82.0912 124.753 1 124.753 1ZM111.248 118.203C101.04 79.2554 16.5 63.5 16.5 63.5C16.5 63.5 72.4144 128.836 111.248 118.203ZM111.248 133.797C72.4144 123.164 16.5 188.5 16.5 188.5C16.5 188.5 101.04 172.745 111.248 133.797ZM124.753 141.594C96.1279 169.909 124.753 251 124.753 251C124.753 251 153.378 169.909 124.753 141.594ZM233.006 188.5C233.006 188.5 177.092 123.164 138.258 133.797C148.467 172.745 233.006 188.5 233.006 188.5ZM138.258 118.203C177.092 128.836 233.006 63.5 233.006 63.5C233.006 63.5 148.467 79.2554 138.258 118.203Z" fill="#F9F9F9"/>
<path d="M124.753 110.406C96.1279 82.0912 124.753 1 124.753 1C124.753 1 153.378 82.0912 124.753 110.406ZM124.753 110.406C126.593 112.225 128.668 113.827 131.003 115.175C133.338 116.523 135.763 117.52 138.258 118.203M124.753 110.406C122.914 112.225 120.838 113.827 118.503 115.175C116.168 116.523 113.743 117.52 111.248 118.203M111.248 118.203C101.04 79.2554 16.5 63.5 16.5 63.5C16.5 63.5 72.4144 128.836 111.248 118.203ZM111.248 118.203C111.904 120.706 112.253 123.304 112.253 126C112.253 128.696 111.904 131.294 111.248 133.797M111.248 133.797C72.4144 123.164 16.5 188.5 16.5 188.5C16.5 188.5 101.04 172.745 111.248 133.797ZM111.248 133.797C113.743 134.48 116.168 135.477 118.503 136.825C120.838 138.173 122.914 139.775 124.753 141.594M124.753 141.594C96.1279 169.909 124.753 251 124.753 251C124.753 251 153.378 169.909 124.753 141.594ZM124.753 141.594C126.593 139.775 128.668 138.173 131.003 136.825C133.338 135.477 135.763 134.48 138.258 133.797M138.258 133.797C177.092 123.164 233.006 188.5 233.006 188.5C233.006 188.5 148.467 172.745 138.258 133.797ZM138.258 133.797C137.602 131.294 137.253 128.696 137.253 126C137.253 123.304 137.602 120.706 138.258 118.203M138.258 118.203C177.092 128.836 233.006 63.5 233.006 63.5C233.006 63.5 148.467 79.2554 138.258 118.203Z" stroke="black" stroke-width="2" stroke-linejoin="round"/>
</svg>
