<svg width="252" height="250" viewBox="0 0 252 250" fill="none" xmlns="http://www.w3.org/2000/svg">
<path d="M126 6L79.6475 73.634L126 137.433V6Z" fill="#F9F9F9"/>
<path d="M1 96.8178L51 161.802L126 137.433L1 96.8178Z" fill="#F9F9F9"/>
<path d="M48.7458 243.764L126 216.292V137.433L48.7458 243.764Z" fill="#F9F9F9"/>
<path d="M203.254 243.764L201 161.802L126 137.433L203.254 243.764Z" fill="#F9F9F9"/>
<path d="M251 96.8178L172.353 73.634L126 137.433L251 96.8178Z" fill="#F9F9F9"/>
<path d="M126 137.433L79.6475 73.634L126 6V137.433ZM126 137.433L1 96.8178L51 161.802L126 137.433ZM126 137.433L201 161.802L203.254 243.764L126 137.433ZM126 137.433L251 96.8178L172.353 73.634L126 137.433ZM126 137.433L48.7458 243.764L126 216.292V137.433Z" stroke="black" stroke-width="2" stroke-linejoin="round"/>
</svg>
