<svg width="252" height="250" viewBox="0 0 252 250" fill="none" xmlns="http://www.w3.org/2000/svg">
<path d="M162.298 7C137.061 7.65909 150.993 48.9902 155.709 61.3017C156.594 63.6113 157.583 65.855 158.59 68.114L177.188 109.832L136.971 149.906L96.7542 109.832C109.14 82.0477 127.01 7.92136 162.298 7Z" fill="#F9F9F9"/>
<path d="M247.863 242.681C259.889 220.53 217.051 211.875 204.034 209.789C201.598 209.399 199.167 209.131 196.714 208.871L151.233 204.052L136.54 149.22L191.372 134.528C209.292 159.149 264.674 211.718 247.863 242.681Z" fill="#F9F9F9"/>
<path d="M1 198.898C14.1704 220.389 43.0854 187.617 51.3999 177.387C52.956 175.472 54.4035 173.501 55.8554 171.507L82.7695 134.528L137.601 149.22L122.909 204.052C92.6268 207.26 19.4095 228.938 1 198.898Z" fill="#F9F9F9"/>
<path d="M162.298 7C137.061 7.65909 150.993 48.9902 155.709 61.3017C156.594 63.6113 157.583 65.855 158.59 68.114L177.188 109.832L136.971 149.906L96.7542 109.832C109.14 82.0477 127.01 7.92136 162.298 7Z" stroke="black" stroke-width="2" stroke-linejoin="round"/>
<path d="M247.863 242.681C259.889 220.53 217.051 211.875 204.034 209.789C201.598 209.399 199.167 209.131 196.714 208.871L151.233 204.052L136.54 149.22L191.372 134.528C209.292 159.149 264.674 211.718 247.863 242.681Z" stroke="black" stroke-width="2" stroke-linejoin="round"/>
<path d="M1 198.898C14.1704 220.389 43.0854 187.617 51.3999 177.387C52.956 175.472 54.4035 173.501 55.8554 171.507L82.7695 134.528L137.601 149.22L122.909 204.052C92.6268 207.26 19.4095 228.938 1 198.898Z" stroke="black" stroke-width="2" stroke-linejoin="round"/>
</svg>
