<svg width="252" height="250" viewBox="0 0 252 250" fill="none" xmlns="http://www.w3.org/2000/svg">
<path d="M138.541 1.5C120.98 1.9586 130.674 30.7181 133.956 39.2849C134.572 40.892 135.26 42.4533 135.96 44.0252L148.901 73.0538C136.109 89.0381 127.011 107.654 122.259 127.568L120.917 133.19L119.575 127.568C114.823 107.654 105.725 89.0381 92.933 73.0538C101.552 53.7207 113.986 2.1411 138.541 1.5Z" fill="#F9F9F9"/>
<path d="M251 108.815C245.137 92.2557 220.781 110.363 213.648 116.131C212.309 117.213 211.037 118.35 209.759 119.502L186.15 140.78C166.995 133.553 146.479 130.653 126.071 132.287L120.309 132.749L125.242 129.735C142.712 119.062 157.606 104.656 168.855 87.551C189.905 89.7736 242.802 85.6601 251 108.815Z" fill="#F9F9F9"/>
<path d="M183.689 248.933C197.627 238.24 172.879 220.671 165.189 215.669C163.746 214.731 162.272 213.872 160.781 213.012L133.249 197.134C134.203 176.684 130.621 156.275 122.761 137.371L120.541 132.034L124.932 135.794C140.481 149.111 158.784 158.824 178.529 164.237C182.92 184.943 203.178 233.981 183.689 248.933Z" fill="#F9F9F9"/>
<path d="M29.6299 228.215C44.1063 238.166 53.1678 209.201 55.5484 200.341C55.9949 198.679 56.356 197.012 56.7131 195.328L63.3062 164.237C83.0505 158.824 101.353 149.111 116.903 135.794L121.293 132.034L119.074 137.371C111.213 156.275 107.632 176.684 108.586 197.134C90.2492 207.709 49.8721 242.129 29.6299 228.215Z" fill="#F9F9F9"/>
<path d="M1.7263 75.2932C-3.26405 92.136 27.0836 91.8034 36.2451 91.3297C37.9638 91.2408 39.6613 91.0689 41.3728 90.8882L72.9796 87.551C84.2286 104.656 99.122 119.062 116.592 129.735L121.525 132.749L115.763 132.287C95.3557 130.653 74.8394 133.553 55.6845 140.78C39.9609 126.609 -5.25183 98.8444 1.7263 75.2932Z" fill="#F9F9F9"/>
<path d="M138.541 1.5C120.98 1.9586 130.674 30.7181 133.956 39.2849C134.572 40.892 135.26 42.4533 135.96 44.0252L148.901 73.0538C136.109 89.0381 127.011 107.654 122.259 127.568L120.917 133.19L119.575 127.568C114.823 107.654 105.725 89.0381 92.933 73.0538C101.552 53.7207 113.986 2.1411 138.541 1.5Z" stroke="black" stroke-width="2" stroke-linejoin="round"/>
<path d="M251 108.815C245.137 92.2557 220.781 110.363 213.648 116.131C212.309 117.213 211.037 118.35 209.759 119.502L186.15 140.78C166.995 133.553 146.479 130.653 126.071 132.287L120.309 132.749L125.242 129.735C142.712 119.062 157.606 104.656 168.855 87.551C189.905 89.7736 242.802 85.6601 251 108.815Z" stroke="black" stroke-width="2" stroke-linejoin="round"/>
<path d="M183.689 248.933C197.627 238.24 172.879 220.671 165.189 215.669C163.746 214.731 162.272 213.872 160.781 213.012L133.249 197.134C134.203 176.684 130.621 156.275 122.761 137.371L120.541 132.034L124.932 135.794C140.481 149.111 158.784 158.824 178.529 164.237C182.92 184.943 203.178 233.981 183.689 248.933Z" stroke="black" stroke-width="2" stroke-linejoin="round"/>
<path d="M29.6299 228.215C44.1063 238.166 53.1678 209.201 55.5484 200.341C55.9949 198.679 56.356 197.012 56.7131 195.328L63.3062 164.237C83.0505 158.824 101.353 149.111 116.903 135.794L121.293 132.034L119.074 137.371C111.213 156.275 107.632 176.684 108.586 197.134C90.2492 207.709 49.8721 242.129 29.6299 228.215Z" stroke="black" stroke-width="2" stroke-linejoin="round"/>
<path d="M1.7263 75.2932C-3.26405 92.136 27.0836 91.8034 36.2451 91.3297C37.9638 91.2408 39.6613 91.0689 41.3728 90.8882L72.9796 87.551C84.2286 104.656 99.122 119.062 116.592 129.735L121.525 132.749L115.763 132.287C95.3557 130.653 74.8394 133.553 55.6845 140.78C39.9609 126.609 -5.25183 98.8444 1.7263 75.2932Z" stroke="black" stroke-width="2" stroke-linejoin="round"/>
</svg>
