<svg width="250" height="250" viewBox="0 0 250 250" fill="none" xmlns="http://www.w3.org/2000/svg">
<path d="M137.176 39.321C134.156 31.4382 125.236 4.97474 141.395 4.55273C118.8 5.14267 107.359 52.6044 99.4282 70.394C111.199 85.1021 119.571 102.232 123.944 120.556L124.994 124.957L120.593 123.906C102.269 119.534 85.1392 111.162 70.4311 99.3911L43.72 111.299C42.2736 111.944 40.8369 112.577 39.3581 113.143C31.4753 116.163 5.01185 125.083 4.58984 108.925C5.17978 131.519 52.6415 142.96 70.4311 150.891C85.1392 139.12 102.269 130.748 120.593 126.376L124.994 125.326L123.944 129.727C119.571 148.05 111.199 165.18 99.4282 179.888L111.336 206.599C111.981 208.046 112.614 209.482 113.18 210.961C116.2 218.844 125.12 245.307 108.962 245.729C131.556 245.14 142.998 197.678 150.928 179.888C139.157 165.18 130.786 148.05 126.413 129.727L125.363 125.326L129.764 126.376C148.087 130.749 165.217 139.12 179.925 150.891L206.636 138.983C208.083 138.339 209.52 137.705 210.998 137.139C218.881 134.119 245.345 125.199 245.767 141.358C245.177 118.763 197.715 107.322 179.925 99.3911C165.217 111.162 148.087 119.534 129.764 123.906L125.363 124.957L126.413 120.556C130.786 102.232 139.157 85.1021 150.928 70.394L139.02 43.6829C138.376 42.2365 137.743 40.7998 137.176 39.321Z" fill="#F9F9F9" stroke="black" stroke-width="2" stroke-linejoin="round"/>
</svg>
