<svg width="252" height="250" viewBox="0 0 252 250" fill="none" xmlns="http://www.w3.org/2000/svg">
<path d="M140.534 127.154C136.613 106.778 153.159 86.7744 162.022 68.0129C165.519 60.6114 166.781 52.0722 165.116 43.4179C160.945 21.7448 139.994 7.5565 118.321 11.7275C96.6475 15.8985 82.4592 36.8493 86.6302 58.5224C87.2772 61.8847 88.3281 65.0668 89.7229 68.0282C98.5626 86.7965 115.128 106.803 111.207 127.175C109.625 135.395 105.32 142.867 98.9931 148.346C83.496 161.767 58.3345 157.565 37.8931 159.123C29.6505 159.752 21.5304 162.934 14.8016 168.762C-1.88235 183.21 -3.69436 208.449 10.7544 225.133C25.2032 241.816 50.4412 243.629 67.1252 229.18C69.8523 226.818 72.182 224.168 74.1084 221.314C85.559 204.351 94.4071 180.426 113.746 173.727C121.602 171.006 130.161 171.012 138.016 173.733C157.456 180.467 166.431 204.541 178.011 221.546C182.678 228.399 189.509 233.863 197.945 236.786C218.8 244.01 241.563 232.96 248.788 212.105C256.012 191.25 244.962 168.488 224.107 161.263C220.814 160.122 217.473 159.437 214.153 159.174C193.633 157.55 168.336 161.842 152.775 148.366C146.433 142.874 142.12 135.392 140.534 127.154Z" fill="#F9F9F9" stroke="black" stroke-width="2" stroke-linejoin="round"/>
</svg>
