<svg width="252" height="250" viewBox="0 0 252 250" fill="none" xmlns="http://www.w3.org/2000/svg">
<path d="M115.939 131.411C117.641 119.271 108.659 108.334 98.4166 101.626C86.7515 93.9863 78.3141 81.5323 76.2237 66.6194C72.3797 39.1969 91.4528 13.8446 118.825 9.99348C146.196 6.14236 171.502 25.2508 175.346 52.6733C178.111 72.3988 169.018 91.0531 153.509 101.404C143.301 108.217 134.347 119.201 136.053 131.37C136.844 137.015 139.798 142.169 144.282 145.678C153.824 153.145 167.561 150.859 178.37 145.393C190.8 139.108 205.769 138.022 219.692 143.659C245.319 154.035 257.697 183.26 247.341 208.934C236.984 234.608 207.813 247.01 182.186 236.634C163.597 229.107 151.979 211.663 150.953 192.85C150.292 180.739 145.436 167.674 134.211 163.129C128.943 160.996 123.054 160.996 117.787 163.129C106.581 167.666 101.694 180.703 101.021 192.794C100.246 206.729 93.6994 220.27 81.858 229.537C60.0753 246.583 28.6235 242.711 11.6086 220.888C-5.40633 199.065 -1.54128 167.555 20.2414 150.509C36.0532 138.135 56.9596 136.783 73.7409 145.319C84.5171 150.8 98.2118 153.115 107.736 145.662C112.207 142.163 115.15 137.039 115.939 131.411Z" fill="#F9F9F9" stroke="black" stroke-width="2" stroke-linejoin="round"/>
</svg>
