<svg width="253" height="250" viewBox="0 0 253 250" fill="none" xmlns="http://www.w3.org/2000/svg">
<path d="M82.7707 53.7495C82.6559 30.256 101.608 11.1172 125.102 11.0005C148.595 10.8839 167.734 29.8401 167.849 53.3336C167.887 61.2036 163.188 76.3755 156.921 93.0746C147.663 117.744 163.544 144.945 189.579 149.008C207.201 151.759 222.722 155.124 229.556 159.025C249.961 170.673 257.057 196.654 245.409 217.059C233.761 237.463 207.778 244.552 187.375 232.908C180.541 229.006 169.753 217.352 158.425 203.577C141.689 183.225 110.193 183.379 93.6573 203.894C82.4652 217.779 71.7912 229.537 64.9959 233.505C44.7078 245.351 18.6558 238.51 6.8101 218.218C-5.03563 197.926 1.80855 171.878 22.0967 160.033C28.8899 156.065 44.3777 152.548 61.9731 149.626C87.9666 145.31 103.582 117.956 94.084 93.378C87.6552 76.7421 82.8092 61.6184 82.7707 53.7495Z" fill="#F9F9F9" stroke="black" stroke-width="2" stroke-linejoin="round"/>
</svg>
