<svg width="253" height="250" viewBox="0 0 253 250" fill="none" xmlns="http://www.w3.org/2000/svg">
<path d="M82.7707 53.7495C82.6559 30.256 101.608 11.1172 125.102 11.0005C148.595 10.8839 167.734 29.8401 167.849 53.3336C167.926 69.1935 148.764 114.707 136.301 142.614C166.73 145.478 215.783 151.163 229.556 159.025C249.961 170.673 257.057 196.654 245.409 217.059C233.761 237.463 207.778 244.552 187.375 232.908C173.603 225.045 143.769 185.698 125.832 160.953C108.137 185.873 78.6901 225.509 64.9959 233.505C44.7078 245.351 18.6558 238.51 6.8101 218.218C-5.03563 197.926 1.80855 171.878 22.0967 160.033C35.7862 152.037 84.7831 145.874 115.184 142.714C102.451 114.929 82.8482 69.6075 82.7707 53.7495Z" fill="#F9F9F9" stroke="black" stroke-width="2" stroke-linejoin="round"/>
</svg>
