<svg width="252" height="250" viewBox="0 0 252 250" fill="none" xmlns="http://www.w3.org/2000/svg">
<path d="M81.8179 90.2375C81.6475 47.4082 125.14 12.5003 125.14 12.5003C125.14 12.5003 168.91 47.045 169.08 89.8743C169.133 110.634 158.981 129.513 148.493 143.466C165.824 141.223 187.272 141.699 205.286 151.982C242.483 173.216 251 228.378 251 228.378C251 228.378 199.11 248.962 161.962 227.676C143.948 217.378 132.662 199.158 125.812 183.099C119.091 199.216 107.953 217.528 90.0215 227.964C52.9816 249.522 1 229.355 1 229.355C1 229.355 9.05688 174.204 46.0965 152.633C64.0285 142.19 85.4627 141.533 102.805 143.633C92.1998 129.762 81.9004 110.97 81.8179 90.2375Z" fill="#F9F9F9" stroke="black" stroke-width="2" stroke-linejoin="round"/>
</svg>
