<svg width="252" height="250" viewBox="0 0 252 250" fill="none" xmlns="http://www.w3.org/2000/svg">
<path d="M168.513 52.7659C168.347 75.6682 126.2 142.746 126.2 142.746C126.2 142.746 85.4171 75.0656 85.583 52.167C85.7488 29.2684 104.45 10.8349 127.348 11.0008C150.247 11.1666 168.678 29.8655 168.513 52.7659Z" fill="#F9F9F9" stroke="black" stroke-width="2" stroke-linejoin="round"/>
<path d="M188.535 233.502C168.785 221.909 131.767 151.866 131.767 151.866C131.767 151.866 210.77 150.392 230.519 161.982C250.268 173.571 256.88 198.983 245.285 218.74C233.69 238.496 208.284 245.097 188.535 233.502Z" fill="#F9F9F9" stroke="black" stroke-width="2" stroke-linejoin="round"/>
<path d="M22.0022 160.472C41.9173 149.167 121.082 152.128 121.082 152.128C121.082 152.128 82.8606 221.287 62.9454 232.592C43.0303 243.898 17.7213 236.913 6.41392 217.011C-4.89349 197.109 2.08703 171.78 22.0022 160.472Z" fill="#F9F9F9" stroke="black" stroke-width="2" stroke-linejoin="round"/>
</svg>
