<svg width="252" height="254" viewBox="0 0 252 254" fill="none" xmlns="http://www.w3.org/2000/svg">
<path d="M161.49 31.7855C163.356 43.1124 159.74 54.0758 152.585 61.9669C143.593 71.8842 133.466 84.1132 135.642 97.3224C137.319 107.506 145.309 115.536 155.492 117.213C168.583 119.369 180.657 109.379 190.441 100.418C195.438 95.8416 201.777 92.6158 208.962 91.4324C228.665 88.187 247.268 101.529 250.514 121.232C253.759 140.935 240.418 159.538 220.714 162.783C209.312 164.662 198.277 160.984 190.375 153.734C180.598 144.763 168.531 134.735 155.439 136.892C145.295 138.563 137.331 146.516 135.66 156.66C133.516 169.681 143.43 181.693 152.362 191.408C156.964 196.413 160.208 202.771 161.395 209.98C164.641 229.683 151.299 248.287 131.596 251.532C111.893 254.778 93.2895 241.436 90.0441 221.733C88.1585 210.285 91.8722 199.209 99.1797 191.3C108.137 181.606 118.104 169.624 115.959 156.6C114.294 146.492 106.366 138.568 96.2576 136.903C83.2855 134.766 71.3133 144.625 61.6474 153.536C56.6367 158.156 50.2654 161.413 43.0381 162.603C23.3351 165.848 4.73168 152.507 1.48628 132.804C-1.75912 113.101 11.5824 94.4973 31.2855 91.2519C42.7658 89.361 53.8728 93.1012 61.7859 100.45C71.4201 109.397 83.3542 119.319 96.3274 117.182C106.397 115.523 114.31 107.506 115.969 97.4365C118.144 84.2303 108.053 71.8719 99.0456 61.9723C94.5111 56.9886 91.3158 50.6814 90.1392 43.5381C86.8938 23.8351 100.235 5.23168 119.938 1.98628C139.642 -1.25912 158.245 12.0824 161.49 31.7855Z" fill="#F9F9F9" stroke="black" stroke-width="2" stroke-linejoin="round"/>
</svg>
