<svg width="252" height="254" viewBox="0 0 252 254" fill="none" xmlns="http://www.w3.org/2000/svg">
<path d="M171.343 42.3659C173.385 62.5708 162.044 81.0428 144.52 88.9462C137.067 92.3079 130.956 99.4477 131.779 107.594C132.478 114.512 137.947 120.05 144.854 120.75C152.88 121.564 159.846 115.524 163.146 108.15C169.646 93.6248 183.504 82.8837 200.45 81.1655C225.683 78.6071 248.209 97.021 250.763 122.294C253.317 147.567 234.933 170.129 209.7 172.687C189.461 174.739 170.963 163.298 163.116 145.647C159.834 138.264 152.802 132.226 144.774 133.04C137.95 133.732 132.491 139.143 131.801 145.978C130.999 153.913 136.94 160.803 144.215 164.045C158.776 170.534 169.553 184.442 171.273 201.461C173.827 226.734 155.443 249.296 130.21 251.854C104.978 254.413 82.4519 235.999 79.8977 210.726C77.8421 190.387 89.3472 171.804 107.069 163.99C114.358 160.776 120.303 153.829 119.501 145.893C118.819 139.141 113.482 133.745 106.741 133.061C98.9231 132.269 92.1312 138.13 88.9571 145.33C82.5014 159.973 68.5865 170.82 51.5496 172.547C26.317 175.106 3.79127 156.692 1.23699 131.419C-1.31728 106.146 17.0671 83.5838 42.2997 81.0255C62.6728 78.9598 81.2812 90.5662 89.0376 108.416C92.1736 115.633 98.9504 121.511 106.769 120.719C113.494 120.037 118.812 114.711 119.492 107.975L119.538 107.52C120.361 99.3753 114.242 92.3111 106.792 88.942C92.3494 82.4097 81.6784 68.5588 79.9675 51.6306C77.4132 26.3576 95.7976 3.79575 121.03 1.23737C146.263 -1.321 168.789 17.0929 171.343 42.3659Z" fill="#F9F9F9" stroke="black" stroke-width="2" stroke-linejoin="round"/>
</svg>
