<svg width="252" height="252" viewBox="0 0 252 252" fill="none" xmlns="http://www.w3.org/2000/svg">
<path d="M161.755 214.566C161.488 234.954 144.742 251.263 124.356 250.997C103.97 250.731 87.6543 233.984 87.9316 213.596C88.0264 206.143 93.154 191.232 99.6224 175.311C105.541 160.743 90.7251 145.532 76.0068 151.068C59.9215 157.117 44.8807 161.853 37.4279 161.755C17.04 161.488 0.729398 144.742 1.0034 124.346C1.27741 103.95 18.0097 87.6559 38.3976 87.9234C45.8506 88.0211 60.7609 93.1504 76.6808 99.6197C91.2488 105.54 106.46 90.7232 100.925 76.0046C94.8762 59.9208 90.1407 44.8813 90.2385 37.4279C90.5059 17.0367 107.251 0.729399 127.647 1.0034C148.043 1.27741 164.339 18.0097 164.07 38.3992C163.972 45.8525 158.842 60.7649 152.372 76.6866C146.452 91.2541 161.267 106.465 175.985 100.93C192.071 94.8804 207.113 90.1431 214.566 90.2385C234.954 90.4994 251.264 107.251 250.99 127.647C250.716 148.043 233.984 164.339 213.596 164.07C206.143 163.975 191.235 158.848 175.316 152.379C160.748 146.459 145.535 161.275 151.07 175.994C157.118 192.077 161.853 207.114 161.755 214.566Z" fill="#F9F9F9" stroke="black" stroke-width="2" stroke-linejoin="round"/>
</svg>
