<svg width="252" height="252" viewBox="0 0 252 252" fill="none" xmlns="http://www.w3.org/2000/svg">
<path d="M161.755 214.566C161.488 234.954 144.742 251.263 124.356 250.997C103.97 250.731 87.6543 233.984 87.9316 213.596C88.1138 199.268 106.894 157.381 118.045 133.742C94.1208 144.268 51.7545 161.943 37.4279 161.755C17.04 161.488 0.729398 144.742 1.0034 124.346C1.27741 103.95 18.0097 87.6559 38.3976 87.9234C52.7252 88.1113 94.6117 106.894 118.251 118.045C107.725 94.121 90.0505 51.7566 90.2385 37.4279C90.5059 17.0367 107.251 0.729399 127.647 1.0034C148.043 1.27741 164.339 18.0097 164.07 38.3992C163.882 52.7261 145.099 94.614 133.948 118.253C157.872 107.729 200.239 90.0552 214.566 90.2385C234.954 90.4994 251.264 107.251 250.99 127.647C250.716 148.043 233.984 164.339 213.596 164.07C199.269 163.888 157.383 145.104 133.743 133.951C144.269 157.875 161.943 200.24 161.755 214.566Z" fill="#F9F9F9" stroke="black" stroke-width="2" stroke-linejoin="round"/>
</svg>
