<svg width="252" height="252" viewBox="0 0 252 252" fill="none" xmlns="http://www.w3.org/2000/svg">
<path d="M125.707 250.5C125.707 250.5 161.389 222.267 161.506 187.321C161.558 171.842 154.598 157.644 146.829 146.629C157.822 154.42 172.005 161.416 187.514 161.45C222.535 161.539 251 126.042 251 126.042C251 126.042 222.703 90.4351 187.682 90.3156C172.172 90.2627 157.947 97.203 146.91 104.953C154.731 93.9824 161.756 79.8286 161.794 64.3505C161.869 29.3748 126.242 1 126.242 1C126.242 1 90.5601 29.233 90.4432 64.1787C90.3916 79.6025 97.301 93.7543 105.037 104.752C94.062 96.9986 79.9317 90.0566 64.4859 90.0179C29.4654 89.9396 1 125.436 1 125.436C1 125.436 29.2969 161.043 64.3182 161.163C79.8237 161.216 94.0459 154.279 105.082 146.531C97.2693 157.504 90.2503 171.663 90.2171 187.148C90.1304 222.062 125.707 250.5 125.707 250.5Z" fill="#F9F9F9" stroke="black" stroke-width="2" stroke-linejoin="round"/>
</svg>
