<svg width="252" height="252" viewBox="0 0 252 252" fill="none" xmlns="http://www.w3.org/2000/svg">
<path d="M89.3233 214.406C89.3574 194.23 126.163 134.93 126.163 134.93C126.163 134.93 162.419 194.35 162.385 214.532C162.351 234.714 145.969 251.036 125.791 251C105.612 250.964 89.2876 234.581 89.3233 214.406Z" fill="#F9F9F9" stroke="black" stroke-width="2" stroke-linejoin="round"/>
<path d="M37.5942 89.3233C57.7712 89.359 117.07 126.164 117.07 126.164C117.07 126.164 57.6495 162.421 37.4675 162.386C17.2856 162.352 0.964341 145.966 1.00006 125.791C1.03578 105.615 17.4187 89.2876 37.5942 89.3233Z" fill="#F9F9F9" stroke="black" stroke-width="2" stroke-linejoin="round"/>
<path d="M162.677 37.5942C162.643 57.7712 125.838 117.07 125.838 117.07C125.838 117.07 89.5812 57.6495 89.6153 37.4675C89.6494 17.2856 106.031 0.962723 126.209 1.00006C146.388 1.0374 162.713 17.4187 162.677 37.5942Z" fill="#F9F9F9" stroke="black" stroke-width="2" stroke-linejoin="round"/>
<path d="M214.406 162.676C194.23 162.642 134.93 125.837 134.93 125.837C134.93 125.837 194.35 89.5792 214.532 89.6133C234.714 89.6474 251.036 106.034 251 126.209C250.964 146.384 234.581 162.712 214.406 162.676Z" fill="#F9F9F9" stroke="black" stroke-width="2" stroke-linejoin="round"/>
</svg>
