<svg width="252" height="252" viewBox="0 0 252 252" fill="none" xmlns="http://www.w3.org/2000/svg">
<path d="M130.415 103.077C129.385 91.0234 139.163 80.7177 148.571 73.1135C157.778 65.672 163.247 53.9403 162.164 41.257C160.43 20.9549 142.567 5.90227 122.265 7.63592C101.963 9.36957 86.91 27.233 88.6437 47.5351C89.5343 57.9648 94.6818 67.0091 102.23 73.1038C111.643 80.7047 121.429 90.9424 120.4 102.998L120.328 103.836C119.231 116.683 106.998 125.57 94.4413 122.644C83.0597 119.991 76.5896 108 72.6319 97.0036C68.5358 85.6229 58.9328 76.4855 46.2762 73.5357C26.4321 68.9109 6.59605 81.2485 1.97118 101.093C-2.6537 120.937 9.68394 140.773 29.5281 145.398C39.9133 147.818 50.2964 145.593 58.4981 140.077C68.1847 133.562 80.4757 127.729 91.2307 132.267C103.148 137.297 107.799 151.786 101.114 162.86C95.0207 172.953 81.4563 175.47 69.6748 175.898C57.6518 176.335 46.079 182.637 39.3969 193.706C28.8662 211.149 34.4704 233.827 51.9141 244.358C69.3578 254.888 92.0355 249.284 102.566 231.84C108.052 222.753 109.159 212.245 106.495 202.775C103.305 191.435 101.518 177.808 109.228 168.902C117.76 159.045 133.103 159.11 141.635 168.966C149.418 177.957 147.602 191.77 144.398 203.222C141.174 214.747 143.61 227.617 152.028 237.342C165.364 252.748 188.664 254.426 204.069 241.09C219.475 227.755 221.153 204.455 207.817 189.049C200.902 181.061 191.307 176.763 181.524 176.337C169.649 175.819 155.997 173.301 149.854 163.125C143.065 151.879 147.915 137.189 160.018 132.081C171.069 127.418 183.768 133.473 193.788 140.065C203.732 146.607 216.652 148.225 228.441 143.25C247.214 135.327 256.01 113.687 248.088 94.914C240.165 76.1413 218.524 67.3455 199.752 75.268C190.062 79.3571 183.031 87.1008 179.584 96.2184C175.344 107.436 168.68 119.774 157.001 122.496C144.109 125.5 131.541 116.266 130.415 103.077Z" fill="#F9F9F9" stroke="black" stroke-width="2" stroke-linejoin="round"/>
</svg>
