<svg width="252" height="251" viewBox="0 0 252 251" fill="none" xmlns="http://www.w3.org/2000/svg">
<path d="M117.558 109.953C118.547 102.9 113.464 96.5457 106.958 93.649C93.1662 87.5092 82.7545 74.6112 80.5032 58.5593C77.0309 33.8016 94.2862 10.9166 119.044 7.44436C143.802 3.97208 166.687 21.2274 170.159 45.9851C173.003 66.264 161.941 85.2864 144.24 93.4135C137.763 96.3874 132.743 102.865 133.733 109.923C134.735 117.069 141.481 122.074 148.588 120.819C155.512 119.596 159.949 112.918 160.716 105.928C162.354 90.9937 171.387 77.2006 185.891 70.1318C208.364 59.1789 235.461 68.5178 246.414 90.9909C257.367 113.464 248.028 140.561 225.555 151.514C207.003 160.556 185.301 155.769 172.13 141.181C167.417 135.961 159.844 133.183 153.522 136.265C147.11 139.39 144.505 147.241 147.855 153.538C151.115 159.664 158.73 161.801 165.522 160.378C180.254 157.289 196.2 161.612 207.424 173.242C224.786 191.231 224.277 219.888 206.289 237.249C188.3 254.61 159.644 254.102 142.282 236.113C127.91 221.222 125.784 199.019 135.684 181.965C139.168 175.963 139.507 168.055 134.687 163.061C129.749 157.945 121.549 157.941 116.612 163.057C111.809 168.033 112.126 175.908 115.569 181.904C123.069 194.964 123.889 211.474 116.293 225.75C104.55 247.82 77.139 256.192 55.0686 244.449C32.9982 232.706 24.6263 205.295 36.3694 183.224C46.0982 164.94 66.5809 156.057 85.8714 160.225C92.6316 161.686 100.245 159.542 103.494 153.436C106.805 147.214 104.313 139.452 97.977 136.364C91.8222 133.364 84.5032 136.063 79.9166 141.147C69.8147 152.343 54.3462 158.245 38.401 155.428C13.782 151.08 -2.65071 127.598 1.69753 102.979C6.04577 78.3595 29.5284 61.9268 54.1474 66.275C74.5863 69.885 89.3828 86.6832 91.3301 106.371C92.0041 113.185 96.3174 119.69 103.061 120.881C109.974 122.102 116.521 117.346 117.496 110.394L117.558 109.953Z" fill="#F9F9F9" stroke="black" stroke-width="2" stroke-linejoin="round"/>
</svg>
