<svg width="252" height="250" viewBox="0 0 252 250" fill="none" xmlns="http://www.w3.org/2000/svg">
<path d="M88.9902 41.3296C89.2455 20.4567 106.375 3.74594 127.246 4.00292C148.117 4.25991 164.831 21.3872 164.574 42.2584C164.474 50.3981 158.518 67.2333 151.29 84.7436C147.977 92.7686 158.298 100.462 165.042 94.9951C179.757 83.0673 194.188 72.5524 201.958 70.132C221.88 63.9258 243.074 75.0517 249.28 94.9806C255.486 114.91 244.369 136.088 224.44 142.303C216.669 144.726 198.824 144.266 179.942 142.803C171.287 142.132 167.158 154.323 174.44 159.049C190.327 169.36 204.782 179.836 209.484 186.477C221.546 203.512 217.511 227.103 200.475 239.163C183.438 251.222 159.851 247.19 147.791 230.148C143.088 223.504 138.011 206.385 133.567 187.97C131.53 179.53 118.658 179.372 116.415 187.759C111.519 206.062 106.022 223.055 101.156 229.582C88.6795 246.316 65.0016 249.77 48.2657 237.293C31.5297 224.817 28.0697 201.139 40.5528 184.405C45.4181 177.877 60.1304 167.758 76.2697 157.842C83.6669 153.296 79.8397 141.005 71.1697 141.463C52.2536 142.463 34.3976 142.486 26.6873 139.876C6.9163 133.182 -3.68559 111.728 3.00442 91.9573C9.69443 72.1862 31.1552 61.5843 50.9262 68.2777C58.6371 70.8882 72.8085 81.7553 87.2284 94.0417C93.8368 99.6724 104.343 92.2344 101.228 84.1304C94.4316 66.4474 88.8907 49.4701 88.9902 41.3296Z" fill="#F9F9F9" stroke="black" stroke-width="2" stroke-linejoin="round"/>
</svg>
