<svg width="252" height="250" viewBox="0 0 252 250" fill="none" xmlns="http://www.w3.org/2000/svg">
<path d="M88.9902 41.2729C89.2455 20.4 106.375 3.6893 127.246 3.94628C148.117 4.20327 164.831 21.3306 164.574 42.2018C164.403 56.0904 147.185 95.2954 135.683 119.973C156.048 101.903 188.701 74.2053 201.958 70.0754C221.88 63.8691 243.074 74.9951 249.28 94.924C255.486 114.853 244.369 136.032 224.44 142.246C211.182 146.38 168.6 142.122 141.574 138.808C165.054 152.598 201.461 175.089 209.484 186.421C221.546 203.456 217.511 227.046 200.475 239.106C183.438 251.166 159.851 247.133 147.791 230.091C139.766 218.755 130.653 176.92 125.453 150.192C119.598 176.781 109.459 218.389 101.156 229.525C88.6795 246.26 65.0016 249.713 48.2657 237.237C31.5297 224.76 28.0697 201.082 40.5528 184.348C48.8549 173.209 85.8279 151.614 109.639 138.411C82.5415 141.06 39.8437 144.273 26.6873 139.819C6.9163 133.126 -3.68559 111.672 3.00442 91.9006C9.69443 72.1296 31.1552 61.5277 50.9262 68.2211C64.0831 72.6752 96.0494 101.168 115.965 119.733C105.072 94.7803 88.8203 55.1629 88.9902 41.2729Z" fill="#F9F9F9" stroke="black" stroke-width="2"/>
</svg>
