<svg width="252" height="250" viewBox="0 0 252 250" fill="none" xmlns="http://www.w3.org/2000/svg">
<path d="M126.324 7.5C126.324 7.5 90.6695 35.3506 90.536 69.8894C90.491 81.5235 94.4809 92.431 99.7926 101.781C92.5092 93.8441 83.3168 86.6559 72.1541 83.0218C38.9968 72.217 0.999998 96.8454 0.999998 96.8454C0.999998 96.8454 16.7926 139.008 49.9293 149.802C61.0924 153.439 72.8094 153.055 83.4403 150.947C73.5389 155.347 63.7625 161.781 56.8033 171.178C36.2534 199.039 48.1723 242.4 48.1723 242.4C48.1723 242.4 93.5568 240.571 114.189 212.72C121.162 203.308 124.409 192.123 125.651 181.44C126.821 192.131 129.987 203.341 136.886 212.812C157.303 240.835 202.708 243 202.708 243C202.708 243 214.873 199.781 194.488 171.757C187.545 162.214 177.705 155.67 167.746 151.188C178.466 153.45 190.339 153.981 201.68 150.382C234.889 139.841 251 97.8619 251 97.8619C251 97.8619 213.178 72.898 179.959 83.4385C168.667 87.0215 159.353 94.2416 151.977 102.212C157.424 92.8549 161.563 81.8965 161.608 70.1638C161.783 35.6352 126.324 7.5 126.324 7.5Z" fill="#F9F9F9" stroke="black" stroke-width="2" stroke-linejoin="round"/>
</svg>
