<svg width="252" height="250" viewBox="0 0 252 250" fill="none" xmlns="http://www.w3.org/2000/svg">
<path d="M87.7989 207.792C87.7513 186.663 126.034 124.402 126.034 124.402C126.034 124.402 164.262 186.48 164.315 207.609C164.368 228.738 147.278 245.908 126.148 245.959C105.017 246.01 87.8499 228.923 87.7989 207.792Z" fill="#F9F9F9" stroke="black" stroke-width="2" stroke-linejoin="round"/>
<path d="M27.3468 108.601C47.4266 102.022 118.48 119.197 118.48 119.197C118.48 119.197 71.2538 174.737 51.1739 181.315C31.0941 187.893 9.47894 176.947 2.90921 156.867C-3.66052 136.787 7.26862 115.179 27.3468 108.601Z" fill="#F9F9F9" stroke="black" stroke-width="2" stroke-linejoin="round"/>
<path d="M103.006 20.4564C115.465 37.52 121.088 110.399 121.088 110.399C121.088 110.399 53.6718 82.6495 41.2107 65.5842C28.7496 48.5189 32.4817 24.5863 49.5419 12.1252C66.6021 -0.335827 90.5449 3.3911 103.006 20.4564Z" fill="#F9F9F9" stroke="black" stroke-width="2" stroke-linejoin="round"/>
<path d="M210.214 65.1729C197.837 82.296 130.266 110.163 130.266 110.163C130.266 110.163 135.825 37.4709 148.205 20.3478C160.584 3.22465 184.495 -0.622996 201.623 11.7548C218.751 24.1325 222.594 48.0498 210.214 65.1729Z" fill="#F9F9F9" stroke="black" stroke-width="2" stroke-linejoin="round"/>
<path d="M200.818 180.954C180.706 174.473 133.318 118.821 133.318 118.821C133.318 118.821 204.171 101.648 224.281 108.126C244.392 114.604 255.442 136.163 248.96 156.275C242.479 176.388 220.928 187.434 200.818 180.954Z" fill="#F9F9F9" stroke="black" stroke-width="2" stroke-linejoin="round"/>
</svg>
