<svg width="250" height="252" viewBox="0 0 250 252" fill="none" xmlns="http://www.w3.org/2000/svg">
<path d="M160.136 33.8984C161.109 47.1819 154.639 59.2923 144.259 66.1393C135.929 71.6335 127.931 80.0438 128.66 89.9955C129.585 102.612 142.949 110.455 154.337 104.947C163.243 100.64 166.444 89.6468 167.001 79.7706C167.603 69.1148 172.985 58.8495 182.495 52.389C198.708 41.3751 220.78 45.5898 231.794 61.8029C242.808 78.0159 238.593 100.088 222.38 111.102C211.317 118.617 197.526 119.042 186.382 113.402C177.555 108.936 166.378 106.241 158.195 111.8C147.813 118.853 147.713 134.221 158.094 141.273C166.203 146.781 177.218 144.097 185.956 139.654C195.505 134.799 207.131 134.306 217.518 139.33C235.163 147.864 242.549 169.086 234.015 186.731C225.481 204.376 204.259 211.761 186.614 203.227C174.524 197.38 167.251 185.577 166.614 173.048C166.116 163.253 162.891 152.332 154.062 148.061C142.854 142.641 129.61 150.181 128.701 162.598C127.991 172.286 135.737 180.412 143.896 185.684C152.925 191.518 159.206 201.369 160.052 212.917C161.484 232.464 146.798 249.472 127.25 250.904C107.702 252.335 90.6951 237.649 89.2632 218.102C88.2782 204.653 94.922 192.407 105.529 185.608C113.715 180.361 121.485 172.186 120.774 162.489C119.872 150.172 106.827 142.545 95.7086 147.922C87.0437 152.113 83.8974 162.773 83.4466 172.388C82.9414 183.165 77.5466 193.58 67.9353 200.109C51.7223 211.123 29.6504 206.909 18.6365 190.695C7.62262 174.482 11.8373 152.411 28.0504 141.397C39.2502 133.788 53.2457 133.447 64.4606 139.308C73.0018 143.771 83.8115 146.421 91.7833 141.005C101.976 134.081 101.951 119.044 91.7591 112.12C83.8009 106.714 72.9847 109.306 64.4374 113.723C54.8507 118.676 43.1313 119.213 32.6694 114.153C15.0245 105.619 7.63868 84.3967 16.1726 66.7518C24.7066 49.107 45.9287 41.7211 63.5735 50.2551C75.7649 56.1514 83.0587 68.1048 83.588 80.7504C83.9908 90.375 87.1003 101.056 95.7722 105.25C106.86 110.613 119.862 103.106 120.762 90.8225L120.828 89.9207C121.557 79.9664 113.549 71.6261 105.218 66.1297C96.3417 60.2736 90.1837 50.509 89.3469 39.0835C87.9151 19.5356 102.601 2.52821 122.149 1.09641C141.697 -0.335404 158.704 14.3506 160.136 33.8984Z" fill="#F9F9F9" stroke="black" stroke-width="2" stroke-linejoin="round"/>
</svg>
