<svg width="250" height="252" viewBox="0 0 250 252" fill="none" xmlns="http://www.w3.org/2000/svg">
<path d="M84.6019 45.5843C86.2843 59.495 94.9522 70.8574 106.669 76.5841C113.393 79.8707 118.918 86.4227 118.02 93.8529L117.913 94.7345C116.889 103.202 108.027 108.318 100.182 104.971L88.3887 99.94C88.3886 99.9401 88.3886 99.94 88.3887 99.94C97.0142 79.7214 87.6161 56.3387 67.3975 47.7132C47.1789 39.0878 23.7962 48.4858 15.1707 68.7044C6.54524 88.923 15.9433 112.306 36.1619 120.931C49.0849 126.444 63.3005 124.594 74.1291 117.262C79.9797 113.3 87.9247 111.964 93.5752 116.206C100.438 121.358 100.392 131.689 93.5291 136.841C87.8069 141.136 79.7257 139.76 73.826 135.711C60.1313 126.314 41.4264 126.187 27.4081 136.71C9.82892 149.907 6.27653 174.856 19.4736 192.436C32.6707 210.015 57.6197 213.567 75.1989 200.37C86.4135 191.951 91.9195 178.749 91.0101 165.729C90.512 158.599 93.3511 150.955 99.9254 148.15C107.898 144.749 116.914 150.018 117.955 158.623C118.823 165.807 113.529 172.195 107.012 175.338C92.1023 182.531 82.7011 198.623 84.7997 215.974C87.4391 237.796 107.269 253.347 129.092 250.708C150.915 248.069 166.466 228.238 163.826 206.416C162.146 192.521 153.495 181.168 141.799 175.435C135.307 172.253 130.036 165.904 130.904 158.727C131.955 150.035 141.127 144.814 149.18 148.25C155.909 151.121 158.831 158.992 158.316 166.29C157.155 182.748 166.383 198.861 182.412 205.699C202.631 214.324 226.013 204.926 234.639 184.708C243.264 164.489 233.866 141.106 213.648 132.481C200.799 126.999 186.672 128.797 175.867 136.025C169.789 140.09 161.56 141.508 155.712 137.119C148.641 131.81 148.716 121.146 155.787 115.838C161.702 111.397 170.078 112.816 176.222 116.934C189.883 126.087 208.383 126.121 222.279 115.689C239.858 102.492 243.41 77.5433 230.213 59.9642C217.016 42.385 192.067 38.8326 174.488 52.0297C163.338 60.4 157.831 73.4981 158.661 86.4448C159.135 93.8238 156.225 101.757 149.424 104.658C141.212 108.161 131.916 102.654 130.844 93.7904C129.947 86.3744 135.385 79.713 142.054 76.3467C156.593 69.0074 165.697 53.1285 163.628 36.0261C160.989 14.2035 141.159 -1.34746 119.336 1.29195C97.5135 3.93137 81.9624 23.7617 84.6019 45.5843Z" fill="#F9F9F9"/>
<path d="M88.3887 99.94L100.182 104.971C108.027 108.318 116.889 103.202 117.913 94.7345L118.02 93.8529C118.918 86.4227 113.393 79.8707 106.669 76.5841C94.9522 70.8574 86.2843 59.495 84.6019 45.5843C81.9624 23.7617 97.5134 3.93137 119.336 1.29195C141.159 -1.34746 160.989 14.2035 163.628 36.0261C165.697 53.1285 156.593 69.0074 142.054 76.3467C135.385 79.713 129.947 86.3744 130.844 93.7904C131.916 102.654 141.212 108.161 149.424 104.658C156.225 101.757 159.135 93.8238 158.661 86.4448C157.831 73.4981 163.338 60.4 174.488 52.0297C192.067 38.8326 217.016 42.385 230.213 59.9642C243.41 77.5433 239.858 102.492 222.279 115.689C208.383 126.121 189.883 126.087 176.222 116.934C170.078 112.816 161.702 111.397 155.787 115.838C148.716 121.146 148.641 131.81 155.712 137.119C161.56 141.508 169.789 140.09 175.867 136.025C186.672 128.797 200.799 126.999 213.648 132.481C233.866 141.106 243.264 164.489 234.639 184.708C226.013 204.926 202.631 214.324 182.412 205.699C166.383 198.861 157.155 182.748 158.316 166.29C158.831 158.992 155.909 151.121 149.18 148.25C141.127 144.814 131.955 150.035 130.904 158.727C130.036 165.904 135.307 172.253 141.799 175.435C153.495 181.168 162.146 192.521 163.826 206.416C166.466 228.238 150.915 248.069 129.092 250.708C107.269 253.347 87.4391 237.796 84.7997 215.974C82.7011 198.623 92.1023 182.531 107.012 175.338C113.529 172.195 118.823 165.807 117.955 158.623C116.914 150.018 107.898 144.749 99.9254 148.15C93.3511 150.955 90.512 158.599 91.0101 165.729C91.9195 178.749 86.4135 191.951 75.1989 200.37C57.6197 213.567 32.6707 210.015 19.4736 192.436C6.27653 174.856 9.82892 149.907 27.4081 136.71C41.4264 126.187 60.1313 126.314 73.8261 135.711C79.7257 139.76 87.8069 141.136 93.5291 136.841C100.392 131.689 100.438 121.358 93.5752 116.206C87.9247 111.964 79.9797 113.3 74.1291 117.262C63.3005 124.594 49.0849 126.444 36.1619 120.931C15.9433 112.306 6.54524 88.923 15.1707 68.7044C23.7962 48.4858 47.1789 39.0878 67.3975 47.7132C87.6161 56.3387 97.0142 79.7214 88.3887 99.94ZM88.3887 99.94C88.3886 99.94 88.3886 99.9401 88.3887 99.94Z" stroke="black" stroke-width="2" stroke-linejoin="round"/>
</svg>
