<svg width="250" height="252" viewBox="0 0 250 252" fill="none" xmlns="http://www.w3.org/2000/svg">
<path d="M159.488 215.926C159.287 235.502 143.254 251.206 123.678 250.998C104.102 250.79 88.3978 234.773 88.5995 215.194C88.6662 208.72 92.671 196.373 98.0018 182.746C99.9823 177.683 91.7375 172.809 88.2562 176.984C78.8865 188.222 69.999 197.681 64.3576 200.86C47.2989 210.472 25.6861 204.441 16.0738 187.387C6.46149 170.333 12.4932 148.715 29.544 139.103C35.1879 135.923 47.8965 133.217 62.3757 131.019C67.7507 130.203 67.8495 120.626 62.4925 119.7C48.065 117.204 35.4182 114.236 29.8417 110.939C12.9894 100.975 7.39721 79.2395 17.3608 62.3872C27.3244 45.5349 49.0601 39.9521 65.9124 49.9141C71.4879 53.2104 80.1843 62.8592 89.3258 74.2959C92.72 78.5423 101.061 73.8401 99.1853 68.7378C94.1334 54.9962 90.3805 42.5606 90.4473 36.0832C90.6489 16.5073 106.682 0.803376 126.258 1.00186C145.834 1.20035 161.538 17.2398 161.336 36.8157C161.27 43.2924 157.262 55.6458 151.928 69.2783C149.947 74.3412 158.193 79.2162 161.674 75.0404C171.049 63.7958 179.942 54.3295 185.586 51.1492C202.645 41.5368 224.257 47.5686 233.87 64.6225C243.482 81.6764 237.442 103.294 220.392 112.906C214.748 116.086 202.042 118.792 187.565 120.99C182.19 121.806 182.091 131.383 187.448 132.309C201.877 134.805 214.525 137.773 220.102 141.071C236.954 151.034 242.537 172.77 232.575 189.622C222.613 206.474 200.876 212.059 184.023 202.095C178.448 198.8 169.756 189.156 160.619 177.725C157.225 173.478 148.879 178.182 150.755 183.285C155.805 197.021 159.555 209.451 159.488 215.926Z" fill="#F9F9F9" stroke="black" stroke-width="2" stroke-linejoin="round"/>
</svg>
