<svg width="250" height="252" viewBox="0 0 250 252" fill="none" xmlns="http://www.w3.org/2000/svg">
<path d="M159.488 215.926C159.287 235.502 143.254 251.206 123.678 250.998C104.102 250.79 88.3978 234.773 88.5995 215.194C88.7361 201.934 105.393 164.038 116.126 140.967C101.085 161.492 75.9124 194.349 64.3576 200.86C47.2989 210.472 25.6861 204.441 16.0738 187.387C6.46149 170.333 12.4932 148.715 29.544 139.103C41.102 132.591 82.2882 128.066 107.634 125.826C82.3419 123.064 41.2628 117.691 29.8417 110.939C12.9894 100.975 7.39721 79.2395 17.3608 62.3872C27.3244 45.5349 49.0601 39.9521 65.9124 49.9141C77.3274 56.6626 101.823 90.0381 116.439 110.868C106.184 87.5814 90.3107 49.3449 90.4473 36.0832C90.6489 16.5073 106.682 0.803376 126.258 1.00186C145.834 1.20035 161.538 17.2398 161.336 36.8157C161.2 50.0819 144.529 88.0036 133.796 111.071C148.835 90.5486 174.026 57.6632 185.586 51.1492C202.645 41.5368 224.257 47.5686 233.87 64.6225C243.482 81.6764 237.442 103.294 220.392 112.906C208.834 119.419 167.652 123.943 142.309 126.183C167.601 128.945 208.681 134.318 220.102 141.071C236.954 151.034 242.537 172.77 232.575 189.622C222.613 206.474 200.876 212.059 184.023 202.095C172.602 195.345 148.099 161.951 133.488 141.122C143.743 164.407 159.625 202.661 159.488 215.926Z" fill="#F9F9F9" stroke="black" stroke-width="2" stroke-linejoin="round"/>
</svg>
