<svg width="250" height="252" viewBox="0 0 250 252" fill="none" xmlns="http://www.w3.org/2000/svg">
<path d="M157.432 194.083C157.817 225.308 126.776 251 126.776 251C126.776 251 95.1174 226.069 94.7362 194.844C94.6222 185.466 97.3416 176.588 101.203 168.755C96.5131 176.125 90.3342 183.067 82.2522 187.853C55.3439 203.788 17.5267 189.818 17.5267 189.818C17.5267 189.818 23.3383 149.994 50.2465 134.054C58.3348 129.262 67.4088 127.173 76.1451 126.596C67.3963 126.231 58.2728 124.363 50.0693 119.768C22.7817 104.483 16 64.815 16 64.815C16 64.815 53.4682 49.9266 80.7541 65.2097C88.9611 69.8064 95.3131 76.6085 100.184 83.8736C96.1236 76.1285 93.1802 67.3074 93.0645 57.9173C92.6797 26.6921 123.722 1 123.722 1C123.722 1 155.379 25.9312 155.76 57.1565C155.874 66.5337 153.155 75.412 149.294 83.2455C153.983 75.8749 160.162 68.9332 168.244 64.147C195.152 48.212 232.97 62.1824 232.97 62.1824C232.97 62.1824 227.162 102.006 200.25 117.946C192.161 122.738 183.087 124.827 174.35 125.404C183.099 125.77 192.222 127.638 200.425 132.232C227.715 147.517 234.5 187.183 234.5 187.183C234.5 187.183 197.028 202.073 169.739 186.789C161.54 182.197 155.193 175.405 150.324 168.148C154.378 175.888 157.316 184.701 157.432 194.083Z" fill="#F9F9F9" stroke="black" stroke-width="2" stroke-linejoin="round"/>
</svg>
