<svg width="250" height="252" viewBox="0 0 250 252" fill="none" xmlns="http://www.w3.org/2000/svg">
<path d="M88.5527 215.057C88.7542 195.495 124.936 138.302 124.936 138.302C124.936 138.302 159.598 196.225 159.396 215.789C159.195 235.352 143.172 251.046 123.608 250.838C104.045 250.63 88.3512 234.623 88.5527 215.057Z" fill="#F9F9F9" stroke="black" stroke-width="2" stroke-linejoin="round"/>
<path d="M29.5348 139.015C46.5779 129.412 114.197 132.146 114.197 132.146C114.197 132.146 81.366 191.126 64.323 200.732C47.28 210.338 25.6763 204.311 16.0701 187.268C6.46394 170.225 12.495 148.621 29.5348 139.015Z" fill="#F9F9F9" stroke="black" stroke-width="2" stroke-linejoin="round"/>
<path d="M65.88 49.8832C82.7246 59.8388 114.16 119.77 114.16 119.77C114.16 119.77 46.666 120.826 29.8245 110.869C12.983 100.911 7.40222 79.1897 17.3595 62.3482C27.3167 45.5067 49.0384 39.9275 65.88 49.8832Z" fill="#F9F9F9" stroke="black" stroke-width="2" stroke-linejoin="round"/>
<path d="M161.243 36.7928C161.041 56.3563 124.86 113.548 124.86 113.548C124.86 113.548 90.1978 55.6289 90.3993 36.0624C90.6008 16.4958 106.624 0.803502 126.187 1.00186C145.751 1.20022 161.444 17.2294 161.243 36.7928Z" fill="#F9F9F9" stroke="black" stroke-width="2" stroke-linejoin="round"/>
<path d="M220.26 112.835C203.217 122.441 135.603 119.702 135.603 119.702C135.603 119.702 168.429 60.7238 185.472 51.1177C202.515 41.5115 224.119 47.5394 233.725 64.5824C243.331 81.6254 237.3 103.229 220.26 112.835Z" fill="#F9F9F9" stroke="black" stroke-width="2" stroke-linejoin="round"/>
<path d="M183.915 201.967C167.071 192.011 135.636 132.08 135.636 132.08C135.636 132.08 203.129 131.024 219.971 140.981C236.812 150.938 242.393 172.66 232.436 189.502C222.479 206.343 200.757 211.924 183.915 201.967Z" fill="#F9F9F9" stroke="black" stroke-width="2" stroke-linejoin="round"/>
</svg>
