<svg width="250" height="252" viewBox="0 0 250 252" fill="none" xmlns="http://www.w3.org/2000/svg">
<path fill-rule="evenodd" clip-rule="evenodd" d="M125 1L87.5 63.5H12.5L50 126L12.5 188.5H87.5L125 251L162.5 188.5H237.5L200 126L237.5 63.5H162.5L125 1Z" fill="#F9F9F9"/>
<path d="M125 1L237.5 63.5M125 1L12.5 63.5M125 1V251M125 1L162.5 63.5M125 1L87.5 63.5M237.5 63.5V188.5M237.5 63.5L12.5 188.5M237.5 63.5H162.5M237.5 63.5L200 126M237.5 188.5L125 251M237.5 188.5L12.5 63.5M237.5 188.5L200 126M237.5 188.5H162.5M125 251L12.5 188.5M125 251L162.5 188.5M125 251L87.5 188.5M12.5 188.5V63.5M12.5 188.5H87.5M12.5 188.5L50 126M12.5 63.5L50 126M12.5 63.5H87.5M162.5 63.5L200 126M162.5 63.5H87.5M200 126L162.5 188.5M162.5 188.5H87.5M87.5 188.5L50 126M50 126L87.5 63.5" stroke="black" stroke-width="2" stroke-linejoin="round"/>
</svg>
