<svg width="252" height="251" viewBox="0 0 252 251" fill="none" xmlns="http://www.w3.org/2000/svg">
<path fill-rule="evenodd" clip-rule="evenodd" d="M126 1L155.508 92.0545H251L173.746 148.329L203.254 239.384L126 183.109L48.7458 239.384L78.2542 148.329L1 92.0545H96.4915L126 1Z" fill="#F9F9F9"/>
<path d="M126 1L251 92.0545M126 1L1 92.0545M126 1L96.4915 92.0545M126 1L155.508 92.0545M251 92.0545L203.254 239.384M251 92.0545H155.508M251 92.0545L173.746 148.329M203.254 239.384H48.7458M203.254 239.384L173.746 148.329M203.254 239.384L126 183.109M48.7458 239.384L1 92.0545M48.7458 239.384L126 183.109M48.7458 239.384L78.2542 148.329M1 92.0545H96.4915M1 92.0545L78.2542 148.329M96.4915 92.0545H155.508M96.4915 92.0545L78.2542 148.329M155.508 92.0545L173.746 148.329M173.746 148.329L126 183.109M126 183.109L78.2542 148.329" stroke="black" stroke-width="2" stroke-linejoin="round"/>
</svg>
