<svg width="252" height="251" viewBox="0 0 252 251" fill="none" xmlns="http://www.w3.org/2000/svg">
<path fill-rule="evenodd" clip-rule="evenodd" d="M145.854 92.761L226.242 53.9262L170.612 123.904L251 162.739H161.776L181.63 250L126 180.022L70.3698 250L90.224 162.739H1L81.388 123.904L25.7578 53.9262L106.146 92.761L126 5.5L145.854 92.761Z" fill="#F9F9F9"/>
<path d="M126 5.5L226.242 53.9262M126 5.5L25.7578 53.9262M126 5.5L106.146 92.761M126 5.5L145.854 92.761M226.242 53.9262L251 162.739M226.242 53.9262L145.854 92.761M226.242 53.9262L170.612 123.904M251 162.739L181.63 250M251 162.739L170.612 123.904M251 162.739H161.776M181.63 250H70.3698M181.63 250L161.776 162.739M181.63 250L126 180.022M70.3698 250L1 162.739M70.3698 250L126 180.022M70.3698 250L90.224 162.739M1 162.739L25.7578 53.9262M1 162.739H90.224M1 162.739L81.388 123.904M25.7578 53.9262L106.146 92.761M25.7578 53.9262L81.388 123.904M106.146 92.761L170.612 123.904M106.146 92.761L90.224 162.739M145.854 92.761L161.776 162.739M145.854 92.761L81.388 123.904M170.612 123.904L126 180.022M161.776 162.739H90.224M126 180.022L81.388 123.904" stroke="black" stroke-width="2" stroke-linejoin="round"/>
</svg>
