<svg width="252" height="252" viewBox="0 0 252 252" fill="none" xmlns="http://www.w3.org/2000/svg">
<path fill-rule="evenodd" clip-rule="evenodd" d="M165.939 71.8441C165.918 77.6874 165.009 83.3612 163.478 88.7854C148.623 92.8703 135.596 101.619 126.074 109.601C126.331 109.808 129.589 112.46 134.134 117.025C139.28 122.132 142.253 125.857 142.406 126.05C150.455 116.584 159.292 103.618 163.478 88.7854C168.916 87.2902 174.598 86.4198 180.443 86.4404C219.497 86.5783 251 126.448 251 126.448C251 126.448 219.21 166.077 180.156 165.939C174.312 165.918 168.639 165.009 163.215 163.478C159.13 148.623 150.383 135.594 142.402 126.07C142.218 126.298 139.565 129.563 134.982 134.127C129.901 139.248 126.185 142.219 125.954 142.403C135.418 150.452 148.382 159.292 163.215 163.478C164.71 168.916 165.58 174.598 165.559 180.443C165.422 219.497 125.552 251 125.552 251C125.552 251 85.9232 219.21 86.0611 180.156C86.0818 174.313 86.9905 168.639 88.5214 163.215C103.377 159.131 116.405 150.384 125.93 142.402C125.689 142.208 122.079 139.275 117.132 134.232C112.352 129.417 109.645 126 109.6 125.943C101.55 135.41 92.7085 148.379 88.5214 163.215C83.0838 164.71 77.4014 165.58 71.5566 165.56C32.5028 165.422 1 125.552 1 125.552C1 125.552 32.7901 85.9232 71.844 86.0611C77.69 86.0817 83.3662 86.9914 88.7926 88.5235C92.8747 103.381 101.623 116.412 109.604 125.936C109.727 125.784 112.086 122.868 116.22 118.683C121.736 113.036 125.847 109.755 126.05 109.594C116.585 101.547 103.622 92.7105 88.7926 88.5235C87.2985 83.0853 86.4294 77.4022 86.4518 71.5567C86.6012 32.5029 126.448 1 126.448 1C126.448 1 166.077 32.7902 165.939 71.8441Z" fill="#F9F9F9"/>
<path d="M126.057 109.588L126.074 109.601M126.057 109.588C126.057 109.588 126.063 109.592 126.074 109.601M126.057 109.588L126.05 109.594M126.057 109.588C126.057 109.588 126.055 109.59 126.05 109.594M109.599 125.943L109.6 125.943M109.599 125.943C109.599 125.943 109.6 125.943 109.6 125.943M109.599 125.943C109.599 125.943 109.601 125.94 109.604 125.936M163.215 163.478C168.639 165.009 174.312 165.918 180.156 165.939C219.21 166.077 251 126.448 251 126.448C251 126.448 219.497 86.5783 180.443 86.4404C174.598 86.4198 168.916 87.2902 163.478 88.7854M163.215 163.478C164.71 168.916 165.58 174.598 165.559 180.443C165.422 219.497 125.552 251 125.552 251C125.552 251 85.9232 219.21 86.0611 180.156C86.0818 174.313 86.9905 168.639 88.5214 163.215M163.215 163.478C148.382 159.292 135.418 150.452 125.954 142.403M163.215 163.478C159.13 148.623 150.383 135.594 142.402 126.07M126.074 109.601C122.158 112.884 118.834 116.037 116.22 118.683M126.074 109.601C135.596 101.619 148.623 92.8703 163.478 88.7854M126.074 109.601C126.331 109.808 129.589 112.46 134.134 117.025M116.22 118.683C114.165 120.787 111.915 123.22 109.6 125.943M116.22 118.683C121.736 113.036 125.847 109.755 126.05 109.594M116.22 118.683C112.086 122.868 109.727 125.784 109.604 125.936M109.6 125.943C109.645 126 112.352 129.417 117.132 134.232M109.6 125.943C101.55 135.41 92.7085 148.379 88.5214 163.215M125.954 142.403C126.185 142.219 129.901 139.248 134.982 134.127M125.954 142.403C125.946 142.409 125.942 142.412 125.942 142.412C125.942 142.412 125.938 142.409 125.93 142.402M125.954 142.403C122.529 139.49 119.562 136.68 117.132 134.232M134.982 134.127C139.565 129.563 142.218 126.298 142.402 126.07M134.982 134.127C132.502 136.597 129.456 139.447 125.93 142.402M134.982 134.127C137.248 131.843 139.785 129.132 142.406 126.05M142.402 126.07C142.409 126.062 142.412 126.057 142.412 126.057C142.412 126.057 142.41 126.055 142.406 126.05M142.402 126.07C139.45 122.548 136.602 119.504 134.134 117.025M126.05 109.594C116.585 101.547 103.622 92.7105 88.7926 88.5235M126.05 109.594C129.135 112.218 131.849 114.758 134.134 117.025M88.5214 163.215C83.0838 164.71 77.4014 165.58 71.5566 165.56C32.5028 165.422 1 125.552 1 125.552C1 125.552 32.7901 85.9232 71.844 86.0611C77.69 86.0817 83.3662 86.9914 88.7926 88.5235M88.5214 163.215C103.377 159.131 116.405 150.384 125.93 142.402M125.93 142.402C125.689 142.208 122.079 139.275 117.132 134.232M117.132 134.232C114.842 131.898 112.266 129.112 109.604 125.936M163.478 88.7854C165.009 83.3612 165.918 77.6874 165.939 71.8441C166.077 32.7902 126.448 1 126.448 1C126.448 1 86.6012 32.5029 86.4518 71.5567C86.4294 77.4022 87.2985 83.0853 88.7926 88.5235M163.478 88.7854C159.292 103.618 150.455 116.584 142.406 126.05M88.7926 88.5235C92.8747 103.381 101.623 116.412 109.604 125.936M134.134 117.025C139.28 122.132 142.253 125.857 142.406 126.05" stroke="black" stroke-width="2" stroke-linejoin="round"/>
</svg>
