<svg width="252" height="250" viewBox="0 0 252 250" fill="none" xmlns="http://www.w3.org/2000/svg">
<path d="M126.861 5.26612C105.749 24.4802 90.6255 50.1743 84.6245 79.2102C99.2712 81.076 113.199 85.2464 126.035 91.347C138.979 85.4902 152.991 81.5797 167.696 79.9882C162.235 50.7958 147.582 24.8461 126.861 5.26612Z" fill="#F9F9F9"/>
<path d="M1.00001 94.9903C12.9681 121.561 33.1026 143.65 58.2007 158.051C64.437 144.877 72.6985 132.85 82.5826 122.375C82.0436 117.419 81.7669 112.384 81.7669 107.284C81.7669 97.6639 82.7512 88.2742 84.6245 79.2102C78.8788 78.4783 73.0225 78.101 67.0782 78.101C43.1319 78.101 20.6138 84.2235 1.00001 94.9903Z" fill="#F9F9F9"/>
<path d="M45.0065 217.009C45.0065 225.733 45.816 234.267 47.3639 242.541C77.0917 239.324 103.982 226.63 124.96 207.538C114.486 197.641 105.562 186.117 98.5926 173.369C84.1767 170.392 70.5845 165.157 58.2007 158.051C49.7397 175.926 45.0065 195.914 45.0065 217.009Z" fill="#F9F9F9"/>
<path d="M192.622 159.323C180.122 166.185 166.442 171.16 151.964 173.866C144.76 186.474 135.624 197.833 124.96 207.538C145.603 227.045 172.27 240.229 201.871 244C203.745 234.936 204.729 225.546 204.729 215.926C204.729 195.753 200.4 176.591 192.622 159.323Z" fill="#F9F9F9"/>
<path d="M251 97.344C230.863 85.7892 207.53 79.1836 182.657 79.1836C177.602 79.1836 172.61 79.4564 167.696 79.9882C169.244 88.2623 170.054 96.7969 170.054 105.521C170.054 111.515 169.671 117.42 168.93 123.212C178.604 133.86 186.635 146.031 192.622 159.323C218.019 145.381 238.547 123.651 251 97.344Z" fill="#F9F9F9"/>
<path d="M126.035 91.347C109.57 98.7965 94.8305 109.395 82.5826 122.375C84.5747 140.69 90.1502 157.927 98.5926 173.369C107.618 175.233 116.967 176.212 126.544 176.212C135.228 176.212 143.725 175.407 151.964 173.866C160.7 158.578 166.596 141.453 168.93 123.212C156.911 109.983 142.356 99.1044 126.035 91.347Z" fill="#F9F9F9"/>
<path d="M84.6245 79.2102C90.6255 50.1743 105.749 24.4802 126.861 5.26612C147.582 24.8461 162.235 50.7958 167.696 79.9882M84.6245 79.2102C99.2712 81.076 113.199 85.2464 126.035 91.347M84.6245 79.2102C78.8788 78.4783 73.0225 78.101 67.0782 78.101C43.1319 78.101 20.6138 84.2235 1.00001 94.9903C12.9681 121.561 33.1026 143.65 58.2007 158.051M84.6245 79.2102C82.7512 88.2742 81.7669 97.6639 81.7669 107.284C81.7669 112.384 82.0436 117.419 82.5826 122.375M126.035 91.347C138.979 85.4902 152.991 81.5797 167.696 79.9882M126.035 91.347C109.57 98.7965 94.8305 109.395 82.5826 122.375M126.035 91.347C142.356 99.1044 156.911 109.983 168.93 123.212M167.696 79.9882C172.61 79.4564 177.602 79.1836 182.657 79.1836C207.53 79.1836 230.863 85.7892 251 97.344C238.547 123.651 218.019 145.381 192.622 159.323M167.696 79.9882C169.244 88.2623 170.054 96.7969 170.054 105.521C170.054 111.515 169.671 117.42 168.93 123.212M82.5826 122.375C72.6985 132.85 64.437 144.877 58.2007 158.051M82.5826 122.375C84.5747 140.69 90.1502 157.927 98.5926 173.369M58.2007 158.051C49.7397 175.926 45.0065 195.914 45.0065 217.009C45.0065 225.733 45.816 234.267 47.3639 242.541C77.0917 239.324 103.982 226.63 124.96 207.538M58.2007 158.051C70.5845 165.157 84.1767 170.392 98.5926 173.369M98.5926 173.369C107.618 175.233 116.967 176.212 126.544 176.212C135.228 176.212 143.725 175.407 151.964 173.866M98.5926 173.369C105.562 186.117 114.486 197.641 124.96 207.538M124.96 207.538C135.624 197.833 144.76 186.474 151.964 173.866M124.96 207.538C145.603 227.045 172.27 240.229 201.871 244C203.745 234.936 204.729 225.546 204.729 215.926C204.729 195.753 200.4 176.591 192.622 159.323M192.622 159.323C180.122 166.185 166.442 171.16 151.964 173.866M192.622 159.323C186.635 146.031 178.604 133.86 168.93 123.212M151.964 173.866C160.7 158.578 166.596 141.453 168.93 123.212" stroke="black" stroke-width="2" stroke-linejoin="round"/>
</svg>
