<svg width="250" height="252" viewBox="0 0 250 252" fill="none" xmlns="http://www.w3.org/2000/svg">
<path fill-rule="evenodd" clip-rule="evenodd" d="M160.06 185.634C195.756 197.799 233.654 187.349 233.654 187.349C233.654 187.349 222.941 149.501 194.032 125.262C222.404 100.412 232.301 62.3584 232.301 62.3584C232.301 62.3584 194.204 52.7183 158.783 65.6481C151.472 28.6304 123.484 1 123.484 1C123.484 1 96.0879 29.2092 89.5704 66.3908C53.8803 54.2207 16 64.6691 16 64.6691C16 64.6691 26.7101 102.505 55.6128 126.747C27.2332 151.597 17.334 189.66 17.334 189.66C17.334 189.66 55.4338 199.301 90.8563 186.369C98.1724 223.374 126.152 251 126.152 251C126.152 251 153.535 222.803 160.06 185.634ZM137.978 147.938C134.449 153.151 130.368 158.379 125.683 163.301C125.412 163.592 125.254 163.756 125.225 163.786C130.955 169.484 137.53 174.718 145.029 178.948C149.917 181.701 154.966 183.898 160.06 185.634C160.992 180.326 161.499 174.835 161.439 169.217C161.348 160.609 159.935 152.327 157.709 144.563C157.664 144.575 157.092 144.731 156.059 144.977C153.164 145.665 146.651 147.054 137.978 147.938ZM112.44 148.385C106.502 147.957 100.305 147.108 94.0612 145.662C93.0498 145.446 92.4539 145.299 92.3313 145.269C90.2719 153.078 89.0357 161.386 89.1278 169.992C89.188 175.607 89.8114 181.083 90.8563 186.369C95.9134 184.523 100.916 182.216 105.745 179.356C113.15 174.971 119.61 169.602 125.216 163.788C125.187 163.759 124.974 163.548 124.605 163.165C122.94 161.438 118.085 156.213 112.44 148.385ZM99.2669 126.445C101.191 130.414 103.243 134.144 105.319 137.597C107.715 141.583 110.143 145.2 112.44 148.385C116.908 148.707 121.229 148.791 125.312 148.711C129.873 148.623 134.137 148.33 137.978 147.938C140.608 144.054 142.932 140.179 144.972 136.446C147.062 132.622 148.854 128.947 150.373 125.564C153.144 131.284 155.649 137.498 157.572 144.091C157.608 144.208 157.636 144.304 157.658 144.378C157.682 144.461 157.698 144.516 157.706 144.543C165.499 142.423 173.313 139.339 180.719 134.953C185.55 132.092 189.98 128.812 194.032 125.262C189.909 121.805 185.415 118.624 180.53 115.87C173.033 111.644 165.157 108.728 157.322 106.775C157.289 106.903 157.089 107.652 156.704 108.913C155.77 111.973 153.747 118.047 150.373 125.564C148.348 121.387 146.181 117.473 143.994 113.87C141.708 110.102 139.4 106.673 137.21 103.636C143.169 104.066 149.389 104.919 155.654 106.374C156.605 106.578 157.171 106.716 157.299 106.748C159.361 98.9346 160.6 90.6208 160.507 82.0084C160.447 76.3993 159.825 70.9282 158.783 65.6481C153.724 67.4945 148.72 69.8012 143.89 72.662C136.49 77.0447 130.032 82.4101 124.428 88.2213C124.508 88.3011 124.972 88.7641 125.739 89.5803C127.84 91.818 132.218 96.7101 137.21 103.636C132.804 103.318 128.541 103.232 124.508 103.306C119.877 103.391 115.549 103.686 111.656 104.082C115.034 99.0921 118.919 94.0872 123.355 89.3504C123.955 88.6893 124.321 88.3072 124.4 88.2255C118.672 82.534 112.101 77.3066 104.606 73.0827C99.7166 70.3269 94.6658 68.1283 89.5704 66.3908C88.6413 71.691 88.1366 77.1736 88.1958 82.7827C88.2869 91.3973 89.7024 99.6849 91.9315 107.454C92.0026 107.435 92.5644 107.282 93.5572 107.046C96.4417 106.36 102.964 104.968 111.656 104.082C109.158 107.771 106.937 111.451 104.972 115.01C102.751 119.032 100.859 122.899 99.2669 126.445ZM99.2669 126.445C95.7841 134.202 93.7403 140.424 92.8466 143.385C92.5187 144.471 92.3457 145.118 92.3132 145.241C84.4849 143.289 76.6153 140.373 69.1235 136.148C64.2347 133.391 59.7384 130.208 55.6128 126.747C59.6627 123.201 64.0889 119.924 68.9164 117.065C76.3226 112.679 84.1362 109.595 91.9292 107.475C91.9507 107.55 92.037 107.849 92.1917 108.347C94.0983 114.78 96.5549 120.849 99.2669 126.445Z" fill="#F9F9F9"/>
<path d="M157.709 144.563C159.935 152.327 161.348 160.609 161.439 169.217C161.499 174.835 160.992 180.326 160.06 185.634M157.709 144.563C157.71 144.562 157.711 144.562 157.711 144.562C157.711 144.562 157.71 144.555 157.706 144.543M157.709 144.563C157.664 144.575 157.092 144.731 156.059 144.977M157.709 144.563C157.707 144.556 157.705 144.55 157.703 144.544M160.06 185.634C195.756 197.799 233.654 187.349 233.654 187.349C233.654 187.349 222.941 149.501 194.032 125.262M160.06 185.634C154.966 183.898 149.917 181.701 145.029 178.948C137.53 174.718 130.955 169.484 125.225 163.786M160.06 185.634C153.535 222.803 126.152 251 126.152 251C126.152 251 98.1724 223.374 90.8563 186.369M194.032 125.262C189.98 128.812 185.55 132.092 180.719 134.953C173.313 139.339 165.499 142.423 157.706 144.543M194.032 125.262C189.909 121.805 185.415 118.624 180.53 115.87C173.033 111.644 165.157 108.728 157.322 106.775M194.032 125.262C222.404 100.412 232.301 62.3584 232.301 62.3584C232.301 62.3584 194.204 52.7183 158.783 65.6481M157.706 144.543L157.703 144.544M157.706 144.543C157.698 144.516 157.682 144.461 157.658 144.378C157.636 144.304 157.608 144.208 157.572 144.091M90.8563 186.369C95.9134 184.523 100.916 182.216 105.745 179.356C113.15 174.971 119.61 169.602 125.216 163.788M90.8563 186.369C55.4338 199.301 17.334 189.66 17.334 189.66C17.334 189.66 27.2332 151.597 55.6128 126.747M90.8563 186.369C89.8114 181.083 89.188 175.607 89.1278 169.992C89.0357 161.386 90.2719 153.078 92.3313 145.269M125.225 163.786C125.221 163.789 125.22 163.791 125.22 163.791C125.22 163.791 125.218 163.79 125.216 163.788M125.225 163.786C125.223 163.785 125.222 163.784 125.221 163.782M125.225 163.786C125.254 163.756 125.412 163.592 125.683 163.301M125.216 163.788C125.187 163.759 124.974 163.548 124.605 163.165M125.216 163.788C125.218 163.786 125.219 163.784 125.221 163.782M92.3313 145.269C92.3155 145.265 92.3076 145.263 92.3076 145.263C92.3076 145.263 92.3094 145.256 92.3132 145.241M92.3313 145.269C92.3331 145.262 92.335 145.254 92.3369 145.247M92.3313 145.269C92.4539 145.299 93.0498 145.446 94.0612 145.662M92.3132 145.241C84.4849 143.289 76.6153 140.373 69.1235 136.148C64.2347 133.391 59.7384 130.208 55.6128 126.747M92.3132 145.241C92.3457 145.118 92.5187 144.471 92.8466 143.385M92.3132 145.241C92.3211 145.243 92.329 145.245 92.3369 145.247M55.6128 126.747C59.6627 123.201 64.0889 119.924 68.9164 117.065C76.3226 112.679 84.1362 109.595 91.9292 107.475M55.6128 126.747C26.7101 102.505 16 64.6691 16 64.6691C16 64.6691 53.8803 54.2207 89.5704 66.3908M91.9292 107.475C91.9256 107.463 91.9238 107.457 91.9238 107.457C91.9238 107.457 91.9264 107.456 91.9315 107.454M91.9292 107.475C91.9507 107.55 92.037 107.849 92.1917 108.347M91.9292 107.475C91.9317 107.475 91.9343 107.474 91.9369 107.473M91.9315 107.454C89.7024 99.6849 88.2869 91.3973 88.1958 82.7827C88.1366 77.1736 88.6414 71.691 89.5704 66.3908M91.9315 107.454C92.0026 107.435 92.5644 107.282 93.5572 107.046M91.9315 107.454C91.9333 107.461 91.9351 107.467 91.9369 107.473M89.5704 66.3908C96.0879 29.2092 123.484 1 123.484 1C123.484 1 151.472 28.6304 158.783 65.6481M89.5704 66.3908C94.6658 68.1283 99.7166 70.3269 104.606 73.0827C112.101 77.3066 118.672 82.534 124.4 88.2255M158.783 65.6481C153.724 67.4945 148.72 69.8012 143.89 72.662C136.49 77.0447 130.032 82.4101 124.428 88.2213M158.783 65.6481C159.825 70.9282 160.447 76.3993 160.507 82.0084C160.6 90.6208 159.361 98.9346 157.299 106.748M124.4 88.2255C124.41 88.2144 124.416 88.2089 124.416 88.2089C124.416 88.2089 124.42 88.213 124.428 88.2213M124.4 88.2255C124.404 88.2297 124.408 88.2338 124.412 88.238M124.4 88.2255C124.321 88.3072 123.955 88.6893 123.355 89.3504M124.428 88.2213C124.508 88.3011 124.972 88.7641 125.739 89.5803M124.428 88.2213C124.423 88.2269 124.417 88.2324 124.412 88.238M157.299 106.748C157.318 106.753 157.328 106.755 157.328 106.755C157.328 106.755 157.326 106.762 157.322 106.775M157.299 106.748C157.298 106.755 157.296 106.762 157.294 106.768M157.299 106.748C157.171 106.716 156.605 106.578 155.654 106.374M157.322 106.775C157.313 106.773 157.304 106.77 157.294 106.768M157.322 106.775C157.289 106.903 157.089 107.652 156.704 108.913M150.373 125.564C148.348 121.387 146.181 117.473 143.994 113.87C141.708 110.102 139.4 106.673 137.21 103.636M150.373 125.564C153.747 118.047 155.77 111.973 156.704 108.913M150.373 125.564C148.854 128.947 147.062 132.622 144.972 136.446C142.932 140.179 140.608 144.054 137.978 147.938M150.373 125.564C153.144 131.284 155.649 137.498 157.572 144.091M156.704 108.913C156.907 108.202 157.104 107.487 157.294 106.768M157.294 106.768C156.747 106.632 156.201 106.501 155.654 106.374M155.654 106.374C149.389 104.919 143.169 104.066 137.21 103.636M123.355 89.3504C123.704 88.9779 124.056 88.607 124.412 88.238M123.355 89.3504C118.919 94.0872 115.034 99.0921 111.656 104.082M137.21 103.636C132.804 103.318 128.541 103.232 124.508 103.306C119.877 103.391 115.549 103.686 111.656 104.082M137.21 103.636C132.218 96.7101 127.84 91.818 125.739 89.5803M125.739 89.5803C125.302 89.1302 124.859 88.6827 124.412 88.238M91.9369 107.473C92.0207 107.765 92.1056 108.056 92.1917 108.347M91.9369 107.473C92.4771 107.326 93.0173 107.184 93.5572 107.046M92.1917 108.347C94.0983 114.78 96.5549 120.849 99.2669 126.445M111.656 104.082C109.158 107.771 106.937 111.451 104.972 115.01C102.751 119.032 100.859 122.899 99.2669 126.445M111.656 104.082C102.964 104.968 96.4417 106.36 93.5572 107.046M94.0612 145.662C93.4868 145.529 92.912 145.391 92.3369 145.247M94.0612 145.662C100.305 147.108 106.502 147.957 112.44 148.385M99.2669 126.445C101.191 130.414 103.243 134.144 105.319 137.597C107.715 141.583 110.143 145.2 112.44 148.385M99.2669 126.445C95.7841 134.202 93.7403 140.424 92.8466 143.385M92.8466 143.385C92.6716 144.002 92.5017 144.623 92.3369 145.247M125.683 163.301C125.529 163.462 125.376 163.622 125.221 163.782M125.683 163.301C130.368 158.379 134.449 153.151 137.978 147.938M112.44 148.385C116.908 148.707 121.229 148.791 125.312 148.711C129.873 148.623 134.137 148.33 137.978 147.938M112.44 148.385C118.085 156.213 122.94 161.438 124.605 163.165M124.605 163.165C124.809 163.371 125.015 163.577 125.221 163.782M157.703 144.544C157.66 144.392 157.616 144.241 157.572 144.091M157.703 144.544C157.155 144.693 156.607 144.837 156.059 144.977M137.978 147.938C146.651 147.054 153.164 145.665 156.059 144.977" stroke="black" stroke-width="2" stroke-linejoin="round"/>
</svg>
