<svg width="252" height="250" viewBox="0 0 252 250" fill="none" xmlns="http://www.w3.org/2000/svg">
<path d="M251 98.1784L165.4 84.5853L126 138.731L251 98.1784Z" fill="#F9F9F9"/>
<path d="M126 7.5L86.6003 84.5853L126 138.731V7.5Z" fill="#F9F9F9"/>
<path d="M1 98.1784L62.25 159.413L126 138.731L1 98.1784Z" fill="#F9F9F9"/>
<path d="M48.7458 244.899L126 205.659V138.731L48.7458 244.899Z" fill="#F9F9F9"/>
<path d="M203.254 244.899L189.75 159.413L126 138.731L203.254 244.899Z" fill="#F9F9F9"/>
<path d="M126 205.659L203.254 244.899L126 138.731V205.659Z" fill="#F9F9F9"/>
<path d="M189.75 159.413L251 98.1784L126 138.731L189.75 159.413Z" fill="#F9F9F9"/>
<path d="M165.4 84.5853L126 7.5V138.731L165.4 84.5853Z" fill="#F9F9F9"/>
<path d="M86.6003 84.5853L1 98.1784L126 138.731L86.6003 84.5853Z" fill="#F9F9F9"/>
<path d="M62.25 159.413L48.7458 244.899L126 138.731L62.25 159.413Z" fill="#F9F9F9"/>
<path d="M126 7.5L165.4 84.5853M126 7.5L86.6003 84.5853M126 7.5V138.731M165.4 84.5853L251 98.1784M165.4 84.5853L126 138.731M251 98.1784L189.75 159.413M251 98.1784L126 138.731M189.75 159.413L203.254 244.899M189.75 159.413L126 138.731M203.254 244.899L126 205.659M203.254 244.899L126 138.731M126 205.659L48.7458 244.899M126 205.659V138.731M48.7458 244.899L62.25 159.413M48.7458 244.899L126 138.731M62.25 159.413L1 98.1784M62.25 159.413L126 138.731M1 98.1784L86.6003 84.5853M1 98.1784L126 138.731M86.6003 84.5853L126 138.731" stroke="black" stroke-width="2" stroke-linejoin="round"/>
<path d="M126 205.659L203.254 244.899L126 138.731V205.659Z" fill="#F9F9F9"/>
<path d="M189.75 159.413L251 98.1784L126 138.731L189.75 159.413Z" fill="#F9F9F9"/>
<path d="M165.4 84.5853L126 7.5V138.731L165.4 84.5853Z" fill="#F9F9F9"/>
<path d="M86.6003 84.5853L1 98.1784L126 138.731L86.6003 84.5853Z" fill="#F9F9F9"/>
<path d="M62.25 159.413L48.7458 244.899L126 138.731L62.25 159.413Z" fill="#F9F9F9"/>
<path d="M126 7.5L165.4 84.5853M126 7.5L86.6003 84.5853M126 7.5V138.731M165.4 84.5853L251 98.1784M165.4 84.5853L126 138.731M251 98.1784L189.75 159.413M251 98.1784L126 138.731M189.75 159.413L203.254 244.899M189.75 159.413L126 138.731M203.254 244.899L126 205.659M203.254 244.899L126 138.731M126 205.659L48.7458 244.899M126 205.659V138.731M48.7458 244.899L62.25 159.413M48.7458 244.899L126 138.731M62.25 159.413L1 98.1784M62.25 159.413L126 138.731M1 98.1784L86.6003 84.5853M1 98.1784L126 138.731M86.6003 84.5853L126 138.731" stroke="black" stroke-width="2" stroke-linejoin="round"/>
</svg>
