<svg width="250" height="252" viewBox="0 0 250 252" fill="none" xmlns="http://www.w3.org/2000/svg">
<path fill-rule="evenodd" clip-rule="evenodd" d="M87.2532 61.0481L124.753 1V126L87.2532 61.0481ZM16.5 63.5L49.7532 126H124.753L16.5 188.5L87.2532 190.952L124.753 126V251L162.253 190.952L124.753 126L233.006 188.5L199.753 126H124.753L233.006 63.5L162.253 61.0481L124.753 126L16.5 63.5Z" fill="#F9F9F9"/>
<path d="M162.253 61.0481L124.753 1V126L162.253 61.0481Z" fill="#F9F9F9"/>
<path d="M87.2532 61.0481L16.5 63.5L124.753 126L87.2532 61.0481Z" fill="#F9F9F9"/>
<path d="M49.7532 126L16.5 188.5L124.753 126H49.7532Z" fill="#F9F9F9"/>
<path d="M87.2532 190.952L124.753 251V126L87.2532 190.952Z" fill="#F9F9F9"/>
<path d="M162.253 190.952L233.006 188.5L124.753 126L162.253 190.952Z" fill="#F9F9F9"/>
<path d="M199.753 126L233.006 63.5L124.753 126H199.753Z" fill="#F9F9F9"/>
<path d="M124.753 1L162.253 61.0481M124.753 1L87.2532 61.0481M124.753 1V126M162.253 61.0481L233.006 63.5M162.253 61.0481L124.753 126M233.006 63.5L199.753 126M233.006 63.5L124.753 126M199.753 126L233.006 188.5M199.753 126H124.753M233.006 188.5L162.253 190.952M233.006 188.5L124.753 126M162.253 190.952L124.753 251M162.253 190.952L124.753 126M124.753 251L87.2532 190.952M124.753 251V126M87.2532 190.952L16.5 188.5M87.2532 190.952L124.753 126M16.5 188.5L49.7532 126M16.5 188.5L124.753 126M49.7532 126L16.5 63.5M49.7532 126H124.753M16.5 63.5L87.2532 61.0481M16.5 63.5L124.753 126M87.2532 61.0481L124.753 126" stroke="black" stroke-width="2" stroke-linejoin="round"/>
<path fill-rule="evenodd" clip-rule="evenodd" d="M87.2532 61.0481L124.753 1V126L87.2532 61.0481ZM16.5 63.5L49.7532 126H124.753L16.5 188.5L87.2532 190.952L124.753 126V251L162.253 190.952L124.753 126L233.006 188.5L199.753 126H124.753L233.006 63.5L162.253 61.0481L124.753 126L16.5 63.5Z" fill="#F9F9F9"/>
<path d="M124.753 1L162.253 61.0481M124.753 1L87.2532 61.0481M124.753 1V126M162.253 61.0481L233.006 63.5M162.253 61.0481L124.753 126M233.006 63.5L199.753 126M233.006 63.5L124.753 126M199.753 126L233.006 188.5M199.753 126H124.753M233.006 188.5L162.253 190.952M233.006 188.5L124.753 126M162.253 190.952L124.753 251M162.253 190.952L124.753 126M124.753 251L87.2532 190.952M124.753 251V126M87.2532 190.952L16.5 188.5M87.2532 190.952L124.753 126M16.5 188.5L49.7532 126M16.5 188.5L124.753 126M49.7532 126L16.5 63.5M49.7532 126H124.753M16.5 63.5L87.2532 61.0481M16.5 63.5L124.753 126M87.2532 61.0481L124.753 126" stroke="black" stroke-width="2" stroke-linejoin="round"/>
</svg>
