<svg width="252" height="250" viewBox="0 0 252 250" fill="none" xmlns="http://www.w3.org/2000/svg">
<path fill-rule="evenodd" clip-rule="evenodd" d="M164.941 50.3525L126 3V131.215L87.0588 50.3525L25.7578 51.2741L126 131.215L38.5 111.243L1 159.745L126 131.215L55.8305 187.173L70.3698 246.732L126 131.215V220.965L181.63 246.732L126 131.215L196.17 187.173L251 159.745L126 131.215L213.5 111.243L226.242 51.2741L126 131.215L164.941 50.3525Z" fill="#F9F9F9"/>
<path d="M126 3L87.0588 50.3525L126 131.215V3Z" fill="#F9F9F9"/>
<path d="M25.7578 51.2741L38.5 111.243L126 131.215L25.7578 51.2741Z" fill="#F9F9F9"/>
<path d="M1 159.745L55.8305 187.173L126 131.215L1 159.745Z" fill="#F9F9F9"/>
<path d="M70.3698 246.732L126 220.965V131.215L70.3698 246.732Z" fill="#F9F9F9"/>
<path d="M181.63 246.732L196.17 187.173L126 131.215L181.63 246.732Z" fill="#F9F9F9"/>
<path d="M251 159.745L213.5 111.243L126 131.215L251 159.745Z" fill="#F9F9F9"/>
<path d="M226.242 51.2741L164.941 50.3525L126 131.215L226.242 51.2741Z" fill="#F9F9F9"/>
<path d="M126 3L164.941 50.3525M126 3L87.0588 50.3525M126 3V131.215M164.941 50.3525L226.242 51.2741M164.941 50.3525L126 131.215M226.242 51.2741L213.5 111.243M226.242 51.2741L126 131.215M213.5 111.243L251 159.745M213.5 111.243L126 131.215M251 159.745L196.17 187.173M251 159.745L126 131.215M196.17 187.173L181.63 246.732M196.17 187.173L126 131.215M181.63 246.732L126 220.965M181.63 246.732L126 131.215M126 220.965L70.3698 246.732M126 220.965V131.215M70.3698 246.732L55.8305 187.173M70.3698 246.732L126 131.215M55.8305 187.173L1 159.745M55.8305 187.173L126 131.215M1 159.745L38.5 111.243M1 159.745L126 131.215M38.5 111.243L25.7578 51.2741M38.5 111.243L126 131.215M25.7578 51.2741L87.0588 50.3525M25.7578 51.2741L126 131.215M87.0588 50.3525L126 131.215" stroke="black" stroke-width="2" stroke-linejoin="round"/>
<path fill-rule="evenodd" clip-rule="evenodd" d="M164.941 50.3525L126 3V131.215L87.0588 50.3525L25.7578 51.2741L126 131.215L38.5 111.243L1 159.745L126 131.215L55.8305 187.173L70.3698 246.732L126 131.215V220.965L181.63 246.732L126 131.215L196.17 187.173L251 159.745L126 131.215L213.5 111.243L226.242 51.2741L126 131.215L164.941 50.3525Z" fill="#F9F9F9"/>
<path d="M126 3L164.941 50.3525M126 3L87.0588 50.3525M126 3V131.215M164.941 50.3525L226.242 51.2741M164.941 50.3525L126 131.215M226.242 51.2741L213.5 111.243M226.242 51.2741L126 131.215M213.5 111.243L251 159.745M213.5 111.243L126 131.215M251 159.745L196.17 187.173M251 159.745L126 131.215M196.17 187.173L181.63 246.732M196.17 187.173L126 131.215M181.63 246.732L126 220.965M181.63 246.732L126 131.215M126 220.965L70.3698 246.732M126 220.965V131.215M70.3698 246.732L55.8305 187.173M70.3698 246.732L126 131.215M55.8305 187.173L1 159.745M55.8305 187.173L126 131.215M1 159.745L38.5 111.243M1 159.745L126 131.215M38.5 111.243L25.7578 51.2741M38.5 111.243L126 131.215M25.7578 51.2741L87.0588 50.3525M25.7578 51.2741L126 131.215M87.0588 50.3525L126 131.215" stroke="black" stroke-width="2" stroke-linejoin="round"/>
</svg>
