<svg width="250" height="252" viewBox="0 0 250 252" fill="none" xmlns="http://www.w3.org/2000/svg">
<path fill-rule="evenodd" clip-rule="evenodd" d="M148.537 72.4505C139.82 72.7944 130.904 70.7652 122.79 66.0955C99.9261 52.9364 92.0924 23.7921 105.293 1C96.6883 15.8567 93.4461 32.3328 94.9676 48.2011C95.122 49.8122 95.3256 51.4169 95.5776 53.0131C98.6265 72.3212 108.768 90.3716 124.894 103.039C135.435 94.7588 143.419 84.1786 148.537 72.4505Z" fill="#F9F9F9"/>
<path fill-rule="evenodd" clip-rule="evenodd" d="M6.5 80.4222C19.7005 103.214 48.9364 111.024 71.8003 97.8645C79.9138 93.1949 86.1346 86.5124 90.1944 78.815C97.8243 89.0969 103.024 101.28 104.947 114.52C85.8774 122.108 65.1235 121.838 46.8243 114.814C45.3145 114.235 43.8213 113.609 42.3472 112.938C27.7992 106.318 15.1053 95.2802 6.5 80.4222Z" fill="#F9F9F9"/>
<path fill-rule="evenodd" clip-rule="evenodd" d="M26.1011 205.422C52.502 205.422 73.9042 184.087 73.9042 157.769C73.9042 148.43 71.2091 139.718 66.5519 132.364C79.2993 130.918 92.4828 132.521 104.947 137.481C102.005 157.738 91.393 175.519 76.1418 187.805C74.8832 188.819 73.593 189.796 72.2729 190.733C59.2475 199.982 43.3116 205.422 26.1011 205.422ZM46.8243 114.814C45.3713 114.116 43.8774 113.49 42.3472 112.938C27.7992 106.318 15.1053 95.2802 6.5 80.4222C19.7005 103.214 48.9364 111.024 71.8003 97.8645C79.9138 93.1949 86.1346 86.5124 90.1944 78.815C97.8243 89.0969 103.024 101.28 104.947 114.52C85.8774 122.108 65.1235 121.838 46.8243 114.814Z" fill="#F9F9F9"/>
<path fill-rule="evenodd" clip-rule="evenodd" d="M223.687 46.5784C197.286 46.5784 175.884 67.9134 175.884 94.2316C175.884 103.571 178.579 112.282 183.236 119.636C170.489 121.082 157.306 119.479 144.842 114.52C147.784 94.2614 158.397 76.4787 173.65 64.1925C174.906 63.1803 176.195 62.2054 177.512 61.2695C190.539 52.0192 206.476 46.5784 223.687 46.5784Z" fill="#F9F9F9"/>
<path fill-rule="evenodd" clip-rule="evenodd" d="M207.443 139.063C221.991 145.683 234.684 156.721 243.289 171.578C230.088 148.786 200.852 140.977 177.988 154.136C169.95 158.762 163.77 165.364 159.708 172.971L159.672 173.038C159.646 173.087 159.62 173.136 159.594 173.186C151.964 162.904 146.765 150.721 144.842 137.481C163.91 129.893 184.663 130.163 202.962 137.185C204.474 137.765 205.968 138.391 207.443 139.063Z" fill="#F9F9F9"/>
<path d="M126.999 185.905C149.862 199.064 157.696 228.208 144.496 251C153.1 236.143 156.343 219.667 154.821 203.798C154.534 202.199 154.331 200.594 154.211 198.988C151.163 179.68 141.021 161.629 124.894 148.961C114.353 157.241 106.369 167.822 101.252 179.55C109.969 179.206 118.885 181.235 126.999 185.905Z" fill="#F9F9F9"/>
<path d="M124.894 103.039C108.768 90.3716 98.6265 72.3212 95.5776 53.0131M124.894 103.039C121.91 105.383 118.721 107.543 115.334 109.493C111.947 111.442 108.476 113.116 104.947 114.52M124.894 103.039C127.879 105.383 131.068 107.543 134.455 109.492C137.729 111.377 141.083 113.004 144.491 114.379C144.608 114.426 144.725 114.473 144.842 114.52M124.894 103.039C135.435 94.7588 143.419 84.1786 148.537 72.4505C139.82 72.7944 130.904 70.7652 122.79 66.0955C99.9261 52.9364 92.0924 23.7921 105.293 1C96.6883 15.8567 93.4461 32.3328 94.9676 48.2011M95.5776 53.0131C95.4573 51.4067 95.2545 49.8007 94.9676 48.2011M95.5776 53.0131C95.3256 51.4169 95.122 49.8122 94.9676 48.2011M104.947 114.52C103.024 101.28 97.8243 89.0969 90.1944 78.815C86.1346 86.5124 79.9138 93.1949 71.8003 97.8645C48.9364 111.024 19.7005 103.214 6.5 80.4222C15.1053 95.2802 27.7992 106.318 42.3472 112.938M104.947 114.52C105.491 118.268 105.773 122.101 105.773 126C105.773 129.899 105.491 133.732 104.947 137.481M104.947 114.52C85.8774 122.108 65.1235 121.838 46.8243 114.814M144.842 114.52C147.784 94.2614 158.397 76.4787 173.65 64.1925M144.842 114.52C144.297 118.268 144.016 122.101 144.016 126C144.016 129.77 144.279 133.478 144.788 137.108C144.806 137.232 144.824 137.356 144.842 137.481M144.842 114.52C157.306 119.479 170.489 121.082 183.236 119.636C178.579 112.282 175.884 103.571 175.884 94.2316C175.884 67.9134 197.286 46.5784 223.687 46.5784C206.476 46.5784 190.539 52.0192 177.512 61.2695M173.65 64.1925C174.981 63.2882 176.27 62.3134 177.512 61.2695M173.65 64.1925C174.906 63.1803 176.195 62.2054 177.512 61.2695M144.842 137.481C163.91 129.893 184.663 130.163 202.962 137.185M144.842 137.481C141.313 138.885 137.842 140.558 134.455 142.508C131.18 144.393 128.09 146.474 125.192 148.729C125.092 148.806 124.993 148.884 124.894 148.961M144.842 137.481C146.765 150.721 151.964 162.904 159.594 173.186C159.62 173.136 159.646 173.087 159.672 173.038M202.962 137.185C204.417 137.884 205.912 138.511 207.443 139.063M202.962 137.185C204.474 137.765 205.968 138.391 207.443 139.063M124.894 148.961C141.021 161.629 151.163 179.68 154.211 198.988M124.894 148.961C121.91 146.617 118.721 144.457 115.334 142.508C112.059 140.623 108.706 138.996 105.298 137.621C105.181 137.574 105.064 137.527 104.947 137.481M124.894 148.961C114.353 157.241 106.369 167.822 101.252 179.55C109.969 179.206 118.885 181.235 126.999 185.905C149.862 199.064 157.696 228.208 144.496 251C153.1 236.143 156.343 219.667 154.821 203.798M154.211 198.988C154.331 200.594 154.534 202.199 154.821 203.798M154.211 198.988C154.463 200.584 154.666 202.188 154.821 203.798M104.947 137.481C102.005 157.738 91.393 175.519 76.1418 187.805M104.947 137.481C92.4828 132.521 79.2993 130.918 66.5519 132.364C71.2091 139.718 73.9042 148.43 73.9042 157.769C73.9042 184.087 52.502 205.422 26.1011 205.422C43.3116 205.422 59.2475 199.982 72.2729 190.733M76.1418 187.805C74.8087 188.711 73.517 189.688 72.2729 190.733M76.1418 187.805C74.8832 188.819 73.593 189.796 72.2729 190.733M46.8243 114.814C45.3712 114.116 43.8774 113.49 42.3472 112.938M46.8243 114.814C45.3145 114.235 43.8213 113.609 42.3472 112.938M207.443 139.063C221.991 145.683 234.684 156.721 243.289 171.578C230.088 148.786 200.852 140.977 177.988 154.136C169.95 158.762 163.77 165.364 159.708 172.971M159.672 173.038L159.708 172.971M159.672 173.038C159.684 173.016 159.696 172.993 159.708 172.971" stroke="black" stroke-width="2" stroke-linejoin="round"/>
</svg>
