<svg width="260" height="252" viewBox="0 0 260 252" fill="none" xmlns="http://www.w3.org/2000/svg">
<path d="M179.333 1C188.261 28.4302 173.224 57.8918 145.748 66.8045C137.294 69.5468 128.648 70.0242 120.467 68.5719C121.167 81.9104 124.944 95.2142 131.976 107.373C172.226 89.4837 193.25 43.7608 179.333 1Z" fill="#F9F9F9"/>
<path d="M258.783 134.356C235.41 151.309 202.697 146.136 185.716 122.803C180.491 115.623 177.364 107.561 176.22 99.3453C163.729 104.131 152.222 111.829 142.812 122.263C172.292 154.951 222.347 160.784 258.783 134.356Z" fill="#F9F9F9"/>
<path d="M156.292 251C132.92 234.047 127.738 201.389 144.72 178.055C149.944 170.876 156.659 165.416 164.132 161.79C155.713 151.41 144.824 142.863 131.976 137.153C109.946 175.244 119.857 224.572 156.292 251Z" fill="#F9F9F9"/>
<path d="M13.5 189.733C22.4276 162.303 51.9387 147.292 79.4148 156.204C87.8688 158.947 95.1452 163.634 100.908 169.61C108.196 158.408 112.973 145.429 114.442 131.465C71.3471 122.319 27.4172 146.972 13.5 189.733Z" fill="#F9F9F9"/>
<path d="M27.7403 35.2252C56.6304 35.2252 80.0505 58.6061 80.0505 87.4479C80.0505 96.3221 77.8333 104.679 73.9217 111.998C86.8448 115.456 100.686 115.98 114.442 113.061C109.838 69.3169 72.7771 35.2252 27.7403 35.2252Z" fill="#F9F9F9"/>
<path d="M131.976 107.373C133.499 110.006 135.175 112.586 137.005 115.101C138.835 117.615 140.774 120.003 142.812 122.263M131.976 107.373C172.226 89.4837 193.25 43.7608 179.333 1C188.261 28.4302 173.224 57.8918 145.748 66.8045C137.294 69.5468 128.648 70.0242 120.467 68.5719C121.167 81.9104 124.944 95.2142 131.976 107.373ZM131.976 107.373C129.194 108.61 126.319 109.714 123.358 110.674C120.397 111.635 117.422 112.428 114.442 113.061M142.812 122.263C140.774 124.523 138.834 126.911 137.004 129.425C135.174 131.94 133.499 134.519 131.976 137.153M142.812 122.263C152.222 111.829 163.729 104.131 176.22 99.3453C177.364 107.561 180.491 115.623 185.716 122.803C202.697 146.136 235.41 151.309 258.783 134.356C222.347 160.784 172.292 154.951 142.812 122.263ZM131.976 137.153C129.193 135.916 126.319 134.812 123.358 133.852C120.397 132.891 117.422 132.098 114.442 131.465M131.976 137.153C109.946 175.244 119.857 224.572 156.292 251C132.92 234.047 127.738 201.389 144.72 178.055C149.944 170.876 156.659 165.416 164.132 161.79C155.713 151.41 144.824 142.863 131.976 137.153ZM114.442 113.061C114.761 116.085 114.924 119.155 114.924 122.263C114.924 125.371 114.761 128.441 114.442 131.465M114.442 113.061C100.686 115.98 86.8448 115.456 73.9217 111.998C77.8333 104.679 80.0505 96.3221 80.0505 87.4479C80.0505 58.6061 56.6304 35.2252 27.7403 35.2252C72.7771 35.2252 109.838 69.3169 114.442 113.061ZM114.442 131.465C71.3471 122.319 27.4172 146.972 13.5 189.733C22.4276 162.303 51.9387 147.292 79.4148 156.204C87.8688 158.947 95.1452 163.634 100.908 169.61C108.196 158.408 112.973 145.429 114.442 131.465Z" stroke="black" stroke-width="2" stroke-linejoin="round"/>
</svg>
