<svg width="252" height="252" viewBox="0 0 252 252" fill="none" xmlns="http://www.w3.org/2000/svg">
<path d="M251 1C187.393 4.4804 136.43 55.443 132.95 119.05C152.836 117.962 171.486 112.233 187.836 102.927C184.606 94.5471 182.836 85.4424 182.836 75.9241C182.836 36.7856 212.77 4.63853 250.993 1.12825L251 1Z" fill="#F9F9F9"/>
<path d="M251 251C247.52 187.393 196.557 136.43 132.95 132.95C134.038 152.836 139.767 171.486 149.073 187.836C157.453 184.606 166.558 182.836 176.076 182.836C215.214 182.836 247.361 212.77 250.872 250.993L251 251Z" fill="#F9F9F9"/>
<path d="M119.05 132.95C99.164 134.038 80.5137 139.767 64.164 149.073C67.3935 157.453 69.1639 166.558 69.1639 176.076C69.1639 215.214 39.2299 247.361 1.00709 250.872L1 251C64.6071 247.52 115.57 196.557 119.05 132.95Z" fill="#F9F9F9"/>
<path d="M119.05 119.05C117.962 99.164 112.233 80.5137 102.927 64.164C94.5471 67.3935 85.4424 69.1639 75.9241 69.1639C36.7856 69.1639 4.63852 39.2299 1.12825 1.00709L1 1C4.4804 64.6071 55.443 115.57 119.05 119.05Z" fill="#F9F9F9"/>
<path fill-rule="evenodd" clip-rule="evenodd" d="M132.95 119.05C152.836 117.962 171.486 112.233 187.836 102.927C184.606 94.5471 182.836 85.4424 182.836 75.9241C182.836 36.7856 212.77 4.63853 250.993 1.12825L251 1C187.393 4.4804 136.43 55.443 132.95 119.05ZM149.073 187.836C139.767 171.486 134.038 152.836 132.95 132.95C196.557 136.43 247.52 187.393 251 251L250.872 250.993C247.361 212.77 215.214 182.836 176.076 182.836C166.558 182.836 157.453 184.606 149.073 187.836Z" fill="#F9F9F9"/>
<path d="M251 251C247.52 187.393 196.557 136.43 132.95 132.95M251 251L250.872 250.993M251 251C250.957 250.998 250.914 250.995 250.872 250.993M132.95 132.95C132.824 130.649 132.76 128.332 132.76 126C132.76 123.668 132.824 121.351 132.95 119.05M132.95 132.95C134.038 152.836 139.767 171.486 149.073 187.836C157.453 184.606 166.558 182.836 176.076 182.836C215.214 182.836 247.361 212.77 250.872 250.993M132.95 132.95C130.649 132.824 128.332 132.76 126 132.76C123.668 132.76 121.351 132.824 119.05 132.95M119.05 132.95C119.176 130.649 119.24 128.332 119.24 126C119.24 123.668 119.176 121.351 119.05 119.05M119.05 132.95C99.164 134.038 80.5137 139.767 64.164 149.073C67.3935 157.453 69.1639 166.558 69.1639 176.076C69.1639 215.214 39.2299 247.361 1.00709 250.872M119.05 132.95C115.57 196.557 64.6071 247.52 1 251M1.00709 250.872L1 251M1.00709 250.872C1.00471 250.914 1.00234 250.957 1 251M251 1C187.393 4.4804 136.43 55.443 132.95 119.05M251 1C250.998 1.04275 250.995 1.0855 250.993 1.12825M251 1L250.993 1.12825M250.993 1.12825C212.77 4.63853 182.836 36.7856 182.836 75.9241C182.836 85.4424 184.606 94.5471 187.836 102.927C171.486 112.233 152.836 117.962 132.95 119.05M132.95 119.05C130.649 119.176 128.332 119.24 126 119.24C123.668 119.24 121.351 119.176 119.05 119.05M119.05 119.05C117.962 99.164 112.233 80.5137 102.927 64.164C94.5471 67.3935 85.4424 69.1639 75.9241 69.1639C36.7856 69.1639 4.63852 39.2299 1.12825 1.00709M119.05 119.05C55.443 115.57 4.4804 64.6071 1 1M1.12825 1.00709L1 1M1.12825 1.00709C1.0855 1.00471 1.04275 1.00234 1 1" stroke="black" stroke-width="2" stroke-linejoin="round"/>
</svg>
