<svg width="252" height="252" viewBox="0 0 252 252" fill="none" xmlns="http://www.w3.org/2000/svg">
<path d="M163.714 67.8248C161.488 68.9323 159.131 69.8307 156.656 70.494C134.256 76.496 110.634 60.97 103.894 35.8157C100.586 23.4729 101.958 11.1053 106.86 1C95.7385 12.412 88.2865 33.3457 88.2865 57.2802C88.2865 71.2326 90.8188 84.1652 95.1342 94.7864C101.32 110.01 111.169 120.485 122.475 122.407C123.715 122.618 124.973 122.726 126.245 122.726C127.373 122.726 128.49 122.641 129.593 122.475C131.515 111.169 141.99 101.32 157.214 95.1341C160.495 87.1676 162.769 77.8802 163.714 67.8248Z" fill="#F9F9F9"/>
<path d="M184.175 163.714C183.068 161.488 182.169 159.131 181.506 156.656C175.504 134.256 191.03 110.634 216.184 103.894C228.527 100.586 240.895 101.958 251 106.86C239.588 95.7384 218.654 88.2864 194.72 88.2864C180.767 88.2864 167.835 90.8187 157.214 95.1341C141.99 101.32 131.515 111.169 129.593 122.475C129.382 123.715 129.274 124.973 129.274 126.245C129.274 127.373 129.359 128.49 129.525 129.593C140.831 131.515 150.68 141.99 156.866 157.214C164.832 160.495 174.12 162.769 184.175 163.714Z" fill="#F9F9F9"/>
<path d="M88.2865 184.175C90.5118 183.068 92.8687 182.169 95.3441 181.506C117.744 175.504 141.366 191.03 148.106 216.184C151.414 228.527 150.042 240.895 145.14 251C156.262 239.588 163.714 218.654 163.714 194.72C163.714 180.767 161.181 167.835 156.866 157.214C150.68 141.99 140.831 131.515 129.525 129.593C128.285 129.382 127.027 129.274 125.755 129.274C124.627 129.274 123.51 129.359 122.407 129.525C120.485 140.831 110.01 150.68 94.7865 156.866C91.5047 164.832 89.2312 174.12 88.2865 184.175Z" fill="#F9F9F9"/>
<path d="M67.8247 88.2864C68.9322 90.5117 69.8306 92.8686 70.4939 95.344C76.4959 117.744 60.9699 141.366 35.8156 148.106C23.4729 151.414 11.1053 150.042 1 145.14C12.412 156.262 33.3457 163.714 57.2802 163.714C71.2326 163.714 84.1653 161.181 94.7865 156.866C110.01 150.68 120.485 140.831 122.407 129.525C122.618 128.285 122.726 127.027 122.726 125.755C122.726 124.627 122.641 123.51 122.475 122.407C111.169 120.485 101.32 110.01 95.1342 94.7864C87.1677 91.5046 77.8802 89.2311 67.8247 88.2864Z" fill="#F9F9F9"/>
<path d="M122.475 122.407C123.715 122.618 124.973 122.726 126.245 122.726C127.373 122.726 128.49 122.641 129.593 122.475M122.475 122.407C122.641 123.51 122.726 124.627 122.726 125.755C122.726 127.027 122.618 128.285 122.407 129.525M122.475 122.407C111.169 120.485 101.32 110.01 95.1342 94.7864M122.407 129.525C123.51 129.359 124.627 129.274 125.755 129.274C127.027 129.274 128.285 129.382 129.525 129.593M122.407 129.525C120.485 140.831 110.01 150.68 94.7865 156.866M129.525 129.593C129.359 128.49 129.274 127.373 129.274 126.245C129.274 124.973 129.382 123.715 129.593 122.475M129.525 129.593C140.831 131.515 150.68 141.99 156.866 157.214M129.593 122.475C131.515 111.169 141.99 101.32 157.214 95.1341M157.214 95.1341C160.495 87.1676 162.769 77.8802 163.714 67.8248C161.488 68.9323 159.131 69.8307 156.656 70.494C134.256 76.496 110.634 60.97 103.894 35.8157C100.586 23.4729 101.958 11.1053 106.86 1C95.7385 12.412 88.2865 33.3457 88.2865 57.2802C88.2865 71.2326 90.8188 84.1652 95.1342 94.7864M157.214 95.1341C167.835 90.8187 180.767 88.2864 194.72 88.2864C218.654 88.2864 239.588 95.7384 251 106.86C240.895 101.958 228.527 100.586 216.184 103.894C191.03 110.634 175.504 134.256 181.506 156.656C182.169 159.131 183.068 161.488 184.175 163.714C174.12 162.769 164.832 160.495 156.866 157.214M95.1342 94.7864C87.1677 91.5046 77.8802 89.2311 67.8247 88.2864C68.9322 90.5117 69.8306 92.8686 70.4939 95.344C76.4959 117.744 60.9699 141.366 35.8156 148.106C23.4729 151.414 11.1053 150.042 1 145.14C12.412 156.262 33.3457 163.714 57.2802 163.714C71.2326 163.714 84.1653 161.181 94.7865 156.866M156.866 157.214C161.181 167.835 163.714 180.767 163.714 194.72C163.714 218.654 156.262 239.588 145.14 251C150.042 240.895 151.414 228.527 148.106 216.184C141.366 191.03 117.744 175.504 95.3441 181.506C92.8687 182.169 90.5118 183.068 88.2865 184.175C89.2312 174.12 91.5047 164.832 94.7865 156.866" stroke="black" stroke-width="2" stroke-linejoin="round"/>
</svg>
