<svg width="252" height="252" viewBox="0 0 252 252" fill="none" xmlns="http://www.w3.org/2000/svg">
<path d="M170.476 69.5811C168.207 70.7094 165.805 71.6248 163.281 72.3006C140.446 78.4154 116.364 62.5975 109.493 36.9703C106.122 24.3954 107.52 11.7953 112.518 1.5C101.18 13.1266 93.5827 34.4539 93.5827 58.8384C93.5827 67.4258 94.5249 75.6341 96.2408 83.173C101.171 104.836 112.491 120.972 126.204 124.698C128.183 125.236 130.212 125.515 132.279 125.515C134.219 125.515 136.125 125.269 137.988 124.794C137.297 110.609 149.155 94.8644 168.246 83.484C169.267 79.0628 170.022 74.4088 170.476 69.5811Z" fill="#F9F9F9"/>
<path d="M204.121 149.842C202.346 148.034 200.732 146.033 199.309 143.844C186.434 124.029 194.045 96.2526 216.31 81.8026C227.235 74.7123 239.658 72.1481 251 73.7163C236.432 66.5327 213.788 65.9026 190.583 73.4378C182.411 76.0915 174.89 79.5234 168.246 83.484C149.155 94.8644 137.297 110.609 137.988 124.794C138.088 126.842 138.449 128.857 139.088 130.821C139.687 132.665 140.51 134.401 141.538 136.025C154.823 130.984 173.471 137.389 190.201 152.019C194.724 151.623 199.386 150.902 204.121 149.842Z" fill="#F9F9F9"/>
<path d="M138.138 206.622C139.309 204.376 140.715 202.224 142.359 200.195C157.236 181.834 186.022 180.485 206.654 197.182C216.777 205.375 223.056 216.39 225.069 227.655C227.403 211.588 221.006 189.872 206.664 170.144C201.613 163.197 196.023 157.11 190.201 152.019C173.471 137.389 154.823 130.984 141.538 136.025C139.62 136.752 137.814 137.719 136.142 138.933C134.573 140.072 133.175 141.391 131.947 142.869C140.85 153.939 140.517 173.643 131.765 194.064C133.539 198.241 135.665 202.449 138.138 206.622Z" fill="#F9F9F9"/>
<path d="M63.7132 161.453C66.2121 161.873 68.6943 162.543 71.1333 163.479C93.2038 171.946 103.383 198.889 93.869 223.658C89.2007 235.812 80.6583 245.184 70.5603 250.578C86.5712 247.832 105.261 235.04 119.603 215.313C124.653 208.365 128.719 201.171 131.765 194.064C140.517 173.643 140.85 153.939 131.947 142.869C130.662 141.271 129.185 139.853 127.512 138.639C125.943 137.5 124.257 136.579 122.47 135.869C114.687 147.751 95.8328 153.523 73.6936 151.515C70.2672 154.492 66.9196 157.814 63.7132 161.453Z" fill="#F9F9F9"/>
<path d="M83.6994 76.7576C84.0722 79.2624 84.2008 81.829 84.0641 84.4363C82.8269 108.03 60.3321 126.031 33.8207 124.642C20.812 123.961 9.25335 118.738 1 110.807C8.5608 125.176 26.5094 138.987 49.7149 146.522C57.8869 149.176 65.9892 150.817 73.6936 151.515C95.8328 153.523 114.687 147.751 122.47 135.869C123.594 134.154 124.487 132.311 125.125 130.347C125.725 128.503 126.08 126.615 126.204 124.698C112.491 120.972 101.171 104.836 96.2408 83.173C92.349 80.8361 88.1534 78.6808 83.6994 76.7576Z" fill="#F9F9F9"/>
<path d="M126.204 124.698C128.183 125.236 130.212 125.515 132.279 125.515C134.219 125.515 136.125 125.269 137.988 124.794M126.204 124.698C126.08 126.615 125.725 128.503 125.125 130.347C124.487 132.311 123.594 134.154 122.47 135.869M126.204 124.698C112.491 120.972 101.171 104.836 96.2408 83.173M122.47 135.869C124.257 136.579 125.943 137.5 127.512 138.639C129.185 139.853 130.662 141.271 131.947 142.869M122.47 135.869C114.687 147.751 95.8328 153.523 73.6936 151.515M131.947 142.869C133.175 141.391 134.573 140.072 136.142 138.933C137.814 137.719 139.62 136.752 141.538 136.025M131.947 142.869C140.85 153.939 140.517 173.643 131.765 194.064M141.538 136.025C140.51 134.401 139.687 132.665 139.088 130.821C138.449 128.857 138.088 126.842 137.988 124.794M141.538 136.025C154.823 130.984 173.471 137.389 190.201 152.019M137.988 124.794C137.297 110.609 149.155 94.8644 168.246 83.484M190.201 152.019C196.023 157.11 201.613 163.197 206.664 170.144C221.006 189.872 227.403 211.588 225.069 227.655C223.056 216.39 216.777 205.375 206.654 197.182C186.022 180.485 157.236 181.834 142.359 200.195C140.715 202.224 139.309 204.376 138.138 206.622C135.665 202.449 133.539 198.241 131.765 194.064M190.201 152.019C194.724 151.623 199.386 150.902 204.121 149.842C202.346 148.034 200.732 146.033 199.309 143.844C186.434 124.029 194.045 96.2526 216.31 81.8026C227.235 74.7123 239.658 72.1481 251 73.7163C236.432 66.5327 213.788 65.9026 190.583 73.4378C182.411 76.0915 174.89 79.5234 168.246 83.484M168.246 83.484C169.267 79.0628 170.022 74.4088 170.476 69.5811C168.207 70.7094 165.805 71.6248 163.281 72.3006C140.446 78.4154 116.364 62.5975 109.493 36.9703C106.122 24.3954 107.52 11.7953 112.518 1.5C101.18 13.1266 93.5827 34.4539 93.5827 58.8384C93.5827 67.4258 94.5249 75.6341 96.2408 83.173M131.765 194.064C128.719 201.171 124.653 208.365 119.603 215.313C105.261 235.04 86.5712 247.832 70.5603 250.578C80.6583 245.184 89.2007 235.812 93.869 223.658C103.383 198.889 93.2038 171.946 71.1333 163.479C68.6943 162.543 66.2121 161.873 63.7132 161.453C66.9196 157.814 70.2672 154.492 73.6936 151.515M73.6936 151.515C65.9891 150.817 57.8869 149.176 49.7149 146.522C26.5094 138.987 8.5608 125.176 1 110.807C9.25335 118.738 20.812 123.961 33.8207 124.642C60.3321 126.031 82.8269 108.03 84.0641 84.4363C84.2008 81.829 84.0722 79.2624 83.6995 76.7576C88.1534 78.6808 92.349 80.8361 96.2408 83.173" stroke="black" stroke-width="2" stroke-linejoin="round"/>
</svg>
