<svg width="250" height="252" viewBox="0 0 250 252" fill="none" xmlns="http://www.w3.org/2000/svg">
<path d="M87.6213 71.9194C87.732 73.9054 87.6155 75.874 87.2547 77.8037C83.9891 95.2652 61.9458 102.936 38.0196 94.9362C26.2794 91.011 16.2674 84.0423 9.5 75.899C15.0543 88.7141 30.0834 103.833 50.452 115.599C57.7728 119.828 65.1236 123.243 72.181 125.808C92.5692 133.219 110.509 133.543 118.207 125.934C119.04 125.11 119.753 124.193 120.337 123.182C120.877 122.246 121.292 121.253 121.585 120.211C111.15 117.346 102.46 101.639 98.6813 80.2672C95.2903 77.4077 91.5905 74.607 87.6213 71.9194Z" fill="#F9F9F9"/>
<path d="M153.045 66.702C151.381 67.7908 149.619 68.6742 147.769 69.3263C131.022 75.2275 113.361 59.9624 108.322 35.2307C105.849 23.0953 106.875 10.9355 110.54 1C102.225 12.2203 96.6535 32.8022 96.6535 56.3346C96.6534 64.7925 97.3731 72.8692 98.6813 80.2672C102.46 101.639 111.15 117.346 121.585 120.211C122.715 120.521 123.866 120.681 125.032 120.681C126.113 120.681 127.179 120.544 128.228 120.277C125.49 109.803 134.74 94.4198 151.349 80.4593C152.129 76.0913 152.703 71.485 153.045 66.702Z" fill="#F9F9F9"/>
<path d="M190.273 120.783C188.499 119.885 186.853 118.8 185.363 117.523C171.882 105.962 176.264 83.0266 195.152 66.2945C204.419 58.0843 215.457 52.8932 225.889 51.101C212.02 49.5062 191.419 54.9696 171.051 66.7358C163.73 70.9648 157.099 75.6268 151.349 80.4593C134.74 94.4198 125.49 109.803 128.228 120.277C128.524 121.412 128.961 122.488 129.545 123.499C130.085 124.435 130.737 125.291 131.492 126.066C139.189 118.457 157.129 118.781 177.517 126.192C181.688 124.684 185.962 122.878 190.273 120.783Z" fill="#F9F9F9"/>
<path d="M162.077 180.081C161.967 178.095 162.083 176.126 162.444 174.196C165.709 156.735 187.753 149.064 211.679 157.064C223.419 160.989 233.431 167.958 240.199 176.101C234.644 163.286 219.615 148.167 199.246 136.401C191.926 132.172 184.575 128.758 177.517 126.192C157.129 118.781 139.189 118.457 131.492 126.066C130.658 126.89 129.945 127.807 129.362 128.818C128.821 129.754 128.407 130.747 128.113 131.789C138.548 134.654 147.238 150.361 151.017 171.733C154.408 174.592 158.108 177.393 162.077 180.081Z" fill="#F9F9F9"/>
<path d="M96.6535 185.298C98.3172 184.209 100.079 183.326 101.93 182.674C118.677 176.772 136.338 192.038 141.377 216.769C143.849 228.905 142.824 241.064 139.159 251C147.474 239.78 153.045 219.198 153.045 195.665C153.045 187.208 152.325 179.131 151.017 171.733C147.238 150.361 138.548 134.654 128.113 131.789C126.983 131.479 125.833 131.319 124.666 131.319C123.586 131.319 122.519 131.456 121.47 131.723C124.208 142.197 114.958 157.58 98.349 171.541C97.5694 175.909 96.9952 180.515 96.6535 185.298Z" fill="#F9F9F9"/>
<path d="M59.4256 131.217C61.1999 132.115 62.8456 133.2 64.3354 134.477C77.8165 146.038 73.4341 168.973 54.547 185.706C45.2795 193.916 34.2416 199.107 23.8095 200.899C37.6788 202.494 58.2793 197.03 78.6478 185.264C85.9687 181.035 92.5997 176.373 98.349 171.541C114.958 157.58 124.208 142.197 121.47 131.723C121.174 130.588 120.737 129.512 120.154 128.501C119.614 127.565 118.962 126.709 118.207 125.934C110.509 133.543 92.5692 133.219 72.181 125.808C68.0105 127.316 63.7364 129.122 59.4256 131.217Z" fill="#F9F9F9"/>
<path d="M121.585 120.211C122.715 120.521 123.866 120.681 125.032 120.681C126.113 120.681 127.179 120.544 128.228 120.277M121.585 120.211C121.292 121.253 120.877 122.246 120.337 123.182C119.753 124.193 119.04 125.11 118.207 125.934M121.585 120.211C111.15 117.346 102.46 101.639 98.6813 80.2672M118.207 125.934C118.962 126.709 119.614 127.565 120.154 128.501C120.737 129.512 121.174 130.588 121.47 131.723M118.207 125.934C110.509 133.543 92.5692 133.219 72.181 125.808M121.47 131.723C122.519 131.456 123.586 131.319 124.666 131.319C125.833 131.319 126.983 131.479 128.113 131.789M121.47 131.723C124.208 142.197 114.958 157.58 98.349 171.541M128.113 131.789C128.407 130.747 128.821 129.754 129.362 128.818C129.945 127.807 130.658 126.89 131.492 126.066M128.113 131.789C138.548 134.654 147.238 150.361 151.017 171.733M131.492 126.066C130.737 125.291 130.085 124.435 129.545 123.499C128.961 122.488 128.524 121.412 128.228 120.277M131.492 126.066C139.189 118.457 157.129 118.781 177.517 126.192M128.228 120.277C125.49 109.803 134.74 94.4198 151.349 80.4593M151.349 80.4593C152.129 76.0913 152.703 71.485 153.045 66.702C151.381 67.7908 149.619 68.6742 147.769 69.3263C131.022 75.2275 113.361 59.9624 108.322 35.2307C105.849 23.0953 106.875 10.9355 110.54 1C102.225 12.2203 96.6534 32.8022 96.6534 56.3346C96.6534 64.7925 97.3731 72.8692 98.6813 80.2672M151.349 80.4593C157.099 75.6268 163.73 70.9648 171.051 66.7358C191.419 54.9696 212.02 49.5062 225.889 51.101C215.457 52.8932 204.419 58.0843 195.151 66.2945C176.264 83.0266 171.882 105.962 185.363 117.523C186.853 118.8 188.499 119.885 190.273 120.783C185.962 122.878 181.688 124.684 177.517 126.192M98.6813 80.2672C95.2903 77.4077 91.5905 74.607 87.6213 71.9194C87.732 73.9054 87.6155 75.874 87.2547 77.8037C83.9891 95.2652 61.9458 102.936 38.0196 94.9362C26.2794 91.011 16.2674 84.0423 9.5 75.899C15.0543 88.7141 30.0834 103.833 50.452 115.599C57.7728 119.828 65.1236 123.243 72.181 125.808M177.517 126.192C184.575 128.758 191.926 132.172 199.246 136.401C219.615 148.167 234.644 163.286 240.199 176.101C233.431 167.958 223.419 160.989 211.679 157.064C187.753 149.064 165.709 156.735 162.444 174.196C162.083 176.126 161.967 178.095 162.077 180.081C158.108 177.393 154.408 174.592 151.017 171.733M151.017 171.733C152.325 179.131 153.045 187.207 153.045 195.665C153.045 219.198 147.474 239.78 139.159 251C142.824 241.064 143.849 228.905 141.377 216.769C136.338 192.038 118.677 176.772 101.93 182.674C100.079 183.326 98.3172 184.209 96.6535 185.298C96.9952 180.515 97.5694 175.909 98.349 171.541M98.349 171.541C92.5997 176.373 85.9687 181.035 78.6478 185.264C58.2793 197.03 37.6788 202.494 23.8095 200.899C34.2416 199.107 45.2795 193.916 54.547 185.706C73.4341 168.973 77.8165 146.038 64.3354 134.477C62.8456 133.2 61.1999 132.115 59.4256 131.217C63.7364 129.122 68.0105 127.316 72.181 125.808" stroke="black" stroke-width="2" stroke-linejoin="round"/>
</svg>
