<svg width="260" height="250" viewBox="0 0 260 250" fill="none" xmlns="http://www.w3.org/2000/svg">
<path fill-rule="evenodd" clip-rule="evenodd" d="M130 31.7748C145.389 31.7748 158.703 22.9026 165.095 10L208.268 70.3099L180.81 108.667L227.795 104.094L258.5 171.594C244.117 170.672 229.767 177.753 222.073 191.064C214.379 204.376 215.414 220.329 223.405 232.31L149.528 239.5L130 196.571L110.472 239.5L36.5953 232.31C44.5862 220.329 45.6215 204.376 37.9271 191.065C30.2327 177.753 15.8832 170.672 1.5 171.594L32.2046 104.094L79.1898 108.667L51.7324 70.31L94.9047 10C101.297 22.9027 114.611 31.7748 130 31.7748ZM130 171.345C148.758 171.345 163.965 156.156 163.965 137.419C163.965 118.683 148.758 103.494 130 103.494C111.241 103.494 96.0345 118.683 96.0345 137.419C96.0345 156.156 111.241 171.345 130 171.345Z" fill="#F9F9F9" stroke="black" stroke-width="2" stroke-linejoin="round"/>
</svg>
