<svg width="250" height="252" viewBox="0 0 250 252" fill="none" xmlns="http://www.w3.org/2000/svg">
<path fill-rule="evenodd" clip-rule="evenodd" d="M125.25 1L166.403 58.5505L145.581 87.6692L164.231 67.8301L241.5 49.6703L187.137 107.5L160.628 113.73L196.26 110.259L225.529 174.67L155.107 181.531L140.298 148.941L148.156 175.01L125.25 251L102.344 175.01L110.202 148.941L95.3929 181.531L24.9708 174.67L54.2395 110.259L89.8712 113.731L63.3631 107.501L9 49.6705L86.2692 67.8303L104.92 87.67L84.0966 58.5505L125.25 1ZM145.827 58.4534C145.827 69.8164 136.614 79.028 125.25 79.028C113.886 79.028 104.673 69.8164 104.673 58.4534C104.673 47.0904 113.886 37.8789 125.25 37.8789C136.614 37.8789 145.827 47.0904 145.827 58.4534ZM165.48 163.762C155.638 158.08 152.266 145.497 157.948 135.656C163.63 125.816 176.215 122.444 186.056 128.126C195.898 133.807 199.27 146.39 193.588 156.231C187.906 166.072 175.321 169.443 165.48 163.762ZM92.5521 135.657C86.87 125.816 74.2855 122.444 64.4438 128.126C54.6021 133.807 51.2301 146.39 56.9122 156.231C62.5943 166.072 75.1788 169.443 85.0205 163.762C94.8622 158.08 98.2342 145.497 92.5521 135.657Z" fill="#F9F9F9" stroke="black" stroke-width="2" stroke-linejoin="round"/>
</svg>
