<svg width="253" height="254" viewBox="0 0 253 254" fill="none" xmlns="http://www.w3.org/2000/svg">
<path fill-rule="evenodd" clip-rule="evenodd" d="M168.64 1.5C168.64 26.7425 186.724 85.5591 218.319 105.944C204.295 114.992 192.933 131.612 184.632 149.507C208.678 161.951 236.594 168.693 252 168.693C226.765 168.693 167.967 186.782 147.588 218.388C138.573 204.405 122.038 193.067 104.216 184.772C91.6633 208.902 84.8597 237.017 84.8597 252.5C84.8597 227.257 66.7763 168.441 35.1807 148.056C49.2939 138.95 60.7111 122.177 69.0249 104.153C44.9435 91.6575 16.9395 84.8859 1.5 84.8859C26.7346 84.8859 85.5326 66.7968 105.912 35.1913C114.957 49.2202 131.571 60.5861 149.46 68.8889C161.9 44.8354 168.64 16.9108 168.64 1.5ZM127.918 113.034C122.284 116.922 117.158 121.183 112.832 125.799C116.641 131.353 120.811 136.419 125.325 140.722C130.987 136.836 136.144 132.575 140.501 127.958C136.664 122.394 132.464 117.326 127.918 113.034Z" fill="#F9F9F9" stroke="black" stroke-width="2" stroke-linejoin="round"/>
</svg>
