<svg width="250" height="253" viewBox="0 0 250 253" fill="none" xmlns="http://www.w3.org/2000/svg">
<path fill-rule="evenodd" clip-rule="evenodd" d="M151.828 56.1694L149.128 62.1102L125 1.5L100.872 62.1101L98.1719 56.1695L16.5 64.1251L50.4444 138.813L56.9405 138.18L16.5 189.375L81.0685 179.96L77.2723 185.268L125 252L172.728 185.268L168.931 179.96L233.5 189.375L193.059 138.18L199.556 138.813L233.5 64.125L151.828 56.1694ZM196.261 85.6189C189.671 74.2083 175.076 70.2986 163.662 76.8866C152.249 83.4746 148.338 98.0654 154.928 109.476C161.517 120.887 176.112 124.796 187.526 118.208C198.94 111.62 202.851 97.0296 196.261 85.6189ZM62.4738 118.208C51.0599 111.62 47.1492 97.0297 53.739 85.619C60.3288 74.2083 74.9236 70.2987 86.3375 76.8866C97.7514 83.4746 101.662 98.0654 95.0723 109.476C88.4825 120.887 73.8877 124.796 62.4738 118.208ZM148.864 185.155C148.864 198.331 138.18 209.012 125 209.012C111.82 209.012 101.136 198.331 101.136 185.155C101.136 171.979 111.82 161.298 125 161.298C138.18 161.298 148.864 171.979 148.864 185.155Z" fill="#F9F9F9" stroke="black" stroke-width="2" stroke-linejoin="round"/>
</svg>
