<svg width="250" height="252" viewBox="0 0 250 252" fill="none" xmlns="http://www.w3.org/2000/svg">
<path fill-rule="evenodd" clip-rule="evenodd" d="M125.25 1.5C125.25 16.949 136.32 52.9453 155.662 65.4206C149.198 69.5901 143.658 76.3866 139.146 84.1652L233.5 63.4884L168.418 134.87C177.41 134.852 186.065 133.452 192.908 129.938C194.04 152.928 219.676 180.514 233.054 188.238C219.676 180.514 182.97 172.103 162.496 182.618C162.117 174.934 159.002 166.738 154.522 158.941L125.25 251L95.978 158.941C91.498 166.738 88.3826 174.934 88.0039 182.618C67.5302 172.103 30.8244 180.514 17.4464 188.238C30.8244 180.514 56.4603 152.928 57.5925 129.938C64.435 133.452 73.0904 134.852 82.0821 134.87L17 63.4883L111.354 84.1652C106.843 76.3866 101.303 69.5901 94.8387 65.4205C114.18 52.9453 125.25 16.949 125.25 1.5ZM125 147C136.322 147 145.5 137.822 145.5 126.5C145.5 115.178 136.322 106 125 106C113.678 106 104.5 115.178 104.5 126.5C104.5 137.822 113.678 147 125 147Z" fill="#F9F9F9" stroke="black" stroke-width="2" stroke-linejoin="round"/>
</svg>
