<svg width="256" height="250" viewBox="0 0 256 250" fill="none" xmlns="http://www.w3.org/2000/svg">
<path fill-rule="evenodd" clip-rule="evenodd" d="M96.9073 172.752L48.7248 225.591C50.9586 189.54 33.8394 159.891 1.5 143.8L71.3536 128.495C67.0526 103.106 40.1079 74.5555 25.6268 66.1953C40.1079 74.5554 78.3075 83.6133 102.446 74.6438L80.7753 6.5C110.881 26.4597 145.119 26.4597 175.225 6.50003L153.554 74.6438C177.693 83.6133 215.892 74.5555 230.373 66.1954C215.892 74.5555 188.947 103.106 184.646 128.495L254.5 143.8C222.161 159.891 205.041 189.54 207.275 225.591L159.093 172.752C139.255 189.171 128 226.78 128 243.5C128 226.78 116.745 189.171 96.9073 172.752ZM128 156.5C145.121 156.5 159 142.621 159 125.5C159 108.379 145.121 94.5 128 94.5C110.879 94.5 97 108.379 97 125.5C97 142.621 110.879 156.5 128 156.5Z" fill="#F9F9F9" stroke="black" stroke-width="2" stroke-linejoin="round"/>
</svg>
