<svg width="250" height="250" viewBox="0 0 250 250" fill="none" xmlns="http://www.w3.org/2000/svg">
<path d="M91.7244 66.835C92.1332 66.8424 92.5372 66.8367 92.9363 66.8182C121.029 65.5165 125.25 1 125.25 1C125.25 1 129.379 65.4637 157.469 66.7632C157.868 66.7816 158.272 66.7873 158.68 66.7799C158.273 66.7704 157.869 66.7648 157.469 66.7632C136.703 66.6774 125.741 77.2009 125.25 97.4169C125.227 98.3675 125.227 99.3396 125.25 100.333C125.273 99.3395 125.273 98.3674 125.25 97.4169C124.751 77.2057 113.704 66.7308 92.9363 66.8182C92.5359 66.8199 92.132 66.8255 91.7244 66.835Z" fill="#F9F9F9"/>
<path d="M158.68 66.7799C158.878 67.1374 159.085 67.4841 159.301 67.8203C174.475 91.48 232.5 62.875 232.5 62.875C232.5 62.875 178.696 98.7864 191.614 123.748C191.798 124.103 191.995 124.455 192.206 124.805C192.01 124.448 191.813 124.095 191.614 123.748C181.304 105.728 166.699 101.408 148.929 111.089C148.097 111.542 147.258 112.027 146.411 112.541C147.281 112.067 148.12 111.583 148.929 111.089C166.204 100.552 169.762 85.7524 159.301 67.8203C159.099 67.4747 158.892 67.1279 158.68 66.7799Z" fill="#F9F9F9"/>
<path d="M192.206 124.805C191.995 125.155 191.798 125.507 191.615 125.862C178.696 150.82 232.5 186.625 232.5 186.625C232.5 186.625 174.567 157.966 159.396 181.625C159.18 181.961 158.974 182.308 158.776 182.665C158.988 182.317 159.194 181.97 159.396 181.625C169.851 163.701 166.215 148.955 148.948 138.422C148.133 137.925 147.287 137.437 146.411 136.959C147.264 137.477 148.11 137.965 148.948 138.422C166.71 148.098 181.308 143.871 191.615 125.862C191.813 125.515 192.01 125.162 192.206 124.805Z" fill="#F9F9F9"/>
<path d="M158.776 182.665C158.367 182.658 157.963 182.663 157.564 182.682C129.471 183.984 125.25 248.5 125.25 248.5C125.25 248.5 121.121 184.036 93.0312 182.737C92.6323 182.718 92.2285 182.713 91.8198 182.72C92.2273 182.73 92.6311 182.735 93.0312 182.737C113.797 182.823 124.759 172.299 125.25 152.083C125.273 151.132 125.273 150.16 125.25 149.167C125.227 150.161 125.227 151.133 125.25 152.083C125.749 172.294 136.796 182.769 157.564 182.682C157.964 182.68 158.368 182.674 158.776 182.665Z" fill="#F9F9F9"/>
<path d="M91.8198 182.72C91.6218 182.363 91.4149 182.016 91.1993 181.68C76.025 158.02 18 186.625 18 186.625C18 186.625 71.8042 150.82 58.8854 125.862C58.7019 125.507 58.505 125.155 58.2942 124.805C58.4897 125.162 58.6867 125.515 58.8854 125.862C69.1938 143.875 83.7955 148.1 101.561 138.417C102.397 137.961 103.239 137.475 104.089 136.959C103.216 137.435 102.374 137.921 101.561 138.417C84.2943 148.954 80.7395 163.751 91.1993 181.68C91.4009 182.025 91.6078 182.372 91.8198 182.72Z" fill="#F9F9F9"/>
<path d="M58.2942 124.805C58.5051 124.455 58.7021 124.103 58.8856 123.748C71.8035 98.7864 18 62.875 18 62.875C18 62.875 75.9329 91.5339 91.1042 67.8749C91.3196 67.5389 91.5265 67.1924 91.7244 66.835C91.5124 67.1829 91.3057 67.5295 91.1042 67.8749C80.6472 85.8022 84.2861 100.551 101.561 111.084C102.373 111.579 103.216 112.065 104.089 112.541C103.239 112.025 102.397 111.539 101.561 111.084C83.7954 101.41 69.1939 105.732 58.8856 123.748C58.6869 124.095 58.4897 124.448 58.2942 124.805Z" fill="#F9F9F9"/>
<path d="M91.7244 66.835C92.1332 66.8424 92.5372 66.8367 92.9363 66.8182M91.7244 66.835C91.5265 67.1924 91.3196 67.5389 91.1042 67.8749M91.7244 66.835C91.5124 67.1829 91.3057 67.5295 91.1042 67.8749M91.7244 66.835C92.132 66.8255 92.5359 66.8199 92.9363 66.8182M158.68 66.7799C158.878 67.1374 159.085 67.4841 159.301 67.8203M158.68 66.7799C158.272 66.7873 157.868 66.7816 157.469 66.7632M158.68 66.7799C158.273 66.7704 157.869 66.7648 157.469 66.7632M158.68 66.7799C158.892 67.1279 159.099 67.4747 159.301 67.8203M192.206 124.805C191.995 125.155 191.798 125.507 191.615 125.862M192.206 124.805C191.995 124.455 191.798 124.103 191.614 123.748M192.206 124.805C192.01 124.448 191.813 124.095 191.614 123.748M192.206 124.805C192.01 125.162 191.813 125.515 191.615 125.862M158.776 182.665C158.367 182.658 157.963 182.663 157.564 182.682M158.776 182.665C158.974 182.308 159.18 181.961 159.396 181.625M158.776 182.665C158.988 182.317 159.194 181.97 159.396 181.625M158.776 182.665C158.368 182.674 157.964 182.68 157.564 182.682M91.8198 182.72C91.6218 182.363 91.4149 182.016 91.1993 181.68M91.8198 182.72C92.2285 182.713 92.6323 182.718 93.0312 182.737M91.8198 182.72C92.2273 182.73 92.6311 182.735 93.0312 182.737M91.8198 182.72C91.6078 182.372 91.4009 182.025 91.1993 181.68M58.2942 124.805C58.5051 124.455 58.7021 124.103 58.8856 123.748M58.2942 124.805C58.505 125.155 58.7019 125.507 58.8854 125.862M58.2942 124.805C58.4897 124.448 58.6869 124.095 58.8856 123.748M58.2942 124.805C58.4897 125.162 58.6867 125.515 58.8854 125.862M92.9363 66.8182C113.705 66.7308 124.751 77.2056 125.25 97.4169M92.9363 66.8182C121.029 65.5165 125.25 1 125.25 1C125.25 1 129.379 65.4637 157.469 66.7632M91.1042 67.8749C80.6472 85.8022 84.2861 100.551 101.561 111.084M91.1042 67.8749C75.9329 91.5339 18 62.875 18 62.875C18 62.875 71.8035 98.7864 58.8856 123.748M101.561 111.084C102.397 111.539 103.239 112.025 104.089 112.541C103.216 112.065 102.373 111.579 101.561 111.084ZM101.561 111.084C83.7954 101.41 69.1939 105.732 58.8856 123.748M58.8854 125.862C69.1938 143.875 83.7955 148.1 101.561 138.417M58.8854 125.862C71.8042 150.82 18 186.625 18 186.625C18 186.625 76.025 158.02 91.1993 181.68M101.561 138.417C102.374 137.921 103.216 137.435 104.089 136.959C103.239 137.475 102.397 137.961 101.561 138.417ZM101.561 138.417C84.2943 148.954 80.7395 163.751 91.1993 181.68M93.0312 182.737C113.797 182.823 124.759 172.299 125.25 152.083M93.0312 182.737C121.121 184.036 125.25 248.5 125.25 248.5C125.25 248.5 129.471 183.984 157.564 182.682M125.25 152.083C125.227 151.133 125.227 150.161 125.25 149.167C125.273 150.16 125.273 151.132 125.25 152.083ZM125.25 152.083C125.749 172.294 136.796 182.769 157.564 182.682M159.396 181.625C169.851 163.701 166.215 148.955 148.948 138.422M159.396 181.625C174.567 157.966 232.5 186.625 232.5 186.625C232.5 186.625 178.696 150.82 191.615 125.862M148.948 138.422C148.11 137.965 147.264 137.477 146.411 136.959C147.287 137.437 148.133 137.925 148.948 138.422ZM148.948 138.422C166.71 148.098 181.308 143.871 191.615 125.862M191.614 123.748C181.304 105.728 166.699 101.408 148.929 111.089M191.614 123.748C178.696 98.7864 232.5 62.875 232.5 62.875C232.5 62.875 174.475 91.48 159.301 67.8203M148.929 111.089C148.12 111.583 147.281 112.067 146.411 112.541C147.258 112.027 148.097 111.542 148.929 111.089ZM148.929 111.089C166.204 100.552 169.762 85.7524 159.301 67.8203M157.469 66.7632C136.703 66.6774 125.741 77.2009 125.25 97.4169M125.25 97.4169C125.273 98.3674 125.273 99.3395 125.25 100.333C125.227 99.3396 125.227 98.3675 125.25 97.4169Z" stroke="black" stroke-width="2" stroke-linejoin="round"/>
</svg>
