<svg width="250" height="251" viewBox="0 0 250 251" fill="none" xmlns="http://www.w3.org/2000/svg">
<path d="M162.381 59.4396C138.351 59.5408 125.572 47.4134 125 24.0138C124.428 47.4134 111.649 59.5408 87.6195 59.4396C111.804 60.5608 120.695 102.202 123.661 123.432C106.754 110.249 75.1266 81.7307 86.2478 60.2313C74.3209 81.0858 57.4258 86.086 36.8693 74.8818C56.8534 87.0772 60.9694 104.205 48.8672 124.958C61.9309 104.58 102.449 117.703 122.322 125.75C102.449 133.797 61.9309 146.92 48.8673 126.542C60.9694 147.295 56.8534 164.423 36.8692 176.618C57.4258 165.414 74.3208 170.414 86.2477 191.269C75.1266 169.769 106.754 141.251 123.661 128.068C120.695 149.298 111.804 190.939 87.6194 192.06C111.649 191.959 124.428 204.087 125 227.486C125.572 204.087 138.351 191.959 162.381 192.06C138.196 190.939 129.305 149.298 126.339 128.068C143.246 141.251 174.873 169.769 163.752 191.269C175.679 170.414 192.574 165.414 213.131 176.618C193.147 164.423 189.031 147.295 201.133 126.542C188.069 146.92 147.551 133.797 127.678 125.75C147.551 117.703 188.069 104.58 201.133 124.958C189.031 104.205 193.147 87.0773 213.131 74.8818C192.574 86.0861 175.679 81.0859 163.752 60.2313C174.873 81.7308 143.246 110.249 126.339 123.432C129.305 102.202 138.196 60.5608 162.381 59.4396Z" fill="#F9F9F9"/>
<path d="M163.293 59.4167C162.987 59.4179 162.682 59.4256 162.381 59.4396M162.381 59.4396C138.351 59.5408 125.572 47.4134 125 24.0138M162.381 59.4396C138.196 60.5608 129.305 102.202 126.339 123.432C143.246 110.249 174.873 81.7308 163.752 60.2313M162.381 59.4396C162.685 59.4383 162.992 59.4351 163.301 59.4298C163.45 59.6996 163.601 59.9667 163.752 60.2313M125 24.0138C125.027 22.9178 125.027 21.7972 125 20.6518M125 24.0138C124.973 22.9178 124.973 21.7972 125 20.6518M125 24.0138C124.428 47.4134 111.649 59.5408 87.6195 59.4396M125 20.6518L125 0.5M87.6195 59.4396C87.3176 59.4256 87.0133 59.418 86.7066 59.4167M87.6195 59.4396C111.804 60.5608 120.695 102.202 123.661 123.432C106.754 110.249 75.1266 81.7307 86.2478 60.2313M87.6195 59.4396C87.3146 59.4383 87.0078 59.4351 86.6993 59.4299C86.5496 59.6996 86.3991 59.9667 86.2478 60.2313M86.6843 59.4296C86.532 59.6957 86.3866 59.963 86.2478 60.2313M86.2478 60.2313C74.3209 81.0858 57.4258 86.086 36.8693 74.8818M36.8693 74.8818C35.9333 74.3106 34.9625 73.7502 33.9569 73.2008M36.8693 74.8818C35.9065 74.357 34.9356 73.7967 33.9569 73.2008M36.8693 74.8818C56.8534 87.0772 60.9694 104.205 48.8672 124.958M33.9569 73.2008L16.5 63.1249M48.8672 124.958C48.7041 125.213 48.5454 125.472 48.3909 125.737M48.8672 124.958C61.9309 104.58 102.449 117.703 122.322 125.75C102.449 133.797 61.9309 146.92 48.8673 126.542M48.8672 124.958C48.7136 125.221 48.5575 125.485 48.3987 125.75C48.5575 126.014 48.7137 126.278 48.8673 126.542M48.391 125.763C48.5454 126.028 48.7042 126.287 48.8673 126.542M48.8673 126.542C60.9694 147.295 56.8534 164.423 36.8692 176.618M36.8692 176.618C35.9064 177.143 34.9356 177.703 33.9569 178.299M36.8692 176.618C35.9332 177.189 34.9625 177.75 33.9569 178.299M36.8692 176.618C57.4258 165.414 74.3208 170.414 86.2477 191.269M33.9569 178.299L16.5 188.375M86.2477 191.269C86.3866 191.537 86.532 191.804 86.6843 192.07M86.2477 191.269C75.1266 169.769 106.754 141.251 123.661 128.068C120.695 149.298 111.804 190.939 87.6194 192.06M86.2477 191.269C86.3991 191.533 86.5496 191.8 86.6994 192.07C87.0079 192.065 87.3146 192.062 87.6194 192.06M86.7067 192.083C87.0133 192.082 87.3176 192.074 87.6194 192.06M87.6194 192.06C111.649 191.959 124.428 204.087 125 227.486M125 227.486C124.973 228.582 124.973 229.703 125 230.848M125 227.486C125.027 228.582 125.027 229.703 125 230.848M125 227.486C125.572 204.087 138.351 191.959 162.381 192.06M125 230.848L125 251M162.381 192.06C162.682 192.074 162.987 192.082 163.293 192.083M162.381 192.06C138.196 190.939 129.305 149.298 126.339 128.068C143.246 141.251 174.873 169.769 163.752 191.269M162.381 192.06C162.685 192.062 162.992 192.065 163.301 192.07C163.45 191.8 163.601 191.533 163.752 191.269M163.316 192.07C163.468 191.804 163.613 191.537 163.752 191.269M163.752 191.269C175.679 170.414 192.574 165.414 213.131 176.618M213.131 176.618C214.067 177.189 215.038 177.75 216.043 178.299M213.131 176.618C214.094 177.143 215.064 177.703 216.043 178.299M213.131 176.618C193.147 164.423 189.031 147.295 201.133 126.542M216.043 178.299L233.5 188.375M201.133 126.542C201.296 126.287 201.455 126.028 201.609 125.763M201.133 126.542C188.069 146.92 147.551 133.797 127.678 125.75C147.551 117.703 188.069 104.58 201.133 124.958M201.133 126.542C201.286 126.278 201.442 126.014 201.601 125.75C201.443 125.485 201.286 125.222 201.133 124.958M201.609 125.737C201.455 125.472 201.296 125.213 201.133 124.958M201.133 124.958C189.031 104.205 193.147 87.0773 213.131 74.8818M213.131 74.8818C214.094 74.3571 215.064 73.7967 216.043 73.2008M213.131 74.8818C214.067 74.3106 215.038 73.7503 216.043 73.2008M213.131 74.8818C192.574 86.0861 175.679 81.0859 163.752 60.2313M216.043 73.2008L233.5 63.1249M163.752 60.2313C163.613 59.963 163.468 59.6957 163.316 59.4296" stroke="black" stroke-width="2" stroke-linejoin="round"/>
</svg>
