<svg width="252" height="250" viewBox="0 0 252 250" fill="none" xmlns="http://www.w3.org/2000/svg">
<path d="M94.8544 72.0438C114.822 84.9331 126.25 122.124 126.25 138.086C126.25 122.124 137.678 84.9331 157.646 72.0438C137.678 59.1534 126.25 21.9617 126.25 6C126.25 21.9617 114.822 59.1534 94.8544 72.0438Z" fill="#F9F9F9"/>
<path d="M178.543 87.2401C172.465 110.23 140.658 132.601 125.491 137.534C140.658 132.601 179.528 131.987 197.946 147.011C204.025 124.021 235.833 101.65 251 96.7172C235.833 101.65 196.962 102.264 178.543 87.2401Z" fill="#F9F9F9"/>
<path d="M189.964 171.599C166.241 172.918 135.155 149.554 125.781 136.64C135.155 149.554 147.75 186.365 139.165 208.54C162.889 207.221 193.976 230.587 203.35 243.5C193.976 230.587 181.38 193.775 189.964 171.599Z" fill="#F9F9F9"/>
<path d="M113.335 208.54C104.75 186.365 117.346 149.554 126.719 136.64C117.346 149.554 86.2592 172.918 62.5358 171.599C71.1198 193.775 58.5241 230.587 49.1504 243.5C58.5241 230.587 89.6109 207.221 113.335 208.54Z" fill="#F9F9F9"/>
<path d="M54.5538 147.011C72.9716 131.987 111.842 132.601 127.009 137.534C111.842 132.601 80.0345 110.23 73.9573 87.24C55.5384 102.264 16.667 101.65 1.5 96.7171C16.667 101.65 48.4754 124.021 54.5538 147.011Z" fill="#F9F9F9"/>
<path d="M94.8544 72.0438C114.822 84.9331 126.25 122.124 126.25 138.086C126.25 122.124 137.678 84.9331 157.646 72.0438C137.678 59.1534 126.25 21.9617 126.25 6C126.25 21.9617 114.822 59.1534 94.8544 72.0438Z" stroke="black" stroke-width="2" stroke-linejoin="round"/>
<path d="M178.543 87.2401C172.465 110.23 140.658 132.601 125.491 137.534C140.658 132.601 179.528 131.987 197.946 147.011C204.025 124.021 235.833 101.65 251 96.7172C235.833 101.65 196.962 102.264 178.543 87.2401Z" stroke="black" stroke-width="2" stroke-linejoin="round"/>
<path d="M189.964 171.599C166.241 172.918 135.155 149.554 125.781 136.64C135.155 149.554 147.75 186.365 139.165 208.54C162.889 207.221 193.976 230.587 203.35 243.5C193.976 230.587 181.38 193.775 189.964 171.599Z" stroke="black" stroke-width="2" stroke-linejoin="round"/>
<path d="M113.335 208.54C104.75 186.365 117.346 149.554 126.719 136.64C117.346 149.554 86.2592 172.918 62.5358 171.599C71.1198 193.775 58.5241 230.587 49.1504 243.5C58.5241 230.587 89.6109 207.221 113.335 208.54Z" stroke="black" stroke-width="2" stroke-linejoin="round"/>
<path d="M54.5538 147.011C72.9716 131.987 111.842 132.601 127.009 137.534C111.842 132.601 80.0345 110.23 73.9573 87.24C55.5384 102.264 16.667 101.65 1.5 96.7171C16.667 101.65 48.4754 124.021 54.5538 147.011Z" stroke="black" stroke-width="2" stroke-linejoin="round"/>
</svg>
