<svg width="252" height="252" viewBox="0 0 252 252" fill="none" xmlns="http://www.w3.org/2000/svg">
<path d="M89.3788 54.9598L106.128 80.7208C107.169 82.3218 108.198 83.9204 109.121 85.5921C113.553 93.6171 125.465 118.482 103.309 119.155C115.129 118.813 124.792 112.278 132.845 103.309C146.518 88.0807 155.55 65.8347 162.621 54.9597C145.972 40.695 133.403 22.2702 126.196 1.56386L126 1L125.804 1.56386C118.597 22.2702 106.028 40.6951 89.3788 54.9598Z" fill="#F9F9F9"/>
<path d="M197.04 89.3788L171.279 106.128C169.678 107.169 168.08 108.198 166.408 109.121C158.383 113.553 133.518 125.465 132.845 103.309C133.187 115.129 139.722 124.791 148.691 132.845C149.287 133.38 149.894 133.908 150.511 134.429C165.644 147.222 186.591 155.827 197.04 162.621C211.305 145.971 229.73 133.403 250.436 126.196L251 126L250.436 125.804C229.73 118.597 211.305 106.028 197.04 89.3788Z" fill="#F9F9F9"/>
<path d="M162.621 197.04L145.872 171.279C144.831 169.678 143.802 168.079 142.879 166.408C138.446 158.383 126.535 133.518 148.691 132.845C136.871 133.187 127.208 139.722 119.155 148.691C118.578 149.334 118.009 149.99 117.447 150.656C104.723 165.778 96.1509 186.624 89.3789 197.04C106.028 211.305 118.597 229.73 125.804 250.436L126 251L126.196 250.436C133.403 229.73 145.972 211.305 162.621 197.04Z" fill="#F9F9F9"/>
<path d="M54.9597 162.621L80.7207 145.872C82.3218 144.831 83.9204 143.802 85.5921 142.879C93.6171 138.446 118.482 126.535 119.155 148.691C119.137 148.068 119.102 147.451 119.05 146.841C118.117 135.857 111.806 126.784 103.309 119.155C93.0535 109.947 79.615 102.843 68.6105 97.0263C63.2746 94.2057 58.5109 91.6876 54.9598 89.3788C40.6951 106.028 22.2702 118.597 1.56386 125.804L1 126L1.56386 126.196C22.2702 133.403 40.695 145.971 54.9597 162.621Z" fill="#F9F9F9"/>
<path d="M132.845 103.309C133.518 125.465 158.383 113.553 166.408 109.121C168.08 108.198 169.678 107.169 171.279 106.128L197.04 89.3788C211.305 106.028 229.73 118.597 250.436 125.804L251 126L250.436 126.196C229.73 133.403 211.305 145.971 197.04 162.621C186.591 155.827 165.644 147.222 150.511 134.429C149.894 133.908 149.287 133.38 148.691 132.845M132.845 103.309C133.187 115.129 139.722 124.791 148.691 132.845M132.845 103.309C146.518 88.0807 155.55 65.8347 162.621 54.9597C145.972 40.695 133.403 22.2702 126.196 1.56386L126 1L125.804 1.56386C118.597 22.2702 106.028 40.6951 89.3788 54.9598L106.128 80.7208C107.169 82.3218 108.198 83.9204 109.121 85.5921C113.553 93.6171 125.465 118.482 103.309 119.155M132.845 103.309C124.792 112.278 115.129 118.813 103.309 119.155M148.691 132.845C126.535 133.518 138.446 158.383 142.879 166.408C143.802 168.079 144.831 169.678 145.872 171.279L162.621 197.04C145.972 211.305 133.403 229.73 126.196 250.436L126 251L125.804 250.436C118.597 229.73 106.028 211.305 89.3789 197.04C96.1509 186.624 104.723 165.778 117.447 150.656C118.009 149.99 118.578 149.334 119.155 148.691M148.691 132.845C136.871 133.187 127.208 139.722 119.155 148.691M103.309 119.155C111.806 126.784 118.117 135.857 119.05 146.841C119.102 147.451 119.137 148.068 119.155 148.691M103.309 119.155C93.0535 109.947 79.615 102.843 68.6104 97.0263C63.2746 94.2057 58.5109 91.6876 54.9598 89.3788C40.6951 106.028 22.2702 118.597 1.56386 125.804L1 126L1.56386 126.196C22.2702 133.403 40.695 145.972 54.9597 162.621L80.7207 145.872C82.3218 144.831 83.9204 143.802 85.5921 142.879C93.6171 138.446 118.482 126.535 119.155 148.691" stroke="black" stroke-width="2" stroke-linejoin="round"/>
</svg>
