<svg width="252" height="252" viewBox="0 0 252 252" fill="none" xmlns="http://www.w3.org/2000/svg">
<path d="M84.3567 196.39L119.654 196.39L94.83 251L167.643 177.688L132.346 177.688L152.558 145.903L162.157 130.808L130.808 130.808L121.192 130.808L121.192 162.158L106.097 152.559L84.3567 196.39Z" fill="#F9F9F9"/>
<path d="M55.6102 84.357L55.6101 119.655L1 94.83L74.3121 167.644L74.3121 132.346L106.097 152.559L121.192 162.158L121.192 130.808L121.192 121.192L89.8425 121.192L99.4414 106.097L55.6102 84.357Z" fill="#F9F9F9"/>
<path d="M167.643 55.6102L132.346 55.6102L157.17 1L84.3566 74.3122L119.654 74.3123L99.4414 106.097L89.8425 121.192L121.192 121.192L130.808 121.192L130.808 89.843L145.903 99.442L167.643 55.6102Z" fill="#F9F9F9"/>
<path d="M196.39 167.644L196.39 132.346L251 157.17L177.688 84.3569L177.688 119.654L145.903 99.442L130.808 89.843L130.808 121.192L130.808 130.808L162.157 130.808L152.558 145.903L196.39 167.644Z" fill="#F9F9F9"/>
<path d="M121.192 130.808L130.808 130.808M121.192 130.808L121.192 121.192M121.192 130.808L121.192 162.158L106.097 152.559M130.808 130.808L130.808 121.192M130.808 130.808L162.157 130.808L152.558 145.903M130.808 121.192L121.192 121.192M130.808 121.192L130.808 89.843L145.903 99.442M121.192 121.192L89.8425 121.192L99.4414 106.097M145.903 99.442L177.688 119.654L177.688 84.3569L251 157.17L196.39 132.346L196.39 167.644L152.558 145.903M145.903 99.442L167.643 55.6102L132.346 55.6102L157.17 1L84.3566 74.3122L119.654 74.3123L99.4414 106.097M99.4414 106.097L55.6102 84.357L55.6101 119.655L1 94.83L74.3121 167.644L74.3122 132.346L106.097 152.559M152.558 145.903L132.346 177.688L167.643 177.688L94.83 251L119.654 196.39L84.3567 196.39L106.097 152.559" stroke="black" stroke-width="2" stroke-linejoin="round"/>
</svg>
