<svg width="252" height="252" viewBox="0 0 252 252" fill="none" xmlns="http://www.w3.org/2000/svg">
<path d="M114.394 1L75.5321 94.6182L114.394 74.8795L124.658 88.5215L130.246 95.9487L156.064 130.262L163.484 124.67L147.061 83.2973L145.803 80.1281L114.394 1Z" fill="#F9F9F9"/>
<path d="M251 114.394L157.382 75.5322L177.121 114.394L163.484 124.67L156.064 130.262L121.786 156.094L127.367 163.511L168.719 147.082L171.882 145.826L251 114.394Z" fill="#F9F9F9"/>
<path d="M137.607 251L176.469 157.382L137.607 177.121L127.367 163.511L121.786 156.094L95.9491 121.754L88.5217 127.342L104.966 168.77L106.214 171.914L137.607 251Z" fill="#F9F9F9"/>
<path d="M1 137.607L94.75 176.469L74.8795 137.607L88.5217 127.342L95.9491 121.754L130.246 95.9487L124.658 88.5215L83.2977 104.939L80.1284 106.197L1 137.607Z" fill="#F9F9F9"/>
<path d="M176.469 157.382L137.607 251L106.214 171.914M176.469 157.382L137.607 177.121L127.367 163.511M176.469 157.382L171.882 145.826M75.5321 94.6182L114.394 1L145.803 80.1281M75.5321 94.6182L114.394 74.8795L124.658 88.5215M75.5321 94.6182L80.1284 106.197M94.75 176.469L1 137.607L80.1284 106.197M94.75 176.469L74.8795 137.607L88.5217 127.342M94.75 176.469L106.214 171.914M157.382 75.5322L251 114.394L171.882 145.826M157.382 75.5322L177.121 114.394L163.484 124.67M157.382 75.5322L145.803 80.1281M95.9491 121.754L121.786 156.094M95.9491 121.754L130.246 95.9487M95.9491 121.754L88.5217 127.342M121.786 156.094L156.064 130.262M121.786 156.094L127.367 163.511M156.064 130.262L130.246 95.9487M156.064 130.262L163.484 124.67M130.246 95.9487L124.658 88.5215M145.803 80.1281L147.061 83.2973L163.484 124.67M124.658 88.5215L83.2977 104.939L80.1284 106.197M171.882 145.826L168.719 147.082L127.367 163.511M106.214 171.914L104.966 168.77L88.5217 127.342" stroke="black" stroke-width="2" stroke-linejoin="round"/>
</svg>
