<svg width="252" height="252" viewBox="0 0 252 252" fill="none" xmlns="http://www.w3.org/2000/svg">
<path d="M251 208.022V128.246L162.482 68.7051L125.719 43.9769L126.281 126.28L208.023 125.718L183.295 162.48L251 208.022Z" fill="#F9F9F9"/>
<path d="M43.9786 251L123.754 251L183.295 162.48L208.023 125.718L126.281 126.28V208.022L89.5199 183.294L43.9786 251Z" fill="#F9F9F9"/>
<path d="M1 43.9769V123.752L89.5199 183.294L126.281 208.022V126.28H43.9778L68.7056 89.5187L1 43.9769Z" fill="#F9F9F9"/>
<path d="M208.024 1.0005L128.248 1L68.7056 89.5187L43.9778 126.28H126.281L125.719 43.9769L162.482 68.7051L208.024 1.0005Z" fill="#F9F9F9"/>
<path d="M126.281 126.28H43.9778L68.7056 89.5187M126.281 126.28L125.719 43.9769L162.482 68.7051M126.281 126.28L208.023 125.718L183.295 162.48M126.281 126.28V208.022L89.5199 183.294M68.7056 89.5187L1 43.9769V123.752L89.5199 183.294M68.7056 89.5187L128.248 1L208.024 1.0005L162.482 68.7051M162.482 68.7051L251 128.246V208.022L183.295 162.48M183.295 162.48L123.754 251L43.9786 251L89.5199 183.294" stroke="black" stroke-width="2" stroke-linejoin="round"/>
</svg>
