<svg width="252" height="250" viewBox="0 0 252 250" fill="none" xmlns="http://www.w3.org/2000/svg">
<path d="M200.595 185.599L251 83.265L199.855 83.265L179.947 144.535L163.528 128.556L145.555 165.047L135.432 185.599L199.855 185.599H200.595Z" fill="#F9F9F9"/>
<path d="M102.758 217.927L215.659 234.242L199.855 185.599L135.432 185.599L145.555 165.047L105.296 159.229L82.6215 155.953L102.529 217.223L102.758 217.927Z" fill="#F9F9F9"/>
<path d="M41.7787 134.868L61.1513 247.286L102.529 217.223L82.6215 155.953L105.296 159.229L98.3876 119.143L94.4968 96.5659L42.378 134.433L41.7787 134.868Z" fill="#F9F9F9"/>
<path d="M200.084 82.5606L118.334 3L102.529 51.6429L154.647 89.5088L134.378 100.186L163.528 128.556L179.947 144.535L199.855 83.265L200.084 82.5606Z" fill="#F9F9F9"/>
<path d="M101.929 51.207L1 104.37L42.378 134.433L94.4968 96.5659L98.3876 119.143L134.378 100.186L154.647 89.5088L102.529 51.6429L101.929 51.207Z" fill="#F9F9F9"/>
<path d="M199.855 83.265L179.947 144.535L163.528 128.556M199.855 83.265L200.084 82.5606L118.334 3L102.529 51.6429M199.855 83.265L251 83.265L200.595 185.599H199.855M163.528 128.556L145.555 165.047M163.528 128.556L134.378 100.186M199.855 185.599L135.432 185.599L145.555 165.047M199.855 185.599L215.659 234.242L102.758 217.927L102.529 217.223M145.555 165.047L105.296 159.229M102.529 217.223L82.6215 155.953L105.296 159.229M102.529 217.223L61.1513 247.286L41.7787 134.868L42.378 134.433M105.296 159.229L98.3875 119.143M42.378 134.433L94.4969 96.5659L98.3875 119.143M42.378 134.433L1 104.37L101.929 51.207L102.529 51.6429M98.3875 119.143L134.378 100.186M134.378 100.186L154.647 89.5088L102.529 51.6429" stroke="black" stroke-width="2" stroke-linejoin="round"/>
</svg>
