<svg width="252" height="250" viewBox="0 0 252 250" fill="none" xmlns="http://www.w3.org/2000/svg">
<path d="M186.309 15.5002L126 15.5L89.2187 72.4596L107.902 108.894L126 108.894L130.914 101.284L153.126 66.8861L186.309 15.5002Z" fill="#F9F9F9"/>
<path d="M61.3086 18.0304L31.154 70.259L62.0919 130.593L102.986 132.63L112.036 116.957L107.902 108.894L89.2187 72.4596L61.3086 18.0304Z" fill="#F9F9F9"/>
<path d="M251 122.488L220.845 70.2591L153.126 66.8861L130.914 101.284L139.964 116.957L149.012 117.408L189.907 119.445L251 122.488Z" fill="#F9F9F9"/>
<path d="M190.691 232.007L220.845 179.778L189.907 119.445L149.012 117.408L139.963 133.081L144.097 141.143L162.781 177.578L190.691 232.007Z" fill="#F9F9F9"/>
<path d="M65.6916 234.537L126 234.537L162.781 177.578L144.097 141.143L126 141.143L121.085 148.754L98.8729 183.152L65.6916 234.537Z" fill="#F9F9F9"/>
<path d="M1 127.549L31.154 179.778L98.8729 183.152L121.085 148.754L112.036 133.081L102.986 132.63L62.0919 130.593L1 127.549Z" fill="#F9F9F9"/>
<path d="M153.126 66.8861L130.914 101.284M153.126 66.8861L220.845 70.2591L251 122.488L189.907 119.445M153.126 66.8861L186.309 15.5002L126 15.5L89.2187 72.4596M130.914 101.284L139.964 116.957L149.012 117.408M130.914 101.284L126 108.894L107.902 108.894M107.902 108.894L89.2187 72.4596M107.902 108.894L112.036 116.957L102.986 132.63M89.2187 72.4596L61.3086 18.0304L31.154 70.259L62.0919 130.593M189.907 119.445L149.012 117.408M189.907 119.445L220.845 179.778L190.691 232.007L162.781 177.578M149.012 117.408L139.963 133.081L144.097 141.143M162.781 177.578L144.097 141.143M162.781 177.578L126 234.537L65.6916 234.537L98.8729 183.152M144.097 141.143L126 141.143L121.085 148.754M98.8729 183.152L121.085 148.754M98.8729 183.152L31.154 179.778L1 127.549L62.0919 130.593M121.085 148.754L112.036 133.081L102.986 132.63M62.0919 130.593L102.986 132.63" stroke="black" stroke-width="2" stroke-linejoin="round"/>
</svg>
