<svg width="250" height="252" viewBox="0 0 250 252" fill="none" xmlns="http://www.w3.org/2000/svg">
<path fill-rule="evenodd" clip-rule="evenodd" d="M24.2017 50.7684L55.3637 104.742L9.5 175.766L71.8236 175.766L110.402 251L141.565 197.025L226.007 201.232L194.844 147.257L240.708 76.2304L178.383 76.2308L139.805 1L108.643 54.9745L24.2017 50.7684ZM116.609 109.433L135.203 110.359L143.698 126.926L133.599 142.566L115.004 141.64L106.509 125.073L116.609 109.433Z" fill="#F9F9F9"/>
<path d="M108.643 54.9745L107.668 56.6631L117.703 76.2311L126.708 93.7931L135.203 110.359M108.643 54.9745L139.805 1L178.383 76.2308M108.643 54.9745L24.2017 50.7684L55.3637 104.742M55.3637 104.742L56.3391 106.431L78.304 107.525L98.0145 108.507L116.609 109.433M55.3637 104.742L9.5 175.766L71.8236 175.766M178.383 76.2308L176.434 76.2308L164.504 94.7063L153.798 111.286L143.698 126.926M178.383 76.2308L240.708 76.2304L194.844 147.257M194.844 147.257L193.87 145.569L171.904 144.475L133.599 142.566M194.844 147.257L226.007 201.232L141.565 197.025M141.565 197.025L142.539 195.337L132.504 175.767L123.499 158.207L115.004 141.64M141.565 197.025L110.402 251L71.8236 175.766M71.8236 175.766L73.774 175.766L85.7043 157.291L96.4095 140.713L106.509 125.073M135.203 110.359L116.609 109.433M135.203 110.359L143.698 126.926M116.609 109.433L106.509 125.073M143.698 126.926L133.599 142.566M133.599 142.566L115.004 141.64M115.004 141.64L106.509 125.073" stroke="black" stroke-width="2" stroke-linejoin="round"/>
</svg>
