<svg width="252" height="250" viewBox="0 0 252 250" fill="none" xmlns="http://www.w3.org/2000/svg">
<path d="M197.851 95.6998L250.999 95.7001L194.856 179.165L141.708 179.165L197.851 95.6998Z" fill="#F9F9F9"/>
<path d="M188.143 192.526L204.567 243.073L107.838 215.47L91.4141 164.923L188.143 192.526Z" fill="#F9F9F9"/>
<path d="M93.0569 213.214L50.0589 244.454L46.4197 143.929L89.4177 112.689L93.0569 213.214Z" fill="#F9F9F9"/>
<path d="M43.998 129.175L1 97.9356L95.4801 63.4104L138.478 94.6502L43.998 129.175Z" fill="#F9F9F9"/>
<path d="M108.763 56.547L125.187 6L187.218 85.1873L170.794 135.734L108.763 56.547Z" fill="#F9F9F9"/>
<path d="M197.851 95.6998L250.999 95.7001L194.856 179.165L141.708 179.165L197.851 95.6998Z" stroke="black" stroke-width="2" stroke-linejoin="round"/>
<path d="M188.143 192.526L204.567 243.073L107.838 215.47L91.4141 164.923L188.143 192.526Z" stroke="black" stroke-width="2" stroke-linejoin="round"/>
<path d="M93.0569 213.214L50.0589 244.454L46.4197 143.929L89.4177 112.689L93.0569 213.214Z" stroke="black" stroke-width="2" stroke-linejoin="round"/>
<path d="M43.998 129.175L1 97.9356L95.4801 63.4104L138.478 94.6502L43.998 129.175Z" stroke="black" stroke-width="2" stroke-linejoin="round"/>
<path d="M108.763 56.547L125.187 6L187.218 85.1873L170.794 135.734L108.763 56.547Z" stroke="black" stroke-width="2" stroke-linejoin="round"/>
</svg>
