<svg width="252" height="250" viewBox="0 0 252 250" fill="none" xmlns="http://www.w3.org/2000/svg">
<path d="M59.0187 74.6649C59.0187 86.8607 62.2781 98.2951 67.9734 108.145C79.5532 128.171 101.203 141.646 126 141.646V7.68359C89.0072 7.68359 59.0187 37.6721 59.0187 74.6649Z" fill="#F9F9F9"/>
<path d="M242.015 208.628C260.511 176.591 249.535 135.626 217.498 117.129C206.936 111.032 195.404 108.137 184.027 108.144C160.893 108.159 138.399 120.171 126 141.646L242.015 208.628Z" fill="#F9F9F9"/>
<path d="M9.98498 208.628C28.4813 240.665 69.4465 251.641 101.483 233.145C112.045 227.047 120.318 218.507 126 208.65C137.554 188.608 138.399 163.121 126 141.646L126 141.647L9.98498 208.628Z" fill="#F9F9F9"/>
<path d="M150.517 233.144C182.553 251.641 223.519 240.664 242.015 208.628L126 141.646C138.399 163.121 137.554 188.608 126 208.65C131.682 218.507 139.955 227.047 150.517 233.144Z" fill="#F9F9F9"/>
<path d="M192.981 74.6649C192.981 37.6721 162.993 7.68359 126 7.68359V141.646C138.399 120.171 160.893 108.159 184.027 108.144C189.722 98.2949 192.981 86.8605 192.981 74.6649Z" fill="#F9F9F9"/>
<path d="M34.5018 117.13C2.46518 135.626 -8.5114 176.591 9.98498 208.628L126 141.647L126 141.646C101.203 141.646 79.5532 128.171 67.9734 108.145C56.5958 108.137 45.0636 111.032 34.5018 117.13Z" fill="#F9F9F9"/>
<path d="M126 141.646V7.68359M126 141.646L242.015 208.628M126 141.646C101.203 141.646 79.5532 128.171 67.9734 108.145M126 141.646L126 141.647L9.98498 208.628M126 141.646C138.399 120.171 160.893 108.159 184.027 108.144M126 141.646C138.399 163.121 137.554 188.608 126 208.65M126 7.68359C89.0072 7.68359 59.0187 37.6721 59.0187 74.6649C59.0187 86.8607 62.2781 98.2951 67.9734 108.145M126 7.68359C162.993 7.68359 192.981 37.6721 192.981 74.6649C192.981 86.8605 189.722 98.2949 184.027 108.144M242.015 208.628C260.511 176.591 249.535 135.626 217.498 117.129C206.936 111.032 195.404 108.137 184.027 108.144M242.015 208.628C223.519 240.664 182.554 251.641 150.517 233.144C139.955 227.047 131.682 218.507 126 208.65M9.98498 208.628C28.4814 240.665 69.4465 251.641 101.483 233.145C112.045 227.047 120.318 218.507 126 208.65M9.98498 208.628C-8.5114 176.591 2.46518 135.626 34.5018 117.13C45.0636 111.032 56.5958 108.137 67.9734 108.145" stroke="black" stroke-width="2" stroke-linejoin="round"/>
<path d="M59.0187 74.6649C59.0187 86.8607 62.2781 98.2951 67.9734 108.145C79.5532 128.171 101.203 141.646 126 141.646V7.68359C89.0072 7.68359 59.0187 37.6721 59.0187 74.6649Z" fill="#F9F9F9"/>
<path d="M242.015 208.628C260.511 176.591 249.535 135.626 217.498 117.129C206.936 111.032 195.404 108.137 184.027 108.144C160.893 108.159 138.399 120.171 126 141.646L242.015 208.628Z" fill="#F9F9F9"/>
<path d="M9.98498 208.628C28.4814 240.665 69.4465 251.641 101.483 233.145C112.045 227.047 120.318 218.507 126 208.65C137.554 188.608 138.399 163.121 126 141.647L126 141.647L9.98498 208.628Z" fill="#F9F9F9"/>
<path d="M126 141.646V7.68359M126 141.646L242.015 208.628M126 141.646C101.203 141.646 79.5532 128.171 67.9734 108.145M126 141.646L126 141.647M126 141.646C138.399 120.171 160.893 108.159 184.027 108.144M126 7.68359C89.0072 7.68359 59.0187 37.6721 59.0187 74.6649C59.0187 86.8607 62.2781 98.2951 67.9734 108.145M126 7.68359C162.993 7.68359 192.981 37.6721 192.981 74.6649C192.981 86.8605 189.722 98.2949 184.027 108.144M242.015 208.628C260.511 176.591 249.535 135.626 217.498 117.129C206.936 111.032 195.404 108.137 184.027 108.144M242.015 208.628C223.519 240.664 182.554 251.641 150.517 233.144C139.955 227.047 131.682 218.507 126 208.65M9.98498 208.628C28.4814 240.665 69.4465 251.641 101.483 233.145C112.045 227.047 120.318 218.507 126 208.65M9.98498 208.628C-8.5114 176.591 2.46517 135.626 34.5018 117.13C45.0636 111.032 56.5958 108.137 67.9734 108.145M9.98498 208.628L126 141.647M126 141.647L126 141.647C138.399 163.121 137.554 188.608 126 208.65" stroke="black" stroke-width="2" stroke-linejoin="round"/>
</svg>
