<svg width="252" height="252" viewBox="0 0 252 252" fill="none" xmlns="http://www.w3.org/2000/svg">
<path d="M63.5 63.5C63.5 98.0178 91.4822 126 126 126V1C91.4822 1 63.5 28.9822 63.5 63.5Z" fill="#F9F9F9"/>
<path d="M188.5 63.5C153.982 63.5 126 91.4822 126 126H251C251 91.4822 223.018 63.5 188.5 63.5Z" fill="#F9F9F9"/>
<path d="M188.5 188.5C188.5 153.982 160.518 126 126 126V251C160.518 251 188.5 223.018 188.5 188.5Z" fill="#F9F9F9"/>
<path d="M63.5 188.5C98.0178 188.5 126 160.518 126 126H1C1 160.518 28.9822 188.5 63.5 188.5Z" fill="#F9F9F9"/>
<path d="M188.5 63.5C188.5 28.9822 160.518 1 126 1V126C126 91.4822 153.982 63.5 188.5 63.5Z" fill="#F9F9F9"/>
<path d="M188.5 188.5C223.018 188.5 251 160.518 251 126H126C160.518 126 188.5 153.982 188.5 188.5Z" fill="#F9F9F9"/>
<path d="M63.5 188.5C63.5 223.018 91.4822 251 126 251V126C126 160.518 98.0178 188.5 63.5 188.5Z" fill="#F9F9F9"/>
<path d="M126 126C91.4822 126 63.5 98.0178 63.5 63.5C28.9822 63.5 1 91.4822 1 126H126Z" fill="#F9F9F9"/>
<path d="M188.5 63.5C188.5 28.9822 160.518 1 126 1M188.5 63.5C153.982 63.5 126 91.4822 126 126M188.5 63.5C223.018 63.5 251 91.4822 251 126M126 126C91.4822 126 63.5 98.0178 63.5 63.5M126 126V1M126 126H251M126 126C160.518 126 188.5 153.982 188.5 188.5M126 126V251M126 126C126 160.518 98.0178 188.5 63.5 188.5M126 126H1M63.5 63.5C63.5 28.9822 91.4822 1 126 1M63.5 63.5C28.9822 63.5 1 91.4822 1 126M188.5 188.5C223.018 188.5 251 160.518 251 126M188.5 188.5C188.5 223.018 160.518 251 126 251M63.5 188.5C63.5 223.018 91.4822 251 126 251M63.5 188.5C28.9822 188.5 1 160.518 1 126" stroke="black" stroke-width="2" stroke-linejoin="round"/>
<path d="M63.5002 63.5C63.5002 98.0178 91.4825 126 126 126V1C91.4825 1 63.5002 28.9822 63.5002 63.5Z" fill="#F9F9F9"/>
<path d="M188.5 63.5C153.982 63.5 126 91.4822 126 126H251C251 91.4822 223.018 63.5 188.5 63.5Z" fill="#F9F9F9"/>
<path d="M188.5 188.5C188.5 153.982 160.518 126 126 126V251C160.518 251 188.5 223.018 188.5 188.5Z" fill="#F9F9F9"/>
<path d="M63.5002 188.5C98.018 188.5 126 160.518 126 126H1.00024C1.00024 160.518 28.9824 188.5 63.5002 188.5Z" fill="#F9F9F9"/>
<path d="M188.5 63.5C188.5 28.9822 160.518 1 126 1M188.5 63.5C153.982 63.5 126 91.4822 126 126M188.5 63.5C223.018 63.5 251 91.4822 251 126M126 126C91.4824 126 63.5002 98.0178 63.5002 63.5M126 126V1M126 126H251M126 126C160.518 126 188.5 153.982 188.5 188.5M126 126V251M126 126C126 160.518 98.018 188.5 63.5002 188.5M126 126H1.00024M63.5002 63.5C63.5002 28.9822 91.4824 1 126 1M63.5002 63.5C28.9824 63.5 1.00024 91.4822 1.00024 126M188.5 188.5C223.018 188.5 251 160.518 251 126M188.5 188.5C188.5 223.018 160.518 251 126 251M63.5002 188.5C63.5002 223.018 91.4824 251 126 251M63.5002 188.5C28.9824 188.5 1.00024 160.518 1.00024 126" stroke="black" stroke-width="2" stroke-linejoin="round"/>
</svg>
