<svg width="252" height="250" viewBox="0 0 252 250" fill="none" xmlns="http://www.w3.org/2000/svg">
<path d="M167.128 50.3959C146.87 56.9783 132.134 72.698 126 91.5098L126 131.115L163.667 118.876L247.847 91.5243C239.052 64.4534 213.939 47.2432 186.936 47.2434C180.376 47.2434 173.705 48.2591 167.128 50.3959Z" fill="#F9F9F9"/>
<path d="M215.478 145.287C202.957 128.054 183.453 118.897 163.667 118.876L126 131.115L149.279 163.156L201.306 234.765C224.334 218.034 232.942 188.833 224.597 163.151C222.57 156.912 219.542 150.881 215.478 145.287Z" fill="#F9F9F9"/>
<path d="M140.172 220.593C152.692 203.36 155.374 181.981 149.279 163.156L126 131.115L102.721 163.156L50.6942 234.765C73.722 251.495 104.154 250.658 126 234.786C131.307 230.93 136.107 226.187 140.172 220.593Z" fill="#F9F9F9"/>
<path d="M88.3332 118.876L4.15258 91.5243C-4.6433 118.595 5.5568 147.279 27.403 163.151C32.7102 167.007 38.7046 170.107 45.2809 172.243C65.5393 178.826 86.7009 174.77 102.721 163.156L126 131.115L88.3332 118.876Z" fill="#F9F9F9"/>
<path d="M61.941 67.056C61.941 88.3569 72.3376 107.23 88.3332 118.876L126 131.115L126 91.5098L126 2.99707C97.536 2.99706 73.408 21.5617 65.0637 47.2434C63.0366 53.4823 61.941 60.1412 61.941 67.056Z" fill="#F9F9F9"/>
<path d="M163.667 118.876C183.453 118.897 202.957 128.054 215.478 145.287C219.542 150.881 222.57 156.912 224.597 163.151C246.443 147.279 256.643 118.595 247.847 91.5243L163.667 118.876Z" fill="#F9F9F9"/>
<path d="M186.936 47.2434C178.592 21.5617 154.464 2.99708 126 2.99707L126 91.5098C132.134 72.698 146.87 56.9783 167.128 50.3959C173.705 48.2591 180.376 47.2434 186.936 47.2434Z" fill="#F9F9F9"/>
<path d="M126 234.786C147.846 250.658 178.278 251.495 201.306 234.765L149.279 163.156C155.374 181.981 152.692 203.36 140.172 220.593C136.107 226.187 131.307 230.93 126 234.786Z" fill="#F9F9F9"/>
<path d="M27.403 163.151C19.0584 188.833 27.6663 218.034 50.6942 234.765L102.721 163.156C86.7009 174.77 65.5393 178.826 45.2809 172.243C38.7046 170.107 32.7102 167.007 27.403 163.151Z" fill="#F9F9F9"/>
<path d="M88.3332 118.876C72.3376 107.23 61.941 88.3569 61.941 67.056C61.941 60.1412 63.0366 53.4823 65.0637 47.2434C38.0605 47.2432 12.9484 64.4535 4.15258 91.5243L88.3332 118.876Z" fill="#F9F9F9"/>
<path d="M126 131.115L88.3332 118.876M126 131.115L126 91.5098M126 131.115L163.667 118.876M126 131.115L149.279 163.156M126 131.115L102.721 163.156M126 2.99707C97.536 2.99706 73.408 21.5617 65.0637 47.2434M126 2.99707C154.464 2.99708 178.592 21.5617 186.936 47.2434M126 2.99707L126 91.5098M247.847 91.5243C239.052 64.4534 213.94 47.2432 186.936 47.2434M247.847 91.5243C256.643 118.595 246.443 147.279 224.597 163.151M247.847 91.5243L163.667 118.876M201.306 234.765C224.334 218.034 232.942 188.833 224.597 163.151M201.306 234.765C178.278 251.495 147.846 250.658 126 234.786M201.306 234.765L149.279 163.156M50.6942 234.765C73.722 251.495 104.154 250.658 126 234.786M50.6942 234.765C27.6663 218.034 19.0584 188.833 27.403 163.151M50.6942 234.765L102.721 163.156M4.15258 91.5243C12.9484 64.4535 38.0605 47.2432 65.0637 47.2434M4.15258 91.5243L88.3332 118.876M4.15258 91.5243C-4.6433 118.595 5.5568 147.279 27.403 163.151M88.3332 118.876C72.3376 107.23 61.941 88.3569 61.941 67.056C61.941 60.1412 63.0366 53.4823 65.0637 47.2434M186.936 47.2434C180.376 47.2434 173.705 48.2591 167.128 50.3959C146.87 56.9783 132.134 72.698 126 91.5098M163.667 118.876C183.453 118.897 202.957 128.054 215.478 145.287C219.542 150.881 222.57 156.912 224.597 163.151M126 234.786C131.307 230.93 136.107 226.187 140.172 220.593C152.692 203.36 155.374 181.981 149.279 163.156M27.403 163.151C32.7102 167.007 38.7046 170.107 45.2809 172.243C65.5393 178.826 86.7009 174.77 102.721 163.156" stroke="black" stroke-width="2" stroke-linejoin="round"/>
<path d="M167.128 50.3959C146.87 56.9783 132.134 72.698 126 91.5098L126 131.115L163.667 118.876L247.847 91.5243C239.052 64.4534 213.94 47.2432 186.936 47.2434C180.376 47.2434 173.705 48.2591 167.128 50.3959Z" fill="#F9F9F9"/>
<path d="M215.478 145.287C202.957 128.054 183.453 118.897 163.667 118.876L126 131.115L149.279 163.156L201.306 234.765C224.334 218.034 232.942 188.833 224.597 163.151C222.57 156.912 219.542 150.881 215.478 145.287Z" fill="#F9F9F9"/>
<path d="M140.172 220.593C152.692 203.36 155.374 181.981 149.279 163.156L126 131.115L102.721 163.156L50.6942 234.765C73.722 251.495 104.154 250.658 126 234.786C131.307 230.93 136.107 226.187 140.172 220.593Z" fill="#F9F9F9"/>
<path d="M88.3332 118.876L4.15258 91.5243C-4.6433 118.595 5.5568 147.279 27.403 163.151C32.7102 167.007 38.7046 170.107 45.2809 172.243C65.5393 178.826 86.7009 174.77 102.721 163.156L126 131.115L88.3332 118.876Z" fill="#F9F9F9"/>
<path d="M61.941 67.056C61.941 88.3569 72.3376 107.23 88.3332 118.876L126 131.115L126 91.5098L126 2.99707C97.536 2.99706 73.408 21.5617 65.0637 47.2434C63.0366 53.4823 61.941 60.1412 61.941 67.056Z" fill="#F9F9F9"/>
<path d="M126 131.115L88.3332 118.876M126 131.115L126 91.5098M126 131.115L163.667 118.876M126 131.115L149.279 163.156M126 131.115L102.721 163.156M126 2.99707C97.536 2.99706 73.408 21.5617 65.0637 47.2434M126 2.99707C154.464 2.99708 178.592 21.5617 186.936 47.2434M126 2.99707L126 91.5098M247.847 91.5243C239.052 64.4534 213.94 47.2432 186.936 47.2434M247.847 91.5243C256.643 118.595 246.443 147.279 224.597 163.151M247.847 91.5243L163.667 118.876M201.306 234.765C224.334 218.034 232.942 188.833 224.597 163.151M201.306 234.765C178.278 251.495 147.846 250.658 126 234.786M201.306 234.765L149.279 163.156M50.6942 234.765C73.722 251.495 104.154 250.658 126 234.786M50.6942 234.765C27.6663 218.034 19.0584 188.833 27.403 163.151M50.6942 234.765L102.721 163.156M4.15258 91.5243C12.9484 64.4535 38.0605 47.2432 65.0637 47.2434M4.15258 91.5243L88.3332 118.876M4.15258 91.5243C-4.6433 118.595 5.5568 147.279 27.403 163.151M88.3332 118.876C72.3376 107.23 61.941 88.3569 61.941 67.056C61.941 60.1412 63.0366 53.4823 65.0637 47.2434M186.936 47.2434C180.376 47.2434 173.705 48.2591 167.128 50.3959C146.87 56.9783 132.134 72.698 126 91.5098M163.667 118.876C183.453 118.897 202.957 128.054 215.478 145.287C219.542 150.881 222.57 156.912 224.597 163.151M126 234.786C131.307 230.93 136.107 226.187 140.172 220.593C152.692 203.36 155.374 181.981 149.279 163.156M27.403 163.151C32.7102 167.007 38.7046 170.107 45.2809 172.243C65.5393 178.826 86.7009 174.77 102.721 163.156" stroke="black" stroke-width="2" stroke-linejoin="round"/>
</svg>
