<svg width="250" height="252" viewBox="0 0 250 252" fill="none" xmlns="http://www.w3.org/2000/svg">
<path d="M125 188.333L125 251C148.132 251 168.326 238.421 179.114 219.729C184.408 210.557 187.437 199.914 187.437 188.562C187.437 177.117 184.357 166.39 178.981 157.166L125.108 126.062C125.072 126.125 125.036 126.188 125 126.251L125 188.333Z" fill="#F9F9F9"/>
<path d="M102.038 211.354C111.95 205.631 119.7 197.6 125 188.333L125 126.251V126.125C124.927 126.125 124.855 126.125 124.783 126.125L71.0181 157.166L16.7466 188.5C28.3126 208.533 49.3038 219.732 70.8851 219.729C81.4752 219.728 92.2075 217.029 102.038 211.354Z" fill="#F9F9F9"/>
<path d="M178.981 157.166L233.253 188.5C244.819 168.467 244.022 144.689 233.229 126C227.933 116.829 220.23 108.884 210.399 103.209C200.487 97.4858 189.657 94.7897 178.981 94.8338L233.253 63.5C221.687 43.4669 200.696 32.2681 179.114 32.2708C168.524 32.2722 157.792 34.9707 147.962 40.6463C138.049 46.3692 130.3 54.3996 125 63.6674L125 1C101.867 1.00001 81.6734 13.5795 70.8851 32.2708C65.5912 41.4428 62.5621 52.0864 62.5621 63.4376C62.5621 74.8835 65.642 85.6101 71.0182 94.8338L16.7466 63.5C5.18051 83.5331 5.97761 107.311 16.7706 126C22.0668 135.171 29.7699 143.116 39.6003 148.791C49.5127 154.514 60.3421 157.21 71.0181 157.166L124.783 126.125C124.855 126.125 124.927 126.125 125 126.125V126.251C125.036 126.188 125.072 126.125 125.108 126.062L178.981 157.166Z" fill="#F9F9F9"/>
<path d="M179.114 32.2708C168.326 13.5795 148.132 0.999994 125 1L125 63.6674C130.3 54.3996 138.049 46.3692 147.962 40.6463C157.792 34.9707 168.524 32.2722 179.114 32.2708Z" fill="#F9F9F9"/>
<path d="M233.229 126C244.022 107.311 244.819 83.5331 233.253 63.5L178.981 94.8338C189.657 94.7897 200.487 97.4858 210.399 103.209C220.23 108.884 227.933 116.829 233.229 126Z" fill="#F9F9F9"/>
<path d="M179.114 219.729C200.696 219.732 221.687 208.533 233.253 188.5L178.981 157.166C184.357 166.39 187.437 177.117 187.437 188.562C187.437 199.914 184.408 210.557 179.114 219.729Z" fill="#F9F9F9"/>
<path d="M70.8851 219.729C81.6734 238.421 101.867 251 125 251L125 188.333C119.7 197.6 111.95 205.631 102.038 211.354C92.2075 217.029 81.4752 219.728 70.8851 219.729Z" fill="#F9F9F9"/>
<path d="M16.7706 126C5.97759 144.689 5.18048 168.467 16.7466 188.5L71.0181 157.166C60.3421 157.21 49.5127 154.514 39.6003 148.791C29.7699 143.116 22.0668 135.171 16.7706 126Z" fill="#F9F9F9"/>
<path d="M71.0182 94.8338C65.642 85.6101 62.5621 74.8835 62.5621 63.4376C62.5621 52.0864 65.5912 41.4428 70.8851 32.2708C49.3038 32.2682 28.3127 43.467 16.7466 63.5L71.0182 94.8338Z" fill="#F9F9F9"/>
<path d="M125 125.875L125 63.6674M125 1C148.132 0.999994 168.326 13.5795 179.114 32.2708M125 1L125 63.6674M125 1C101.867 1.00001 81.6734 13.5795 70.8851 32.2708M125.108 125.938L178.981 94.8338M233.253 63.5C244.819 83.5331 244.022 107.311 233.229 126M233.253 63.5L178.981 94.8338M233.253 63.5C221.687 43.4669 200.696 32.2681 179.114 32.2708M233.253 188.5C221.687 208.533 200.696 219.732 179.114 219.729M233.253 188.5L178.981 157.166M233.253 188.5C244.819 168.467 244.022 144.689 233.229 126M125 251C101.867 251 81.6734 238.421 70.8851 219.729M125 251L125 188.333M125 251C148.132 251 168.326 238.421 179.114 219.729M124.892 126.062L124.783 126.125M16.7466 188.5C28.3126 208.533 49.3038 219.732 70.8851 219.729M16.7466 188.5C5.18048 168.467 5.97759 144.689 16.7706 126M16.7466 188.5L71.0181 157.166M124.892 125.938L71.0182 94.8338M16.7466 63.5C28.3127 43.467 49.3038 32.2682 70.8851 32.2708M16.7466 63.5L71.0182 94.8338M16.7466 63.5C5.18051 83.5331 5.97761 107.311 16.7706 126M70.8851 219.729C81.4752 219.728 92.2075 217.029 102.038 211.354C111.95 205.631 119.7 197.6 125 188.333M125 188.333L125 126.251M179.114 219.729C184.408 210.557 187.437 199.914 187.437 188.562C187.437 177.117 184.357 166.39 178.981 157.166M178.981 157.166L125.108 126.062C125.072 126.125 125.036 126.188 125 126.251M233.229 126C227.933 116.829 220.23 108.884 210.399 103.209C200.487 97.4858 189.657 94.7897 178.981 94.8338M179.114 32.2708C168.524 32.2722 157.792 34.9707 147.962 40.6463C138.049 46.3692 130.3 54.3996 125 63.6674M71.0182 94.8338C65.642 85.6101 62.5621 74.8835 62.5621 63.4376C62.5621 52.0865 65.5912 41.4428 70.8851 32.2708M16.7706 126C22.0668 135.171 29.7699 143.116 39.6003 148.791C49.5127 154.514 60.3421 157.21 71.0181 157.166M71.0181 157.166L124.783 126.125M125 126.251V126.125C124.927 126.125 124.855 126.125 124.783 126.125" stroke="black" stroke-width="2" stroke-linejoin="round"/>
<path d="M125 188.333L125 251C148.132 251 168.326 238.421 179.114 219.729C184.408 210.557 187.437 199.914 187.437 188.562C187.437 177.117 184.357 166.39 178.981 157.166L125.108 126.062C125.072 126.125 125.036 126.188 125 126.251L125 188.333Z" fill="#F9F9F9"/>
<path d="M102.038 211.354C111.95 205.631 119.7 197.6 125 188.333L125 126.251V126.125C124.927 126.125 124.855 126.125 124.783 126.125L71.0181 157.166L16.7466 188.5C28.3127 208.533 49.3038 219.732 70.8851 219.729C81.4752 219.728 92.2075 217.029 102.038 211.354Z" fill="#F9F9F9"/>
<path d="M178.981 157.166L233.253 188.5C244.819 168.467 244.022 144.689 233.229 126C227.933 116.829 220.23 108.884 210.399 103.209C200.487 97.4858 189.657 94.7897 178.981 94.8338L233.253 63.5C221.687 43.4669 200.696 32.2681 179.114 32.2708C168.524 32.2722 157.792 34.9707 147.962 40.6463C138.049 46.3692 130.3 54.3996 125 63.6674L125 1C101.867 1.00001 81.6734 13.5795 70.8851 32.2708C65.5912 41.4428 62.5621 52.0864 62.5621 63.4376C62.5621 74.8835 65.642 85.6101 71.0182 94.8338L16.7466 63.5C5.18051 83.5331 5.97761 107.311 16.7706 126C22.0668 135.171 29.7699 143.116 39.6003 148.791C49.5127 154.514 60.3421 157.21 71.0181 157.166L124.783 126.125C124.855 126.125 124.927 126.125 125 126.125V126.251C125.036 126.188 125.072 126.125 125.108 126.062L178.981 157.166Z" fill="#F9F9F9"/>
<path d="M125 125.875L125 63.6674M125 1C148.132 0.999994 168.326 13.5795 179.114 32.2708M125 1L125 63.6674M125 1C101.867 1.00001 81.6734 13.5795 70.8851 32.2708M125.108 125.938L178.981 94.8338M233.253 63.5C244.819 83.5331 244.022 107.311 233.229 126M233.253 63.5L178.981 94.8338M233.253 63.5C221.687 43.4669 200.696 32.2681 179.114 32.2708M233.253 188.5C221.687 208.533 200.696 219.732 179.114 219.729M233.253 188.5L178.981 157.166M233.253 188.5C244.819 168.467 244.022 144.689 233.229 126M125 251C101.867 251 81.6734 238.421 70.8851 219.729M125 251L125 188.333M125 251C148.132 251 168.326 238.421 179.114 219.729M124.892 126.062L124.783 126.125M16.7466 188.5C28.3126 208.533 49.3038 219.732 70.8851 219.729M16.7466 188.5C5.18048 168.467 5.97759 144.689 16.7706 126M16.7466 188.5L71.0181 157.166M124.892 125.938L71.0182 94.8338M16.7466 63.5C28.3127 43.467 49.3038 32.2682 70.8851 32.2708M16.7466 63.5L71.0182 94.8338M16.7466 63.5C5.18051 83.5331 5.97761 107.311 16.7706 126M70.8851 219.729C81.4752 219.728 92.2075 217.029 102.038 211.354C111.95 205.631 119.7 197.6 125 188.333M125 188.333L125 126.251M179.114 219.729C184.408 210.557 187.437 199.914 187.437 188.562C187.437 177.117 184.357 166.39 178.981 157.166M178.981 157.166L125.108 126.062C125.072 126.125 125.036 126.188 125 126.251M233.229 126C227.933 116.829 220.23 108.884 210.399 103.209C200.487 97.4858 189.657 94.7897 178.981 94.8338M179.114 32.2708C168.524 32.2722 157.792 34.9707 147.962 40.6463C138.049 46.3692 130.3 54.3996 125 63.6674M71.0182 94.8338C65.642 85.6101 62.5621 74.8835 62.5621 63.4376C62.5621 52.0865 65.5912 41.4428 70.8851 32.2708M16.7706 126C22.0668 135.171 29.7699 143.116 39.6003 148.791C49.5127 154.514 60.3421 157.21 71.0181 157.166M71.0181 157.166L124.783 126.125M125 126.251V126.125C124.927 126.125 124.855 126.125 124.783 126.125" stroke="black" stroke-width="2" stroke-linejoin="round"/>
</svg>
