<svg width="252" height="250" viewBox="0 0 252 250" fill="none" xmlns="http://www.w3.org/2000/svg">
<path d="M81.912 223.339C106.261 247.688 145.738 247.688 170.087 223.339C194.436 198.99 194.436 159.513 170.087 135.164C145.738 110.815 106.261 110.815 81.9121 135.164C57.5632 159.513 57.5632 198.99 81.912 223.339Z" fill="#F9F9F9" stroke="black" stroke-width="2" stroke-linejoin="round"/>
<path d="M81.9121 223.339C106.261 247.688 145.738 247.688 170.087 223.339C194.436 198.99 194.436 159.513 170.087 135.164L81.9121 223.339Z" fill="#F9F9F9" stroke="black" stroke-width="2" stroke-linejoin="round"/>
<path d="M47.2275 10.5394C13.9664 19.4517 -5.77232 53.64 3.13996 86.9012C12.0522 120.162 46.2406 139.901 79.5017 130.989C112.763 122.076 132.502 87.8881 123.589 54.627C114.677 21.3658 80.4887 1.6271 47.2275 10.5394Z" fill="#F9F9F9" stroke="black" stroke-width="2" stroke-linejoin="round"/>
<path d="M47.2275 10.5391C13.9664 19.4513 -5.77232 53.6397 3.13996 86.9008C12.0522 120.162 46.2406 139.901 79.5017 130.988L47.2275 10.5391Z" fill="#F9F9F9" stroke="black" stroke-width="2" stroke-linejoin="round"/>
<path d="M248.86 86.9012C257.772 53.64 238.033 19.4517 204.772 10.5394C171.511 1.6271 137.323 21.3658 128.41 54.627C119.498 87.8881 139.237 122.076 172.498 130.989C205.759 139.901 239.948 120.162 248.86 86.9012Z" fill="#F9F9F9" stroke="black" stroke-width="2" stroke-linejoin="round"/>
<path d="M248.861 86.9012C257.773 53.64 238.034 19.4516 204.773 10.5394C171.512 1.6271 137.323 21.3658 128.411 54.627L248.861 86.9012Z" fill="#F9F9F9" stroke="black" stroke-width="2" stroke-linejoin="round"/>
</svg>
