<svg width="252" height="252" viewBox="0 0 252 252" fill="none" xmlns="http://www.w3.org/2000/svg">
<path d="M89.5272 235.893C109.67 256.036 142.329 256.036 162.472 235.893C182.615 215.75 182.615 183.091 162.472 162.948C142.329 142.805 109.67 142.805 89.5273 162.948C69.3842 183.091 69.3841 215.75 89.5272 235.893Z" fill="#F9F9F9" stroke="black" stroke-width="2" stroke-linejoin="round"/>
<path d="M89.5273 235.893C109.67 256.036 142.329 256.036 162.472 235.893C182.615 215.75 182.615 183.091 162.472 162.948L89.5273 235.893Z" fill="#F9F9F9" stroke="black" stroke-width="2" stroke-linejoin="round"/>
<path d="M16.1072 89.5281C-4.03592 109.671 -4.03597 142.33 16.1071 162.473C36.2502 182.616 68.9086 182.616 89.0518 162.473C109.195 142.33 109.195 109.671 89.0519 89.5283C68.9088 69.3851 36.2504 69.3851 16.1072 89.5281Z" fill="#F9F9F9" stroke="black" stroke-width="2" stroke-linejoin="round"/>
<path d="M16.1081 89.5273C-4.03499 109.67 -4.03504 142.329 16.108 162.472C36.2511 182.615 68.9095 182.615 89.0527 162.472L16.1081 89.5273Z" fill="#F9F9F9" stroke="black" stroke-width="2" stroke-linejoin="round"/>
<path d="M162.472 16.1072C142.329 -4.0359 109.67 -4.03593 89.5271 16.1072C69.384 36.2503 69.384 68.9087 89.5271 89.0518C109.67 109.195 142.329 109.195 162.472 89.0519C182.615 68.9088 182.615 36.2504 162.472 16.1072Z" fill="#F9F9F9" stroke="black" stroke-width="2" stroke-linejoin="round"/>
<path d="M162.473 16.1072C142.33 -4.03595 109.671 -4.03598 89.528 16.1071C69.3849 36.2502 69.3849 68.9086 89.5279 89.0518L162.473 16.1072Z" fill="#F9F9F9" stroke="black" stroke-width="2" stroke-linejoin="round"/>
<path d="M235.893 162.473C256.036 142.33 256.036 109.671 235.893 89.5281C215.75 69.385 183.091 69.3849 162.948 89.5281C142.805 109.671 142.805 142.33 162.948 162.473C183.091 182.616 215.75 182.616 235.893 162.473Z" fill="#F9F9F9" stroke="black" stroke-width="2" stroke-linejoin="round"/>
<path d="M235.893 162.473C256.036 142.33 256.036 109.671 235.893 89.528C215.75 69.3848 183.091 69.3848 162.948 89.5279L235.893 162.473Z" fill="#F9F9F9" stroke="black" stroke-width="2" stroke-linejoin="round"/>
</svg>
