<svg width="252" height="252" viewBox="0 0 252 252" fill="none" xmlns="http://www.w3.org/2000/svg">
<path fill-rule="evenodd" clip-rule="evenodd" d="M20.5806 58.737C41.8562 25.398 78.4838 2.82422 120.488 1L104.199 48.5356C111.133 46.5885 118.445 45.5471 126 45.5471C133.555 45.5471 140.867 46.5885 147.801 48.5356L131.512 1C173.516 2.82422 210.144 25.398 231.419 58.737L182.167 68.3884C192.602 78.5561 200.293 91.5328 204.019 106.099L236.962 68.3341C245.931 85.5906 251 105.203 251 126C251 146.788 245.935 166.391 236.974 183.642L204.088 145.943C200.423 160.48 192.813 173.445 182.464 183.632L231.44 193.23C210.166 226.59 173.523 249.179 131.499 251L147.668 203.814C140.774 205.737 133.507 206.765 126 206.765C118.493 206.765 111.226 205.737 104.332 203.814L120.501 251C78.4775 249.179 41.8344 226.59 20.5597 193.23L69.5358 183.632C59.187 173.445 51.5768 160.48 47.9118 145.943L15.0265 183.642C6.06474 166.391 1 146.788 1 126C1 105.203 6.06927 85.5906 15.0385 68.3341L47.9806 106.099C51.7071 91.5328 59.3976 78.5561 69.8334 68.3884L20.5806 58.737ZM172.569 126.156C172.569 151.9 151.719 172.769 126 172.769C100.281 172.769 79.4314 151.9 79.4314 126.156C79.4314 100.412 100.281 79.5431 126 79.5431C151.719 79.5431 172.569 100.412 172.569 126.156Z" fill="#F9F9F9" stroke="black" stroke-width="2" stroke-linejoin="round"/>
</svg>
