<svg width="252" height="252" viewBox="0 0 252 252" fill="none" xmlns="http://www.w3.org/2000/svg">
<path fill-rule="evenodd" clip-rule="evenodd" d="M1.00139 121.242C3.44384 55.9305 55.9592 3.4257 121.275 1L115.003 41.3633C118.604 40.901 122.274 40.6626 126 40.6626C129.726 40.6626 133.397 40.901 136.998 41.3634L130.726 1.00004C196.041 3.42625 248.556 55.9308 250.999 121.242L210.773 115.006C211.249 118.655 211.494 122.377 211.494 126.157C211.494 129.812 211.264 133.415 210.819 136.95L251 130.721C248.576 196.051 196.051 248.576 130.72 251L136.942 210.957C133.359 211.415 129.707 211.65 126 211.65C122.293 211.65 118.641 211.415 115.059 210.957L121.281 251C55.9499 248.577 3.42397 196.051 1 130.721L41.1809 136.95C40.7355 133.415 40.5061 129.812 40.5061 126.157C40.5061 122.377 40.7513 118.655 41.2267 115.006L1.00139 121.242ZM74.9394 109.78C73.285 114.942 72.3918 120.445 72.3918 126.157C72.3918 131.733 73.2431 137.11 74.8228 142.165L105.1 146.859L109.827 177.282C114.93 178.895 120.364 179.765 126.001 179.765C131.637 179.765 137.071 178.896 142.174 177.283L146.902 146.859L177.179 142.165C178.758 137.11 179.61 131.733 179.61 126.157C179.61 120.445 178.716 114.942 177.062 109.78L146.902 105.104L142.232 75.0487C137.112 73.4241 131.659 72.5477 126.001 72.5477C120.343 72.5477 114.89 73.4242 109.769 75.0488L105.1 105.104L74.9394 109.78ZM93.5016 68.4491C93.5016 82.2852 82.2852 93.5016 68.4491 93.5016C54.613 93.5016 43.3966 82.2852 43.3966 68.4491C43.3966 54.613 54.613 43.3966 68.4491 43.3966C82.2852 43.3966 93.5016 54.613 93.5016 68.4491ZM68.4491 208.428C82.2852 208.428 93.5016 197.212 93.5016 183.375C93.5016 169.539 82.2852 158.323 68.4491 158.323C54.613 158.323 43.3966 169.539 43.3966 183.375C43.3966 197.212 54.613 208.428 68.4491 208.428ZM208.428 68.4491C208.428 82.2852 197.212 93.5016 183.375 93.5016C169.539 93.5016 158.323 82.2852 158.323 68.4491C158.323 54.613 169.539 43.3966 183.375 43.3966C197.212 43.3966 208.428 54.613 208.428 68.4491ZM183.375 208.428C197.212 208.428 208.428 197.212 208.428 183.375C208.428 169.539 197.212 158.323 183.375 158.323C169.539 158.323 158.323 169.539 158.323 183.375C158.323 197.212 169.539 208.428 183.375 208.428Z" fill="#F9F9F9" stroke="black" stroke-width="2" stroke-linejoin="round"/>
</svg>
