<svg width="252" height="252" viewBox="0 0 252 252" fill="none" xmlns="http://www.w3.org/2000/svg">
<path d="M119.637 1V27.0391H88.2615L126.21 92.6382L164.159 27.0391H132.783V1.02176C173.965 3.22237 209.854 25.3415 230.976 57.9116L209.102 70.5539L193.378 43.4559L155.516 109.105L231.413 109.005L215.69 81.9074L237.529 69.2851C246.144 86.2432 251 105.43 251 125.75C251 146.07 246.144 165.257 237.529 182.215L215.946 169.741L231.669 142.643L155.772 142.544L193.635 208.192L209.358 181.094L230.976 193.588C209.854 226.158 173.965 248.278 132.783 250.478V225.052H164.159L126.21 159.453L88.2616 225.052H119.637V250.5C78.3539 248.432 42.3477 226.349 21.1388 193.765L43.8656 180.63L59.5891 207.728L97.4517 142.079L21.5542 142.179L37.2778 169.277L14.5664 182.403C5.89159 165.399 1 146.145 1 125.75C1 105.355 5.89161 86.1014 14.5664 69.0971L37.5271 82.3673L21.8036 109.465L97.701 109.565L59.8385 43.9159L44.115 71.0139L21.1389 57.7348C42.3478 25.1508 78.3538 3.06829 119.637 1Z" fill="#F9F9F9" stroke="black" stroke-width="2" stroke-linejoin="round"/>
</svg>
