<svg width="252" height="252" viewBox="0 0 252 252" fill="none" xmlns="http://www.w3.org/2000/svg">
<path fill-rule="evenodd" clip-rule="evenodd" d="M251 126C251 195.036 195.036 251 126 251C56.9644 251 1 195.036 1 126C1 56.9644 56.9644 1 126 1C195.036 1 251 56.9644 251 126ZM33.5459 145C41.0837 181.873 70.1266 210.916 107 218.454V185.56C87.7638 179.428 72.5716 164.236 66.4404 145H33.5459ZM218.454 145C210.882 182.04 181.611 211.178 144.5 218.555V185.717C163.973 179.691 179.375 164.403 185.56 145H218.454ZM185.717 107.5C179.639 87.8603 164.14 72.3608 144.5 66.2833V33.4451C181.778 40.8547 211.145 70.2225 218.555 107.5H185.717ZM107 33.5459V66.4404C87.5975 72.6246 72.3091 88.0273 66.2833 107.5H33.4451C40.8215 70.3893 69.9601 41.1177 107 33.5459ZM126 151C139.807 151 151 139.807 151 126C151 112.193 139.807 101 126 101C112.193 101 101 112.193 101 126C101 139.807 112.193 151 126 151Z" fill="#F9F9F9" stroke="black" stroke-width="2" stroke-linejoin="round"/>
</svg>
