<svg width="252" height="252" viewBox="0 0 252 252" fill="none" xmlns="http://www.w3.org/2000/svg">
<path fill-rule="evenodd" clip-rule="evenodd" d="M126 251C195.036 251 251 195.036 251 126C251 56.9644 195.036 1 126 1C56.9644 1 1 56.9644 1 126C1 195.036 56.9644 251 126 251ZM126 1.15592L162.247 74.6911H89.7533L126 1.15592ZM67.3515 143.722L89.7533 74.6911L8.70308 86.4831L67.3515 143.722ZM126 186.386L67.3515 143.722L53.5065 224.545L126 186.386ZM184.648 143.722L162.247 74.6911L243.297 86.4831L184.648 143.722ZM184.648 143.722L126 186.386L198.494 224.545L184.648 143.722Z" fill="#F9F9F9"/>
<path d="M162.247 74.6911L126 1.15592L89.7533 74.6911M162.247 74.6911H89.7533M162.247 74.6911L184.648 143.722M162.247 74.6911L243.297 86.4831L184.648 143.722M89.7533 74.6911L67.3515 143.722M89.7533 74.6911L8.70308 86.4831L67.3515 143.722M67.3515 143.722L126 186.386M67.3515 143.722L53.5065 224.545L126 186.386M126 186.386L184.648 143.722M126 186.386L198.494 224.545L184.648 143.722M251 126C251 195.036 195.036 251 126 251C56.9644 251 1 195.036 1 126C1 56.9644 56.9644 1 126 1C195.036 1 251 56.9644 251 126Z" stroke="black" stroke-width="2" stroke-linejoin="round"/>
</svg>
