<svg width="252" height="252" viewBox="0 0 252 252" fill="none" xmlns="http://www.w3.org/2000/svg">
<path fill-rule="evenodd" clip-rule="evenodd" d="M251 126C251 195.036 195.036 251 126 251C56.9644 251 1 195.036 1 126C1 56.9644 56.9644 1 126 1C195.036 1 251 56.9644 251 126ZM129.826 16.1885C127.575 13.9372 123.925 13.9372 121.674 16.1885L98.0023 39.8599C96.3031 41.5591 95.8361 44.1341 96.8305 46.3217L106.316 67.1899C112.501 65.1208 119.119 64 126 64C132.72 64 139.19 65.069 145.249 67.0462L154.669 46.3217C155.664 44.1341 155.197 41.5591 153.498 39.8599L129.826 16.1885ZM153.831 70.5826C165.727 76.5687 175.431 86.2725 181.417 98.1686L202.717 90.1812C204.967 89.3375 206.458 87.1865 206.458 84.7835V51.3071C206.458 48.1233 203.877 45.5422 200.693 45.5422H167.216C164.813 45.5422 162.662 47.0329 161.819 49.2829L153.831 70.5826ZM184.954 106.751C186.931 112.81 188 119.28 188 126C188 132.881 186.879 139.499 184.81 145.684L205.678 155.169C207.866 156.164 210.441 155.697 212.14 153.998L235.812 130.326C238.063 128.075 238.063 124.425 235.812 122.174L212.14 98.5023C210.441 96.8031 207.866 96.3361 205.678 97.3305L184.954 106.751ZM181.204 154.251C175.175 166.008 165.501 175.587 153.674 181.497L161.819 203.217C162.662 205.467 164.813 206.958 167.216 206.958H200.693C203.877 206.958 206.458 204.377 206.458 201.193V167.716C206.458 165.313 204.967 163.162 202.717 162.319L181.204 154.251ZM145.051 185.018C139.049 186.954 132.647 188 126 188C119.193 188 112.641 186.903 106.513 184.876L96.8305 206.178C95.8361 208.366 96.3031 210.941 98.0023 212.64L121.674 236.312C123.925 238.563 127.575 238.563 129.826 236.312L153.498 212.64C155.197 210.941 155.664 208.366 154.669 206.178L145.051 185.018ZM97.906 181.284C86.2171 175.333 76.6673 165.783 70.7155 154.094L48.783 162.319C46.533 163.162 45.0423 165.313 45.0423 167.716V201.193C45.0423 204.377 47.6233 206.958 50.8072 206.958H84.2836C86.6866 206.958 88.8376 205.467 89.6813 203.217L97.906 181.284ZM67.1242 145.487C65.0971 139.359 64 132.807 64 126C64 119.353 65.0459 112.951 66.982 106.949L45.8217 97.3305C43.6341 96.3361 41.0591 96.8031 39.3599 98.5023L15.6885 122.174C13.4372 124.425 13.4372 128.075 15.6885 130.326L39.3599 153.998C41.0591 155.697 43.6341 156.164 45.8217 155.169L67.1242 145.487ZM70.5035 98.3264C76.4128 86.4989 85.9919 76.8247 97.7487 70.7959L89.6813 49.2829C88.8376 47.0329 86.6866 45.5422 84.2836 45.5422H50.8072C47.6233 45.5422 45.0423 48.1233 45.0423 51.3071V84.7835C45.0423 87.1865 46.533 89.3375 48.783 90.1812L70.5035 98.3264ZM126 162.5C146.158 162.5 162.5 146.158 162.5 126C162.5 105.842 146.158 89.5 126 89.5C105.842 89.5 89.5 105.842 89.5 126C89.5 146.158 105.842 162.5 126 162.5Z" fill="#F9F9F9" stroke="black" stroke-width="2" stroke-linejoin="round"/>
</svg>
