<svg width="252" height="251" viewBox="0 0 252 251" fill="none" xmlns="http://www.w3.org/2000/svg">
<circle cx="126" cy="146.5" r="89" fill="#F9F9F9" stroke="black" stroke-width="2" stroke-linejoin="round"/>
<path d="M126 145.133L92.3017 89.1591L126 0.999714L159.698 89.1591L126 145.133Z" fill="#F9F9F9"/>
<path d="M126 145.133L191.393 143.978L251 217.2L157.695 202.263L126 145.133Z" fill="#F9F9F9"/>
<path d="M126 145.133L94.3055 202.263L1 217.2L60.6071 143.978L126 145.133Z" fill="#F9F9F9"/>
<path d="M126 145.133L92.3017 89.1591L126 0.99971L159.698 89.1591L126 145.133ZM126 145.133L191.393 143.978L251 217.2L157.695 202.263L126 145.133ZM126 145.133L94.3055 202.263L1 217.2L60.6071 143.978L126 145.133Z" stroke="black" stroke-width="2" stroke-linejoin="round"/>
</svg>
