<svg width="252" height="252" viewBox="0 0 252 252" fill="none" xmlns="http://www.w3.org/2000/svg">
<circle cx="126" cy="126" r="96.5" fill="#F9F9F9" stroke="black" stroke-width="2" stroke-linejoin="round"/>
<path d="M126 126L77.4563 155.184L1 126L77.4563 96.8164L126 126Z" fill="#F9F9F9"/>
<path d="M126 126L96.8164 77.4563L126 1L155.184 77.4563L126 126Z" fill="#F9F9F9"/>
<path d="M126 126L174.544 96.8164L251 126L174.544 155.184L126 126Z" fill="#F9F9F9"/>
<path d="M126 126L155.184 174.544L126 251L96.8164 174.544L126 126Z" fill="#F9F9F9"/>
<path d="M126 126L77.4563 155.184L1 126L77.4563 96.8164L126 126ZM126 126L96.8164 77.4563L126 1L155.184 77.4563L126 126ZM126 126L174.544 96.8164L251 126L174.544 155.184L126 126ZM126 126L155.184 174.544L126 251L96.8164 174.544L126 126Z" stroke="black" stroke-width="2" stroke-linejoin="round"/>
</svg>
