<svg width="252" height="251" viewBox="0 0 252 251" fill="none" xmlns="http://www.w3.org/2000/svg">
<path d="M222.5 132.5C222.5 185.795 179.295 229 126 229C72.7045 229 29.5 185.795 29.5 132.5C29.5 79.2045 72.7045 36 126 36C179.295 36 222.5 79.2045 222.5 132.5Z" fill="#F9F9F9" stroke="black" stroke-width="2" stroke-linejoin="round"/>
<path d="M126 132.525L95.3146 81.4474L126 1L156.686 81.4474L126 132.525Z" fill="#F9F9F9"/>
<path d="M126 132.525L165.061 87.5371L251 91.8816L184.026 145.945L126 132.525Z" fill="#F9F9F9"/>
<path d="M126 132.525L180.827 155.799L203.254 238.931L131.177 191.897L126 132.525Z" fill="#F9F9F9"/>
<path d="M126 132.525L120.823 191.897L48.7457 238.931L71.1733 155.799L126 132.525Z" fill="#F9F9F9"/>
<path d="M126 132.525L67.974 145.945L1 91.8816L86.9386 87.5371L126 132.525Z" fill="#F9F9F9"/>
<path d="M126 132.525L95.3146 81.4474L126 1L156.686 81.4474L126 132.525ZM126 132.525L165.061 87.5371L251 91.8816L184.026 145.945L126 132.525ZM126 132.525L180.827 155.799L203.254 238.931L131.177 191.897L126 132.525ZM126 132.525L120.823 191.897L48.7457 238.931L71.1733 155.799L126 132.525ZM126 132.525L67.974 145.945L1 91.8816L86.9386 87.5371L126 132.525Z" stroke="black" stroke-width="2" stroke-linejoin="round"/>
</svg>
