<svg width="253" height="252" viewBox="0 0 253 252" fill="none" xmlns="http://www.w3.org/2000/svg">
<path d="M141.473 137.76C166.653 156.454 192.155 183.709 192.155 214.232C192.155 218.226 191.504 222.067 190.301 225.656C208.106 223.745 226.096 211.937 237.076 192.919C248.056 173.901 249.287 152.418 242.04 136.042C239.533 138.878 236.532 141.363 233.074 143.36C206.613 158.637 170.253 150.217 141.473 137.76Z" fill="#F9F9F9"/>
<path d="M126.304 111.374C129.904 80.2203 140.757 44.5075 167.191 29.2459C170.649 27.2492 174.301 25.8929 178.011 25.1403C167.453 10.6754 148.232 1.00002 126.271 1C104.311 0.999976 85.0904 10.6752 74.5325 25.1399C78.242 25.8925 81.8946 27.2488 85.3533 29.2457C111.814 44.5227 122.702 80.222 126.304 111.374Z" fill="#F9F9F9"/>
<path d="M111.037 137.704C82.2578 150.163 45.9035 158.621 19.4697 143.359C16.011 141.362 13.0101 138.877 10.5036 136.041C3.25567 152.417 4.48696 173.9 15.4672 192.919C26.4473 211.937 44.4368 223.745 62.2425 225.656C61.0397 222.067 60.3881 218.226 60.3881 214.233C60.3881 183.679 85.8601 156.399 111.037 137.704Z" fill="#F9F9F9"/>
<path d="M190.301 225.656C191.504 222.067 192.155 218.226 192.155 214.233C192.155 183.709 166.653 156.454 141.473 137.76C170.253 150.217 206.613 158.637 233.074 143.36C236.532 141.363 239.533 138.878 242.04 136.042M190.301 225.656C185.525 239.905 172.058 250.172 156.19 250.172C137.204 250.172 126.33 233.698 126.33 233.698C126.33 233.698 115.34 250.172 96.3537 250.172C80.485 250.172 67.0185 239.905 62.2425 225.656M190.301 225.656C208.106 223.745 226.096 211.937 237.076 192.919C248.056 173.901 249.287 152.418 242.04 136.042M62.2425 225.656C61.0397 222.067 60.3881 218.226 60.3881 214.233C60.3881 183.679 85.8601 156.399 111.038 137.704C82.2578 150.163 45.9035 158.621 19.4697 143.359C16.011 141.362 13.0101 138.877 10.5036 136.041M62.2425 225.656C44.4368 223.745 26.4473 211.937 15.4672 192.919C4.48696 173.9 3.25567 152.417 10.5036 136.041M242.04 136.042C251.992 124.781 254.15 107.986 246.215 94.2429C236.723 77.8006 216.961 76.519 216.961 76.519C216.961 76.519 225.791 58.8658 216.298 42.4235C208.363 28.6807 192.739 22.1517 178.011 25.1403M178.011 25.1403C174.301 25.8929 170.649 27.2492 167.191 29.2459C140.757 44.5075 129.904 80.2203 126.304 111.374C122.702 80.222 111.814 44.5227 85.3533 29.2457C81.8946 27.2488 78.242 25.8925 74.5325 25.1399M178.011 25.1403C167.453 10.6754 148.232 1.00002 126.271 1C104.311 0.999976 85.0904 10.6752 74.5325 25.1399M10.5036 136.041C0.551668 124.78 -1.60592 107.985 6.32831 94.2426C15.8213 77.8003 35.5243 76.6205 35.5243 76.6205C35.5243 76.6205 26.7533 58.8655 36.2463 42.4232C44.1805 28.6807 59.8044 22.1517 74.5325 25.1399" stroke="black" stroke-width="2" stroke-linejoin="round"/>
<path d="M19.4697 143.359C45.9035 158.621 82.2578 150.163 111.037 137.704C85.8601 156.399 60.3881 183.679 60.3881 214.233C60.3881 218.226 61.0397 222.067 62.2425 225.656C67.0185 239.905 80.485 250.172 96.3537 250.172C115.34 250.172 126.33 233.698 126.33 233.698C126.33 233.698 137.204 250.172 156.19 250.172C172.058 250.172 185.525 239.905 190.301 225.656C191.504 222.067 192.155 218.226 192.155 214.232C192.155 183.709 166.653 156.454 141.473 137.76C170.253 150.217 206.613 158.637 233.074 143.36C236.532 141.363 239.533 138.878 242.04 136.042C251.992 124.781 254.15 107.986 246.215 94.2429C236.723 77.8006 216.961 76.519 216.961 76.519C216.961 76.519 225.791 58.8658 216.298 42.4235C208.363 28.6807 192.739 22.1517 178.011 25.1403C174.301 25.8929 170.649 27.2492 167.191 29.2459C140.757 44.5075 129.904 80.2203 126.304 111.374C122.702 80.222 111.814 44.5227 85.3533 29.2457C81.8946 27.2488 78.242 25.8925 74.5325 25.1399C59.8044 22.1517 44.1805 28.6807 36.2463 42.4232C26.7533 58.8655 35.5243 76.6205 35.5243 76.6205C35.5243 76.6205 15.8213 77.8003 6.32831 94.2426C-1.60592 107.985 0.551669 124.78 10.5036 136.041C13.0101 138.877 16.011 141.362 19.4697 143.359Z" fill="#F9F9F9"/>
<path d="M190.301 225.656C191.504 222.067 192.155 218.226 192.155 214.232C192.155 183.709 166.653 156.454 141.473 137.76C170.253 150.217 206.613 158.637 233.074 143.36C236.532 141.363 239.533 138.878 242.04 136.042M190.301 225.656C185.525 239.905 172.058 250.172 156.19 250.172C137.204 250.172 126.33 233.698 126.33 233.698C126.33 233.698 115.34 250.172 96.3537 250.172C80.485 250.172 67.0185 239.905 62.2425 225.656M190.301 225.656C208.106 223.745 226.096 211.937 237.076 192.919C248.056 173.901 249.287 152.418 242.04 136.042M62.2425 225.656C61.0397 222.067 60.3881 218.226 60.3881 214.233C60.3881 183.679 85.8601 156.399 111.037 137.704C82.2578 150.163 45.9035 158.621 19.4697 143.359C16.011 141.362 13.0101 138.877 10.5036 136.041M62.2425 225.656C44.4368 223.745 26.4473 211.937 15.4672 192.919C4.48696 173.9 3.25567 152.417 10.5036 136.041M242.04 136.042C251.992 124.781 254.15 107.986 246.215 94.2429C236.723 77.8006 216.961 76.519 216.961 76.519C216.961 76.519 225.791 58.8658 216.298 42.4235C208.363 28.6807 192.739 22.1517 178.011 25.1403M178.011 25.1403C174.301 25.8929 170.649 27.2492 167.191 29.2459C140.757 44.5075 129.904 80.2203 126.304 111.374C122.702 80.222 111.814 44.5227 85.3533 29.2457C81.8946 27.2488 78.242 25.8925 74.5325 25.1399M178.011 25.1403C167.453 10.6754 148.232 1.00002 126.271 1C104.311 0.999976 85.0904 10.6752 74.5325 25.1399M10.5036 136.041C0.551669 124.78 -1.60592 107.985 6.32831 94.2426C15.8213 77.8003 35.5243 76.6205 35.5243 76.6205C35.5243 76.6205 26.7533 58.8655 36.2463 42.4232C44.1805 28.6807 59.8044 22.1517 74.5325 25.1399" stroke="black" stroke-width="2" stroke-linejoin="round"/>
<path d="M126.547 183.103L126.547 132.68M82.9323 107.468L126.547 132.68M170.162 107.468L126.547 132.68" stroke="black" stroke-width="2" stroke-linejoin="round"/>
<ellipse cx="126.415" cy="130" rx="28.1982" ry="28.3299" fill="#F9F9F9" stroke="black" stroke-width="2" stroke-linejoin="round"/>
</svg>
