<svg width="252" height="256" viewBox="0 0 252 256" fill="none" xmlns="http://www.w3.org/2000/svg">
<path d="M92.0509 5C69.5091 5 51.2392 23.2564 51.2392 45.7816C51.2392 49.2536 51.53 52.6884 52.0821 56.0798C55.2761 75.7012 67.2156 93.8728 82.1843 109.423C89.9431 92.9938 106.639 81.6136 126 81.5553C126.05 81.5551 126.1 81.555 126.15 81.555C133.484 81.555 140.44 83.1801 146.675 86.09C162.204 71.1654 180.34 59.2694 199.92 56.0821C200.471 52.6899 200.761 49.2544 200.761 45.7816C200.761 23.2564 182.491 5 159.949 5C138.405 5 125.933 23.6931 125.933 23.6931C125.933 23.6931 113.595 5 92.0509 5Z" fill="#F9F9F9"/>
<path d="M251 96.0509C251 73.5091 232.744 55.2392 210.218 55.2392C206.746 55.2392 203.312 55.53 199.92 56.0821C180.34 59.2694 162.204 71.1654 146.675 86.09C148.226 86.8134 149.731 87.616 151.187 88.4931C151.673 88.7855 152.152 89.0861 152.627 89.3947C153.39 89.8915 154.138 90.4091 154.87 90.9467C163.418 97.2195 169.839 106.22 172.849 116.666C174.07 120.902 174.73 125.375 174.744 130C174.744 130.031 174.744 130.062 174.744 130.093C174.744 130.112 174.744 130.131 174.744 130.15C174.744 137.567 173.082 144.596 170.111 150.885C184.941 166.366 196.745 184.428 199.918 203.92C203.31 204.471 206.746 204.761 210.218 204.761C232.744 204.761 251 186.491 251 163.949C251 142.405 232.307 129.933 232.307 129.933C232.307 129.933 251 117.595 251 96.0509Z" fill="#F9F9F9"/>
<path d="M159.949 255C182.491 255 200.761 236.744 200.761 214.218C200.761 210.746 200.47 207.312 199.918 203.92C196.745 184.428 184.941 166.366 170.111 150.885C162.33 167.351 145.57 178.744 126.15 178.744C126.128 178.744 126.106 178.744 126.084 178.744C126.068 178.744 126.052 178.744 126.035 178.744C126.024 178.744 126.012 178.744 126 178.744C118.559 178.721 111.512 177.027 105.215 174.016C89.7106 188.891 71.6137 200.738 52.0798 203.918C51.5292 207.31 51.2392 210.746 51.2392 214.218C51.2392 236.744 69.5091 255 92.0509 255C113.595 255 126.067 236.307 126.067 236.307C126.067 236.307 138.405 255 159.949 255Z" fill="#F9F9F9"/>
<path d="M1 163.949C1 186.491 19.2564 204.761 41.7816 204.761C45.2536 204.761 48.6884 204.47 52.0798 203.918C71.6137 200.738 89.7106 188.891 105.215 174.016C104.831 173.832 104.45 173.644 104.073 173.451C96.3912 169.527 89.892 163.619 85.2502 156.403C85.0554 156.1 84.8639 155.795 84.6757 155.488C80.1585 148.11 77.555 139.434 77.555 130.15C77.555 130.1 77.5551 130.05 77.5553 130C77.5774 122.641 79.2353 115.667 82.1843 109.423C67.2156 93.8728 55.2761 75.7012 52.0821 56.0798C48.6899 55.5292 45.2544 55.2392 41.7816 55.2392C19.2564 55.2392 1 73.5091 1 96.0509C1 117.595 19.6931 130.067 19.6931 130.067C19.6931 130.067 1 142.405 1 163.949Z" fill="#F9F9F9"/>
<path fill-rule="evenodd" clip-rule="evenodd" d="M105.215 174.016C111.512 177.027 118.559 178.721 126 178.744L126.035 178.744C126.052 178.744 126.068 178.744 126.084 178.744C126.106 178.744 126.128 178.744 126.15 178.744L126.084 178.744L126.035 178.744L126 178.744C118.559 178.721 111.512 177.027 105.215 174.016ZM154.87 90.9467C154.138 90.4091 153.39 89.8915 152.627 89.3947L154.87 90.9467Z" fill="#F9F9F9"/>
<path d="M52.0821 56.0798C51.53 52.6884 51.2392 49.2536 51.2392 45.7816C51.2392 23.2564 69.5091 5 92.0509 5C113.595 5 125.933 23.6931 125.933 23.6931C125.933 23.6931 138.405 5 159.949 5C182.491 5 200.761 23.2564 200.761 45.7816C200.761 49.2544 200.471 52.6899 199.92 56.0821M52.0821 56.0798C48.6899 55.5292 45.2544 55.2392 41.7816 55.2392C19.2564 55.2392 1 73.5091 1 96.0509C1 117.595 19.6931 130.067 19.6931 130.067C19.6931 130.067 1 142.405 1 163.949C1 186.491 19.2564 204.761 41.7816 204.761C45.2536 204.761 48.6884 204.47 52.0798 203.918M52.0821 56.0798C55.2761 75.7012 67.2156 93.8728 82.1843 109.423M52.0798 203.918C51.5292 207.31 51.2392 210.746 51.2392 214.218C51.2392 236.744 69.5091 255 92.0509 255C113.595 255 126.067 236.307 126.067 236.307C126.067 236.307 138.405 255 159.949 255C182.491 255 200.761 236.744 200.761 214.218C200.761 210.746 200.47 207.312 199.918 203.92M52.0798 203.918C71.6137 200.738 89.7106 188.891 105.215 174.016M199.918 203.92C203.31 204.471 206.746 204.761 210.218 204.761C232.744 204.761 251 186.491 251 163.949C251 142.405 232.307 129.933 232.307 129.933C232.307 129.933 251 117.595 251 96.0509C251 73.5091 232.744 55.2392 210.218 55.2392C206.746 55.2392 203.312 55.53 199.92 56.0821M199.918 203.92C196.745 184.428 184.941 166.366 170.111 150.885M199.92 56.0821C180.34 59.2694 162.204 71.1654 146.675 86.09M126 66.9019V81.5553M126 193.098V178.744M189.098 130H174.744M62.9019 130H77.5553M174.744 130.15C174.744 137.567 173.082 144.596 170.111 150.885M174.744 130.15L174.744 130.093M174.744 130.15C174.744 130.131 174.744 130.112 174.744 130.093M126.15 178.744C145.57 178.744 162.33 167.351 170.111 150.885M126.15 178.744L126.084 178.744M126.15 178.744C126.128 178.744 126.106 178.744 126.084 178.744M82.1843 109.423C89.9431 92.9938 106.639 81.6136 126 81.5553M82.1843 109.423C79.2353 115.667 77.5774 122.641 77.5553 130M126 81.5553C126.05 81.5551 126.1 81.555 126.15 81.555C133.484 81.555 140.44 83.1801 146.675 86.09M146.675 86.09C148.226 86.8134 149.731 87.616 151.187 88.4931C151.673 88.7855 152.152 89.0861 152.627 89.3947C153.39 89.8915 154.138 90.4091 154.87 90.9467C163.418 97.2195 169.839 106.22 172.849 116.666C174.07 120.902 174.73 125.375 174.744 130M174.744 130C174.744 130.031 174.744 130.062 174.744 130.093M174.744 130L174.744 130.093M105.215 174.016C111.512 177.027 118.559 178.721 126 178.744M105.215 174.016C104.831 173.832 104.45 173.644 104.073 173.451C96.3912 169.527 89.892 163.619 85.2502 156.403C85.0554 156.1 84.8639 155.795 84.6757 155.488C80.1585 148.11 77.555 139.434 77.555 130.15C77.555 130.1 77.5551 130.05 77.5553 130M126 178.744L126.035 178.744M126 178.744C126.012 178.744 126.024 178.744 126.035 178.744M126.035 178.744L126.084 178.744M126.035 178.744C126.052 178.744 126.068 178.744 126.084 178.744" stroke="black" stroke-width="2" stroke-linejoin="round"/>
<path d="M251 96.0499C251 73.5082 232.744 55.2383 210.218 55.2383C206.746 55.2383 203.312 55.5291 199.92 56.0811C180.34 59.2684 162.204 71.1645 146.675 86.089C148.226 86.8125 149.731 87.6151 151.187 88.4922C151.673 88.7845 152.152 89.0851 152.627 89.3938C153.39 89.8905 154.138 90.4081 154.87 90.9457C163.418 97.2185 169.839 106.219 172.849 116.665C174.07 120.901 174.73 125.374 174.744 129.999C174.744 130.03 174.744 130.061 174.744 130.092C174.744 130.111 174.744 130.13 174.744 130.149C174.744 137.566 173.082 144.595 170.111 150.884C184.941 166.366 196.745 184.427 199.918 203.919C203.31 204.47 206.746 204.76 210.218 204.76C232.744 204.76 251 186.49 251 163.948C251 142.404 232.307 129.932 232.307 129.932C232.307 129.932 251 117.594 251 96.0499Z" fill="#F9F9F9"/>
<path d="M1 163.948C1 186.49 19.2564 204.76 41.7816 204.76C45.2536 204.76 48.6884 204.469 52.0798 203.917C71.6137 200.737 89.7106 188.89 105.215 174.015C104.831 173.832 104.45 173.643 104.073 173.45C96.3912 169.526 89.892 163.618 85.2502 156.402C85.0554 156.099 84.8639 155.794 84.6757 155.487C80.1585 148.109 77.555 139.433 77.555 130.149C77.555 130.099 77.5551 130.049 77.5553 129.999C77.5774 122.64 79.2353 115.666 82.1843 109.422C67.2156 93.8718 55.2761 75.7003 52.0821 56.0789C48.6899 55.5283 45.2544 55.2383 41.7816 55.2383C19.2564 55.2383 1 73.5082 1 96.0499C1 117.594 19.6931 130.066 19.6931 130.066C19.6931 130.066 1 142.404 1 163.948Z" fill="#F9F9F9"/>
<path d="M251 96.0499C251 73.5082 232.744 55.2383 210.218 55.2383C206.746 55.2383 203.312 55.5291 199.92 56.0811C180.34 59.2684 162.204 71.1645 146.675 86.089C148.226 86.8125 149.731 87.6151 151.187 88.4922C151.673 88.7845 152.152 89.0851 152.627 89.3938C153.39 89.8905 154.138 90.4081 154.87 90.9457C163.418 97.2185 169.839 106.219 172.849 116.665C174.07 120.901 174.73 125.374 174.744 129.999C174.744 130.03 174.744 130.061 174.744 130.092C174.744 130.111 174.744 130.13 174.744 130.149C174.744 137.566 173.082 144.595 170.111 150.884C184.941 166.366 196.745 184.427 199.918 203.919C203.31 204.47 206.746 204.76 210.218 204.76C232.744 204.76 251 186.49 251 163.948C251 142.404 232.307 129.932 232.307 129.932C232.307 129.932 251 117.594 251 96.0499Z" stroke="black" stroke-width="2" stroke-linecap="round" stroke-linejoin="round"/>
<path d="M1 163.948C1 186.49 19.2564 204.76 41.7816 204.76C45.2536 204.76 48.6884 204.469 52.0798 203.917C71.6137 200.737 89.7106 188.89 105.215 174.015C104.831 173.832 104.45 173.643 104.073 173.45C96.3912 169.526 89.892 163.618 85.2502 156.402C85.0554 156.099 84.8639 155.794 84.6757 155.487C80.1585 148.109 77.555 139.433 77.555 130.149C77.555 130.099 77.5551 130.049 77.5553 129.999C77.5774 122.64 79.2353 115.666 82.1843 109.422C67.2156 93.8718 55.2761 75.7003 52.0821 56.0789C48.6899 55.5283 45.2544 55.2383 41.7816 55.2383C19.2564 55.2383 1 73.5082 1 96.0499C1 117.594 19.6931 130.066 19.6931 130.066C19.6931 130.066 1 142.404 1 163.948Z" stroke="black" stroke-width="2" stroke-linecap="round" stroke-linejoin="round"/>
</svg>
