<svg width="252" height="250" viewBox="0 0 252 250" fill="none" xmlns="http://www.w3.org/2000/svg">
<path d="M218.693 208.226C232.956 197.88 236.123 177.962 225.768 163.733C223.733 160.936 221.426 158.395 218.893 156.088C202.948 141.573 178.018 136.37 155.194 135.455C147.444 135.143 139.936 135.327 133.106 135.807C130.544 142.129 128.059 149.179 125.97 156.61C132.15 178.563 134.898 203.841 125.998 223.467C127.414 226.584 129.124 229.56 131.159 232.357C141.515 246.586 161.467 249.734 175.731 239.388C189.362 229.5 188.66 211.968 188.66 211.968C188.66 211.968 205.061 218.113 218.693 208.226Z" fill="#F9F9F9"/>
<path d="M76.2688 239.388C90.5319 249.734 110.485 246.587 120.84 232.357C122.875 229.56 124.584 226.585 125.998 223.467C134.898 203.841 132.15 178.563 125.97 156.61C123.872 149.155 121.377 142.083 118.809 135.746C111.995 135.267 104.512 135.086 96.7876 135.399C77.7837 148.051 54.5519 158.472 33.1058 156.085C32.9986 156.183 32.8917 156.281 32.7853 156.38C30.3786 158.609 28.181 161.054 26.2315 163.733C15.8764 177.962 19.0437 197.88 33.3068 208.226C46.9386 218.114 63.4235 212.029 63.4235 212.029C63.4235 212.029 62.637 229.5 76.2688 239.388Z" fill="#F9F9F9"/>
<path d="M2.57229 113.788C-2.87574 130.528 6.28842 148.5 23.0434 153.935C26.3364 155.003 29.6986 155.706 33.1058 156.085C54.5519 158.472 77.7837 148.051 96.7876 135.399C103.241 131.103 109.207 126.549 114.45 122.152C112.801 115.534 110.66 108.373 107.975 101.135C90.0499 87.0012 72.9437 68.1629 68.5901 47.0624C65.6091 45.3712 62.4744 43.9673 59.1806 42.8988C42.4257 37.4637 24.4304 46.6261 18.9823 63.3658C13.7754 79.3647 24.6657 93.1368 24.6657 93.1368C24.6657 93.1368 7.77919 97.7889 2.57229 113.788Z" fill="#F9F9F9"/>
<path d="M99.4479 5C81.8177 5 67.5286 19.2551 67.5286 36.8434C67.5286 40.3003 67.8984 43.7099 68.5901 47.0624C72.9437 68.1629 90.0499 87.0012 107.975 101.135C114.062 105.935 120.244 110.192 126.052 113.811C131.847 110.201 138.007 105.955 144.072 101.17C151.998 79.782 164.657 57.7185 183.413 47.0645C184.103 43.7113 184.471 40.301 184.471 36.8434C184.471 19.2551 170.182 5 152.552 5C135.702 5 125.948 19.5961 125.948 19.5961C125.948 19.5961 116.298 5 99.4479 5Z" fill="#F9F9F9"/>
<path d="M233.018 63.3658C227.57 46.6261 209.574 37.4637 192.819 42.8988C189.526 43.967 186.393 45.3717 183.413 47.0645C164.657 57.7185 151.998 79.782 144.072 101.17C141.381 108.432 139.235 115.617 137.583 122.251C142.813 126.637 148.761 131.175 155.194 135.455C178.018 136.37 202.948 141.573 218.893 156.088C222.3 155.707 225.663 155.004 228.957 153.935C245.712 148.5 254.876 130.528 249.428 113.788C244.221 97.7889 227.302 93.0377 227.302 93.0377C227.302 93.0377 238.225 79.3647 233.018 63.3658Z" fill="#F9F9F9"/>
<path d="M125.948 19.5961C125.948 19.5961 116.298 5 99.4479 5C81.8177 5 67.5286 19.2551 67.5286 36.8434C67.5286 40.3003 67.8984 43.7099 68.5901 47.0624M125.948 19.5961C125.948 19.5961 135.702 5 152.552 5C170.182 5 184.471 19.2551 184.471 36.8434C184.471 40.301 184.103 43.7113 183.413 47.0645M125.948 19.5961L126.052 113.811M126.052 113.811C120.244 110.192 114.062 105.935 107.975 101.135M126.052 113.811C131.847 110.201 138.007 105.955 144.072 101.17M227.302 93.0377C227.302 93.0377 238.225 79.3647 233.018 63.3658C227.57 46.6261 209.574 37.4637 192.819 42.8988C189.526 43.967 186.393 45.3718 183.413 47.0645M227.302 93.0377C227.302 93.0377 244.221 97.7889 249.428 113.788C254.876 130.528 245.712 148.5 228.957 153.935C225.663 155.004 222.3 155.707 218.893 156.088M227.302 93.0377L137.583 122.251M137.583 122.251C142.813 126.637 148.761 131.175 155.194 135.455M137.583 122.251C139.235 115.617 141.381 108.432 144.072 101.17M188.66 211.968C188.66 211.968 205.061 218.113 218.693 208.226C232.956 197.88 236.123 177.962 225.768 163.733C223.733 160.936 221.426 158.395 218.893 156.088M188.66 211.968C188.66 211.968 189.362 229.5 175.731 239.388C161.467 249.734 141.515 246.586 131.159 232.357C129.124 229.56 127.414 226.584 125.998 223.467M188.66 211.968L133.106 135.807M133.106 135.807C139.936 135.327 147.444 135.143 155.194 135.455M133.106 135.807C130.544 142.129 128.059 149.179 125.97 156.61M63.4235 212.029C63.4235 212.029 62.637 229.5 76.2688 239.388C90.5319 249.734 110.485 246.587 120.84 232.357C122.875 229.56 124.584 226.585 125.998 223.467M63.4235 212.029C63.4235 212.029 46.9386 218.114 33.3068 208.226C19.0437 197.88 15.8764 177.962 26.2315 163.733C28.1811 161.054 30.3786 158.609 32.7853 156.38C32.8917 156.281 32.9986 156.183 33.1058 156.085M63.4235 212.029L118.809 135.746M118.809 135.746C121.377 142.083 123.872 149.155 125.97 156.61M118.809 135.746C111.995 135.267 104.512 135.086 96.7876 135.399M24.6657 93.1368C24.6657 93.1368 7.77919 97.7889 2.57229 113.788C-2.87574 130.528 6.28842 148.5 23.0434 153.935C26.3364 155.003 29.6986 155.706 33.1058 156.085M24.6657 93.1368C24.6657 93.1368 13.7754 79.3647 18.9823 63.3658C24.4304 46.6261 42.4257 37.4637 59.1806 42.8988C62.4744 43.9673 65.6091 45.3712 68.5901 47.0624M24.6657 93.1368L114.45 122.152M114.45 122.152C112.801 115.534 110.66 108.373 107.975 101.135M114.45 122.152C109.207 126.549 103.241 131.103 96.7876 135.399M107.975 101.135C90.0499 87.0012 72.9437 68.1629 68.5901 47.0624M183.413 47.0645C164.657 57.7185 151.998 79.782 144.072 101.17M218.893 156.088C202.948 141.573 178.018 136.371 155.194 135.455M125.998 223.467C134.898 203.841 132.15 178.563 125.97 156.61M96.7876 135.399C77.7837 148.051 54.5519 158.472 33.1058 156.085" stroke="black" stroke-width="2" stroke-linecap="round" stroke-linejoin="round"/>
<path fill-rule="evenodd" clip-rule="evenodd" d="M227.302 93.0377L137.583 122.251C142.813 126.637 148.761 131.175 155.194 135.455C178.018 136.37 202.948 141.573 218.893 156.088C222.3 155.707 225.663 155.004 228.957 153.935C245.712 148.5 254.876 130.528 249.428 113.788C244.221 97.7889 227.302 93.0377 227.302 93.0377Z" fill="#F9F9F9"/>
<path fill-rule="evenodd" clip-rule="evenodd" d="M125.948 19.5961L126.052 113.811C131.847 110.201 138.007 105.955 144.072 101.17C151.998 79.782 164.657 57.7185 183.413 47.0645C184.103 43.7113 184.471 40.301 184.471 36.8434C184.471 19.2551 170.182 5 152.552 5C135.702 5 125.948 19.5961 125.948 19.5961Z" fill="#F9F9F9"/>
<path fill-rule="evenodd" clip-rule="evenodd" d="M24.6657 93.1368L114.45 122.152C112.801 115.534 110.66 108.373 107.975 101.135C90.0499 87.0012 72.9437 68.1629 68.5901 47.0624C65.6091 45.3712 62.4744 43.9673 59.1806 42.8988C42.4257 37.4637 24.4304 46.6261 18.9823 63.3658C13.7754 79.3647 24.6657 93.1368 24.6657 93.1368Z" fill="#F9F9F9"/>
<path fill-rule="evenodd" clip-rule="evenodd" d="M63.4235 212.029L118.809 135.746C111.995 135.267 104.512 135.086 96.7876 135.399C77.7837 148.051 54.5519 158.472 33.1058 156.085C32.9986 156.183 32.8917 156.281 32.7853 156.38C30.3786 158.609 28.181 161.054 26.2315 163.733C15.8764 177.962 19.0437 197.88 33.3068 208.226C46.9386 218.114 63.4235 212.029 63.4235 212.029Z" fill="#F9F9F9"/>
<path fill-rule="evenodd" clip-rule="evenodd" d="M188.66 211.968L133.106 135.807C130.544 142.129 128.059 149.179 125.97 156.61C132.15 178.563 134.898 203.841 125.998 223.467C127.414 226.584 129.124 229.56 131.159 232.357C141.515 246.586 161.467 249.734 175.731 239.388C189.362 229.5 188.66 211.968 188.66 211.968Z" fill="#F9F9F9"/>
<path d="M125.948 19.5961C125.948 19.5961 116.298 5 99.4479 5C81.8177 5 67.5286 19.2551 67.5286 36.8434C67.5286 40.3003 67.8984 43.7099 68.5901 47.0624M125.948 19.5961C125.948 19.5961 135.702 5 152.552 5C170.182 5 184.471 19.2551 184.471 36.8434C184.471 40.301 184.103 43.7113 183.413 47.0645M125.948 19.5961L126.052 113.811M126.052 113.811C120.244 110.192 114.062 105.935 107.975 101.135M126.052 113.811C131.847 110.201 138.007 105.955 144.072 101.17M227.302 93.0377C227.302 93.0377 238.225 79.3647 233.018 63.3658C227.57 46.6261 209.574 37.4637 192.819 42.8988C189.526 43.967 186.393 45.3718 183.413 47.0645M227.302 93.0377C227.302 93.0377 244.221 97.7889 249.428 113.788C254.876 130.528 245.712 148.5 228.957 153.935C225.663 155.004 222.3 155.707 218.893 156.088M227.302 93.0377L137.583 122.251M137.583 122.251C142.813 126.637 148.761 131.175 155.194 135.455M137.583 122.251C139.235 115.617 141.381 108.432 144.072 101.17M188.66 211.968C188.66 211.968 205.061 218.113 218.693 208.226C232.956 197.88 236.123 177.962 225.768 163.733C223.733 160.936 221.426 158.395 218.893 156.088M188.66 211.968C188.66 211.968 189.362 229.5 175.731 239.388C161.467 249.734 141.515 246.586 131.159 232.357C129.124 229.56 127.414 226.584 125.998 223.467M188.66 211.968L133.106 135.807M133.106 135.807C139.936 135.327 147.444 135.143 155.194 135.455M133.106 135.807C130.544 142.129 128.059 149.179 125.97 156.61M63.4235 212.029C63.4235 212.029 62.637 229.5 76.2688 239.388C90.5319 249.734 110.485 246.587 120.84 232.357C122.875 229.56 124.584 226.585 125.998 223.467M63.4235 212.029C63.4235 212.029 46.9386 218.114 33.3068 208.226C19.0437 197.88 15.8764 177.962 26.2315 163.733C28.1811 161.054 30.3786 158.609 32.7853 156.38C32.8917 156.281 32.9986 156.183 33.1058 156.085M63.4235 212.029L118.809 135.746M118.809 135.746C121.377 142.083 123.872 149.155 125.97 156.61M118.809 135.746C111.995 135.267 104.512 135.086 96.7876 135.399M24.6657 93.1368C24.6657 93.1368 7.77919 97.7889 2.57229 113.788C-2.87574 130.528 6.28842 148.5 23.0434 153.935C26.3364 155.003 29.6986 155.706 33.1058 156.085M24.6657 93.1368C24.6657 93.1368 13.7754 79.3647 18.9823 63.3658C24.4304 46.6261 42.4257 37.4637 59.1806 42.8988C62.4744 43.9673 65.6091 45.3712 68.5901 47.0624M24.6657 93.1368L114.45 122.152M114.45 122.152C112.801 115.534 110.66 108.373 107.975 101.135M114.45 122.152C109.207 126.549 103.241 131.103 96.7876 135.399M107.975 101.135C90.0499 87.0012 72.9437 68.1629 68.5901 47.0624M183.413 47.0645C164.657 57.7185 151.998 79.782 144.072 101.17M218.893 156.088C202.948 141.573 178.018 136.371 155.194 135.455M125.998 223.467C134.898 203.841 132.15 178.563 125.97 156.61M96.7876 135.399C77.7837 148.051 54.5519 158.472 33.1058 156.085" stroke="black" stroke-width="2" stroke-linejoin="round"/>
</svg>
