<svg width="264" height="261" viewBox="0 0 264 261" fill="none" xmlns="http://www.w3.org/2000/svg">
<path d="M233.3 138.871C233.3 194.758 187.995 240.063 132.108 240.063C76.222 240.063 30.917 194.758 30.917 138.871C30.917 82.9847 76.222 37.6797 132.108 37.6797C187.995 37.6797 233.3 82.9847 233.3 138.871Z" fill="#F9F9F9" stroke="black" stroke-width="2" stroke-linecap="round" stroke-linejoin="round"/>
<path fill-rule="evenodd" clip-rule="evenodd" d="M132.777 1.69434C165.326 12.6665 186.69 57.8982 182.438 122.931C236.014 134.602 262.295 114.752 262.295 95.7246C262.295 130.166 226.062 164.954 162.762 181.646C168.373 236.296 195.468 255.101 213.56 249.155C180.789 259.927 136.339 236.278 100.686 181.171C50.3346 203.068 40.6244 234.573 51.7678 250.011C31.5997 222.071 40.6361 172.623 82.2445 122.013C46.0284 80.6331 13.0249 80.9657 1.70508 96.2906C22.1756 68.5773 72.0167 62.1281 132.88 86.3415C161.264 39.1424 150.844 7.78457 132.777 1.69434Z" fill="#F9F9F9" stroke="black" stroke-width="2" stroke-linecap="round" stroke-linejoin="round"/>
<path d="M158.969 138.871C158.969 153.706 146.943 165.732 132.108 165.732C117.274 165.732 105.248 153.706 105.248 138.871C105.248 124.037 117.274 112.011 132.108 112.011C146.943 112.011 158.969 124.037 158.969 138.871Z" fill="#F9F9F9" stroke="black" stroke-width="2" stroke-linecap="round" stroke-linejoin="round"/>
</svg>
