<svg width="252" height="251" viewBox="0 0 252 251" fill="none" xmlns="http://www.w3.org/2000/svg">
<path d="M196.429 146.417C193.881 148.782 191.287 150.762 188.656 152.276C168.799 163.707 145.735 164.582 126 156.645C120.829 154.566 115.887 151.881 111.29 148.623C99.9159 144.729 90.5881 136.443 85.3428 125.797C85.2522 125.613 85.1628 125.428 85.0746 125.243C80.9621 116.603 79.6421 106.76 81.5143 97.1991C82.4488 92.4271 84.1785 87.7254 86.7531 83.2789C89.3277 78.8325 92.5464 74.988 96.2238 71.7951C91.0961 74.135 86.2934 77.0606 81.9017 80.4861C65.1414 93.5591 54.3684 113.913 54.3684 136.775C54.3684 139.804 54.7908 143.034 55.5707 146.417C64.947 187.086 126 249.792 126 249.792C126 249.792 187.053 187.086 196.429 146.417Z" fill="#F9F9F9"/>
<path d="M134.976 28.5662C154.833 39.9974 167.124 59.4767 170.098 80.4862C170.878 85.9912 171.017 91.6013 170.486 97.1992C172.369 106.815 171.023 116.716 166.854 125.391C166.684 125.746 166.509 126.097 166.33 126.446C166.129 126.84 165.921 127.229 165.709 127.616C165.039 128.832 164.315 130.013 163.539 131.158C158.085 139.209 150.094 145.41 140.71 148.623C136.098 150.202 131.149 151.06 126 151.06C120.851 151.06 115.902 150.202 111.29 148.623C115.887 151.881 120.829 154.566 126 156.645C145.735 164.582 168.799 163.707 188.656 152.276C191.287 150.762 193.881 148.782 196.429 146.417C227.064 117.986 251 33.9129 251 33.9129C251 33.9129 166.011 12.5455 126 24.7834C129.328 25.8013 132.345 27.0517 134.976 28.5662Z" fill="#F9F9F9"/>
<path d="M170.098 80.4862C167.124 59.4767 154.833 39.9974 134.976 28.5662C132.345 27.0517 129.328 25.8013 126 24.7834C85.9889 12.5453 1 33.9128 1 33.9128C1 33.9128 24.9359 117.985 55.5707 146.417C54.7908 143.034 54.3684 139.804 54.3684 136.775C54.3684 113.913 65.1414 93.5591 81.9017 80.4861C86.2934 77.0606 91.0961 74.135 96.2238 71.7951C105.272 63.9393 117.096 60.0273 128.937 60.7966C129.171 60.8117 129.405 60.8288 129.639 60.8476C139.199 61.6161 148.408 65.398 155.776 71.7951C159.454 74.988 162.672 78.8325 165.247 83.2789C167.822 87.7254 169.551 92.4271 170.486 97.1992C171.017 91.6013 170.878 85.9912 170.098 80.4862Z" fill="#F9F9F9"/>
<path d="M126 24.7834C129.328 25.8013 132.345 27.0517 134.976 28.5662C154.833 39.9974 167.124 59.4767 170.098 80.4862C170.878 85.9912 171.017 91.6013 170.486 97.1991M126 24.7834C166.011 12.5455 251 33.9129 251 33.9129C251 33.9129 227.064 117.986 196.429 146.417M126 24.7834C85.9889 12.5453 1 33.9128 1 33.9128C1 33.9128 24.9359 117.985 55.5707 146.417M196.429 146.417C193.881 148.782 191.287 150.762 188.656 152.276C168.799 163.707 145.735 164.582 126 156.645C120.829 154.566 115.887 151.881 111.29 148.623M196.429 146.417C187.053 187.086 126 249.792 126 249.792C126 249.792 64.947 187.086 55.5707 146.417M55.5707 146.417C54.7908 143.034 54.3684 139.804 54.3684 136.775C54.3684 113.913 65.1414 93.5591 81.9018 80.4861C86.2934 77.0606 91.0961 74.135 96.2238 71.7951M166.854 125.391C169.685 119.496 171.271 112.892 171.271 105.92C171.271 103.008 170.995 100.16 170.466 97.4014M166.854 125.391C171.023 116.716 172.369 106.815 170.486 97.1991M166.854 125.391C166.684 125.746 166.509 126.097 166.33 126.446M166.854 125.391C166.684 125.745 166.51 126.097 166.33 126.446M170.466 97.4014C170.462 97.4418 170.458 97.4822 170.454 97.5226C169.516 92.5512 167.747 87.7478 165.206 83.3344M170.466 97.4014C169.502 92.3654 167.698 87.6263 165.206 83.3344M170.466 97.4014C170.473 97.334 170.479 97.2666 170.486 97.1991M165.206 83.3344C162.639 78.9141 159.342 74.9681 155.479 71.6604C155.516 71.6772 155.554 71.6941 155.591 71.711M165.206 83.3344C162.72 79.0178 159.497 75.0742 155.591 71.711M155.591 71.711C153.459 69.8753 151.124 68.2126 148.595 66.7565C142.589 63.2994 136.12 61.3701 129.639 60.8476M155.591 71.711C155.653 71.7389 155.714 71.767 155.776 71.7951M129.639 60.8476C129.405 60.8288 129.171 60.8117 128.937 60.7966M129.639 60.8476C139.199 61.6161 148.408 65.398 155.776 71.7951M128.937 60.7966C120.319 60.2378 111.446 62.1277 103.405 66.7565C100.876 68.2126 98.5411 69.8752 96.4093 71.7108M128.937 60.7966C117.096 60.0273 105.272 63.9393 96.2238 71.7951M96.4093 71.7108C96.4464 71.6939 96.4836 71.6772 96.5208 71.6604C92.6665 74.9608 89.3755 78.8967 86.8112 83.3051M96.4093 71.7108C92.5121 75.0664 89.2942 78.9999 86.8112 83.3051M96.4093 71.7108C96.3474 71.7388 96.2856 71.7669 96.2238 71.7951M86.8112 83.3051C84.2611 87.7266 82.4859 92.5402 81.5458 97.5227C81.5417 97.4822 81.5378 97.4416 81.5338 97.4011M86.8112 83.3051C84.3102 87.6047 82.5005 92.3538 81.5338 97.4011M81.5338 97.4011C81.0054 100.16 80.7288 103.007 80.7288 105.92C80.7288 112.834 82.2879 119.385 85.0746 125.243M81.5338 97.4011C81.5272 97.3338 81.5207 97.2665 81.5143 97.1991M85.0746 125.243C85.1628 125.428 85.2522 125.613 85.3428 125.796M85.0746 125.243C80.9621 116.603 79.6421 106.76 81.5143 97.1991M85.3428 125.796C89.1643 133.551 95.256 140.297 103.324 144.941C105.853 146.397 108.464 147.582 111.124 148.505M85.3428 125.796C90.5881 136.443 99.9159 144.729 111.29 148.623M111.124 148.505C111.091 148.482 111.058 148.458 111.025 148.434C115.813 150.11 120.871 150.984 125.977 150.996M111.124 148.505C115.982 150.191 121.001 151.003 125.977 150.996M111.124 148.505C111.18 148.545 111.235 148.584 111.29 148.623M125.977 150.996C131.098 150.989 136.172 150.115 140.975 148.434C140.942 148.458 140.909 148.482 140.875 148.505M125.977 150.996C130.967 151.008 136.003 150.196 140.875 148.505M140.875 148.505C143.536 147.582 146.147 146.397 148.676 144.941C154.82 141.405 159.818 136.649 163.539 131.158M140.875 148.505C140.82 148.545 140.765 148.584 140.709 148.623M163.539 131.158C164.315 130.013 165.039 128.832 165.709 127.616M163.539 131.158C158.085 139.209 150.094 145.41 140.709 148.623M163.539 131.158C164.319 130.008 165.042 128.826 165.709 127.616M111.29 148.623C115.902 150.202 120.851 151.06 126 151.06C131.149 151.06 136.098 150.202 140.709 148.623M81.5143 97.1991C82.4488 92.4271 84.1785 87.7254 86.7531 83.2789C89.3277 78.8325 92.5464 74.988 96.2238 71.7951M170.486 97.1991C169.551 92.4271 167.822 87.7254 165.247 83.2789C162.672 78.8325 159.454 74.988 155.776 71.7951M166.33 126.446C166.129 126.84 165.921 127.229 165.709 127.616M166.33 126.446C166.129 126.839 165.922 127.229 165.709 127.616" stroke="black" stroke-width="2" stroke-linejoin="round"/>
</svg>
