<svg width="252" height="251" viewBox="0 0 252 251" fill="none" xmlns="http://www.w3.org/2000/svg">
<path d="M109.964 180.317C102.419 175.965 97.6164 169.855 95.3085 162.893C95.3625 172.293 97.5996 181.568 101.813 189.948C106.965 200.195 115.071 209.103 125.755 215.265C125.836 215.312 125.918 215.358 126 215.404C155.406 231.975 251 217.28 251 217.28C251 217.28 215.942 127.233 186.874 110.078C186.875 110.172 186.875 110.266 186.875 110.36C186.875 122.682 183.205 134.15 176.898 143.731C187.101 162.665 188.264 181.097 188.264 181.097C188.264 181.097 171.703 189.307 150.187 189.948C142.574 190.175 134.34 189.453 126 187.086C120.653 185.567 115.263 183.373 109.964 180.317Z" fill="#F9F9F9"/>
<path d="M103.563 113.749C111.108 109.397 118.807 108.298 125.996 109.782C117.82 105.129 108.66 102.427 99.2888 101.882C87.8297 101.215 76.0535 103.774 65.3697 109.936C65.2887 109.983 65.2075 110.03 65.1264 110.078C61.5638 112.18 57.9113 115.378 54.2443 119.37C27.9911 147.952 1.00002 217.28 1.00002 217.28C1.00002 217.28 96.5939 231.975 126 215.404C125.918 215.358 125.836 215.312 125.755 215.265C115.071 209.103 106.965 200.195 101.813 189.948L101.782 189.947C80.2808 189.299 63.7361 181.097 63.7361 181.097C63.7361 181.097 64.899 162.665 75.1016 143.731C78.7118 137.031 83.4539 130.269 89.6767 124.237C93.6663 120.371 98.2644 116.805 103.563 113.749Z" fill="#F9F9F9"/>
<path d="M164.473 141.495C164.473 150.198 161.573 157.415 156.692 162.892C164.815 158.145 171.739 151.569 176.898 143.731C183.205 134.15 186.875 122.682 186.875 110.36C186.875 110.266 186.875 110.172 186.874 110.078C186.537 76.3531 126 0.999928 126 0.999928C126 0.999928 65.4634 76.353 65.1264 110.078C65.2075 110.03 65.2887 109.983 65.3697 109.936C76.0535 103.774 87.8297 101.215 99.2888 101.882L99.3052 101.855C110.617 83.5778 126 73.3656 126 73.3656C126 73.3656 141.398 83.5877 152.711 101.881C156.714 108.355 160.206 115.838 162.323 124.238C163.681 129.622 164.473 135.383 164.473 141.495Z" fill="#F9F9F9"/>
<path d="M156.692 162.892L125.996 109.782L95.3085 162.893L156.692 162.892Z" fill="#F9F9F9"/>
<path d="M95.3085 162.893C97.6164 169.855 102.419 175.965 109.964 180.317C115.262 183.373 120.653 185.567 126 187.086C134.34 189.453 142.574 190.175 150.187 189.948C171.703 189.307 188.264 181.097 188.264 181.097C188.264 181.097 187.101 162.665 176.898 143.731M95.3085 162.893C95.3625 172.293 97.5995 181.568 101.813 189.948M95.3085 162.893L125.996 109.782M95.3085 162.893L156.692 162.892M65.1249 110.36C65.1249 110.266 65.1254 110.172 65.1264 110.078M156.692 162.892C161.573 157.415 164.473 150.198 164.473 141.495C164.473 135.383 163.681 129.622 162.323 124.238C160.206 115.838 156.714 108.355 152.711 101.881C141.398 83.5877 126 73.3656 126 73.3656C126 73.3656 110.617 83.5778 99.3052 101.855M156.692 162.892C164.815 158.145 171.739 151.569 176.898 143.731M156.692 162.892L125.996 109.782M125.996 109.782C118.807 108.298 111.108 109.397 103.563 113.749C98.2644 116.805 93.6663 120.371 89.6767 124.237C83.4538 130.269 78.7118 137.031 75.1016 143.731C64.899 162.665 63.7361 181.097 63.7361 181.097C63.7361 181.097 80.2808 189.299 101.782 189.947M125.996 109.782C117.82 105.129 108.66 102.427 99.2888 101.882M186.63 109.936C186.711 109.983 186.793 110.03 186.874 110.078M126.245 215.265C126.164 215.311 126.082 215.358 126 215.404M186.874 110.078C186.875 110.172 186.875 110.266 186.875 110.36C186.875 122.682 183.205 134.15 176.898 143.731M186.874 110.078C215.942 127.233 251 217.28 251 217.28C251 217.28 155.406 231.975 126 215.404M186.874 110.078C186.537 76.3531 126 0.999928 126 0.999928C126 0.999928 65.4634 76.353 65.1264 110.078M126 215.404C125.918 215.358 125.836 215.312 125.755 215.265C115.071 209.103 106.965 200.195 101.813 189.948M126 215.404C96.5939 231.975 1.00002 217.28 1.00002 217.28C1.00002 217.28 27.9911 147.952 54.2443 119.37C57.9113 115.378 61.5638 112.18 65.1264 110.078M101.782 189.947C101.792 189.947 101.802 189.948 101.813 189.948M101.782 189.947L101.813 189.948M65.1264 110.078C65.2075 110.03 65.2887 109.983 65.3697 109.936C76.0535 103.774 87.8297 101.215 99.2888 101.882M99.3052 101.855C99.2997 101.864 99.2943 101.873 99.2888 101.882M99.3052 101.855L99.2888 101.882" stroke="black" stroke-width="2" stroke-linejoin="round"/>
<path d="M156.691 162.892L125.996 109.782L95.3084 162.893L156.691 162.892Z" fill="#F9F9F9" stroke="black" stroke-width="2" stroke-linecap="round" stroke-linejoin="round"/>
</svg>
