<svg width="252" height="252" viewBox="0 0 252 252" fill="none" xmlns="http://www.w3.org/2000/svg">
<path d="M105.332 146.568C92.7627 147.523 79.8677 143.194 70.2555 133.582C67.9066 131.233 65.8732 128.688 64.1553 126C59.9978 119.494 57.6882 112.148 57.2266 104.709C56.459 92.338 60.8019 79.7091 70.2555 70.2555C79.7091 60.802 92.338 56.459 104.709 57.2266C108.1 47.3437 113.738 38.0613 121.624 30.1753C122.925 28.8743 124.39 27.6312 126 26.4433C123.33 24.4732 120.259 22.6552 116.872 20.9775C78.8687 2.15281 1.00001 1 1.00001 1C1.00001 1 2.36739 93.3669 26.4433 126C27.6311 127.61 28.8743 129.075 30.1752 130.376C38.0612 138.262 47.3437 143.9 57.2266 147.291C72.8089 152.637 89.8839 152.396 105.332 146.568Z" fill="#F9F9F9"/>
<path d="M105.432 105.332C104.477 92.7628 108.806 79.8678 118.418 70.2556C120.767 67.9066 123.312 65.8732 126 64.1554C132.506 59.9978 139.852 57.6883 147.291 57.2267C159.662 56.459 172.291 60.802 181.744 70.2556C191.198 79.7091 195.541 92.338 194.773 104.709C204.656 108.1 213.939 113.738 221.825 121.624C223.126 122.925 224.369 124.39 225.557 126C227.527 123.33 229.345 120.259 231.023 116.872C249.847 78.8688 251 1.00007 251 1.00007C251 1.00007 158.633 2.36747 126 26.4433C124.39 27.6312 122.925 28.8743 121.624 30.1753C113.738 38.0613 108.1 47.3437 104.709 57.2266C99.3626 72.809 99.6036 89.884 105.432 105.332Z" fill="#F9F9F9"/>
<path d="M146.668 105.432C159.237 104.477 172.132 108.806 181.744 118.418C184.093 120.767 186.127 123.312 187.845 126C192.002 132.506 194.312 139.852 194.773 147.291C195.541 159.662 191.198 172.291 181.744 181.744C172.291 191.198 159.662 195.541 147.291 194.773C143.9 204.656 138.262 213.939 130.376 221.825C129.075 223.126 127.61 224.369 126 225.557C128.67 227.527 131.741 229.345 135.128 231.023C173.131 249.847 251 251 251 251C251 251 249.633 158.633 225.557 126C224.369 124.39 223.126 122.925 221.825 121.624C213.939 113.738 204.656 108.1 194.773 104.709C179.191 99.3626 162.116 99.6036 146.668 105.432Z" fill="#F9F9F9"/>
<path d="M146.568 146.668C147.523 159.237 143.194 172.132 133.582 181.745C131.233 184.093 128.688 186.127 126 187.845C119.494 192.002 112.148 194.312 104.709 194.773C92.338 195.541 79.7091 191.198 70.2555 181.745C60.8019 172.291 56.459 159.662 57.2266 147.291C47.3437 143.9 38.0612 138.262 30.1752 130.376C28.8743 129.075 27.6311 127.61 26.4433 126C2.36739 158.633 1 251 1 251C1 251 93.3669 249.633 126 225.557C125.995 225.553 125.99 225.549 125.985 225.546L126 225.557C127.61 224.369 129.075 223.126 130.376 221.825C138.262 213.939 143.9 204.656 147.291 194.773C152.637 179.191 152.396 162.116 146.568 146.668Z" fill="#F9F9F9"/>
<path d="M181.744 133.582C172.132 143.194 159.237 147.523 146.668 146.568C162.116 152.396 179.191 152.637 194.773 147.291C194.312 139.852 192.002 132.506 187.845 126C186.127 128.688 184.093 131.233 181.744 133.582Z" fill="#F9F9F9"/>
<path d="M118.418 181.744C108.806 172.132 104.477 159.237 105.432 146.668C99.6036 162.116 99.3626 179.191 104.709 194.773C112.148 194.312 119.494 192.002 126 187.845C123.312 186.127 120.767 184.093 118.418 181.744Z" fill="#F9F9F9"/>
<path d="M70.2555 118.418C79.8677 108.806 92.7628 104.477 105.332 105.432C89.8839 99.6036 72.8089 99.3627 57.2266 104.709C57.6882 112.148 59.9978 119.494 64.1553 126C65.8732 123.312 67.9066 120.767 70.2555 118.418Z" fill="#F9F9F9"/>
<path d="M133.582 70.2555C143.194 79.8678 147.523 92.7628 146.568 105.332C152.396 89.884 152.637 72.809 147.291 57.2267C139.852 57.6883 132.506 59.9978 126 64.1554C128.688 65.8732 131.233 67.9066 133.582 70.2555Z" fill="#F9F9F9"/>
<path d="M126 187.845C128.688 186.127 131.233 184.093 133.582 181.745C143.194 172.132 147.523 159.237 146.568 146.668C152.396 162.116 152.637 179.191 147.291 194.773M126 187.845C123.312 186.127 120.767 184.093 118.418 181.744C108.806 172.132 104.477 159.237 105.432 146.668C99.6036 162.116 99.3626 179.191 104.709 194.773M126 187.845C119.494 192.002 112.148 194.312 104.709 194.773M147.291 194.773C159.662 195.541 172.291 191.198 181.744 181.744C191.198 172.291 195.541 159.662 194.773 147.291M147.291 194.773C143.9 204.656 138.262 213.939 130.376 221.825C129.075 223.126 127.61 224.369 126 225.557M194.773 147.291C179.191 152.637 162.116 152.396 146.668 146.568C159.237 147.523 172.132 143.194 181.744 133.582C184.093 131.233 186.127 128.688 187.845 126M194.773 147.291C194.312 139.852 192.002 132.506 187.845 126M187.845 126C186.127 123.312 184.093 120.767 181.744 118.418C172.132 108.806 159.237 104.477 146.668 105.432C162.116 99.6036 179.191 99.3626 194.773 104.709M194.773 104.709C195.541 92.338 191.198 79.7091 181.744 70.2556C172.291 60.802 159.662 56.459 147.291 57.2267M194.773 104.709C204.656 108.1 213.939 113.738 221.825 121.624C223.126 122.925 224.369 124.39 225.557 126M147.291 57.2267C152.637 72.809 152.396 89.884 146.568 105.332C147.523 92.7628 143.194 79.8678 133.582 70.2555C131.233 67.9066 128.688 65.8732 126 64.1554M147.291 57.2267C139.852 57.6883 132.506 59.9978 126 64.1554M126 64.1554C123.312 65.8732 120.767 67.9066 118.418 70.2556C108.806 79.8678 104.477 92.7628 105.432 105.332C99.6036 89.884 99.3626 72.809 104.709 57.2266M104.709 57.2266C92.338 56.459 79.7091 60.802 70.2555 70.2555C60.8019 79.7091 56.459 92.338 57.2266 104.709M104.709 57.2266C108.1 47.3437 113.738 38.0613 121.624 30.1753C122.925 28.8743 124.39 27.6312 126 26.4433M57.2266 104.709C72.8089 99.3627 89.8839 99.6036 105.332 105.432C92.7628 104.477 79.8677 108.806 70.2555 118.418C67.9066 120.767 65.8732 123.312 64.1553 126M57.2266 104.709C57.6882 112.148 59.9978 119.494 64.1553 126M64.1553 126C65.8732 128.688 67.9066 131.233 70.2555 133.582C79.8677 143.194 92.7627 147.523 105.332 146.568C89.8839 152.396 72.8089 152.637 57.2266 147.291M57.2266 147.291C56.459 159.662 60.8019 172.291 70.2555 181.745C79.7091 191.198 92.338 195.541 104.709 194.773M57.2266 147.291C47.3437 143.9 38.0612 138.262 30.1752 130.376C28.8743 129.075 27.6311 127.61 26.4433 126M26.4433 126C2.36739 93.3669 1.00001 1 1.00001 1C1.00001 1 78.8687 2.15281 116.872 20.9775C120.259 22.6552 123.33 24.4732 126 26.4433M26.4433 126C2.36739 158.633 1 251 1 251C1 251 93.3669 249.633 126 225.557M126 26.4433C158.633 2.36747 251 1.00007 251 1.00007C251 1.00007 249.847 78.8688 231.023 116.872C229.345 120.259 227.527 123.33 225.557 126M225.557 126C249.633 158.633 251 251 251 251C251 251 173.131 249.847 135.128 231.023M135.128 231.023C131.741 229.345 128.67 227.527 126 225.557M135.128 231.023C131.734 229.342 128.659 227.52 125.985 225.546M126 225.557L125.985 225.546M126 225.557C125.995 225.553 125.99 225.549 125.985 225.546" stroke="black" stroke-width="2" stroke-linejoin="round"/>
<path d="M105.432 105.332C104.477 92.7628 108.806 79.8678 118.418 70.2556C120.767 67.9066 123.312 65.8732 126 64.1554C132.506 59.9978 139.852 57.6883 147.291 57.2267C159.662 56.459 172.291 60.802 181.744 70.2556C191.198 79.7091 195.541 92.338 194.773 104.709C204.656 108.1 213.939 113.738 221.825 121.624C223.126 122.925 224.369 124.39 225.557 126C227.527 123.33 229.345 120.259 231.023 116.872C249.847 78.8688 251 1.00007 251 1.00007C251 1.00007 158.633 2.36747 126 26.4433C124.39 27.6312 122.925 28.8743 121.624 30.1753C113.738 38.0613 108.1 47.3437 104.709 57.2266C99.3626 72.809 99.6036 89.884 105.432 105.332Z" fill="#F9F9F9"/>
<path d="M146.568 146.668C147.523 159.237 143.194 172.132 133.582 181.745C131.233 184.093 128.688 186.127 126 187.845C119.494 192.002 112.148 194.312 104.709 194.773C92.338 195.541 79.7091 191.198 70.2555 181.745C60.8019 172.291 56.459 159.662 57.2266 147.291C47.3437 143.9 38.0612 138.262 30.1752 130.376C28.8743 129.075 27.6311 127.61 26.4433 126C2.36739 158.633 1 251 1 251C1 251 93.3669 249.633 126 225.557C125.995 225.553 125.99 225.549 125.985 225.546L126 225.557C127.61 224.369 129.075 223.126 130.376 221.825C138.262 213.939 143.9 204.656 147.291 194.773C152.637 179.191 152.396 162.116 146.568 146.668Z" fill="#F9F9F9"/>
<path d="M181.744 133.582C172.132 143.194 159.237 147.523 146.668 146.568C162.116 152.396 179.191 152.637 194.773 147.291C194.312 139.852 192.002 132.506 187.845 126C186.127 128.688 184.093 131.233 181.744 133.582Z" fill="#F9F9F9"/>
<path d="M70.2555 118.418C79.8677 108.806 92.7628 104.477 105.332 105.432C89.8839 99.6036 72.8089 99.3627 57.2266 104.709C57.6882 112.148 59.9978 119.494 64.1553 126C65.8732 123.312 67.9066 120.767 70.2555 118.418Z" fill="#F9F9F9"/>
<path d="M126 225.557C127.61 224.369 129.075 223.126 130.376 221.825C138.262 213.939 143.9 204.656 147.291 194.773C152.637 179.191 152.396 162.116 146.568 146.668C147.523 159.237 143.194 172.132 133.582 181.745C131.233 184.093 128.688 186.127 126 187.845C119.494 192.002 112.148 194.312 104.709 194.773C92.338 195.541 79.7091 191.198 70.2555 181.745C60.8019 172.291 56.459 159.662 57.2266 147.291C47.3437 143.9 38.0612 138.262 30.1752 130.376C28.8743 129.075 27.6311 127.61 26.4433 126C2.36739 158.633 1 251 1 251C1 251 93.3669 249.633 126 225.557ZM126 225.557L125.985 225.546C125.99 225.549 125.995 225.553 126 225.557ZM105.332 105.432C92.7628 104.477 79.8677 108.806 70.2555 118.418C67.9066 120.767 65.8732 123.312 64.1553 126C59.9978 119.494 57.6882 112.148 57.2266 104.709C72.8089 99.3627 89.8839 99.6036 105.332 105.432ZM118.418 70.2556C108.806 79.8678 104.477 92.7628 105.432 105.332C99.6036 89.884 99.3626 72.809 104.709 57.2266C108.1 47.3437 113.738 38.0613 121.624 30.1753C122.925 28.8743 124.39 27.6312 126 26.4433C158.633 2.36747 251 1.00007 251 1.00007C251 1.00007 249.847 78.8688 231.023 116.872C229.345 120.259 227.527 123.33 225.557 126C224.369 124.39 223.126 122.925 221.825 121.624C213.939 113.738 204.656 108.1 194.773 104.709C195.541 92.338 191.198 79.7091 181.744 70.2556C172.291 60.802 159.662 56.459 147.291 57.2267C139.852 57.6883 132.506 59.9978 126 64.1554C123.312 65.8732 120.767 67.9066 118.418 70.2556ZM146.668 146.568C159.237 147.523 172.132 143.194 181.744 133.582C184.093 131.233 186.127 128.688 187.845 126C192.002 132.506 194.312 139.852 194.773 147.291C179.191 152.637 162.116 152.396 146.668 146.568Z" stroke="black" stroke-width="2" stroke-linecap="round" stroke-linejoin="round"/>
</svg>
