<svg width="252" height="252" viewBox="0 0 252 252" fill="none" xmlns="http://www.w3.org/2000/svg">
<path d="M228.67 79.2672C228.67 100.401 211.5 117.533 190.32 117.533C176.171 117.533 163.812 109.887 157.166 98.5107C153.863 92.8574 151.971 86.2828 151.971 79.2672C151.971 67.6506 157.159 57.2429 165.348 50.225C144.292 59.7244 129.641 80.8668 129.641 105.424C129.641 108.301 130.09 111.392 130.911 114.639C132.182 119.667 134.345 125.068 137.112 130.628C140.367 129.809 143.465 129.361 146.348 129.361C170.959 129.361 192.147 143.98 201.667 164.99C194.634 156.818 184.204 151.642 172.562 151.642C165.531 151.642 158.942 153.53 153.276 156.825C170.314 180.667 190.32 201.23 190.32 201.23C190.32 201.23 251 138.863 251 105.424C251 80.8668 236.349 59.7244 215.292 50.225C223.482 57.2429 228.67 67.6506 228.67 79.2672Z" fill="#F9F9F9"/>
<path d="M129.641 105.424C129.641 80.8668 144.292 59.7244 165.348 50.225C157.159 57.2429 151.971 67.6506 151.971 79.2672C151.971 86.2828 153.863 92.8574 157.166 98.5107C181.06 81.5103 201.667 61.5474 201.667 61.5474C201.667 61.5474 139.164 1 105.652 1C81.0412 1 59.8526 15.6195 50.3325 36.6298C57.3657 28.4578 67.7961 23.2814 79.4381 23.2814C100.618 23.2814 117.788 40.4137 117.788 61.5474C117.788 75.6656 110.125 87.9979 98.7236 94.6299C93.0579 97.9255 86.469 99.8134 79.4381 99.8134C67.7961 99.8134 57.3657 94.637 50.3325 86.465C59.8526 107.475 81.0412 122.095 105.652 122.095C108.535 122.095 111.633 121.647 114.888 120.827C119.926 119.559 125.339 117.401 130.911 114.639C130.09 111.392 129.641 108.301 129.641 105.424Z" fill="#F9F9F9"/>
<path d="M23.3301 172.188C23.3301 151.054 40.4998 133.922 61.6796 133.922C75.8286 133.922 88.1879 141.568 94.8343 152.945C98.1371 158.598 100.029 165.173 100.029 172.188C100.029 183.805 94.8415 194.212 86.6517 201.23C107.708 191.731 122.359 170.589 122.359 146.032C122.359 143.154 121.91 140.063 121.089 136.816C119.818 131.788 117.655 126.387 114.888 120.827C111.633 121.647 108.535 122.095 105.652 122.095C81.0412 122.095 59.8526 107.475 50.3325 86.465C57.3657 94.637 67.7961 99.8134 79.4381 99.8134C86.469 99.8134 93.0579 97.9255 98.7236 94.6299C81.6861 70.7879 61.6796 50.225 61.6796 50.225C61.6796 50.225 1 112.592 1 146.032C1 170.589 15.6514 191.731 36.7076 201.23C28.5178 194.212 23.3301 183.805 23.3301 172.188Z" fill="#F9F9F9"/>
<path d="M172.562 228.174C151.382 228.174 134.212 211.042 134.212 189.908C134.212 175.79 141.875 163.457 153.276 156.825C158.942 153.53 165.531 151.642 172.562 151.642C184.204 151.642 194.634 156.818 201.667 164.99C192.147 143.98 170.959 129.361 146.348 129.361C143.465 129.361 140.367 129.809 137.112 130.628C132.074 131.897 126.661 134.055 121.089 136.816C121.91 140.063 122.359 143.154 122.359 146.032C122.359 170.589 107.708 191.731 86.6517 201.23C94.8415 194.212 100.029 183.805 100.029 172.188C100.029 165.173 98.1371 158.598 94.8343 152.945C70.9403 169.945 50.3325 189.908 50.3325 189.908C50.3325 189.908 112.836 250.455 146.348 250.455C170.959 250.455 192.147 235.836 201.667 214.826C194.634 222.998 184.204 228.174 172.562 228.174Z" fill="#F9F9F9"/>
<path d="M157.166 98.5107C153.863 92.8574 151.971 86.2828 151.971 79.2672C151.971 67.6506 157.159 57.2429 165.348 50.225C144.292 59.7244 129.641 80.8668 129.641 105.424C129.641 108.301 130.09 111.392 130.911 114.639M157.166 98.5107C181.06 81.5103 201.667 61.5474 201.667 61.5474C201.667 61.5474 139.164 1 105.652 1C81.0412 1 59.8526 15.6195 50.3325 36.6298C57.3657 28.4578 67.7961 23.2814 79.4381 23.2814C100.618 23.2814 117.788 40.4137 117.788 61.5474C117.788 75.6656 110.125 87.9979 98.7236 94.6299M157.166 98.5107C163.812 109.887 176.171 117.533 190.32 117.533C211.5 117.533 228.67 100.401 228.67 79.2672C228.67 67.6506 223.482 57.2429 215.292 50.225C236.349 59.7244 251 80.8668 251 105.424C251 138.863 190.32 201.23 190.32 201.23C190.32 201.23 170.314 180.667 153.276 156.825M130.911 114.639C132.182 119.667 134.345 125.068 137.112 130.628M130.911 114.639C125.339 117.401 119.926 119.559 114.888 120.827M121.089 136.816C126.661 134.055 132.074 131.897 137.112 130.628M121.089 136.816C119.818 131.788 117.655 126.387 114.888 120.827M121.089 136.816C121.91 140.063 122.359 143.154 122.359 146.032C122.359 170.589 107.708 191.731 86.6517 201.23C94.8415 194.212 100.029 183.805 100.029 172.188C100.029 165.173 98.1371 158.598 94.8343 152.945M137.112 130.628C140.367 129.809 143.465 129.361 146.348 129.361C170.959 129.361 192.147 143.98 201.667 164.99C194.634 156.818 184.204 151.642 172.562 151.642C165.531 151.642 158.942 153.53 153.276 156.825M114.888 120.827C111.633 121.647 108.535 122.095 105.652 122.095C81.0412 122.095 59.8526 107.475 50.3325 86.465C57.3657 94.637 67.7961 99.8134 79.4381 99.8134C86.469 99.8134 93.0579 97.9255 98.7236 94.6299M98.7236 94.6299C81.6861 70.7879 61.6796 50.225 61.6796 50.225C61.6796 50.225 1 112.592 1 146.032C1 170.589 15.6514 191.731 36.7076 201.23C28.5178 194.212 23.3301 183.805 23.3301 172.188C23.3301 151.054 40.4998 133.922 61.6796 133.922C75.8286 133.922 88.1879 141.568 94.8343 152.945M94.8343 152.945C70.9403 169.945 50.3325 189.908 50.3325 189.908C50.3325 189.908 112.836 250.455 146.348 250.455C170.959 250.455 192.147 235.836 201.667 214.826C194.634 222.998 184.204 228.174 172.562 228.174C151.382 228.174 134.212 211.042 134.212 189.908C134.212 175.79 141.875 163.457 153.276 156.825" stroke="black" stroke-width="2" stroke-linejoin="round"/>
<path d="M228.67 79.2668C228.67 100.4 211.5 117.533 190.32 117.533C176.171 117.533 163.812 109.887 157.166 98.5103C153.863 92.8569 151.971 86.2824 151.971 79.2668C151.971 67.6501 157.159 57.2425 165.348 50.2246C144.292 59.7239 129.641 80.8664 129.641 105.423C129.641 108.301 130.09 111.392 130.911 114.639C132.182 119.667 134.345 125.068 137.112 130.628C140.367 129.808 143.465 129.36 146.348 129.36C170.959 129.36 192.147 143.98 201.667 164.99C194.634 156.818 184.204 151.642 172.562 151.642C165.531 151.642 158.942 153.529 153.276 156.825C170.314 180.667 190.32 201.23 190.32 201.23C190.32 201.23 251 138.863 251 105.423C251 80.8664 236.349 59.7239 215.292 50.2246C223.482 57.2425 228.67 67.6501 228.67 79.2668Z" fill="#F9F9F9"/>
<path d="M23.3301 172.188C23.3301 151.054 40.4998 133.922 61.6796 133.922C75.8286 133.922 88.1879 141.567 94.8343 152.944C98.1371 158.598 100.029 165.172 100.029 172.188C100.029 183.804 94.8415 194.212 86.6517 201.23C107.708 191.731 122.359 170.588 122.359 146.031C122.359 143.154 121.91 140.063 121.089 136.815C119.818 131.788 117.655 126.386 114.888 120.827C111.633 121.646 108.535 122.094 105.652 122.094C81.0412 122.094 59.8526 107.475 50.3325 86.4646C57.3657 94.6366 67.7961 99.8129 79.4381 99.8129C86.469 99.8129 93.0579 97.925 98.7236 94.6295C81.6861 70.7875 61.6796 50.2246 61.6796 50.2246C61.6796 50.2246 1 112.592 1 146.031C1 170.588 15.6514 191.731 36.7076 201.23C28.5178 194.212 23.3301 183.804 23.3301 172.188Z" fill="#F9F9F9"/>
<path d="M228.67 79.2668C228.67 100.4 211.5 117.533 190.32 117.533C176.171 117.533 163.812 109.887 157.166 98.5103C153.863 92.8569 151.971 86.2824 151.971 79.2668C151.971 67.6501 157.159 57.2425 165.348 50.2246C144.292 59.7239 129.641 80.8664 129.641 105.423C129.641 108.301 130.09 111.392 130.911 114.639C132.182 119.667 134.345 125.068 137.112 130.628C140.367 129.808 143.465 129.36 146.348 129.36C170.959 129.36 192.147 143.98 201.667 164.99C194.634 156.818 184.204 151.642 172.562 151.642C165.531 151.642 158.942 153.529 153.276 156.825C170.314 180.667 190.32 201.23 190.32 201.23C190.32 201.23 251 138.863 251 105.423C251 80.8664 236.349 59.7239 215.292 50.2246C223.482 57.2425 228.67 67.6501 228.67 79.2668Z" stroke="black" stroke-width="2" stroke-linecap="round" stroke-linejoin="round"/>
<path d="M23.3301 172.188C23.3301 151.054 40.4998 133.922 61.6796 133.922C75.8286 133.922 88.1879 141.567 94.8343 152.944C98.1371 158.598 100.029 165.172 100.029 172.188C100.029 183.804 94.8415 194.212 86.6517 201.23C107.708 191.731 122.359 170.588 122.359 146.031C122.359 143.154 121.91 140.063 121.089 136.815C119.818 131.788 117.655 126.386 114.888 120.827C111.633 121.646 108.535 122.094 105.652 122.094C81.0412 122.094 59.8526 107.475 50.3325 86.4646C57.3657 94.6366 67.7961 99.8129 79.4381 99.8129C86.469 99.8129 93.0579 97.925 98.7236 94.6295C81.6861 70.7875 61.6796 50.2246 61.6796 50.2246C61.6796 50.2246 1 112.592 1 146.031C1 170.588 15.6514 191.731 36.7076 201.23C28.5178 194.212 23.3301 183.804 23.3301 172.188Z" stroke="black" stroke-width="2" stroke-linecap="round" stroke-linejoin="round"/>
</svg>
