<svg width="252" height="252" viewBox="0 0 252 252" fill="none" xmlns="http://www.w3.org/2000/svg">
<path d="M126 1C92.3897 1 65.1431 28.2465 65.1431 61.8569C65.1431 62.9905 65.1741 64.1169 65.2353 65.2353C65.7643 74.9023 68.5493 83.9685 73.073 91.9164C83.0089 109.373 101.332 121.435 122.559 122.618L122.553 122.553C105.138 120.923 91.277 107.062 89.6464 89.6464C89.5402 88.5118 89.4859 87.362 89.4859 86.1996C89.4859 81.5726 90.3465 77.1466 91.9164 73.0729C97.1888 59.3922 110.461 49.6855 126 49.6855C141.539 49.6855 154.811 59.3922 160.084 73.073C168.031 68.5493 177.098 65.7643 186.765 65.2353C186.826 64.1169 186.857 62.9905 186.857 61.8569C186.857 28.2465 159.61 1 126 1Z" fill="#F9F9F9"/>
<path d="M251 126C251 92.3897 223.753 65.1431 190.143 65.1431C189.009 65.1431 187.883 65.1741 186.765 65.2353C177.098 65.7643 168.031 68.5493 160.084 73.073C142.627 83.0089 130.565 101.332 129.382 122.559L129.447 122.553C131.077 105.138 144.939 91.277 162.354 89.6464C163.488 89.5402 164.638 89.4859 165.8 89.4859C170.427 89.4859 174.853 90.3465 178.927 91.9165C192.608 97.1888 202.314 110.461 202.314 126C202.314 141.539 192.608 154.811 178.927 160.084C183.451 168.031 186.236 177.098 186.765 186.765C187.883 186.826 189.009 186.857 190.143 186.857C223.753 186.857 251 159.61 251 126Z" fill="#F9F9F9"/>
<path d="M126 251C159.61 251 186.857 223.753 186.857 190.143C186.857 189.009 186.826 187.883 186.765 186.765C186.236 177.098 183.451 168.031 178.927 160.084C168.991 142.627 150.668 130.565 129.441 129.382L129.447 129.447C146.862 131.077 160.723 144.939 162.354 162.354C162.46 163.488 162.514 164.638 162.514 165.8C162.514 170.427 161.653 174.853 160.084 178.927C154.811 192.608 141.539 202.314 126 202.314C110.461 202.314 97.1887 192.608 91.9164 178.927C83.9685 183.451 74.9023 186.236 65.2353 186.765C65.1741 187.883 65.1431 189.009 65.1431 190.143C65.1431 223.753 92.3897 251 126 251Z" fill="#F9F9F9"/>
<path d="M1 126C1 159.61 28.2465 186.857 61.8569 186.857C62.9905 186.857 64.1169 186.826 65.2353 186.765C74.9023 186.236 83.9685 183.451 91.9164 178.927C109.373 168.991 121.435 150.668 122.618 129.441L122.553 129.447C120.923 146.862 107.062 160.723 89.6464 162.354C88.5118 162.46 87.362 162.514 86.1996 162.514C81.5725 162.514 77.1465 161.653 73.0728 160.084C59.3921 154.811 49.6855 141.539 49.6855 126C49.6855 110.875 58.8812 97.8985 71.9867 92.3553C72.3459 92.2034 72.708 92.0571 73.073 91.9164C68.5493 83.9685 65.7643 74.9023 65.2353 65.2353C64.1169 65.1741 62.9905 65.1431 61.8569 65.1431C28.2465 65.1431 1 92.3897 1 126Z" fill="#F9F9F9"/>
<path d="M126 129.286C127.155 129.286 128.302 129.318 129.441 129.382M126 129.286C124.845 129.286 123.698 129.318 122.559 129.382M126 129.286C127.14 129.286 128.268 129.339 129.382 129.441M126 129.286C124.86 129.286 123.732 129.339 122.618 129.441M122.714 126C122.714 124.845 122.682 123.698 122.618 122.559M122.714 126C122.714 127.14 122.661 128.268 122.559 129.382M122.714 126C122.714 124.86 122.661 123.732 122.559 122.618M122.714 126C122.714 127.155 122.682 128.302 122.618 129.441M126 122.714C127.155 122.714 128.302 122.682 129.441 122.618M126 122.714C124.86 122.714 123.732 122.661 122.618 122.559M126 122.714C127.14 122.714 128.268 122.661 129.382 122.559M126 122.714C124.845 122.714 123.698 122.682 122.559 122.618M129.286 126C129.286 124.86 129.339 123.732 129.441 122.618M129.286 126C129.286 127.14 129.339 128.268 129.441 129.382M129.286 126C129.286 124.845 129.318 123.698 129.382 122.559M129.286 126C129.286 127.155 129.318 128.302 129.382 129.441M186.765 65.2353C177.098 65.7643 168.031 68.5493 160.084 73.073M186.765 65.2353C187.883 65.1741 189.009 65.1431 190.143 65.1431C223.753 65.1431 251 92.3897 251 126C251 159.61 223.753 186.857 190.143 186.857C189.009 186.857 187.883 186.826 186.765 186.765M186.765 65.2353C186.826 64.1169 186.857 62.9905 186.857 61.8569C186.857 28.2465 159.61 1 126 1C92.3897 1 65.1431 28.2465 65.1431 61.8569C65.1431 62.9905 65.1741 64.1169 65.2353 65.2353M160.084 73.073C154.811 59.3922 141.539 49.6855 126 49.6855C110.461 49.6855 97.1888 59.3922 91.9164 73.0729C90.3465 77.1466 89.4859 81.5726 89.4859 86.1996C89.4859 87.362 89.5402 88.5118 89.6464 89.6464C91.277 107.062 105.138 120.923 122.553 122.553M160.084 73.073C142.627 83.0089 130.565 101.332 129.382 122.559M65.2353 65.2353C64.1169 65.1741 62.9905 65.1431 61.8569 65.1431C28.2465 65.1431 1 92.3897 1 126C1 159.61 28.2465 186.857 61.8569 186.857C62.9905 186.857 64.1169 186.826 65.2353 186.765M65.2353 65.2353C65.7643 74.9023 68.5493 83.9685 73.073 91.9164M186.765 186.765C186.236 177.098 183.451 168.031 178.927 160.084M186.765 186.765C186.826 187.883 186.857 189.009 186.857 190.143C186.857 223.753 159.61 251 126 251C92.3897 251 65.1431 223.753 65.1431 190.143C65.1431 189.009 65.1741 187.883 65.2353 186.765M178.927 160.084C192.608 154.811 202.314 141.539 202.314 126C202.314 110.461 192.608 97.1888 178.927 91.9165C174.853 90.3465 170.427 89.4859 165.8 89.4859C164.638 89.4859 163.488 89.5402 162.354 89.6464C144.938 91.277 131.077 105.138 129.447 122.553M178.927 160.084C168.991 142.627 150.668 130.565 129.441 129.382M65.2353 186.765C74.9023 186.236 83.9685 183.451 91.9164 178.927M91.9164 178.927C97.1887 192.608 110.461 202.314 126 202.314C141.539 202.314 154.811 192.608 160.084 178.927C161.653 174.853 162.514 170.427 162.514 165.8C162.514 164.638 162.46 163.488 162.354 162.354C160.723 144.938 146.862 131.077 129.447 129.447M91.9164 178.927C109.373 168.991 121.435 150.668 122.618 129.441M73.073 91.9164C72.708 92.0571 72.3459 92.2034 71.9867 92.3553C58.8812 97.8985 49.6855 110.875 49.6855 126C49.6855 141.539 59.3921 154.811 73.0728 160.084C77.1465 161.653 81.5725 162.514 86.1996 162.514C87.362 162.514 88.5118 162.46 89.6464 162.354C107.062 160.723 120.923 146.862 122.553 129.447M73.073 91.9164C83.0089 109.373 101.332 121.435 122.559 122.618M129.441 122.618C129.443 122.596 129.445 122.575 129.447 122.553M129.441 122.618L129.447 122.553M129.441 129.382C129.443 129.404 129.445 129.425 129.447 129.447M129.441 129.382L129.447 129.447M122.618 122.559C122.596 122.557 122.575 122.555 122.553 122.553M122.618 122.559L122.553 122.553M129.382 122.559C129.404 122.557 129.425 122.555 129.447 122.553M129.382 122.559L129.447 122.553M122.559 129.382C122.557 129.404 122.555 129.425 122.553 129.447M122.559 129.382L122.553 129.447M122.559 122.618C122.557 122.596 122.555 122.575 122.553 122.553M122.559 122.618L122.553 122.553M129.382 129.441C129.404 129.443 129.425 129.445 129.447 129.447M129.382 129.441L129.447 129.447M122.618 129.441C122.596 129.443 122.575 129.445 122.553 129.447M122.618 129.441L122.553 129.447" stroke="black" stroke-width="2" stroke-linejoin="round"/>
<path d="M251 125.999C251 92.3891 223.753 65.1426 190.143 65.1426C189.009 65.1426 187.883 65.1736 186.765 65.2348C177.098 65.7637 168.031 68.5488 160.084 73.0725C142.627 83.0083 130.565 101.332 129.382 122.559L129.447 122.553C131.077 105.138 144.939 91.2764 162.354 89.6459C163.488 89.5396 164.638 89.4853 165.8 89.4853C170.427 89.4853 174.853 90.346 178.927 91.9159C192.608 97.1883 202.314 110.46 202.314 125.999C202.314 141.539 192.608 154.811 178.927 160.083C183.451 168.031 186.236 177.097 186.765 186.764C187.883 186.825 189.009 186.856 190.143 186.856C223.753 186.856 251 159.61 251 125.999Z" fill="#F9F9F9"/>
<path d="M1 125.999C1 159.61 28.2465 186.856 61.8569 186.856C62.9905 186.856 64.1169 186.825 65.2353 186.764C74.9023 186.235 83.9685 183.45 91.9164 178.926C109.373 168.991 121.435 150.667 122.618 129.44L122.553 129.446C120.923 146.861 107.062 160.722 89.6464 162.353C88.5118 162.459 87.362 162.514 86.1996 162.514C81.5725 162.514 77.1465 161.653 73.0728 160.083C59.3921 154.811 49.6855 141.539 49.6855 125.999C49.6855 110.875 58.8812 97.8979 71.9867 92.3548C72.3459 92.2028 72.708 92.0565 73.073 91.9158C68.5493 83.968 65.7643 74.9018 65.2353 65.2348C64.1169 65.1736 62.9905 65.1426 61.8569 65.1426C28.2465 65.1426 1 92.3891 1 125.999Z" fill="#F9F9F9"/>
<path d="M251 125.999C251 92.3891 223.753 65.1426 190.143 65.1426C189.009 65.1426 187.883 65.1736 186.765 65.2348C177.098 65.7637 168.031 68.5488 160.084 73.0725C142.627 83.0083 130.565 101.332 129.382 122.559L129.447 122.553C131.077 105.138 144.939 91.2764 162.354 89.6459C163.488 89.5396 164.638 89.4853 165.8 89.4853C170.427 89.4853 174.853 90.346 178.927 91.9159C192.608 97.1883 202.314 110.46 202.314 125.999C202.314 141.539 192.608 154.811 178.927 160.083C183.451 168.031 186.236 177.097 186.765 186.764C187.883 186.825 189.009 186.856 190.143 186.856C223.753 186.856 251 159.61 251 125.999Z" stroke="black" stroke-width="2" stroke-linecap="round" stroke-linejoin="round"/>
<path d="M1 125.999C1 159.61 28.2465 186.856 61.8569 186.856C62.9905 186.856 64.1169 186.825 65.2353 186.764C74.9023 186.235 83.9685 183.45 91.9164 178.926C109.373 168.991 121.435 150.667 122.618 129.44L122.553 129.446C120.923 146.861 107.062 160.722 89.6464 162.353C88.5118 162.459 87.362 162.514 86.1996 162.514C81.5725 162.514 77.1465 161.653 73.0728 160.083C59.3921 154.811 49.6855 141.539 49.6855 125.999C49.6855 110.875 58.8812 97.8979 71.9867 92.3548C72.3459 92.2028 72.708 92.0565 73.073 91.9158C68.5493 83.968 65.7643 74.9018 65.2353 65.2348C64.1169 65.1736 62.9905 65.1426 61.8569 65.1426C28.2465 65.1426 1 92.3891 1 125.999Z" stroke="black" stroke-width="2" stroke-linecap="round" stroke-linejoin="round"/>
</svg>
