<svg width="252" height="252" viewBox="0 0 252 252" fill="none" xmlns="http://www.w3.org/2000/svg">
<path d="M82.5399 25.2718C102.647 25.2718 118.948 41.5722 118.948 61.6796C118.948 72.9441 113.832 83.0137 105.797 89.692C114.117 98.4996 119.829 109.798 121.696 122.35L121.791 122.349C124.456 122.299 127.079 122.078 129.65 121.696C142.202 119.829 153.5 114.117 162.308 105.797C174.018 94.7347 181.326 79.0606 181.326 61.6796C181.326 28.1672 154.159 1.00001 120.646 1C99.9199 0.999995 81.6204 11.3917 70.674 27.2493C74.3933 25.9677 78.3853 25.2718 82.5399 25.2718Z" fill="#F9F9F9"/>
<path d="M25.2718 169.46C25.2718 149.353 41.5722 133.052 61.6796 133.052C72.9441 133.052 83.0138 138.168 89.6921 146.203C98.4996 137.883 109.798 132.171 122.35 130.304C122.35 130.272 122.349 130.241 122.349 130.209C122.299 127.544 122.078 124.921 121.696 122.35C119.829 109.798 114.117 98.4996 105.797 89.692C94.7346 77.9816 79.0606 70.6739 61.6797 70.6739C28.1673 70.6739 1.00004 97.841 1 131.353C0.999977 152.08 11.3917 170.38 27.2492 181.326C25.9677 177.607 25.2718 173.615 25.2718 169.46Z" fill="#F9F9F9"/>
<path d="M169.46 226.728C149.353 226.728 133.052 210.428 133.052 190.32C133.052 179.056 138.168 168.986 146.203 162.308C137.883 153.5 132.171 142.202 130.304 129.65C127.606 129.695 124.951 129.917 122.35 130.304C109.798 132.171 98.4996 137.883 89.6921 146.203C77.9816 157.265 70.674 172.939 70.674 190.32C70.674 223.833 97.8411 251 131.354 251C152.08 251 170.38 240.608 181.326 224.751C177.607 226.032 173.615 226.728 169.46 226.728Z" fill="#F9F9F9"/>
<path d="M226.728 82.54C226.728 102.647 210.428 118.948 190.32 118.948C179.056 118.948 168.986 113.832 162.308 105.797C153.5 114.117 142.202 119.829 129.65 121.696C129.695 124.394 129.917 127.049 130.304 129.65C132.171 142.202 137.883 153.5 146.203 162.308C157.265 174.018 172.939 181.326 190.32 181.326C223.833 181.326 251 154.159 251 120.646C251 99.9199 240.608 81.6205 224.751 70.6741C226.032 74.3934 226.728 78.3854 226.728 82.54Z" fill="#F9F9F9"/>
<path d="M162.308 105.797C153.5 114.117 142.202 119.829 129.65 121.696M162.308 105.797C174.018 94.7347 181.326 79.0606 181.326 61.6796C181.326 28.1672 154.159 1.00001 120.646 1C99.9199 0.999995 81.6204 11.3917 70.674 27.2493C74.3933 25.9677 78.3853 25.2718 82.5399 25.2718C102.647 25.2718 118.948 41.5722 118.948 61.6796C118.948 72.9441 113.832 83.0137 105.797 89.692M162.308 105.797C168.986 113.832 179.056 118.948 190.32 118.948C210.428 118.948 226.728 102.647 226.728 82.54C226.728 78.3854 226.032 74.3934 224.751 70.6741C240.608 81.6205 251 99.9199 251 120.646C251 154.159 223.833 181.326 190.32 181.326C172.939 181.326 157.265 174.018 146.203 162.308M129.65 121.696C129.695 124.394 129.917 127.049 130.304 129.65M129.65 121.696C127.079 122.078 124.456 122.299 121.791 122.349M130.304 129.65C132.171 142.202 137.883 153.5 146.203 162.308M130.304 129.65C127.606 129.695 124.951 129.917 122.35 130.304M146.203 162.308C138.168 168.986 133.052 179.056 133.052 190.32C133.052 210.428 149.353 226.728 169.46 226.728C173.615 226.728 177.607 226.032 181.326 224.751C170.38 240.608 152.08 251 131.354 251C97.8411 251 70.674 223.833 70.674 190.32C70.674 172.939 77.9816 157.265 89.6921 146.203M105.797 89.692C114.117 98.4996 119.829 109.798 121.696 122.35M105.797 89.692C94.7346 77.9816 79.0606 70.6739 61.6797 70.6739C28.1673 70.6739 1.00004 97.841 1 131.353C0.999977 152.08 11.3917 170.379 27.2492 181.326C25.9677 177.607 25.2718 173.615 25.2718 169.46C25.2718 149.353 41.5722 133.052 61.6796 133.052C72.9441 133.052 83.0138 138.168 89.6921 146.203M121.791 122.349C121.759 122.349 121.728 122.35 121.696 122.35M121.791 122.349L121.696 122.35M121.696 122.35C122.078 124.921 122.299 127.544 122.349 130.209C122.349 130.241 122.35 130.272 122.35 130.304M89.6921 146.203C98.4996 137.883 109.798 132.171 122.35 130.304" stroke="black" stroke-width="2" stroke-linejoin="round"/>
</svg>
