<svg width="251" height="252" viewBox="0 0 251 252" fill="none" xmlns="http://www.w3.org/2000/svg">
<path d="M9.85324 101.532C21.7019 85.3081 44.5276 81.7115 60.8359 93.4992C67.2997 98.1712 71.7695 104.559 74.0727 111.578C87.5046 112.891 100.451 118.621 110.539 128.393C110.711 128.164 110.882 127.933 111.051 127.701C113.133 124.85 114.929 121.879 116.443 118.822C122.668 106.257 124.144 92.2376 121.249 79.1233C118.167 65.1633 110.13 52.2291 97.5933 43.1672C70.4129 23.5212 32.37 29.5155 12.6223 56.5561C0.408812 73.28 -1.94616 94.1374 4.46485 112.266C5.6171 108.514 7.40508 104.885 9.85324 101.532Z" fill="#F9F9F9"/>
<path d="M61.0723 223.901C49.2237 207.677 52.8389 184.969 69.1472 173.181C75.6112 168.509 83.0989 166.254 90.5213 166.244C95.9271 153.941 105.405 143.462 117.864 136.937C117.698 136.703 117.53 136.47 117.361 136.238C115.279 133.387 112.993 130.77 110.539 128.393C100.451 118.621 87.5046 112.891 74.0727 111.578C59.775 110.181 44.9269 113.787 32.3898 122.849C5.20933 142.495 -0.816114 180.342 18.9316 207.383C31.1451 224.107 50.3566 232.78 69.6683 232.316C66.4372 230.067 63.5205 227.254 61.0723 223.901Z" fill="#F9F9F9"/>
<path d="M111.008 15.2568C130.179 21.454 140.671 41.9394 134.442 61.0122C131.973 68.5718 127.248 74.7749 121.249 79.1233C124.144 92.2376 122.668 106.257 116.443 118.822C116.716 118.914 116.989 119.004 117.263 119.093C120.632 120.182 124.027 120.963 127.418 121.451C141.353 123.458 155.211 120.522 166.854 113.73C179.247 106.5 189.128 94.8996 193.917 80.2373C204.299 48.4492 186.812 14.3069 154.86 3.97838C135.098 -2.40958 114.431 1.80753 99.0815 13.4754C103.025 13.4061 107.047 13.9764 111.008 15.2568Z" fill="#F9F9F9"/>
<path d="M224.744 84.3046C224.744 104.359 208.402 120.616 188.244 120.616C180.255 120.616 172.864 118.062 166.854 113.73C155.211 120.522 141.353 123.458 127.418 121.451C127.414 121.737 127.412 122.023 127.412 122.31C127.412 125.834 127.715 129.288 128.296 132.647C130.684 146.452 137.772 158.657 147.863 167.574C158.604 177.065 172.748 182.83 188.244 182.83C221.841 182.83 249.077 155.734 249.077 122.311C249.077 101.639 238.659 83.3876 222.762 72.47C224.046 76.1795 224.744 80.161 224.744 84.3046Z" fill="#F9F9F9"/>
<path d="M193.882 213.254C174.711 219.451 154.119 209.014 147.89 189.941C145.421 182.381 145.579 174.6 147.863 167.574C137.772 158.657 130.684 146.452 128.296 132.647C128.021 132.732 127.746 132.818 127.472 132.907C124.103 133.996 120.895 135.349 117.864 136.937C105.405 143.462 95.9271 153.941 90.5213 166.244C84.7668 179.34 83.6264 194.503 88.4152 209.166C98.7972 240.954 133.116 258.35 165.069 248.022C184.83 241.634 199.059 226.137 204.583 207.721C201.434 210.083 197.843 211.974 193.882 213.254Z" fill="#F9F9F9"/>
<path d="M116.443 118.822C122.668 106.257 124.144 92.2376 121.249 79.1233M116.443 118.822C114.929 121.879 113.133 124.85 111.051 127.701C110.882 127.933 110.711 128.164 110.539 128.393M116.443 118.822C116.716 118.914 116.989 119.004 117.263 119.093C120.632 120.182 124.027 120.963 127.418 121.451M121.249 79.1233C118.167 65.1633 110.13 52.2291 97.5933 43.1672C70.4129 23.5212 32.37 29.5155 12.6223 56.5561C0.408812 73.28 -1.94616 94.1374 4.46485 112.266C5.6171 108.514 7.40508 104.885 9.85324 101.532C21.7019 85.3081 44.5276 81.7115 60.8359 93.4992C67.2997 98.1712 71.7695 104.559 74.0727 111.578M121.249 79.1233C127.248 74.7749 131.973 68.5718 134.442 61.0122C140.671 41.9394 130.179 21.454 111.008 15.2568C107.047 13.9764 103.025 13.4061 99.0815 13.4754C114.431 1.80753 135.098 -2.40958 154.86 3.97838C186.812 14.3069 204.299 48.4492 193.917 80.2373C189.128 94.8996 179.247 106.5 166.854 113.73M110.539 128.393C100.451 118.621 87.5046 112.891 74.0727 111.578M110.539 128.393C112.993 130.77 115.279 133.387 117.361 136.238C117.53 136.47 117.698 136.703 117.864 136.937M74.0727 111.578C59.775 110.181 44.9269 113.787 32.3898 122.849C5.20933 142.495 -0.816114 180.342 18.9316 207.383C31.1451 224.107 50.3566 232.78 69.6683 232.316C66.4372 230.067 63.5205 227.254 61.0723 223.901C49.2237 207.677 52.8389 184.969 69.1472 173.181C75.6112 168.509 83.0989 166.254 90.5213 166.244M127.418 121.451C141.353 123.458 155.211 120.522 166.854 113.73M127.418 121.451C127.414 121.737 127.412 122.023 127.412 122.31C127.412 125.834 127.715 129.288 128.296 132.647M166.854 113.73C172.864 118.062 180.255 120.616 188.244 120.616C208.402 120.616 224.744 104.359 224.744 84.3046C224.744 80.161 224.046 76.1795 222.762 72.47C238.659 83.3876 249.077 101.639 249.077 122.311C249.077 155.735 221.841 182.83 188.244 182.83C172.748 182.83 158.604 177.065 147.863 167.574M128.296 132.647C130.684 146.452 137.772 158.657 147.863 167.574M128.296 132.647C128.021 132.732 127.746 132.818 127.472 132.907C124.103 133.996 120.895 135.349 117.864 136.937M147.863 167.574C145.579 174.6 145.421 182.381 147.89 189.941C154.119 209.014 174.711 219.451 193.882 213.254C197.843 211.974 201.434 210.083 204.583 207.721C199.059 226.137 184.83 241.634 165.069 248.022C133.116 258.35 98.7972 240.954 88.4152 209.166C83.6264 194.503 84.7668 179.34 90.5213 166.244M117.864 136.937C105.405 143.462 95.9271 153.941 90.5213 166.244" stroke="black" stroke-width="2" stroke-linejoin="round"/>
</svg>
