<svg width="252" height="250" viewBox="0 0 252 250" fill="none" xmlns="http://www.w3.org/2000/svg">
<path d="M227.415 82.7915C227.415 102.396 211.576 118.288 192.038 118.288C188.852 118.288 185.765 117.865 182.829 117.073C179.558 118.866 176.132 120.339 172.603 121.479C163.902 124.29 154.572 125.077 145.38 123.634C141.227 122.981 137.102 121.874 133.076 120.292C133.093 123.208 133.32 126.075 133.743 128.877C134.391 133.166 135.497 137.304 137.01 141.239C140.36 149.948 145.704 157.661 152.481 163.817C155.23 166.313 158.215 168.554 161.397 170.5C170.327 175.96 180.816 179.105 192.038 179.105C224.602 179.105 251 152.618 251 119.944C251 99.7364 240.902 81.895 225.494 71.2225C226.739 74.8487 227.415 78.7409 227.415 82.7915Z" fill="#F9F9F9"/>
<path d="M140.135 15.8535C157.056 25.6556 162.853 47.3649 153.084 64.3426C151.491 67.1106 149.583 69.582 147.432 71.7373C147.343 75.4761 146.902 79.1898 146.121 82.8268C144.197 91.7927 140.211 100.293 134.37 107.558C131.73 110.841 128.712 113.871 125.333 116.579C127.859 118.022 130.447 119.258 133.076 120.292C137.102 121.874 141.227 122.981 145.38 123.634C154.572 125.077 163.902 124.29 172.603 121.479C176.132 120.339 179.558 118.866 182.829 117.073C192.006 112.044 199.966 104.502 205.577 94.7512C221.859 66.455 212.196 30.2728 183.995 13.9359C166.553 3.83203 146.105 3.68556 129.189 11.7387C132.942 12.4697 136.639 13.8282 140.135 15.8535Z" fill="#F9F9F9"/>
<path d="M38.7201 58.2258C55.6408 48.4237 77.2773 54.2407 87.0465 71.2184C88.6393 73.9865 89.8183 76.8804 90.6027 79.8279C93.7855 81.7741 96.7701 84.0144 99.5189 86.5111C109.357 95.4473 116.176 107.669 118.257 121.45C120.766 119.978 123.126 118.347 125.333 116.579C128.712 113.871 131.73 110.841 134.37 107.558C140.211 100.293 144.197 91.7927 146.121 82.8268C146.902 79.1898 147.343 75.4761 147.432 71.7373L147.433 71.6887L147.433 71.6594C147.667 61.1953 145.136 50.5367 139.539 40.8099C123.257 12.5137 87.1961 2.81869 58.9949 19.1555C41.5531 29.2594 31.2027 46.9544 29.6955 65.68C32.2027 62.7848 35.224 60.2511 38.7201 58.2258Z" fill="#F9F9F9"/>
<path d="M24.585 167.536C24.5849 147.932 40.4239 132.04 59.9623 132.04C63.1476 132.04 66.2345 132.462 69.1706 133.254C72.4418 131.461 75.8677 129.988 79.3971 128.848C92.0295 124.766 105.988 124.952 118.924 130.035C118.907 127.119 118.68 124.252 118.257 121.45C116.176 107.669 109.357 95.4473 99.5189 86.5111C96.7701 84.0144 93.7855 81.7741 90.6027 79.8279C81.6734 74.3679 71.1839 71.2225 59.9622 71.2225C27.3982 71.2225 0.999956 97.7098 1 130.383C1.00003 150.591 11.0977 168.433 26.5065 179.105C25.2612 175.479 24.585 171.587 24.585 167.536Z" fill="#F9F9F9"/>
<path d="M111.865 234.473C94.944 224.671 89.1465 202.962 98.9157 185.984C100.508 183.216 102.417 180.745 104.568 178.59C104.657 174.851 105.098 171.138 105.879 167.501C107.803 158.535 111.789 150.034 117.63 142.769C120.27 139.486 123.288 136.455 126.667 133.748C124.141 132.305 121.553 131.069 118.924 130.035C105.988 124.952 92.0295 124.766 79.3971 128.848C75.8677 129.988 72.4418 131.461 69.1706 133.254C59.9935 138.283 52.0341 145.825 46.4234 155.576C30.1414 183.872 39.8039 220.054 68.0051 236.391C85.4468 246.495 105.895 246.641 122.811 238.588C119.058 237.857 115.361 236.499 111.865 234.473Z" fill="#F9F9F9"/>
<path d="M213.28 192.101C196.359 201.903 174.723 196.086 164.953 179.108C163.361 176.341 162.182 173.447 161.397 170.5C158.215 168.554 155.23 166.313 152.481 163.817C145.704 157.661 140.36 149.948 137.01 141.239C135.497 137.304 134.391 133.166 133.743 128.877C131.234 130.349 128.874 131.98 126.667 133.748C123.288 136.455 120.27 139.486 117.63 142.769C111.789 150.034 107.803 158.535 105.879 167.501C105.098 171.138 104.657 174.851 104.568 178.59C104.32 189.079 106.85 199.766 112.461 209.517C128.743 237.813 164.804 247.508 193.005 231.171C210.447 221.067 220.797 203.372 222.305 184.647C219.797 187.542 216.776 190.076 213.28 192.101Z" fill="#F9F9F9"/>
<path d="M133.075 119.944C133.075 120.06 133.076 120.176 133.076 120.292M134.043 128.702C133.943 128.76 133.843 128.818 133.743 128.877M126.967 133.921C126.867 133.863 126.767 133.806 126.667 133.748M118.925 130.383C118.925 130.267 118.924 130.151 118.924 130.035M117.957 121.625C118.057 121.567 118.157 121.509 118.257 121.45M125.033 116.406C125.133 116.464 125.233 116.521 125.333 116.579M90.6027 79.8279C93.7855 81.7741 96.7701 84.0144 99.5189 86.5111C109.357 95.4473 116.176 107.669 118.257 121.45M90.6027 79.8279C89.8183 76.8804 88.6393 73.9865 87.0465 71.2184C77.2773 54.2407 55.6408 48.4237 38.7201 58.2258C35.224 60.2511 32.2027 62.7848 29.6955 65.68C31.2027 46.9544 41.5531 29.2594 58.9949 19.1555C87.1961 2.81869 123.257 12.5137 139.539 40.8099C145.136 50.5367 147.667 61.1953 147.433 71.6594M90.6027 79.8279C81.6734 74.3679 71.1839 71.2225 59.9622 71.2225C27.3982 71.2225 0.999956 97.7098 1 130.383C1.00003 150.591 11.0977 168.433 26.5065 179.105C25.2612 175.479 24.585 171.587 24.585 167.536C24.5849 147.932 40.4239 132.04 59.9623 132.04C63.1476 132.04 66.2345 132.462 69.1706 133.254M147.433 71.6594L147.433 71.6887M147.433 71.6594C147.433 71.6692 147.433 71.6789 147.433 71.6887M147.432 71.7373C149.583 69.582 151.491 67.1106 153.084 64.3426C162.853 47.3649 157.056 25.6556 140.135 15.8535C136.639 13.8282 132.942 12.4697 129.189 11.7387C146.105 3.68556 166.553 3.83203 183.995 13.9359C212.196 30.2728 221.859 66.455 205.577 94.7512C199.966 104.502 192.006 112.044 182.829 117.073M147.432 71.7373C147.343 75.4761 146.902 79.1898 146.121 82.8268C144.197 91.7927 140.211 100.293 134.37 107.558C131.73 110.841 128.712 113.871 125.333 116.579M147.432 71.7373L147.433 71.6887M147.432 71.7373C147.432 71.7211 147.432 71.7049 147.433 71.6887M182.829 117.073C185.765 117.865 188.852 118.288 192.038 118.288C211.576 118.288 227.415 102.396 227.415 82.7915C227.415 78.7409 226.739 74.8487 225.494 71.2225C240.902 81.895 251 99.7364 251 119.944C251 152.618 224.602 179.105 192.038 179.105C180.816 179.105 170.327 175.96 161.397 170.5M182.829 117.073C179.558 118.866 176.132 120.339 172.603 121.479C163.902 124.29 154.572 125.077 145.38 123.634C141.227 122.981 137.102 121.874 133.076 120.292M161.397 170.5C162.182 173.447 163.361 176.341 164.953 179.108C174.723 196.086 196.359 201.903 213.28 192.101C216.776 190.076 219.797 187.542 222.305 184.647C220.797 203.372 210.447 221.067 193.005 231.171C164.804 247.508 128.743 237.813 112.461 209.517C106.85 199.766 104.32 189.079 104.568 178.59M161.397 170.5C158.215 168.554 155.23 166.313 152.481 163.817C145.704 157.661 140.36 149.948 137.01 141.239C135.497 137.304 134.391 133.166 133.743 128.877M104.568 178.59C102.417 180.745 100.508 183.216 98.9157 185.984C89.1465 202.962 94.944 224.671 111.865 234.473C115.361 236.499 119.058 237.857 122.811 238.588C105.895 246.641 85.4468 246.495 68.0051 236.391C39.8039 220.054 30.1414 183.872 46.4234 155.576C52.0341 145.825 59.9935 138.283 69.1706 133.254M104.568 178.59C104.657 174.851 105.098 171.138 105.879 167.501C107.803 158.535 111.789 150.034 117.63 142.769C120.27 139.486 123.288 136.455 126.667 133.748M69.1706 133.254C72.4418 131.461 75.8677 129.988 79.3971 128.848C92.0295 124.766 105.988 124.952 118.924 130.035M118.257 121.45C118.68 124.252 118.907 127.119 118.924 130.035M118.257 121.45C120.766 119.978 123.126 118.347 125.333 116.579M118.924 130.035C121.553 131.069 124.141 132.305 126.667 133.748M126.667 133.748C128.874 131.98 131.234 130.349 133.743 128.877M133.743 128.877C133.32 126.075 133.093 123.208 133.076 120.292M133.076 120.292C130.447 119.258 127.859 118.022 125.333 116.579" stroke="black" stroke-width="2" stroke-linejoin="round"/>
</svg>
