<svg width="252" height="252" viewBox="0 0 252 252" fill="none" xmlns="http://www.w3.org/2000/svg">
<path fill-rule="evenodd" clip-rule="evenodd" d="M130.472 130.976C128.837 130.843 127.184 130.776 125.515 130.776C123.847 130.776 122.194 130.843 120.559 130.976" fill="#F9F9F9"/>
<path d="M162.033 34.2455C162.033 54.4922 145.684 70.9053 125.515 70.9053C105.347 70.9053 88.9977 54.4922 88.9977 34.2455C88.9977 19.5266 97.6384 6.83374 110.105 1C83.9534 7.8504 64.6525 31.7246 64.6525 60.1243C64.6525 61.7994 64.7197 63.4587 64.8514 65.0998C67.2418 94.8761 90.8982 118.625 120.559 121.024C122.194 121.157 123.847 121.224 125.515 121.224C127.184 121.224 128.837 121.157 130.472 121.024C132.862 91.248 156.519 67.4995 186.18 65.0998C186.311 63.4587 186.378 61.7994 186.378 60.1243C186.378 31.7246 167.078 7.85039 140.926 1C153.393 6.83374 162.033 19.5266 162.033 34.2455Z" fill="#F9F9F9"/>
<path d="M216.914 162.66C196.746 162.66 180.397 146.247 180.397 126C180.397 105.753 196.746 89.34 216.914 89.34C231.576 89.34 244.22 98.0143 250.031 110.53C243.207 84.2761 219.425 64.9001 191.136 64.9001C189.467 64.9001 187.814 64.9675 186.18 65.0998C156.519 67.4995 132.862 91.248 130.472 121.024C130.34 122.665 130.273 124.325 130.273 126C130.273 127.675 130.34 129.335 130.472 130.976C160.133 133.375 183.789 157.124 186.18 186.9C186.271 186.907 186.362 186.915 186.453 186.922C187.999 187.04 189.56 187.1 191.136 187.1C219.426 187.1 243.207 167.724 250.031 141.47C244.22 153.985 231.576 162.66 216.914 162.66Z" fill="#F9F9F9"/>
<path d="M88.9977 217.755C88.9977 197.508 105.347 181.095 125.515 181.095C145.684 181.095 162.033 197.508 162.033 217.755C162.033 232.473 153.393 245.166 140.926 251C167.078 244.15 186.378 220.275 186.378 191.876C186.378 190.201 186.311 188.541 186.18 186.9C183.789 157.124 160.133 133.375 130.472 130.976C128.837 130.843 127.184 130.776 125.515 130.776C123.847 130.776 122.194 130.843 120.559 130.976C118.169 160.752 94.5123 184.5 64.8514 186.9C64.7197 188.541 64.6525 190.201 64.6525 191.876C64.6525 220.275 83.9534 244.15 110.105 251C97.6384 245.166 88.9977 232.473 88.9977 217.755Z" fill="#F9F9F9"/>
<path d="M34.1166 89.34C54.2848 89.34 70.6344 105.753 70.6344 126C70.6344 146.247 54.2848 162.66 34.1166 162.66C19.4548 162.66 6.81113 153.985 1 141.47C7.82384 167.724 31.6055 187.1 59.8951 187.1C61.5637 187.1 63.2167 187.032 64.8514 186.9C94.5123 184.5 118.169 160.752 120.559 130.976C120.691 129.335 120.758 127.675 120.758 126C120.758 124.325 120.691 122.665 120.559 121.024C90.8982 118.625 67.2418 94.8761 64.8514 65.0998C63.2167 64.9675 61.5638 64.9001 59.8951 64.9001C31.6055 64.9001 7.82386 84.2761 1.00001 110.53C6.81114 98.0143 19.4548 89.34 34.1166 89.34Z" fill="#F9F9F9"/>
<path d="M120.559 121.024C90.8982 118.625 67.2418 94.8761 64.8514 65.0998M120.559 121.024C120.691 122.665 120.758 124.325 120.758 126C120.758 127.675 120.691 129.335 120.559 130.976M120.559 121.024C122.194 121.157 123.847 121.224 125.515 121.224C127.184 121.224 128.837 121.157 130.472 121.024M64.8514 65.0998C63.2167 64.9675 61.5638 64.9001 59.8951 64.9001C31.6055 64.9001 7.82386 84.2761 1.00001 110.53C6.81114 98.0143 19.4548 89.34 34.1166 89.34C54.2848 89.34 70.6344 105.753 70.6344 126C70.6344 146.247 54.2848 162.66 34.1166 162.66C19.4548 162.66 6.81113 153.985 1 141.47C7.82384 167.724 31.6055 187.1 59.8951 187.1C61.5637 187.1 63.2167 187.032 64.8514 186.9M64.8514 65.0998C64.7197 63.4587 64.6525 61.7994 64.6525 60.1243C64.6525 31.7246 83.9534 7.8504 110.105 1C97.6384 6.83374 88.9977 19.5266 88.9977 34.2455C88.9977 54.4922 105.347 70.9053 125.515 70.9053C145.684 70.9053 162.033 54.4922 162.033 34.2455C162.033 19.5266 153.393 6.83374 140.926 1C167.078 7.85039 186.378 31.7246 186.378 60.1243C186.378 61.7994 186.311 63.4587 186.18 65.0998M186.18 65.0998C156.519 67.4995 132.862 91.248 130.472 121.024M186.18 65.0998C187.814 64.9675 189.467 64.9001 191.136 64.9001C219.425 64.9001 243.207 84.2761 250.031 110.53C244.22 98.0143 231.576 89.34 216.914 89.34C196.746 89.34 180.397 105.753 180.397 126C180.397 146.247 196.746 162.66 216.914 162.66C231.576 162.66 244.22 153.985 250.031 141.47C243.207 167.724 219.426 187.1 191.136 187.1C189.56 187.1 187.999 187.04 186.453 186.922C186.362 186.915 186.271 186.907 186.18 186.9M130.472 121.024C130.34 122.665 130.273 124.325 130.273 126C130.273 127.675 130.34 129.335 130.472 130.976M130.472 130.976C160.133 133.375 183.789 157.124 186.18 186.9M130.472 130.976C128.837 130.843 127.184 130.776 125.515 130.776C123.847 130.776 122.194 130.843 120.559 130.976M186.18 186.9C186.311 188.541 186.378 190.201 186.378 191.876C186.378 220.275 167.078 244.15 140.926 251C153.393 245.166 162.033 232.473 162.033 217.755C162.033 197.508 145.684 181.095 125.515 181.095C105.347 181.095 88.9977 197.508 88.9977 217.755C88.9977 232.473 97.6384 245.166 110.105 251C83.9534 244.15 64.6525 220.275 64.6525 191.876C64.6525 190.201 64.7197 188.541 64.8514 186.9M120.559 130.976C118.169 160.752 94.5123 184.5 64.8514 186.9" stroke="black" stroke-width="2" stroke-linejoin="round"/>
</svg>
