<svg width="263" height="252" viewBox="0 0 263 252" fill="none" xmlns="http://www.w3.org/2000/svg">
<path d="M165.687 32.2804C165.687 51.3304 150.175 66.7734 131.04 66.7734C111.906 66.7734 96.394 51.3304 96.394 32.2804C96.394 18.4316 104.592 6.48894 116.42 1.00001C92.6464 7.1758 74.8403 28.0567 73.3917 53.2984C74.4643 53.5792 75.5352 53.892 76.6033 54.2375C102.129 62.4948 117.929 86.7746 116.42 112.259C121.089 113.472 125.989 114.118 131.04 114.118C136.092 114.118 140.991 113.472 145.661 112.259C170.473 105.814 188.784 83.3505 188.784 56.6296C188.784 55.5115 188.752 54.4008 188.689 53.2984C187.24 28.0567 169.434 7.17577 145.661 1C157.489 6.48892 165.687 18.4316 165.687 32.2804Z" fill="#F9F9F9"/>
<path d="M237.288 134.193C219.09 140.079 199.544 130.164 193.631 112.047C187.718 93.9292 197.677 74.4698 215.875 68.5831C229.105 64.3035 243.047 68.3752 251.945 77.8783C238.699 57.2769 213.25 46.8698 188.689 53.2984C188.752 54.4008 188.784 55.5115 188.784 56.6296C188.784 83.3505 170.473 105.814 145.661 112.259C145.945 117.055 146.843 121.894 148.403 126.677C149.964 131.46 152.095 135.9 154.697 139.946C168.522 161.447 195.639 171.844 221.165 163.587C222.233 163.241 223.284 162.868 224.318 162.467C226.371 161.671 228.356 160.769 230.267 159.768C250.371 149.241 262.302 127.864 260.981 105.565C259.393 118.461 250.517 129.913 237.288 134.193Z" fill="#F9F9F9"/>
<path d="M162.059 233.481C150.811 218.069 154.243 196.498 169.723 185.301C185.204 174.104 206.87 177.52 218.117 192.932C226.294 204.136 226.713 218.595 220.384 229.957C235.971 211.049 238.048 183.736 224.318 162.467C223.284 162.868 222.233 163.241 221.165 163.587C195.639 171.844 168.522 161.447 154.697 139.946C150.203 141.698 145.858 144.043 141.771 146.999C137.685 149.954 134.102 153.344 131.04 157.058C114.773 176.792 113.22 205.681 128.996 227.298C129.657 228.203 130.338 229.083 131.04 229.937C147.115 249.511 173.848 255.984 196.728 247.069C183.918 249.549 170.235 244.685 162.059 233.481Z" fill="#F9F9F9"/>
<path d="M43.9632 192.932C55.2102 177.52 76.877 174.104 92.3572 185.301C107.837 196.498 111.269 218.069 100.022 233.481C91.8458 244.685 78.1627 249.549 65.353 247.068C88.2322 255.984 114.966 249.511 131.04 229.937C130.338 229.083 129.657 228.203 128.996 227.298C113.22 205.681 114.773 176.792 131.04 157.058C127.979 153.344 124.396 149.954 120.309 146.998C116.223 144.042 111.877 141.697 107.383 139.946C83.505 130.642 55.4285 138.099 39.6525 159.717C38.9924 160.621 38.3626 161.538 37.763 162.467C24.0321 183.736 26.1095 211.049 41.6965 229.957C35.3681 218.595 35.7868 204.136 43.9632 192.932Z" fill="#F9F9F9"/>
<path d="M46.2054 68.5831C64.4035 74.4698 74.3627 93.9292 68.4497 112.047C62.5368 130.164 42.9909 140.079 24.7928 134.193C11.5632 129.913 2.68786 118.461 1.09942 105.565C-0.347345 129.983 14.0975 153.296 37.763 162.467C38.3626 161.538 38.9924 160.621 39.6525 159.717C55.4285 138.099 83.505 130.642 107.383 139.946C109.985 135.9 112.116 131.46 113.677 126.677C115.238 121.894 116.135 117.055 116.42 112.259C117.929 86.7746 102.129 62.4948 76.6033 54.2375C75.5352 53.892 74.4643 53.5792 73.3917 53.2984C48.831 46.8698 23.3814 57.2769 10.1354 77.8783C19.0339 68.3752 32.9758 64.3035 46.2054 68.5831Z" fill="#F9F9F9"/>
<path d="M188.689 53.2984C188.752 54.4008 188.784 55.5115 188.784 56.6296C188.784 83.3505 170.473 105.814 145.661 112.259M188.689 53.2984C213.25 46.8698 238.699 57.2769 251.945 77.8783C243.047 68.3752 229.105 64.3035 215.875 68.5831C197.677 74.4698 187.718 93.9292 193.631 112.047C199.544 130.164 219.09 140.079 237.288 134.193C250.517 129.913 259.393 118.461 260.981 105.565C262.302 127.864 250.371 149.241 230.267 159.768C228.356 160.769 226.371 161.671 224.318 162.467M188.689 53.2984C187.24 28.0567 169.434 7.17577 145.661 1C157.489 6.48892 165.687 18.4316 165.687 32.2804C165.687 51.3304 150.175 66.7734 131.04 66.7734C111.906 66.7734 96.394 51.3304 96.394 32.2804C96.3939 18.4316 104.592 6.48894 116.42 1.00001C92.6464 7.1758 74.8403 28.0567 73.3917 53.2984M145.661 112.259C145.945 117.055 146.843 121.894 148.403 126.677C149.964 131.46 152.095 135.9 154.697 139.946M145.661 112.259C140.991 113.472 136.092 114.118 131.04 114.118C125.989 114.118 121.089 113.472 116.42 112.259M154.697 139.946C168.522 161.447 195.639 171.844 221.165 163.587C222.233 163.241 223.284 162.868 224.318 162.467M154.697 139.946C150.203 141.698 145.858 144.043 141.771 146.999C137.685 149.954 134.102 153.344 131.04 157.058M224.318 162.467C238.048 183.736 235.971 211.049 220.384 229.957C226.713 218.595 226.294 204.136 218.117 192.932C206.87 177.52 185.204 174.104 169.723 185.301C154.243 196.498 150.811 218.069 162.058 233.481C170.235 244.685 183.918 249.549 196.728 247.069C173.848 255.984 147.115 249.511 131.04 229.937M131.04 229.937C130.338 229.083 129.657 228.203 128.996 227.298C113.22 205.681 114.773 176.792 131.04 157.058M131.04 229.937C114.966 249.511 88.2322 255.984 65.353 247.068C78.1627 249.549 91.8458 244.685 100.022 233.481C111.269 218.069 107.837 196.498 92.3572 185.301C76.877 174.104 55.2102 177.52 43.9632 192.932C35.7868 204.136 35.3681 218.595 41.6965 229.957C26.1095 211.049 24.0321 183.736 37.763 162.467M131.04 157.058C127.979 153.344 124.396 149.954 120.309 146.998C116.223 144.042 111.877 141.697 107.383 139.946M37.763 162.467C38.3626 161.538 38.9924 160.621 39.6525 159.717C55.4285 138.099 83.505 130.642 107.383 139.946M37.763 162.467C14.0975 153.296 -0.347346 129.983 1.09942 105.565C2.68786 118.461 11.5632 129.913 24.7928 134.193C42.9909 140.079 62.5368 130.164 68.4497 112.047C74.3627 93.9292 64.4035 74.4698 46.2054 68.5831C32.9758 64.3035 19.0339 68.3752 10.1354 77.8783C23.3814 57.2769 48.831 46.8698 73.3917 53.2984M107.383 139.946C109.985 135.9 112.116 131.46 113.677 126.677C115.238 121.894 116.135 117.055 116.42 112.259M116.42 112.259C117.929 86.7746 102.129 62.4948 76.6033 54.2375C75.5352 53.892 74.4643 53.5792 73.3917 53.2984" stroke="black" stroke-width="2" stroke-linejoin="round"/>
</svg>
