<svg width="250" height="252" viewBox="0 0 250 252" fill="none" xmlns="http://www.w3.org/2000/svg">
<path d="M56.2307 50.7332C71.0599 59.2778 76.1408 78.2021 67.5791 93.0017C59.0175 107.801 40.0554 112.872 25.2262 104.328C14.4457 98.1158 8.81718 86.4185 9.83674 74.8082C4.78796 93.1313 10.3271 112.94 24.2437 126C27.0983 123.321 30.3053 120.926 33.8458 118.886C54.0873 107.223 78.9488 110.78 95.1247 126C98.7 122.636 101.851 118.702 104.434 114.237C107.017 109.773 108.855 105.082 109.986 100.31C115.105 78.7196 105.761 55.4531 85.5199 43.7899C81.9794 41.7499 78.2977 40.1756 74.5458 39.0478C56.2545 33.5498 36.296 38.6665 22.9204 52.1918C32.4856 45.5054 45.4502 44.5215 56.2307 50.7332Z" fill="#F9F9F9"/>
<path d="M155.852 29.0608C155.852 46.15 141.971 60.0035 124.848 60.0035C107.725 60.0035 93.8433 46.15 93.8433 29.0608C93.8433 16.6374 101.179 5.92397 111.764 1C93.3398 5.79793 78.9205 20.4897 74.5458 39.0478C78.2977 40.1756 81.9794 41.7499 85.5199 43.7899C105.761 55.4531 115.105 78.7196 109.986 100.31C114.693 101.718 119.682 102.475 124.848 102.475C130.014 102.475 135.003 101.718 139.709 100.31C161.004 93.9392 176.522 74.23 176.522 50.9038C176.522 46.8238 176.047 42.8545 175.15 39.0478C170.775 20.4896 156.356 5.79792 137.931 1C148.516 5.92396 155.852 16.6374 155.852 29.0608Z" fill="#F9F9F9"/>
<path d="M224.469 104.328C209.64 112.872 190.678 107.801 182.117 93.0017C173.555 78.2021 178.636 59.2778 193.465 50.7332C204.245 44.5215 217.21 45.5054 226.775 52.1917C213.4 38.6665 193.441 33.5498 175.15 39.0478C176.047 42.8545 176.522 46.8238 176.522 50.9038C176.522 74.23 161.004 93.9392 139.709 100.31C140.841 105.082 142.679 109.773 145.262 114.237C147.845 118.702 150.996 122.636 154.571 126C170.747 141.22 195.608 144.777 215.85 133.114C219.39 131.074 222.597 128.679 225.452 126C239.369 112.94 244.908 93.1313 239.859 74.8082C240.878 86.4185 235.25 98.1158 224.469 104.328Z" fill="#F9F9F9"/>
<path d="M193.465 201.267C178.636 192.722 173.555 173.798 182.117 158.998C190.678 144.198 209.64 139.128 224.469 147.672C235.25 153.884 240.878 165.581 239.859 177.192C244.908 158.869 239.368 139.06 225.452 126C222.597 128.679 219.39 131.074 215.85 133.114C195.608 144.777 170.747 141.22 154.571 126C150.996 129.364 147.845 133.297 145.262 137.762C142.679 142.227 140.841 146.918 139.709 151.69C134.59 173.28 143.934 196.547 164.176 208.21C167.716 210.25 171.398 211.824 175.15 212.952C175.531 213.067 175.913 213.177 176.296 213.282C194.27 218.233 213.678 213.051 226.775 199.808C217.21 206.494 204.245 207.478 193.465 201.267Z" fill="#F9F9F9"/>
<path d="M93.8433 222.939C93.8433 205.85 107.725 191.996 124.848 191.996C141.971 191.997 155.852 205.85 155.852 222.939C155.852 235.363 148.516 246.076 137.931 251C156.356 246.202 170.775 231.51 175.15 212.952C171.398 211.824 167.716 210.25 164.176 208.21C143.934 196.547 134.59 173.28 139.709 151.69C135.003 150.282 130.014 149.525 124.848 149.525C119.682 149.525 114.693 150.282 109.986 151.69C88.6914 158.061 73.1737 177.77 73.1737 201.096C73.1737 205.176 73.6484 209.145 74.5457 212.952C78.9204 231.51 93.3397 246.202 111.764 251C101.179 246.076 93.8433 235.363 93.8433 222.939Z" fill="#F9F9F9"/>
<path d="M25.2263 147.672C40.0555 139.128 59.0175 144.198 67.5792 158.998C76.1408 173.798 71.0599 192.722 56.2307 201.267C45.4502 207.478 32.4856 206.494 22.9205 199.808C36.296 213.333 56.2544 218.45 74.5457 212.952C73.6484 209.145 73.1737 205.176 73.1737 201.096C73.1737 177.77 88.6914 158.061 109.986 151.69C108.855 146.918 107.017 142.227 104.434 137.762C101.851 133.297 98.7 129.364 95.1247 126C78.9488 110.78 54.0873 107.223 33.8458 118.886C30.3053 120.926 27.0983 123.321 24.2437 126C10.3272 139.06 4.78803 158.869 9.83679 177.192C8.81724 165.581 14.4458 153.884 25.2263 147.672Z" fill="#F9F9F9"/>
<path d="M139.709 100.31C135.003 101.718 130.014 102.475 124.848 102.475C119.682 102.475 114.693 101.718 109.986 100.31M139.709 100.31C140.841 105.082 142.679 109.773 145.262 114.237C147.845 118.702 150.996 122.636 154.571 126M139.709 100.31C161.004 93.9392 176.522 74.2301 176.522 50.9038C176.522 46.8238 176.047 42.8545 175.15 39.0478M109.986 100.31C108.855 105.082 107.017 109.773 104.434 114.237C101.851 118.702 98.7 122.636 95.1247 126M109.986 100.31C115.105 78.7196 105.761 55.4531 85.5199 43.7899C81.9794 41.7499 78.2977 40.1756 74.5458 39.0478M95.1247 126C98.7 129.364 101.851 133.297 104.434 137.762C107.017 142.227 108.855 146.918 109.986 151.69M95.1247 126C78.9488 110.78 54.0873 107.223 33.8458 118.886C30.3053 120.926 27.0983 123.321 24.2437 126M109.986 151.69C114.693 150.282 119.682 149.525 124.848 149.525C130.014 149.525 135.003 150.282 139.709 151.69M109.986 151.69C88.6914 158.061 73.1737 177.77 73.1737 201.096C73.1737 205.176 73.6484 209.145 74.5457 212.952M139.709 151.69C140.841 146.918 142.679 142.227 145.262 137.762C147.845 133.297 150.996 129.364 154.571 126M139.709 151.69C134.59 173.28 143.934 196.547 164.176 208.21C167.716 210.25 171.398 211.824 175.15 212.952M154.571 126C170.747 141.22 195.608 144.777 215.85 133.114C219.39 131.074 222.597 128.679 225.452 126M74.5458 39.0478C56.2545 33.5498 36.296 38.6665 22.9204 52.1918C32.4856 45.5054 45.4502 44.5215 56.2307 50.7332C71.0599 59.2778 76.1408 78.2021 67.5791 93.0017C59.0175 107.801 40.0554 112.872 25.2262 104.328C14.4457 98.1158 8.81718 86.4185 9.83674 74.8082C4.78796 93.1313 10.3271 112.94 24.2437 126M74.5458 39.0478C78.9205 20.4897 93.3398 5.79793 111.764 1C101.179 5.92397 93.8433 16.6374 93.8433 29.0608C93.8433 46.15 107.725 60.0035 124.848 60.0035C141.971 60.0035 155.852 46.15 155.852 29.0608C155.852 16.6374 148.516 5.92396 137.931 1C156.356 5.79792 170.775 20.4896 175.15 39.0478M175.15 39.0478C193.441 33.5498 213.4 38.6665 226.775 52.1917C217.21 45.5054 204.245 44.5215 193.465 50.7332C178.636 59.2778 173.555 78.2021 182.117 93.0017C190.678 107.801 209.64 112.872 224.469 104.328C235.25 98.1158 240.878 86.4185 239.859 74.8082C244.908 93.1313 239.369 112.94 225.452 126M225.452 126C239.369 139.06 244.908 158.869 239.859 177.192C240.878 165.581 235.25 153.884 224.469 147.672C209.64 139.128 190.678 144.198 182.117 158.998C173.555 173.798 178.636 192.722 193.465 201.267C204.245 207.478 217.21 206.494 226.775 199.808C213.678 213.051 194.27 218.233 176.296 213.282C175.913 213.177 175.531 213.067 175.15 212.952M175.15 212.952C170.775 231.51 156.356 246.202 137.931 251C148.516 246.076 155.852 235.363 155.852 222.939C155.852 205.85 141.971 191.997 124.848 191.996C107.725 191.996 93.8433 205.85 93.8433 222.939C93.8433 235.363 101.179 246.076 111.764 251C93.3397 246.202 78.9205 231.51 74.5457 212.952M74.5457 212.952C56.2544 218.45 36.296 213.333 22.9205 199.808C32.4856 206.494 45.4502 207.478 56.2307 201.267C71.0599 192.722 76.1408 173.798 67.5792 158.998C59.0175 144.198 40.0555 139.128 25.2263 147.672C14.4458 153.884 8.81724 165.581 9.83679 177.192C4.78803 158.869 10.3272 139.06 24.2437 126" stroke="black" stroke-width="2" stroke-linejoin="round"/>
</svg>
