<svg width="252" height="251" viewBox="0 0 252 251" fill="none" xmlns="http://www.w3.org/2000/svg">
<path d="M190.628 213.822C171.256 202.638 164.618 177.868 175.803 158.497C186.987 139.126 211.758 132.489 231.13 143.673C241.779 149.82 248.579 160.073 250.688 171.277C253.099 146.992 241.456 122.403 218.946 109.407C208.407 103.323 190.946 101.989 172.569 102.859C163.816 116.487 153.23 129.876 144.364 140.347C134.632 151.84 117.368 151.84 107.636 140.346C112.271 153.26 118.574 169.122 126 183.515C134.436 199.865 144.321 214.319 154.86 220.404C177.37 233.399 204.487 231.188 224.314 216.956C213.556 220.733 201.276 219.97 190.628 213.822Z" fill="#F9F9F9"/>
<path d="M20.8695 143.673C40.2416 132.489 65.0127 139.126 76.1972 158.497C87.3816 177.868 80.7442 202.638 61.3721 213.822C50.7238 219.97 38.4442 220.733 27.6865 216.957C47.5132 231.188 74.6303 233.399 97.1404 220.404C107.679 214.319 117.564 199.865 126 183.515C118.574 169.122 112.271 153.26 107.636 140.346C102.548 126.172 111.18 111.222 126 108.541C112.498 106.098 95.6097 103.625 79.4313 102.859C61.0537 101.989 43.5927 103.323 33.054 109.407C10.5439 122.403 -1.09926 146.992 1.31241 171.277C3.42052 160.073 10.2212 149.82 20.8695 143.673Z" fill="#F9F9F9"/>
<path d="M166.503 31.7385C166.503 54.1065 148.369 72.2395 126 72.2395C103.631 72.2395 85.4973 54.1066 85.4973 31.7385C85.4973 19.4434 90.9762 8.42783 99.6259 1.00003C77.3875 11.0542 61.9135 33.4316 61.9135 59.4229C61.9135 71.5914 69.4892 87.3793 79.4313 102.859C95.6097 103.625 112.498 106.098 126 108.541C140.82 111.222 149.452 126.172 144.364 140.347C153.23 129.876 163.816 116.487 172.569 102.859C182.511 87.3792 190.086 71.5914 190.086 59.4228C190.086 33.4315 174.612 11.0541 152.374 1C161.024 8.42778 166.503 19.4433 166.503 31.7385Z" fill="#F9F9F9"/>
<path d="M172.569 102.859C182.511 87.3792 190.086 71.5914 190.086 59.4228C190.086 33.4315 174.612 11.0541 152.374 1C161.024 8.42778 166.503 19.4433 166.503 31.7385C166.503 54.1065 148.369 72.2395 126 72.2395C103.631 72.2395 85.4973 54.1066 85.4973 31.7385C85.4973 19.4434 90.9762 8.42783 99.6259 1.00003C77.3875 11.0542 61.9135 33.4316 61.9135 59.4229C61.9135 71.5914 69.4892 87.3793 79.4313 102.859M172.569 102.859C190.946 101.989 208.407 103.323 218.946 109.407C241.456 122.403 253.099 146.992 250.688 171.277C248.579 160.073 241.779 149.82 231.13 143.673C211.758 132.489 186.987 139.126 175.803 158.497C164.618 177.868 171.256 202.638 190.628 213.822C201.276 219.97 213.556 220.733 224.314 216.956C204.487 231.188 177.37 233.399 154.86 220.404C144.321 214.319 134.436 199.865 126 183.515M172.569 102.859C163.816 116.487 153.23 129.876 144.364 140.347M126 183.515C117.564 199.865 107.679 214.319 97.1404 220.404C74.6303 233.399 47.5132 231.188 27.6865 216.957C38.4442 220.733 50.7238 219.97 61.3721 213.822C80.7442 202.638 87.3816 177.868 76.1972 158.497C65.0127 139.126 40.2416 132.489 20.8695 143.673C10.2212 149.82 3.42052 160.073 1.31241 171.277C-1.09926 146.992 10.5439 122.403 33.054 109.407C43.5927 103.323 61.0537 101.989 79.4313 102.859M126 183.515C118.574 169.122 112.271 153.26 107.636 140.346M79.4313 102.859C95.6097 103.625 112.498 106.098 126 108.541M144.364 140.347C149.452 126.172 140.82 111.222 126 108.541M144.364 140.347C134.632 151.84 117.368 151.84 107.636 140.346M107.636 140.346C102.548 126.172 111.18 111.222 126 108.541" stroke="black" stroke-width="2" stroke-linejoin="round"/>
</svg>
