<svg width="251" height="251" viewBox="0 0 251 251" fill="none" xmlns="http://www.w3.org/2000/svg">
<path d="M232.734 127.575C232.734 185.613 185.684 232.663 127.646 232.663C69.6072 232.663 22.5576 185.613 22.5576 127.575C22.5576 69.5359 69.6072 22.4863 127.646 22.4863C185.684 22.4863 232.734 69.5359 232.734 127.575Z" fill="#F9F9F9" stroke="black" stroke-width="2" stroke-linecap="round" stroke-linejoin="round"/>
<path d="M172.554 168.885C199.296 88.0109 172.554 48.432 147.049 48.4319C188.447 48.4321 230.265 92.3105 250 168.885L211.277 206.72L172.554 168.885Z" fill="#F9F9F9"/>
<path d="M69.4876 145.773C126.155 209.369 173.803 205.999 186.555 183.911C165.856 219.763 106.947 234.039 30.7642 212.843L17.3594 160.39L69.4876 145.773Z" fill="#F9F9F9"/>
<path d="M141.036 68.0708C57.6263 85.348 36.7212 128.297 49.4735 150.385C28.7745 114.533 45.8656 56.3787 102.313 1L154.441 15.6176L141.036 68.0708Z" fill="#F9F9F9"/>
<path d="M172.554 168.885C199.296 88.0109 172.554 48.432 147.049 48.4319C188.447 48.4321 230.265 92.3105 250 168.885L211.277 206.72L172.554 168.885Z" stroke="black" stroke-width="2" stroke-linecap="round" stroke-linejoin="round"/>
<path d="M69.4876 145.773C126.155 209.369 173.803 205.999 186.555 183.911C165.856 219.763 106.947 234.039 30.7642 212.843L17.3594 160.39L69.4876 145.773Z" stroke="black" stroke-width="2" stroke-linecap="round" stroke-linejoin="round"/>
<path d="M141.036 68.0708C57.6263 85.348 36.7212 128.297 49.4735 150.385C28.7745 114.533 45.8656 56.3787 102.313 1L154.441 15.6176L141.036 68.0708Z" stroke="black" stroke-width="2" stroke-linecap="round" stroke-linejoin="round"/>
</svg>
