<svg width="252" height="252" viewBox="0 0 252 252" fill="none" xmlns="http://www.w3.org/2000/svg">
<path d="M232.058 126.202C232.058 184.663 184.665 232.056 126.204 232.056C67.7428 232.056 20.3506 184.663 20.3506 126.202C20.3506 67.7409 67.7428 20.3486 126.204 20.3486C184.665 20.3486 232.058 67.7409 232.058 126.202Z" fill="#F9F9F9" stroke="black" stroke-width="2" stroke-linecap="round" stroke-linejoin="round"/>
<path d="M172.515 110.019C245.191 134.051 259.898 96.5405 219.546 72.7891C282.798 110.019 241.327 161.88 172.515 179.615L138.515 144.817L172.515 110.019Z" fill="#F9F9F9" stroke="black" stroke-width="2" stroke-linecap="round" stroke-linejoin="round"/>
<path d="M142.202 172.576C117.89 245.159 155.343 260.011 179.251 219.75C141.776 282.858 90.0759 241.187 72.6065 172.308L107.536 138.442L142.202 172.576Z" fill="#F9F9F9" stroke="black" stroke-width="2" stroke-linecap="round" stroke-linejoin="round"/>
<path d="M79.7689 142.016C7.28081 117.424 -7.71564 154.82 32.4524 178.882C-30.5108 141.165 11.3593 89.6256 80.3062 72.4223L114.037 107.482L79.7689 142.016Z" fill="#F9F9F9" stroke="black" stroke-width="2" stroke-linecap="round" stroke-linejoin="round"/>
<path d="M110.574 79.7065C135.446 7.31393 98.1082 -7.82675 73.8911 32.2481C111.851 -30.569 163.229 11.4997 180.166 80.5125L144.976 114.108L110.574 79.7065Z" fill="#F9F9F9" stroke="black" stroke-width="2" stroke-linecap="round" stroke-linejoin="round"/>
</svg>
