<svg width="252" height="252" viewBox="0 0 252 252" fill="none" xmlns="http://www.w3.org/2000/svg">
<path d="M230 126.128C230 183.494 183.496 229.998 126.13 229.998C68.7633 229.998 22.2588 183.494 22.2588 126.128C22.2588 68.7614 68.7633 22.2568 126.13 22.2568C183.496 22.2568 230 68.7614 230 126.128Z" fill="#F9F9F9" stroke="black" stroke-width="2" stroke-linecap="round" stroke-linejoin="round"/>
<path d="M135.223 126.127L168.461 160.145L250.872 126.127L168.461 92.1094L135.223 126.127Z" fill="#F9F9F9" stroke="black" stroke-width="2" stroke-linecap="round" stroke-linejoin="round"/>
<path d="M126.089 135.221L91.9427 168.327L125.642 250.869L159.978 168.59L126.089 135.221Z" fill="#F9F9F9" stroke="black" stroke-width="2" stroke-linecap="round" stroke-linejoin="round"/>
<path d="M117.037 126.047L84.0625 91.7731L1.3915 125.154L83.5372 159.807L117.037 126.047Z" fill="#F9F9F9" stroke="black" stroke-width="2" stroke-linecap="round" stroke-linejoin="round"/>
<path d="M126.251 117.035L160.651 84.1931L127.59 1.3939L92.6199 83.4053L126.251 117.035Z" fill="#F9F9F9" stroke="black" stroke-width="2" stroke-linecap="round" stroke-linejoin="round"/>
</svg>
