<svg width="264" height="266" viewBox="0 0 264 266" fill="none" xmlns="http://www.w3.org/2000/svg">
<path d="M227.597 132.241C227.597 177.895 190.587 214.905 144.933 214.905C99.2787 214.905 62.2686 177.895 62.2686 132.241C62.2686 86.5868 99.2787 49.5767 144.933 49.5767C190.587 49.5767 227.597 86.5868 227.597 132.241Z" fill="#F9F9F9" stroke="black" stroke-width="2" stroke-linecap="round" stroke-linejoin="round"/>
<path d="M103.905 44.6998C180.482 54.651 211.135 24.0634 206.765 1.3584C213.857 38.2124 181.96 82.9566 117.173 113.645L76.8568 85.6544L103.905 44.6998Z" fill="#F9F9F9"/>
<path d="M241.487 140.608C194.581 201.95 205.744 243.79 227.592 251.358C192.129 239.074 169.328 189.078 175.145 117.626L219.543 96.7065L241.487 140.608Z" fill="#F9F9F9"/>
<path d="M90.17 211.697C60.4993 140.403 18.6835 129.151 1.20508 144.288C29.5754 119.718 84.2736 124.97 143.244 165.733L139.162 214.643L90.17 211.697Z" fill="#F9F9F9"/>
<path d="M103.905 44.6998C180.482 54.651 211.135 24.0634 206.765 1.3584C213.857 38.2124 181.96 82.9566 117.173 113.645L76.8568 85.6544L103.905 44.6998Z" stroke="black" stroke-width="2" stroke-linecap="round" stroke-linejoin="round"/>
<path d="M241.487 140.608C194.581 201.95 205.744 243.79 227.592 251.358C192.129 239.074 169.328 189.078 175.145 117.626L219.543 96.7065L241.487 140.608Z" stroke="black" stroke-width="2" stroke-linecap="round" stroke-linejoin="round"/>
<path d="M90.17 211.697C60.4993 140.403 18.6835 129.151 1.20508 144.288C29.5754 119.718 84.2736 124.97 143.244 165.733L139.162 214.643L90.17 211.697Z" stroke="black" stroke-width="2" stroke-linecap="round" stroke-linejoin="round"/>
</svg>
