<svg width="266" height="252" viewBox="0 0 266 252" fill="none" xmlns="http://www.w3.org/2000/svg">
<path d="M244.468 133.058C244.468 192.411 196.353 240.527 137 240.527C77.6465 240.527 29.5312 192.411 29.5312 133.058C29.5312 73.7051 77.6465 25.5898 137 25.5898C196.353 25.5898 244.468 73.7051 244.468 133.058Z" fill="#F9F9F9" stroke="black" stroke-width="2" stroke-linecap="round" stroke-linejoin="round"/>
<path d="M48.7016 202.901C50.7868 215.33 54.8289 226.843 60.8136 237.209C55.5196 228.039 53.7925 216.659 56.4127 204.326C53.8578 203.878 51.2873 203.403 48.7016 202.901Z" fill="#F9F9F9"/>
<path d="M238.511 167.279C239.4 169.716 240.274 172.18 241.132 174.67C250.854 166.649 258.803 157.393 264.788 147.027C259.494 156.196 250.502 163.382 238.511 167.279Z" fill="#F9F9F9"/>
<path d="M227.572 235.346L228.7 234.243C243.191 220.085 249.271 199.149 242.904 179.916C242.321 178.155 241.731 176.406 241.132 174.67C240.274 172.18 239.4 169.716 238.511 167.279C228.55 139.972 216.692 116.021 203.48 95.6977C196.097 103.087 186.718 108.593 176.375 111.641C164.635 115.101 153.857 118.907 143.995 122.986C143.672 129.863 143.027 137.074 142.03 144.619C140.631 155.199 138.539 166.436 135.665 178.334C133.133 188.815 133.211 199.691 135.92 209.78C138.487 219.344 143.419 228.202 150.731 235.346C172.092 256.218 206.21 256.218 227.572 235.346Z" fill="#F9F9F9"/>
<path d="M179.796 3.54138L178.277 3.11539C158.77 -2.35463 137.599 2.84785 124.126 17.9777C122.892 19.3635 121.673 20.7495 120.468 22.1356C118.741 24.124 117.044 26.1126 115.378 28.1009C96.71 50.3809 81.8973 72.6262 70.9022 94.2294C80.9934 96.9283 90.451 102.298 98.2623 109.731C107.129 118.169 115.814 125.6 124.277 132.101C130.395 128.942 136.962 125.895 143.995 122.986C153.857 118.907 164.635 115.101 176.375 111.641C186.718 108.593 196.097 103.087 203.48 95.6977C210.48 88.6917 215.685 79.9922 218.216 70.0877C225.611 41.152 208.552 11.6052 179.796 3.54138Z" fill="#F9F9F9"/>
<path d="M2.93503 160.819L3.32566 162.348C8.34187 181.976 23.433 197.71 43.2724 201.813C45.0894 202.188 46.8992 202.551 48.7016 202.901C51.2873 203.403 53.8578 203.878 56.4127 204.326C85.0418 209.354 111.713 211.059 135.92 209.78C133.211 199.691 133.133 188.815 135.665 178.334C138.539 166.436 140.631 155.199 142.03 144.619C136.235 140.901 130.313 136.737 124.277 132.101C115.814 125.6 107.129 118.169 98.2623 109.731C90.451 102.298 80.9934 96.9283 70.9022 94.2294C61.3351 91.6707 51.1986 91.5126 41.3555 94.2728C12.599 102.337 -4.45981 131.883 2.93503 160.819Z" fill="#F9F9F9"/>
<path fill-rule="evenodd" clip-rule="evenodd" d="M120.468 22.1356C118.741 24.124 117.044 26.1126 115.378 28.1009C106.008 19.6655 95.2889 15.4709 84.7006 15.4709C96.6703 15.4709 108.661 17.7266 120.468 22.1356Z" fill="#F9F9F9"/>
<path d="M135.92 209.78C133.211 199.691 133.133 188.815 135.665 178.334C138.539 166.436 140.631 155.199 142.03 144.619M135.92 209.78C138.487 219.344 143.419 228.202 150.731 235.346C172.092 256.218 206.21 256.218 227.572 235.346L228.7 234.243C243.191 220.085 249.271 199.149 242.904 179.916C242.321 178.155 241.731 176.406 241.132 174.67M135.92 209.78C111.713 211.059 85.0418 209.354 56.4127 204.326M142.03 144.619C143.027 137.074 143.672 129.863 143.995 122.986M142.03 144.619C136.235 140.901 130.313 136.737 124.277 132.101M241.132 174.67C240.274 172.18 239.4 169.716 238.511 167.279M241.132 174.67C250.854 166.649 258.803 157.393 264.788 147.027C259.494 156.196 250.502 163.382 238.511 167.279M238.511 167.279C228.55 139.972 216.692 116.021 203.48 95.6977M120.468 22.1356C121.673 20.7495 122.892 19.3635 124.126 17.9777C137.599 2.84785 158.77 -2.35463 178.277 3.11539L179.796 3.54138C208.552 11.6052 225.611 41.152 218.216 70.0877C215.685 79.9922 210.48 88.6917 203.48 95.6977M120.468 22.1356C118.741 24.124 117.044 26.1126 115.378 28.1009M120.468 22.1356C108.661 17.7266 96.6703 15.4709 84.7006 15.4709C95.2889 15.4709 106.008 19.6655 115.378 28.1009M203.48 95.6977C196.097 103.087 186.718 108.593 176.375 111.641C164.635 115.101 153.857 118.907 143.995 122.986M115.378 28.1009C96.71 50.3809 81.8973 72.6262 70.9022 94.2294M143.995 122.986C136.962 125.895 130.395 128.942 124.277 132.101M70.9022 94.2294C61.3351 91.6707 51.1986 91.5126 41.3555 94.2728C12.599 102.337 -4.45981 131.883 2.93503 160.819L3.32566 162.348C8.34187 181.976 23.433 197.71 43.2724 201.813C45.0894 202.188 46.8992 202.551 48.7016 202.901M70.9022 94.2294C80.9934 96.9283 90.4511 102.298 98.2623 109.731C107.129 118.169 115.814 125.6 124.277 132.101M48.7016 202.901C50.7868 215.33 54.8289 226.843 60.8136 237.209C55.5196 228.039 53.7925 216.659 56.4127 204.326M48.7016 202.901C51.2873 203.403 53.8578 203.878 56.4127 204.326" stroke="black" stroke-width="2" stroke-linecap="round" stroke-linejoin="round"/>
<path d="M194.585 52.4503C194.585 67.2849 182.559 79.3107 167.725 79.3107C152.89 79.3107 140.864 67.2849 140.864 52.4503C140.864 37.6157 152.89 25.5898 167.725 25.5898C182.559 25.5898 194.585 37.6157 194.585 52.4503Z" fill="#F9F9F9" stroke="black" stroke-width="2" stroke-linecap="round" stroke-linejoin="round"/>
<path d="M217.399 197.89C217.399 212.724 205.373 224.75 190.538 224.75C175.704 224.75 163.678 212.724 163.678 197.89C163.678 183.055 175.704 171.029 190.538 171.029C205.373 171.029 217.399 183.055 217.399 197.89Z" fill="#F9F9F9" stroke="black" stroke-width="2" stroke-linecap="round" stroke-linejoin="round"/>
<path d="M78.6135 146.576C78.6135 161.41 66.5876 173.436 51.753 173.436C36.9184 173.436 24.8926 161.41 24.8926 146.576C24.8926 131.741 36.9184 119.715 51.753 119.715C66.5876 119.715 78.6135 131.741 78.6135 146.576Z" fill="#F9F9F9" stroke="black" stroke-width="2" stroke-linecap="round" stroke-linejoin="round"/>
</svg>
