<svg width="251" height="252" viewBox="0 0 251 252" fill="none" xmlns="http://www.w3.org/2000/svg">
<path fill-rule="evenodd" clip-rule="evenodd" d="M70.6185 96.8609C66.5454 100.947 62.076 105.08 57.1872 109.244C56.3634 109.945 55.568 110.675 54.8024 111.43C50.1598 116.009 46.6162 121.536 44.5285 127.534C42.487 133.401 41.8379 139.718 42.9151 146.044C46.271 165.751 64.7462 179.174 84.5256 176.276L85.0473 176.199C87.675 181.336 90.2245 186.864 92.6736 192.8C93.0863 193.8 93.5342 194.782 94.0158 195.743C96.9365 201.574 101.097 206.652 106.157 210.491C111.105 214.245 116.914 216.815 123.262 217.745C143.042 220.643 161.517 207.22 164.873 187.513L164.961 186.993C170.659 186.082 176.704 185.365 183.106 184.87C184.185 184.787 185.257 184.664 186.32 184.503C192.768 183.527 198.883 181.139 204.098 177.513C209.198 173.967 213.436 169.238 216.283 163.487C225.151 145.571 218.095 123.852 200.389 114.571L199.922 114.326C200.816 108.626 202.002 102.656 203.51 96.4136C203.764 95.3618 203.979 94.3041 204.154 93.2431C205.218 86.8093 204.837 80.2555 203 74.1754C201.203 68.2296 198.015 62.7369 193.426 58.2526C179.127 44.2821 156.29 44.2821 141.992 58.2527L141.615 58.6211C136.47 56.0101 131.158 53.0366 125.688 49.6737C124.766 49.1071 123.826 48.5759 122.872 48.0812C117.082 45.081 110.731 43.4185 104.381 43.2867C98.1706 43.1578 91.9614 44.4928 86.2783 47.472C68.573 56.7534 61.516 78.4723 70.3844 96.3881L70.6185 96.8609ZM145.473 129.308C143.236 124.739 141.088 119.98 139.037 115.035C134.001 115.751 128.812 116.323 123.475 116.745C122.599 121.756 121.54 126.868 120.292 132.074C124.787 134.456 129.322 137.043 133.887 139.838C137.541 136.299 141.403 132.786 145.473 129.308Z" fill="#F9F9F9"/>
<path d="M122.872 48.0812C117.815 27.4607 107.832 11.2927 93.6652 1C104.068 8.5582 109.272 23.7633 104.381 43.2867C110.731 43.4185 117.082 45.081 122.872 48.0812Z" fill="#F9F9F9"/>
<path d="M204.154 93.2431C222.203 82.0617 234.495 67.571 239.906 50.9171C235.932 63.1464 223.079 72.7947 203 74.1754C204.837 80.2555 205.218 86.8093 204.154 93.2431Z" fill="#F9F9F9"/>
<path d="M186.32 184.503C202.532 198.213 220.112 205.426 237.623 205.426C224.764 205.426 211.616 196.183 204.098 177.513C198.883 181.139 192.768 183.527 186.32 184.503Z" fill="#F9F9F9"/>
<path d="M89.9707 251C85.9972 238.771 90.7242 223.41 106.157 210.491C101.097 206.652 96.9365 201.574 94.0158 195.743C85.9864 215.398 84.5596 234.346 89.9707 251Z" fill="#F9F9F9"/>
<path d="M1 124.658C11.403 117.1 27.4722 116.849 44.5285 127.534C46.6162 121.536 50.1598 116.009 54.8024 111.43C33.6284 109.867 15.1667 114.365 1 124.658Z" fill="#F9F9F9"/>
<path d="M199.922 114.326C200.816 108.626 202.002 102.656 203.51 96.4136C203.764 95.3618 203.979 94.3041 204.154 93.2431M199.922 114.326L200.389 114.571C218.095 123.852 225.151 145.571 216.283 163.487C213.436 169.238 209.198 173.967 204.098 177.513M199.922 114.326L199.454 114.081C187.444 107.785 172.858 108.245 161.932 116.275C156.115 120.551 150.628 124.901 145.473 129.308M145.473 129.308C143.236 124.739 141.088 119.98 139.037 115.035M145.473 129.308C141.403 132.786 137.541 136.299 133.887 139.838M186.32 184.503C185.257 184.664 184.185 184.787 183.106 184.87C176.704 185.365 170.659 186.082 164.961 186.993M186.32 184.503C202.532 198.213 220.112 205.426 237.623 205.426C224.764 205.426 211.616 196.183 204.098 177.513M186.32 184.503C192.768 183.527 198.883 181.139 204.098 177.513M141.615 58.6211C136.47 56.0101 131.158 53.0366 125.688 49.6737C124.766 49.1071 123.826 48.5759 122.872 48.0812M141.615 58.6211L141.992 58.2527C156.29 44.2821 179.127 44.2821 193.426 58.2526C198.015 62.7369 201.203 68.2296 203 74.1754M141.615 58.6211L141.237 58.9908C131.538 68.4676 127.468 82.4812 131.729 95.3547C133.998 102.208 136.439 108.771 139.037 115.035M139.037 115.035C134.001 115.751 128.812 116.323 123.475 116.745M204.154 93.2431C222.203 82.0617 234.495 67.571 239.906 50.9171C235.932 63.1464 223.079 72.7947 203 74.1754M204.154 93.2431C205.218 86.8093 204.837 80.2555 203 74.1754M70.6185 96.8609C66.5454 100.947 62.0761 105.08 57.1872 109.244C56.3634 109.945 55.568 110.675 54.8024 111.43M70.6185 96.8609L70.3844 96.3881C61.516 78.4723 68.573 56.7534 86.2783 47.472C91.9614 44.4928 98.1706 43.1578 104.381 43.2867M70.6185 96.8609L70.8529 97.3345C76.8687 109.488 88.9388 117.689 102.499 117.614C109.718 117.574 116.714 117.28 123.475 116.745M123.475 116.745C122.599 121.756 121.54 126.868 120.292 132.074M122.872 48.0812C117.815 27.4607 107.832 11.2927 93.6652 1C104.068 8.5582 109.272 23.7633 104.381 43.2867M122.872 48.0812C117.082 45.081 110.731 43.4185 104.381 43.2867M120.292 132.074C118.712 138.669 116.829 145.414 114.636 152.292C110.517 165.212 98.9876 174.157 85.5705 176.123L85.0473 176.199M120.292 132.074C124.787 134.456 129.322 137.043 133.887 139.838M54.8024 111.43C33.6284 109.867 15.1667 114.365 1 124.658C11.403 117.1 27.4722 116.849 44.5285 127.534M54.8024 111.43C50.1598 116.009 46.6162 121.536 44.5285 127.534M44.5285 127.534C42.487 133.401 41.8379 139.718 42.9151 146.044C46.271 165.751 64.7462 179.174 84.5256 176.276L85.0473 176.199M85.0473 176.199C87.675 181.336 90.2245 186.864 92.6736 192.8C93.0863 193.8 93.5342 194.782 94.0158 195.743M133.887 139.838C139.671 143.379 145.504 147.254 151.368 151.465C162.382 159.375 167.327 173.104 165.05 186.472L164.961 186.993M164.961 186.993L164.873 187.513C161.517 207.22 143.042 220.643 123.262 217.745C116.914 216.815 111.105 214.245 106.157 210.491M106.157 210.491C90.7242 223.41 85.9972 238.771 89.9707 251C84.5596 234.346 85.9864 215.398 94.0158 195.743M106.157 210.491C101.097 206.652 96.9365 201.574 94.0158 195.743" stroke="black" stroke-width="2" stroke-linecap="round" stroke-linejoin="round"/>
</svg>
