<svg width="251" height="252" viewBox="0 0 251 252" fill="none" xmlns="http://www.w3.org/2000/svg">
<path d="M205.803 216.839C160.255 262.387 86.4067 262.387 40.8585 216.839C-4.6898 171.291 -4.6898 97.4422 40.8585 51.894C86.4067 6.34573 160.255 6.34573 205.803 51.894C251.352 97.4422 251.352 171.291 205.803 216.839Z" fill="#F9F9F9" stroke="black" stroke-width="2" stroke-linejoin="round"/>
<path d="M178.125 165.27C195.412 93.7033 169.532 58.6141 144.749 58.614C184.982 58.6142 225.587 97.5281 248.354 166.306C252.523 178.901 248.541 192.612 239.051 201.884L238.312 202.606C224.323 216.274 201.98 216.274 187.991 202.606C178.152 192.992 174.895 178.641 178.125 165.27Z" fill="#F9F9F9"/>
<path d="M70.2542 168.48C123.589 219.235 166.917 214.367 179.308 192.904C159.192 227.747 105.189 243.455 34.2424 228.783C21.25 226.096 11.3672 215.792 8.08215 202.938L7.82633 201.937C2.98361 182.987 14.1551 163.638 32.9871 158.357C46.2324 154.643 60.2891 158.997 70.2542 168.48Z" fill="#F9F9F9"/>
<path d="M121.409 73.4565C50.7867 94.2683 33.3386 134.226 45.7299 155.688C25.6135 120.845 39.0116 66.2236 87.1916 12.1184C96.0148 2.21013 109.879 -1.19688 122.654 2.38532L123.649 2.66429C142.481 7.9451 153.652 27.2947 148.81 46.2441C145.404 59.5719 134.604 69.568 121.409 73.4565Z" fill="#F9F9F9"/>
<path d="M178.125 165.27C195.412 93.7033 169.532 58.6141 144.749 58.614C184.982 58.6142 225.587 97.5281 248.354 166.306C252.523 178.901 248.541 192.612 239.051 201.884L238.312 202.606C224.323 216.274 201.98 216.274 187.991 202.606C178.152 192.992 174.895 178.641 178.125 165.27Z" stroke="black" stroke-width="2" stroke-linecap="round" stroke-linejoin="round"/>
<path d="M70.2542 168.48C123.589 219.235 166.917 214.367 179.308 192.904C159.192 227.747 105.189 243.455 34.2424 228.783C21.25 226.096 11.3672 215.792 8.08215 202.938L7.82633 201.937C2.98361 182.987 14.1551 163.638 32.9871 158.357C46.2324 154.643 60.2891 158.997 70.2542 168.48Z" stroke="black" stroke-width="2" stroke-linecap="round" stroke-linejoin="round"/>
<path d="M121.409 73.4565C50.7867 94.2683 33.3386 134.226 45.7299 155.688C25.6135 120.845 39.0116 66.2236 87.1916 12.1184C96.0148 2.21013 109.879 -1.19688 122.654 2.38532L123.649 2.66429C142.481 7.9451 153.652 27.2947 148.81 46.2441C145.404 59.5719 134.604 69.568 121.409 73.4565Z" stroke="black" stroke-width="2" stroke-linecap="round" stroke-linejoin="round"/>
</svg>
