<svg width="252" height="250" viewBox="0 0 252 250" fill="none" xmlns="http://www.w3.org/2000/svg">
<path d="M199.79 173.58C162.864 210.506 102.994 210.506 66.0678 173.58C29.1414 136.653 29.1414 76.7838 66.0678 39.8574C102.994 2.931 162.864 2.931 199.79 39.8574C236.717 76.7838 236.717 136.653 199.79 173.58Z" fill="#F9F9F9" stroke="black" stroke-width="2" stroke-linejoin="round"/>
<path d="M115.542 200.324C131.454 134.451 107.633 102.153 84.8221 102.153C121.855 102.153 159.229 137.971 180.184 201.277C184.022 212.871 180.357 225.491 171.622 234.025L170.942 234.69C158.066 247.271 137.5 247.271 124.624 234.69C115.567 225.841 112.569 212.632 115.542 200.324Z" fill="#F9F9F9"/>
<path d="M59.5007 41.8778C108.592 88.5947 148.474 84.1138 159.879 64.3587C141.363 96.4297 91.6562 110.888 26.3538 97.3825C14.395 94.9093 5.29837 85.4254 2.2747 73.5938L2.03924 72.6724C-2.41821 55.2305 7.86456 37.4203 25.1984 32.5596C37.3899 29.1409 50.3284 33.1492 59.5007 41.8778Z" fill="#F9F9F9"/>
<path d="M224.74 72.5673C159.736 91.7235 143.676 128.502 155.082 148.257C136.566 116.186 148.898 65.9099 193.245 16.1089C201.366 6.98888 214.128 3.85289 225.886 7.1501L226.802 7.40688C244.135 12.2676 254.418 30.0778 249.961 47.5197C246.826 59.7872 236.885 68.9881 224.74 72.5673Z" fill="#F9F9F9"/>
<path d="M115.542 200.324C131.454 134.451 107.633 102.153 84.8221 102.153C121.855 102.153 159.229 137.971 180.184 201.277C184.022 212.871 180.357 225.491 171.622 234.025L170.942 234.69C158.066 247.271 137.5 247.271 124.624 234.69C115.567 225.841 112.569 212.632 115.542 200.324Z" stroke="black" stroke-width="2" stroke-linecap="round" stroke-linejoin="round"/>
<path d="M59.5007 41.8778C108.592 88.5947 148.474 84.1138 159.879 64.3587C141.363 96.4297 91.6562 110.888 26.3538 97.3825C14.395 94.9093 5.29837 85.4254 2.2747 73.5938L2.03924 72.6724C-2.41821 55.2305 7.86456 37.4203 25.1984 32.5596C37.3899 29.1409 50.3284 33.1492 59.5007 41.8778Z" stroke="black" stroke-width="2" stroke-linecap="round" stroke-linejoin="round"/>
<path d="M224.74 72.5673C159.736 91.7235 143.676 128.502 155.082 148.257C136.566 116.186 148.898 65.9099 193.245 16.1089C201.366 6.98888 214.128 3.85289 225.886 7.1501L226.802 7.40688C244.135 12.2676 254.418 30.0778 249.961 47.5197C246.826 59.7872 236.885 68.9881 224.74 72.5673Z" stroke="black" stroke-width="2" stroke-linecap="round" stroke-linejoin="round"/>
</svg>
