<svg width="252" height="251" viewBox="0 0 252 251" fill="none" xmlns="http://www.w3.org/2000/svg">
<path d="M36.1997 136.811C54.4318 61.3331 27.1373 24.3262 1 24.3261C43.4321 24.3263 86.256 65.3669 110.267 137.904C114.664 151.187 110.465 165.647 100.457 175.426L99.6772 176.187C84.9233 190.603 61.3592 190.603 46.6053 176.188C36.2283 166.049 32.7932 150.913 36.1997 136.811Z" fill="#F9F9F9"/>
<path d="M135.985 16.9026C192.235 70.4311 237.931 65.2968 251 42.6613C229.784 79.4085 172.83 95.9747 98.0055 80.5004C84.303 77.6666 73.88 66.7999 70.4154 53.2431L70.1456 52.1874C65.0382 32.2023 76.8203 11.7952 96.6816 6.22575C110.651 2.30857 125.476 6.9013 135.985 16.9026Z" fill="#F9F9F9"/>
<path d="M189.936 163.274C115.454 185.223 97.0523 227.364 110.121 250C88.905 213.253 103.035 155.646 153.849 98.5834C163.154 88.1336 177.776 84.5404 191.249 88.3184L192.298 88.6126C212.16 94.1821 223.942 114.589 218.834 134.574C215.242 148.631 203.852 159.173 189.936 163.274Z" fill="#F9F9F9"/>
<path d="M36.1997 136.811C54.4318 61.3331 27.1373 24.3262 1 24.3261C43.4321 24.3263 86.256 65.3669 110.267 137.904C114.664 151.187 110.465 165.647 100.457 175.426L99.6772 176.187C84.9233 190.603 61.3592 190.603 46.6053 176.188C36.2283 166.049 32.7932 150.913 36.1997 136.811Z" stroke="black" stroke-width="2" stroke-linecap="round" stroke-linejoin="round"/>
<path d="M135.985 16.9026C192.235 70.4311 237.931 65.2968 251 42.6613C229.784 79.4085 172.83 95.9747 98.0055 80.5004C84.303 77.6666 73.88 66.7999 70.4154 53.2431L70.1456 52.1874C65.0382 32.2023 76.8203 11.7952 96.6816 6.22575C110.651 2.30857 125.476 6.9013 135.985 16.9026Z" stroke="black" stroke-width="2" stroke-linecap="round" stroke-linejoin="round"/>
<path d="M189.936 163.274C115.454 185.223 97.0523 227.364 110.121 250C88.905 213.253 103.035 155.646 153.849 98.5834C163.154 88.1336 177.776 84.5404 191.249 88.3184L192.298 88.6126C212.16 94.1821 223.942 114.589 218.834 134.574C215.242 148.631 203.852 159.173 189.936 163.274Z" stroke="black" stroke-width="2" stroke-linecap="round" stroke-linejoin="round"/>
<path d="M161.054 145.269C138.782 167.541 102.672 167.541 80.3995 145.269C58.1273 122.996 58.1273 86.8861 80.3995 64.6138C102.672 42.3416 138.782 42.3416 161.054 64.6138C183.327 86.8861 183.327 122.996 161.054 145.269Z" fill="#F9F9F9" stroke="black" stroke-width="2" stroke-linejoin="round"/>
</svg>
