<svg width="266" height="261" viewBox="0 0 266 261" fill="none" xmlns="http://www.w3.org/2000/svg">
<path d="M190.7 211.687C151.895 250.492 88.9804 250.492 50.1758 211.687C11.3711 172.882 11.3711 109.968 50.1758 71.1631C88.9804 32.3584 151.895 32.3584 190.7 71.1631C229.504 109.968 229.504 172.882 190.7 211.687Z" fill="#F9F9F9" stroke="black" stroke-width="2" stroke-linejoin="round"/>
<path d="M102.866 95.9592C118.173 32.5927 95.2582 1.52404 73.315 1.52393C108.938 1.52411 144.891 35.9793 165.049 96.8766C168.74 108.029 165.214 120.168 156.812 128.378L156.158 129.017C143.771 141.12 123.989 141.12 111.602 129.017C102.89 120.505 100.006 107.799 102.866 95.9592Z" fill="#F9F9F9"/>
<path d="M167.689 149.192C214.913 194.132 253.277 189.821 264.248 170.818C246.437 201.668 198.621 215.576 135.804 202.585C124.3 200.206 115.549 191.083 112.641 179.702L112.414 178.815C108.127 162.037 118.018 144.905 134.692 140.229C146.42 136.94 158.866 140.796 167.689 149.192Z" fill="#F9F9F9"/>
<path d="M89.1765 178.714C26.6463 197.141 11.1973 232.52 22.1688 251.524C4.35733 220.673 16.2203 172.31 58.8799 124.404C66.6922 115.631 78.9682 112.614 90.2791 115.786L91.1599 116.033C107.834 120.709 117.726 137.841 113.438 154.62C110.422 166.42 100.86 175.271 89.1765 178.714Z" fill="#F9F9F9"/>
<path d="M102.866 95.9592C118.173 32.5927 95.2582 1.52404 73.315 1.52393C108.938 1.52411 144.891 35.9793 165.049 96.8766C168.74 108.029 165.214 120.168 156.812 128.378L156.158 129.017C143.771 141.12 123.989 141.12 111.602 129.017C102.89 120.505 100.006 107.799 102.866 95.9592Z" stroke="black" stroke-width="2" stroke-linecap="round" stroke-linejoin="round"/>
<path d="M167.689 149.192C214.913 194.132 253.277 189.821 264.248 170.818C246.437 201.668 198.621 215.576 135.804 202.585C124.3 200.206 115.549 191.083 112.641 179.702L112.414 178.815C108.127 162.037 118.018 144.905 134.692 140.229C146.42 136.94 158.866 140.796 167.689 149.192Z" stroke="black" stroke-width="2" stroke-linecap="round" stroke-linejoin="round"/>
<path d="M89.1765 178.714C26.6463 197.141 11.1973 232.52 22.1688 251.524C4.35733 220.673 16.2203 172.31 58.8799 124.404C66.6922 115.631 78.9682 112.614 90.2791 115.786L91.1599 116.033C107.834 120.709 117.726 137.841 113.438 154.62C110.422 166.42 100.86 175.271 89.1765 178.714Z" stroke="black" stroke-width="2" stroke-linecap="round" stroke-linejoin="round"/>
</svg>
