<svg width="252" height="252" viewBox="0 0 252 252" fill="none" xmlns="http://www.w3.org/2000/svg">
<path d="M220.486 125.993C220.486 178.18 178.18 220.486 125.993 220.486C73.806 220.486 31.5 178.18 31.5 125.993C31.5 73.806 73.806 31.5 125.993 31.5C178.18 31.5 220.486 73.806 220.486 125.993Z" fill="#F9F9F9" stroke="black" stroke-width="2" stroke-linecap="round" stroke-linejoin="round"/>
<path d="M165.201 99.2492C222.477 124.316 250.533 94.0168 250.533 65.0596C250.533 112.121 219.35 159.638 164.586 184.205C160.22 186.163 155.127 184.495 152.552 180.462L131.038 146.769C128.942 143.487 128.942 139.287 131.038 136.005L152.116 102.995C154.88 98.6657 160.495 97.1896 165.201 99.2492Z" fill="#F9F9F9" stroke="black" stroke-width="2" stroke-linecap="round" stroke-linejoin="round"/>
<path d="M152.827 165.537C127.539 222.715 157.73 250.888 186.687 251C139.626 250.818 92.2296 219.452 67.8745 164.593C65.933 160.22 67.6211 155.133 71.6637 152.574L105.44 131.19C108.73 129.107 112.929 129.123 116.203 131.231L149.132 152.437C153.451 155.218 154.905 160.839 152.827 165.537Z" fill="#F9F9F9" stroke="black" stroke-width="2" stroke-linecap="round" stroke-linejoin="round"/>
<path d="M86.5934 152.902C29.5133 127.394 1.22366 157.476 1 186.432C1.36349 139.372 32.9126 92.0968 87.8647 67.9537C92.2453 66.0291 97.3255 67.7368 99.8694 71.7892L121.123 105.648C123.193 108.945 123.161 113.145 121.04 116.411L99.7073 149.257C96.9095 153.565 91.2832 154.998 86.5934 152.902Z" fill="#F9F9F9" stroke="black" stroke-width="2" stroke-linecap="round" stroke-linejoin="round"/>
<path d="M99.4872 86.7222C125.216 29.741 95.2433 1.33543 66.2881 1C113.347 1.54514 160.499 33.2764 184.43 88.3213C186.338 92.7093 184.611 97.783 180.548 100.311L146.608 121.434C143.302 123.491 139.103 123.443 135.845 121.309L103.081 99.8501C98.7843 97.0356 97.3733 91.4039 99.4872 86.7222Z" fill="#F9F9F9" stroke="black" stroke-width="2" stroke-linecap="round" stroke-linejoin="round"/>
</svg>
