<svg width="250" height="250" viewBox="0 0 250 250" fill="none" xmlns="http://www.w3.org/2000/svg">
<path d="M83.7915 232.015L232.093 83.7135C213.973 101.834 184.608 101.848 166.504 83.7448C148.401 65.6415 148.415 36.2763 166.536 18.1558L18.2339 166.458C36.3544 148.337 65.7196 148.323 83.8228 166.426C101.926 184.53 101.912 213.895 83.7915 232.015Z" fill="#F9F9F9"/>
<path d="M232.093 83.7135C250.214 65.593 250.228 36.2278 232.125 18.1245C214.021 0.0212881 184.656 0.035293 166.536 18.1558M232.093 83.7135L83.4634 232.343C65.3429 250.464 35.9777 250.478 17.8745 232.375C-0.228783 214.271 -0.214782 184.906 17.9057 166.786L166.536 18.1558M232.093 83.7135C213.973 101.834 184.608 101.848 166.504 83.7448C148.401 65.6415 148.415 36.2763 166.536 18.1558M232.093 83.7135L83.7915 232.015M166.536 18.1558L18.2339 166.458M83.7915 232.015C65.671 250.136 36.3058 250.15 18.2026 232.046C0.0993287 213.943 0.113334 184.578 18.2339 166.458M83.7915 232.015C101.912 213.895 101.926 184.53 83.8228 166.426C65.7196 148.323 36.3544 148.337 18.2339 166.458" stroke="black" stroke-width="2" stroke-linejoin="round"/>
<path d="M18.2035 232.047C36.3068 250.151 65.672 250.137 83.7925 232.016C101.913 213.896 101.927 184.531 83.8238 166.427C65.7205 148.324 36.3553 148.338 18.2348 166.459C0.114288 184.579 0.100284 213.944 18.2035 232.047Z" fill="#F9F9F9" stroke="black" stroke-width="2" stroke-linecap="round" stroke-linejoin="round"/>
<path d="M232.093 83.7135C250.214 65.593 250.228 36.2278 232.125 18.1245C214.021 0.0212881 184.656 0.035293 166.536 18.1558C148.415 36.2763 148.401 65.6415 166.504 83.7448C184.608 101.848 213.973 101.834 232.093 83.7135Z" fill="#F9F9F9" stroke="black" stroke-width="2" stroke-linecap="round" stroke-linejoin="round"/>
<path d="M231.765 166.458L83.4635 18.1567C101.584 36.2773 101.598 65.6424 83.4948 83.7457C65.3915 101.849 36.0263 101.835 17.9058 83.7144L166.208 232.016C148.087 213.896 148.073 184.53 166.176 166.427C184.28 148.324 213.645 148.338 231.765 166.458Z" fill="#F9F9F9"/>
<path d="M83.4635 18.1567C65.343 0.036217 35.9778 0.0222121 17.8745 18.1255C-0.228712 36.2287 -0.214707 65.5939 17.9058 83.7144M83.4635 18.1567L232.093 166.787C250.214 184.907 250.228 214.272 232.125 232.376C214.021 250.479 184.656 250.465 166.536 232.344L17.9058 83.7144M83.4635 18.1567C101.584 36.2773 101.598 65.6424 83.4948 83.7457C65.3915 101.849 36.0263 101.835 17.9058 83.7144M83.4635 18.1567L231.765 166.458M17.9058 83.7144L166.208 232.016M231.765 166.458C249.886 184.579 249.9 213.944 231.796 232.047C213.693 250.151 184.328 250.137 166.208 232.016M231.765 166.458C213.645 148.338 184.28 148.324 166.176 166.427C148.073 184.53 148.087 213.896 166.208 232.016" stroke="black" stroke-width="2" stroke-linejoin="round"/>
<path d="M231.796 232.046C249.899 213.943 249.885 184.578 231.764 166.458C213.644 148.337 184.279 148.323 166.175 166.426C148.072 184.529 148.086 213.895 166.207 232.015C184.327 250.136 213.692 250.15 231.796 232.046Z" fill="#F9F9F9" stroke="black" stroke-width="2" stroke-linecap="round" stroke-linejoin="round"/>
<path d="M83.4635 18.1567C65.343 0.036217 35.9778 0.0222107 17.8745 18.1255C-0.228712 36.2287 -0.214707 65.5939 17.9058 83.7144C36.0263 101.835 65.3915 101.849 83.4948 83.7457C101.598 65.6424 101.584 36.2773 83.4635 18.1567Z" fill="#F9F9F9" stroke="black" stroke-width="2" stroke-linecap="round" stroke-linejoin="round"/>
</svg>
