<svg width="252" height="252" viewBox="0 0 252 252" fill="none" xmlns="http://www.w3.org/2000/svg">
<path d="M78.0772 20.3086C47.2014 20.3086 22.1716 45.3384 22.1716 76.2141C22.1716 77.7338 22.2323 79.2394 22.3512 80.7286C31.8618 73.241 43.8621 68.7741 56.9056 68.7741C62.5958 68.7741 68.0875 69.6242 73.2605 71.2044C91.6638 76.8258 106.034 91.6868 110.966 110.381C111.8 113.541 112.364 116.811 112.632 120.165C115.564 117.856 118.26 115.261 120.676 112.42C122.819 109.902 124.742 107.192 126.416 104.318C131.227 96.0612 133.983 86.4595 133.983 76.2141C133.983 66.7301 131.621 57.7977 127.454 49.9728C119.042 34.1784 103.274 22.8964 84.7218 20.6994C82.5429 20.4414 80.3255 20.3086 78.0772 20.3086Z" fill="#F9F9F9"/>
<path d="M231.698 78.077C231.698 47.2013 206.668 22.1716 175.792 22.1716C174.271 22.1716 172.763 22.2324 171.272 22.3517C178.76 31.8622 183.226 43.8621 183.226 56.9055C183.226 62.5956 182.376 68.0872 180.796 73.2602C175.175 91.6637 160.313 106.035 141.619 110.966C138.463 111.798 135.197 112.362 131.849 112.63C134.619 115.947 137.695 118.978 139.58 120.671C142.099 122.814 144.811 124.738 147.685 126.414C155.943 131.226 165.546 133.982 175.792 133.982C185.275 133.982 194.206 131.622 202.03 127.456C205.282 125.724 208.343 123.681 211.172 121.365C222.086 112.435 229.561 99.4589 231.307 84.7268C231.565 82.5462 231.698 80.3271 231.698 78.077Z" fill="#F9F9F9"/>
<path d="M173.923 231.698C204.799 231.698 229.828 206.668 229.828 175.792C229.828 174.27 229.768 172.763 229.648 171.272C220.138 178.759 208.138 183.226 195.094 183.226C189.404 183.226 183.913 182.376 178.74 180.796C160.336 175.174 145.966 160.313 141.034 141.619C140.201 138.461 139.637 135.192 139.369 131.841C136.438 134.148 133.744 136.742 131.329 139.58C129.186 142.098 127.263 144.807 125.589 147.679C120.775 155.938 118.017 165.543 118.017 175.792C118.017 185.277 120.379 194.21 124.547 202.036C132.958 217.828 148.724 229.108 167.273 231.306C169.454 231.565 171.673 231.698 173.923 231.698Z" fill="#F9F9F9"/>
<path d="M20.3081 173.923C20.3081 204.799 45.3379 229.828 76.2137 229.828C77.7334 229.828 79.239 229.768 80.7282 229.649C73.2406 220.138 68.7736 208.138 68.7736 195.095C68.7736 189.404 69.6237 183.913 71.2039 178.74C76.8254 160.336 91.6867 145.965 110.381 141.034C113.541 140.201 116.811 139.637 120.165 139.369C117.856 136.437 115.261 133.741 112.42 131.325C109.904 129.184 107.195 127.261 104.324 125.588C96.0653 120.775 86.4615 118.018 76.2137 118.018C66.7276 118.018 57.7933 120.38 49.9672 124.549C34.1755 132.961 22.8958 148.728 20.6989 167.278C20.4408 169.457 20.3081 171.674 20.3081 173.923Z" fill="#F9F9F9"/>
<path fill-rule="evenodd" clip-rule="evenodd" d="M20.3081 173.923C20.3081 204.799 45.3379 229.828 76.2137 229.828C77.7334 229.828 79.239 229.768 80.7282 229.649C90.9647 242.651 106.847 251 124.679 251C141.742 251 157.019 243.356 167.273 231.306C169.454 231.565 171.673 231.698 173.923 231.698C204.799 231.698 229.828 206.668 229.828 175.792C229.828 174.27 229.768 172.763 229.648 171.272C242.651 161.035 251 145.153 251 127.32C251 110.258 243.356 94.9812 231.307 84.7268C231.565 82.5462 231.698 80.3271 231.698 78.077C231.698 47.2013 206.668 22.1716 175.792 22.1716C174.271 22.1716 172.763 22.2324 171.272 22.3517C161.036 9.34917 145.153 1 127.321 1C111.883 1 97.9065 7.25743 87.7896 17.3743C86.7232 18.4407 85.6996 19.55 84.7218 20.6994C82.5429 20.4414 80.3255 20.3086 78.0772 20.3086C47.2014 20.3086 22.1716 45.3384 22.1716 76.2141C22.1716 77.7338 22.2323 79.2394 22.3512 80.7286C9.34899 90.9651 1 106.847 1 124.68C1 141.744 8.64591 157.023 20.6989 167.278C20.4408 169.457 20.3081 171.674 20.3081 173.923ZM139.58 120.671C139.322 122.851 139.189 125.07 139.189 127.32C139.189 128.842 139.25 130.35 139.369 131.841C136.438 134.148 133.744 136.742 131.329 139.58C129.148 139.322 126.929 139.189 124.679 139.189C123.159 139.189 121.654 139.25 120.165 139.369C117.856 136.437 115.261 133.741 112.42 131.325C112.678 129.146 112.811 126.928 112.811 124.68C112.811 123.16 112.751 121.654 112.632 120.165C115.564 117.856 118.26 115.261 120.676 112.42C122.855 112.678 125.072 112.811 127.321 112.811C128.845 112.811 130.355 112.75 131.849 112.63C134.619 115.947 137.695 118.978 139.58 120.671Z" fill="#F9F9F9"/>
<path d="M84.7218 20.6994C85.6996 19.55 86.7232 18.4407 87.7896 17.3743C97.9065 7.25743 111.883 1 127.321 1C145.153 1 161.036 9.34917 171.272 22.3517M84.7218 20.6994C103.274 22.8964 119.042 34.1784 127.454 49.9728C131.621 57.7977 133.983 66.7301 133.983 76.2141C133.983 86.4595 131.227 96.0612 126.416 104.318C124.742 107.192 122.819 109.902 120.676 112.42M84.7218 20.6994C82.5429 20.4414 80.3255 20.3086 78.0772 20.3086C47.2014 20.3086 22.1716 45.3384 22.1716 76.2141C22.1716 77.7338 22.2322 79.2394 22.3512 80.7286M171.272 22.3517C178.76 31.8622 183.226 43.8621 183.226 56.9055C183.226 62.5956 182.376 68.0872 180.796 73.2602M171.272 22.3517C172.763 22.2324 174.271 22.1716 175.792 22.1716C206.668 22.1716 231.698 47.2013 231.698 78.077C231.698 80.3271 231.565 82.5462 231.307 84.7268M139.58 120.671C139.322 122.851 139.189 125.07 139.189 127.32C139.189 128.842 139.25 130.35 139.369 131.841M139.58 120.671C142.099 122.814 144.811 124.738 147.685 126.414C155.943 131.226 165.546 133.982 175.792 133.982C185.275 133.982 194.206 131.622 202.03 127.456C205.282 125.724 208.343 123.681 211.172 121.365C222.086 112.435 229.561 99.4589 231.307 84.7268M139.58 120.671C137.695 118.978 134.619 115.947 131.849 112.63M181.123 73.1751C181.014 73.2031 180.905 73.2315 180.796 73.2602M180.796 73.2602C175.175 91.6637 160.313 106.035 141.619 110.966C138.463 111.798 135.197 112.362 131.849 112.63M231.307 84.7268C243.356 94.9812 251 110.258 251 127.32C251 145.153 242.651 161.035 229.648 171.272M229.648 171.272C229.768 172.763 229.828 174.27 229.828 175.792C229.828 206.668 204.799 231.698 173.923 231.698C171.673 231.698 169.454 231.565 167.273 231.306M229.648 171.272C220.138 178.759 208.138 183.226 195.094 183.226C189.404 183.226 183.913 182.376 178.74 180.796C160.336 175.174 145.966 160.313 141.034 141.619C140.201 138.461 139.637 135.192 139.369 131.841M139.369 131.841C136.438 134.148 133.744 136.742 131.329 139.58M167.273 231.306C148.724 229.108 132.958 217.828 124.547 202.036C120.379 194.21 118.017 185.277 118.017 175.792C118.017 165.543 120.775 155.938 125.589 147.679C127.263 144.807 129.186 142.098 131.329 139.58M167.273 231.306C157.019 243.356 141.742 251 124.679 251C106.847 251 90.9647 242.651 80.7282 229.649M131.329 139.58C129.148 139.322 126.929 139.189 124.679 139.189C123.159 139.189 121.654 139.25 120.165 139.369M120.165 139.369C116.811 139.637 113.541 140.201 110.381 141.034C91.6867 145.965 76.8254 160.336 71.2039 178.74C69.6237 183.913 68.7736 189.404 68.7736 195.095C68.7736 208.138 73.2406 220.138 80.7282 229.649M120.165 139.369C117.856 136.437 115.261 133.741 112.42 131.325M80.7282 229.649C79.239 229.768 77.7334 229.828 76.2137 229.828C45.3379 229.828 20.3081 204.799 20.3081 173.923C20.3081 171.674 20.4408 169.457 20.6989 167.278M112.42 131.325C112.678 129.146 112.811 126.928 112.811 124.68C112.811 123.16 112.751 121.654 112.632 120.165M112.42 131.325C109.904 129.184 107.195 127.261 104.324 125.588C96.0653 120.775 86.4615 118.018 76.2137 118.018C66.7276 118.018 57.7933 120.38 49.9672 124.549C34.1755 132.961 22.8958 148.728 20.6989 167.278M20.6989 167.278C8.64591 157.024 1 141.744 1 124.68C1 106.847 9.34899 90.9651 22.3512 80.7286M112.632 120.165C112.364 116.811 111.8 113.541 110.966 110.381C106.034 91.6868 91.6638 76.8258 73.2605 71.2044C68.0875 69.6242 62.5958 68.7741 56.9056 68.7741C43.8621 68.7741 31.8618 73.241 22.3512 80.7286M112.632 120.165C115.564 117.856 118.26 115.261 120.676 112.42M120.676 112.42C122.855 112.678 125.072 112.811 127.321 112.811C128.845 112.811 130.355 112.75 131.849 112.63" stroke="black" stroke-width="2" stroke-linejoin="round"/>
<path fill-rule="evenodd" clip-rule="evenodd" d="M1 124.68C1 141.744 8.64591 157.023 20.6989 167.278C22.8958 148.728 34.1755 132.961 49.9672 124.549C57.7933 120.38 66.7276 118.018 76.2137 118.018C86.4615 118.018 96.0653 120.775 104.324 125.588C107.195 127.261 109.904 129.184 112.42 131.325C112.678 129.146 112.811 126.928 112.811 124.68C112.811 123.16 112.751 121.654 112.632 120.165C112.364 116.811 111.8 113.541 110.966 110.381C106.034 91.6868 91.6638 76.8258 73.2605 71.2044C68.0875 69.6242 62.5958 68.7741 56.9056 68.7741C43.8621 68.7741 31.8618 73.241 22.3512 80.7286C9.34899 90.9651 1 106.847 1 124.68ZM120.165 139.369C116.811 139.637 113.541 140.201 110.381 141.034C91.6867 145.965 76.8254 160.336 71.2039 178.74C69.6237 183.913 68.7736 189.404 68.7736 195.095C68.7736 208.138 73.2406 220.138 80.7282 229.649C90.9647 242.651 106.847 251 124.679 251C141.742 251 157.019 243.356 167.273 231.306C148.724 229.108 132.958 217.828 124.547 202.036C120.379 194.21 118.017 185.277 118.017 175.792C118.017 165.543 120.775 155.938 125.589 147.679C127.263 144.807 129.186 142.098 131.329 139.58C129.148 139.322 126.929 139.189 124.679 139.189C123.159 139.189 121.654 139.25 120.165 139.369ZM251 127.32C251 145.153 242.651 161.035 229.648 171.272C220.138 178.759 208.138 183.226 195.094 183.226C189.404 183.226 183.913 182.376 178.74 180.796C160.336 175.174 145.966 160.313 141.034 141.619C140.201 138.461 139.637 135.192 139.369 131.841C139.25 130.35 139.189 128.842 139.189 127.32C139.189 125.07 139.322 122.851 139.58 120.671C142.099 122.814 144.811 124.738 147.685 126.414C155.943 131.226 165.546 133.982 175.792 133.982C185.275 133.982 194.206 131.622 202.03 127.456C205.282 125.724 208.343 123.681 211.172 121.365C222.086 112.435 229.561 99.4589 231.307 84.7268C243.356 94.9812 251 110.258 251 127.32ZM131.849 112.63C135.197 112.362 138.463 111.798 141.619 110.966C160.313 106.035 175.175 91.6637 180.796 73.2602C182.376 68.0872 183.226 62.5956 183.226 56.9055C183.226 43.8621 178.76 31.8622 171.272 22.3517C161.036 9.34917 145.153 1 127.321 1C111.883 1 97.9065 7.25743 87.7896 17.3743C86.7232 18.4407 85.6996 19.55 84.7218 20.6994C103.274 22.8964 119.042 34.1784 127.454 49.9728C131.621 57.7977 133.983 66.7301 133.983 76.2141C133.983 86.4595 131.227 96.0612 126.416 104.318C124.742 107.192 122.819 109.902 120.676 112.42C122.855 112.678 125.072 112.811 127.321 112.811C128.845 112.811 130.355 112.75 131.849 112.63Z" fill="#F9F9F9"/>
<path d="M84.7218 20.6994C85.6996 19.55 86.7232 18.4407 87.7896 17.3743C97.9065 7.25743 111.883 1 127.321 1C145.153 1 161.036 9.34917 171.272 22.3517M84.7218 20.6994C103.274 22.8964 119.042 34.1784 127.454 49.9728C131.621 57.7977 133.983 66.7301 133.983 76.2141C133.983 86.4595 131.227 96.0612 126.416 104.318C124.742 107.192 122.819 109.902 120.676 112.42M84.7218 20.6994C82.5429 20.4414 80.3255 20.3086 78.0772 20.3086C47.2014 20.3086 22.1716 45.3384 22.1716 76.2141C22.1716 77.7338 22.2322 79.2394 22.3512 80.7286M171.272 22.3517C178.76 31.8622 183.226 43.8621 183.226 56.9055C183.226 62.5956 182.376 68.0872 180.796 73.2602M171.272 22.3517C172.763 22.2324 174.271 22.1716 175.792 22.1716C206.668 22.1716 231.698 47.2013 231.698 78.077C231.698 80.3271 231.565 82.5462 231.307 84.7268M139.58 120.671C139.322 122.851 139.189 125.07 139.189 127.32C139.189 128.842 139.25 130.35 139.369 131.841M139.58 120.671C142.099 122.814 144.811 124.738 147.685 126.414C155.943 131.226 165.546 133.982 175.792 133.982C185.275 133.982 194.206 131.622 202.03 127.456C205.282 125.724 208.343 123.681 211.172 121.365C222.086 112.435 229.561 99.4589 231.307 84.7268M139.58 120.671C137.695 118.978 134.619 115.947 131.849 112.63M181.123 73.1751C181.014 73.2031 180.905 73.2315 180.796 73.2602M180.796 73.2602C175.175 91.6637 160.313 106.035 141.619 110.966C138.463 111.798 135.197 112.362 131.849 112.63M231.307 84.7268C243.356 94.9812 251 110.258 251 127.32C251 145.153 242.651 161.035 229.648 171.272M229.648 171.272C229.768 172.763 229.828 174.27 229.828 175.792C229.828 206.668 204.799 231.698 173.923 231.698C171.673 231.698 169.454 231.565 167.273 231.306M229.648 171.272C220.138 178.759 208.138 183.226 195.094 183.226C189.404 183.226 183.913 182.376 178.74 180.796C160.336 175.174 145.966 160.313 141.034 141.619C140.201 138.461 139.637 135.192 139.369 131.841M139.369 131.841C136.438 134.148 133.744 136.742 131.329 139.58M167.273 231.306C148.724 229.108 132.958 217.828 124.547 202.036C120.379 194.21 118.017 185.277 118.017 175.792C118.017 165.543 120.775 155.938 125.589 147.679C127.263 144.807 129.186 142.098 131.329 139.58M167.273 231.306C157.019 243.356 141.742 251 124.679 251C106.847 251 90.9647 242.651 80.7282 229.649M131.329 139.58C129.148 139.322 126.929 139.189 124.679 139.189C123.159 139.189 121.654 139.25 120.165 139.369M120.165 139.369C116.811 139.637 113.541 140.201 110.381 141.034C91.6867 145.965 76.8254 160.336 71.2039 178.74C69.6237 183.913 68.7736 189.404 68.7736 195.095C68.7736 208.138 73.2406 220.138 80.7282 229.649M120.165 139.369C117.856 136.437 115.261 133.741 112.42 131.325M80.7282 229.649C79.239 229.768 77.7334 229.828 76.2137 229.828C45.3379 229.828 20.3081 204.799 20.3081 173.923C20.3081 171.674 20.4408 169.457 20.6989 167.278M112.42 131.325C112.678 129.146 112.811 126.928 112.811 124.68C112.811 123.16 112.751 121.654 112.632 120.165M112.42 131.325C109.904 129.184 107.195 127.261 104.324 125.588C96.0653 120.775 86.4615 118.018 76.2137 118.018C66.7276 118.018 57.7933 120.38 49.9672 124.549C34.1755 132.961 22.8958 148.728 20.6989 167.278M20.6989 167.278C8.64591 157.024 1 141.744 1 124.68C1 106.847 9.34899 90.9651 22.3512 80.7286M112.632 120.165C112.364 116.811 111.8 113.541 110.966 110.381C106.034 91.6868 91.6638 76.8258 73.2605 71.2044C68.0875 69.6242 62.5958 68.7741 56.9056 68.7741C43.8621 68.7741 31.8618 73.241 22.3512 80.7286M112.632 120.165C115.564 117.856 118.26 115.261 120.676 112.42M120.676 112.42C122.855 112.678 125.072 112.811 127.321 112.811C128.845 112.811 130.355 112.75 131.849 112.63" stroke="black" stroke-width="2" stroke-linecap="round" stroke-linejoin="round"/>
</svg>
