<svg width="252" height="250" viewBox="0 0 252 250" fill="none" xmlns="http://www.w3.org/2000/svg">
<path fill-rule="evenodd" clip-rule="evenodd" d="M251 102.246C251 84.4734 240.635 69.1279 225.635 61.9543C219.839 59.1821 213.35 57.6303 206.5 57.6303C181.924 57.6304 162 77.6056 162 102.246C162 111.965 165.1 120.959 170.362 128.287C173.97 133.311 178.595 137.552 183.934 140.708C185.311 141.375 186.667 142.085 188 142.835C193.634 145.421 199.899 146.862 206.5 146.862C231.077 146.862 251 126.887 251 102.246ZM222.201 184.682C214.607 161.247 189.502 148.423 166.128 156.037C156.909 159.04 149.336 164.775 144.011 172.057C140.36 177.049 137.767 182.768 136.423 188.833C136.092 190.328 135.836 191.844 135.66 193.375C134.949 199.545 135.518 205.963 137.558 212.256C145.152 235.691 170.257 248.516 193.631 240.901C210.49 235.409 221.843 220.784 224.013 204.265C224.851 197.881 224.318 191.214 222.201 184.682ZM106.534 238.915C126.417 224.432 130.825 196.531 116.379 176.596C110.681 168.733 102.901 163.284 94.3471 160.456C88.4824 158.518 82.2542 157.812 76.0843 158.406C74.5674 158.552 73.054 158.776 71.5504 159.08C65.4764 160.309 59.5624 162.835 54.2217 166.725C34.3389 181.209 29.9312 209.11 44.377 229.045C54.7963 243.423 72.1778 249.73 88.5185 246.694C94.8332 245.521 100.992 242.952 106.534 238.915ZM19.3466 145.381C13.8048 141.344 9.46515 136.265 6.40091 130.606C-1.52859 115.963 -0.917483 97.4401 9.50185 83.0618C23.9476 63.1271 51.7764 58.7079 71.6592 73.1913C76.9992 77.0811 81.2229 81.9388 84.2649 87.35C85.0189 88.6912 85.7004 90.0665 86.3082 91.4695C88.7773 97.1687 90.032 103.325 90.0054 109.516C89.9667 118.545 87.202 127.648 81.504 135.511C67.0583 155.445 39.2295 159.865 19.3466 145.381ZM91.1435 16.4309C86.7226 21.1014 83.2455 26.809 81.1287 33.3408C73.5342 56.7754 86.3257 81.9456 109.699 89.5599C118.919 92.5634 128.408 92.3867 136.985 89.6333C142.867 87.7452 148.32 84.6454 152.964 80.5285C154.105 79.5172 155.197 78.4446 156.234 77.3134C160.428 72.7399 163.732 67.2102 165.772 60.9148C173.367 37.4802 160.575 12.31 137.202 4.69568C120.343 -0.796346 102.583 4.34485 91.1435 16.4309Z" fill="#F9F9F9"/>
<path d="M206.5 57.6303C181.924 57.6304 162 77.6056 162 102.246C162 111.965 165.1 120.959 170.362 128.287C173.97 133.311 178.595 137.552 183.934 140.708M206.5 57.6303C187.105 57.6304 169.45 65.0943 156.234 77.3134M206.5 57.6303C213.35 57.6303 219.839 59.1821 225.635 61.9543C240.635 69.1279 251 84.4734 251 102.246C251 126.887 231.077 146.862 206.5 146.862C199.899 146.862 193.634 145.421 188 142.835M81.1287 33.3408C73.5342 56.7754 86.3257 81.9456 109.699 89.5599C118.919 92.5634 128.408 92.3867 136.985 89.6333C142.867 87.7452 148.32 84.6454 152.964 80.5285M81.1287 33.3408C75.1359 51.8329 76.7594 70.9734 84.2649 87.35M81.1287 33.3408C83.2455 26.809 86.7227 21.1014 91.1435 16.4309C102.583 4.34485 120.343 -0.796346 137.202 4.69568C160.575 12.31 173.367 37.4802 165.772 60.9148C163.732 67.2102 160.428 72.7399 156.234 77.3134M222.201 184.682C214.607 161.247 189.502 148.423 166.128 156.037C156.909 159.04 149.336 164.775 144.011 172.057C140.36 177.049 137.767 182.768 136.423 188.833M222.201 184.682C216.209 166.19 203.674 151.661 188 142.835M222.201 184.682C224.318 191.214 224.851 197.881 224.013 204.265C221.843 220.784 210.49 235.409 193.631 240.901C170.257 248.516 145.152 235.691 137.558 212.256C135.518 205.963 134.949 199.545 135.66 193.375M106.534 238.915C126.417 224.432 130.825 196.531 116.379 176.596C110.681 168.733 102.901 163.284 94.3471 160.456C88.4824 158.518 82.2542 157.812 76.0843 158.406M106.534 238.915C122.223 227.487 132.131 211.046 135.66 193.375M106.534 238.915C100.992 242.952 94.8332 245.521 88.5185 246.694C72.1778 249.73 54.7963 243.423 44.377 229.045C29.9312 209.11 34.3389 181.209 54.2217 166.725C59.5624 162.835 65.4764 160.309 71.5504 159.08M19.3466 145.381C39.2295 159.865 67.0583 155.445 81.504 135.511C87.202 127.648 89.9667 118.545 90.0054 109.516C90.032 103.325 88.7773 97.1687 86.3082 91.4695M19.3466 145.381C35.0368 156.81 53.6958 161.177 71.5504 159.08M19.3466 145.381C13.8048 141.344 9.46515 136.265 6.40091 130.606C-1.52859 115.963 -0.917483 97.4401 9.50185 83.0618C23.9476 63.1271 51.7764 58.7079 71.6592 73.1913C76.9992 77.0811 81.2229 81.9388 84.2649 87.35M156.234 77.3134C155.197 78.4446 154.105 79.5172 152.964 80.5285M156.234 77.3134C155.111 78.3514 154.021 79.4236 152.964 80.5285M188 142.835C186.667 142.085 185.311 141.375 183.934 140.708M188 142.835C186.605 142.195 185.248 141.484 183.934 140.708M135.66 193.375C135.836 191.844 136.092 190.328 136.423 188.833M135.66 193.375C135.961 191.869 136.215 190.355 136.423 188.833M86.3082 91.4695C85.5852 90.1177 84.9038 88.7439 84.2649 87.35M86.3082 91.4695C85.7004 90.0665 85.0189 88.6912 84.2649 87.35M71.5504 159.08C73.054 158.776 74.5674 158.552 76.0843 158.406M71.5504 159.08C73.0683 158.902 74.5804 158.677 76.0843 158.406" stroke="black" stroke-width="2" stroke-linejoin="round"/>
<path d="M162 102.246C162 77.6056 181.923 57.6304 206.499 57.6303C187.105 57.6304 169.449 65.0943 156.233 77.3134C155.196 78.4446 154.104 79.5172 152.963 80.5285C148.319 84.6454 142.866 87.7452 136.984 89.6333C128.407 92.3867 118.918 92.5634 109.698 89.5599C86.3248 81.9456 73.5333 56.7754 81.1278 33.3408C75.135 51.8329 76.7584 70.9734 84.264 87.35C85.018 88.6912 85.6994 90.0665 86.3073 91.4695C88.7764 97.1687 90.0311 103.325 90.0045 109.516C89.9657 118.545 87.201 127.648 81.5031 135.511C67.0574 155.445 39.2285 159.865 19.3457 145.381C35.0358 156.81 53.6949 161.177 71.5495 159.08C73.0531 158.776 74.5665 158.552 76.0834 158.406C82.2532 157.812 88.4815 158.518 94.3462 160.456C102.9 163.284 110.68 168.733 116.378 176.596C130.824 196.531 126.416 224.432 106.533 238.915C122.222 227.487 132.13 211.046 135.659 193.375C135.835 191.844 136.091 190.328 136.422 188.833C137.766 182.768 140.36 177.049 144.01 172.057C149.335 164.775 156.908 159.04 166.128 156.037C189.501 148.423 214.606 161.247 222.201 184.682C216.208 166.19 203.673 151.661 187.999 142.835C186.604 142.195 185.247 141.484 183.933 140.708C178.594 137.552 173.969 133.311 170.361 128.287C165.099 120.959 162 111.965 162 102.246Z" fill="#F9F9F9" stroke="black" stroke-width="2" stroke-linecap="round" stroke-linejoin="round"/>
</svg>
