<svg width="252" height="252" viewBox="0 0 252 252" fill="none" xmlns="http://www.w3.org/2000/svg">
<path d="M63.5 63.5C63.5 98.0178 91.4822 126 126 126V1C91.4822 1 63.5 28.9822 63.5 63.5Z" fill="#F9F9F9"/>
<path d="M188.5 63.5C153.982 63.5 126 91.4822 126 126H251C251 91.4822 223.018 63.5 188.5 63.5Z" fill="#F9F9F9"/>
<path d="M188.5 188.5C188.5 153.982 160.518 126 126 126V251C160.518 251 188.5 223.018 188.5 188.5Z" fill="#F9F9F9"/>
<path d="M63.5 188.5C98.0178 188.5 126 160.518 126 126H1C1 160.518 28.9822 188.5 63.5 188.5Z" fill="#F9F9F9"/>
<path d="M126 126C91.4822 126 63.5 98.0178 63.5 63.5C63.5 28.9822 91.4822 1 126 1V126ZM126 126C126 91.4822 153.982 63.5 188.5 63.5C223.018 63.5 251 91.4822 251 126H126ZM126 126C160.518 126 188.5 153.982 188.5 188.5C188.5 223.018 160.518 251 126 251V126ZM126 126C126 160.518 98.0178 188.5 63.5 188.5C28.9822 188.5 1 160.518 1 126H126Z" stroke="black" stroke-width="2" stroke-linejoin="round"/>
<path d="M188.5 63.5C153.982 63.5 126 91.4822 126 126H251C251 91.4822 223.018 63.5 188.5 63.5Z" fill="#F9F9F9"/>
<path d="M63.5 188.5C98.0178 188.5 126 160.518 126 126H1C1 160.518 28.9822 188.5 63.5 188.5Z" fill="#F9F9F9"/>
<path d="M126 126C91.4822 126 63.5 98.0178 63.5 63.5C63.5 28.9822 91.4822 1 126 1V126ZM126 126C126 91.4822 153.982 63.5 188.5 63.5C223.018 63.5 251 91.4822 251 126H126ZM126 126C160.518 126 188.5 153.982 188.5 188.5C188.5 223.018 160.518 251 126 251V126ZM126 126C126 160.518 98.0178 188.5 63.5 188.5C28.9822 188.5 1 160.518 1 126H126Z" stroke="black" stroke-width="2" stroke-linecap="round" stroke-linejoin="round"/>
</svg>
