<svg width="252" height="252" viewBox="0 0 252 252" fill="none" xmlns="http://www.w3.org/2000/svg">
<path fill-rule="evenodd" clip-rule="evenodd" d="M1 1H126V27.3541C71.5193 27.3541 27.3541 71.5193 27.3541 126H1V1Z" fill="#F9F9F9"/>
<path d="M126 27.3541V126V224.646C180.481 224.646 224.646 180.481 224.646 126C224.646 71.5193 180.481 27.3541 126 27.3541Z" fill="#F9F9F9"/>
<path d="M126 126V27.3541C71.5193 27.3541 27.3541 71.5193 27.3541 126C27.3541 180.481 71.5193 224.646 126 224.646V126Z" fill="#F9F9F9"/>
<path d="M251 251V126H224.646C224.646 180.481 180.481 224.646 126 224.646V251H251Z" fill="#F9F9F9"/>
<path d="M126 1H1V126H27.3541M126 1V126M126 1V27.3541M126 126V251M126 126V27.3541M126 126V224.646M126 251H251V126H224.646M126 251V224.646M126 224.646C71.5193 224.646 27.3541 180.481 27.3541 126M126 224.646C180.481 224.646 224.646 180.481 224.646 126M27.3541 126C27.3541 71.5193 71.5193 27.3541 126 27.3541M224.646 126C224.646 71.5193 180.481 27.3541 126 27.3541" stroke="black" stroke-width="2" stroke-linejoin="round"/>
<path d="M251 251V126H224.646C224.646 180.481 180.481 224.646 126 224.646V251H251Z" fill="#F9F9F9"/>
<path d="M126 126V27.3541C71.5193 27.3541 27.3541 71.5193 27.3541 126C27.3541 180.481 71.5193 224.646 126 224.646V126Z" fill="#F9F9F9"/>
<path d="M126 1H1V126H27.3541M126 1V126M126 1V27.3541M126 126V251M126 126V27.3541M126 126V224.646M126 251H251V126H224.646M126 251V224.646M126 224.646C71.5193 224.646 27.3541 180.481 27.3541 126M126 224.646C180.481 224.646 224.646 180.481 224.646 126M27.3541 126C27.3541 71.5193 71.5193 27.3541 126 27.3541M224.646 126C224.646 71.5193 180.481 27.3541 126 27.3541" stroke="black" stroke-width="2" stroke-linecap="round" stroke-linejoin="round"/>
</svg>
