<svg width="252" height="252" viewBox="0 0 252 252" fill="none" xmlns="http://www.w3.org/2000/svg">
<path d="M87.6612 32.7461C72.6535 22.6803 51.7059 23.8058 37.8999 37.6117C24.1873 51.3243 22.9843 72.0823 32.8317 87.0678C15.0615 90.5289 1 106.156 1 125.712C1 145.431 15.2971 161.155 33.2772 164.44C22.9906 179.467 24.0372 200.606 37.9367 214.505C51.7426 228.311 72.6903 229.437 87.698 219.371C91.1926 237.1 106.764 251 126.288 251C145.813 251 161.421 236.984 164.915 219.254C179.923 229.32 200.871 228.194 214.677 214.388C228.576 200.489 229.623 179.35 219.336 164.322C237.027 160.796 251 145.206 251 125.712C251 106.343 237.243 90.9449 219.714 87.2871C229.634 72.2939 228.457 51.4724 214.713 37.7284C200.907 23.9225 179.96 22.797 164.952 32.8627C161.458 15.1331 145.813 1 126.288 1C106.764 1 91.1557 15.0164 87.6612 32.7461Z" fill="#F9F9F9"/>
<path d="M49.1866 164.048C43.7489 165.302 38.3656 165.369 33.2772 164.44M202.813 87.3752C208.592 86.0421 214.347 86.1672 219.714 87.2871M164.625 202.813C165.923 208.441 165.949 214.01 164.915 219.254M87.9519 49.1866C86.6538 43.5593 86.6276 37.9903 87.6612 32.7461M99.1177 207.54C96.0565 212.437 92.1371 216.393 87.698 219.371M153.532 44.6936C156.594 39.7965 160.513 35.8401 164.952 32.8627M207.711 153.207C212.496 156.198 216.383 160.009 219.336 164.322M44.8651 98.7927C39.8561 95.6616 35.8312 91.6325 32.8317 87.0678M87.6612 32.7461C72.6535 22.6803 51.7059 23.8058 37.8999 37.6117C24.1873 51.3243 22.9843 72.0823 32.8317 87.0678M87.6612 32.7461C91.1557 15.0164 106.764 1 126.288 1C145.813 0.999999 161.458 15.1331 164.952 32.8627M164.952 32.8627C179.96 22.797 200.907 23.9225 214.713 37.7284C228.457 51.4724 229.634 72.2939 219.714 87.2871M219.714 87.2871C237.243 90.9449 251 106.343 251 125.712C251 145.206 237.027 160.796 219.336 164.322M219.336 164.322C229.623 179.35 228.576 200.489 214.677 214.388C200.871 228.194 179.923 229.32 164.915 219.254M164.915 219.254C161.421 236.984 145.813 251 126.288 251C106.764 251 91.1926 237.1 87.698 219.371M87.698 219.371C72.6903 229.437 51.7426 228.311 37.9367 214.505C24.0372 200.606 22.9906 179.467 33.2772 164.44M33.2772 164.44C15.2971 161.155 1 145.431 1 125.712C1 106.156 15.0615 90.5289 32.8317 87.0678" stroke="black" stroke-width="2" stroke-linejoin="round"/>
<path d="M87.4738 47.1465L123.291 82.2028L154.516 43L155.054 93.1152L204.854 87.4738L169.797 123.291L209 154.516L158.885 155.054L164.526 204.854L128.709 169.797L97.4843 209L96.9461 158.885L47.1465 164.526L82.2028 128.709L43 97.4843L93.1152 96.9461L87.4738 47.1465Z" fill="#F9F9F9" stroke="black" stroke-width="2" stroke-linecap="round" stroke-linejoin="round"/>
</svg>
