<svg width="252" height="250" viewBox="0 0 252 250" fill="none" xmlns="http://www.w3.org/2000/svg">
<path d="M251 74.2041L215.229 12.1436L183.503 69.5635L149.456 131.181L181.474 186.731L185.227 193.242L188.824 186.731L251 74.2041Z" fill="#F9F9F9"/>
<path d="M36.7709 40.1149L1 102.175L66.5069 100.988L136.803 99.7146L168.821 44.1652L172.574 37.6543L165.146 37.7889L36.7709 40.1149Z" fill="#F9F9F9"/>
<path d="M114.412 243L185.953 243L152.173 186.767L115.924 126.424L51.8887 126.424L44.3827 126.424L48.2133 132.8L114.412 243Z" fill="#F9F9F9"/>
<path d="M215.229 12.1436L147.688 7.5L165.146 37.7889L172.574 37.6543L168.821 44.1652L183.458 69.5604L183.503 69.5635L215.229 12.1436Z" fill="#F9F9F9"/>
<path d="M1 102.175L30.7555 163.088L48.2133 132.8L44.3827 126.424L51.8887 126.424L66.5264 101.028L66.5069 100.988L1 102.175Z" fill="#F9F9F9"/>
<path d="M185.953 243L223.739 186.731L188.824 186.731L185.227 193.242L181.474 186.731L152.198 186.731L152.173 186.767L185.953 243Z" fill="#F9F9F9"/>
<path d="M185.953 243L223.739 186.731L188.824 186.731M185.953 243L114.412 243L48.2133 132.8M185.953 243L152.173 186.767M152.173 186.767L152.198 186.731L181.474 186.731M152.173 186.767L115.924 126.424L51.8887 126.424M1 102.175L30.7555 163.088L48.2133 132.8M1 102.175L36.7709 40.1149L165.146 37.7889M1 102.175L66.5069 100.988M66.5069 100.988L66.5264 101.028L51.8887 126.424M66.5069 100.988L136.803 99.7146L168.821 44.1652M215.229 12.1436L147.688 7.5L165.146 37.7889M215.229 12.1436L251 74.2041L188.824 186.731M215.229 12.1436L183.503 69.5635M183.503 69.5635L183.458 69.5604L168.821 44.1652M183.503 69.5635L149.456 131.181L181.474 186.731M168.821 44.1652L172.574 37.6543L165.146 37.7889M181.474 186.731L185.227 193.242L188.824 186.731M51.8887 126.424L44.3827 126.424L48.2133 132.8" stroke="black" stroke-width="2" stroke-linejoin="round"/>
<path d="M215.229 12.1436L147.688 7.5L165.146 37.7889L172.574 37.6543L168.821 44.1652L183.458 69.5604L183.503 69.5635L215.229 12.1436Z" fill="#F9F9F9"/>
<path d="M1 102.175L30.7555 163.088L48.2133 132.8L44.3827 126.424L51.8887 126.424L66.5264 101.028L66.5069 100.988L1 102.175Z" fill="#F9F9F9"/>
<path d="M185.953 243L223.739 186.731L188.824 186.731L185.227 193.242L181.474 186.731L152.198 186.731L152.173 186.767L185.953 243Z" fill="#F9F9F9"/>
<path d="M185.953 243L223.739 186.731L188.824 186.731M185.953 243L114.412 243L48.2133 132.8M185.953 243L152.173 186.767M152.173 186.767L152.198 186.731L181.474 186.731M152.173 186.767L115.924 126.424L51.8887 126.424M1 102.175L30.7555 163.088L48.2133 132.8M1 102.175L36.7709 40.1149L165.146 37.7889M1 102.175L66.5069 100.988M66.5069 100.988L66.5264 101.028L51.8887 126.424M66.5069 100.988L136.803 99.7146L168.821 44.1652M215.229 12.1436L147.688 7.5L165.146 37.7889M215.229 12.1436L251 74.2041L188.824 186.731M215.229 12.1436L183.503 69.5635M183.503 69.5635L183.458 69.5604L168.821 44.1652M183.503 69.5635L149.456 131.181L181.474 186.731M168.821 44.1652L172.574 37.6543L165.146 37.7889M181.474 186.731L185.227 193.242L188.824 186.731M51.8887 126.424L44.3827 126.424L48.2133 132.8" stroke="black" stroke-width="2" stroke-linejoin="round"/>
</svg>
