<svg width="252" height="250" viewBox="0 0 252 250" fill="none" xmlns="http://www.w3.org/2000/svg">
<path d="M60.9945 124.166L5.17677 156.341L56.8205 184.88L112.24 215.504L140.118 199.434L139.54 167.57L102.411 147.053L74.4839 131.62L60.9945 124.166Z" fill="#F9F9F9"/>
<path d="M179.333 100.84L179.333 36.4884L128.757 66.8734L74.484 99.4797L74.4839 131.62L102.411 147.053L138.773 125.207L166.123 108.776L179.333 100.84Z" fill="#F9F9F9"/>
<path d="M140.397 214.824L196.214 247L195.146 188.077L194.001 124.845L166.123 108.776L138.773 125.207L139.54 167.57L140.118 199.434L140.397 214.824Z" fill="#F9F9F9"/>
<path d="M128.724 2.5L128.724 66.8511L128.757 66.8734L179.333 36.4884L128.724 2.5Z" fill="#F9F9F9"/>
<path d="M1 217.095L56.8178 184.919L56.8205 184.88L5.17677 156.341L1 217.095Z" fill="#F9F9F9"/>
<path d="M251 220.235L195.182 188.059L195.146 188.077L196.214 247L251 220.235Z" fill="#F9F9F9"/>
<path d="M179.333 36.4884L128.724 2.5L128.724 66.8511L128.757 66.8734M179.333 36.4884L179.333 100.84L166.123 108.776M179.333 36.4884L128.757 66.8734M128.757 66.8734L74.484 99.4797L74.4839 131.62M196.214 247L251 220.235L195.182 188.059L195.146 188.077M196.214 247L140.397 214.824L140.118 199.434M196.214 247L195.146 188.077M195.146 188.077L194.001 124.845L166.123 108.776M5.17677 156.341L1 217.095L56.8178 184.919L56.8205 184.88M5.17677 156.341L60.9945 124.166L74.4839 131.62M5.17677 156.341L56.8205 184.88M56.8205 184.88L112.24 215.504L140.118 199.434M140.118 199.434L139.54 167.57M139.54 167.57L102.411 147.053M139.54 167.57L138.773 125.207M102.411 147.053L74.4839 131.62M102.411 147.053L138.773 125.207M138.773 125.207L166.123 108.776" stroke="black" stroke-width="2" stroke-linejoin="round"/>
<path d="M60.9945 124.166L5.17677 156.341L56.8205 184.88L112.24 215.504L140.118 199.434L139.54 167.57L102.411 147.053L74.4839 131.62L60.9945 124.166Z" fill="#F9F9F9"/>
<path d="M179.333 100.84L179.333 36.4884L128.757 66.8734L74.484 99.4797L74.4839 131.62L102.411 147.053L138.773 125.207L166.123 108.776L179.333 100.84Z" fill="#F9F9F9"/>
<path d="M140.397 214.824L196.214 247L195.146 188.077L194.001 124.845L166.123 108.776L138.773 125.207L139.54 167.57L140.118 199.434L140.397 214.824Z" fill="#F9F9F9"/>
<path d="M179.333 36.4884L128.724 2.5L128.724 66.8511L128.757 66.8734M179.333 36.4884L179.333 100.84L166.123 108.776M179.333 36.4884L128.757 66.8734M128.757 66.8734L74.484 99.4797L74.4839 131.62M196.214 247L251 220.235L195.182 188.059L195.146 188.077M196.214 247L140.397 214.824L140.118 199.434M196.214 247L195.146 188.077M195.146 188.077L194.001 124.845L166.123 108.776M5.17677 156.341L1 217.095L56.8178 184.919L56.8205 184.88M5.17677 156.341L60.9945 124.166L74.4839 131.62M5.17677 156.341L56.8205 184.88M56.8205 184.88L112.24 215.504L140.118 199.434M140.118 199.434L139.54 167.57M139.54 167.57L102.411 147.053M139.54 167.57L138.773 125.207M102.411 147.053L74.4839 131.62M102.411 147.053L138.773 125.207M138.773 125.207L166.123 108.776" stroke="black" stroke-width="2" stroke-linejoin="round"/>
</svg>
