<svg width="250" height="252" viewBox="0 0 250 252" fill="none" xmlns="http://www.w3.org/2000/svg">
<path fill-rule="evenodd" clip-rule="evenodd" d="M154.686 72.2851L154.685 72.2856L154.685 72.2861L94.8033 108.405L39 142.064L39 70.7791L154.686 1L154.686 72.2851Z" fill="#F9F9F9"/>
<path fill-rule="evenodd" clip-rule="evenodd" d="M94.8384 179.715L94.8392 179.714L94.8399 179.714L154.721 143.595L210.525 109.936V181.221L94.8384 251V179.715Z" fill="#F9F9F9"/>
<path d="M94.8399 179.714L94.8399 108.43L94.8033 108.405L39 142.064L94.8392 179.714L94.8399 179.714Z" fill="#F9F9F9"/>
<path d="M154.685 72.2856L154.685 72.2861V143.57L154.721 143.595L210.525 109.936L154.685 72.2856Z" fill="#F9F9F9"/>
<path d="M39 142.064L39 70.7791L154.686 1L154.686 72.2851L154.685 72.2856M39 142.064L94.8033 108.405M39 142.064L94.8392 179.714M94.8033 108.405L94.8399 108.43L94.8399 179.714M94.8033 108.405L154.685 72.2861M210.525 109.936V181.221L94.8384 251V179.715L94.8392 179.714M210.525 109.936L154.721 143.595M210.525 109.936L154.685 72.2856M154.721 143.595L154.685 143.57V72.2861M154.721 143.595L94.8399 179.714M94.8399 179.714L94.8392 179.714M94.8399 179.714V179.715L94.8392 179.714M154.685 72.2856L154.685 72.2861M154.685 72.2856L154.685 72.2851V72.2861" stroke="black" stroke-width="2" stroke-linejoin="round"/>
<path fill-rule="evenodd" clip-rule="evenodd" d="M154.686 72.2851L94.8033 108.405L39 142.064L39 70.7791L154.686 1L154.686 72.2851Z" fill="#F9F9F9"/>
<path fill-rule="evenodd" clip-rule="evenodd" d="M94.8384 179.715L154.721 143.595L210.525 109.936V181.221L94.8384 251V179.715Z" fill="#F9F9F9"/>
<path d="M39 142.064L94.8399 179.715L94.8399 108.43L94.8033 108.405M39 142.064L39 70.7791L154.686 1L154.686 72.2851L94.8033 108.405M39 142.064L94.8033 108.405M210.525 109.936L154.685 72.2851V143.57L154.721 143.595M210.525 109.936V181.221L94.8384 251V179.715L154.721 143.595M210.525 109.936L154.721 143.595" stroke="black" stroke-width="2" stroke-linejoin="round"/>
</svg>
