<svg width="252" height="252" viewBox="0 0 252 252" fill="none" xmlns="http://www.w3.org/2000/svg">
<path d="M171.404 126H251L166.919 1H164.677H87.3229L126 58.5L171.404 126Z" fill="#F9F9F9"/>
<path d="M87.3229 251H164.677L126 193.5L80.5964 126H1L85.0807 251H87.3229Z" fill="#F9F9F9"/>
<path d="M1 126H80.5964L126 58.5L87.3229 1H85.0807L1 126Z" fill="#F9F9F9"/>
<path d="M251 126H171.404L126 193.5L164.677 251H166.919L251 126Z" fill="#F9F9F9"/>
<path d="M171.404 126H251M171.404 126L126 58.5M171.404 126L126 193.5M251 126L166.919 251M251 126L166.919 1M166.919 251H87.3229M166.919 251H164.677M87.3229 251H164.677M87.3229 251H85.0807M80.5964 126H1M80.5964 126L126 58.5M80.5964 126L126 193.5M1 126L85.0807 1M1 126L85.0807 251M85.0807 1H164.677M85.0807 1H87.3229M164.677 1H87.3229M164.677 1H166.919M85.0807 251H164.677M164.677 251L126 193.5M166.919 1H87.3229M87.3229 1L126 58.5" stroke="black" stroke-width="2" stroke-linejoin="round"/>
<path d="M171.404 126H251L166.919 1H164.677H87.3229L126 58.5L171.404 126Z" fill="#F9F9F9"/>
<path d="M87.3229 251H164.677L126 193.5L80.5964 126H1L85.0807 251H87.3229Z" fill="#F9F9F9"/>
<path d="M171.404 126H251M171.404 126L126 58.5M171.404 126L126 193.5M251 126L166.919 251H87.3229M251 126L166.919 1M87.3229 251H164.677M87.3229 251H85.0807M80.5964 126H1M80.5964 126L126 58.5M80.5964 126L126 193.5M1 126L85.0807 1H164.677M1 126L85.0807 251M164.677 1H87.3229M164.677 1H166.919M85.0807 251H164.677M164.677 251L126 193.5M166.919 1H87.3229M87.3229 1L126 58.5" stroke="black" stroke-width="2" stroke-linejoin="round"/>
</svg>
