<svg width="250" height="252" viewBox="0 0 250 252" fill="none" xmlns="http://www.w3.org/2000/svg">
<path d="M130.863 126H232.747L176.065 191.833L125.123 251H23.2399L74.1816 191.833L125.123 132.667L130.863 126Z" fill="#F9F9F9"/>
<path d="M17.5 126H119.383L125.123 119.333L176.065 60.1667L227.007 1H125.123L74.1816 60.1667L17.5 126Z" fill="#F9F9F9"/>
<path d="M125.123 1H23.2399L74.1816 60.1667L125.123 1Z" fill="#F9F9F9"/>
<path d="M130.863 126H232.747L176.065 60.1667L125.123 119.333L130.863 126Z" fill="#F9F9F9"/>
<path d="M119.383 126H17.5L74.1816 191.833L125.123 132.667L119.383 126Z" fill="#F9F9F9"/>
<path d="M125.123 251H227.007L176.065 191.833L125.123 251Z" fill="#F9F9F9"/>
<path d="M130.863 126H232.747M130.863 126L125.123 119.333M130.863 126L125.123 132.667M232.747 126L176.065 60.1667M232.747 126L176.065 191.833M125.123 251H23.2399L74.1816 191.833M125.123 251H227.007L176.065 191.833M125.123 251L176.065 191.833M119.383 126H17.5M119.383 126L125.123 119.333M119.383 126L125.123 132.667M17.5 126L74.1816 60.1667M17.5 126L74.1816 191.833M125.123 1H227.007L176.065 60.1667M125.123 1H23.2399L74.1816 60.1667M125.123 1L74.1816 60.1667M176.065 60.1667L125.123 119.333M125.123 132.667L74.1816 191.833" stroke="black" stroke-width="2" stroke-linejoin="round"/>
<path d="M130.863 126H232.747L176.065 191.833L125.123 251H23.2399L74.1816 191.833L125.123 132.667L130.863 126Z" fill="#F9F9F9"/>
<path d="M17.5 126H119.383L125.123 119.333L176.065 60.1667L227.007 1H125.123L74.1816 60.1667L17.5 126Z" fill="#F9F9F9"/>
<path d="M130.863 126H232.747M130.863 126L125.123 119.333M130.863 126L125.123 132.667M232.747 126L176.065 60.1667M232.747 126L176.065 191.833M125.123 251H23.2399L74.1816 191.833M125.123 251H227.007L176.065 191.833M125.123 251L176.065 191.833M119.383 126H17.5M119.383 126L125.123 119.333M119.383 126L125.123 132.667M17.5 126L74.1816 60.1667M17.5 126L74.1816 191.833M125.123 1H227.007L176.065 60.1667M125.123 1H23.2399L74.1816 60.1667M125.123 1L74.1816 60.1667M176.065 60.1667L125.123 119.333M125.123 132.667L74.1816 191.833" stroke="black" stroke-width="2" stroke-linejoin="round"/>
</svg>
