<svg width="250" height="252" viewBox="0 0 250 252" fill="none" xmlns="http://www.w3.org/2000/svg">
<path d="M4 251H84.7175L125.076 188.5L165.435 126H84.7175L4 251Z" fill="#F9F9F9"/>
<path d="M84.7175 1H165.435L246.152 126H165.435L125.076 63.5L84.7175 1Z" fill="#F9F9F9"/>
<path d="M84.7175 1L4 126H84.7175L125.076 63.5L84.7175 1Z" fill="#F9F9F9"/>
<path d="M165.435 251H246.152L165.435 126L125.076 188.5L165.435 251Z" fill="#F9F9F9"/>
<path d="M165.435 126H84.7175M165.435 126L246.152 251H165.435L125.076 188.5M165.435 126H246.152L165.435 1H84.7175M165.435 126L125.076 63.5M165.435 126L125.076 188.5M84.7175 1L4 126H84.7175M84.7175 1L125.076 63.5M84.7175 126L4 251H84.7175L125.076 188.5M84.7175 126L125.076 63.5" stroke="black" stroke-width="2" stroke-linejoin="round"/>
<path d="M4 251H84.7175L125.076 188.5L165.435 126H84.7175L4 251Z" fill="#F9F9F9"/>
<path d="M84.7175 1H165.435L246.152 126H165.435L125.076 63.5L84.7175 1Z" fill="#F9F9F9"/>
<path d="M165.435 126H84.7175M165.435 126L246.152 251H165.435L125.076 188.5M165.435 126H246.152L165.435 1H84.7175M165.435 126L125.076 63.5M165.435 126L125.076 188.5M84.7175 1L4 126H84.7175M84.7175 1L125.076 63.5M84.7175 126L4 251H84.7175L125.076 188.5M84.7175 126L125.076 63.5" stroke="black" stroke-width="2" stroke-linejoin="round"/>
</svg>
