<svg width="250" height="252" viewBox="0 0 250 252" fill="none" xmlns="http://www.w3.org/2000/svg">
<path d="M80.5964 1H1L85.0807 126H164.677L124.879 66.8333L80.5964 1Z" fill="#F9F9F9"/>
<path d="M169.161 251H248.758L164.677 126H85.0807L124.879 185.167L169.161 251Z" fill="#F9F9F9"/>
<path d="M248.758 1H169.161L124.879 66.8333L164.677 126L248.758 1Z" fill="#F9F9F9"/>
<path d="M1 251H80.5964L124.879 185.167L85.0807 126L1 251Z" fill="#F9F9F9"/>
<path d="M164.677 126L248.758 1H169.161L124.879 66.8333M164.677 126H85.0807M164.677 126L248.758 251H169.161L124.879 185.167M164.677 126L124.879 66.8333M85.0807 126L1 251H80.5964L124.879 185.167M85.0807 126L1 1H80.5964L124.879 66.8333M85.0807 126L124.879 185.167" stroke="black" stroke-width="2" stroke-linejoin="round"/>
<path d="M80.5964 1H1L85.0807 126H164.677L124.879 66.8333L80.5964 1Z" fill="#F9F9F9"/>
<path d="M169.161 251H248.758L164.677 126H85.0807L124.879 185.167L169.161 251Z" fill="#F9F9F9"/>
<path d="M164.677 126L248.758 1H169.161L124.879 66.8333M164.677 126H85.0807M164.677 126L248.758 251H169.161L124.879 185.167M164.677 126L124.879 66.8333M85.0807 126L1 251H80.5964L124.879 185.167M85.0807 126L1 1H80.5964L124.879 66.8333M85.0807 126L124.879 185.167" stroke="black" stroke-width="2" stroke-linejoin="round"/>
</svg>
