<svg width="252" height="252" viewBox="0 0 252 252" fill="none" xmlns="http://www.w3.org/2000/svg">
<path d="M0.999989 1L0.999992 72.429L101 143.858L101 72.429L0.999989 1Z" fill="#F9F9F9"/>
<path d="M201 143.858L201 72.429L101 0.999996L101 72.429L201 143.858Z" fill="#F9F9F9"/>
<path d="M51 108.142L51 179.571L151 251L151 179.571L51 108.142Z" fill="#F9F9F9"/>
<path d="M251 251L251 179.571L151 108.142L151 179.571L251 251Z" fill="#F9F9F9"/>
<path d="M101 72.429L201 143.858L201 72.429L101 0.999997L101 72.429ZM101 72.429L101 143.858L0.999992 72.429L0.999989 1L101 72.429ZM151 179.571L251 251L251 179.571L151 108.142L151 179.571ZM151 179.571L151 251L51 179.571L51 108.142L151 179.571Z" stroke="black" stroke-width="2" stroke-linejoin="round"/>
<path d="M201 143.858L201 143.856L201 72.429L101 0.999996L101 72.429L151 108.144L201 143.858Z" fill="#F9F9F9"/>
<path d="M51 108.142L51 108.144L51 179.571L151 251L151 179.571L101 143.856L51 108.142Z" fill="#F9F9F9"/>
<path fill-rule="evenodd" clip-rule="evenodd" d="M151 108.144L201 143.858L201 143.856L151 108.142L151 108.144Z" fill="#F9F9F9"/>
<path fill-rule="evenodd" clip-rule="evenodd" d="M101 143.856L51 108.142L51 108.144L101 143.858L101 143.856Z" fill="#F9F9F9"/>
<path d="M101 72.429L101 0.999996L201 72.429L201 143.856M101 72.429L0.999989 1L0.999992 72.429L51 108.144M101 72.429L151 108.144M101 72.429L101 143.856M151 179.571L251 251L251 179.571L201 143.856M151 179.571L151 251L51 179.571L51 108.144M151 179.571L151 108.144M151 179.571L101 143.856M151 108.144L201 143.858L201 143.856M151 108.144L151 108.142L201 143.856M101 143.856L51 108.142L51 108.144M101 143.856L101 143.858L51 108.144" stroke="black" stroke-width="2" stroke-linejoin="round"/>
</svg>
