<svg width="252" height="252" viewBox="0 0 252 252" fill="none" xmlns="http://www.w3.org/2000/svg">
<path d="M65.9913 72.6682H127.516L62.5251 173.886H1L65.9913 72.6682Z" fill="#F9F9F9"/>
<path d="M173.533 1H235.058L170.067 102.218H108.542L173.533 1Z" fill="#F9F9F9"/>
<path d="M78.0022 149.782H139.527L74.536 251H13.0109L78.0022 149.782Z" fill="#F9F9F9"/>
<path d="M189.475 72.6682H251L186.009 173.886H124.484L189.475 72.6682Z" fill="#F9F9F9"/>
<path d="M65.9913 72.6682H127.516L62.5251 173.886H1L65.9913 72.6682Z" stroke="black" stroke-width="2" stroke-linejoin="round"/>
<path d="M173.533 1H235.058L170.067 102.218H108.542L173.533 1Z" stroke="black" stroke-width="2" stroke-linejoin="round"/>
<path d="M78.0022 149.782H139.527L74.536 251H13.0109L78.0022 149.782Z" stroke="black" stroke-width="2" stroke-linejoin="round"/>
<path d="M189.475 72.6682H251L186.009 173.886H124.484L189.475 72.6682Z" stroke="black" stroke-width="2" stroke-linejoin="round"/>
<path d="M78.003 149.782H139.528L74.5368 251H13.0117L78.003 149.782Z" fill="#F9F9F9"/>
<path d="M189.476 72.668H251.001L186.01 173.886H124.484L189.476 72.668Z" fill="#F9F9F9"/>
<path d="M78.003 149.782H139.528L74.5368 251H13.0117L78.003 149.782Z" stroke="black" stroke-width="2" stroke-linejoin="round"/>
<path d="M189.476 72.668H251.001L186.01 173.886H124.484L189.476 72.668Z" stroke="black" stroke-width="2" stroke-linejoin="round"/>
</svg>
