<svg width="250" height="250" viewBox="0 0 250 250" fill="none" xmlns="http://www.w3.org/2000/svg">
<path d="M231.502 25.9385L231.599 26.0346L231.599 113.528L218.397 100.326L193.586 125.138L218.125 149.677L218.125 211.052L160.09 153.017L160.09 97.5194L159.922 97.5194L231.502 25.9385Z" fill="#F9F9F9" stroke="black" stroke-width="2" stroke-linejoin="round"/>
<path d="M18.8677 224.43L18.7716 224.334L18.7716 136.84L31.973 150.042L56.7844 125.23L32.2456 100.692L32.2456 39.3164L90.2801 97.3509L90.2801 152.849L90.4486 152.849L18.8677 224.43Z" fill="#F9F9F9" stroke="black" stroke-width="2" stroke-linejoin="round"/>
<path d="M224.43 18.8672L224.334 18.7711L136.841 18.7711L150.042 31.9725L125.231 56.7839L100.692 32.2451L39.3169 32.2451L97.3514 90.2796L152.849 90.2796L152.849 90.4481L224.43 18.8672Z" fill="#F9F9F9" stroke="black" stroke-width="2" stroke-linejoin="round"/>
<path d="M25.939 231.5L26.035 231.596L113.528 231.596L100.327 218.395L125.138 193.583L149.677 218.122L211.052 218.122L153.018 160.088L97.5199 160.088L97.5199 159.919L25.939 231.5Z" fill="#F9F9F9" stroke="black" stroke-width="2" stroke-linejoin="round"/>
</svg>
