<svg width="252" height="250" viewBox="0 0 252 250" fill="none" xmlns="http://www.w3.org/2000/svg">
<path d="M1 7.5H1.22738L104.756 111.086H73.5142L73.5142 169.836L131.587 169.836L204.21 242.5L66.8687 242.5L1.19932 176.794L1 176.994L1 7.5Z" fill="#F9F9F9"/>
<path d="M251 242.5H250.773L147.244 138.914H178.486V80.164L120.413 80.164L47.7896 7.5L185.131 7.50001L250.801 73.2057L251 73.0063V242.5Z" fill="#F9F9F9"/>
<path d="M1 7.5H1.22738L104.756 111.086H73.5142L73.5142 169.836L131.587 169.836L204.21 242.5L66.8687 242.5L1.19932 176.794L1 176.994L1 7.5Z" stroke="black" stroke-width="2" stroke-linejoin="round"/>
<path d="M251 242.5H250.773L147.244 138.914H178.486V80.164L120.413 80.164L47.7896 7.5L185.131 7.50001L250.801 73.2057L251 73.0063V242.5Z" stroke="black" stroke-width="2" stroke-linejoin="round"/>
</svg>
