<svg width="250" height="250" viewBox="0 0 250 250" fill="none" xmlns="http://www.w3.org/2000/svg">
<path d="M106.091 20.5L58.7915 102.368L108.913 102.368L125.25 74.0916L141.587 102.368L191.708 102.368L144.409 20.5L106.091 20.5Z" fill="#F9F9F9"/>
<path d="M246 196.338L198.701 114.47L173.64 157.847L189.976 186.123L157.303 186.123L132.242 229.5L226.841 229.5L246 196.338Z" fill="#F9F9F9"/>
<path d="M23.6592 229.5L118.258 229.5L93.1968 186.123L60.5235 186.123L76.8602 157.847L51.7993 114.47L4.5 196.338L23.6592 229.5Z" fill="#F9F9F9"/>
<path d="M106.091 20.5L58.7915 102.368L108.913 102.368L125.25 74.0916L141.587 102.368L191.708 102.368L144.409 20.5L106.091 20.5Z" stroke="black" stroke-width="2" stroke-linejoin="round"/>
<path d="M246 196.338L198.701 114.47L173.64 157.847L189.976 186.123L157.303 186.123L132.242 229.5L226.841 229.5L246 196.338Z" stroke="black" stroke-width="2" stroke-linejoin="round"/>
<path d="M23.6592 229.5L118.258 229.5L93.1968 186.123L60.5235 186.123L76.8602 157.847L51.7993 114.47L4.5 196.338L23.6592 229.5Z" stroke="black" stroke-width="2" stroke-linejoin="round"/>
<path d="M124.75 199.5L80 121.5L169.5 121.5L124.75 199.5Z" fill="#F9F9F9" stroke="black" stroke-width="2" stroke-linejoin="round"/>
</svg>
