<svg width="253" height="255" viewBox="0 0 253 255" fill="none" xmlns="http://www.w3.org/2000/svg">
<path d="M252 127.236C252 135.644 251.178 143.861 249.61 151.809C245.744 171.404 234.254 189.387 216.67 198.86C197.006 209.453 174.076 212.26 152.437 206.724C138.003 203.032 124.847 195.807 114.078 185.844C105.115 177.554 91.5701 174.368 81.3291 181.016C71.0882 187.664 68.0548 201.513 76.3034 210.514C93.6696 229.466 116.271 243.11 141.479 249.559C143.096 249.973 143.037 252.312 141.381 252.516C136.264 253.147 131.052 253.473 125.764 253.473C65.0228 253.473 14.3016 210.573 2.24636 153.419C0.65698 145.884 6.98569 139.357 14.6734 139.809C21.6108 140.217 27.4068 134.815 29.6426 128.235C31.8913 121.617 35.6113 115.535 40.5863 110.475C48.5291 102.397 59.1321 97.473 70.4287 96.6169C81.7254 95.7608 92.9492 99.0305 102.019 105.82C116.883 116.947 134.471 130.399 152.632 126.528L155.531 125.91C175.293 121.698 188.342 101.792 178.391 84.2063C170.284 69.8813 159.253 57.262 145.867 47.2422C122.621 29.8413 93.8538 21.4609 64.8995 23.6551C61.5358 23.91 59.8107 19.525 62.7321 17.8382C81.2802 7.12828 102.806 1 125.764 1C195.482 1 252 57.5179 252 127.236Z" fill="#F9F9F9" stroke="black" stroke-width="2" stroke-linejoin="round"/>
</svg>
