<svg width="252" height="263" viewBox="0 0 252 263" fill="none" xmlns="http://www.w3.org/2000/svg">
<path d="M15.9347 64.437C15.3201 58.1571 6.89258 56.837 5.55136 63.0026C2.58744 76.6279 1 91.0196 1 105.9C1 191.718 53.7998 261.286 118.932 261.286C167.544 261.286 209.287 222.531 227.334 167.191C213.125 199.933 188.173 221.651 159.765 221.651C133.256 221.651 109.757 202.74 95.1875 173.608C91.1938 165.623 79.3956 164.215 74.6749 171.794C71.1006 177.532 63.0853 178.392 58.7935 173.169C35.2329 144.497 20.0129 106.111 15.9347 64.437Z" fill="#F9F9F9"/>
<path d="M236.065 197.85C236.68 204.13 245.107 205.45 246.449 199.285C249.413 185.659 251 171.267 251 156.387C251 70.5692 198.2 1.00001 133.068 1C84.4556 0.999996 42.7127 39.7554 24.6657 95.0962C38.8745 62.3543 63.8269 40.6353 92.2354 40.6354C118.744 40.6354 142.243 59.5465 156.812 88.6785C160.806 96.6643 172.604 98.0717 177.325 90.4932C180.899 84.7549 188.915 83.8947 193.207 89.1177C216.767 117.79 231.987 156.176 236.065 197.85Z" fill="#F9F9F9"/>
<path d="M15.9347 64.437C15.3201 58.1571 6.89258 56.837 5.55136 63.0026C2.58744 76.6279 1 91.0196 1 105.9C1 191.718 53.7998 261.286 118.932 261.286C167.544 261.286 209.287 222.531 227.334 167.191C213.125 199.933 188.173 221.651 159.765 221.651C133.256 221.651 109.757 202.74 95.1875 173.608C91.1938 165.623 79.3956 164.215 74.6749 171.794C71.1006 177.532 63.0853 178.392 58.7935 173.169C35.2329 144.497 20.0129 106.111 15.9347 64.437Z" stroke="black" stroke-width="2" stroke-linejoin="round"/>
<path d="M236.065 197.85C236.68 204.13 245.107 205.45 246.449 199.285C249.413 185.659 251 171.267 251 156.387C251 70.5692 198.2 1.00001 133.068 1C84.4556 0.999996 42.7127 39.7554 24.6657 95.0962C38.8745 62.3543 63.8269 40.6353 92.2354 40.6354C118.744 40.6354 142.243 59.5465 156.812 88.6785C160.806 96.6643 172.604 98.0717 177.325 90.4932C180.899 84.7549 188.915 83.8947 193.207 89.1177C216.767 117.79 231.987 156.176 236.065 197.85Z" stroke="black" stroke-width="2" stroke-linejoin="round"/>
</svg>
