<svg width="252" height="250" viewBox="0 0 252 250" fill="none" xmlns="http://www.w3.org/2000/svg">
<path d="M50.8476 91.3809C50.3641 86.4482 43.7345 85.4113 42.6794 90.2542C40.3478 100.956 39.099 112.261 39.099 123.949C39.099 191.356 80.6346 246 131.871 246C170.113 246 202.951 215.559 217.147 172.091C205.97 197.808 186.341 214.868 163.993 214.868C143.14 214.868 124.654 200.014 113.193 177.131C110.051 170.859 100.77 169.753 97.0562 175.706C94.2444 180.213 87.9392 180.889 84.5629 176.787C66.0287 154.265 54.0558 124.114 50.8476 91.3809Z" fill="#F9F9F9"/>
<path d="M185.757 57.4826C190.274 59.5299 194.486 54.316 190.816 50.9832C182.705 43.6183 173.532 36.8887 163.401 31.047C104.976 -2.64312 36.8536 5.95861 11.245 50.2595C-7.86864 83.3247 2.10355 126.932 32.6838 160.932C15.9798 138.414 11.0043 112.916 22.174 93.593C32.5967 75.5625 54.711 67.003 80.2723 68.53C87.2793 68.9486 92.8762 61.4763 89.5729 55.2903C87.0716 50.6064 89.6374 44.8169 94.8808 43.9482C123.664 39.1789 155.782 43.8963 185.757 57.4826Z" fill="#F9F9F9"/>
<path d="M147.736 191.113C143.702 193.996 146.117 200.247 150.842 198.738C161.283 195.405 171.705 190.835 181.836 184.994C240.261 151.303 266.864 88.0792 241.255 43.7783C222.141 10.7131 179.344 -2.46484 134.572 6.98556C162.45 3.79632 187.047 12.2419 198.216 31.5646C208.639 49.5951 205.004 73.0029 190.899 94.3489C187.033 100.2 190.713 108.778 197.729 109.013C203.041 109.192 206.778 114.306 204.91 119.276C194.653 146.557 174.504 171.979 147.736 191.113Z" fill="#F9F9F9"/>
<path d="M50.8476 91.3809C50.3641 86.4482 43.7345 85.4113 42.6794 90.2542C40.3478 100.956 39.099 112.261 39.099 123.949C39.099 191.356 80.6346 246 131.871 246C170.113 246 202.951 215.559 217.147 172.091C205.97 197.808 186.341 214.868 163.993 214.868C143.14 214.868 124.654 200.014 113.193 177.131C110.051 170.859 100.77 169.753 97.0562 175.706C94.2444 180.213 87.9392 180.889 84.5629 176.787C66.0287 154.265 54.0558 124.114 50.8476 91.3809Z" stroke="black" stroke-width="2" stroke-linejoin="round"/>
<path d="M185.757 57.4826C190.274 59.5299 194.486 54.316 190.816 50.9832C182.705 43.6183 173.532 36.8887 163.401 31.047C104.976 -2.64312 36.8536 5.95861 11.245 50.2595C-7.86864 83.3247 2.10355 126.932 32.6838 160.932C15.9798 138.414 11.0043 112.916 22.174 93.593C32.5967 75.5625 54.711 67.003 80.2723 68.53C87.2793 68.9486 92.8762 61.4763 89.5729 55.2903C87.0716 50.6064 89.6374 44.8169 94.8808 43.9482C123.664 39.1789 155.782 43.8963 185.757 57.4826Z" stroke="black" stroke-width="2" stroke-linejoin="round"/>
<path d="M147.736 191.113C143.702 193.996 146.117 200.247 150.842 198.738C161.283 195.405 171.705 190.835 181.836 184.994C240.261 151.303 266.864 88.0792 241.255 43.7783C222.141 10.7131 179.344 -2.46484 134.572 6.98556C162.45 3.79632 187.047 12.2419 198.216 31.5646C208.639 49.5951 205.004 73.0029 190.899 94.3489C187.033 100.2 190.713 108.778 197.729 109.013C203.041 109.192 206.778 114.306 204.91 119.276C194.653 146.557 174.504 171.979 147.736 191.113Z" stroke="black" stroke-width="2" stroke-linejoin="round"/>
</svg>
