<svg width="252" height="252" viewBox="0 0 252 252" fill="none" xmlns="http://www.w3.org/2000/svg">
<path d="M17.4962 95.1994C16.6503 89.0054 8.17637 87.175 6.30926 93.1486C2.85422 104.203 1 115.905 1 128.016C1 195.938 59.3205 251 131.263 251C184.958 251 231.066 220.327 251 176.526C235.305 202.44 207.744 219.63 176.365 219.63C147.461 219.63 121.796 205.044 105.661 182.49C100.225 174.891 88.492 173.137 82.353 180.198C78.0008 185.205 70.4029 186.068 65.3711 181.722C39.0426 158.98 22.0317 128.408 17.4962 95.1994Z" fill="#F9F9F9"/>
<path d="M244.942 67.9222C222.505 30.1688 127.958 -29.3499 88.1197 19.3211C71.7217 39.3548 64.4505 64.483 67.8496 89.3715C69.7593 103.355 74.9527 116.644 82.9103 128.384C84.4428 130.645 87.9409 129.352 87.9409 126.634C87.9409 75.2741 127.53 33.6385 176.365 33.6385C204.03 33.6385 228.728 47.0002 244.942 67.9222Z" fill="#F9F9F9"/>
<path d="M17.4962 95.1994C16.6503 89.0054 8.17637 87.175 6.30926 93.1486C2.85422 104.203 1 115.905 1 128.016C1 195.938 59.3205 251 131.263 251C184.958 251 231.066 220.327 251 176.526C235.305 202.44 207.744 219.63 176.365 219.63C147.461 219.63 121.796 205.044 105.661 182.49C100.225 174.891 88.492 173.137 82.353 180.198C78.0008 185.205 70.4029 186.068 65.3711 181.722C39.0426 158.98 22.0317 128.408 17.4962 95.1994Z" stroke="black" stroke-width="2" stroke-linejoin="round"/>
<path d="M244.942 67.9222C222.505 30.1688 127.958 -29.3499 88.1197 19.3211C71.7217 39.3548 64.4505 64.483 67.8496 89.3715C69.7593 103.355 74.9527 116.644 82.9103 128.384C84.4428 130.645 87.9409 129.352 87.9409 126.634C87.9409 75.2741 127.53 33.6385 176.365 33.6385C204.03 33.6385 228.728 47.0002 244.942 67.9222Z" stroke="black" stroke-width="2" stroke-linejoin="round"/>
</svg>
