<svg width="253" height="253" viewBox="0 0 253 253" fill="none" xmlns="http://www.w3.org/2000/svg">
<path fill-rule="evenodd" clip-rule="evenodd" d="M95.7374 68.5037C99.2143 75.0241 104.126 80.7426 110.171 85.1921C119.995 92.424 132.131 95.8013 144.28 94.6841C163.597 92.9075 173.611 71.8136 196.885 71.8136C222.38 71.8136 243.989 88.4565 251.439 111.471C251.875 112.818 249.874 113.529 249.096 112.345C244.974 106.073 239.524 100.864 233.198 97.0457C226.603 93.0655 218.786 97.6218 216.782 105.059C214.778 112.497 219.822 120.024 224.618 126.052C225.029 126.569 225.419 127.107 225.785 127.664C228.735 132.153 229.936 137.568 229.16 142.883C228.385 148.199 225.686 153.045 221.577 156.504C217.467 159.964 212.232 161.795 206.862 161.653C201.492 161.51 196.361 159.402 192.441 155.73C188.521 152.057 186.084 147.074 185.592 141.725C185.1 136.376 186.587 131.032 189.772 126.706C190.167 126.17 190.584 125.653 191.023 125.159C196.132 119.394 201.569 112.145 199.963 104.612C198.357 97.0786 190.793 92.1133 183.996 95.7375C177.476 99.2143 171.757 104.126 167.308 110.171C160.076 119.995 156.699 132.131 157.816 144.28C159.592 163.597 180.687 173.611 180.687 196.885C180.687 222.381 164.044 243.989 141.029 251.439C139.682 251.875 138.971 249.874 140.155 249.096C146.427 244.974 151.636 239.524 155.454 233.198C159.435 226.603 154.878 218.786 147.441 216.782C140.004 214.778 132.476 219.822 126.448 224.618C125.931 225.029 125.393 225.419 124.836 225.785C120.347 228.735 114.932 229.936 109.617 229.16C104.301 228.385 99.4548 225.687 95.9957 221.577C92.5365 217.467 90.7048 212.232 90.8476 206.862C90.9904 201.492 93.0977 196.361 96.7704 192.441C100.443 188.521 105.426 186.084 110.775 185.592C116.124 185.1 121.468 186.587 125.794 189.772C126.331 190.167 126.847 190.584 127.341 191.023C133.106 196.132 140.355 201.569 147.888 199.963C155.422 198.357 160.387 190.793 156.763 183.996C153.286 177.476 148.374 171.757 142.33 167.308C132.505 160.076 120.369 156.699 108.221 157.816C88.9034 159.592 78.889 180.686 55.6149 180.686C30.1194 180.686 8.51111 164.043 1.06148 141.029C0.62527 139.681 2.62644 138.971 3.4043 140.155C7.52626 146.427 12.9756 151.636 19.3021 155.454C25.8967 159.434 33.714 154.878 35.7178 147.441C37.7216 140.003 32.6779 132.476 27.8823 126.448C27.4706 125.931 27.0811 125.393 26.7153 124.836C23.7653 120.347 22.5643 114.932 23.3399 109.616C24.1154 104.301 26.8136 99.4546 30.9232 95.9955C35.0329 92.5363 40.2685 90.7046 45.6383 90.8474C51.0081 90.9902 56.139 93.0976 60.059 96.7702C63.979 100.443 66.4158 105.426 66.9078 110.775C67.3997 116.124 65.9126 121.468 62.7283 125.794C62.3334 126.33 61.9158 126.846 61.4773 127.341C56.3681 133.106 50.9314 140.355 52.5371 147.888C54.1428 155.421 61.707 160.387 68.5037 156.762C75.0242 153.286 80.7427 148.374 85.1922 142.329C92.4241 132.505 95.8014 120.369 94.6842 108.22C92.9077 88.9034 71.8136 78.889 71.8136 55.6149C71.8136 30.1195 88.4565 8.51115 111.471 1.06148C112.818 0.625274 113.529 2.62641 112.345 3.40427C106.073 7.52623 100.864 12.9756 97.0457 19.3021C93.0655 25.8966 97.6218 33.714 105.059 35.7178C112.497 37.7216 120.024 32.6778 126.052 27.8822C126.569 27.4706 127.107 27.081 127.664 26.7152C132.153 23.7652 137.568 22.5643 142.883 23.3398C148.199 24.1153 153.045 26.8135 156.504 30.9231C159.964 35.0328 161.795 40.2684 161.653 45.6382C161.51 51.008 159.402 56.1389 155.73 60.0589C152.057 63.9789 147.074 66.4157 141.725 66.9077C136.376 67.3996 131.032 65.9125 126.706 62.7282C126.17 62.3333 125.653 61.9157 125.159 61.4772C119.394 56.368 112.145 50.9313 104.612 52.537C97.0786 54.1428 92.1133 61.7069 95.7374 68.5037Z" fill="#F9F9F9" stroke="black" stroke-width="2" stroke-linejoin="round"/>
</svg>
