<svg width="254" height="254" viewBox="0 0 254 254" fill="none" xmlns="http://www.w3.org/2000/svg">
<path fill-rule="evenodd" clip-rule="evenodd" d="M90.6858 159.125C83.026 162.387 74.4719 163.06 66.3436 160.981C60.1698 159.402 54.5432 156.314 49.9369 152.055C46.1035 148.511 40.3101 147.149 35.9299 149.991C31.5498 152.833 30.2523 158.753 33.7804 162.601C41.2081 170.703 50.8751 176.536 61.6566 179.293C62.3483 179.47 62.3232 180.47 61.6146 180.557C59.426 180.827 57.1968 180.966 54.9351 180.966C28.9555 180.966 7.26153 162.626 2.10537 138.193C1.42558 134.972 4.13243 132.182 7.42054 132.375C10.3878 132.549 12.8668 130.24 13.823 127.427C14.7848 124.598 16.3759 121.998 18.5038 119.835C21.901 116.381 26.436 114.276 31.2677 113.91C36.0994 113.544 40.9 114.942 44.7791 117.844L45.082 118.071C51.3752 122.781 58.7824 128.326 66.4268 126.697L67.6671 126.433C76.1194 124.632 81.7003 116.122 77.4441 108.605C73.9771 102.481 69.2587 97.0861 63.5336 92.8026C53.5911 85.3638 41.2869 81.7811 28.9028 82.7192C27.4641 82.8281 26.7263 80.9536 27.9758 80.2325C35.909 75.654 45.116 73.0341 54.9351 73.0341C70.7626 73.0341 84.9995 79.8411 94.8752 90.6858C91.6131 83.026 90.9405 74.4719 93.0189 66.3436C94.5976 60.1698 97.6862 54.5432 101.945 49.9369C105.489 46.1035 106.851 40.3101 104.009 35.9299C101.167 31.5498 95.2468 30.2523 91.3987 33.7804C83.297 41.2081 77.4641 50.8751 74.7072 61.6566C74.5303 62.3483 73.5304 62.3232 73.443 61.6146C73.1731 59.426 73.0341 57.1968 73.0341 54.9351C73.0341 28.9555 91.3737 7.26153 115.807 2.10537C119.028 1.42558 121.818 4.13243 121.625 7.42054C121.451 10.3878 123.76 12.8668 126.573 13.823C129.402 14.7848 132.002 16.3759 134.165 18.5038C137.619 21.901 139.724 26.436 140.09 31.2677C140.456 36.0994 139.058 40.9 136.156 44.7791L135.929 45.0819C131.219 51.3752 125.674 58.7824 127.303 66.4268L127.567 67.6671C129.368 76.1194 137.878 81.7003 145.395 77.4441C151.519 73.9771 156.914 69.2587 161.197 63.5336C168.636 53.5911 172.219 41.2869 171.281 28.9028C171.172 27.4641 173.046 26.7263 173.768 27.9758C178.346 35.909 180.966 45.116 180.966 54.9351C180.966 70.7626 174.159 84.9995 163.314 94.8752C170.974 91.6131 179.528 90.9405 187.656 93.0189C193.83 94.5976 199.457 97.6862 204.063 101.945C207.897 105.489 213.69 106.851 218.07 104.009C222.45 101.167 223.748 95.2468 220.22 91.3987C212.792 83.297 203.125 77.4641 192.343 74.7072C191.652 74.5303 191.677 73.5304 192.385 73.443C194.574 73.1731 196.803 73.0341 199.065 73.0341C225.044 73.0341 246.738 91.3737 251.895 115.807C252.574 119.028 249.868 121.818 246.579 121.625C243.612 121.451 241.133 123.76 240.177 126.573C239.215 129.402 237.624 132.002 235.496 134.165C232.099 137.619 227.564 139.724 222.732 140.09C217.901 140.456 213.1 139.058 209.221 136.156L208.918 135.929C202.625 131.219 195.218 125.674 187.573 127.303L186.333 127.567C177.881 129.368 172.3 137.878 176.556 145.395C180.023 151.519 184.741 156.914 190.466 161.197C200.409 168.636 212.713 172.219 225.097 171.281C226.536 171.172 227.274 173.046 226.024 173.768C218.091 178.346 208.884 180.966 199.065 180.966C183.237 180.966 169.001 174.159 159.125 163.314C162.387 170.974 163.06 179.528 160.981 187.656C159.402 193.83 156.314 199.457 152.055 204.063C148.511 207.897 147.149 213.69 149.991 218.07C152.833 222.45 158.753 223.748 162.601 220.22C170.703 212.792 176.536 203.125 179.293 192.343C179.47 191.652 180.47 191.677 180.557 192.385C180.827 194.574 180.966 196.803 180.966 199.065C180.966 225.044 162.626 246.738 138.193 251.895C134.972 252.574 132.182 249.868 132.375 246.579C132.549 243.612 130.24 241.133 127.427 240.177C124.598 239.215 121.998 237.624 119.835 235.496C116.381 232.099 114.276 227.564 113.91 222.732C113.544 217.901 114.942 213.1 117.844 209.221L118.071 208.918C122.781 202.625 128.326 195.218 126.697 187.573L126.433 186.333C124.632 177.881 116.122 172.3 108.605 176.556C102.481 180.023 97.0861 184.741 92.8026 190.466C85.3638 200.409 81.7811 212.713 82.7192 225.097C82.8281 226.536 80.9536 227.274 80.2325 226.024C75.654 218.091 73.0341 208.884 73.0341 199.065C73.0341 183.237 79.8411 169.001 90.6858 159.125Z" fill="#F9F9F9" stroke="black" stroke-width="2" stroke-linejoin="round"/>
</svg>
