<svg width="252" height="252" viewBox="0 0 252 252" fill="none" xmlns="http://www.w3.org/2000/svg">
<path d="M126 167.937C80.1258 167.937 42.9375 205.126 42.9375 251H209.063C209.063 205.126 171.874 167.937 126 167.937Z" fill="#F9F9F9"/>
<path d="M84.0626 126C84.0626 80.1258 46.8742 42.9374 1.00003 42.9374L1 209.062C46.8742 209.062 84.0625 171.874 84.0626 126Z" fill="#F9F9F9"/>
<path d="M126 84.0625C171.874 84.0625 209.063 46.8742 209.063 1H42.9375C42.9375 46.8742 80.1258 84.0625 126 84.0625Z" fill="#F9F9F9"/>
<path d="M167.937 126C167.937 171.874 205.126 209.063 251 209.063L251 42.9375C205.126 42.9375 167.937 80.1259 167.937 126Z" fill="#F9F9F9"/>
<path d="M126 167.937C80.1258 167.937 42.9375 205.126 42.9375 251H209.063C209.063 205.126 171.874 167.937 126 167.937Z" stroke="black" stroke-width="2" stroke-linejoin="round"/>
<path d="M84.0626 126C84.0626 80.1258 46.8742 42.9374 1.00003 42.9374L1 209.062C46.8742 209.062 84.0625 171.874 84.0626 126Z" stroke="black" stroke-width="2" stroke-linejoin="round"/>
<path d="M126 84.0625C171.874 84.0625 209.063 46.8742 209.063 1H42.9375C42.9375 46.8742 80.1258 84.0625 126 84.0625Z" stroke="black" stroke-width="2" stroke-linejoin="round"/>
<path d="M167.937 126C167.937 171.874 205.126 209.063 251 209.063L251 42.9375C205.126 42.9375 167.937 80.1259 167.937 126Z" stroke="black" stroke-width="2" stroke-linejoin="round"/>
</svg>
