<svg width="252" height="252" viewBox="0 0 252 252" fill="none" xmlns="http://www.w3.org/2000/svg">
<path d="M126 1C80.1257 1.00001 42.9374 38.1884 42.9374 84.0625L209.062 84.0625C209.062 38.1883 171.874 0.999991 126 1Z" fill="#F9F9F9"/>
<path d="M251 126C251 80.1257 213.811 42.9374 167.937 42.9374L167.937 209.062C213.811 209.062 251 171.874 251 126Z" fill="#F9F9F9"/>
<path d="M126 251C171.874 251 209.062 213.812 209.062 167.938L42.9374 167.937C42.9374 213.812 80.1257 251 126 251Z" fill="#F9F9F9"/>
<path d="M1 126C0.999968 171.874 38.1883 209.063 84.0625 209.063L84.0626 42.9377C38.1884 42.9377 1.00003 80.126 1 126Z" fill="#F9F9F9"/>
<path d="M126 1C80.1257 1.00001 42.9374 38.1884 42.9374 84.0625L209.062 84.0625C209.062 38.1883 171.874 0.999991 126 1Z" stroke="black" stroke-width="2" stroke-linejoin="round"/>
<path d="M251 126C251 80.1257 213.811 42.9374 167.937 42.9374L167.937 209.062C213.811 209.062 251 171.874 251 126Z" stroke="black" stroke-width="2" stroke-linejoin="round"/>
<path d="M126 251C171.874 251 209.062 213.812 209.062 167.938L42.9374 167.937C42.9374 213.812 80.1257 251 126 251Z" stroke="black" stroke-width="2" stroke-linejoin="round"/>
<path d="M1 126C0.999968 171.874 38.1883 209.063 84.0625 209.063L84.0626 42.9377C38.1884 42.9377 1.00003 80.126 1 126Z" stroke="black" stroke-width="2" stroke-linejoin="round"/>
</svg>
