<svg width="252" height="250" viewBox="0 0 252 250" fill="none" xmlns="http://www.w3.org/2000/svg">
<path fill-rule="evenodd" clip-rule="evenodd" d="M203.222 243.819H203.287L203.286 243.62L250.947 96.9349L250.967 96.8733L250.779 96.8122L126 6.15532L125.948 6.11719L125.831 6.27825L1.05254 96.935L1 96.9732L1.11723 97.1341L48.7782 243.819L48.7983 243.881L48.9875 243.819L203.222 243.819ZM126 166.533C117.704 166.533 109.713 167.84 102.223 170.259C102.209 162.388 100.983 154.384 98.4193 146.494C95.8558 138.604 92.1434 131.409 87.5277 125.032C95.0098 122.587 102.243 118.948 108.954 114.071C115.666 109.195 121.362 103.441 126 97.0806C130.638 103.441 136.334 109.195 143.046 114.071C149.757 118.948 156.99 122.587 164.472 125.032C159.856 131.409 156.144 138.604 153.581 146.494C151.017 154.384 149.791 162.388 149.777 170.259C142.286 167.84 134.296 166.533 126 166.533Z" fill="#F9F9F9"/>
<path d="M48.7133 243.819H48.7782M203.287 243.819H203.222M203.287 243.819C203.287 243.753 203.287 243.687 203.286 243.62M203.287 243.819L203.286 243.62M1.03248 96.8732L1.05254 96.935M48.7983 243.881C48.8614 243.861 48.9245 243.84 48.9875 243.819M48.7983 243.881L48.7782 243.819M48.7983 243.881L48.9875 243.819M126.052 6.11728L126 6.15532M1 96.9732C1.03902 97.0269 1.0781 97.0805 1.11723 97.1341M1 96.9732L1.05254 96.935M1 96.9732L1.11723 97.1341M251 96.9731L250.947 96.9349M125.948 6.11719C125.909 6.17084 125.87 6.22453 125.831 6.27825M125.948 6.11719L126 6.15532M125.948 6.11719L125.831 6.27825M203.202 243.881L203.222 243.819M250.967 96.8733C250.904 96.8529 250.841 96.8325 250.779 96.8122M250.967 96.8733L250.947 96.9349M250.967 96.8733L250.779 96.8122M102.223 170.259C109.713 167.84 117.704 166.533 126 166.533C134.296 166.533 142.286 167.84 149.777 170.259M102.223 170.259C102.209 162.388 100.983 154.384 98.4193 146.494C95.8558 138.604 92.1434 131.409 87.5277 125.032M102.223 170.259C102.279 202.826 81.5836 233.137 48.9875 243.819M149.777 170.259C149.791 162.388 151.017 154.384 153.581 146.494C156.144 138.604 159.856 131.409 164.472 125.032M149.777 170.259C180.768 180.269 203.2 209.319 203.286 243.62M164.472 125.032C156.99 122.587 149.757 118.948 143.046 114.071C136.334 109.195 130.638 103.441 126 97.0806M164.472 125.032C183.569 98.6519 218.129 86.2944 250.779 96.8122M126 97.0806C121.362 103.441 115.666 109.195 108.954 114.071C102.243 118.948 95.0098 122.587 87.5277 125.032M126 97.0806C106.812 70.7668 105.739 34.0797 125.831 6.27825M87.5277 125.032C56.5724 135.15 21.3492 124.834 1.11723 97.1341M203.222 243.819L48.9875 243.819M203.222 243.819L203.286 243.62M48.9875 243.819H48.7782M48.7782 243.819L1.11723 97.1341M1.11723 97.1341L1.05254 96.935M1.05254 96.935L125.831 6.27825M125.831 6.27825L126 6.15532M126 6.15532L250.779 96.8122M250.779 96.8122L250.947 96.9349M250.947 96.9349L203.286 243.62" stroke="black" stroke-width="2" stroke-linejoin="round"/>
</svg>
