<svg width="252" height="252" viewBox="0 0 252 252" fill="none" xmlns="http://www.w3.org/2000/svg">
<path fill-rule="evenodd" clip-rule="evenodd" d="M188.5 17.7468C166.689 17.4767 145.024 11.6713 126 1C106.976 11.6713 85.3105 17.4767 63.5 17.7468C52.3608 36.5003 36.5003 52.3608 17.7468 63.5C17.4767 85.3105 11.6713 106.976 1 126C11.6713 145.024 17.4767 166.689 17.7468 188.5C36.5003 199.639 52.3608 215.5 63.5 234.253C85.3105 234.523 106.976 240.329 126 251C145.024 240.329 166.689 234.523 188.5 234.253C199.639 215.5 215.5 199.639 234.253 188.5C234.523 166.689 240.329 145.024 251 126C240.329 106.976 234.523 85.3105 234.253 63.5C215.5 52.3608 199.639 36.5003 188.5 17.7468ZM126 66C135.171 71.1445 145.485 73.9082 156 74.0385C161.37 83.0793 168.921 90.6299 177.962 96C178.092 106.515 180.855 116.829 186 126C180.855 135.171 178.092 145.485 177.962 156C168.921 161.37 161.37 168.921 156 177.962C145.485 178.092 135.171 180.855 126 186C116.829 180.855 106.515 178.092 96 177.962C90.6299 168.921 83.0793 161.37 74.0385 156C73.9082 145.485 71.1445 135.171 66 126C71.1445 116.829 73.9082 106.515 74.0385 96C83.0793 90.6299 90.6299 83.0793 96 74.0385C106.515 73.9082 116.829 71.1445 126 66Z" fill="#F9F9F9"/>
<path d="M126 1L96 74.0385M126 1C106.976 11.6713 85.3106 17.4767 63.5 17.7468M126 1C145.024 11.6713 166.689 17.4767 188.5 17.7468M188.5 17.7468L126 66M188.5 17.7468C199.639 36.5003 215.5 52.3608 234.253 63.5M234.253 63.5L156 74.0385M234.253 63.5C234.523 85.3105 240.329 106.976 251 126M251 126L177.962 96M251 126C240.329 145.024 234.523 166.689 234.253 188.5M234.253 188.5L186 126M234.253 188.5C215.5 199.639 199.639 215.5 188.5 234.253M188.5 234.253L177.962 156M188.5 234.253C166.689 234.523 145.024 240.329 126 251M126 251L156 177.962M126 251C106.976 240.329 85.3105 234.523 63.5 234.253M63.5 234.253L126 186M63.5 234.253C52.3608 215.5 36.5003 199.639 17.7468 188.5M17.7468 188.5L96 177.962M17.7468 188.5C17.4767 166.689 11.6713 145.024 1 126M1 126L74.0385 156M1 126C11.6713 106.976 17.4767 85.3106 17.7468 63.5M17.7468 63.5L66 126M17.7468 63.5C36.5003 52.3608 52.3608 36.5003 63.5 17.7468M63.5 17.7468L74.0385 96M126 66C116.829 71.1445 106.515 73.9082 96 74.0385M126 66C135.171 71.1445 145.485 73.9082 156 74.0385M156 74.0385C161.37 83.0793 168.921 90.6299 177.962 96M177.962 96C178.092 106.515 180.855 116.829 186 126M186 126C180.855 135.171 178.092 145.485 177.962 156M177.962 156C168.921 161.37 161.37 168.921 156 177.962M156 177.962C145.485 178.092 135.171 180.855 126 186M126 186C116.829 180.855 106.515 178.092 96 177.962M96 177.962C90.6299 168.921 83.0793 161.37 74.0385 156M74.0385 156C73.9082 145.485 71.1445 135.171 66 126M66 126C71.1445 116.829 73.9082 106.515 74.0385 96M74.0385 96C83.0793 90.6299 90.6299 83.0793 96 74.0385" stroke="black" stroke-width="2" stroke-linejoin="round"/>
</svg>
