<svg width="250" height="252" viewBox="0 0 250 252" fill="none" xmlns="http://www.w3.org/2000/svg">
<path d="M187.253 1L249 36.7143V108.143L187.253 143.857L125.495 108.143V36.7143L187.253 1Z" fill="#F9F9F9"/>
<path d="M125.495 108.143L187.245 143.857V215.286L125.498 251L63.7518 215.286V143.857L125.495 108.143Z" fill="#F9F9F9"/>
<path d="M63.7467 1L125.495 36.7143V108.143L63.7467 143.857L2 108.143V36.7143L63.7467 1Z" fill="#F9F9F9"/>
<path d="M125.495 108.143L187.253 143.857L249 108.143V36.7143L187.253 1L125.495 36.7143M125.495 108.143V36.7143M125.495 108.143L187.245 143.857V215.286L125.498 251L63.7518 215.286V143.857L125.495 108.143ZM125.495 108.143L63.7467 143.857L2 108.143V36.7143L63.7467 1L125.495 36.7143" stroke="black" stroke-width="2" stroke-linejoin="round"/>
</svg>
