<svg width="252" height="250" viewBox="0 0 252 250" fill="none" xmlns="http://www.w3.org/2000/svg">
<path d="M42.6744 77.1682L84.3408 101.224L84.3282 149.336L42.6744 173.393L1 149.336V101.224L42.6744 77.1682Z" fill="#F9F9F9"/>
<path d="M167.682 149.336L209.349 173.393V221.505L167.677 245.561L126.008 221.505V173.393L167.682 149.336Z" fill="#F9F9F9"/>
<path d="M84.3282 149.336L126.008 173.393V221.505L84.3408 245.561L42.6689 221.505L42.6744 173.393L84.3282 149.336Z" fill="#F9F9F9"/>
<path d="M167.666 5L209.333 29.0561V77.1682L167.666 101.224L125.992 77.1682V29.0561L167.666 5Z" fill="#F9F9F9"/>
<path d="M125.992 77.1682L167.666 101.224L167.682 149.336L126.008 173.393L84.3282 149.336L84.3408 101.224L125.992 77.1682Z" fill="#F9F9F9"/>
<path d="M84.3247 5L125.992 29.0561V77.1682L84.3408 101.224L42.6584 77.1682V29.0561L84.3247 5Z" fill="#F9F9F9"/>
<path d="M209.333 77.1682L251 101.224V149.336L209.349 173.393L167.682 149.336L167.666 101.224L209.333 77.1682Z" fill="#F9F9F9"/>
<path d="M84.3408 101.224L42.6744 77.1682L1 101.224V149.336L42.6744 173.392M84.3408 101.224L84.3282 149.336M84.3408 101.224L125.992 77.1682M84.3408 101.224L42.6584 77.1682V29.0561L84.3247 5L125.992 29.0561M84.3282 149.336L42.6744 173.392M84.3282 149.336L126.008 173.392M42.6744 173.392L42.6689 221.505L84.3408 245.561L126.008 221.505M167.682 149.336L209.349 173.392M167.682 149.336L126.008 173.392M167.682 149.336L167.666 101.224M209.349 173.392V221.505M209.349 173.392L251 149.336M209.349 221.505L167.677 245.561L126.008 221.505M209.349 221.505L209.336 173.392L251 149.336M126.008 221.505V173.392M126.008 221.505L84.3442 245.561M209.333 77.1682V29.0561L167.666 5L125.992 29.0561M209.333 77.1682L167.666 101.224M209.333 77.1682L251 101.224V149.336M167.666 101.224L125.992 77.1682M125.992 77.1682V29.0561" stroke="black" stroke-width="2" stroke-linejoin="round"/>
</svg>
