<svg width="252" height="252" viewBox="0 0 252 252" fill="none" xmlns="http://www.w3.org/2000/svg">
<path d="M126 1C153.614 1 176 23.3858 176 51C176 53.4626 173.589 55.2137 171.154 54.847C169.636 54.6185 168.082 54.5 166.5 54.5C149.379 54.5 135.5 68.3792 135.5 85.5C135.5 102.621 149.379 116.5 166.5 116.5C183.621 116.5 197.5 102.621 197.5 85.5C197.5 83.9806 197.391 82.4867 197.18 81.0258C196.817 78.5173 198.465 76 201 76C228.614 76 251 98.3858 251 126C251 153.614 228.614 176 201 176C198.465 176 196.817 173.483 197.18 170.974C197.391 169.513 197.5 168.019 197.5 166.5C197.5 149.379 183.621 135.5 166.5 135.5C149.379 135.5 135.5 149.379 135.5 166.5C135.5 183.621 149.379 197.5 166.5 197.5C168.082 197.5 169.636 197.382 171.154 197.153C173.589 196.786 176 198.537 176 201C176 228.614 153.614 251 126 251C98.3858 251 76 228.614 76 201L76.0001 200.903C76.0001 198.488 78.3636 196.771 80.7504 197.138C82.2988 197.376 83.885 197.5 85.5 197.5C102.621 197.5 116.5 183.621 116.5 166.5C116.5 149.379 102.621 135.5 85.5 135.5C68.3792 135.5 54.5 149.379 54.5 166.5C54.5 168.019 54.6093 169.513 54.8205 170.974C55.1831 173.483 53.5346 176 51 176C23.3858 176 1 153.614 1 126C0.999999 98.3858 23.3858 76 51 76C53.5346 76 55.1831 78.5173 54.8205 81.0258C54.6093 82.4867 54.5 83.9806 54.5 85.5C54.5 102.621 68.3792 116.5 85.5 116.5C102.621 116.5 116.5 102.621 116.5 85.5C116.5 68.3792 102.621 54.5 85.5 54.5C83.885 54.5 82.2988 54.6235 80.7504 54.8616C78.3636 55.2285 76.0001 53.5115 76.0001 51.0967L76 51C76 23.3858 98.3858 1 126 1Z" fill="#F9F9F9" stroke="black" stroke-width="2" stroke-linejoin="round"/>
</svg>
