<svg width="253" height="252" viewBox="0 0 253 252" fill="none" xmlns="http://www.w3.org/2000/svg">
<path fill-rule="evenodd" clip-rule="evenodd" d="M27.5607 94.6447C12.293 86.0859 1.97461 69.748 1.97461 51C1.97461 23.3858 24.3604 1 51.9746 1C70.7226 1 87.0605 11.3184 95.6193 26.5861C102.391 38.6655 113.127 50.5 126.975 50.5C140.823 50.5 151.558 38.6655 158.33 26.5861C166.889 11.3184 183.227 1 201.975 1C229.589 1 251.975 23.3858 251.975 51C251.975 69.748 241.656 86.0859 226.389 94.6447C214.309 101.416 202.475 112.152 202.475 126C202.475 139.848 214.309 150.584 226.389 157.355C241.656 165.914 251.975 182.252 251.975 201C251.975 228.614 229.589 251 201.975 251C183.227 251 166.889 240.682 158.33 225.414C151.558 213.335 140.823 201.5 126.975 201.5C113.127 201.5 102.391 213.335 95.6193 225.414C87.0605 240.682 70.7226 251 51.9746 251C24.3604 251 1.97461 228.614 1.97461 201C1.97461 182.252 12.293 165.914 27.5607 157.355C39.6401 150.584 51.4746 139.848 51.4746 126C51.4746 112.152 39.6401 101.416 27.5607 94.6447ZM126.975 181C157.35 181 181.975 156.376 181.975 126C181.975 95.6243 157.35 71 126.975 71C96.5989 71 71.9746 95.6243 71.9746 126C71.9746 156.376 96.5989 181 126.975 181Z" fill="#F9F9F9" stroke="black" stroke-width="2" stroke-linejoin="round"/>
</svg>
