<svg width="253" height="253" viewBox="0 0 253 253" fill="none" xmlns="http://www.w3.org/2000/svg">
<path d="M84.5254 42.4873C84.5254 20.1128 66.3872 1.97461 44.0127 1.97461H42.5127C19.5859 1.97461 1 20.5605 1 43.4873V44.5C1 66.8675 19.1325 85 41.5 85C63.8675 85 82 103.132 82 125.5V128C82 150.368 63.8675 168.5 41.5 168.5C19.1325 168.5 1 186.632 1 209V210.25C1 233.308 19.6921 252 42.75 252H44.0254C66.3929 252 84.5254 233.868 84.5254 211.5C84.5254 189.132 102.658 171 125.025 171H127.525C149.893 171 168.025 189.132 168.025 211.5C168.025 233.868 186.158 252 208.525 252H209.525C232.445 252 251.025 233.42 251.025 210.5V209C251.025 186.632 232.893 168.5 210.525 168.5C188.158 168.5 170.025 150.368 170.025 128V125.5C170.025 103.132 188.158 85 210.525 85C232.893 85 251.025 66.8675 251.025 44.5V43.4746C251.025 20.5548 232.445 1.97461 209.525 1.97461H208.538C186.164 1.97461 168.025 20.1128 168.025 42.4873C168.025 64.8618 149.887 83 127.513 83H125.038C102.664 83 84.5254 64.8618 84.5254 42.4873Z" fill="#F9F9F9"/>
<path d="M9.52539 126C9.52539 108.603 23.6284 94.5 41.0254 94.5C58.4224 94.5 72.5254 108.603 72.5254 126C72.5254 143.397 58.4224 157.5 41.0254 157.5C23.6284 157.5 9.52539 143.397 9.52539 126Z" fill="#F9F9F9"/>
<path d="M179.525 126C179.525 108.603 193.628 94.5 211.025 94.5C228.422 94.5 242.525 108.603 242.525 126C242.525 143.397 228.422 157.5 211.025 157.5C193.628 157.5 179.525 143.397 179.525 126Z" fill="#F9F9F9"/>
<path d="M94.5254 212C94.5254 194.603 108.628 180.5 126.025 180.5C143.422 180.5 157.525 194.603 157.525 212C157.525 229.397 143.422 243.5 126.025 243.5C108.628 243.5 94.5254 229.397 94.5254 212Z" fill="#F9F9F9"/>
<path d="M94.5254 42C94.5254 24.603 108.628 10.5 126.025 10.5C143.422 10.5 157.525 24.603 157.525 42C157.525 59.397 143.422 73.5 126.025 73.5C108.628 73.5 94.5254 59.397 94.5254 42Z" fill="#F9F9F9"/>
<path d="M84.5254 42.4873C84.5254 20.1128 66.3872 1.97461 44.0127 1.97461H42.5127C19.5859 1.97461 1 20.5605 1 43.4873V44.5C1 66.8675 19.1325 85 41.5 85C63.8675 85 82 103.132 82 125.5V128C82 150.368 63.8675 168.5 41.5 168.5C19.1325 168.5 1 186.632 1 209V210.25C1 233.308 19.6921 252 42.75 252H44.0254C66.3929 252 84.5254 233.868 84.5254 211.5C84.5254 189.132 102.658 171 125.025 171H127.525C149.893 171 168.025 189.132 168.025 211.5C168.025 233.868 186.158 252 208.525 252H209.525C232.445 252 251.025 233.42 251.025 210.5V209C251.025 186.632 232.893 168.5 210.525 168.5C188.158 168.5 170.025 150.368 170.025 128V125.5C170.025 103.132 188.158 85 210.525 85C232.893 85 251.025 66.8675 251.025 44.5V43.4746C251.025 20.5548 232.445 1.97461 209.525 1.97461H208.538C186.164 1.97461 168.025 20.1128 168.025 42.4873C168.025 64.8618 149.887 83 127.513 83H125.038C102.664 83 84.5254 64.8618 84.5254 42.4873Z" stroke="black" stroke-width="2" stroke-linejoin="round"/>
<path d="M9.52539 126C9.52539 108.603 23.6284 94.5 41.0254 94.5C58.4224 94.5 72.5254 108.603 72.5254 126C72.5254 143.397 58.4224 157.5 41.0254 157.5C23.6284 157.5 9.52539 143.397 9.52539 126Z" stroke="black" stroke-width="2" stroke-linejoin="round"/>
<path d="M179.525 126C179.525 108.603 193.628 94.5 211.025 94.5C228.422 94.5 242.525 108.603 242.525 126C242.525 143.397 228.422 157.5 211.025 157.5C193.628 157.5 179.525 143.397 179.525 126Z" stroke="black" stroke-width="2" stroke-linejoin="round"/>
<path d="M94.5254 212C94.5254 194.603 108.628 180.5 126.025 180.5C143.422 180.5 157.525 194.603 157.525 212C157.525 229.397 143.422 243.5 126.025 243.5C108.628 243.5 94.5254 229.397 94.5254 212Z" stroke="black" stroke-width="2" stroke-linejoin="round"/>
<path d="M94.5254 42C94.5254 24.603 108.628 10.5 126.025 10.5C143.422 10.5 157.525 24.603 157.525 42C157.525 59.397 143.422 73.5 126.025 73.5C108.628 73.5 94.5254 59.397 94.5254 42Z" stroke="black" stroke-width="2" stroke-linejoin="round"/>
</svg>
