<svg width="252" height="252" viewBox="0 0 252 252" fill="none" xmlns="http://www.w3.org/2000/svg">
<path d="M123.5 62.25C123.5 28.4226 150.923 1 184.75 1H187.25C222.458 1 251 29.5418 251 64.75V67.25C251 101.077 223.577 128.5 189.75 128.5C155.923 128.5 128.5 155.923 128.5 189.75C128.5 223.577 101.077 251 67.25 251H64.75C29.5418 251 1 222.458 1 187.25V184.75C1 150.923 28.4226 123.5 62.25 123.5C96.0774 123.5 123.5 96.0774 123.5 62.25Z" fill="#F9F9F9" stroke="black" stroke-width="2" stroke-linejoin="round"/>
<path d="M1 57.25C1 26.184 26.184 1 57.25 1C88.316 1 113.5 26.184 113.5 57.25C113.5 88.316 88.316 113.5 57.25 113.5C26.184 113.5 1 88.316 1 57.25Z" fill="#F9F9F9" stroke="black" stroke-width="2" stroke-linejoin="round"/>
</svg>
