<svg width="253" height="252" viewBox="0 0 253 252" fill="none" xmlns="http://www.w3.org/2000/svg">
<path d="M233.258 18.767C256.948 42.4562 256.948 80.8641 233.258 104.553C213.517 124.294 181.837 122.63 154.174 126.398C145.756 127.544 138.246 130.937 132.459 136.723C125.319 143.863 121.823 153.629 121.696 164.485C121.41 188.857 121.814 215.998 104.579 233.233C80.8895 256.922 42.4816 256.922 18.7923 233.233C-4.89693 209.544 -4.89693 171.136 18.7923 147.447C36.4606 129.778 64.3496 130.199 89.2388 127.994C98.5486 127.17 106.871 123.708 113.157 117.421C118.061 112.518 121.246 106.376 122.801 99.4926C129.095 71.6372 127.279 38.9602 147.472 18.767C171.161 -4.92232 209.569 -4.92232 233.258 18.767Z" fill="#F9F9F9" stroke="black" stroke-width="2" stroke-linejoin="round"/>
</svg>
