<svg width="250" height="252" viewBox="0 0 250 252" fill="none" xmlns="http://www.w3.org/2000/svg">
<path d="M71.5286 1.13267C94.5019 2.6764 116.517 15.8163 134.238 30.5174C136.867 32.6976 139.481 34.8663 142.119 36.8723C146.036 39.8504 150.502 41.5368 155.241 41.5368C161.09 41.5368 166.521 38.969 171.019 34.575C171.412 34.191 171.807 33.805 172.202 33.4175C181.975 23.8492 192.618 13.4292 206.185 13.4292C225.589 13.4292 241.319 29.1594 241.319 48.5637C241.319 67.9679 225.589 83.6982 206.185 83.6982C193.612 83.6982 183.471 74.9467 173.75 66.5576C172.282 65.2907 170.823 64.0321 169.367 62.8132C168.339 61.952 167.269 61.182 166.163 60.5109C162.093 57.6092 157.398 55.9543 152.397 55.9543C136.861 55.9543 124.266 71.9281 124.266 91.6328C124.266 103.736 129.018 114.432 136.285 120.883C142.662 128.029 151.707 131.951 161.993 132.802C162.905 132.877 163.821 132.952 164.74 133.027L164.744 133.027C187.481 134.882 212.241 136.901 227.07 153.995C248.279 178.442 245.654 215.453 221.208 236.663C196.762 257.872 159.751 255.247 138.542 230.8C124.799 214.959 124.741 192.617 124.684 171.199C124.675 167.965 124.667 164.752 124.611 161.585C124.453 152.558 121.686 144.302 116.058 137.814C111.668 132.753 105.967 129.265 99.4402 127.296C92.3098 125.144 84.8004 123.538 77.2806 121.931C56.9459 117.583 36.5352 113.218 23.3372 98.005C2.1285 73.5581 4.75316 36.5466 29.1995 15.3375C41.3633 4.78438 56.6379 0.132051 71.5286 1.13267Z" fill="#F9F9F9" stroke="black" stroke-width="2" stroke-linejoin="round"/>
</svg>
