<svg width="252" height="250" viewBox="0 0 252 250" fill="none" xmlns="http://www.w3.org/2000/svg">
<path d="M126.001 102.187C109.204 115.185 97.8886 134.924 96.1091 157.348C105.192 161.08 115.14 163.138 125.569 163.138C136.318 163.138 146.556 160.952 155.864 156.999C153.995 134.719 142.71 115.117 126.001 102.187Z" fill="#F9F9F9"/>
<path d="M1 163.569C1 206.409 35.7288 241.138 78.569 241.138C96.4334 241.138 112.887 235.099 126.001 224.951C107.667 210.764 95.8633 188.545 95.8633 163.569C95.8633 161.475 95.9463 159.4 96.1091 157.348C97.8886 134.924 109.204 115.185 126.001 102.187C112.887 92.039 96.4334 86 78.569 86C67.82 86 57.5816 88.1864 48.2743 92.1387C20.4876 103.938 1 131.478 1 163.569Z" fill="#F9F9F9"/>
<path d="M203.138 85.569C203.138 42.7288 168.409 8 125.569 8C82.7288 8 48 42.7288 48 85.569C48 87.7818 48.0927 89.9729 48.2743 92.1387C57.5816 88.1864 67.82 86 78.569 86C96.4334 86 112.887 92.039 126.001 102.187C142.71 115.117 153.995 134.719 155.864 156.999C181.837 145.97 200.559 121.187 202.892 91.79C203.055 89.7378 203.138 87.6631 203.138 85.569Z" fill="#F9F9F9"/>
<path d="M173.432 241.138C216.272 241.138 251.001 206.409 251.001 163.569C251.001 131.157 231.123 103.389 202.892 91.79C200.559 121.187 181.837 145.97 155.864 156.999C146.556 160.952 136.318 163.138 125.569 163.138C115.14 163.138 105.192 161.08 96.1091 157.348C95.9463 159.4 95.8633 161.475 95.8633 163.569C95.8633 188.545 107.667 210.764 126.001 224.951C139.114 235.099 155.568 241.138 173.432 241.138Z" fill="#F9F9F9"/>
<path d="M48.2743 92.1387C48.0927 89.9729 48 87.7818 48 85.569C48 42.7288 82.7288 8 125.569 8C168.409 8 203.138 42.7288 203.138 85.569C203.138 87.6631 203.055 89.7378 202.892 91.79M48.2743 92.1387C20.4876 103.938 1 131.478 1 163.569C1 206.409 35.7288 241.138 78.569 241.138C96.4334 241.138 112.887 235.099 126.001 224.951M48.2743 92.1387C57.5816 88.1864 67.82 86 78.569 86C96.4334 86 112.887 92.039 126.001 102.187M126.001 224.951C139.114 235.099 155.568 241.138 173.432 241.138C216.272 241.138 251.001 206.409 251.001 163.569C251.001 131.157 231.123 103.389 202.892 91.79M126.001 224.951C107.667 210.764 95.8633 188.545 95.8633 163.569C95.8633 161.475 95.9463 159.4 96.1091 157.348M202.892 91.79C200.559 121.187 181.837 145.97 155.864 156.999M96.1091 157.348C97.8886 134.924 109.204 115.185 126.001 102.187M96.1091 157.348C105.192 161.08 115.14 163.138 125.569 163.138C136.318 163.138 146.556 160.952 155.864 156.999M126.001 102.187C142.71 115.117 153.995 134.719 155.864 156.999" stroke="black" stroke-width="2" stroke-linejoin="round"/>
<path d="M126.001 102.188C109.205 115.185 97.8888 134.924 96.1094 157.349C105.193 161.081 115.141 163.139 125.569 163.139C136.318 163.139 146.557 160.952 155.864 157C153.995 134.72 142.71 115.118 126.001 102.188Z" fill="#F9F9F9" stroke="black" stroke-width="2" stroke-linejoin="round"/>
</svg>
