<svg width="252" height="252" viewBox="0 0 252 252" fill="none" xmlns="http://www.w3.org/2000/svg">
<path d="M142.936 17.9103C142.936 27.2496 135.354 34.8206 126 34.8206C116.647 34.8206 109.064 27.2496 109.064 17.9103C109.064 8.57099 116.647 0.999995 126 0.999995C135.354 0.999995 142.936 8.571 142.936 17.9103Z" fill="#F9F9F9"/>
<path d="M142.936 234.09C142.936 243.429 135.354 251 126 251C116.647 251 109.064 243.429 109.064 234.09C109.064 224.75 116.647 217.179 126 217.179C135.354 217.179 142.936 224.75 142.936 234.09Z" fill="#F9F9F9"/>
<path d="M251 126C251 135.339 243.418 142.91 234.064 142.91C224.711 142.91 217.128 135.339 217.128 126C217.128 116.661 224.711 109.09 234.064 109.09C243.418 109.09 251 116.661 251 126Z" fill="#F9F9F9"/>
<path d="M34.872 126C34.872 135.339 27.2895 142.91 17.936 142.91C8.58251 142.91 0.999994 135.339 0.999995 126C0.999995 116.661 8.58251 109.09 17.936 109.09C27.2895 109.09 34.872 116.661 34.872 126Z" fill="#F9F9F9"/>
<path d="M219.521 49.7436C219.521 59.0829 211.938 66.6539 202.585 66.6539C197.82 66.6539 193.515 64.6891 190.437 61.5267C187.474 58.4812 185.649 54.3252 185.649 49.7436C185.649 40.4043 193.231 32.8333 202.585 32.8333C211.938 32.8333 219.521 40.4043 219.521 49.7436Z" fill="#F9F9F9"/>
<path d="M67.05 49.0651C67.05 53.9969 64.9356 58.4355 61.5625 61.5266C58.548 64.2892 54.5282 65.9754 50.114 65.9754C40.7605 65.9754 33.1781 58.4044 33.1781 49.0651C33.1781 39.7258 40.7605 32.1548 50.114 32.1548C59.4675 32.1548 67.05 39.7258 67.05 49.0651Z" fill="#F9F9F9"/>
<path d="M219.92 201.833C219.92 211.172 212.337 218.743 202.984 218.743C193.63 218.743 186.048 211.172 186.048 201.833C186.048 197.46 187.71 193.476 190.437 190.474C193.536 187.064 198.009 184.922 202.984 184.922C212.337 184.922 219.92 192.493 219.92 201.833Z" fill="#F9F9F9"/>
<path d="M68.3384 204.004C68.3384 213.344 60.7559 220.915 51.4024 220.915C42.0489 220.915 34.4664 213.344 34.4664 204.004C34.4664 194.665 42.0489 187.094 51.4024 187.094C55.2144 187.094 58.7322 188.352 61.5625 190.474C65.6769 193.559 68.3384 198.471 68.3384 204.004Z" fill="#F9F9F9"/>
<path d="M142.936 17.9103C142.936 27.2496 135.354 34.8206 126 34.8206C116.647 34.8206 109.064 27.2496 109.064 17.9103C109.064 8.57099 116.647 0.999995 126 0.999995C135.354 0.999995 142.936 8.571 142.936 17.9103Z" stroke="black" stroke-width="2" stroke-linejoin="round"/>
<path d="M142.936 234.09C142.936 243.429 135.354 251 126 251C116.647 251 109.064 243.429 109.064 234.09C109.064 224.75 116.647 217.179 126 217.179C135.354 217.179 142.936 224.75 142.936 234.09Z" stroke="black" stroke-width="2" stroke-linejoin="round"/>
<path d="M251 126C251 135.339 243.418 142.91 234.064 142.91C224.711 142.91 217.128 135.339 217.128 126C217.128 116.661 224.711 109.09 234.064 109.09C243.418 109.09 251 116.661 251 126Z" stroke="black" stroke-width="2" stroke-linejoin="round"/>
<path d="M34.872 126C34.872 135.339 27.2895 142.91 17.936 142.91C8.58251 142.91 0.999994 135.339 0.999995 126C0.999995 116.661 8.58251 109.09 17.936 109.09C27.2895 109.09 34.872 116.661 34.872 126Z" stroke="black" stroke-width="2" stroke-linejoin="round"/>
<path d="M219.521 49.7436C219.521 59.0829 211.938 66.6539 202.585 66.6539C197.82 66.6539 193.515 64.6891 190.437 61.5267C187.474 58.4812 185.649 54.3252 185.649 49.7436C185.649 40.4043 193.231 32.8333 202.585 32.8333C211.938 32.8333 219.521 40.4043 219.521 49.7436Z" stroke="black" stroke-width="2" stroke-linejoin="round"/>
<path d="M67.05 49.0651C67.05 53.9969 64.9356 58.4355 61.5625 61.5266C58.548 64.2892 54.5282 65.9754 50.114 65.9754C40.7605 65.9754 33.1781 58.4044 33.1781 49.0651C33.1781 39.7258 40.7605 32.1548 50.114 32.1548C59.4675 32.1548 67.05 39.7258 67.05 49.0651Z" stroke="black" stroke-width="2" stroke-linejoin="round"/>
<path d="M219.92 201.833C219.92 211.172 212.337 218.743 202.984 218.743C193.63 218.743 186.048 211.172 186.048 201.833C186.048 197.46 187.71 193.476 190.437 190.474C193.536 187.064 198.009 184.922 202.984 184.922C212.337 184.922 219.92 192.493 219.92 201.833Z" stroke="black" stroke-width="2" stroke-linejoin="round"/>
<path d="M68.3384 204.004C68.3384 213.344 60.7559 220.915 51.4024 220.915C42.0489 220.915 34.4664 213.344 34.4664 204.004C34.4664 194.665 42.0489 187.094 51.4024 187.094C55.2144 187.094 58.7322 188.352 61.5625 190.474C65.6769 193.559 68.3384 198.471 68.3384 204.004Z" stroke="black" stroke-width="2" stroke-linejoin="round"/>
<path d="M188 126.5C188 160.465 160.466 188 126.5 188C92.5345 188 65 160.466 65 126.5C65 92.5345 92.5345 65 126.5 65C160.466 65 188 92.5345 188 126.5Z" fill="#F9F9F9" stroke="black" stroke-width="2" stroke-linejoin="round"/>
</svg>
