<svg width="252" height="250" viewBox="0 0 252 250" fill="none" xmlns="http://www.w3.org/2000/svg">
<path d="M213.558 235.806C234.236 235.806 251 219.043 251 198.364C251 177.685 234.236 160.922 213.558 160.922C199.565 160.922 187.365 168.597 180.939 179.968C177.868 185.401 176.115 191.678 176.115 198.364C176.115 219.043 192.879 235.806 213.558 235.806Z" fill="#F9F9F9"/>
<path d="M126 84.8848C146.679 84.8848 163.442 68.1213 163.442 47.4424C163.442 26.7635 146.679 10 126 10C105.321 10 88.5576 26.7635 88.5576 47.4424C88.5576 68.1213 105.321 84.8848 126 84.8848Z" fill="#F9F9F9"/>
<path d="M126 110.806C105.321 110.806 88.5576 127.57 88.5576 148.249C88.5576 155.07 90.3816 161.465 93.5685 166.973C100.043 178.163 112.142 185.691 126 185.691C139.858 185.691 151.957 178.163 158.431 166.973C161.618 161.465 163.442 155.07 163.442 148.249C163.442 127.57 146.679 110.806 126 110.806Z" fill="#F9F9F9"/>
<path d="M38.4424 235.806C59.1213 235.806 75.8848 219.043 75.8848 198.364C75.8848 191.678 74.1322 185.401 71.0614 179.968C64.6349 168.597 52.435 160.922 38.4424 160.922C17.7635 160.922 1 177.685 1 198.364C1 219.043 17.7635 235.806 38.4424 235.806Z" fill="#F9F9F9"/>
<path d="M126 110.806C105.321 110.806 88.5576 127.57 88.5576 148.249C88.5576 155.07 90.3816 161.465 93.5685 166.973M126 110.806C146.679 110.806 163.442 127.57 163.442 148.249C163.442 155.07 161.618 161.465 158.431 166.973M126 110.806V84.8848M126 84.8848C146.679 84.8848 163.442 68.1213 163.442 47.4424C163.442 26.7635 146.679 10 126 10C105.321 10 88.5576 26.7635 88.5576 47.4424C88.5576 68.1213 105.321 84.8848 126 84.8848ZM180.939 179.968C187.365 168.597 199.565 160.922 213.558 160.922C234.236 160.922 251 177.685 251 198.364C251 219.043 234.236 235.806 213.558 235.806C192.879 235.806 176.115 219.043 176.115 198.364C176.115 191.678 177.868 185.401 180.939 179.968ZM180.939 179.968L158.431 166.973M158.431 166.973C151.957 178.163 139.858 185.691 126 185.691C112.142 185.691 100.043 178.163 93.5685 166.973M93.5685 166.973L71.0614 179.968M71.0614 179.968C74.1322 185.401 75.8848 191.678 75.8848 198.364C75.8848 219.043 59.1213 235.806 38.4424 235.806C17.7635 235.806 1 219.043 1 198.364C1 177.685 17.7635 160.922 38.4424 160.922C52.435 160.922 64.6349 168.597 71.0614 179.968Z" stroke="black" stroke-width="2" stroke-linejoin="round"/>
</svg>
