<svg width="252" height="250" viewBox="0 0 252 250" fill="none" xmlns="http://www.w3.org/2000/svg">
<path d="M125.746 105.842C152.352 105.842 173.921 84.3869 173.921 57.9209C173.921 31.4549 152.352 10 125.746 10C99.1404 10 77.572 31.4549 77.572 57.9209C77.572 84.3869 99.1404 105.842 125.746 105.842Z" fill="#F9F9F9"/>
<path d="M203.079 238.702C229.545 238.702 251 217.247 251 190.781C251 164.315 229.545 142.86 203.079 142.86C185.258 142.86 169.708 152.588 161.452 167.024C157.447 174.027 155.158 182.136 155.158 190.781C155.158 217.247 176.613 238.702 203.079 238.702Z" fill="#F9F9F9"/>
<path d="M48.9209 238.702C75.3869 238.702 96.8418 217.247 96.8418 190.781C96.8418 182.046 94.5046 173.857 90.4216 166.805C82.1336 152.49 66.6518 142.86 48.9209 142.86C22.4549 142.86 1 164.315 1 190.781C1 217.247 22.4549 238.702 48.9209 238.702Z" fill="#F9F9F9"/>
<path d="M125.746 146.41L161.452 167.024M125.746 146.41L90.4216 166.805M125.746 146.41L125.746 105.842M125.746 105.842C152.352 105.842 173.921 84.3869 173.921 57.9209C173.921 31.4549 152.352 10 125.746 10C99.1404 10 77.572 31.4549 77.572 57.9209C77.572 84.3869 99.1404 105.842 125.746 105.842ZM161.452 167.024C169.708 152.588 185.258 142.86 203.079 142.86C229.545 142.86 251 164.315 251 190.781C251 217.247 229.545 238.702 203.079 238.702C176.613 238.702 155.158 217.247 155.158 190.781C155.158 182.136 157.447 174.027 161.452 167.024ZM90.4216 166.805C94.5046 173.857 96.8418 182.046 96.8418 190.781C96.8418 217.247 75.3869 238.702 48.9209 238.702C22.4549 238.702 1 217.247 1 190.781C1 164.315 22.4549 142.86 48.9209 142.86C66.6518 142.86 82.1336 152.49 90.4216 166.805Z" stroke="black" stroke-width="2" stroke-linejoin="round"/>
</svg>
