<svg width="252" height="250" viewBox="0 0 252 250" fill="none" xmlns="http://www.w3.org/2000/svg">
<path d="M126 240.808C156.543 240.808 181.303 216.048 181.303 185.505C181.303 165.16 170.317 147.382 153.955 137.777C145.752 132.963 136.198 130.202 126 130.202C115.958 130.202 106.542 132.878 98.4244 137.557C81.8524 147.108 70.697 165.004 70.697 185.505C70.697 216.048 95.457 240.808 126 240.808Z" fill="#F9F9F9"/>
<path d="M56.303 10C25.76 10 1 34.76 1 65.303C0.999997 95.8461 25.76 120.606 56.303 120.606C66.5035 120.606 76.0591 117.844 84.2626 113.028C100.623 103.423 111.606 85.6455 111.606 65.303C111.606 34.76 86.846 10 56.303 10Z" fill="#F9F9F9"/>
<path d="M195.697 10C165.154 10 140.394 34.76 140.394 65.303C140.394 85.8022 151.547 103.696 168.116 113.248C176.235 117.929 185.653 120.606 195.697 120.606C226.24 120.606 251 95.8461 251 65.3031C251 34.76 226.24 10 195.697 10Z" fill="#F9F9F9"/>
<path d="M111.606 65.303C111.606 34.76 86.846 10 56.303 10C25.76 10 1 34.76 1 65.303C0.999997 95.8461 25.76 120.606 56.303 120.606C66.5035 120.606 76.0591 117.844 84.2626 113.028M111.606 65.303C111.606 85.6455 100.623 103.423 84.2626 113.028M111.606 65.303L140.394 65.303M140.394 65.303C140.394 34.76 165.154 10 195.697 10C226.24 10 251 34.76 251 65.3031C251 95.8461 226.24 120.606 195.697 120.606C185.653 120.606 176.235 117.929 168.116 113.248M140.394 65.303C140.394 85.8022 151.547 103.696 168.116 113.248M98.4244 137.557C106.542 132.878 115.958 130.202 126 130.202C136.198 130.202 145.752 132.963 153.955 137.777M98.4244 137.557C81.8524 147.108 70.697 165.004 70.697 185.505C70.697 216.048 95.457 240.808 126 240.808C156.543 240.808 181.303 216.048 181.303 185.505C181.303 165.16 170.317 147.382 153.955 137.777M98.4244 137.557L84.2626 113.028M153.955 137.777L168.116 113.248" stroke="black" stroke-width="2" stroke-linejoin="round"/>
</svg>
