<svg width="252" height="250" viewBox="0 0 252 250" fill="none" xmlns="http://www.w3.org/2000/svg">
<path fill-rule="evenodd" clip-rule="evenodd" d="M195.697 240.808C226.24 240.808 251 216.048 251 185.505C251 154.962 226.24 130.202 195.697 130.202C185.496 130.202 175.941 132.964 167.737 137.78C151.377 147.385 140.394 165.163 140.394 185.505C140.394 216.048 165.154 240.808 195.697 240.808ZM208.576 186.263C208.576 193.515 202.697 199.394 195.444 199.394C188.192 199.394 182.313 193.515 182.313 186.263C182.313 186.008 182.32 185.756 182.335 185.505C182.727 178.605 188.446 173.131 195.444 173.131C202.697 173.131 208.576 179.01 208.576 186.263Z" fill="#F9F9F9"/>
<path fill-rule="evenodd" clip-rule="evenodd" d="M111.606 185.505C111.606 216.048 86.846 240.808 56.303 240.808C25.76 240.808 1 216.048 1 185.505C1 154.962 25.76 130.202 56.303 130.202C66.3469 130.202 75.7654 132.88 83.8837 137.56C100.453 147.112 111.606 165.006 111.606 185.505ZM70.1919 186.263C70.1919 193.515 64.3128 199.394 57.0606 199.394C49.8084 199.394 43.9293 193.515 43.9293 186.263C43.9293 179.01 49.8084 173.131 57.0606 173.131C59.0525 173.131 60.9408 173.575 62.6321 174.368C67.0988 176.464 70.1919 181.002 70.1919 186.263Z" fill="#F9F9F9"/>
<path fill-rule="evenodd" clip-rule="evenodd" d="M153.576 113.251C170.148 103.7 181.303 85.8043 181.303 65.303C181.303 34.76 156.543 10 126 10C95.457 10 70.697 34.76 70.697 65.303C70.697 85.6476 81.6826 103.426 98.0454 113.031C106.248 117.846 115.802 120.606 126 120.606C136.042 120.606 145.458 117.93 153.576 113.251ZM138.879 65.0505C138.879 69.9107 136.238 74.1541 132.314 76.4247C130.382 77.5422 128.14 78.1818 125.747 78.1818C118.495 78.1818 112.616 72.3027 112.616 65.0505C112.616 57.7983 118.495 51.9192 125.747 51.9192C133 51.9192 138.879 57.7983 138.879 65.0505Z" fill="#F9F9F9"/>
<path d="M140.394 185.505C140.394 216.048 165.154 240.808 195.697 240.808C226.24 240.808 251 216.048 251 185.505C251 154.962 226.24 130.202 195.697 130.202C185.496 130.202 175.941 132.964 167.737 137.78M140.394 185.505C140.394 165.163 151.377 147.385 167.737 137.78M140.394 185.505H111.606M140.394 185.505H182.335M111.606 185.505C111.606 216.048 86.846 240.808 56.303 240.808C25.76 240.808 1 216.048 1 185.505C1 154.962 25.76 130.202 56.303 130.202C66.3469 130.202 75.7654 132.879 83.8837 137.56M111.606 185.505C111.606 165.006 100.453 147.112 83.8837 137.56M153.576 113.251C145.458 117.93 136.042 120.606 126 120.606C115.802 120.606 106.248 117.846 98.0454 113.031M153.576 113.251C170.148 103.7 181.303 85.8043 181.303 65.303C181.303 34.76 156.543 10 126 10C95.457 10 70.697 34.76 70.697 65.303C70.697 85.6476 81.6826 103.426 98.0454 113.031M153.576 113.251L167.737 137.78M153.576 113.251L132.314 76.4247M98.0454 113.031L83.8837 137.56M83.8837 137.56L62.6321 174.368M182.335 185.505C182.32 185.756 182.313 186.008 182.313 186.263C182.313 193.515 188.192 199.394 195.444 199.394C202.697 199.394 208.576 193.515 208.576 186.263C208.576 179.01 202.697 173.131 195.444 173.131C188.446 173.131 182.727 178.605 182.335 185.505ZM62.6321 174.368C60.9408 173.575 59.0525 173.131 57.0606 173.131C49.8084 173.131 43.9293 179.01 43.9293 186.263C43.9293 193.515 49.8084 199.394 57.0606 199.394C64.3128 199.394 70.1919 193.515 70.1919 186.263C70.1919 181.002 67.0988 176.464 62.6321 174.368ZM132.314 76.4247C136.238 74.1541 138.879 69.9107 138.879 65.0505C138.879 57.7983 133 51.9192 125.747 51.9192C118.495 51.9192 112.616 57.7983 112.616 65.0505C112.616 72.3027 118.495 78.1818 125.747 78.1818C128.14 78.1818 130.382 77.5422 132.314 76.4247Z" stroke="black" stroke-width="2" stroke-linejoin="round"/>
</svg>
