<svg width="250" height="250" viewBox="0 0 250 250" fill="none" xmlns="http://www.w3.org/2000/svg">
<path d="M125 12.5L191.126 33.9856L231.994 90.2356V159.764L191.126 216.014L125 237.5L58.8739 216.014L18.0059 159.764V90.2356L58.8739 33.9856L125 12.5Z" fill="#F9F9F9"/>
<path d="M125 12.5L191.126 33.9856M125 12.5L58.8739 33.9856M125 12.5V237.5M191.126 33.9856L231.994 90.2356M191.126 33.9856L58.8739 216.014M231.994 90.2356V159.764M231.994 90.2356L18.0059 159.764M231.994 159.764L191.126 216.014M231.994 159.764L18.0059 90.2356M191.126 216.014L125 237.5M191.126 216.014L58.8739 33.9856M125 237.5L58.8739 216.014M58.8739 216.014L18.0059 159.764M18.0059 159.764V90.2356M18.0059 90.2356L58.8739 33.9856" stroke="black" stroke-width="2" stroke-linejoin="round"/>
</svg>
