<svg width="252" height="252" viewBox="0 0 252 252" fill="none" xmlns="http://www.w3.org/2000/svg">
<path d="M39.2333 215.647C35.9604 177.544 44.7369 150.5 59.1905 129.974C40.5943 130.095 20.9764 129.487 1 128.148C25.6223 98.8901 50.945 85.9637 75.6678 81.6609C62.4386 68.5983 49.002 54.2989 35.8266 39.2304C73.9373 35.9536 100.988 44.7274 121.521 59.1744C121.401 40.5833 122.008 20.9708 123.345 1C152.592 25.6201 165.513 50.9406 169.816 75.6593C182.88 62.4259 197.181 48.9858 212.252 35.8087C215.532 73.9201 206.762 100.972 192.318 121.507C210.912 121.386 230.526 121.995 250.5 123.333C225.872 152.6 200.543 165.527 175.815 169.826C189.043 182.887 202.478 197.185 215.652 212.251C177.556 215.525 150.512 206.758 129.982 192.321C130.102 210.914 129.493 230.528 128.155 250.5C98.8844 225.87 85.957 200.539 81.6584 175.809C68.5972 189.038 54.2997 202.473 39.2333 215.647Z" fill="#F9F9F9"/>
<path d="M129.982 192.321C129.824 167.867 128.406 145.18 125.73 125.766M129.982 192.321C130.102 210.914 129.493 230.528 128.155 250.5C98.8844 225.87 85.957 200.539 81.6584 175.809M129.982 192.321C150.512 206.758 177.556 215.525 215.652 212.251C202.478 197.185 189.043 182.887 175.815 169.826M125.73 125.766L125.703 125.77M125.73 125.766L125.751 125.763L125.779 125.785M175.815 169.826C158.422 152.653 141.387 137.618 125.779 125.785M175.815 169.826C200.543 165.527 225.872 152.6 250.5 123.333C230.526 121.995 210.912 121.386 192.318 121.507M125.779 125.785C125.778 125.776 125.778 125.768 125.777 125.759M192.318 121.507C167.87 121.665 145.187 123.084 125.777 125.759M192.318 121.507C206.762 100.972 215.532 73.9201 212.252 35.8087C197.181 48.9858 182.88 62.4259 169.816 75.6593M125.777 125.759L125.776 125.759M169.816 75.6593C152.641 93.057 137.605 110.097 125.77 125.713M169.816 75.6593C165.513 50.9406 152.592 25.6201 123.345 1C122.008 20.9708 121.401 40.5833 121.521 59.1744M125.77 125.713L125.766 125.686M125.77 125.713C125.772 125.726 125.773 125.739 125.775 125.751M121.521 59.1744C121.68 83.6109 123.096 106.283 125.766 125.686M121.521 59.1744C100.988 44.7274 73.9373 35.9536 35.8266 39.2304C49.002 54.2989 62.4386 68.5983 75.6678 81.6609M125.766 125.686L125.743 125.717L125.724 125.719M75.6678 81.6609C93.0674 98.8414 110.108 113.882 125.724 125.719M75.6678 81.6609C50.945 85.9637 25.6223 98.8901 1 128.148C20.9764 129.487 40.5943 130.095 59.1905 129.974M125.724 125.719L125.698 125.723M59.1905 129.974C83.6248 129.814 106.295 128.397 125.698 125.723M59.1905 129.974C44.7369 150.5 35.9604 177.544 39.2333 215.647C54.2997 202.473 68.5972 189.038 81.6584 175.809M125.698 125.723L125.723 125.742L125.703 125.77M81.6584 175.809C98.8312 158.415 113.867 141.38 125.703 125.77M125.776 125.759L125.775 125.751M125.776 125.759C125.776 125.756 125.775 125.754 125.775 125.751" stroke="black" stroke-width="2" stroke-linejoin="round"/>
<path d="M125.766 125.685C123.095 106.283 121.679 83.6108 121.521 59.1743C100.987 44.7273 73.9369 35.9535 35.8262 39.2303C49.0015 54.2988 62.4381 68.5982 75.6673 81.6608C93.067 98.8413 110.108 113.882 125.723 125.719L125.742 125.717L125.766 125.685Z" fill="#F9F9F9"/>
<path d="M125.697 125.723C106.295 128.396 83.6243 129.814 59.19 129.974C44.7365 150.5 35.9599 177.543 39.2328 215.647C54.2993 202.473 68.5968 189.037 81.6579 175.809C98.8307 158.415 113.866 141.38 125.702 125.769L125.723 125.742L125.697 125.723Z" fill="#F9F9F9"/>
<path d="M125.73 125.766C128.406 145.18 129.824 167.867 129.982 192.321C150.512 206.758 177.555 215.525 215.652 212.251C202.478 197.185 189.042 182.887 175.814 169.826C158.421 152.653 141.387 137.618 125.779 125.784L125.75 125.763L125.73 125.766Z" fill="#F9F9F9"/>
<path d="M125.776 125.759C145.187 123.084 167.869 121.665 192.317 121.507C206.761 100.972 215.531 73.92 212.251 35.8086C197.181 48.9857 182.88 62.4258 169.816 75.6592C152.641 93.0569 137.604 110.097 125.77 125.713C125.771 125.726 125.773 125.738 125.775 125.751L125.776 125.759L125.776 125.759Z" fill="#F9F9F9"/>
<path d="M125.766 125.685C123.095 106.283 121.679 83.6108 121.521 59.1743C100.987 44.7273 73.9369 35.9535 35.8262 39.2303C49.0015 54.2988 62.4381 68.5982 75.6673 81.6608C93.067 98.8413 110.108 113.882 125.723 125.719L125.742 125.717L125.766 125.685Z" stroke="black" stroke-width="2" stroke-linejoin="round"/>
<path d="M125.697 125.723C106.295 128.396 83.6243 129.814 59.19 129.974C44.7365 150.5 35.9599 177.543 39.2328 215.647C54.2993 202.473 68.5968 189.037 81.6579 175.809C98.8307 158.415 113.866 141.38 125.702 125.769L125.723 125.742L125.697 125.723Z" stroke="black" stroke-width="2" stroke-linejoin="round"/>
<path d="M125.73 125.766C128.406 145.18 129.824 167.867 129.982 192.321C150.512 206.758 177.555 215.525 215.652 212.251C202.478 197.185 189.042 182.887 175.814 169.826C158.421 152.653 141.387 137.618 125.779 125.784L125.75 125.763L125.73 125.766Z" stroke="black" stroke-width="2" stroke-linejoin="round"/>
<path d="M125.776 125.759C145.187 123.084 167.869 121.665 192.317 121.507C206.761 100.972 215.531 73.92 212.251 35.8086C197.181 48.9857 182.88 62.4258 169.816 75.6592C152.641 93.0569 137.604 110.097 125.77 125.713C125.771 125.726 125.773 125.738 125.775 125.751L125.776 125.759L125.776 125.759Z" stroke="black" stroke-width="2" stroke-linejoin="round"/>
</svg>
