<svg width="252" height="252" viewBox="0 0 252 252" fill="none" xmlns="http://www.w3.org/2000/svg">
<path d="M250.101 106.488L161.216 125.974L250.101 145.459V106.488Z" fill="#F9F9F9"/>
<path d="M88.9966 125.974L1.5 106.488V145.459L88.9966 125.974Z" fill="#F9F9F9"/>
<path fill-rule="evenodd" clip-rule="evenodd" d="M125.106 89.7863C105.163 89.7863 88.9966 105.988 88.9966 125.974C88.9966 139.935 96.8858 152.049 108.44 158.084C113.426 160.689 119.095 162.161 125.106 162.161C131.683 162.161 137.85 160.399 143.161 157.32C153.954 151.063 161.216 139.368 161.216 125.974C161.216 105.988 145.049 89.7863 125.106 89.7863Z" fill="#F9F9F9"/>
<path d="M145.282 251L125.796 162.115L106.311 251H145.282Z" fill="#F9F9F9"/>
<path d="M106.311 1L125.797 89.8854L145.282 1H106.311Z" fill="#F9F9F9"/>
<path d="M199.587 24.0466L150.514 100.676L227.144 51.6032L199.587 24.0466Z" fill="#F9F9F9"/>
<path d="M99.4473 151.743L23.7996 199.834L51.3562 227.391L99.4473 151.743Z" fill="#F9F9F9"/>
<path d="M227.654 200.351L151.024 151.277L200.098 227.907L227.654 200.351Z" fill="#F9F9F9"/>
<path d="M23.3209 51.1304L99.9507 100.204L50.8775 23.5738L23.3209 51.1304Z" fill="#F9F9F9"/>
<path d="M161.216 125.974C161.216 105.988 145.049 89.7863 125.106 89.7863C105.163 89.7863 88.9966 105.988 88.9966 125.974M161.216 125.974C161.216 139.368 153.954 151.063 143.161 157.32C137.85 160.399 131.683 162.161 125.106 162.161C119.095 162.161 113.426 160.689 108.44 158.084C96.8858 152.049 88.9966 139.935 88.9966 125.974M161.216 125.974L250.101 106.488V145.459L161.216 125.974ZM88.9966 125.974L1.5 106.488V145.459L88.9966 125.974ZM125.796 162.115L145.282 251H106.311L125.796 162.115ZM125.797 89.8854L106.311 1H145.282L125.797 89.8854ZM150.514 100.676L199.587 24.0466L227.144 51.6032L150.514 100.676ZM99.4473 151.743L23.7996 199.834L51.3562 227.391L99.4473 151.743ZM151.024 151.277L227.654 200.351L200.098 227.907L151.024 151.277ZM99.9507 100.204L23.3209 51.1304L50.8775 23.5738L99.9507 100.204Z" stroke="black" stroke-width="2" stroke-linejoin="round"/>
</svg>
