<svg width="252" height="264" viewBox="0 0 252 264" fill="none" xmlns="http://www.w3.org/2000/svg">
<path d="M126.115 161.218C144.532 177.313 141.589 200.497 127.639 262.5C126.896 261.505 126.152 260.718 125.506 259.716C111.615 235.478 108.835 210.957 126.115 161.218Z" fill="#F9F9F9"/>
<path d="M108.753 155.658C114.179 179.488 98.1549 196.488 50.3876 238.492C50.3876 237.252 50.2612 236.198 50.291 234.988C53.3159 207.223 65.5049 185.754 108.753 155.658Z" fill="#F9F9F9"/>
<path d="M97.9765 140.967C88.3146 163.431 65.3637 167.803 2.01823 173.712C2.76146 172.703 3.26685 171.782 4.00265 170.817C22.7915 150.135 45.2816 139.92 97.9765 140.967Z" fill="#F9F9F9"/>
<path d="M97.9097 122.749C76.8911 135.273 55.724 125.317 1 92.9055C2.1743 92.512 3.14794 92.0814 4.30737 91.7325C31.6805 86.0237 55.8875 90.9679 97.9097 122.749Z" fill="#F9F9F9"/>
<path d="M108.568 107.976C84.1971 105.748 72.9372 85.2813 47.7343 26.931C48.916 27.3096 49.9639 27.5249 51.1011 27.9258C76.6013 39.3806 93.2793 57.5909 108.568 107.976Z" fill="#F9F9F9"/>
<path d="M125.892 102.282C107.445 86.187 110.418 63.0028 124.361 1C125.104 1.99478 125.848 2.78169 126.502 3.78389C140.393 28.0223 143.165 52.5428 125.892 102.282Z" fill="#F9F9F9"/>
<path d="M143.254 107.842C137.821 84.0119 153.845 67.0116 201.62 25.0083C201.62 26.248 201.739 27.3022 201.709 28.5123C198.684 56.2769 186.503 77.7463 143.254 107.842Z" fill="#F9F9F9"/>
<path d="M154.023 122.533C163.685 100.069 186.644 95.6968 249.989 89.7875C249.246 90.7971 248.741 91.7177 248.005 92.6828C229.216 113.343 206.726 123.58 154.023 122.533Z" fill="#F9F9F9"/>
<path d="M154.09 140.751C175.109 128.227 196.276 138.183 251 170.595C249.826 170.988 248.852 171.419 247.693 171.767C220.32 177.476 196.113 172.532 154.09 140.751Z" fill="#F9F9F9"/>
<path d="M143.432 155.524C167.803 157.752 179.07 178.211 204.266 236.562C203.084 236.19 202.036 235.975 200.899 235.574C175.399 224.119 158.728 205.909 143.432 155.524Z" fill="#F9F9F9"/>
<path d="M126.115 161.218C144.532 177.313 141.589 200.497 127.639 262.5C126.896 261.505 126.152 260.718 125.506 259.716C111.615 235.478 108.835 210.957 126.115 161.218Z" stroke="black" stroke-width="2" stroke-linejoin="round"/>
<path d="M108.753 155.658C114.179 179.488 98.1549 196.488 50.3876 238.492C50.3876 237.252 50.2612 236.198 50.291 234.988C53.3159 207.223 65.5049 185.754 108.753 155.658Z" stroke="black" stroke-width="2" stroke-linejoin="round"/>
<path d="M97.9765 140.967C88.3146 163.431 65.3637 167.803 2.01823 173.712C2.76146 172.703 3.26685 171.782 4.00265 170.817C22.7915 150.135 45.2816 139.92 97.9765 140.967Z" stroke="black" stroke-width="2" stroke-linejoin="round"/>
<path d="M97.9097 122.749C76.8911 135.273 55.724 125.317 1 92.9055C2.1743 92.512 3.14794 92.0814 4.30737 91.7325C31.6805 86.0237 55.8875 90.9679 97.9097 122.749Z" stroke="black" stroke-width="2" stroke-linejoin="round"/>
<path d="M108.568 107.976C84.1971 105.748 72.9372 85.2813 47.7343 26.931C48.916 27.3096 49.9639 27.5249 51.1011 27.9258C76.6013 39.3806 93.2793 57.5909 108.568 107.976Z" stroke="black" stroke-width="2" stroke-linejoin="round"/>
<path d="M125.892 102.282C107.445 86.187 110.418 63.0028 124.361 1C125.104 1.99478 125.848 2.78169 126.502 3.78389C140.393 28.0223 143.165 52.5428 125.892 102.282Z" stroke="black" stroke-width="2" stroke-linejoin="round"/>
<path d="M143.254 107.842C137.821 84.0119 153.845 67.0116 201.62 25.0083C201.62 26.248 201.739 27.3022 201.709 28.5123C198.684 56.2769 186.503 77.7463 143.254 107.842Z" stroke="black" stroke-width="2" stroke-linejoin="round"/>
<path d="M154.023 122.533C163.685 100.069 186.644 95.6968 249.989 89.7875C249.246 90.7971 248.741 91.7177 248.005 92.6828C229.216 113.343 206.726 123.58 154.023 122.533Z" stroke="black" stroke-width="2" stroke-linejoin="round"/>
<path d="M154.09 140.751C175.109 128.227 196.276 138.183 251 170.595C249.826 170.988 248.852 171.419 247.693 171.767C220.32 177.476 196.113 172.532 154.09 140.751Z" stroke="black" stroke-width="2" stroke-linejoin="round"/>
<path d="M143.432 155.524C167.803 157.752 179.07 178.211 204.266 236.562C203.084 236.19 202.036 235.975 200.899 235.574C175.399 224.119 158.728 205.909 143.432 155.524Z" stroke="black" stroke-width="2" stroke-linejoin="round"/>
</svg>
