<svg width="250" height="250" viewBox="0 0 250 250" fill="none" xmlns="http://www.w3.org/2000/svg">
<path d="M145.614 167.225C153.088 203.816 137.539 246.9 124.668 246.791C111.796 246.683 97.2207 203.549 104.887 167.17C107.706 153.777 115.556 131.769 125.298 131.778C135.041 131.786 142.828 153.589 145.614 167.225Z" fill="#F9F9F9"/>
<path d="M109.971 169.33C89.3835 200.491 47.9249 219.959 38.8971 210.785C29.8693 201.611 50.0639 160.8 81.2079 140.492C92.6754 133.019 113.793 123.005 120.67 129.902C127.546 136.799 117.624 157.721 109.971 169.33Z" fill="#F9F9F9"/>
<path d="M83.2758 145.618C46.6842 153.092 3.60057 137.543 3.70919 124.672C3.81781 111.8 46.9516 97.2248 83.3301 104.882C96.7235 107.702 118.731 115.552 118.723 125.294C118.714 135.036 96.9115 142.832 83.2758 145.618Z" fill="#F9F9F9"/>
<path d="M81.1703 109.971C50.0096 89.3876 30.5419 47.9249 39.716 38.8971C48.89 29.8693 89.701 50.068 110.008 81.2121C117.482 92.6796 127.496 113.797 120.599 120.674C113.701 127.55 92.7799 117.645 81.1703 109.971Z" fill="#F9F9F9"/>
<path d="M104.882 83.28C97.4087 46.6884 112.958 3.60473 125.829 3.70917C138.7 3.81361 153.276 46.9557 145.61 83.3343C142.79 96.7277 134.94 118.735 125.198 118.727C115.456 118.719 107.669 96.9157 104.882 83.28Z" fill="#F9F9F9"/>
<path d="M140.526 81.1703C161.113 50.0137 202.576 30.5419 211.62 39.7118C220.665 48.8816 200.433 89.7051 169.289 110.008C157.821 117.486 136.703 127.496 129.827 120.603C122.951 113.71 132.856 92.7673 140.526 81.1703Z" fill="#F9F9F9"/>
<path d="M167.221 104.882C203.812 97.4087 246.896 112.958 246.791 125.829C246.687 138.7 203.545 153.276 167.166 145.61C153.773 142.79 131.765 134.94 131.774 125.198C131.782 115.456 153.585 107.673 167.221 104.882Z" fill="#F9F9F9"/>
<path d="M169.33 140.53C200.487 161.117 219.975 202.576 210.785 211.603C201.594 220.631 160.795 200.437 140.492 169.289C133.014 157.825 123.001 136.703 129.898 129.831C136.795 122.959 157.729 132.872 169.33 140.53Z" fill="#F9F9F9"/>
<path d="M145.614 167.225C153.088 203.816 137.539 246.9 124.668 246.791C111.796 246.683 97.2207 203.549 104.887 167.17C107.706 153.777 115.556 131.769 125.298 131.778C135.041 131.786 142.828 153.589 145.614 167.225Z" stroke="black" stroke-width="2" stroke-linejoin="round"/>
<path d="M109.971 169.33C89.3835 200.491 47.9249 219.959 38.8971 210.785C29.8693 201.611 50.0639 160.8 81.2079 140.492C92.6754 133.019 113.793 123.005 120.67 129.902C127.546 136.799 117.624 157.721 109.971 169.33Z" stroke="black" stroke-width="2" stroke-linejoin="round"/>
<path d="M83.2758 145.618C46.6842 153.092 3.60057 137.543 3.70919 124.672C3.81781 111.8 46.9516 97.2248 83.3301 104.882C96.7235 107.702 118.731 115.552 118.723 125.294C118.714 135.036 96.9115 142.832 83.2758 145.618Z" stroke="black" stroke-width="2" stroke-linejoin="round"/>
<path d="M81.1703 109.971C50.0096 89.3876 30.5419 47.9249 39.716 38.8971C48.89 29.8693 89.701 50.068 110.008 81.2121C117.482 92.6796 127.496 113.797 120.599 120.674C113.701 127.55 92.7799 117.645 81.1703 109.971Z" stroke="black" stroke-width="2" stroke-linejoin="round"/>
<path d="M104.882 83.28C97.4087 46.6884 112.958 3.60473 125.829 3.70917C138.7 3.81361 153.276 46.9557 145.61 83.3343C142.79 96.7277 134.94 118.735 125.198 118.727C115.456 118.719 107.669 96.9157 104.882 83.28Z" stroke="black" stroke-width="2" stroke-linejoin="round"/>
<path d="M140.526 81.1703C161.113 50.0137 202.576 30.5419 211.62 39.7118C220.665 48.8816 200.433 89.7051 169.289 110.008C157.821 117.486 136.703 127.496 129.827 120.603C122.951 113.71 132.856 92.7673 140.526 81.1703Z" stroke="black" stroke-width="2" stroke-linejoin="round"/>
<path d="M167.221 104.882C203.812 97.4087 246.896 112.958 246.791 125.829C246.687 138.7 203.545 153.276 167.166 145.61C153.773 142.79 131.765 134.94 131.774 125.198C131.782 115.456 153.585 107.673 167.221 104.882Z" stroke="black" stroke-width="2" stroke-linejoin="round"/>
<path d="M169.33 140.53C200.487 161.117 219.975 202.576 210.785 211.603C201.594 220.631 160.795 200.437 140.492 169.289C133.014 157.825 123.001 136.703 129.898 129.831C136.795 122.959 157.729 132.872 169.33 140.53Z" stroke="black" stroke-width="2" stroke-linejoin="round"/>
</svg>
