<svg width="250" height="250" viewBox="0 0 250 250" fill="none" xmlns="http://www.w3.org/2000/svg">
<circle cx="125.15" cy="125.203" r="38.6485" transform="rotate(-45 125.15 125.203)" fill="#F9F9F9" stroke="black" stroke-width="2" stroke-linejoin="round"/>
<path d="M152.942 42.3896C152.942 45.3351 155.33 47.7229 158.275 47.7229C161.221 47.7229 163.609 45.3351 163.609 42.3896C163.609 39.4441 161.221 37.0562 158.275 37.0562C155.33 37.0562 152.942 39.4441 152.942 42.3896ZM170.997 125.204C170.997 157.45 165.767 186.597 157.347 207.646C153.136 218.173 148.147 226.626 142.658 232.429C137.171 238.231 131.254 241.32 125.15 241.32V243.32C131.982 243.32 138.389 239.855 144.111 233.804C149.832 227.755 154.937 219.056 159.204 208.389C167.74 187.05 172.997 157.639 172.997 125.204H170.997ZM79.3032 125.204C79.3032 92.9573 84.5332 63.8099 92.9528 42.761C97.1637 32.2337 102.153 23.7816 107.642 17.9776C113.128 12.1758 119.045 9.08691 125.15 9.08691V7.08691C118.318 7.08691 111.911 10.5524 106.188 16.6034C100.468 22.6523 95.3625 31.3515 91.0958 42.0182C82.5602 63.3571 77.3032 92.768 77.3032 125.204H79.3032ZM125.15 9.08691C131.254 9.08691 137.171 12.1758 142.658 17.9776C148.147 23.7816 153.136 32.2337 157.347 42.761L159.204 42.0182C154.937 31.3515 149.832 22.6523 144.111 16.6034C138.389 10.5524 131.982 7.08691 125.15 7.08691V9.08691ZM125.15 241.32C119.045 241.32 113.128 238.231 107.642 232.429C102.153 226.626 97.1637 218.173 92.9528 207.646L91.0958 208.389C95.3625 219.056 100.468 227.755 106.188 233.804C111.911 239.855 118.318 243.32 125.15 243.32V241.32ZM92.9528 207.646C84.5332 186.597 79.3032 157.45 79.3032 125.204H77.3032C77.3032 157.639 82.5602 187.05 91.0958 208.389L92.9528 207.646ZM172.997 125.204C172.997 92.8754 167.774 63.5521 159.289 42.2308L157.431 42.9703C165.801 64.0032 170.997 93.0644 170.997 125.204H172.997Z" fill="black"/>
<path d="M101.727 84.6332L101.227 83.7671L101.727 84.6332ZM148.573 165.774L148.073 164.908L148.573 165.774ZM31.5348 137.923C31.5348 140.868 33.9226 143.256 36.8681 143.256C39.8136 143.256 42.2014 140.868 42.2014 137.923C42.2014 134.977 39.8136 132.59 36.8681 132.59C33.9226 132.59 31.5348 134.977 31.5348 137.923ZM102.227 85.4992C130.153 69.3761 158.01 59.3317 180.449 56.0988C191.671 54.4819 201.485 54.5765 209.256 56.428C217.024 58.2788 222.658 61.8585 225.71 67.1453L227.442 66.1453C224.026 60.2288 217.821 56.4128 209.72 54.4825C201.621 52.5528 191.534 52.4809 180.164 54.1192C157.416 57.3967 129.317 67.5494 101.227 83.7671L102.227 85.4992ZM148.073 164.908C120.147 181.031 92.2898 191.075 69.8511 194.308C58.6288 195.925 48.8144 195.831 41.0436 193.979C33.2757 192.128 27.6422 188.549 24.5899 183.262L22.8579 184.262C26.2737 190.178 32.4785 193.994 40.5801 195.925C48.6788 197.854 58.7653 197.926 70.1363 196.288C92.8841 193.01 120.983 182.858 149.073 166.64L148.073 164.908ZM24.5899 183.262C21.5376 177.975 21.2542 171.307 23.5354 163.654C25.8173 155.998 30.6425 147.452 37.654 138.541L36.0822 137.305C28.9779 146.333 23.997 155.104 21.6187 163.083C19.2396 171.064 19.442 178.345 22.8579 184.262L24.5899 183.262ZM225.71 67.1453C228.762 72.432 229.046 79.1006 226.764 86.7532C224.482 94.4087 219.657 102.955 212.646 111.866L214.218 113.103C221.322 104.074 226.303 95.3031 228.681 87.3246C231.06 79.3433 230.858 72.0617 227.442 66.1453L225.71 67.1453ZM212.646 111.866C198.627 129.682 175.999 148.785 148.073 164.908L149.073 166.64C177.163 150.422 200.005 131.164 214.218 113.103L212.646 111.866ZM101.227 83.7671C73.2296 99.9312 50.446 119.115 36.2239 137.125L37.7935 138.364C51.8231 120.599 74.3932 101.569 102.227 85.4992L101.227 83.7671Z" fill="black"/>
<path d="M101.727 165.774L102.227 164.908L101.727 165.774ZM148.573 84.6333L149.073 83.7673L148.573 84.6333ZM174.973 195.298C174.973 198.244 177.361 200.632 180.306 200.632C183.252 200.632 185.639 198.244 185.639 195.298C185.639 192.353 183.252 189.965 180.306 189.965C177.361 189.965 174.973 192.353 174.973 195.298ZM102.227 164.908C74.3005 148.785 51.6731 129.682 37.654 111.866C30.6425 102.956 25.8173 94.4088 23.5354 86.7533C21.2542 79.1007 21.5376 72.4321 24.5899 67.1454L22.8579 66.1454C19.442 72.0618 19.2396 79.3434 21.6187 87.3247C23.997 95.3032 28.9779 104.074 36.0822 113.103C50.2945 131.164 73.1366 150.422 101.227 166.64L102.227 164.908ZM148.073 85.4993C175.999 101.622 198.627 120.725 212.646 138.541C219.657 147.452 224.482 155.999 226.764 163.654C229.046 171.307 228.762 177.975 225.71 183.262L227.442 184.262C230.858 178.346 231.06 171.064 228.681 163.083C226.303 155.104 221.322 146.333 214.218 137.305C200.005 119.243 177.163 99.985 149.073 83.7673L148.073 85.4993ZM225.71 183.262C222.658 188.549 217.024 192.128 209.256 193.979C201.485 195.831 191.671 195.925 180.449 194.309L180.164 196.288C191.534 197.926 201.621 197.854 209.72 195.925C217.821 193.995 224.026 190.178 227.442 184.262L225.71 183.262ZM24.5899 67.1454C27.6422 61.8586 33.2757 58.2789 41.0436 56.4281C48.8145 54.5766 58.6288 54.482 69.8511 56.0989L70.1363 54.1193C58.7653 52.481 48.6788 52.553 40.5801 54.4826C32.4785 56.4129 26.2737 60.2289 22.8579 66.1454L24.5899 67.1454ZM69.8511 56.0989C92.2898 59.3318 120.147 69.3762 148.073 85.4993L149.073 83.7673C120.983 67.5495 92.8841 57.3968 70.1363 54.1193L69.8511 56.0989ZM101.227 166.64C129.224 182.804 157.229 192.943 179.937 196.255L180.226 194.276C157.825 191.009 130.06 180.978 102.227 164.908L101.227 166.64Z" fill="black"/>
</svg>
