<svg width="252" height="252" viewBox="0 0 252 252" fill="none" xmlns="http://www.w3.org/2000/svg">
<path d="M164.107 50.9385C164.107 87.3501 126 125.923 126 125.923C126 125.923 87.8931 87.3501 87.8931 50.9385C87.8931 31.822 108.375 1 108.375 1L126 125.923L143.625 1C143.625 1 164.107 31.822 164.107 50.9385Z" fill="#F9F9F9"/>
<path d="M50.9385 87.8931C87.3501 87.8931 125.923 126 125.923 126C125.923 126 87.3501 164.107 50.9385 164.107C31.822 164.107 1 143.625 1 143.625L125.923 126L1 108.375C1 108.375 31.822 87.8931 50.9385 87.8931Z" fill="#F9F9F9"/>
<path d="M87.8931 201.061C87.8931 164.65 126 126.077 126 126.077C126 126.077 164.107 164.65 164.107 201.061C164.107 220.178 143.625 251 143.625 251L126 126.077L108.375 251C108.375 251 87.8931 220.178 87.8931 201.061Z" fill="#F9F9F9"/>
<path d="M201.061 164.107C164.65 164.107 126.077 126 126.077 126C126.077 126 164.65 87.8931 201.061 87.8931C220.178 87.8931 251 108.375 251 108.375L126.077 126L251 143.625C251 143.625 220.178 164.107 201.061 164.107Z" fill="#F9F9F9"/>
<path d="M126 125.923C126 125.923 164.107 87.3501 164.107 50.9385C164.107 31.822 143.625 1 143.625 1L126 125.923ZM126 125.923C126 125.923 87.8931 87.3501 87.8931 50.9385C87.8931 31.822 108.375 1 108.375 1L126 125.923ZM125.923 126C125.923 126 87.3501 87.8931 50.9385 87.8931C31.822 87.8931 1 108.375 1 108.375L125.923 126ZM125.923 126C125.923 126 87.3501 164.107 50.9385 164.107C31.822 164.107 1 143.625 1 143.625L125.923 126ZM126 126.077C126 126.077 87.8931 164.65 87.8931 201.061C87.8931 220.178 108.375 251 108.375 251L126 126.077ZM126 126.077C126 126.077 164.107 164.65 164.107 201.061C164.107 220.178 143.625 251 143.625 251L126 126.077ZM126.077 126C126.077 126 164.65 164.107 201.061 164.107C220.178 164.107 251 143.625 251 143.625L126.077 126ZM126.077 126C126.077 126 164.65 87.8931 201.061 87.8931C220.178 87.8931 251 108.375 251 108.375L126.077 126Z" stroke="black" stroke-width="2" stroke-linejoin="round"/>
</svg>
