<svg width="252" height="252" viewBox="0 0 252 252" fill="none" xmlns="http://www.w3.org/2000/svg">
<path d="M251 126L131.382 126C143.273 126.881 171.428 130.966 190.305 149.843C191.748 151.286 193.104 152.784 194.38 154.324C226.153 151.336 251 126 251 126Z" fill="#F9F9F9"/>
<path d="M194.38 97.6763C193.104 99.2165 191.748 100.714 190.305 102.157C171.428 121.033 143.273 125.119 131.382 126L251 126C251 126 226.153 100.664 194.38 97.6763Z" fill="#F9F9F9"/>
<path d="M126 131.385V251C126 251 151.336 226.153 154.324 194.379C152.784 193.104 151.287 191.747 149.844 190.304C130.966 171.427 126.881 143.271 126 131.38C126 131.382 126 131.383 126 131.385Z" fill="#F9F9F9"/>
<path d="M102.157 190.304C100.714 191.747 99.2166 193.104 97.6763 194.38C100.664 226.153 126 251 126 251V131.385C125.118 143.278 121.032 171.429 102.157 190.304Z" fill="#F9F9F9"/>
<path d="M120.619 126H1C1 126 25.8473 151.336 57.6209 154.324C58.8962 152.784 60.2529 151.286 61.696 149.843C80.5729 130.966 108.728 126.881 120.619 126Z" fill="#F9F9F9"/>
<path d="M61.6961 102.157C60.253 100.714 58.8963 99.2164 57.6209 97.6763C25.8473 100.664 1 126 1 126H120.619C108.728 125.119 80.5729 121.034 61.6961 102.157Z" fill="#F9F9F9"/>
<path d="M126 120.618C126.882 108.726 130.967 80.5721 149.843 61.6957C151.286 60.2526 152.784 58.8961 154.324 57.6207C151.336 25.8472 126 1 126 1V63.6703V120.614L126 120.618Z" fill="#F9F9F9"/>
<path d="M126 63.6703V1C126 1 100.664 25.847 97.6763 57.6203C99.2166 58.8958 100.714 60.2525 102.157 61.6957C121.032 80.5701 125.118 108.72 126 120.614V63.6703Z" fill="#F9F9F9"/>
<path d="M126 126.341L126 120.618M126 1V63.6703V120.614M126 1C126 1 151.336 25.8472 154.324 57.6207M126 1C126 1 100.664 25.847 97.6763 57.6203M126 251C126 251 100.664 226.153 97.6763 194.38M126 251C126 251 151.336 226.153 154.324 194.379M126 251V131.385M126 125.659L126 131.38M125.659 126H131.382M251 126C251 126 226.153 100.664 194.38 97.6763M251 126C251 126 226.153 151.336 194.38 154.324M251 126L131.382 126M1 126C1 126 25.8473 100.664 57.6209 97.6763M1 126C1 126 25.8473 151.336 57.6209 154.324M1 126H120.619M126.341 126H120.619M125.759 126.241L214.389 37.6117M125.759 126.241C125.759 126.241 127.855 126.261 131.382 126M125.759 126.241C125.759 126.241 125.739 124.145 126 120.618M214.389 37.6117C214.389 37.6117 178.904 37.2661 154.324 57.6207M214.389 37.6117C214.389 37.6117 214.734 73.0965 194.38 97.6763M37.612 214.388L126.241 125.759M37.612 214.388C37.612 214.388 37.2664 178.904 57.6209 154.324M37.612 214.388C37.612 214.388 73.0965 214.734 97.6763 194.38M126.241 125.759C126.241 125.759 126.262 127.855 126 131.38M126.241 125.759C126.241 125.759 124.145 125.739 120.619 126M214.389 214.388C214.389 214.388 178.904 214.734 154.324 194.379M214.389 214.388C214.389 214.388 214.734 178.904 194.38 154.324M214.389 214.388L126.241 126.241M37.612 37.6117L126.241 126.241M37.612 37.6117C37.612 37.6117 73.0965 37.2661 97.6763 57.6203M37.612 37.6117C37.612 37.6117 37.2665 73.0964 57.6209 97.6763M126.241 126.241C126.241 126.241 124.145 126.261 120.619 126M126.241 126.241C126.241 126.241 126.262 124.145 126 120.618M154.324 57.6207C152.784 58.8961 151.286 60.2526 149.843 61.6957C130.967 80.5721 126.882 108.726 126 120.618M194.38 97.6763C193.104 99.2165 191.748 100.714 190.305 102.157C171.428 121.033 143.273 125.119 131.382 126M97.6763 57.6203C99.2166 58.8958 100.714 60.2525 102.157 61.6957C121.032 80.5701 125.118 108.72 126 120.614M57.6209 97.6763C58.8963 99.2164 60.253 100.714 61.6961 102.157C80.5729 121.034 108.728 125.119 120.619 126M57.6209 154.324C58.8962 152.784 60.2529 151.286 61.696 149.843C80.5729 130.966 108.728 126.881 120.619 126M97.6763 194.38C99.2166 193.104 100.714 191.747 102.157 190.304C121.032 171.429 125.118 143.278 126 131.385M154.324 194.379C152.784 193.104 151.287 191.747 149.844 190.304C130.966 171.427 126.881 143.271 126 131.38M194.38 154.324C193.104 152.784 191.748 151.286 190.305 149.843C171.428 130.966 143.273 126.881 131.382 126M131.382 126C127.856 125.739 125.76 125.759 125.76 125.759C125.76 125.759 125.739 127.855 126 131.38M126 131.385C126 131.383 126 131.382 126 131.38M126 131.385L126 131.38M126 120.618L126 120.614" stroke="black" stroke-width="2" stroke-linejoin="round"/>
<path d="M190.342 102.194C171.466 121.071 143.311 125.156 131.42 126.037C127.893 126.298 125.797 126.278 125.797 126.278C125.797 126.278 125.777 124.182 126.038 120.655C126.919 108.764 131.005 80.6093 149.881 61.7328C151.324 60.2898 152.821 58.9332 154.362 57.6579C178.941 37.3032 214.426 37.6488 214.426 37.6488C214.426 37.6488 214.772 73.1336 194.417 97.7135C193.142 99.2536 191.785 100.751 190.342 102.194Z" fill="#F9F9F9"/>
<path d="M102.195 190.341C100.752 191.785 99.2544 193.141 97.7142 194.417C73.1343 214.771 37.6498 214.425 37.6498 214.425C37.6498 214.425 37.3042 178.941 57.6587 154.361C58.9341 152.821 60.2907 151.323 61.7338 149.88C80.6108 131.003 108.766 126.918 120.657 126.037C124.183 125.776 126.279 125.796 126.279 125.796C126.279 125.796 126.299 127.892 126.038 131.417C126.038 131.419 126.038 131.42 126.038 131.422C125.156 143.315 121.07 171.466 102.195 190.341Z" fill="#F9F9F9"/>
<path d="M149.881 190.341C131.004 171.464 126.919 143.308 126.038 131.417C125.777 127.892 125.797 125.796 125.797 125.796C125.797 125.796 127.893 125.776 131.42 126.037C143.311 126.918 171.466 131.004 190.343 149.88C191.786 151.323 193.142 152.821 194.418 154.361C214.772 178.941 214.427 214.425 214.427 214.425C214.427 214.425 178.941 214.771 154.362 194.416C152.822 193.141 151.324 191.784 149.881 190.341Z" fill="#F9F9F9"/>
<path d="M61.7339 102.194C60.2908 100.751 58.9341 99.2536 57.6587 97.7134C37.3043 73.1336 37.6499 37.6489 37.6499 37.6489C37.6499 37.6489 73.1343 37.3033 97.7142 57.6575C99.2544 58.9329 100.752 60.2897 102.195 61.7329C121.069 80.6072 125.156 108.757 126.038 120.651L126.038 120.655C126.299 124.182 126.279 126.278 126.279 126.278C126.279 126.278 124.183 126.298 120.657 126.037C108.766 125.156 80.6107 121.071 61.7339 102.194Z" fill="#F9F9F9"/>
<path d="M125.797 126.278C125.797 126.278 127.893 126.298 131.42 126.037M125.797 126.278C125.797 126.278 125.777 124.182 126.038 120.655M125.797 126.278L37.6498 214.425M214.426 37.6488C214.426 37.6488 178.941 37.3032 154.362 57.6579C152.821 58.9332 151.324 60.2898 149.881 61.7328C131.005 80.6093 126.919 108.764 126.038 120.655M214.426 37.6488C214.426 37.6488 214.772 73.1336 194.417 97.7135C193.142 99.2536 191.785 100.751 190.342 102.194C171.466 121.071 143.311 125.156 131.42 126.037M214.426 37.6488L126.279 125.796M37.6498 214.425C37.6498 214.425 37.3042 178.941 57.6587 154.361C58.9341 152.821 60.2907 151.323 61.7338 149.88C80.6108 131.003 108.766 126.918 120.657 126.037M37.6498 214.425C37.6498 214.425 73.1343 214.771 97.7142 194.417C99.2544 193.141 100.752 191.785 102.195 190.341C121.07 171.466 125.156 143.315 126.038 131.422C126.038 131.42 126.038 131.419 126.038 131.417M126.279 125.796C126.279 125.796 126.299 127.892 126.038 131.417M126.279 125.796C126.279 125.796 124.183 125.776 120.657 126.037M125.797 125.796L214.427 214.425M125.797 125.796C125.797 125.796 127.893 125.776 131.42 126.037M125.797 125.796C125.797 125.796 125.777 127.892 126.038 131.417M125.797 125.796L37.6499 37.6489M214.427 214.425C214.427 214.425 178.941 214.771 154.362 194.416C152.822 193.141 151.324 191.784 149.881 190.341C131.004 171.464 126.919 143.308 126.038 131.417M214.427 214.425C214.427 214.425 214.772 178.941 194.418 154.361C193.142 152.821 191.786 151.323 190.343 149.88C171.466 131.004 143.311 126.918 131.42 126.037M37.6499 37.6489C37.6499 37.6489 73.1343 37.3033 97.7142 57.6575C99.2544 58.9329 100.752 60.2897 102.195 61.7329C121.069 80.6072 125.156 108.757 126.038 120.651L126.038 120.655M37.6499 37.6489C37.6499 37.6489 37.3043 73.1336 57.6587 97.7134C58.9341 99.2536 60.2908 100.751 61.7339 102.194C80.6107 121.071 108.766 125.156 120.657 126.037M120.657 126.037C124.183 126.298 126.279 126.278 126.279 126.278C126.279 126.278 126.299 124.182 126.038 120.655" stroke="black" stroke-width="2" stroke-linejoin="round"/>
</svg>
