<svg width="252" height="252" viewBox="0 0 252 252" fill="none" xmlns="http://www.w3.org/2000/svg">
<path d="M195.636 130.543C204.457 135.635 211.44 142.772 216.901 150.299C237.139 141.271 251 126 251 126C251 126 237.139 110.728 216.901 101.7C211.44 109.227 204.457 116.364 195.636 121.457C192.454 123.294 189.161 124.791 185.817 126C189.161 127.208 192.454 128.705 195.636 130.543Z" fill="#F9F9F9"/>
<path d="M121.457 195.636C116.364 204.457 109.228 211.44 101.7 216.901C110.729 237.139 126 251 126 251C126 251 141.271 237.139 150.3 216.901C142.772 211.44 135.636 204.457 130.543 195.636C128.706 192.454 127.209 189.161 126 185.817C124.791 189.161 123.294 192.454 121.457 195.636Z" fill="#F9F9F9"/>
<path d="M56.3638 121.457C47.5427 116.365 40.5599 109.228 35.0993 101.701C14.8609 110.729 1 126 1 126C1 126 14.8608 141.272 35.0993 150.3C40.5599 142.773 47.5427 135.636 56.3638 130.543C59.546 128.706 62.8389 127.209 66.1827 126C62.8389 124.792 59.546 123.295 56.3638 121.457Z" fill="#F9F9F9"/>
<path d="M130.543 56.3638C135.636 47.5427 142.772 40.5599 150.3 35.0993C141.271 14.8609 126 1 126 1C126 1 110.729 14.8608 101.7 35.0993C109.228 40.5599 116.364 47.5427 121.457 56.3638C123.294 59.546 124.791 62.8389 126 66.1827C127.209 62.8389 128.706 59.546 130.543 56.3638Z" fill="#F9F9F9"/>
<path d="M150.3 35.0993C142.772 40.5599 135.636 47.5427 130.543 56.3638C128.706 59.546 127.209 62.8389 126 66.1827C124.791 62.8389 123.294 59.546 121.457 56.3638C116.364 47.5427 109.228 40.5599 101.7 35.0993C83.7626 22.0864 63.6067 17.7182 63.6067 17.7182C63.6067 17.7182 57.2662 37.4999 59.6376 59.6378C68.8142 60.6207 78.3957 63.1007 87.141 68.1497C115.543 84.5478 124.888 122.135 125.724 125.724C125.806 125.743 125.871 125.758 125.917 125.768L125.961 125.778L126 125.786C126 125.786 126.094 125.766 126.276 125.724C127.111 122.137 136.456 84.548 164.859 68.1493C173.604 63.1003 183.186 60.6203 192.362 59.6374C194.734 37.4997 188.393 17.7182 188.393 17.7182C188.393 17.7182 168.237 22.0864 150.3 35.0993Z" fill="#F9F9F9"/>
<path fill-rule="evenodd" clip-rule="evenodd" d="M234.282 188.393C234.282 188.393 214.5 194.734 192.362 192.362C191.379 183.186 188.899 173.604 183.85 164.859C167.452 136.456 129.865 127.112 126.276 126.276C126.234 126.094 126.214 126 126.214 126C126.214 126 126.234 125.905 126.276 125.724C129.864 124.888 167.452 115.544 183.85 87.141C188.9 78.3957 191.38 68.8141 192.362 59.6374C214.5 57.266 234.282 63.6066 234.282 63.6066C234.282 63.6066 229.914 83.7624 216.901 101.7C211.44 109.227 204.457 116.364 195.636 121.457C192.454 123.294 189.161 124.791 185.817 126C189.161 127.208 192.454 128.705 195.636 130.543C204.457 135.635 211.44 142.772 216.901 150.299C229.914 168.237 234.282 188.393 234.282 188.393ZM125.724 126.276C125.905 126.234 126 126.214 126 126.214C126 126.214 126.011 126.216 126.032 126.221C126.044 126.223 126.06 126.227 126.078 126.231L126.163 126.25L126.276 126.276C127.112 129.866 136.457 167.452 164.859 183.85C173.604 188.899 183.186 191.379 192.362 192.362C194.734 214.5 188.393 234.282 188.393 234.282C188.393 234.282 168.237 229.914 150.3 216.901C142.772 211.44 135.636 204.457 130.543 195.636C128.706 192.454 127.209 189.161 126 185.817C124.791 189.161 123.294 192.454 121.457 195.636C116.364 204.457 109.228 211.44 101.7 216.901C83.7626 229.914 63.6067 234.282 63.6067 234.282C63.6067 234.282 57.2662 214.5 59.6375 192.363C68.8142 191.38 78.3957 188.9 87.141 183.851C115.544 167.452 124.889 129.863 125.724 126.276ZM125.724 125.724C125.766 125.906 125.786 126 125.786 126L125.779 126.033L125.769 126.079C125.759 126.125 125.744 126.191 125.724 126.276C122.136 127.112 84.548 136.456 68.1495 164.859C63.1004 173.604 60.6205 183.186 59.6375 192.363C37.4997 194.734 17.7182 188.393 17.7182 188.393C17.7182 188.393 22.0864 168.238 35.0993 150.3C40.5599 142.773 47.5427 135.636 56.3638 130.543C59.546 128.706 62.8389 127.209 66.1827 126C62.8389 124.792 59.546 123.295 56.3638 121.457C47.5427 116.365 40.5599 109.228 35.0993 101.701C22.0864 83.7628 17.7182 63.607 17.7182 63.607C17.7182 63.607 37.4998 57.2664 59.6376 59.6378C60.6205 68.8144 63.1005 78.3958 68.1495 87.141C84.5479 115.544 122.136 124.888 125.724 125.724ZM125.724 125.724C125.806 125.743 125.871 125.758 125.917 125.768L125.961 125.778C125.917 125.768 125.838 125.75 125.724 125.724Z" fill="#F9F9F9"/>
<path d="M125.724 126.276C122.136 127.112 84.548 136.456 68.1495 164.859C63.1004 173.604 60.6205 183.186 59.6375 192.363C68.8142 191.38 78.3957 188.9 87.141 183.851C115.544 167.452 124.889 129.863 125.724 126.276Z" fill="#F9F9F9"/>
<path d="M125.724 125.724C124.888 122.135 115.543 84.5478 87.141 68.1497C78.3957 63.1007 68.8142 60.6207 59.6376 59.6378C60.6205 68.8144 63.1005 78.3958 68.1495 87.141C84.5479 115.544 122.136 124.888 125.724 125.724Z" fill="#F9F9F9"/>
<path d="M183.85 87.141C188.9 78.3957 191.38 68.8141 192.362 59.6374C183.186 60.6203 173.604 63.1003 164.859 68.1493C136.456 84.548 127.111 122.137 126.276 125.724C129.864 124.888 167.452 115.544 183.85 87.141Z" fill="#F9F9F9"/>
<path d="M183.85 164.859C167.452 136.456 129.865 127.112 126.276 126.276C127.112 129.866 136.457 167.452 164.859 183.85C173.604 188.899 183.186 191.379 192.362 192.362C191.379 183.186 188.899 173.604 183.85 164.859Z" fill="#F9F9F9"/>
<path d="M125.786 126C125.786 126 125.766 125.906 125.724 125.724M125.786 126L125.779 126.033M125.786 126C125.786 126 125.784 126.011 125.779 126.033M35.0993 101.701C40.5599 109.228 47.5427 116.365 56.3638 121.457C59.546 123.295 62.8389 124.792 66.1827 126C62.8389 127.209 59.546 128.706 56.3638 130.543C47.5427 135.636 40.5599 142.773 35.0993 150.3M35.0993 101.701C22.0864 83.7628 17.7182 63.607 17.7182 63.607C17.7182 63.607 37.4998 57.2664 59.6376 59.6378M35.0993 101.701C14.8609 110.729 1 126 1 126C1 126 14.8608 141.272 35.0993 150.3M35.0993 150.3C22.0864 168.238 17.7182 188.393 17.7182 188.393C17.7182 188.393 37.4997 194.734 59.6375 192.363M216.901 150.299C211.44 142.772 204.457 135.635 195.636 130.543C192.454 128.705 189.161 127.208 185.817 126C189.161 124.791 192.454 123.294 195.636 121.457C204.457 116.364 211.44 109.227 216.901 101.7M216.901 150.299C229.914 168.237 234.282 188.393 234.282 188.393C234.282 188.393 214.5 194.734 192.362 192.362M216.901 150.299C237.139 141.271 251 126 251 126C251 126 237.139 110.728 216.901 101.7M216.901 101.7C229.914 83.7624 234.282 63.6066 234.282 63.6066C234.282 63.6066 214.5 57.266 192.362 59.6374M126 125.786C126 125.786 125.987 125.784 125.961 125.778M126 125.786C126 125.786 126.094 125.766 126.276 125.724M126 125.786L125.961 125.778M150.3 35.0993C142.772 40.5599 135.636 47.5427 130.543 56.3638C128.706 59.546 127.209 62.8389 126 66.1827C124.791 62.8389 123.294 59.546 121.457 56.3638C116.364 47.5427 109.228 40.5599 101.7 35.0993M150.3 35.0993C168.237 22.0864 188.393 17.7182 188.393 17.7182C188.393 17.7182 194.734 37.4997 192.362 59.6374M150.3 35.0993C141.271 14.8609 126 1 126 1C126 1 110.729 14.8608 101.7 35.0993M101.7 35.0993C83.7626 22.0864 63.6067 17.7182 63.6067 17.7182C63.6067 17.7182 57.2662 37.4999 59.6376 59.6378M101.7 216.901C109.228 211.44 116.364 204.457 121.457 195.636C123.294 192.454 124.791 189.161 126 185.817C127.209 189.161 128.706 192.454 130.543 195.636C135.636 204.457 142.772 211.44 150.3 216.901M101.7 216.901C83.7626 229.914 63.6067 234.282 63.6067 234.282C63.6067 234.282 57.2662 214.5 59.6375 192.363M101.7 216.901C110.729 237.139 126 251 126 251C126 251 141.271 237.139 150.3 216.901M150.3 216.901C168.237 229.914 188.393 234.282 188.393 234.282C188.393 234.282 194.734 214.5 192.362 192.362M192.362 59.6374C191.38 68.8141 188.9 78.3957 183.85 87.141C167.452 115.544 129.864 124.888 126.276 125.724M192.362 59.6374C183.186 60.6203 173.604 63.1003 164.859 68.1493C136.456 84.548 127.111 122.137 126.276 125.724M126.276 125.724C126.234 125.905 126.214 126 126.214 126C126.214 126 126.234 126.094 126.276 126.276M125.961 125.778C125.949 125.775 125.934 125.772 125.917 125.768M125.961 125.778C125.917 125.768 125.838 125.75 125.724 125.724M125.961 125.778L125.917 125.768M125.917 125.768C125.871 125.758 125.806 125.743 125.724 125.724M125.724 125.724C124.888 122.135 115.543 84.5478 87.141 68.1497C78.3957 63.1007 68.8142 60.6207 59.6376 59.6378M125.724 125.724C122.136 124.888 84.5479 115.544 68.1495 87.141C63.1005 78.3958 60.6205 68.8144 59.6376 59.6378M59.6375 192.363C60.6205 183.186 63.1004 173.604 68.1495 164.859C84.548 136.456 122.136 127.112 125.724 126.276M59.6375 192.363C68.8142 191.38 78.3957 188.9 87.141 183.851C115.544 167.452 124.889 129.863 125.724 126.276M125.724 126.276C125.905 126.234 126 126.214 126 126.214C126 126.214 126.011 126.216 126.032 126.221C126.044 126.223 126.06 126.227 126.078 126.231M125.724 126.276C125.744 126.191 125.759 126.125 125.769 126.079M125.769 126.079L125.779 126.033M125.769 126.079C125.773 126.06 125.777 126.045 125.779 126.033M192.362 192.362C191.379 183.186 188.899 173.604 183.85 164.859C167.452 136.456 129.865 127.112 126.276 126.276M192.362 192.362C183.186 191.379 173.604 188.899 164.859 183.85C136.457 167.452 127.112 129.866 126.276 126.276M126.276 126.276C126.234 126.266 126.196 126.258 126.163 126.25M126.276 126.276L126.163 126.25M126.163 126.25C126.13 126.243 126.101 126.236 126.078 126.231M126.163 126.25L126.078 126.231" stroke="black" stroke-width="2" stroke-linejoin="round"/>
<path d="M150.3 35.0993C142.772 40.5599 135.636 47.5427 130.543 56.3638C128.706 59.546 127.209 62.8389 126 66.1827C124.791 62.8389 123.294 59.546 121.457 56.3638C116.364 47.5427 109.228 40.5599 101.7 35.0993C83.7626 22.0864 63.6068 17.7183 63.6068 17.7183C63.6068 17.7183 57.2662 37.4999 59.6376 59.6378C68.8142 60.6208 78.3958 63.1007 87.141 68.1498C115.543 84.5478 124.888 122.135 125.724 125.724C125.806 125.743 125.871 125.758 125.917 125.768L125.961 125.778L126 125.787C126 125.787 126.095 125.766 126.276 125.724C127.111 122.137 136.456 84.548 164.859 68.1494C173.604 63.1003 183.186 60.6204 192.362 59.6374C194.734 37.4997 188.393 17.7183 188.393 17.7183C188.393 17.7183 168.237 22.0864 150.3 35.0993Z" fill="#F9F9F9"/>
<path fill-rule="evenodd" clip-rule="evenodd" d="M234.282 188.393C234.282 188.393 214.5 194.734 192.362 192.362C191.379 183.186 188.899 173.604 183.85 164.859C167.452 136.456 129.865 127.112 126.276 126.276C126.234 126.094 126.214 126 126.214 126C126.214 126 126.234 125.905 126.276 125.724C129.864 124.888 167.452 115.544 183.85 87.141C188.9 78.3957 191.38 68.8141 192.362 59.6374C214.5 57.2661 234.282 63.6066 234.282 63.6066C234.282 63.6066 229.914 83.7624 216.901 101.7C211.44 109.227 204.457 116.364 195.636 121.457C192.454 123.294 189.161 124.791 185.817 126C189.161 127.208 192.454 128.705 195.636 130.543C204.457 135.636 211.44 142.772 216.901 150.299C229.914 168.237 234.282 188.393 234.282 188.393ZM125.724 126.276C125.906 126.234 126 126.214 126 126.214C126 126.214 126.011 126.216 126.033 126.221C126.044 126.223 126.06 126.227 126.078 126.231L126.163 126.25L126.276 126.276C127.112 129.866 136.457 167.452 164.859 183.85C173.604 188.899 183.186 191.379 192.362 192.362C194.734 214.5 188.393 234.282 188.393 234.282C188.393 234.282 168.237 229.914 150.3 216.901C142.772 211.44 135.636 204.457 130.543 195.636C128.706 192.454 127.209 189.161 126 185.817C124.791 189.161 123.294 192.454 121.457 195.636C116.364 204.457 109.228 211.44 101.7 216.901C83.7626 229.914 63.6068 234.282 63.6068 234.282C63.6068 234.282 57.2663 214.5 59.6375 192.363C68.8142 191.38 78.3957 188.9 87.141 183.851C115.544 167.452 124.889 129.863 125.724 126.276ZM125.724 125.724C125.766 125.906 125.787 126 125.787 126L125.779 126.034L125.769 126.079C125.759 126.125 125.744 126.191 125.724 126.276C122.136 127.112 84.548 136.456 68.1495 164.859C63.1004 173.604 60.6205 183.186 59.6375 192.363C37.4998 194.734 17.7183 188.393 17.7183 188.393C17.7183 188.393 22.0864 168.238 35.0993 150.3C40.5599 142.773 47.5427 135.636 56.3638 130.543C59.546 128.706 62.8389 127.209 66.1827 126C62.8389 124.792 59.546 123.295 56.3638 121.457C47.5428 116.365 40.5599 109.228 35.0993 101.701C22.0864 83.7629 17.7183 63.607 17.7183 63.607C17.7183 63.607 37.4998 57.2665 59.6376 59.6378C60.6206 68.8144 63.1005 78.3958 68.1496 87.141C84.5479 115.544 122.136 124.888 125.724 125.724ZM125.724 125.724C125.806 125.743 125.871 125.758 125.917 125.768L125.961 125.778C125.917 125.768 125.838 125.75 125.724 125.724Z" fill="#F9F9F9"/>
<path d="M192.362 59.6374C191.38 68.8141 188.9 78.3957 183.85 87.141C167.452 115.544 129.864 124.888 126.276 125.724M192.362 59.6374C183.186 60.6204 173.604 63.1003 164.859 68.1494C136.456 84.548 127.111 122.137 126.276 125.724M192.362 59.6374C214.5 57.2661 234.282 63.6066 234.282 63.6066C234.282 63.6066 229.914 83.7624 216.901 101.7C211.44 109.227 204.457 116.364 195.636 121.457C192.454 123.294 189.161 124.791 185.817 126C189.161 127.208 192.454 128.705 195.636 130.543C204.457 135.636 211.44 142.772 216.901 150.299C229.914 168.237 234.282 188.393 234.282 188.393C234.282 188.393 214.5 194.734 192.362 192.362M192.362 59.6374C194.734 37.4997 188.393 17.7183 188.393 17.7183C188.393 17.7183 168.237 22.0864 150.3 35.0993C142.772 40.5599 135.636 47.5427 130.543 56.3638C128.706 59.546 127.209 62.8389 126 66.1827C124.791 62.8389 123.294 59.546 121.457 56.3638C116.364 47.5427 109.228 40.5599 101.7 35.0993C83.7626 22.0864 63.6068 17.7183 63.6068 17.7183C63.6068 17.7183 57.2662 37.4999 59.6376 59.6378M126.276 125.724C126.095 125.766 126 125.787 126 125.787L125.961 125.778M126.276 125.724C126.234 125.905 126.214 126 126.214 126C126.214 126 126.234 126.094 126.276 126.276M125.961 125.778C125.917 125.768 125.838 125.75 125.724 125.724M125.961 125.778L125.917 125.768C125.871 125.758 125.806 125.743 125.724 125.724M125.724 125.724C124.888 122.135 115.543 84.5478 87.141 68.1498C78.3958 63.1007 68.8142 60.6208 59.6376 59.6378M125.724 125.724C122.136 124.888 84.5479 115.544 68.1496 87.141C63.1005 78.3958 60.6206 68.8144 59.6376 59.6378M125.724 125.724C125.766 125.906 125.787 126 125.787 126L125.779 126.034L125.769 126.079C125.759 126.125 125.744 126.191 125.724 126.276M59.6376 59.6378C37.4998 57.2665 17.7183 63.607 17.7183 63.607C17.7183 63.607 22.0864 83.7629 35.0993 101.701C40.5599 109.228 47.5428 116.365 56.3638 121.457C59.546 123.295 62.8389 124.792 66.1827 126C62.8389 127.209 59.546 128.706 56.3638 130.543C47.5427 135.636 40.5599 142.773 35.0993 150.3C22.0864 168.238 17.7183 188.393 17.7183 188.393C17.7183 188.393 37.4998 194.734 59.6375 192.363M59.6375 192.363C57.2663 214.5 63.6068 234.282 63.6068 234.282C63.6068 234.282 83.7626 229.914 101.7 216.901C109.228 211.44 116.364 204.457 121.457 195.636C123.294 192.454 124.791 189.161 126 185.817C127.209 189.161 128.706 192.454 130.543 195.636C135.636 204.457 142.772 211.44 150.3 216.901C168.237 229.914 188.393 234.282 188.393 234.282C188.393 234.282 194.734 214.5 192.362 192.362M59.6375 192.363C60.6205 183.186 63.1004 173.604 68.1495 164.859C84.548 136.456 122.136 127.112 125.724 126.276M59.6375 192.363C68.8142 191.38 78.3957 188.9 87.141 183.851C115.544 167.452 124.889 129.863 125.724 126.276M125.724 126.276C125.906 126.234 126 126.214 126 126.214C126 126.214 126.011 126.216 126.033 126.221C126.044 126.223 126.06 126.227 126.078 126.231L126.163 126.25L126.276 126.276M192.362 192.362C191.379 183.186 188.899 173.604 183.85 164.859C167.452 136.456 129.865 127.112 126.276 126.276M192.362 192.362C183.186 191.379 173.604 188.899 164.859 183.85C136.457 167.452 127.112 129.866 126.276 126.276" stroke="black" stroke-width="2" stroke-linejoin="round"/>
<path d="M35.0993 101.701C40.5599 109.228 47.5427 116.365 56.3638 121.457C59.546 123.295 62.8389 124.792 66.1827 126C62.8389 127.209 59.546 128.706 56.3638 130.543C47.5427 135.636 40.5599 142.773 35.0993 150.3C14.8608 141.272 1 126 1 126C1 126 14.8609 110.729 35.0993 101.701Z" stroke="black" stroke-width="2" stroke-linejoin="round"/>
<path d="M216.901 150.299C211.44 142.772 204.457 135.635 195.636 130.543C192.454 128.705 189.161 127.208 185.817 126C189.161 124.791 192.454 123.294 195.636 121.457C204.457 116.364 211.44 109.227 216.901 101.7C237.139 110.728 251 126 251 126C251 126 237.139 141.271 216.901 150.299Z" stroke="black" stroke-width="2" stroke-linejoin="round"/>
<path d="M150.3 35.0993C142.772 40.5599 135.636 47.5427 130.543 56.3638C128.706 59.546 127.209 62.8389 126 66.1827C124.791 62.8389 123.294 59.546 121.457 56.3638C116.364 47.5427 109.228 40.5599 101.7 35.0993C110.729 14.8608 126 1 126 1C126 1 141.271 14.8609 150.3 35.0993Z" stroke="black" stroke-width="2" stroke-linejoin="round"/>
<path d="M101.7 216.901C109.228 211.44 116.364 204.457 121.457 195.636C123.294 192.454 124.791 189.161 126 185.817C127.209 189.161 128.706 192.454 130.543 195.636C135.636 204.457 142.772 211.44 150.3 216.901C141.271 237.139 126 251 126 251C126 251 110.729 237.139 101.7 216.901Z" stroke="black" stroke-width="2" stroke-linejoin="round"/>
</svg>
