<svg width="250" height="252" viewBox="0 0 250 252" fill="none" xmlns="http://www.w3.org/2000/svg">
<path d="M164.748 178.865C164.748 216.63 124.817 251 124.817 251C124.817 251 84.8857 216.63 84.8856 178.865C84.8856 155.664 102.763 136.856 124.817 136.856C146.87 136.856 164.748 155.664 164.748 178.865Z" fill="#F9F9F9"/>
<path d="M98.9735 186.994C66.2489 205.876 16.5001 188.5 16.5001 188.5C16.5001 188.5 26.3176 136.754 59.0422 117.871C79.1462 106.271 104.383 112.341 115.409 131.428C126.436 150.516 119.078 175.393 98.9735 186.994Z" fill="#F9F9F9"/>
<path d="M59.0422 134.129C26.3175 115.247 16.5 63.5002 16.5 63.5002C16.5 63.5002 66.2487 46.1242 98.9734 65.0066C119.077 76.6069 126.436 101.484 115.409 120.572C104.383 139.66 79.1462 145.729 59.0422 134.129Z" fill="#F9F9F9"/>
<path d="M84.8856 73.1353C84.8857 35.3703 124.817 1 124.817 1C124.817 1 164.748 35.3704 164.748 73.1354C164.748 96.3359 146.87 115.144 124.817 115.144C102.763 115.144 84.8856 96.3358 84.8856 73.1353Z" fill="#F9F9F9"/>
<path d="M150.66 65.0065C183.385 46.124 233.133 63.5 233.133 63.5C233.133 63.5 223.316 115.246 190.591 134.129C170.487 145.729 145.251 139.659 134.224 120.572C123.197 101.484 130.556 76.6068 150.66 65.0065Z" fill="#F9F9F9"/>
<path d="M190.591 117.871C223.316 136.754 233.133 188.5 233.133 188.5C233.133 188.5 183.385 205.876 150.66 186.994C130.556 175.393 123.197 150.516 134.224 131.428C145.251 112.341 170.487 106.271 190.591 117.871Z" fill="#F9F9F9"/>
<path d="M164.748 178.865C164.748 216.63 124.817 251 124.817 251C124.817 251 84.8857 216.63 84.8856 178.865C84.8856 155.664 102.763 136.856 124.817 136.856C146.87 136.856 164.748 155.664 164.748 178.865Z" stroke="black" stroke-width="2" stroke-linejoin="round"/>
<path d="M98.9735 186.994C66.2489 205.876 16.5001 188.5 16.5001 188.5C16.5001 188.5 26.3176 136.754 59.0422 117.871C79.1462 106.271 104.383 112.341 115.409 131.428C126.436 150.516 119.078 175.393 98.9735 186.994Z" stroke="black" stroke-width="2" stroke-linejoin="round"/>
<path d="M59.0422 134.129C26.3175 115.247 16.5 63.5002 16.5 63.5002C16.5 63.5002 66.2487 46.1242 98.9734 65.0066C119.077 76.6069 126.436 101.484 115.409 120.572C104.383 139.66 79.1462 145.729 59.0422 134.129Z" stroke="black" stroke-width="2" stroke-linejoin="round"/>
<path d="M84.8856 73.1353C84.8857 35.3703 124.817 1 124.817 1C124.817 1 164.748 35.3704 164.748 73.1354C164.748 96.3359 146.87 115.144 124.817 115.144C102.763 115.144 84.8856 96.3358 84.8856 73.1353Z" stroke="black" stroke-width="2" stroke-linejoin="round"/>
<path d="M150.66 65.0065C183.385 46.124 233.133 63.5 233.133 63.5C233.133 63.5 223.316 115.246 190.591 134.129C170.487 145.729 145.251 139.659 134.224 120.572C123.197 101.484 130.556 76.6068 150.66 65.0065Z" stroke="black" stroke-width="2" stroke-linejoin="round"/>
<path d="M190.591 117.871C223.316 136.754 233.133 188.5 233.133 188.5C233.133 188.5 183.385 205.876 150.66 186.994C130.556 175.393 123.197 150.516 134.224 131.428C145.251 112.341 170.487 106.271 190.591 117.871Z" stroke="black" stroke-width="2" stroke-linejoin="round"/>
</svg>
