<svg width="252" height="252" viewBox="0 0 252 252" fill="none" xmlns="http://www.w3.org/2000/svg">
<path d="M157.711 173.526C163.426 191.391 152.308 211.142 143.926 226.012C134.791 240.95 128.392 251.004 126.21 251C124.029 250.996 117.61 240.926 108.56 226.024C100.238 211.186 89.2901 191.492 94.7986 173.692C97.9394 160.481 112.498 139.528 126.036 139.573C139.482 139.455 154.352 160.097 157.711 173.526Z" fill="#F9F9F9"/>
<path d="M114.817 182.029C106.228 198.7 84.4008 204.808 67.9562 209.394C50.9572 213.498 39.3006 216.08 37.7586 214.538C36.2165 212.996 38.8028 201.331 42.9271 184.381C47.5331 168.005 53.7175 146.336 70.2066 137.65C81.766 130.531 106.876 126.01 116.42 135.627C126.024 145.045 121.928 170.171 114.817 182.029Z" fill="#F9F9F9"/>
<path d="M78.4753 157.713C60.6101 163.428 40.8588 152.31 25.9886 143.928C11.0497 134.793 0.995954 128.39 1 126.212C1.00405 124.035 11.074 117.6 25.9765 108.562C40.8143 100.241 60.5089 89.2927 78.3094 94.8011C91.5201 97.9378 112.473 112.5 112.429 126.038C112.542 139.484 91.9006 154.354 78.4753 157.713Z" fill="#F9F9F9"/>
<path d="M69.9715 114.819C53.3002 106.231 47.1927 84.4114 42.607 67.959C38.5029 50.9602 35.9207 39.3039 37.4627 37.7618C39.0048 36.2198 50.6694 38.806 67.6037 42.9465C83.9795 47.5523 105.649 53.7326 114.335 70.2255C121.454 81.7847 125.975 106.894 116.359 116.438C106.957 126.026 81.8303 121.926 69.9715 114.819Z" fill="#F9F9F9"/>
<path d="M94.2889 78.4782C88.574 60.6132 99.6922 40.8622 108.091 25.9923C117.225 11.0536 123.628 1 125.806 1C127.983 1 134.411 11.0779 143.457 25.9802C151.778 40.8177 162.726 60.508 157.218 78.3122C154.081 91.5227 139.519 112.472 125.98 112.431C112.518 112.553 97.6482 91.891 94.2889 78.4782Z" fill="#F9F9F9"/>
<path d="M137.183 69.9747C145.771 53.3037 167.599 47.1963 184.043 42.6066C201.042 38.5067 212.699 35.9204 214.241 37.4665C215.783 39.0126 213.197 50.673 209.056 67.607C204.45 83.9826 198.27 105.652 181.777 114.338C170.217 121.457 145.107 125.978 135.564 116.361C125.979 106.959 130.075 81.8334 137.183 69.9747Z" fill="#F9F9F9"/>
<path d="M173.525 94.2911C191.39 88.5762 211.141 99.6902 226.011 108.076C240.95 117.211 251.004 123.61 251 125.791C250.996 127.973 240.926 134.392 226.023 143.442C211.186 151.763 191.495 162.711 173.691 157.203C160.48 154.062 139.531 139.504 139.571 125.966C139.45 112.52 160.112 97.6503 173.525 94.2911Z" fill="#F9F9F9"/>
<path d="M182.028 137.185C198.699 145.773 204.807 167.6 209.396 184.045C213.496 201.064 216.083 212.7 214.537 214.242C212.991 215.784 201.33 213.198 184.396 209.069C168.02 204.463 146.35 198.279 137.664 181.79C130.545 170.215 126.024 145.121 135.612 135.566C145.043 125.978 170.169 130.073 182.028 137.185Z" fill="#F9F9F9"/>
<path d="M157.711 173.526C163.426 191.391 152.308 211.142 143.926 226.012C134.791 240.95 128.392 251.004 126.21 251C124.029 250.996 117.61 240.926 108.56 226.024C100.238 211.186 89.2901 191.492 94.7986 173.692C97.9394 160.481 112.498 139.528 126.036 139.573C139.482 139.455 154.352 160.097 157.711 173.526Z" stroke="black" stroke-width="2" stroke-linejoin="round"/>
<path d="M114.817 182.029C106.228 198.7 84.4008 204.808 67.9562 209.394C50.9572 213.498 39.3006 216.08 37.7586 214.538C36.2165 212.996 38.8028 201.331 42.9271 184.381C47.5331 168.005 53.7175 146.336 70.2066 137.65C81.766 130.531 106.876 126.01 116.42 135.627C126.024 145.045 121.928 170.171 114.817 182.029Z" stroke="black" stroke-width="2" stroke-linejoin="round"/>
<path d="M78.4753 157.713C60.6101 163.428 40.8588 152.31 25.9886 143.928C11.0497 134.793 0.995954 128.39 1 126.212C1.00405 124.035 11.074 117.6 25.9765 108.562C40.8143 100.241 60.5089 89.2927 78.3094 94.8011C91.5201 97.9378 112.473 112.5 112.429 126.038C112.542 139.484 91.9006 154.354 78.4753 157.713Z" stroke="black" stroke-width="2" stroke-linejoin="round"/>
<path d="M69.9715 114.819C53.3002 106.231 47.1927 84.4114 42.607 67.959C38.5029 50.9602 35.9207 39.3039 37.4627 37.7618C39.0048 36.2198 50.6694 38.806 67.6037 42.9465C83.9795 47.5523 105.649 53.7326 114.335 70.2255C121.454 81.7847 125.975 106.894 116.359 116.438C106.957 126.026 81.8303 121.926 69.9715 114.819Z" stroke="black" stroke-width="2" stroke-linejoin="round"/>
<path d="M94.2889 78.4782C88.574 60.6132 99.6922 40.8622 108.091 25.9923C117.225 11.0536 123.628 1 125.806 1C127.983 1 134.411 11.0779 143.457 25.9802C151.778 40.8177 162.726 60.508 157.218 78.3122C154.081 91.5227 139.519 112.472 125.98 112.431C112.518 112.553 97.6482 91.891 94.2889 78.4782Z" stroke="black" stroke-width="2" stroke-linejoin="round"/>
<path d="M137.183 69.9747C145.771 53.3037 167.599 47.1963 184.043 42.6066C201.042 38.5067 212.699 35.9204 214.241 37.4665C215.783 39.0126 213.197 50.673 209.056 67.607C204.45 83.9826 198.27 105.652 181.777 114.338C170.217 121.457 145.107 125.978 135.564 116.361C125.979 106.959 130.075 81.8334 137.183 69.9747Z" stroke="black" stroke-width="2" stroke-linejoin="round"/>
<path d="M173.525 94.2911C191.39 88.5762 211.141 99.6902 226.011 108.076C240.95 117.211 251.004 123.61 251 125.791C250.996 127.973 240.926 134.392 226.023 143.442C211.186 151.763 191.495 162.711 173.691 157.203C160.48 154.062 139.531 139.504 139.571 125.966C139.45 112.52 160.112 97.6503 173.525 94.2911Z" stroke="black" stroke-width="2" stroke-linejoin="round"/>
<path d="M182.028 137.185C198.699 145.773 204.807 167.6 209.396 184.045C213.496 201.064 216.083 212.7 214.537 214.242C212.991 215.784 201.33 213.198 184.396 209.069C168.02 204.463 146.35 198.279 137.664 181.79C130.545 170.215 126.024 145.121 135.612 135.566C145.043 125.978 170.169 130.073 182.028 137.185Z" stroke="black" stroke-width="2" stroke-linejoin="round"/>
</svg>
