<svg width="252" height="252" viewBox="0 0 252 252" fill="none" xmlns="http://www.w3.org/2000/svg">
<path d="M126.817 251C108.705 217.53 109.297 180.949 126.511 152.218C143.988 180.084 143.379 217.99 126.817 251Z" fill="#F9F9F9"/>
<path d="M214.968 213.813C178.493 202.953 153.046 176.664 144.897 144.176C176.959 151.525 203.336 178.762 214.968 213.813Z" fill="#F9F9F9"/>
<path d="M251 125.182C217.529 143.286 180.949 142.695 152.216 125.488C180.083 108.018 217.989 108.627 251 125.182Z" fill="#F9F9F9"/>
<path d="M213.814 37.039C202.951 73.5085 176.656 98.9518 144.167 107.1C151.517 75.0423 178.759 48.6692 213.814 37.039Z" fill="#F9F9F9"/>
<path d="M125.475 99.7814C108.001 71.9148 108.613 34.0092 125.177 1C143.297 34.4711 142.693 71.0524 125.475 99.7814Z" fill="#F9F9F9"/>
<path d="M107.085 107.831C75.0228 100.482 48.6461 73.2444 37.014 38.1955C73.486 49.0569 98.9348 75.3471 107.085 107.831Z" fill="#F9F9F9"/>
<path d="M1 126.819C34.4642 108.724 71.0347 109.314 99.7625 126.513C71.9007 143.973 34.0058 143.366 1 126.819Z" fill="#F9F9F9"/>
<path d="M38.1698 214.967C49.0319 178.5 75.3242 153.055 107.816 144.907C100.466 176.963 73.2256 203.336 38.1698 214.967Z" fill="#F9F9F9"/>
<path d="M126.511 152.218C109.297 180.949 108.705 217.53 126.817 251C143.379 217.99 143.988 180.084 126.511 152.218ZM126.511 152.218C123.151 146.862 119.124 141.877 114.413 137.369C109.824 133.223 104.92 129.6 99.7625 126.513M126.511 152.218C129.597 147.068 133.217 142.17 137.359 137.587C141.869 132.875 146.857 128.847 152.216 125.488M144.897 144.176C153.046 176.664 178.493 202.953 214.968 213.813C203.336 178.762 176.959 151.525 144.897 144.176ZM144.897 144.176C138.733 142.763 132.36 142.085 125.84 142.228C119.668 142.541 113.643 143.446 107.816 144.907M144.897 144.176C143.436 138.35 142.531 132.326 142.219 126.155C142.076 119.636 142.753 113.263 144.167 107.1M152.216 125.488C180.949 142.695 217.529 143.286 251 125.182C217.989 108.627 180.083 108.018 152.216 125.488ZM152.216 125.488C147.063 122.402 142.162 118.781 137.577 114.638C132.864 110.128 128.835 105.14 125.475 99.7814M144.167 107.1C176.656 98.9518 202.951 73.5085 213.814 37.039C178.759 48.6692 151.517 75.0423 144.167 107.1ZM144.167 107.1C138.34 108.561 132.315 109.466 126.143 109.779C119.623 109.922 113.249 109.244 107.085 107.831M125.475 99.7814C108.001 71.9148 108.613 34.0092 125.177 1C143.297 34.4711 142.693 71.0524 125.475 99.7814ZM125.475 99.7814C122.388 104.932 118.767 109.83 114.624 114.412C110.113 119.125 105.123 123.153 99.7625 126.513M107.085 107.831C75.0228 100.482 48.6461 73.2444 37.014 38.1955C73.486 49.0569 98.9348 75.3471 107.085 107.831ZM107.085 107.831C108.546 113.656 109.452 119.681 109.764 125.852C109.907 132.371 109.229 138.744 107.816 144.907M99.7625 126.513C71.0347 109.314 34.4642 108.724 1 126.819C34.0058 143.366 71.9007 143.973 99.7625 126.513ZM107.816 144.907C75.3242 153.055 49.0319 178.5 38.1698 214.967C73.2256 203.336 100.466 176.963 107.816 144.907Z" stroke="black" stroke-width="2" stroke-linejoin="round"/>
</svg>
