<svg width="252" height="250" viewBox="0 0 252 250" fill="none" xmlns="http://www.w3.org/2000/svg">
<path d="M155.156 116.278C155.156 83.6354 126.001 57.1734 126.001 57.1734C126.001 57.1734 96.8461 83.6354 96.8461 116.278C96.8461 148.92 126.001 175.382 126.001 175.382C126.001 175.382 155.156 148.92 155.156 116.278Z" fill="#F9F9F9"/>
<path d="M67.0103 134.135C95.4159 150.456 103.865 188.815 103.865 188.815C103.865 188.815 66.261 200.711 37.8554 184.39C9.44985 168.069 1 129.71 1 129.71C1 129.71 38.6047 117.814 67.0103 134.135Z" fill="#F9F9F9"/>
<path d="M184.99 134.135C156.584 150.456 148.135 188.815 148.135 188.815C148.135 188.815 185.739 200.711 214.145 184.39C242.55 168.069 251 129.71 251 129.71C251 129.71 213.395 117.814 184.99 134.135Z" fill="#F9F9F9"/>
<path d="M126.001 175.382C126.001 175.382 96.8461 148.92 96.8461 116.278C96.8461 83.6354 126.001 57.1735 126.001 57.1735C126.001 57.1735 155.156 83.6354 155.156 116.278C155.156 148.92 126.001 175.382 126.001 175.382ZM126.001 175.382C122.042 179.322 112.071 187.525 103.865 188.815M126.001 175.382C129.96 178.964 139.929 186.665 148.135 188.815M103.865 188.815C103.865 188.815 95.4159 150.456 67.0103 134.135C38.6047 117.814 1 129.71 1 129.71C1 129.71 9.44985 168.069 37.8554 184.39C66.261 200.711 103.865 188.815 103.865 188.815ZM148.135 188.815C148.135 188.815 156.584 150.456 184.99 134.135C213.395 117.814 251 129.71 251 129.71C251 129.71 242.55 168.069 214.145 184.39C185.739 200.711 148.135 188.815 148.135 188.815Z" stroke="black" stroke-width="2" stroke-linejoin="round"/>
</svg>
