<svg width="252" height="250" viewBox="0 0 252 250" fill="none" xmlns="http://www.w3.org/2000/svg">
<path d="M200.074 168.967C228.2 168.967 251 144.009 251 144.009C251 144.009 228.2 119.05 200.074 119.05C171.948 119.05 149.148 144.009 149.148 144.009C149.148 144.009 171.948 168.967 200.074 168.967Z" fill="#F9F9F9"/>
<path d="M51.926 168.967C80.0516 168.967 102.852 144.009 102.852 144.009C102.852 144.009 80.0516 119.05 51.926 119.05C23.8003 119.05 0.999995 144.009 0.999995 144.009C0.999995 144.009 23.8003 168.967 51.926 168.967Z" fill="#F9F9F9"/>
<path d="M184.688 93.5089C170.625 117.826 137.574 125.059 137.574 125.059C137.574 125.059 127.324 92.8674 141.387 68.5505C155.449 44.2336 188.5 37 188.5 37C188.5 37 198.751 69.192 184.688 93.5089Z" fill="#F9F9F9"/>
<path d="M67.3124 93.5106C81.3752 117.828 114.426 125.06 114.426 125.06C114.426 125.06 124.677 92.8691 110.614 68.5522C96.5509 44.2353 63.5 37.0017 63.5 37.0017C63.5 37.0017 53.2496 69.1937 67.3124 93.5106Z" fill="#F9F9F9"/>
<path d="M149.148 144.009C149.148 144.009 171.948 119.05 200.074 119.05C228.2 119.05 251 144.009 251 144.009C251 144.009 228.2 168.967 200.074 168.967C171.948 168.967 149.148 144.009 149.148 144.009ZM149.148 144.009C129.88 165.81 126.64 196.248 126 212.633C125.439 194.558 118.501 161.91 102.852 144.009M149.148 144.009C145.753 140.619 138.685 132.084 137.574 125.059M102.852 144.009C102.852 144.009 80.0516 168.967 51.926 168.967C23.8003 168.967 0.999995 144.009 0.999995 144.009C0.999995 144.009 23.8003 119.05 51.926 119.05C80.0516 119.05 102.852 144.009 102.852 144.009ZM102.852 144.009C105.938 140.619 112.574 132.086 114.426 125.06M137.574 125.059C137.574 125.059 170.625 117.826 184.688 93.5089C198.751 69.192 188.5 37 188.5 37C188.5 37 155.449 44.2336 141.387 68.5505C127.324 92.8674 137.574 125.059 137.574 125.059ZM137.574 125.059C129.796 126.906 118.901 125.829 114.426 125.06M114.426 125.06C114.426 125.06 81.3752 117.828 67.3124 93.5106C53.2496 69.1937 63.5 37.0017 63.5 37.0017C63.5 37.0017 96.5509 44.2353 110.614 68.5522C124.677 92.8691 114.426 125.06 114.426 125.06Z" stroke="black" stroke-width="2" stroke-linejoin="round"/>
</svg>
