<svg width="252" height="252" viewBox="0 0 252 252" fill="none" xmlns="http://www.w3.org/2000/svg">
<path d="M40.2403 81.6415C28.8077 70.2089 26.179 49.0443 37.6117 37.6117C49.0443 26.179 70.2089 28.8077 81.6415 40.2403C97.4553 56.054 105.299 105.299 105.299 105.299C105.299 105.299 56.054 97.4553 40.2403 81.6415Z" fill="#F9F9F9"/>
<path d="M81.6415 211.76C70.2089 223.192 49.0443 225.821 37.6117 214.388C26.179 202.956 28.8077 181.791 40.2403 170.358C56.054 154.545 105.299 146.701 105.299 146.701C105.299 146.701 97.4553 195.946 81.6415 211.76Z" fill="#F9F9F9"/>
<path d="M170.358 40.2403C181.791 28.8077 202.956 26.179 214.388 37.6117C225.821 49.0443 223.192 70.2089 211.76 81.6415C195.946 97.4553 146.701 105.299 146.701 105.299C146.701 105.299 154.545 56.054 170.358 40.2403Z" fill="#F9F9F9"/>
<path d="M211.76 170.358C223.192 181.791 225.821 202.956 214.388 214.388C202.956 225.821 181.791 223.192 170.358 211.76C154.545 195.946 146.701 146.701 146.701 146.701C146.701 146.701 195.946 154.545 211.76 170.358Z" fill="#F9F9F9"/>
<path d="M96.7249 33.9926C96.7249 17.8244 109.832 0.999999 126 1C142.168 1 155.275 17.8244 155.275 33.9926C155.275 56.3565 126 96.7249 126 96.7249C126 96.7249 96.7249 56.3565 96.7249 33.9926Z" fill="#F9F9F9"/>
<path d="M33.9925 155.275C17.8244 155.275 1 142.168 1 126C1 109.832 17.8244 96.7249 33.9926 96.7249C56.3565 96.7249 96.7249 126 96.7249 126C96.7249 126 56.3565 155.275 33.9925 155.275Z" fill="#F9F9F9"/>
<path d="M218.007 96.7249C234.176 96.7249 251 109.832 251 126C251 142.168 234.176 155.275 218.007 155.275C195.643 155.275 155.275 126 155.275 126C155.275 126 195.643 96.7249 218.007 96.7249Z" fill="#F9F9F9"/>
<path d="M155.275 218.007C155.275 234.176 142.168 251 126 251C109.832 251 96.7249 234.176 96.7249 218.007C96.7249 195.643 126 155.275 126 155.275C126 155.275 155.275 195.643 155.275 218.007Z" fill="#F9F9F9"/>
<path d="M105.299 105.299C105.299 105.299 97.4553 56.054 81.6415 40.2403C70.2089 28.8077 49.0443 26.179 37.6117 37.6117C26.179 49.0443 28.8077 70.2089 40.2403 81.6415C56.054 97.4553 105.299 105.299 105.299 105.299ZM105.299 105.299C105.299 105.299 111.427 105.979 117.881 106.399C122.148 101.538 126 96.7249 126 96.7249M105.299 105.299C105.299 105.299 105.992 111.54 106.411 118.059C100.497 123.424 96.7249 126 96.7249 126M105.299 146.701C105.299 146.701 56.054 154.545 40.2403 170.358C28.8077 181.791 26.179 202.956 37.6117 214.388C49.0443 225.821 70.2089 223.192 81.6415 211.76C97.4553 195.946 105.299 146.701 105.299 146.701ZM105.299 146.701C108.377 146.324 112.965 145.893 118.163 145.612C121.197 148.883 123.946 152.19 126 155.275M105.299 146.701C105.299 146.701 106.143 142.225 106.531 134.273C102.68 130.819 99.1552 127.9 96.7249 126M146.701 105.299C146.701 105.299 195.946 97.4553 211.76 81.6415C223.192 70.2089 225.821 49.0443 214.388 37.6117C202.956 26.179 181.791 28.8077 170.358 40.2403C154.545 56.054 146.701 105.299 146.701 105.299ZM146.701 105.299C146.701 105.299 140.581 106.002 134.137 106.42C129.863 101.552 126 96.7249 126 96.7249M146.701 105.299C146.192 108.247 145.614 112.606 145.222 117.578C150.198 121.969 155.275 126 155.275 126M146.701 146.701C146.701 146.701 154.545 195.946 170.358 211.76C181.791 223.192 202.956 225.821 214.388 214.388C225.821 202.956 223.192 181.791 211.76 170.358C195.946 154.545 146.701 146.701 146.701 146.701ZM146.701 146.701C145.685 142.993 145.135 138.669 144.902 134.191C148.942 130.703 152.694 127.822 155.275 126M146.701 146.701C142.809 145.92 138.175 145.522 133.377 145.377C130.456 148.64 127.862 152.009 126 155.275M126 96.7249C126 96.7249 155.275 56.3565 155.275 33.9926C155.275 17.8244 142.168 1 126 1C109.832 0.999999 96.7249 17.8244 96.7249 33.9926C96.7249 56.3565 126 96.7249 126 96.7249ZM96.7249 126C96.7249 126 56.3565 96.7249 33.9926 96.7249C17.8244 96.7249 1 109.832 1 126C1 142.168 17.8244 155.275 33.9926 155.275C56.3565 155.275 96.7249 126 96.7249 126ZM155.275 126C155.275 126 195.643 155.275 218.007 155.275C234.176 155.275 251 142.168 251 126C251 109.832 234.176 96.7249 218.007 96.7249C195.643 96.7249 155.275 126 155.275 126ZM126 155.275C126 155.275 96.7249 195.643 96.7249 218.007C96.7249 234.176 109.832 251 126 251C142.168 251 155.275 234.176 155.275 218.007C155.275 195.643 126 155.275 126 155.275Z" stroke="black" stroke-width="2" stroke-linejoin="round"/>
</svg>
