<svg width="250" height="252" viewBox="0 0 250 252" fill="none" xmlns="http://www.w3.org/2000/svg">
<path d="M150.051 51.629C150.051 23.6673 125.076 0.999893 125.076 0.999893C125.076 0.999893 100.102 23.6673 100.102 51.629C100.102 79.5906 125.076 102.258 125.076 102.258C125.076 102.258 150.051 79.5906 150.051 51.629Z" fill="#F9F9F9"/>
<path d="M74.5448 66.9255C98.8771 80.9063 106.115 113.764 106.115 113.764C106.115 113.764 73.9029 123.955 49.5705 109.974C25.2382 95.9935 18 63.1354 18 63.1354C18 63.1354 50.2124 52.9446 74.5448 66.9255Z" fill="#F9F9F9"/>
<path d="M175.607 66.9255C151.274 80.9063 144.037 113.764 144.037 113.764C144.037 113.764 176.248 123.955 200.581 109.974C224.913 95.9935 232.151 63.1354 232.151 63.1354C232.151 63.1354 199.939 52.9446 175.607 66.9255Z" fill="#F9F9F9"/>
<path d="M125.076 102.258C125.076 102.258 100.102 79.5906 100.102 51.629C100.102 23.6673 125.076 0.999893 125.076 0.999893C125.076 0.999893 150.051 23.6673 150.051 51.629C150.051 79.5906 125.076 102.258 125.076 102.258ZM125.076 102.258C121.685 105.633 113.144 112.66 106.115 113.764M125.076 102.258C128.468 105.326 137.007 111.923 144.037 113.764M106.115 113.764C106.115 113.764 98.8771 80.9063 74.5448 66.9255C50.2124 52.9446 18 63.1354 18 63.1354C18 63.1354 25.2382 95.9935 49.5705 109.974C73.9029 123.955 106.115 113.764 106.115 113.764ZM144.037 113.764C144.037 113.764 151.274 80.9063 175.607 66.9255C199.939 52.9446 232.151 63.1354 232.151 63.1354C232.151 63.1354 224.913 95.9935 200.581 109.974C176.248 123.955 144.037 113.764 144.037 113.764Z" stroke="black" stroke-width="2" stroke-linejoin="round"/>
<path d="M100.101 200.371C100.101 228.332 125.075 251 125.075 251C125.075 251 150.049 228.332 150.049 200.371C150.049 172.409 125.075 149.742 125.075 149.742C125.075 149.742 100.101 172.409 100.101 200.371Z" fill="#F9F9F9"/>
<path d="M175.607 185.074C151.274 171.093 144.037 138.235 144.037 138.235C144.037 138.235 176.248 128.045 200.581 142.025C224.913 156.006 232.151 188.864 232.151 188.864C232.151 188.864 199.939 199.055 175.607 185.074Z" fill="#F9F9F9"/>
<path d="M74.5448 185.074C98.8772 171.093 106.115 138.235 106.115 138.235C106.115 138.235 73.903 128.045 49.5706 142.025C25.2383 156.006 18.0001 188.864 18.0001 188.864C18.0001 188.864 50.2125 199.055 74.5448 185.074Z" fill="#F9F9F9"/>
<path d="M125.075 149.742C125.075 149.742 150.049 172.409 150.049 200.371C150.049 228.332 125.075 251 125.075 251C125.075 251 100.101 228.332 100.101 200.371C100.101 172.409 125.075 149.742 125.075 149.742ZM125.075 149.742C128.466 146.366 137.007 139.34 144.037 138.235M125.075 149.742C121.683 146.673 113.144 140.076 106.115 138.235M144.037 138.235C144.037 138.235 151.274 171.093 175.607 185.074C199.939 199.055 232.151 188.864 232.151 188.864C232.151 188.864 224.913 156.006 200.581 142.025C176.248 128.045 144.037 138.235 144.037 138.235ZM106.115 138.235C106.115 138.235 98.8772 171.093 74.5448 185.074C50.2125 199.055 18.0001 188.864 18.0001 188.864C18.0001 188.864 25.2383 156.006 49.5706 142.025C73.903 128.045 106.115 138.235 106.115 138.235Z" stroke="black" stroke-width="2" stroke-linejoin="round"/>
<circle cx="172.753" cy="43.2058" r="10.9421" stroke="black" stroke-width="2" stroke-linejoin="round"/>
<circle cx="172.753" cy="210.464" r="10.9421" stroke="black" stroke-width="2" stroke-linejoin="round"/>
<circle cx="76.6184" cy="43.2058" r="10.9421" stroke="black" stroke-width="2" stroke-linejoin="round"/>
<circle cx="76.6184" cy="210.464" r="10.9421" stroke="black" stroke-width="2" stroke-linejoin="round"/>
<path d="M125.077 103.387C125.077 103.387 124.768 116.577 130.051 121.86C135.334 127.143 148.524 126.834 148.524 126.834C148.524 126.834 135.334 126.525 130.051 131.808C124.768 137.091 125.077 150.282 125.077 150.282C125.077 150.282 125.386 137.091 120.103 131.808C114.82 126.525 101.629 126.834 101.629 126.834C101.629 126.834 114.82 127.143 120.103 121.86C125.386 116.577 125.077 103.387 125.077 103.387Z" fill="#F9F9F9"/>
<path d="M148.524 126.834C148.524 126.834 135.334 127.143 130.051 121.86C124.768 116.577 125.077 103.387 125.077 103.387C125.077 103.387 125.386 116.577 120.103 121.86C114.82 127.143 101.629 126.834 101.629 126.834M148.524 126.834C148.524 126.834 135.334 126.525 130.051 131.808C124.768 137.091 125.077 150.282 125.077 150.282C125.077 150.282 125.386 137.091 120.103 131.808C114.82 126.525 101.629 126.834 101.629 126.834M148.524 126.834H189.362M101.629 126.834H61.5732" stroke="black" stroke-width="2" stroke-linejoin="round"/>
<circle cx="196.2" cy="126.835" r="1.56316" stroke="black" stroke-width="2" stroke-linejoin="round"/>
<circle cx="54.7341" cy="126.835" r="1.56316" stroke="black" stroke-width="2" stroke-linejoin="round"/>
</svg>
