<svg width="252" height="252" viewBox="0 0 252 252" fill="none" xmlns="http://www.w3.org/2000/svg">
<path d="M251 125.791C251.004 123.61 240.95 117.211 226.011 108.076C218.097 103.613 208.8 98.3768 199.14 95.3165C195.033 103.265 189.551 110.244 181.777 114.338C171.964 120.381 152.384 124.553 140.854 119.791C140.013 121.852 139.553 123.925 139.571 125.966C139.565 128.005 140.035 130.068 140.884 132.111C145.667 143.631 162.47 154.535 173.691 157.203C182.082 159.799 190.892 158.74 199.415 156.023C208.977 152.975 218.179 147.841 226.023 143.442C240.926 134.392 250.996 127.973 251 125.791Z" fill="#F9F9F9"/>
<path d="M126.21 251C128.392 251.004 134.791 240.95 143.926 226.012C148.386 218.1 153.62 208.806 156.682 199.15C148.734 195.043 141.758 189.561 137.664 181.79C131.619 171.961 127.447 152.383 132.197 140.85C130.141 140.013 128.072 139.555 126.036 139.573C123.993 139.566 121.926 140.038 119.879 140.889C108.363 145.677 97.4654 162.475 94.7986 173.692C92.2024 182.081 93.2618 190.892 95.9789 199.416C99.0268 208.978 104.16 218.18 108.56 226.024C117.61 240.926 124.029 250.996 126.21 251Z" fill="#F9F9F9"/>
<path d="M1 126.212C0.995954 128.39 11.0497 134.793 25.9886 143.928C33.8978 148.386 43.1879 153.618 52.8405 156.68C56.9481 148.728 62.4319 141.746 70.2066 137.65C80.025 131.603 99.6198 127.431 111.148 132.204C111.987 130.146 112.446 128.076 112.429 126.038C112.436 123.997 111.965 121.931 111.115 119.886C106.329 108.367 89.5276 97.4647 78.3094 94.8011C69.9193 92.2048 61.1084 93.2644 52.5836 95.9818C43.0221 99.0297 33.8206 104.163 25.9765 108.562C11.074 117.6 1.00405 124.035 1 126.212Z" fill="#F9F9F9"/>
<path d="M125.806 1C123.628 1 117.225 11.0536 108.091 25.9923C103.62 33.9069 98.3798 43.2044 95.317 52.8642C103.265 56.9707 110.242 62.4529 114.335 70.2255C120.378 80.0377 124.549 99.6141 119.79 111.145C121.856 111.988 123.934 112.45 125.98 112.431C128.017 112.437 130.078 111.968 132.119 111.122C143.643 106.342 154.553 89.5348 157.218 78.3122C159.815 69.9187 158.754 61.106 156.036 52.5802C152.987 43.0212 147.855 33.8228 143.457 25.9802C134.411 11.0779 127.983 1 125.806 1Z" fill="#F9F9F9"/>
<path d="M37.4627 37.7618C35.9207 39.3039 38.5029 50.9602 42.607 67.959C45.0473 76.7144 47.9186 86.9896 52.5836 95.9818C61.1084 93.2644 69.9193 92.2048 78.3094 94.8011C89.5276 97.4647 106.329 108.367 111.115 119.886C113.156 119.025 114.937 117.888 116.359 116.438C117.812 114.996 118.943 113.198 119.79 111.145C124.549 99.6141 120.378 80.0377 114.335 70.2255C110.242 62.4529 103.265 56.9707 95.317 52.8642C86.4004 48.2571 76.2621 45.3817 67.6037 42.9465C50.6694 38.806 39.0048 36.2198 37.4627 37.7618Z" fill="#F9F9F9"/>
<path d="M214.241 37.4665C212.699 35.9204 201.042 38.5067 184.043 42.6066C175.296 45.0479 165.026 47.9187 156.036 52.5802C158.754 61.106 159.815 69.9187 157.218 78.3122C154.553 89.5348 143.643 106.342 132.119 111.122C132.979 113.161 134.115 114.94 135.564 116.361C137.005 117.814 138.802 118.944 140.854 119.791C152.384 124.553 171.964 120.381 181.777 114.338C189.551 110.244 195.033 103.265 199.14 95.3165C203.746 86.4008 206.621 76.2641 209.056 67.607C213.197 50.673 215.783 39.0126 214.241 37.4665Z" fill="#F9F9F9"/>
<path d="M214.537 214.242C216.083 212.7 213.496 201.064 209.396 184.045C206.954 175.293 204.081 165.017 199.415 156.023C190.892 158.74 182.082 159.799 173.691 157.203C162.47 154.535 145.667 143.631 140.884 132.111C138.833 132.973 137.042 134.112 135.612 135.566C134.166 137.007 133.041 138.802 132.197 140.85C127.447 152.383 131.619 171.961 137.664 181.79C141.758 189.561 148.734 195.043 156.682 199.15C165.599 203.757 175.737 206.634 184.396 209.069C201.33 213.198 212.991 215.784 214.537 214.242Z" fill="#F9F9F9"/>
<path d="M37.7586 214.538C39.3006 216.08 50.9572 213.497 67.9562 209.393C76.7081 206.953 86.9848 204.081 95.9789 199.416C93.2618 190.892 92.2024 182.081 94.7986 173.692C97.4654 162.475 108.363 145.677 119.879 140.889C119.016 138.841 117.875 137.054 116.42 135.627C114.982 134.178 113.192 133.051 111.148 132.204C99.6198 127.431 80.025 131.603 70.2066 137.65C62.4319 141.746 56.9481 148.728 52.8405 156.68C48.2364 165.594 45.3613 175.727 42.9271 184.381C38.8028 201.331 36.2165 212.996 37.7586 214.538Z" fill="#F9F9F9"/>
<path d="M156.036 52.5802C158.754 61.106 159.815 69.9187 157.218 78.3122C154.553 89.5348 143.643 106.342 132.119 111.122M156.036 52.5802C165.026 47.9187 175.296 45.0479 184.043 42.6066C201.042 38.5067 212.699 35.9204 214.241 37.4665C215.783 39.0126 213.197 50.673 209.056 67.607C206.621 76.2641 203.746 86.4008 199.14 95.3165M156.036 52.5802C152.987 43.0212 147.855 33.8228 143.457 25.9802C134.411 11.0779 127.983 1 125.806 1C123.628 1 117.225 11.0536 108.091 25.9923C103.62 33.9069 98.3798 43.2044 95.317 52.8642M132.119 111.122C132.979 113.161 134.115 114.94 135.564 116.361C137.005 117.814 138.802 118.944 140.854 119.791M132.119 111.122C130.078 111.968 128.017 112.437 125.98 112.431C123.934 112.45 121.856 111.988 119.79 111.145M140.854 119.791C152.384 124.553 171.964 120.381 181.777 114.338C189.551 110.244 195.033 103.265 199.14 95.3165M140.854 119.791C140.013 121.852 139.553 123.925 139.571 125.966C139.565 128.005 140.035 130.068 140.884 132.111M199.14 95.3165C208.8 98.3768 218.097 103.613 226.011 108.076C240.95 117.211 251.004 123.61 251 125.791C250.996 127.973 240.926 134.392 226.023 143.442C218.179 147.841 208.977 152.975 199.415 156.023M52.5836 95.9818C61.1084 93.2644 69.9193 92.2048 78.3094 94.8011C89.5276 97.4647 106.329 108.367 111.115 119.886M52.5836 95.9818C47.9186 86.9896 45.0473 76.7144 42.607 67.959C38.5029 50.9602 35.9207 39.3039 37.4627 37.7618C39.0048 36.2198 50.6694 38.806 67.6037 42.9465C76.2621 45.3817 86.4004 48.2571 95.317 52.8642M52.5836 95.9818C43.0221 99.0297 33.8206 104.163 25.9765 108.562C11.074 117.6 1.00405 124.035 1 126.212C0.995954 128.39 11.0497 134.793 25.9886 143.928C33.8978 148.386 43.1878 153.618 52.8405 156.68M111.115 119.886C113.155 119.025 114.937 117.888 116.359 116.438C117.812 114.996 118.943 113.198 119.79 111.145M111.115 119.886C111.965 121.931 112.436 123.997 112.429 126.038C112.446 128.076 111.987 130.146 111.148 132.204M119.79 111.145C124.549 99.6141 120.378 80.0377 114.335 70.2255C110.242 62.4529 103.265 56.9707 95.317 52.8642M95.9789 199.416C93.2618 190.892 92.2024 182.081 94.7986 173.692C97.4654 162.475 108.363 145.677 119.879 140.889M95.9789 199.416C86.9848 204.081 76.7081 206.953 67.9562 209.393C50.9572 213.497 39.3006 216.08 37.7586 214.538C36.2165 212.996 38.8028 201.331 42.9271 184.381C45.3613 175.727 48.2364 165.594 52.8405 156.68M95.9789 199.416C99.0268 208.978 104.16 218.18 108.56 226.024C117.61 240.926 124.029 250.996 126.21 251C128.392 251.004 134.791 240.95 143.926 226.012C148.386 218.1 153.62 208.806 156.682 199.15M119.879 140.889C119.016 138.841 117.875 137.054 116.42 135.627C114.982 134.178 113.192 133.051 111.148 132.204M119.879 140.889C121.926 140.038 123.993 139.566 126.036 139.573C128.072 139.555 130.141 140.013 132.197 140.85M111.148 132.204C99.6197 127.431 80.025 131.603 70.2066 137.65C62.4319 141.746 56.9481 148.728 52.8405 156.68M156.682 199.15C165.599 203.757 175.737 206.634 184.396 209.069C201.33 213.198 212.991 215.784 214.537 214.242C216.083 212.7 213.496 201.064 209.396 184.045C206.954 175.293 204.081 165.017 199.415 156.023M156.682 199.15C148.734 195.043 141.758 189.561 137.664 181.79C131.619 171.961 127.447 152.383 132.197 140.85M199.415 156.023C190.892 158.74 182.082 159.799 173.691 157.203C162.47 154.535 145.667 143.631 140.884 132.111M140.884 132.111C138.833 132.973 137.042 134.112 135.612 135.566C134.166 137.007 133.041 138.802 132.197 140.85" stroke="black" stroke-width="2" stroke-linejoin="round"/>
<path d="M251 125.791C251.004 123.61 240.95 117.211 226.011 108.076C218.097 103.613 208.8 98.3768 199.14 95.3165C195.033 103.265 189.551 110.244 181.777 114.338C171.964 120.381 152.384 124.553 140.854 119.791C140.013 121.852 139.553 123.925 139.571 125.966C139.565 128.005 140.035 130.068 140.884 132.111C145.667 143.631 162.47 154.535 173.691 157.203C182.082 159.799 190.892 158.74 199.415 156.023C208.977 152.975 218.179 147.841 226.023 143.442C240.926 134.392 250.996 127.973 251 125.791Z" fill="#F9F9F9"/>
<path d="M126.21 251C128.392 251.004 134.791 240.95 143.926 226.012C148.386 218.1 153.62 208.806 156.682 199.15C148.734 195.043 141.758 189.561 137.664 181.79C131.619 171.961 127.447 152.383 132.197 140.85C130.141 140.013 128.072 139.555 126.036 139.573C123.993 139.566 121.926 140.038 119.879 140.889C108.363 145.677 97.4654 162.475 94.7986 173.692C92.2024 182.081 93.2618 190.892 95.9789 199.416C99.0268 208.978 104.16 218.18 108.56 226.024C117.61 240.926 124.029 250.996 126.21 251Z" fill="#F9F9F9"/>
<path d="M1 126.212C0.995954 128.39 11.0497 134.793 25.9886 143.928C33.8978 148.386 43.1879 153.618 52.8405 156.68C56.9481 148.728 62.4319 141.746 70.2066 137.65C80.025 131.603 99.6198 127.431 111.148 132.204C111.987 130.146 112.446 128.076 112.429 126.038C112.436 123.997 111.965 121.931 111.115 119.886C106.329 108.367 89.5276 97.4647 78.3094 94.8011C69.9193 92.2048 61.1084 93.2644 52.5836 95.9818C43.0221 99.0297 33.8206 104.163 25.9765 108.562C11.074 117.6 1.00405 124.035 1 126.212Z" fill="#F9F9F9"/>
<path d="M125.806 1C123.628 1 117.225 11.0536 108.091 25.9923C103.62 33.9069 98.3798 43.2044 95.317 52.8642C103.265 56.9707 110.242 62.4529 114.335 70.2255C120.378 80.0377 124.549 99.6141 119.79 111.145C121.856 111.988 123.934 112.45 125.98 112.431C128.017 112.437 130.078 111.968 132.119 111.122C143.643 106.342 154.553 89.5348 157.218 78.3122C159.815 69.9187 158.754 61.106 156.036 52.5802C152.987 43.0212 147.855 33.8228 143.457 25.9802C134.411 11.0779 127.983 1 125.806 1Z" fill="#F9F9F9"/>
<path d="M251 125.791C251.004 123.61 240.95 117.211 226.011 108.076C218.097 103.613 208.8 98.3768 199.14 95.3165C195.033 103.265 189.551 110.244 181.777 114.338C171.964 120.381 152.384 124.553 140.854 119.791C140.013 121.852 139.553 123.925 139.571 125.966C139.565 128.005 140.035 130.068 140.884 132.111C145.667 143.631 162.47 154.535 173.691 157.203C182.082 159.799 190.892 158.74 199.415 156.023C208.977 152.975 218.179 147.841 226.023 143.442C240.926 134.392 250.996 127.973 251 125.791Z" stroke="black" stroke-width="2" stroke-linejoin="round"/>
<path d="M126.21 251C128.392 251.004 134.791 240.95 143.926 226.012C148.386 218.1 153.62 208.806 156.682 199.15C148.734 195.043 141.758 189.561 137.664 181.79C131.619 171.961 127.447 152.383 132.197 140.85C130.141 140.013 128.072 139.555 126.036 139.573C123.993 139.566 121.926 140.038 119.879 140.889C108.363 145.677 97.4654 162.475 94.7986 173.692C92.2024 182.081 93.2618 190.892 95.9789 199.416C99.0268 208.978 104.16 218.18 108.56 226.024C117.61 240.926 124.029 250.996 126.21 251Z" stroke="black" stroke-width="2" stroke-linejoin="round"/>
<path d="M1 126.212C0.995954 128.39 11.0497 134.793 25.9886 143.928C33.8978 148.386 43.1879 153.618 52.8405 156.68C56.9481 148.728 62.4319 141.746 70.2066 137.65C80.025 131.603 99.6198 127.431 111.148 132.204C111.987 130.146 112.446 128.076 112.429 126.038C112.436 123.997 111.965 121.931 111.115 119.886C106.329 108.367 89.5276 97.4647 78.3094 94.8011C69.9193 92.2048 61.1084 93.2644 52.5836 95.9818C43.0221 99.0297 33.8206 104.163 25.9765 108.562C11.074 117.6 1.00405 124.035 1 126.212Z" stroke="black" stroke-width="2" stroke-linejoin="round"/>
<path d="M125.806 1C123.628 1 117.225 11.0536 108.091 25.9923C103.62 33.9069 98.3798 43.2044 95.317 52.8642C103.265 56.9707 110.242 62.4529 114.335 70.2255C120.378 80.0377 124.549 99.6141 119.79 111.145C121.856 111.988 123.934 112.45 125.98 112.431C128.017 112.437 130.078 111.968 132.119 111.122C143.643 106.342 154.553 89.5348 157.218 78.3122C159.815 69.9187 158.754 61.106 156.036 52.5802C152.987 43.0212 147.855 33.8228 143.457 25.9802C134.411 11.0779 127.983 1 125.806 1Z" stroke="black" stroke-width="2" stroke-linejoin="round"/>
</svg>
