<svg width="252" height="250" viewBox="0 0 252 250" fill="none" xmlns="http://www.w3.org/2000/svg">
<path d="M200.074 150.325C228.2 150.325 251 125.204 251 125.204C251 125.204 228.2 100.084 200.074 100.084C171.948 100.084 149.148 125.204 149.148 125.204C149.148 125.204 171.948 150.325 200.074 150.325Z" fill="#F9F9F9"/>
<path d="M51.926 150.325C80.0516 150.325 102.852 125.204 102.852 125.204C102.852 125.204 80.0516 100.084 51.926 100.084C23.8003 100.084 0.999995 125.204 0.999995 125.204C0.999995 125.204 23.8003 150.325 51.926 150.325Z" fill="#F9F9F9"/>
<path d="M184.688 74.3763C170.625 98.8514 137.574 106.131 137.574 106.131C137.574 106.131 127.324 73.7307 141.387 49.2557C155.449 24.7806 188.5 17.5 188.5 17.5C188.5 17.5 198.751 49.9013 184.688 74.3763Z" fill="#F9F9F9"/>
<path d="M67.3124 74.3781C81.3752 98.8531 114.426 106.133 114.426 106.133C114.426 106.133 124.677 73.7324 110.614 49.2574C96.5509 24.7823 63.5 17.5017 63.5 17.5017C63.5 17.5017 53.2496 49.903 67.3124 74.3781Z" fill="#F9F9F9"/>
<path d="M67.3124 176.032C81.3752 151.557 114.426 144.278 114.426 144.278C114.426 144.278 124.676 176.678 110.614 201.153C96.5509 225.628 63.5001 232.909 63.5001 232.909C63.5001 232.909 53.2496 200.508 67.3124 176.032Z" fill="#F9F9F9"/>
<path d="M184.688 176.031C170.625 151.556 137.574 144.276 137.574 144.276C137.574 144.276 127.324 176.676 141.387 201.151C155.449 225.626 188.5 232.907 188.5 232.907C188.5 232.907 198.751 200.506 184.688 176.031Z" fill="#F9F9F9"/>
<path d="M149.148 125.204C149.148 125.204 171.948 100.084 200.074 100.084C228.2 100.084 251 125.204 251 125.204C251 125.204 228.2 150.325 200.074 150.325C171.948 150.325 149.148 125.204 149.148 125.204ZM149.148 125.204C145.753 121.793 138.685 113.202 137.574 106.131M149.148 125.204C146.062 128.616 139.426 137.205 137.574 144.276M102.852 125.204C102.852 125.204 80.0516 150.325 51.926 150.325C23.8003 150.325 0.999995 125.204 0.999995 125.204C0.999995 125.204 23.8003 100.084 51.926 100.084C80.0516 100.084 102.852 125.204 102.852 125.204ZM102.852 125.204C105.938 121.793 112.574 113.204 114.426 106.133M102.852 125.204C106.247 128.616 113.315 137.206 114.426 144.277M137.574 106.131C137.574 106.131 170.625 98.8514 184.688 74.3763C198.751 49.9013 188.5 17.5 188.5 17.5C188.5 17.5 155.449 24.7806 141.387 49.2557C127.324 73.7307 137.574 106.131 137.574 106.131ZM137.574 106.131C129.796 107.99 118.901 106.907 114.426 106.133M114.426 106.133C114.426 106.133 81.3752 98.8531 67.3124 74.3781C53.2496 49.903 63.5 17.5017 63.5 17.5017C63.5 17.5017 96.5509 24.7823 110.614 49.2574C124.677 73.7324 114.426 106.133 114.426 106.133ZM114.426 144.277C114.426 144.277 81.3752 151.557 67.3124 176.032C53.2496 200.508 63.5001 232.909 63.5001 232.909C63.5001 232.909 96.5509 225.628 110.614 201.153C124.676 176.678 114.426 144.277 114.426 144.277ZM114.426 144.277C122.204 142.419 133.099 143.502 137.574 144.276M137.574 144.276C137.574 144.276 170.625 151.556 184.688 176.031C198.751 200.506 188.5 232.907 188.5 232.907C188.5 232.907 155.449 225.626 141.387 201.151C127.324 176.676 137.574 144.276 137.574 144.276Z" stroke="black" stroke-width="2" stroke-linejoin="round"/>
</svg>
