<svg width="250" height="250" viewBox="0 0 250 250" fill="none" xmlns="http://www.w3.org/2000/svg">
<path fill-rule="evenodd" clip-rule="evenodd" d="M97.8336 231.973C105.847 240.173 116.789 244.858 128.254 244.998C132.801 245.049 137.313 244.204 141.532 242.511C145.752 240.818 149.596 238.31 152.845 235.13C156.095 231.95 158.685 228.161 160.469 223.98C161.603 221.321 162.397 218.537 162.837 215.694C168.551 218.483 174.864 220.005 181.344 220.077C192.807 220.203 203.852 215.776 212.054 207.768C218.611 201.354 222.352 192.598 222.453 183.427C222.536 175.909 220.168 168.617 215.779 162.621C221.802 160.553 227.353 157.162 231.991 152.624C240.185 144.608 244.863 133.669 244.998 122.207C245.046 117.665 244.198 113.159 242.504 108.944C240.81 104.73 238.302 100.891 235.123 97.6457C231.945 94.4006 228.158 91.8133 223.98 90.0314C221.334 88.903 218.563 88.1116 215.733 87.6709C218.522 81.9581 220.045 75.646 220.116 69.1682C220.242 57.7065 215.815 46.6631 207.805 38.4624C201.39 31.9061 192.633 28.166 183.46 28.0649C175.948 27.9821 168.661 30.3456 162.667 34.7267C162.425 34.0198 162.164 33.3184 161.885 32.6234C159.771 27.3552 156.639 22.5552 152.669 18.4973C148.698 14.4394 143.968 11.2032 138.746 8.97351C133.525 6.74378 127.916 5.56421 122.239 5.50214C117.697 5.45157 113.19 6.29595 108.975 7.98706C104.76 9.67816 100.919 12.1829 97.6723 15.3582C94.4254 18.5335 91.8358 22.3172 90.0515 26.4932C88.9171 29.1481 88.1223 31.9286 87.6809 34.7688C81.9641 31.9765 75.6467 30.4519 69.1634 30.3805C57.7 30.2542 46.6549 34.6812 38.453 42.6897C31.8957 49.1036 28.1551 57.8592 28.054 67.0305C27.9711 74.5473 30.3386 81.8387 34.7269 87.8348C28.7027 89.9017 23.1509 93.2925 18.5114 97.8304C10.3157 105.847 5.63672 116.787 5.50199 128.25C5.40361 137.421 8.95171 146.255 15.3662 152.811C20.6142 158.175 27.4293 161.654 34.7575 162.799C31.9657 168.514 30.4413 174.829 30.3699 181.31C30.2435 192.772 34.6713 203.816 42.681 212.016C49.0958 218.573 57.8527 222.313 67.0254 222.414C74.5462 222.497 81.8415 220.128 87.8398 215.737C89.903 221.768 93.2933 227.327 97.8336 231.973ZM139.959 147.825C132.953 147.773 126.076 149.082 119.683 151.61C114.812 146.658 109.033 142.693 102.661 139.929C102.713 132.923 101.403 126.047 98.8736 119.654C103.821 114.784 107.784 109.008 110.545 102.64C117.552 102.693 124.431 101.384 130.826 98.8563C135.743 103.853 141.534 107.795 147.846 110.531C147.795 117.536 149.105 124.411 151.634 130.803C146.684 135.675 142.72 141.454 139.959 147.825Z" fill="#F9F9F9"/>
<path d="M140.137 147.826C140.077 147.826 140.018 147.825 139.959 147.825M134.107 197.114C137.111 197.152 139.978 198.378 142.079 200.526C144.18 202.673 145.343 205.565 145.315 208.569C145.268 212.324 143.734 215.907 141.05 218.533C138.365 221.159 134.748 222.613 130.993 222.577C126.3 222.518 121.823 220.601 118.541 217.246C115.259 213.892 113.441 209.374 113.485 204.682C113.515 201.776 114.119 198.904 115.26 196.231C116.401 193.557 118.058 191.135 120.136 189.102C122.213 187.07 124.671 185.466 127.369 184.384C130.067 183.301 132.952 182.761 135.859 182.794C136.315 182.799 136.771 182.814 137.225 182.842M119.798 151.727C119.76 151.688 119.722 151.649 119.683 151.61M80.6544 182.319C82.7537 184.47 83.914 187.365 83.8807 190.37C83.8475 193.375 82.6234 196.245 80.4771 198.348C77.7887 200.97 74.1703 202.419 70.4151 202.378C66.6599 202.337 63.0742 200.809 60.444 198.129C57.1644 194.768 55.3517 190.244 55.4036 185.549C55.4555 180.854 57.3676 176.371 60.7207 173.084C64.9184 168.98 70.5746 166.711 76.4453 166.776C82.3159 166.841 87.9203 169.235 92.0259 173.431C92.3522 173.765 92.6696 174.106 92.9779 174.455M102.66 140.109C102.66 140.049 102.661 139.989 102.661 139.929M53.3927 134.08C53.3553 137.084 52.1283 139.95 49.9808 142.051C47.8333 144.152 44.9403 145.316 41.9361 145.287C38.1782 145.25 34.5886 143.723 31.9553 141.042C29.322 138.361 27.86 134.745 27.8902 130.988C27.9482 126.295 29.8647 121.816 33.2196 118.534C36.5745 115.251 41.0942 113.432 45.7881 113.476C48.6946 113.507 51.5666 114.111 54.2398 115.252C56.913 116.394 59.3353 118.05 61.3681 120.128C63.401 122.205 65.0047 124.662 66.0876 127.359C67.1706 130.057 67.7116 132.94 67.6797 135.847C67.675 136.293 67.6593 136.74 67.633 137.185M98.7509 119.774C98.7918 119.734 98.8327 119.694 98.8736 119.654M68.1763 80.6575C66.0252 82.7564 63.1291 83.9166 60.1236 83.8833C57.118 83.8501 54.2484 82.6262 52.1442 80.4802C49.522 77.7922 48.0727 74.1743 48.114 70.4197C48.1552 66.6651 49.6836 63.0799 52.3641 60.4501C55.7248 57.1731 60.2479 55.3621 64.9419 55.414C69.6359 55.4658 74.1179 57.3763 77.4054 60.7267C79.4378 62.8054 81.0406 65.264 82.1224 67.9622C83.2041 70.6604 83.7436 73.5452 83.7101 76.4519C83.6765 79.3586 83.0704 82.2302 81.9266 84.9027C80.7827 87.5752 79.1235 89.9961 77.0437 92.0273C76.7157 92.3481 76.3802 92.6603 76.0375 92.9638M110.371 102.638C110.429 102.639 110.487 102.639 110.545 102.64M116.422 53.3431C114.929 53.332 113.454 53.0267 112.08 52.4447C110.705 51.8628 109.46 51.0156 108.413 49.9516C107.367 48.8876 106.541 47.6278 105.982 46.2442C105.423 44.8605 105.143 43.3803 105.157 41.8882C105.203 38.1333 106.737 34.5502 109.422 31.9243C112.107 29.2984 115.724 27.844 119.479 27.8799C124.174 27.9379 128.654 29.8551 131.938 33.211C135.221 36.567 137.039 41.0878 136.994 45.7822C136.93 51.6483 134.54 57.2493 130.349 61.3548C126.158 65.4603 120.508 67.7344 114.641 67.6777C114.189 67.6728 113.737 67.6569 113.286 67.6299M130.702 98.73C130.743 98.7721 130.784 98.8143 130.826 98.8563M169.831 68.16C167.731 66.0101 166.57 63.115 166.602 60.1099C166.634 57.1048 167.856 54.2351 170.002 52.1302C172.691 49.5072 176.312 48.0581 180.069 48.1006C183.826 48.1432 187.412 49.674 190.042 52.3572C193.319 55.7175 195.131 60.2399 195.079 64.9332C195.027 69.6265 193.116 74.1078 189.765 77.3948C185.567 81.4988 179.911 83.7677 174.041 83.7026C168.17 83.6374 162.566 81.2435 158.46 77.0473C158.137 76.7173 157.823 76.3797 157.518 76.0348M147.848 110.348C147.847 110.409 147.846 110.47 147.846 110.531M197.185 116.377C197.223 113.373 198.45 110.507 200.597 108.406C202.745 106.306 205.638 105.142 208.642 105.17C212.386 105.234 215.954 106.775 218.566 109.457C221.179 112.14 222.625 115.746 222.589 119.491C222.529 124.184 220.61 128.661 217.254 131.943C213.898 135.224 209.378 137.041 204.684 136.996C201.777 136.964 198.905 136.361 196.232 135.219C193.559 134.078 191.136 132.421 189.104 130.344C187.071 128.267 185.467 125.809 184.384 123.112C183.301 120.415 182.76 117.531 182.792 114.625C182.797 114.177 182.812 113.729 182.839 113.282M151.756 130.683C151.715 130.723 151.674 130.763 151.634 130.803M182.352 169.8C184.503 167.703 187.397 166.544 190.401 166.578C193.405 166.611 196.273 167.833 198.377 169.977C200.999 172.665 202.449 176.283 202.407 180.038C202.366 183.792 200.838 187.377 198.157 190.007C194.797 193.284 190.273 195.095 185.579 195.043C180.885 194.992 176.403 193.081 173.116 189.731C169.011 185.534 166.742 179.878 166.807 174.008C166.872 168.139 169.267 162.535 173.464 158.43C173.791 158.109 174.127 157.797 174.47 157.494M157.518 76.0348C155.42 73.6648 153.742 70.9497 152.56 68.0062C151.206 64.6343 150.53 61.0288 150.57 57.3957C150.611 53.7625 151.366 50.1729 152.794 46.8318C154.222 43.4907 156.294 40.4635 158.893 37.9234C160.08 36.7623 161.342 35.6952 162.667 34.7267M157.518 76.0348C155.121 80.1017 152.183 83.8709 148.75 87.2294C143.558 92.3083 137.452 96.2369 130.826 98.8563M162.667 34.7267C168.661 30.3456 175.948 27.9821 183.46 28.0649C192.633 28.166 201.39 31.9061 207.805 38.4624C215.815 46.6631 220.242 57.7065 220.116 69.1682C220.045 75.646 218.522 81.9581 215.733 87.6709M162.667 34.7267C162.425 34.0198 162.164 33.3184 161.885 32.6234C159.771 27.3553 156.639 22.5552 152.669 18.4973C148.698 14.4394 143.968 11.2032 138.746 8.97351C133.525 6.74378 127.916 5.56421 122.239 5.50214C117.697 5.45157 113.19 6.29595 108.975 7.98706C104.76 9.67816 100.919 12.1829 97.6723 15.3582C94.4254 18.5335 91.8358 22.3172 90.0515 26.4932C88.9171 29.1481 88.1223 31.9286 87.6809 34.7688M113.286 67.6299C110.116 67.4404 106.998 66.7062 104.071 65.4564C100.728 64.0289 97.6992 61.9566 95.1575 59.358C92.6158 56.7594 90.6112 53.6854 89.2584 50.3118C87.9055 46.9381 87.2309 43.331 87.273 39.6966C87.2912 38.0426 87.4281 36.3959 87.6809 34.7688M113.286 67.6299C114.474 72.2287 115.054 76.974 115.001 81.7437C114.923 88.8392 113.447 95.8497 110.659 102.375C110.621 102.463 110.583 102.552 110.545 102.64M87.6809 34.7688C81.9641 31.9765 75.6467 30.4519 69.1634 30.3805C57.7 30.2542 46.6549 34.6812 38.453 42.6897C31.8957 49.1036 28.1551 57.8592 28.054 67.0305C27.9711 74.5473 30.3386 81.8387 34.7269 87.8348M76.0375 92.9638C73.6656 95.0641 70.9478 96.7437 68.0012 97.9263C64.6289 99.2798 61.0228 99.9558 57.3891 99.9156C53.7554 99.8755 50.1652 99.1199 46.8236 97.6922C43.482 96.2644 40.4545 94.1925 37.9139 91.5946C36.7567 90.4117 35.6928 89.1546 34.7269 87.8348M76.0375 92.9638C80.1098 95.3611 83.884 98.302 87.2465 101.738C92.3248 106.927 96.2534 113.031 98.8736 119.654M34.7269 87.8348C28.7027 89.9017 23.1509 93.2925 18.5114 97.8304C10.3157 105.847 5.63672 116.787 5.50199 128.25C5.40361 137.421 8.95171 146.255 15.3662 152.811C20.6142 158.175 27.4293 161.654 34.7575 162.799M67.633 137.185C67.4451 140.359 66.7109 143.481 65.4595 146.412C64.0327 149.753 61.9613 152.781 59.3638 155.322C56.7663 157.863 53.6936 159.868 50.3211 161.221C46.9486 162.575 43.3424 163.251 39.7086 163.211C38.0406 163.192 36.3864 163.053 34.7575 162.799M67.633 137.185C72.2333 135.996 76.9802 135.416 81.7515 135.469C88.8506 135.548 95.8646 137.024 102.393 139.813C102.482 139.852 102.572 139.89 102.661 139.929M34.7575 162.799C31.9657 168.514 30.4413 174.829 30.3699 181.31C30.2435 192.772 34.6713 203.816 42.681 212.016C49.0958 218.573 57.8527 222.313 67.0254 222.414C74.5462 222.497 81.8415 220.128 87.8398 215.737M92.9779 174.455C95.0713 176.822 96.7459 179.533 97.9259 182.472C99.2796 185.844 99.9556 189.45 99.9155 193.083C99.8753 196.716 99.1196 200.306 97.6917 203.647C96.2637 206.988 94.1914 210.015 91.5932 212.555C90.4122 213.71 89.1573 214.772 87.8398 215.737M92.9779 174.455C95.3766 170.379 98.32 166.602 101.759 163.237C106.951 158.158 113.057 154.23 119.683 151.61M87.8398 215.737C89.903 221.768 93.2933 227.327 97.8336 231.973C105.847 240.173 116.789 244.858 128.254 244.998C132.801 245.049 137.313 244.204 141.532 242.511C145.752 240.818 149.596 238.31 152.845 235.13C156.095 231.95 158.685 228.161 160.469 223.98C161.603 221.321 162.397 218.537 162.837 215.694M162.837 215.694C163.089 214.065 163.224 212.416 163.241 210.761C163.282 207.126 162.605 203.52 161.25 200.147C159.896 196.774 157.89 193.701 155.347 191.104C152.804 188.506 149.774 186.436 146.43 185.01C143.506 183.763 140.392 183.03 137.225 182.842M162.837 215.694C168.551 218.483 174.864 220.005 181.344 220.077C192.807 220.203 203.852 215.776 212.054 207.768C218.611 201.354 222.352 192.598 222.453 183.427C222.536 175.909 220.168 168.617 215.779 162.621M137.225 182.842C136.034 178.238 135.454 173.488 135.506 168.714C135.585 161.618 137.06 154.608 139.848 148.082C139.885 147.996 139.922 147.911 139.959 147.825M174.47 157.494C176.842 155.393 179.559 153.714 182.506 152.531C185.878 151.178 189.484 150.502 193.118 150.542C196.752 150.582 200.342 151.337 203.684 152.765C207.025 154.193 210.053 156.265 212.593 158.863C213.75 160.045 214.813 161.301 215.779 162.621M174.47 157.494C170.397 155.096 166.623 152.155 163.261 148.719C158.182 143.53 154.254 137.426 151.634 130.803M215.779 162.621C221.802 160.553 227.353 157.162 231.991 152.624C240.185 144.608 244.863 133.669 244.998 122.207C245.046 117.665 244.198 113.159 242.504 108.944C240.81 104.73 238.302 100.891 235.123 97.6457C231.945 94.4006 228.158 91.8133 223.98 90.0314C221.334 88.903 218.563 88.1116 215.733 87.6709M182.839 113.282C183.027 110.109 183.762 106.988 185.013 104.058C186.44 100.716 188.512 97.6879 191.11 95.1467C193.709 92.6055 196.782 90.6011 200.156 89.248C203.529 87.8949 207.136 87.2197 210.77 87.2609C212.436 87.2782 214.094 87.4158 215.733 87.6709M182.839 113.282C178.273 114.459 173.534 115.043 168.737 114.989C161.476 114.907 154.382 113.365 147.846 110.531M139.959 147.825C132.953 147.773 126.076 149.082 119.683 151.61M139.959 147.825C142.72 141.454 146.684 135.675 151.634 130.803M119.683 151.61C114.812 146.658 109.033 142.693 102.661 139.929M102.661 139.929C102.713 132.923 101.403 126.047 98.8736 119.654M98.8736 119.654C103.821 114.784 107.784 109.008 110.545 102.64M110.545 102.64C117.552 102.693 124.431 101.384 130.826 98.8563M130.826 98.8563C135.743 103.853 141.534 107.795 147.846 110.531M147.846 110.531C147.795 117.536 149.105 124.411 151.634 130.803" stroke="black" stroke-width="2" stroke-linejoin="round"/>
</svg>
