<svg width="250" height="250" viewBox="0 0 250 250" fill="none" xmlns="http://www.w3.org/2000/svg">
<path d="M40.7934 86.8507C46.5848 76.7206 54.7734 70.0499 63.8004 66.4643C66.7471 56.2968 73.4934 46.8984 84.614 40.3971C68.1371 50.0297 51.0479 47.8529 38.3147 39.1051C47.8338 52.047 50.5719 69.7463 40.7934 86.8507Z" fill="#F9F9F9"/>
<path d="M92.1841 38.5911C103.435 35.5262 113.936 36.5983 122.852 40.4423C132.131 35.3228 143.563 33.4399 156.047 36.7118C137.566 31.865 127.018 18.2132 124.214 3C121.816 18.9148 111.231 33.4048 92.1841 38.5911Z" fill="#F9F9F9"/>
<path d="M209.139 84.6542C199.492 68.1447 201.693 51.0205 210.477 38.2771C197.53 47.852 179.793 50.6262 162.654 40.8228C172.776 46.6125 179.443 54.7977 183.029 63.8216C193.213 66.7612 202.629 73.5129 209.139 84.6542Z" fill="#F9F9F9"/>
<path d="M212.78 156.115C217.631 137.604 231.304 127.048 246.534 124.255C230.603 121.874 216.091 111.286 210.901 92.2141C213.967 103.471 212.892 113.978 209.044 122.898C214.167 132.182 216.052 143.621 212.78 156.115Z" fill="#F9F9F9"/>
<path d="M164.849 209.211C181.356 199.56 198.477 201.763 211.218 210.551C201.643 197.601 198.869 179.858 208.671 162.713C202.882 172.838 194.698 179.507 185.676 183.094C182.737 193.28 175.987 202.699 164.849 209.211Z" fill="#F9F9F9"/>
<path d="M93.4061 212.83C111.889 217.676 122.438 231.324 125.247 246.534C127.651 230.63 138.232 216.155 157.268 210.972C146.009 214.04 135.5 212.964 126.58 209.111C117.305 214.222 105.881 216.099 93.4061 212.83Z" fill="#F9F9F9"/>
<path d="M40.3249 164.909C49.9941 181.457 47.7608 198.622 38.9262 211.375C51.8779 201.764 69.6431 198.966 86.8088 208.785C76.6675 202.984 69.9942 194.779 66.4129 185.736C56.2376 182.793 46.8304 176.042 40.3249 164.909Z" fill="#F9F9F9"/>
<path d="M36.6719 93.4596C31.8331 111.936 18.1986 122.485 3 125.297C18.9035 127.699 33.3805 138.283 38.5634 157.328C35.5001 146.08 36.5699 135.581 40.4095 126.666C35.2887 117.384 33.4035 105.948 36.6719 93.4596Z" fill="#F9F9F9"/>
<path d="M101.098 67.8837C115.005 74.5645 125.484 88.2325 125.587 107.218C125.487 88.7501 135.142 75.0582 148.248 67.845C144.054 55.8945 134.901 45.6372 122.852 40.4423C112.226 46.305 104.424 56.4124 101.098 67.8837Z" fill="#F9F9F9"/>
<path d="M63.8004 66.4643C60.4215 78.1233 62.0388 90.7937 67.7858 101.266C82.3439 96.148 99.4203 98.396 112.919 111.748C99.7896 98.7613 96.9318 82.2525 101.098 67.8837C89.6931 62.405 75.9833 61.6251 63.8004 66.4643Z" fill="#F9F9F9"/>
<path d="M67.8629 148.428C74.5472 134.536 88.2016 124.073 107.161 123.97C88.6843 124.07 74.9902 114.395 67.7858 101.266C55.8448 105.465 45.5981 114.619 40.4095 126.666C46.2756 137.298 56.3878 145.104 67.8629 148.428Z" fill="#F9F9F9"/>
<path d="M101.213 181.721C96.1061 167.164 98.358 150.094 111.701 136.598C98.7216 149.726 82.2248 152.587 67.8629 148.428C62.3758 159.831 61.5855 173.545 66.4129 185.736C78.0747 189.109 90.7454 187.481 101.213 181.721Z" fill="#F9F9F9"/>
<path d="M148.353 181.676C134.45 174.995 123.973 161.332 123.866 142.356C123.97 160.82 114.318 174.509 101.213 181.721C105.403 193.663 114.545 203.914 126.58 209.111C137.212 203.253 145.02 193.148 148.353 181.676Z" fill="#F9F9F9"/>
<path d="M181.643 148.286C167.091 153.39 150.03 151.136 136.545 137.793C149.676 150.786 152.528 167.303 148.353 181.676C159.765 187.161 173.486 187.941 185.676 183.094C189.042 171.428 187.409 158.754 181.643 148.286Z" fill="#F9F9F9"/>
<path d="M181.614 101.148C174.934 115.059 161.27 125.541 142.29 125.648C160.745 125.544 174.428 135.188 181.643 148.286C193.59 144.096 203.846 134.945 209.044 122.898C203.181 112.275 193.079 104.475 181.614 101.148Z" fill="#F9F9F9"/>
<path d="M183.029 63.8216C171.373 60.4571 158.711 62.0868 148.248 67.845C153.357 82.403 151.105 99.4735 137.762 112.965C150.745 99.8375 167.249 96.9811 181.614 101.148C187.095 89.7345 187.874 76.0127 183.029 63.8216Z" fill="#F9F9F9"/>
<path d="M63.8004 66.4643C54.7734 70.0499 46.5848 76.7206 40.7934 86.8507C50.5719 69.7463 47.8338 52.047 38.3147 39.1051C51.0479 47.8529 68.1371 50.0297 84.614 40.3971C73.4934 46.8984 66.7471 56.2968 63.8004 66.4643ZM63.8004 66.4643C75.9833 61.6251 89.6931 62.405 101.098 67.8837M63.8004 66.4643C60.4215 78.1233 62.0388 90.7937 67.7858 101.266M122.852 40.4423C113.936 36.5983 103.435 35.5262 92.1841 38.5911C111.231 33.4048 121.816 18.9148 124.214 3C127.018 18.2132 137.566 31.865 156.047 36.7118C143.563 33.4399 132.131 35.3228 122.852 40.4423ZM122.852 40.4423C134.901 45.6372 144.054 55.8945 148.248 67.845M122.852 40.4423C112.226 46.305 104.424 56.4124 101.098 67.8837M183.029 63.8216C179.443 54.7977 172.776 46.6125 162.654 40.8228C179.793 50.6262 197.53 47.852 210.477 38.2771C201.693 51.0205 199.492 68.1447 209.139 84.6542C202.629 73.5129 193.213 66.7612 183.029 63.8216ZM183.029 63.8216C171.373 60.4571 158.711 62.0868 148.248 67.845M183.029 63.8216C187.874 76.0127 187.095 89.7345 181.614 101.148M209.044 122.898C212.892 113.978 213.967 103.471 210.901 92.2141C216.091 111.286 230.603 121.874 246.534 124.255C231.304 127.048 217.631 137.604 212.78 156.115C216.052 143.621 214.167 132.182 209.044 122.898ZM209.044 122.898C203.846 134.945 193.59 144.095 181.643 148.286M209.044 122.898C203.181 112.275 193.079 104.475 181.614 101.148M185.676 183.094C194.698 179.507 202.882 172.838 208.671 162.713C198.869 179.858 201.643 197.601 211.218 210.551C198.477 201.763 181.356 199.56 164.849 209.211C175.987 202.699 182.737 193.28 185.676 183.094ZM185.676 183.094C173.486 187.941 159.765 187.161 148.353 181.676M185.676 183.094C189.042 171.428 187.409 158.754 181.643 148.286M126.58 209.111C135.5 212.964 146.009 214.04 157.268 210.972C138.232 216.155 127.651 230.63 125.247 246.534C122.438 231.324 111.889 217.676 93.4061 212.83C105.881 216.099 117.305 214.222 126.58 209.111ZM126.58 209.111C114.545 203.914 105.403 193.663 101.213 181.721M126.58 209.111C137.212 203.253 145.02 193.148 148.353 181.676M66.4129 185.736C69.9942 194.779 76.6675 202.984 86.8088 208.785C69.6431 198.966 51.8779 201.764 38.9262 211.375C47.7608 198.622 49.9941 181.457 40.3249 164.909C46.8304 176.042 56.2376 182.793 66.4129 185.736ZM66.4129 185.736C61.5855 173.545 62.3758 159.831 67.8629 148.428M66.4129 185.736C78.0747 189.109 90.7454 187.481 101.213 181.721M40.4095 126.666C36.5699 135.581 35.5001 146.08 38.5634 157.328C33.3805 138.283 18.9035 127.699 3 125.297C18.1986 122.485 31.8331 111.936 36.6719 93.4596C33.4035 105.948 35.2887 117.384 40.4095 126.666ZM40.4095 126.666C45.5981 114.619 55.8448 105.465 67.7858 101.266M40.4095 126.666C46.2756 137.298 56.3878 145.104 67.8629 148.428M101.098 67.8837C115.005 74.5645 125.484 88.2325 125.587 107.218C125.487 88.7501 135.142 75.0582 148.248 67.845M101.098 67.8837C96.9318 82.2525 99.7896 98.7613 112.919 111.748C99.4203 98.396 82.3439 96.148 67.7858 101.266M148.248 67.845C153.357 82.403 151.105 99.4735 137.762 112.965C150.745 99.8375 167.249 96.9811 181.614 101.148M67.7858 101.266C74.9902 114.395 88.6843 124.07 107.161 123.97C88.2016 124.073 74.5472 134.536 67.8629 148.428M67.8629 148.428C82.2248 152.587 98.7216 149.726 111.701 136.598C98.358 150.094 96.1061 167.164 101.213 181.721M101.213 181.721C114.318 174.509 123.97 160.82 123.866 142.356C123.973 161.332 134.45 174.995 148.353 181.676M148.353 181.676C152.528 167.303 149.676 150.786 136.545 137.793C150.03 151.136 167.091 153.39 181.643 148.286M181.643 148.286C174.428 135.188 160.745 125.544 142.29 125.648C161.27 125.541 174.934 115.059 181.614 101.148" stroke="black" stroke-width="2" stroke-linejoin="round"/>
<path d="M125.587 107.218C125.484 88.2325 115.005 74.5645 101.098 67.8836C96.9317 82.2525 99.7895 98.7613 112.919 111.748C99.4202 98.396 82.3437 96.148 67.7856 101.266C74.99 114.395 88.6842 124.07 107.161 123.97C88.2015 124.073 74.5471 134.536 67.8627 148.428C82.2247 152.587 98.7215 149.726 111.7 136.598C98.3579 150.094 96.1059 167.164 101.213 181.721C114.318 174.509 123.97 160.82 123.866 142.356C123.973 161.332 134.449 174.995 148.353 181.676C152.528 167.303 149.676 150.786 136.545 137.793C150.03 151.136 167.091 153.39 181.643 148.286C174.428 135.188 160.744 125.544 142.29 125.648C161.27 125.541 174.933 115.059 181.613 101.148C167.249 96.9811 150.745 99.8375 137.762 112.965C151.105 99.4735 153.357 82.403 148.248 67.845C135.141 75.0582 125.487 88.7501 125.587 107.218Z" fill="#F9F9F9" stroke="black" stroke-width="2" stroke-linejoin="round"/>
</svg>
