<svg width="250" height="250" viewBox="0 0 250 250" fill="none" xmlns="http://www.w3.org/2000/svg">
<path d="M126.291 225.967C115.183 245.738 95.4042 242.283 79.9786 233.522C64.063 224.669 52.4938 210.566 46.6489 206.146C47.8345 204.87 49.4307 198.589 52.1821 190.144C50.1433 190.699 48.0638 191.135 45.9471 191.433C23.5544 195.087 13.9454 177.472 11.1472 159.978C8.15726 142.03 11.9781 124.203 11.7935 116.882L11.8006 116.883C13.541 117.002 19.4873 114.321 27.8373 111.199C26.115 109.943 24.4617 108.58 22.8938 107.099C6.06916 91.8897 13.8743 73.4027 25.8269 60.3214C38.014 46.7931 54.3486 38.6633 59.9592 33.9529L59.9652 33.9616C60.9665 35.4019 66.7319 38.3548 74.3468 42.9028C74.2585 40.791 74.2958 38.6661 74.4755 36.5354C75.896 13.9055 95.2205 8.47853 112.919 9.64905C131.1 10.7344 147.648 18.4243 154.821 19.8715L154.818 19.8795C154.311 21.5582 155.606 27.9378 156.798 36.7665C158.403 35.3724 160.097 34.0692 161.886 32.8746C180.479 19.8783 196.785 31.5905 206.891 46.1404C217.344 60.9747 221.648 78.5874 224.987 85.1663L225.03 85.2497C223.408 85.8818 219.246 90.8471 213.103 97.2578C215.183 97.6418 217.247 98.1509 219.285 98.7996C241.046 105.184 242.047 125.253 236.962 142.222C231.834 159.688 220.67 174.088 217.63 180.764C216.121 179.895 209.626 179.74 200.749 178.937C201.751 180.808 202.645 182.745 203.412 184.75C211.935 205.748 196.907 219.021 180.452 225.626C163.655 232.535 145.375 232.777 138.273 234.593C138.013 232.866 134.084 227.697 129.181 220.264C128.341 222.213 127.382 224.118 126.291 225.967Z" fill="#F9F9F9"/>
<path d="M121.476 137.433C121.718 138.18 121.934 138.931 122.126 139.685M121.476 137.433C121.574 137.969 121.734 138.545 121.948 139.177M121.476 137.433C121.695 137.934 121.858 138.525 121.948 139.177M46.6489 206.146C52.4938 210.566 64.063 224.669 79.9786 233.522C95.4042 242.283 115.183 245.738 126.291 225.967C127.382 224.118 128.341 222.213 129.181 220.264M46.6489 206.146C47.8345 204.87 49.4307 198.589 52.1821 190.144M46.6489 206.146C82.0094 220.953 131.486 176.462 122.126 139.685M11.7864 116.833C11.7911 116.849 11.7959 116.866 11.8006 116.883M112.223 132.439C111.835 133.025 111.431 133.597 111.013 134.155M59.9663 33.96L59.9652 33.9616M110.391 122.117C109.592 122.188 108.795 122.232 108.001 122.251M154.835 19.8786C154.829 19.8789 154.824 19.8792 154.818 19.8795M117.265 114.229C116.706 113.643 116.169 113.042 115.655 112.426M225.03 85.2142C225.016 85.1982 225.002 85.1823 224.987 85.1663M127.732 114.69C127.853 113.816 128.004 112.952 128.185 112.098M217.63 180.764C220.67 174.088 231.834 159.688 236.962 142.222C242.047 125.253 241.046 105.184 219.285 98.7996C217.247 98.1509 215.183 97.6418 213.103 97.2578M217.63 180.764C216.121 179.895 209.626 179.74 200.749 178.937M217.63 180.764C224.207 143.079 169.901 104.843 136.082 121.999M133.919 123.189C134.63 122.766 135.351 122.369 136.082 121.999M138.273 234.593C145.375 232.777 163.655 232.535 180.452 225.626C196.907 219.021 211.935 205.748 203.412 184.75C202.645 182.745 201.751 180.808 200.749 178.937M138.273 234.593C138.013 232.866 134.084 227.697 129.181 220.264M138.273 234.593C171.913 216.21 167.931 149.813 133.318 134.206M131.171 133.318C131.899 133.593 132.615 133.889 133.318 134.206M98.8807 154.008C104.742 153.349 109.983 152.55 113.6 150.848C120.676 148.306 122.445 142.794 121.948 139.177M98.8807 154.008C98.1133 155.058 97.295 156.148 96.421 157.276C87.3329 168.761 71.6022 184.86 52.1821 190.144M98.8807 154.008C106.041 144.203 108.772 137.735 111.013 134.155M52.1821 190.144C50.1433 190.699 48.0638 191.135 45.9471 191.433C23.5544 195.087 13.9454 177.472 11.1472 159.978C8.15726 142.03 11.9781 124.203 11.7935 116.882C11.7959 116.882 11.7982 116.883 11.8006 116.883M122.126 139.685C122.063 139.511 122.004 139.342 121.948 139.177M122.126 139.685C123.577 143.677 126.871 149.826 130.006 161.314M85.1552 125.107C89.3357 129.287 93.2358 132.893 96.833 134.66C103.238 138.604 108.654 136.545 111.176 133.899M85.1552 125.107C83.8635 125.161 82.5111 125.199 81.0948 125.217C66.4608 125.282 44.0821 123.043 27.8373 111.199M85.1552 125.107C97.031 124.614 103.781 122.786 108.001 122.251M27.8373 111.199C19.4873 114.321 13.541 117.002 11.8006 116.883M27.8373 111.199C26.115 109.943 24.4617 108.58 22.8938 107.099C6.06916 91.8897 13.8743 73.4027 25.8269 60.3214C38.014 46.7931 54.3486 38.6633 59.9592 33.9529C59.9612 33.9558 59.9632 33.9587 59.9652 33.9616M11.8006 116.883C22.3076 153.765 88.1959 164.612 111.013 134.155M111.013 134.155C111.068 134.068 111.122 133.982 111.176 133.899M111.176 133.899C111.629 133.423 111.989 132.928 112.244 132.446C111.887 132.856 111.537 133.339 111.176 133.899ZM99.2097 96.3974C98.5453 102.266 98.1543 107.559 99.0132 111.469C99.9114 118.892 104.848 121.867 108.504 122.192M99.2097 96.3974C98.36 95.4199 97.4846 94.3848 96.5841 93.2875C87.3945 81.8872 75.1868 62.9882 74.3468 42.9028M99.2097 96.3974C106.982 105.339 112.605 109.468 115.655 112.426M74.3468 42.9028C66.7319 38.3548 60.9665 35.4019 59.9652 33.9616M74.3468 42.9028C74.2585 40.791 74.2958 38.6661 74.4755 36.5354C75.8959 13.9055 95.2205 8.47853 112.919 9.64905C131.1 10.7344 147.648 18.4243 154.821 19.8715C154.82 19.8742 154.819 19.8768 154.818 19.8795M59.9652 33.9616C37.6579 65.0919 70.0368 123.132 108.001 122.251M108.001 122.251C108.173 122.229 108.34 122.209 108.504 122.192M108.504 122.192C109.184 122.253 109.819 122.222 110.376 122.11C109.815 122.087 109.195 122.119 108.504 122.192ZM130.465 89.4748C125.454 92.6157 121.064 95.6109 118.536 98.7215C113.262 104.081 114.067 109.817 116.088 112.857M130.465 89.4748C130.699 88.2143 130.961 86.8989 131.255 85.5264C134.467 71.2515 141.622 49.9503 156.798 36.7665M130.465 89.4748C128.344 100.916 128.565 107.843 128.185 112.098M156.798 36.7665C155.606 27.9378 154.311 21.5582 154.818 19.8795M156.798 36.7665C158.403 35.3724 160.097 34.0692 161.886 32.8746C180.479 19.8783 196.785 31.5905 206.891 46.1404C217.344 60.9747 221.648 78.5874 224.987 85.1663M154.818 19.8795C116.575 21.8833 91.3292 83.3169 115.655 112.426M115.655 112.426C115.806 112.573 115.95 112.716 116.088 112.857M116.088 112.857C116.451 113.402 116.852 113.861 117.265 114.215C116.946 113.778 116.553 113.331 116.088 112.857ZM155.314 109.591C149.75 107.643 144.687 106.09 140.687 106.056C133.189 105.273 129.205 109.5 128.093 112.978M155.314 109.591C156.47 108.974 157.688 108.344 158.975 107.703C172.144 101.283 193.309 93.6027 213.103 97.2578M155.314 109.591C144.91 115.151 139.641 119.686 136.082 121.999M213.103 97.2578C219.246 90.8471 223.408 85.8818 225.03 85.2497C225.016 85.2221 225.002 85.1943 224.987 85.1663M224.987 85.1663C199.601 56.6464 136.022 75.1337 128.185 112.098M128.185 112.098C128.158 112.405 128.127 112.698 128.093 112.978M128.093 112.978C127.895 113.594 127.788 114.188 127.768 114.725C127.908 114.208 128.012 113.629 128.093 112.978ZM155.149 141.544C153.197 135.966 151.251 131.024 148.783 127.871C144.732 121.545 138.956 121.05 135.538 122.342M155.149 141.544C156.332 142.054 157.561 142.605 158.84 143.2C172.066 149.488 191.263 161.231 200.749 178.937M155.149 141.544C144.222 136.827 137.348 135.556 133.318 134.206M136.082 121.999C135.896 122.119 135.715 122.234 135.538 122.342M135.538 122.342C134.924 122.575 134.386 122.865 133.947 123.189C134.445 122.974 134.97 122.69 135.538 122.342ZM129.181 220.264C137.134 201.808 134.342 179.501 131.021 165.256C130.686 163.876 130.347 162.564 130.006 161.314M133.318 134.206C133.135 134.145 132.958 134.083 132.787 134.021M132.787 134.021C135.929 135.881 139.142 140.698 136.732 147.819C135.806 151.716 133.155 156.315 130.006 161.314M132.787 134.021C132.165 133.796 131.618 133.565 131.142 133.311C131.667 133.451 132.226 133.689 132.787 134.021Z" stroke="black" stroke-width="2" stroke-linejoin="round"/>
<path d="M113.6 150.848C109.983 152.55 104.742 153.349 98.8808 154.007C98.1134 155.058 97.2952 156.147 96.4212 157.275C87.3331 168.76 71.6024 184.859 52.1822 190.144C49.4309 198.589 47.8347 204.869 46.649 206.146C82.0095 220.952 131.486 176.461 122.126 139.684C122.063 139.511 122.004 139.342 121.948 139.176C122.445 142.794 120.676 148.305 113.6 150.848Z" fill="#F9F9F9"/>
<path d="M96.8331 134.659C93.236 132.893 89.3358 129.286 85.1553 125.107C83.8636 125.16 82.5113 125.198 81.0949 125.217C66.461 125.281 44.0822 123.043 27.8375 111.199C19.4875 114.321 13.5412 117.001 11.8008 116.882C22.3077 153.764 88.1961 164.611 111.013 134.154C111.068 134.067 111.122 133.982 111.176 133.898C108.654 136.544 103.238 138.604 96.8331 134.659Z" fill="#F9F9F9"/>
<path d="M99.0133 111.469C98.1545 107.558 98.5454 102.266 99.2098 96.3968C98.3602 95.4193 97.4848 94.3842 96.5843 93.2869C87.3946 81.8866 75.187 62.9876 74.3469 42.9022C66.732 38.3542 60.9666 35.4013 59.9653 33.961C37.6581 65.0914 70.0369 123.131 108.001 122.25C108.173 122.228 108.34 122.209 108.504 122.192C104.849 121.866 99.9115 118.891 99.0133 111.469Z" fill="#F9F9F9"/>
<path d="M118.537 98.721C121.065 95.6103 125.454 92.6152 130.465 89.4742C130.699 88.2137 130.961 86.8984 131.255 85.5258C134.467 71.251 141.622 49.9498 156.798 36.7659C155.606 27.9373 154.311 21.5576 154.818 19.8789C116.575 21.8827 91.3294 83.3163 115.655 112.426C115.806 112.572 115.95 112.715 116.088 112.856C114.067 109.817 113.262 104.08 118.537 98.721Z" fill="#F9F9F9"/>
<path d="M140.687 106.056C144.687 106.089 149.75 107.642 155.315 109.591C156.47 108.973 157.688 108.343 158.975 107.702C172.144 101.282 193.309 93.6021 213.103 97.2572C219.246 90.8465 223.408 85.8812 225.03 85.2491C225.016 85.2215 225.002 85.1937 224.988 85.1657C199.601 56.6459 136.022 75.1332 128.185 112.098C128.158 112.405 128.128 112.697 128.093 112.977C129.206 109.499 133.189 105.273 140.687 106.056Z" fill="#F9F9F9"/>
<path d="M148.784 127.87C151.251 131.024 153.197 135.965 155.149 141.543C156.332 142.054 157.561 142.604 158.84 143.2C172.066 149.488 191.263 161.23 200.749 178.936C209.626 179.74 216.121 179.894 217.631 180.763C224.207 143.078 169.901 104.843 136.082 121.998C135.896 122.119 135.715 122.233 135.539 122.342C138.956 121.05 144.732 121.545 148.784 127.87Z" fill="#F9F9F9"/>
<path d="M131.021 165.256C134.342 179.501 137.134 201.807 129.181 220.264C134.084 227.696 138.014 232.865 138.273 234.592C171.913 216.209 167.931 149.813 133.319 134.206C133.136 134.144 132.958 134.083 132.787 134.021C135.929 135.881 139.142 140.698 136.732 147.818C135.806 151.715 133.155 156.314 130.006 161.314C130.347 162.563 130.686 163.876 131.021 165.256Z" fill="#F9F9F9"/>
<path d="M113.6 150.848C109.983 152.55 104.742 153.349 98.8808 154.007C98.1134 155.058 97.2952 156.147 96.4212 157.275C87.3331 168.76 71.6024 184.859 52.1822 190.144C49.4309 198.589 47.8347 204.869 46.649 206.146C82.0095 220.952 131.486 176.461 122.126 139.684C122.063 139.511 122.004 139.342 121.948 139.176C122.445 142.794 120.676 148.305 113.6 150.848Z" stroke="black" stroke-width="2" stroke-linejoin="round"/>
<path d="M96.8331 134.659C93.236 132.893 89.3358 129.286 85.1553 125.107C83.8636 125.16 82.5113 125.198 81.0949 125.217C66.461 125.281 44.0822 123.043 27.8375 111.199C19.4875 114.321 13.5412 117.001 11.8008 116.882C22.3077 153.764 88.1961 164.611 111.013 134.154C111.068 134.067 111.122 133.982 111.176 133.898C108.654 136.544 103.238 138.604 96.8331 134.659Z" stroke="black" stroke-width="2" stroke-linejoin="round"/>
<path d="M99.0133 111.469C98.1545 107.558 98.5454 102.266 99.2098 96.3968C98.3602 95.4193 97.4848 94.3842 96.5843 93.2869C87.3946 81.8866 75.187 62.9876 74.3469 42.9022C66.732 38.3542 60.9666 35.4013 59.9653 33.961C37.6581 65.0914 70.0369 123.131 108.001 122.25C108.173 122.228 108.34 122.209 108.504 122.192C104.849 121.866 99.9115 118.891 99.0133 111.469Z" stroke="black" stroke-width="2" stroke-linejoin="round"/>
<path d="M118.537 98.721C121.065 95.6103 125.454 92.6152 130.465 89.4742C130.699 88.2137 130.961 86.8984 131.255 85.5258C134.467 71.251 141.622 49.9498 156.798 36.7659C155.606 27.9373 154.311 21.5576 154.818 19.8789C116.575 21.8827 91.3294 83.3163 115.655 112.426C115.806 112.572 115.95 112.715 116.088 112.856C114.067 109.817 113.262 104.08 118.537 98.721Z" stroke="black" stroke-width="2" stroke-linejoin="round"/>
<path d="M140.687 106.056C144.687 106.089 149.75 107.642 155.315 109.591C156.47 108.973 157.688 108.343 158.975 107.702C172.144 101.282 193.309 93.6021 213.103 97.2572C219.246 90.8465 223.408 85.8812 225.03 85.2491C225.016 85.2215 225.002 85.1937 224.988 85.1657C199.601 56.6459 136.022 75.1332 128.185 112.098C128.158 112.405 128.128 112.697 128.093 112.977C129.206 109.499 133.189 105.273 140.687 106.056Z" stroke="black" stroke-width="2" stroke-linejoin="round"/>
<path d="M148.784 127.87C151.251 131.024 153.197 135.965 155.149 141.543C156.332 142.054 157.561 142.604 158.84 143.2C172.066 149.488 191.263 161.23 200.749 178.936C209.626 179.74 216.121 179.894 217.631 180.763C224.207 143.078 169.901 104.843 136.082 121.998C135.896 122.119 135.715 122.233 135.539 122.342C138.956 121.05 144.732 121.545 148.784 127.87Z" stroke="black" stroke-width="2" stroke-linejoin="round"/>
<path d="M131.021 165.256C134.342 179.501 137.134 201.807 129.181 220.264C134.084 227.696 138.014 232.865 138.273 234.592C171.913 216.209 167.931 149.813 133.319 134.206C133.136 134.144 132.958 134.083 132.787 134.021C135.929 135.881 139.142 140.698 136.732 147.818C135.806 151.715 133.155 156.314 130.006 161.314C130.347 162.563 130.686 163.876 131.021 165.256Z" stroke="black" stroke-width="2" stroke-linejoin="round"/>
</svg>
