<svg width="250" height="250" viewBox="0 0 250 250" fill="none" xmlns="http://www.w3.org/2000/svg">
<path d="M154.525 114.962C163.963 110.719 180.892 106.468 200.791 108.882C220.705 111.238 233.249 120.237 237.925 130.396C242.946 140.42 240.236 151.568 238.458 157.887C239.031 155.86 239.723 153.276 240.301 150.207C250.243 92.3062 163.607 65.933 141.707 124.673C141.567 125.057 141.431 125.432 141.299 125.797C142.266 123.804 144.647 119.39 154.525 114.962Z" fill="#F9F9F9"/>
<path d="M133.581 96.074C136.147 86.0144 143.389 70.1241 157.674 56.0421C171.93 41.9174 186.777 37.7028 197.608 40.344C208.365 42.6225 215.316 51.4081 219.186 56.7738C218.09 55.2495 216.721 53.4057 215.022 51.3881C176.327 6.76415 101.494 57.7358 132.754 111.467C133.11 112.055 133.455 112.619 133.787 113.16C132.871 111.188 130.874 106.561 133.581 96.074Z" fill="#F9F9F9"/>
<path d="M105.773 100.694C99.54 92.4287 91.6371 76.8375 89.5548 56.8678C87.4156 36.891 93.3854 22.6524 102.248 15.8179C110.928 8.65355 122.445 8.85305 128.978 9.18504C126.795 9.07096 123.977 8.96257 120.667 9.10378C62.4454 12.5865 56.1587 102.613 117.927 111.034C118.389 111.093 118.839 111.149 119.276 111.202C117.101 110.704 112.276 109.358 105.773 100.694Z" fill="#F9F9F9"/>
<path d="M92.0415 125.363C81.701 125.085 64.6088 121.554 47.7228 110.733C30.8083 99.9613 23.4029 86.3919 23.5806 75.2217C23.4029 63.9091 30.8083 54.9815 35.1293 50.0834C33.6531 51.7528 31.7689 53.9383 29.7717 56.6867C-3.70864 104.526 62.9012 165.627 107.956 122.029C108.193 121.798 108.424 121.57 108.65 121.348C106.923 122.729 102.858 125.669 92.0415 125.363Z" fill="#F9F9F9"/>
<path d="M102.773 151.491C96.0714 159.415 82.6536 170.606 63.6852 177.078C44.724 183.613 29.5223 180.958 20.9158 173.853C11.9753 166.926 9.62289 155.57 8.5 149.127C8.8627 151.228 9.36133 153.909 10.1866 156.996C26.3177 213.559 115.937 199.598 110.092 137.015C110.057 136.662 110.021 136.316 109.987 135.978C109.987 138.199 109.717 143.211 102.773 151.491Z" fill="#F9F9F9"/>
<path d="M129.793 159.408C131.818 169.567 132.195 187.052 125.422 205.947C118.699 224.841 107.143 235.122 96.1844 237.414C85.6991 239.984 75.748 235.284 69.9298 232.13C71.7389 233.112 73.9802 234.275 76.6423 235.429C130.71 257.713 175.436 179.096 123.156 144.704C122.826 144.491 122.503 144.282 122.189 144.08C123.916 145.468 127.661 148.779 129.793 159.408Z" fill="#F9F9F9"/>
<path d="M152.841 143.154C162.038 147.896 175.91 158.503 186.436 175.59C197.018 192.655 197.814 208.096 192.789 218.085C188.02 228.358 177.481 233.178 171.468 235.712C173.716 234.771 176.666 233.488 179.999 231.64C229.802 202.64 196.145 119.451 136.849 139.31C136.609 139.391 136.372 139.472 136.14 139.552C138.3 139.061 143.233 138.171 152.841 143.154Z" fill="#F9F9F9"/>
<path d="M122.189 144.08C123.916 145.468 127.661 148.779 129.793 159.408C131.818 169.567 132.195 187.052 125.422 205.947C118.699 224.841 107.143 235.122 96.1844 237.414C85.6991 239.984 75.748 235.284 69.9298 232.13M122.189 144.08C122.503 144.282 122.826 144.491 123.156 144.704M122.189 144.08C122.515 144.286 122.837 144.494 123.156 144.704M69.1994 231.74C71.6943 233.188 74.178 234.414 76.6423 235.429M109.987 135.978C109.987 138.199 109.717 143.211 102.773 151.491C96.0714 159.415 82.6536 170.606 63.6852 177.078C44.724 183.613 29.5223 180.958 20.9158 173.853C11.9753 166.926 9.62289 155.57 8.5 149.127M109.987 135.978C110.021 136.316 110.057 136.662 110.092 137.015M109.987 135.978C110.025 136.325 110.06 136.671 110.092 137.015M8.5 149.127C8.8627 151.228 9.36133 153.909 10.1866 156.996M8.5 149.127C8.91071 151.888 9.4777 154.51 10.1866 156.996M108.65 121.348C106.923 122.729 102.858 125.669 92.0415 125.363C81.701 125.085 64.6088 121.554 47.7228 110.733C30.8083 99.9613 23.4029 86.3919 23.5806 75.2217C23.4029 63.9091 30.8083 54.9815 35.1293 50.0834M108.65 121.348C108.424 121.57 108.193 121.798 107.956 122.029M108.65 121.348C108.42 121.578 108.188 121.805 107.956 122.029M35.1293 50.0834C33.6531 51.7528 31.7689 53.9383 29.7717 56.6867M35.1293 50.0834C33.1169 52.2476 31.3352 54.4526 29.7717 56.6867M129.069 9.1898C129.041 9.18834 129.012 9.18688 128.983 9.18542M129.041 9.1898C129.022 9.18833 129.003 9.18687 128.983 9.18542M119.262 111.202C118.813 111.151 118.369 111.095 117.927 111.034M219.504 57.2168C219.405 57.0785 219.304 56.9376 219.2 56.7941M219.504 57.2382C219.403 57.0894 219.302 56.9414 219.2 56.7941M133.787 113.182C133.431 112.61 133.087 112.039 132.754 111.467M141.299 125.797C142.266 123.804 144.647 119.39 154.525 114.962C163.963 110.719 180.892 106.468 200.791 108.882C220.705 111.238 233.249 120.237 237.925 130.396C242.946 140.42 240.236 151.568 238.458 157.887M141.299 125.797C141.431 125.432 141.567 125.057 141.707 124.673M141.299 125.797C141.433 125.419 141.568 125.045 141.707 124.673M238.408 158.062C238.424 158.007 238.439 157.952 238.455 157.896M238.408 158.048C238.424 157.997 238.44 157.947 238.455 157.896M136.14 139.552C138.3 139.061 143.233 138.171 152.841 143.154C162.038 147.896 175.91 158.503 186.436 175.59C197.018 192.655 197.814 208.096 192.789 218.085C188.02 228.358 177.481 233.178 171.468 235.712C173.716 234.771 176.666 233.488 179.999 231.64M136.14 139.552C136.372 139.472 136.609 139.391 136.849 139.31M136.14 139.552C136.377 139.469 136.613 139.389 136.849 139.31M171.518 235.712C174.578 234.517 177.402 233.152 179.999 231.64M238.455 157.896C238.456 157.893 238.457 157.89 238.458 157.887M238.458 157.887C239.031 155.86 239.723 153.276 240.301 150.207M238.458 157.887C239.262 155.271 239.872 152.709 240.301 150.207M240.301 150.207C250.243 92.3062 163.607 65.933 141.707 124.673M240.301 150.207C241.565 143.505 242.291 134.486 240.078 123.889C237.065 108.704 227.691 90.151 210.315 80.1199C192.938 70.0888 175.832 74.873 163.999 86.3422C152.303 97.1588 145.521 114.203 141.707 124.673M219.2 56.7941C219.196 56.7874 219.191 56.7806 219.186 56.7738M219.186 56.7738C218.09 55.2495 216.721 53.4057 215.022 51.3881M219.186 56.7738C217.853 54.8429 216.463 53.0493 215.022 51.3881M219.186 56.7738C215.316 51.4081 208.365 42.6225 197.608 40.344C186.777 37.7028 171.93 41.9174 157.674 56.0421C143.389 70.1241 136.147 86.0144 133.581 96.074C130.874 106.561 132.871 111.188 133.787 113.16C133.455 112.619 133.11 112.055 132.754 111.467M215.022 51.3881C176.327 6.76415 101.494 57.7358 132.754 111.467M215.022 51.3881C210.584 46.1169 203.889 39.6594 193.884 34.613C180.153 27.5008 159.827 23.2791 141.164 30.6333C122.502 37.9876 115.565 54.4047 117.143 70.7791C118.268 86.3221 126.946 101.884 132.754 111.467M128.983 9.18542C128.982 9.18529 128.98 9.18517 128.978 9.18504M128.978 9.18504C126.795 9.07096 123.977 8.96257 120.667 9.10378M128.978 9.18504C122.445 8.85305 110.928 8.65355 102.248 15.8179C93.3854 22.6524 87.4156 36.891 89.5548 56.8678C91.6371 76.8375 99.54 92.4287 105.773 100.694C112.276 109.358 117.101 110.704 119.276 111.202C118.839 111.149 118.389 111.093 117.927 111.034M128.978 9.18504C126.1 8.96624 123.329 8.94451 120.667 9.10378M120.667 9.10378C62.4454 12.5865 56.1587 102.613 117.927 111.034M120.667 9.10378C113.909 9.39202 105.1 10.7202 95.4464 15.1629C81.3392 21.4777 65.377 34.7695 59.4712 53.9702C53.5653 73.171 62.0226 88.8121 75.8171 97.8181C88.8812 106.784 106.87 109.636 117.927 111.034M29.7717 56.6867C-3.70864 104.526 62.9012 165.627 107.956 122.029M29.7717 56.6867C25.7983 62.1546 21.3777 69.8504 18.8332 80.1411C14.967 95.1273 15.3863 115.923 26.6934 132.511C38.0005 149.099 55.4764 152.224 71.1117 147.034C86.4393 142.34 100.025 129.798 107.956 122.029M10.1866 156.996C26.3177 213.559 115.937 199.598 110.092 137.015M10.1866 156.996C11.9487 163.586 15.2 172.029 21.797 180.63C31.1 193.011 47.6094 205.655 67.6011 207.136C87.5929 208.616 100.94 196.87 106.625 181.399C112.507 166.497 111.2 148.097 110.092 137.015M69.9298 232.13C71.7389 233.112 73.9802 234.275 76.6423 235.429M69.9298 232.13C69.6709 231.989 69.4203 231.852 69.1781 231.718C69.4197 231.851 69.6703 231.989 69.9298 232.13ZM76.6423 235.429C130.71 257.713 175.436 179.096 123.156 144.704M76.6423 235.429C82.8618 238.127 91.3783 240.778 102.048 240.974C117.498 241.415 137.632 236.382 151.277 221.645C164.922 206.908 164.07 189.131 155.541 175.027C147.606 161.178 132.502 150.756 123.156 144.704M179.999 231.64C229.802 202.64 196.145 119.451 136.849 139.31M179.999 231.64C185.796 228.426 192.751 223.506 199.185 215.714C209.192 203.896 217.827 184.98 214.821 165.117C211.814 145.254 197.437 134.86 181.091 132.724C165.145 130.274 147.352 135.738 136.849 139.31" stroke="black" stroke-width="2" stroke-linejoin="round"/>
<path d="M210.315 80.1197C192.938 70.0886 175.832 74.8727 163.999 86.3419C152.303 97.1585 145.521 114.202 141.707 124.673C163.607 65.9327 250.243 92.3059 240.301 150.207C241.565 143.504 242.291 134.486 240.078 123.889C237.065 108.704 227.691 90.1508 210.315 80.1197Z" fill="#F9F9F9"/>
<path d="M141.164 30.633C122.502 37.9873 115.565 54.4044 117.143 70.7788C118.268 86.3218 126.946 101.884 132.754 111.467C101.494 57.7355 176.327 6.76389 215.022 51.3878C210.584 46.1166 203.889 39.6592 193.883 34.6127C180.153 27.5005 159.827 23.2788 141.164 30.633Z" fill="#F9F9F9"/>
<path d="M59.4711 53.97C53.5652 73.1708 62.0225 88.8119 75.817 97.8178C88.8811 106.784 106.87 109.636 117.927 111.034C56.1586 102.613 62.4453 12.5862 120.667 9.10352C113.909 9.39175 105.1 10.72 95.4463 15.1626C81.3391 21.4775 65.3769 34.7692 59.4711 53.97Z" fill="#F9F9F9"/>
<path d="M26.6933 132.51C38.0004 149.098 55.4763 152.224 71.1116 147.034C86.4392 142.34 100.025 129.798 107.956 122.029C62.9011 165.626 -3.70874 104.525 29.7716 56.6864C25.7982 62.1544 21.3776 69.8501 18.8331 80.1409C14.9669 95.127 15.3862 115.922 26.6933 132.51Z" fill="#F9F9F9"/>
<path d="M67.601 207.135C87.5928 208.616 100.94 196.869 106.625 181.399C112.507 166.496 111.2 148.097 110.092 137.015C115.937 199.598 26.3176 213.559 10.1865 156.995C11.9486 163.586 15.1999 172.029 21.7969 180.63C31.0999 193.011 47.6093 205.655 67.601 207.135Z" fill="#F9F9F9"/>
<path d="M151.277 221.644C164.922 206.907 164.07 189.131 155.541 175.027C147.606 161.178 132.502 150.755 123.156 144.704C175.436 179.096 130.71 257.712 76.6423 235.429C82.8617 238.126 91.3782 240.777 102.047 240.973C117.498 241.415 137.632 236.381 151.277 221.644Z" fill="#F9F9F9"/>
<path d="M214.821 165.117C211.814 145.254 197.437 134.86 181.091 132.724C165.145 130.274 147.352 135.738 136.849 139.31C196.145 119.451 229.802 202.64 179.999 231.639C185.796 228.426 192.751 223.506 199.185 215.714C209.192 203.896 217.827 184.98 214.821 165.117Z" fill="#F9F9F9"/>
<path d="M210.315 80.1197C192.938 70.0886 175.832 74.8727 163.999 86.3419C152.303 97.1585 145.521 114.202 141.707 124.673C163.607 65.9327 250.243 92.3059 240.301 150.207C241.565 143.504 242.291 134.486 240.078 123.889C237.065 108.704 227.691 90.1508 210.315 80.1197Z" stroke="black" stroke-width="2" stroke-linejoin="round"/>
<path d="M141.164 30.633C122.502 37.9873 115.565 54.4044 117.143 70.7788C118.268 86.3218 126.946 101.884 132.754 111.467C101.494 57.7355 176.327 6.76389 215.022 51.3878C210.584 46.1166 203.889 39.6592 193.883 34.6127C180.153 27.5005 159.827 23.2788 141.164 30.633Z" stroke="black" stroke-width="2" stroke-linejoin="round"/>
<path d="M59.4711 53.97C53.5652 73.1708 62.0225 88.8119 75.817 97.8178C88.8811 106.784 106.87 109.636 117.927 111.034C56.1586 102.613 62.4453 12.5862 120.667 9.10352C113.909 9.39175 105.1 10.72 95.4463 15.1626C81.3391 21.4775 65.3769 34.7692 59.4711 53.97Z" stroke="black" stroke-width="2" stroke-linejoin="round"/>
<path d="M26.6933 132.51C38.0004 149.098 55.4763 152.224 71.1116 147.034C86.4392 142.34 100.025 129.798 107.956 122.029C62.9011 165.626 -3.70874 104.525 29.7716 56.6864C25.7982 62.1544 21.3776 69.8501 18.8331 80.1409C14.9669 95.127 15.3862 115.922 26.6933 132.51Z" stroke="black" stroke-width="2" stroke-linejoin="round"/>
<path d="M67.601 207.135C87.5928 208.616 100.94 196.869 106.625 181.399C112.507 166.496 111.2 148.097 110.092 137.015C115.937 199.598 26.3176 213.559 10.1865 156.995C11.9486 163.586 15.1999 172.029 21.7969 180.63C31.0999 193.011 47.6093 205.655 67.601 207.135Z" stroke="black" stroke-width="2" stroke-linejoin="round"/>
<path d="M151.277 221.644C164.922 206.907 164.07 189.131 155.541 175.027C147.606 161.178 132.502 150.755 123.156 144.704C175.436 179.096 130.71 257.712 76.6423 235.429C82.8617 238.126 91.3782 240.777 102.047 240.973C117.498 241.415 137.632 236.381 151.277 221.644Z" stroke="black" stroke-width="2" stroke-linejoin="round"/>
<path d="M214.821 165.117C211.814 145.254 197.437 134.86 181.091 132.724C165.145 130.274 147.352 135.738 136.849 139.31C196.145 119.451 229.802 202.64 179.999 231.639C185.796 228.426 192.751 223.506 199.185 215.714C209.192 203.896 217.827 184.98 214.821 165.117Z" stroke="black" stroke-width="2" stroke-linejoin="round"/>
</svg>
