<svg width="250" height="250" viewBox="0 0 250 250" fill="none" xmlns="http://www.w3.org/2000/svg">
<path d="M81.9677 176.688C94.1151 165.93 104.297 159.243 109.404 153.134C114.83 147.237 115.182 141.924 115.189 138.823C115.214 139.232 115.249 139.692 115.296 140.202C115.647 144.02 116.655 150.648 118.974 159.622C121.239 169.583 125.184 182.486 122.959 192.487C120.814 202.687 110.413 206.844 97.9141 211.818C85.5143 216.42 71.0357 221.838 63.0658 226.022C61.3456 224.335 58.4964 218.717 60.7479 209.321C62.7005 200.19 69.7871 187.247 81.9677 176.688Z" fill="#F9F9F9"/>
<path d="M56.9028 125.655C72.889 128.444 84.4653 132.236 92.4285 132.415C100.398 132.986 104.795 129.945 107.226 128.019L107.152 128.086L107.102 128.131C104.484 130.508 99.5287 135.688 93.3251 143.957C92.3803 145.14 91.4073 146.393 90.405 147.684L90.4036 147.686C84.6561 155.088 77.9456 163.73 70.0797 167.558C60.7815 172.239 51.0317 166.708 39.3558 160.034C28.0253 153.214 14.782 145.258 6.5 141.626C6.74574 139.235 9.36915 133.498 18.1161 129.394C26.5376 125.237 41.0494 122.72 56.9028 125.655Z" fill="#F9F9F9"/>
<path d="M81.1841 74.2629C88.9746 88.4939 93.2319 99.9357 98.047 106.244C102.543 112.783 107.588 114.347 110.627 115.061C107.158 114.494 99.9998 113.837 89.5923 114.133C88.0878 114.133 86.5118 114.154 84.8884 114.176H84.8883C75.5118 114.301 64.5554 114.447 56.6634 110.694C47.1926 106.337 45.4525 95.274 43.3803 81.986C41.6469 68.8773 39.5946 53.5373 37.29 44.7982C39.2825 43.4701 45.4326 41.9693 54.0932 46.2525C62.5744 50.2569 73.5994 60.0386 81.1841 74.2629Z" fill="#F9F9F9"/>
<path d="M136.515 61.1672C130.239 76.122 123.969 86.5678 122.023 94.2842C119.685 101.954 121.678 106.902 123.019 109.697L122.988 109.641C121.271 106.582 117.313 100.557 110.58 92.5975C104.23 84.6287 95.065 74.6677 92.7404 64.7067C90.2432 54.5863 97.8079 46.3319 106.907 36.4307C116.079 26.9013 126.792 15.7317 132.145 8.5L132.168 8.50795C134.457 9.29639 139.457 13.134 141.483 22.545C143.688 31.6494 142.911 46.3651 136.515 61.1672Z" fill="#F9F9F9"/>
<path d="M181.247 96.2699C165.639 100.693 153.558 102.3 146.312 105.567C138.86 108.549 136.237 113.197 134.882 115.973C134.914 115.895 134.946 115.816 134.978 115.738C136.316 112.426 138.51 105.642 140.501 95.5926C142.772 85.6316 144.824 72.3037 151.18 64.2552C157.536 55.9942 168.707 56.7579 182.13 57.7009C195.294 58.9361 210.689 60.3572 219.715 60.0318C220.531 62.2962 220.658 68.5982 214.561 76.0889C208.796 83.4734 196.801 92.0398 181.247 96.2699Z" fill="#F9F9F9"/>
<path d="M181.684 153.121C168.494 143.678 159.701 135.237 152.614 131.625C145.732 127.685 140.519 128.465 137.443 129.138L137.339 129.161C140.66 128.185 147.46 125.668 156.779 120.847C165.971 116.431 177.693 109.704 187.941 109.657C198.368 109.478 204.737 118.689 212.362 129.765C219.591 140.797 228.083 153.692 233.933 160.557L233.973 160.605C232.718 162.65 227.87 166.681 218.206 166.581C208.868 166.681 194.689 162.65 181.684 153.121Z" fill="#F9F9F9"/>
<path d="M137.505 188.901C136.668 172.697 137.784 160.565 136.176 152.769C134.954 144.888 131.057 141.298 128.63 139.346L128.592 139.315C131.441 141.307 137.638 145.052 147.188 149.329C156.373 153.758 168.939 158.732 175.368 166.714C182.01 174.749 178.775 185.467 174.87 198.337C170.755 210.852 165.975 225.496 164.264 234.359L164.244 234.462C161.859 234.755 155.683 233.48 149.739 225.863C143.848 218.618 138.162 205.018 137.505 188.901Z" fill="#F9F9F9"/>
<path d="M63.0658 226.022C71.0357 221.838 85.5143 216.42 97.9141 211.818C110.413 206.844 120.814 202.687 122.959 192.487C125.184 182.486 121.239 169.583 118.974 159.622C116.655 150.648 115.647 144.02 115.296 140.202M63.0658 226.022C61.3456 224.335 58.4964 218.717 60.7479 209.321C62.7005 200.19 69.7871 187.247 81.9677 176.688C94.1151 165.93 104.297 159.243 109.404 153.134C114.83 147.237 115.182 141.924 115.189 138.823C115.214 139.232 115.249 139.692 115.296 140.202M63.0658 226.022C94.5149 197.892 116.773 173.665 115.296 140.202M115.222 138.823C115.251 139.285 115.276 139.744 115.296 140.202M6.5 141.626C14.782 145.258 28.0253 153.214 39.3558 160.034C51.0317 166.708 60.7815 172.239 70.0797 167.558C77.9457 163.73 84.6561 155.088 90.4036 147.686C91.4064 146.394 92.3799 145.14 93.3251 143.957C99.5287 135.688 104.484 130.508 107.102 128.131M6.5 141.626C6.74574 139.235 9.36915 133.498 18.1161 129.394C26.5376 125.237 41.0494 122.72 56.9028 125.655C72.889 128.444 84.4653 132.236 92.4285 132.415C100.398 132.986 104.795 129.945 107.226 128.019C107.201 128.041 107.177 128.063 107.152 128.086C107.135 128.101 107.119 128.116 107.102 128.131M6.5 141.626C48.6053 148.759 81.734 151.008 107.102 128.131M110.627 115.061C107.588 114.347 102.543 112.783 98.047 106.244C93.2319 99.9357 88.9746 88.4939 81.1841 74.2629C73.5994 60.0386 62.5744 50.2569 54.0932 46.2525C45.4326 41.9693 39.2825 43.4701 37.29 44.7982M110.627 115.061C107.158 114.494 99.9998 113.837 89.5923 114.133C88.0878 114.133 86.5118 114.154 84.8884 114.176C75.5119 114.301 64.5554 114.447 56.6634 110.694C47.1926 106.337 45.4525 95.274 43.3803 81.986C41.6469 68.8773 39.5946 53.5373 37.29 44.7982M110.627 115.061C76.9321 109.479 57.9602 82.156 37.29 44.7982M132.145 8.5C126.792 15.7317 116.079 26.9013 106.907 36.4307C97.8079 46.3319 90.2432 54.5863 92.7404 64.7067C95.065 74.6677 104.23 84.6287 110.58 92.5975C117.313 100.557 121.27 106.582 122.988 109.641M132.145 8.5C132.153 8.50261 132.16 8.50526 132.168 8.50795M132.145 8.5L132.168 8.50795M132.171 8.5C132.17 8.50265 132.169 8.5053 132.168 8.50795M134.882 115.973C136.237 113.197 138.86 108.549 146.312 105.567C153.558 102.3 165.639 100.693 181.247 96.2699C196.801 92.0398 208.796 83.4734 214.561 76.0889C220.658 68.5982 220.531 62.2962 219.715 60.0318M134.882 115.973C134.913 115.897 134.945 115.819 134.978 115.738M134.882 115.973C134.914 115.895 134.946 115.816 134.978 115.738M219.715 60.0318C210.689 60.3572 195.294 58.9361 182.13 57.7009C168.707 56.7579 157.536 55.9942 151.18 64.2552C144.824 72.3037 142.772 85.6316 140.501 95.5926C138.51 105.642 136.317 112.426 134.978 115.738M219.715 60.0318C178.731 71.8628 147.925 84.1761 134.978 115.738M137.339 129.161C140.66 128.185 147.46 125.668 156.779 120.847C165.971 116.431 177.693 109.704 187.941 109.657C198.368 109.478 204.737 118.689 212.362 129.765C219.591 140.797 228.083 153.692 233.933 160.557M137.339 129.161C137.373 129.153 137.408 129.146 137.443 129.138M137.339 129.161L137.443 129.138M234 160.605C233.978 160.589 233.955 160.573 233.933 160.557M137.365 129.161C137.391 129.153 137.417 129.146 137.443 129.138M128.592 139.315C131.441 141.307 137.638 145.052 147.188 149.329C156.373 153.758 168.939 158.732 175.368 166.714C182.01 174.749 178.775 185.467 174.87 198.337C170.755 210.852 165.975 225.496 164.264 234.359M128.592 139.315C128.605 139.325 128.617 139.335 128.63 139.346M128.592 139.315L128.63 139.346M164.27 234.476C164.268 234.437 164.266 234.398 164.264 234.359M128.605 139.328C128.614 139.334 128.622 139.34 128.63 139.346M233.933 160.557C233.946 160.573 233.96 160.589 233.973 160.605C232.718 162.65 227.87 166.681 218.206 166.581C208.868 166.681 194.689 162.65 181.684 153.121C168.494 143.678 159.701 135.237 152.614 131.625C145.732 127.685 140.519 128.465 137.443 129.138M233.933 160.557C199.096 135.867 170.265 119.465 137.443 129.138M132.168 8.50795C134.457 9.29639 139.457 13.134 141.483 22.545C143.688 31.6494 142.911 46.3651 136.515 61.1672C130.239 76.122 123.969 86.5678 122.023 94.2842C119.685 101.954 121.678 106.902 123.019 109.697C123.009 109.679 122.998 109.66 122.988 109.641M132.168 8.50795C115.829 47.9982 106.282 79.7897 122.988 109.641M164.264 234.359C164.257 234.393 164.25 234.428 164.244 234.462C161.859 234.755 155.683 233.48 149.739 225.863C143.848 218.618 138.162 205.018 137.505 188.901C136.668 172.697 137.784 160.565 136.176 152.769C134.954 144.888 131.057 141.298 128.63 139.346M164.264 234.359C161.844 191.722 156.656 158.96 128.63 139.346" stroke="black" stroke-width="2" stroke-linejoin="round"/>
<path d="M156.779 120.847C147.46 125.668 140.66 128.185 137.339 129.161L137.443 129.138C170.265 119.465 199.096 135.867 233.933 160.557C228.083 153.692 219.591 140.797 212.362 129.765C204.737 118.689 198.368 109.478 187.941 109.657C177.693 109.704 165.971 116.431 156.779 120.847Z" fill="#F9F9F9"/>
<path d="M151.18 64.2552C144.824 72.3037 142.772 85.6316 140.501 95.5926C138.51 105.642 136.316 112.426 134.978 115.738C147.925 84.1761 178.731 71.8628 219.715 60.0318C210.689 60.3572 195.294 58.9361 182.13 57.7009C168.707 56.7579 157.536 55.9942 151.18 64.2552Z" fill="#F9F9F9"/>
<path d="M92.7404 64.7067C95.065 74.6677 104.23 84.6287 110.58 92.5975C117.313 100.557 121.271 106.582 122.988 109.641C106.282 79.7897 115.829 47.9982 132.168 8.50795L132.145 8.5C126.792 15.7317 116.079 26.9013 106.907 36.4307C97.8079 46.3319 90.2432 54.5863 92.7404 64.7067Z" fill="#F9F9F9"/>
<path d="M122.959 192.487C125.184 182.486 121.239 169.583 118.974 159.622C116.655 150.648 115.647 144.02 115.296 140.202C116.773 173.665 94.5149 197.892 63.0658 226.022C71.0357 221.838 85.5143 216.42 97.9141 211.818C110.413 206.844 120.814 202.687 122.959 192.487Z" fill="#F9F9F9"/>
<path d="M147.188 149.329C137.638 145.052 131.441 141.307 128.592 139.315L128.63 139.346C156.656 158.96 161.844 191.722 164.264 234.359C165.975 225.496 170.755 210.852 174.87 198.337C178.775 185.467 182.01 174.749 175.368 166.714C168.939 158.732 156.373 153.758 147.188 149.329Z" fill="#F9F9F9"/>
<path fill-rule="evenodd" clip-rule="evenodd" d="M89.5923 114.133C99.9998 113.837 107.158 114.494 110.627 115.061C76.9321 109.479 57.9602 82.156 37.29 44.7982C39.5946 53.5373 41.6469 68.8773 43.3803 81.986C45.4525 95.274 47.1926 106.337 56.6634 110.694C64.5555 114.447 75.5119 114.301 84.8884 114.176C86.5118 114.154 88.0878 114.133 89.5923 114.133Z" fill="#F9F9F9"/>
<path fill-rule="evenodd" clip-rule="evenodd" d="M93.3251 143.957C99.5287 135.688 104.484 130.508 107.102 128.131C81.734 151.008 48.6053 148.759 6.5 141.626C14.782 145.258 28.0253 153.214 39.3558 160.034C51.0317 166.708 60.7815 172.239 70.0797 167.558C77.9456 163.73 84.6561 155.088 90.4036 147.686C91.4064 146.394 92.3799 145.14 93.3251 143.957Z" fill="#F9F9F9"/>
<path d="M156.779 120.847C147.46 125.668 140.66 128.185 137.339 129.161L137.443 129.138C170.265 119.465 199.096 135.867 233.933 160.557C228.083 153.692 219.591 140.797 212.362 129.765C204.737 118.689 198.368 109.478 187.941 109.657C177.693 109.704 165.971 116.431 156.779 120.847Z" stroke="black" stroke-width="2" stroke-linejoin="round"/>
<path d="M151.18 64.2552C144.824 72.3037 142.772 85.6316 140.501 95.5926C138.51 105.642 136.316 112.426 134.978 115.738C147.925 84.1761 178.731 71.8628 219.715 60.0318C210.689 60.3572 195.294 58.9361 182.13 57.7009C168.707 56.7579 157.536 55.9942 151.18 64.2552Z" stroke="black" stroke-width="2" stroke-linejoin="round"/>
<path d="M92.7404 64.7067C95.065 74.6677 104.23 84.6287 110.58 92.5975C117.313 100.557 121.271 106.582 122.988 109.641C106.282 79.7897 115.829 47.9982 132.168 8.50795L132.145 8.5C126.792 15.7317 116.079 26.9013 106.907 36.4307C97.8079 46.3319 90.2432 54.5863 92.7404 64.7067Z" stroke="black" stroke-width="2" stroke-linejoin="round"/>
<path d="M122.959 192.487C125.184 182.486 121.239 169.583 118.974 159.622C116.655 150.648 115.647 144.02 115.296 140.202C116.773 173.665 94.5149 197.892 63.0658 226.022C71.0357 221.838 85.5143 216.42 97.9141 211.818C110.413 206.844 120.814 202.687 122.959 192.487Z" stroke="black" stroke-width="2" stroke-linejoin="round"/>
<path d="M147.188 149.329C137.638 145.052 131.441 141.307 128.592 139.315L128.63 139.346C156.656 158.96 161.844 191.722 164.264 234.359C165.975 225.496 170.755 210.852 174.87 198.337C178.775 185.467 182.01 174.749 175.368 166.714C168.939 158.732 156.373 153.758 147.188 149.329Z" stroke="black" stroke-width="2" stroke-linejoin="round"/>
<path fill-rule="evenodd" clip-rule="evenodd" d="M89.5923 114.133C99.9998 113.837 107.158 114.494 110.627 115.061C76.9321 109.479 57.9602 82.156 37.29 44.7982C39.5946 53.5373 41.6469 68.8773 43.3803 81.986C45.4525 95.274 47.1926 106.337 56.6634 110.694C64.5555 114.447 75.5119 114.301 84.8884 114.176C86.5118 114.154 88.0878 114.133 89.5923 114.133Z" stroke="black" stroke-width="2" stroke-linejoin="round"/>
<path fill-rule="evenodd" clip-rule="evenodd" d="M93.3251 143.957C99.5287 135.688 104.484 130.508 107.102 128.131C81.734 151.008 48.6053 148.759 6.5 141.626C14.782 145.258 28.0253 153.214 39.3558 160.034C51.0317 166.708 60.7815 172.239 70.0797 167.558C77.9456 163.73 84.6561 155.088 90.4036 147.686C91.4064 146.394 92.3799 145.14 93.3251 143.957Z" stroke="black" stroke-width="2" stroke-linejoin="round"/>
</svg>
