<svg width="250" height="250" viewBox="0 0 250 250" fill="none" xmlns="http://www.w3.org/2000/svg">
<path d="M152.48 127.044C159.956 131.2 168.985 138.454 179.239 145.778C189.536 153.109 198.887 156.34 207.839 155.877C216.638 155.604 225.03 151.637 230 149.086C200.373 134.794 168.675 125.285 136.08 120.912C141.888 121.888 147.455 123.97 152.48 127.044Z" fill="#F9F9F9"/>
<path d="M145.614 104.351C153.516 101.092 164.813 98.5406 176.923 95.0854C189.067 91.5952 197.424 86.2897 202.639 78.9939C207.917 71.9294 210.051 62.8884 211.157 57.4078C181.525 71.6912 154.334 90.5762 130.593 113.364C132.91 111.24 137.564 107.441 145.614 104.351Z" fill="#F9F9F9"/>
<path d="M123.607 95.5765C125.987 87.3555 131.048 76.9269 135.891 65.2858C140.742 53.6097 141.806 43.7558 139.37 35.1213C137.144 26.592 131.412 19.2822 127.828 15C127.825 15.0007 127.823 15.0015 127.82 15.0022C120.492 47.1015 118.286 80.1602 121.283 112.951C121.066 109.818 121.003 103.804 123.607 95.5765Z" fill="#F9F9F9"/>
<path d="M103.036 107.33C98.1016 100.342 93.111 89.8785 87.0494 78.8331C80.9458 67.7527 73.9182 60.7793 65.6518 57.3241C57.6135 53.7547 48.3676 53.6799 42.7656 53.8193C63.2589 79.559 87.6898 101.891 115.153 119.987C112.57 118.2 107.838 114.506 103.036 107.33Z" fill="#F9F9F9"/>
<path d="M99.3468 130.766C90.8423 130.268 79.5591 127.654 67.1489 125.517C54.7107 123.379 44.8834 124.536 37.0439 128.818C29.2324 132.883 23.3878 140.108 20.021 144.566C52.9061 144.573 85.5851 139.369 116.846 129.147C111.171 130.807 105.229 131.356 99.3468 130.766Z" fill="#F9F9F9"/>
<path d="M115.411 148.231C109.706 154.601 100.628 161.806 91.2206 170.181C81.7922 178.598 76.5636 187.009 74.9957 195.853C73.3018 204.488 75.2756 213.571 76.6755 218.981C76.687 218.983 76.6986 218.985 76.7101 218.987C97.001 193.506 113.178 165.001 124.654 134.509C123.344 137.572 120.748 142.539 115.411 148.231Z" fill="#F9F9F9"/>
<path d="M139.042 146.577C140.455 155.015 140.399 166.586 141.099 179.201C141.792 191.831 145.103 201.166 151.081 207.887C156.764 214.591 165.065 218.68 170.157 220.982C162.889 189.046 150.645 158.455 133.875 130.334C136.588 135.379 138.34 140.887 139.042 146.577Z" fill="#F9F9F9"/>
<path d="M76.7035 218.995C76.7057 218.993 76.7079 218.99 76.7101 218.987M125 133.583C124.885 133.892 124.77 134.2 124.654 134.509M116.846 129.147C111.171 130.807 105.229 131.356 99.3468 130.766C90.8423 130.268 79.5591 127.654 67.1489 125.517C54.7107 123.379 44.8834 124.536 37.0439 128.818C29.2324 132.883 23.3878 140.108 20.021 144.566M116.846 129.147C113.514 130.289 107.746 132.742 99.9697 137.95C92.1582 142.912 82.3869 150.628 69.9557 156.648C44.7574 170.056 25.6696 154.756 20.021 144.566M116.846 129.147C85.5785 139.371 52.8922 144.575 20 144.566M116.846 129.147C85.5851 139.369 52.9061 144.573 20.021 144.566M115.153 119.987C112.57 118.2 107.838 114.506 103.036 107.33C98.1016 100.342 93.111 89.8785 87.0494 78.8331C80.9458 67.7527 73.9182 60.7793 65.6518 57.3241C57.6135 53.7547 48.3676 53.6799 42.7656 53.8193M115.153 119.987C112.185 118.088 106.662 115.081 97.7587 112.278C89.0162 109.264 76.9 106.425 64.4409 100.447C38.2696 89.0795 38.3116 64.5989 42.7423 53.8199M115.153 119.987C87.6898 101.891 63.2589 79.559 42.7656 53.8193M42.7423 53.8199C42.7501 53.8197 42.7578 53.8195 42.7656 53.8193M42.7423 53.8199L42.7656 53.8193M42.7493 53.7988C42.7547 53.8056 42.7602 53.8125 42.7656 53.8193M121.283 112.951C121.066 109.818 121.003 103.804 123.607 95.5765C125.987 87.3555 131.048 76.9269 135.891 65.2858C140.742 53.6097 141.806 43.7558 139.37 35.1213C137.144 26.592 131.412 19.2822 127.828 15C127.825 15.0007 127.823 15.0015 127.82 15.0022M121.283 112.951C120.912 109.446 119.814 103.251 116.468 94.5182C113.346 85.7926 108.033 74.53 104.946 61.0597C97.5006 33.4875 116.634 18.2587 127.82 15.0022M121.283 112.951C118.286 80.1602 120.492 47.1015 127.82 15.0022M127.821 15L127.82 15.0022M130.593 113.364C132.91 111.24 137.564 107.441 145.614 104.351C153.516 101.092 164.813 98.5406 176.923 95.0854C189.067 91.5952 197.424 86.2897 202.639 78.9939C207.917 71.9294 210.051 62.8884 211.157 57.4078M130.593 113.364C133.099 110.89 137.256 106.159 141.988 98.099C146.888 90.2355 152.333 79.043 160.929 68.2149C177.812 45.192 201.645 50.6937 211.157 57.4078M130.593 113.364C154.334 90.5763 181.525 71.6912 211.157 57.4078M136.08 120.912C141.888 121.888 147.455 123.97 152.48 127.044C159.956 131.2 168.985 138.454 179.239 145.778C189.536 153.109 198.887 156.34 207.839 155.877C216.638 155.604 225.03 151.637 230 149.086M136.08 120.912C139.58 121.332 145.88 121.613 155.105 120.316C164.288 119.237 176.433 116.532 190.243 116.504C218.752 115.368 229.321 137.445 230 149.086M136.08 120.912C168.675 125.285 200.373 134.794 230 149.086M170.196 221C178.869 213.214 189.515 191.172 170.854 169.565C162.224 158.772 152.537 150.943 145.971 144.432C139.174 138.013 135.493 132.91 133.645 129.911C133.722 130.051 133.799 130.192 133.875 130.334M170.196 221C170.183 220.994 170.17 220.988 170.157 220.982M170.196 221L170.157 220.982M170.161 221C170.16 220.994 170.159 220.988 170.157 220.982M133.61 129.89C133.698 130.038 133.787 130.186 133.875 130.334M76.7101 218.987C76.6986 218.985 76.6871 218.983 76.6755 218.981C75.2756 213.571 73.3018 204.488 74.9957 195.853C76.5636 187.009 81.7922 178.598 91.2206 170.181C100.628 161.806 109.706 154.601 115.411 148.231C120.748 142.539 123.344 137.572 124.654 134.509M76.7101 218.987C97.001 193.506 113.178 165.001 124.654 134.509M76.7101 218.987C88.2374 220.912 112.042 215.491 117.273 187.443C120.325 173.952 120.395 161.491 121.389 152.289C122.159 142.967 123.852 136.905 125.035 133.583C124.922 133.868 124.795 134.177 124.654 134.509M170.157 220.982C165.065 218.68 156.764 214.591 151.081 207.887C145.103 201.166 141.792 191.831 141.099 179.201C140.399 166.586 140.455 155.015 139.042 146.577C138.34 140.887 136.588 135.379 133.875 130.334M170.157 220.982C162.889 189.046 150.645 158.455 133.875 130.334" stroke="black" stroke-width="2" stroke-linejoin="round"/>
<path d="M155.105 120.316C145.88 121.613 139.58 121.332 136.081 120.912C168.675 125.285 200.374 134.794 230 149.086C229.322 137.445 218.752 115.368 190.243 116.503C176.433 116.531 164.289 119.237 155.105 120.316Z" fill="#F9F9F9"/>
<path d="M141.988 98.0988C137.257 106.159 133.099 110.889 130.593 113.363C154.335 90.576 181.525 71.6909 211.158 57.4076C201.645 50.6935 177.812 45.1918 160.929 68.2147C152.334 79.0428 146.888 90.2353 141.988 98.0988Z" fill="#F9F9F9"/>
<path d="M116.468 94.518C119.814 103.251 120.913 109.446 121.284 112.95C118.286 80.16 120.493 47.1013 127.821 15.002C116.635 18.2585 97.5011 33.4873 104.947 61.0595C108.034 74.5298 113.346 85.7924 116.468 94.518Z" fill="#F9F9F9"/>
<path d="M97.7592 112.277C106.663 115.081 112.185 118.087 115.153 119.987C87.6903 101.891 63.2594 79.5588 42.7661 53.819L42.7428 53.8196C38.3121 64.5987 38.2701 89.0793 64.4414 100.447C76.9005 106.425 89.0167 109.264 97.7592 112.277Z" fill="#F9F9F9"/>
<path d="M99.9702 137.95C107.747 132.742 113.514 130.289 116.846 129.147C85.5856 139.369 52.9066 144.573 20.0215 144.566C25.6701 154.756 44.7579 170.055 69.9562 156.648C82.3874 150.628 92.1587 142.912 99.9702 137.95Z" fill="#F9F9F9"/>
<path d="M121.389 152.288C122.159 142.967 123.853 136.905 125.036 133.583C124.922 133.868 124.796 134.177 124.654 134.508C113.178 165 97.0015 193.506 76.7106 218.987C88.2379 220.912 112.043 215.491 117.273 187.443C120.325 173.952 120.395 161.49 121.389 152.288Z" fill="#F9F9F9"/>
<path d="M145.972 144.432C139.175 138.012 135.493 132.91 133.645 129.911C133.723 130.051 133.8 130.192 133.876 130.333C150.645 158.455 162.889 189.046 170.158 220.982L170.197 221C178.869 213.213 189.516 191.172 170.855 169.565C162.224 158.771 152.537 150.943 145.972 144.432Z" fill="#F9F9F9"/>
<path d="M155.105 120.316C145.88 121.613 139.58 121.332 136.081 120.912C168.675 125.285 200.374 134.794 230 149.086C229.322 137.445 218.752 115.368 190.243 116.503C176.433 116.531 164.289 119.237 155.105 120.316Z" stroke="black" stroke-width="2" stroke-linejoin="round"/>
<path d="M141.988 98.0988C137.257 106.159 133.099 110.889 130.593 113.363C154.335 90.576 181.525 71.6909 211.158 57.4076C201.645 50.6935 177.812 45.1918 160.929 68.2147C152.334 79.0428 146.888 90.2353 141.988 98.0988Z" stroke="black" stroke-width="2" stroke-linejoin="round"/>
<path d="M116.468 94.518C119.814 103.251 120.913 109.446 121.284 112.95C118.286 80.16 120.493 47.1013 127.821 15.002C116.635 18.2585 97.5011 33.4873 104.947 61.0595C108.034 74.5298 113.346 85.7924 116.468 94.518Z" stroke="black" stroke-width="2" stroke-linejoin="round"/>
<path d="M97.7592 112.277C106.663 115.081 112.185 118.087 115.153 119.987C87.6903 101.891 63.2594 79.5588 42.7661 53.819L42.7428 53.8196C38.3121 64.5987 38.2701 89.0793 64.4414 100.447C76.9005 106.425 89.0167 109.264 97.7592 112.277Z" stroke="black" stroke-width="2" stroke-linejoin="round"/>
<path d="M99.9702 137.95C107.747 132.742 113.514 130.289 116.846 129.147C85.5856 139.369 52.9066 144.573 20.0215 144.566C25.6701 154.756 44.7579 170.055 69.9562 156.648C82.3874 150.628 92.1587 142.912 99.9702 137.95Z" stroke="black" stroke-width="2" stroke-linejoin="round"/>
<path d="M121.389 152.288C122.159 142.967 123.853 136.905 125.036 133.583C124.922 133.868 124.796 134.177 124.654 134.508C113.178 165 97.0015 193.506 76.7106 218.987C88.2379 220.912 112.043 215.491 117.273 187.443C120.325 173.952 120.395 161.49 121.389 152.288Z" stroke="black" stroke-width="2" stroke-linejoin="round"/>
<path d="M145.972 144.432C139.175 138.012 135.493 132.91 133.645 129.911C133.723 130.051 133.8 130.192 133.876 130.333C150.645 158.455 162.889 189.046 170.158 220.982L170.197 221C178.869 213.213 189.516 191.172 170.855 169.565C162.224 158.771 152.537 150.943 145.972 144.432Z" stroke="black" stroke-width="2" stroke-linejoin="round"/>
</svg>
