<svg width="252" height="252" viewBox="0 0 252 252" fill="none" xmlns="http://www.w3.org/2000/svg">
<path d="M123.364 83.8084C124.298 83.7471 125.241 83.716 126.191 83.716C127.141 83.716 128.084 83.7472 129.019 83.8084L134.569 1H117.814L123.364 83.8084Z" fill="#F9F9F9"/>
<path d="M84.4591 117.749L3.58053 101.76L7.91696 85.5357L85.9765 112.242C85.3522 114.026 84.8434 115.865 84.4591 117.749Z" fill="#F9F9F9"/>
<path d="M88.0936 107.243L14.0168 70.7729L22.3941 56.227L90.9829 102.333C89.915 103.898 88.9488 105.538 88.0936 107.243Z" fill="#F9F9F9"/>
<path d="M94.3102 98.064C95.5676 96.6457 96.9182 95.3119 98.3525 94.0722L43.9449 31.6734L32.0976 43.5501L94.3102 98.064Z" fill="#F9F9F9"/>
<path d="M102.651 90.8069C104.221 89.7639 105.864 88.8222 107.571 87.9912L71.1006 13.5479L56.5907 21.946L102.651 90.8069Z" fill="#F9F9F9"/>
<path d="M112.555 85.9456L85.8269 7.43305L102.011 3.08589L118.027 84.4978C116.156 84.8609 114.33 85.3464 112.555 85.9456Z" fill="#F9F9F9"/>
<path d="M83.7149 123.139C83.6379 124.186 83.5988 125.243 83.5988 126.309C83.5988 127.166 83.6241 128.018 83.6741 128.864L1.5 134.398V117.602L83.7149 123.139Z" fill="#F9F9F9"/>
<path d="M84.3422 134.274C84.7012 136.171 85.1859 138.024 85.7875 139.823L7.91702 166.464L3.58059 150.24L84.3422 134.274Z" fill="#F9F9F9"/>
<path d="M87.8487 144.877C88.6877 146.607 89.6403 148.271 90.6967 149.86L22.3942 195.773L14.0169 181.227L87.8487 144.877Z" fill="#F9F9F9"/>
<path d="M94.0041 154.204C95.259 155.651 96.6099 157.012 98.0469 158.278L43.9449 220.327L32.0976 208.45L94.0041 154.204Z" fill="#F9F9F9"/>
<path d="M102.366 161.619C103.947 162.688 105.604 163.654 107.327 164.506L71.1007 238.452L56.5907 230.054L102.366 161.619Z" fill="#F9F9F9"/>
<path d="M112.367 166.608C114.163 167.224 116.014 167.723 117.91 168.097L102.011 248.914L85.8269 244.567L112.367 166.608Z" fill="#F9F9F9"/>
<path d="M123.323 168.806C124.271 168.869 125.227 168.901 126.191 168.901C127.155 168.901 128.112 168.869 129.06 168.806L134.569 251H117.814L123.323 168.806Z" fill="#F9F9F9"/>
<path d="M134.473 168.097C136.369 167.723 138.219 167.224 140.016 166.608L166.556 244.567L150.372 248.915L134.473 168.097Z" fill="#F9F9F9"/>
<path d="M145.056 164.506C146.779 163.654 148.435 162.688 150.017 161.619L195.792 230.054L181.282 238.452L145.056 164.506Z" fill="#F9F9F9"/>
<path d="M154.336 158.278C155.773 157.012 157.124 155.651 158.379 154.204L220.285 208.45L208.438 220.327L154.336 158.278Z" fill="#F9F9F9"/>
<path d="M161.686 149.86C162.742 148.271 163.695 146.607 164.534 144.877L238.366 181.227L229.988 195.773L161.686 149.86Z" fill="#F9F9F9"/>
<path d="M166.595 139.823C167.197 138.024 167.682 136.171 168.04 134.274L248.802 150.241L244.466 166.464L166.595 139.823Z" fill="#F9F9F9"/>
<path d="M168.709 128.864C168.759 128.018 168.784 127.166 168.784 126.309C168.784 125.243 168.745 124.186 168.668 123.139L250.883 117.602V134.398L168.709 128.864Z" fill="#F9F9F9"/>
<path d="M167.924 117.749C167.539 115.865 167.03 114.026 166.406 112.242L244.466 85.5358L248.802 101.76L167.924 117.749Z" fill="#F9F9F9"/>
<path d="M164.289 107.243C163.434 105.538 162.468 103.898 161.4 102.333L229.989 56.2271L238.366 70.773L164.289 107.243Z" fill="#F9F9F9"/>
<path d="M158.073 98.064C156.815 96.6457 155.464 95.3119 154.03 94.0722L208.438 31.6734L220.285 43.55L158.073 98.064Z" fill="#F9F9F9"/>
<path d="M149.732 90.8069C148.162 89.7639 146.519 88.8222 144.812 87.9912L181.282 13.5478L195.792 21.9459L149.732 90.8069Z" fill="#F9F9F9"/>
<path d="M139.827 85.9456C138.053 85.3464 136.226 84.8609 134.356 84.4978L150.372 3.08572L166.556 7.43289L139.827 85.9456Z" fill="#F9F9F9"/>
<path d="M123.364 83.8084C124.298 83.7471 125.241 83.716 126.191 83.716C127.141 83.716 128.084 83.7472 129.019 83.8084L134.569 1H117.814L123.364 83.8084Z" stroke="black" stroke-width="2" stroke-linejoin="round"/>
<path d="M84.4591 117.749L3.58053 101.76L7.91696 85.5357L85.9765 112.242C85.3522 114.026 84.8434 115.865 84.4591 117.749Z" stroke="black" stroke-width="2" stroke-linejoin="round"/>
<path d="M88.0936 107.243L14.0168 70.7729L22.3941 56.227L90.9829 102.333C89.915 103.898 88.9488 105.538 88.0936 107.243Z" stroke="black" stroke-width="2" stroke-linejoin="round"/>
<path d="M94.3102 98.064C95.5676 96.6457 96.9182 95.3119 98.3525 94.0722L43.9449 31.6734L32.0976 43.5501L94.3102 98.064Z" stroke="black" stroke-width="2" stroke-linejoin="round"/>
<path d="M102.651 90.8069C104.221 89.7639 105.864 88.8222 107.571 87.9912L71.1006 13.5479L56.5907 21.946L102.651 90.8069Z" stroke="black" stroke-width="2" stroke-linejoin="round"/>
<path d="M112.555 85.9456L85.8269 7.43305L102.011 3.08589L118.027 84.4978C116.156 84.8609 114.33 85.3464 112.555 85.9456Z" stroke="black" stroke-width="2" stroke-linejoin="round"/>
<path d="M83.7149 123.139C83.6379 124.186 83.5988 125.243 83.5988 126.309C83.5988 127.166 83.6241 128.018 83.6741 128.864L1.5 134.398V117.602L83.7149 123.139Z" stroke="black" stroke-width="2" stroke-linejoin="round"/>
<path d="M84.3422 134.274C84.7012 136.171 85.1859 138.024 85.7875 139.823L7.91702 166.464L3.58059 150.24L84.3422 134.274Z" stroke="black" stroke-width="2" stroke-linejoin="round"/>
<path d="M87.8487 144.877C88.6877 146.607 89.6403 148.271 90.6967 149.86L22.3942 195.773L14.0169 181.227L87.8487 144.877Z" stroke="black" stroke-width="2" stroke-linejoin="round"/>
<path d="M94.0041 154.204C95.259 155.651 96.6099 157.012 98.0469 158.278L43.9449 220.327L32.0976 208.45L94.0041 154.204Z" stroke="black" stroke-width="2" stroke-linejoin="round"/>
<path d="M102.366 161.619C103.947 162.688 105.604 163.654 107.327 164.506L71.1007 238.452L56.5907 230.054L102.366 161.619Z" stroke="black" stroke-width="2" stroke-linejoin="round"/>
<path d="M112.367 166.608C114.163 167.224 116.014 167.723 117.91 168.097L102.011 248.914L85.8269 244.567L112.367 166.608Z" stroke="black" stroke-width="2" stroke-linejoin="round"/>
<path d="M123.323 168.806C124.271 168.869 125.227 168.901 126.191 168.901C127.155 168.901 128.112 168.869 129.06 168.806L134.569 251H117.814L123.323 168.806Z" stroke="black" stroke-width="2" stroke-linejoin="round"/>
<path d="M134.473 168.097C136.369 167.723 138.219 167.224 140.016 166.608L166.556 244.567L150.372 248.915L134.473 168.097Z" stroke="black" stroke-width="2" stroke-linejoin="round"/>
<path d="M145.056 164.506C146.779 163.654 148.435 162.688 150.017 161.619L195.792 230.054L181.282 238.452L145.056 164.506Z" stroke="black" stroke-width="2" stroke-linejoin="round"/>
<path d="M154.336 158.278C155.773 157.012 157.124 155.651 158.379 154.204L220.285 208.45L208.438 220.327L154.336 158.278Z" stroke="black" stroke-width="2" stroke-linejoin="round"/>
<path d="M161.686 149.86C162.742 148.271 163.695 146.607 164.534 144.877L238.366 181.227L229.988 195.773L161.686 149.86Z" stroke="black" stroke-width="2" stroke-linejoin="round"/>
<path d="M166.595 139.823C167.197 138.024 167.682 136.171 168.04 134.274L248.802 150.241L244.466 166.464L166.595 139.823Z" stroke="black" stroke-width="2" stroke-linejoin="round"/>
<path d="M168.709 128.864C168.759 128.018 168.784 127.166 168.784 126.309C168.784 125.243 168.745 124.186 168.668 123.139L250.883 117.602V134.398L168.709 128.864Z" stroke="black" stroke-width="2" stroke-linejoin="round"/>
<path d="M167.924 117.749C167.539 115.865 167.03 114.026 166.406 112.242L244.466 85.5358L248.802 101.76L167.924 117.749Z" stroke="black" stroke-width="2" stroke-linejoin="round"/>
<path d="M164.289 107.243C163.434 105.538 162.468 103.898 161.4 102.333L229.989 56.2271L238.366 70.773L164.289 107.243Z" stroke="black" stroke-width="2" stroke-linejoin="round"/>
<path d="M158.073 98.064C156.815 96.6457 155.464 95.3119 154.03 94.0722L208.438 31.6734L220.285 43.55L158.073 98.064Z" stroke="black" stroke-width="2" stroke-linejoin="round"/>
<path d="M149.732 90.8069C148.162 89.7639 146.519 88.8222 144.812 87.9912L181.282 13.5478L195.792 21.9459L149.732 90.8069Z" stroke="black" stroke-width="2" stroke-linejoin="round"/>
<path d="M139.827 85.9456C138.053 85.3464 136.226 84.8609 134.356 84.4978L150.372 3.08572L166.556 7.43289L139.827 85.9456Z" stroke="black" stroke-width="2" stroke-linejoin="round"/>
</svg>
