<svg width="252" height="252" viewBox="0 0 252 252" fill="none" xmlns="http://www.w3.org/2000/svg">
<path d="M126.191 126L1.5 134.398L1.5 117.602L126.191 126Z" fill="#F9F9F9"/>
<path d="M126.191 126L250.883 117.602V134.398L126.191 126Z" fill="#F9F9F9"/>
<path d="M126.191 126L3.58053 101.76L7.91696 85.5357L126.191 126Z" fill="#F9F9F9"/>
<path d="M126.191 126L248.802 150.241L244.466 166.464L126.191 126Z" fill="#F9F9F9"/>
<path d="M126.191 126L14.0168 70.7729L22.3941 56.227L126.191 126Z" fill="#F9F9F9"/>
<path d="M126.191 126L238.366 181.227L229.988 195.773L126.191 126Z" fill="#F9F9F9"/>
<path d="M126.191 126L32.0976 43.5501L43.9449 31.6734L126.191 126Z" fill="#F9F9F9"/>
<path d="M126.191 126L220.285 208.45L208.438 220.327L126.191 126Z" fill="#F9F9F9"/>
<path d="M126.191 126L56.5907 21.946L71.1006 13.5479L126.191 126Z" fill="#F9F9F9"/>
<path d="M126.191 126L195.792 230.054L181.282 238.452L126.191 126Z" fill="#F9F9F9"/>
<path d="M126.191 126L85.8269 7.43305L102.011 3.08589L126.191 126Z" fill="#F9F9F9"/>
<path d="M126.191 126L166.556 244.567L150.372 248.915L126.191 126Z" fill="#F9F9F9"/>
<path d="M126.191 126L134.569 251H117.814L126.191 126Z" fill="#F9F9F9"/>
<path d="M126.191 126L117.814 1H134.569L126.191 126Z" fill="#F9F9F9"/>
<path d="M126.191 126L102.011 248.914L85.8269 244.567L126.191 126Z" fill="#F9F9F9"/>
<path d="M126.191 126L150.372 3.08572L166.556 7.43289L126.191 126Z" fill="#F9F9F9"/>
<path d="M126.191 126L71.1007 238.452L56.5907 230.054L126.191 126Z" fill="#F9F9F9"/>
<path d="M126.191 126L181.282 13.5478L195.792 21.9459L126.191 126Z" fill="#F9F9F9"/>
<path d="M126.191 126L43.9449 220.327L32.0976 208.45L126.191 126Z" fill="#F9F9F9"/>
<path d="M126.191 126L208.438 31.6734L220.285 43.55L126.191 126Z" fill="#F9F9F9"/>
<path d="M126.191 126L22.3942 195.773L14.0169 181.227L126.191 126Z" fill="#F9F9F9"/>
<path d="M126.191 126L229.989 56.2271L238.366 70.773L126.191 126Z" fill="#F9F9F9"/>
<path d="M126.191 126L7.91702 166.464L3.58059 150.24L126.191 126Z" fill="#F9F9F9"/>
<path d="M126.191 126L244.466 85.5358L248.802 101.76L126.191 126Z" fill="#F9F9F9"/>
<path d="M126.191 126L1.5 134.398L1.5 117.602L126.191 126ZM126.191 126L250.883 117.602V134.398L126.191 126ZM126.191 126L3.58053 101.76L7.91696 85.5357L126.191 126ZM126.191 126L248.802 150.241L244.466 166.464L126.191 126ZM126.191 126L14.0168 70.7729L22.3941 56.227L126.191 126ZM126.191 126L238.366 181.227L229.988 195.773L126.191 126ZM126.191 126L32.0976 43.5501L43.9449 31.6734L126.191 126ZM126.191 126L220.285 208.45L208.438 220.327L126.191 126ZM126.191 126L56.5907 21.946L71.1006 13.5479L126.191 126ZM126.191 126L195.792 230.054L181.282 238.452L126.191 126ZM126.191 126L85.8269 7.43305L102.011 3.08589L126.191 126ZM126.191 126L166.556 244.567L150.372 248.915L126.191 126ZM126.191 126L134.569 251H117.814L126.191 126ZM126.191 126L117.814 1H134.569L126.191 126ZM126.191 126L102.011 248.914L85.8269 244.567L126.191 126ZM126.191 126L150.372 3.08572L166.556 7.43289L126.191 126ZM126.191 126L71.1007 238.452L56.5907 230.054L126.191 126ZM126.191 126L181.282 13.5478L195.792 21.9459L126.191 126ZM126.191 126L43.9449 220.327L32.0976 208.45L126.191 126ZM126.191 126L208.438 31.6734L220.285 43.55L126.191 126ZM126.191 126L22.3942 195.773L14.0169 181.227L126.191 126ZM126.191 126L229.989 56.2271L238.366 70.773L126.191 126ZM126.191 126L7.91702 166.464L3.58059 150.24L126.191 126ZM126.191 126L244.466 85.5358L248.802 101.76L126.191 126Z" stroke="black" stroke-width="2" stroke-linejoin="round"/>
</svg>
