<svg width="252" height="251" viewBox="0 0 252 251" fill="none" xmlns="http://www.w3.org/2000/svg">
<path d="M251 125.021C216.512 125.021 205.518 170.694 235.81 188.027C205.518 170.694 171.453 202.978 188.774 232.611C171.453 202.978 126.468 215.108 126.646 249.359C126.468 215.108 80.8068 204.133 63.5915 234.205C80.8068 204.124 45.9127 171.564 15.4017 189.222C45.9127 171.564 35.4794 125.062 1 124.997C35.4794 124.997 48.9784 80.2823 19.5815 63.2096C48.9377 80.2823 80.636 45.6817 63.3557 15.4061C80.636 45.6817 126.468 35.2511 126.646 1C126.468 35.2511 172.535 45.2752 190.263 14.8207C172.535 45.2589 205.567 79.3718 235.883 61.9739C205.567 79.4043 216.529 125.062 251 125.021Z" fill="#F9F9F9"/>
<path d="M202.313 125.082C181.258 125.082 174.546 153.05 193.039 163.663C174.546 153.05 153.749 172.818 164.324 190.964C153.749 172.818 126.285 180.246 126.395 201.219C126.285 180.246 98.4094 173.525 87.8994 191.939C98.4094 173.52 77.1064 153.583 58.4793 164.395C77.1064 153.583 70.7369 125.107 49.6871 125.067C70.7369 125.067 78.9781 97.6874 61.0311 87.2332C78.9532 97.6874 98.3051 76.5002 87.7554 57.9614C98.3051 76.5002 126.285 70.1132 126.395 49.14C126.285 70.1132 154.41 76.2513 165.233 57.603C154.41 76.2413 174.576 97.1298 193.084 86.4765C174.576 97.1497 181.268 125.107 202.313 125.082Z" fill="#F9F9F9"/>
<path d="M251 125.021C216.512 125.021 205.518 170.694 235.81 188.027M251 125.021C216.529 125.062 205.567 79.4043 235.883 61.9739M251 125.021L1 124.997M235.81 188.027C205.518 170.694 171.453 202.978 188.774 232.611M235.81 188.027L19.5815 63.2096M188.774 232.611C171.453 202.978 126.468 215.108 126.646 249.359M188.774 232.611L63.3557 15.4061M126.646 249.359C126.468 215.108 80.8068 204.133 63.5915 234.205M126.646 249.359V1M63.5915 234.205C80.8068 204.124 45.9127 171.564 15.4017 189.222M63.5915 234.205L190.263 14.8207M15.4017 189.222C45.9127 171.564 35.4794 125.062 1 124.997M15.4017 189.222L235.883 61.9739M1 124.997C35.4794 124.997 48.9784 80.2823 19.5815 63.2096M19.5815 63.2096C48.9377 80.2823 80.636 45.6817 63.3557 15.4061M63.3557 15.4061C80.636 45.6817 126.468 35.2511 126.646 1M126.646 1C126.468 35.2511 172.535 45.2752 190.263 14.8207M190.263 14.8207C172.535 45.2589 205.567 79.3718 235.883 61.9739M202.313 125.082C181.258 125.082 174.546 153.05 193.039 163.663M202.313 125.082C181.268 125.107 174.576 97.1497 193.084 86.4765M202.313 125.082L49.6871 125.067M193.039 163.663C174.546 153.05 153.749 172.818 164.324 190.964M193.039 163.663L61.0311 87.2332M164.324 190.964C153.749 172.818 126.285 180.246 126.395 201.219M164.324 190.964L87.7554 57.9614M126.395 201.219C126.285 180.246 98.4094 173.525 87.8994 191.939M126.395 201.219V49.14M87.8994 191.939C98.4094 173.52 77.1064 153.583 58.4793 164.395M87.8994 191.939L165.233 57.603M58.4793 164.395C77.1064 153.583 70.7369 125.107 49.6871 125.067M58.4793 164.395L193.084 86.4765M49.6871 125.067C70.7369 125.067 78.9781 97.6874 61.0311 87.2332M61.0311 87.2332C78.9532 97.6874 98.3051 76.5002 87.7554 57.9614M87.7554 57.9614C98.3051 76.5002 126.285 70.1132 126.395 49.14M126.395 49.14C126.285 70.1132 154.41 76.2513 165.233 57.603M165.233 57.603C154.41 76.2413 174.576 97.1298 193.084 86.4765" stroke="black" stroke-width="2" stroke-linejoin="round"/>
</svg>
