<svg width="250" height="250" viewBox="0 0 250 250" fill="none" xmlns="http://www.w3.org/2000/svg">
<path d="M183.845 66.0251C183.845 98.586 157.449 124.982 124.888 124.982C92.327 124.982 65.9311 98.586 65.9311 66.0251C65.9311 33.4642 92.327 7.06836 124.888 7.06836C157.449 7.06836 183.845 33.4642 183.845 66.0251Z" fill="#F9F9F9"/>
<path d="M124.954 41.5769C147.978 64.6009 147.978 101.93 124.954 124.954C101.93 147.978 64.6002 147.978 41.5762 124.954C18.5522 101.93 18.5522 64.6009 41.5762 41.5769C64.6002 18.5529 101.93 18.5529 124.954 41.5769Z" fill="#F9F9F9"/>
<path d="M66.0256 65.9323C98.5865 65.9323 124.982 92.3282 124.982 124.889C124.982 157.45 98.5865 183.846 66.0256 183.846C33.4647 183.846 7.06885 157.45 7.06885 124.889C7.06885 92.3282 33.4647 65.9323 66.0256 65.9323Z" fill="#F9F9F9"/>
<path d="M183.75 65.9323C216.311 65.9323 242.707 92.3282 242.707 124.889C242.707 157.45 216.311 183.846 183.75 183.846C151.189 183.846 124.793 157.45 124.793 124.889C124.793 92.3282 151.189 65.9323 183.75 65.9323Z" fill="#F9F9F9"/>
<path d="M124.821 41.5766C147.845 18.5525 185.175 18.5525 208.199 41.5766C231.223 64.6006 231.223 101.93 208.199 124.954C185.175 147.978 147.845 147.978 124.821 124.954C101.797 101.93 101.797 64.6006 124.821 41.5766Z" fill="#F9F9F9"/>
<path d="M41.6888 124.689C64.713 101.665 102.043 101.665 125.067 124.689C148.091 147.713 148.091 185.043 125.067 208.067C102.043 231.091 64.713 231.091 41.6888 208.067C18.6646 185.043 18.6646 147.713 41.6888 124.689Z" fill="#F9F9F9"/>
<path d="M184 184.26C184 216.845 157.585 243.26 125 243.26C92.415 243.26 65.9998 216.845 65.9998 184.26C65.9998 151.675 92.415 125.26 125 125.26C157.585 125.26 184 151.675 184 184.26Z" fill="#F9F9F9"/>
<path d="M208.312 124.688C231.336 147.712 231.336 185.042 208.312 208.066C185.288 231.09 147.958 231.09 124.934 208.066C101.91 185.042 101.91 147.712 124.934 124.688C147.958 101.664 185.288 101.664 208.312 124.688Z" fill="#F9F9F9"/>
<path d="M183.845 66.0251C183.845 98.586 157.449 124.982 124.888 124.982C92.327 124.982 65.9311 98.586 65.9311 66.0251C65.9311 33.4642 92.327 7.06836 124.888 7.06836C157.449 7.06836 183.845 33.4642 183.845 66.0251Z" stroke="black" stroke-width="2" stroke-linejoin="round"/>
<path d="M124.954 41.5769C147.978 64.6009 147.978 101.93 124.954 124.954C101.93 147.978 64.6002 147.978 41.5762 124.954C18.5522 101.93 18.5522 64.6009 41.5762 41.5769C64.6002 18.5529 101.93 18.5529 124.954 41.5769Z" stroke="black" stroke-width="2" stroke-linejoin="round"/>
<path d="M66.0256 65.9323C98.5865 65.9323 124.982 92.3282 124.982 124.889C124.982 157.45 98.5865 183.846 66.0256 183.846C33.4647 183.846 7.06885 157.45 7.06885 124.889C7.06885 92.3282 33.4647 65.9323 66.0256 65.9323Z" stroke="black" stroke-width="2" stroke-linejoin="round"/>
<path d="M183.75 65.9323C216.311 65.9323 242.707 92.3282 242.707 124.889C242.707 157.45 216.311 183.846 183.75 183.846C151.189 183.846 124.793 157.45 124.793 124.889C124.793 92.3282 151.189 65.9323 183.75 65.9323Z" stroke="black" stroke-width="2" stroke-linejoin="round"/>
<path d="M124.821 41.5766C147.845 18.5525 185.175 18.5525 208.199 41.5766C231.223 64.6006 231.223 101.93 208.199 124.954C185.175 147.978 147.845 147.978 124.821 124.954C101.797 101.93 101.797 64.6006 124.821 41.5766Z" stroke="black" stroke-width="2" stroke-linejoin="round"/>
<path d="M41.6888 124.689C64.713 101.665 102.043 101.665 125.067 124.689C148.091 147.713 148.091 185.043 125.067 208.067C102.043 231.091 64.713 231.091 41.6888 208.067C18.6646 185.043 18.6646 147.713 41.6888 124.689Z" stroke="black" stroke-width="2" stroke-linejoin="round"/>
<path d="M184 184.26C184 216.845 157.585 243.26 125 243.26C92.415 243.26 65.9998 216.845 65.9998 184.26C65.9998 151.675 92.415 125.26 125 125.26C157.585 125.26 184 151.675 184 184.26Z" stroke="black" stroke-width="2" stroke-linejoin="round"/>
<path d="M208.312 124.688C231.336 147.712 231.336 185.042 208.312 208.066C185.288 231.09 147.958 231.09 124.934 208.066C101.91 185.042 101.91 147.712 124.934 124.688C147.958 101.664 185.288 101.664 208.312 124.688Z" stroke="black" stroke-width="2" stroke-linejoin="round"/>
</svg>
