<svg width="252" height="250" viewBox="0 0 252 250" fill="none" xmlns="http://www.w3.org/2000/svg">
<path d="M145.211 71.9998C148.307 68.7957 151.679 65.6439 155.301 62.5994C159.178 59.3403 163.127 56.3852 167.075 53.7536C167.877 41.1343 166.699 29.6657 163.901 20.7087C156.01 25.7687 147.749 33.7958 140.265 43.979C141.601 48.5369 142.729 53.3431 143.608 58.3364C144.412 62.9026 144.937 67.4882 145.211 71.9998Z" fill="#F9F9F9"/>
<path d="M132.222 56.3252C129.857 60.4269 127.765 64.5439 125.949 68.6156C128.755 75.0872 130.921 81.6 132.42 87.7862C135.883 82.5433 140.183 77.2026 145.211 71.9998C144.937 67.4882 144.412 62.9026 143.608 58.3364C142.729 53.3431 141.601 48.5369 140.265 43.979C137.454 47.8044 134.752 51.9342 132.222 56.3252Z" fill="#F9F9F9"/>
<path d="M126 14.0143C120.313 21.4726 115.29 31.846 111.735 43.9789C114.546 47.8044 117.248 51.9342 119.778 56.3252C122.093 60.3407 124.152 64.4697 125.949 68.6156C127.765 64.5439 129.857 60.4269 132.222 56.3252C134.752 51.9342 137.454 47.8044 140.265 43.979C136.71 31.8461 131.687 21.4726 126 14.0143Z" fill="#F9F9F9"/>
<path d="M140.265 43.979C147.749 33.7958 156.01 25.7687 163.901 20.7087C160.582 10.0841 154.984 2.99342 147.706 1.70792C140.428 0.422407 132.746 5.16751 126 14.0143C131.687 21.4726 136.71 31.8461 140.265 43.979Z" fill="#F9F9F9"/>
<path d="M197.231 39.9845C197.74 28.8636 194.9 20.2825 188.5 16.5811C182.1 12.8796 173.261 14.7067 163.901 20.7087C166.699 29.6657 167.877 41.1343 167.075 53.7536C177.584 46.7484 188.088 42.0358 197.231 39.9845Z" fill="#F9F9F9"/>
<path d="M104.294 1.70792C97.0159 2.99342 91.4176 10.0841 88.0989 20.7087C95.9898 25.7687 104.251 33.7958 111.735 43.9789C115.29 31.846 120.313 21.4726 126 14.0143C119.254 5.16751 111.572 0.422408 104.294 1.70792Z" fill="#F9F9F9"/>
<path d="M63.0695 72.1238C58.0074 60.5403 55.1983 49.3599 54.7692 39.9845C43.9243 37.5512 34.9949 38.8624 30.2445 44.5334C25.494 50.2044 25.7556 59.2408 30.031 69.5166C39.3227 68.312 50.8023 69.1416 63.0695 72.1238Z" fill="#F9F9F9"/>
<path d="M48.8043 96.8741C53.5173 96.348 58.4384 96.0693 63.5 96.0693C68.1288 96.0693 72.7283 96.3473 77.2111 96.8612C74.5988 93.2504 72.0857 89.3766 69.7215 85.2749C67.1907 80.8839 64.9711 76.4754 63.0695 72.1238C50.8023 69.1416 39.3227 68.312 30.031 69.5166C33.6353 78.1796 40.0924 87.7234 48.8043 96.8741Z" fill="#F9F9F9"/>
<path d="M8.53845 82.1935C6.0108 89.15 9.34194 97.5519 16.8681 105.743C25.1881 101.428 36.2587 98.2745 48.8043 96.8741C40.0924 87.7234 33.6353 78.1796 30.031 69.5166C19.0093 70.9456 11.0661 75.237 8.53845 82.1935Z" fill="#F9F9F9"/>
<path d="M70.5394 115.275C77.389 113.631 84.168 112.625 90.5102 112.22C85.957 107.894 81.4532 102.724 77.2111 96.8612C72.7283 96.3473 68.1288 96.0693 63.5 96.0693C58.4384 96.0693 53.5173 96.348 48.8043 96.8741C52.077 100.312 55.668 103.694 59.5454 106.953C63.1675 109.997 66.8517 112.777 70.5394 115.275Z" fill="#F9F9F9"/>
<path d="M43.85 125.019C48.0991 122.91 52.6283 120.962 57.3847 119.228C61.7344 117.642 66.1514 116.327 70.5394 115.275C66.8517 112.777 63.1675 109.997 59.5454 106.953C55.668 103.694 52.077 100.312 48.8043 96.8741C36.2587 98.2745 25.1881 101.428 16.8681 105.743C23.2129 112.649 32.5392 119.405 43.85 125.019Z" fill="#F9F9F9"/>
<path d="M88.2805 125.151C92.6842 123.219 96.9705 121.697 100.985 120.622C97.5285 118.364 94.0048 115.54 90.5102 112.22C84.168 112.625 77.389 113.631 70.5394 115.275C76.5275 119.331 82.5249 122.646 88.2805 125.151Z" fill="#F9F9F9"/>
<path d="M100.992 129.457C103.686 127.571 106.316 126.006 108.816 124.807C106.275 123.769 103.65 122.363 100.985 120.622C96.9705 121.697 92.6842 123.219 88.2805 125.151C92.698 127.074 96.9731 128.519 100.992 129.457Z" fill="#F9F9F9"/>
<path d="M70.5569 134.863C77.5689 136.623 84.3364 137.684 90.6003 138.066C94.0789 134.742 97.5868 131.842 100.992 129.457C96.9731 128.519 92.698 127.074 88.2805 125.151C82.459 127.704 76.4323 130.972 70.5569 134.863Z" fill="#F9F9F9"/>
<path d="M70.5394 115.275C66.1514 116.327 61.7344 117.642 57.3847 119.228C52.6283 120.962 48.0991 122.91 43.85 125.019C48.0991 127.128 52.6283 129.076 57.3847 130.81C61.8278 132.43 66.2387 133.779 70.5569 134.863C76.4323 130.972 82.459 127.704 88.2805 125.151C82.5249 122.646 76.5275 119.331 70.5394 115.275Z" fill="#F9F9F9"/>
<path d="M16.868 144.295C25.1881 148.61 36.2587 151.763 48.8043 153.164C52.077 149.726 55.668 146.344 59.5454 143.085C63.0913 140.105 66.7931 137.356 70.5569 134.863C66.2387 133.779 61.8278 132.43 57.3847 130.81C52.6283 129.076 48.0991 127.128 43.85 125.019C32.5392 130.633 23.2129 137.389 16.868 144.295Z" fill="#F9F9F9"/>
<path d="M63.5 153.969C68.2283 153.969 72.8339 153.725 77.2618 153.265C81.4542 147.595 86.0017 142.46 90.6003 138.066C84.3364 137.684 77.5689 136.623 70.5569 134.863C66.7931 137.356 63.0913 140.105 59.5454 143.085C55.668 146.344 52.077 149.726 48.8043 153.164C53.5172 153.69 58.4383 153.969 63.5 153.969Z" fill="#F9F9F9"/>
<path d="M16.8681 105.743C6.99898 110.862 1 117.616 1 125.019C1 132.422 6.99897 139.176 16.868 144.295C23.2129 137.389 32.5392 130.633 43.85 125.019C32.5392 119.405 23.2129 112.649 16.8681 105.743Z" fill="#F9F9F9"/>
<path d="M8.53843 167.844C11.0661 174.801 19.0093 179.092 30.031 180.521C33.6353 171.858 40.0924 162.315 48.8043 153.164C36.2587 151.763 25.1881 148.61 16.868 144.295C9.34192 152.486 6.01079 160.888 8.53843 167.844Z" fill="#F9F9F9"/>
<path d="M63.0695 177.914C64.9711 173.563 67.1907 169.154 69.7215 164.763C72.036 160.748 74.576 156.897 77.2618 153.265C72.8339 153.725 68.2283 153.969 63.5 153.969C58.4383 153.969 53.5172 153.69 48.8043 153.164C40.0924 162.315 33.6353 171.858 30.031 180.521C39.3227 181.726 50.8023 180.896 63.0695 177.914Z" fill="#F9F9F9"/>
<path d="M30.2444 205.505C34.9949 211.176 43.9243 212.487 54.7692 210.053C55.1983 200.678 58.0074 189.498 63.0695 177.914C50.8023 180.896 39.3227 181.726 30.031 180.521C25.7556 190.797 25.494 199.834 30.2444 205.505Z" fill="#F9F9F9"/>
<path d="M111.735 206.059C104.251 216.242 95.9898 224.269 88.0989 229.329C91.4176 239.954 97.0159 247.045 104.294 248.33C111.572 249.616 119.254 244.87 126 236.024C120.313 228.565 115.29 218.192 111.735 206.059Z" fill="#F9F9F9"/>
<path d="M126.051 181.422C124.235 185.494 122.143 189.611 119.778 193.713C117.248 198.104 114.546 202.234 111.735 206.059C115.29 218.192 120.313 228.565 126 236.024C131.687 228.565 136.71 218.192 140.265 206.059C137.454 202.234 134.752 198.104 132.222 193.713C129.907 189.697 127.848 185.568 126.051 181.422Z" fill="#F9F9F9"/>
<path d="M143.608 191.702C144.429 187.037 144.99 182.452 145.306 178.003C140.46 172.883 136.201 167.505 132.68 162.206C131.216 168.319 128.999 174.811 126.051 181.422C127.848 185.568 129.907 189.697 132.222 193.713C134.752 198.104 137.454 202.234 140.265 206.059C141.601 201.501 142.729 196.695 143.608 191.702Z" fill="#F9F9F9"/>
<path d="M147.706 248.33C154.984 247.045 160.582 239.954 163.901 229.329C156.01 224.269 147.749 216.242 140.265 206.059C136.71 218.192 131.687 228.565 126 236.024C132.746 244.87 140.428 249.616 147.706 248.33Z" fill="#F9F9F9"/>
<path d="M167.075 196.284C163.127 193.653 159.178 190.698 155.301 187.439C151.755 184.458 148.41 181.284 145.306 178.003C144.99 182.452 144.429 187.037 143.608 191.702C142.729 196.695 141.601 201.501 140.265 206.059C147.749 216.242 156.01 224.269 163.901 229.329C166.699 220.372 167.877 208.904 167.075 196.284Z" fill="#F9F9F9"/>
<path d="M188.5 233.457C194.9 229.755 197.74 221.174 197.231 210.053C188.088 208.002 177.584 203.29 167.075 196.284C167.877 208.904 166.699 220.372 163.901 229.329C173.261 235.331 182.1 237.158 188.5 233.457Z" fill="#F9F9F9"/>
<path d="M203.196 153.164C211.908 162.315 218.365 171.858 221.969 180.521C232.991 179.092 240.934 174.801 243.462 167.844C245.989 160.888 242.658 152.486 235.132 144.295C226.812 148.61 215.741 151.763 203.196 153.164Z" fill="#F9F9F9"/>
<path d="M181.461 134.763C185.148 137.261 188.833 140.041 192.455 143.085C196.332 146.344 199.923 149.726 203.196 153.164C215.741 151.763 226.812 148.61 235.132 144.295C228.787 137.389 219.461 130.633 208.15 125.019C203.901 127.128 199.372 129.076 194.615 130.81C190.266 132.396 185.849 133.71 181.461 134.763Z" fill="#F9F9F9"/>
<path d="M251 125.019C251 117.616 245.001 110.862 235.132 105.743C228.787 112.649 219.461 119.405 208.15 125.019C219.461 130.633 228.787 137.389 235.132 144.295C245.001 139.176 251 132.422 251 125.019Z" fill="#F9F9F9"/>
<path d="M194.615 119.228C190.172 117.608 185.761 116.259 181.443 115.175C175.568 119.066 169.541 122.334 163.72 124.887C169.475 127.392 175.473 130.707 181.461 134.763C185.849 133.71 190.266 132.396 194.615 130.81C199.372 129.076 203.901 127.128 208.15 125.019C203.901 122.91 199.372 120.962 194.615 119.228Z" fill="#F9F9F9"/>
<path d="M203.196 96.874C199.923 100.312 196.332 103.694 192.455 106.953C188.909 109.933 185.207 112.682 181.443 115.175C185.761 116.259 190.172 117.608 194.615 119.228C199.372 120.962 203.901 122.91 208.15 125.019C219.461 119.405 228.787 112.649 235.132 105.743C226.812 101.428 215.741 98.2745 203.196 96.874Z" fill="#F9F9F9"/>
<path d="M243.462 82.1935C240.934 75.237 232.991 70.9456 221.969 69.5166C218.365 78.1796 211.908 87.7234 203.196 96.874C215.741 98.2745 226.812 101.428 235.132 105.743C242.658 97.5519 245.989 89.15 243.462 82.1935Z" fill="#F9F9F9"/>
<path d="M167.075 53.7536C166.774 58.4942 166.193 63.3972 165.314 68.3905C164.511 72.9568 163.439 77.4458 162.155 81.7788C166.158 79.8288 170.403 78.0223 174.846 76.4024C179.603 74.6683 184.322 73.2441 188.931 72.1238C193.993 60.5403 196.802 49.3598 197.231 39.9845C188.088 42.0358 177.584 46.7484 167.075 53.7536Z" fill="#F9F9F9"/>
<path d="M188.5 96.0693C193.562 96.0693 198.483 96.348 203.196 96.874C211.908 87.7234 218.365 78.1796 221.969 69.5166C212.677 68.312 201.198 69.1416 188.931 72.1238C187.029 76.4754 184.809 80.8838 182.278 85.2749C179.964 89.2904 177.424 93.1414 174.738 96.7733C179.166 96.3124 183.772 96.0693 188.5 96.0693Z" fill="#F9F9F9"/>
<path d="M111.735 43.9789C104.251 33.7958 95.9898 25.7687 88.0989 20.7087C85.301 29.6657 84.1233 41.1343 84.925 53.7536C88.8729 56.3852 92.8216 59.3403 96.699 62.5994C100.245 65.5798 103.59 68.7543 106.694 72.0345C107.01 67.5864 107.571 63.0007 108.392 58.3364C109.271 53.3431 110.399 48.5369 111.735 43.9789Z" fill="#F9F9F9"/>
<path d="M54.7692 39.9845C55.1983 49.3599 58.0074 60.5403 63.0695 72.1238C67.6778 73.2442 72.3973 74.6683 77.1537 76.4024C81.5034 77.9883 85.7305 79.8253 89.7676 81.8441C88.5456 77.556 87.5067 73.0549 86.6857 68.3905C85.8067 63.3972 85.2262 58.4942 84.925 53.7536C74.4159 46.7484 63.9119 42.0358 54.7692 39.9845Z" fill="#F9F9F9"/>
<path d="M77.1537 173.636C72.3973 175.37 67.6778 176.794 63.0695 177.914C58.0074 189.498 55.1983 200.678 54.7692 210.053C63.9119 208.002 74.4159 203.29 84.925 196.284C85.2262 191.544 85.8067 186.641 86.6857 181.647C87.4895 177.081 88.5614 172.592 89.8451 168.259C85.8417 170.209 81.5968 172.016 77.1537 173.636Z" fill="#F9F9F9"/>
<path d="M88.0989 229.329C95.9898 224.269 104.251 216.242 111.735 206.059C110.399 201.501 109.271 196.695 108.392 191.702C107.588 187.135 107.063 182.55 106.789 178.038C103.693 181.242 100.321 184.394 96.699 187.439C92.8216 190.698 88.8729 193.653 84.925 196.284C84.1233 208.904 85.301 220.372 88.0989 229.329Z" fill="#F9F9F9"/>
<path d="M165.314 181.647C166.193 186.641 166.774 191.544 167.075 196.284C177.584 203.29 188.088 208.002 197.231 210.053C196.802 200.678 193.993 189.498 188.931 177.914C184.322 176.794 179.603 175.37 174.846 173.636C170.497 172.05 166.269 170.213 162.232 168.194C163.454 172.482 164.493 176.983 165.314 181.647Z" fill="#F9F9F9"/>
<path d="M221.969 180.521C218.365 171.858 211.908 162.315 203.196 153.164C198.483 153.69 193.562 153.969 188.5 153.969C183.871 153.969 179.272 153.691 174.789 153.177C177.401 156.788 179.914 160.661 182.278 164.763C184.809 169.154 187.029 173.563 188.931 177.914C201.198 180.896 212.677 181.726 221.969 180.521Z" fill="#F9F9F9"/>
<path fill-rule="evenodd" clip-rule="evenodd" d="M125.949 68.6156C124.152 64.4697 122.093 60.3407 119.778 56.3252C117.248 51.9342 114.546 47.8044 111.735 43.9789C110.399 48.5369 109.271 53.3431 108.392 58.3364C107.571 63.0007 107.01 67.5864 106.694 72.0345C103.59 68.7543 100.245 65.5798 96.699 62.5994C92.8216 59.3403 88.8729 56.3852 84.925 53.7536C84.1233 41.1343 85.301 29.6657 88.0989 20.7087C78.7388 14.7067 69.9002 12.8796 63.5 16.581C57.0998 20.2825 54.2602 28.8636 54.7692 39.9845C63.9119 42.0358 74.4159 46.7484 84.925 53.7536C85.2262 58.4942 85.8067 63.3972 86.6857 68.3905C87.5067 73.0549 88.5456 77.556 89.7676 81.8441C85.7305 79.8253 81.5034 77.9883 77.1537 76.4024C72.3973 74.6683 67.6778 73.2442 63.0695 72.1238C64.9711 76.4754 67.1907 80.8839 69.7215 85.2749C72.0857 89.3766 74.5988 93.2504 77.2111 96.8612C81.4532 102.724 85.957 107.894 90.5102 112.22C94.0048 115.54 97.5285 118.364 100.985 120.622C103.65 122.363 106.275 123.769 108.816 124.807C106.316 126.006 103.686 127.571 100.992 129.457C97.5868 131.842 94.0789 134.742 90.6003 138.066C86.0017 142.46 81.4542 147.595 77.2618 153.265C74.576 156.897 72.036 160.748 69.7215 164.763C67.1907 169.154 64.9711 173.563 63.0695 177.914C67.6778 176.794 72.3973 175.37 77.1537 173.636C81.5968 172.016 85.8417 170.209 89.8451 168.259C88.5614 172.592 87.4895 177.081 86.6857 181.647C85.8067 186.641 85.2262 191.544 84.925 196.284C74.4159 203.29 63.9119 208.002 54.7692 210.053C54.2602 221.174 57.0998 229.755 63.5 233.457C69.9002 237.158 78.7388 235.331 88.0989 229.329C85.301 220.372 84.1233 208.904 84.925 196.284C88.8729 193.653 92.8216 190.698 96.699 187.439C100.321 184.394 103.693 181.242 106.789 178.038C107.063 182.55 107.588 187.135 108.392 191.702C109.271 196.695 110.399 201.501 111.735 206.059C114.546 202.234 117.248 198.104 119.778 193.713C122.143 189.611 124.235 185.494 126.051 181.422C128.999 174.811 131.216 168.319 132.68 162.206C136.201 167.505 140.46 172.883 145.306 178.003C148.41 181.284 151.755 184.458 155.301 187.439C159.178 190.698 163.127 193.653 167.075 196.284C166.774 191.544 166.193 186.641 165.314 181.647C164.493 176.983 163.454 172.482 162.232 168.194C166.269 170.213 170.497 172.05 174.846 173.636C179.603 175.37 184.322 176.794 188.931 177.914C193.993 189.498 196.802 200.678 197.231 210.053C208.076 212.487 217.005 211.176 221.756 205.505C226.506 199.834 226.244 190.797 221.969 180.521C212.677 181.726 201.198 180.896 188.931 177.914C187.029 173.563 184.809 169.154 182.278 164.763C179.914 160.661 177.401 156.788 174.789 153.177C179.272 153.691 183.871 153.969 188.5 153.969C193.562 153.969 198.483 153.69 203.196 153.164C199.923 149.726 196.332 146.344 192.455 143.085C188.833 140.041 185.148 137.261 181.461 134.763C175.473 130.707 169.475 127.392 163.72 124.887C169.541 122.334 175.568 119.066 181.443 115.175C185.207 112.682 188.909 109.933 192.455 106.953C196.332 103.694 199.923 100.312 203.196 96.874C198.483 96.348 193.562 96.0693 188.5 96.0693C183.772 96.0693 179.166 96.3124 174.738 96.7733C177.424 93.1414 179.964 89.2904 182.278 85.2749C184.809 80.8838 187.029 76.4754 188.931 72.1238C201.198 69.1416 212.677 68.312 221.969 69.5166C226.244 59.2408 226.506 50.2044 221.756 44.5334C217.005 38.8624 208.076 37.5512 197.231 39.9845C196.802 49.3598 193.993 60.5403 188.931 72.1238C184.322 73.2441 179.603 74.6683 174.846 76.4024C170.403 78.0223 166.158 79.8288 162.155 81.7788C163.439 77.4458 164.511 72.9568 165.314 68.3905C166.193 63.3972 166.774 58.4942 167.075 53.7536C163.127 56.3852 159.178 59.3403 155.301 62.5994C151.679 65.6439 148.307 68.7957 145.211 71.9998C140.183 77.2026 135.883 82.5433 132.42 87.7862C130.921 81.6 128.755 75.0872 125.949 68.6156ZM128.589 122.631C129.275 121.634 129.758 120.46 130.048 119.135C129.112 119.981 128.298 120.899 127.617 121.889C127.922 120.716 127.975 119.447 127.795 118.103C127.204 119.219 126.753 120.36 126.451 121.523C126.337 120.317 125.953 119.107 125.325 117.905C125.151 119.156 125.117 120.383 125.23 121.58C124.711 120.485 123.937 119.479 122.937 118.565C123.2 119.8 123.588 120.965 124.102 122.051C123.24 121.2 122.17 120.52 120.918 120.004C121.587 121.074 122.349 122.036 123.203 122.88C122.103 122.376 120.865 122.104 119.512 122.047C120.507 122.824 121.551 123.467 122.642 123.967C121.436 123.87 120.179 124.039 118.889 124.449C120.089 124.838 121.289 125.085 122.485 125.181C121.319 125.504 120.196 126.092 119.123 126.92C120.383 126.874 121.596 126.695 122.752 126.376C121.766 127.078 120.912 128.016 120.187 129.162C121.356 128.687 122.434 128.103 123.411 127.406C124.078 126.437 124.938 125.633 126 125.019C126.759 125.925 127.39 126.918 127.898 127.987C128.76 128.838 129.83 129.518 131.082 130.034C130.413 128.964 129.651 128.002 128.797 127.158C129.897 127.662 131.135 127.934 132.488 127.991C131.493 127.214 130.449 126.571 129.358 126.071C130.564 126.167 131.821 125.999 133.111 125.589C131.911 125.2 130.711 124.953 129.515 124.857C130.681 124.534 131.804 123.946 132.877 123.118C131.617 123.163 130.404 123.343 129.248 123.662C130.234 122.96 131.088 122.022 131.813 120.876C130.644 121.351 129.566 121.935 128.589 122.631ZM128.589 122.631C127.922 123.601 127.062 124.405 126 125.019C126.759 124.113 127.625 123.318 128.589 122.631ZM129.358 126.071C128.187 125.977 127.062 125.633 126 125.019C127.163 125.224 128.283 125.578 129.358 126.071ZM129.248 123.662C128.108 123.977 127.023 124.427 126 125.019C126.788 124.078 127.322 123.028 127.617 121.889C126.946 122.863 126.404 123.907 126 125.019C126.419 123.864 126.562 122.696 126.451 121.523C126.153 122.669 126 123.836 126 125.019C126 123.79 125.735 122.643 125.23 121.58C125.342 122.758 125.596 123.907 126 125.019C125.581 123.864 124.94 122.877 124.102 122.051C124.61 123.12 125.241 124.113 126 125.019C125.212 124.078 124.272 123.37 123.203 122.88C124.045 123.711 124.977 124.427 126 125.019C124.938 124.405 123.813 124.061 122.642 123.967C123.716 124.46 124.837 124.814 126 125.019C124.792 124.806 123.618 124.868 122.485 125.181C123.663 125.276 124.837 125.224 126 125.019C124.792 125.232 123.71 125.693 122.752 126.376C123.892 126.061 124.977 125.611 126 125.019C126.788 125.96 127.728 126.668 128.797 127.158C127.955 126.327 127.023 125.611 126 125.019C127.208 125.232 128.382 125.17 129.515 124.857C128.337 124.762 127.163 124.814 126 125.019C127.208 124.806 128.29 124.345 129.248 123.662Z" fill="#F9F9F9"/>
<path d="M126 125.019C122.503 134.643 108.64 139.166 90.6003 138.066M126 125.019C126 138.817 105.159 150.361 77.2618 153.265M126 125.019C126 137.451 153.127 141.562 181.461 134.763M126 125.019C130.711 137.985 115.068 155.973 89.8451 168.259M126 125.019C118.023 134.542 136.165 155.158 162.232 168.194M126 125.019C121.755 136.701 145.842 149.858 174.789 153.177M126 125.019C124.938 125.633 124.078 126.437 123.411 127.406M126 125.019C124.977 125.611 123.892 126.061 122.752 126.376M126 125.019C124.792 125.232 123.71 125.693 122.752 126.376M126 125.019C125.241 125.925 124.375 126.72 123.411 127.406M126 125.019C124.837 125.224 123.663 125.276 122.485 125.181M126 125.019C124.792 124.806 123.618 124.868 122.485 125.181M126 125.019C124.837 124.814 123.716 124.46 122.642 123.967M126 125.019C124.938 124.405 123.813 124.061 122.642 123.967M126 125.019C124.977 124.427 124.045 123.711 123.203 122.88M126 125.019C125.212 124.078 124.272 123.37 123.203 122.88M126 125.019C125.241 124.113 124.61 123.12 124.102 122.051M126 125.019C125.581 123.864 124.94 122.877 124.102 122.051M126 125.019C125.596 123.907 125.342 122.758 125.23 121.58M126 125.019C126 123.79 125.735 122.643 125.23 121.58M126 125.019C126 123.836 126.153 122.669 126.451 121.523M126 125.019C126.419 123.864 126.562 122.696 126.451 121.523M126 125.019C126.404 123.907 126.946 122.863 127.617 121.889M126 125.019C126.788 124.078 127.322 123.028 127.617 121.889M126 125.019C126.759 124.113 127.625 123.318 128.589 122.631M126 125.019C127.062 124.405 127.922 123.601 128.589 122.631M126 125.019C127.023 124.427 128.108 123.977 129.248 123.662M126 125.019C127.208 124.806 128.29 124.345 129.248 123.662M126 125.019C127.163 124.814 128.337 124.762 129.515 124.857M126 125.019C127.208 125.232 128.382 125.17 129.515 124.857M126 125.019C127.163 125.224 128.283 125.578 129.358 126.071M126 125.019C127.062 125.633 128.187 125.977 129.358 126.071M126 125.019C127.023 125.611 127.955 126.327 128.797 127.158M126 125.019C126.788 125.96 127.728 126.668 128.797 127.158M126 125.019C126.759 125.925 127.39 126.918 127.898 127.987M126 125.019C126.419 126.173 127.06 127.161 127.898 127.987M54.7692 210.053C43.9243 212.487 34.9949 211.176 30.2444 205.505C25.494 199.834 25.7556 190.797 30.031 180.521M54.7692 210.053C54.2602 221.174 57.0998 229.755 63.5 233.457C69.9002 237.158 78.7388 235.331 88.0989 229.329M54.7692 210.053C55.1983 200.678 58.0074 189.498 63.0695 177.914M54.7692 210.053C63.9119 208.002 74.4159 203.29 84.925 196.284M197.231 210.053C197.74 221.174 194.9 229.755 188.5 233.457C182.1 237.158 173.261 235.331 163.901 229.329M197.231 210.053C208.076 212.487 217.005 211.176 221.756 205.505C226.506 199.834 226.244 190.797 221.969 180.521M197.231 210.053C188.088 208.002 177.584 203.29 167.075 196.284M197.231 210.053C196.802 200.678 193.993 189.498 188.931 177.914M221.969 69.5166C232.991 70.9456 240.934 75.237 243.462 82.1935C245.989 89.15 242.658 97.5519 235.132 105.743M221.969 69.5166C226.244 59.2408 226.506 50.2044 221.756 44.5334C217.005 38.8624 208.076 37.5512 197.231 39.9845M221.969 69.5166C218.365 78.1796 211.908 87.7234 203.196 96.8741M221.969 69.5166C212.677 68.312 201.198 69.1416 188.931 72.1238M88.0989 20.7087C91.4176 10.0841 97.0159 2.99342 104.294 1.70792C111.572 0.422408 119.254 5.16751 126 14.0143M88.0989 20.7087C78.7388 14.7067 69.9002 12.8796 63.5 16.581C57.0998 20.2825 54.2602 28.8636 54.7692 39.9845M88.0989 20.7087C95.9898 25.7687 104.251 33.7958 111.735 43.9789M88.0989 20.7087C85.301 29.6657 84.1233 41.1343 84.925 53.7536M145.211 71.9998C148.307 68.7957 151.679 65.6439 155.301 62.5994C159.178 59.3403 163.127 56.3852 167.075 53.7536M145.211 71.9998C144.937 67.4882 144.412 62.9026 143.608 58.3364C142.729 53.3431 141.601 48.5369 140.265 43.979M145.211 71.9998C140.183 77.2026 135.883 82.5433 132.42 87.7862M145.211 71.9998C146.621 95.29 141.309 116.608 132.877 123.118M167.075 53.7536C167.877 41.1343 166.699 29.6657 163.901 20.7088M167.075 53.7536C166.774 58.4942 166.193 63.3972 165.314 68.3905C164.511 72.9568 163.439 77.4458 162.155 81.7788M167.075 53.7536C177.584 46.7484 188.088 42.0358 197.231 39.9845M163.901 20.7088C156.01 25.7687 147.749 33.7958 140.265 43.979M163.901 20.7088C173.261 14.7067 182.1 12.8796 188.5 16.5811C194.9 20.2825 197.74 28.8636 197.231 39.9845M163.901 20.7088C160.582 10.0841 154.984 2.99342 147.706 1.70792C140.428 0.422407 132.746 5.16751 126 14.0143M140.265 43.979C137.454 47.8044 134.752 51.9342 132.222 56.3252C129.857 60.4269 127.765 64.5439 125.949 68.6156M140.265 43.979C136.71 31.8461 131.687 21.4726 126 14.0143M125.949 68.6156C128.755 75.0872 130.921 81.6 132.42 87.7862M125.949 68.6156C124.152 64.4697 122.093 60.3407 119.778 56.3252C117.248 51.9342 114.546 47.8044 111.735 43.9789M125.949 68.6156C116.487 89.8365 114.551 109.825 120.918 120.004M132.42 87.7862C124.77 99.3712 121.211 110.478 122.937 118.565M132.42 87.7862C135.88 102.059 135.79 114.593 131.813 120.876M126 14.0143C120.313 21.4726 115.29 31.846 111.735 43.9789M111.735 43.9789C110.399 48.5369 109.271 53.3431 108.392 58.3364C107.571 63.0007 107.01 67.5864 106.694 72.0345M197.231 39.9845C196.802 49.3598 193.993 60.5403 188.931 72.1238M63.0695 72.1238C58.0074 60.5403 55.1983 49.3599 54.7692 39.9845M63.0695 72.1238C50.8023 69.1416 39.3227 68.312 30.031 69.5166M63.0695 72.1238C67.6778 73.2442 72.3973 74.6683 77.1537 76.4024C81.5034 77.9883 85.7305 79.8253 89.7676 81.8441M63.0695 72.1238C64.9711 76.4754 67.1907 80.8839 69.7215 85.2749C72.0857 89.3767 74.5988 93.2504 77.2111 96.8612M54.7692 39.9845C43.9243 37.5512 34.9949 38.8624 30.2445 44.5334C25.494 50.2044 25.7556 59.2408 30.031 69.5166M54.7692 39.9845C63.9119 42.0358 74.4159 46.7484 84.925 53.7536M30.031 69.5166C19.0093 70.9456 11.0661 75.237 8.53845 82.1935C6.0108 89.15 9.34194 97.5519 16.8681 105.743M30.031 69.5166C33.6353 78.1796 40.0924 87.7234 48.8043 96.8741M48.8043 96.8741C53.5173 96.348 58.4384 96.0693 63.5 96.0693C68.1288 96.0693 72.7283 96.3473 77.2111 96.8612M48.8043 96.8741C52.0771 100.312 55.668 103.694 59.5454 106.953C63.1675 109.997 66.8517 112.777 70.5394 115.275M48.8043 96.8741C36.2587 98.2745 25.1881 101.428 16.8681 105.743M77.2111 96.8612C81.4532 102.724 85.957 107.894 90.5102 112.22M77.2111 96.8612C100.353 99.5144 120.389 108.456 125.325 117.905M16.8681 105.743C6.99898 110.862 1 117.616 1 125.019C1 132.422 6.99897 139.176 16.868 144.295M16.8681 105.743C23.2129 112.649 32.5392 119.405 43.85 125.019M70.5394 115.275C77.389 113.631 84.168 112.625 90.5102 112.22M70.5394 115.275C66.1514 116.327 61.7344 117.642 57.3847 119.228C52.6283 120.962 48.0991 122.91 43.85 125.019M70.5394 115.275C76.5275 119.331 82.5249 122.646 88.2805 125.151M90.5102 112.22C94.0048 115.54 97.5285 118.364 100.985 120.622M90.5102 112.22C105.143 111.286 117.45 113.55 122.937 118.565M43.85 125.019C48.0991 127.128 52.6283 129.076 57.3847 130.81C61.8278 132.43 66.2387 133.779 70.5569 134.863M43.85 125.019C32.5392 130.633 23.2129 137.389 16.868 144.295M88.2805 125.151C92.6842 123.219 96.9705 121.697 100.985 120.622M88.2805 125.151C92.698 127.074 96.9731 128.519 100.992 129.457M88.2805 125.151C82.459 127.704 76.4323 130.972 70.5569 134.863M100.985 120.622C103.65 122.363 106.275 123.769 108.816 124.807M100.985 120.622C109.215 118.419 116.302 118.1 120.918 120.004M100.992 129.457C103.686 127.571 106.316 126.006 108.816 124.807M100.992 129.457C97.5868 131.842 94.0789 134.742 90.6003 138.066M100.992 129.457C108.545 131.22 115.194 131.189 120.187 129.162M108.816 124.807C112.469 126.3 115.948 127.035 119.123 126.92M108.816 124.807C112.796 122.9 116.449 121.92 119.512 122.047M70.5569 134.863C77.5689 136.623 84.3364 137.684 90.6003 138.066M70.5569 134.863C66.7931 137.356 63.0913 140.105 59.5454 143.085C55.668 146.344 52.077 149.726 48.8043 153.164M90.6003 138.066C86.0017 142.46 81.4542 147.595 77.2618 153.265M16.868 144.295C25.1881 148.61 36.2587 151.763 48.8043 153.164M16.868 144.295C9.34192 152.486 6.01079 160.888 8.53843 167.844C11.0661 174.801 19.0093 179.092 30.031 180.521M48.8043 153.164C53.5172 153.69 58.4383 153.969 63.5 153.969C68.2283 153.969 72.8339 153.725 77.2618 153.265M48.8043 153.164C40.0924 162.315 33.6353 171.858 30.031 180.521M77.2618 153.265C74.576 156.897 72.036 160.748 69.7215 164.763C67.1907 169.154 64.9711 173.563 63.0695 177.914M30.031 180.521C39.3227 181.726 50.8023 180.896 63.0695 177.914M63.0695 177.914C67.6778 176.794 72.3973 175.37 77.1537 173.636C81.5968 172.016 85.8417 170.209 89.8451 168.259M111.735 206.059C104.251 216.242 95.9898 224.269 88.0989 229.329M111.735 206.059C115.29 218.192 120.313 228.565 126 236.024M111.735 206.059C110.399 201.501 109.271 196.695 108.392 191.702C107.588 187.135 107.063 182.55 106.789 178.038M111.735 206.059C114.546 202.234 117.248 198.104 119.778 193.713C122.143 189.611 124.235 185.494 126.051 181.422M88.0989 229.329C91.4176 239.954 97.0159 247.045 104.294 248.33C111.572 249.616 119.254 244.87 126 236.024M88.0989 229.329C85.301 220.372 84.1233 208.904 84.925 196.284M126 236.024C132.746 244.87 140.428 249.616 147.706 248.33C154.984 247.045 160.582 239.954 163.901 229.329M126 236.024C131.687 228.565 136.71 218.192 140.265 206.059M126.051 181.422C127.848 185.568 129.907 189.697 132.222 193.713C134.752 198.104 137.454 202.234 140.265 206.059M126.051 181.422C128.999 174.811 131.216 168.319 132.68 162.206M126.051 181.422C116.773 160.02 114.486 138.168 120.187 129.162M140.265 206.059C141.601 201.501 142.729 196.695 143.608 191.702C144.429 187.037 144.99 182.452 145.306 178.003M140.265 206.059C147.749 216.242 156.01 224.269 163.901 229.329M145.306 178.003C140.46 172.883 136.201 167.505 132.68 162.206M145.306 178.003C148.41 181.284 151.755 184.458 155.301 187.439C159.178 190.698 163.127 193.653 167.075 196.284M145.306 178.003C146.952 154.821 141.946 135.374 132.488 127.991M132.68 162.206C123.074 147.75 118.96 133.877 123.411 127.406M132.68 162.206C135.913 148.698 135.465 137.042 131.082 130.034M163.901 229.329C166.699 220.372 167.877 208.904 167.075 196.284M167.075 196.284C166.774 191.544 166.193 186.641 165.314 181.647C164.493 176.983 163.454 172.482 162.232 168.194M203.196 153.164C211.908 162.315 218.365 171.858 221.969 180.521M203.196 153.164C215.741 151.763 226.812 148.61 235.132 144.295M203.196 153.164C198.483 153.69 193.562 153.969 188.5 153.969C183.871 153.969 179.272 153.691 174.789 153.177M203.196 153.164C199.923 149.726 196.332 146.344 192.455 143.085C188.833 140.041 185.148 137.261 181.461 134.763M221.969 180.521C232.991 179.092 240.934 174.801 243.462 167.844C245.989 160.888 242.658 152.486 235.132 144.295M221.969 180.521C212.677 181.726 201.198 180.896 188.931 177.914M235.132 144.295C245.001 139.176 251 132.422 251 125.019C251 117.616 245.001 110.862 235.132 105.743M235.132 144.295C228.787 137.389 219.461 130.633 208.15 125.019M181.461 134.763C185.849 133.71 190.266 132.396 194.615 130.81C199.372 129.076 203.901 127.128 208.15 125.019M181.461 134.763C175.473 130.707 169.475 127.392 163.72 124.887M208.15 125.019C203.901 122.91 199.372 120.962 194.615 119.228C190.172 117.608 185.761 116.259 181.443 115.175M208.15 125.019C219.461 119.405 228.787 112.649 235.132 105.743M235.132 105.743C226.812 101.428 215.741 98.2745 203.196 96.8741M181.443 115.175C175.568 119.066 169.541 122.334 163.72 124.887M181.443 115.175C185.207 112.682 188.909 109.933 192.455 106.953C196.332 103.694 199.923 100.312 203.196 96.8741M181.443 115.175C158.937 109.525 138.95 111.086 130.048 119.135M163.72 124.887C150.289 130.778 137.95 132.867 131.082 130.034M163.72 124.887C151.001 119.352 139.464 117.769 131.813 120.876M203.196 96.8741C198.483 96.348 193.562 96.0693 188.5 96.0693C183.772 96.0693 179.166 96.3125 174.738 96.7733M188.931 72.1238C184.322 73.2441 179.603 74.6683 174.846 76.4024C170.403 78.0223 166.158 79.8288 162.155 81.7788M188.931 72.1238C187.029 76.4754 184.809 80.8838 182.278 85.2749C179.964 89.2904 177.424 93.1414 174.738 96.7733M162.155 81.7788C141.289 91.9425 126.979 106.008 125.325 117.905M162.155 81.7788C155.528 104.148 143.258 122.36 133.111 125.589M174.738 96.7733C151.661 99.1753 133.411 107.49 127.795 118.102M174.738 96.7733C160.873 115.523 143.125 128.433 132.488 127.991M106.694 72.0345C103.59 68.7543 100.245 65.5798 96.699 62.5994C92.8216 59.3403 88.8729 56.3852 84.925 53.7536M106.694 72.0345C105.048 95.2174 110.054 114.664 119.512 122.047M106.694 72.0345C122.72 88.9678 132.33 108.718 130.048 119.135M84.925 53.7536C85.2262 58.4942 85.8067 63.3972 86.6857 68.3905C87.5067 73.0549 88.5456 77.556 89.7676 81.8441M89.7676 81.8441C96.1364 104.193 107.48 120.751 118.889 124.449M89.7676 81.8441C110.608 92.2658 126.383 107.533 127.795 118.102M89.8451 168.259C88.5614 172.592 87.4895 177.081 86.6857 181.647C85.8067 186.641 85.2262 191.544 84.925 196.284M89.8451 168.259C96.4721 145.89 108.742 127.678 118.889 124.449M84.925 196.284C88.8729 193.653 92.8216 190.698 96.699 187.439C100.321 184.394 103.693 181.242 106.789 178.038M106.789 178.038C105.379 154.748 110.691 133.43 119.123 126.92M106.789 178.038C124.624 159.582 133.306 139.392 127.898 127.987M162.232 168.194C166.269 170.213 170.497 172.05 174.846 173.636C179.603 175.37 184.322 176.794 188.931 177.914M162.232 168.194C155.864 145.845 144.52 129.286 133.111 125.589M188.931 177.914C187.029 173.563 184.809 169.154 182.278 164.763C179.914 160.661 177.401 156.788 174.789 153.177M174.789 153.177C161.173 134.358 144.86 122.684 132.877 123.118M123.411 127.406C122.434 128.103 121.356 128.687 120.187 129.162M120.187 129.162C120.912 128.016 121.766 127.078 122.752 126.376M122.752 126.376C121.596 126.695 120.383 126.874 119.123 126.92M119.123 126.92C120.196 126.092 121.319 125.504 122.485 125.181M122.485 125.181C121.289 125.085 120.089 124.838 118.889 124.449M122.642 123.967C121.436 123.87 120.179 124.039 118.889 124.449M122.642 123.967C121.551 123.467 120.507 122.824 119.512 122.047M119.512 122.047C120.865 122.104 122.103 122.376 123.203 122.88M123.203 122.88C122.349 122.036 121.587 121.074 120.918 120.004M124.102 122.051C123.24 121.2 122.17 120.52 120.918 120.004M124.102 122.051C123.588 120.965 123.2 119.8 122.937 118.565M131.082 130.034C130.413 128.964 129.651 128.002 128.797 127.158M131.082 130.034C129.83 129.518 128.76 128.838 127.898 127.987M125.23 121.58C124.711 120.485 123.937 119.479 122.937 118.565M125.23 121.58C125.117 120.383 125.151 119.156 125.325 117.905M125.325 117.905C125.953 119.107 126.337 120.317 126.451 121.523M126.451 121.523C126.753 120.36 127.204 119.219 127.795 118.102M127.795 118.102C127.975 119.447 127.922 120.716 127.617 121.889M127.617 121.889C128.298 120.899 129.112 119.981 130.048 119.135M128.589 122.631C129.275 121.634 129.758 120.46 130.048 119.135M128.589 122.631C129.566 121.935 130.644 121.351 131.813 120.876M129.248 123.662C130.234 122.96 131.088 122.022 131.813 120.876M129.248 123.662C130.404 123.343 131.617 123.163 132.877 123.118M129.515 124.857C130.681 124.534 131.804 123.946 132.877 123.118M129.515 124.857C130.711 124.953 131.911 125.2 133.111 125.589M129.358 126.071C130.564 126.167 131.821 125.999 133.111 125.589M129.358 126.071C130.449 126.571 131.493 127.214 132.488 127.991M132.488 127.991C131.135 127.934 129.897 127.662 128.797 127.158" stroke="black" stroke-width="2" stroke-linejoin="round"/>
<path d="M145.211 71.9998C148.307 68.7957 151.679 65.6439 155.301 62.5995C159.179 59.3404 163.127 56.3852 167.075 53.7536C167.877 41.1344 166.699 29.6658 163.901 20.7088C156.01 25.7688 147.749 33.7959 140.265 43.979C141.601 48.537 142.729 53.3432 143.608 58.3364C144.412 62.9027 144.938 67.4883 145.211 71.9998Z" fill="#F9F9F9"/>
<path d="M126 14.0144C120.313 21.4727 115.29 31.8461 111.735 43.979C114.546 47.8045 117.248 51.9342 119.779 56.3252C122.093 60.3407 124.152 64.4698 125.949 68.6157C127.765 64.544 129.858 60.427 132.222 56.3252C134.753 51.9342 137.454 47.8045 140.265 43.979C136.71 31.8461 131.688 21.4727 126 14.0144Z" fill="#F9F9F9"/>
<path d="M48.8044 96.8741C53.5174 96.3481 58.4385 96.0694 63.5001 96.0694C68.1289 96.0694 72.7284 96.3473 77.2113 96.8613C74.5989 93.2505 72.0858 89.3767 69.7217 85.2749C67.1908 80.8839 64.9712 76.4755 63.0696 72.1239C50.8024 69.1417 39.3228 68.312 30.0311 69.5167C33.6355 78.1797 40.0926 87.7234 48.8044 96.8741Z" fill="#F9F9F9"/>
<path d="M43.8502 125.019C48.0993 122.91 52.6284 120.962 57.3848 119.228C61.7345 117.642 66.1515 116.328 70.5395 115.275C66.8518 112.777 63.1676 109.997 59.5456 106.953C55.6681 103.694 52.0772 100.312 48.8044 96.8741C36.2588 98.2745 25.1882 101.428 16.8682 105.743C23.213 112.649 32.5393 119.405 43.8502 125.019Z" fill="#F9F9F9"/>
<path d="M16.8682 144.295C25.1882 148.61 36.2588 151.764 48.8044 153.164C52.0771 149.726 55.6681 146.344 59.5456 143.085C63.0914 140.105 66.7932 137.356 70.5571 134.863C66.2389 133.779 61.828 132.43 57.3848 130.81C52.6284 129.076 48.0993 127.128 43.8502 125.019C32.5393 130.633 23.213 137.389 16.8682 144.295Z" fill="#F9F9F9"/>
<path d="M63.0696 177.914C64.9712 173.563 67.1908 169.154 69.7217 164.763C72.0361 160.748 74.5761 156.897 77.2619 153.265C72.834 153.726 68.2284 153.969 63.5001 153.969C58.4385 153.969 53.5173 153.69 48.8044 153.164C40.0925 162.315 33.6354 171.858 30.0311 180.521C39.3228 181.726 50.8024 180.896 63.0696 177.914Z" fill="#F9F9F9"/>
<path d="M126.051 181.422C124.235 185.494 122.143 189.611 119.779 193.713C117.248 198.104 114.546 202.234 111.735 206.059C115.29 218.192 120.313 228.565 126 236.024C131.688 228.565 136.71 218.192 140.265 206.059C137.454 202.234 134.752 198.104 132.222 193.713C129.907 189.697 127.848 185.568 126.051 181.422Z" fill="#F9F9F9"/>
<path d="M167.075 196.284C163.127 193.653 159.179 190.698 155.301 187.439C151.755 184.458 148.41 181.284 145.306 178.004C144.99 182.452 144.429 187.037 143.608 191.702C142.729 196.695 141.601 201.501 140.265 206.059C147.749 216.242 156.01 224.269 163.901 229.329C166.699 220.372 167.877 208.904 167.075 196.284Z" fill="#F9F9F9"/>
<path d="M181.461 134.763C185.148 137.261 188.833 140.041 192.455 143.085C196.332 146.344 199.923 149.726 203.196 153.164C215.741 151.764 226.812 148.61 235.132 144.295C228.787 137.389 219.461 130.633 208.15 125.019C203.901 127.128 199.372 129.076 194.615 130.81C190.266 132.396 185.849 133.711 181.461 134.763Z" fill="#F9F9F9"/>
<path d="M203.196 96.8741C199.923 100.312 196.332 103.694 192.455 106.953C188.909 109.933 185.207 112.682 181.443 115.175C185.761 116.259 190.172 117.608 194.615 119.228C199.372 120.962 203.901 122.91 208.15 125.019C219.461 119.405 228.787 112.649 235.132 105.743C226.812 101.428 215.741 98.2745 203.196 96.8741Z" fill="#F9F9F9"/>
<path d="M167.075 53.7536C166.774 58.4943 166.193 63.3973 165.314 68.3906C164.511 72.9568 163.439 77.4458 162.155 81.7789C166.158 79.8288 170.403 78.0224 174.846 76.4025C179.603 74.6683 184.322 73.2442 188.931 72.1239C193.993 60.5404 196.802 49.3599 197.231 39.9845C188.088 42.0359 177.584 46.7485 167.075 53.7536Z" fill="#F9F9F9"/>
<path d="M188.5 96.0693C193.562 96.0693 198.483 96.348 203.196 96.8741C211.908 87.7234 218.365 78.1797 221.969 69.5167C212.677 68.312 201.198 69.1417 188.931 72.1239C187.029 76.4755 184.809 80.8839 182.279 85.2749C179.964 89.2904 177.424 93.1414 174.738 96.7734C179.166 96.3125 183.772 96.0693 188.5 96.0693Z" fill="#F9F9F9"/>
<path d="M111.735 43.979C104.251 33.7959 95.9899 25.7687 88.099 20.7088C85.3011 29.6658 84.1234 41.1344 84.9251 53.7536C88.8731 56.3852 92.8217 59.3404 96.6992 62.5995C100.245 65.5799 103.59 68.7544 106.694 72.0345C107.01 67.5864 107.571 63.0008 108.392 58.3364C109.271 53.3432 110.399 48.5369 111.735 43.979Z" fill="#F9F9F9"/>
<path d="M54.7693 39.9846C55.1984 49.3599 58.0075 60.5404 63.0696 72.1239C67.6779 73.2442 72.3974 74.6683 77.1539 76.4025C81.5035 77.9883 85.7306 79.8253 89.7677 81.8441C88.5457 77.5561 87.5069 73.0549 86.6858 68.3906C85.8069 63.3973 85.2263 58.4943 84.9251 53.7536C74.416 46.7485 63.912 42.0359 54.7693 39.9846Z" fill="#F9F9F9"/>
<path d="M77.1538 173.636C72.3974 175.37 67.6779 176.794 63.0696 177.914C58.0075 189.498 55.1984 200.678 54.7693 210.054C63.912 208.002 74.416 203.29 84.9251 196.284C85.2263 191.544 85.8068 186.641 86.6858 181.648C87.4896 177.081 88.5616 172.592 89.8453 168.259C85.8418 170.209 81.597 172.016 77.1538 173.636Z" fill="#F9F9F9"/>
<path d="M88.099 229.329C95.9899 224.269 104.251 216.242 111.735 206.059C110.399 201.501 109.271 196.695 108.392 191.702C107.588 187.135 107.063 182.55 106.789 178.038C103.693 181.242 100.321 184.394 96.6992 187.439C92.8217 190.698 88.8731 193.653 84.9251 196.284C84.1234 208.904 85.3011 220.372 88.099 229.329Z" fill="#F9F9F9"/>
<path d="M221.969 180.521C218.365 171.858 211.908 162.315 203.196 153.164C198.483 153.69 193.562 153.969 188.5 153.969C183.871 153.969 179.272 153.691 174.789 153.177C177.401 156.788 179.914 160.661 182.279 164.763C184.809 169.154 187.029 173.563 188.931 177.914C201.198 180.896 212.677 181.726 221.969 180.521Z" fill="#F9F9F9"/>
<path d="M165.314 181.647C166.193 186.641 166.774 191.544 167.075 196.284C177.584 203.29 188.088 208.002 197.231 210.053C196.802 200.678 193.993 189.498 188.931 177.914C184.322 176.794 179.603 175.37 174.846 173.635C170.497 172.05 166.269 170.213 162.232 168.194C163.454 172.482 164.493 176.983 165.314 181.647Z" fill="#F9F9F9"/>
<path d="M167.075 53.7536C163.127 56.3852 159.179 59.3404 155.301 62.5995C151.679 65.6439 148.307 68.7957 145.211 71.9998C144.938 67.4883 144.412 62.9027 143.608 58.3364C142.729 53.3432 141.601 48.537 140.265 43.979M167.075 53.7536C167.877 41.1344 166.699 29.6658 163.901 20.7088C156.01 25.7688 147.749 33.7959 140.265 43.979M167.075 53.7536C166.774 58.4943 166.193 63.3973 165.314 68.3906C164.511 72.9568 163.439 77.4458 162.155 81.7789C166.158 79.8288 170.403 78.0224 174.846 76.4025C179.603 74.6683 184.322 73.2442 188.931 72.1239M167.075 53.7536C177.584 46.7485 188.088 42.0359 197.231 39.9845C196.802 49.3599 193.993 60.5404 188.931 72.1239M140.265 43.979C137.454 47.8045 134.753 51.9342 132.222 56.3252C129.858 60.427 127.765 64.544 125.949 68.6157C124.152 64.4698 122.093 60.3407 119.779 56.3252C117.248 51.9342 114.546 47.8045 111.735 43.979M140.265 43.979C136.71 31.8461 131.688 21.4727 126 14.0144C120.313 21.4727 115.29 31.8461 111.735 43.979M111.735 43.979C104.251 33.7959 95.9899 25.7687 88.099 20.7088C85.3011 29.6658 84.1234 41.1344 84.9251 53.7536M111.735 43.979C110.399 48.5369 109.271 53.3432 108.392 58.3364C107.571 63.0008 107.01 67.5864 106.694 72.0345C103.59 68.7544 100.245 65.5799 96.6992 62.5995C92.8217 59.3404 88.8731 56.3852 84.9251 53.7536M63.0696 72.1239C58.0075 60.5404 55.1984 49.3599 54.7693 39.9846C63.912 42.0359 74.416 46.7485 84.9251 53.7536M63.0696 72.1239C50.8024 69.1417 39.3228 68.312 30.0311 69.5167C33.6355 78.1797 40.0926 87.7234 48.8044 96.8741M63.0696 72.1239C67.6779 73.2442 72.3974 74.6683 77.1539 76.4025C81.5035 77.9883 85.7306 79.8253 89.7677 81.8441C88.5457 77.5561 87.5069 73.0549 86.6858 68.3906C85.8069 63.3973 85.2263 58.4943 84.9251 53.7536M63.0696 72.1239C64.9712 76.4755 67.1908 80.8839 69.7217 85.2749C72.0858 89.3767 74.5989 93.2505 77.2113 96.8613C72.7284 96.3473 68.1289 96.0694 63.5001 96.0694C58.4385 96.0694 53.5174 96.3481 48.8044 96.8741M48.8044 96.8741C52.0772 100.312 55.6681 103.694 59.5456 106.953C63.1676 109.997 66.8518 112.777 70.5395 115.275C66.1515 116.328 61.7345 117.642 57.3848 119.228C52.6284 120.962 48.0993 122.91 43.8502 125.019M48.8044 96.8741C36.2588 98.2745 25.1882 101.428 16.8682 105.743C23.213 112.649 32.5393 119.405 43.8502 125.019M43.8502 125.019C48.0993 127.128 52.6284 129.076 57.3848 130.81C61.828 132.43 66.2389 133.779 70.5571 134.863C66.7932 137.356 63.0914 140.105 59.5456 143.085C55.6681 146.344 52.0771 149.726 48.8044 153.164M43.8502 125.019C32.5393 130.633 23.213 137.389 16.8682 144.295C25.1882 148.61 36.2588 151.764 48.8044 153.164M48.8044 153.164C53.5173 153.69 58.4385 153.969 63.5001 153.969C68.2284 153.969 72.834 153.726 77.2619 153.265C74.5761 156.897 72.0361 160.748 69.7217 164.763C67.1908 169.154 64.9712 173.563 63.0696 177.914M48.8044 153.164C40.0925 162.315 33.6354 171.858 30.0311 180.521C39.3228 181.726 50.8024 180.896 63.0696 177.914M63.0696 177.914C67.6779 176.794 72.3974 175.37 77.1538 173.636C81.597 172.016 85.8418 170.209 89.8453 168.259C88.5616 172.592 87.4896 177.081 86.6858 181.648C85.8068 186.641 85.2263 191.544 84.9251 196.284M63.0696 177.914C58.0075 189.498 55.1984 200.678 54.7693 210.054C63.912 208.002 74.416 203.29 84.9251 196.284M111.735 206.059C104.251 216.242 95.9899 224.269 88.099 229.329C85.3011 220.372 84.1234 208.904 84.9251 196.284M111.735 206.059C115.29 218.192 120.313 228.565 126 236.024C131.688 228.565 136.71 218.192 140.265 206.059M111.735 206.059C110.399 201.501 109.271 196.695 108.392 191.702C107.588 187.135 107.063 182.55 106.789 178.038C103.693 181.242 100.321 184.394 96.6992 187.439C92.8217 190.698 88.8731 193.653 84.9251 196.284M111.735 206.059C114.546 202.234 117.248 198.104 119.779 193.713C122.143 189.611 124.235 185.494 126.051 181.422C127.848 185.568 129.907 189.697 132.222 193.713C134.752 198.104 137.454 202.234 140.265 206.059M140.265 206.059C141.601 201.501 142.729 196.695 143.608 191.702C144.429 187.037 144.99 182.452 145.306 178.004C148.41 181.284 151.755 184.458 155.301 187.439C159.179 190.698 163.127 193.653 167.075 196.284M140.265 206.059C147.749 216.242 156.01 224.269 163.901 229.329C166.699 220.372 167.877 208.904 167.075 196.284M167.075 196.284C166.774 191.544 166.193 186.641 165.314 181.647C164.493 176.983 163.454 172.482 162.232 168.194C166.269 170.213 170.497 172.05 174.846 173.635C179.603 175.37 184.322 176.794 188.931 177.914M167.075 196.284C177.584 203.29 188.088 208.002 197.231 210.053C196.802 200.678 193.993 189.498 188.931 177.914M203.196 153.164C211.908 162.315 218.365 171.858 221.969 180.521C212.677 181.726 201.198 180.896 188.931 177.914M203.196 153.164C215.741 151.764 226.812 148.61 235.132 144.295C228.787 137.389 219.461 130.633 208.15 125.019M203.196 153.164C198.483 153.69 193.562 153.969 188.5 153.969C183.871 153.969 179.272 153.691 174.789 153.177C177.401 156.788 179.914 160.661 182.279 164.763C184.809 169.154 187.029 173.563 188.931 177.914M203.196 153.164C199.923 149.726 196.332 146.344 192.455 143.085C188.833 140.041 185.148 137.261 181.461 134.763C185.849 133.711 190.266 132.396 194.615 130.81C199.372 129.076 203.901 127.128 208.15 125.019M208.15 125.019C203.901 122.91 199.372 120.962 194.615 119.228C190.172 117.608 185.761 116.259 181.443 115.175C185.207 112.682 188.909 109.933 192.455 106.953C196.332 103.694 199.923 100.312 203.196 96.8741M208.15 125.019C219.461 119.405 228.787 112.649 235.132 105.743C226.812 101.428 215.741 98.2745 203.196 96.8741M203.196 96.8741C198.483 96.348 193.562 96.0693 188.5 96.0693C183.772 96.0693 179.166 96.3125 174.738 96.7734C177.424 93.1414 179.964 89.2904 182.279 85.2749C184.809 80.8839 187.029 76.4755 188.931 72.1239M203.196 96.8741C211.908 87.7234 218.365 78.1797 221.969 69.5167C212.677 68.312 201.198 69.1417 188.931 72.1239" stroke="black" stroke-width="2" stroke-linejoin="round"/>
</svg>
