<svg width="250" height="252" viewBox="0 0 250 252" fill="none" xmlns="http://www.w3.org/2000/svg">
<path fill-rule="evenodd" clip-rule="evenodd" d="M126.866 1C141.43 1 155.035 5.10024 166.591 12.2091C193.357 16.1625 215.574 34.0842 225.592 58.3271C239.608 72.098 248.3 91.2675 248.3 112.467C248.3 118.595 247.574 124.554 246.202 130.261C246.882 134.344 247.235 138.537 247.235 142.812C247.235 165.921 236.906 186.618 220.613 200.539C209.01 223.823 185.795 240.306 158.549 242.409C148.048 247.897 136.103 251 123.434 251C108.878 251 95.2792 246.904 83.7273 239.802C56.9528 235.854 34.7287 217.93 24.7083 193.681C10.6925 179.911 2 160.741 2 139.542C2 133.413 2.72638 127.455 4.09775 121.747C3.4183 117.665 3.06476 113.472 3.06476 109.196C3.06476 86.0875 13.3938 65.3905 29.6877 51.4692C41.2877 28.1912 64.4947 11.71 91.7319 9.60112C102.238 4.10706 114.189 1 126.866 1ZM117.51 99.4256C119.465 99.2747 121.44 99.1979 123.434 99.1979C127.229 99.1979 130.959 99.4763 134.605 100.014C139.499 103.023 144.026 106.572 148.103 110.577C150.254 115.782 151.843 121.279 152.793 126.991C151.447 132.595 149.478 137.957 146.965 143C142.64 146.696 137.894 149.914 132.81 152.573C130.849 152.725 128.867 152.802 126.866 152.802C123.065 152.802 119.329 152.523 115.677 151.983C110.79 148.977 106.269 145.432 102.197 141.431C100.046 136.226 98.4576 130.73 97.507 125.018C98.8535 119.414 100.822 114.051 103.335 109.008C107.666 105.308 112.418 102.086 117.51 99.4256Z" fill="#F9F9F9"/>
<path d="M166.591 12.2091C155.035 5.10024 141.43 1 126.866 1C114.189 1 102.238 4.10706 91.7319 9.60112M166.591 12.2091C193.357 16.1625 215.574 34.0842 225.592 58.3271M166.591 12.2091C188.303 25.5657 202.78 49.543 202.78 76.9011C202.78 116.82 171.958 149.542 132.81 152.573M166.591 12.2091C162.94 11.6698 159.203 11.3904 155.402 11.3904C113.476 11.3904 79.4889 45.3725 79.4889 87.2915C79.4889 108.491 88.1815 127.66 102.197 141.431M225.592 58.3271C239.608 72.098 248.3 91.2675 248.3 112.467C248.3 118.595 247.574 124.554 246.202 130.261M225.592 58.3271C211.893 44.868 193.11 36.5658 172.387 36.5658C130.461 36.5658 96.474 70.5479 96.474 112.467C96.474 116.742 96.8275 120.935 97.507 125.018M225.592 58.3271C229.28 67.2523 231.315 77.0343 231.315 87.2915C231.315 129.21 197.328 163.193 155.402 163.193C140.839 163.193 127.233 159.092 115.677 151.983M246.202 130.261C246.882 134.344 247.235 138.537 247.235 142.812C247.235 165.921 236.906 186.618 220.613 200.539M246.202 130.261C240.22 94.3148 208.972 66.9109 171.322 66.9109C141.544 66.9109 115.77 84.0542 103.335 109.008M246.202 130.261C238.193 163.595 208.184 188.368 172.387 188.368C140.72 188.368 113.582 168.981 102.197 141.431M220.613 200.539C209.01 223.823 185.795 240.306 158.549 242.409M220.613 200.539C225.685 190.36 228.538 178.881 228.538 166.736C228.538 124.817 194.551 90.8344 152.625 90.8344C139.955 90.8344 128.011 93.9377 117.51 99.4256M220.613 200.539C207.35 211.871 190.135 218.713 171.322 218.713C129.397 218.713 95.4092 184.731 95.4092 142.812C95.4092 136.684 96.1356 130.725 97.507 125.018M158.549 242.409C148.048 247.897 136.103 251 123.434 251C108.878 251 95.2792 246.904 83.7273 239.802M158.549 242.409C182.797 229.737 199.347 204.35 199.347 175.099C199.347 136.974 171.234 105.415 134.605 100.014M158.549 242.409C156.594 242.56 154.619 242.637 152.625 242.637C110.7 242.637 76.7121 208.655 76.7121 166.736C76.7121 143.626 87.0411 122.93 103.335 109.008M83.7273 239.802C56.9528 235.854 34.7287 217.93 24.7083 193.681M83.7273 239.802C87.373 240.34 91.103 240.618 94.8982 240.618C136.824 240.618 170.811 206.636 170.811 164.717C170.811 143.518 162.119 124.348 148.103 110.577M83.7273 239.802C62.0053 226.448 47.5206 202.465 47.5206 175.099C47.5206 135.173 78.3527 102.447 117.51 99.4256M24.7083 193.681C10.6925 179.911 2 160.741 2 139.542C2 133.413 2.72638 127.455 4.09775 121.747M24.7083 193.681C38.4068 207.141 57.1902 215.443 77.9131 215.443C119.839 215.443 153.826 181.461 153.826 139.542C153.826 135.266 153.473 131.073 152.793 126.991M24.7083 193.681C21.02 184.756 18.985 174.974 18.985 164.717C18.985 122.798 52.9725 88.816 94.8982 88.816C109.454 88.816 123.053 92.9119 134.605 100.014M4.09775 121.747C3.4183 117.665 3.06476 113.472 3.06476 109.196C3.06476 86.0875 13.3938 65.3905 29.6877 51.4692M4.09775 121.747C12.107 88.4131 42.1166 63.6405 77.9131 63.6405C109.58 63.6405 136.718 83.027 148.103 110.577M4.09775 121.747C10.0802 157.694 41.3283 185.098 78.9779 185.098C108.756 185.098 134.53 167.954 146.965 143M29.6877 51.4692C41.2877 28.1912 64.4947 11.71 91.7319 9.60112M29.6877 51.4692C24.615 61.6486 21.7619 73.1276 21.7619 85.273C21.7619 127.192 55.7494 161.174 97.675 161.174C110.352 161.174 122.304 158.067 132.81 152.573M29.6877 51.4692C42.9503 40.1378 60.1649 33.2954 78.9779 33.2954C120.904 33.2954 154.891 67.2775 154.891 109.196C154.891 115.325 154.165 121.283 152.793 126.991M91.7319 9.60112C67.4943 22.2766 50.9534 47.6575 50.9534 76.9011C50.9534 115.019 79.0569 146.575 115.677 151.983M91.7319 9.60112C93.693 9.44928 95.675 9.37194 97.675 9.37194C139.601 9.37194 173.588 43.354 173.588 85.273C173.588 108.382 163.259 129.079 146.965 143M117.51 99.4256C119.465 99.2747 121.44 99.1979 123.434 99.1979C127.229 99.1979 130.959 99.4763 134.605 100.014M117.51 99.4256C112.418 102.086 107.666 105.308 103.335 109.008M134.605 100.014C139.499 103.023 144.026 106.572 148.103 110.577M148.103 110.577C150.254 115.782 151.843 121.279 152.793 126.991M152.793 126.991C151.447 132.595 149.478 137.957 146.965 143M146.965 143C142.64 146.696 137.894 149.914 132.81 152.573M132.81 152.573C130.849 152.725 128.867 152.802 126.866 152.802C123.065 152.802 119.329 152.523 115.677 151.983M115.677 151.983C110.79 148.977 106.269 145.432 102.197 141.431M102.197 141.431C100.046 136.226 98.4576 130.73 97.507 125.018M97.507 125.018C98.8535 119.414 100.822 114.051 103.335 109.008" stroke="black" stroke-width="2" stroke-linejoin="round"/>
</svg>
