<svg width="266" height="266" viewBox="0 0 266 266" fill="none" xmlns="http://www.w3.org/2000/svg">
<path d="M225.227 140C225.227 148.943 223.82 157.831 221.056 166.337L140 140H225.227Z" fill="#F9F9F9"/>
<path d="M226.465 168.075C223.519 177.149 219.163 185.702 213.557 193.421L140 140L226.465 168.075Z" fill="#F9F9F9"/>
<path d="M220.424 198.47C214.288 206.909 206.863 214.33 198.42 220.46L140 140L220.424 198.47Z" fill="#F9F9F9"/>
<path d="M205.09 229.66C195.681 236.49 185.256 241.797 174.198 245.386L140 140L205.09 229.66Z" fill="#F9F9F9"/>
<path d="M140 265C153.117 265 166.152 262.935 178.627 258.882L140 140L140 265Z" fill="#F9F9F9"/>
<path d="M54.7727 140C54.7727 131.057 56.1804 122.169 58.9441 113.663L140 140L54.7727 140Z" fill="#F9F9F9"/>
<path d="M53.5348 111.925C56.4809 102.851 60.8368 94.2982 66.4425 86.5794L140 140L53.5348 111.925Z" fill="#F9F9F9"/>
<path d="M59.5761 81.5304C65.7117 73.0911 73.1373 65.6701 81.5805 59.5398L140 140L59.5761 81.5304Z" fill="#F9F9F9"/>
<path d="M74.9101 50.3399C84.3187 43.5096 94.7437 38.2028 105.802 34.6142L140 140L74.9101 50.3399Z" fill="#F9F9F9"/>
<path d="M140 15C126.883 15 113.848 17.0646 101.373 21.1179L140 140L140 15Z" fill="#F9F9F9"/>
<path d="M140 225.227C131.057 225.227 122.169 223.82 113.663 221.056L140 140V225.227Z" fill="#F9F9F9"/>
<path d="M111.925 226.465C102.851 223.519 94.2982 219.163 86.5794 213.557L140 140L111.925 226.465Z" fill="#F9F9F9"/>
<path d="M81.5304 220.424C73.0911 214.288 65.6701 206.863 59.5398 198.42L140 140L81.5304 220.424Z" fill="#F9F9F9"/>
<path d="M50.3399 205.09C43.5096 195.681 38.2028 185.256 34.6142 174.198L140 140L50.3399 205.09Z" fill="#F9F9F9"/>
<path d="M15 140C15 153.117 17.0646 166.152 21.1179 178.627L140 140L15 140Z" fill="#F9F9F9"/>
<path d="M140 54.7727C148.943 54.7728 157.831 56.1804 166.337 58.9441L140 140L140 54.7727Z" fill="#F9F9F9"/>
<path d="M168.075 53.5348C177.149 56.4809 185.702 60.8368 193.421 66.4425L140 140L168.075 53.5348Z" fill="#F9F9F9"/>
<path d="M198.47 59.5762C206.909 65.7117 214.33 73.1373 220.46 81.5805L140 140L198.47 59.5762Z" fill="#F9F9F9"/>
<path d="M229.66 74.9101C236.49 84.3187 241.797 94.7437 245.386 105.802L140 140L229.66 74.9101Z" fill="#F9F9F9"/>
<path d="M265 140C265 126.883 262.935 113.848 258.882 101.373L140 140L265 140Z" fill="#F9F9F9"/>
<path d="M140 140L221.056 166.337C223.82 157.831 225.227 148.943 225.227 140H140ZM140 140L213.557 193.421C219.163 185.702 223.519 177.149 226.465 168.075L140 140ZM140 140L198.42 220.46C206.863 214.33 214.288 206.909 220.424 198.47L140 140ZM140 140L174.198 245.386C185.256 241.797 195.681 236.49 205.09 229.66L140 140ZM140 140L178.627 258.882C166.152 262.935 153.117 265 140 265L140 140ZM140 140L58.9441 113.663C56.1804 122.169 54.7727 131.057 54.7727 140L140 140ZM140 140L66.4425 86.5794C60.8368 94.2982 56.4809 102.851 53.5348 111.925L140 140ZM140 140L81.5805 59.5398C73.1373 65.6701 65.7117 73.0911 59.5761 81.5304L140 140ZM140 140L105.802 34.6142C94.7437 38.2028 84.3187 43.5096 74.9101 50.3399L140 140ZM140 140L101.373 21.1179C113.848 17.0646 126.883 15 140 15L140 140ZM140 140L113.663 221.056C122.169 223.82 131.057 225.227 140 225.227V140ZM140 140L86.5794 213.558C94.2982 219.163 102.851 223.519 111.925 226.465L140 140ZM140 140L59.5398 198.42C65.6701 206.863 73.0911 214.288 81.5304 220.424L140 140ZM140 140L34.6142 174.198C38.2028 185.256 43.5096 195.681 50.3399 205.09L140 140ZM140 140L21.1179 178.627C17.0646 166.152 15 153.117 15 140L140 140ZM140 140L166.337 58.9441C157.831 56.1804 148.943 54.7727 140 54.7727L140 140ZM140 140L193.421 66.4425C185.702 60.8368 177.149 56.4809 168.075 53.5348L140 140ZM140 140L220.46 81.5805C214.33 73.1373 206.909 65.7117 198.47 59.5762L140 140ZM140 140L245.386 105.802C241.797 94.7437 236.49 84.3187 229.66 74.9101L140 140ZM140 140L258.882 101.373C262.935 113.848 265 126.883 265 140L140 140Z" stroke="black" stroke-width="2" stroke-linejoin="round"/>
</svg>
