<svg width="252" height="250" viewBox="0 0 252 250" fill="none" xmlns="http://www.w3.org/2000/svg">
<path d="M201 125.117C201 132.987 199.761 140.809 197.329 148.294L126 125.117H201Z" fill="#F9F9F9"/>
<path d="M202.089 149.824C199.497 157.808 195.664 165.335 190.731 172.127L126 125.117L202.089 149.824Z" fill="#F9F9F9"/>
<path d="M194.751 175.1C189.506 182.315 183.158 188.659 175.94 193.899L126 125.117L194.751 175.1Z" fill="#F9F9F9"/>
<path d="M178.873 197.949C171.23 203.497 162.762 207.808 153.779 210.723L126 125.117L178.873 197.949Z" fill="#F9F9F9"/>
<path d="M126 220.117C135.969 220.117 145.876 218.548 155.357 215.468L126 125.117V220.117Z" fill="#F9F9F9"/>
<path d="M126 223.801C115.644 223.801 105.353 222.171 95.5048 218.971L126 125.117L126 223.801Z" fill="#F9F9F9"/>
<path d="M93.4917 225.235C82.9858 221.823 73.0823 216.78 64.1447 210.289L126 125.117L93.4917 225.235Z" fill="#F9F9F9"/>
<path d="M60.2327 215.579C50.7401 208.677 42.3928 200.325 35.4974 190.828L126 125.117L60.2327 215.579Z" fill="#F9F9F9"/>
<path d="M30.169 194.687C22.8687 184.631 17.1966 173.488 13.3611 161.668L126 125.117L30.169 194.687Z" fill="#F9F9F9"/>
<path d="M1 125.117C0.999999 138.234 3.06457 151.269 7.11793 163.744L126 125.117L1 125.117Z" fill="#F9F9F9"/>
<path d="M126 223.801C115.644 223.801 105.353 222.171 95.5048 218.971L126 125.117L126 223.801Z" fill="#F9F9F9"/>
<path d="M93.4917 225.235C82.9858 221.823 73.0823 216.78 64.1447 210.289L126 125.117L93.4917 225.235Z" fill="#F9F9F9"/>
<path d="M60.2327 215.579C50.7401 208.677 42.3928 200.325 35.4974 190.828L126 125.117L60.2327 215.579Z" fill="#F9F9F9"/>
<path d="M30.169 194.687C22.8687 184.631 17.1966 173.488 13.3611 161.668L126 125.117L30.169 194.687Z" fill="#F9F9F9"/>
<path d="M1 125.117C0.999999 138.234 3.06457 151.269 7.11793 163.744L126 125.117L1 125.117Z" fill="#F9F9F9"/>
<path d="M51 125.117C51 117.247 52.2388 109.426 54.6708 101.941L126 125.117L51 125.117Z" fill="#F9F9F9"/>
<path d="M49.9106 100.411C52.5032 92.4264 56.3364 84.8997 61.2694 78.1072L126 125.117L49.9106 100.411Z" fill="#F9F9F9"/>
<path d="M57.2491 75.1342C62.4941 67.9197 68.842 61.5758 76.0596 56.3353L126 125.117L57.2491 75.1342Z" fill="#F9F9F9"/>
<path d="M73.127 52.2857C80.7696 46.7374 89.238 42.4266 98.2211 39.5116L126 125.117L73.127 52.2857Z" fill="#F9F9F9"/>
<path d="M126 30.1173C116.031 30.1173 106.124 31.6864 96.6434 34.7669L126 125.117L126 30.1173Z" fill="#F9F9F9"/>
<path d="M126 26.4335C136.356 26.4335 146.647 28.0634 156.495 31.2635L126 125.117L126 26.4335Z" fill="#F9F9F9"/>
<path d="M158.508 25C169.014 28.4113 178.918 33.4549 187.855 39.9458L126 125.117L158.508 25Z" fill="#F9F9F9"/>
<path d="M191.767 34.6558C201.26 41.5571 209.607 49.9096 216.503 59.4065L126 125.117L191.767 34.6558Z" fill="#F9F9F9"/>
<path d="M221.831 55.5477C229.131 65.6038 234.803 76.7463 238.639 88.5662L126 125.117L221.831 55.5477Z" fill="#F9F9F9"/>
<path d="M251 125.117C251 112 248.935 98.9652 244.882 86.4902L126 125.117L251 125.117Z" fill="#F9F9F9"/>
<path d="M126 26.4335C136.356 26.4335 146.647 28.0634 156.495 31.2635L126 125.117L126 26.4335Z" fill="#F9F9F9"/>
<path d="M158.508 25C169.014 28.4113 178.918 33.4549 187.855 39.9458L126 125.117L158.508 25Z" fill="#F9F9F9"/>
<path d="M191.767 34.6558C201.26 41.5571 209.607 49.9096 216.503 59.4065L126 125.117L191.767 34.6558Z" fill="#F9F9F9"/>
<path d="M221.831 55.5477C229.131 65.6038 234.803 76.7463 238.639 88.5662L126 125.117L221.831 55.5477Z" fill="#F9F9F9"/>
<path d="M251 125.117C251 112 248.935 98.9652 244.882 86.4902L126 125.117L251 125.117Z" fill="#F9F9F9"/>
<path d="M126 125.117L197.329 148.294C199.761 140.809 201 132.987 201 125.117H126ZM126 125.117L190.731 172.127C195.664 165.335 199.497 157.808 202.089 149.824L126 125.117ZM126 125.117L175.94 193.899C183.158 188.659 189.506 182.315 194.751 175.1L126 125.117ZM126 125.117L153.779 210.723C162.762 207.808 171.23 203.497 178.873 197.949L126 125.117ZM126 125.117L155.357 215.468C145.876 218.548 135.969 220.117 126 220.117V125.117ZM126 125.117L95.5048 218.971C105.353 222.171 115.644 223.801 126 223.801L126 125.117ZM126 125.117L64.1447 210.289C73.0823 216.78 82.9858 221.823 93.4917 225.235L126 125.117ZM126 125.117L35.4974 190.828C42.3928 200.325 50.7401 208.677 60.2327 215.579L126 125.117ZM126 125.117L13.3611 161.668C17.1966 173.488 22.8687 184.631 30.169 194.687L126 125.117ZM126 125.117L7.11793 163.744C3.06457 151.269 0.999999 138.234 1 125.117L126 125.117ZM126 125.117L54.6708 101.941C52.2388 109.426 51 117.247 51 125.117L126 125.117ZM126 125.117L61.2694 78.1072C56.3364 84.8997 52.5032 92.4264 49.9106 100.411L126 125.117ZM126 125.117L76.0596 56.3353C68.842 61.5758 62.4941 67.9197 57.2491 75.1342L126 125.117ZM126 125.117L98.2211 39.5116C89.238 42.4266 80.7696 46.7374 73.127 52.2857L126 125.117ZM126 125.117L96.6434 34.7669C106.124 31.6864 116.031 30.1173 126 30.1173L126 125.117ZM126 125.117L156.495 31.2635C146.647 28.0634 136.356 26.4335 126 26.4335L126 125.117ZM126 125.117L187.855 39.9458C178.918 33.4549 169.014 28.4113 158.508 25L126 125.117ZM126 125.117L216.503 59.4065C209.607 49.9096 201.26 41.5571 191.767 34.6558L126 125.117ZM126 125.117L238.639 88.5662C234.803 76.7463 229.131 65.6038 221.831 55.5477L126 125.117ZM126 125.117L244.882 86.4902C248.935 98.9652 251 112 251 125.117L126 125.117Z" stroke="black" stroke-width="2" stroke-linejoin="round"/>
</svg>
