<svg width="252" height="250" viewBox="0 0 252 250" fill="none" xmlns="http://www.w3.org/2000/svg">
<path d="M224.24 114.696C224.24 124.193 222.745 133.631 219.811 142.663L133.737 114.696H224.24Z" fill="#F9F9F9"/>
<path d="M225.555 144.509C222.426 154.144 217.801 163.227 211.848 171.423L133.737 114.696L225.555 144.509Z" fill="#F9F9F9"/>
<path d="M219.139 176.785C212.624 185.746 204.739 193.627 195.773 200.137L133.737 114.696L219.139 176.785Z" fill="#F9F9F9"/>
<path d="M202.856 209.906C192.865 217.159 181.795 222.794 170.052 226.605L133.737 114.696L202.856 209.906Z" fill="#F9F9F9"/>
<path d="M133.737 247.433C147.666 247.433 161.508 245.241 174.755 240.937L133.737 114.696L133.737 247.433Z" fill="#F9F9F9"/>
<path d="M222.092 49.2637C229.059 58.674 234.478 69.1367 238.144 80.2565L133.735 114.679L222.092 49.2637Z" fill="#F9F9F9"/>
<path d="M245.103 77.9582C248.957 89.6447 250.947 101.865 251 114.17L133.735 114.679L245.103 77.9582Z" fill="#F9F9F9"/>
<path d="M28.0256 114.696C27.9328 103.616 29.7136 93.4729 33.049 82.9071L133.738 114.693L28.0256 114.696Z" fill="#F9F9F9"/>
<path d="M21.5442 79.2667C25.2616 67.4936 30.809 56.379 37.9826 46.3308L133.738 114.693L21.5442 79.2667Z" fill="#F9F9F9"/>
<path d="M54.7864 7.98781C43.5893 16.2726 33.7659 26.2682 25.677 37.6076L133.738 114.693L54.7864 7.98781Z" fill="#F9F9F9"/>
<path d="M133.737 205.198C124.24 205.198 114.803 203.704 105.771 200.769L133.737 114.696L133.737 205.198Z" fill="#F9F9F9"/>
<path d="M103.924 206.513C94.2892 203.385 85.2068 198.759 77.0102 192.806L133.737 114.696L103.924 206.513Z" fill="#F9F9F9"/>
<path d="M71.6487 200.098C62.6869 193.582 54.8065 185.697 48.2968 176.731L133.737 114.696L71.6487 200.098Z" fill="#F9F9F9"/>
<path d="M38.5274 183.815C31.2743 173.824 25.639 162.753 21.8283 151.01L133.737 114.696L38.5274 183.815Z" fill="#F9F9F9"/>
<path d="M1 114.696C0.999999 128.625 3.19237 142.467 7.49663 155.714L133.737 114.696L1 114.696Z" fill="#F9F9F9"/>
<path d="M79.9071 41.9401C87.5415 36.2914 96.0174 31.8795 105.024 28.8665L133.737 114.693L79.9071 41.9401Z" fill="#F9F9F9"/>
<path d="M103.091 23.1507C112.698 19.9348 122.75 18.251 132.88 18.161L133.737 114.693L103.091 23.1507Z" fill="#F9F9F9"/>
<path d="M132.853 9.11059C143.932 9.01776 154.957 10.6694 165.523 14.0048L133.737 114.693L132.853 9.11059Z" fill="#F9F9F9"/>
<path d="M169.163 2.5C180.937 6.21746 192.051 11.7648 202.099 18.9384L133.737 114.693L169.163 2.5Z" fill="#F9F9F9"/>
<path d="M240.442 35.7423C232.158 24.5451 222.162 14.7218 210.823 6.6328L133.737 114.693L240.442 35.7423Z" fill="#F9F9F9"/>
<path d="M133.737 114.696L219.811 142.663C222.745 133.631 224.24 124.193 224.24 114.696H133.737ZM133.737 114.696L211.848 171.423C217.801 163.227 222.426 154.144 225.555 144.509L133.737 114.696ZM133.737 114.696L195.773 200.137C204.739 193.627 212.624 185.746 219.139 176.785L133.737 114.696ZM133.737 114.696L170.052 226.605C181.795 222.794 192.865 217.159 202.856 209.906L133.737 114.696ZM133.737 114.696L174.755 240.937C161.508 245.241 147.666 247.433 133.737 247.433L133.737 114.696ZM133.737 114.696L105.771 200.769C114.803 203.704 124.24 205.198 133.737 205.198L133.737 114.696ZM133.737 114.696L77.0102 192.806C85.2068 198.759 94.2892 203.385 103.924 206.513L133.737 114.696ZM133.737 114.696L48.2968 176.731C54.8065 185.697 62.6869 193.582 71.6487 200.098L133.737 114.696ZM133.737 114.696L21.8283 151.01C25.639 162.753 31.2743 173.824 38.5274 183.815L133.737 114.696ZM133.737 114.696L7.49663 155.714C3.19237 142.467 0.999999 128.625 1 114.696L133.737 114.696ZM133.735 114.679L238.144 80.2565C234.478 69.1367 229.059 58.6739 222.092 49.2637L133.735 114.679ZM133.735 114.679L251 114.17C250.947 101.865 248.957 89.6447 245.103 77.9582L133.735 114.679ZM133.738 114.693L33.049 82.9071C29.7136 93.4729 27.9328 103.616 28.0256 114.696L133.738 114.693ZM133.738 114.693L37.9826 46.3308C30.809 56.379 25.2616 67.4936 21.5442 79.2667L133.738 114.693ZM133.738 114.693L25.677 37.6076C33.7659 26.2682 43.5893 16.2726 54.7864 7.98781L133.738 114.693ZM133.737 114.693L105.024 28.8665C96.0174 31.8795 87.5415 36.2914 79.9071 41.9401L133.737 114.693ZM133.737 114.693L132.88 18.161C122.75 18.251 112.698 19.9348 103.091 23.1507L133.737 114.693ZM133.737 114.693L165.523 14.0048C154.957 10.6694 143.932 9.01776 132.853 9.11059L133.737 114.693ZM133.737 114.693L202.099 18.9384C192.051 11.7648 180.937 6.21746 169.163 2.5L133.737 114.693ZM133.737 114.693L210.823 6.6328C222.162 14.7218 232.158 24.5451 240.442 35.7423L133.737 114.693Z" stroke="black" stroke-width="2" stroke-linejoin="round"/>
</svg>
