<svg width="252" height="250" viewBox="0 0 252 250" fill="none" xmlns="http://www.w3.org/2000/svg">
<path d="M149.22 151.805C149.22 157.335 148.35 162.83 146.643 168.089L96.5748 151.805H149.22Z" fill="#F9F9F9"/>
<path d="M149.984 169.164C148.165 174.774 145.474 180.063 142.011 184.835L96.5748 151.805L149.984 169.164Z" fill="#F9F9F9"/>
<path d="M144.833 186.924C141.152 191.993 136.696 196.45 131.63 200.132L96.5748 151.805L144.833 186.924Z" fill="#F9F9F9"/>
<path d="M133.688 202.978C128.323 206.876 122.379 209.905 116.074 211.953L96.5748 151.805L133.688 202.978Z" fill="#F9F9F9"/>
<path d="M96.5748 218.553C103.572 218.553 110.526 217.451 117.181 215.287L96.5748 151.805V218.553Z" fill="#F9F9F9"/>
<path d="M96.5747 221.142C89.3059 221.142 82.0823 219.997 75.1692 217.748L96.5748 151.805L96.5747 221.142Z" fill="#F9F9F9"/>
<path d="M73.7561 222.149C66.3817 219.752 59.4301 216.208 53.1565 211.648L96.5748 151.805L73.7561 222.149Z" fill="#F9F9F9"/>
<path d="M50.4106 215.365C43.7474 210.516 37.8882 204.647 33.048 197.974L96.5748 151.805L50.4106 215.365Z" fill="#F9F9F9"/>
<path d="M29.3079 200.686C24.1835 193.62 20.2021 185.791 17.5098 177.487L96.5748 151.805L29.3079 200.686Z" fill="#F9F9F9"/>
<path d="M8.83322 151.805C8.83322 161.021 10.2824 170.18 13.1276 178.945L96.5748 151.805L8.83322 151.805Z" fill="#F9F9F9"/>
<path d="M96.5747 221.142C89.3059 221.142 82.0823 219.997 75.1692 217.748L96.5748 151.805L96.5747 221.142Z" fill="#F9F9F9"/>
<path d="M73.7561 222.149C66.3817 219.752 59.4301 216.208 53.1565 211.648L96.5748 151.805L73.7561 222.149Z" fill="#F9F9F9"/>
<path d="M50.4106 215.365C43.7474 210.516 37.8882 204.647 33.048 197.974L96.5748 151.805L50.4106 215.365Z" fill="#F9F9F9"/>
<path d="M29.3079 200.686C24.1835 193.62 20.2021 185.791 17.5098 177.487L96.5748 151.805L29.3079 200.686Z" fill="#F9F9F9"/>
<path d="M8.83322 151.805C8.83322 161.021 10.2824 170.18 13.1276 178.945L96.5748 151.805L8.83322 151.805Z" fill="#F9F9F9"/>
<path d="M2.3683 151.806C2.3683 141.91 3.92427 132.077 6.9791 122.666L96.575 151.806L2.3683 151.806Z" fill="#F9F9F9"/>
<path d="M1 120.742C4.25651 110.704 9.07131 101.24 15.2676 92.6999L96.575 151.806L1 120.742Z" fill="#F9F9F9"/>
<path d="M10.2177 88.9608C16.8059 79.8901 24.7794 71.9138 33.8455 65.3249L96.575 151.805L10.2177 88.9608Z" fill="#F9F9F9"/>
<path d="M30.1617 60.2341C39.7615 53.2582 50.3985 47.8383 61.6821 44.1732L96.575 151.806L30.1617 60.2341Z" fill="#F9F9F9"/>
<path d="M96.5749 32.3613C84.053 32.3613 71.6093 34.3341 59.7003 38.2073L96.5748 151.805L96.5749 32.3613Z" fill="#F9F9F9"/>
<path d="M96.5743 29.7728C109.367 29.7728 122.081 31.7884 134.248 35.7455L96.5743 151.805V29.7728Z" fill="#F9F9F9"/>
<path d="M136.735 28C149.714 32.2184 161.949 38.4553 172.99 46.4819L96.574 151.805L136.735 28Z" fill="#F9F9F9"/>
<path d="M177.824 39.9409C189.552 48.4751 199.864 58.8037 208.382 70.5476L96.5754 151.806L177.824 39.9409Z" fill="#F9F9F9"/>
<path d="M214.964 65.775C223.983 78.2103 230.99 91.9892 235.729 106.606L96.5743 151.805L214.964 65.775Z" fill="#F9F9F9"/>
<path d="M251 151.805C251 135.585 248.449 119.466 243.442 104.039L96.5748 151.805L251 151.805Z" fill="#F9F9F9"/>
<path d="M96.5748 151.805L146.643 168.089C148.35 162.83 149.22 157.335 149.22 151.805H96.5748ZM96.5748 151.805L142.011 184.835C145.474 180.063 148.165 174.774 149.984 169.164L96.5748 151.805ZM96.5748 151.805L131.63 200.132C136.696 196.45 141.152 191.993 144.833 186.924L96.5748 151.805ZM96.5748 151.805L116.074 211.953C122.379 209.905 128.323 206.876 133.688 202.978L96.5748 151.805ZM96.5748 151.805L117.181 215.287C110.526 217.451 103.572 218.553 96.5748 218.553V151.805ZM96.5748 151.805L75.1692 217.748C82.0823 219.997 89.3059 221.142 96.5747 221.142L96.5748 151.805ZM96.5748 151.805L53.1565 211.648C59.4301 216.208 66.3817 219.752 73.7561 222.149L96.5748 151.805ZM96.5748 151.805L33.048 197.974C37.8882 204.647 43.7474 210.516 50.4106 215.365L96.5748 151.805ZM96.5748 151.805L17.5098 177.487C20.2021 185.791 24.1835 193.62 29.3079 200.686L96.5748 151.805ZM96.5748 151.805L13.1276 178.945C10.2824 170.18 8.83322 161.021 8.83322 151.805L96.5748 151.805ZM96.5748 151.805L59.7003 38.2073C71.6093 34.3341 84.053 32.3613 96.5748 32.3613L96.5748 151.805ZM96.5748 151.805L243.442 104.039C248.449 119.466 251 135.585 251 151.805L96.5748 151.805ZM96.575 151.806L6.9791 122.666C3.92427 132.077 2.3683 141.91 2.3683 151.806L96.575 151.806ZM96.575 151.806L15.2676 92.6999C9.07131 101.24 4.25651 110.704 1 120.742L96.575 151.806ZM96.575 151.806L61.6821 44.1732C50.3985 47.8383 39.7615 53.2582 30.1617 60.2341L96.575 151.806ZM10.2177 88.9608C16.8059 79.8901 24.7794 71.9138 33.8455 65.3249L96.575 151.805L10.2177 88.9608ZM96.5743 29.7728C109.367 29.7728 122.081 31.7884 134.248 35.7455L96.5743 151.805V29.7728ZM136.735 28C149.714 32.2184 161.949 38.4553 172.99 46.4819L96.574 151.805L136.735 28ZM177.824 39.9409C189.552 48.4751 199.864 58.8037 208.382 70.5476L96.5754 151.806L177.824 39.9409ZM214.964 65.775C223.983 78.2103 230.99 91.9892 235.729 106.606L96.5743 151.805L214.964 65.775Z" stroke="black" stroke-width="2" stroke-linejoin="round"/>
</svg>
