<svg width="250" height="252" viewBox="0 0 250 252" fill="none" xmlns="http://www.w3.org/2000/svg">
<path d="M215.663 152.939C215.663 158.633 214.767 164.292 213.008 169.707L161.41 152.939H215.663Z" fill="#F9F9F9"/>
<path d="M216.451 170.814C214.576 176.591 211.803 182.037 208.235 186.951L161.41 152.939L216.451 170.814Z" fill="#F9F9F9"/>
<path d="M212.605 190.166C208.7 195.539 203.973 200.264 198.598 204.167L161.41 152.939L212.605 190.166Z" fill="#F9F9F9"/>
<path d="M202.844 210.025C196.855 214.374 190.219 217.752 183.179 220.037L161.41 152.939L202.844 210.025Z" fill="#F9F9F9"/>
<path d="M161.41 232.526C169.76 232.526 178.058 231.211 185.999 228.63L161.41 152.939L161.41 232.526Z" fill="#F9F9F9"/>
<path d="M161.41 243.378C151.921 243.378 142.492 241.885 133.468 238.952L161.41 152.939V243.378Z" fill="#F9F9F9"/>
<path d="M129.575 251C119.287 247.659 109.589 242.719 100.836 236.361L161.41 152.939L129.575 251Z" fill="#F9F9F9"/>
<path d="M92.2865 248.035C82.3094 240.78 73.5362 231.999 66.289 222.016L161.41 152.939L92.2865 248.035Z" fill="#F9F9F9"/>
<path d="M53.113 231.573C44.863 220.207 38.4531 207.612 34.1186 194.252L161.41 152.939L53.113 231.573Z" fill="#F9F9F9"/>
<path d="M9.5 152.939C9.5 168.882 12.009 184.727 16.935 199.89L161.41 152.939L9.5 152.939Z" fill="#F9F9F9"/>
<path d="M161.41 98.6748C167.103 98.6748 172.76 99.5711 178.175 101.331L161.41 152.939L161.41 98.6748Z" fill="#F9F9F9"/>
<path d="M179.282 97.8866C185.058 99.7624 190.502 102.536 195.416 106.105L161.41 152.939L179.282 97.8866Z" fill="#F9F9F9"/>
<path d="M198.63 101.733C204.002 105.64 208.726 110.367 212.629 115.743L161.41 152.939L198.63 101.733Z" fill="#F9F9F9"/>
<path d="M218.485 111.496C222.833 117.487 226.211 124.124 228.496 131.165L161.41 152.939L218.485 111.496Z" fill="#F9F9F9"/>
<path d="M240.981 152.939C240.981 144.587 239.667 136.288 237.087 128.345L161.41 152.939L240.981 152.939Z" fill="#F9F9F9"/>
<path d="M70.9872 152.939C70.9872 143.448 72.4807 134.017 75.4128 124.991L161.41 152.939H70.9872Z" fill="#F9F9F9"/>
<path d="M63.367 121.098C66.7076 110.808 71.6467 101.108 78.003 92.3537L161.41 152.939L63.367 121.098Z" fill="#F9F9F9"/>
<path d="M66.3319 83.8023C73.5854 73.8233 82.364 65.0484 92.3456 57.7998L161.41 152.939L66.3319 83.8023Z" fill="#F9F9F9"/>
<path d="M82.7903 44.6213C94.1545 36.3697 106.746 29.9586 120.104 25.6233L161.41 152.939L82.7903 44.6213Z" fill="#F9F9F9"/>
<path d="M161.41 1C145.469 0.999998 129.628 3.50951 114.467 8.4364L161.41 152.939L161.41 1Z" fill="#F9F9F9"/>
<path d="M161.41 152.939L213.008 169.707C214.767 164.292 215.663 158.633 215.663 152.939H161.41ZM161.41 152.939L208.235 186.951C211.803 182.037 214.576 176.591 216.451 170.814L161.41 152.939ZM161.41 152.939L198.598 204.167C203.973 200.264 208.7 195.539 212.605 190.166L161.41 152.939ZM161.41 152.939L183.179 220.037C190.219 217.752 196.855 214.374 202.844 210.025L161.41 152.939ZM161.41 152.939L185.999 228.63C178.058 231.211 169.76 232.526 161.41 232.526L161.41 152.939ZM161.41 152.939L133.468 238.952C142.492 241.885 151.921 243.378 161.41 243.378V152.939ZM161.41 152.939L100.836 236.361C109.589 242.719 119.287 247.659 129.575 251L161.41 152.939ZM161.41 152.939L66.289 222.016C73.5362 231.999 82.3094 240.78 92.2865 248.035L161.41 152.939ZM161.41 152.939L34.1186 194.252C38.4531 207.612 44.863 220.207 53.113 231.573L161.41 152.939ZM161.41 152.939L16.935 199.89C12.009 184.727 9.5 168.882 9.5 152.939L161.41 152.939ZM161.41 152.939L178.175 101.331C172.76 99.5711 167.103 98.6748 161.41 98.6748L161.41 152.939ZM161.41 152.939L195.416 106.105C190.502 102.536 185.058 99.7624 179.282 97.8866L161.41 152.939ZM161.41 152.939L212.629 115.743C208.726 110.367 204.002 105.64 198.63 101.733L161.41 152.939ZM161.41 152.939L228.496 131.165C226.211 124.124 222.833 117.487 218.485 111.496L161.41 152.939ZM161.41 152.939L237.087 128.345C239.667 136.288 240.981 144.587 240.981 152.939L161.41 152.939ZM161.41 152.939L75.4128 124.991C72.4807 134.017 70.9872 143.448 70.9872 152.939H161.41ZM161.41 152.939L78.003 92.3537C71.6467 101.108 66.7076 110.808 63.367 121.098L161.41 152.939ZM161.41 152.939L92.3456 57.7998C82.364 65.0484 73.5854 73.8233 66.3319 83.8023L161.41 152.939ZM161.41 152.939L120.104 25.6233C106.746 29.9586 94.1545 36.3697 82.7903 44.6213L161.41 152.939ZM161.41 152.939L114.467 8.4364C129.628 3.50951 145.469 0.999998 161.41 1L161.41 152.939Z" stroke="black" stroke-width="2" stroke-linejoin="round"/>
</svg>
