<svg width="250" height="252" viewBox="0 0 250 252" fill="none" xmlns="http://www.w3.org/2000/svg">
<path d="M210.666 142.225C210.666 148.541 209.672 154.818 207.72 160.825L150.474 142.225H210.666Z" fill="#F9F9F9"/>
<path d="M211.541 162.053C209.46 168.462 206.384 174.502 202.425 179.954L150.474 142.225L211.541 162.053Z" fill="#F9F9F9"/>
<path d="M207.274 183.52C202.941 189.48 197.696 194.721 191.733 199.051L150.474 142.225L207.274 183.52Z" fill="#F9F9F9"/>
<path d="M196.444 205.548C189.799 210.372 182.437 214.12 174.626 216.654L150.474 142.225L196.444 205.548Z" fill="#F9F9F9"/>
<path d="M150.474 230.507C159.738 230.507 168.944 229.049 177.755 226.186L150.474 142.225L150.474 230.507Z" fill="#F9F9F9"/>
<path d="M69.4689 201.406C63.2587 192.905 58.4252 183.48 55.1457 173.477L150.474 142.225L69.4689 201.406Z" fill="#F9F9F9"/>
<path d="M115.155 251C103.74 247.294 92.9806 241.814 83.2701 234.762L150.474 142.225L115.155 251Z" fill="#F9F9F9"/>
<path d="M73.7844 247.711C62.7153 239.663 52.9817 229.923 44.9411 218.849L150.474 142.225L73.7844 247.711Z" fill="#F9F9F9"/>
<path d="M9.33858 188.327C4.50084 173.517 2.02435 158.037 2 142.457L150.474 142.225L9.33858 188.327Z" fill="#F9F9F9"/>
<path d="M126.379 216.673C134.191 219.201 142.352 220.484 150.564 220.475L150.474 142.225L126.379 216.673Z" fill="#F9F9F9"/>
<path d="M150.474 82.0327C156.791 82.0327 163.068 83.0269 169.075 84.9787L150.474 142.225L150.474 82.0327Z" fill="#F9F9F9"/>
<path d="M170.303 81.1584C176.711 83.2391 182.751 86.3154 188.203 90.2745L150.474 142.225L170.303 81.1584Z" fill="#F9F9F9"/>
<path d="M128.757 75.4431C135.765 73.1642 143.087 72.0025 150.456 72.0006L150.474 142.225L128.757 75.4431Z" fill="#F9F9F9"/>
<path d="M213.797 96.2548C218.621 102.9 222.369 110.262 224.904 118.073L150.474 142.225L213.797 96.2548Z" fill="#F9F9F9"/>
<path d="M238.756 142.225C238.756 132.961 237.298 123.755 234.436 114.944L150.474 142.225H238.756Z" fill="#F9F9F9"/>
<path d="M50.1537 142.225C50.1537 131.698 51.8106 121.236 55.0637 111.224L150.474 142.225L50.1537 142.225Z" fill="#F9F9F9"/>
<path d="M41.6993 106.906C45.4055 95.4912 50.8853 84.7313 57.9374 75.0209L150.474 142.225L41.6993 106.906Z" fill="#F9F9F9"/>
<path d="M44.9887 65.5352C53.0362 54.466 62.7758 44.7325 73.85 36.6918L150.474 142.225L44.9887 65.5352Z" fill="#F9F9F9"/>
<path d="M63.2488 22.0735C75.857 12.9205 89.8273 5.80894 104.647 1L150.474 142.225L63.2488 22.0735Z" fill="#F9F9F9"/>
<path d="M248.219 71.2659C240.773 61.009 231.759 51.988 221.508 44.5341L150.474 142.225L248.219 71.2659Z" fill="#F9F9F9"/>
<path d="M150.474 142.225L207.72 160.825C209.672 154.818 210.666 148.541 210.666 142.225H150.474ZM150.474 142.225L202.425 179.954C206.384 174.502 209.46 168.462 211.541 162.053L150.474 142.225ZM150.474 142.225L191.733 199.051C197.696 194.721 202.941 189.48 207.274 183.52L150.474 142.225ZM150.474 142.225L174.626 216.654C182.437 214.12 189.799 210.372 196.444 205.548L150.474 142.225ZM150.474 142.225L177.755 226.186C168.944 229.049 159.738 230.507 150.474 230.507L150.474 142.225ZM150.474 142.225L55.1457 173.477C58.4252 183.48 63.2587 192.905 69.4689 201.406L150.474 142.225ZM150.474 142.225L83.2701 234.762C92.9806 241.814 103.74 247.294 115.155 251L150.474 142.225ZM150.474 142.225L44.9411 218.849C52.9817 229.923 62.7153 239.663 73.7845 247.711L150.474 142.225ZM150.474 142.225L2 142.457C2.02435 158.037 4.50084 173.517 9.33858 188.327L150.474 142.225ZM150.474 142.225L150.564 220.475C142.352 220.484 134.191 219.201 126.379 216.673L150.474 142.225ZM150.474 142.225L169.075 84.9787C163.068 83.0269 156.791 82.0327 150.474 82.0327L150.474 142.225ZM150.474 142.225L188.203 90.2745C182.751 86.3154 176.711 83.2391 170.303 81.1584L150.474 142.225ZM150.474 142.225L150.456 72.0006C143.087 72.0025 135.765 73.1642 128.757 75.4431L150.474 142.225ZM150.474 142.225L224.904 118.073C222.369 110.262 218.621 102.9 213.797 96.2548L150.474 142.225ZM150.474 142.225L234.436 114.944C237.298 123.755 238.756 132.961 238.756 142.225H150.474ZM150.474 142.225L55.0637 111.224C51.8106 121.236 50.1537 131.698 50.1537 142.225L150.474 142.225ZM150.474 142.225L57.9374 75.0209C50.8853 84.7313 45.4055 95.4912 41.6993 106.906L150.474 142.225ZM150.474 142.225L73.85 36.6918C62.7758 44.7325 53.0362 54.466 44.9887 65.5352L150.474 142.225ZM150.474 142.225L104.647 1C89.8273 5.80894 75.857 12.9205 63.2488 22.0735L150.474 142.225ZM150.474 142.225L221.508 44.5341C231.759 51.988 240.773 61.009 248.219 71.2659L150.474 142.225Z" stroke="black" stroke-width="2" stroke-linejoin="round"/>
</svg>
