<svg width="250" height="250" viewBox="0 0 250 250" fill="none" xmlns="http://www.w3.org/2000/svg">
<path d="M137.545 74.9378C136.742 66.6195 139.577 55.5504 143.047 43.7741C151.024 20.3175 136.952 7.3246 130.863 1.87695C146.721 16.452 137.719 30.4337 130.264 45.0267C122.988 59.6027 117.22 74.7832 144.059 91.7341C142.01 88.9125 137.986 83.2784 137.545 74.9378Z" fill="#F9F9F9"/>
<path d="M114.652 72.9841C121.4 80.8409 135.705 87.8048 144.096 91.7842L144.059 91.7341C117.22 74.7832 122.988 59.6027 130.264 45.0267C137.719 30.4337 146.721 16.452 130.863 1.87695C134.333 5.08322 138.9 11.1481 136.257 18.8192C134.285 26.5082 125.11 35.7734 116.45 45.9616C107.676 56.1617 107.394 65.0194 114.652 72.9841Z" fill="#F9F9F9"/>
<path d="M105.681 77.1552C100.143 70.8865 95.9299 60.2789 91.8187 48.7124C84.4832 25.046 65.4854 22.8046 57.3349 21.9775C78.7299 24.4467 79.6648 41.0473 82.1879 57.2464C84.8668 73.3317 89.1338 89.0094 120.885 86.9358C117.589 85.8631 110.972 83.6876 105.681 77.1552Z" fill="#F9F9F9"/>
<path d="M86.0115 89.0274C96.0857 91.4246 111.739 88.6618 120.885 86.9358C89.1338 89.0094 84.8668 73.3317 82.1879 57.2464C79.6648 41.0473 78.7299 24.4467 57.3349 21.9775C62.0034 22.5469 69.237 24.7703 71.6342 32.5253C74.5588 39.9027 72.641 52.7337 71.5623 66.1281C70.4836 79.5225 75.4578 86.8519 86.0115 89.0274Z" fill="#F9F9F9"/>
<path d="M81.2059 97.6751C73.0494 95.8712 63.4007 89.7583 53.2725 82.8184C33.4296 67.9797 16.7271 77.3468 9.6553 81.44C9.95833 81.2726 10.278 81.104 10.6129 80.9374C28.7781 71.313 39.1342 83.9573 50.5037 95.3798C62.1241 106.814 74.7874 116.997 99.2569 96.6503C95.9607 97.723 89.3324 99.8506 81.2059 97.6751Z" fill="#F9F9F9"/>
<path d="M72.2883 118.824C81.8352 114.857 92.8743 103.422 99.2569 96.6503C74.7874 116.997 62.1241 106.814 50.5037 95.3798C39.1342 83.9573 28.7781 71.313 10.6129 80.9374C14.8211 78.8429 21.4237 77.0471 27.4246 81.5659C34.1248 85.8149 40.1238 97.4054 47.1176 108.792C54.1355 120.263 62.4717 123.271 72.2883 118.824Z" fill="#F9F9F9"/>
<path d="M73.4443 128.641C65.7853 131.973 54.3865 132.704 42.1129 133.04C17.3617 132.728 9.35504 150.12 6.03491 157.575C6.26384 157.083 6.52438 156.564 6.81865 156.033C15.9346 138.26 31.5416 142.335 47.2788 144.87C63.3617 147.261 79.5638 148.078 87.4119 117.462C87.4227 117.376 87.4334 117.291 87.444 117.206C85.4304 120.011 81.2952 125.644 73.4443 128.641Z" fill="#F9F9F9"/>
<path d="M52.4208 157.683C64.8264 162.849 73.3365 160.386 78.6702 151.019C84.0145 142.278 86.2464 126.735 87.4119 117.462C79.5638 148.078 63.3617 147.261 47.2788 144.87C31.5416 142.335 15.9346 138.26 6.81865 156.033C9.0742 151.958 13.3113 147.109 20.4841 147.231C28.4068 146.734 40.0153 152.517 52.4208 157.683Z" fill="#F9F9F9"/>
<path d="M85.4302 158.288C81.1872 165.486 72.3894 172.773 62.6568 180.259C43.1704 194.021 45.9187 211.956 47.7173 220.411C44.071 200.035 59.3383 194.079 73.7558 186.779C88.2107 179.264 101.792 170.373 90.0568 140.876C90.0563 144.332 89.9829 151.265 85.4302 158.288Z" fill="#F9F9F9"/>
<path d="M102.828 173.349C101.989 163.005 94.5276 148.993 90.0568 140.831V140.876C101.792 170.373 88.2107 179.264 73.7558 186.779C59.3383 194.079 44.071 200.035 47.7173 220.411C47.7867 220.737 47.8547 221.05 47.9199 221.347C47.015 216.732 46.8891 209.139 53.5294 204.489C59.6483 199.424 72.4434 197.279 85.5141 194.169C98.5849 191.058 104.027 184.064 102.828 173.349Z" fill="#F9F9F9"/>
<path d="M112.507 175.219C113.31 183.537 110.481 194.606 107.005 206.383C99.3167 229.042 112.171 241.937 118.564 247.688C103.575 233.326 112.434 219.525 119.794 205.13C127.077 190.552 132.84 175.369 105.988 158.416C108.035 161.235 112.065 166.871 112.507 175.219Z" fill="#F9F9F9"/>
<path d="M135.4 177.173C128.658 169.316 114.347 162.346 105.956 158.372L105.988 158.416C132.84 175.369 127.077 190.552 119.794 205.13C112.434 219.525 103.575 233.326 118.564 247.688C118.788 247.89 119.005 248.083 119.213 248.268C115.743 245.061 111.182 238.997 113.819 231.325C115.791 223.648 124.828 214.395 133.602 204.195C142.376 193.995 142.658 185.137 135.4 177.173Z" fill="#F9F9F9"/>
<path d="M144.372 173.001C149.91 179.27 154.123 189.878 158.234 201.444C165.57 225.111 184.591 227.352 192.724 228.179C171.323 225.71 170.388 209.109 167.865 192.91C165.186 176.825 160.919 161.147 129.168 163.221C132.464 164.294 139.08 166.469 144.372 173.001Z" fill="#F9F9F9"/>
<path d="M164.041 161.129C153.967 158.732 138.313 161.495 129.168 163.221C160.919 161.147 165.186 176.825 167.865 192.91C170.388 209.109 171.323 225.71 192.724 228.179C188.049 227.616 180.816 225.386 178.419 217.631C175.494 210.254 177.412 197.423 178.49 184.029C179.569 170.634 174.595 163.305 164.041 161.129Z" fill="#F9F9F9"/>
<path d="M168.848 152.481C177.004 154.285 186.653 160.398 196.781 167.344C216.63 182.182 233.332 172.809 240.392 168.698C221.634 179.282 211.116 166.397 199.556 154.776C187.929 143.342 175.266 133.16 150.797 153.506C154.093 152.433 160.727 150.306 168.848 152.481Z" fill="#F9F9F9"/>
<path d="M177.765 131.332C168.224 135.299 157.179 146.734 150.797 153.506C175.266 133.16 187.929 143.342 199.556 154.776C211.116 166.397 221.634 179.282 240.392 168.698C236.281 170.97 229.101 173.451 222.623 168.572C215.911 164.323 209.954 152.835 202.936 141.364C195.918 129.893 187.588 126.885 177.765 131.332Z" fill="#F9F9F9"/>
<path d="M176.585 121.491C184.25 118.159 195.648 117.428 207.922 117.093C232.691 117.458 240.704 100.031 244 92.5572C235.04 112.142 218.961 107.905 202.774 105.298C186.653 102.901 170.412 102.086 162.585 132.926C164.598 130.121 168.734 124.488 176.585 121.491Z" fill="#F9F9F9"/>
<path d="M171.371 99.1136C165.977 107.959 163.783 123.697 162.585 132.926C170.412 102.086 186.653 102.901 202.774 105.298C218.961 107.905 235.04 112.142 244 92.5572C242.016 96.8242 237.659 103.039 229.551 102.901C221.628 103.399 210.02 97.6153 197.614 92.4493C185.208 87.2834 176.698 89.7465 171.371 99.1136Z" fill="#F9F9F9"/>
<path d="M164.623 91.8682C168.872 84.6706 177.663 77.3831 187.396 69.8978C207.36 55.7986 203.986 37.3375 202.228 29.171C206.267 50.0104 190.849 56.009 176.303 63.3774C161.838 70.8974 148.242 79.7952 160.02 109.341C160.02 105.866 160.051 98.9118 164.623 91.8682Z" fill="#F9F9F9"/>
<path d="M147.255 76.8377C148.088 87.1817 155.549 101.193 160.02 109.356V109.341C148.242 79.7952 161.838 70.8974 176.303 63.3774C190.849 56.009 206.267 50.0104 202.228 29.171C202.204 29.0586 202.18 28.9481 202.157 28.8397C203.062 33.4543 203.188 41.0474 196.547 45.698C190.434 50.7621 177.633 52.9076 164.563 56.018C151.492 59.1284 146.056 66.1222 147.255 76.8377Z" fill="#F9F9F9"/>
<path d="M129.168 163.221C132.464 164.294 139.08 166.469 144.372 173.001C149.91 179.27 154.123 189.878 158.234 201.444C165.57 225.111 184.591 227.352 192.724 228.179M129.168 163.221C138.313 161.495 153.967 158.732 164.041 161.129C174.595 163.305 179.569 170.634 178.49 184.029C177.412 197.423 175.494 210.254 178.419 217.631C180.816 225.386 188.049 227.616 192.724 228.179M129.168 163.221C160.919 161.147 165.186 176.825 167.865 192.91C170.388 209.109 171.323 225.71 192.724 228.179M105.956 158.372C114.347 162.346 128.658 169.316 135.4 177.173C142.658 185.137 142.376 193.995 133.602 204.195C124.828 214.395 115.791 223.648 113.819 231.325C111.182 238.997 115.743 245.061 119.213 248.268C119.005 248.083 118.788 247.89 118.564 247.688M105.956 158.372C105.967 158.387 105.977 158.401 105.988 158.416M105.956 158.372L105.988 158.416M119.195 248.28C118.98 248.082 118.77 247.885 118.564 247.688M105.938 158.384C105.955 158.395 105.971 158.405 105.988 158.416M90.0568 140.831C94.5276 148.993 101.989 163.005 102.828 173.349C104.027 184.064 98.5849 191.058 85.5141 194.169C72.4434 197.279 59.6483 199.424 53.5294 204.489C46.8891 209.139 47.015 216.732 47.9199 221.347C47.8547 221.05 47.7867 220.737 47.7173 220.411M90.0568 140.831C90.0568 140.846 90.0568 140.861 90.0568 140.876M90.0568 140.831V140.876M47.89 221.317C47.8283 221.012 47.7708 220.71 47.7173 220.411M90.0269 140.801C90.0369 140.826 90.0469 140.851 90.0568 140.876M6.05289 157.611C6.30274 157.067 6.55804 156.541 6.81865 156.033M87.468 117.242C87.4494 117.316 87.4307 117.389 87.412 117.462M99.2569 96.6503C95.9607 97.723 89.3324 99.8506 81.2059 97.6751C73.0494 95.8712 63.4006 89.7583 53.2725 82.8184C33.4296 67.9797 16.7271 77.3468 9.6553 81.44C9.95833 81.2726 10.278 81.104 10.6129 80.9374M99.2569 96.6503C92.8743 103.422 81.8352 114.857 72.2883 118.824C62.4717 123.271 54.1355 120.263 47.1176 108.792C40.1238 97.4054 34.1248 85.8149 27.4246 81.5659C21.4237 77.0471 14.8211 78.8429 10.6129 80.9374M99.2569 96.6503C74.7874 116.997 62.1241 106.814 50.5037 95.3798C39.1342 83.9573 28.7781 71.313 10.6129 80.9374M9.6613 81.458C9.98087 81.2777 10.2981 81.1042 10.6129 80.9374M120.885 86.9358C117.589 85.8631 110.972 83.6876 105.681 77.1552C100.143 70.8865 95.9299 60.2789 91.8187 48.7124C84.4832 25.046 65.4854 22.8046 57.3349 21.9775M120.885 86.9358C111.739 88.6618 96.0857 91.4246 86.0115 89.0274C75.4578 86.8519 70.4836 79.5225 71.5623 66.1281C72.641 52.7337 74.5588 39.9027 71.6342 32.5253C69.237 24.7703 62.0034 22.5469 57.3349 21.9775M120.885 86.9358C89.1338 89.0094 84.8668 73.3317 82.1879 57.2464C79.6648 41.0473 78.7299 24.4467 57.3349 21.9775M144.096 91.7842C135.705 87.8048 121.4 80.8409 114.652 72.9841C107.394 65.0194 107.676 56.1617 116.45 45.9616C125.11 35.7734 134.285 26.5082 136.257 18.8192C138.9 11.1481 134.333 5.08322 130.863 1.87695M144.096 91.7842C144.084 91.7676 144.072 91.7509 144.059 91.7341M144.096 91.7842L144.059 91.7341M130.863 1.87695C136.952 7.3246 151.024 20.3175 143.047 43.7741C139.577 55.5504 136.742 66.6195 137.545 74.9378C137.986 83.2784 142.01 88.9125 144.059 91.7341M130.863 1.87695C146.721 16.452 137.719 30.4337 130.264 45.0267C122.988 59.6027 117.22 74.7832 144.059 91.7341M144.12 91.7722C144.1 91.7595 144.079 91.7468 144.059 91.7341M160.02 109.356C155.549 101.193 148.088 87.1817 147.255 76.8377C146.056 66.1222 151.492 59.1284 164.563 56.018C177.633 52.9076 190.434 50.7621 196.547 45.698C203.188 41.0474 203.062 33.4543 202.157 28.8397C202.18 28.9481 202.204 29.0586 202.228 29.171M160.02 109.356C160.02 109.351 160.02 109.346 160.02 109.341M160.02 109.356V109.341M202.163 28.8397C202.185 28.9505 202.207 29.061 202.228 29.171M160.026 109.356C160.024 109.351 160.022 109.346 160.02 109.341M162.585 132.926C164.598 130.121 168.734 124.488 176.585 121.491C184.25 118.159 195.648 117.428 207.922 117.093C232.691 117.458 240.704 100.031 244 92.5572M162.585 132.926C163.783 123.697 165.977 107.959 171.371 99.1136C176.698 89.7465 185.208 87.2834 197.614 92.4493C210.02 97.6153 221.628 103.399 229.551 102.901C237.659 103.039 242.016 96.8242 244 92.5572M162.585 132.926C170.412 102.086 186.653 102.901 202.774 105.298C218.961 107.905 235.04 112.142 244 92.5572M150.797 153.506C154.093 152.433 160.727 150.306 168.848 152.481C177.004 154.285 186.653 160.398 196.781 167.344C216.63 182.182 233.332 172.809 240.392 168.698M150.797 153.506C157.179 146.734 168.224 135.299 177.765 131.332C187.588 126.885 195.918 129.893 202.936 141.364C209.954 152.835 215.911 164.323 222.623 168.572C229.101 173.451 236.281 170.97 240.392 168.698M150.797 153.506C175.266 133.16 187.929 143.342 199.556 154.776C211.116 166.397 221.634 179.282 240.392 168.698M6.81865 156.033C6.52438 156.564 6.26384 157.083 6.03491 157.575C9.35504 150.12 17.3617 132.728 42.1129 133.04C54.3865 132.704 65.7853 131.973 73.4443 128.641C81.2952 125.644 85.4304 120.011 87.444 117.206C87.4334 117.291 87.4227 117.376 87.412 117.462M6.81865 156.033C15.9346 138.26 31.5416 142.335 47.2788 144.87C63.3617 147.261 79.5638 148.078 87.412 117.462M6.81865 156.033C9.0742 151.958 13.3113 147.109 20.4841 147.231C28.4068 146.734 40.0153 152.517 52.4208 157.683C64.8264 162.849 73.3365 160.386 78.6702 151.019C84.0145 142.278 86.2464 126.735 87.412 117.462M47.7173 220.411C45.9187 211.956 43.1704 194.021 62.6568 180.259C72.3894 172.773 81.1872 165.486 85.4302 158.288C89.9829 151.265 90.0563 144.332 90.0568 140.876M47.7173 220.411C44.071 200.035 59.3383 194.079 73.7558 186.779C88.2107 179.264 101.792 170.373 90.0568 140.876M118.564 247.688C112.171 241.937 99.3167 229.042 107.005 206.383C110.481 194.606 113.31 183.537 112.507 175.219C112.065 166.871 108.035 161.235 105.988 158.416M118.564 247.688C103.575 233.326 112.434 219.525 119.794 205.13C127.077 190.552 132.84 175.369 105.988 158.416M202.228 29.171C203.986 37.3375 207.36 55.7986 187.396 69.8978C177.663 77.3831 168.872 84.6706 164.623 91.8682C160.051 98.9118 160.02 105.866 160.02 109.341M202.228 29.171C206.267 50.0104 190.849 56.009 176.303 63.3774C161.838 70.8974 148.242 79.7953 160.02 109.341" stroke="black" stroke-width="2" stroke-linejoin="round"/>
<path d="M113.219 62.4969C114.322 71.82 115.664 80.4453 118.73 86.0597C121.568 91.829 126.132 94.5741 128.408 95.9334C121.296 95.6686 109.153 95.0726 102.047 91.5754C94.5464 88.1622 92.0808 81.8524 95.1582 72.0469C98.2355 62.2414 101.843 52.9984 100.914 47.0006C100.442 40.8107 95.4252 37.9252 92.0404 36.7084C97.9781 38.7082 111.765 43.6035 113.219 62.4969Z" fill="#F9F9F9"/>
<path d="M152.259 67.5073C147.673 75.7003 143.681 83.4738 142.868 89.8133C141.782 96.1079 143.827 100.992 144.876 103.444L144.895 103.488C139.313 99.0963 129.827 91.4757 126.128 84.4715C122.067 77.3005 123.78 70.7429 132.054 64.6252C140.241 58.4972 148.655 53.1449 151.43 47.7455C154.703 42.4735 152.327 37.1758 150.283 34.196C153.899 39.2917 162.188 51.3686 152.259 67.5073Z" fill="#F9F9F9"/>
<path d="M78.6867 81.3897C85.0619 88.2836 91.22 94.4794 96.9964 97.2087C102.687 100.21 107.991 99.7483 110.631 99.5076C104.723 103.475 94.55 110.129 86.7574 111.467C78.6824 113.117 72.9763 109.459 69.6894 99.7145C66.4061 90.0363 63.8993 80.375 59.6238 76.0694C55.9156 71.6814 50.6872 71.9001 47.1936 72.7479C46.9156 72.8154 46.6486 72.8868 46.3942 72.9603C52.3624 71.1079 66.4074 66.9569 78.6867 81.3897Z" fill="#F9F9F9"/>
<path d="M180.899 94.5141C172.371 98.4445 164.578 102.387 160.188 107.034C155.583 111.51 154.38 116.691 153.79 119.282L153.788 119.293C151.839 112.448 148.653 100.733 149.787 92.8777C150.711 84.6835 155.952 80.3904 166.227 80.2889C176.502 80.1874 186.412 80.7597 191.83 78.0206C197.571 75.6793 198.765 69.9956 198.873 66.4007C198.873 66.4856 198.872 66.5721 198.871 66.66C198.796 73.0482 198.179 87.3876 180.899 94.5141Z" fill="#F9F9F9"/>
<path d="M188.197 133.192C178.987 131.359 170.363 129.97 164.081 131.154C157.718 132.057 153.679 135.556 151.701 137.306C154.161 130.627 158.467 119.263 163.99 113.582C169.553 107.5 176.317 107.108 184.692 113.065C193.066 119.023 200.742 125.305 206.734 126.279C212.758 127.758 217.061 123.862 219.265 121.017C215.538 126.031 206.606 137.667 188.197 133.192Z" fill="#F9F9F9"/>
<path d="M171.362 168.775C164.987 161.876 158.829 155.68 153.053 152.951C147.366 149.951 142.058 150.412 139.418 150.652C145.327 146.685 155.504 140.032 163.292 138.693C171.371 137.043 177.073 140.7 180.36 150.445C183.647 160.19 186.14 169.768 190.424 174.076C194.427 178.813 200.202 178.181 203.654 177.185C197.691 179.053 183.645 183.208 171.362 168.775Z" fill="#F9F9F9"/>
<path d="M136.83 187.663C135.726 178.34 134.385 169.715 131.319 164.1C128.481 158.331 123.916 155.586 121.64 154.227C128.753 154.491 140.895 155.087 148.001 158.585C155.502 161.998 157.968 168.308 154.891 178.113C151.813 187.919 148.206 197.162 149.135 203.159C149.606 209.349 154.622 212.239 158.013 213.453C152.088 211.456 138.284 206.557 136.83 187.663Z" fill="#F9F9F9"/>
<path d="M97.7887 182.653C102.379 174.461 106.367 166.686 107.18 160.347C108.267 154.047 106.218 149.16 105.17 146.71L105.154 146.672C110.736 151.059 120.226 158.685 123.92 165.688C127.981 172.859 126.268 179.417 117.994 185.535C109.72 191.652 101.411 197.019 98.6375 202.409C95.3694 207.683 97.7413 212.979 99.7848 215.959C99.6613 215.786 99.5324 215.605 99.3991 215.416C95.6075 210.043 88.2101 198.246 97.7887 182.653Z" fill="#F9F9F9"/>
<path d="M69.15 155.646C77.6781 151.716 85.4755 147.774 89.861 143.126C94.4478 138.662 95.6791 133.504 96.2659 130.927L96.2736 130.893C98.2225 137.739 101.409 149.454 100.279 157.31C99.3548 165.504 94.11 169.796 83.835 169.898C73.56 169.999 63.6543 169.428 58.2319 172.166C52.4909 174.507 51.2963 180.191 51.1881 183.786C51.1899 183.553 51.1921 183.309 51.1958 183.053C51.2893 176.443 52.2832 162.602 69.15 155.646Z" fill="#F9F9F9"/>
<path d="M61.8426 116.947C71.0523 118.78 79.6767 120.169 85.9537 118.984C92.3168 118.081 96.3565 114.582 98.334 112.832L98.2667 113.017C95.8239 119.735 91.5221 130.947 86.0535 136.558C80.4864 142.638 73.7223 143.031 65.3478 137.074C56.9732 131.116 49.2979 124.834 43.3053 123.86C37.977 122.552 33.9945 125.449 31.621 128.105C31.3114 128.451 31.0291 128.793 30.7749 129.122C34.5159 124.126 43.4379 112.515 61.8426 116.947Z" fill="#F9F9F9"/>
<path d="M105.154 146.672C110.736 151.059 120.226 158.685 123.92 165.688C127.981 172.859 126.268 179.417 117.994 185.535C109.72 191.652 101.411 197.019 98.6375 202.409C95.3694 207.683 97.7413 212.979 99.7848 215.959C99.6613 215.786 99.5325 215.605 99.3991 215.416M105.154 146.672C105.159 146.685 105.164 146.697 105.17 146.71M105.154 146.672L105.17 146.71M99.7694 215.965C99.6426 215.781 99.5192 215.598 99.3991 215.416M105.138 146.678C105.149 146.689 105.159 146.699 105.17 146.71M96.2736 130.893C98.2225 137.739 101.409 149.454 100.279 157.31C99.3548 165.504 94.11 169.796 83.835 169.898C73.56 169.999 63.6543 169.428 58.2319 172.166C52.4909 174.507 51.2963 180.191 51.1881 183.786C51.1899 183.553 51.1921 183.309 51.1958 183.053M96.2736 130.893C96.271 130.904 96.2685 130.915 96.2659 130.927M96.2736 130.893L96.2659 130.927M51.1708 183.758C51.1766 183.52 51.1849 183.285 51.1958 183.053M96.2563 130.866C96.2595 130.886 96.2627 130.906 96.2659 130.927M98.334 112.832C96.3565 114.582 92.3168 118.081 85.9537 118.984C79.6767 120.169 71.0523 118.78 61.8426 116.947C43.4379 112.515 34.5159 124.126 30.7749 129.122C31.0291 128.793 31.3114 128.451 31.621 128.105M98.334 112.832C98.3118 112.893 98.2893 112.955 98.2667 113.017M98.334 112.832L98.2667 113.017M30.7822 129.152C31.0608 128.788 31.3405 128.439 31.621 128.105M98.3458 112.863C98.3195 112.915 98.2931 112.966 98.2667 113.017M46.3956 72.9747C46.6645 72.8945 46.9305 72.8189 47.1936 72.7479M144.895 103.488C139.313 99.0963 129.827 91.4757 126.128 84.4715C122.067 77.3005 123.78 70.7429 132.054 64.6252C140.241 58.4972 148.655 53.1449 151.43 47.7455C154.703 42.4735 152.327 37.1758 150.283 34.196C153.899 39.2917 162.188 51.3686 152.259 67.5073C147.673 75.7003 143.681 83.4738 142.868 89.8133C141.782 96.1079 143.827 100.992 144.876 103.444M144.895 103.488C144.888 103.473 144.882 103.459 144.876 103.444M144.895 103.488L144.876 103.444M144.914 103.483C144.902 103.47 144.889 103.457 144.876 103.444M153.788 119.293C151.839 112.448 148.653 100.733 149.787 92.8777C150.711 84.6835 155.952 80.3904 166.227 80.2889C176.502 80.1874 186.412 80.7597 191.83 78.0206C197.571 75.6793 198.765 69.9956 198.873 66.4007C198.873 66.4856 198.872 66.5721 198.871 66.66M153.788 119.293C153.789 119.29 153.79 119.286 153.79 119.282M153.788 119.293L153.79 119.282M198.878 66.4018C198.876 66.4883 198.873 66.5743 198.871 66.66M153.792 119.294C153.792 119.29 153.791 119.286 153.79 119.282M47.1936 72.7479C46.9156 72.8154 46.6486 72.8868 46.3942 72.9603C52.3624 71.1079 66.4074 66.9569 78.6867 81.3896C85.0619 88.2836 91.22 94.4794 96.9964 97.2087C102.687 100.21 107.991 99.7483 110.631 99.5076C104.723 103.475 94.55 110.129 86.7574 111.467C78.6824 113.117 72.9763 109.459 69.6894 99.7145C66.4061 90.0363 63.8993 80.375 59.6238 76.0694C55.9156 71.6814 50.6872 71.9001 47.1936 72.7479ZM31.621 128.105C33.9945 125.449 37.977 122.552 43.3053 123.86C49.2979 124.834 56.9732 131.116 65.3478 137.074C73.7223 143.031 80.4864 142.638 86.0535 136.558C91.5221 130.947 95.8239 119.735 98.2667 113.017M51.1958 183.053C51.2893 176.443 52.2832 162.602 69.15 155.646C77.6781 151.716 85.4755 147.774 89.861 143.126C94.4478 138.662 95.6791 133.504 96.2659 130.927M99.3991 215.416C95.6075 210.043 88.2101 198.246 97.7887 182.653C102.379 174.461 106.367 166.686 107.18 160.347C108.267 154.047 106.218 149.16 105.17 146.71M198.871 66.66C198.796 73.0482 198.179 87.3876 180.899 94.5141C172.371 98.4445 164.578 102.387 160.188 107.034C155.583 111.51 154.38 116.691 153.79 119.282M136.83 187.663C135.726 178.34 134.385 169.715 131.319 164.1C128.481 158.331 123.916 155.586 121.64 154.227C128.753 154.491 140.895 155.087 148.001 158.585C155.502 161.998 157.968 168.308 154.891 178.113C151.813 187.919 148.206 197.162 149.135 203.159C149.606 209.349 154.622 212.239 158.013 213.453C152.088 211.456 138.284 206.557 136.83 187.663ZM113.219 62.4969C114.322 71.82 115.664 80.4453 118.73 86.0597C121.568 91.829 126.132 94.5741 128.408 95.9334C121.296 95.6686 109.153 95.0726 102.047 91.5754C94.5464 88.1622 92.0808 81.8524 95.1582 72.0469C98.2355 62.2414 101.843 52.9984 100.914 47.0006C100.442 40.8107 95.4252 37.9252 92.0404 36.7084C97.9781 38.7082 111.765 43.6035 113.219 62.4969ZM188.197 133.192C178.987 131.359 170.363 129.97 164.081 131.154C157.718 132.057 153.679 135.556 151.701 137.306C154.161 130.627 158.467 119.263 163.99 113.582C169.553 107.5 176.317 107.108 184.692 113.065C193.066 119.023 200.742 125.305 206.734 126.279C212.758 127.758 217.061 123.862 219.265 121.017C215.538 126.031 206.606 137.667 188.197 133.192ZM171.362 168.775C164.987 161.876 158.829 155.68 153.053 152.951C147.366 149.951 142.058 150.412 139.418 150.652C145.327 146.685 155.504 140.032 163.292 138.693C171.371 137.043 177.073 140.7 180.36 150.445C183.647 160.19 186.14 169.768 190.424 174.076C194.427 178.813 200.202 178.181 203.654 177.185C197.691 179.053 183.645 183.208 171.362 168.775Z" stroke="black" stroke-width="2" stroke-linejoin="round"/>
<circle cx="125.036" cy="125.107" r="55.0665" fill="#F9F9F9" stroke="black" stroke-width="2" stroke-linejoin="round"/>
</svg>
