<svg width="251" height="252" viewBox="0 0 251 252" fill="none" xmlns="http://www.w3.org/2000/svg">
<path fill-rule="evenodd" clip-rule="evenodd" d="M175.269 126.025C175.269 128.728 175.053 131.38 174.637 133.966C174.232 136.489 173.636 138.948 172.866 141.329C172.084 143.745 171.122 146.079 169.996 148.317C168.855 150.585 167.544 152.753 166.082 154.806C164.45 157.096 162.629 159.241 160.641 161.218C158.849 163.001 156.922 164.647 154.876 166.141C152.848 167.621 150.703 168.952 148.458 170.116C146.226 171.273 143.895 172.265 141.481 173.076C138.844 173.962 136.109 174.632 133.296 175.066C130.836 175.445 128.316 175.644 125.75 175.647L125.686 175.647C123.142 175.647 120.642 175.455 118.201 175.085C115.676 174.703 113.214 174.13 110.83 173.381C108.117 172.53 105.505 171.451 103.015 170.168C100.764 169.008 98.6135 167.68 96.5795 166.202C94.5272 164.71 92.5936 163.065 90.7956 161.283C89.0048 159.508 87.3485 157.597 85.8434 155.567C84.1677 153.307 82.6794 150.9 81.4014 148.368C80.27 146.127 79.3035 143.787 78.5179 141.367C77.7436 138.981 77.145 136.515 76.7374 133.986C76.3408 131.524 76.1251 129.002 76.1044 126.434C76.1033 126.298 76.1027 126.161 76.1027 126.025C76.1027 123.298 76.3225 120.623 76.7453 118.015C77.1552 115.487 77.7561 113.023 78.5325 110.638C79.3202 108.219 80.2885 105.882 81.4216 103.642C82.5697 101.372 83.8869 99.2031 85.3567 97.1507C86.9959 94.8617 88.8249 92.718 90.8205 90.7427C92.6183 88.9632 94.5515 87.3204 96.6031 85.831C98.6363 84.355 100.786 83.0297 103.036 81.8715C105.271 80.7208 107.604 79.7352 110.021 78.9305C112.658 78.0522 115.395 77.3896 118.208 76.9637C120.647 76.5945 123.144 76.4031 125.686 76.4031L125.75 76.4032C128.313 76.4064 130.831 76.6043 133.289 76.9828C135.808 77.3708 138.264 77.9485 140.644 78.701C143.349 79.5567 145.955 80.6384 148.437 81.9239C150.681 83.0856 152.825 84.4138 154.852 85.8921C156.897 87.3832 158.824 89.0271 160.616 90.8069C162.4 92.5791 164.05 94.4861 165.549 96.5115C167.219 98.7665 168.702 101.168 169.976 103.694C171.104 105.929 172.067 108.262 172.851 110.676C173.624 113.056 174.222 115.514 174.63 118.036C175.027 120.491 175.244 123.006 175.267 125.567C175.267 125.608 175.267 125.649 175.268 125.689C175.268 125.701 175.268 125.714 175.268 125.726C175.268 125.753 175.268 125.781 175.268 125.808C175.269 125.88 175.269 125.953 175.269 126.025Z" fill="#F9F9F9"/>
<path d="M106.526 1.00018L118.208 76.9637M144.974 251L133.296 175.066M214.731 215.817L160.641 161.218M36.769 36.1836L90.8205 90.7427M1 105.674L76.7453 118.015M250.5 146.326L174.637 133.966M238.619 69.0722L169.976 103.694M12.8812 182.928L81.4014 148.368M67.8745 238.438L103.015 170.168M183.625 13.5625L148.437 81.9239M144.974 1L133.289 76.9828M106.526 251L118.201 175.085M183.626 238.437L148.458 170.116M67.8747 13.5623L103.036 81.8715M12.8815 69.072L81.4216 103.642M238.619 182.928L169.996 148.317M250.5 105.674L174.63 118.036M1.00022 146.326L76.7374 133.986M36.7692 215.816L90.7956 161.283M214.731 36.1834L160.616 90.8069M150.103 48.6614L140.644 78.701M101.396 203.339L110.83 173.381M151.447 202.901L141.481 173.076M100.052 49.0988L110.021 78.9305M59.8169 78.9097L85.3567 97.1507M191.682 173.09L166.082 154.806M206.733 125.292L175.267 125.567M44.7658 126.708L76.1044 126.434M60.6477 174.235L85.8434 155.567M190.851 77.7648L165.549 96.5115M125.686 175.647C123.142 175.647 120.642 175.455 118.201 175.085M125.686 175.647L125.75 175.647M125.686 175.647C125.707 175.647 125.729 175.647 125.75 175.647M125.686 76.4031L125.75 76.4032M125.686 76.4031C123.144 76.4031 120.647 76.5945 118.208 76.9637M125.686 76.4031C125.707 76.4031 125.729 76.4031 125.75 76.4032M174.637 133.966C175.053 131.38 175.269 128.728 175.269 126.025C175.269 125.953 175.269 125.88 175.268 125.808M174.637 133.966C174.232 136.489 173.636 138.948 172.866 141.329C172.084 143.745 171.122 146.079 169.996 148.317M175.268 125.808L175.268 125.726M175.268 125.808C175.268 125.781 175.268 125.753 175.268 125.726M175.267 125.567C175.244 123.006 175.027 120.491 174.63 118.036M175.267 125.567C175.267 125.608 175.267 125.649 175.268 125.689M174.63 118.036C174.222 115.514 173.624 113.056 172.851 110.676C172.067 108.262 171.104 105.929 169.976 103.694M169.976 103.694C168.702 101.168 167.219 98.7665 165.549 96.5115M165.549 96.5115C164.05 94.4861 162.4 92.5791 160.616 90.8069M160.616 90.8069C158.824 89.0271 156.897 87.3832 154.852 85.8921C152.825 84.4138 150.681 83.0856 148.437 81.9239M148.437 81.9239C145.955 80.6384 143.349 79.5567 140.644 78.701M140.644 78.701C138.264 77.9485 135.808 77.3708 133.289 76.9828M133.289 76.9828C130.831 76.6043 128.313 76.4064 125.75 76.4032M118.208 76.9637C115.395 77.3896 112.658 78.0522 110.021 78.9305M110.021 78.9305C107.604 79.7352 105.271 80.7208 103.036 81.8715M103.036 81.8715C100.786 83.0297 98.6363 84.355 96.6031 85.831C94.5515 87.3204 92.6183 88.9632 90.8205 90.7427M90.8205 90.7427C88.8249 92.718 86.9959 94.8617 85.3567 97.1507M85.3567 97.1507C83.8869 99.2031 82.5697 101.372 81.4216 103.642M81.4216 103.642C80.2885 105.882 79.3202 108.219 78.5325 110.638C77.7561 113.023 77.1552 115.487 76.7453 118.015M76.7453 118.015C76.3225 120.623 76.1027 123.298 76.1027 126.025C76.1027 126.161 76.1033 126.298 76.1044 126.434M76.1044 126.434C76.1251 129.002 76.3408 131.524 76.7374 133.986M76.7374 133.986C77.145 136.515 77.7436 138.981 78.5179 141.367C79.3035 143.787 80.27 146.127 81.4014 148.368M81.4014 148.368C82.6794 150.9 84.1677 153.307 85.8434 155.567M85.8434 155.567C87.3485 157.597 89.0048 159.508 90.7956 161.283M90.7956 161.283C92.5936 163.065 94.5272 164.71 96.5795 166.202C98.6135 167.68 100.764 169.008 103.015 170.168M103.015 170.168C105.505 171.451 108.117 172.53 110.83 173.381M110.83 173.381C113.214 174.13 115.676 174.703 118.201 175.085M125.75 175.647C128.316 175.644 130.836 175.445 133.296 175.066M133.296 175.066C136.109 174.632 138.844 173.962 141.481 173.076M141.481 173.076C143.895 172.265 146.226 171.273 148.458 170.116M148.458 170.116C150.703 168.952 152.848 167.621 154.876 166.141C156.922 164.647 158.849 163.001 160.641 161.218M160.641 161.218C162.629 159.241 164.45 157.096 166.082 154.806M166.082 154.806C167.544 152.753 168.855 150.585 169.996 148.317M175.268 125.726L175.268 125.689M175.268 125.726C175.268 125.714 175.268 125.701 175.268 125.689" stroke="black" stroke-width="2" stroke-linejoin="round"/>
<path d="M172.866 141.328L221.841 157.261M185.137 207.845L154.876 166.14M125.75 175.646V227.166M66.3622 207.845L96.5794 166.201M78.5178 141.366L29.6587 157.261M96.603 85.83L66.3622 44.1532M125.75 24.832V76.4021M221.841 94.7368L172.851 110.675M154.852 85.8911L185.137 44.1532M29.6587 94.7368L78.5324 110.637" stroke="black" stroke-width="2" stroke-linejoin="round" stroke-dasharray="50 10 30 10"/>
<path d="M76 126C76 153.614 98.1687 176 125.515 176C139.69 176 152.474 169.985 161.5 160.346C154.988 164.759 147.151 167.333 138.719 167.333C116.113 167.333 97.7867 148.828 97.7867 126C97.7867 103.172 116.113 84.6667 138.719 84.6667C147.151 84.6667 154.988 87.2412 161.5 91.6544C152.474 82.0146 139.69 76 125.515 76C98.1687 76 76 98.3858 76 126Z" fill="#F9F9F9" stroke="black" stroke-width="2" stroke-linejoin="round"/>
</svg>
