<svg width="252" height="264" viewBox="0 0 252 264" fill="none" xmlns="http://www.w3.org/2000/svg">
<path d="M126 131.998V131.999L126.001 131.999L126 132L126.001 132L126 132V132.001L126 132L125.999 132.001L125.999 132L125.998 132.001L125.999 132L125.999 131.999L126 131.999L126 131.998Z" fill="#F9F9F9"/>
<path d="M126 0.5V132M126 132V263.5M126 132L203.254 238.386M126 132L48.7457 25.6143M126 132L1 91.3643M126 132L251 172.636M126 132L251 91.3643M126 132L1 172.636M126 132L48.7457 238.386M126 132L203.254 25.6143M157.679 31.4728L125.999 132M125.999 132L94.3197 232.527M125.999 132L159.428 231.958M125.999 132L92.5709 32.0412M125.999 132L40.2312 70.7905M125.999 132L211.768 193.209M125.999 132L231.347 131.08M125.999 132L20.6519 132.92M125.999 132L41.3119 194.697M125.999 132L210.687 69.3022" stroke="black" stroke-width="2" stroke-linejoin="round"/>
<circle cx="126" cy="132" r="64.5" fill="#F9F9F9" stroke="black" stroke-width="2" stroke-linejoin="round"/>
</svg>
