<svg width="303" height="290" viewBox="0 0 303 290" fill="none" xmlns="http://www.w3.org/2000/svg">
<path d="M151.765 145.161L151.765 145.162L151.767 145.161L151.765 145.162L151.766 145.163L151.765 145.163L151.765 145.163L151.765 145.163L151.763 145.164L151.764 145.163L151.763 145.163L151.764 145.162L151.764 145.162L151.765 145.162L151.765 145.161Z" fill="#F9F9F9"/>
<path d="M197.171 1.15128L151.765 145.163M151.765 145.163L106.358 289.174M151.765 145.163L199.613 288.339M151.765 145.163L103.916 1.98603M151.765 145.163L28.9378 57.5093M151.765 145.163L274.592 232.816M151.765 145.163L302.655 143.812M151.765 145.163L0.875015 146.513M151.765 145.163L30.447 235.001M151.765 145.163L273.083 55.3239M212.708 58.085L151.765 145.162M151.765 145.162L90.821 232.239M151.765 145.162L153.595 251.43M151.765 145.162L149.934 38.8935M151.765 145.162L87.8592 60.2929M151.765 145.162L215.67 230.031M151.765 145.162L253.335 176.214M151.765 145.162L50.194 114.109M151.765 145.162L51.3253 179.787M151.765 145.162L252.204 110.537" stroke="black" stroke-width="2" stroke-linejoin="round"/>
<path d="M76.0116 149.122C85.5134 171.44 151.468 214 151.468 214C151.468 214 217.487 171.38 226.988 149.063C236.49 126.745 226.046 100.974 203.662 91.5011C184.761 83.5025 163.391 89.6805 151.477 105.231C139.554 89.7244 118.214 83.5726 99.3383 91.5609C76.9536 101.034 66.5099 126.805 76.0116 149.122Z" fill="#F9F9F9" stroke="black" stroke-width="2" stroke-linejoin="round"/>
</svg>
