<svg width="284" height="284" viewBox="0 0 284 284" fill="none" xmlns="http://www.w3.org/2000/svg">
<path d="M283.5 142H142M142 283.5V142M0.5 142H142M142 0.5V142" stroke="black" stroke-width="2" stroke-linejoin="round"/>
<path d="M194.172 194.172L142 142M89.8282 194.172L142 142M89.8282 89.8283L142 142M194.172 89.8283L142 142" stroke="black" stroke-width="2" stroke-linejoin="round"/>
<path d="M237.593 181.846L142.428 142.427M103.009 237.592L142.428 142.427M47.2631 103.009L142.428 142.427M181.846 47.2623L142.428 142.427M142.428 142.427L237.593 103.009M142.428 142.427L47.2631 181.846M142.428 142.427L103.009 47.2623M142.428 142.427L181.846 237.592" stroke="black" stroke-width="2" stroke-linejoin="round"/>
<path d="M247.871 142.254C190.818 142.254 159.938 159.942 180.74 180.724C159.964 159.942 142.28 190.83 142.28 247.87C142.28 190.804 124.597 159.917 103.82 180.724C124.614 159.942 93.6912 142.254 36.6387 142.254C93.6912 142.254 124.571 124.567 103.769 103.785C124.546 124.567 142.229 93.6792 142.229 36.6384C142.229 93.7047 159.913 124.592 180.689 103.785C159.938 124.567 190.818 142.254 247.871 142.254Z" fill="#F9F9F9" stroke="black" stroke-width="2" stroke-linejoin="round"/>
</svg>
