<svg width="252" height="252" viewBox="0 0 252 252" fill="none" xmlns="http://www.w3.org/2000/svg">
<path d="M138.784 27.5391C172.529 10.5602 210.648 1 251 1V64.9205V128.841V251H191.341H131.682H52.1364H1C1 227.363 4.28033 204.492 10.4106 182.818C11.4089 178.565 12.6605 174.58 14.1254 170.848C35.2805 108.306 80.5096 56.8603 138.784 27.5391Z" fill="#F9F9F9"/>
<path d="M251 1C210.648 1 172.529 10.5602 138.784 27.5391M251 1C233.121 36.0711 204.976 44.0179 179.977 41.4348M251 1V64.9205M251 251V128.841M251 251C241.683 215.479 226.875 201.442 209.807 193.135M251 251H191.341M138.784 27.5391C122.686 47.1018 98.7273 98.1591 131.682 145.886M138.784 27.5391C76.832 58.7107 29.6238 114.887 10.4106 182.818M138.784 27.5391C148.693 33.5809 163.666 39.7494 179.977 41.4348M131.682 145.886C139.078 159.061 147.919 179.819 150.801 199.864M131.682 145.886C150.123 172.595 171.412 179.09 191.341 185.892M131.682 145.886C118.057 147.951 107.894 146.577 100.432 143.469M52.1364 251H1C1 227.363 4.28033 204.492 10.4106 182.818M52.1364 251H131.682M52.1364 251C49.5308 244.316 47.0174 235.496 45.386 225.432M81.9659 120.318C62.6714 121.739 21.3481 136.227 10.4106 182.818M81.9659 120.318C43.9289 148.846 40.1989 193.431 45.386 225.432M81.9659 120.318C110.138 99.1892 143.216 94.5106 172.875 97.6966M81.9659 120.318C82.5688 127.252 87.3556 138.023 100.432 143.469M251 128.841C244.079 121.425 229.07 112.461 209.807 105.9M251 128.841V64.9205M131.682 251C150.294 241.112 153.823 220.88 150.801 199.864M131.682 251H191.341M10.4106 182.818C17.939 206.682 36.8644 221.17 45.386 225.432M45.386 225.432C58.419 229.074 79.6708 232.119 100.432 229.163M150.801 199.864C139.431 218.132 120.153 226.354 100.432 229.163M209.807 105.9C198.917 118.531 183.67 153.661 209.807 193.135M209.807 105.9C198.671 102.108 186.114 99.1187 172.875 97.6966M209.807 193.135C203.879 190.25 197.679 188.056 191.341 185.892M179.977 41.4348C184.813 46.7791 190.305 58.0726 187.438 72.0227M172.875 97.6966C181.506 88.685 185.814 79.9274 187.438 72.0227M187.438 72.0227C203.891 79.125 239.636 87.6477 251 64.9205M191.341 251C185.186 242.633 176.568 217.897 191.341 185.892M100.432 229.163C95.249 213.121 87.993 173.525 100.432 143.469" stroke="black" stroke-width="2" stroke-linejoin="round"/>
</svg>
