<svg width="252" height="252" viewBox="0 0 252 252" fill="none" xmlns="http://www.w3.org/2000/svg">
<path d="M1 126C1 102.935 7.24708 81.3289 18.1415 62.7816C27.0767 47.5701 39.1378 34.416 53.4425 24.2019C73.9001 9.59441 98.9464 1 126 1C149.884 1 172.203 7.69836 191.182 19.319C201.895 25.8789 211.544 34.0075 219.809 43.3851C239.223 65.4121 251 94.3307 251 126V201.79V251H230.526H210.052H75.7126H49.8506H1V188.5V157.25V126Z" fill="#F9F9F9"/>
<path d="M126 1C149.884 1 172.203 7.69836 191.181 19.319M126 1C98.9464 1 73.9001 9.59441 53.4425 24.2019M126 1C134.776 3.4378 147.388 10.716 159.683 24.7556M251 126V201.79M251 126C251 94.3307 239.223 65.4121 219.809 43.3851M251 126C239.218 145.893 211.129 140.275 198.557 134.98M251 126C233.184 85.1954 203.16 81.6408 190.375 84.9641M198.557 134.98C200.337 161.102 194.836 181.71 185.041 197.839M198.557 134.98C197.263 115.972 194.359 99.3816 190.375 84.9641M75.7126 251H210.052M75.7126 251C76.6567 233.55 84.7028 202.352 107.146 177.006M75.7126 251H49.8506M75.7126 251C107.029 251 160.033 239.019 185.041 197.839M18.1415 62.7816C7.24708 81.3289 1 102.935 1 126V157.25M18.1415 62.7816C14.3138 73.7039 13.6578 91.8857 26.1127 107.681M18.1415 62.7816C27.0766 47.5701 39.1378 34.416 53.4425 24.2019M79.6638 134.98C51.8581 129.835 35.3666 119.417 26.1127 107.681M79.6638 134.98C46.9052 165.727 13.5718 162.638 1 157.25M79.6638 134.98C95.6998 137.947 109.874 139.705 122.728 141.132M251 201.79V251H230.526M251 201.79C215.841 159.465 189.618 149.811 155.095 144.885M1 188.5V251H49.8506M1 188.5V157.25M1 188.5C10.6005 186.935 22.4985 184.211 35.842 180.167M219.809 43.3851C211.544 34.0075 201.895 25.8789 191.181 19.319M219.809 43.3851C211.366 58.6059 201.389 72.4348 190.375 84.9641M155.095 118.443C148.344 115.073 137.868 111.02 124.901 107.681M155.095 118.443C144.591 126.83 133.706 134.375 122.728 141.132M155.095 118.443C167.551 108.498 179.472 97.3677 190.375 84.9641M26.1127 107.681C41.3365 103.249 56.5631 101.349 71.0431 101.134M191.181 19.319C184.044 18.6757 173.01 19.9206 159.683 24.7556M71.0431 101.134C80.8379 86.5183 90.8919 74.3567 100.856 64.2789M71.0431 101.134C91.0898 100.836 109.705 103.768 124.901 107.681M53.4425 24.2019C51.1676 37.2219 57.4655 63.4653 100.856 64.2789M100.856 64.2789C121.976 42.9187 142.693 30.9196 159.683 24.7556M155.095 144.885C134.498 152.14 118.861 163.776 107.146 177.006M155.095 144.885C149.922 181.832 129.695 202.527 120.228 208.256M155.095 144.885C145.135 143.464 134.484 142.437 122.728 141.132M210.052 251H230.526M210.052 251C185.681 248.01 142.147 235.64 120.228 208.256M107.146 177.006C108.37 189.099 113.182 199.453 120.228 208.256M107.146 177.006C106.46 170.81 108.616 154.961 122.728 141.132M124.901 107.681C136.348 103.283 159.331 80.5417 159.683 24.7556M159.683 24.7556C171.399 38.1328 182.827 57.6484 190.375 84.9641M35.842 180.167C25.4253 194.439 13.6437 228.586 49.8506 251M35.842 180.167C61.4812 172.399 92.4576 159.762 122.728 141.132M185.041 197.839C183.56 211.249 190.583 240.655 230.526 251" stroke="black" stroke-width="2" stroke-linejoin="round"/>
</svg>
