<svg width="252" height="252" viewBox="0 0 252 252" fill="none" xmlns="http://www.w3.org/2000/svg">
<path d="M251 126C251 157.81 239.118 186.845 219.55 208.908C204.228 226.184 184.195 239.185 161.463 245.898C150.221 249.218 138.319 251 126 251C116.352 251 106.959 249.907 97.9388 247.838C59.8711 239.106 28.4355 212.992 12.432 178.296C5.09352 162.386 1 144.671 1 126C1 123.75 1.05943 121.515 1.1768 119.294C2.50388 94.1893 11.2383 71.0486 25.2347 52.0173C47.9886 21.0783 84.6496 1 126 1C156.598 1 184.629 11.9943 206.357 30.248C227.763 48.2314 243.052 73.261 248.652 101.765C250.193 109.605 251 117.708 251 126Z" fill="#F9F9F9"/>
<path d="M126 1C138.33 14.1803 155.592 50.2347 126 89.0102C111.246 108.343 95.6649 114.283 80.0816 119.294M126 1C84.6496 1 47.9886 21.0783 25.2347 52.0173M126 1C156.599 1 184.629 11.9943 206.357 30.248M12.432 178.296C5.09352 162.386 1 144.671 1 126C1 123.75 1.05943 121.515 1.1768 119.294M12.432 178.296C33.1056 132.291 56.5963 126.847 80.0816 119.294M12.432 178.296C28.4355 212.992 59.8711 239.106 97.9388 247.838M80.0816 119.294C83.0578 143.638 101 192.327 148.959 192.327M148.959 192.327C208.908 192.327 161.8 111.969 201.255 94.1122C232.819 79.8265 246.005 93.2619 248.652 101.765M148.959 192.327C161.547 195.728 181.671 211.204 161.463 245.898M248.652 101.765C250.193 109.605 251 117.708 251 126C251 157.81 239.118 186.845 219.55 208.908M248.652 101.765C243.052 73.261 227.763 48.2314 206.357 30.248M219.55 208.908C213.778 144.622 163.479 132.803 139.052 134.929M219.55 208.908C204.228 226.184 184.195 239.185 161.463 245.898M25.2347 52.0173C11.2383 71.0486 2.50388 94.1893 1.1768 119.294M25.2347 52.0173C24.8415 61.062 34.3393 78.6893 73.7041 82.096M1.1768 119.294C58.7516 131.721 27.8261 151.51 58.398 183.398C69.2491 194.716 81.3959 198.761 92.8367 197.802M73.7041 82.096C76.9045 82.373 80.3022 82.5559 83.9082 82.6327C130.977 83.6341 140.303 108.431 139.052 134.929M73.7041 82.096C74.9796 72.0698 84.9286 52.0173 114.52 52.0173C151.51 52.0173 193.164 92.6592 206.357 30.248M139.052 134.929C138.709 142.18 137.574 149.559 136.204 156.612C132.09 177.789 113.629 196.059 92.8367 197.802M161.463 245.898C150.221 249.218 138.319 251 126 251C116.352 251 106.959 249.907 97.9388 247.838M92.8367 197.802C98.3639 201.097 107.122 215.716 97.9388 247.838" stroke="black" stroke-width="2" stroke-linejoin="round"/>
</svg>
