<svg width="252" height="250" viewBox="0 0 252 250" fill="none" xmlns="http://www.w3.org/2000/svg">
<path d="M126 16.5L153.234 63.6701L193.086 132.696L217.719 175.362L251 233.006H229.034H180.921H115.334H49.7464H1L34.2809 175.362L61.2725 128.611L88.2641 81.8604L112.837 39.2984L126 16.5Z" fill="#F9F9F9"/>
<path d="M88.2641 81.8604C93.2852 81.3929 100.003 81.4817 107.391 82.624M88.2641 81.8604L61.2725 128.611M88.2641 81.8604L112.837 39.2984M180.921 233.006H229.034M180.921 233.006H115.334M180.921 233.006C152.359 203.234 153.486 185.595 158.005 169.008M34.2809 175.362L1 233.006H49.7464M34.2809 175.362C37.8476 173.557 43.1531 171.657 49.7464 170.336M34.2809 175.362L61.2725 128.611M116.922 182.17C136.048 193.173 158.065 193.632 177.29 190.012M116.922 182.17C107.996 177.632 91.8675 169.461 84.2421 142.228M116.922 182.17C119.668 187.09 121.703 191.624 123.152 195.787M116.922 182.17C104.306 174.912 91.9189 171.126 80.611 169.543M116.922 182.17C126.473 173.182 133.863 163.48 139.519 153.575M217.719 175.362L251 233.006H229.034M217.719 175.362C209.003 180.465 194.23 186.822 177.29 190.012M217.719 175.362L193.086 132.696M153.234 63.6701L126 16.5L112.837 39.2984M153.234 63.6701L193.086 132.696M153.234 63.6701C157.83 81.2399 159.452 118.666 139.519 153.575M153.234 63.6701C149.69 62.8972 144.402 63.6122 137.801 65.9316M49.7464 170.336C43.3801 177.752 35.0655 194.775 40.4531 214.397M49.7464 170.336C58.2248 168.636 68.8327 167.894 80.611 169.543M49.7464 233.006H115.334M49.7464 233.006C45.0543 226.693 42.1076 220.422 40.4531 214.397M107.391 82.624C95.1355 92.2999 79.0315 123.618 84.2421 142.228M107.391 82.624C114.78 83.7665 122.839 85.963 130.539 89.7109M107.391 82.624C119.042 74.3461 129.468 68.8601 137.801 65.9316M177.29 190.012C191.058 192.694 220.682 205.047 229.034 233.006M115.334 233.006C121.898 229.692 130.9 218.046 123.152 195.787M84.2421 142.228C80.9521 143.59 71.7733 145.496 61.3784 142.228M84.2421 142.228C92.4199 139.211 107.456 130.171 118.833 114.087M193.086 132.696C193.12 145.103 186.151 169.734 158.005 169.008M158.005 169.008C161.961 154.49 168.516 140.778 160.042 120.441C153.679 105.169 142.545 95.5544 130.539 89.7109M40.4531 214.397C59.3539 220.297 102.355 224.836 123.152 195.787M130.539 89.7109C127.834 99.1583 123.663 107.257 118.833 114.087M80.611 169.543C74.4703 165.218 64.3226 155.01 61.3784 142.228M61.2725 128.611C60.2134 133.357 60.39 137.937 61.3784 142.228M118.833 114.087C118.131 123.618 121.285 144.861 139.519 153.575M112.837 39.2984C111.93 45.5899 115.651 59.7246 137.801 65.9316" stroke="black" stroke-width="2" stroke-linejoin="round"/>
</svg>
