<svg width="252" height="250" viewBox="0 0 252 250" fill="none" xmlns="http://www.w3.org/2000/svg">
<path d="M1 31.5059H30.8387H46.5645H63.0968H103.52H143.944H184.367H224.79H251V83.7535V174.248V217.958H234.266H195.254H156.242H49.9919H17.129H1V161.613V137.367V84.4365V31.5059Z" fill="#F9F9F9"/>
<path d="M63.0968 31.5059C63.2312 62.6951 78.0161 125.074 136.081 125.074M63.0968 31.5059H46.5645M63.0968 31.5059H103.52M136.081 125.074C152.174 125.074 166.234 129.831 178.332 137.367M136.081 125.074C129.79 138.187 118.675 152.533 113.903 158.067M234.266 217.958H251V174.248M234.266 217.958C230.563 204.525 222.521 185.263 209.859 167.76M234.266 217.958H195.254M49.9919 217.958C64.172 218.755 100.274 209.831 131.242 167.76C137.274 159.565 141.911 151.337 145.719 143.172M49.9919 217.958H156.242M49.9919 217.958H17.129M224.79 31.5059H251V83.7535M224.79 31.5059C220.758 33.1339 217.003 34.8347 213.5 36.6041M224.79 31.5059H184.367M1 137.367C5.85889 126.826 14.8734 112.802 27.4113 101.164M1 137.367V84.4365M1 137.367V161.613M251 83.7535C244.463 89.7794 238.117 94.5753 231.847 98.2985M251 83.7535V174.248M27.4113 101.164C32.7033 96.2521 38.6231 91.765 45.123 88.1442M27.4113 101.164C30.7267 102.48 34.4535 104.099 38.5 106.014M156.242 217.958C146.752 194.995 131.282 174.921 113.903 158.067M156.242 217.958H195.254M17.129 217.958H1V161.613M17.129 217.958C23.3929 214.063 32.1392 207.081 40.9194 197.391M73.9839 126.18C72.4258 141.684 67.732 155.628 61.518 167.76M73.9839 126.18C87.241 134.969 101.091 145.643 113.903 158.067M73.9839 126.18C61.0961 117.636 48.7687 110.873 38.5 106.014M46.5645 31.5059C48.7621 41.8319 51.5504 67.6159 45.123 88.1442M46.5645 31.5059H30.8387M45.123 88.1442C61.1364 79.2237 80.6711 75.5609 103.016 83.7535C108.887 85.9062 114.523 88.0077 119.952 90.0208M1 84.4365V31.5059H30.8387M1 84.4365C7.72043 82.2738 23.0968 68.6598 30.8387 31.5059M1 161.613C10.2742 161.561 31.2419 168.644 40.9194 197.391M40.9194 197.391C43.1483 194.931 45.3794 192.297 47.5726 189.495M61.518 167.76C71.5873 174.047 96.1613 180.911 113.903 158.067M61.518 167.76C57.3838 175.831 52.5767 183.101 47.5726 189.495M143.944 31.5059C145.22 47.2963 142.21 81.106 119.952 90.0208M143.944 31.5059H103.52M143.944 31.5059H184.367M119.952 90.0208C166.891 107.428 198.289 118.224 231.847 98.2985M209.859 167.76C214.539 164.818 221.852 156.35 226.766 140.953M209.859 167.76C204.614 160.508 198.576 153.559 191.726 147.451M231.847 98.2985C232.442 116.183 230.184 130.244 226.766 140.953M231.847 98.2985C231.834 93.0826 231.308 85.368 229.895 76.9238M178.332 137.367C183.1 140.337 187.563 143.738 191.726 147.451M178.332 137.367C176.598 146.198 175.42 161.237 177.728 176.98M195.254 217.958C184.933 206.565 179.853 191.474 177.728 176.98M103.52 31.5059C110.61 49.6893 134.79 83.0256 174.79 70.9038M174.79 70.9038C182.861 57.8922 194.44 46.2326 213.5 36.6041M174.79 70.9038C161.497 92.3367 157.723 117.438 145.719 143.172M213.5 36.6041C222.647 46.5214 227.522 62.7502 229.895 76.9238M226.766 140.953C232.828 142.262 246.161 150.754 251 174.248M226.766 140.953C220.731 138.398 205.274 136.121 191.726 147.451M184.367 31.5059C187.871 44.3686 201.881 71.46 229.895 76.9238M145.719 143.172C149.034 154.442 160.078 176.98 177.728 176.98M38.5 106.014C42.3407 117.865 49.5323 151.152 47.5726 189.495" stroke="black" stroke-width="2" stroke-linejoin="round"/>
</svg>
