<svg width="252" height="250" viewBox="0 0 252 250" fill="none" xmlns="http://www.w3.org/2000/svg">
<path d="M139.934 63.335C183.981 68.2349 221.125 96.0916 239.206 134.709C241.532 139.676 243.542 144.821 245.212 150.119C248.972 162.053 251 174.76 251 187.942H215.385H160.916H126H63.5H34.5196H1C1 177.308 2.31994 166.983 4.80446 157.123C10.0336 136.371 20.4215 117.679 34.5196 102.5C47.7589 88.2457 64.2702 77.0893 82.8539 70.2341C90.403 67.4493 98.2942 65.3743 106.447 64.0898C112.818 63.086 119.348 62.5648 126 62.5648C130.19 62.3824 135.083 62.5684 139.934 63.335Z" fill="#F9F9F9"/>
<path d="M126 62.5648C176.06 62.5648 219.247 92.081 239.206 134.709M126 62.5648C144.622 61.7541 177.117 68.2207 158.123 100.573M126 62.5648C119.348 62.5648 112.818 63.086 106.447 64.0898M82.8539 70.2341C55.4693 95.485 96.7256 140.755 127.475 112.996M82.8539 70.2341C64.2702 77.0893 47.7589 88.2457 34.5196 102.5M82.8539 70.2341C90.403 67.4493 98.2942 65.3743 106.447 64.0898M127.475 112.996C137.332 104.098 148.115 100.284 158.123 100.573M127.475 112.996C128.12 120.346 126.317 132.651 120.055 141.714M127.475 112.996C127.682 101.638 123.765 75.9561 106.447 64.0898M194.436 134.709C190.862 114.227 175.688 101.08 158.123 100.573M194.436 134.709C188.011 134.323 179.837 134.703 171.391 136.42M194.436 134.709C198.705 159.177 228.598 162.277 237.034 144.008M194.436 134.709C202.35 134.838 221.95 136.879 237.034 144.008M239.206 134.709C239.03 138.259 238.257 141.358 237.034 144.008M239.206 134.709C241.532 139.676 243.542 144.821 245.212 150.119M4.80446 157.123C2.31994 166.983 1 177.308 1 187.942H34.5196M4.80446 157.123C10.0336 136.371 20.4215 117.679 34.5196 102.5M4.80446 157.123C8.44906 147.5 18.7756 134.079 36.6145 133.078M69.4358 143.114C96.5515 159.669 111.996 153.377 120.055 141.714M69.4358 143.114C72.2291 148.718 74.9525 165.528 63.5 187.942M69.4358 143.114C67.108 134.95 56.8659 115.396 34.5196 102.5M69.4358 143.114C56.5144 135.225 45.6094 132.573 36.6145 133.078M126 187.942C125.145 154.662 149.205 140.93 171.391 136.42M126 187.942H63.5M126 187.942H160.916M120.055 141.714C130.417 134.916 155.19 124.34 171.391 136.42M120.055 141.714C130.184 144.048 152.536 156.562 160.916 187.942M171.391 136.42C175.348 137.951 189.687 150.399 215.385 187.942M63.5 187.942H34.5196M215.385 187.942H251C251 174.76 248.972 162.053 245.212 150.119M215.385 187.942H160.916M237.034 144.008C238.528 144.878 242.257 147.317 245.212 150.119M36.6145 133.078C31.0279 145.762 22.7877 174.493 34.5196 187.942" stroke="black" stroke-width="2" stroke-linejoin="round"/>
</svg>
