<svg width="252" height="252" viewBox="0 0 252 252" fill="none" xmlns="http://www.w3.org/2000/svg">
<g clip-path="url(#clip0_2_90)">
<path d="M174.554 98.1074C163.256 109.406 149 115.943 134.279 117.721C133.615 123.219 133.615 128.781 134.279 134.279C149 136.057 163.256 142.594 174.554 153.893C185.852 165.191 192.39 179.446 194.167 194.167C179.446 192.39 165.191 185.852 153.893 174.554C142.594 163.256 136.057 149 134.279 134.279C128.781 133.615 123.219 133.615 117.721 134.279C115.943 149 109.406 163.256 98.1074 174.554C86.8094 185.852 72.5537 192.39 57.8326 194.167C59.6103 179.446 66.1482 165.191 77.4463 153.893C88.7444 142.594 103 136.057 117.721 134.279C118.385 128.781 118.385 123.219 117.721 117.721C103 115.943 88.7444 109.406 77.4463 98.1074C66.1482 86.8094 59.6103 72.5537 57.8326 57.8326C72.5537 59.6103 86.8094 66.1482 98.1074 77.4463C109.406 88.7444 115.943 103 117.721 117.721C123.219 118.385 128.781 118.385 134.279 117.721C136.057 103 142.594 88.7444 153.893 77.4463C165.191 66.1482 179.446 59.6103 194.167 57.8326C192.39 72.5537 185.852 86.8094 174.554 98.1074Z" fill="#FF6D2E"/>
<path d="M77.4463 1C50.6308 27.8155 50.6308 71.292 77.4463 98.1074C104.262 124.923 147.738 124.923 174.554 98.1074C201.369 71.292 201.369 27.8155 174.554 1M1 174.554C27.8155 201.369 71.292 201.369 98.1074 174.554C124.923 147.738 124.923 104.262 98.1074 77.4463C71.292 50.6308 27.8155 50.6308 1 77.4463M251 174.554C224.185 201.369 180.708 201.369 153.893 174.554C127.077 147.738 127.077 104.262 153.893 77.4463C180.708 50.6308 224.185 50.6308 251 77.4463M174.554 251C201.369 224.185 201.369 180.708 174.554 153.893C147.738 127.077 104.262 127.077 77.4463 153.893C50.6308 180.708 50.6308 224.185 77.4463 251" stroke="#101010" stroke-width="2" stroke-linejoin="round"/>
</g>
<defs>
<clipPath id="clip0_2_90">
<rect width="252" height="252" fill="white"/>
</clipPath>
</defs>
</svg>
