<svg width="250" height="250" viewBox="0 0 250 250" fill="none" xmlns="http://www.w3.org/2000/svg">
<path d="M187.5 125C187.5 159.518 159.518 187.5 125 187.5C90.4822 187.5 62.5 159.518 62.5 125C62.5 90.4822 90.4822 62.5 125 62.5C159.518 62.5 187.5 90.4822 187.5 125Z" fill="#FF6D2E"/>
<path d="M62.5 125C62.5 159.518 90.4822 187.5 125 187.5C159.518 187.5 187.5 159.518 187.5 125M62.5 125C62.5 90.4822 90.4822 62.5 125 62.5C159.518 62.5 187.5 90.4822 187.5 125M62.5 125C62.5 90.4822 34.5178 62.5 1.17496e-05 62.5M62.5 125C62.5 159.518 34.5178 187.5 0 187.5M187.5 125C187.5 159.518 215.482 187.5 250 187.5M187.5 125C187.5 90.4822 215.482 62.5 250 62.5" stroke="#03261C" stroke-width="2" stroke-linejoin="round"/>
<path d="M0 125.129H250" stroke="#03261C" stroke-width="2" stroke-linejoin="round" stroke-dasharray="20 20"/>
</svg>
