<svg width="252" height="252" viewBox="0 0 252 252" fill="none" xmlns="http://www.w3.org/2000/svg">
<path d="M159.569 8.56799H84.4734L124.136 67.41L163.8 126.252H238.896L159.569 8.56799Z" fill="#F6F1ED"/>
<path d="M124.142 67.41H49.0461L88.7098 126.252L128.374 185.094H203.469L124.142 67.41Z" fill="#FF6D2E"/>
<path d="M88.7079 126.252H13.6119L53.2757 185.094L92.9385 243.936H168.035L88.7079 126.252Z" fill="#F6F1ED"/>
<path d="M124.136 67.41L84.4734 8.56799H159.569L238.896 126.252H163.8L124.136 67.41ZM124.136 67.41H49.0402L88.704 126.252M124.136 67.41L203.463 185.094H128.368L88.704 126.252M88.704 126.252H13.608L53.2718 185.094L92.9346 243.936H168.031L88.704 126.252Z" stroke="#03261C" stroke-width="2" stroke-linejoin="round"/>
</svg>
