<svg width="252" height="252" viewBox="0 0 252 252" fill="none" xmlns="http://www.w3.org/2000/svg">
<path fill-rule="evenodd" clip-rule="evenodd" d="M201 1H51V51H1V201H51V251H201V201H251V51H201V1Z" fill="#F9F9F9"/>
<path d="M51 1V0H50V1H51ZM201 1H202V0H201V1ZM51 51V52H52V51H51ZM1 51V50H0V51H1ZM1 201H0V202H1V201ZM51 201H52V200H51V201ZM51 251H50V252H51V251ZM201 251V252H202V251H201ZM201 201V200H200V201H201ZM251 201V202H252V201H251ZM251 51H252V50H251V51ZM201 51H200V52H201V51ZM51 2H201V0H51V2ZM52 51V1H50V51H52ZM1 52H51V50H1V52ZM2 201V51H0V201H2ZM51 200H1V202H51V200ZM52 251V201H50V251H52ZM201 250H51V252H201V250ZM200 201V251H202V201H200ZM251 200H201V202H251V200ZM250 51V201H252V51H250ZM251 50H201V52H251V50ZM202 51V1H200V51H202Z" fill="black"/>
</svg>
