<svg width="252" height="252" viewBox="0 0 252 252" fill="none" xmlns="http://www.w3.org/2000/svg">
<path fill-rule="evenodd" clip-rule="evenodd" d="M227 25.5L202 25.5V1H50.5V25.5H25.5V50.5H1V202H25.5L25.5 227H50.5L50.5 251H202V227H227V202H251V50.5L227 50.5V25.5Z" fill="#F9F9F9"/>
<path d="M202 25.5H201V26.5H202V25.5ZM227 25.5H228V24.5H227V25.5ZM202 1H203V0H202V1ZM50.5 1V0H49.5V1H50.5ZM50.5 25.5V26.5H51.5V25.5H50.5ZM25.5 25.5V24.5H24.5V25.5H25.5ZM25.5 50.5V51.5H26.5V50.5H25.5ZM1 50.5V49.5H0V50.5H1ZM1 202H0V203H1V202ZM25.5 202H26.5V201H25.5V202ZM25.5 227H24.5V228H25.5V227ZM50.5 227H51.5V226H50.5V227ZM50.5 251H49.5V252H50.5V251ZM202 251V252H203V251H202ZM202 227V226H201V227H202ZM227 227V228H228V227H227ZM227 202V201H226V202H227ZM251 202V203H252V202H251ZM251 50.5H252V49.5H251V50.5ZM227 50.5H226V51.5H227V50.5ZM202 26.5L227 26.5V24.5L202 24.5V26.5ZM201 1V25.5H203V1H201ZM50.5 2H202V0H50.5V2ZM49.5 1V25.5H51.5V1H49.5ZM50.5 24.5H25.5V26.5H50.5V24.5ZM24.5 25.5V50.5H26.5V25.5H24.5ZM25.5 49.5H1V51.5H25.5V49.5ZM2 202V50.5H0V202H2ZM1 203H25.5V201H1V203ZM24.5 202L24.5 227H26.5L26.5 202H24.5ZM25.5 228H50.5V226H25.5V228ZM49.5 227L49.5 251H51.5L51.5 227H49.5ZM202 250H50.5V252H202V250ZM203 251V227H201V251H203ZM202 228H227V226H202V228ZM228 227V202H226V227H228ZM227 203H251V201H227V203ZM250 50.5V202H252V50.5H250ZM227 51.5L251 51.5V49.5L227 49.5V51.5ZM226 25.5V50.5H228V25.5H226Z" fill="black"/>
</svg>
