<svg width="252" height="252" viewBox="0 0 252 252" fill="none" xmlns="http://www.w3.org/2000/svg">
<path fill-rule="evenodd" clip-rule="evenodd" d="M1 51.3637V202.653C27.2337 203.684 48.3159 224.766 49.348 251H200.637C201.696 224.098 223.839 202.614 251 202.613V51.4032C223.163 51.4029 200.597 28.8367 200.597 1H49.3876C49.3876 28.1619 27.9025 50.3056 1 51.3637Z" fill="#F9F9F9"/>
<path d="M1 202.653H0V203.614L0.960703 203.652L1 202.653ZM1 51.3637L0.960703 50.3644L0 50.4022V51.3637H1ZM49.348 251L48.3488 251.039L48.3866 252H49.348V251ZM200.637 251V252H201.599L201.636 251.039L200.637 251ZM251 202.613L251 203.613L252 203.613V202.613H251ZM251 51.4032H252V50.4032L251 50.4032L251 51.4032ZM200.597 1H201.597V0H200.597V1ZM49.3876 1V0H48.3876V1H49.3876ZM2 202.653V51.3637H0V202.653H2ZM50.3472 250.961C49.2947 224.206 27.7944 202.706 1.0393 201.653L0.960703 203.652C26.673 204.663 47.3372 225.327 48.3488 251.039L50.3472 250.961ZM200.637 250H49.348V252H200.637V250ZM251 201.613C223.3 201.614 200.717 223.524 199.638 250.961L201.636 251.039C202.674 224.672 224.378 203.614 251 203.613L251 201.613ZM250 51.4032V202.613H252V51.4032H250ZM251 50.4032C223.716 50.4029 201.597 28.2844 201.597 1H199.597C199.597 29.389 222.611 52.4029 251 52.4032L251 50.4032ZM49.3876 2H200.597V0H49.3876V2ZM1.0393 52.3629C28.4763 51.2839 50.3876 28.701 50.3876 1H48.3876C48.3876 27.6228 27.3288 49.3274 0.960703 50.3644L1.0393 52.3629Z" fill="black"/>
</svg>
