<svg width="252" height="252" viewBox="0 0 252 252" fill="none" xmlns="http://www.w3.org/2000/svg">
<path fill-rule="evenodd" clip-rule="evenodd" d="M1 50V202.002L49.998 251H202.002L251 202.002V50L202 1H50L1 50Z" fill="#F9F9F9"/>
<path d="M1 202.002H0V202.416L0.292893 202.709L1 202.002ZM1 50L0.292893 49.2929L0 49.5858V50H1ZM49.998 251L49.2909 251.707L49.5838 252H49.998V251ZM202.002 251V252H202.416L202.709 251.707L202.002 251ZM251 202.002L251.707 202.709L252 202.416V202.002H251ZM251 50H252V49.5858L251.707 49.2929L251 50ZM202 1L202.707 0.292893L202.414 0H202V1ZM50 1V0H49.5858L49.2929 0.292893L50 1ZM2 202.002V50H0V202.002H2ZM0.292893 202.709L49.2909 251.707L50.7052 250.293L1.70711 201.295L0.292893 202.709ZM202.002 250H49.998V252H202.002V250ZM202.709 251.707L251.707 202.709L250.293 201.295L201.295 250.293L202.709 251.707ZM250 50V202.002H252V50H250ZM201.293 1.70711L250.293 50.7071L251.707 49.2929L202.707 0.292893L201.293 1.70711ZM50 2H202V0H50V2ZM49.2929 0.292893L0.292893 49.2929L1.70711 50.7071L50.7071 1.70711L49.2929 0.292893Z" fill="black"/>
</svg>
