<svg width="252" height="252" viewBox="0 0 252 252" fill="none" xmlns="http://www.w3.org/2000/svg">
<path fill-rule="evenodd" clip-rule="evenodd" d="M160.713 1L125.856 35.8573L90.9983 1H1V91.0019L35.8553 125.857L1 160.713V251H90.8574L125.856 216.002L160.854 251H251V160.857L216 125.857L251 90.8572V1H160.713Z" fill="#F9F9F9"/>
<path d="M125.856 35.8573L125.148 36.5644L125.856 37.2715L126.563 36.5644L125.856 35.8573ZM160.713 1V0H160.299L160.006 0.292893L160.713 1ZM90.9983 1L91.7054 0.292893L91.4125 0H90.9983V1ZM1 1V0H0V1H1ZM1 91.0019H0V91.4161L0.292893 91.709L1 91.0019ZM35.8553 125.857L36.5624 126.564L37.2696 125.857L36.5624 125.15L35.8553 125.857ZM1 160.713L0.292893 160.005L0 160.298V160.713H1ZM1 251H0V252H1V251ZM90.8574 251V252H91.2716L91.5645 251.707L90.8574 251ZM125.856 216.002L126.563 215.295L125.856 214.588L125.148 215.295L125.856 216.002ZM160.854 251L160.147 251.707L160.44 252H160.854V251ZM251 251V252H252V251H251ZM251 160.857H252V160.443L251.707 160.15L251 160.857ZM216 125.857L215.293 125.15L214.586 125.857L215.293 126.564L216 125.857ZM251 90.8572L251.707 91.5643L252 91.2714V90.8572H251ZM251 1H252V0H251V1ZM126.563 36.5644L161.42 1.70711L160.006 0.292893L125.148 35.1502L126.563 36.5644ZM90.2912 1.70711L125.148 36.5644L126.563 35.1502L91.7054 0.292893L90.2912 1.70711ZM1 2H90.9983V0H1V2ZM2 91.0019V1H0V91.0019H2ZM0.292893 91.709L35.1482 126.564L36.5624 125.15L1.70711 90.2948L0.292893 91.709ZM35.1482 125.15L0.292893 160.005L1.70711 161.42L36.5624 126.564L35.1482 125.15ZM2 251V160.713H0V251H2ZM90.8574 250H1V252H90.8574V250ZM91.5645 251.707L126.563 216.709L125.148 215.295L90.1503 250.293L91.5645 251.707ZM125.148 216.709L160.147 251.707L161.561 250.293L126.563 215.295L125.148 216.709ZM251 250H160.854V252H251V250ZM250 160.857V251H252V160.857H250ZM251.707 160.15L216.707 125.15L215.293 126.564L250.293 161.564L251.707 160.15ZM216.707 126.564L251.707 91.5643L250.293 90.1501L215.293 125.15L216.707 126.564ZM250 1V90.8572H252V1H250ZM160.713 2H251V0H160.713V2Z" fill="black"/>
</svg>
