<svg width="253" height="252" viewBox="0 0 253 252" fill="none" xmlns="http://www.w3.org/2000/svg">
<path fill-rule="evenodd" clip-rule="evenodd" d="M67.9643 1H1V67.9643L14.3906 72.9858V237.607H179.154L184.176 251H251.141V184.036L237.605 178.96V14.3926H162.141L157.141 1H90.1763L85.1541 14.3926H72.9865L67.9643 1Z" fill="#F9F9F9"/>
<path d="M1 1V0C0.447715 0 0 0.447715 0 1L1 1ZM67.9643 1L68.9006 0.648877C68.7542 0.258573 68.3811 0 67.9643 0V1ZM1 67.9643H0C0 68.3811 0.258573 68.7542 0.648877 68.9006L1 67.9643ZM14.3906 72.9858H15.3906C15.3906 72.5689 15.1321 72.1958 14.7417 72.0494L14.3906 72.9858ZM14.3906 237.607H13.3906C13.3906 238.159 13.8383 238.607 14.3906 238.607V237.607ZM179.154 237.607L180.09 237.256C179.944 236.865 179.571 236.607 179.154 236.607V237.607ZM184.176 251L183.24 251.351C183.386 251.741 183.759 252 184.176 252V251ZM251.141 251V252C251.693 252 252.141 251.552 252.141 251H251.141ZM251.141 184.036H252.141C252.141 183.619 251.882 183.246 251.492 183.099L251.141 184.036ZM237.605 178.96H236.605C236.605 179.377 236.863 179.75 237.254 179.896L237.605 178.96ZM237.605 14.3926H238.605C238.605 13.8403 238.157 13.3926 237.605 13.3926V14.3926ZM162.141 14.3926L161.204 14.7423C161.35 15.1334 161.723 15.3926 162.141 15.3926V14.3926ZM157.141 1L158.077 0.650246C157.931 0.259227 157.558 0 157.141 0V1ZM90.1763 1V0C89.7595 0 89.3864 0.258573 89.24 0.648877L90.1763 1ZM85.1541 14.3926V15.3926C85.571 15.3926 85.9441 15.134 86.0905 14.7437L85.1541 14.3926ZM72.9865 14.3926L72.0502 14.7437C72.1965 15.134 72.5697 15.3926 72.9865 15.3926V14.3926ZM1 2H67.9643V0H1V2ZM2 67.9643V1H0V67.9643H2ZM14.7417 72.0494L1.35112 67.028L0.648877 68.9006L14.0395 73.9221L14.7417 72.0494ZM15.3906 237.607V72.9858H13.3906V237.607H15.3906ZM179.154 236.607H14.3906V238.607H179.154V236.607ZM178.218 237.958L183.24 251.351L185.113 250.649L180.09 237.256L178.218 237.958ZM184.176 252H251.141V250H184.176V252ZM252.141 251V184.036H250.141V251H252.141ZM251.492 183.099L237.956 178.023L237.254 179.896L250.79 184.972L251.492 183.099ZM236.605 14.3926V178.96H238.605V14.3926H236.605ZM162.141 15.3926H237.605V13.3926H162.141V15.3926ZM156.204 1.34975L161.204 14.7423L163.077 14.0428L158.077 0.650246L156.204 1.34975ZM90.1763 2H157.141V0H90.1763V2ZM86.0905 14.7437L91.1127 1.35112L89.24 0.648877L84.2178 14.0415L86.0905 14.7437ZM72.9865 15.3926H85.1541V13.3926H72.9865V15.3926ZM67.028 1.35112L72.0502 14.7437L73.9228 14.0415L68.9006 0.648877L67.028 1.35112Z" fill="black"/>
</svg>
