<svg width="252" height="252" viewBox="0 0 252 252" fill="none" xmlns="http://www.w3.org/2000/svg">
<path fill-rule="evenodd" clip-rule="evenodd" d="M148.5 1.00003L1.00007 1L1.00005 148.5L14.3906 153.521V179.014L1 184.036V251H67.9643L72.9867 237.607H98.4776L103.5 251H251V103.5L237.605 98.4768V72.9874L251 67.9643V1H184.036L179.013 14.3926H153.522L148.5 1.00003Z" fill="#F9F9F9"/>
<path d="M1.00007 1L1.00007 0C0.734855 0 0.480501 0.105357 0.292964 0.292893C0.105428 0.480429 7.09891e-05 0.734783 7.09295e-05 1L1.00007 1ZM148.5 1.00003L149.436 0.648903C149.29 0.258599 148.917 2.58684e-05 148.5 2.58088e-05V1.00003ZM1.00005 148.5H4.51207e-05C4.50611e-05 148.917 0.258618 149.29 0.648921 149.436L1.00005 148.5ZM14.3906 153.521H15.3906C15.3906 153.105 15.1321 152.732 14.7418 152.585L14.3906 153.521ZM14.3906 179.014L14.7418 179.951C15.1321 179.804 15.3906 179.431 15.3906 179.014H14.3906ZM1 184.036L0.648876 183.099C0.258573 183.246 0 183.619 0 184.036H1ZM1 251H0C0 251.552 0.447715 252 1 252L1 251ZM67.9643 251V252C68.3811 252 68.7543 251.741 68.9006 251.351L67.9643 251ZM72.9867 237.607V236.607C72.5699 236.607 72.1968 236.865 72.0504 237.256L72.9867 237.607ZM98.4776 237.607L99.4139 237.256C99.2675 236.865 98.8944 236.607 98.4776 236.607V237.607ZM103.5 251L102.564 251.351C102.71 251.741 103.083 252 103.5 252V251ZM251 251V252C251.552 252 252 251.552 252 251H251ZM251 103.5H252C252 103.083 251.741 102.71 251.351 102.564L251 103.5ZM237.605 98.4768H236.605C236.605 98.8937 236.863 99.2668 237.254 99.4132L237.605 98.4768ZM237.605 72.9874L237.254 72.0511C236.863 72.1975 236.605 72.5706 236.605 72.9874H237.605ZM251 67.9643L251.351 68.9006C251.741 68.7542 252 68.3811 252 67.9643H251ZM251 1H252C252 0.447715 251.552 0 251 0V1ZM184.036 1V0C183.619 0 183.246 0.258573 183.099 0.648877L184.036 1ZM179.013 14.3926V15.3926C179.43 15.3926 179.803 15.134 179.95 14.7437L179.013 14.3926ZM153.522 14.3926L152.586 14.7437C152.732 15.134 153.105 15.3926 153.522 15.3926V14.3926ZM1.00007 2L148.5 2.00003V2.58088e-05L1.00007 0L1.00007 2ZM2.00005 148.5L2.00007 1L7.09295e-05 1L4.51207e-05 148.5H2.00005ZM14.7418 152.585L1.35117 147.564L0.648921 149.436L14.0395 154.458L14.7418 152.585ZM15.3906 179.014V153.521H13.3906V179.014H15.3906ZM14.0395 178.078L0.648876 183.099L1.35112 184.972L14.7418 179.951L14.0395 178.078ZM0 184.036V251H2V184.036H0ZM1 252H67.9643V250H1V252ZM68.9006 251.351L73.923 237.958L72.0504 237.256L67.028 250.649L68.9006 251.351ZM98.4776 236.607H72.9867V238.607H98.4776V236.607ZM104.436 250.649L99.4139 237.256L97.5412 237.958L102.564 251.351L104.436 250.649ZM251 250H103.5V252H251V250ZM250 103.5V251H252V103.5H250ZM237.254 99.4132L250.649 104.436L251.351 102.564L237.956 97.5405L237.254 99.4132ZM236.605 72.9874V98.4768H238.605V72.9874H236.605ZM250.649 67.028L237.254 72.0511L237.956 73.9238L251.351 68.9006L250.649 67.028ZM250 1V67.9643H252V1H250ZM184.036 2H251V0H184.036V2ZM179.95 14.7437L184.972 1.35112L183.099 0.648877L178.077 14.0415L179.95 14.7437ZM153.522 15.3926H179.013V13.3926H153.522V15.3926ZM147.564 1.35115L152.586 14.7437L154.459 14.0415L149.436 0.648903L147.564 1.35115Z" fill="black"/>
</svg>
