<svg width="252" height="252" viewBox="0 0 252 252" fill="none" xmlns="http://www.w3.org/2000/svg">
<path fill-rule="evenodd" clip-rule="evenodd" d="M1 1H67.9643L72.9865 14.3926H179.013L184.036 1H251V67.9643L237.605 72.9874V179.013L251 184.036V251H184.036L179.013 237.607H101.787L14.3906 150.211V72.9858L1 67.9643V1Z" fill="#F9F9F9"/>
<path d="M67.9643 1L68.9006 0.648877C68.7542 0.258573 68.3811 0 67.9643 0V1ZM1 1V0C0.447715 0 0 0.447715 0 1L1 1ZM72.9865 14.3926L72.0502 14.7437C72.1965 15.134 72.5697 15.3926 72.9865 15.3926V14.3926ZM179.013 14.3926V15.3926C179.43 15.3926 179.803 15.134 179.95 14.7437L179.013 14.3926ZM184.036 1V0C183.619 0 183.246 0.258573 183.099 0.648877L184.036 1ZM251 1H252C252 0.447715 251.552 0 251 0V1ZM251 67.9643L251.351 68.9006C251.741 68.7542 252 68.3811 252 67.9643H251ZM237.605 72.9874L237.254 72.0511C236.863 72.1975 236.605 72.5706 236.605 72.9874H237.605ZM237.605 179.013H236.605C236.605 179.429 236.863 179.803 237.254 179.949L237.605 179.013ZM251 184.036H252C252 183.619 251.741 183.246 251.351 183.099L251 184.036ZM251 251V252C251.552 252 252 251.552 252 251H251ZM184.036 251L183.099 251.351C183.246 251.741 183.619 252 184.036 252V251ZM179.013 237.607L179.95 237.256C179.803 236.865 179.43 236.607 179.013 236.607V237.607ZM101.787 237.607L101.08 238.314C101.267 238.501 101.522 238.607 101.787 238.607V237.607ZM14.3906 150.211H13.3906C13.3906 150.476 13.496 150.73 13.6835 150.918L14.3906 150.211ZM14.3906 72.9858H15.3906C15.3906 72.5689 15.1321 72.1958 14.7417 72.0494L14.3906 72.9858ZM1 67.9643H0C0 68.3811 0.258573 68.7542 0.648877 68.9006L1 67.9643ZM67.9643 0H1V2H67.9643V0ZM73.9228 14.0415L68.9006 0.648877L67.028 1.35112L72.0502 14.7437L73.9228 14.0415ZM179.013 13.3926H72.9865V15.3926H179.013V13.3926ZM183.099 0.648877L178.077 14.0415L179.95 14.7437L184.972 1.35112L183.099 0.648877ZM251 0H184.036V2H251V0ZM252 67.9643V1H250V67.9643H252ZM237.956 73.9238L251.351 68.9006L250.649 67.028L237.254 72.0511L237.956 73.9238ZM238.605 179.013V72.9874H236.605V179.013H238.605ZM251.351 183.099L237.956 178.076L237.254 179.949L250.649 184.972L251.351 183.099ZM252 251V184.036H250V251H252ZM184.036 252H251V250H184.036V252ZM178.077 237.958L183.099 251.351L184.972 250.649L179.95 237.256L178.077 237.958ZM101.787 238.607H179.013V236.607H101.787V238.607ZM102.494 236.9L15.0977 149.503L13.6835 150.918L101.08 238.314L102.494 236.9ZM13.3906 72.9858V150.211H15.3906V72.9858H13.3906ZM0.648877 68.9006L14.0395 73.9221L14.7417 72.0494L1.35112 67.028L0.648877 68.9006ZM0 1V67.9643H2V1H0Z" fill="black"/>
</svg>
