<svg width="253" height="255" viewBox="0 0 253 255" fill="none" xmlns="http://www.w3.org/2000/svg">
<path fill-rule="evenodd" clip-rule="evenodd" d="M56.6264 1.79297H148.305L159.531 24.5156H251.003V70.6709L228.5 81.789V173.467L251.003 184.585V253.034H183.102L171.969 230.5L80.2904 230.5L69.1569 253.034H22.4844V161.08L1 150.465L1 58.787L22.4844 48.1722V24.5156H45.3998L56.6264 1.79297Z" fill="#F9F9F9"/>
<path d="M148.305 1.79297L149.201 1.35001L148.926 0.792969H148.305V1.79297ZM56.6264 1.79297V0.792969H56.0051L55.7298 1.35001L56.6264 1.79297ZM159.531 24.5156L158.635 24.9586L158.91 25.5156H159.531V24.5156ZM251.003 24.5156H252.003V23.5156H251.003V24.5156ZM251.003 70.6709L251.446 71.5674L252.003 71.2922V70.6709H251.003ZM228.5 81.789L228.057 80.8924L227.5 81.1676V81.789H228.5ZM228.5 173.467H227.5V174.089L228.057 174.364L228.5 173.467ZM251.003 184.585H252.003V183.964L251.446 183.689L251.003 184.585ZM251.003 253.034V254.034H252.003V253.034H251.003ZM183.102 253.034L182.206 253.477L182.481 254.034H183.102V253.034ZM171.969 230.5L172.865 230.057L172.59 229.5H171.969V230.5ZM80.2904 230.5V229.5H79.6691L79.3939 230.057L80.2904 230.5ZM69.1569 253.034V254.034H69.7783L70.0535 253.477L69.1569 253.034ZM22.4844 253.034H21.4844V254.034H22.4844V253.034ZM22.4844 161.08H23.4844V160.459L22.9273 160.184L22.4844 161.08ZM1 150.465H4.52995e-06V151.087L0.557048 151.362L1 150.465ZM1 58.787L0.557044 57.8905L0 58.1657V58.787H1ZM22.4844 48.1722L22.9273 49.0687L23.4844 48.7935V48.1722H22.4844ZM22.4844 24.5156V23.5156H21.4844V24.5156H22.4844ZM45.3998 24.5156V25.5156H46.0211L46.2963 24.9586L45.3998 24.5156ZM148.305 0.792969H56.6264V2.79297H148.305V0.792969ZM160.428 24.0727L149.201 1.35001L147.408 2.23593L158.635 24.9586L160.428 24.0727ZM251.003 23.5156H159.531V25.5156H251.003V23.5156ZM252.003 70.6709V24.5156H250.003V70.6709H252.003ZM228.943 82.6855L251.446 71.5674L250.56 69.7744L228.057 80.8924L228.943 82.6855ZM229.5 173.467V81.789H227.5V173.467H229.5ZM251.446 183.689L228.943 172.571L228.057 174.364L250.56 185.482L251.446 183.689ZM252.003 253.034V184.585H250.003V253.034H252.003ZM183.102 254.034H251.003V252.034H183.102V254.034ZM171.072 230.943L182.206 253.477L183.999 252.591L172.865 230.057L171.072 230.943ZM80.2904 231.5L171.969 231.5V229.5L80.2904 229.5V231.5ZM70.0535 253.477L81.187 230.943L79.3939 230.057L68.2604 252.591L70.0535 253.477ZM22.4844 254.034H69.1569V252.034H22.4844V254.034ZM21.4844 161.08V253.034H23.4844V161.08H21.4844ZM0.557048 151.362L22.0414 161.977L22.9273 160.184L1.44296 149.569L0.557048 151.362ZM0 58.787L4.52995e-06 150.465H2L2 58.787H0ZM22.0414 47.2757L0.557044 57.8905L1.44296 59.6836L22.9273 49.0687L22.0414 47.2757ZM21.4844 24.5156V48.1722H23.4844V24.5156H21.4844ZM45.3998 23.5156H22.4844V25.5156H45.3998V23.5156ZM55.7298 1.35001L44.5032 24.0727L46.2963 24.9586L57.5229 2.23592L55.7298 1.35001Z" fill="black"/>
</svg>
