<svg width="253" height="254" viewBox="0 0 253 254" fill="none" xmlns="http://www.w3.org/2000/svg">
<path fill-rule="evenodd" clip-rule="evenodd" d="M132.061 1.5H80.3822L69.2656 24H23V70.5132L1 81.3827V173.061L23 183.931V253H70.1738L81.2904 230.5L172.969 230.5L184.085 253H252V184.586L229.5 173.469V81.7909L252 70.6743V24H251.759V1.5H198.79L187.674 24H143.177L132.061 1.5Z" fill="#F9F9F9"/>
<path d="M80.3822 1.5V0.5H79.7609L79.4857 1.05704L80.3822 1.5ZM132.061 1.5L132.957 1.05704L132.682 0.5H132.061V1.5ZM69.2656 24V25H69.887L70.1622 24.443L69.2656 24ZM23 24V23H22V24H23ZM23 70.5132L23.443 71.4097L24 71.1345V70.5132H23ZM1 81.3827L0.557044 80.4862L0 80.7614V81.3827H1ZM1 173.061H0V173.682L0.557044 173.958L1 173.061ZM23 183.931H24V183.309L23.443 183.034L23 183.931ZM23 253H22V254H23V253ZM70.1738 253V254H70.7952L71.0704 253.443L70.1738 253ZM81.2904 230.5V229.5H80.6691L80.3939 230.057L81.2904 230.5ZM172.969 230.5L173.865 230.057L173.59 229.5H172.969V230.5ZM184.085 253L183.189 253.443L183.464 254H184.085V253ZM252 253V254H253V253H252ZM252 184.586H253V183.965L252.443 183.689L252 184.586ZM229.5 173.469H228.5V174.091L229.057 174.366L229.5 173.469ZM229.5 81.7909L229.057 80.8944L228.5 81.1696V81.7909H229.5ZM252 70.6743L252.443 71.5709L253 71.2956V70.6743H252ZM252 24H253V23H252V24ZM251.759 24H250.759V25H251.759V24ZM251.759 1.5H252.759V0.5H251.759V1.5ZM198.79 1.5V0.5H198.169L197.894 1.05704L198.79 1.5ZM187.674 24V25H188.295L188.57 24.443L187.674 24ZM143.177 24L142.281 24.443L142.556 25H143.177V24ZM80.3822 2.5H132.061V0.5H80.3822V2.5ZM70.1622 24.443L81.2788 1.94296L79.4857 1.05704L68.3691 23.557L70.1622 24.443ZM23 25H69.2656V23H23V25ZM24 70.5132V24H22V70.5132H24ZM1.44296 82.2793L23.443 71.4097L22.557 69.6166L0.557044 80.4862L1.44296 82.2793ZM2 173.061V81.3827H0V173.061H2ZM23.443 183.034L1.44296 172.165L0.557044 173.958L22.557 184.827L23.443 183.034ZM24 253V183.931H22V253H24ZM70.1738 252H23V254H70.1738V252ZM80.3939 230.057L69.2773 252.557L71.0704 253.443L82.187 230.943L80.3939 230.057ZM172.969 229.5L81.2904 229.5V231.5L172.969 231.5V229.5ZM184.982 252.557L173.865 230.057L172.072 230.943L183.189 253.443L184.982 252.557ZM252 252H184.085V254H252V252ZM251 184.586V253H253V184.586H251ZM252.443 183.689L229.943 172.573L229.057 174.366L251.557 185.482L252.443 183.689ZM230.5 173.469V81.7909H228.5V173.469H230.5ZM229.943 82.6875L252.443 71.5709L251.557 69.7778L229.057 80.8944L229.943 82.6875ZM251 24V70.6743H253V24H251ZM251.759 25H252V23H251.759V25ZM250.759 1.5V24H252.759V1.5H250.759ZM198.79 2.5H251.759V0.5H198.79V2.5ZM188.57 24.443L199.687 1.94296L197.894 1.05704L186.777 23.557L188.57 24.443ZM143.177 25H187.674V23H143.177V25ZM131.164 1.94296L142.281 24.443L144.074 23.557L132.957 1.05704L131.164 1.94296Z" fill="black"/>
</svg>
