<svg width="252" height="252" viewBox="0 0 252 252" fill="none" xmlns="http://www.w3.org/2000/svg">
<path d="M17.0274 154.821C-4.34249 136.645 -4.34248 115.355 17.0274 97.1792L36.7672 80.3897C52.4568 67.0449 67.0449 52.4568 80.3897 36.7672L97.1792 17.0274C115.355 -4.34247 136.645 -4.34247 154.821 17.0274L171.61 36.7672C184.955 52.4568 199.543 67.0449 215.233 80.3897L234.973 97.1792C256.342 115.355 256.342 136.645 234.973 154.821L215.233 171.61C199.543 184.955 184.955 199.543 171.61 215.233L154.821 234.973C136.645 256.342 115.355 256.342 97.1792 234.973L80.3897 215.233C67.0449 199.543 52.4568 184.955 36.7671 171.61L17.0274 154.821Z" fill="#F9F9F9" stroke="black" stroke-width="2" stroke-linejoin="round"/>
</svg>
