<svg width="252" height="244" viewBox="0 0 252 244" fill="none" xmlns="http://www.w3.org/2000/svg">
<path d="M98.0962 12.9407C113.568 -2.31359 138.432 -2.31357 153.904 12.9408L169.917 28.729C181.612 40.2597 194.978 49.9646 209.564 57.5174L229.537 67.8591C248.835 77.8509 256.518 101.484 246.783 120.904L236.707 141.003C229.348 155.682 224.243 171.385 221.563 187.584L217.893 209.764C214.348 231.193 194.232 245.799 172.744 242.547L150.503 239.181C134.26 236.722 117.74 236.722 101.497 239.181L79.256 242.547C57.7675 245.799 37.6519 231.193 34.1066 209.764L30.4373 187.584C27.7574 171.385 22.6522 155.682 15.2933 141.003L5.21723 120.904C-4.5181 101.484 3.16543 77.8509 22.4628 67.859L42.4356 57.5174C57.0223 49.9646 70.388 40.2597 82.0829 28.729L98.0962 12.9407Z" fill="#F9F9F9" stroke="black" stroke-width="2" stroke-linejoin="round"/>
</svg>
