<svg width="252" height="252" viewBox="0 0 252 252" fill="none" xmlns="http://www.w3.org/2000/svg">
<path fill-rule="evenodd" clip-rule="evenodd" d="M251 126L250.998 127.041L250.994 128.083L250.986 129.124L250.975 130.166L250.961 131.208L250.943 132.251L250.923 133.295L250.899 134.34L250.871 135.386L250.84 136.433L250.806 137.481L250.768 138.531L250.727 139.582L250.681 140.634L250.632 141.689L250.579 142.745L250.522 143.803L250.461 144.864L250.395 145.926L250.325 146.991L250.25 148.058L250.171 149.127L250.086 150.199L249.997 151.274L249.902 152.351L249.802 153.431L249.696 154.514L249.584 155.599L249.467 156.688L249.343 157.779L249.213 158.874L249.076 159.971L248.933 161.072L248.782 162.176L248.624 163.282L248.459 164.392L248.285 165.505L248.104 166.621L247.914 167.741L247.716 168.863L247.509 169.988L247.293 171.116L247.068 172.248L246.833 173.382L246.588 174.519L246.333 175.658L246.067 176.801L245.79 177.946L245.503 179.093L245.204 180.243L244.893 181.394L244.571 182.548L244.236 183.704L243.889 184.862L243.528 186.021L243.155 187.181L242.768 188.343L242.367 189.506L241.952 190.669L241.523 191.833L241.079 192.997L240.62 194.162L240.146 195.326L239.656 196.489L239.15 197.652L238.628 198.814L238.09 199.974L237.535 201.133L236.963 202.289L236.373 203.443L235.767 204.595L235.142 205.743L234.5 206.887L233.839 208.028L233.16 209.164L232.462 210.295L231.745 211.422L231.009 212.542L230.254 213.657L229.48 214.764L228.686 215.865L227.873 216.959L227.039 218.044L226.186 219.121L225.313 220.189L224.42 221.247L223.506 222.296L222.573 223.333L221.619 224.36L220.645 225.375L219.651 226.378L218.636 227.369L217.602 228.346L216.547 229.309L215.473 230.259L214.378 231.193L213.264 232.112L212.13 233.015L210.977 233.901L209.804 234.771L208.612 235.623L207.402 236.456L206.173 237.272L204.926 238.068L203.66 238.844L202.377 239.601L201.077 240.336L199.759 241.051L198.425 241.744L197.075 242.415L195.709 243.064L194.328 243.689L192.931 244.291L191.521 244.87L190.096 245.424L188.658 245.954L187.207 246.458L185.743 246.938L184.268 247.392L182.782 247.82L181.285 248.222L179.778 248.598L178.262 248.947L176.737 249.269L175.204 249.564L173.664 249.832L172.116 250.072L170.563 250.285L169.004 250.471L167.441 250.628L165.873 250.758L164.303 250.86L162.729 250.935L161.154 250.981L159.577 251L158 250.991L156.423 250.955L154.847 250.891L153.273 250.8L151.701 250.682L150.132 250.537L148.567 250.365L147.006 250.167L145.45 249.942L143.899 249.691L142.355 249.415L140.819 249.114L139.289 248.787L137.768 248.436L136.256 248.06L134.753 247.661L133.26 247.239L131.778 246.793L130.307 246.325L128.847 245.834L127.4 245.322L125.965 244.789L124.543 244.236L123.134 243.662L121.74 243.069L120.36 242.456L118.995 241.825L117.645 241.177L116.31 240.511L114.991 239.828L113.688 239.129L112.402 238.414L111.132 237.684L109.879 236.94L108.643 236.181L107.424 235.41L106.223 234.626L105.039 233.829L103.873 233.021L102.725 232.203L101.595 231.373L100.483 230.534L99.3891 229.686L98.3132 228.829L97.2555 227.964L96.2158 227.092L95.1942 226.212L94.1907 225.326L93.2051 224.434L92.2375 223.537L91.2877 222.635L90.3556 221.728L89.441 220.818L88.5439 219.904L87.6641 218.987L86.8015 218.068L85.9557 217.147L85.1267 216.224L84.3143 215.3L83.5182 214.375L82.7381 213.451L81.974 212.526L81.2254 211.602L80.4921 210.678L79.774 209.756L79.0706 208.835L78.3817 207.916L77.7071 207L77.0463 206.086L76.3992 205.175L75.7653 204.266L75.1444 203.362L74.5362 202.46L73.9402 201.563L73.3562 200.67L72.7839 199.781L72.2228 198.896L71.6727 198.017L71.1332 197.142L70.6039 196.272L70.0845 195.408L69.5746 194.548L69.0739 193.695L68.582 192.847L68.0985 192.005L67.623 191.168L67.1553 190.338L66.6949 189.513L66.2415 188.695L65.7947 187.883L65.3541 187.077L64.9193 186.278L64.4901 185.484L64.066 184.698L63.6466 183.917L63.2316 183.143L62.8206 182.375L62.4133 181.614L62.0092 180.859L61.608 180.11L61.2094 179.368L60.8129 178.632L60.4182 177.902L60.025 177.178L59.6328 176.461L59.2412 175.749L58.85 175.044L58.4587 174.344L58.067 173.65L57.6745 172.962L57.2808 172.279L56.8855 171.603L56.4883 170.931L56.0889 170.265L55.6867 169.604L55.2814 168.948L54.8727 168.296L54.4602 167.65L54.0434 167.008L53.622 166.371L53.1956 165.738L52.7638 165.109L52.3262 164.484L51.8823 163.862L51.4318 163.245L50.9742 162.63L50.5092 162.019L50.0363 161.411L49.555 160.806L49.0649 160.203L48.5656 159.602L48.0566 159.004L47.5374 158.407L47.0076 157.813L46.4667 157.219L45.9142 156.626L45.3495 156.035L44.7722 155.444L44.1818 154.853L43.5776 154.262L42.9591 153.67L42.3258 153.078L41.6771 152.485L41.0124 151.89L40.3309 151.294L39.6322 150.696L38.9156 150.095L38.1803 149.491L37.4257 148.884L36.651 148.273L35.8555 147.658L35.0385 147.038L34.1991 146.413L33.3365 145.783L32.4498 145.146L31.5382 144.503L30.6007 143.852L29.6364 143.194L28.6443 142.527L27.6234 141.851L26.5725 141.165L25.4906 140.469L24.3765 139.761L23.229 139.042L22.0468 138.31L20.8286 137.564L19.5731 136.804L18.2788 136.028L16.9442 135.236L15.5677 134.427L14.1478 133.599L12.6827 132.752L11.1706 131.884L9.60967 130.994L7.99791 130.08L6.33327 129.142L4.61361 128.178L2.83664 127.186L1 126.166L2.25821 125.136L4.05392 124.135L5.79159 123.162L7.47351 122.216L9.10188 121.295L10.6788 120.398L12.2062 119.523L13.6861 118.669L15.1202 117.835L16.5104 117.02L17.8581 116.223L19.1651 115.442L20.4328 114.677L21.6627 113.927L22.8562 113.19L24.0146 112.467L25.1392 111.756L26.2313 111.056L27.2919 110.367L28.3223 109.688L29.3235 109.018L30.2965 108.357L31.2424 107.704L32.1622 107.058L33.0567 106.42L33.9269 105.787L34.7736 105.161L35.5977 104.539L36.3999 103.923L37.1811 103.311L37.9421 102.702L38.6834 102.098L39.4059 101.496L40.1103 100.897L40.7971 100.3L41.4671 99.7046L42.1209 99.111L42.7591 98.5186L43.3822 97.927L43.9908 97.3358L44.5856 96.7449L45.167 96.1538L45.7357 95.5623L46.292 94.9701L46.8366 94.3769L47.3699 93.7824L47.8924 93.1864L48.4045 92.5886L48.9069 91.9888L49.3999 91.3868L49.8839 90.7823L50.3594 90.1751L50.8269 89.5649L51.2868 88.9517L51.7395 88.3351L52.1855 87.715L52.625 87.0911L53.0587 86.4634L53.4868 85.8317L53.9097 85.1957L54.3279 84.5553L54.7417 83.9103L55.1516 83.2606L55.5579 82.6061L55.9611 81.9466L56.3614 81.282L56.7592 80.6122L57.1551 79.9369L57.5492 79.2562L57.9421 78.5699L58.334 77.8779L58.7254 77.1802L59.1166 76.4765L59.508 75.7669L59.8999 75.0513L60.2928 74.3296L60.687 73.6017L61.0829 72.8676L61.4808 72.1273L61.8811 71.3806L62.2842 70.6276L62.6905 69.8683L63.1003 69.1026L63.514 68.3305L63.9319 67.552L64.3545 66.7672L64.782 65.9759L65.215 65.1784L65.6537 64.3746L66.0985 63.5645L66.5498 62.7482L67.0079 61.9257L67.4732 61.0972L67.9462 60.2627L68.427 59.4223L68.9163 58.5762L69.4141 57.7243L69.9211 56.8669L70.4374 56.0041L70.9635 55.136L71.4997 54.2627L72.0464 53.3845L72.604 52.5016L73.1727 51.6141L73.7529 50.7222L74.345 49.8261L74.9493 48.9261L75.5661 48.0224L76.1958 47.1153L76.8387 46.205L77.4951 45.2918L78.1653 44.376L78.8496 43.4579L79.5483 42.5378L80.2618 41.616L80.9902 40.6929L81.7338 39.7689L82.493 38.8442L83.268 37.9193L84.059 36.9946L84.8662 36.0705L85.6899 35.1474L86.5303 34.2256L87.3875 33.3057L88.2618 32.3881L89.1534 31.4733L90.0623 30.5617L90.9889 29.6539L91.933 28.7502L92.895 27.8513L93.8748 26.9576L94.8726 26.0697L95.8884 25.188L96.9223 24.3131L97.9743 23.4457L99.0445 22.5861L100.133 21.735L101.239 20.893L102.363 20.0606L103.506 19.2384L104.666 18.427L105.844 17.6269L107.039 16.8387L108.253 16.0631L109.483 15.3006L110.731 14.5518L111.995 13.8173L113.276 13.0977L114.574 12.3935L115.888 11.7054L117.218 11.0339L118.563 10.3795L119.924 9.74293L121.299 9.12465L122.689 8.52521L124.093 7.94517L125.51 7.38506L126.941 6.84539L128.385 6.32668L129.84 5.82941L131.308 5.35408L132.787 4.90116L134.276 4.47109L135.776 4.06432L137.285 3.68126L138.804 3.32234L140.331 2.98792L141.865 2.67838L143.407 2.39406L144.955 2.1353L146.509 1.90241L148.069 1.69566L149.633 1.51533L151.201 1.36166L152.772 1.23486L154.346 1.13513L155.921 1.06265L157.498 1.01757L159.075 1L160.652 1.01005L162.227 1.0478L163.802 1.1133L165.373 1.20658L166.942 1.32763L168.507 1.47643L170.067 1.65295L171.622 1.8571L173.171 2.0888L174.714 2.34791L176.25 2.63431L177.777 2.94783L179.296 3.28827L180.806 3.65542L182.306 4.04906L183.796 4.46892L185.275 4.91474L186.742 5.38621L188.197 5.88302L189.639 6.40484L191.068 6.95131L192.484 7.52206L193.884 8.11671L195.271 8.73486L196.642 9.37608L197.997 10.0399L199.336 10.726L200.659 11.4338L201.965 12.1629L203.253 12.9127L204.524 13.6829L205.778 14.4728L207.012 15.282L208.229 16.11L209.427 16.9562L210.605 17.8202L211.765 18.7013L212.905 19.5991L214.025 20.513L215.126 21.4424L216.207 22.3869L217.268 23.3458L218.309 24.3186L219.33 25.3049L220.331 26.3039L221.311 27.3153L222.271 28.3385L223.211 29.3728L224.131 30.4179L225.031 31.4732L225.91 32.5381L226.77 33.6121L227.609 34.6949L228.429 35.7857L229.229 36.8843L230.01 37.99L230.771 39.1024L231.513 40.2211L232.235 41.3455L232.939 42.4753L233.624 43.6101L234.291 44.7493L234.939 45.8926L235.57 47.0396L236.182 48.1898L236.777 49.343L237.354 50.4987L237.915 51.6567L238.459 52.8165L238.986 53.9777L239.497 55.1402L239.991 56.3036L240.471 57.4676L240.935 58.6319L241.383 59.7962L241.817 60.9604L242.237 62.124L242.642 63.287L243.033 64.449L243.411 65.6099L243.775 66.7695L244.127 67.9276L244.466 69.084L244.792 70.2385L245.106 71.391L245.409 72.5414L245.7 73.6894L245.98 74.8351L246.249 75.9782L246.508 77.1188L246.756 78.2566L246.994 79.3916L247.222 80.5238L247.441 81.653L247.651 82.7792L247.852 83.9025L248.044 85.0227L248.228 86.1398L248.404 87.2538L248.572 88.3647L248.733 89.4724L248.885 90.5771L249.031 91.6787L249.17 92.7772L249.302 93.8726L249.428 94.9651L249.548 96.0545L249.661 97.1411L249.769 98.2247L249.871 99.3056L249.967 100.384L250.058 101.459L250.144 102.532L250.225 103.602L250.302 104.67L250.373 105.735L250.44 106.798L250.503 107.859L250.561 108.918L250.616 109.975L250.666 111.03L250.713 112.083L250.755 113.135L250.794 114.185L250.83 115.234L250.862 116.281L250.89 117.327L250.915 118.372L250.937 119.416L250.955 120.46L250.971 121.502L250.983 122.544L250.992 123.586L250.997 124.627L251 125.668L251 126Z" fill="#F9F9F9"/>
<path d="M251 126V126ZM251 126L250.998 127.041L250.994 128.083L250.986 129.124L250.975 130.166L250.961 131.208L250.943 132.251L250.923 133.295L250.899 134.34L250.871 135.386L250.84 136.433L250.806 137.481L250.768 138.531L250.727 139.582L250.681 140.634L250.632 141.689L250.579 142.745L250.522 143.803L250.461 144.864L250.395 145.926L250.325 146.991L250.25 148.058L250.171 149.127L250.086 150.199L249.997 151.274L249.902 152.351L249.802 153.431L249.696 154.514L249.584 155.599L249.467 156.688L249.343 157.779L249.213 158.874L249.076 159.971L248.933 161.072L248.782 162.176L248.624 163.282L248.459 164.392L248.285 165.505L248.104 166.621L247.914 167.741L247.716 168.863L247.509 169.988L247.293 171.116L247.068 172.248L246.833 173.382L246.588 174.519L246.333 175.658L246.067 176.801L245.79 177.946L245.503 179.093L245.204 180.243L244.893 181.394L244.571 182.548L244.236 183.704L243.889 184.862L243.528 186.021L243.155 187.181L242.768 188.343L242.367 189.506L241.952 190.669L241.523 191.833L241.079 192.997L240.62 194.162L240.146 195.326L239.656 196.489L239.15 197.652L238.628 198.814L238.09 199.974L237.535 201.133L236.963 202.289L236.373 203.443L235.767 204.595L235.142 205.743L234.5 206.887L233.839 208.028L233.16 209.164L232.462 210.295L231.745 211.422L231.009 212.542L230.254 213.657L229.48 214.764L228.686 215.865L227.873 216.959L227.039 218.044L226.186 219.121L225.313 220.189L224.42 221.247L223.506 222.296L222.573 223.333L221.619 224.36L220.645 225.375L219.651 226.378L218.636 227.369L217.602 228.346L216.547 229.309L215.473 230.259L214.378 231.193L213.264 232.112L212.13 233.015L210.977 233.901L209.804 234.771L208.612 235.623L207.402 236.456L206.173 237.272L204.926 238.068L203.66 238.844L202.377 239.601L201.077 240.336L199.759 241.051L198.425 241.744L197.075 242.415L195.709 243.064L194.328 243.689L192.931 244.291L191.521 244.87L190.096 245.424L188.658 245.954L187.207 246.458L185.744 246.938L184.268 247.392L182.782 247.82L181.285 248.222L179.778 248.598L178.262 248.947L176.737 249.269L175.204 249.564L173.664 249.832L172.116 250.072L170.563 250.285L169.004 250.471L167.441 250.628L165.873 250.758L164.303 250.86L162.729 250.935L161.154 250.981L159.577 251L158 250.991L156.423 250.955L154.847 250.891L153.273 250.8L151.701 250.682L150.132 250.537L148.567 250.365L147.006 250.167L145.45 249.942L143.899 249.691L142.355 249.415L140.819 249.114L139.289 248.787L137.768 248.436L136.256 248.06L134.753 247.661L133.26 247.239L131.778 246.793L130.307 246.325L128.847 245.834L127.4 245.322L125.965 244.789L124.543 244.236L123.134 243.662L121.74 243.069L120.36 242.456L118.995 241.825L117.645 241.177L116.31 240.511L114.991 239.828L113.688 239.129L112.402 238.414L111.132 237.684L109.879 236.94L108.643 236.181L107.424 235.41L106.223 234.626L105.039 233.829L103.873 233.021L102.725 232.203L101.595 231.373L100.483 230.534L99.3891 229.686L98.3132 228.829L97.2555 227.964L96.2158 227.092L95.1942 226.212L94.1907 225.326L93.2051 224.434L92.2375 223.537L91.2877 222.635L90.3556 221.728L89.441 220.818L88.5439 219.904L87.6641 218.987L86.8015 218.068L85.9557 217.147L85.1267 216.224L84.3143 215.3L83.5182 214.375L82.7381 213.451L81.974 212.526L81.2254 211.602L80.4921 210.678L79.774 209.756L79.0706 208.835L78.3817 207.916L77.7071 207L77.0463 206.086L76.3992 205.175L75.7653 204.266L75.1444 203.362L74.5362 202.46L73.9402 201.563L73.3562 200.67L72.7839 199.781L72.2228 198.896L71.6727 198.017L71.1332 197.142L70.6039 196.272L70.0845 195.408L69.5746 194.548L69.0739 193.695L68.582 192.847L68.0985 192.005L67.623 191.168L67.1553 190.338L66.6949 189.513L66.2415 188.695L65.7947 187.883L65.3541 187.077L64.9193 186.278L64.4901 185.484L64.066 184.698L63.6466 183.917L63.2316 183.143L62.8206 182.375L62.4133 181.614L62.0092 180.859L61.608 180.11L61.2094 179.368L60.8129 178.632L60.4182 177.902L60.025 177.178L59.6328 176.461L59.2412 175.749L58.85 175.044L58.4587 174.344L58.067 173.65L57.6745 172.962L57.2808 172.279L56.8855 171.603L56.4883 170.931L56.0889 170.265L55.6867 169.604L55.2814 168.948L54.8727 168.296L54.4602 167.65L54.0434 167.008L53.622 166.371L53.1956 165.738L52.7638 165.109L52.3262 164.484L51.8823 163.862L51.4318 163.245L50.9742 162.63L50.5092 162.019L50.0363 161.411L49.555 160.806L49.0649 160.203L48.5656 159.602L48.0566 159.004L47.5374 158.407L47.0076 157.813L46.4667 157.219L45.9142 156.626L45.3495 156.035L44.7722 155.444L44.1818 154.853L43.5776 154.262L42.9591 153.67L42.3258 153.078L41.6771 152.485L41.0124 151.89L40.3309 151.294L39.6322 150.696L38.9156 150.095L38.1803 149.491L37.4257 148.884L36.651 148.273L35.8555 147.658L35.0385 147.038L34.1991 146.413L33.3365 145.783L32.4498 145.146L31.5382 144.503L30.6007 143.852L29.6364 143.194L28.6443 142.527L27.6234 141.851L26.5725 141.165L25.4906 140.469L24.3765 139.761L23.2289 139.042L22.0468 138.31L20.8286 137.564L19.5731 136.804L18.2788 136.028L16.9442 135.236L15.5677 134.427L14.1478 133.599L12.6827 132.752L11.1706 131.884L9.60967 130.994L7.99791 130.08L6.33327 129.142L4.61361 128.178L2.83664 127.186L1 126.166L2.25821 125.136L4.05392 124.135L5.79159 123.162L7.47351 122.216L9.10188 121.295L10.6788 120.398L12.2062 119.523L13.6861 118.669L15.1202 117.835L16.5104 117.02L17.8581 116.223L19.1651 115.442L20.4328 114.677L21.6627 113.927L22.8562 113.19L24.0146 112.467L25.1392 111.756L26.2313 111.056L27.2919 110.367L28.3223 109.688L29.3235 109.018L30.2965 108.357L31.2424 107.704L32.1622 107.058L33.0567 106.42L33.9269 105.787L34.7736 105.161L35.5977 104.539L36.3999 103.923L37.1811 103.311L37.9421 102.702L38.6834 102.098L39.4059 101.496L40.1103 100.897L40.7971 100.3L41.4671 99.7046L42.1209 99.111L42.7591 98.5186L43.3822 97.927L43.9908 97.3358L44.5856 96.7449L45.167 96.1538L45.7357 95.5623L46.292 94.9701L46.8366 94.3769L47.3699 93.7824L47.8924 93.1864L48.4045 92.5886L48.9069 91.9888L49.3999 91.3868L49.8839 90.7823L50.3594 90.1751L50.8269 89.5649L51.2868 88.9517L51.7395 88.3351L52.1855 87.715L52.625 87.0911L53.0587 86.4634L53.4868 85.8317L53.9097 85.1957L54.3279 84.5553L54.7418 83.9103L55.1516 83.2606L55.5579 82.6061L55.9611 81.9466L56.3614 81.282L56.7592 80.6122L57.1551 79.9369L57.5492 79.2562L57.9421 78.5699L58.334 77.8779L58.7254 77.1802L59.1166 76.4765L59.508 75.7669L59.8999 75.0513L60.2928 74.3296L60.687 73.6017L61.0829 72.8676L61.4808 72.1273L61.8811 71.3806L62.2842 70.6276L62.6905 69.8683L63.1003 69.1026L63.514 68.3305L63.9319 67.552L64.3545 66.7671L64.782 65.9759L65.215 65.1784L65.6537 64.3746L66.0985 63.5645L66.5498 62.7482L67.0079 61.9257L67.4732 61.0972L67.9462 60.2627L68.4271 59.4223L68.9163 58.5762L69.4141 57.7243L69.9211 56.8669L70.4374 56.0041L70.9635 55.136L71.4997 54.2627L72.0464 53.3845L72.604 52.5016L73.1727 51.6141L73.7529 50.7222L74.345 49.8261L74.9493 48.9261L75.5661 48.0224L76.1958 47.1153L76.8387 46.205L77.4951 45.2918L78.1653 44.376L78.8496 43.4579L79.5483 42.5378L80.2618 41.616L80.9902 40.6929L81.7338 39.7689L82.493 38.8442L83.268 37.9193L84.059 36.9946L84.8662 36.0705L85.6899 35.1474L86.5302 34.2256L87.3875 33.3057L88.2618 32.3881L89.1534 31.4733L90.0623 30.5617L90.9889 29.6539L91.933 28.7502L92.895 27.8513L93.8748 26.9576L94.8726 26.0697L95.8884 25.188L96.9223 24.3131L97.9743 23.4457L99.0445 22.5861L100.133 21.735L101.239 20.893L102.363 20.0606L103.506 19.2384L104.666 18.427L105.844 17.6269L107.039 16.8387L108.253 16.0631L109.483 15.3006L110.731 14.5518L111.995 13.8173L113.276 13.0977L114.574 12.3935L115.888 11.7054L117.218 11.0339L118.563 10.3795L119.924 9.74293L121.299 9.12465L122.689 8.52521L124.093 7.94517L125.51 7.38506L126.941 6.84539L128.385 6.32668L129.84 5.82941L131.308 5.35408L132.787 4.90116L134.276 4.47109L135.776 4.06432L137.285 3.68126L138.804 3.32234L140.331 2.98792L141.865 2.67838L143.407 2.39406L144.955 2.1353L146.509 1.90241L148.069 1.69566L149.633 1.51533L151.201 1.36166L152.772 1.23486L154.346 1.13513L155.921 1.06265L157.498 1.01757L159.075 1L160.652 1.01005L162.227 1.0478L163.802 1.1133L165.373 1.20658L166.942 1.32763L168.507 1.47643L170.067 1.65295L171.622 1.8571L173.171 2.0888L174.714 2.34791L176.25 2.63431L177.777 2.94783L179.296 3.28827L180.806 3.65542L182.306 4.04906L183.796 4.46892L185.275 4.91474L186.742 5.38621L188.197 5.88302L189.639 6.40484L191.068 6.95131L192.484 7.52206L193.884 8.11671L195.271 8.73486L196.642 9.37608L197.997 10.0399L199.336 10.726L200.659 11.4338L201.965 12.1629L203.253 12.9127L204.524 13.6829L205.778 14.4728L207.012 15.282L208.229 16.11L209.427 16.9562L210.605 17.8202L211.765 18.7013L212.905 19.5991L214.025 20.513L215.126 21.4424L216.207 22.3869L217.268 23.3458L218.309 24.3186L219.33 25.3049L220.331 26.3039L221.311 27.3153L222.271 28.3385L223.211 29.3728L224.131 30.4179L225.031 31.4732L225.91 32.5381L226.77 33.6121L227.609 34.6949L228.429 35.7857L229.229 36.8843L230.01 37.99L230.771 39.1024L231.513 40.2211L232.235 41.3455L232.939 42.4753L233.624 43.6101L234.291 44.7493L234.939 45.8926L235.57 47.0396L236.182 48.1898L236.777 49.343L237.354 50.4987L237.915 51.6567L238.459 52.8165L238.986 53.9777L239.497 55.1402L239.991 56.3036L240.471 57.4676L240.935 58.6319L241.383 59.7962L241.817 60.9604L242.237 62.124L242.642 63.287L243.033 64.449L243.411 65.6099L243.775 66.7695L244.127 67.9276L244.466 69.084L244.792 70.2385L245.106 71.391L245.409 72.5414L245.7 73.6894L245.98 74.8351L246.249 75.9782L246.508 77.1188L246.756 78.2566L246.994 79.3916L247.222 80.5238L247.441 81.653L247.651 82.7792L247.852 83.9025L248.044 85.0227L248.228 86.1398L248.404 87.2538L248.572 88.3647L248.733 89.4724L248.885 90.5771L249.031 91.6787L249.17 92.7772L249.302 93.8726L249.428 94.9651L249.548 96.0545L249.661 97.1411L249.769 98.2247L249.871 99.3056L249.967 100.384L250.058 101.459L250.144 102.532L250.225 103.602L250.302 104.67L250.373 105.735L250.44 106.798L250.503 107.859L250.561 108.918L250.616 109.975L250.666 111.03L250.713 112.083L250.755 113.135L250.795 114.185L250.83 115.234L250.862 116.281L250.89 117.327L250.915 118.372L250.937 119.416L250.955 120.46L250.971 121.502L250.983 122.544L250.992 123.586L250.997 124.627L251 125.668L251 126Z" stroke="black" stroke-width="2" stroke-linejoin="round"/>
</svg>
