<svg width="252" height="252" viewBox="0 0 252 252" fill="none" xmlns="http://www.w3.org/2000/svg">
<path fill-rule="evenodd" clip-rule="evenodd" d="M251 126L249.78 127.238L248.619 128.453L247.515 129.647L246.464 130.821L245.465 131.978L244.514 133.12L243.61 134.247L242.75 135.36L241.932 136.463L241.155 137.555L240.416 138.638L239.714 139.713L239.048 140.781L238.415 141.843L237.814 142.901L237.244 143.954L236.703 145.005L236.19 146.053L235.705 147.101L235.244 148.147L234.808 149.194L234.396 150.242L234.005 151.292L233.636 152.344L233.287 153.398L232.957 154.457L232.644 155.519L232.349 156.585L232.07 157.657L231.806 158.734L231.556 159.817L231.319 160.907L231.094 162.003L230.881 163.106L230.678 164.216L230.485 165.335L230.3 166.461L230.123 167.595L229.953 168.737L229.788 169.888L229.629 171.048L229.473 172.216L229.321 173.393L229.17 174.579L229.021 175.773L228.872 176.976L228.722 178.188L228.57 179.409L228.416 180.637L228.259 181.874L228.097 183.119L227.929 184.371L227.755 185.631L227.573 186.897L227.383 188.17L227.184 189.449L226.974 190.734L226.753 192.023L226.52 193.317L226.274 194.615L226.014 195.916L225.739 197.219L225.448 198.524L225.14 199.83L224.815 201.136L224.472 202.441L224.109 203.744L223.727 205.045L223.323 206.343L222.899 207.636L222.452 208.923L221.983 210.204L221.491 211.478L220.975 212.743L220.435 213.998L219.871 215.243L219.281 216.476L218.666 217.696L218.026 218.903L217.36 220.095L216.668 221.271L215.95 222.43L215.206 223.571L214.436 224.694L213.64 225.797L212.819 226.88L211.972 227.941L211.099 228.98L210.202 229.996L209.281 230.989L208.335 231.957L207.366 232.901L206.374 233.819L205.36 234.711L204.323 235.578L203.266 236.417L202.188 237.23L201.09 238.015L199.974 238.774L198.839 239.505L197.687 240.208L196.519 240.884L195.335 241.533L194.137 242.155L192.924 242.75L191.699 243.318L190.461 243.86L189.213 244.376L187.954 244.866L186.685 245.332L185.408 245.772L184.123 246.189L182.831 246.582L181.533 246.952L180.229 247.3L178.921 247.626L177.608 247.932L176.292 248.217L174.974 248.483L173.653 248.73L172.332 248.959L171.009 249.171L169.685 249.366L168.362 249.546L167.039 249.711L165.718 249.862L164.397 250L163.078 250.124L161.761 250.237L160.447 250.339L159.134 250.431L157.825 250.512L156.518 250.585L155.215 250.649L153.914 250.706L152.617 250.755L151.322 250.798L150.031 250.836L148.744 250.867L147.459 250.894L146.178 250.917L144.9 250.936L143.625 250.951L142.352 250.964L141.083 250.973L139.816 250.981L138.552 250.987L137.29 250.992L136.03 250.995L134.772 250.997L133.516 250.998L132.261 250.999L131.007 251L129.755 251L128.503 251L127.251 251H126H124.749L123.498 251L122.246 251L120.994 251L119.741 250.999L118.486 250.998L117.23 250.997L115.972 250.995L114.712 250.992L113.451 250.988L112.187 250.982L110.92 250.975L109.651 250.965L108.38 250.953L107.105 250.938L105.827 250.92L104.547 250.898L103.263 250.872L101.975 250.841L100.685 250.805L99.3914 250.763L98.0944 250.714L96.7943 250.659L95.4911 250.596L94.1849 250.525L92.8758 250.444L91.564 250.355L90.2497 250.254L88.9332 250.143L87.6146 250.02L86.2944 249.885L84.9728 249.736L83.6502 249.574L82.327 249.396L81.0037 249.203L79.6807 248.994L78.3585 248.767L77.0378 248.523L75.719 248.261L74.4028 247.978L73.0898 247.676L71.7807 247.353L70.4762 247.009L69.1771 246.642L67.884 246.253L66.5979 245.84L65.3194 245.404L64.0494 244.942L62.7888 244.456L61.5384 243.944L60.2991 243.406L59.0718 242.842L57.8572 242.252L56.6564 241.634L55.4701 240.99L54.2993 240.318L53.1447 239.619L52.0074 238.892L50.8879 238.138L49.7873 237.357L48.7062 236.548L47.6454 235.713L46.6056 234.851L45.5876 233.963L44.5918 233.049L43.619 232.109L42.6696 231.145L41.7442 230.156L40.8433 229.143L39.9671 228.108L39.1162 227.05L38.2906 225.971L37.4908 224.871L36.7167 223.752L35.9687 222.613L35.2466 221.457L34.5504 220.283L33.8802 219.094L33.2357 217.89L32.6168 216.671L32.0232 215.44L31.4547 214.197L30.9107 212.943L30.391 211.68L29.8951 210.407L29.4224 209.128L28.9723 207.841L28.5444 206.549L28.1379 205.252L27.7521 203.952L27.3863 202.648L27.0398 201.343L26.7118 200.038L26.4014 198.732L26.1079 197.427L25.8303 196.123L25.5678 194.822L25.3195 193.523L25.0844 192.229L24.8617 190.939L24.6504 189.653L24.4495 188.373L24.2581 187.099L24.0752 185.832L23.9 184.571L23.7313 183.318L23.5683 182.072L23.41 180.834L23.2554 179.604L23.1036 178.382L22.9536 177.169L22.8045 175.964L22.6553 174.768L22.5051 173.581L22.3529 172.403L22.1978 171.233L22.0389 170.072L21.8752 168.92L21.7059 167.776L21.53 166.641L21.3465 165.513L21.1546 164.394L20.9534 163.282L20.7419 162.178L20.5192 161.081L20.2845 159.99L20.0366 158.906L19.7748 157.828L19.498 156.756L19.2054 155.688L18.8959 154.625L18.5686 153.567L18.2224 152.512L17.8563 151.459L17.4693 150.409L17.0604 149.361L16.6283 148.314L16.172 147.267L15.6903 146.22L15.182 145.172L14.6459 144.122L14.0806 143.069L13.4847 142.012L12.857 140.95L12.1958 139.883L11.4997 138.809L10.767 137.728L9.99596 136.637L9.18489 135.537L8.33183 134.425L7.43479 133.3L6.49163 132.161L5.50011 131.007L4.45782 129.835L3.36222 128.644L2.21058 127.433L1 126.199L1.83152 124.958L3.0016 123.739L4.11475 122.542L5.17374 121.365L6.18116 120.205L7.13947 119.061L8.05097 117.932L8.91781 116.816L9.74205 115.712L10.5256 114.618L11.2703 113.534L11.9779 112.458L12.6501 111.389L13.2883 110.326L13.8941 109.268L14.469 108.213L15.0143 107.162L15.5314 106.113L16.0214 105.066L16.4856 104.019L16.9253 102.972L17.3415 101.925L17.7354 100.875L18.108 99.824L18.4604 98.7698L18.7936 97.7122L19.1087 96.6507L19.4066 95.5848L19.6883 94.514L19.9548 93.4377L20.207 92.3556L20.4458 91.2672L20.6723 90.1722L20.8872 89.0702L21.0916 87.9609L21.2864 86.844L21.4724 85.7193L21.6506 84.5864L21.8219 83.4453L21.9873 82.2957L22.1476 81.1376L22.3038 79.9707L22.4568 78.7952L22.6076 77.6108L22.757 76.4177L22.9061 75.2159L23.0557 74.0054L23.2068 72.7864L23.3604 71.559L23.5174 70.3235L23.6788 69.08L23.8456 67.8289L24.0186 66.5705L24.199 65.3051L24.3875 64.0331L24.5853 62.7551L24.7932 61.4714L25.0122 60.1826L25.2432 58.8894L25.4872 57.5922L25.7451 56.2918L26.0178 54.9889L26.3062 53.6842L26.6111 52.3784L26.9334 51.0724L27.2739 49.7671L27.6334 48.4633L28.0128 47.1618L28.4126 45.8638L28.8337 44.57L29.2766 43.2816L29.742 41.9995L30.2305 40.7247L30.7426 39.4582L31.2787 38.2012L31.8394 36.9546L32.425 35.7196L33.0358 34.4971L33.6721 33.2882L34.3341 32.0939L35.022 30.9153L35.7358 29.7534L36.4756 28.6091L37.2414 27.4833L38.0331 26.3771L38.8504 25.2912L39.6933 24.2265L40.5615 23.1839L41.4546 22.164L42.3722 21.1676L43.314 20.1954L44.2794 19.2478L45.2679 18.3255L46.279 17.429L47.3119 16.5587L48.3661 15.7149L49.4408 14.8979L50.5353 14.108L51.6488 13.3453L52.7805 12.6099L53.9297 11.902L55.0954 11.2214L56.2769 10.5681L57.4732 9.94199L58.6834 9.34282L59.9068 8.77036L61.1424 8.2243L62.3894 7.70429L63.6468 7.20993L64.9139 6.74075L66.1898 6.29627L67.4736 5.87595L68.7645 5.47922L70.0618 5.10547L71.3646 4.75407L72.6723 4.42436L73.9841 4.11565L75.2994 3.82723L76.6174 3.55837L77.9376 3.30834L79.2594 3.07639L80.5822 2.86175L81.9055 2.66366L83.2287 2.48135L84.5516 2.31406L85.8735 2.16102L87.1943 2.02146L88.5134 1.89464L89.8306 1.7798L91.1456 1.67623L92.4582 1.58319L93.7682 1.49998L95.0753 1.42591L96.3795 1.36032L97.6807 1.30255L98.9786 1.25197L100.273 1.20798L101.565 1.16998L102.853 1.13742L104.138 1.10976L105.42 1.08649L106.698 1.06712L107.974 1.05119L109.247 1.03828L110.517 1.02797L111.784 1.0199L113.048 1.01371L114.311 1.00909L115.571 1.00575L116.829 1.00343L118.086 1.00189L119.341 1.00094L120.595 1.0004L121.848 1.00014L123.099 1.00003L124.351 1L125.602 1L126.853 1L128.104 1.00001L129.356 1.00007L130.608 1.00025L131.861 1.00064L133.116 1.00138L134.372 1.00261L135.629 1.00453L136.888 1.00735L138.15 1.01133L139.413 1.01673L140.679 1.02386L141.948 1.03305L143.219 1.04467L144.493 1.0591L145.77 1.07677L147.051 1.09812L148.334 1.12362L149.621 1.15378L150.911 1.18911L152.204 1.23017L153.5 1.27752L154.8 1.33178L156.103 1.39356L157.408 1.46349L158.717 1.54225L160.028 1.6305L161.342 1.72895L162.659 1.83832L163.977 1.95932L165.297 2.0927L166.618 2.23921L167.941 2.3996L169.264 2.57463L170.587 2.76509L171.91 2.97172L173.233 3.19531L174.554 3.43661L175.873 3.69637L177.189 3.97536L178.503 4.27428L179.813 4.59388L181.118 4.93483L182.418 5.29781L183.712 5.68349L184.999 6.09246L186.279 6.52533L187.55 6.98264L188.813 7.46492L190.065 7.97262L191.306 8.50618L192.535 9.06598L193.752 9.65236L194.955 10.2656L196.144 10.9059L197.317 11.5734L198.474 12.2683L199.614 12.9905L200.737 13.7401L201.84 14.5171L202.924 15.3211L203.989 16.1522L205.032 17.0099L206.053 17.894L207.053 18.804L208.029 19.7395L208.982 20.7L209.912 21.685L210.816 22.6937L211.697 23.7256L212.552 24.7798L213.381 25.8557L214.185 26.9523L214.963 28.0688L215.715 29.2044L216.442 30.358L217.142 31.5288L217.816 32.7157L218.465 33.9177L219.088 35.1339L219.685 36.363L220.258 37.6042L220.806 38.8564L221.329 40.1185L221.829 41.3894L222.305 42.6682L222.759 43.9537L223.19 45.245L223.6 46.5412L223.989 47.8411L224.358 49.1439L224.708 50.4486L225.039 51.7544L225.352 53.0604L225.648 54.3657L225.928 55.6696L226.193 56.9713L226.443 58.27L226.681 59.5652L226.905 60.8562L227.118 62.1424L227.321 63.4232L227.514 64.6981L227.698 65.9667L227.874 67.2285L228.044 68.4832L228.208 69.7303L228.367 70.9697L228.522 72.201L228.674 73.424L228.824 74.6386L228.973 75.8445L229.122 77.0418L229.272 78.2304L229.424 79.4101L229.579 80.5812L229.737 81.7435L229.9 82.8971L230.068 84.0423L230.243 85.179L230.425 86.3076L230.616 87.4282L230.815 88.5411L231.025 89.6466L231.246 90.7449L231.479 91.8364L231.725 92.9214L231.984 94.0004L232.258 95.0738L232.548 96.1421L232.855 97.2056L233.18 98.2649L233.523 99.3207L233.886 100.373L234.269 101.424L234.675 102.472L235.103 103.519L235.555 104.566L236.033 105.613L236.537 106.661L237.068 107.711L237.629 108.763L238.22 109.82L238.842 110.88L239.498 111.946L240.189 113.019L240.915 114.099L241.68 115.188L242.485 116.287L243.331 117.397L244.221 118.52L245.157 119.656L246.14 120.808L247.174 121.977L248.261 123.165L249.404 124.373L250.605 125.603L251 126Z" fill="#F9F9F9"/>
<path d="M251 126V126ZM251 126L249.78 127.238L248.619 128.453L247.515 129.647L246.464 130.821L245.465 131.978L244.514 133.12L243.61 134.247L242.75 135.36L241.932 136.463L241.155 137.555L240.416 138.638L239.714 139.713L239.048 140.781L238.415 141.843L237.814 142.901L237.244 143.954L236.703 145.005L236.19 146.053L235.705 147.101L235.244 148.147L234.808 149.194L234.396 150.242L234.005 151.292L233.636 152.344L233.287 153.398L232.957 154.457L232.644 155.519L232.349 156.585L232.07 157.657L231.806 158.734L231.556 159.817L231.319 160.907L231.094 162.003L230.881 163.106L230.678 164.216L230.485 165.335L230.3 166.461L230.123 167.595L229.953 168.737L229.788 169.888L229.629 171.048L229.473 172.216L229.321 173.393L229.17 174.579L229.021 175.773L228.872 176.976L228.722 178.188L228.57 179.409L228.416 180.637L228.259 181.874L228.097 183.119L227.929 184.371L227.755 185.631L227.573 186.897L227.383 188.17L227.184 189.449L226.974 190.734L226.753 192.023L226.52 193.317L226.274 194.615L226.014 195.916L225.739 197.219L225.448 198.524L225.14 199.83L224.815 201.136L224.472 202.441L224.109 203.744L223.727 205.045L223.323 206.343L222.899 207.636L222.452 208.923L221.983 210.204L221.491 211.478L220.975 212.743L220.435 213.998L219.871 215.243L219.281 216.476L218.666 217.696L218.026 218.903L217.36 220.095L216.668 221.271L215.95 222.43L215.206 223.571L214.436 224.694L213.64 225.797L212.819 226.88L211.972 227.941L211.099 228.98L210.202 229.996L209.281 230.989L208.335 231.957L207.366 232.901L206.374 233.819L205.36 234.711L204.323 235.578L203.266 236.417L202.188 237.23L201.09 238.015L199.974 238.774L198.839 239.505L197.687 240.208L196.519 240.884L195.335 241.533L194.137 242.155L192.924 242.75L191.699 243.318L190.461 243.86L189.213 244.376L187.954 244.866L186.685 245.332L185.408 245.772L184.123 246.189L182.831 246.582L181.533 246.952L180.229 247.3L178.921 247.626L177.608 247.932L176.292 248.217L174.974 248.483L173.653 248.73L172.332 248.959L171.009 249.171L169.685 249.366L168.362 249.546L167.039 249.711L165.718 249.862L164.397 250L163.078 250.124L161.761 250.237L160.447 250.339L159.134 250.431L157.825 250.512L156.518 250.585L155.215 250.649L153.914 250.706L152.617 250.755L151.322 250.798L150.031 250.836L148.744 250.867L147.459 250.894L146.178 250.917L144.9 250.936L143.625 250.951L142.352 250.964L141.083 250.973L139.816 250.981L138.552 250.987L137.29 250.992L136.03 250.995L134.772 250.997L133.516 250.998L132.261 250.999L131.007 251L129.755 251L128.503 251L127.251 251H126H124.749L123.498 251L122.246 251L120.994 251L119.741 250.999L118.486 250.998L117.23 250.997L115.972 250.995L114.712 250.992L113.451 250.988L112.187 250.982L110.92 250.975L109.651 250.965L108.38 250.953L107.105 250.938L105.827 250.92L104.547 250.898L103.263 250.872L101.975 250.841L100.685 250.805L99.3914 250.763L98.0944 250.714L96.7943 250.659L95.4911 250.596L94.1849 250.525L92.8758 250.444L91.564 250.355L90.2497 250.254L88.9332 250.143L87.6146 250.02L86.2944 249.885L84.9728 249.736L83.6502 249.574L82.327 249.396L81.0037 249.203L79.6807 248.994L78.3585 248.767L77.0378 248.523L75.719 248.261L74.4028 247.978L73.0898 247.676L71.7807 247.353L70.4762 247.009L69.1771 246.642L67.884 246.253L66.5979 245.84L65.3194 245.404L64.0494 244.942L62.7888 244.456L61.5384 243.944L60.2991 243.406L59.0718 242.842L57.8572 242.252L56.6564 241.634L55.4701 240.99L54.2993 240.318L53.1447 239.619L52.0074 238.892L50.8879 238.138L49.7873 237.357L48.7062 236.548L47.6454 235.713L46.6056 234.851L45.5876 233.963L44.5918 233.049L43.619 232.109L42.6696 231.145L41.7442 230.156L40.8433 229.143L39.9671 228.108L39.1162 227.05L38.2906 225.971L37.4908 224.871L36.7167 223.752L35.9687 222.613L35.2466 221.457L34.5504 220.283L33.8802 219.094L33.2357 217.89L32.6168 216.671L32.0232 215.44L31.4547 214.197L30.9107 212.943L30.391 211.68L29.8951 210.407L29.4224 209.128L28.9723 207.841L28.5444 206.549L28.1379 205.252L27.7521 203.952L27.3863 202.648L27.0398 201.343L26.7118 200.038L26.4014 198.732L26.1079 197.427L25.8303 196.123L25.5678 194.822L25.3195 193.523L25.0844 192.229L24.8617 190.939L24.6503 189.653L24.4495 188.373L24.2581 187.099L24.0752 185.832L23.9 184.571L23.7313 183.318L23.5683 182.072L23.41 180.834L23.2554 179.604L23.1036 178.382L22.9536 177.169L22.8045 175.964L22.6553 174.768L22.5051 173.581L22.3529 172.403L22.1978 171.233L22.0389 170.072L21.8752 168.92L21.7059 167.776L21.53 166.641L21.3465 165.513L21.1546 164.394L20.9534 163.282L20.7419 162.178L20.5192 161.081L20.2845 159.99L20.0366 158.906L19.7748 157.828L19.498 156.756L19.2054 155.688L18.8959 154.625L18.5686 153.567L18.2224 152.512L17.8563 151.459L17.4693 150.409L17.0604 149.361L16.6283 148.314L16.172 147.267L15.6903 146.22L15.182 145.172L14.6459 144.122L14.0806 143.069L13.4847 142.012L12.857 140.95L12.1958 139.883L11.4997 138.809L10.767 137.728L9.99596 136.637L9.18489 135.537L8.33183 134.425L7.43479 133.3L6.49163 132.161L5.50011 131.007L4.45782 129.835L3.36222 128.644L2.21058 127.433L1 126.199L1.83152 124.958L3.0016 123.739L4.11475 122.542L5.17374 121.365L6.18116 120.205L7.13947 119.061L8.05097 117.932L8.91781 116.816L9.74205 115.712L10.5256 114.618L11.2703 113.534L11.9779 112.458L12.6501 111.389L13.2883 110.326L13.8941 109.268L14.469 108.213L15.0143 107.162L15.5314 106.113L16.0214 105.066L16.4856 104.019L16.9253 102.972L17.3415 101.925L17.7354 100.875L18.108 99.824L18.4604 98.7698L18.7936 97.7122L19.1087 96.6508L19.4066 95.5848L19.6883 94.514L19.9548 93.4377L20.207 92.3556L20.4458 91.2672L20.6723 90.1722L20.8872 89.0702L21.0916 87.9609L21.2864 86.844L21.4724 85.7193L21.6506 84.5864L21.8219 83.4453L21.9873 82.2957L22.1476 81.1376L22.3038 79.9707L22.4568 78.7952L22.6076 77.6108L22.757 76.4177L22.9061 75.2159L23.0557 74.0054L23.2068 72.7864L23.3604 71.559L23.5174 70.3235L23.6788 69.08L23.8456 67.8289L24.0186 66.5705L24.199 65.3051L24.3875 64.0331L24.5853 62.7551L24.7932 61.4714L25.0122 60.1826L25.2432 58.8894L25.4872 57.5922L25.7451 56.2918L26.0178 54.9889L26.3062 53.6842L26.6111 52.3784L26.9334 51.0724L27.2739 49.7671L27.6334 48.4633L28.0128 47.1619L28.4126 45.8638L28.8337 44.57L29.2766 43.2816L29.742 41.9995L30.2305 40.7247L30.7426 39.4582L31.2787 38.2012L31.8394 36.9546L32.425 35.7196L33.0358 34.4971L33.6721 33.2882L34.3341 32.0939L35.022 30.9153L35.7358 29.7534L36.4756 28.6091L37.2414 27.4833L38.0331 26.3771L38.8504 25.2912L39.6933 24.2265L40.5615 23.1839L41.4546 22.164L42.3722 21.1676L43.314 20.1954L44.2794 19.2478L45.2679 18.3255L46.279 17.429L47.3119 16.5587L48.3661 15.7149L49.4408 14.8979L50.5353 14.108L51.6488 13.3453L52.7805 12.6099L53.9297 11.902L55.0954 11.2214L56.2769 10.5681L57.4732 9.94199L58.6834 9.34282L59.9068 8.77036L61.1424 8.2243L62.3894 7.70429L63.6468 7.20993L64.9139 6.74075L66.1898 6.29627L67.4736 5.87595L68.7645 5.47922L70.0618 5.10547L71.3646 4.75407L72.6723 4.42436L73.9841 4.11565L75.2994 3.82723L76.6174 3.55837L77.9376 3.30834L79.2594 3.07639L80.5822 2.86175L81.9055 2.66366L83.2287 2.48135L84.5516 2.31406L85.8735 2.16102L87.1943 2.02146L88.5134 1.89464L89.8306 1.7798L91.1456 1.67623L92.4582 1.58319L93.7682 1.49998L95.0754 1.42591L96.3795 1.36032L97.6807 1.30255L98.9786 1.25197L100.273 1.20798L101.565 1.16998L102.853 1.13742L104.138 1.10976L105.42 1.08649L106.698 1.06712L107.974 1.05119L109.247 1.03828L110.517 1.02797L111.784 1.0199L113.048 1.01371L114.311 1.00909L115.571 1.00575L116.829 1.00343L118.086 1.00189L119.341 1.00094L120.595 1.0004L121.848 1.00014L123.099 1.00003L124.351 1L125.602 1L126.853 1L128.104 1.00001L129.356 1.00007L130.608 1.00025L131.861 1.00064L133.116 1.00138L134.372 1.00261L135.629 1.00453L136.888 1.00735L138.15 1.01133L139.413 1.01673L140.679 1.02386L141.948 1.03305L143.219 1.04467L144.493 1.0591L145.77 1.07677L147.051 1.09812L148.334 1.12362L149.621 1.15378L150.911 1.18911L152.204 1.23017L153.5 1.27752L154.8 1.33178L156.103 1.39356L157.408 1.46349L158.717 1.54225L160.028 1.6305L161.342 1.72895L162.659 1.83832L163.977 1.95932L165.297 2.0927L166.618 2.23921L167.941 2.3996L169.264 2.57463L170.587 2.76509L171.91 2.97172L173.233 3.19531L174.554 3.43661L175.873 3.69637L177.189 3.97536L178.503 4.27428L179.813 4.59388L181.118 4.93483L182.418 5.29781L183.712 5.68349L184.999 6.09246L186.279 6.52533L187.55 6.98264L188.813 7.46492L190.065 7.97262L191.306 8.50618L192.535 9.06598L193.752 9.65236L194.955 10.2656L196.144 10.9059L197.317 11.5734L198.474 12.2683L199.614 12.9905L200.737 13.7401L201.84 14.5171L202.925 15.3211L203.989 16.1522L205.032 17.0099L206.053 17.894L207.053 18.804L208.029 19.7395L208.982 20.7L209.912 21.685L210.816 22.6937L211.697 23.7256L212.552 24.7798L213.381 25.8557L214.185 26.9523L214.963 28.0688L215.716 29.2044L216.442 30.358L217.142 31.5288L217.816 32.7157L218.465 33.9177L219.088 35.1339L219.685 36.363L220.258 37.6042L220.806 38.8564L221.329 40.1185L221.829 41.3894L222.305 42.6682L222.759 43.9537L223.19 45.245L223.6 46.5412L223.989 47.8411L224.358 49.1439L224.708 50.4486L225.039 51.7544L225.352 53.0604L225.648 54.3657L225.928 55.6696L226.193 56.9713L226.443 58.27L226.681 59.5652L226.905 60.8562L227.118 62.1424L227.321 63.4232L227.514 64.6981L227.698 65.9667L227.874 67.2285L228.044 68.4832L228.208 69.7303L228.367 70.9697L228.522 72.201L228.674 73.424L228.824 74.6386L228.973 75.8445L229.122 77.0418L229.272 78.2304L229.424 79.4102L229.579 80.5812L229.737 81.7435L229.9 82.8971L230.068 84.0422L230.243 85.179L230.425 86.3076L230.616 87.4282L230.815 88.5411L231.025 89.6466L231.246 90.7449L231.479 91.8364L231.725 92.9214L231.984 94.0004L232.258 95.0738L232.548 96.142L232.855 97.2056L233.18 98.2649L233.523 99.3207L233.886 100.373L234.269 101.424L234.675 102.472L235.103 103.519L235.555 104.566L236.033 105.613L236.537 106.661L237.068 107.711L237.629 108.763L238.22 109.82L238.842 110.88L239.498 111.946L240.189 113.019L240.915 114.099L241.68 115.188L242.485 116.287L243.331 117.397L244.221 118.52L245.157 119.656L246.14 120.808L247.174 121.977L248.261 123.165L249.404 124.373L250.605 125.603L251 126Z" stroke="black" stroke-width="2" stroke-linejoin="round"/>
</svg>
