<svg width="252" height="252" viewBox="0 0 252 252" fill="none" xmlns="http://www.w3.org/2000/svg">
<path fill-rule="evenodd" clip-rule="evenodd" d="M251 126L250.373 127.759L249.743 129.5L249.11 131.225L248.474 132.932L247.835 134.622L247.193 136.296L246.548 137.953L245.899 139.594L245.248 141.219L244.594 142.828L243.937 144.421L243.276 145.999L242.613 147.561L241.947 149.108L241.279 150.64L240.607 152.157L239.932 153.659L239.255 155.146L238.574 156.619L237.891 158.078L237.205 159.522L236.516 160.952L235.825 162.368L235.131 163.77L234.434 165.159L233.734 166.533L233.032 167.894L232.327 169.242L231.619 170.576L230.909 171.898L230.196 173.206L229.48 174.5L228.762 175.782L228.041 177.052L227.318 178.308L226.592 179.552L225.864 180.783L225.133 182.001L224.4 183.208L223.664 184.402L222.926 185.583L222.185 186.753L221.442 187.91L220.696 189.055L219.949 190.189L219.198 191.31L218.446 192.42L217.691 193.518L216.934 194.604L216.175 195.679L215.413 196.742L214.649 197.793L213.883 198.833L213.115 199.862L212.344 200.879L211.572 201.885L210.797 202.88L210.02 203.864L209.241 204.836L208.46 205.798L207.677 206.748L206.892 207.688L206.105 208.616L205.315 209.534L204.524 210.441L203.731 211.337L202.936 212.222L202.139 213.096L201.34 213.96L200.539 214.813L199.737 215.656L198.932 216.488L198.126 217.309L197.318 218.12L196.508 218.921L195.696 219.711L194.883 220.491L194.067 221.26L193.251 222.019L192.432 222.768L191.612 223.506L190.79 224.234L189.966 224.952L189.141 225.66L188.315 226.357L187.487 227.045L186.657 227.722L185.826 228.389L184.993 229.047L184.159 229.694L183.323 230.331L182.486 230.958L181.647 231.575L180.807 232.182L179.966 232.78L179.123 233.367L178.279 233.945L177.434 234.512L176.587 235.07L175.74 235.618L174.891 236.156L174.04 236.684L173.189 237.203L172.336 237.712L171.482 238.211L170.627 238.7L169.771 239.18L168.914 239.65L168.056 240.11L167.196 240.56L166.336 241.001L165.475 241.432L164.612 241.854L163.749 242.266L162.885 242.668L162.019 243.061L161.153 243.444L160.286 243.818L159.418 244.182L158.55 244.536L157.68 244.881L156.81 245.217L155.939 245.542L155.067 245.859L154.195 246.166L153.321 246.463L152.448 246.751L151.573 247.029L150.698 247.298L149.822 247.557L148.945 247.807L148.068 248.048L147.191 248.279L146.313 248.5L145.434 248.712L144.555 248.915L143.675 249.108L142.796 249.292L141.915 249.467L141.034 249.632L140.153 249.787L139.271 249.934L138.39 250.07L137.507 250.198L136.625 250.316L135.742 250.424L134.859 250.524L133.976 250.614L133.093 250.694L132.209 250.765L131.325 250.827L130.441 250.879L129.557 250.922L128.673 250.956L127.789 250.98L126.905 250.995L126.021 251L125.136 250.996L124.252 250.983L123.368 250.96L122.484 250.928L121.6 250.887L120.716 250.836L119.832 250.776L118.949 250.706L118.065 250.627L117.182 250.539L116.299 250.441L115.416 250.334L114.533 250.217L113.651 250.091L112.769 249.956L111.888 249.811L111.006 249.657L110.126 249.494L109.245 249.321L108.365 249.138L107.485 248.947L106.606 248.745L105.728 248.535L104.849 248.315L103.972 248.085L103.095 247.846L102.218 247.598L101.342 247.34L100.467 247.073L99.5921 246.796L98.7181 246.509L97.8447 246.214L96.9721 245.908L96.1002 245.593L95.229 245.269L94.3586 244.935L93.489 244.592L92.6202 244.239L91.7522 243.876L90.8851 243.504L90.0189 243.123L89.1535 242.732L88.2891 242.331L87.4256 241.92L86.5631 241.5L85.7016 241.071L84.8411 240.631L83.9816 240.182L83.1231 239.724L82.2657 239.255L81.4095 238.777L80.5543 238.289L79.7002 237.792L78.8474 237.285L77.9957 236.768L77.1452 236.241L76.2959 235.704L75.4478 235.158L74.6011 234.602L73.7556 234.036L72.9114 233.46L72.0685 232.874L71.227 232.278L70.3868 231.673L69.5481 231.057L68.7107 230.431L67.8748 229.796L67.0403 229.15L66.2073 228.495L65.3758 227.829L64.5459 227.153L63.7174 226.468L62.8905 225.772L62.0652 225.065L61.2415 224.349L60.4194 223.623L59.5989 222.886L58.7801 222.139L57.963 221.381L57.1475 220.614L56.3338 219.836L55.5219 219.047L54.7116 218.248L53.9032 217.439L53.0966 216.619L52.2918 215.789L51.4888 214.948L50.6877 214.097L49.8885 213.235L49.0912 212.362L48.2958 211.478L47.5023 210.584L46.7108 209.679L45.9213 208.763L45.1338 207.836L44.3483 206.899L43.5649 205.95L42.7835 204.99L42.0042 204.019L41.227 203.038L40.4519 202.044L39.6789 201.04L38.9081 200.025L38.1395 198.998L37.373 197.96L36.6088 196.91L35.8468 195.849L35.0871 194.776L34.3297 193.692L33.5745 192.596L32.8216 191.488L32.0711 190.368L31.3229 189.237L30.5771 188.093L29.8337 186.938L29.0926 185.77L28.354 184.591L27.6179 183.399L26.8841 182.194L26.1529 180.978L25.4242 179.749L24.6979 178.507L23.9742 177.253L23.2531 175.985L22.5345 174.705L21.8185 173.413L21.1051 172.107L20.3944 170.788L19.6862 169.456L18.9808 168.11L18.278 166.751L17.5779 165.378L16.8805 163.992L16.1858 162.592L15.4939 161.179L14.8047 159.751L14.1183 158.309L13.4347 156.853L12.7539 155.382L12.076 153.897L11.4009 152.397L10.7287 150.883L10.0593 149.353L9.39285 147.809L8.7293 146.249L8.06868 144.674L7.41102 143.083L6.75631 141.476L6.10459 139.854L5.45586 138.216L4.81014 136.561L4.16745 134.89L3.52781 133.202L2.89123 131.498L2.25772 129.776L1.62731 128.037L1 126.281L1.42715 124.52L2.05658 122.776L2.6891 121.049L3.32471 119.339L3.96338 117.646L4.6051 115.969L5.24985 114.309L5.89762 112.666L6.54839 111.038L7.20215 109.427L7.85888 107.831L8.51855 106.251L9.18117 104.686L9.8467 103.137L10.5151 101.603L11.1865 100.083L11.8606 98.5789L12.5377 97.0892L13.2176 95.614L13.9003 94.1533L14.5858 92.7068L15.274 91.2745L15.9651 89.8562L16.6589 88.4519L17.3554 87.0614L18.0547 85.6845L18.7566 84.3212L19.4612 82.9714L20.1685 81.6349L20.8785 80.3117L21.591 79.0017L22.3062 77.7047L23.0239 76.4206L23.7443 75.1495L24.4671 73.8911L25.1926 72.6453L25.9205 71.4122L26.651 70.1916L27.3839 68.9834L28.1193 67.7875L28.8571 66.6039L29.5974 65.4325L30.34 64.2733L31.0851 63.126L31.8325 61.9907L32.5823 60.8674L33.3344 59.7558L34.0889 58.6561L34.8456 57.568L35.6046 56.4915L36.3659 55.4267L37.1294 54.3733L37.8951 53.3314L38.663 52.3009L39.4331 51.2818L40.2054 50.2739L40.9798 49.2773L41.7564 48.2919L42.535 47.3176L43.3158 46.3544L44.0986 45.4022L44.8834 44.461L45.6703 43.5307L46.4591 42.6114L47.25 41.7029L48.0428 40.8052L48.8376 39.9182L49.6343 39.042L50.4329 38.1765L51.2335 37.3216L52.0358 36.4774L52.84 35.6437L53.6461 34.8206L54.4539 34.0079L55.2636 33.2058L56.075 32.414L56.8882 31.6327L57.703 30.8617L58.5196 30.1011L59.3379 29.3508L60.1578 28.6108L60.9794 27.881L61.8026 27.1614L62.6274 26.452L63.4538 25.7528L64.2818 25.0638L65.1113 24.3848L65.9423 23.716L66.7748 23.0572L67.6088 22.4084L68.4443 21.7697L69.2812 21.1409L70.1195 20.5222L70.9592 19.9134L71.8003 19.3145L72.6427 18.7255L73.4865 18.1465L74.3316 17.5773L75.178 17.0179L76.0256 16.4684L76.8745 15.9287L77.7246 15.3988L78.5759 14.8787L79.4285 14.3684L80.2821 13.8678L81.1369 13.3769L81.9929 12.8958L82.8499 12.4243L83.708 11.9626L84.5672 11.5105L85.4274 11.0681L86.2886 10.6354L87.1508 10.2123L88.014 9.79878L88.8781 9.3949L89.7431 9.00062L90.6091 8.61594L91.4759 8.24083L92.3436 7.87529L93.2122 7.51931L94.0815 7.17287L94.9517 6.83597L95.8226 6.50861L96.6943 6.19076L97.5667 5.88242L98.4398 5.58358L99.3136 5.29424L100.188 5.01439L101.063 4.74401L101.939 4.48311L102.815 4.23167L103.692 3.98969L104.57 3.75716L105.448 3.53408L106.326 3.32044L107.205 3.11623L108.085 2.92145L108.965 2.73609L109.845 2.56015L110.726 2.39363L111.607 2.23652L112.488 2.08881L113.37 1.95051L114.252 1.82161L115.135 1.7021L116.018 1.59198L116.901 1.49125L117.784 1.39992L118.667 1.31796L119.551 1.24539L120.434 1.1822L121.318 1.12839L122.202 1.08396L123.086 1.04891L123.971 1.02323L124.855 1.00693L125.739 1L126.623 1.00245L127.507 1.01427L128.392 1.03547L129.276 1.06604L130.16 1.10599L131.044 1.15532L131.927 1.21403L132.811 1.28212L133.695 1.35959L134.578 1.44644L135.461 1.54268L136.344 1.64831L137.226 1.76333L138.109 1.88775L138.991 2.02156L139.872 2.16477L140.754 2.31739L141.635 2.47942L142.515 2.65085L143.395 2.83171L144.275 3.02199L145.154 3.22169L146.033 3.43082L146.911 3.64939L147.789 3.87741L148.666 4.11487L149.543 4.36179L150.419 4.61817L151.294 4.88402L152.169 5.15935L153.043 5.44415L153.917 5.73845L154.789 6.04225L155.661 6.35555L156.533 6.67837L157.403 7.01071L158.273 7.35259L159.142 7.70401L160.01 8.06498L160.877 8.43552L161.744 8.81563L162.609 9.20532L163.474 9.60461L164.337 10.0135L165.2 10.432L166.062 10.8602L166.922 11.298L167.782 11.7454L168.641 12.2025L169.498 12.6693L170.355 13.1458L171.21 13.632L172.064 14.128L172.917 14.6336L173.769 15.1491L174.62 15.6743L175.469 16.2093L176.318 16.7541L177.165 17.3088L178.01 17.8733L178.855 18.4476L179.698 19.0319L180.539 19.626L181.38 20.2301L182.219 20.8441L183.056 21.468L183.893 22.102L184.727 22.7459L185.56 23.3999L186.392 24.064L187.222 24.7381L188.051 25.4223L188.878 26.1167L189.704 26.8212L190.528 27.5359L191.35 28.2608L192.171 28.9959L192.99 29.7413L193.807 30.497L194.623 31.263L195.437 32.0394L196.249 32.8262L197.06 33.6234L197.869 34.431L198.675 35.2491L199.481 36.0778L200.284 36.9169L201.085 37.7667L201.885 38.6272L202.682 39.4982L203.478 40.38L204.272 41.2726L205.064 42.1759L205.853 43.0901L206.641 44.0151L207.427 44.9511L208.211 45.898L208.993 46.856L209.772 47.825L210.55 48.8051L211.325 49.7964L212.098 50.7989L212.87 51.8126L213.639 52.8377L214.405 53.8741L215.17 54.922L215.932 55.9813L216.692 57.0522L217.45 58.1347L218.206 59.2289L218.959 60.3348L219.71 61.4525L220.458 62.5821L221.205 63.7236L221.948 64.8771L222.69 66.0427L223.429 67.2205L224.165 68.4105L224.9 69.6128L225.631 70.8274L226.36 72.0546L227.087 73.2943L227.811 74.5466L228.533 75.8117L229.252 77.0896L229.968 78.3804L230.682 79.6842L231.393 81.0011L232.102 82.3312L232.807 83.6746L233.511 85.0314L234.211 86.4018L234.909 87.7858L235.604 89.1835L236.296 90.5951L236.986 92.0207L237.673 93.4604L238.357 94.9143L239.038 96.3826L239.717 97.8653L240.392 99.3627L241.065 100.875L241.735 102.402L242.402 103.944L243.066 105.501L243.727 107.074L244.385 108.662L245.04 110.266L245.692 111.886L246.341 113.522L246.988 115.174L247.631 116.843L248.271 118.528L248.908 120.23L249.542 121.948L250.173 123.684L250.801 125.438L251 126Z" fill="#F9F9F9"/>
<path d="M251 126V126ZM251 126L250.373 127.759L249.743 129.5L249.11 131.225L248.474 132.932L247.835 134.622L247.193 136.296L246.548 137.953L245.899 139.594L245.248 141.219L244.594 142.828L243.937 144.421L243.276 145.999L242.613 147.561L241.947 149.108L241.279 150.64L240.607 152.157L239.932 153.659L239.255 155.146L238.574 156.619L237.891 158.078L237.205 159.522L236.516 160.952L235.825 162.368L235.131 163.77L234.434 165.159L233.734 166.533L233.032 167.894L232.327 169.242L231.619 170.576L230.909 171.898L230.196 173.206L229.48 174.5L228.762 175.782L228.041 177.052L227.318 178.308L226.592 179.552L225.864 180.783L225.133 182.001L224.4 183.208L223.664 184.402L222.926 185.583L222.185 186.753L221.442 187.91L220.696 189.055L219.949 190.189L219.198 191.31L218.446 192.42L217.691 193.518L216.934 194.604L216.175 195.679L215.413 196.742L214.649 197.793L213.883 198.833L213.115 199.862L212.344 200.879L211.572 201.885L210.797 202.88L210.02 203.864L209.241 204.836L208.46 205.798L207.677 206.748L206.892 207.688L206.105 208.616L205.315 209.534L204.524 210.441L203.731 211.337L202.936 212.222L202.139 213.096L201.34 213.96L200.539 214.813L199.737 215.656L198.932 216.488L198.126 217.309L197.318 218.12L196.508 218.921L195.696 219.711L194.883 220.491L194.067 221.26L193.251 222.019L192.432 222.768L191.612 223.506L190.79 224.234L189.966 224.952L189.141 225.66L188.315 226.357L187.487 227.045L186.657 227.722L185.826 228.389L184.993 229.047L184.159 229.694L183.323 230.331L182.486 230.958L181.647 231.575L180.807 232.182L179.966 232.78L179.123 233.367L178.279 233.945L177.434 234.512L176.587 235.07L175.74 235.618L174.891 236.156L174.04 236.684L173.189 237.203L172.336 237.712L171.482 238.211L170.627 238.7L169.771 239.18L168.914 239.65L168.056 240.11L167.196 240.56L166.336 241.001L165.475 241.432L164.612 241.854L163.749 242.266L162.885 242.668L162.019 243.061L161.153 243.444L160.286 243.818L159.418 244.182L158.55 244.536L157.68 244.881L156.81 245.217L155.939 245.542L155.067 245.859L154.195 246.166L153.321 246.463L152.448 246.751L151.573 247.029L150.698 247.298L149.822 247.557L148.945 247.807L148.068 248.048L147.191 248.279L146.313 248.5L145.434 248.712L144.555 248.915L143.675 249.108L142.796 249.292L141.915 249.467L141.034 249.632L140.153 249.787L139.272 249.934L138.39 250.07L137.507 250.198L136.625 250.316L135.742 250.424L134.859 250.524L133.976 250.614L133.093 250.694L132.209 250.765L131.325 250.827L130.441 250.879L129.557 250.922L128.673 250.956L127.789 250.98L126.905 250.995L126.021 251L125.136 250.996L124.252 250.983L123.368 250.96L122.484 250.928L121.6 250.887L120.716 250.836L119.832 250.776L118.949 250.706L118.065 250.627L117.182 250.539L116.299 250.441L115.416 250.334L114.533 250.217L113.651 250.091L112.769 249.956L111.888 249.811L111.006 249.657L110.126 249.494L109.245 249.321L108.365 249.138L107.485 248.947L106.606 248.745L105.728 248.535L104.849 248.315L103.972 248.085L103.095 247.846L102.218 247.598L101.342 247.34L100.467 247.073L99.5921 246.796L98.7181 246.509L97.8447 246.214L96.9721 245.908L96.1002 245.593L95.229 245.269L94.3586 244.935L93.489 244.592L92.6202 244.239L91.7522 243.876L90.8851 243.504L90.0189 243.123L89.1535 242.732L88.2891 242.331L87.4256 241.92L86.5631 241.5L85.7016 241.071L84.8411 240.631L83.9816 240.182L83.1231 239.724L82.2657 239.255L81.4095 238.777L80.5543 238.289L79.7002 237.792L78.8474 237.285L77.9957 236.768L77.1452 236.241L76.2959 235.704L75.4478 235.158L74.6011 234.602L73.7556 234.036L72.9114 233.46L72.0685 232.874L71.227 232.278L70.3868 231.673L69.5481 231.057L68.7107 230.431L67.8748 229.796L67.0403 229.15L66.2073 228.495L65.3758 227.829L64.5459 227.153L63.7174 226.468L62.8905 225.772L62.0652 225.065L61.2415 224.349L60.4194 223.623L59.5989 222.886L58.7801 222.139L57.963 221.381L57.1475 220.614L56.3338 219.836L55.5219 219.047L54.7116 218.248L53.9032 217.439L53.0966 216.619L52.2918 215.789L51.4888 214.948L50.6877 214.097L49.8885 213.235L49.0912 212.362L48.2958 211.478L47.5023 210.584L46.7108 209.679L45.9213 208.763L45.1338 207.836L44.3483 206.899L43.5649 205.95L42.7835 204.99L42.0042 204.019L41.227 203.038L40.4519 202.045L39.6789 201.04L38.9081 200.025L38.1395 198.998L37.373 197.96L36.6088 196.91L35.8468 195.849L35.0871 194.776L34.3297 193.692L33.5745 192.596L32.8216 191.488L32.0711 190.368L31.3229 189.237L30.5771 188.093L29.8337 186.938L29.0926 185.77L28.354 184.591L27.6179 183.399L26.8841 182.194L26.1529 180.978L25.4242 179.749L24.6979 178.507L23.9742 177.253L23.2531 175.985L22.5345 174.705L21.8185 173.413L21.1051 172.107L20.3944 170.788L19.6862 169.456L18.9808 168.11L18.278 166.751L17.5779 165.378L16.8805 163.992L16.1858 162.592L15.4939 161.179L14.8047 159.751L14.1183 158.309L13.4347 156.853L12.7539 155.382L12.076 153.897L11.4009 152.397L10.7287 150.883L10.0593 149.353L9.39284 147.809L8.7293 146.249L8.06868 144.674L7.41102 143.083L6.75631 141.476L6.10459 139.854L5.45586 138.216L4.81014 136.561L4.16745 134.89L3.52781 133.202L2.89123 131.498L2.25772 129.776L1.62731 128.037L1 126.281L1.42715 124.52L2.05658 122.776L2.6891 121.049L3.32471 119.339L3.96338 117.646L4.6051 115.969L5.24985 114.309L5.89762 112.666L6.54839 111.038L7.20215 109.427L7.85888 107.831L8.51855 106.251L9.18117 104.686L9.8467 103.137L10.5151 101.603L11.1865 100.083L11.8606 98.5789L12.5377 97.0892L13.2176 95.614L13.9003 94.1533L14.5858 92.7068L15.274 91.2745L15.9651 89.8562L16.6589 88.4519L17.3554 87.0614L18.0547 85.6845L18.7566 84.3212L19.4612 82.9714L20.1685 81.6349L20.8785 80.3117L21.591 79.0017L22.3062 77.7047L23.0239 76.4206L23.7443 75.1495L24.4671 73.8911L25.1926 72.6453L25.9205 71.4122L26.651 70.1916L27.3839 68.9834L28.1193 67.7875L28.8571 66.6039L29.5974 65.4325L30.34 64.2733L31.0851 63.126L31.8325 61.9907L32.5823 60.8674L33.3344 59.7558L34.0889 58.6561L34.8456 57.568L35.6046 56.4915L36.3659 55.4267L37.1294 54.3733L37.8951 53.3314L38.663 52.3009L39.4331 51.2818L40.2054 50.2739L40.9798 49.2773L41.7564 48.2919L42.535 47.3176L43.3158 46.3544L44.0986 45.4022L44.8834 44.461L45.6703 43.5307L46.4591 42.6114L47.25 41.7029L48.0428 40.8052L48.8376 39.9182L49.6343 39.042L50.4329 38.1765L51.2335 37.3216L52.0358 36.4774L52.84 35.6437L53.6461 34.8206L54.4539 34.0079L55.2636 33.2058L56.075 32.414L56.8882 31.6327L57.703 30.8617L58.5196 30.1011L59.3379 29.3508L60.1578 28.6108L60.9794 27.881L61.8026 27.1614L62.6274 26.452L63.4538 25.7528L64.2818 25.0638L65.1113 24.3848L65.9423 23.716L66.7748 23.0572L67.6088 22.4084L68.4443 21.7697L69.2812 21.1409L70.1195 20.5222L70.9592 19.9134L71.8003 19.3145L72.6427 18.7255L73.4865 18.1465L74.3316 17.5773L75.178 17.0179L76.0256 16.4684L76.8745 15.9287L77.7246 15.3988L78.5759 14.8787L79.4285 14.3684L80.2821 13.8678L81.1369 13.3769L81.9929 12.8958L82.8499 12.4243L83.708 11.9626L84.5672 11.5105L85.4274 11.0681L86.2886 10.6354L87.1508 10.2123L88.014 9.79878L88.8781 9.3949L89.7431 9.00062L90.6091 8.61594L91.4759 8.24083L92.3436 7.87529L93.2122 7.51931L94.0815 7.17287L94.9517 6.83597L95.8226 6.5086L96.6943 6.19076L97.5667 5.88242L98.4398 5.58358L99.3136 5.29424L100.188 5.01439L101.063 4.74401L101.939 4.48311L102.815 4.23167L103.692 3.98969L104.57 3.75716L105.448 3.53408L106.326 3.32044L107.205 3.11623L108.085 2.92145L108.965 2.73609L109.845 2.56015L110.726 2.39363L111.607 2.23652L112.488 2.08881L113.37 1.95051L114.252 1.82161L115.135 1.7021L116.018 1.59198L116.901 1.49125L117.784 1.39992L118.667 1.31796L119.551 1.24539L120.434 1.1822L121.318 1.12839L122.202 1.08396L123.086 1.04891L123.971 1.02323L124.855 1.00693L125.739 1L126.623 1.00245L127.507 1.01427L128.392 1.03547L129.276 1.06604L130.16 1.10599L131.044 1.15532L131.927 1.21403L132.811 1.28212L133.695 1.35959L134.578 1.44644L135.461 1.54268L136.344 1.64831L137.226 1.76333L138.109 1.88775L138.991 2.02156L139.872 2.16477L140.754 2.31739L141.635 2.47942L142.515 2.65085L143.395 2.83171L144.275 3.02198L145.154 3.22169L146.033 3.43082L146.911 3.6494L147.789 3.87741L148.666 4.11487L149.543 4.36179L150.419 4.61817L151.294 4.88402L152.169 5.15935L153.043 5.44415L153.917 5.73845L154.789 6.04225L155.661 6.35555L156.533 6.67837L157.403 7.01071L158.273 7.35259L159.142 7.70401L160.01 8.06498L160.877 8.43552L161.744 8.81563L162.609 9.20532L163.474 9.60461L164.337 10.0135L165.2 10.432L166.062 10.8602L166.922 11.298L167.782 11.7454L168.641 12.2025L169.498 12.6693L170.355 13.1458L171.21 13.632L172.064 14.128L172.917 14.6336L173.769 15.1491L174.62 15.6743L175.469 16.2093L176.318 16.7541L177.165 17.3088L178.01 17.8733L178.855 18.4476L179.698 19.0319L180.539 19.626L181.38 20.2301L182.219 20.8441L183.056 21.468L183.893 22.102L184.727 22.7459L185.56 23.3999L186.392 24.064L187.222 24.7381L188.051 25.4223L188.878 26.1167L189.704 26.8212L190.528 27.5359L191.35 28.2608L192.171 28.9959L192.99 29.7413L193.807 30.497L194.623 31.263L195.437 32.0394L196.249 32.8262L197.06 33.6234L197.869 34.431L198.675 35.2491L199.481 36.0778L200.284 36.9169L201.085 37.7667L201.885 38.6272L202.682 39.4982L203.478 40.38L204.272 41.2726L205.064 42.1759L205.853 43.0901L206.641 44.0151L207.427 44.9511L208.211 45.898L208.993 46.856L209.772 47.825L210.55 48.8051L211.325 49.7964L212.099 50.7989L212.87 51.8126L213.639 52.8377L214.405 53.8741L215.17 54.922L215.932 55.9813L216.692 57.0522L217.45 58.1347L218.206 59.2289L218.959 60.3348L219.71 61.4525L220.458 62.5821L221.205 63.7236L221.948 64.8771L222.69 66.0427L223.429 67.2205L224.165 68.4105L224.9 69.6128L225.631 70.8274L226.36 72.0546L227.087 73.2943L227.811 74.5466L228.533 75.8117L229.252 77.0896L229.968 78.3804L230.682 79.6842L231.393 81.0011L232.102 82.3312L232.807 83.6746L233.511 85.0314L234.211 86.4018L234.909 87.7858L235.604 89.1835L236.296 90.5951L236.986 92.0207L237.673 93.4604L238.357 94.9143L239.038 96.3826L239.717 97.8653L240.392 99.3627L241.065 100.875L241.735 102.402L242.402 103.944L243.066 105.501L243.727 107.074L244.385 108.662L245.04 110.266L245.692 111.886L246.341 113.522L246.988 115.174L247.631 116.843L248.271 118.528L248.908 120.23L249.542 121.948L250.173 123.684L250.801 125.438L251 126Z" stroke="black" stroke-width="2" stroke-linejoin="round"/>
</svg>
