<svg width="253" height="253" viewBox="0 0 253 253" fill="none" xmlns="http://www.w3.org/2000/svg">
<path fill-rule="evenodd" clip-rule="evenodd" d="M212 1H211.193H40V1.00387C11.2506 1.2282 1.2282 11.2506 1.00387 40H1L1.00001 41V212H1.00268C1.19143 241.21 11.4258 251.168 41 251.168V251H211.193V251.168C241.047 251.168 251.193 241.021 251.193 211.168H251V41H251.193C251.193 11.4173 241.23 1.18549 212 1.00251V1Z" fill="#F9F9F9"/>
<path d="M212 1H213V0H212V1ZM40 1V0H39V1H40ZM40 1.00387L40.0078 2.00384L41 1.9961V1.00387H40ZM1.00387 40V41H1.9961L2.00384 40.0078L1.00387 40ZM1 40V39H-7.51019e-06L0 40L1 40ZM1.00001 41H2.00001V41L1.00001 41ZM1.00001 212H7.51019e-06V213H1.00001V212ZM1.00268 212L2.00266 211.994L1.99624 211H1.00268V212ZM41 251.168V252.168H42V251.168H41ZM41 251V250H40V251H41ZM211.193 251H212.193V250H211.193V251ZM211.193 251.168H210.193V252.168H211.193V251.168ZM251.193 211.168H252.193V210.168H251.193V211.168ZM251 211.168H250V212.168H251V211.168ZM251 41V40H250V41H251ZM251.193 41V42H252.193V41H251.193ZM212 1.00251H211V1.99627L211.994 2.00249L212 1.00251ZM211.193 2H212V0H211.193V2ZM40 2H211.193V0H40V2ZM41 1.00387V1H39V1.00387H41ZM2.00384 40.0078C2.11549 25.6995 4.67388 16.3504 10.5122 10.5122C16.3504 4.67388 25.6995 2.11549 40.0078 2.00384L39.9922 0.00390142C25.5511 0.116585 15.5143 2.68157 9.09794 9.09794C2.68157 15.5143 0.116586 25.5511 0.00390345 39.9922L2.00384 40.0078ZM1 41H1.00387V39H1V41ZM2.00001 41L2 40L0 40L7.51019e-06 41L2.00001 41ZM2.00001 212V41H7.51019e-06V212H2.00001ZM1.00268 211H1.00001V213H1.00268V211ZM41 250.168C26.2726 250.168 16.6665 247.677 10.681 241.823C4.69992 235.973 2.09661 226.533 2.00266 211.994L0.00270122 212.006C0.0975007 226.677 2.70577 236.821 9.28262 243.253C15.855 249.68 26.1532 252.168 41 252.168V250.168ZM40 251V251.168H42V251H40ZM211.193 250H41V252H211.193V250ZM212.193 251.168V251H210.193V251.168H212.193ZM250.193 211.168C250.193 226.035 247.655 235.682 241.681 241.656C235.708 247.629 226.06 250.168 211.193 250.168V252.168C226.18 252.168 236.532 249.633 243.095 243.07C249.659 236.507 252.193 226.154 252.193 211.168H250.193ZM251 212.168H251.193V210.168H251V212.168ZM250 41V211.168H252V41H250ZM251.193 40H251V42H251.193V40ZM211.994 2.00249C226.543 2.09357 235.99 4.69492 241.843 10.6758C247.701 16.661 250.193 26.2683 250.193 41H252.193C252.193 26.149 249.704 15.8491 243.272 9.27691C236.836 2.70046 226.687 0.0944302 212.006 0.00252581L211.994 2.00249ZM211 1V1.00251H213V1H211Z" fill="black"/>
</svg>
