<svg width="244" height="244" viewBox="0 0 244 244" fill="none" xmlns="http://www.w3.org/2000/svg">
<path d="M1.45744 57.2793C-1.11349 25.4455 25.4455 -1.11348 57.2793 1.45745L86.6846 3.83226C110.057 5.71982 133.543 5.71981 156.915 3.83225L186.32 1.45744C218.154 -1.11349 244.713 25.4455 242.142 57.2793L239.767 86.6846C237.88 110.057 237.88 133.543 239.767 156.915L242.142 186.32C244.713 218.154 218.154 244.713 186.32 242.142L156.915 239.767C133.543 237.88 110.057 237.88 86.6846 239.767L57.2793 242.142C25.4455 244.713 -1.11349 218.154 1.45744 186.32L3.83225 156.915C5.71981 133.543 5.71981 110.057 3.83225 86.6846L1.45744 57.2793Z" fill="#F9F9F9" stroke="black" stroke-width="2" stroke-linejoin="round"/>
</svg>
