<svg width="254" height="252" viewBox="0 0 254 252" fill="none" xmlns="http://www.w3.org/2000/svg">
<path fill-rule="evenodd" clip-rule="evenodd" d="M249.772 126L249.778 127.25L249.796 128.501L249.824 129.753L249.863 131.006L249.91 132.262L249.967 133.521L250.032 134.783L250.103 136.048L250.181 137.318L250.265 138.592L250.354 139.871L250.448 141.155L250.544 142.445L250.644 143.74L250.746 145.041L250.849 146.349L250.952 147.663L251.055 148.983L251.157 150.311L251.257 151.645L251.355 152.986L251.449 154.334L251.539 155.688L251.624 157.05L251.703 158.419L251.776 159.794L251.84 161.177L251.897 162.565L251.944 163.96L251.982 165.362L252.008 166.769L252.023 168.182L252.025 169.6L252.014 171.023L251.989 172.451L251.949 173.883L251.893 175.319L251.821 176.758L251.731 178.2L251.623 179.644L251.496 181.09L251.349 182.537L251.182 183.985L250.994 185.432L250.784 186.879L250.552 188.324L250.296 189.766L250.017 191.206L249.714 192.642L249.386 194.073L249.032 195.499L248.653 196.919L248.248 198.332L247.816 199.737L247.357 201.134L246.871 202.52L246.358 203.897L245.816 205.262L245.247 206.615L244.65 207.956L244.025 209.283L243.371 210.595L242.69 211.892L241.98 213.172L241.243 214.436L240.478 215.683L239.685 216.91L238.865 218.119L238.019 219.308L237.145 220.477L236.245 221.625L235.32 222.752L234.369 223.856L233.394 224.938L232.394 225.996L231.37 227.032L230.324 228.043L229.255 229.031L228.165 229.993L227.053 230.932L225.922 231.845L224.77 232.733L223.601 233.596L222.413 234.434L221.208 235.246L219.987 236.033L218.75 236.795L217.498 237.532L216.233 238.243L214.955 238.93L213.664 239.592L212.363 240.229L211.05 240.842L209.728 241.432L208.397 241.997L207.058 242.539L205.711 243.059L204.357 243.556L202.998 244.03L201.634 244.484L200.265 244.916L198.892 245.327L197.516 245.718L196.137 246.09L194.756 246.443L193.374 246.776L191.992 247.092L190.608 247.391L189.225 247.672L187.843 247.937L186.462 248.187L185.082 248.421L183.704 248.64L182.329 248.846L180.956 249.038L179.586 249.217L178.219 249.383L176.856 249.538L175.496 249.682L174.141 249.815L172.789 249.937L171.442 250.05L170.099 250.154L168.761 250.249L167.427 250.335L166.098 250.414L164.773 250.486L163.454 250.551L162.139 250.61L160.829 250.663L159.524 250.71L158.224 250.752L156.928 250.789L155.637 250.822L154.35 250.851L153.068 250.876L151.79 250.898L150.516 250.917L149.246 250.933L147.981 250.947L146.719 250.958L145.46 250.968L144.205 250.975L142.953 250.982L141.704 250.987L140.458 250.991L139.215 250.994L137.974 250.996L136.735 250.997L135.498 250.998L134.263 250.999L133.029 251L131.796 251L130.565 251L129.334 251H128.104H126.874H125.644H124.413L123.183 251L121.951 251L120.719 251L119.485 250.999L118.25 250.999L117.014 250.998L115.775 250.996L114.534 250.994L113.291 250.991L112.046 250.987L110.797 250.983L109.546 250.976L108.291 250.969L107.033 250.96L105.772 250.949L104.507 250.935L103.238 250.92L101.965 250.901L100.687 250.88L99.4058 250.855L98.1199 250.827L96.8294 250.795L95.5344 250.758L94.2347 250.717L92.9303 250.671L91.6211 250.619L90.3071 250.561L88.9883 250.497L87.6648 250.426L86.3365 250.349L85.0035 250.263L83.6658 250.169L82.3237 250.067L80.9771 249.956L79.6262 249.835L78.2712 249.704L76.9122 249.562L75.5495 249.409L74.1832 249.244L72.8138 249.067L71.4413 248.877L70.0662 248.674L68.6887 248.457L67.3093 248.225L65.9283 247.978L64.5461 247.716L63.1632 247.437L61.78 247.141L60.3971 246.828L59.0149 246.497L57.634 246.147L56.255 245.779L54.8785 245.391L53.505 244.983L52.1353 244.554L50.7701 244.104L49.4099 243.633L48.0555 243.139L46.7077 242.624L45.3672 242.085L44.0347 241.523L42.711 240.938L41.397 240.328L40.0934 239.695L38.8011 239.037L37.5208 238.354L36.2534 237.647L34.9998 236.914L33.7607 236.156L32.5369 235.373L31.3293 234.565L30.1387 233.731L28.9659 232.872L27.8118 231.988L26.6769 231.079L25.5622 230.145L24.4684 229.186L23.3961 228.202L22.346 227.194L21.3189 226.163L20.3153 225.108L19.3359 224.03L18.3811 222.929L17.4516 221.806L16.5477 220.662L15.67 219.496L14.8189 218.31L13.9947 217.104L13.1977 215.879L12.4282 214.636L11.6864 213.375L10.9724 212.097L10.2865 210.802L9.62868 209.493L8.99896 208.168L8.39734 206.83L7.82373 205.479L7.27803 204.115L6.76007 202.74L6.26964 201.355L5.80649 199.96L5.37032 198.556L4.96078 197.145L4.57749 195.726L4.22003 194.301L3.88793 192.87L3.5807 191.435L3.2978 189.996L3.03867 188.554L2.8027 187.109L2.58927 185.663L2.39773 184.215L2.22739 182.768L2.07756 181.321L1.94751 179.875L1.8365 178.43L1.74376 176.988L1.66853 175.548L1.61001 174.112L1.56742 172.679L1.53993 171.25L1.52673 169.826L1.527 168.407L1.5399 166.994L1.56462 165.585L1.6003 164.183L1.64613 162.787L1.70126 161.397L1.76486 160.014L1.8361 158.637L1.91416 157.268L1.99821 155.905L2.08744 154.549L2.18102 153.2L2.27815 151.858L2.37804 150.523L2.47989 149.194L2.5829 147.873L2.68631 146.558L2.78933 145.249L2.89119 143.947L2.99114 142.651L3.08843 141.36L3.18229 140.075L3.27199 138.796L3.35679 137.521L3.43595 136.25L3.50875 134.984L3.57446 133.722L3.63234 132.463L3.68168 131.206L3.72176 129.952L3.75185 128.7L3.77121 127.449L3.77913 126.199L3.77501 124.949L3.75921 123.698L3.73246 122.447L3.69549 121.193L3.64902 119.938L3.59378 118.68L3.53048 117.418L3.45987 116.153L3.38265 114.884L3.29957 113.611L3.21135 112.333L3.11873 111.05L3.02246 109.761L2.92327 108.467L2.82194 107.166L2.7192 105.86L2.61584 104.547L2.51261 103.227L2.41031 101.901L2.30971 100.568L2.21161 99.2283L2.11681 97.8815L2.02611 96.5278L1.94032 95.1671L1.86027 93.7996L1.78676 92.4251L1.72064 91.044L1.66272 89.6563L1.61384 88.2622L1.57483 86.8619L1.54653 85.4556L1.52977 84.0436L1.52539 82.6262L1.53421 81.2037L1.55706 79.7766L1.59476 78.3452L1.64811 76.9099L1.71793 75.4712L1.80501 74.0297L1.91012 72.5858L2.03402 71.1401L2.17748 69.6932L2.3412 68.2457L2.52592 66.7983L2.7323 65.3516L2.96102 63.9063L3.21271 62.4632L3.48798 61.0229L3.7874 59.5864L4.11152 58.1542L4.46085 56.7273L4.83586 55.3064L5.23699 53.8924L5.66464 52.4861L6.11917 51.0883L6.60087 49.6998L7.11004 48.3216L7.64688 46.9545L8.21159 45.5992L8.80428 44.2567L9.42505 42.9278L10.0739 41.6132L10.7509 40.3139L11.4559 39.0305L12.1889 37.7639L12.9496 36.5148L13.7378 35.2839L14.5534 34.0719L15.396 32.8796L16.2653 31.7075L17.1608 30.5562L18.0823 29.4264L19.029 28.3185L20.0007 27.2331L20.9966 26.1707L22.0163 25.1316L23.0591 24.1163L24.1244 23.1251L25.2115 22.1583L26.3196 21.2161L27.4481 20.2988L28.5962 19.4066L29.7632 18.5395L30.9482 17.6978L32.1504 16.8813L33.3691 16.0902L34.6035 15.3244L35.8526 14.5838L37.1157 13.8682L38.3919 13.1777L39.6805 12.5119L40.9806 11.8706L42.2914 11.2537L43.6121 10.6607L44.9418 10.0914L46.2799 9.54546L47.6254 9.02245L48.9778 8.52201L50.3362 8.04369L51.7 7.58706L53.0683 7.15166L54.4406 6.737L55.8162 6.34257L57.1945 5.96788L58.5749 5.61238L59.9567 5.27554L61.3395 4.95683L62.7226 4.65567L64.1057 4.37152L65.4881 4.1038L66.8696 3.85195L68.2495 3.6154L69.6277 3.39358L71.0036 3.18592L72.3769 2.99185L73.7474 2.81081L75.1147 2.64224L76.4785 2.48559L77.8387 2.34031L79.195 2.20587L80.5472 2.08172L81.8952 1.96736L83.2388 1.86226L84.5779 1.76593L85.9124 1.67787L87.2422 1.59761L88.5673 1.52468L89.8876 1.45862L91.2031 1.399L92.5138 1.34538L93.8197 1.29735L95.1209 1.25451L96.4174 1.21648L97.7093 1.18287L98.9967 1.15334L100.28 1.12754L101.558 1.10515L102.833 1.08584L104.103 1.06932L105.369 1.05531L106.632 1.04354L107.891 1.03376L109.147 1.02573L110.399 1.01922L111.648 1.01404L112.895 1.00998L114.139 1.00687L115.38 1.00456L116.619 1.00288L117.857 1.00172L119.092 1.00095L120.326 1.00047L121.559 1.0002L122.791 1.00007L124.021 1.00002L125.252 1L126.482 1L127.712 1L128.942 1.00001L130.173 1.00004L131.404 1.00013L132.636 1.00032L133.869 1.00069L135.104 1.00131L136.341 1.00227L137.579 1.00368L138.819 1.00568L140.062 1.00839L141.307 1.01197L142.555 1.01659L143.806 1.02244L145.06 1.02972L146.317 1.03864L147.578 1.04943L148.843 1.06233L150.111 1.07762L151.384 1.09556L152.66 1.11644L153.941 1.14057L155.226 1.16828L156.516 1.19989L157.81 1.23576L159.109 1.27626L160.413 1.32176L161.721 1.37266L163.035 1.42936L164.353 1.49229L165.675 1.56188L167.003 1.63858L168.335 1.72285L169.672 1.81517L171.014 1.91602L172.359 2.02589L173.71 2.1453L175.064 2.27476L176.422 2.41479L177.785 2.56594L179.15 2.72875L180.519 2.90376L181.891 3.09153L183.266 3.29263L184.643 3.50761L186.022 3.73705L187.403 3.98152L188.785 4.24159L190.168 4.51782L191.551 4.81078L192.934 5.12104L194.316 5.44915L195.697 5.79566L197.077 6.16111L198.454 6.54605L199.828 6.95098L201.198 7.37641L202.564 7.82284L203.925 8.29074L205.28 8.78055L206.629 9.29273L207.971 9.82767L209.305 10.3858L210.63 10.9674L211.946 11.5728L213.251 12.2025L214.545 12.8565L215.827 13.5352L217.097 14.2388L218.353 14.9674L219.594 15.7211L220.821 16.5002L222.031 17.3045L223.224 18.1342L224.4 18.9892L225.557 19.8694L226.695 20.7747L227.813 21.705L228.91 22.6601L229.986 23.6397L231.04 24.6435L232.07 25.6713L233.078 26.7226L234.061 27.7971L235.02 28.8943L235.953 30.0137L236.861 31.1548L237.743 32.317L238.599 33.4997L239.427 34.7024L240.229 35.9243L241.002 37.1648L241.749 38.4232L242.467 39.6986L243.157 40.9905L243.82 42.2978L244.454 43.62L245.06 44.9561L245.638 46.3054L246.188 47.667L246.711 49.04L247.205 50.4236L247.673 51.8171L248.113 53.2194L248.527 54.6299L248.914 56.0476L249.276 57.4717L249.612 58.9015L249.923 60.3361L250.21 61.7746L250.473 63.2165L250.712 64.6608L250.929 66.1069L251.124 67.5541L251.298 69.0016L251.451 70.4489L251.584 71.8952L251.698 73.34L251.794 74.7828L251.872 76.2229L251.933 77.6599L251.978 79.0932L252.008 80.5224L252.023 81.9472L252.025 83.367L252.014 84.7816L251.991 86.1907L251.957 87.5939L251.913 88.991L251.859 90.3818L251.797 91.7661L251.727 93.1437L251.65 94.5146L251.567 95.8785L251.478 97.2356L251.385 98.5857L251.289 99.9289L251.189 101.265L251.088 102.594L250.985 103.917L250.881 105.233L250.778 106.543L250.676 107.846L250.576 109.143L250.478 110.435L250.384 111.72L250.293 113.001L250.208 114.277L250.128 115.548L250.054 116.814L249.987 118.077L249.928 119.337L249.877 120.594L249.835 121.848L249.803 123.101L249.782 124.352L249.773 125.602L249.772 126Z" fill="#F9F9F9"/>
<path d="M249.772 126V126ZM249.772 126L249.778 127.25L249.796 128.501L249.824 129.753L249.863 131.006L249.91 132.262L249.967 133.521L250.032 134.783L250.103 136.048L250.181 137.318L250.265 138.592L250.354 139.871L250.448 141.155L250.544 142.445L250.644 143.74L250.746 145.041L250.849 146.349L250.952 147.663L251.055 148.983L251.157 150.311L251.257 151.645L251.355 152.986L251.449 154.334L251.539 155.688L251.624 157.05L251.703 158.419L251.776 159.794L251.84 161.177L251.897 162.565L251.944 163.96L251.982 165.362L252.008 166.769L252.023 168.182L252.025 169.6L252.014 171.023L251.989 172.451L251.949 173.883L251.893 175.319L251.821 176.758L251.731 178.2L251.623 179.644L251.496 181.09L251.349 182.537L251.182 183.985L250.994 185.432L250.784 186.879L250.552 188.324L250.296 189.766L250.017 191.206L249.714 192.642L249.386 194.073L249.032 195.499L248.653 196.919L248.248 198.332L247.816 199.737L247.357 201.134L246.871 202.52L246.358 203.897L245.816 205.262L245.247 206.615L244.65 207.956L244.025 209.283L243.371 210.595L242.69 211.892L241.98 213.172L241.243 214.436L240.478 215.683L239.685 216.91L238.865 218.119L238.019 219.308L237.145 220.477L236.245 221.625L235.32 222.752L234.369 223.856L233.394 224.938L232.394 225.996L231.37 227.032L230.324 228.043L229.255 229.031L228.165 229.993L227.053 230.932L225.922 231.845L224.77 232.733L223.601 233.596L222.413 234.434L221.208 235.246L219.987 236.033L218.75 236.795L217.498 237.532L216.233 238.243L214.955 238.93L213.664 239.592L212.363 240.229L211.05 240.842L209.728 241.432L208.397 241.997L207.058 242.539L205.711 243.059L204.357 243.556L202.998 244.03L201.634 244.484L200.265 244.916L198.892 245.327L197.516 245.718L196.137 246.09L194.756 246.442L193.374 246.776L191.992 247.092L190.608 247.391L189.225 247.672L187.843 247.937L186.462 248.187L185.082 248.421L183.704 248.64L182.329 248.846L180.956 249.038L179.586 249.217L178.219 249.383L176.856 249.538L175.496 249.682L174.141 249.815L172.789 249.937L171.442 250.05L170.099 250.154L168.761 250.249L167.427 250.335L166.098 250.414L164.773 250.486L163.454 250.551L162.139 250.61L160.829 250.663L159.524 250.71L158.224 250.752L156.928 250.789L155.637 250.822L154.35 250.851L153.068 250.876L151.79 250.898L150.516 250.917L149.246 250.933L147.981 250.947L146.719 250.958L145.46 250.968L144.205 250.975L142.953 250.982L141.704 250.987L140.458 250.991L139.215 250.994L137.974 250.996L136.735 250.997L135.498 250.998L134.263 250.999L133.029 251L131.796 251L130.565 251L129.334 251H128.104H126.874H125.644H124.413L123.183 251L121.951 251L120.719 251L119.485 250.999L118.25 250.999L117.014 250.998L115.775 250.996L114.534 250.994L113.291 250.991L112.046 250.987L110.797 250.983L109.546 250.976L108.291 250.969L107.033 250.96L105.772 250.949L104.507 250.935L103.238 250.92L101.965 250.901L100.687 250.88L99.4058 250.855L98.1199 250.827L96.8294 250.795L95.5344 250.758L94.2347 250.717L92.9303 250.671L91.6211 250.619L90.3071 250.561L88.9883 250.497L87.6648 250.426L86.3365 250.349L85.0035 250.263L83.6659 250.169L82.3237 250.067L80.9771 249.956L79.6262 249.835L78.2712 249.704L76.9122 249.562L75.5495 249.409L74.1832 249.244L72.8138 249.067L71.4413 248.877L70.0662 248.674L68.6887 248.457L67.3093 248.225L65.9283 247.978L64.5461 247.716L63.1632 247.437L61.78 247.141L60.3971 246.828L59.0149 246.497L57.634 246.147L56.255 245.779L54.8785 245.391L53.505 244.983L52.1353 244.554L50.7701 244.104L49.4099 243.633L48.0555 243.139L46.7077 242.624L45.3672 242.085L44.0347 241.523L42.711 240.938L41.397 240.328L40.0934 239.695L38.8011 239.037L37.5208 238.354L36.2534 237.647L34.9998 236.914L33.7606 236.156L32.5369 235.373L31.3293 234.565L30.1387 233.731L28.9659 232.872L27.8118 231.988L26.6769 231.079L25.5622 230.145L24.4684 229.186L23.3961 228.202L22.346 227.194L21.3189 226.163L20.3153 225.108L19.3359 224.03L18.3811 222.929L17.4516 221.806L16.5477 220.662L15.67 219.496L14.8189 218.31L13.9947 217.104L13.1977 215.879L12.4282 214.636L11.6864 213.375L10.9724 212.097L10.2865 210.802L9.62868 209.493L8.99896 208.168L8.39734 206.83L7.82373 205.479L7.27803 204.115L6.76007 202.74L6.26964 201.355L5.80649 199.96L5.37032 198.556L4.96078 197.145L4.57749 195.726L4.22003 194.301L3.88793 192.87L3.5807 191.435L3.2978 189.996L3.03867 188.554L2.8027 187.109L2.58927 185.663L2.39773 184.215L2.22739 182.768L2.07756 181.321L1.94751 179.875L1.8365 178.43L1.74376 176.988L1.66853 175.548L1.61001 174.112L1.56742 172.679L1.53993 171.25L1.52673 169.826L1.527 168.407L1.5399 166.994L1.56462 165.585L1.6003 164.183L1.64613 162.787L1.70126 161.397L1.76486 160.014L1.8361 158.637L1.91416 157.268L1.99821 155.905L2.08744 154.549L2.18102 153.2L2.27815 151.858L2.37804 150.523L2.47989 149.194L2.5829 147.873L2.68631 146.558L2.78933 145.249L2.89119 143.947L2.99114 142.651L3.08843 141.36L3.18229 140.075L3.27199 138.796L3.35679 137.521L3.43595 136.25L3.50875 134.984L3.57445 133.722L3.63234 132.463L3.68168 131.206L3.72176 129.952L3.75185 128.7L3.77121 127.449L3.77913 126.199L3.77501 124.949L3.75921 123.698L3.73246 122.447L3.69549 121.193L3.64902 119.938L3.59378 118.68L3.53048 117.418L3.45987 116.153L3.38265 114.884L3.29957 113.611L3.21135 112.333L3.11873 111.05L3.02246 109.761L2.92327 108.467L2.82194 107.166L2.7192 105.86L2.61584 104.547L2.51261 103.227L2.41031 101.901L2.30971 100.568L2.21161 99.2283L2.11681 97.8815L2.02611 96.5278L1.94032 95.1671L1.86027 93.7996L1.78676 92.4252L1.72064 91.044L1.66272 89.6563L1.61384 88.2622L1.57483 86.8619L1.54653 85.4556L1.52977 84.0436L1.52539 82.6262L1.53421 81.2037L1.55706 79.7766L1.59476 78.3452L1.64811 76.9099L1.71793 75.4712L1.80501 74.0297L1.91012 72.5858L2.03402 71.1401L2.17748 69.6932L2.3412 68.2457L2.52592 66.7983L2.7323 65.3516L2.96102 63.9063L3.21271 62.4632L3.48798 61.0229L3.7874 59.5864L4.11152 58.1542L4.46085 56.7273L4.83586 55.3064L5.23699 53.8924L5.66464 52.4861L6.11917 51.0883L6.60088 49.6998L7.11004 48.3216L7.64688 46.9545L8.21159 45.5992L8.80428 44.2567L9.42505 42.9278L10.0739 41.6132L10.7509 40.3139L11.4559 39.0305L12.1889 37.7639L12.9496 36.5148L13.7378 35.2839L14.5534 34.0719L15.396 32.8796L16.2653 31.7075L17.1608 30.5562L18.0823 29.4264L19.029 28.3185L20.0007 27.2331L20.9966 26.1707L22.0163 25.1316L23.0591 24.1163L24.1244 23.1251L25.2115 22.1583L26.3196 21.2161L27.4481 20.2988L28.5962 19.4066L29.7632 18.5395L30.9482 17.6978L32.1504 16.8813L33.3691 16.0902L34.6035 15.3244L35.8526 14.5838L37.1157 13.8682L38.3919 13.1777L39.6805 12.5119L40.9806 11.8706L42.2914 11.2537L43.6121 10.6607L44.9418 10.0914L46.2799 9.54546L47.6254 9.02245L48.9778 8.52201L50.3362 8.04369L51.7 7.58706L53.0683 7.15166L54.4406 6.737L55.8162 6.34257L57.1945 5.96787L58.5749 5.61238L59.9567 5.27554L61.3395 4.95683L62.7226 4.65567L64.1057 4.37152L65.4881 4.1038L66.8696 3.85195L68.2495 3.6154L69.6277 3.39358L71.0036 3.18592L72.3769 2.99185L73.7474 2.81081L75.1147 2.64224L76.4785 2.48559L77.8387 2.34031L79.195 2.20587L80.5472 2.08172L81.8952 1.96736L83.2388 1.86226L84.5779 1.76593L85.9124 1.67787L87.2422 1.59761L88.5673 1.52468L89.8876 1.45862L91.2031 1.399L92.5138 1.34538L93.8197 1.29735L95.1209 1.25451L96.4174 1.21648L97.7093 1.18287L98.9967 1.15334L100.28 1.12754L101.558 1.10515L102.833 1.08584L104.103 1.06932L105.369 1.05531L106.632 1.04354L107.891 1.03376L109.147 1.02573L110.399 1.01922L111.648 1.01404L112.895 1.00998L114.139 1.00687L115.38 1.00456L116.619 1.00288L117.857 1.00172L119.092 1.00095L120.326 1.00047L121.559 1.0002L122.791 1.00007L124.021 1.00002L125.252 1L126.482 1L127.712 1L128.942 1.00001L130.173 1.00004L131.404 1.00013L132.636 1.00032L133.869 1.00069L135.104 1.00131L136.341 1.00227L137.579 1.00368L138.819 1.00568L140.062 1.00839L141.307 1.01197L142.555 1.01659L143.806 1.02244L145.06 1.02972L146.317 1.03864L147.578 1.04943L148.843 1.06233L150.111 1.07762L151.384 1.09556L152.66 1.11644L153.941 1.14057L155.226 1.16828L156.516 1.19989L157.81 1.23576L159.109 1.27626L160.413 1.32176L161.721 1.37266L163.035 1.42936L164.353 1.49229L165.675 1.56188L167.003 1.63858L168.335 1.72285L169.672 1.81517L171.014 1.91602L172.359 2.02589L173.71 2.1453L175.064 2.27476L176.422 2.41479L177.785 2.56594L179.15 2.72875L180.519 2.90376L181.891 3.09153L183.266 3.29263L184.643 3.50761L186.022 3.73705L187.403 3.98152L188.785 4.24159L190.168 4.51782L191.551 4.81078L192.934 5.12104L194.316 5.44915L195.697 5.79566L197.077 6.16111L198.454 6.54605L199.828 6.95098L201.198 7.37641L202.564 7.82284L203.925 8.29074L205.28 8.78055L206.629 9.29273L207.971 9.82767L209.305 10.3858L210.63 10.9674L211.946 11.5728L213.251 12.2025L214.545 12.8565L215.827 13.5352L217.097 14.2388L218.353 14.9674L219.594 15.7211L220.821 16.5002L222.031 17.3045L223.224 18.1342L224.4 18.9892L225.557 19.8694L226.695 20.7747L227.813 21.705L228.91 22.6601L229.986 23.6397L231.04 24.6435L232.07 25.6713L233.078 26.7226L234.061 27.7971L235.02 28.8943L235.953 30.0137L236.861 31.1548L237.743 32.317L238.599 33.4997L239.427 34.7024L240.228 35.9243L241.002 37.1648L241.749 38.4232L242.467 39.6986L243.157 40.9905L243.82 42.2978L244.454 43.62L245.06 44.9561L245.638 46.3054L246.188 47.667L246.711 49.04L247.205 50.4236L247.673 51.8171L248.113 53.2194L248.527 54.6299L248.914 56.0476L249.276 57.4717L249.612 58.9015L249.923 60.3361L250.21 61.7746L250.473 63.2165L250.712 64.6608L250.929 66.1069L251.124 67.5541L251.298 69.0016L251.451 70.4489L251.584 71.8952L251.698 73.34L251.794 74.7828L251.872 76.2229L251.933 77.6599L251.978 79.0932L252.008 80.5224L252.023 81.9472L252.025 83.367L252.014 84.7816L251.991 86.1907L251.957 87.5939L251.913 88.991L251.859 90.3818L251.797 91.7661L251.727 93.1437L251.65 94.5146L251.567 95.8785L251.478 97.2356L251.385 98.5857L251.289 99.9289L251.189 101.265L251.088 102.594L250.985 103.917L250.881 105.233L250.778 106.543L250.676 107.846L250.576 109.143L250.478 110.435L250.384 111.72L250.293 113.001L250.208 114.277L250.128 115.548L250.054 116.814L249.987 118.077L249.928 119.337L249.877 120.594L249.835 121.848L249.804 123.101L249.782 124.352L249.773 125.602L249.772 126Z" stroke="black" stroke-width="2" stroke-linejoin="round"/>
</svg>
