<svg width="253" height="252" viewBox="0 0 253 252" fill="none" xmlns="http://www.w3.org/2000/svg">
<path fill-rule="evenodd" clip-rule="evenodd" d="M243.247 126L243.253 127.173L243.271 128.346L243.3 129.52L243.341 130.695L243.393 131.874L243.457 133.055L243.532 134.239L243.618 135.428L243.716 136.621L243.824 137.82L243.943 139.024L244.072 140.234L244.211 141.452L244.36 142.676L244.518 143.909L244.685 145.15L244.861 146.399L245.046 147.658L245.238 148.927L245.438 150.206L245.644 151.496L245.857 152.797L246.075 154.109L246.299 155.433L246.527 156.77L246.759 158.118L246.994 159.48L247.232 160.854L247.471 162.241L247.711 163.642L247.95 165.056L248.189 166.484L248.425 167.925L248.658 169.38L248.888 170.849L249.112 172.331L249.33 173.826L249.541 175.334L249.743 176.855L249.935 178.388L250.116 179.934L250.284 181.491L250.439 183.059L250.579 184.638L250.703 186.227L250.809 187.824L250.895 189.43L250.961 191.043L251.004 192.663L251.024 194.288L251.019 195.917L250.988 197.549L250.928 199.183L250.839 200.818L250.719 202.451L250.568 204.082L250.382 205.709L250.162 207.331L249.906 208.945L249.613 210.551L249.281 212.146L248.91 213.729L248.499 215.297L248.046 216.85L247.551 218.385L247.014 219.9L246.433 221.394L245.809 222.865L245.14 224.31L244.427 225.729L243.669 227.119L242.867 228.478L242.02 229.806L241.129 231.101L240.195 232.36L239.217 233.584L238.196 234.769L237.134 235.916L236.03 237.023L234.887 238.088L233.704 239.112L232.484 240.094L231.227 241.032L229.935 241.926L228.61 242.776L227.253 243.582L225.865 244.343L224.449 245.06L223.005 245.732L221.537 246.36L220.045 246.944L218.531 247.485L216.998 247.983L215.447 248.439L213.879 248.854L212.298 249.228L210.703 249.563L209.098 249.859L207.485 250.118L205.863 250.341L204.237 250.529L202.606 250.684L200.972 250.806L199.338 250.897L197.704 250.959L196.072 250.993L194.442 251L192.817 250.982L191.197 250.94L189.583 250.876L187.977 250.791L186.378 250.687L184.789 250.565L183.21 250.426L181.64 250.273L180.082 250.105L178.536 249.925L177.001 249.733L175.479 249.532L173.97 249.322L172.474 249.105L170.991 248.881L169.522 248.652L168.066 248.419L166.623 248.183L165.194 247.944L163.779 247.705L162.377 247.465L160.989 247.226L159.613 246.988L158.251 246.753L156.901 246.521L155.564 246.292L154.239 246.068L152.926 245.849L151.624 245.636L150.334 245.429L149.054 245.229L147.784 245.036L146.524 244.851L145.274 244.674L144.032 244.506L142.799 244.347L141.574 244.197L140.356 244.058L139.145 243.928L137.94 243.808L136.741 243.699L135.548 243.601L134.359 243.514L133.174 243.438L131.992 243.373L130.814 243.32L129.638 243.278L128.464 243.248L127.291 243.229L126.119 243.222L124.946 243.227L123.773 243.244L122.6 243.272L121.424 243.312L120.246 243.364L119.065 243.427L117.881 243.501L116.692 243.586L115.5 243.683L114.302 243.79L113.098 243.908L111.888 244.036L110.671 244.175L109.447 244.323L108.215 244.48L106.975 244.647L105.726 244.822L104.468 245.006L103.2 245.198L101.921 245.397L100.633 245.603L99.3326 245.815L98.0212 246.033L96.6981 246.256L95.3629 246.484L94.0153 246.716L92.655 246.951L91.2817 247.188L89.8953 247.427L88.4956 247.667L87.0825 247.906L85.6558 248.145L84.2156 248.382L82.7617 248.615L81.2944 248.845L79.8136 249.07L78.3195 249.288L76.8123 249.499L75.2923 249.702L73.7598 249.895L72.2152 250.077L70.6589 250.247L69.0916 250.403L67.5137 250.544L65.9259 250.669L64.329 250.776L62.7239 250.864L61.1112 250.932L59.4921 250.977L57.8676 250.999L56.2387 250.996L54.6067 250.966L52.9728 250.909L51.3383 250.822L49.7047 250.705L48.0733 250.556L46.4458 250.373L44.8236 250.156L43.2085 249.903L41.6021 249.613L40.0061 249.284L38.4223 248.916L36.8526 248.508L35.2986 248.059L33.7622 247.567L32.2454 247.033L30.7498 246.456L29.2774 245.835L27.8298 245.17L26.409 244.46L25.0166 243.706L23.6544 242.908L22.3239 242.064L21.0267 241.177L19.7644 240.246L18.5382 239.271L17.3496 238.254L16.1998 237.195L15.0898 236.095L14.0207 234.954L12.9934 233.775L12.0086 232.558L11.0671 231.304L10.1693 230.015L9.31556 228.692L8.50625 227.337L7.74148 225.952L7.02127 224.538L6.34551 223.097L5.71397 221.63L5.1263 220.14L4.58204 218.628L4.0806 217.096L3.62132 215.546L3.20341 213.98L2.826 212.399L2.48813 210.806L2.18876 209.202L1.92679 207.589L1.70103 205.968L1.51025 204.342L1.35316 202.711L1.22844 201.078L1.13471 199.443L1.07057 197.809L1.03461 196.177L1.02539 194.547L1.04146 192.921L1.08135 191.301L1.14363 189.686L1.22684 188.079L1.32953 186.48L1.4503 184.89L1.58772 183.31L1.74042 181.74L1.90703 180.181L2.08623 178.634L2.27671 177.098L2.47721 175.575L2.6865 174.065L2.90337 172.568L3.12668 171.084L3.35529 169.613L3.58813 168.156L3.82415 166.713L4.06237 165.283L4.3018 163.866L4.54154 162.463L4.7807 161.074L5.01845 159.698L5.25398 158.334L5.48652 156.984L5.71537 155.645L5.93981 154.319L6.15922 153.005L6.37297 151.703L6.58048 150.411L6.78121 149.13L6.97465 147.86L7.16031 146.599L7.33776 145.348L7.50656 144.106L7.66634 142.872L7.81674 141.646L7.95742 140.428L8.08809 139.216L8.20846 138.011L8.31829 136.812L8.41735 135.618L8.50545 134.428L8.5824 133.243L8.64805 132.061L8.70229 130.883L8.745 129.707L8.7761 128.532L8.79553 127.359L8.80326 126.187L8.79926 125.015L8.78356 123.842L8.75617 122.668L8.71715 121.493L8.66658 120.315L8.60454 119.134L8.53117 117.95L8.44661 116.762L8.35102 115.57L8.2446 114.372L8.12756 113.169L8.00014 111.96L7.86262 110.743L7.71529 109.52L7.55846 108.289L7.39249 107.049L7.21775 105.801L7.03466 104.543L6.84364 103.276L6.64518 101.999L6.43977 100.711L6.22795 99.4115L6.01028 98.1011L5.78737 96.7789L5.55985 95.4447L5.32841 94.098L5.09375 92.7387L4.85663 91.3665L4.61783 89.9812L4.37818 88.5826L4.13855 87.1705L3.89984 85.7449L3.66301 84.3057L3.42905 82.853L3.19897 81.3867L2.97386 79.9069L2.75481 78.4139L2.54298 76.9077L2.33955 75.3887L2.14574 73.8572L1.96281 72.3135L1.79204 70.7582L1.63477 69.1917L1.49233 67.6146L1.36611 66.0276L1.2575 64.4315L1.16793 62.8269L1.09883 61.2148L1.05165 59.5962L1.02783 57.972L1.02884 56.3435L1.05613 54.7117L1.11113 53.0779L1.19528 51.4434L1.30999 49.8096L1.45662 48.178L1.63653 46.5501L1.85101 44.9275L2.10131 43.3117L2.38865 41.7046L2.71413 40.1077L3.07884 38.5229L3.48375 36.9519L3.92977 35.3966L4.41769 33.8588L4.94825 32.3403L5.52204 30.8429L6.13956 29.3686L6.80121 27.919L7.50724 26.496L8.25781 25.1013L9.05294 23.7366L9.89252 22.4035L10.7763 21.1036L11.704 19.8384L12.6751 18.6094L13.6889 17.4177L14.7448 16.2647L15.8418 15.1516L16.9791 14.0792L18.1555 13.0485L19.3698 12.0603L20.6208 11.1153L21.907 10.214L23.2271 9.35675L24.5794 8.5439L25.9623 7.77558L27.3743 7.05182L28.8135 6.37253L30.2782 5.73748L31.7666 5.14633L33.2769 4.59863L34.8072 4.0938L36.3558 3.63119L37.9207 3.21002L39.5002 2.82941L41.0925 2.48843L42.6958 2.18604L44.3083 1.92113L45.9284 1.69253L47.5544 1.49901L49.1847 1.33929L50.8178 1.21204L52.4522 1.11589L54.0864 1.04945L55.7191 1.0113L57.3491 1L58.9752 1.01411L60.5961 1.05216L62.2109 1.11271L63.8186 1.1943L65.4182 1.2955L67.009 1.41487L68.5901 1.55102L70.1609 1.70255L71.7207 1.86811L73.2691 2.04635L74.8055 2.23598L76.3295 2.43573L77.8408 2.64436L79.3391 2.86068L80.8242 3.08351L82.2958 3.31174L83.754 3.54428L85.1985 3.78009L86.6295 4.01817L88.047 4.25754L89.4509 4.49729L90.8415 4.73653L92.2189 4.97442L93.5834 5.21015L94.935 5.44296L96.2741 5.67212L97.6011 5.89695L98.9161 6.11678L100.22 6.331L101.512 6.53903L102.794 6.74032L104.065 6.93436L105.326 7.12066L106.578 7.29877L107.821 7.46828L109.056 7.62879L110.282 7.77995L111.501 7.92142L112.713 8.05289L113.919 8.17409L115.119 8.28477L116.313 8.3847L117.503 8.47367L118.688 8.55151L119.87 8.61808L121.049 8.67323L122.225 8.71686L123.4 8.74888L124.573 8.76925L125.745 8.77791L126.917 8.77485L128.09 8.76007L129.264 8.73361L130.439 8.69552L131.617 8.64586L132.797 8.58473L133.981 8.51226L135.168 8.42859L136.361 8.33387L137.558 8.2283L138.76 8.1121L139.969 7.9855L141.185 7.84877L142.408 7.7022L143.638 7.54612L144.877 7.38086L146.125 7.20681L147.382 7.02436L148.648 6.83396L149.925 6.63608L151.212 6.4312L152.51 6.21987L153.82 6.00264L155.141 5.78012L156.474 5.55295L157.82 5.3218L159.178 5.08737L160.549 4.85041L161.934 4.61171L163.331 4.3721L164.742 4.13243L166.167 3.89362L167.605 3.65661L169.056 3.42237L170.522 3.19195L172 2.9664L173.492 2.74683L174.997 2.53438L176.515 2.33024L178.046 2.13561L179.589 1.95177L181.143 1.77999L182.709 1.62159L184.285 1.47792L185.871 1.35035L187.467 1.24029L189.07 1.14916L190.682 1.07837L192.3 1.02939L193.924 1.00366L195.552 1.00264L197.184 1.02778L198.817 1.08052L200.452 1.1623L202.086 1.27452L203.718 1.41856L205.346 1.59577L206.969 1.80745L208.585 2.05486L210.193 2.3392L211.791 2.66161L213.377 3.02316L214.949 3.42484L216.506 3.86755L218.045 4.35211L219.565 4.87925L221.064 5.44958L222.54 6.0636L223.992 6.72172L225.417 7.42422L226.814 8.17124L228.181 8.96282L229.517 9.79888L230.819 10.6792L232.087 11.6034L233.32 12.571L234.514 13.5815L235.67 14.634L236.787 15.7278L237.862 16.8619L238.896 18.0352L239.888 19.2466L240.836 20.4947L241.741 21.7782L242.602 23.0956L243.418 24.4454L244.19 25.826L244.918 27.2357L245.6 28.6728L246.239 30.1355L246.834 31.6221L247.385 33.1307L247.893 34.6595L248.359 36.2067L248.783 37.7704L249.167 39.3488L249.511 40.9402L249.817 42.5426L250.084 44.1545L250.316 45.7741L250.512 47.3996L250.675 49.0297L250.804 50.6626L250.903 52.2969L250.972 53.9312L251.012 55.5641L251.025 57.1944L251.013 58.8208L250.977 60.4422L250.918 62.0575L250.838 63.6658L250.739 65.2661L250.621 66.8576L250.486 68.4395L250.335 70.0111L250.171 71.5718L249.994 73.1211L249.805 74.6585L249.606 76.1835L249.398 77.6959L249.182 79.1952L248.96 80.6813L248.732 82.1541L248.5 83.6133L248.264 85.059L248.026 86.4911L247.787 87.9096L247.547 89.3146L247.308 90.7063L247.07 92.0847L246.834 93.4501L246.601 94.8028L246.371 96.1429L246.146 97.4708L245.926 98.7868L245.711 100.091L245.503 101.385L245.301 102.667L245.106 103.939L244.919 105.201L244.74 106.454L244.57 107.698L244.409 108.933L244.257 110.16L244.115 111.379L243.983 112.592L243.861 113.798L243.749 114.998L243.648 116.193L243.558 117.383L243.48 118.569L243.412 119.751L243.356 120.93L243.312 122.107L243.279 123.281L243.257 124.454L243.248 125.627L243.247 126Z" fill="#F9F9F9"/>
<path d="M243.247 126V126ZM243.247 126L243.253 127.173L243.271 128.346L243.3 129.52L243.341 130.695L243.393 131.874L243.457 133.055L243.532 134.239L243.618 135.428L243.716 136.621L243.824 137.82L243.943 139.024L244.072 140.234L244.211 141.452L244.36 142.676L244.518 143.909L244.685 145.15L244.861 146.399L245.046 147.658L245.238 148.927L245.438 150.206L245.644 151.496L245.857 152.797L246.075 154.109L246.299 155.433L246.527 156.77L246.759 158.118L246.994 159.48L247.232 160.854L247.471 162.241L247.711 163.642L247.95 165.056L248.189 166.484L248.425 167.925L248.658 169.38L248.888 170.849L249.112 172.331L249.33 173.826L249.541 175.334L249.743 176.855L249.935 178.388L250.116 179.934L250.284 181.491L250.439 183.059L250.579 184.638L250.703 186.227L250.809 187.824L250.895 189.43L250.961 191.043L251.004 192.663L251.024 194.288L251.019 195.917L250.988 197.549L250.928 199.183L250.839 200.818L250.719 202.451L250.568 204.082L250.382 205.709L250.162 207.331L249.906 208.945L249.613 210.551L249.281 212.146L248.91 213.729L248.499 215.297L248.046 216.85L247.551 218.385L247.014 219.9L246.433 221.394L245.809 222.865L245.14 224.31L244.427 225.729L243.669 227.119L242.867 228.478L242.02 229.806L241.129 231.101L240.195 232.36L239.217 233.584L238.196 234.769L237.134 235.916L236.03 237.023L234.887 238.088L233.704 239.112L232.484 240.094L231.227 241.032L229.935 241.926L228.61 242.776L227.253 243.582L225.865 244.343L224.449 245.06L223.005 245.732L221.537 246.36L220.045 246.944L218.531 247.485L216.998 247.983L215.447 248.439L213.879 248.854L212.297 249.228L210.703 249.563L209.098 249.859L207.485 250.118L205.863 250.341L204.237 250.529L202.606 250.684L200.972 250.806L199.338 250.897L197.704 250.959L196.072 250.993L194.442 251L192.817 250.982L191.197 250.94L189.583 250.876L187.977 250.791L186.378 250.687L184.789 250.565L183.21 250.426L181.64 250.273L180.082 250.105L178.536 249.925L177.002 249.733L175.479 249.532L173.97 249.322L172.474 249.105L170.991 248.881L169.522 248.652L168.066 248.419L166.623 248.183L165.194 247.944L163.779 247.705L162.377 247.465L160.989 247.226L159.613 246.988L158.251 246.753L156.901 246.521L155.564 246.292L154.239 246.068L152.926 245.849L151.624 245.636L150.334 245.429L149.054 245.229L147.784 245.036L146.524 244.851L145.274 244.674L144.032 244.506L142.799 244.347L141.574 244.197L140.356 244.058L139.145 243.928L137.94 243.808L136.741 243.699L135.548 243.601L134.359 243.514L133.174 243.438L131.992 243.373L130.814 243.32L129.638 243.278L128.464 243.248L127.291 243.229L126.119 243.222L124.946 243.227L123.773 243.244L122.6 243.272L121.424 243.312L120.246 243.364L119.065 243.427L117.881 243.501L116.693 243.586L115.5 243.683L114.302 243.79L113.098 243.908L111.888 244.036L110.671 244.175L109.447 244.323L108.215 244.48L106.975 244.647L105.726 244.822L104.468 245.006L103.2 245.198L101.921 245.397L100.633 245.603L99.3326 245.815L98.0212 246.033L96.6981 246.256L95.3629 246.484L94.0153 246.716L92.6549 246.951L91.2817 247.188L89.8953 247.427L88.4956 247.667L87.0825 247.906L85.6558 248.145L84.2156 248.382L82.7617 248.615L81.2944 248.845L79.8136 249.07L78.3195 249.288L76.8123 249.499L75.2923 249.702L73.7598 249.895L72.2152 250.077L70.6589 250.247L69.0916 250.403L67.5137 250.544L65.9259 250.669L64.329 250.776L62.7238 250.864L61.1112 250.932L59.4921 250.977L57.8676 250.999L56.2387 250.996L54.6067 250.966L52.9728 250.909L51.3383 250.822L49.7047 250.705L48.0733 250.556L46.4458 250.373L44.8236 250.156L43.2085 249.903L41.6021 249.613L40.0061 249.284L38.4223 248.916L36.8526 248.508L35.2986 248.059L33.7622 247.567L32.2454 247.033L30.7498 246.456L29.2774 245.835L27.8298 245.17L26.409 244.46L25.0166 243.706L23.6544 242.908L22.3239 242.064L21.0267 241.177L19.7644 240.246L18.5382 239.271L17.3496 238.254L16.1998 237.195L15.0898 236.095L14.0207 234.954L12.9934 233.775L12.0086 232.558L11.0671 231.304L10.1693 230.015L9.31556 228.692L8.50625 227.337L7.74148 225.952L7.02127 224.538L6.34551 223.097L5.71397 221.63L5.1263 220.14L4.58204 218.628L4.0806 217.096L3.62132 215.546L3.20341 213.98L2.826 212.399L2.48813 210.806L2.18876 209.202L1.92679 207.589L1.70103 205.968L1.51025 204.342L1.35316 202.711L1.22844 201.078L1.13471 199.443L1.07057 197.809L1.03461 196.177L1.02539 194.547L1.04146 192.921L1.08135 191.301L1.14363 189.686L1.22684 188.079L1.32953 186.48L1.4503 184.89L1.58772 183.31L1.74042 181.74L1.90703 180.181L2.08623 178.634L2.27671 177.098L2.47721 175.575L2.6865 174.065L2.90337 172.568L3.12668 171.084L3.35529 169.613L3.58813 168.156L3.82415 166.713L4.06237 165.283L4.3018 163.866L4.54154 162.463L4.7807 161.074L5.01845 159.698L5.25398 158.334L5.48652 156.984L5.71537 155.645L5.93981 154.319L6.15922 153.005L6.37297 151.703L6.58048 150.411L6.78121 149.13L6.97465 147.86L7.16031 146.599L7.33776 145.348L7.50656 144.106L7.66634 142.872L7.81674 141.646L7.95742 140.428L8.08809 139.216L8.20846 138.011L8.31829 136.812L8.41735 135.618L8.50545 134.428L8.5824 133.243L8.64805 132.061L8.70229 130.883L8.745 129.707L8.7761 128.532L8.79553 127.359L8.80326 126.187L8.79926 125.015L8.78356 123.842L8.75617 122.668L8.71715 121.493L8.66658 120.315L8.60454 119.134L8.53117 117.95L8.44661 116.762L8.35102 115.57L8.2446 114.372L8.12756 113.169L8.00014 111.96L7.86262 110.743L7.71529 109.52L7.55846 108.289L7.39249 107.049L7.21775 105.801L7.03466 104.543L6.84364 103.276L6.64518 101.999L6.43977 100.711L6.22795 99.4115L6.01028 98.1011L5.78737 96.7789L5.55985 95.4447L5.32841 94.098L5.09375 92.7387L4.85663 91.3665L4.61783 89.9812L4.37818 88.5826L4.13855 87.1705L3.89984 85.7449L3.66301 84.3057L3.42905 82.853L3.19897 81.3867L2.97386 79.9069L2.75481 78.4139L2.54298 76.9077L2.33955 75.3887L2.14574 73.8572L1.96281 72.3135L1.79204 70.7582L1.63477 69.1917L1.49233 67.6146L1.36611 66.0276L1.2575 64.4315L1.16793 62.8269L1.09883 61.2148L1.05165 59.5962L1.02783 57.972L1.02884 56.3435L1.05613 54.7117L1.11113 53.0779L1.19528 51.4434L1.30999 49.8096L1.45662 48.178L1.63653 46.5501L1.85101 44.9275L2.10131 43.3117L2.38865 41.7046L2.71413 40.1077L3.07884 38.5229L3.48375 36.9519L3.92977 35.3966L4.41769 33.8588L4.94825 32.3403L5.52204 30.8429L6.13956 29.3686L6.80121 27.919L7.50724 26.496L8.25781 25.1013L9.05294 23.7366L9.89252 22.4035L10.7763 21.1036L11.704 19.8384L12.6751 18.6094L13.6889 17.4177L14.7448 16.2647L15.8418 15.1516L16.9791 14.0792L18.1555 13.0485L19.3698 12.0603L20.6208 11.1153L21.907 10.214L23.2271 9.35675L24.5794 8.5439L25.9623 7.77558L27.3743 7.05182L28.8135 6.37253L30.2782 5.73748L31.7666 5.14633L33.2769 4.59863L34.8072 4.0938L36.3558 3.63119L37.9207 3.21002L39.5002 2.82941L41.0925 2.48843L42.6958 2.18604L44.3083 1.92113L45.9284 1.69253L47.5544 1.49901L49.1847 1.33929L50.8178 1.21204L52.4522 1.11589L54.0864 1.04945L55.7191 1.0113L57.3491 1L58.9752 1.01411L60.5961 1.05216L62.2109 1.11271L63.8186 1.1943L65.4182 1.2955L67.009 1.41487L68.5901 1.55102L70.1609 1.70255L71.7207 1.86811L73.2691 2.04635L74.8055 2.23598L76.3295 2.43573L77.8408 2.64436L79.3391 2.86068L80.8241 3.08351L82.2958 3.31174L83.754 3.54428L85.1985 3.78009L86.6295 4.01817L88.047 4.25754L89.4509 4.49729L90.8415 4.73653L92.2189 4.97442L93.5833 5.21015L94.935 5.44296L96.2741 5.67212L97.6011 5.89695L98.9161 6.11678L100.22 6.331L101.512 6.53903L102.794 6.74032L104.065 6.93436L105.326 7.12066L106.578 7.29877L107.821 7.46828L109.056 7.62879L110.282 7.77995L111.501 7.92142L112.713 8.05289L113.919 8.17409L115.119 8.28477L116.313 8.38469L117.503 8.47367L118.688 8.55151L119.87 8.61808L121.049 8.67323L122.225 8.71686L123.4 8.74888L124.573 8.76925L125.745 8.77791L126.917 8.77485L128.09 8.76007L129.264 8.73361L130.439 8.69552L131.617 8.64586L132.797 8.58473L133.981 8.51226L135.168 8.42858L136.361 8.33387L137.558 8.2283L138.761 8.1121L139.969 7.9855L141.185 7.84877L142.408 7.7022L143.638 7.54612L144.877 7.38086L146.125 7.20681L147.382 7.02436L148.648 6.83396L149.925 6.63608L151.212 6.4312L152.51 6.21987L153.82 6.00264L155.141 5.78012L156.474 5.55295L157.82 5.3218L159.178 5.08737L160.549 4.85041L161.934 4.61171L163.331 4.3721L164.742 4.13243L166.167 3.89362L167.605 3.65661L169.056 3.42237L170.522 3.19195L172 2.9664L173.492 2.74683L174.997 2.53438L176.515 2.33024L178.046 2.13561L179.589 1.95177L181.143 1.77999L182.709 1.62159L184.285 1.47792L185.871 1.35035L187.467 1.24029L189.07 1.14916L190.682 1.07837L192.3 1.02939L193.924 1.00366L195.552 1.00264L197.184 1.02778L198.817 1.08052L200.452 1.1623L202.086 1.27452L203.718 1.41856L205.346 1.59577L206.969 1.80745L208.585 2.05486L210.193 2.3392L211.791 2.66161L213.377 3.02316L214.949 3.42484L216.506 3.86755L218.045 4.35211L219.565 4.87925L221.064 5.44958L222.54 6.0636L223.992 6.72172L225.417 7.42422L226.814 8.17124L228.181 8.96282L229.517 9.79888L230.819 10.6792L232.087 11.6034L233.319 12.571L234.514 13.5815L235.67 14.634L236.787 15.7278L237.862 16.8619L238.896 18.0352L239.888 19.2466L240.836 20.4947L241.741 21.7782L242.602 23.0956L243.418 24.4454L244.19 25.826L244.918 27.2357L245.6 28.6728L246.239 30.1355L246.834 31.6221L247.385 33.1307L247.893 34.6595L248.359 36.2067L248.783 37.7704L249.167 39.3488L249.511 40.9402L249.817 42.5426L250.084 44.1545L250.316 45.7741L250.512 47.3996L250.675 49.0297L250.804 50.6626L250.903 52.2969L250.972 53.9312L251.012 55.5641L251.025 57.1944L251.013 58.8208L250.977 60.4422L250.918 62.0575L250.838 63.6658L250.739 65.2661L250.621 66.8576L250.486 68.4395L250.335 70.0111L250.171 71.5718L249.994 73.1211L249.805 74.6585L249.606 76.1835L249.398 77.6959L249.182 79.1952L248.96 80.6813L248.732 82.1541L248.5 83.6133L248.264 85.059L248.026 86.491L247.787 87.9096L247.547 89.3146L247.308 90.7063L247.07 92.0847L246.834 93.4501L246.601 94.8028L246.371 96.1429L246.146 97.4708L245.926 98.7868L245.711 100.091L245.503 101.385L245.301 102.667L245.106 103.939L244.919 105.201L244.74 106.454L244.57 107.698L244.409 108.933L244.257 110.16L244.115 111.379L243.983 112.592L243.861 113.798L243.749 114.998L243.648 116.193L243.558 117.383L243.48 118.569L243.412 119.751L243.356 120.93L243.312 122.107L243.279 123.281L243.257 124.454L243.248 125.627L243.247 126Z" stroke="black" stroke-width="2" stroke-linejoin="round"/>
</svg>
