<svg width="252" height="252" viewBox="0 0 252 252" fill="none" xmlns="http://www.w3.org/2000/svg">
<path d="M203.22 15.7798C200.775 7.86473 194.284 1 186 1H66C57.7157 1 51.2252 7.86473 48.7796 15.7798C43.9199 31.5079 31.5079 43.9199 15.7798 48.7796C7.86473 51.2252 1 57.7157 1 66V186C1 194.284 7.86473 200.775 15.7798 203.22C31.5079 208.08 43.9199 220.492 48.7796 236.22C51.2252 244.135 57.7157 251 66 251H186C194.284 251 200.775 244.135 203.22 236.22C208.08 220.492 220.492 208.08 236.22 203.22C244.135 200.775 251 194.284 251 186V66C251 57.7157 244.135 51.2252 236.22 48.7796C220.492 43.9199 208.08 31.5079 203.22 15.7798Z" fill="#F9F9F9" stroke="black" stroke-width="2" stroke-linejoin="round"/>
</svg>
