<svg width="252" height="252" viewBox="0 0 252 252" fill="none" xmlns="http://www.w3.org/2000/svg">
<path d="M5.3934 45.6066C2.58036 48.4196 1 52.235 1 56.2132V195.787C1 199.765 2.58035 203.58 5.3934 206.393L45.6066 246.607C48.4196 249.42 52.235 251 56.2132 251H195.787C199.765 251 203.58 249.42 206.393 246.607L246.607 206.393C249.42 203.58 251 199.765 251 195.787V56.2132C251 52.235 249.42 48.4196 246.607 45.6066L206.393 5.3934C203.58 2.58035 199.765 1 195.787 1H56.2132C52.235 1 48.4197 2.58035 45.6066 5.3934L5.3934 45.6066Z" fill="#F9F9F9" stroke="black" stroke-width="2" stroke-linejoin="round"/>
</svg>
