<svg width="252" height="246" viewBox="0 0 252 246" fill="none" xmlns="http://www.w3.org/2000/svg">
<path d="M127.902 1.25001C98.0239 0.750058 73.3357 24.2798 72.2706 54.013C43.9569 45.0485 13.5389 60.3354 3.93044 88.5894C-5.68444 116.861 9.13299 147.544 37.0757 157.68C19.8928 181.922 25.188 215.57 49.1844 233.331C73.1859 251.095 106.92 246.324 125.083 222.797C142.944 246.69 176.739 251.912 201.003 234.371C225.08 216.963 230.812 183.616 214.199 159.214C242.158 149.517 257.436 119.235 248.402 90.8751C239.448 62.7647 209.914 46.9297 181.723 54.6998C181.052 25.4705 157.396 1.74369 127.902 1.25001Z" fill="#F9F9F9" stroke="black" stroke-width="2" stroke-linejoin="round"/>
</svg>
