<svg width="252" height="252" viewBox="0 0 252 252" fill="none" xmlns="http://www.w3.org/2000/svg">
<path d="M169.574 24.0086C160.543 10.3176 145.098 1.20773 127.463 1.0035C109.685 0.797616 93.9223 9.69167 84.6044 23.3563C68.4163 19.9798 50.8959 24.5082 38.2352 36.9865C25.6649 49.3756 20.8606 66.6686 23.8666 82.8053C10.198 91.8869 1.13779 107.375 1.00156 125.021C0.86445 142.78 9.79919 158.493 23.4738 167.763C20.1674 183.955 24.7613 201.446 37.278 214.054C49.7198 226.587 67.0428 231.327 83.1762 228.251C92.3063 241.911 107.844 250.931 125.51 251C143.268 251.068 158.947 242.073 168.163 228.364C184.363 231.605 201.829 226.946 214.387 214.388C226.879 201.896 231.554 184.548 228.414 168.421C242.039 159.238 251 143.664 251 125.998C251 108.578 242.288 93.1936 228.983 83.9638C232.028 68.0692 227.494 50.9916 215.319 38.5476C202.981 25.9377 185.715 21.0694 169.574 24.0086Z" fill="#F9F9F9" stroke="black" stroke-width="2" stroke-linejoin="round"/>
</svg>
