<svg width="232" height="252" viewBox="0 0 232 252" fill="none" xmlns="http://www.w3.org/2000/svg">
<path d="M75.5232 23.7825C93.9663 -6.59418 138.033 -6.59418 156.477 23.7826L165.968 39.4151L184.246 39.822C219.763 40.6129 241.796 78.7929 224.722 109.96L215.936 126L224.722 142.04C241.796 173.207 219.763 211.387 184.246 212.178L165.968 212.585L156.477 228.217C138.033 258.594 93.9663 258.594 75.5232 228.217L66.032 212.585L47.7542 212.178C12.2372 211.387 -9.79641 173.207 7.27751 142.04L16.0641 126L7.27751 109.961C-9.79641 78.7929 12.2372 40.6129 47.7542 39.822L66.032 39.4151L75.5232 23.7825Z" fill="#F9F9F9" stroke="black" stroke-width="2" stroke-linejoin="round"/>
</svg>
