<svg width="230" height="252" viewBox="0 0 230 252" fill="none" xmlns="http://www.w3.org/2000/svg">
<path d="M76.5232 39.496C76.5232 18.2352 93.7505 1 115.001 1C136.252 1 153.48 18.2352 153.48 39.496C153.48 48.1802 162.884 53.7774 170.401 49.4287C188.837 38.763 212.426 45.0864 223.061 63.5454C233.676 81.9689 227.371 105.513 208.97 116.158C201.401 120.537 201.401 131.463 208.97 135.842C227.371 146.487 233.676 170.031 223.061 188.455C212.426 206.914 188.837 213.237 170.401 202.571C162.884 198.223 153.48 203.82 153.48 212.504C153.48 233.765 136.252 251 115.001 251C93.7505 251 76.5232 233.765 76.5232 212.504C76.5232 203.82 67.1184 198.223 59.6015 202.571C41.1655 213.237 17.5773 206.914 6.94161 188.455C-3.67364 170.031 2.63203 146.487 21.0326 135.842C28.6013 131.463 28.6013 120.537 21.0326 116.158C2.63202 105.513 -3.67363 81.9689 6.94162 63.5454C17.5773 45.0864 41.1655 38.7631 59.6015 49.4287C67.1184 53.7774 76.5232 48.1802 76.5232 39.496Z" fill="#F9F9F9" stroke="black" stroke-width="2" stroke-linejoin="round"/>
</svg>
