<svg width="228" height="252" viewBox="0 0 228 252" fill="none" xmlns="http://www.w3.org/2000/svg">
<path d="M222.253 63.5C213.095 47.6375 189.23 42.545 159.344 47.4622C148.659 19.122 132.317 1 114 1C95.6833 1 79.3406 19.122 68.656 47.4622C38.7703 42.545 14.9052 47.6375 5.74668 63.5C-3.41144 79.3625 4.1113 102.577 23.3124 126C4.1113 149.423 -3.41144 172.637 5.74668 188.5C14.9052 204.362 38.7703 209.455 68.656 204.538C79.3406 232.878 95.6833 251 114 251C132.317 251 148.659 232.878 159.344 204.538C189.23 209.455 213.095 204.363 222.253 188.5C231.411 172.638 223.889 149.423 204.688 126C223.889 102.577 231.411 79.3625 222.253 63.5Z" fill="#F9F9F9" stroke="black" stroke-width="2" stroke-linejoin="round"/>
</svg>
