<svg width="246" height="257" viewBox="0 0 246 257" fill="none" xmlns="http://www.w3.org/2000/svg">
<path fill-rule="evenodd" clip-rule="evenodd" d="M216.694 137.082L217.921 138.25L219.165 139.454L220.424 140.696L221.693 141.977L222.969 143.298L224.249 144.659L225.53 146.061L226.807 147.503L228.078 148.988L229.338 150.513L230.585 152.079L231.814 153.686L233.021 155.333L234.204 157.02L235.356 158.744L236.472 160.504L237.547 162.299L238.575 164.126L239.549 165.982L240.463 167.863L241.309 169.767L242.081 171.688L242.771 173.622L243.372 175.563L243.877 177.506L244.279 179.444L244.569 181.371L244.744 183.28L244.797 185.163L244.725 187.014L244.523 188.825L244.191 190.591L243.725 192.303L243.126 193.956L242.395 195.544L241.533 197.061L240.542 198.501L239.426 199.861L238.189 201.135L236.836 202.32L235.374 203.415L233.81 204.416L232.15 205.324L230.402 206.136L228.576 206.855L226.681 207.481L224.725 208.017L222.718 208.466L220.67 208.831L218.592 209.117L216.492 209.331L214.38 209.477L212.266 209.562L210.159 209.595L208.068 209.583L206.001 209.534L203.965 209.456L201.968 209.36L200.016 209.254L198.116 209.147L196.271 209.049L194.486 208.968L192.765 208.914L191.11 208.897L189.523 208.923L188.004 209.001L186.555 209.139L185.173 209.343L183.858 209.621L182.608 209.976L181.419 210.415L180.289 210.941L179.212 211.558L178.185 212.267L177.203 213.07L176.259 213.967L175.349 214.958L174.466 216.042L173.603 217.215L172.755 218.474L171.915 219.816L171.077 221.233L170.234 222.721L169.38 224.271L168.51 225.878L167.618 227.531L166.698 229.222L165.746 230.941L164.757 232.678L163.728 234.42L162.655 236.158L161.535 237.879L160.368 239.573L159.151 241.229L157.883 242.836L156.566 244.383L155.2 245.863L153.785 247.265L152.325 248.582L150.822 249.806L149.277 250.93L147.695 251.947L146.08 252.852L144.435 253.64L142.764 254.307L141.073 254.848L139.365 255.262L137.646 255.548L135.921 255.703L134.194 255.729L132.47 255.627L130.755 255.397L129.052 255.043L127.367 254.569L125.704 253.978L124.065 253.275L122.455 252.466L120.878 251.558L119.335 250.557L117.829 249.471L116.361 248.309L114.934 247.078L113.546 245.789L112.199 244.449L110.893 243.07L109.625 241.659L108.394 240.228L107.198 238.785L106.035 237.34L104.901 235.902L103.792 234.481L102.704 233.085L101.633 231.722L100.573 230.399L99.5208 229.124L98.4695 227.903L97.414 226.742L96.3489 225.644L95.2685 224.614L94.1673 223.655L93.0401 222.769L91.8818 221.957L90.6875 221.219L89.4529 220.555L88.1739 219.963L86.847 219.44L85.4692 218.983L84.0383 218.589L82.5523 218.252L81.0102 217.966L79.4114 217.727L77.7561 217.528L76.0451 217.362L74.2798 217.222L72.4624 217.1L70.5956 216.99L68.683 216.883L66.7282 216.772L64.7352 216.65L62.7084 216.511L60.6522 216.349L58.5711 216.157L56.4697 215.931L54.3529 215.665L52.2254 215.356L50.0916 214.999L47.9563 214.591L45.8236 214.13L43.6977 213.613L41.5824 213.039L39.4815 212.406L37.3989 211.713L35.3385 210.959L33.3042 210.143L31.3001 209.264L29.3301 208.323L27.3984 207.317L25.5091 206.249L23.6664 205.117L21.8741 203.923L20.1362 202.666L18.4565 201.348L16.8386 199.97L15.2861 198.533L13.8022 197.039L12.39 195.49L11.0527 193.887L9.79288 192.232L8.61321 190.529L7.51607 188.779L6.50364 186.986L5.57789 185.151L4.7406 183.278L3.99334 181.37L3.33745 179.429L2.77407 177.46L2.30411 175.465L1.92828 173.447L1.64704 171.411L1.46065 169.359L1.36914 167.294L1.3723 165.22L1.46969 163.141L1.66066 161.06L1.94431 158.98L2.31951 156.904L2.78491 154.837L3.33892 152.78L3.97975 150.738L4.70537 148.713L5.51355 146.708L6.40185 144.726L7.36763 142.77L8.40808 140.842L9.52022 138.946L10.7009 137.082L11.9468 135.254L13.2546 133.463L14.6208 131.711L16.0417 129.999L17.5138 128.33L19.0333 126.705L20.5967 125.124L22.2002 123.588L23.8402 122.099L25.5132 120.657L27.2154 119.262L28.9432 117.915L30.6928 116.615L32.4606 115.363L34.243 114.158L36.0367 113L37.8381 111.888L39.6438 110.822L41.4504 109.801L43.2544 108.823L45.0522 107.887L46.84 106.992L48.6139 106.136L50.3697 105.316L52.103 104.53L53.8091 103.776L55.4837 103.049L57.1226 102.348L58.7223 101.667L60.2793 101.005L61.7909 100.358L63.2544 99.7211L64.6678 99.0919L66.0294 98.4666L67.3379 97.8417L68.5922 97.2137L69.792 96.5793L70.9369 95.9351L72.0271 95.2781L73.0631 94.6051L74.0457 93.9133L74.976 93.1999L75.8552 92.4624L76.6852 91.6983L77.4676 90.9054L78.2046 90.0818L78.8985 89.2255L79.5518 88.3351L80.1671 87.4091L80.7473 86.4464L81.2952 85.4459L81.8139 84.407L82.3065 83.3292L82.7764 82.2123L83.2266 81.0561L83.6607 79.8608L84.0818 78.6269L84.4934 77.3548L84.8988 76.0455L85.3013 74.6999L85.7041 73.3191L86.1104 71.9045L86.5234 70.4576L86.9459 68.9799L87.3811 67.4732L87.8315 65.9394L88.2998 64.3803L88.7886 62.7978L89.3001 61.1941L89.8367 59.5711L90.4001 57.931L90.9925 56.2756L91.6153 54.6071L92.2703 52.9274L92.9588 51.2385L93.682 49.5424L94.4412 47.841L95.2373 46.1361L96.0713 44.4298L96.9441 42.7242L97.8564 41.0212L98.809 39.3232L99.8024 37.6322L100.837 35.9505L101.914 34.2806L103.033 32.6245L104.194 30.9843L105.397 29.3619L106.642 27.7591L107.929 26.1779L109.258 24.62L110.629 23.0876L112.04 21.5827L113.493 20.1079L114.986 18.6657L116.518 17.2594L118.09 15.8924L119.7 14.5686L121.349 13.292L123.034 12.0663L124.754 10.8952L126.509 9.78236L128.296 8.73113L130.113 7.74468L131.959 6.82602L133.831 5.97797L135.728 5.20321L137.646 4.50428L139.583 3.88359L141.537 3.34338L143.505 2.88574L145.484 2.51259L147.47 2.22567L149.462 2.0265L151.455 1.91641L153.447 1.89648L155.434 1.96756L157.414 2.13021L159.382 2.38474L161.336 2.73119L163.272 3.16928L165.188 3.69848L167.079 4.31794L168.944 5.02653L170.778 5.82284L172.58 6.70518L174.347 7.67162L176.075 8.71993L177.763 9.84771L179.408 11.0523L181.008 12.3309L182.561 13.6804L184.065 15.0977L185.519 16.5794L186.921 18.1223L188.27 19.7228L189.565 21.3773L190.805 23.0823L191.989 24.8342L193.117 26.6293L194.189 28.4641L195.203 30.3351L196.161 32.2386L197.062 34.1713L197.905 36.1297L198.692 38.1107L199.424 40.1108L200.099 42.127L200.719 44.1561L201.286 46.1951L201.799 48.241L202.26 50.291L202.669 52.3421L203.029 54.3916L203.341 56.4367L203.605 58.4749L203.825 60.5034L204 62.5203L204.134 64.5236L204.226 66.5117L204.278 68.4832L204.291 70.4369L204.267 72.3716L204.206 74.2861L204.11 76.1792L203.98 78.0496L203.819 79.8957L203.629 81.7159L203.412 83.5083L203.172 85.2708L202.912 87.0014L202.636 88.6985L202.348 90.3605L202.05 91.9861L201.746 93.5742L201.44 95.1238L201.136 96.6342L200.838 98.1048L200.548 99.5353L200.271 100.926L200.009 102.276L199.767 103.586L199.548 104.858L199.355 106.091L199.19 107.286L199.057 108.445L198.959 109.57L198.899 110.66L198.878 111.719L198.899 112.748L198.965 113.748L199.077 114.723L199.237 115.674L199.447 116.603L199.707 117.514L200.02 118.409L200.385 119.289L200.804 120.159L201.276 121.02L201.803 121.877L202.383 122.73L203.017 123.584L203.704 124.441L204.442 125.304L205.231 126.176L206.07 127.059L206.956 127.957L207.887 128.872L208.863 129.806L209.879 130.762L210.934 131.743L212.026 132.75L213.151 133.785L214.305 134.851L215.488 135.95L216.694 137.082Z" fill="#F9F9F9" stroke="black" stroke-width="2" stroke-linejoin="round"/>
</svg>
