<svg width="252" height="234" viewBox="0 0 252 234" fill="none" xmlns="http://www.w3.org/2000/svg">
<path d="M26.8859 17.8397C-2.43132 40.6618 -7.62044 82.8316 15.2957 112.029C27.6427 127.76 40.1254 142.717 52.5456 156.748C79.2901 186.961 105.745 212.883 129.93 233C153.132 211.818 178.311 184.793 203.58 153.505C215.264 139.038 226.967 123.66 238.502 107.526C260.086 77.3385 253.011 35.4416 222.699 13.9464C192.388 -7.54886 150.318 -0.502592 128.735 29.6847C127.609 31.259 126.491 32.8325 125.38 34.4049C124.083 32.7316 122.777 31.0573 121.463 29.3824C98.5466 0.185371 56.2031 -4.98248 26.8859 17.8397Z" fill="#F9F9F9" stroke="black" stroke-width="2" stroke-linejoin="round"/>
</svg>
