<svg width="252" height="231" viewBox="0 0 252 231" fill="none" xmlns="http://www.w3.org/2000/svg">
<path d="M69.1763 1C31.52 1 1 31.4312 1 68.9779C1 134.333 77.031 196.781 112.552 224.591C112.586 224.618 112.62 224.645 112.654 224.672C112.897 224.863 113.228 225.134 113.467 225.321L113.488 225.301C117.092 228.016 121.483 229.49 126 229.5C130.524 229.494 134.923 228.02 138.533 225.301V225.321C138.603 225.266 138.706 225.194 138.777 225.139C138.83 225.097 138.906 225.039 138.96 224.997C139.028 224.936 139.096 224.875 139.163 224.814C174.574 197.104 251 134.489 251 68.9779C251 31.4312 220.48 1 182.824 1C146.834 1 126 32.1591 126 32.1591C126 32.1591 105.166 1 69.1763 1Z" fill="#F9F9F9" stroke="black" stroke-width="2" stroke-linejoin="round"/>
</svg>
