<svg width="252" height="234" viewBox="0 0 252 234" fill="none" xmlns="http://www.w3.org/2000/svg">
<path fill-rule="evenodd" clip-rule="evenodd" d="M1 76.7363C1 35.1539 34.7457 1.5 76.3188 1.5C96.7859 1.5 112.581 10.3931 122.799 18.6049C123.924 19.5087 124.991 20.4118 126 21.3041C127.009 20.4118 128.076 19.5087 129.201 18.6049C139.419 10.3931 155.214 1.5 175.681 1.5C217.254 1.5 251 35.1539 251 76.7363C251 111.203 231.186 142.907 209.916 167.624C188.447 192.571 163.199 213.004 147.571 225.26C147.39 225.415 147.206 225.567 147.018 225.714C146.979 225.744 146.945 225.771 146.923 225.789L146.864 225.833L146.856 225.84C146.856 225.84 146.854 225.841 146.854 225.842C146.849 225.845 146.845 225.849 146.841 225.852C146.766 225.911 146.7 225.961 146.649 226C146.593 226.042 146.545 226.078 146.508 226.106C146.475 226.13 146.444 226.153 146.419 226.172C146.171 226.359 145.919 226.537 145.663 226.708C139.933 230.789 133.068 232.991 126.02 233L125.964 233C119.022 232.984 112.259 230.841 106.584 226.87C106.166 226.603 105.758 226.313 105.36 226.002C105.245 225.912 105.139 225.827 105.058 225.762C104.976 225.697 104.895 225.632 104.836 225.584C104.769 225.53 104.724 225.494 104.685 225.462C104.654 225.438 104.64 225.427 104.638 225.425C104.614 225.406 104.59 225.387 104.566 225.368C104.539 225.347 104.512 225.326 104.486 225.305C88.8303 213.028 63.452 192.504 41.9145 167.431C20.7139 142.751 1 111.122 1 76.7363Z" fill="#F9F9F9" stroke="black" stroke-width="2" stroke-linejoin="round"/>
</svg>
