<svg width="252" height="252" viewBox="0 0 252 252" fill="none" xmlns="http://www.w3.org/2000/svg">
<path d="M234.056 163.585L236.405 165.934C255.865 185.394 255.865 216.945 236.405 236.405C216.945 255.865 185.394 255.865 165.934 236.405L163.585 234.056C142.827 213.298 109.173 213.298 88.4153 234.056L86.0663 236.405C66.6062 255.865 35.0552 255.865 15.5951 236.405C-3.86503 216.945 -3.86501 185.394 15.5951 165.934L17.9441 163.585C38.7016 142.827 38.7015 109.173 17.9441 88.4153L15.5951 86.0663C-3.86503 66.6062 -3.86502 35.0551 15.5951 15.5951C35.0552 -3.86503 66.6062 -3.86502 86.0663 15.5951L88.4154 17.9441C109.173 38.7015 142.827 38.7015 163.585 17.9441L165.934 15.5951C185.394 -3.86502 216.945 -3.86501 236.405 15.5951C255.865 35.0552 255.865 66.6062 236.405 86.0663L234.056 88.4153C213.298 109.173 213.298 142.827 234.056 163.585Z" fill="#F9F9F9" stroke="black" stroke-width="2"/>
</svg>
