<svg width="252" height="252" viewBox="0 0 252 252" fill="none" xmlns="http://www.w3.org/2000/svg">
<path d="M90.4872 25.1689C103.197 -7.05632 148.803 -7.05632 161.513 25.1689L173.905 56.5886C177.785 66.4272 185.573 74.2151 195.411 78.0954L226.831 90.4872C259.056 103.197 259.056 148.803 226.831 161.513L195.411 173.905C185.573 177.785 177.785 185.573 173.905 195.411L161.513 226.831C148.803 259.056 103.197 259.056 90.4872 226.831L78.0954 195.411C74.2151 185.573 66.4272 177.785 56.5886 173.905L25.1689 161.513C-7.05632 148.803 -7.05632 103.197 25.1689 90.4872L56.5886 78.0954C66.4272 74.2151 74.2151 66.4272 78.0954 56.5886L90.4872 25.1689Z" fill="#F9F9F9" stroke="black" stroke-width="2" stroke-linejoin="round"/>
</svg>
