<svg width="262" height="252" viewBox="0 0 262 252" fill="none" xmlns="http://www.w3.org/2000/svg">
<path d="M98.8353 20.9935C111.992 -5.66452 150.005 -5.66449 163.162 20.9935L175.359 45.707C180.583 56.2929 190.682 63.6302 202.364 65.3277L229.637 69.2907C259.056 73.5655 270.803 109.718 249.515 130.469L229.78 149.706C221.327 157.946 217.469 169.818 219.465 181.453L224.124 208.615C229.149 237.915 198.396 260.259 172.083 246.425L147.689 233.601C137.24 228.108 124.757 228.108 114.308 233.601L89.9145 246.425C63.6014 260.259 32.8479 237.915 37.8733 208.615L42.532 181.453C44.5276 169.817 40.6702 157.946 32.2168 149.706L12.4819 130.469C-8.80575 109.718 2.94108 73.5655 32.3599 69.2907L59.6329 65.3277C71.3151 63.6302 81.414 56.2929 86.6385 45.707L98.8353 20.9935Z" fill="#F9F9F9" stroke="black" stroke-width="2" stroke-linejoin="round"/>
</svg>
