<svg width="228" height="254" viewBox="0 0 228 254" fill="none" xmlns="http://www.w3.org/2000/svg">
<path d="M87.606 15.486C100.436 -2.82865 127.563 -2.82865 140.393 15.4859L152.601 32.9136C158.064 40.7114 166.695 45.6946 176.179 46.5264L197.376 48.3854C219.652 50.339 233.215 73.8317 223.769 94.0999L214.781 113.387C210.759 122.016 210.759 131.983 214.781 140.612L223.769 159.899C233.215 180.167 219.652 203.66 197.376 205.613L176.179 207.472C166.695 208.304 158.064 213.287 152.601 221.085L140.393 238.513C127.563 256.827 100.436 256.827 87.606 238.513L75.3975 221.085C69.935 213.287 61.3039 208.304 51.8196 207.472L30.6225 205.613C8.34674 203.66 -5.21679 180.167 4.22922 159.899L13.2178 140.612C17.2396 131.983 17.2396 122.016 13.2178 113.387L4.22922 94.0999C-5.21679 73.8317 8.34673 50.339 30.6225 48.3854L51.8196 46.5264C61.3039 45.6946 69.935 40.7114 75.3975 32.9136L87.606 15.486Z" fill="#F9F9F9" stroke="black" stroke-width="2" stroke-linejoin="round"/>
</svg>
