<svg width="252" height="252" viewBox="0 0 252 252" fill="none" xmlns="http://www.w3.org/2000/svg">
<path d="M114.976 5.39089C121.159 -0.463629 130.841 -0.463631 137.024 5.39089L140.608 8.78411C145.086 13.0246 151.6 14.3203 157.361 12.1165L161.97 10.353C169.923 7.31043 178.868 11.0152 182.34 18.7904L184.352 23.2968C186.867 28.9284 192.39 32.6182 198.555 32.7866L203.488 32.9214C212 33.1539 218.846 39.9995 219.079 48.5116L219.213 53.4451C219.382 59.6104 223.072 65.1327 228.703 67.6476L233.21 69.6601C240.985 73.1323 244.69 82.0766 241.647 90.0297L239.883 94.6392C237.68 100.4 238.975 106.914 243.216 111.392L246.609 114.976C252.464 121.159 252.464 130.841 246.609 137.024L243.216 140.608C238.975 145.086 237.68 151.6 239.883 157.361L241.647 161.97C244.69 169.923 240.985 178.868 233.21 182.34L228.703 184.352C223.072 186.867 219.382 192.39 219.213 198.555L219.079 203.488C218.846 212 212 218.846 203.488 219.079L198.555 219.213C192.39 219.382 186.867 223.072 184.352 228.703L182.34 233.21C178.868 240.985 169.923 244.69 161.97 241.647L157.361 239.883C151.6 237.68 145.086 238.975 140.608 243.216L137.024 246.609C130.841 252.464 121.159 252.464 114.976 246.609L111.392 243.216C106.914 238.975 100.4 237.68 94.6392 239.883L90.0296 241.647C82.0766 244.69 73.1323 240.985 69.6601 233.21L67.6476 228.703C65.1327 223.072 59.6104 219.382 53.4451 219.213L48.5116 219.079C39.9995 218.846 33.1539 212 32.9214 203.488L32.7866 198.555C32.6182 192.39 28.9284 186.867 23.2968 184.352L18.7904 182.34C11.0153 178.868 7.31043 169.923 10.353 161.97L12.1165 157.361C14.3203 151.6 13.0246 145.086 8.78411 140.608L5.39089 137.024C-0.463629 130.841 -0.463631 121.159 5.39089 114.976L8.78411 111.392C13.0246 106.914 14.3203 100.4 12.1165 94.6392L10.353 90.0297C7.31043 82.0766 11.0153 73.1323 18.7904 69.6601L23.2968 67.6476C28.9284 65.1327 32.6182 59.6104 32.7866 53.4451L32.9214 48.5116C33.1539 39.9995 39.9995 33.1539 48.5116 32.9214L53.4451 32.7866C59.6104 32.6182 65.1327 28.9284 67.6476 23.2968L69.6601 18.7904C73.1323 11.0153 82.0766 7.31043 90.0297 10.353L94.6392 12.1165C100.4 14.3203 106.914 13.0246 111.392 8.78411L114.976 5.39089Z" fill="#F9F9F9" stroke="black" stroke-width="2" stroke-linejoin="round"/>
</svg>
