<svg width="252" height="252" viewBox="0 0 252 252" fill="none" xmlns="http://www.w3.org/2000/svg">
<path d="M251 126C251 141.415 226.399 151.879 220.888 165.297C215.137 179.195 224.882 203.875 214.419 214.419C203.955 224.882 179.195 215.137 165.297 220.888C151.879 226.479 141.495 251 126 251C110.585 251 100.121 226.399 86.7029 220.888C72.8051 215.137 48.1246 224.882 37.5815 214.419C27.1182 203.955 36.8626 179.195 31.1118 165.297C25.5208 151.879 1 141.495 1 126C1 110.585 25.6006 100.121 31.1118 86.7029C36.8626 72.8051 27.1182 48.1246 37.5815 37.5815C48.0447 27.1182 72.8051 36.8626 86.7029 31.1118C100.121 25.5208 110.505 1 126 1C141.495 1 151.879 25.6006 165.297 31.1118C179.195 36.8626 203.875 27.1182 214.419 37.5815C224.882 48.0447 215.137 72.8051 220.888 86.7029C226.399 100.201 251 110.585 251 126Z" fill="#F9F9F9" stroke="black" stroke-width="2" stroke-linejoin="round"/>
</svg>
