<svg width="252" height="252" viewBox="0 0 252 252" fill="none" xmlns="http://www.w3.org/2000/svg">
<path d="M116.119 4.72579C121.77 -0.241929 130.23 -0.24193 135.881 4.72579L141.335 9.52048L147.844 6.30073C154.588 2.9648 162.76 5.15452 166.932 11.4155L170.959 17.4584L178.08 16.033C185.457 14.5562 192.784 18.7864 195.194 25.9139L197.52 32.7932L204.767 33.2593C212.275 33.7422 218.258 39.7247 218.741 47.233L219.207 54.4799L226.086 56.8058C233.214 59.2155 237.444 66.5425 235.967 73.92L234.542 81.0406L240.585 85.0677C246.845 89.2401 249.035 97.4123 245.699 104.156L242.48 110.665L247.274 116.119C252.242 121.77 252.242 130.23 247.274 135.881L242.48 141.335L245.699 147.844C249.035 154.588 246.845 162.76 240.585 166.932L234.542 170.959L235.967 178.08C237.444 185.457 233.214 192.784 226.086 195.194L219.207 197.52L218.741 204.767C218.258 212.275 212.275 218.258 204.767 218.741L197.52 219.207L195.194 226.086C192.784 233.214 185.457 237.444 178.08 235.967L170.959 234.542L166.932 240.585C162.76 246.845 154.588 249.035 147.844 245.699L141.335 242.48L135.881 247.274C130.23 252.242 121.77 252.242 116.119 247.274L110.665 242.48L104.156 245.699C97.4123 249.035 89.2401 246.845 85.0677 240.585L81.0406 234.542L73.92 235.967C66.5425 237.444 59.2155 233.214 56.8058 226.086L54.4799 219.207L47.2331 218.741C39.7247 218.258 33.7422 212.275 33.2593 204.767L32.7932 197.52L25.9139 195.194C18.7864 192.784 14.5562 185.457 16.033 178.08L17.4584 170.959L11.4155 166.932C5.15453 162.76 2.9648 154.588 6.30073 147.844L9.52048 141.335L4.72579 135.881C-0.241929 130.23 -0.24193 121.77 4.72579 116.119L9.52048 110.665L6.30073 104.156C2.9648 97.4123 5.15452 89.2401 11.4155 85.0677L17.4584 81.0406L16.033 73.92C14.5562 66.5425 18.7864 59.2155 25.9139 56.8058L32.7932 54.4799L33.2593 47.2331C33.7422 39.7247 39.7247 33.7422 47.2331 33.2593L54.4799 32.7932L56.8058 25.9139C59.2155 18.7864 66.5425 14.5562 73.92 16.033L81.0406 17.4584L85.0677 11.4155C89.2401 5.15453 97.4123 2.9648 104.156 6.30073L110.665 9.52048L116.119 4.72579Z" fill="#F9F9F9" stroke="black" stroke-width="2" stroke-linejoin="round"/>
</svg>
