<svg width="252" height="252" viewBox="0 0 252 252" fill="none" xmlns="http://www.w3.org/2000/svg">
<path fill-rule="evenodd" clip-rule="evenodd" d="M191.506 126C227.205 114.116 251 92.8084 251 68.5C251 31.2208 195.036 1 126 1C56.9644 1 1 31.2208 1 68.5C1 92.8084 24.7952 114.116 60.4937 126C24.7952 137.884 1 159.192 1 183.5C1 220.779 56.9644 251 126 251C195.036 251 251 220.779 251 183.5C251 159.192 227.205 137.884 191.506 126Z" fill="#F9F9F9"/>
<path d="M191.506 126L191.19 125.051L188.34 126L191.19 126.949L191.506 126ZM60.4937 126L60.8096 126.949L63.6596 126L60.8096 125.051L60.4937 126ZM250 68.5C250 80.3042 244.226 91.4618 233.953 101.183C223.676 110.907 208.943 119.141 191.19 125.051L191.822 126.949C209.768 120.974 224.782 112.613 235.327 102.635C245.876 92.6544 252 81.0042 252 68.5H250ZM126 2C160.385 2 191.465 9.52828 213.913 21.6502C236.401 33.7938 250 50.4031 250 68.5H252C252 49.3177 237.617 32.177 214.863 19.8904C192.07 7.58211 160.651 0 126 0V2ZM2 68.5C2 50.4031 15.5987 33.7938 38.0868 21.6502C60.5348 9.52828 91.615 2 126 2V0C91.3494 0 59.9296 7.58211 37.1365 19.8904C14.3835 32.177 0 49.3177 0 68.5H2ZM60.8096 125.051C43.0569 119.141 28.3242 110.907 18.0472 101.183C7.7736 91.4618 2 80.3042 2 68.5H0C0 81.0042 6.12403 92.6544 16.6726 102.635C27.2179 112.613 42.232 120.974 60.1778 126.949L60.8096 125.051ZM2 183.5C2 171.696 7.7736 160.538 18.0472 150.817C28.3242 141.093 43.0569 132.859 60.8096 126.949L60.1778 125.051C42.232 131.026 27.2179 139.387 16.6726 149.365C6.12403 159.346 0 170.996 0 183.5H2ZM126 250C91.615 250 60.5348 242.472 38.0868 230.35C15.5987 218.206 2 201.597 2 183.5H0C0 202.682 14.3835 219.823 37.1365 232.11C59.9296 244.418 91.3494 252 126 252V250ZM250 183.5C250 201.597 236.401 218.206 213.913 230.35C191.465 242.472 160.385 250 126 250V252C160.651 252 192.07 244.418 214.863 232.11C237.617 219.823 252 202.682 252 183.5H250ZM191.19 126.949C208.943 132.859 223.676 141.093 233.953 150.817C244.226 160.538 250 171.696 250 183.5H252C252 170.996 245.876 159.346 235.327 149.365C224.782 139.387 209.768 131.026 191.822 125.051L191.19 126.949Z" fill="black"/>
</svg>
