<svg width="252" height="252" viewBox="0 0 252 252" fill="none" xmlns="http://www.w3.org/2000/svg">
<path fill-rule="evenodd" clip-rule="evenodd" d="M219.171 126C238.964 112.731 251 95.2089 251 76C251 34.5786 195.036 1 126 1C56.9644 1 1 34.5786 1 76C1 95.2089 13.0356 112.731 32.8289 126C13.0356 139.269 1 156.791 1 176C1 217.421 56.9644 251 126 251C195.036 251 251 217.421 251 176C251 156.791 238.964 139.269 219.171 126Z" fill="#F9F9F9"/>
<path d="M219.171 126L218.614 125.169L217.375 126L218.614 126.831L219.171 126ZM32.8289 126L33.3857 126.831L34.6248 126L33.3857 125.169L32.8289 126ZM250 76C250 94.7561 238.247 112.008 218.614 125.169L219.728 126.831C239.682 113.454 252 95.6616 252 76H250ZM126 2C160.368 2 191.433 10.3602 213.874 23.8245C236.334 37.3007 250 55.7786 250 76H252C252 54.8001 237.684 35.778 214.903 22.1095C192.102 8.42909 160.668 0 126 0V2ZM2 76C2 55.7786 15.6658 37.3007 38.1261 23.8245C60.5666 10.3602 91.6323 2 126 2V0C91.3321 0 59.8978 8.42909 37.0972 22.1095C14.3164 35.778 0 54.8001 0 76H2ZM33.3857 125.169C13.7529 112.008 2 94.7561 2 76H0C0 95.6616 12.3183 113.454 32.2721 126.831L33.3857 125.169ZM2 176C2 157.244 13.7529 139.992 33.3857 126.831L32.2721 125.169C12.3183 138.546 0 156.338 0 176H2ZM126 250C91.6323 250 60.5666 241.64 38.1261 228.176C15.6658 214.699 2 196.221 2 176H0C0 197.2 14.3164 216.222 37.0972 229.891C59.8978 243.571 91.3321 252 126 252V250ZM250 176C250 196.221 236.334 214.699 213.874 228.176C191.433 241.64 160.368 250 126 250V252C160.668 252 192.102 243.571 214.903 229.891C237.684 216.222 252 197.2 252 176H250ZM218.614 126.831C238.247 139.992 250 157.244 250 176H252C252 156.338 239.682 138.546 219.728 125.169L218.614 126.831Z" fill="black"/>
</svg>
