<svg width="252" height="252" viewBox="0 0 252 252" fill="none" xmlns="http://www.w3.org/2000/svg">
<path fill-rule="evenodd" clip-rule="evenodd" d="M251 63.5C251 74.884 244.913 85.5571 234.277 94.75C244.913 103.943 251 114.616 251 126C251 137.384 244.913 148.057 234.277 157.25C244.913 166.443 251 177.116 251 188.5C251 223.018 195.036 251 126 251C56.9644 251 1 223.018 1 188.5C1 177.116 7.08714 166.443 17.7228 157.25C7.08714 148.057 1 137.384 1 126C1 114.616 7.08714 103.943 17.7228 94.75C7.08714 85.5571 1 74.884 1 63.5C1 28.9822 56.9644 1 126 1C195.036 1 251 28.9822 251 63.5Z" fill="#F9F9F9"/>
<path d="M234.277 94.75L233.623 93.9934L232.748 94.75L233.623 95.5066L234.277 94.75ZM234.277 157.25L233.623 156.493L232.748 157.25L233.623 158.007L234.277 157.25ZM17.7228 157.25L18.3767 158.007L19.252 157.25L18.3767 156.493L17.7228 157.25ZM17.7228 94.75L18.3767 95.5066L19.252 94.75L18.3767 93.9934L17.7228 94.75ZM234.931 95.5066C245.704 86.1951 252 75.2683 252 63.5H250C250 74.4997 244.122 84.9191 233.623 93.9934L234.931 95.5066ZM252 126C252 114.232 245.704 103.305 234.931 93.9934L233.623 95.5066C244.122 104.581 250 115 250 126H252ZM234.931 158.007C245.704 148.695 252 137.768 252 126H250C250 137 244.122 147.419 233.623 156.493L234.931 158.007ZM233.623 158.007C244.122 167.081 250 177.5 250 188.5H252C252 176.732 245.704 165.805 234.931 156.493L233.623 158.007ZM250 188.5C250 205.176 236.455 220.543 213.941 231.8C191.487 243.027 160.396 250 126 250V252C160.639 252 192.049 244.982 214.836 233.589C237.562 222.225 252 206.342 252 188.5H250ZM126 250C91.6038 250 60.5133 243.027 38.0589 231.8C15.5446 220.543 2 205.176 2 188.5H0C0 206.342 14.4376 222.225 37.1644 233.589C59.9511 244.982 91.3606 252 126 252V250ZM2 188.5C2 177.5 7.87823 167.081 18.3767 158.007L17.0688 156.493C6.29606 165.805 0 176.732 0 188.5H2ZM0 126C0 137.768 6.29606 148.695 17.0688 158.007L18.3767 156.493C7.87823 147.419 2 137 2 126H0ZM17.0688 93.9934C6.29605 103.305 0 114.232 0 126H2C2 115 7.87823 104.581 18.3767 95.5066L17.0688 93.9934ZM0 63.5C0 75.2683 6.29605 86.1951 17.0688 95.5066L18.3767 93.9934C7.87823 84.9191 2 74.4997 2 63.5H0ZM126 0C91.3606 0 59.9511 7.01806 37.1644 18.4114C14.4376 29.7748 0 45.6583 0 63.5H2C2 46.8239 15.5446 31.4574 38.0589 20.2003C60.5133 8.97304 91.6038 2 126 2V0ZM252 63.5C252 45.6583 237.562 29.7748 214.836 18.4114C192.049 7.01806 160.639 0 126 0V2C160.396 2 191.487 8.97304 213.941 20.2003C236.455 31.4574 250 46.8239 250 63.5H252Z" fill="black"/>
</svg>
