<svg width="252" height="252" viewBox="0 0 252 252" fill="none" xmlns="http://www.w3.org/2000/svg">
<path fill-rule="evenodd" clip-rule="evenodd" d="M76 1C95.2089 1 112.731 8.22134 126 20.0973C139.269 8.22134 156.791 1 176 1C217.421 1 251 34.5786 251 76C251 95.2089 243.779 112.731 231.903 126C243.779 139.269 251 156.791 251 176C251 217.421 217.421 251 176 251C156.791 251 139.269 243.779 126 231.903C112.731 243.779 95.2089 251 76 251C34.5786 251 1 217.421 1 176C1 156.791 8.22134 139.269 20.0973 126C8.22134 112.731 1 95.2089 1 76C1 34.5786 34.5786 1 76 1Z" fill="#F9F9F9"/>
<path d="M126 20.0973L125.333 20.8425L126 21.4394L126.667 20.8425L126 20.0973ZM231.903 126L231.158 125.333L230.561 126L231.158 126.667L231.903 126ZM126 231.903L126.667 231.158L126 230.561L125.333 231.158L126 231.903ZM20.0973 126L20.8425 126.667L21.4394 126L20.8425 125.333L20.0973 126ZM126.667 19.3522C113.222 7.31845 95.4643 0 76 0V2C94.9534 2 112.24 9.12423 125.333 20.8425L126.667 19.3522ZM176 0C156.536 0 138.778 7.31845 125.333 19.3522L126.667 20.8425C139.76 9.12423 157.047 2 176 2V0ZM252 76C252 34.0264 217.974 0 176 0V2C216.869 2 250 35.1309 250 76H252ZM232.648 126.667C244.682 113.222 252 95.4643 252 76H250C250 94.9534 242.876 112.24 231.158 125.333L232.648 126.667ZM231.158 126.667C242.876 139.76 250 157.047 250 176H252C252 156.536 244.682 138.778 232.648 125.333L231.158 126.667ZM250 176C250 216.869 216.869 250 176 250V252C217.974 252 252 217.974 252 176H250ZM176 250C157.047 250 139.76 242.876 126.667 231.158L125.333 232.648C138.778 244.682 156.536 252 176 252V250ZM76 252C95.4643 252 113.222 244.682 126.667 232.648L125.333 231.158C112.24 242.876 94.9534 250 76 250V252ZM0 176C0 217.974 34.0264 252 76 252V250C35.1309 250 2 216.869 2 176H0ZM19.3522 125.333C7.31845 138.778 0 156.536 0 176H2C2 157.047 9.12423 139.76 20.8425 126.667L19.3522 125.333ZM0 76C0 95.4643 7.31845 113.222 19.3522 126.667L20.8425 125.333C9.12423 112.24 2 94.9534 2 76H0ZM76 0C34.0264 0 0 34.0264 0 76H2C2 35.1309 35.1309 2 76 2V0Z" fill="black"/>
</svg>
