<svg width="252" height="252" viewBox="0 0 252 252" fill="none" xmlns="http://www.w3.org/2000/svg">
<path fill-rule="evenodd" clip-rule="evenodd" d="M76 1C34.5786 1 1 34.5786 1 76V176C1 217.421 34.5786 251 76 251C95.2089 251 112.731 243.779 126 231.903C139.269 243.779 156.791 251 176 251C217.421 251 251 217.421 251 176V76C251 34.5786 217.421 1 176 1C156.791 1 139.269 8.22134 126 20.0973C112.731 8.22134 95.2089 1 76 1Z" fill="#F9F9F9"/>
<path d="M126 231.903L126.667 231.158L126 230.561L125.333 231.158L126 231.903ZM126 20.0973L125.333 20.8425L126 21.4394L126.667 20.8425L126 20.0973ZM2 76C2 35.1309 35.1309 2 76 2V0C34.0264 0 0 34.0264 0 76H2ZM2 176V76H0V176H2ZM76 250C35.1309 250 2 216.869 2 176H0C0 217.974 34.0264 252 76 252V250ZM125.333 231.158C112.24 242.876 94.9534 250 76 250V252C95.4643 252 113.222 244.682 126.667 232.648L125.333 231.158ZM176 250C157.047 250 139.76 242.876 126.667 231.158L125.333 232.648C138.778 244.682 156.536 252 176 252V250ZM250 176C250 216.869 216.869 250 176 250V252C217.974 252 252 217.974 252 176H250ZM250 76V176H252V76H250ZM176 2C216.869 2 250 35.1309 250 76H252C252 34.0264 217.974 0 176 0V2ZM126.667 20.8425C139.76 9.12423 157.047 2 176 2V0C156.536 0 138.778 7.31845 125.333 19.3522L126.667 20.8425ZM76 2C94.9534 2 112.24 9.12423 125.333 20.8425L126.667 19.3522C113.222 7.31845 95.4643 0 76 0V2Z" fill="black"/>
</svg>
