<svg width="252" height="252" viewBox="0 0 252 252" fill="none" xmlns="http://www.w3.org/2000/svg">
<path fill-rule="evenodd" clip-rule="evenodd" d="M1 51C1 23.3858 23.3858 1 51 1C65.9337 1 79.3382 7.54694 88.5 17.9272C97.6618 7.54694 111.066 1 126 1C140.934 1 154.338 7.54694 163.5 17.9272C172.662 7.54694 186.066 1 201 1C228.614 1 251 23.3858 251 51V201C251 228.614 228.614 251 201 251C186.066 251 172.662 244.453 163.5 234.073C154.338 244.453 140.934 251 126 251C111.066 251 97.6618 244.453 88.5 234.073C79.3382 244.453 65.9337 251 51 251C23.3858 251 1 228.614 1 201V51Z" fill="#F9F9F9"/>
<path d="M88.5 17.9272L87.7503 18.5889L88.5 19.4384L89.2497 18.5889L88.5 17.9272ZM163.5 17.9272L162.75 18.5889L163.5 19.4384L164.25 18.5889L163.5 17.9272ZM163.5 234.073L164.25 233.411L163.5 232.562L162.75 233.411L163.5 234.073ZM88.5 234.073L89.2497 233.411L88.5 232.562L87.7503 233.411L88.5 234.073ZM51 0C22.8335 0 0 22.8335 0 51H2C2 23.938 23.938 2 51 2V0ZM89.2497 17.2655C79.9062 6.67926 66.2325 0 51 0V2C65.6348 2 78.7702 8.41462 87.7503 18.5889L89.2497 17.2655ZM126 0C110.768 0 97.0938 6.67926 87.7503 17.2655L89.2497 18.5889C98.2298 8.41462 111.365 2 126 2V0ZM164.25 17.2655C154.906 6.67925 141.232 0 126 0V2C140.635 2 153.77 8.41462 162.75 18.5889L164.25 17.2655ZM164.25 18.5889C173.23 8.41462 186.365 2 201 2V0C185.768 0 172.094 6.67925 162.75 17.2655L164.25 18.5889ZM201 2C228.062 2 250 23.938 250 51H252C252 22.8335 229.167 0 201 0V2ZM250 51V201H252V51H250ZM250 201C250 228.062 228.062 250 201 250V252C229.167 252 252 229.167 252 201H250ZM201 250C186.365 250 173.23 243.585 164.25 233.411L162.75 234.735C172.094 245.321 185.768 252 201 252V250ZM126 252C141.232 252 154.906 245.321 164.25 234.735L162.75 233.411C153.77 243.585 140.635 250 126 250V252ZM87.7503 234.735C97.0938 245.321 110.768 252 126 252V250C111.365 250 98.2298 243.585 89.2497 233.411L87.7503 234.735ZM51 252C66.2325 252 79.9062 245.321 89.2497 234.735L87.7503 233.411C78.7702 243.585 65.6348 250 51 250V252ZM0 201C0 229.167 22.8335 252 51 252V250C23.938 250 2 228.062 2 201H0ZM0 51V201H2V51H0Z" fill="black"/>
</svg>
