<svg width="251" height="251" viewBox="0 0 251 251" fill="none" xmlns="http://www.w3.org/2000/svg">
<path d="M9.275 40.3792C-1.75833 51.4126 -1.75833 58.9128 9.27499 69.9461L29.8446 90.5157L9.275 111.085C-1.75833 122.119 -1.75833 129.619 9.27499 140.652L29.8446 161.222L9.275 181.791C-1.75833 192.825 -1.75833 200.325 9.27499 211.358L39.641 241.724C50.6743 252.757 58.1745 252.757 69.2078 241.724L89.7775 221.154L110.347 241.724C121.381 252.757 128.881 252.757 139.914 241.724L160.484 221.154L181.053 241.724C192.087 252.757 199.587 252.757 210.62 241.724L240.986 211.358C252.02 200.325 252.02 192.825 240.986 181.791L220.417 161.222L240.986 140.652C252.02 129.619 252.02 122.119 240.986 111.085L220.417 90.5157L240.986 69.9461C252.02 58.9128 252.02 51.4126 240.986 40.3792L210.62 10.0133C199.587 -1.02005 192.087 -1.02005 181.053 10.0133L160.484 30.583L139.914 10.0133C128.881 -1.02005 121.381 -1.02005 110.347 10.0133L89.7775 30.583L69.2078 10.0133C58.1745 -1.02005 50.6743 -1.02005 39.641 10.0133L9.275 40.3792Z" fill="#F9F9F9" stroke="black" stroke-width="2" stroke-linejoin="round"/>
</svg>
