<svg width="253" height="253" viewBox="0 0 253 253" fill="none" xmlns="http://www.w3.org/2000/svg">
<path d="M1.9082 22.3681C1.9082 7.02681 7.12252 1.8125 22.4638 1.8125H64.686C80.0272 1.8125 85.2415 7.02681 85.2415 22.3681C85.2415 7.02681 90.4559 1.8125 105.797 1.8125H148.019C163.361 1.8125 168.575 7.02681 168.575 22.3681C168.575 7.02681 173.789 1.8125 189.13 1.8125H231.353C246.694 1.8125 251.908 7.02681 251.908 22.3681V64.5903C251.908 79.9315 246.694 85.1458 231.353 85.1458C246.694 85.1458 251.908 90.3602 251.908 105.701V147.924C251.908 163.265 246.694 168.479 231.353 168.479C246.694 168.479 251.908 173.693 251.908 189.035V231.257C251.908 246.598 246.694 251.812 231.353 251.812H189.13C173.789 251.812 168.575 246.598 168.575 231.257C168.575 246.598 163.361 251.812 148.019 251.812H105.797C90.4559 251.812 85.2415 246.598 85.2415 231.257C85.2415 246.598 80.0272 251.812 64.686 251.812H22.4638C7.12251 251.812 1.9082 246.598 1.9082 231.257V189.035C1.9082 173.693 7.12252 168.479 22.4638 168.479C7.12251 168.479 1.9082 163.265 1.9082 147.924V105.701C1.9082 90.3602 7.12252 85.1458 22.4638 85.1458C7.12251 85.1458 1.9082 79.9315 1.9082 64.5903V22.3681Z" fill="#F9F9F9" stroke="black" stroke-width="2" stroke-linejoin="round"/>
</svg>
