<svg width="260" height="259" viewBox="0 0 260 259" fill="none" xmlns="http://www.w3.org/2000/svg">
<path d="M13.4372 71.8919C-2.23168 85.219 -2.23168 100.829 13.4372 114.156L27.9108 126.466C29.1596 127.529 30.3989 128.601 31.6286 129.685C30.3989 130.769 29.1596 131.841 27.9108 132.904L13.4372 145.214C-2.23168 158.541 -2.23168 174.151 13.4372 187.478L27.9108 199.789C39.4148 209.573 50.1111 220.27 59.8958 231.774L72.2063 246.247C85.5334 261.916 101.143 261.916 114.47 246.247L126.781 231.774C127.843 230.525 128.916 229.286 129.999 228.056C131.083 229.286 132.156 230.525 133.218 231.774L145.529 246.247C158.856 261.916 174.465 261.916 187.793 246.247L200.103 231.774C209.888 220.27 220.584 209.573 232.088 199.789L246.562 187.478C262.231 174.151 262.231 158.541 246.562 145.214L232.088 132.904C230.839 131.841 229.6 130.769 228.37 129.685C229.6 128.601 230.839 127.529 232.088 126.466L246.562 114.156C262.231 100.829 262.231 85.219 246.562 71.8919L232.088 59.5814C220.584 49.7967 209.888 39.1004 200.103 27.5964L187.793 13.1228C174.465 -2.54613 158.856 -2.54613 145.529 13.1228L133.218 27.5964C132.156 28.8452 131.083 30.0845 129.999 31.3141C128.916 30.0845 127.843 28.8452 126.781 27.5964L114.47 13.1228C101.143 -2.54613 85.5334 -2.54613 72.2063 13.1228L59.8958 27.5964C50.1111 39.1004 39.4148 49.7967 27.9108 59.5814L13.4372 71.8919Z" fill="#F9F9F9" stroke="black" stroke-width="2" stroke-linejoin="round"/>
</svg>
