<svg width="252" height="252" viewBox="0 0 252 252" fill="none" xmlns="http://www.w3.org/2000/svg">
<path d="M49.1001 1.148C21.7542 -1.06048 -1.06049 21.7542 1.148 49.1001L3.188 74.3598C4.80945 94.4369 4.80946 114.612 3.18801 134.689L1.148 159.949C-0.920913 185.567 18.9705 207.208 43.9749 208.025C44.7923 233.029 66.4334 252.921 92.051 250.852L117.311 248.812C137.388 247.191 157.563 247.191 177.64 248.812L202.9 250.852C230.246 253.06 253.06 230.246 250.852 202.9L248.812 177.64C247.191 157.563 247.191 137.388 248.812 117.311L250.852 92.051C252.921 66.4334 233.029 44.7923 208.025 43.9749C207.208 18.9705 185.567 -0.920914 159.949 1.148L134.689 3.18801C114.612 4.80946 94.4369 4.80946 74.3598 3.18801L49.1001 1.148Z" fill="#F9F9F9" stroke="black" stroke-width="2" stroke-linejoin="round"/>
</svg>
