<svg width="252" height="252" viewBox="0 0 252 252" fill="none" xmlns="http://www.w3.org/2000/svg">
<path fill-rule="evenodd" clip-rule="evenodd" d="M47.9594 251C64.2206 251 78.5514 242.735 86.9797 230.176C95.408 242.735 109.739 251 126 251C142.261 251 156.592 242.735 165.02 230.176C173.449 242.735 187.779 251 204.041 251C229.976 251 251 229.976 251 204.041C251 187.779 242.735 173.449 230.176 165.02C242.735 156.592 251 142.261 251 126C251 109.739 242.735 95.408 230.176 86.9797C242.735 78.5514 251 64.2206 251 47.9594C251 22.0244 229.976 1 204.041 1C187.779 1 173.449 9.26535 165.02 21.8241C156.592 9.26535 142.261 1 126 1C109.739 1 95.408 9.26535 86.9797 21.8241C78.5514 9.26535 64.2206 1 47.9594 1C22.0244 1 1 22.0244 1 47.9594C1 64.2206 9.26535 78.5514 21.8241 86.9797C9.26535 95.408 1 109.739 1 126C1 142.261 9.26535 156.592 21.8241 165.02C9.26535 173.449 1 187.779 1 204.041C1 229.976 22.0244 251 47.9594 251Z" fill="#F9F9F9" stroke="black" stroke-width="2" stroke-linejoin="round"/>
</svg>
