<svg width="252" height="252" viewBox="0 0 252 252" fill="none" xmlns="http://www.w3.org/2000/svg">
<path d="M41 1C52.0283 1 62.0141 5.46304 69.25 12.6815C76.4859 5.46304 86.4717 1 97.5 1C108.528 1 118.514 5.46304 125.75 12.6815C132.986 5.46304 142.972 1 154 1C165.028 1 175.014 5.46304 182.25 12.6815C189.486 5.46304 199.472 1 210.5 1C232.591 1 250.5 18.9086 250.5 41C250.5 52.0283 246.037 62.0141 238.818 69.25C246.037 76.4859 250.5 86.4717 250.5 97.5C250.5 108.528 246.037 118.514 238.818 125.75C246.037 132.986 250.5 142.972 250.5 154C250.5 165.028 246.037 175.014 238.818 182.25C246.037 189.486 250.5 199.472 250.5 210.5C250.5 232.591 232.591 250.5 210.5 250.5C199.472 250.5 189.486 246.037 182.25 238.818C175.014 246.037 165.028 250.5 154 250.5C142.972 250.5 132.986 246.037 125.75 238.818C118.514 246.037 108.528 250.5 97.5 250.5C86.4717 250.5 76.4859 246.037 69.25 238.818C62.0141 246.037 52.0283 250.5 41 250.5C18.9086 250.5 1 232.591 1 210.5C1 199.472 5.46304 189.486 12.6815 182.25C5.46304 175.014 1 165.028 1 154C1 142.972 5.46304 132.986 12.6815 125.75C5.46304 118.514 1 108.528 1 97.5C1 86.4717 5.46304 76.4859 12.6815 69.25C5.46304 62.0141 1 52.0283 1 41C1 18.9086 18.9086 1 41 1Z" fill="#F9F9F9" stroke="black" stroke-width="2" stroke-linejoin="round"/>
</svg>
