<svg width="252" height="252" viewBox="0 0 252 252" fill="none" xmlns="http://www.w3.org/2000/svg">
<path d="M177.257 12.7474C197.506 21.7025 216.15 34.5703 229.064 52.6683C242.018 70.8222 248.226 92.7895 250.265 115.06C252.301 137.304 250.413 160.132 240.74 180.228C231.169 200.112 214.496 215.305 196.173 227.437C178.28 239.284 158.014 246.168 136.8 249.047C114.989 252.007 92.5373 252.447 72.0743 244.279C51.0762 235.897 32.6596 221.279 19.9958 202.423C7.4666 183.767 2.37177 161.243 1.19502 138.743C0.0484392 116.819 3.93985 94.9742 13.3406 75.1727C22.6484 55.5671 37.1104 39.1468 54.546 26.3664C72.1032 13.4968 92.092 4.02714 113.667 1.63264C135.421 -0.781739 157.214 3.88324 177.257 12.7474Z" fill="#F9F9F9" stroke="black" stroke-width="2" stroke-linejoin="round"/>
</svg>
