<svg width="252" height="252" viewBox="0 0 252 252" fill="none" xmlns="http://www.w3.org/2000/svg">
<path fill-rule="evenodd" clip-rule="evenodd" d="M249.457 118.857L249.082 121.056L248.67 123.246L248.221 125.424L247.737 127.592L247.219 129.748L246.666 131.892L246.079 134.023L245.46 136.141L244.809 138.246L244.126 140.337L243.412 142.414L242.668 144.477L241.893 146.524L241.089 148.557L240.255 150.574L239.393 152.575L238.501 154.56L237.582 156.529L236.634 158.481L235.659 160.415L234.657 162.332L233.628 164.232L232.572 166.113L231.489 167.976L230.381 169.82L229.247 171.645L228.087 173.451L226.903 175.238L225.695 177.004L224.462 178.751L223.206 180.477L221.926 182.183L220.625 183.869L219.301 185.534L217.957 187.178L216.592 188.802L215.207 190.405L213.804 191.988L212.382 193.55L210.943 195.092L209.488 196.614L208.017 198.117L206.531 199.601L205.032 201.066L203.519 202.512L201.993 203.94L200.455 205.35L198.905 206.743L197.343 208.118L195.771 209.476L194.188 210.818L192.594 212.143L190.99 213.452L189.376 214.745L187.752 216.023L186.119 217.284L184.475 218.53L182.821 219.76L181.158 220.975L179.484 222.174L177.8 223.358L176.106 224.525L174.402 225.677L172.686 226.813L170.96 227.932L169.223 229.034L167.474 230.12L165.713 231.187L163.941 232.237L162.157 233.268L160.361 234.281L158.552 235.273L156.731 236.246L154.896 237.197L153.049 238.126L151.189 239.033L149.315 239.915L147.428 240.773L145.527 241.605L143.613 242.41L141.685 243.187L139.744 243.934L137.789 244.65L135.822 245.335L133.841 245.986L131.848 246.603L129.843 247.185L127.827 247.729L125.799 248.236L123.761 248.703L121.714 249.13L119.658 249.516L117.594 249.859L115.523 250.159L113.446 250.414L111.363 250.625L109.278 250.789L107.189 250.907L105.099 250.977L103.009 251L100.92 250.974L98.833 250.9L96.7501 250.777L94.6724 250.604L92.6014 250.382L90.5383 250.11L88.4847 249.789L86.4421 249.418L84.4118 248.998L82.3954 248.528L80.3942 248.01L78.4098 247.443L76.4435 246.829L74.4968 246.166L72.5711 245.457L70.6677 244.701L68.788 243.9L66.9332 243.054L65.1045 242.165L63.3032 241.233L61.5304 240.261L59.787 239.249L58.0741 238.198L56.3926 237.111L54.7433 235.988L53.1269 234.832L51.5441 233.643L49.9954 232.424L48.4814 231.177L47.0023 229.903L45.5584 228.604L44.15 227.282L42.7772 225.939L41.4398 224.576L40.1379 223.196L38.8713 221.8L37.6396 220.391L36.4425 218.969L35.2796 217.537L34.1502 216.097L33.0539 214.65L31.9898 213.199L30.9573 211.743L29.9555 210.286L28.9836 208.829L28.0407 207.372L27.1258 205.918L26.2382 204.466L25.3769 203.019L24.5412 201.577L23.7302 200.141L22.9431 198.711L22.179 197.288L21.4374 195.872L20.7175 194.464L20.0187 193.063L19.3402 191.671L18.6815 190.287L18.0421 188.912L17.4214 187.545L16.819 186.186L16.2345 184.836L15.6674 183.494L15.1173 182.16L14.5839 180.834L14.0669 179.516L13.566 178.206L13.0808 176.903L12.6112 175.608L12.1569 174.32L11.7175 173.04L11.2929 171.767L10.8829 170.5L10.4871 169.24L10.1053 167.987L9.7372 166.741L9.38256 165.501L9.04103 164.268L8.71229 163.041L8.39598 161.82L8.09173 160.606L7.79912 159.398L7.5177 158.196L7.24701 157L6.98654 155.811L6.73578 154.627L6.49419 153.45L6.26128 152.279L6.03652 151.114L5.81941 149.954L5.60947 148.8L5.40622 147.652L5.20921 146.509L5.01799 145.372L4.83216 144.239L4.65132 143.111L4.47512 141.988L4.30324 140.868L4.13536 139.753L3.97125 138.641L3.81066 137.533L3.65341 136.427L3.49936 135.324L3.34839 134.223L3.20043 133.125L3.05546 132.027L2.91349 130.931L2.77456 129.836L2.63876 128.742L2.50622 127.647L2.3771 126.552L2.25161 125.457L2.12995 124.361L2.01241 123.264L1.89925 122.165L1.7908 121.064L1.6874 119.962L1.58941 118.857L1.49725 117.749L1.41134 116.639L1.33215 115.526L1.26015 114.409L1.19584 113.29L1.13972 112.167L1.09231 111.04L1.05412 109.91L1.02567 108.777L1.00746 107.639L1 106.498L1.00379 105.354L1.0193 104.206L1.04701 103.054L1.08738 101.898L1.14085 100.74L1.20784 99.5777L1.28876 98.4126L1.38401 97.2443L1.49397 96.0732L1.619 94.8993L1.75947 93.7229L1.91571 92.5441L2.08807 91.3631L2.27688 90.1802L2.48246 88.9955L2.70514 87.8093L2.94526 86.6219L3.20316 85.4336L3.47917 84.2447L3.77367 83.0555L4.08701 81.8663L4.41959 80.6776L4.77182 79.4898L5.14413 78.3034L5.53698 77.1188L5.95085 75.9366L6.38626 74.7575L6.84375 73.582L7.32388 72.4111L7.82717 71.2453L8.3541 70.0855L8.90507 68.9324L9.48042 67.7869L10.0804 66.6497L10.7053 65.5216L11.3552 64.4033L12.0303 63.2957L12.7304 62.1994L13.4557 61.1152L14.206 60.0438L14.9811 58.9858L15.7809 57.9419L16.605 56.9128L17.4532 55.8989L18.325 54.9008L19.2201 53.919L20.138 52.954L21.0782 52.0062L22.0401 51.0758L23.0231 50.1633L24.0267 49.2689L25.0502 48.3927L26.0929 47.535L27.1541 46.6957L28.2332 45.875L29.3294 45.0728L30.442 44.2891L31.5704 43.5237L32.7136 42.7765L33.8712 42.0471L35.0422 41.3353L36.226 40.6407L37.4219 39.9628L38.629 39.3009L39.8467 38.6545L41.0743 38.0227L42.311 37.4046L43.5562 36.7994L44.8094 36.206L46.07 35.6234L47.3374 35.0505L48.6112 34.4861L49.8912 33.9291L51.177 33.3783L52.4683 32.8325L53.7652 32.2903L55.0674 31.7507L56.3751 31.2123L57.6884 30.6741L59.0074 30.1347L60.3325 29.5932L61.664 29.0483L63.0024 28.499L64.3482 27.9445L65.7021 27.3837L67.0646 26.8158L68.4365 26.24L69.8186 25.6558L71.2119 25.0625L72.6171 24.4597L74.0353 23.847L75.4674 23.2241L76.9146 22.591L78.3777 21.9476L79.8579 21.294L81.3563 20.6305L82.8739 19.9574L84.4118 19.2753L85.9711 18.5848L87.5527 17.8866L89.1577 17.1817L90.787 16.4711L92.4414 15.756L94.1219 15.0376L95.8291 14.3172L97.5639 13.5965L99.3267 12.8769L101.118 12.16L102.939 11.4477L104.789 10.7418L106.668 10.0442L108.578 9.35678L110.517 8.68164L112.486 8.02082L114.484 7.37643L116.512 6.75063L118.569 6.14558L120.653 5.56345L122.766 5.00643L124.905 4.47671L127.07 3.97645L129.261 3.50781L131.475 3.07289L133.711 2.67378L135.969 2.31251L138.247 1.99106L140.542 1.71132L142.855 1.47515L145.182 1.28431L147.523 1.14046L149.875 1.0452L152.236 1L154.605 1.00625L156.979 1.06521L159.356 1.178L161.734 1.34559L164.112 1.56884L166.486 1.84844L168.855 2.18495L171.218 2.57881L173.571 3.03031L175.913 3.53961L178.242 4.10675L180.555 4.73163L182.852 5.41407L185.13 6.15373L187.388 6.9502L189.623 7.80295L191.835 8.71137L194.021 9.67474L196.18 10.6923L198.311 11.7631L200.412 12.8864L202.482 14.061L204.52 15.2859L206.525 16.5601L208.495 17.8825L210.429 19.2518L212.328 20.6669L214.188 22.1265L216.011 23.6295L217.795 25.1746L219.538 26.7606L221.242 28.3862L222.904 30.0502L224.524 31.7513L226.102 33.4884L227.636 35.2602L229.126 37.0656L230.572 38.9034L231.973 40.7723L233.328 42.6713L234.636 44.5993L235.897 46.5551L237.11 48.5377L238.274 50.5458L239.39 52.5783L240.455 54.6341L241.47 56.712L242.434 58.8106L243.347 60.9289L244.208 63.0655L245.018 65.2192L245.776 67.3887L246.482 69.5728L247.136 71.7701L247.737 73.9794L248.287 76.1995L248.785 78.429L249.232 80.6668L249.627 82.9115L249.971 85.162L250.265 87.417L250.509 89.6753L250.703 91.9358L250.849 94.1974L250.946 96.459L250.997 98.7194L251 100.978L250.958 103.233L250.87 105.484L250.739 107.73L250.565 109.97L250.349 112.204L250.091 114.43L249.793 116.648L249.457 118.857Z" fill="#F9F9F9"/>
<path d="M249.457 118.857V118.857ZM249.457 118.857L249.082 121.056L248.67 123.246L248.221 125.424L247.737 127.592L247.219 129.748L246.666 131.892L246.079 134.023L245.46 136.141L244.809 138.246L244.126 140.337L243.412 142.414L242.668 144.477L241.893 146.524L241.089 148.557L240.255 150.574L239.393 152.575L238.501 154.56L237.582 156.529L236.634 158.481L235.659 160.415L234.657 162.332L233.628 164.232L232.572 166.113L231.489 167.976L230.381 169.82L229.247 171.645L228.087 173.451L226.903 175.238L225.695 177.004L224.462 178.751L223.206 180.477L221.926 182.183L220.625 183.869L219.301 185.534L217.957 187.178L216.592 188.802L215.207 190.405L213.804 191.988L212.382 193.55L210.943 195.092L209.488 196.614L208.017 198.117L206.531 199.601L205.032 201.066L203.519 202.512L201.993 203.94L200.455 205.35L198.905 206.743L197.343 208.118L195.771 209.476L194.188 210.818L192.594 212.143L190.99 213.452L189.376 214.745L187.752 216.023L186.119 217.284L184.475 218.53L182.821 219.76L181.158 220.975L179.484 222.174L177.8 223.358L176.106 224.525L174.402 225.677L172.686 226.813L170.96 227.932L169.223 229.034L167.474 230.12L165.713 231.187L163.941 232.237L162.157 233.268L160.361 234.281L158.552 235.273L156.731 236.246L154.896 237.197L153.049 238.126L151.189 239.033L149.315 239.915L147.428 240.773L145.527 241.605L143.613 242.41L141.685 243.187L139.744 243.934L137.789 244.65L135.822 245.335L133.841 245.986L131.848 246.603L129.843 247.185L127.827 247.729L125.799 248.236L123.761 248.703L121.714 249.13L119.658 249.516L117.594 249.859L115.523 250.159L113.446 250.414L111.363 250.625L109.278 250.789L107.189 250.907L105.099 250.977L103.009 251L100.92 250.974L98.833 250.9L96.7501 250.777L94.6724 250.604L92.6014 250.382L90.5383 250.11L88.4847 249.789L86.4421 249.418L84.4118 248.998L82.3954 248.528L80.3942 248.01L78.4098 247.443L76.4435 246.829L74.4968 246.166L72.5711 245.457L70.6677 244.701L68.788 243.9L66.9332 243.054L65.1045 242.165L63.3032 241.233L61.5304 240.261L59.787 239.249L58.0741 238.198L56.3926 237.111L54.7433 235.988L53.1269 234.832L51.5441 233.643L49.9954 232.424L48.4814 231.177L47.0023 229.903L45.5584 228.604L44.15 227.282L42.7772 225.939L41.4398 224.576L40.1379 223.196L38.8713 221.8L37.6396 220.391L36.4425 218.969L35.2796 217.537L34.1502 216.097L33.0539 214.65L31.9898 213.199L30.9573 211.743L29.9555 210.286L28.9836 208.829L28.0407 207.372L27.1258 205.918L26.2382 204.466L25.3769 203.019L24.5412 201.577L23.7302 200.141L22.943 198.711L22.179 197.288L21.4374 195.872L20.7175 194.464L20.0187 193.063L19.3402 191.671L18.6815 190.287L18.0421 188.912L17.4214 187.545L16.819 186.186L16.2345 184.836L15.6674 183.494L15.1173 182.16L14.5839 180.834L14.0669 179.516L13.566 178.206L13.0808 176.903L12.6112 175.608L12.1569 174.32L11.7175 173.04L11.2929 171.767L10.8829 170.5L10.4871 169.24L10.1053 167.987L9.7372 166.741L9.38255 165.501L9.04103 164.268L8.71229 163.041L8.39598 161.82L8.09173 160.606L7.79912 159.398L7.5177 158.196L7.24701 157L6.98654 155.811L6.73578 154.627L6.49419 153.45L6.26128 152.279L6.03652 151.114L5.81941 149.954L5.60947 148.8L5.40622 147.652L5.20921 146.509L5.01799 145.372L4.83216 144.239L4.65132 143.111L4.47512 141.988L4.30324 140.868L4.13536 139.753L3.97125 138.641L3.81066 137.533L3.65341 136.427L3.49936 135.324L3.34839 134.223L3.20043 133.125L3.05546 132.027L2.91349 130.931L2.77456 129.836L2.63876 128.742L2.50622 127.647L2.3771 126.552L2.25161 125.457L2.12995 124.361L2.01241 123.264L1.89925 122.165L1.7908 121.064L1.6874 119.962L1.58941 118.857L1.49725 117.749L1.41134 116.639L1.33215 115.526L1.26015 114.409L1.19584 113.29L1.13972 112.167L1.09231 111.04L1.05412 109.91L1.02567 108.777L1.00746 107.639L1 106.498L1.00379 105.354L1.0193 104.206L1.04701 103.054L1.08738 101.898L1.14085 100.74L1.20784 99.5777L1.28876 98.4126L1.38401 97.2443L1.49397 96.0732L1.619 94.8993L1.75947 93.7229L1.91571 92.5441L2.08807 91.3631L2.27688 90.1802L2.48246 88.9955L2.70514 87.8093L2.94526 86.6219L3.20316 85.4336L3.47917 84.2447L3.77367 83.0555L4.08701 81.8663L4.41959 80.6776L4.77182 79.4898L5.14413 78.3034L5.53698 77.1188L5.95085 75.9366L6.38626 74.7575L6.84375 73.582L7.32388 72.4111L7.82717 71.2453L8.3541 70.0855L8.90507 68.9324L9.48042 67.7869L10.0804 66.6497L10.7053 65.5216L11.3552 64.4033L12.0303 63.2957L12.7304 62.1994L13.4557 61.1152L14.206 60.0438L14.9811 58.9858L15.7809 57.9419L16.605 56.9128L17.4532 55.8989L18.325 54.9008L19.2201 53.919L20.138 52.954L21.0782 52.0062L22.0401 51.0758L23.0231 50.1633L24.0267 49.2689L25.0502 48.3927L26.0929 47.535L27.1541 46.6957L28.2332 45.875L29.3294 45.0728L30.442 44.2891L31.5704 43.5237L32.7136 42.7765L33.8712 42.0471L35.0422 41.3353L36.226 40.6407L37.4219 39.9628L38.629 39.301L39.8467 38.6545L41.0743 38.0227L42.311 37.4046L43.5562 36.7994L44.8094 36.206L46.07 35.6234L47.3374 35.0505L48.6112 34.4861L49.8912 33.9291L51.177 33.3783L52.4683 32.8325L53.7652 32.2903L55.0674 31.7507L56.3751 31.2123L57.6884 30.6741L59.0074 30.1347L60.3325 29.5932L61.664 29.0483L63.0024 28.499L64.3482 27.9445L65.7021 27.3837L67.0646 26.8158L68.4365 26.24L69.8186 25.6558L71.2119 25.0625L72.6171 24.4597L74.0353 23.847L75.4674 23.2241L76.9146 22.591L78.3777 21.9476L79.8579 21.294L81.3563 20.6305L82.8739 19.9574L84.4118 19.2753L85.9711 18.5848L87.5527 17.8866L89.1577 17.1817L90.787 16.4711L92.4414 15.756L94.1219 15.0376L95.8291 14.3172L97.5639 13.5965L99.3267 12.8769L101.118 12.16L102.939 11.4477L104.789 10.7418L106.668 10.0442L108.578 9.35678L110.517 8.68164L112.486 8.02082L114.484 7.37643L116.512 6.75063L118.569 6.14558L120.653 5.56345L122.766 5.00643L124.905 4.47671L127.07 3.97645L129.261 3.50781L131.475 3.07289L133.711 2.67378L135.969 2.31251L138.247 1.99106L140.542 1.71132L142.855 1.47515L145.182 1.28431L147.523 1.14046L149.875 1.0452L152.236 1L154.605 1.00625L156.979 1.06521L159.356 1.178L161.734 1.34559L164.112 1.56884L166.486 1.84844L168.855 2.18495L171.218 2.57881L173.571 3.03031L175.913 3.53961L178.242 4.10675L180.555 4.73163L182.852 5.41407L185.13 6.15373L187.388 6.9502L189.623 7.80295L191.835 8.71137L194.021 9.67474L196.18 10.6923L198.311 11.7631L200.412 12.8864L202.482 14.061L204.52 15.2859L206.525 16.5601L208.495 17.8825L210.429 19.2518L212.328 20.6669L214.188 22.1265L216.011 23.6295L217.795 25.1746L219.539 26.7606L221.242 28.3862L222.904 30.0502L224.524 31.7513L226.102 33.4884L227.636 35.2602L229.126 37.0656L230.572 38.9034L231.973 40.7723L233.328 42.6713L234.636 44.5993L235.897 46.5551L237.11 48.5377L238.274 50.5458L239.39 52.5783L240.455 54.6341L241.47 56.712L242.434 58.8106L243.347 60.9289L244.208 63.0655L245.018 65.2192L245.776 67.3887L246.482 69.5728L247.136 71.7701L247.737 73.9794L248.287 76.1995L248.785 78.429L249.232 80.6668L249.627 82.9115L249.971 85.162L250.265 87.417L250.509 89.6753L250.703 91.9358L250.849 94.1974L250.946 96.459L250.997 98.7194L251 100.978L250.958 103.233L250.87 105.484L250.739 107.73L250.565 109.97L250.349 112.204L250.091 114.43L249.793 116.648L249.457 118.857" stroke="black" stroke-width="2" stroke-linejoin="round"/>
</svg>
