<svg width="252" height="252" viewBox="0 0 252 252" fill="none" xmlns="http://www.w3.org/2000/svg">
<path fill-rule="evenodd" clip-rule="evenodd" d="M122.948 19.2439C149.646 21.5596 179.985 6.03947 201.759 20.4263C223.61 34.8638 219.49 65.5391 228.359 88.8914C236.24 109.643 251.459 128.08 250.989 150.056C250.489 173.504 243.313 198 225.667 214.941C208.3 231.614 181.351 234.028 157.14 240.159C133.347 246.184 109.991 253.013 85.4712 250.444C57.6574 247.529 24.0761 245.718 8.16416 224.549C-7.89227 203.189 7.95791 174.195 8.64677 148.24C9.20477 127.216 8.13774 107.251 11.8282 86.4951C16.7924 58.5761 8.2537 21.4305 33.9607 5.87232C59.5823 -9.63419 92.4062 16.5949 122.948 19.2439Z" fill="#F9F9F9" stroke="black" stroke-width="2" stroke-linejoin="round"/>
</svg>
