<svg width="252" height="252" viewBox="0 0 252 252" fill="none" xmlns="http://www.w3.org/2000/svg">
<path fill-rule="evenodd" clip-rule="evenodd" d="M135.226 16.3957C154.015 13.3382 176.494 -7.37192 190.44 4.79545C207.549 19.7227 182.693 51.5828 196.108 69.5127C207.209 84.3501 249.123 67.5949 250.916 85.6265C252.984 106.435 216.456 111.516 201.855 127.334C195.819 133.873 192.7 142.33 190.774 150.78C187.927 163.274 197.628 179.624 187.897 188.589C178.911 196.867 160.341 180.547 150.479 187.901C129.476 203.561 131.067 240.865 105.926 249.708C87.819 256.077 63.743 237.719 57.7539 220.514C50.2246 198.886 85.2991 174.004 72.7825 154.503C59.946 134.502 12.038 155.279 2.14216 133.866C-5.97027 116.313 31.3396 107.872 44.4504 93.198C52.9403 83.6958 59.4204 73.2178 65.9529 62.4469C74.1041 49.0068 74.4845 30.4253 87.9504 21.4734C101.022 12.7836 119.426 18.9668 135.226 16.3957Z" fill="#F9F9F9" stroke="black" stroke-width="2" stroke-linejoin="round"/>
</svg>
