<svg width="252" height="253" viewBox="0 0 252 253" fill="none" xmlns="http://www.w3.org/2000/svg">
<path fill-rule="evenodd" clip-rule="evenodd" d="M132.766 25.5806C151.176 18.6383 169.548 -4.96296 186.987 4.00681C205.208 13.3794 192.312 43.6337 201.998 61.1917C208.879 73.6652 226.093 77.661 234.135 89.4743C243.067 102.595 251.686 117.44 250.957 133.109C250.226 148.815 236.673 160.83 230.145 175.243C222.874 191.296 224.173 212.438 210.032 223.463C196.02 234.386 174.721 227.68 157.269 232.056C138.959 236.647 120.905 258.708 104.303 249.975C84.865 239.749 88.3149 210.97 79.7919 191.298C75.0125 180.267 74.7561 166.082 64.8372 158.886C46.4542 145.549 6.74044 155.989 1.41941 134.439C-3.47609 114.612 35.8335 110.913 49.0617 94.996C57.1303 85.2878 54.8612 70.3655 62.8133 60.5686C70.9133 50.5894 82.9805 44.6626 94.6577 38.822C106.773 32.7623 120.052 30.3745 132.766 25.5806Z" fill="#F9F9F9" stroke="black" stroke-width="2" stroke-linejoin="round"/>
</svg>
