<svg width="252" height="252" viewBox="0 0 252 252" fill="none" xmlns="http://www.w3.org/2000/svg">
<path fill-rule="evenodd" clip-rule="evenodd" d="M121.85 1.01476C140.071 0.290131 148.511 26.4324 163.775 36.8975C176.539 45.6481 197.5 43.4209 204.462 57.6529C212.084 73.234 191.456 93.8144 199.206 109.326C209.262 129.453 245.385 127.818 250.545 149.889C254.797 168.076 228.082 178.425 219.152 194.639C210.226 210.846 212.763 235.17 197.887 245.503C182.831 255.961 162.272 248.655 144.32 246.615C129.57 244.939 116.653 234.56 101.816 234.586C82.2467 234.619 61.0555 258.41 44.9252 246.784C29.0388 235.334 41.8907 206.838 36.4164 187.449C32.2997 172.869 21.8646 161.538 16.8304 147.278C10.8611 130.369 -5.69627 110.425 3.95826 95.5071C15.244 78.0692 44.7294 90.3955 61.3289 78.5226C72.9286 70.2259 72.419 51.5707 81.3158 40.1768C93.0843 25.1051 103.293 1.75274 121.85 1.01476Z" fill="#F9F9F9" stroke="black" stroke-width="2" stroke-linejoin="round"/>
</svg>
