<svg width="252" height="252" viewBox="0 0 252 252" fill="none" xmlns="http://www.w3.org/2000/svg">
<path fill-rule="evenodd" clip-rule="evenodd" d="M247.025 122.591L247.856 124.454L248.589 126.339L249.224 128.243L249.762 130.163L250.201 132.094L250.543 134.034L250.788 135.979L250.94 137.926L251 139.872L250.971 141.814L250.855 143.75L250.658 145.677L250.382 147.593L250.033 149.497L249.616 151.387L249.137 153.261L248.6 155.121L248.012 156.964L247.378 158.792L246.703 160.604L245.992 162.401L245.25 164.183L244.482 165.951L243.689 167.706L242.876 169.449L242.044 171.18L241.196 172.9L240.331 174.609L239.452 176.308L238.557 177.996L237.648 179.675L236.725 181.343L235.788 183.002L234.836 184.651L233.87 186.29L232.888 187.918L231.89 189.536L230.876 191.143L229.844 192.738L228.795 194.322L227.726 195.892L226.638 197.448L225.53 198.991L224.401 200.517L223.25 202.028L222.076 203.521L220.88 204.995L219.66 206.451L218.417 207.886L217.151 209.3L215.86 210.693L214.546 212.062L213.209 213.409L211.849 214.732L210.466 216.03L209.061 217.304L207.634 218.553L206.187 219.777L204.721 220.976L203.235 222.15L201.732 223.301L200.212 224.427L198.676 225.53L197.125 226.611L195.56 227.67L193.982 228.707L192.392 229.724L190.791 230.722L189.18 231.701L187.558 232.662L185.927 233.606L184.287 234.534L182.639 235.446L180.982 236.343L179.317 237.225L177.644 238.093L175.963 238.946L174.274 239.785L172.576 240.609L170.869 241.417L169.153 242.209L167.428 242.985L165.692 243.742L163.947 244.479L162.19 245.194L160.422 245.884L158.641 246.547L156.849 247.179L155.043 247.776L153.225 248.334L151.394 248.851L149.55 249.321L147.694 249.741L145.826 250.106L143.949 250.414L142.062 250.66L140.167 250.841L138.266 250.955L136.362 251L134.455 250.973L132.548 250.873L130.643 250.697L128.744 250.446L126.851 250.118L124.969 249.713L123.099 249.23L121.243 248.671L119.405 248.035L117.588 247.325L115.792 246.542L114.022 245.688L112.278 244.766L110.564 243.779L108.88 242.73L107.229 241.624L105.611 240.465L104.029 239.257L102.482 238.005L100.971 236.715L99.4966 235.392L98.0584 234.042L96.6557 232.671L95.2876 231.285L93.953 229.89L92.6501 228.491L91.3769 227.097L90.1312 225.712L88.9101 224.343L87.7107 222.995L86.5296 221.674L85.3633 220.386L84.2079 219.135L83.0594 217.926L81.9135 216.764L80.766 215.652L79.6124 214.592L78.4483 213.589L77.2693 212.644L76.0711 211.758L74.8495 210.932L73.6005 210.166L72.3202 209.461L71.0052 208.813L69.6523 208.223L68.2586 207.688L66.8219 207.204L65.34 206.768L63.8116 206.376L62.2356 206.024L60.6117 205.706L58.9401 205.417L57.2215 205.152L55.4573 204.904L53.6496 204.667L51.8008 204.435L49.9143 204.199L47.9939 203.955L46.0441 203.695L44.0696 203.412L42.0758 203.1L40.0686 202.753L38.0539 202.364L36.0381 201.929L34.0277 201.442L32.0293 200.899L30.0494 200.296L28.0945 199.63L26.1709 198.897L24.2844 198.097L22.4407 197.227L20.6452 196.288L18.9031 195.279L17.2195 194.199L15.5993 193.049L14.0471 191.831L12.5674 190.545L11.1642 189.192L9.84131 187.776L8.60225 186.298L7.45012 184.76L6.38771 183.166L5.41737 181.518L4.54106 179.82L3.76034 178.076L3.0763 176.289L2.48963 174.463L2.00059 172.603L1.609 170.711L1.3143 168.793L1.11552 166.852L1.01132 164.893L1 162.92L1.07952 160.937L1.24753 158.948L1.50139 156.957L1.8382 154.968L2.25483 152.983L2.74791 151.008L3.31392 149.044L3.94916 147.095L4.64981 145.164L5.41195 143.254L6.23156 141.367L7.1046 139.504L8.02698 137.669L8.99461 135.863L10.0034 134.087L11.0494 132.343L12.1286 130.632L13.2372 128.954L14.3713 127.311L15.5275 125.703L16.7021 124.129L17.892 122.591L19.0939 121.088L20.3051 119.621L21.5228 118.187L22.7445 116.788L23.9681 115.423L25.1915 114.091L26.4129 112.791L27.6305 111.523L28.8431 110.286L30.0491 109.078L31.2476 107.9L32.4369 106.749L33.6152 105.626L34.7803 104.528L35.9295 103.455L37.0598 102.403L38.1682 101.372L39.2513 100.359L40.3056 99.3623L41.3275 98.378L42.3133 97.4036L43.2592 96.4359L44.1616 95.4712L45.0165 94.5057L45.8202 93.5353L46.5688 92.5555L47.2586 91.5616L47.8863 90.5487L48.449 89.5119L48.9447 88.4461L49.3722 87.3467L49.7307 86.209L50.0203 85.0285L50.2419 83.8011L50.397 82.5228L50.4879 81.1902L50.5175 79.8001L50.4896 78.3502L50.4084 76.8381L50.2787 75.2624L50.1059 73.6221L49.8959 71.9167L49.6547 70.1465L49.3891 68.3122L49.106 66.4153L48.8125 64.4578L48.5158 62.4425L48.2235 60.3725L47.9429 58.2519L47.6816 56.0849L47.4468 53.8768L47.2459 51.6331L47.0858 49.3597L46.9733 47.0632L46.9148 44.7505L46.9164 42.4287L46.9837 40.1054L47.1219 37.7884L47.3355 35.4854L47.6288 33.2046L48.0052 30.9539L48.4675 28.7414L49.0181 26.5748L49.6585 24.4618L50.3898 22.4098L51.2122 20.426L52.1253 18.5169L53.1283 16.6888L54.2195 14.9474L55.3968 13.2979L56.6575 11.7447L57.9984 10.2918L59.4157 8.94236L60.9054 7.699L62.4631 6.56354L64.084 5.53713L65.7632 4.62015L67.4953 3.81227L69.275 3.1124L71.0968 2.51875L72.9552 2.02884L74.8446 1.63955L76.7597 1.34702L78.6951 1.14661L80.6454 1.03295L82.6056 1L84.5709 1.04116L86.5368 1.14936L88.4991 1.31715L90.4542 1.53685L92.3989 1.80066L94.3303 2.10077L96.2463 2.4295L98.1451 2.77947L100.025 3.14367L101.887 3.51568L103.728 3.88974L105.551 4.26091L107.354 4.62493L109.14 4.97795L110.909 5.3165L112.661 5.63755L114.4 5.93852L116.126 6.21733L117.84 6.47241L119.545 6.70269L121.243 6.90767L122.935 7.08735L124.624 7.24229L126.31 7.37357L127.996 7.48275L129.683 7.57192L131.373 7.64363L133.066 7.70085L134.765 7.74698L136.468 7.78579L138.178 7.82139L139.894 7.85818L141.616 7.90079L143.344 7.95406L145.077 8.02298L146.813 8.11263L148.553 8.22813L150.293 8.37456L152.033 8.55697L153.769 8.78026L155.5 9.04918L157.222 9.36822L158.933 9.74165L160.629 10.1734L162.307 10.667L163.964 11.2257L165.597 11.8523L167.201 12.549L168.773 13.3178L170.309 14.16L171.806 15.0764L173.26 16.0676L174.669 17.1333L176.028 18.2728L177.335 19.4852L178.588 20.7688L179.783 22.1214L180.919 23.5407L181.993 25.0235L183.005 26.5665L183.953 28.166L184.836 29.8179L185.655 31.5178L186.409 33.2611L187.099 35.0428L187.725 36.858L188.289 38.7015L188.794 40.568L189.24 42.4519L189.632 44.3471L189.973 46.2477L190.268 48.1473L190.521 50.0399L190.738 51.9193L190.925 53.7798L191.087 55.6158L191.232 57.422L191.366 59.1937L191.497 60.9264L191.63 62.6163L191.773 64.2601L191.933 65.8549L192.118 67.3985L192.333 68.8893L192.586 70.3262L192.883 71.7087L193.23 73.0371L193.632 74.3122L194.095 75.5353L194.623 76.7083L195.219 77.8337L195.888 78.9145L196.631 79.9541L197.452 80.9563L198.35 81.9254L199.327 82.8657L200.383 83.7822L201.517 84.6797L202.727 85.5633L204.011 86.4383L205.366 87.3098L206.789 88.183L208.275 89.063L209.821 89.9549L211.421 90.8636L213.068 91.7936L214.758 92.7495L216.483 93.7352L218.236 94.7546L220.01 95.8111L221.797 96.9078L223.591 98.0473L225.382 99.2319L227.164 100.463L228.927 101.743L230.665 103.072L232.37 104.45L234.033 105.878L235.649 107.355L237.209 108.88L238.708 110.452L240.139 112.069L241.497 113.73L242.776 115.431L243.972 117.171L245.081 118.947L246.1 120.754L247.025 122.591Z" fill="#F9F9F9"/>
<path d="M247.025 122.591V122.591ZM247.025 122.591L247.856 124.454L248.589 126.339L249.224 128.243L249.762 130.163L250.201 132.094L250.543 134.034L250.788 135.979L250.94 137.926L251 139.872L250.971 141.814L250.855 143.75L250.658 145.677L250.382 147.593L250.033 149.497L249.616 151.387L249.137 153.261L248.6 155.121L248.012 156.964L247.378 158.792L246.703 160.604L245.992 162.401L245.25 164.183L244.482 165.951L243.689 167.706L242.876 169.449L242.044 171.18L241.196 172.9L240.331 174.609L239.452 176.308L238.557 177.996L237.648 179.675L236.725 181.343L235.788 183.002L234.836 184.651L233.87 186.29L232.888 187.918L231.89 189.536L230.876 191.143L229.844 192.738L228.795 194.322L227.726 195.892L226.638 197.448L225.53 198.991L224.401 200.517L223.25 202.028L222.076 203.521L220.88 204.995L219.66 206.451L218.417 207.886L217.151 209.3L215.86 210.693L214.546 212.062L213.209 213.409L211.849 214.732L210.466 216.03L209.061 217.304L207.634 218.553L206.187 219.777L204.721 220.976L203.235 222.151L201.732 223.301L200.212 224.427L198.676 225.53L197.125 226.611L195.56 227.67L193.982 228.707L192.392 229.724L190.791 230.722L189.18 231.701L187.558 232.662L185.927 233.606L184.287 234.534L182.639 235.446L180.982 236.343L179.317 237.225L177.644 238.093L175.963 238.946L174.274 239.785L172.576 240.609L170.869 241.417L169.153 242.209L167.428 242.985L165.692 243.742L163.947 244.479L162.19 245.194L160.422 245.884L158.641 246.547L156.849 247.179L155.043 247.776L153.225 248.334L151.394 248.851L149.55 249.321L147.694 249.741L145.826 250.106L143.949 250.414L142.062 250.66L140.167 250.841L138.266 250.955L136.362 251L134.455 250.973L132.548 250.873L130.643 250.697L128.744 250.446L126.851 250.118L124.969 249.713L123.099 249.23L121.243 248.671L119.405 248.035L117.588 247.325L115.792 246.542L114.022 245.688L112.278 244.766L110.564 243.779L108.88 242.73L107.229 241.624L105.611 240.465L104.029 239.257L102.482 238.005L100.971 236.715L99.4966 235.392L98.0584 234.042L96.6557 232.671L95.2876 231.285L93.953 229.89L92.6501 228.491L91.3769 227.097L90.1312 225.712L88.9101 224.343L87.7107 222.995L86.5296 221.674L85.3633 220.386L84.2079 219.135L83.0594 217.926L81.9135 216.764L80.766 215.652L79.6124 214.592L78.4483 213.589L77.2693 212.644L76.0711 211.758L74.8495 210.932L73.6005 210.166L72.3202 209.461L71.0052 208.813L69.6523 208.223L68.2586 207.688L66.8219 207.204L65.34 206.768L63.8116 206.376L62.2356 206.024L60.6117 205.706L58.9401 205.418L57.2215 205.152L55.4573 204.904L53.6496 204.667L51.8008 204.435L49.9143 204.199L47.9939 203.955L46.0441 203.695L44.0696 203.412L42.0758 203.1L40.0686 202.753L38.0539 202.364L36.0381 201.929L34.0277 201.442L32.0293 200.899L30.0494 200.296L28.0945 199.63L26.1709 198.897L24.2844 198.097L22.4407 197.227L20.6452 196.288L18.9031 195.279L17.2195 194.199L15.5993 193.049L14.0471 191.831L12.5674 190.545L11.1642 189.192L9.84131 187.776L8.60225 186.298L7.45012 184.76L6.38771 183.166L5.41737 181.518L4.54106 179.82L3.76034 178.076L3.0763 176.289L2.48963 174.463L2.00059 172.603L1.609 170.711L1.3143 168.793L1.11552 166.852L1.01132 164.893L1 162.92L1.07952 160.937L1.24753 158.948L1.50139 156.957L1.8382 154.968L2.25483 152.983L2.74791 151.008L3.31392 149.044L3.94916 147.095L4.64981 145.164L5.41195 143.254L6.23156 141.367L7.1046 139.504L8.02698 137.669L8.99461 135.863L10.0034 134.087L11.0494 132.343L12.1286 130.632L13.2372 128.954L14.3713 127.311L15.5275 125.703L16.7021 124.129L17.892 122.591L19.0939 121.088L20.3051 119.621L21.5228 118.187L22.7445 116.788L23.9681 115.423L25.1915 114.091L26.4129 112.791L27.6305 111.523L28.8431 110.286L30.0491 109.078L31.2476 107.9L32.4369 106.749L33.6152 105.626L34.7803 104.528L35.9295 103.455L37.0598 102.403L38.1682 101.372L39.2513 100.359L40.3056 99.3623L41.3275 98.378L42.3133 97.4036L43.2592 96.4359L44.1616 95.4712L45.0165 94.5057L45.8202 93.5353L46.5688 92.5555L47.2586 91.5616L47.8863 90.5487L48.449 89.5119L48.9447 88.4461L49.3722 87.3467L49.7307 86.209L50.0203 85.0285L50.2419 83.8011L50.397 82.5228L50.4879 81.1902L50.5175 79.8001L50.4896 78.3501L50.4084 76.8381L50.2787 75.2624L50.1059 73.6221L49.8959 71.9167L49.6547 70.1465L49.3891 68.3122L49.106 66.4153L48.8125 64.4578L48.5158 62.4425L48.2235 60.3725L47.9429 58.2518L47.6816 56.0849L47.4468 53.8768L47.2459 51.6331L47.0858 49.3597L46.9733 47.0632L46.9148 44.7505L46.9164 42.4287L46.9837 40.1054L47.1219 37.7884L47.3355 35.4854L47.6288 33.2046L48.0052 30.9539L48.4675 28.7414L49.0181 26.5748L49.6585 24.4618L50.3898 22.4098L51.2122 20.426L52.1253 18.5169L53.1283 16.6888L54.2195 14.9474L55.3968 13.2979L56.6575 11.7447L57.9984 10.2918L59.4157 8.94236L60.9054 7.699L62.4631 6.56354L64.084 5.53713L65.7632 4.62015L67.4953 3.81227L69.275 3.1124L71.0968 2.51875L72.9552 2.02884L74.8446 1.63955L76.7597 1.34702L78.6951 1.14661L80.6454 1.03295L82.6056 1L84.5709 1.04116L86.5368 1.14936L88.4991 1.31715L90.4542 1.53685L92.3989 1.80066L94.3303 2.10077L96.2463 2.4295L98.1451 2.77947L100.025 3.14367L101.887 3.51568L103.728 3.88974L105.551 4.26091L107.354 4.62493L109.14 4.97795L110.909 5.3165L112.661 5.63755L114.4 5.93852L116.126 6.21733L117.84 6.47241L119.545 6.70269L121.243 6.90767L122.935 7.08735L124.624 7.24229L126.31 7.37357L127.996 7.48275L129.683 7.57192L131.373 7.64363L133.066 7.70085L134.765 7.74698L136.468 7.78579L138.178 7.82139L139.894 7.85818L141.616 7.90079L143.344 7.95406L145.077 8.02298L146.813 8.11263L148.553 8.22813L150.293 8.37456L152.033 8.55697L153.769 8.78026L155.5 9.04918L157.222 9.36822L158.933 9.74165L160.629 10.1734L162.307 10.667L163.964 11.2257L165.597 11.8523L167.201 12.549L168.773 13.3178L170.309 14.16L171.806 15.0764L173.26 16.0676L174.669 17.1333L176.028 18.2728L177.335 19.4852L178.588 20.7688L179.783 22.1214L180.919 23.5407L181.993 25.0235L183.005 26.5665L183.953 28.166L184.836 29.8179L185.655 31.5178L186.409 33.2611L187.099 35.0428L187.725 36.858L188.289 38.7015L188.794 40.568L189.24 42.4519L189.632 44.3471L189.973 46.2477L190.268 48.1473L190.521 50.0399L190.738 51.9193L190.925 53.7798L191.087 55.6158L191.232 57.422L191.366 59.1937L191.497 60.9264L191.63 62.6163L191.773 64.2601L191.933 65.8549L192.118 67.3985L192.333 68.8893L192.586 70.3262L192.883 71.7087L193.23 73.0371L193.632 74.3122L194.095 75.5353L194.623 76.7083L195.219 77.8337L195.888 78.9145L196.631 79.9541L197.452 80.9563L198.35 81.9254L199.327 82.8657L200.383 83.7822L201.517 84.6797L202.727 85.5633L204.011 86.4383L205.366 87.3098L206.789 88.183L208.275 89.063L209.821 89.9549L211.421 90.8636L213.068 91.7936L214.758 92.7495L216.483 93.7352L218.236 94.7546L220.01 95.8111L221.797 96.9078L223.591 98.0473L225.382 99.2319L227.164 100.463L228.927 101.743L230.665 103.072L232.37 104.45L234.033 105.878L235.649 107.355L237.209 108.88L238.708 110.452L240.139 112.069L241.497 113.73L242.776 115.431L243.972 117.171L245.081 118.947L246.1 120.754L247.025 122.591" stroke="black" stroke-width="2" stroke-linejoin="round"/>
</svg>
