<svg width="252" height="252" viewBox="0 0 252 252" fill="none" xmlns="http://www.w3.org/2000/svg">
<path fill-rule="evenodd" clip-rule="evenodd" d="M246.473 123.587L246.597 124.837L246.703 126.089L246.79 127.344L246.856 128.602L246.9 129.861L246.921 131.123L246.919 132.387L246.893 133.653L246.842 134.921L246.768 136.189L246.67 137.459L246.549 138.73L246.404 140.002L246.233 141.274L246.037 142.547L245.812 143.819L245.558 145.089L245.271 146.358L244.95 147.624L244.592 148.886L244.193 150.143L243.752 151.393L243.265 152.635L242.729 153.868L242.143 155.089L241.503 156.296L240.808 157.488L240.054 158.663L239.241 159.818L238.368 160.952L237.433 162.062L236.439 163.148L235.385 164.208L234.273 165.24L233.104 166.243L231.883 167.217L230.611 168.161L229.292 169.075L227.929 169.959L226.529 170.814L225.094 171.64L223.63 172.438L222.141 173.21L220.634 173.958L219.112 174.684L217.582 175.389L216.048 176.078L214.516 176.751L212.991 177.414L211.476 178.069L209.977 178.72L208.497 179.37L207.04 180.023L205.61 180.684L204.209 181.355L202.84 182.042L201.505 182.748L200.206 183.476L198.942 184.231L197.715 185.017L196.525 185.836L195.37 186.692L194.251 187.588L193.164 188.527L192.109 189.511L191.083 190.542L190.082 191.622L189.103 192.752L188.144 193.934L187.198 195.167L186.263 196.452L185.334 197.788L184.405 199.175L183.472 200.612L182.531 202.096L181.575 203.627L180.601 205.201L179.602 206.816L178.575 208.469L177.515 210.157L176.416 211.876L175.276 213.621L174.089 215.39L172.851 217.176L171.56 218.976L170.212 220.784L168.803 222.595L167.331 224.402L165.793 226.2L164.188 227.982L162.514 229.742L160.771 231.474L158.957 233.171L157.073 234.828L155.118 236.436L153.095 237.991L151.004 239.485L148.847 240.912L146.626 242.265L144.345 243.538L142.006 244.726L139.614 245.823L137.173 246.824L134.688 247.725L132.163 248.522L129.603 249.212L127.016 249.793L124.405 250.262L121.777 250.617L119.138 250.859L116.494 250.986L113.85 251L111.214 250.901L108.589 250.69L105.983 250.37L103.4 249.942L100.845 249.411L98.324 248.778L95.8404 248.048L93.3988 247.225L91.003 246.313L88.6564 245.317L86.3621 244.241L84.1227 243.091L81.9405 241.871L79.8173 240.587L77.7545 239.245L75.7531 237.849L73.8139 236.405L71.937 234.917L70.1224 233.393L68.3697 231.835L66.678 230.25L65.0465 228.642L63.4737 227.016L61.9581 225.375L60.498 223.725L59.0915 222.069L57.7365 220.41L56.4309 218.752L55.1725 217.097L53.9589 215.449L52.7878 213.81L51.6571 212.181L50.5645 210.566L49.5077 208.964L48.4847 207.378L47.4934 205.808L46.532 204.255L45.5985 202.721L44.6912 201.204L43.8086 199.706L42.9491 198.226L42.1113 196.765L41.2941 195.322L40.4963 193.897L39.7175 192.489L38.9576 191.098L38.217 189.72L37.4964 188.356L36.7967 187.004L36.1192 185.662L35.4652 184.329L34.8358 183.003L34.2324 181.684L33.6559 180.37L33.1071 179.062L32.5863 177.758L32.0935 176.46L31.6281 175.166L31.1888 173.879L30.774 172.598L30.3818 171.325L30.0103 170.06L29.6572 168.804L29.3201 167.559L28.9965 166.324L28.6836 165.1L28.3787 163.889L28.0786 162.69L27.7804 161.504L27.481 160.332L27.1771 159.174L26.8659 158.03L26.5444 156.899L26.2098 155.782L25.8595 154.678L25.4911 153.587L25.1025 152.508L24.6919 151.44L24.2576 150.382L23.7985 149.333L23.3136 148.293L22.8022 147.259L22.2643 146.231L21.7 145.206L21.1096 144.184L20.4942 143.164L19.855 142.142L19.1934 141.12L18.5115 140.093L17.8115 139.062L17.0958 138.025L16.3675 136.981L15.6295 135.929L14.8852 134.866L14.1381 133.794L13.3919 132.71L12.6504 131.615L11.9175 130.507L11.1971 129.386L10.4932 128.252L9.80966 127.105L9.15019 125.945L8.51845 124.772L7.91785 123.587L7.35154 122.39L6.82237 121.181L6.33281 119.962L5.88495 118.733L5.48045 117.495L5.12054 116.249L4.80606 114.996L4.53738 113.736L4.31446 112.47L4.13683 111.2L4.00359 109.926L3.91316 108.649L3.86292 107.368L3.84931 106.084L3.86795 104.798L3.91377 103.508L3.98123 102.214L4.06442 100.915L4.15724 99.6091L4.25359 98.2952L4.34753 96.9712L4.43343 95.6351L4.50617 94.2846L4.56129 92.9173L4.59513 91.531L4.60503 90.1232L4.58936 88.6918L4.54719 87.2347L4.47805 85.7498L4.38189 84.2351L4.25917 82.6888L4.11087 81.1089L3.93846 79.4939L3.74399 77.8423L3.53 76.153L3.29955 74.4249L3.05618 72.6573L2.80395 70.85L2.54741 69.0027L2.29159 67.116L2.04198 65.1905L1.80444 63.2273L1.58522 61.2282L1.39085 59.1951L1.22812 57.1306L1.10401 55.0375L1.02559 52.9193L1 50.7799L1.03433 48.6235L1.13559 46.4548L1.31061 44.2788L1.566 42.101L1.90806 39.927L2.34271 37.763L2.87546 35.6151L3.51134 33.4898L4.25483 31.3937L5.10985 29.3336L6.07969 27.3163L7.16698 25.3484L8.3737 23.4368L9.7011 21.5882L11.1497 19.8091L12.7194 18.1057L14.4092 16.4841L16.2176 14.9502L18.1421 13.5093L20.1799 12.1666L22.327 10.9265L24.5793 9.79323L26.9317 8.77035L29.3787 7.86086L31.9141 7.06715L34.5314 6.39096L37.2235 5.83332L39.9829 5.39451L42.8018 5.07409L45.6722 4.87087L48.5858 4.78293L51.5344 4.80765L54.5096 4.94167L57.5031 5.18095L60.5068 5.52076L63.5125 5.95551L66.5124 6.47848L69.4984 7.08189L72.4631 7.757L75.3994 8.49423L78.3007 9.28334L81.1614 10.1135L83.9763 10.9735L86.7414 11.8518L89.4534 12.737L92.1101 13.6174L94.7102 14.4818L97.2535 15.3193L99.7406 16.1197L102.173 16.8732L104.554 17.5713L106.887 18.2057L109.175 18.7694L111.423 19.2556L113.637 19.6588L115.822 19.974L117.985 20.1973L120.131 20.3259L122.269 20.3579L124.405 20.2922L126.545 20.1292L128.697 19.87L130.867 19.5169L133.062 19.0729L135.288 18.5423L137.552 17.93L139.857 17.242L142.209 16.485L144.612 15.6662L147.069 14.794L149.583 13.8768L152.157 12.9241L154.789 11.9453L157.482 10.9507L160.235 9.9503L163.044 8.95477L165.91 7.97464L168.827 7.02047L171.791 6.10275L174.799 5.23179L177.844 4.41762L180.919 3.66994L184.018 2.99798L187.132 2.41048L190.254 1.91556L193.374 1.5207L196.485 1.23265L199.576 1.05737L202.638 1L205.661 1.06481L208.637 1.25515L211.556 1.57347L214.408 2.02127L217.186 2.59911L219.88 3.30663L222.484 4.14254L224.99 5.10469L227.391 6.1901L229.682 7.395L231.858 8.7149L233.915 10.1446L235.85 11.6783L237.66 13.3097L239.345 15.0318L240.903 16.8373L242.335 18.7185L243.644 20.6675L244.831 22.6763L245.9 24.7372L246.853 26.8425L247.694 28.985L248.427 31.1578L249.057 33.3542L249.589 35.5677L250.027 37.7924L250.377 40.0225L250.643 42.2528L250.832 44.4783L250.95 46.6946L251 48.8975L250.989 51.0834L250.922 53.2493L250.803 55.3925L250.637 57.5105L250.428 59.6013L250.183 61.6628L249.904 63.6933L249.598 65.6914L249.269 67.6557L248.922 69.5851L248.561 71.4787L248.192 73.3361L247.818 75.1566L247.445 76.9403L247.075 78.687L246.714 80.3971L246.365 82.0711L246.031 83.7095L245.715 85.3134L245.42 86.8836L245.148 88.4215L244.902 89.9283L244.683 91.4055L244.493 92.8546L244.332 94.2775L244.202 95.6757L244.101 97.0511L244.032 98.4055L243.992 99.7408L243.981 101.059L243.998 102.361L244.042 103.65L244.111 104.927L244.202 106.194L244.315 107.453L244.447 108.704L244.594 109.95L244.755 111.192L244.926 112.431L245.105 113.667L245.289 114.903L245.475 116.139L245.66 117.376L245.84 118.614L246.015 119.854L246.18 121.096L246.334 122.34L246.473 123.587Z" fill="#F9F9F9"/>
<path d="M246.473 123.587V123.587ZM246.473 123.587L246.597 124.837L246.703 126.089L246.79 127.344L246.856 128.602L246.9 129.861L246.921 131.123L246.919 132.387L246.893 133.653L246.842 134.921L246.768 136.189L246.67 137.459L246.549 138.73L246.404 140.002L246.233 141.274L246.037 142.547L245.812 143.819L245.558 145.089L245.271 146.358L244.95 147.624L244.592 148.886L244.193 150.143L243.752 151.393L243.265 152.635L242.729 153.868L242.143 155.089L241.503 156.296L240.808 157.488L240.054 158.663L239.241 159.818L238.368 160.952L237.433 162.062L236.439 163.148L235.385 164.208L234.273 165.24L233.104 166.243L231.883 167.217L230.611 168.161L229.292 169.075L227.929 169.959L226.529 170.814L225.094 171.64L223.63 172.438L222.141 173.21L220.634 173.958L219.112 174.684L217.582 175.389L216.048 176.078L214.516 176.751L212.991 177.414L211.476 178.069L209.977 178.72L208.497 179.37L207.04 180.023L205.61 180.684L204.209 181.355L202.84 182.042L201.505 182.748L200.206 183.476L198.942 184.231L197.715 185.017L196.525 185.836L195.37 186.692L194.251 187.588L193.164 188.527L192.109 189.511L191.083 190.542L190.082 191.622L189.103 192.752L188.144 193.934L187.198 195.167L186.263 196.452L185.334 197.788L184.405 199.175L183.472 200.612L182.531 202.096L181.575 203.627L180.601 205.201L179.602 206.816L178.575 208.469L177.515 210.157L176.416 211.876L175.276 213.621L174.089 215.39L172.851 217.176L171.56 218.976L170.212 220.784L168.803 222.595L167.331 224.402L165.793 226.2L164.188 227.982L162.514 229.742L160.771 231.474L158.957 233.171L157.073 234.828L155.118 236.436L153.095 237.991L151.004 239.485L148.847 240.912L146.626 242.265L144.345 243.538L142.006 244.726L139.614 245.823L137.173 246.824L134.688 247.725L132.163 248.522L129.603 249.212L127.016 249.793L124.405 250.262L121.777 250.617L119.138 250.859L116.494 250.986L113.85 251L111.214 250.901L108.589 250.69L105.983 250.37L103.4 249.942L100.845 249.411L98.324 248.778L95.8404 248.048L93.3988 247.225L91.003 246.313L88.6564 245.317L86.3621 244.241L84.1227 243.091L81.9405 241.871L79.8173 240.587L77.7545 239.245L75.7531 237.849L73.8139 236.405L71.937 234.917L70.1224 233.393L68.3697 231.835L66.6781 230.25L65.0465 228.642L63.4737 227.016L61.9581 225.375L60.498 223.725L59.0915 222.069L57.7365 220.41L56.4309 218.752L55.1725 217.097L53.9589 215.449L52.7878 213.81L51.6571 212.181L50.5645 210.566L49.5077 208.964L48.4847 207.378L47.4934 205.808L46.532 204.255L45.5985 202.721L44.6912 201.204L43.8086 199.706L42.9491 198.226L42.1113 196.765L41.2941 195.322L40.4963 193.897L39.7175 192.489L38.9576 191.097L38.217 189.72L37.4964 188.356L36.7967 187.004L36.1192 185.662L35.4652 184.329L34.8358 183.003L34.2324 181.684L33.6559 180.37L33.1071 179.062L32.5863 177.758L32.0935 176.46L31.6281 175.166L31.1888 173.879L30.774 172.598L30.3818 171.325L30.0103 170.06L29.6572 168.804L29.3201 167.559L28.9965 166.324L28.6836 165.1L28.3787 163.889L28.0786 162.69L27.7804 161.504L27.481 160.332L27.1771 159.174L26.8659 158.03L26.5444 156.899L26.2098 155.782L25.8595 154.678L25.4911 153.587L25.1025 152.508L24.6919 151.44L24.2576 150.382L23.7985 149.333L23.3136 148.293L22.8022 147.259L22.2643 146.231L21.7 145.206L21.1096 144.184L20.4942 143.164L19.855 142.142L19.1934 141.12L18.5115 140.093L17.8115 139.062L17.0958 138.025L16.3675 136.981L15.6295 135.929L14.8852 134.866L14.1381 133.794L13.3919 132.71L12.6504 131.615L11.9175 130.507L11.1971 129.386L10.4932 128.252L9.80966 127.105L9.15019 125.945L8.51845 124.772L7.91785 123.587L7.35154 122.39L6.82237 121.181L6.33281 119.962L5.88495 118.733L5.48045 117.495L5.12054 116.249L4.80606 114.996L4.53738 113.736L4.31446 112.47L4.13683 111.2L4.00359 109.926L3.91316 108.649L3.86292 107.368L3.84931 106.084L3.86795 104.798L3.91377 103.508L3.98123 102.214L4.06442 100.915L4.15724 99.6091L4.25359 98.2952L4.34753 96.9712L4.43343 95.6351L4.50617 94.2846L4.56129 92.9173L4.59513 91.531L4.60503 90.1232L4.58936 88.6918L4.54719 87.2347L4.47805 85.7498L4.38189 84.2351L4.25917 82.6888L4.11087 81.1089L3.93846 79.4939L3.74399 77.8423L3.53 76.153L3.29955 74.4249L3.05618 72.6573L2.80395 70.85L2.54741 69.0027L2.2916 67.116L2.04198 65.1905L1.80444 63.2273L1.58522 61.2282L1.39085 59.1951L1.22812 57.1306L1.10401 55.0375L1.02559 52.9193L1 50.7799L1.03433 48.6235L1.13559 46.4548L1.31061 44.2788L1.566 42.101L1.90806 39.927L2.34271 37.763L2.87546 35.6151L3.51134 33.4898L4.25483 31.3937L5.10985 29.3336L6.07969 27.3163L7.16698 25.3484L8.3737 23.4368L9.7011 21.5882L11.1497 19.8091L12.7194 18.1057L14.4092 16.4841L16.2176 14.9502L18.1421 13.5093L20.1799 12.1666L22.327 10.9265L24.5793 9.79323L26.9317 8.77035L29.3787 7.86086L31.9141 7.06715L34.5314 6.39096L37.2235 5.83332L39.9829 5.39451L42.8018 5.07409L45.6722 4.87087L48.5858 4.78293L51.5344 4.80765L54.5096 4.94167L57.5031 5.18095L60.5068 5.52076L63.5125 5.95551L66.5124 6.47848L69.4984 7.08189L72.4631 7.757L75.3994 8.49423L78.3007 9.28334L81.1614 10.1135L83.9763 10.9735L86.7414 11.8518L89.4534 12.737L92.1101 13.6174L94.7102 14.4818L97.2535 15.3193L99.7406 16.1197L102.173 16.8732L104.554 17.5713L106.887 18.2057L109.175 18.7694L111.423 19.2556L113.637 19.6588L115.822 19.974L117.985 20.1973L120.131 20.3259L122.269 20.3579L124.405 20.2922L126.545 20.1292L128.697 19.87L130.867 19.5169L133.062 19.0729L135.288 18.5423L137.552 17.93L139.857 17.242L142.209 16.485L144.612 15.6662L147.069 14.794L149.583 13.8768L152.157 12.9241L154.789 11.9453L157.482 10.9507L160.235 9.9503L163.044 8.95477L165.91 7.97464L168.827 7.02047L171.791 6.10275L174.799 5.23179L177.844 4.41762L180.919 3.66994L184.018 2.99798L187.132 2.41048L190.254 1.91556L193.374 1.5207L196.485 1.23265L199.576 1.05737L202.638 1L205.661 1.06481L208.637 1.25515L211.556 1.57347L214.408 2.02127L217.186 2.59911L219.88 3.30663L222.484 4.14254L224.99 5.10469L227.391 6.1901L229.682 7.395L231.858 8.7149L233.915 10.1446L235.85 11.6783L237.66 13.3097L239.345 15.0318L240.903 16.8373L242.335 18.7185L243.644 20.6675L244.831 22.6763L245.9 24.7372L246.853 26.8425L247.694 28.985L248.427 31.1578L249.057 33.3542L249.589 35.5677L250.027 37.7924L250.377 40.0225L250.643 42.2528L250.832 44.4783L250.95 46.6946L251 48.8975L250.989 51.0834L250.922 53.2493L250.803 55.3925L250.637 57.5105L250.428 59.6013L250.183 61.6628L249.904 63.6933L249.598 65.6914L249.269 67.6557L248.922 69.5851L248.561 71.4787L248.192 73.3361L247.818 75.1566L247.445 76.9403L247.075 78.687L246.714 80.3971L246.365 82.0711L246.031 83.7095L245.715 85.3134L245.42 86.8836L245.148 88.4215L244.902 89.9283L244.683 91.4055L244.493 92.8546L244.332 94.2775L244.202 95.6757L244.101 97.0511L244.032 98.4055L243.992 99.7408L243.981 101.059L243.998 102.361L244.042 103.65L244.111 104.927L244.202 106.194L244.315 107.453L244.447 108.704L244.594 109.95L244.755 111.192L244.926 112.431L245.105 113.667L245.289 114.903L245.475 116.139L245.66 117.376L245.84 118.614L246.015 119.854L246.18 121.096L246.334 122.34L246.473 123.587" stroke="black" stroke-width="2" stroke-linejoin="round"/>
</svg>
