<svg width="252" height="252" viewBox="0 0 252 252" fill="none" xmlns="http://www.w3.org/2000/svg">
<path fill-rule="evenodd" clip-rule="evenodd" d="M244.898 115.641L244.986 116.673L245.086 117.706L245.196 118.742L245.316 119.781L245.445 120.824L245.581 121.87L245.725 122.92L245.876 123.976L246.032 125.036L246.194 126.102L246.359 127.173L246.529 128.251L246.701 129.334L246.876 130.425L247.052 131.522L247.23 132.627L247.409 133.739L247.588 134.859L247.766 135.987L247.944 137.123L248.119 138.267L248.293 139.42L248.464 140.581L248.632 141.752L248.796 142.931L248.955 144.119L249.109 145.317L249.257 146.524L249.399 147.74L249.533 148.965L249.659 150.2L249.776 151.444L249.884 152.697L249.981 153.96L250.067 155.231L250.14 156.511L250.201 157.8L250.248 159.098L250.28 160.404L250.296 161.717L250.296 163.039L250.277 164.368L250.241 165.703L250.184 167.045L250.107 168.393L250.009 169.747L249.888 171.105L249.744 172.468L249.577 173.835L249.384 175.206L249.166 176.579L248.922 177.955L248.651 179.332L248.352 180.71L248.026 182.089L247.671 183.467L247.286 184.844L246.873 186.22L246.429 187.594L245.955 188.965L245.451 190.333L244.916 191.697L244.349 193.055L243.752 194.409L243.123 195.757L242.463 197.098L241.771 198.432L241.048 199.758L240.294 201.076L239.508 202.385L238.69 203.684L237.842 204.974L236.962 206.253L236.052 207.521L235.111 208.777L234.14 210.021L233.138 211.252L232.107 212.471L231.047 213.676L229.957 214.867L228.839 216.043L227.692 217.205L226.517 218.352L225.315 219.482L224.085 220.597L222.828 221.695L221.546 222.777L220.237 223.841L218.903 224.887L217.543 225.916L216.159 226.926L214.751 227.917L213.32 228.889L211.865 229.842L210.387 230.775L208.888 231.688L207.366 232.58L205.823 233.451L204.26 234.3L202.676 235.128L201.072 235.934L199.45 236.718L197.808 237.478L196.149 238.216L194.472 238.93L192.778 239.622L191.068 240.289L189.343 240.934L187.603 241.555L185.849 242.153L184.083 242.729L182.304 243.282L180.513 243.812L178.711 244.32L176.899 244.807L175.078 245.272L173.248 245.717L171.409 246.14L169.563 246.544L167.71 246.927L165.85 247.291L163.985 247.636L162.114 247.963L160.238 248.271L158.357 248.561L156.472 248.834L154.583 249.089L152.69 249.328L150.795 249.549L148.897 249.755L146.996 249.944L145.093 250.117L143.187 250.275L141.28 250.417L139.371 250.543L137.461 250.655L135.55 250.75L133.637 250.83L131.724 250.895L129.81 250.945L127.896 250.979L125.981 250.997L124.067 251L122.152 250.987L120.238 250.957L118.325 250.912L116.412 250.849L114.5 250.77L112.59 250.674L110.682 250.561L108.775 250.429L106.871 250.28L104.969 250.113L103.071 249.927L101.176 249.722L99.2845 249.498L97.3975 249.255L95.5151 248.992L93.6378 248.709L91.7662 248.406L89.9007 248.082L88.0417 247.737L86.1898 247.372L84.3455 246.986L82.5094 246.579L80.682 246.15L78.8637 245.7L77.0552 245.228L75.257 244.735L73.4695 244.22L71.6935 243.684L69.9293 243.127L68.1775 242.548L66.4386 241.948L64.7131 241.327L63.0015 240.685L61.3043 240.022L59.6219 239.339L57.9548 238.636L56.3033 237.912L54.668 237.169L53.0492 236.407L51.4473 235.625L49.8626 234.825L48.2954 234.006L46.7461 233.17L45.215 232.316L43.7023 231.445L42.2083 230.557L40.7332 229.653L39.2773 228.733L37.8407 227.798L36.4237 226.847L35.0264 225.882L33.649 224.902L32.2917 223.909L30.9546 222.902L29.6378 221.882L28.3417 220.849L27.0665 219.804L25.8126 218.746L24.5803 217.676L23.3701 216.594L22.1825 215.499L21.0182 214.392L19.8778 213.273L18.7619 212.141L17.6714 210.997L16.6069 209.84L15.5694 208.67L14.5598 207.488L13.5789 206.292L12.6276 205.084L11.7071 203.863L10.8182 202.628L9.96191 201.381L9.13932 200.121L8.35139 198.848L7.59913 197.562L6.8835 196.263L6.20546 194.953L5.56592 193.63L4.96577 192.295L4.40581 190.949L3.8868 189.592L3.40943 188.225L2.9743 186.848L2.58192 185.461L2.23269 184.066L1.92691 182.664L1.66474 181.254L1.44622 179.838L1.27124 178.418L1.13953 176.993L1.05073 175.564L1.00439 174.134L1 172.703L1.03698 171.271L1.11467 169.84L1.23236 168.412L1.38926 166.986L1.58453 165.564L1.81725 164.146L2.08645 162.734L2.39109 161.329L2.7301 159.932L3.10233 158.542L3.50659 157.162L3.94165 155.792L4.40621 154.432L4.89895 153.084L5.41851 151.749L5.96349 150.425L6.53245 149.116L7.12394 147.82L7.73646 146.539L8.36852 145.273L9.01859 144.022L9.68512 142.787L10.3666 141.568L11.0614 140.366L11.768 139.181L12.4849 138.012L13.2105 136.861L13.9432 135.727L14.6816 134.61L15.4241 133.51L16.1692 132.428L16.9154 131.364L17.6613 130.316L18.4055 129.285L19.1465 128.272L19.8831 127.274L20.614 126.293L21.3377 125.328L22.0532 124.379L22.7593 123.445L23.4548 122.525L24.1386 121.62L24.8098 120.729L25.4673 119.851L26.1102 118.986L26.7378 118.133L27.3491 117.292L27.9436 116.461L28.5205 115.641L29.0793 114.831L29.6193 114.03L30.1403 113.237L30.6417 112.452L31.1232 111.673L31.5846 110.901L32.0258 110.134L32.4465 109.373L32.8468 108.615L33.2266 107.861L33.586 107.11L33.9252 106.36L34.2443 105.612L34.5436 104.865L34.8234 104.118L35.0841 103.37L35.326 102.621L35.5496 101.87L35.7554 101.116L35.9441 100.36L36.1161 99.6003L36.2721 98.8365L36.4129 98.0681L36.5391 97.2946L36.6514 96.5158L36.7507 95.731L36.8379 94.9399L36.9136 94.1422L36.9789 93.3376L37.0345 92.5256L37.0815 91.7061L37.1207 90.8788L37.153 90.0434L37.1795 89.1999L37.2011 88.3479L37.2187 87.4874L37.2332 86.6183L37.2457 85.7404L37.257 84.8538L37.2681 83.9583L37.2798 83.0539L37.2931 82.1407L37.3087 81.2186L37.3275 80.2877L37.3503 79.348L37.378 78.3996L37.4115 77.4426L37.4518 76.4772L37.4996 75.5037L37.556 74.5221L37.622 73.5329L37.6984 72.5363L37.7863 71.5328L37.8866 70.5226L38.0004 69.5063L38.1286 68.4843L38.2722 67.4572L38.4323 66.4256L38.6097 65.39L38.8054 64.3511L39.0204 63.3096L39.2557 62.2663L39.512 61.2219L39.7905 60.1772L40.0918 59.133L40.4168 58.0903L40.7664 57.05L41.1412 56.0129L41.542 54.9802L41.9695 53.9526L42.4243 52.9313L42.907 51.9173L43.418 50.9117L43.9579 49.9154L44.5271 48.9296L45.1258 47.9553L45.7544 46.9936L46.4131 46.0456L47.102 45.1123L47.8212 44.1948L48.5707 43.2942L49.3504 42.4113L50.1602 41.5473L50.9999 40.7031L51.8692 39.8796L52.7677 39.0777L53.6949 38.2983L54.6505 37.5422L55.6338 36.8101L56.6441 36.1027L57.6809 35.4208L58.7432 34.7648L59.8303 34.1353L60.9412 33.5327L62.0752 32.9575L63.231 32.4099L64.4078 31.8901L65.6044 31.3984L66.8197 30.9347L68.0526 30.499L69.3019 30.0913L70.5663 29.7113L71.8446 29.3588L73.1356 29.0331L74.4378 28.7337L75.75 28.4598L77.0707 28.2103L78.3985 27.9843L79.7321 27.7804L81.0702 27.5973L82.4115 27.4335L83.7547 27.2875L85.0987 27.1574L86.4423 27.0417L87.7846 26.9383L89.1245 26.8453L90.4613 26.7607L91.7942 26.6825L93.1225 26.6086L94.4458 26.5369L95.7637 26.4652L97.0758 26.3915L98.3821 26.3137L99.6825 26.2296L100.977 26.1372L102.266 26.0347L103.55 25.92L104.829 25.7913L106.104 25.647L107.375 25.4854L108.644 25.305L109.911 25.1044L111.177 24.8825L112.444 24.6382L113.712 24.3705L114.983 24.0788L116.258 23.7625L117.538 23.4214L118.825 23.0552L120.12 22.664L121.424 22.248L122.74 21.8074L124.067 21.3427L125.408 20.8545L126.763 20.3436L128.135 19.8107L129.524 19.2569L130.931 18.6833L132.358 18.0911L133.805 17.4818L135.274 16.8569L136.765 16.2179L138.279 15.5666L139.817 14.9048L141.38 14.2344L142.967 13.5575L144.579 12.876L146.216 12.1923L147.879 11.5084L149.568 10.8266L151.281 10.1494L153.019 9.47888L154.782 8.81759L156.569 8.16787L158.379 7.53212L160.212 6.91273L162.065 6.31208L163.94 5.73252L165.833 5.17639L167.745 4.64596L169.673 4.14347L171.616 3.67108L173.572 3.23092L175.54 2.825L177.518 2.45527L179.504 2.12358L181.495 1.83169L183.491 1.58124L185.488 1.37376L187.485 1.21067L189.48 1.09326L191.47 1.02269L193.453 1L195.427 1.02608L197.39 1.10168L199.339 1.22742L201.272 1.40378L203.187 1.63107L205.082 1.90948L206.955 2.23906L208.804 2.61969L210.627 3.05113L212.422 3.533L214.187 4.06477L215.92 4.6458L217.621 5.27529L219.287 5.95234L220.918 6.67597L222.511 7.44512L224.066 8.25872L225.581 9.11565L227.056 10.0147L228.489 10.9548L229.879 11.9345L231.225 12.9526L232.527 14.0077L233.784 15.0985L234.996 16.2234L236.161 17.3812L237.279 18.5701L238.351 19.7888L239.375 21.0355L240.353 22.3089L241.283 23.6071L242.166 24.9287L243.002 26.272L243.792 27.6354L244.536 29.0172L245.234 30.4157L245.887 31.8295L246.496 33.2568L247.061 34.6962L247.583 36.146L248.064 37.6048L248.504 39.0711L248.904 40.5435L249.266 42.0205L249.59 43.501L249.877 44.9835L250.129 46.467L250.346 47.9503L250.531 49.4324L250.683 50.9121L250.804 52.3888L250.895 53.8614L250.958 55.3291L250.992 56.7912L251 58.2469L250.983 59.6953L250.941 61.1358L250.877 62.5678L250.791 63.9905L250.685 65.4034L250.561 66.806L250.419 68.1977L250.262 69.578L250.09 70.9466L249.905 72.303L249.709 73.647L249.503 74.9783L249.288 76.2966L249.066 77.6017L248.838 78.8936L248.606 80.1722L248.371 81.4373L248.134 82.6891L247.897 83.9276L247.661 85.1528L247.428 86.365L247.197 87.5644L246.971 88.7511L246.751 89.9255L246.537 91.0879L246.331 92.2385L246.134 93.378L245.946 94.5065L245.768 95.6246L245.601 96.7328L245.446 97.8316L245.303 98.9216L245.173 100.003L245.056 101.077L244.953 102.144L244.864 103.204L244.789 104.258L244.728 105.307L244.682 106.351L244.65 107.391L244.633 108.428L244.63 109.462L244.641 110.493L244.666 111.524L244.704 112.553L244.756 113.582L244.821 114.611L244.898 115.641Z" fill="#F9F9F9"/>
<path d="M244.898 115.641V115.641ZM244.898 115.641L244.986 116.673L245.086 117.706L245.196 118.742L245.316 119.781L245.445 120.824L245.581 121.87L245.725 122.92L245.876 123.976L246.032 125.036L246.194 126.102L246.359 127.173L246.529 128.251L246.701 129.334L246.876 130.425L247.052 131.522L247.23 132.627L247.409 133.739L247.588 134.859L247.766 135.987L247.944 137.123L248.119 138.267L248.293 139.42L248.464 140.581L248.632 141.752L248.796 142.931L248.955 144.119L249.109 145.317L249.257 146.524L249.399 147.74L249.533 148.965L249.659 150.2L249.776 151.444L249.884 152.697L249.981 153.96L250.067 155.231L250.14 156.511L250.201 157.8L250.248 159.098L250.28 160.404L250.296 161.717L250.296 163.039L250.277 164.368L250.241 165.703L250.184 167.045L250.107 168.393L250.009 169.747L249.888 171.105L249.744 172.468L249.577 173.835L249.384 175.206L249.166 176.579L248.922 177.955L248.651 179.332L248.352 180.71L248.026 182.089L247.671 183.467L247.286 184.844L246.873 186.22L246.429 187.594L245.955 188.965L245.451 190.333L244.916 191.697L244.349 193.056L243.752 194.409L243.123 195.757L242.463 197.098L241.771 198.432L241.048 199.758L240.294 201.076L239.508 202.385L238.69 203.684L237.842 204.974L236.962 206.253L236.052 207.521L235.111 208.777L234.14 210.021L233.138 211.252L232.107 212.471L231.047 213.676L229.957 214.867L228.839 216.043L227.692 217.205L226.517 218.352L225.315 219.482L224.085 220.597L222.828 221.695L221.546 222.777L220.237 223.841L218.903 224.887L217.543 225.916L216.159 226.926L214.751 227.917L213.32 228.889L211.865 229.842L210.387 230.775L208.888 231.688L207.366 232.58L205.823 233.451L204.26 234.3L202.676 235.128L201.072 235.934L199.45 236.718L197.808 237.478L196.149 238.216L194.472 238.93L192.778 239.622L191.068 240.289L189.343 240.934L187.603 241.555L185.849 242.153L184.083 242.729L182.304 243.282L180.513 243.812L178.711 244.32L176.899 244.807L175.078 245.272L173.248 245.717L171.409 246.14L169.563 246.544L167.71 246.927L165.85 247.291L163.985 247.636L162.114 247.963L160.237 248.271L158.357 248.561L156.472 248.834L154.583 249.089L152.69 249.328L150.795 249.549L148.897 249.755L146.996 249.944L145.093 250.117L143.187 250.275L141.28 250.417L139.371 250.543L137.461 250.655L135.55 250.75L133.637 250.83L131.724 250.895L129.81 250.945L127.896 250.979L125.981 250.997L124.067 251L122.152 250.987L120.238 250.957L118.325 250.912L116.412 250.849L114.5 250.77L112.59 250.674L110.682 250.561L108.775 250.429L106.871 250.28L104.969 250.113L103.071 249.927L101.176 249.722L99.2845 249.498L97.3975 249.255L95.5151 248.992L93.6378 248.709L91.7662 248.406L89.9006 248.082L88.0417 247.737L86.1898 247.372L84.3455 246.986L82.5094 246.579L80.682 246.15L78.8637 245.7L77.0552 245.228L75.257 244.735L73.4695 244.22L71.6935 243.684L69.9293 243.127L68.1775 242.548L66.4386 241.948L64.7131 241.327L63.0015 240.685L61.3043 240.022L59.6219 239.339L57.9548 238.636L56.3033 237.912L54.668 237.169L53.0492 236.407L51.4473 235.625L49.8626 234.825L48.2954 234.006L46.7461 233.17L45.215 232.316L43.7023 231.445L42.2083 230.557L40.7332 229.653L39.2773 228.733L37.8407 227.798L36.4237 226.847L35.0264 225.882L33.649 224.902L32.2917 223.909L30.9546 222.902L29.6378 221.882L28.3417 220.849L27.0665 219.804L25.8126 218.746L24.5803 217.676L23.3701 216.594L22.1825 215.499L21.0182 214.392L19.8778 213.273L18.7619 212.141L17.6714 210.997L16.6069 209.84L15.5694 208.67L14.5598 207.488L13.5789 206.292L12.6276 205.084L11.7071 203.863L10.8182 202.628L9.96191 201.381L9.13932 200.121L8.35139 198.848L7.59913 197.562L6.8835 196.263L6.20546 194.953L5.56592 193.63L4.96577 192.295L4.40581 190.949L3.8868 189.592L3.40943 188.225L2.9743 186.848L2.58192 185.461L2.23269 184.066L1.92691 182.664L1.66474 181.254L1.44622 179.838L1.27124 178.418L1.13953 176.993L1.05073 175.564L1.00439 174.134L1 172.703L1.03698 171.271L1.11467 169.84L1.23236 168.412L1.38926 166.986L1.58453 165.564L1.81725 164.146L2.08645 162.734L2.39109 161.329L2.7301 159.932L3.10233 158.542L3.50659 157.162L3.94165 155.792L4.40621 154.432L4.89895 153.084L5.41851 151.749L5.96349 150.425L6.53245 149.116L7.12394 147.82L7.73646 146.539L8.36852 145.273L9.01859 144.022L9.68512 142.787L10.3666 141.568L11.0614 140.366L11.768 139.181L12.4849 138.012L13.2105 136.861L13.9432 135.727L14.6816 134.61L15.4241 133.51L16.1692 132.428L16.9154 131.364L17.6613 130.316L18.4055 129.285L19.1465 128.272L19.8831 127.274L20.614 126.293L21.3377 125.328L22.0532 124.379L22.7593 123.445L23.4548 122.525L24.1386 121.62L24.8098 120.729L25.4673 119.851L26.1102 118.986L26.7378 118.133L27.3491 117.292L27.9436 116.461L28.5205 115.641L29.0793 114.831L29.6193 114.03L30.1403 113.237L30.6417 112.452L31.1232 111.673L31.5846 110.901L32.0258 110.134L32.4465 109.373L32.8468 108.615L33.2266 107.861L33.586 107.11L33.9252 106.36L34.2443 105.612L34.5436 104.865L34.8234 104.118L35.0841 103.37L35.326 102.621L35.5496 101.87L35.7554 101.116L35.9441 100.36L36.1161 99.6003L36.2721 98.8365L36.4129 98.0681L36.5391 97.2946L36.6514 96.5158L36.7507 95.731L36.8379 94.9399L36.9136 94.1422L36.9789 93.3376L37.0345 92.5256L37.0815 91.7061L37.1207 90.8788L37.153 90.0434L37.1795 89.1999L37.2011 88.3479L37.2187 87.4874L37.2333 86.6183L37.2457 85.7404L37.257 84.8538L37.2681 83.9583L37.2798 83.0539L37.2931 82.1407L37.3087 81.2186L37.3275 80.2877L37.3503 79.348L37.378 78.3996L37.4115 77.4426L37.4518 76.4772L37.4996 75.5037L37.556 74.5221L37.622 73.5329L37.6984 72.5363L37.7863 71.5328L37.8866 70.5226L38.0004 69.5063L38.1286 68.4843L38.2722 67.4572L38.4323 66.4256L38.6097 65.39L38.8054 64.3511L39.0204 63.3096L39.2557 62.2663L39.512 61.2219L39.7905 60.1772L40.0918 59.133L40.4168 58.0903L40.7664 57.05L41.1412 56.0129L41.542 54.9802L41.9695 53.9526L42.4243 52.9313L42.907 51.9173L43.418 50.9117L43.9579 49.9154L44.5271 48.9296L45.1258 47.9553L45.7544 46.9936L46.4131 46.0456L47.102 45.1123L47.8212 44.1948L48.5707 43.2942L49.3504 42.4113L50.1602 41.5473L50.9999 40.7031L51.8692 39.8796L52.7677 39.0777L53.6949 38.2983L54.6505 37.5422L55.6338 36.8101L56.6441 36.1027L57.6809 35.4208L58.7432 34.7648L59.8303 34.1353L60.9413 33.5327L62.0752 32.9575L63.231 32.4099L64.4078 31.8901L65.6044 31.3984L66.8197 30.9347L68.0526 30.499L69.3019 30.0913L70.5663 29.7113L71.8446 29.3588L73.1356 29.0331L74.4378 28.7337L75.75 28.4598L77.0707 28.2103L78.3985 27.9843L79.7321 27.7804L81.0702 27.5973L82.4115 27.4335L83.7547 27.2875L85.0987 27.1574L86.4423 27.0417L87.7846 26.9383L89.1245 26.8453L90.4613 26.7607L91.7942 26.6825L93.1225 26.6086L94.4458 26.5369L95.7637 26.4652L97.0758 26.3915L98.3821 26.3137L99.6825 26.2296L100.977 26.1372L102.266 26.0347L103.55 25.92L104.829 25.7913L106.104 25.647L107.375 25.4854L108.644 25.305L109.911 25.1044L111.177 24.8825L112.444 24.6382L113.712 24.3705L114.983 24.0788L116.258 23.7625L117.538 23.4214L118.825 23.0552L120.12 22.664L121.424 22.248L122.74 21.8074L124.067 21.3427L125.408 20.8545L126.763 20.3436L128.135 19.8107L129.524 19.2569L130.931 18.6833L132.358 18.0911L133.805 17.4818L135.274 16.8569L136.765 16.2179L138.279 15.5666L139.817 14.9048L141.38 14.2344L142.967 13.5575L144.579 12.876L146.216 12.1923L147.879 11.5084L149.568 10.8266L151.281 10.1494L153.019 9.47888L154.782 8.81759L156.569 8.16787L158.379 7.53212L160.212 6.91273L162.065 6.31208L163.94 5.73252L165.833 5.17639L167.745 4.64596L169.673 4.14347L171.616 3.67108L173.572 3.23092L175.54 2.825L177.518 2.45527L179.504 2.12358L181.495 1.83169L183.491 1.58124L185.488 1.37376L187.485 1.21067L189.48 1.09326L191.47 1.02269L193.453 1L195.427 1.02608L197.39 1.10168L199.339 1.22742L201.272 1.40378L203.187 1.63107L205.082 1.90948L206.955 2.23906L208.804 2.61969L210.627 3.05113L212.422 3.533L214.187 4.06477L215.92 4.6458L217.621 5.27529L219.287 5.95234L220.918 6.67597L222.511 7.44512L224.066 8.25872L225.581 9.11565L227.056 10.0147L228.489 10.9548L229.879 11.9345L231.225 12.9526L232.527 14.0077L233.784 15.0985L234.996 16.2234L236.161 17.3812L237.279 18.5701L238.351 19.7888L239.375 21.0355L240.353 22.3089L241.283 23.6071L242.166 24.9287L243.002 26.272L243.792 27.6354L244.536 29.0172L245.234 30.4157L245.887 31.8295L246.496 33.2568L247.061 34.6962L247.583 36.146L248.064 37.6048L248.504 39.0711L248.904 40.5435L249.266 42.0205L249.59 43.501L249.877 44.9835L250.129 46.467L250.347 47.9503L250.531 49.4324L250.683 50.9121L250.804 52.3888L250.895 53.8614L250.958 55.3291L250.992 56.7912L251 58.2469L250.983 59.6953L250.941 61.1358L250.877 62.5678L250.791 63.9905L250.685 65.4034L250.561 66.806L250.419 68.1977L250.262 69.578L250.09 70.9466L249.905 72.303L249.709 73.647L249.503 74.9783L249.288 76.2966L249.066 77.6017L248.838 78.8936L248.606 80.1722L248.371 81.4373L248.134 82.6891L247.897 83.9276L247.661 85.1528L247.428 86.365L247.197 87.5644L246.971 88.7511L246.751 89.9255L246.537 91.0879L246.331 92.2386L246.134 93.378L245.946 94.5065L245.768 95.6246L245.601 96.7328L245.446 97.8316L245.303 98.9216L245.173 100.003L245.056 101.077L244.953 102.144L244.864 103.204L244.789 104.258L244.728 105.307L244.682 106.351L244.65 107.391L244.633 108.428L244.63 109.462L244.641 110.493L244.666 111.524L244.704 112.553L244.756 113.582L244.821 114.611L244.898 115.641" stroke="black" stroke-width="2" stroke-linejoin="round"/>
</svg>
