<svg width="252" height="252" viewBox="0 0 252 252" fill="none" xmlns="http://www.w3.org/2000/svg">
<path fill-rule="evenodd" clip-rule="evenodd" d="M250.931 133.017L251 134.322L250.993 135.628L250.91 136.932L250.751 138.232L250.516 139.526L250.205 140.812L249.82 142.087L249.361 143.35L248.831 144.599L248.23 145.831L247.562 147.046L246.828 148.242L246.031 149.416L245.175 150.569L244.261 151.698L243.293 152.802L242.275 153.881L241.21 154.933L240.101 155.958L238.953 156.956L237.77 157.927L236.554 158.869L235.31 159.784L234.043 160.671L232.755 161.531L231.453 162.365L230.14 163.173L228.821 163.957L227.501 164.719L226.184 165.458L224.874 166.178L223.577 166.88L222.295 167.566L221.032 168.237L219.792 168.897L218.578 169.547L217.392 170.189L216.237 170.825L215.116 171.459L214.029 172.091L212.979 172.724L211.967 173.36L210.993 174.001L210.058 174.65L209.163 175.307L208.308 175.974L207.491 176.654L206.714 177.348L205.974 178.058L205.272 178.783L204.606 179.527L203.975 180.289L203.377 181.071L202.81 181.874L202.273 182.698L201.765 183.543L201.282 184.41L200.822 185.299L200.385 186.21L199.966 187.143L199.564 188.097L199.177 189.073L198.802 190.069L198.436 191.085L198.077 192.12L197.723 193.173L197.371 194.243L197.018 195.329L196.663 196.428L196.303 197.541L195.936 198.664L195.559 199.797L195.17 200.938L194.768 202.085L194.35 203.235L193.914 204.388L193.459 205.54L192.984 206.691L192.486 207.837L191.965 208.976L191.418 210.108L190.846 211.229L190.247 212.337L189.62 213.431L188.965 214.508L188.281 215.567L187.569 216.605L186.827 217.622L186.055 218.615L185.255 219.582L184.426 220.523L183.568 221.435L182.681 222.318L181.768 223.171L180.827 223.993L179.861 224.782L178.869 225.538L177.853 226.261L176.814 226.95L175.753 227.604L174.671 228.224L173.569 228.809L172.448 229.36L171.31 229.876L170.155 230.358L168.986 230.805L167.803 231.219L166.606 231.598L165.399 231.944L164.18 232.257L162.952 232.536L161.716 232.783L160.472 232.996L159.221 233.177L157.965 233.325L156.704 233.441L155.439 233.525L154.172 233.579L152.904 233.605L151.637 233.608L150.371 233.59L149.107 233.555L147.848 233.509L146.594 233.456L145.345 233.401L144.102 233.348L142.866 233.302L141.635 233.268L140.41 233.251L139.191 233.255L137.976 233.283L136.764 233.34L135.555 233.429L134.347 233.552L133.139 233.712L131.929 233.912L130.715 234.152L129.495 234.434L128.269 234.758L127.033 235.124L125.786 235.533L124.526 235.983L123.252 236.472L121.961 237L120.653 237.563L119.326 238.159L117.978 238.786L116.609 239.438L115.217 240.114L113.802 240.808L112.364 241.517L110.902 242.235L109.417 242.959L107.908 243.682L106.376 244.399L104.823 245.106L103.249 245.797L101.656 246.467L100.045 247.11L98.4177 247.721L96.777 248.295L95.125 248.826L93.4642 249.31L91.7975 249.742L90.1278 250.117L88.4583 250.431L86.7922 250.68L85.133 250.86L83.4841 250.968L81.8493 251L80.232 250.954L78.636 250.828L77.0651 250.619L75.5227 250.326L74.0125 249.947L72.538 249.483L71.1026 248.933L69.7096 248.296L68.3621 247.574L67.0631 246.768L65.8152 245.878L64.621 244.906L63.4828 243.855L62.4027 242.726L61.3823 241.523L60.4231 240.249L59.5264 238.907L58.6931 237.501L57.9237 236.034L57.2185 234.511L56.5776 232.936L56.0006 231.313L55.487 229.646L55.0358 227.941L54.6459 226.201L54.3158 224.432L54.044 222.637L53.8285 220.823L53.6672 218.992L53.5578 217.15L53.4977 215.3L53.4844 213.448L53.5149 211.597L53.5864 209.75L53.6956 207.912L53.8395 206.087L54.0146 204.276L54.2173 202.485L54.4435 200.717L54.6883 198.975L54.9464 197.263L55.2122 195.585L55.4796 193.946L55.7422 192.348L55.9935 190.796L56.2269 189.292L56.436 187.838L56.6141 186.438L56.7549 185.093L56.8524 183.804L56.9006 182.572L56.894 181.398L56.8274 180.282L56.6962 179.223L56.4961 178.219L56.2232 177.27L55.8745 176.374L55.4471 175.528L54.9391 174.73L54.3487 173.976L53.6752 173.264L52.9181 172.59L52.0776 171.95L51.1547 171.34L50.1505 170.755L49.0672 170.193L47.9071 169.648L46.6733 169.117L45.3693 168.594L43.9991 168.076L42.5671 167.558L41.0781 167.037L39.5374 166.508L37.9506 165.967L36.3236 165.411L34.6625 164.836L32.9738 164.239L31.2641 163.617L29.5402 162.967L27.8092 162.287L26.0779 161.575L24.3536 160.829L22.6434 160.046L20.9543 159.227L19.2934 158.37L17.6677 157.475L16.0841 156.54L14.5491 155.567L13.0694 154.555L11.6512 153.505L10.3005 152.419L9.02312 151.296L7.8244 150.139L6.70947 148.949L5.68305 147.729L4.74949 146.48L3.91272 145.205L3.17622 143.906L2.54305 142.587L2.01577 141.249L1.59649 139.896L1.28679 138.531L1.08777 137.158L1 135.779L1.02353 134.397L1.15789 133.017L1.40208 131.64L1.75457 130.271L2.21333 128.912L2.77581 127.566L3.43896 126.236L4.19925 124.925L5.05268 123.636L5.99484 122.37L7.02088 121.13L8.12557 119.918L9.30336 118.734L10.5483 117.582L11.8544 116.461L13.2152 115.373L14.6243 114.318L16.0749 113.297L17.5606 112.309L19.0746 111.354L20.6106 110.432L22.1621 109.542L23.7231 108.682L25.2879 107.852L26.8513 107.051L28.4086 106.277L29.9558 105.529L31.4896 104.806L33.0074 104.105L34.5073 103.427L35.988 102.77L37.4484 102.133L38.888 101.514L40.3062 100.914L41.7031 100.332L43.0785 99.7661L44.4327 99.2161L45.7656 98.6815L47.0777 98.1615L48.369 97.6555L49.6398 97.1628L50.8904 96.6829L52.1209 96.215L53.3315 95.7587L54.5223 95.3131L55.6932 94.8776L56.8445 94.4515L57.9761 94.0341L59.088 93.6246L60.1801 93.2223L61.2524 92.8263L62.3048 92.4359L63.3372 92.0501L64.3497 91.6683L65.342 91.2894L66.3143 90.9126L67.2664 90.537L68.1984 90.1618L69.1104 89.786L70.0022 89.4087L70.8742 89.0291L71.7263 88.6463L72.5587 88.2593L73.3717 87.8673L74.1654 87.4693L74.9399 87.0646L75.6957 86.6522L76.433 86.2312L77.152 85.8007L77.8531 85.3598L78.5366 84.9076L79.2028 84.4432L79.8521 83.9656L80.4848 83.4738L81.1012 82.9668L81.7017 82.4436L82.2867 81.9031L82.8564 81.3442L83.4114 80.7658L83.9519 80.1667L84.4783 79.5456L84.991 78.9013L85.4904 78.2325L85.977 77.5379L86.4513 76.816L86.9137 76.0656L87.3648 75.2852L87.8051 74.4733L88.2355 73.6287L88.6565 72.7499L89.0689 71.8355L89.4737 70.8842L89.8718 69.8949L90.2643 68.8663L90.6522 67.7974L91.0369 66.6872L91.4197 65.5349L91.8021 64.34L92.1856 63.1019L92.5719 61.8204L92.9629 60.4955L93.3603 59.1275L93.7661 57.7169L94.1824 56.2645L94.6114 54.7714L95.0552 53.2392L95.5161 51.6696L95.9963 50.0648L96.4981 48.4273L97.0239 46.7601L97.5759 45.0665L98.1563 43.35L98.7673 41.6148L99.411 39.8651L100.089 38.1058L100.804 36.3418L101.556 34.5783L102.349 32.821L103.181 31.0756L104.056 29.3475L104.973 27.6421L105.932 25.9644L106.934 24.3192L107.978 22.7107L109.064 21.143L110.191 19.6199L111.358 18.1447L112.564 16.7203L113.808 15.3495L115.088 14.0347L116.402 12.7779L117.75 11.5809L119.129 10.4452L120.537 9.37208L121.973 8.36246L123.434 7.41716L124.919 6.53675L126.425 5.72161L127.951 4.97198L129.495 4.28793L131.055 3.66942L132.628 3.11628L134.213 2.62826L135.808 2.20503L137.411 1.84618L139.02 1.55125L140.634 1.31973L142.25 1.15107L143.866 1.0447L145.481 1L147.094 1.01635L148.702 1.09309L150.304 1.22954L151.897 1.425L153.482 1.67875L155.055 1.99003L156.615 2.35806L158.161 2.782L159.692 3.261L161.205 3.79412L162.7 4.38039L164.175 5.01878L165.628 5.70817L167.059 6.4474L168.466 7.23521L169.848 8.07025L171.204 8.9511L172.534 9.87625L173.835 10.8441L175.108 11.8529L176.351 12.901L177.564 13.9864L178.747 15.1072L179.899 16.2613L181.02 17.4467L182.109 18.6613L183.167 19.9027L184.194 21.1689L185.19 22.4573L186.154 23.7659L187.089 25.0923L187.993 26.4342L188.868 27.7893L189.715 29.1555L190.534 30.5306L191.325 31.9125L192.091 33.2993L192.832 34.689L193.548 36.0799L194.241 37.4704L194.912 38.8589L195.561 40.244L196.19 41.6246L196.8 42.9996L197.391 44.368L197.965 45.729L198.522 47.0821L199.062 48.4268L199.587 49.7625L200.096 51.0891L200.592 52.4063L201.073 53.7138L201.541 55.0117L201.996 56.2996L202.439 57.5774L202.87 58.8448L203.291 60.1013L203.702 61.3463L204.105 62.579L204.502 63.7983L204.894 65.0038L205.282 66.1949L205.668 67.3715L206.051 68.5335L206.434 69.681L206.817 70.8141L207.201 71.9329L207.586 73.0376L207.974 74.1284L208.366 75.2053L208.762 76.2684L209.163 77.3178L209.572 78.3535L209.989 79.3754L210.416 80.3836L210.853 81.3781L211.304 82.3589L211.769 83.3261L212.251 84.2796L212.75 85.2198L213.268 86.1467L213.808 87.0607L214.371 87.9623L214.958 88.8518L215.57 89.7299L216.21 90.5974L216.878 91.4549L217.574 92.3036L218.301 93.1443L219.058 93.9784L219.845 94.807L220.663 95.6315L221.511 96.4534L222.389 97.2741L223.295 98.0952L224.23 98.9184L225.191 99.7453L226.177 100.578L227.185 101.417L228.214 102.265L229.261 103.123L230.323 103.993L231.397 104.877L232.48 105.775L233.568 106.69L234.658 107.622L235.745 108.572L236.827 109.542L237.898 110.532L238.955 111.543L239.992 112.575L241.007 113.629L241.995 114.704L242.951 115.802L243.871 116.921L244.752 118.061L245.588 119.222L246.377 120.402L247.115 121.601L247.797 122.818L248.421 124.052L248.984 125.3L249.482 126.563L249.914 127.837L250.276 129.121L250.568 130.414L250.786 131.713L250.931 133.017Z" fill="#F9F9F9"/>
<path d="M250.931 133.017V133.017ZM250.931 133.017L251 134.322L250.993 135.628L250.91 136.932L250.751 138.232L250.516 139.526L250.205 140.812L249.82 142.087L249.361 143.35L248.831 144.599L248.23 145.831L247.562 147.046L246.828 148.242L246.031 149.416L245.175 150.569L244.261 151.698L243.293 152.802L242.275 153.881L241.21 154.933L240.101 155.958L238.953 156.956L237.77 157.927L236.554 158.869L235.31 159.784L234.043 160.671L232.755 161.531L231.453 162.365L230.14 163.173L228.821 163.957L227.501 164.719L226.184 165.458L224.874 166.178L223.577 166.88L222.295 167.565L221.032 168.237L219.792 168.897L218.578 169.547L217.392 170.189L216.237 170.825L215.116 171.459L214.029 172.091L212.979 172.724L211.967 173.36L210.993 174.001L210.058 174.65L209.163 175.307L208.308 175.974L207.491 176.654L206.714 177.348L205.974 178.058L205.272 178.783L204.606 179.527L203.975 180.289L203.377 181.071L202.81 181.874L202.273 182.698L201.765 183.543L201.282 184.41L200.822 185.299L200.385 186.21L199.966 187.143L199.564 188.097L199.177 189.073L198.802 190.069L198.436 191.085L198.077 192.12L197.723 193.173L197.371 194.243L197.018 195.329L196.663 196.428L196.303 197.541L195.936 198.664L195.559 199.797L195.17 200.938L194.768 202.085L194.35 203.235L193.914 204.388L193.459 205.54L192.984 206.691L192.486 207.837L191.965 208.976L191.418 210.108L190.846 211.229L190.247 212.337L189.62 213.431L188.965 214.508L188.281 215.567L187.569 216.605L186.827 217.622L186.055 218.615L185.255 219.582L184.426 220.523L183.568 221.435L182.681 222.318L181.768 223.171L180.827 223.993L179.861 224.782L178.869 225.538L177.853 226.261L176.814 226.95L175.753 227.604L174.671 228.224L173.569 228.809L172.448 229.36L171.31 229.876L170.155 230.358L168.986 230.805L167.803 231.219L166.606 231.598L165.399 231.944L164.18 232.257L162.952 232.536L161.716 232.783L160.472 232.996L159.221 233.177L157.965 233.325L156.704 233.441L155.439 233.525L154.172 233.579L152.904 233.605L151.637 233.608L150.371 233.59L149.107 233.555L147.848 233.509L146.594 233.456L145.345 233.401L144.102 233.348L142.866 233.302L141.635 233.268L140.41 233.251L139.191 233.255L137.976 233.283L136.764 233.34L135.555 233.429L134.347 233.552L133.139 233.712L131.929 233.912L130.715 234.152L129.495 234.434L128.269 234.758L127.033 235.124L125.786 235.533L124.526 235.983L123.252 236.472L121.961 237L120.653 237.563L119.326 238.159L117.978 238.786L116.609 239.438L115.217 240.114L113.802 240.808L112.364 241.517L110.902 242.235L109.417 242.959L107.908 243.682L106.376 244.399L104.823 245.106L103.249 245.797L101.656 246.467L100.045 247.11L98.4177 247.721L96.777 248.295L95.125 248.826L93.4642 249.31L91.7975 249.742L90.1278 250.117L88.4583 250.431L86.7922 250.68L85.133 250.86L83.4841 250.968L81.8492 251L80.232 250.954L78.636 250.828L77.0651 250.619L75.5227 250.326L74.0125 249.947L72.538 249.483L71.1026 248.933L69.7096 248.296L68.3621 247.574L67.0631 246.768L65.8152 245.878L64.621 244.906L63.4828 243.855L62.4027 242.726L61.3823 241.523L60.4231 240.249L59.5264 238.907L58.6931 237.501L57.9237 236.034L57.2185 234.511L56.5776 232.936L56.0006 231.313L55.487 229.646L55.0358 227.941L54.6459 226.201L54.3158 224.432L54.044 222.637L53.8285 220.823L53.6672 218.992L53.5578 217.15L53.4977 215.3L53.4844 213.448L53.5149 211.597L53.5864 209.75L53.6956 207.912L53.8395 206.087L54.0146 204.276L54.2173 202.485L54.4435 200.717L54.6883 198.975L54.9464 197.263L55.2122 195.585L55.4796 193.946L55.7422 192.348L55.9935 190.796L56.2269 189.292L56.436 187.838L56.6141 186.438L56.7549 185.093L56.8524 183.804L56.9006 182.572L56.894 181.398L56.8274 180.282L56.6962 179.223L56.4961 178.219L56.2232 177.27L55.8745 176.374L55.4471 175.528L54.9391 174.73L54.3487 173.976L53.6752 173.264L52.9181 172.59L52.0776 171.95L51.1547 171.34L50.1505 170.755L49.0672 170.193L47.9071 169.648L46.6733 169.117L45.3693 168.594L43.9991 168.076L42.5671 167.558L41.0781 167.037L39.5374 166.508L37.9506 165.967L36.3236 165.411L34.6625 164.836L32.9738 164.239L31.2641 163.617L29.5402 162.967L27.8092 162.287L26.0779 161.575L24.3536 160.829L22.6434 160.046L20.9543 159.227L19.2934 158.37L17.6677 157.475L16.0841 156.54L14.5491 155.567L13.0694 154.555L11.6512 153.505L10.3005 152.419L9.02312 151.296L7.8244 150.139L6.70947 148.949L5.68305 147.729L4.74949 146.48L3.91272 145.205L3.17622 143.906L2.54305 142.587L2.01577 141.249L1.59649 139.896L1.28679 138.531L1.08777 137.158L1 135.779L1.02353 134.397L1.15789 133.017L1.40208 131.64L1.75457 130.271L2.21333 128.912L2.77581 127.566L3.43896 126.236L4.19925 124.925L5.05269 123.636L5.99484 122.37L7.02088 121.13L8.12557 119.918L9.30335 118.734L10.5483 117.582L11.8544 116.461L13.2152 115.373L14.6243 114.318L16.0749 113.297L17.5606 112.309L19.0746 111.354L20.6106 110.432L22.1621 109.542L23.7231 108.682L25.2879 107.852L26.8513 107.051L28.4086 106.277L29.9558 105.529L31.4896 104.806L33.0074 104.105L34.5073 103.427L35.988 102.77L37.4484 102.133L38.888 101.514L40.3062 100.914L41.7031 100.332L43.0785 99.7661L44.4327 99.2162L45.7656 98.6815L47.0777 98.1615L48.369 97.6555L49.6398 97.1628L50.8904 96.6829L52.1209 96.215L53.3315 95.7587L54.5222 95.3131L55.6932 94.8776L56.8445 94.4515L57.9761 94.0341L59.088 93.6246L60.1801 93.2223L61.2524 92.8263L62.3048 92.4359L63.3372 92.0502L64.3497 91.6683L65.342 91.2894L66.3143 90.9126L67.2664 90.537L68.1984 90.1618L69.1104 89.786L70.0022 89.4087L70.8742 89.0291L71.7263 88.6463L72.5587 88.2593L73.3717 87.8673L74.1654 87.4693L74.9399 87.0646L75.6957 86.6522L76.433 86.2312L77.152 85.8007L77.8531 85.3598L78.5366 84.9076L79.2028 84.4432L79.8521 83.9656L80.4848 83.4738L81.1012 82.9668L81.7017 82.4436L82.2867 81.9031L82.8564 81.3442L83.4114 80.7658L83.9519 80.1667L84.4783 79.5456L84.991 78.9013L85.4904 78.2325L85.977 77.5379L86.4513 76.816L86.9137 76.0656L87.3648 75.2852L87.8051 74.4733L88.2355 73.6287L88.6565 72.7499L89.0689 71.8355L89.4737 70.8842L89.8718 69.8949L90.2643 68.8663L90.6522 67.7974L91.0369 66.6872L91.4197 65.5349L91.8021 64.34L92.1856 63.1019L92.5719 61.8204L92.9629 60.4955L93.3603 59.1275L93.7661 57.7169L94.1824 56.2645L94.6114 54.7714L95.0552 53.2392L95.516 51.6696L95.9963 50.0648L96.4981 48.4273L97.0239 46.7601L97.5759 45.0665L98.1563 43.35L98.7673 41.6148L99.411 39.8651L100.089 38.1058L100.804 36.3418L101.556 34.5783L102.349 32.821L103.181 31.0756L104.056 29.3475L104.973 27.6421L105.932 25.9644L106.934 24.3192L107.978 22.7107L109.064 21.143L110.191 19.6199L111.358 18.1447L112.564 16.7203L113.808 15.3495L115.088 14.0347L116.402 12.7779L117.75 11.5809L119.129 10.4452L120.537 9.37208L121.973 8.36247L123.434 7.41716L124.919 6.53675L126.425 5.72161L127.951 4.97198L129.495 4.28793L131.055 3.66942L132.628 3.11628L134.213 2.62826L135.808 2.20503L137.411 1.84618L139.02 1.55125L140.634 1.31973L142.25 1.15107L143.866 1.0447L145.481 1L147.094 1.01635L148.702 1.09309L150.304 1.22954L151.897 1.425L153.482 1.67875L155.055 1.99003L156.615 2.35806L158.161 2.782L159.692 3.261L161.205 3.79412L162.7 4.38039L164.175 5.01878L165.628 5.70817L167.059 6.4474L168.466 7.23521L169.848 8.07025L171.204 8.9511L172.534 9.87625L173.835 10.8441L175.108 11.8529L176.351 12.901L177.564 13.9864L178.747 15.1072L179.899 16.2613L181.02 17.4467L182.109 18.6613L183.167 19.9027L184.194 21.1689L185.19 22.4573L186.154 23.7659L187.089 25.0923L187.993 26.4342L188.868 27.7893L189.715 29.1555L190.534 30.5306L191.325 31.9125L192.091 33.2993L192.832 34.689L193.548 36.0799L194.241 37.4704L194.912 38.8589L195.561 40.244L196.19 41.6246L196.8 42.9996L197.391 44.368L197.965 45.729L198.522 47.0821L199.062 48.4268L199.587 49.7625L200.096 51.0891L200.592 52.4063L201.073 53.7138L201.541 55.0117L201.996 56.2996L202.439 57.5774L202.87 58.8448L203.291 60.1013L203.702 61.3463L204.105 62.579L204.502 63.7983L204.894 65.0038L205.282 66.1949L205.668 67.3715L206.051 68.5335L206.434 69.681L206.817 70.8141L207.201 71.9329L207.586 73.0376L207.974 74.1284L208.366 75.2053L208.762 76.2684L209.163 77.3178L209.572 78.3535L209.989 79.3754L210.416 80.3836L210.853 81.3781L211.304 82.3589L211.769 83.3261L212.251 84.2796L212.75 85.2198L213.268 86.1467L213.808 87.0607L214.371 87.9623L214.958 88.8518L215.57 89.7299L216.21 90.5974L216.878 91.4549L217.574 92.3036L218.301 93.1443L219.058 93.9784L219.845 94.807L220.663 95.6315L221.511 96.4534L222.389 97.2741L223.295 98.0952L224.23 98.9184L225.191 99.7453L226.177 100.578L227.185 101.417L228.214 102.265L229.261 103.123L230.323 103.993L231.397 104.877L232.48 105.775L233.568 106.69L234.658 107.622L235.745 108.572L236.827 109.542L237.898 110.532L238.955 111.543L239.992 112.575L241.007 113.629L241.995 114.704L242.951 115.802L243.871 116.921L244.752 118.061L245.588 119.222L246.377 120.402L247.115 121.601L247.797 122.818L248.421 124.052L248.984 125.3L249.482 126.563L249.914 127.837L250.276 129.121L250.568 130.414L250.786 131.713L250.931 133.017" stroke="black" stroke-width="2" stroke-linejoin="round"/>
</svg>
