<svg width="252" height="252" viewBox="0 0 252 252" fill="none" xmlns="http://www.w3.org/2000/svg">
<path fill-rule="evenodd" clip-rule="evenodd" d="M249.928 123.774L250.3 125.284L250.591 126.801L250.804 128.322L250.94 129.847L251 131.373L250.988 132.897L250.906 134.419L250.757 135.938L250.546 137.451L250.275 138.957L249.949 140.457L249.571 141.948L249.145 143.43L248.676 144.903L248.167 146.367L247.622 147.821L247.045 149.264L246.439 150.698L245.807 152.123L245.154 153.539L244.483 154.946L243.796 156.344L243.097 157.736L242.389 159.121L241.672 160.501L240.949 161.874L240.222 163.244L239.49 164.609L238.755 165.971L238.018 167.331L237.279 168.688L236.538 170.044L235.795 171.398L235.049 172.752L234.301 174.105L233.55 175.458L232.795 176.81L232.034 178.163L231.267 179.514L230.492 180.865L229.708 182.215L228.912 183.563L228.105 184.909L227.282 186.251L226.444 187.589L225.587 188.922L224.711 190.249L223.813 191.567L222.891 192.877L221.945 194.176L220.972 195.464L219.971 196.738L218.94 197.996L217.88 199.239L216.787 200.463L215.663 201.667L214.506 202.85L213.316 204.011L212.093 205.148L210.837 206.26L209.549 207.346L208.229 208.405L206.877 209.437L205.495 210.441L204.085 211.417L202.647 212.364L201.182 213.283L199.694 214.174L198.182 215.038L196.65 215.875L195.1 216.686L193.532 217.473L191.95 218.236L190.355 218.977L188.749 219.698L187.135 220.401L185.513 221.087L183.885 221.758L182.253 222.416L180.618 223.063L178.982 223.7L177.344 224.33L175.707 224.954L174.07 225.573L172.434 226.189L170.799 226.803L169.164 227.415L167.53 228.027L165.896 228.638L164.262 229.248L162.626 229.859L160.988 230.468L159.347 231.076L157.703 231.682L156.053 232.284L154.399 232.883L152.738 233.476L151.07 234.063L149.394 234.642L147.711 235.214L146.019 235.779L144.319 236.334L142.61 236.883L140.893 237.423L139.167 237.957L137.433 238.485L135.69 239.008L133.938 239.528L132.177 240.044L130.407 240.558L128.627 241.07L126.837 241.582L125.036 242.094L123.225 242.605L121.401 243.117L119.566 243.628L117.717 244.138L115.855 244.646L113.978 245.151L112.088 245.651L110.182 246.146L108.26 246.631L106.324 247.107L104.371 247.569L102.404 248.015L100.421 248.443L98.4231 248.848L96.4115 249.229L94.3868 249.582L92.35 249.903L90.3024 250.189L88.2454 250.437L86.1808 250.644L84.1104 250.807L82.0361 250.922L79.9602 250.987L77.8849 251L75.8127 250.958L73.746 250.859L71.6874 250.701L69.6395 250.483L67.6049 250.204L65.5862 249.863L63.586 249.459L61.6068 248.992L59.651 248.463L57.7208 247.871L55.8185 247.219L53.9461 246.507L52.1053 245.736L50.2978 244.908L48.525 244.026L46.7881 243.091L45.0883 242.106L43.4262 241.073L41.8024 239.996L40.2174 238.876L38.6712 237.718L37.164 236.523L35.6955 235.295L34.2655 234.036L32.8734 232.75L31.5189 231.438L30.2013 230.103L28.9198 228.749L27.674 227.376L26.463 225.987L25.2862 224.584L24.143 223.169L23.0328 221.742L21.9551 220.306L20.9093 218.861L19.895 217.408L18.9118 215.95L17.959 214.485L17.036 213.016L16.1421 211.544L15.2765 210.07L14.4384 208.594L13.6275 207.117L12.8436 205.639L12.0865 204.162L11.3565 202.683L10.6537 201.205L9.9782 199.727L9.33004 198.248L8.7091 196.77L8.11519 195.293L7.54814 193.816L7.00769 192.341L6.49347 190.868L6.00505 189.397L5.54196 187.929L5.10368 186.464L4.68972 185.003L4.29959 183.546L3.93283 182.093L3.58902 180.645L3.26777 179.201L2.96874 177.763L2.69163 176.33L2.43621 174.903L2.20225 173.481L1.98958 172.065L1.79803 170.655L1.62749 169.252L1.47781 167.854L1.34887 166.462L1.24051 165.077L1.15257 163.699L1.08483 162.327L1.03705 160.962L1.0089 159.604L1 158.253L1.0099 156.91L1.03804 155.574L1.0838 154.246L1.14645 152.926L1.22515 151.614L1.31897 150.311L1.42689 149.016L1.54775 147.73L1.68035 146.453L1.82335 145.186L1.97536 143.927L2.1349 142.678L2.30044 141.438L2.47039 140.207L2.64315 138.985L2.81708 137.772L2.99056 136.568L3.16199 135.373L3.32983 134.185L3.49259 133.005L3.64888 131.833L3.79743 130.667L3.9371 129.507L4.06692 128.352L4.18609 127.202L4.29404 126.056L4.3904 124.914L4.47506 123.774L4.54815 122.635L4.61007 121.497L4.66149 120.36L4.70336 119.222L4.73689 118.083L4.76355 116.943L4.78506 115.8L4.80334 114.655L4.82051 113.507L4.83884 112.356L4.86065 111.202L4.88834 110.045L4.92423 108.885L4.97052 107.722L5.0292 106.556L5.10203 105.388L5.19079 104.219L5.2976 103.048L5.42505 101.876L5.57611 100.705L5.75398 99.5353L5.96203 98.3681L6.20363 97.205L6.48209 96.0477L6.80055 94.8979L7.16191 93.7573L7.5688 92.628L8.0235 91.5118L8.52778 90.4107L9.0829 89.3264L9.68973 88.2609L10.3487 87.2157L11.0598 86.1926L11.8229 85.193L12.6373 84.2185L13.5021 83.2703L14.4161 82.3497L15.3779 81.4576L16.3856 80.5951L17.4373 79.7629L18.5309 78.9614L19.6638 78.1912L20.8334 77.4524L22.0368 76.745L23.2712 76.0689L24.5332 75.4235L25.8197 74.8082L27.1273 74.2222L28.4524 73.6644L29.7915 73.1335L31.1411 72.6279L32.4976 72.146L33.8575 71.6857L35.2171 71.2451L36.5732 70.8217L37.9222 70.4131L39.2611 70.0166L40.5868 69.6296L41.8964 69.2491L43.1873 68.8722L44.4569 68.4959L45.7031 68.1171L46.924 67.7327L48.1179 67.3396L49.2833 66.9348L50.4194 66.5152L51.5252 66.0781L52.6003 65.6205L53.6447 65.1399L54.6585 64.6337L55.6421 64.0996L56.5964 63.5355L57.5225 62.9396L58.4217 62.3102L59.2957 61.6459L60.1464 60.9457L60.9759 60.2088L61.7865 59.4346L62.5807 58.6229L63.3612 57.7739L64.1308 56.8881L64.8924 55.966L65.649 55.0089L66.4037 54.0179L67.1594 52.9948L67.9193 51.9415L68.6863 50.8599L69.4634 49.7526L70.2534 48.622L71.0591 47.4709L71.883 46.3021L72.7275 45.1186L73.5948 43.9234L74.4869 42.7195L75.4057 41.5097L76.3526 40.2971L77.3289 39.0843L78.3359 37.8741L79.3743 36.6688L80.4446 35.4703L81.5472 34.28L82.6821 33.099L83.8494 31.9283L85.049 30.7686L86.2807 29.6206L87.5444 28.4848L88.84 27.3619L90.1671 26.2523L91.5257 25.1565L92.9153 24.075L94.336 23.0085L95.7873 21.9575L97.269 20.9226L98.7809 19.9045L100.323 18.9036L101.894 17.9206L103.494 16.9558L105.124 16.0099L106.782 15.0834L108.468 14.1766L110.182 13.2902L111.923 12.4247L113.691 11.5806L115.486 10.7587L117.307 9.95966L119.153 9.18436L121.025 8.43373L122.921 7.70882L124.841 7.01083L126.784 6.34109L128.749 5.70106L130.736 5.09236L132.742 4.51674L134.768 3.97613L136.811 3.47255L138.871 3.0082L140.946 2.58536L143.033 2.20644L145.131 1.87396L147.237 1.5905L149.35 1.35869L151.466 1.18121L153.583 1.06075L155.698 1L157.807 1.00159L159.908 1.06809L161.997 1.20198L164.07 1.40563L166.124 1.68123L168.154 2.03081L170.156 2.45619L172.127 2.95894L174.062 3.54037L175.957 4.20153L177.808 4.9431L179.612 5.76549L181.363 6.66873L183.058 7.65246L184.694 8.71597L186.267 9.85816L187.773 11.0775L189.21 12.3721L190.576 13.7397L191.867 15.1776L193.081 16.6827L194.218 18.2515L195.276 19.8803L196.254 21.5651L197.152 23.3015L197.971 25.0847L198.711 26.9101L199.373 28.7727L199.958 30.6674L200.47 32.589L200.909 34.5325L201.279 36.4929L201.583 38.4652L201.823 40.4448L202.004 42.4266L202.13 44.4056L202.206 46.3766L202.237 48.3346L202.23 50.2745L202.191 52.1913L202.127 54.0804L202.044 55.9373L201.95 57.758L201.852 59.5389L201.758 61.2765L201.676 62.9681L201.611 64.6111L201.573 66.2037L201.567 67.7443L201.6 69.2319L201.68 70.6663L201.811 72.0474L201.998 73.3759L202.248 74.6529L202.563 75.88L202.948 77.0591L203.404 78.1928L203.936 79.2838L204.542 80.3352L205.226 81.3503L205.986 82.3328L206.822 83.2866L207.733 84.2155L208.717 85.1236L209.772 86.015L210.893 86.8939L212.079 87.7642L213.324 88.6301L214.624 89.4954L215.974 90.364L217.369 91.2395L218.803 92.1253L220.27 93.0246L221.763 93.9404L223.277 94.8754L224.804 95.8321L226.339 96.8127L227.875 97.819L229.404 98.8526L230.921 99.9149L232.419 101.007L233.892 102.129L235.333 103.282L236.736 104.465L238.096 105.68L239.408 106.924L240.666 108.198L241.866 109.501L243.004 110.831L244.075 112.188L245.076 113.569L246.004 114.973L246.856 116.398L247.631 117.843L248.327 119.305L248.942 120.782L249.476 122.272L249.928 123.774Z" fill="#F9F9F9"/>
<path d="M249.928 123.774V123.774ZM249.928 123.774L250.3 125.284L250.591 126.801L250.804 128.322L250.94 129.847L251 131.373L250.988 132.897L250.906 134.419L250.757 135.938L250.546 137.451L250.275 138.957L249.949 140.457L249.571 141.948L249.145 143.43L248.676 144.903L248.167 146.367L247.622 147.821L247.045 149.264L246.439 150.698L245.807 152.123L245.154 153.539L244.483 154.946L243.796 156.344L243.097 157.736L242.389 159.121L241.672 160.501L240.949 161.874L240.222 163.244L239.49 164.609L238.755 165.971L238.018 167.331L237.279 168.688L236.538 170.044L235.795 171.398L235.049 172.752L234.301 174.105L233.55 175.458L232.795 176.81L232.034 178.163L231.267 179.514L230.492 180.865L229.708 182.215L228.912 183.563L228.105 184.909L227.282 186.251L226.444 187.589L225.587 188.922L224.711 190.249L223.813 191.567L222.891 192.877L221.945 194.176L220.972 195.464L219.971 196.738L218.94 197.996L217.88 199.239L216.787 200.463L215.663 201.667L214.506 202.85L213.316 204.011L212.093 205.148L210.837 206.26L209.549 207.346L208.229 208.405L206.877 209.437L205.495 210.441L204.085 211.417L202.647 212.364L201.182 213.283L199.694 214.174L198.182 215.038L196.65 215.875L195.1 216.686L193.532 217.473L191.95 218.236L190.355 218.977L188.749 219.698L187.135 220.401L185.513 221.087L183.885 221.758L182.253 222.416L180.618 223.063L178.982 223.7L177.344 224.33L175.707 224.954L174.07 225.573L172.434 226.189L170.799 226.803L169.164 227.415L167.53 228.027L165.896 228.638L164.262 229.248L162.626 229.859L160.988 230.468L159.347 231.076L157.703 231.682L156.053 232.284L154.399 232.883L152.738 233.476L151.07 234.063L149.394 234.642L147.711 235.214L146.019 235.779L144.319 236.334L142.61 236.883L140.893 237.423L139.167 237.957L137.433 238.485L135.69 239.008L133.938 239.528L132.177 240.044L130.407 240.558L128.627 241.07L126.837 241.582L125.036 242.094L123.225 242.605L121.401 243.117L119.566 243.628L117.717 244.138L115.855 244.646L113.978 245.151L112.088 245.651L110.182 246.146L108.26 246.631L106.324 247.107L104.371 247.569L102.404 248.015L100.421 248.443L98.4231 248.848L96.4115 249.229L94.3868 249.582L92.35 249.903L90.3024 250.189L88.2454 250.437L86.1808 250.644L84.1104 250.806L82.0361 250.922L79.9602 250.987L77.8849 251L75.8127 250.958L73.746 250.859L71.6874 250.701L69.6395 250.483L67.6049 250.204L65.5862 249.863L63.586 249.459L61.6068 248.992L59.651 248.463L57.7208 247.871L55.8185 247.219L53.9461 246.507L52.1053 245.736L50.2978 244.908L48.525 244.026L46.7881 243.091L45.0883 242.106L43.4262 241.073L41.8024 239.996L40.2174 238.876L38.6712 237.718L37.164 236.523L35.6955 235.295L34.2655 234.036L32.8735 232.75L31.5189 231.438L30.2013 230.103L28.9198 228.749L27.674 227.376L26.463 225.987L25.2862 224.584L24.143 223.169L23.0328 221.742L21.9551 220.306L20.9093 218.861L19.895 217.408L18.9118 215.95L17.959 214.485L17.036 213.016L16.1421 211.544L15.2765 210.07L14.4385 208.594L13.6275 207.117L12.8436 205.639L12.0865 204.162L11.3565 202.683L10.6537 201.205L9.97819 199.727L9.33004 198.248L8.7091 196.77L8.11519 195.293L7.54814 193.816L7.00769 192.341L6.49347 190.868L6.00505 189.397L5.54196 187.929L5.10368 186.464L4.68972 185.003L4.29959 183.546L3.93283 182.093L3.58902 180.645L3.26777 179.201L2.96874 177.763L2.69163 176.33L2.43621 174.903L2.20225 173.481L1.98958 172.065L1.79803 170.655L1.62749 169.252L1.47781 167.854L1.34887 166.462L1.24051 165.077L1.15257 163.699L1.08483 162.327L1.03705 160.962L1.0089 159.604L1 158.253L1.0099 156.91L1.03804 155.574L1.0838 154.246L1.14645 152.926L1.22515 151.614L1.31897 150.311L1.42689 149.016L1.54775 147.73L1.68035 146.453L1.82335 145.186L1.97536 143.927L2.1349 142.678L2.30044 141.438L2.47039 140.207L2.64315 138.985L2.81708 137.772L2.99056 136.568L3.16199 135.373L3.32983 134.185L3.49259 133.005L3.64888 131.833L3.79743 130.667L3.9371 129.507L4.06692 128.352L4.18609 127.202L4.29404 126.056L4.3904 124.914L4.47506 123.774L4.54815 122.635L4.61007 121.497L4.66149 120.36L4.70336 119.222L4.73689 118.083L4.76355 116.943L4.78506 115.8L4.80334 114.655L4.82051 113.507L4.83884 112.356L4.86065 111.202L4.88834 110.045L4.92423 108.885L4.97052 107.722L5.0292 106.556L5.10203 105.388L5.19079 104.219L5.2976 103.048L5.42505 101.876L5.57611 100.705L5.75398 99.5353L5.96203 98.3681L6.20363 97.205L6.48209 96.0477L6.80055 94.8979L7.16191 93.7573L7.5688 92.628L8.0235 91.5118L8.52778 90.4107L9.0829 89.3264L9.68973 88.2609L10.3487 87.2157L11.0598 86.1926L11.8229 85.193L12.6373 84.2185L13.5021 83.2703L14.4161 82.3497L15.3779 81.4576L16.3856 80.5951L17.4373 79.7629L18.5309 78.9614L19.6638 78.1912L20.8334 77.4524L22.0368 76.745L23.2712 76.0689L24.5332 75.4235L25.8197 74.8082L27.1273 74.2222L28.4524 73.6644L29.7915 73.1335L31.1411 72.6279L32.4976 72.146L33.8575 71.6857L35.2171 71.2451L36.5732 70.8217L37.9222 70.4131L39.2611 70.0166L40.5868 69.6296L41.8964 69.2491L43.1873 68.8722L44.4569 68.4959L45.7031 68.1171L46.924 67.7327L48.1179 67.3396L49.2833 66.9348L50.4194 66.5152L51.5252 66.0781L52.6003 65.6205L53.6447 65.1399L54.6585 64.6337L55.6421 64.0996L56.5964 63.5355L57.5225 62.9396L58.4217 62.3102L59.2957 61.6459L60.1464 60.9457L60.9759 60.2088L61.7865 59.4346L62.5807 58.6229L63.3612 57.7739L64.1308 56.8881L64.8924 55.966L65.649 55.0089L66.4037 54.0179L67.1594 52.9948L67.9193 51.9415L68.6863 50.8599L69.4634 49.7526L70.2534 48.622L71.0591 47.4709L71.883 46.3021L72.7275 45.1186L73.5948 43.9234L74.4869 42.7195L75.4057 41.5097L76.3526 40.2971L77.3289 39.0843L78.3359 37.8741L79.3743 36.6688L80.4446 35.4703L81.5472 34.28L82.6821 33.099L83.8494 31.9283L85.049 30.7686L86.2807 29.6206L87.5444 28.4848L88.84 27.3619L90.1671 26.2523L91.5257 25.1565L92.9153 24.075L94.336 23.0085L95.7873 21.9575L97.269 20.9226L98.7809 19.9045L100.323 18.9036L101.894 17.9206L103.494 16.9558L105.124 16.0099L106.782 15.0834L108.468 14.1766L110.182 13.2902L111.923 12.4247L113.691 11.5806L115.486 10.7587L117.307 9.95966L119.153 9.18436L121.025 8.43373L122.921 7.70882L124.841 7.01083L126.784 6.34109L128.749 5.70106L130.736 5.09236L132.742 4.51674L134.768 3.97613L136.811 3.47255L138.871 3.0082L140.946 2.58536L143.033 2.20644L145.131 1.87396L147.237 1.5905L149.35 1.35869L151.466 1.18121L153.583 1.06075L155.698 1L157.807 1.00159L159.908 1.06809L161.997 1.20198L164.07 1.40563L166.124 1.68123L168.154 2.03081L170.156 2.45619L172.127 2.95894L174.062 3.54037L175.957 4.20153L177.808 4.9431L179.612 5.76549L181.363 6.66872L183.058 7.65246L184.694 8.71597L186.267 9.85816L187.773 11.0775L189.21 12.3721L190.576 13.7397L191.867 15.1776L193.081 16.6827L194.218 18.2515L195.276 19.8803L196.254 21.5651L197.152 23.3015L197.971 25.0847L198.711 26.9101L199.373 28.7727L199.958 30.6674L200.47 32.589L200.909 34.5325L201.279 36.4929L201.583 38.4652L201.823 40.4448L202.004 42.4266L202.13 44.4056L202.206 46.3766L202.237 48.3346L202.23 50.2745L202.191 52.1913L202.127 54.0804L202.044 55.9373L201.95 57.758L201.852 59.5389L201.758 61.2765L201.676 62.9681L201.611 64.6111L201.573 66.2037L201.567 67.7443L201.6 69.2319L201.68 70.6663L201.811 72.0474L201.998 73.3759L202.248 74.6529L202.563 75.88L202.948 77.0591L203.404 78.1928L203.936 79.2838L204.542 80.3352L205.226 81.3503L205.986 82.3328L206.822 83.2866L207.733 84.2155L208.717 85.1236L209.772 86.015L210.893 86.8939L212.079 87.7642L213.324 88.6301L214.624 89.4954L215.974 90.364L217.369 91.2395L218.803 92.1253L220.27 93.0246L221.763 93.9404L223.277 94.8754L224.804 95.8321L226.339 96.8127L227.875 97.819L229.404 98.8526L230.921 99.9149L232.419 101.007L233.892 102.129L235.333 103.282L236.736 104.465L238.096 105.68L239.408 106.924L240.666 108.198L241.866 109.501L243.004 110.831L244.075 112.188L245.076 113.569L246.004 114.973L246.856 116.398L247.631 117.843L248.327 119.305L248.942 120.782L249.476 122.272L249.928 123.774" stroke="black" stroke-width="2" stroke-linejoin="round"/>
</svg>
