<svg width="252" height="252" viewBox="0 0 252 252" fill="none" xmlns="http://www.w3.org/2000/svg">
<path fill-rule="evenodd" clip-rule="evenodd" d="M247.046 128.73L247.068 130.077L247.107 131.425L247.164 132.776L247.238 134.132L247.329 135.493L247.437 136.86L247.56 138.236L247.699 139.621L247.851 141.016L248.017 142.422L248.194 143.84L248.381 145.272L248.577 146.718L248.779 148.178L248.986 149.654L249.195 151.146L249.405 152.654L249.612 154.178L249.814 155.719L250.01 157.276L250.195 158.85L250.368 160.439L250.525 162.044L250.665 163.664L250.784 165.298L250.879 166.945L250.949 168.604L250.99 170.274L251 171.954L250.977 173.643L250.918 175.338L250.822 177.039L250.686 178.744L250.509 180.452L250.29 182.16L250.027 183.868L249.719 185.573L249.365 187.274L248.964 188.97L248.515 190.658L248.018 192.337L247.472 194.004L246.877 195.66L246.232 197.3L245.537 198.925L244.792 200.531L243.997 202.118L243.152 203.684L242.257 205.226L241.314 206.744L240.322 208.236L239.282 209.7L238.194 211.135L237.061 212.54L235.882 213.913L234.66 215.254L233.394 216.561L232.087 217.833L230.739 219.07L229.353 220.27L227.929 221.434L226.469 222.56L224.976 223.648L223.45 224.698L221.893 225.709L220.307 226.682L218.694 227.617L217.055 228.513L215.392 229.371L213.707 230.191L212.002 230.974L210.278 231.72L208.537 232.43L206.78 233.104L205.009 233.743L203.226 234.348L201.433 234.921L199.63 235.462L197.819 235.973L196.002 236.456L194.18 236.912L192.354 237.342L190.525 237.748L188.694 238.132L186.862 238.496L185.03 238.841L183.198 239.169L181.367 239.481L179.538 239.78L177.71 240.067L175.884 240.344L174.059 240.612L172.236 240.872L170.415 241.127L168.595 241.377L166.776 241.624L164.957 241.868L163.138 242.111L161.319 242.355L159.498 242.599L157.675 242.845L155.849 243.093L154.019 243.345L152.184 243.6L150.344 243.86L148.496 244.124L146.642 244.394L144.778 244.669L142.905 244.949L141.021 245.235L139.124 245.527L137.215 245.823L135.292 246.124L133.353 246.428L131.399 246.735L129.427 247.044L127.438 247.353L125.43 247.662L123.404 247.968L121.357 248.27L119.291 248.567L117.204 248.856L115.096 249.136L112.968 249.405L110.819 249.66L108.649 249.9L106.459 250.123L104.249 250.325L102.021 250.505L99.7733 250.662L97.5083 250.791L95.2266 250.892L92.9294 250.962L90.6178 250.999L88.2933 251L85.9573 250.964L83.6114 250.889L81.2573 250.773L78.8969 250.614L76.5318 250.41L74.1643 250.159L71.7962 249.861L69.4297 249.514L67.067 249.116L64.7102 248.666L62.3618 248.164L60.024 247.607L57.6993 246.996L55.3901 246.329L53.099 245.607L50.8286 244.827L48.5813 243.99L46.3598 243.096L44.1666 242.144L42.0043 241.134L39.8754 240.067L37.7824 238.943L35.7279 237.761L33.7142 236.523L31.7436 235.229L29.8186 233.88L27.9412 232.477L26.1138 231.021L24.3383 229.513L22.6168 227.954L20.9511 226.346L19.3432 224.69L17.7946 222.988L16.307 221.24L14.8821 219.45L13.5211 217.618L12.2254 215.747L10.9964 213.838L9.8351 211.893L8.74262 209.915L7.71991 207.905L6.76788 205.865L5.88731 203.798L5.07893 201.705L4.3433 199.589L3.68084 197.452L3.09181 195.295L2.5763 193.123L2.13425 190.936L1.76542 188.736L1.46942 186.527L1.24568 184.311L1.09348 182.09L1.01194 179.865L1 177.64L1.05647 175.417L1.18 173.198L1.36908 170.984L1.62207 168.779L1.9372 166.583L2.31256 164.4L2.74613 162.23L3.23577 160.075L3.77923 157.938L4.37418 155.82L5.01818 153.721L5.70875 151.645L6.44331 149.591L7.21924 147.561L8.0339 145.555L8.88457 143.576L9.76855 141.623L10.6831 139.697L11.6256 137.798L12.5932 135.928L13.5833 134.086L14.5932 132.272L15.6205 130.487L16.6625 128.73L17.7168 127.001L18.781 125.3L19.8528 123.626L20.9296 121.98L22.0091 120.359L23.0887 118.764L24.1662 117.194L25.2391 115.647L26.3051 114.123L27.362 112.62L28.4078 111.138L29.4404 109.674L30.4581 108.228L31.459 106.798L32.4417 105.382L33.4049 103.979L34.3473 102.587L35.268 101.205L36.1661 99.8309L37.041 98.4628L37.8924 97.0992L38.7198 95.7384L39.5234 94.3788L40.3032 93.0188L41.0594 91.6568L41.7927 90.2913L42.5035 88.9209L43.1926 87.544L43.8609 86.1593L44.5094 84.7657L45.1392 83.3617L45.7514 81.9464L46.3474 80.5184L46.9283 79.0769L47.4957 77.6208L48.0508 76.1492L48.5951 74.6612L49.1302 73.1561L49.6581 71.6333L50.1805 70.0925L50.6997 68.5334L51.2178 66.9558L51.737 65.3599L52.2599 63.7459L52.7888 62.1143L53.3264 60.4657L53.8752 58.801L54.4378 57.1209L55.0168 55.4269L55.6148 53.7201L56.2345 52.0021L56.8784 50.2746L57.5489 48.5393L58.2485 46.7984L58.9796 45.0538L59.7443 43.3079L60.5449 41.563L61.3832 39.8216L62.2612 38.0864L63.1807 36.3599L64.143 34.645L65.1497 32.9445L66.202 31.2611L67.3008 29.5979L68.447 27.9576L69.6413 26.3433L70.884 24.7577L72.1756 23.2038L73.5159 21.6844L74.9049 20.2021L76.3423 18.7598L77.8275 17.36L79.3597 16.0051L80.9381 14.6977L82.5617 13.44L84.2291 12.2342L85.9391 11.0823L87.6901 9.98625L89.4805 8.94791L91.3084 7.96888L93.172 7.05065L95.0693 6.19454L96.9981 5.4017L98.9563 4.67313L100.941 4.00961L102.951 3.41177L104.984 2.88005L107.036 2.4147L109.105 2.0158L111.19 1.68325L113.286 1.41676L115.393 1.21588L117.507 1.08L119.627 1.00835L121.749 1L123.871 1.05389L125.991 1.16884L128.107 1.34354L130.217 1.5766L132.318 1.86652L134.409 2.21174L136.488 2.61065L138.553 3.06161L140.603 3.56293L142.635 4.11296L144.648 4.71003L146.642 5.35253L148.614 6.03884L150.563 6.76724L152.489 7.53588L154.39 8.34284L156.266 9.18609L158.115 10.0635L159.937 10.9729L161.731 11.9119L163.498 12.8783L165.236 13.8697L166.946 14.8837L168.627 15.9178L170.281 16.9695L171.906 18.0366L173.503 19.1164L175.074 20.2067L176.618 21.305L178.137 22.4091L179.631 23.5167L181.102 24.6257L182.55 25.7341L183.976 26.8398L185.383 27.941L186.772 29.0361L188.143 30.1236L189.499 31.2018L190.84 32.2698L192.169 33.3262L193.487 34.3703L194.796 35.4013L196.097 36.4186L197.392 37.4219L198.682 38.4109L199.969 39.3857L201.253 40.3464L202.536 41.2934L203.82 42.2273L205.105 43.1487L206.391 44.0586L207.681 44.9581L208.973 45.8486L210.269 46.7316L211.567 47.6088L212.869 48.482L214.174 49.3531L215.48 50.2242L216.787 51.0973L218.094 51.9746L219.399 52.8583L220.701 53.7504L221.998 54.6533L223.288 55.5688L224.569 56.4992L225.839 57.4463L227.095 58.4119L228.335 59.3978L229.556 60.4055L230.755 61.4364L231.93 62.4917L233.078 63.5724L234.197 64.6793L235.283 65.8131L236.335 66.974L237.349 68.1623L238.324 69.3778L239.257 70.6204L240.147 71.8893L240.992 73.1839L241.789 74.5032L242.54 75.846L243.242 77.2109L243.895 78.5965L244.499 80.001L245.055 81.4227L245.562 82.8599L246.021 84.3108L246.433 85.7735L246.798 87.2462L247.119 88.7271L247.396 90.2143L247.632 91.7061L247.827 93.2008L247.984 94.6966L248.105 96.1922L248.193 97.6858L248.25 99.1763L248.278 100.662L248.281 102.142L248.26 103.616L248.22 105.082L248.162 106.54L248.089 107.989L248.006 109.429L247.913 110.859L247.815 112.28L247.714 113.691L247.612 115.093L247.513 116.486L247.417 117.87L247.329 119.246L247.249 120.615L247.18 121.977L247.124 123.334L247.081 124.687L247.053 126.036L247.041 127.384L247.046 128.73Z" fill="#F9F9F9"/>
<path d="M247.046 128.73V128.73ZM247.046 128.73L247.068 130.077L247.107 131.425L247.164 132.776L247.238 134.132L247.329 135.493L247.437 136.86L247.56 138.236L247.699 139.621L247.851 141.016L248.017 142.422L248.194 143.84L248.381 145.272L248.577 146.718L248.779 148.178L248.986 149.654L249.195 151.146L249.405 152.654L249.612 154.178L249.814 155.719L250.01 157.276L250.195 158.85L250.368 160.439L250.525 162.044L250.665 163.664L250.784 165.298L250.879 166.945L250.949 168.604L250.99 170.274L251 171.954L250.977 173.643L250.918 175.338L250.822 177.039L250.686 178.744L250.509 180.452L250.29 182.16L250.027 183.868L249.719 185.573L249.365 187.274L248.964 188.97L248.515 190.658L248.018 192.337L247.472 194.004L246.877 195.66L246.232 197.3L245.537 198.925L244.792 200.531L243.997 202.118L243.152 203.684L242.257 205.226L241.314 206.744L240.322 208.236L239.282 209.7L238.194 211.135L237.061 212.54L235.882 213.913L234.66 215.254L233.394 216.561L232.087 217.833L230.739 219.07L229.353 220.27L227.929 221.434L226.469 222.56L224.976 223.648L223.45 224.698L221.893 225.709L220.307 226.682L218.694 227.617L217.055 228.513L215.392 229.371L213.707 230.191L212.002 230.974L210.278 231.72L208.537 232.43L206.78 233.104L205.009 233.743L203.226 234.348L201.433 234.921L199.63 235.462L197.819 235.973L196.002 236.456L194.18 236.912L192.354 237.342L190.525 237.748L188.694 238.132L186.862 238.496L185.03 238.841L183.198 239.169L181.367 239.481L179.538 239.78L177.71 240.067L175.884 240.344L174.059 240.612L172.236 240.872L170.415 241.127L168.595 241.377L166.776 241.624L164.957 241.868L163.138 242.111L161.319 242.355L159.498 242.599L157.675 242.845L155.849 243.093L154.019 243.345L152.184 243.6L150.344 243.86L148.496 244.124L146.642 244.394L144.778 244.669L142.905 244.949L141.021 245.235L139.124 245.527L137.215 245.823L135.292 246.124L133.353 246.428L131.399 246.735L129.427 247.044L127.438 247.353L125.43 247.662L123.404 247.968L121.357 248.27L119.291 248.567L117.204 248.856L115.096 249.136L112.968 249.405L110.819 249.66L108.649 249.9L106.459 250.123L104.249 250.325L102.021 250.505L99.7733 250.662L97.5083 250.791L95.2266 250.892L92.9294 250.962L90.6178 250.999L88.2933 251L85.9573 250.964L83.6114 250.889L81.2573 250.773L78.8969 250.614L76.5318 250.41L74.1643 250.159L71.7962 249.861L69.4297 249.514L67.067 249.116L64.7102 248.666L62.3618 248.164L60.024 247.607L57.6993 246.996L55.3901 246.329L53.099 245.607L50.8286 244.827L48.5813 243.99L46.3598 243.096L44.1666 242.144L42.0043 241.134L39.8754 240.067L37.7824 238.943L35.7279 237.761L33.7142 236.523L31.7436 235.229L29.8186 233.88L27.9412 232.477L26.1138 231.021L24.3383 229.513L22.6168 227.954L20.9511 226.346L19.3432 224.69L17.7946 222.988L16.307 221.24L14.8821 219.45L13.5211 217.618L12.2254 215.747L10.9964 213.838L9.8351 211.893L8.74262 209.915L7.71991 207.905L6.76788 205.865L5.88731 203.798L5.07893 201.705L4.3433 199.589L3.68084 197.452L3.09181 195.295L2.5763 193.123L2.13425 190.936L1.76542 188.736L1.46942 186.527L1.24568 184.311L1.09348 182.09L1.01194 179.865L1 177.64L1.05647 175.417L1.18 173.198L1.36908 170.984L1.62207 168.779L1.9372 166.583L2.31256 164.4L2.74613 162.23L3.23577 160.075L3.77923 157.938L4.37418 155.82L5.01818 153.721L5.70875 151.645L6.44331 149.591L7.21924 147.561L8.03389 145.555L8.88457 143.576L9.76855 141.623L10.6831 139.697L11.6256 137.798L12.5932 135.928L13.5833 134.086L14.5932 132.272L15.6205 130.487L16.6625 128.73L17.7168 127.001L18.781 125.3L19.8528 123.626L20.9296 121.98L22.0091 120.359L23.0887 118.764L24.1662 117.194L25.2391 115.647L26.3051 114.123L27.362 112.62L28.4078 111.138L29.4404 109.674L30.4581 108.228L31.459 106.798L32.4417 105.382L33.4049 103.979L34.3473 102.587L35.268 101.205L36.1661 99.8309L37.041 98.4628L37.8924 97.0992L38.7198 95.7384L39.5234 94.3788L40.3032 93.0188L41.0594 91.6568L41.7927 90.2913L42.5035 88.9209L43.1926 87.544L43.8609 86.1594L44.5094 84.7657L45.1392 83.3617L45.7514 81.9463L46.3474 80.5184L46.9283 79.0769L47.4957 77.6208L48.0508 76.1492L48.5951 74.6612L49.1302 73.1561L49.6581 71.6334L50.1805 70.0925L50.6997 68.5334L51.2178 66.9558L51.737 65.3599L52.2599 63.7459L52.7888 62.1143L53.3264 60.4657L53.8752 58.801L54.4378 57.1209L55.0168 55.4269L55.6148 53.7201L56.2345 52.0021L56.8784 50.2746L57.5489 48.5393L58.2485 46.7984L58.9796 45.0538L59.7443 43.3079L60.5449 41.563L61.3832 39.8216L62.2612 38.0864L63.1807 36.3599L64.143 34.645L65.1497 32.9445L66.202 31.2611L67.3008 29.5979L68.447 27.9576L69.6413 26.3433L70.884 24.7577L72.1756 23.2038L73.5159 21.6844L74.9049 20.2021L76.3423 18.7598L77.8275 17.36L79.3597 16.0051L80.9381 14.6977L82.5617 13.44L84.2291 12.2342L85.9391 11.0823L87.6901 9.98625L89.4805 8.94791L91.3084 7.96888L93.172 7.05065L95.0693 6.19454L96.9981 5.4017L98.9563 4.67313L100.941 4.00961L102.951 3.41177L104.984 2.88005L107.036 2.4147L109.105 2.0158L111.19 1.68325L113.286 1.41676L115.393 1.21588L117.507 1.08L119.627 1.00835L121.749 1L123.871 1.05389L125.991 1.16884L128.107 1.34354L130.217 1.5766L132.318 1.86652L134.409 2.21174L136.488 2.61065L138.553 3.06161L140.603 3.56293L142.635 4.11296L144.648 4.71003L146.642 5.35253L148.614 6.03884L150.563 6.76724L152.489 7.53588L154.39 8.34285L156.266 9.18609L158.115 10.0635L159.937 10.9729L161.731 11.9119L163.498 12.8783L165.236 13.8697L166.946 14.8837L168.627 15.9178L170.281 16.9695L171.906 18.0366L173.503 19.1164L175.074 20.2067L176.618 21.305L178.137 22.4091L179.631 23.5167L181.102 24.6257L182.55 25.7341L183.976 26.8398L185.383 27.941L186.772 29.0361L188.143 30.1236L189.499 31.2018L190.84 32.2698L192.169 33.3262L193.487 34.3703L194.796 35.4013L196.097 36.4186L197.392 37.4219L198.682 38.4109L199.969 39.3857L201.253 40.3464L202.536 41.2934L203.82 42.2273L205.105 43.1487L206.391 44.0586L207.681 44.9581L208.973 45.8486L210.269 46.7316L211.567 47.6088L212.869 48.482L214.174 49.3531L215.48 50.2242L216.787 51.0973L218.094 51.9746L219.399 52.8583L220.701 53.7504L221.998 54.6533L223.288 55.5688L224.569 56.4992L225.839 57.4463L227.095 58.4119L228.335 59.3978L229.556 60.4055L230.755 61.4364L231.93 62.4917L233.078 63.5724L234.197 64.6793L235.283 65.8131L236.335 66.974L237.349 68.1623L238.324 69.3778L239.257 70.6204L240.147 71.8893L240.992 73.1839L241.789 74.5032L242.54 75.846L243.242 77.2109L243.895 78.5965L244.499 80.001L245.055 81.4227L245.562 82.8599L246.021 84.3108L246.433 85.7735L246.798 87.2462L247.119 88.7271L247.396 90.2143L247.632 91.7061L247.827 93.2008L247.984 94.6966L248.105 96.1922L248.193 97.6858L248.25 99.1763L248.278 100.662L248.281 102.142L248.26 103.616L248.22 105.082L248.162 106.54L248.089 107.989L248.006 109.429L247.913 110.859L247.815 112.28L247.714 113.691L247.612 115.093L247.513 116.486L247.417 117.87L247.329 119.246L247.249 120.615L247.18 121.977L247.124 123.334L247.081 124.687L247.053 126.036L247.041 127.384L247.046 128.73" stroke="black" stroke-width="2" stroke-linejoin="round"/>
</svg>
