<svg width="252" height="252" viewBox="0 0 252 252" fill="none" xmlns="http://www.w3.org/2000/svg">
<path fill-rule="evenodd" clip-rule="evenodd" d="M218.114 115.666L218.274 116.98L218.56 118.302L218.966 119.638L219.487 120.993L220.115 122.374L220.843 123.783L221.662 125.225L222.564 126.703L223.539 128.221L224.578 129.781L225.671 131.384L226.806 133.032L227.975 134.726L229.166 136.466L230.37 138.252L231.576 140.082L232.774 141.956L233.954 143.871L235.107 145.824L236.223 147.814L237.292 149.836L238.306 151.886L239.255 153.96L240.133 156.054L240.931 158.162L241.642 160.28L242.26 162.401L242.779 164.521L243.193 166.632L243.497 168.728L243.687 170.804L243.757 172.852L243.706 174.866L243.529 176.84L243.226 178.767L242.795 180.64L242.235 182.453L241.546 184.201L240.73 185.877L239.788 187.477L238.723 188.996L237.539 190.429L236.239 191.773L234.828 193.025L233.312 194.182L231.698 195.243L229.991 196.207L228.2 197.074L226.332 197.844L224.396 198.519L222.401 199.101L220.355 199.594L218.267 200.002L216.146 200.328L214.003 200.579L211.846 200.76L209.684 200.879L207.525 200.943L205.379 200.959L203.253 200.936L201.155 200.883L199.092 200.808L197.07 200.721L195.096 200.632L193.174 200.549L191.31 200.481L189.506 200.438L187.766 200.429L186.091 200.463L184.484 200.546L182.945 200.687L181.473 200.893L180.069 201.17L178.729 201.523L177.452 201.958L176.235 202.477L175.074 203.084L173.966 203.782L172.905 204.57L171.886 205.449L170.905 206.419L169.955 207.476L169.031 208.619L168.127 209.843L167.236 211.144L166.354 212.516L165.473 213.952L164.588 215.446L163.694 216.99L162.786 218.576L161.858 220.195L160.906 221.838L159.926 223.497L158.916 225.163L157.872 226.827L156.791 228.481L155.673 230.118L154.515 231.731L153.317 233.311L152.079 234.855L150.801 236.354L149.483 237.803L148.125 239.197L146.729 240.528L145.295 241.792L143.825 242.984L142.322 244.1L140.786 245.137L139.221 246.091L137.629 246.96L136.012 247.743L134.373 248.439L132.716 249.049L131.042 249.572L129.354 250.01L127.655 250.364L125.948 250.638L124.235 250.833L122.519 250.952L120.801 251L119.083 250.979L117.367 250.894L115.656 250.748L113.949 250.545L112.248 250.289L110.555 249.985L108.869 249.635L107.192 249.244L105.524 248.814L103.866 248.35L102.217 247.853L100.579 247.326L98.9499 246.773L97.3312 246.193L95.7226 245.591L94.1242 244.965L92.536 244.319L90.958 243.652L89.3905 242.965L87.8336 242.258L86.2875 241.531L84.7527 240.784L83.2296 240.016L81.7186 239.227L80.2204 238.417L78.7357 237.583L77.2653 236.726L75.8101 235.844L74.3712 234.937L72.9495 234.002L71.5462 233.041L70.1625 232.05L68.7998 231.03L67.4593 229.98L66.1424 228.898L64.8506 227.785L63.5854 226.639L62.3481 225.46L61.1404 224.248L59.9638 223.001L58.8198 221.721L57.7098 220.407L56.6356 219.059L55.5984 217.677L54.5998 216.261L53.6412 214.813L52.7239 213.332L51.8491 211.819L51.0178 210.276L50.2311 208.704L49.4894 207.104L48.7931 205.478L48.1423 203.828L47.5365 202.157L46.9745 200.468L46.4549 198.765L45.975 197.051L45.5318 195.33L45.1215 193.609L44.739 191.891L44.3788 190.182L44.0347 188.488L43.7002 186.814L43.3685 185.164L43.0328 183.544L42.6862 181.955L42.3221 180.402L41.9342 178.887L41.5166 177.412L41.0638 175.976L40.5708 174.582L40.0335 173.227L39.4481 171.911L38.8116 170.633L38.1219 169.389L37.3773 168.177L36.5771 166.995L35.7211 165.838L34.81 164.702L33.8451 163.585L32.8284 162.48L31.7623 161.385L30.6502 160.295L29.4956 159.205L28.3028 158.112L27.0765 157.011L25.8215 155.898L24.5433 154.77L23.2475 153.623L21.9399 152.455L20.6266 151.262L19.3136 150.041L18.0072 148.792L16.7134 147.511L15.4383 146.198L14.1881 144.851L12.9685 143.471L11.7851 142.055L10.6434 140.606L9.54851 139.123L8.50513 137.606L7.51775 136.058L6.59041 134.479L5.72674 132.87L4.92992 131.235L4.2027 129.574L3.54733 127.89L2.96559 126.185L2.45876 124.462L2.02762 122.724L1.67244 120.972L1.39302 119.211L1.18867 117.441L1.0582 115.666L1 113.889L1.01201 112.111L1.09174 110.335L1.23637 108.564L1.44267 106.798L1.70714 105.04L2.026 103.291L2.39523 101.552L2.81063 99.8254L3.26788 98.1104L3.76253 96.4082L4.29016 94.7189L4.84631 93.0426L5.42663 91.3791L6.02687 89.728L6.64298 88.0885L7.27111 86.46L7.90771 84.8414L8.54955 83.2316L9.19409 81.6297L9.8399 80.0347L10.4866 78.446L11.1343 76.863L11.7829 75.2853L12.4327 73.7123L13.0838 72.1436L13.7366 70.5788L14.3916 69.0175L15.0496 67.4597L15.7117 65.9053L16.3792 64.3544L17.0535 62.8075L17.7364 61.265L18.4296 59.7276L19.1351 58.1964L19.8549 56.6722L20.5912 55.1565L21.3458 53.6506L22.1208 52.156L22.9182 50.6743L23.7396 49.2073L24.5867 47.7566L25.4608 46.3241L26.3632 44.9114L27.2947 43.5203L28.2559 42.1523L29.2473 40.8089L30.269 39.4914L31.3207 38.2011L32.4021 36.939L33.5124 35.7057L34.6508 34.502L35.8159 33.328L37.0065 32.184L38.2211 31.0699L39.4579 29.9852L40.7152 28.9293L41.9911 27.9016L43.2837 26.901L44.5911 25.9264L45.9113 24.9764L47.2425 24.0497L48.583 23.1447L49.931 22.2598L51.285 21.3935L52.6436 20.5441L54.0055 19.71L55.3698 18.8899L56.7355 18.0823L58.1019 17.286L59.4687 16.4999L60.8354 15.7232L62.2021 14.9551L63.5688 14.1954L64.9357 13.4438L66.3033 12.7004L67.672 11.9656L69.0425 11.24L70.4156 10.5246L71.7919 9.82058L73.1725 9.12928L74.5579 8.45237L75.9492 7.79168L77.3471 7.14922L78.7522 6.52714L80.1653 5.92769L81.5869 5.35316L83.0173 4.80589L84.4568 4.28818L85.9056 3.80226L87.3636 3.35024L88.8306 2.93408L90.3063 2.55553L91.7902 2.21608L93.2816 1.91696L94.7796 1.65906L96.2834 1.44295L97.7919 1.26898L99.3043 1.1375L100.819 1.04874L102.336 1.00287L103.853 1L105.37 1.04027L106.885 1.12383L108.398 1.25092L109.907 1.42182L111.411 1.63686L112.91 1.89644L114.401 2.20096L115.885 2.55081L117.359 2.94635L118.824 3.38786L120.276 3.8755L121.716 4.40927L123.143 4.98898L124.554 5.61418L125.948 6.28419L127.325 6.99799L128.684 7.75425L130.023 8.55128L131.34 9.38704L132.637 10.2591L133.911 11.1647L135.162 12.1005L136.39 13.0632L137.594 14.0488L138.775 15.053L139.933 16.0715L141.068 17.0995L142.181 18.132L143.273 19.164L144.346 20.1901L145.4 21.2053L146.439 22.204L147.464 23.1813L148.477 24.1318L149.482 25.0508L150.481 25.9334L151.476 26.7753L152.472 27.5722L153.471 28.3205L154.478 29.0169L155.495 29.6584L156.526 30.2426L157.575 30.7676L158.646 31.232L159.741 31.6349L160.864 31.9761L162.018 32.2556L163.207 32.4743L164.434 32.6332L165.7 32.734L167.009 32.7789L168.362 32.7704L169.763 32.7113L171.211 32.605L172.71 32.455L174.26 32.2649L175.862 32.0389L177.517 31.7809L179.225 31.4954L180.987 31.1867L182.802 30.8591L184.67 30.5171L186.591 30.1651L188.565 29.8076L190.589 29.4491L192.664 29.0939L194.788 28.7466L196.959 28.4118L199.175 28.094L201.434 27.798L203.733 27.5289L206.067 27.292L208.434 27.0928L210.828 26.9377L213.241 26.8336L215.666 26.7879L218.095 26.8084L220.517 26.9027L222.922 27.0784L225.299 27.3423L227.637 27.7012L229.925 28.161L232.149 28.7268L234.299 29.403L236.363 30.1931L238.328 31.0997L240.185 32.1242L241.922 33.2672L243.53 34.5281L244.999 35.9053L246.321 37.3963L247.489 38.9975L248.497 40.7042L249.34 42.5112L250.013 44.4122L250.515 46.4001L250.844 48.4674L251 50.6057L250.985 52.8065L250.803 55.0605L250.456 57.3586L249.951 59.6911L249.295 62.0485L248.496 64.4215L247.563 66.8005L246.507 69.1767L245.338 71.5413L244.069 73.8861L242.714 76.2035L241.285 78.4863L239.797 80.7282L238.264 82.9237L236.701 85.0678L235.123 87.1567L233.544 89.1871L231.979 91.1569L230.443 93.0647L228.949 94.91L227.51 96.6931L226.138 98.4154L224.846 100.079L223.644 101.686L222.542 103.24L221.548 104.746L220.669 106.207L219.912 107.63L219.283 109.018L218.783 110.379L218.416 111.718L218.182 113.042L218.082 114.356L218.114 115.666Z" fill="#F9F9F9"/>
<path d="M218.114 115.666V115.666ZM218.114 115.666L218.274 116.98L218.56 118.302L218.966 119.638L219.487 120.993L220.115 122.374L220.843 123.783L221.662 125.225L222.564 126.703L223.539 128.221L224.578 129.781L225.671 131.384L226.806 133.032L227.975 134.726L229.166 136.466L230.37 138.252L231.576 140.082L232.774 141.956L233.954 143.871L235.107 145.824L236.223 147.814L237.292 149.836L238.306 151.886L239.255 153.96L240.133 156.054L240.931 158.162L241.642 160.28L242.26 162.401L242.779 164.521L243.193 166.632L243.497 168.728L243.687 170.804L243.757 172.852L243.706 174.866L243.529 176.84L243.226 178.767L242.795 180.64L242.235 182.453L241.546 184.201L240.73 185.877L239.788 187.477L238.723 188.996L237.539 190.429L236.239 191.773L234.828 193.025L233.312 194.182L231.698 195.243L229.991 196.207L228.2 197.074L226.332 197.844L224.396 198.519L222.401 199.101L220.355 199.594L218.267 200.002L216.146 200.328L214.003 200.579L211.846 200.76L209.683 200.879L207.525 200.943L205.379 200.959L203.253 200.936L201.155 200.883L199.092 200.808L197.07 200.721L195.096 200.632L193.174 200.549L191.31 200.481L189.506 200.438L187.766 200.429L186.091 200.463L184.484 200.546L182.945 200.687L181.473 200.893L180.069 201.17L178.729 201.523L177.452 201.958L176.235 202.477L175.074 203.084L173.966 203.782L172.905 204.57L171.886 205.449L170.905 206.419L169.955 207.476L169.031 208.619L168.127 209.843L167.236 211.144L166.354 212.516L165.473 213.952L164.588 215.446L163.694 216.99L162.786 218.576L161.858 220.195L160.906 221.838L159.926 223.497L158.916 225.163L157.872 226.827L156.791 228.481L155.673 230.118L154.515 231.731L153.317 233.311L152.079 234.855L150.801 236.354L149.483 237.803L148.125 239.197L146.729 240.528L145.295 241.792L143.825 242.984L142.322 244.1L140.786 245.137L139.221 246.091L137.629 246.96L136.012 247.743L134.373 248.439L132.716 249.049L131.042 249.572L129.354 250.01L127.655 250.364L125.948 250.638L124.235 250.833L122.519 250.952L120.801 251L119.083 250.979L117.367 250.894L115.656 250.748L113.949 250.545L112.248 250.289L110.555 249.985L108.869 249.635L107.192 249.244L105.524 248.814L103.866 248.35L102.217 247.853L100.579 247.326L98.9499 246.773L97.3312 246.193L95.7226 245.591L94.1242 244.965L92.536 244.319L90.958 243.652L89.3905 242.965L87.8336 242.258L86.2875 241.531L84.7527 240.784L83.2296 240.016L81.7186 239.227L80.2204 238.417L78.7357 237.583L77.2653 236.726L75.8101 235.844L74.3712 234.937L72.9495 234.002L71.5462 233.041L70.1625 232.05L68.7998 231.03L67.4593 229.98L66.1424 228.898L64.8506 227.785L63.5854 226.639L62.3481 225.46L61.1404 224.248L59.9638 223.001L58.8198 221.721L57.7098 220.407L56.6356 219.059L55.5984 217.677L54.5998 216.261L53.6412 214.813L52.7239 213.332L51.8491 211.819L51.0178 210.276L50.2311 208.704L49.4894 207.104L48.7931 205.478L48.1423 203.828L47.5365 202.157L46.9745 200.468L46.4549 198.765L45.975 197.051L45.5318 195.33L45.1215 193.609L44.739 191.891L44.3788 190.182L44.0347 188.488L43.7002 186.814L43.3685 185.164L43.0328 183.544L42.6862 181.955L42.3221 180.402L41.9342 178.887L41.5166 177.412L41.0638 175.976L40.5708 174.582L40.0335 173.227L39.4481 171.911L38.8116 170.633L38.1219 169.389L37.3773 168.177L36.5771 166.995L35.7211 165.838L34.81 164.702L33.8451 163.585L32.8284 162.48L31.7623 161.385L30.6502 160.295L29.4956 159.205L28.3028 158.112L27.0765 157.011L25.8215 155.898L24.5433 154.77L23.2475 153.623L21.9399 152.455L20.6266 151.262L19.3136 150.041L18.0071 148.792L16.7134 147.511L15.4383 146.198L14.1881 144.851L12.9685 143.471L11.7851 142.055L10.6434 140.606L9.54851 139.123L8.50513 137.606L7.51775 136.058L6.59041 134.479L5.72674 132.87L4.92992 131.235L4.2027 129.574L3.54733 127.89L2.96559 126.185L2.45876 124.462L2.02762 122.724L1.67244 120.972L1.39302 119.211L1.18867 117.441L1.0582 115.666L1 113.889L1.01201 112.111L1.09174 110.335L1.23637 108.564L1.44267 106.798L1.70714 105.04L2.026 103.291L2.39523 101.552L2.81063 99.8254L3.26788 98.1104L3.76253 96.4082L4.29016 94.7189L4.84631 93.0426L5.42663 91.3791L6.02687 89.728L6.64298 88.0885L7.27111 86.46L7.90771 84.8414L8.54955 83.2316L9.19409 81.6297L9.8399 80.0347L10.4866 78.446L11.1343 76.863L11.7829 75.2853L12.4327 73.7123L13.0838 72.1436L13.7366 70.5788L14.3916 69.0175L15.0496 67.4597L15.7117 65.9053L16.3792 64.3544L17.0535 62.8075L17.7364 61.265L18.4296 59.7276L19.1351 58.1964L19.8549 56.6722L20.5912 55.1565L21.3458 53.6506L22.1208 52.156L22.9182 50.6743L23.7396 49.2073L24.5867 47.7566L25.4608 46.3241L26.3632 44.9114L27.2947 43.5203L28.2559 42.1523L29.2473 40.8089L30.269 39.4914L31.3207 38.2011L32.4021 36.939L33.5124 35.7057L34.6508 34.502L35.8159 33.328L37.0066 32.184L38.2211 31.0699L39.4579 29.9852L40.7152 28.9293L41.9911 27.9016L43.2837 26.901L44.5911 25.9264L45.9113 24.9764L47.2425 24.0497L48.583 23.1447L49.931 22.2598L51.285 21.3935L52.6436 20.5441L54.0055 19.71L55.3698 18.8899L56.7355 18.0823L58.1019 17.286L59.4687 16.4999L60.8354 15.7232L62.2021 14.9551L63.5688 14.1954L64.9357 13.4438L66.3033 12.7004L67.672 11.9656L69.0425 11.24L70.4156 10.5246L71.7919 9.82058L73.1725 9.12928L74.5579 8.45237L75.9492 7.79168L77.3471 7.14922L78.7522 6.52714L80.1653 5.92769L81.5869 5.35316L83.0173 4.80589L84.4568 4.28818L85.9056 3.80226L87.3636 3.35024L88.8306 2.93408L90.3063 2.55553L91.7902 2.21608L93.2816 1.91696L94.7796 1.65906L96.2834 1.44295L97.7919 1.26898L99.3043 1.1375L100.819 1.04874L102.336 1.00287L103.853 1L105.37 1.04027L106.885 1.12383L108.398 1.25092L109.907 1.42182L111.411 1.63686L112.91 1.89644L114.401 2.20096L115.885 2.55081L117.359 2.94635L118.824 3.38786L120.276 3.8755L121.716 4.40927L123.143 4.98898L124.554 5.61418L125.948 6.28419L127.325 6.99799L128.684 7.75425L130.023 8.55128L131.34 9.38704L132.637 10.2591L133.911 11.1647L135.162 12.1005L136.39 13.0632L137.594 14.0488L138.775 15.053L139.933 16.0715L141.068 17.0995L142.181 18.132L143.273 19.164L144.346 20.1901L145.4 21.2053L146.439 22.204L147.464 23.1813L148.477 24.1318L149.482 25.0508L150.481 25.9334L151.476 26.7753L152.472 27.5722L153.471 28.3205L154.478 29.0169L155.495 29.6584L156.526 30.2426L157.575 30.7676L158.646 31.232L159.741 31.6349L160.864 31.9761L162.018 32.2556L163.207 32.4743L164.433 32.6331L165.7 32.734L167.009 32.7789L168.362 32.7704L169.763 32.7113L171.211 32.605L172.71 32.455L174.26 32.2649L175.862 32.0389L177.517 31.7809L179.225 31.4954L180.987 31.1867L182.802 30.8591L184.67 30.5171L186.591 30.1651L188.565 29.8076L190.589 29.4491L192.664 29.0939L194.788 28.7466L196.959 28.4118L199.175 28.094L201.434 27.798L203.733 27.5289L206.067 27.292L208.434 27.0928L210.828 26.9377L213.241 26.8336L215.666 26.7879L218.095 26.8084L220.517 26.9027L222.922 27.0784L225.299 27.3423L227.637 27.7012L229.925 28.161L232.149 28.7268L234.299 29.403L236.363 30.1931L238.328 31.0997L240.185 32.1242L241.922 33.2672L243.53 34.5281L244.999 35.9053L246.321 37.3963L247.489 38.9975L248.497 40.7042L249.34 42.5112L250.013 44.4122L250.515 46.4001L250.844 48.4674L251 50.6057L250.985 52.8065L250.803 55.0605L250.456 57.3586L249.951 59.6911L249.295 62.0485L248.496 64.4215L247.563 66.8005L246.507 69.1767L245.338 71.5413L244.069 73.8861L242.714 76.2035L241.285 78.4863L239.797 80.7282L238.264 82.9237L236.701 85.0678L235.123 87.1567L233.544 89.1871L231.979 91.1569L230.443 93.0647L228.949 94.91L227.51 96.6931L226.138 98.4154L224.846 100.079L223.644 101.686L222.542 103.24L221.548 104.746L220.669 106.207L219.912 107.63L219.283 109.018L218.783 110.379L218.416 111.718L218.182 113.042L218.082 114.356L218.114 115.666" stroke="black" stroke-width="2" stroke-linejoin="round"/>
</svg>
