<svg width="252" height="252" viewBox="0 0 252 252" fill="none" xmlns="http://www.w3.org/2000/svg">
<path fill-rule="evenodd" clip-rule="evenodd" d="M250.916 112.315L250.989 113.634L251 114.953L250.949 116.271L250.833 117.587L250.653 118.898L250.406 120.203L250.093 121.5L249.713 122.788L249.266 124.064L248.753 125.327L248.175 126.576L247.533 127.809L246.828 129.024L246.063 130.22L245.238 131.396L244.357 132.55L243.422 133.681L242.436 134.789L241.402 135.872L240.324 136.93L239.203 137.963L238.045 138.97L236.852 139.951L235.627 140.905L234.376 141.833L233.1 142.735L231.804 143.611L230.492 144.462L229.168 145.289L227.835 146.092L226.496 146.872L225.154 147.63L223.812 148.367L222.474 149.084L221.141 149.781L219.815 150.461L218.499 151.123L217.194 151.769L215.903 152.401L214.626 153.018L213.365 153.623L212.121 154.216L210.896 154.799L209.69 155.372L208.504 155.936L207.338 156.493L206.194 157.044L205.071 157.589L203.971 158.13L202.892 158.668L201.836 159.203L200.802 159.736L199.79 160.269L198.8 160.802L197.833 161.335L196.887 161.871L195.962 162.408L195.059 162.949L194.176 163.493L193.313 164.042L192.469 164.595L191.645 165.154L190.839 165.719L190.05 166.29L189.278 166.868L188.523 167.453L187.783 168.045L187.058 168.646L186.346 169.254L185.648 169.871L184.963 170.496L184.288 171.13L183.625 171.773L182.972 172.425L182.328 173.086L181.692 173.757L181.065 174.436L180.444 175.126L179.83 175.825L179.222 176.534L178.618 177.254L178.02 177.983L177.425 178.723L176.834 179.473L176.246 180.234L175.66 181.006L175.077 181.79L174.495 182.585L173.914 183.392L173.334 184.212L172.754 185.044L172.174 185.89L171.595 186.75L171.014 187.624L170.433 188.513L169.85 189.417L169.266 190.337L168.68 191.274L168.091 192.228L167.499 193.2L166.903 194.189L166.304 195.197L165.699 196.224L165.09 197.27L164.475 198.335L163.853 199.42L163.223 200.524L162.585 201.647L161.938 202.789L161.281 203.949L160.612 205.127L159.93 206.322L159.235 207.532L158.525 208.756L157.799 209.992L157.056 211.239L156.295 212.494L155.513 213.754L154.711 215.018L153.886 216.282L153.038 217.543L152.166 218.796L151.268 220.04L150.345 221.268L149.394 222.479L148.416 223.668L147.412 224.832L146.38 225.97L145.321 227.08L144.237 228.161L143.127 229.213L141.993 230.236L140.835 231.229L139.655 232.193L138.452 233.128L137.229 234.036L135.986 234.917L134.723 235.772L133.442 236.602L132.143 237.407L130.827 238.189L129.494 238.948L128.145 239.685L126.78 240.401L125.401 241.095L124.006 241.77L122.597 242.423L121.174 243.057L119.738 243.671L118.289 244.264L116.826 244.837L115.351 245.389L113.864 245.921L112.365 246.43L110.855 246.918L109.334 247.382L107.802 247.823L106.261 248.24L104.71 248.631L103.15 248.997L101.582 249.335L100.007 249.645L98.4245 249.926L96.8362 250.177L95.2426 250.396L93.6446 250.583L92.043 250.738L90.439 250.857L88.8334 250.942L87.2273 250.989L85.6217 251L84.0179 250.972L82.417 250.905L80.8202 250.798L79.2288 250.649L77.6441 250.458L76.0674 250.225L74.5002 249.948L72.9438 249.626L71.3997 249.26L69.8695 248.847L68.3546 248.388L66.8566 247.883L65.377 247.329L63.9176 246.728L62.4799 246.078L61.0656 245.38L59.6763 244.633L58.3138 243.836L56.9796 242.99L55.6756 242.094L54.4034 241.15L53.1647 240.155L51.9611 239.112L50.7944 238.02L49.666 236.879L48.5776 235.691L47.5307 234.455L46.5268 233.172L45.5672 231.844L44.6534 230.471L43.7865 229.055L42.9677 227.596L42.1981 226.096L41.4784 224.556L40.8096 222.979L40.1922 221.366L39.6268 219.719L39.1136 218.04L38.6528 216.331L38.2442 214.595L37.8878 212.834L37.5829 211.05L37.3289 209.248L37.125 207.429L36.9699 205.596L36.8623 203.753L36.8007 201.902L36.7831 200.047L36.8075 198.191L36.8717 196.337L36.973 194.488L37.1086 192.649L37.2757 190.821L37.4711 189.008L37.6914 187.214L37.9334 185.44L38.1935 183.691L38.4685 181.968L38.7551 180.273L39.0501 178.608L39.3508 176.975L39.6543 175.375L39.9579 173.809L40.2592 172.277L40.5558 170.781L40.8453 169.32L41.1258 167.896L41.3951 166.507L41.6516 165.153L41.8932 163.836L42.1185 162.553L42.3257 161.305L42.5135 160.09L42.6805 158.91L42.8254 157.761L42.9468 156.645L43.0438 155.559L43.1152 154.503L43.1599 153.477L43.1771 152.478L43.1659 151.506L43.1254 150.56L43.0547 149.639L42.9533 148.741L42.8205 147.866L42.6555 147.011L42.4579 146.177L42.2272 145.361L41.9629 144.563L41.6646 143.781L41.332 143.014L40.9649 142.26L40.563 141.518L40.1263 140.787L39.6548 140.066L39.1485 139.353L38.6076 138.647L38.0324 137.946L37.4232 137.249L36.7805 136.554L36.1049 135.861L35.397 135.168L34.6578 134.473L33.8882 133.776L33.0893 133.074L32.2624 132.367L31.4087 131.652L30.5298 130.93L29.6273 130.199L28.7031 129.457L27.7589 128.703L26.7969 127.937L25.8193 127.157L24.8283 126.362L23.8263 125.552L22.8159 124.725L21.7996 123.882L20.7802 123.021L19.7604 122.142L18.743 121.244L17.7308 120.328L16.7269 119.392L15.734 118.438L14.7551 117.464L13.793 116.471L12.8506 115.459L11.9306 114.429L11.0356 113.381L10.1684 112.315L9.33121 111.232L8.52645 110.133L7.75624 109.018L7.02255 107.889L6.32715 106.747L5.67161 105.591L5.05728 104.424L4.48529 103.246L3.95651 102.059L3.47161 100.863L3.03099 99.6595L2.63484 98.4498L2.28311 97.2349L1.97554 96.0156L1.71164 94.793L1.49077 93.5679L1.31212 92.3414L1.17475 91.1141L1.07764 89.8869L1.01974 88.6604L1 87.4355L1.01746 86.2126L1.07128 84.9926L1.16083 83.7761L1.28565 82.5637L1.44537 81.3563L1.63974 80.1545L1.86876 78.9592L2.13247 77.7711L2.43098 76.5913L2.76438 75.4205L3.13276 74.2596L3.53618 73.1095L3.97467 71.9712L4.44821 70.8455L4.95673 69.7332L5.50007 68.6354L6.07799 67.5528L6.69016 66.4862L7.33614 65.4363L8.0154 64.4041L8.72726 63.39L9.47097 62.3946L10.2456 61.4186L11.0502 60.4624L11.8836 59.5262L12.7446 58.6104L13.6317 57.7152L14.5435 56.8404L15.4783 55.9862L16.4344 55.1522L17.4101 54.3382L18.4033 53.5436L19.4122 52.7679L20.4346 52.0104L21.4685 51.2702L22.5117 50.5464L23.5621 49.8377L24.6175 49.1431L25.6757 48.4612L26.7346 47.7905L27.7922 47.1295L28.8462 46.4765L29.8949 45.8299L30.9363 45.1879L31.9686 44.5487L32.9902 43.9104L33.9996 43.2711L34.9953 42.6291L35.9762 41.9824L36.9413 41.3292L37.8895 40.6678L38.8204 39.9963L39.7333 39.3133L40.6281 38.6172L41.5045 37.9066L42.3627 37.1802L43.203 36.437L44.026 35.6759L44.8323 34.8963L45.6228 34.0976L46.3986 33.2794L47.1609 32.4416L47.9111 31.5842L48.6508 30.7076L49.3817 29.8123L50.1055 28.8992L50.8241 27.9691L51.5395 27.0234L52.2537 26.0636L52.9688 25.0912L53.6869 24.1083L54.4101 23.1169L55.1404 22.1192L55.8799 21.1178L56.6305 20.1151L57.3942 19.114L58.1727 18.1171L58.9678 17.1273L59.7808 16.1476L60.6133 15.181L61.4665 14.2302L62.3414 13.2982L63.2389 12.3879L64.1597 11.5019L65.1042 10.6428L66.0728 9.81306L67.0655 9.01495L68.0822 8.2505L69.1227 7.52152L70.1864 6.82958L71.2727 6.17596L72.3808 5.56169L73.5096 4.98751L74.6582 4.45388L75.8253 3.96099L77.0095 3.50876L78.2096 3.09686L79.4242 2.72475L80.6518 2.39167L81.891 2.09673L83.1403 1.83894L84.3986 1.61725L85.6644 1.43067L86.9365 1.27829L88.214 1.15939L89.4958 1.07349L90.781 1.02037L92.0688 1L93.3583 1.01252L94.649 1.05815L95.9398 1.13719L97.2302 1.24993L98.5193 1.39662L99.8063 1.57743L101.09 1.79244L102.371 2.04159L103.646 2.32469L104.917 2.64136L106.18 2.99106L107.437 3.37305L108.685 3.7864L109.924 4.22999L111.154 4.70249L112.373 5.20241L113.581 5.72809L114.777 6.27767L115.961 6.84921L117.131 7.44058L118.289 8.04958L119.432 8.6739L120.562 9.31116L121.678 9.95894L122.78 10.6148L123.868 11.2762L124.943 11.9407L126.004 12.6059L127.053 13.2694L128.089 13.9289L129.113 14.5821L130.126 15.227L131.129 15.8614L132.122 16.4835L133.106 17.0915L134.083 17.6839L135.052 18.2591L136.016 18.8158L136.975 19.353L137.931 19.8697L138.884 20.3651L139.835 20.8385L140.786 21.2895L141.738 21.7179L142.691 22.1235L143.647 22.5063L144.606 22.8665L145.57 23.2044L146.539 23.5204L147.514 23.8151L148.496 24.0891L149.486 24.3432L150.485 24.5782L151.492 24.7951L152.509 24.9948L153.536 25.1783L154.573 25.3467L155.622 25.501L156.681 25.6425L157.753 25.7722L158.836 25.8912L159.931 26.0006L161.039 26.1017L162.159 26.1953L163.292 26.2827L164.437 26.3649L165.595 26.4429L166.766 26.5177L167.95 26.5902L169.147 26.6614L170.357 26.7323L171.579 26.8038L172.814 26.8766L174.062 26.9518L175.322 27.0303L176.595 27.1128L177.879 27.2003L179.176 27.2938L180.484 27.3941L181.803 27.5023L183.132 27.6193L184.472 27.7461L185.821 27.884L187.179 28.034L188.544 28.1973L189.916 28.3752L191.294 28.5691L192.677 28.7803L194.062 29.0102L195.448 29.2604L196.834 29.5324L198.218 29.8278L199.597 30.1481L200.97 30.495L202.334 30.87L203.686 31.2748L205.025 31.7108L206.346 32.1796L207.648 32.6826L208.927 33.2211L210.182 33.796L211.408 34.4082L212.604 35.0585L213.766 35.7471L214.894 36.4743L215.984 37.2398L217.035 38.0434L218.045 38.8843L219.014 39.7616L219.94 40.6742L220.823 41.6207L221.663 42.5994L222.459 43.6086L223.214 44.6464L223.926 45.7106L224.599 46.7992L225.232 47.9098L225.828 49.0402L226.388 50.1879L226.916 51.3507L227.414 52.5263L227.883 53.7125L228.328 54.907L228.751 56.1077L229.155 57.3128L229.543 58.5203L229.919 59.7286L230.285 60.9362L230.645 62.1416L231.002 63.3438L231.359 64.5416L231.718 65.7343L232.082 66.9212L232.454 68.102L232.837 69.2762L233.231 70.4439L233.64 71.605L234.064 72.7599L234.505 73.9089L234.965 75.0526L235.443 76.1915L235.94 77.3265L236.456 78.4584L236.991 79.5882L237.545 80.7168L238.117 81.8453L238.705 82.9747L239.308 84.1063L239.925 85.2411L240.553 86.3801L241.19 87.5244L241.833 88.675L242.48 89.8328L243.129 90.9987L243.775 92.1734L244.415 93.3576L245.046 94.5519L245.665 95.7567L246.268 96.9722L246.851 98.1987L247.41 99.4361L247.941 100.684L248.442 101.943L248.908 103.212L249.336 104.491L249.722 105.778L250.063 107.074L250.356 108.376L250.598 109.685L250.785 110.998L250.916 112.315Z" fill="#F9F9F9"/>
<path d="M250.916 112.315V112.315ZM250.916 112.315L250.989 113.634L251 114.953L250.949 116.271L250.833 117.587L250.653 118.898L250.406 120.203L250.093 121.5L249.713 122.788L249.266 124.064L248.753 125.327L248.175 126.576L247.533 127.809L246.828 129.024L246.063 130.22L245.238 131.396L244.357 132.55L243.422 133.681L242.436 134.789L241.402 135.872L240.324 136.93L239.203 137.963L238.045 138.97L236.852 139.951L235.627 140.905L234.376 141.833L233.1 142.735L231.804 143.611L230.492 144.462L229.168 145.289L227.835 146.092L226.496 146.872L225.154 147.63L223.812 148.367L222.474 149.084L221.141 149.781L219.815 150.461L218.499 151.123L217.194 151.769L215.903 152.401L214.626 153.018L213.365 153.623L212.121 154.216L210.896 154.799L209.69 155.372L208.504 155.936L207.338 156.493L206.194 157.044L205.071 157.589L203.971 158.13L202.892 158.668L201.836 159.203L200.802 159.736L199.79 160.269L198.8 160.802L197.833 161.335L196.887 161.871L195.962 162.408L195.059 162.949L194.176 163.493L193.313 164.042L192.469 164.595L191.645 165.154L190.839 165.719L190.05 166.29L189.278 166.868L188.523 167.453L187.783 168.045L187.058 168.646L186.346 169.254L185.648 169.871L184.963 170.496L184.288 171.13L183.625 171.773L182.972 172.425L182.328 173.086L181.692 173.757L181.065 174.436L180.444 175.126L179.83 175.825L179.222 176.534L178.618 177.254L178.02 177.983L177.425 178.723L176.834 179.473L176.246 180.234L175.66 181.006L175.077 181.79L174.495 182.585L173.914 183.392L173.334 184.212L172.754 185.044L172.174 185.89L171.595 186.75L171.014 187.624L170.433 188.513L169.85 189.417L169.266 190.337L168.68 191.274L168.091 192.228L167.499 193.2L166.903 194.189L166.304 195.197L165.699 196.224L165.09 197.27L164.475 198.335L163.853 199.42L163.223 200.524L162.585 201.647L161.938 202.789L161.281 203.949L160.612 205.127L159.93 206.322L159.235 207.532L158.525 208.756L157.799 209.992L157.056 211.239L156.295 212.494L155.513 213.754L154.711 215.018L153.886 216.282L153.038 217.543L152.166 218.796L151.268 220.04L150.345 221.268L149.394 222.479L148.416 223.668L147.412 224.832L146.38 225.97L145.321 227.08L144.237 228.161L143.127 229.213L141.993 230.236L140.835 231.229L139.655 232.193L138.452 233.128L137.229 234.036L135.986 234.917L134.723 235.772L133.442 236.602L132.143 237.407L130.827 238.189L129.494 238.948L128.145 239.685L126.78 240.401L125.401 241.095L124.006 241.77L122.597 242.423L121.174 243.057L119.738 243.671L118.289 244.264L116.826 244.837L115.351 245.389L113.864 245.921L112.365 246.43L110.855 246.918L109.334 247.382L107.802 247.823L106.261 248.24L104.71 248.631L103.15 248.997L101.582 249.335L100.007 249.645L98.4245 249.926L96.8362 250.177L95.2426 250.396L93.6446 250.584L92.043 250.738L90.439 250.857L88.8334 250.942L87.2273 250.989L85.6217 251L84.0179 250.972L82.417 250.905L80.8202 250.798L79.2288 250.649L77.6441 250.458L76.0674 250.225L74.5002 249.948L72.9438 249.626L71.3997 249.26L69.8695 248.847L68.3546 248.388L66.8566 247.883L65.377 247.329L63.9176 246.728L62.4799 246.078L61.0656 245.38L59.6763 244.633L58.3138 243.836L56.9796 242.99L55.6756 242.094L54.4034 241.15L53.1647 240.155L51.9611 239.112L50.7944 238.02L49.666 236.879L48.5776 235.691L47.5307 234.455L46.5268 233.172L45.5673 231.844L44.6534 230.471L43.7865 229.055L42.9677 227.596L42.1981 226.096L41.4784 224.556L40.8096 222.979L40.1922 221.366L39.6268 219.719L39.1136 218.04L38.6528 216.331L38.2442 214.595L37.8878 212.834L37.5829 211.05L37.3289 209.248L37.125 207.429L36.9699 205.596L36.8623 203.753L36.8007 201.902L36.7831 200.047L36.8076 198.191L36.8717 196.337L36.973 194.488L37.1086 192.649L37.2757 190.821L37.4711 189.008L37.6914 187.214L37.9334 185.44L38.1935 183.691L38.4685 181.968L38.7551 180.273L39.0501 178.608L39.3508 176.975L39.6543 175.375L39.9579 173.809L40.2592 172.277L40.5558 170.781L40.8453 169.32L41.1258 167.896L41.3952 166.507L41.6516 165.153L41.8932 163.836L42.1185 162.553L42.3257 161.305L42.5135 160.09L42.6805 158.91L42.8254 157.761L42.9468 156.645L43.0438 155.559L43.1152 154.504L43.1599 153.477L43.1771 152.478L43.1659 151.506L43.1254 150.56L43.0547 149.639L42.9533 148.741L42.8205 147.866L42.6555 147.011L42.4579 146.177L42.2272 145.361L41.9629 144.563L41.6646 143.781L41.332 143.014L40.9649 142.26L40.563 141.518L40.1263 140.787L39.6548 140.066L39.1485 139.353L38.6076 138.647L38.0324 137.946L37.4232 137.249L36.7805 136.554L36.1049 135.861L35.397 135.168L34.6578 134.473L33.8882 133.776L33.0893 133.074L32.2624 132.367L31.4087 131.652L30.5298 130.93L29.6273 130.199L28.703 129.457L27.7589 128.703L26.7969 127.937L25.8193 127.157L24.8283 126.362L23.8263 125.552L22.8159 124.725L21.7996 123.882L20.7802 123.021L19.7604 122.142L18.743 121.244L17.7308 120.328L16.7269 119.392L15.734 118.438L14.7551 117.464L13.793 116.471L12.8506 115.459L11.9306 114.429L11.0356 113.381L10.1684 112.315L9.33121 111.232L8.52645 110.133L7.75624 109.018L7.02255 107.889L6.32715 106.747L5.67161 105.591L5.05728 104.424L4.48529 103.246L3.95651 102.059L3.47161 100.863L3.03099 99.6595L2.63484 98.4498L2.28311 97.2349L1.97554 96.0156L1.71164 94.793L1.49077 93.5679L1.31212 92.3414L1.17475 91.1141L1.07764 89.8869L1.01974 88.6604L1 87.4355L1.01746 86.2126L1.07128 84.9926L1.16083 83.7761L1.28565 82.5637L1.44537 81.3563L1.63974 80.1545L1.86876 78.9592L2.13247 77.7711L2.43098 76.5913L2.76438 75.4205L3.13276 74.2596L3.53617 73.1095L3.97467 71.9712L4.44821 70.8455L4.95673 69.7332L5.50007 68.6354L6.07799 67.5528L6.69016 66.4862L7.33614 65.4363L8.0154 64.4041L8.72726 63.39L9.47097 62.3946L10.2456 61.4186L11.0502 60.4624L11.8836 59.5262L12.7446 58.6104L13.6317 57.7152L14.5435 56.8404L15.4783 55.9862L16.4344 55.1522L17.4101 54.3382L18.4033 53.5436L19.4122 52.7679L20.4346 52.0104L21.4685 51.2702L22.5117 50.5464L23.5621 49.8377L24.6175 49.1431L25.6757 48.4612L26.7346 47.7905L27.7922 47.1295L28.8462 46.4765L29.8949 45.8299L30.9363 45.1879L31.9686 44.5487L32.9902 43.9104L33.9996 43.2711L34.9953 42.6291L35.9762 41.9824L36.9413 41.3292L37.8896 40.6678L38.8204 39.9963L39.7333 39.3133L40.6281 38.6172L41.5045 37.9066L42.3627 37.1802L43.203 36.437L44.026 35.6759L44.8323 34.8963L45.6228 34.0976L46.3986 33.2794L47.1609 32.4416L47.9111 31.5842L48.6508 30.7076L49.3817 29.8123L50.1055 28.8992L50.8241 27.9691L51.5395 27.0234L52.2537 26.0636L52.9688 25.0912L53.6869 24.1083L54.4101 23.1169L55.1404 22.1192L55.8799 21.1178L56.6305 20.1151L57.3942 19.114L58.1727 18.1171L58.9678 17.1273L59.7808 16.1476L60.6133 15.181L61.4665 14.2302L62.3414 13.2982L63.2389 12.3879L64.1597 11.5019L65.1042 10.6428L66.0728 9.81306L67.0655 9.01495L68.0822 8.2505L69.1227 7.52152L70.1864 6.82957L71.2727 6.17596L72.3808 5.56169L73.5096 4.98751L74.6582 4.45388L75.8253 3.96099L77.0095 3.50876L78.2097 3.09686L79.4242 2.72475L80.6518 2.39167L81.891 2.09673L83.1403 1.83894L84.3986 1.61725L85.6644 1.43067L86.9365 1.27829L88.214 1.15939L89.4958 1.07349L90.781 1.02037L92.0688 1L93.3583 1.01252L94.649 1.05815L95.9398 1.13719L97.2302 1.24993L98.5193 1.39662L99.8063 1.57743L101.09 1.79244L102.371 2.04159L103.646 2.32469L104.917 2.64136L106.18 2.99106L107.437 3.37305L108.685 3.7864L109.924 4.22999L111.154 4.70249L112.373 5.20241L113.581 5.72809L114.777 6.27767L115.961 6.84921L117.131 7.44058L118.289 8.04958L119.432 8.6739L120.562 9.31116L121.678 9.95894L122.78 10.6148L123.868 11.2762L124.943 11.9407L126.004 12.6059L127.053 13.2694L128.089 13.9289L129.113 14.5821L130.126 15.227L131.129 15.8614L132.122 16.4835L133.106 17.0915L134.083 17.6839L135.052 18.2591L136.016 18.8158L136.975 19.353L137.931 19.8697L138.884 20.3651L139.835 20.8385L140.786 21.2895L141.738 21.7179L142.691 22.1235L143.647 22.5063L144.606 22.8665L145.57 23.2044L146.539 23.5204L147.514 23.8151L148.496 24.0891L149.486 24.3432L150.485 24.5782L151.492 24.7951L152.509 24.9948L153.536 25.1783L154.573 25.3467L155.622 25.501L156.681 25.6425L157.753 25.7722L158.836 25.8912L159.931 26.0006L161.039 26.1017L162.159 26.1953L163.292 26.2827L164.437 26.3649L165.595 26.4429L166.766 26.5177L167.95 26.5902L169.147 26.6614L170.357 26.7323L171.579 26.8038L172.814 26.8766L174.062 26.9518L175.322 27.0303L176.595 27.1128L177.879 27.2003L179.176 27.2938L180.484 27.3941L181.803 27.5023L183.132 27.6193L184.472 27.7461L185.821 27.884L187.179 28.034L188.544 28.1973L189.916 28.3752L191.294 28.5691L192.677 28.7803L194.062 29.0102L195.448 29.2604L196.834 29.5324L198.218 29.8278L199.597 30.1481L200.97 30.495L202.334 30.87L203.686 31.2748L205.025 31.7108L206.346 32.1796L207.648 32.6826L208.927 33.2211L210.182 33.796L211.408 34.4082L212.604 35.0585L213.766 35.7471L214.894 36.4743L215.984 37.2398L217.035 38.0434L218.045 38.8843L219.014 39.7616L219.94 40.6742L220.823 41.6207L221.663 42.5994L222.459 43.6086L223.214 44.6464L223.926 45.7106L224.599 46.7992L225.232 47.9098L225.828 49.0402L226.388 50.1879L226.916 51.3507L227.414 52.5263L227.883 53.7125L228.328 54.907L228.751 56.1077L229.155 57.3128L229.543 58.5203L229.919 59.7286L230.285 60.9362L230.645 62.1416L231.002 63.3438L231.359 64.5416L231.718 65.7343L232.082 66.9212L232.454 68.102L232.837 69.2762L233.231 70.4439L233.64 71.605L234.064 72.7599L234.505 73.9089L234.965 75.0526L235.443 76.1915L235.94 77.3265L236.456 78.4584L236.991 79.5882L237.545 80.7168L238.117 81.8453L238.705 82.9747L239.308 84.1063L239.925 85.2411L240.553 86.3801L241.19 87.5244L241.833 88.675L242.48 89.8328L243.129 90.9987L243.775 92.1734L244.415 93.3576L245.046 94.5519L245.665 95.7567L246.268 96.9722L246.851 98.1987L247.41 99.4361L247.941 100.684L248.442 101.943L248.908 103.212L249.336 104.491L249.722 105.778L250.063 107.074L250.356 108.376L250.598 109.685L250.785 110.998L250.916 112.315" stroke="black" stroke-width="2" stroke-linejoin="round"/>
</svg>
