<svg width="252" height="252" viewBox="0 0 252 252" fill="none" xmlns="http://www.w3.org/2000/svg">
<path d="M152.971 1.00033C171.103 0.91385 184.14 17.8494 197.331 29.4935C209.838 40.5345 221.178 52.8011 228.26 67.464C235.155 81.7405 234.21 97.7822 237.711 113.103C241.696 130.538 253.648 147.062 250.468 164.641C247.258 182.384 234.152 197.521 220.198 209.902C206.468 222.084 188.393 228.252 170.977 235.169C153.382 242.158 135.935 250.421 116.83 250.959C97.3442 251.508 78.0171 246.465 60.5948 238.279C43.2695 230.139 26.4266 219.332 16.4289 203.787C6.69399 188.651 7.63255 169.938 5.3607 152.399C3.33969 136.797 -2.35586 120.437 3.73485 105.791C9.78579 91.2406 28.3514 85.1973 38.47 72.7838C47.5413 61.6551 47.9141 44.5757 60.1709 36.5549C72.417 28.541 90.1129 35.2372 103.942 29.9389C122.021 23.0124 133.436 1.0935 152.971 1.00033Z" fill="#F9F9F9" stroke="black" stroke-width="2" stroke-linejoin="round"/>
</svg>
