<svg width="252" height="252" viewBox="0 0 252 252" fill="none" xmlns="http://www.w3.org/2000/svg">
<path fill-rule="evenodd" clip-rule="evenodd" d="M222.818 123.968L222.841 125.143L222.941 126.32L223.119 127.503L223.373 128.696L223.701 129.902L224.102 131.123L224.573 132.363L225.111 133.624L225.713 134.91L226.375 136.222L227.095 137.563L227.866 138.934L228.685 140.338L229.548 141.775L230.448 143.248L231.38 144.756L232.34 146.301L233.321 147.882L234.317 149.5L235.323 151.155L236.332 152.844L237.34 154.569L238.34 156.327L239.327 158.118L240.297 159.939L241.244 161.789L242.165 163.666L243.055 165.569L243.912 167.496L244.731 169.444L245.51 171.411L246.247 173.396L246.938 175.396L247.582 177.409L248.176 179.433L248.718 181.464L249.206 183.502L249.638 185.542L250.013 187.583L250.33 189.622L250.587 191.657L250.783 193.685L250.918 195.702L250.99 197.708L251 199.699L250.947 201.673L250.83 203.627L250.65 205.559L250.407 207.467L250.101 209.349L249.734 211.202L249.304 213.025L248.814 214.815L248.265 216.571L247.656 218.291L246.991 219.973L246.269 221.617L245.493 223.22L244.663 224.781L243.783 226.3L242.852 227.776L241.874 229.207L240.85 230.593L239.781 231.933L238.671 233.228L237.52 234.476L236.331 235.677L235.105 236.832L233.845 237.939L232.553 239L231.23 240.014L229.879 240.981L228.501 241.902L227.098 242.776L225.672 243.605L224.225 244.388L222.757 245.126L221.272 245.818L219.77 246.467L218.253 247.071L216.721 247.631L215.178 248.147L213.623 248.62L212.058 249.05L210.484 249.436L208.902 249.78L207.313 250.082L205.719 250.34L204.119 250.556L202.516 250.73L200.909 250.861L199.3 250.95L197.689 250.996L196.078 251L194.467 250.961L192.856 250.88L191.247 250.755L189.641 250.589L188.038 250.38L186.439 250.128L184.845 249.834L183.256 249.499L181.674 249.122L180.1 248.704L178.534 248.246L176.978 247.748L175.432 247.21L173.897 246.635L172.374 246.023L170.864 245.374L169.367 244.691L167.886 243.974L166.42 243.224L164.97 242.443L163.537 241.633L162.123 240.795L160.727 239.931L159.35 239.042L157.993 238.131L156.657 237.201L155.342 236.254L154.049 235.293L152.779 234.321L151.532 233.342L150.307 232.36L149.107 231.378L147.93 230.401L146.778 229.433L145.648 228.478L144.543 227.54L143.46 226.622L142.4 225.73L141.361 224.868L140.344 224.037L139.346 223.244L138.368 222.489L137.407 221.778L136.462 221.112L135.532 220.494L134.615 219.926L133.709 219.41L132.814 218.948L131.927 218.541L131.046 218.191L130.169 217.896L129.296 217.659L128.423 217.478L127.55 217.354L126.673 217.286L125.793 217.273L124.906 217.313L124.012 217.405L123.109 217.548L122.195 217.738L121.269 217.974L120.33 218.253L119.377 218.572L118.409 218.929L117.425 219.319L116.424 219.739L115.406 220.186L114.37 220.657L113.317 221.146L112.245 221.65L111.156 222.166L110.049 222.688L108.925 223.213L107.784 223.737L106.628 224.255L105.457 224.763L104.271 225.257L103.073 225.733L101.863 226.186L100.644 226.614L99.4162 227.011L98.1818 227.375L96.9425 227.701L95.7004 227.987L94.4575 228.229L93.2157 228.424L91.9772 228.569L90.7443 228.663L89.5191 228.702L88.3039 228.684L87.1009 228.608L85.9123 228.473L84.7404 228.277L83.5872 228.019L82.4549 227.698L81.3455 227.315L80.2608 226.869L79.2027 226.36L78.1729 225.79L77.1728 225.159L76.2039 224.468L75.2674 223.718L74.3644 222.912L73.4957 222.051L72.6619 221.138L71.8635 220.174L71.1007 219.164L70.3737 218.108L69.6821 217.011L69.0256 215.876L68.4036 214.706L67.8152 213.503L67.2594 212.273L66.7349 211.017L66.2405 209.74L65.7743 208.445L65.3346 207.136L64.919 205.816L64.5251 204.489L64.1501 203.16L63.7911 201.831L63.4453 200.506L63.1094 199.189L62.7804 197.882L62.4553 196.589L62.1311 195.31L61.8044 194.05L61.4722 192.81L61.1311 191.592L60.7778 190.398L60.409 189.229L60.0216 188.086L59.6124 186.971L59.1782 185.884L58.7162 184.826L58.2234 183.797L57.6971 182.797L57.135 181.825L56.5345 180.88L55.8938 179.963L55.2107 179.072L54.4837 178.205L53.7114 177.361L52.8927 176.538L52.0267 175.735L51.1128 174.948L50.1509 174.176L49.1408 173.417L48.0831 172.666L46.9782 171.923L45.8273 171.184L44.6315 170.446L43.3925 169.707L42.1121 168.963L40.7926 168.211L39.4364 167.449L38.0464 166.673L36.6255 165.882L35.1771 165.071L33.7047 164.239L32.2122 163.383L30.7037 162.501L29.1832 161.59L27.6554 160.648L26.1248 159.673L24.5961 158.664L23.0742 157.619L21.5642 156.538L20.0709 155.418L18.5997 154.259L17.1556 153.061L15.7437 151.823L14.3692 150.546L13.0372 149.229L11.7527 147.874L10.5205 146.48L9.34534 145.05L8.23191 143.583L7.18458 142.083L6.20751 140.55L5.30465 138.986L4.47967 137.395L3.73593 135.777L3.07649 134.137L2.50405 132.475L2.02096 130.797L1.62918 129.103L1.33027 127.399L1.12537 125.686L1.01518 123.968L1 122.249L1.07964 120.531L1.25347 118.818L1.52043 117.114L1.87899 115.42L2.32717 113.741L2.86258 112.079L3.4824 110.438L4.18343 108.818L4.96208 107.224L5.81442 105.656L6.73623 104.118L7.72299 102.61L8.77 101.134L9.87235 99.6914L11.025 98.2829L12.223 96.909L13.4612 95.5702L14.7347 94.2667L16.0384 92.9983L17.3674 91.7648L18.7167 90.5655L20.0811 89.3995L21.4557 88.2657L22.8358 87.163L24.2167 86.0896L25.5939 85.044L26.9632 84.0244L28.3208 83.0287L29.6631 82.0551L30.9867 81.1013L32.2882 80.1649L33.5645 79.2436L34.8123 78.3346L36.0287 77.4353L37.2109 76.5427L38.3563 75.654L39.4627 74.7661L40.5279 73.8761L41.5504 72.981L42.5286 72.0779L43.4616 71.1638L44.3485 70.2361L45.1888 69.2919L45.9825 68.3289L46.7298 67.3445L47.4313 66.3364L48.0877 65.3028L48.7001 64.2417L49.2701 63.1516L49.7993 62.0309L50.2896 60.8787L50.7432 59.6939L51.1624 58.476L51.55 57.2246L51.9086 55.9397L52.2412 54.6213L52.5508 53.2699L52.8407 51.8864L53.1139 50.4716L53.374 49.0269L53.6243 47.5537L53.8682 46.0539L54.1091 44.5295L54.3504 42.9827L54.5956 41.4161L54.848 39.8324L55.1108 38.2345L55.3873 36.6255L55.6805 35.0086L55.9935 33.3874L56.329 31.7654L56.6898 30.1462L57.0784 28.5338L57.4972 26.9319L57.9485 25.3447L58.4342 23.776L58.9561 22.23L59.516 20.7107L60.1152 19.2221L60.7548 17.7682L61.436 16.3531L62.1594 14.9806L62.9257 13.6544L63.7351 12.3784L64.5876 11.156L65.4833 9.99066L66.4218 8.88558L67.4025 7.84381L68.4246 6.86817L69.4873 5.96129L70.5893 5.12551L71.7294 4.36295L72.9059 3.67544L74.1173 3.06455L75.3616 2.53154L76.637 2.07735L77.9413 1.70263L79.2722 1.40771L80.6274 1.19257L82.0046 1.05689L83.4012 1L84.8147 1.02091L86.2424 1.11829L87.6818 1.2905L89.1303 1.53559L90.5851 1.85129L92.0438 2.23506L93.5038 2.68405L94.9626 3.19518L96.4177 3.76512L97.8669 4.39032L99.3079 5.06705L100.739 5.79142L102.157 6.55942L103.562 7.36708L104.95 8.21054L106.322 9.08602L107.676 9.98989L109.009 10.9186L110.323 11.8689L111.615 12.8374L112.886 13.8212L114.134 14.8174L115.36 15.8231L116.563 16.8358L117.743 17.8527L118.899 18.871L120.032 19.8878L121.142 20.9005L122.229 21.9062L123.294 22.9024L124.336 23.8866L125.356 24.8562L126.355 25.8091L127.333 26.743L128.292 27.6562L129.231 28.5466L130.152 29.4127L131.055 30.2529L131.942 31.066L132.814 31.8507L133.671 32.6061L134.515 33.3312L135.346 34.0253L136.166 34.6877L136.977 35.318L137.778 35.9158L138.571 36.4808L139.357 37.0128L140.138 37.5116L140.914 37.9774L141.687 38.4101L142.458 38.8098L143.227 39.1768L143.996 39.5112L144.766 39.8133L145.538 40.0834L146.314 40.322L147.093 40.5293L147.878 40.7058L148.669 40.852L149.466 40.9684L150.273 41.0554L151.088 41.1137L151.913 41.1438L152.75 41.1463L153.598 41.1218L154.459 41.0711L155.334 40.9948L156.224 40.8936L157.129 40.7685L158.051 40.62L158.99 40.4492L159.946 40.2569L160.921 40.0441L161.916 39.8116L162.93 39.5606L163.966 39.2921L165.022 39.0072L166.1 38.707L167.201 38.3928L168.324 38.0657L169.471 37.727L170.642 37.3781L171.836 37.0202L173.055 36.6547L174.298 36.2831L175.566 35.9068L176.859 35.5272L178.177 35.1458L179.52 34.7642L180.888 34.3837L182.281 34.0061L183.699 33.6328L185.141 33.2654L186.608 32.9054L188.099 32.5545L189.614 32.2143L191.152 31.8862L192.712 31.5721L194.296 31.2733L195.901 30.9916L197.527 30.7285L199.173 30.4857L200.839 30.2648L202.523 30.0675L204.225 29.8953L205.943 29.75L207.677 29.6335L209.424 29.5477L211.182 29.4951L212.95 29.4781L214.724 29.4995L216.502 29.5622L218.28 29.6691L220.055 29.8236L221.822 30.0288L223.577 30.2882L225.315 30.6048L227.031 30.9818L228.721 31.4221L230.379 31.9282L231.999 32.5026L233.578 33.1473L235.108 33.864L236.586 34.654L238.006 35.5183L239.363 36.4573L240.653 37.4711L241.871 38.5593L243.013 39.7212L244.076 40.9556L245.055 42.2609L245.949 43.6349L246.753 45.0755L247.466 46.5797L248.087 48.1446L248.613 49.7668L249.045 51.4426L249.38 53.1682L249.62 54.9394L249.765 56.7519L249.816 58.6014L249.774 60.4833L249.641 62.393L249.419 64.3257L249.111 66.2769L248.721 68.2418L248.251 70.2159L247.706 72.1946L247.089 74.1735L246.406 76.1484L245.661 78.115L244.86 80.0696L244.007 82.0083L243.109 83.9278L242.17 85.8248L241.198 87.6963L240.198 89.5398L239.177 91.3528L238.14 93.1334L237.094 94.8797L236.045 96.5905L234.999 98.2647L233.963 99.9014L232.943 101.5L231.944 103.062L230.973 104.585L230.034 106.072L229.134 107.522L228.278 108.938L227.469 110.32L226.714 111.67L226.016 112.991L225.378 114.284L224.806 115.552L224.301 116.798L223.866 118.024L223.504 119.234L223.217 120.43L223.007 121.615L222.873 122.794L222.818 123.968Z" fill="#F9F9F9"/>
<path d="M222.818 123.968V123.968ZM222.818 123.968L222.841 125.143L222.941 126.32L223.119 127.503L223.373 128.696L223.701 129.902L224.102 131.123L224.573 132.363L225.111 133.624L225.713 134.91L226.375 136.222L227.095 137.563L227.866 138.934L228.685 140.338L229.548 141.775L230.448 143.248L231.38 144.756L232.34 146.301L233.321 147.882L234.317 149.5L235.323 151.155L236.332 152.844L237.34 154.569L238.34 156.327L239.327 158.118L240.297 159.939L241.244 161.789L242.165 163.666L243.055 165.569L243.912 167.496L244.731 169.444L245.51 171.411L246.247 173.396L246.938 175.396L247.582 177.409L248.176 179.433L248.718 181.464L249.206 183.502L249.638 185.542L250.013 187.583L250.33 189.622L250.587 191.657L250.783 193.685L250.918 195.702L250.99 197.708L251 199.699L250.947 201.673L250.83 203.627L250.65 205.559L250.407 207.467L250.101 209.349L249.734 211.202L249.304 213.025L248.814 214.815L248.265 216.571L247.656 218.291L246.991 219.973L246.269 221.617L245.493 223.22L244.663 224.781L243.783 226.3L242.852 227.776L241.874 229.207L240.85 230.593L239.781 231.933L238.671 233.228L237.52 234.476L236.331 235.677L235.105 236.832L233.845 237.939L232.553 239L231.23 240.014L229.879 240.981L228.501 241.902L227.098 242.776L225.672 243.605L224.225 244.388L222.757 245.126L221.272 245.818L219.77 246.467L218.253 247.071L216.721 247.631L215.178 248.147L213.623 248.62L212.058 249.05L210.484 249.436L208.902 249.78L207.313 250.082L205.719 250.34L204.119 250.556L202.516 250.73L200.909 250.861L199.3 250.95L197.689 250.996L196.078 251L194.467 250.961L192.856 250.88L191.247 250.755L189.641 250.589L188.038 250.379L186.439 250.128L184.845 249.834L183.256 249.499L181.674 249.122L180.1 248.704L178.534 248.246L176.978 247.748L175.432 247.21L173.897 246.635L172.374 246.023L170.864 245.374L169.367 244.691L167.886 243.974L166.42 243.224L164.97 242.443L163.537 241.633L162.123 240.795L160.727 239.931L159.35 239.042L157.993 238.131L156.657 237.201L155.342 236.254L154.049 235.293L152.779 234.321L151.532 233.342L150.307 232.36L149.107 231.378L147.93 230.401L146.778 229.433L145.648 228.478L144.543 227.54L143.46 226.622L142.4 225.73L141.361 224.868L140.344 224.037L139.346 223.244L138.368 222.489L137.407 221.778L136.462 221.112L135.532 220.494L134.615 219.926L133.709 219.41L132.814 218.948L131.927 218.541L131.046 218.191L130.169 217.896L129.296 217.659L128.423 217.478L127.55 217.354L126.673 217.286L125.793 217.273L124.906 217.313L124.012 217.405L123.109 217.548L122.195 217.738L121.269 217.974L120.331 218.253L119.377 218.572L118.409 218.929L117.425 219.319L116.424 219.739L115.406 220.186L114.37 220.657L113.317 221.146L112.245 221.65L111.156 222.166L110.049 222.688L108.925 223.213L107.784 223.737L106.628 224.255L105.457 224.763L104.271 225.257L103.073 225.733L101.863 226.186L100.644 226.614L99.4162 227.011L98.1818 227.375L96.9425 227.701L95.7004 227.987L94.4574 228.229L93.2157 228.424L91.9772 228.569L90.7443 228.663L89.5191 228.702L88.3039 228.684L87.1009 228.608L85.9123 228.473L84.7404 228.277L83.5872 228.019L82.4549 227.698L81.3455 227.315L80.2608 226.869L79.2027 226.36L78.1728 225.79L77.1728 225.159L76.2039 224.468L75.2674 223.718L74.3644 222.912L73.4957 222.051L72.6619 221.138L71.8635 220.174L71.1007 219.164L70.3737 218.108L69.6821 217.011L69.0256 215.876L68.4036 214.706L67.8152 213.503L67.2594 212.273L66.7349 211.017L66.2405 209.74L65.7743 208.445L65.3346 207.136L64.919 205.816L64.5251 204.489L64.1501 203.16L63.7911 201.831L63.4453 200.506L63.1094 199.189L62.7804 197.882L62.4553 196.588L62.1311 195.31L61.8044 194.05L61.4722 192.81L61.1311 191.592L60.7778 190.398L60.409 189.229L60.0216 188.086L59.6124 186.971L59.1782 185.884L58.7162 184.826L58.2234 183.797L57.6971 182.797L57.135 181.825L56.5345 180.88L55.8938 179.963L55.2107 179.072L54.4837 178.205L53.7114 177.361L52.8927 176.538L52.0267 175.735L51.1128 174.948L50.1509 174.176L49.1408 173.417L48.0831 172.666L46.9782 171.923L45.8273 171.184L44.6315 170.446L43.3925 169.707L42.1121 168.963L40.7926 168.211L39.4364 167.449L38.0464 166.673L36.6255 165.882L35.1771 165.071L33.7047 164.239L32.2122 163.383L30.7037 162.501L29.1832 161.59L27.6554 160.648L26.1248 159.673L24.5961 158.664L23.0742 157.619L21.5642 156.538L20.0709 155.418L18.5997 154.259L17.1556 153.061L15.7437 151.823L14.3692 150.546L13.0372 149.229L11.7527 147.874L10.5205 146.48L9.34534 145.05L8.23191 143.583L7.18458 142.083L6.20751 140.55L5.30465 138.986L4.47967 137.395L3.73593 135.777L3.07649 134.137L2.50405 132.475L2.02096 130.797L1.62918 129.103L1.33027 127.399L1.12537 125.686L1.01518 123.968L1 122.249L1.07964 120.531L1.25347 118.818L1.52043 117.114L1.87899 115.42L2.32717 113.741L2.86258 112.079L3.4824 110.438L4.18343 108.818L4.96208 107.224L5.81442 105.656L6.73623 104.118L7.72299 102.61L8.77 101.134L9.87235 99.6914L11.025 98.2829L12.223 96.909L13.4612 95.5702L14.7347 94.2667L16.0384 92.9983L17.3674 91.7648L18.7167 90.5655L20.0811 89.3995L21.4557 88.2657L22.8358 87.163L24.2167 86.0896L25.5939 85.044L26.9632 84.0244L28.3208 83.0287L29.6631 82.0551L30.9867 81.1013L32.2882 80.1649L33.5645 79.2436L34.8123 78.3346L36.0287 77.4353L37.2109 76.5427L38.3563 75.654L39.4627 74.7661L40.5279 73.8761L41.5504 72.981L42.5286 72.0779L43.4616 71.1638L44.3485 70.2361L45.1888 69.2919L45.9825 68.3289L46.7298 67.3445L47.4313 66.3365L48.0877 65.3028L48.7001 64.2417L49.2701 63.1516L49.7993 62.0309L50.2896 60.8787L50.7432 59.6939L51.1624 58.476L51.55 57.2246L51.9086 55.9397L52.2412 54.6213L52.5508 53.2699L52.8407 51.8864L53.1139 50.4716L53.374 49.0269L53.6243 47.5537L53.8682 46.0539L54.1091 44.5295L54.3504 42.9827L54.5956 41.4161L54.848 39.8324L55.1108 38.2345L55.3873 36.6255L55.6805 35.0086L55.9935 33.3874L56.329 31.7654L56.6898 30.1462L57.0784 28.5338L57.4972 26.932L57.9485 25.3447L58.4342 23.776L58.9561 22.23L59.516 20.7107L60.1152 19.2221L60.7548 17.7682L61.436 16.3531L62.1594 14.9806L62.9257 13.6544L63.735 12.3784L64.5876 11.156L65.4833 9.99066L66.4218 8.88558L67.4025 7.84381L68.4246 6.86817L69.4873 5.96129L70.5893 5.12551L71.7294 4.36295L72.9059 3.67544L74.1173 3.06455L75.3616 2.53154L76.637 2.07735L77.9413 1.70263L79.2722 1.40771L80.6275 1.19257L82.0046 1.05689L83.4012 1L84.8147 1.02091L86.2424 1.11829L87.6818 1.2905L89.1303 1.53559L90.5851 1.85129L92.0438 2.23506L93.5038 2.68405L94.9626 3.19518L96.4177 3.76512L97.8669 4.39032L99.3079 5.06705L100.739 5.79142L102.157 6.55942L103.562 7.36708L104.95 8.21054L106.322 9.08602L107.676 9.98989L109.009 10.9186L110.323 11.8689L111.615 12.8374L112.886 13.8212L114.134 14.8174L115.36 15.8231L116.563 16.8358L117.743 17.8527L118.899 18.871L120.032 19.8878L121.142 20.9005L122.229 21.9062L123.294 22.9024L124.336 23.8866L125.356 24.8562L126.355 25.8091L127.333 26.743L128.292 27.6562L129.231 28.5466L130.152 29.4127L131.055 30.2529L131.942 31.066L132.814 31.8507L133.671 32.6061L134.515 33.3312L135.346 34.0253L136.166 34.6877L136.977 35.318L137.778 35.9158L138.571 36.4808L139.357 37.0128L140.138 37.5116L140.914 37.9774L141.687 38.4101L142.458 38.8098L143.227 39.1768L143.996 39.5112L144.766 39.8133L145.538 40.0834L146.314 40.322L147.093 40.5293L147.878 40.7058L148.669 40.852L149.466 40.9684L150.273 41.0554L151.088 41.1137L151.913 41.1438L152.75 41.1463L153.598 41.1218L154.459 41.0711L155.334 40.9948L156.224 40.8936L157.129 40.7685L158.051 40.62L158.989 40.4492L159.946 40.2569L160.921 40.0441L161.916 39.8116L162.93 39.5606L163.966 39.2921L165.022 39.0072L166.1 38.707L167.201 38.3928L168.324 38.0657L169.471 37.727L170.642 37.3781L171.836 37.0202L173.055 36.6547L174.298 36.2831L175.566 35.9068L176.859 35.5272L178.177 35.1458L179.52 34.7642L180.888 34.3837L182.281 34.0061L183.699 33.6328L185.141 33.2654L186.608 32.9054L188.099 32.5545L189.614 32.2143L191.152 31.8863L192.712 31.5721L194.296 31.2733L195.901 30.9916L197.527 30.7285L199.173 30.4857L200.839 30.2648L202.523 30.0675L204.225 29.8953L205.943 29.75L207.677 29.6335L209.424 29.5477L211.182 29.4951L212.95 29.4781L214.724 29.4995L216.502 29.5622L218.28 29.6691L220.055 29.8236L221.822 30.0288L223.577 30.2882L225.315 30.6048L227.031 30.9818L228.721 31.4221L230.379 31.9282L231.999 32.5026L233.578 33.1473L235.108 33.864L236.586 34.654L238.006 35.5183L239.363 36.4573L240.653 37.4711L241.871 38.5593L243.013 39.7212L244.076 40.9556L245.055 42.2609L245.949 43.6349L246.753 45.0755L247.466 46.5797L248.087 48.1446L248.613 49.7668L249.045 51.4426L249.38 53.1682L249.62 54.9394L249.765 56.7519L249.816 58.6014L249.774 60.4833L249.641 62.393L249.419 64.3257L249.111 66.2769L248.721 68.2418L248.251 70.2159L247.706 72.1946L247.089 74.1735L246.406 76.1484L245.661 78.115L244.86 80.0696L244.007 82.0083L243.109 83.9278L242.17 85.8248L241.198 87.6963L240.198 89.5398L239.177 91.3528L238.14 93.1334L237.094 94.8797L236.045 96.5905L234.999 98.2647L233.963 99.9014L232.943 101.5L231.944 103.062L230.973 104.585L230.034 106.072L229.134 107.522L228.278 108.938L227.469 110.32L226.714 111.67L226.016 112.991L225.378 114.284L224.806 115.552L224.301 116.798L223.866 118.024L223.504 119.234L223.217 120.43L223.007 121.615L222.873 122.794L222.818 123.968" stroke="black" stroke-width="2" stroke-linejoin="round"/>
</svg>
