<svg width="252" height="252" viewBox="0 0 252 252" fill="none" xmlns="http://www.w3.org/2000/svg">
<path fill-rule="evenodd" clip-rule="evenodd" d="M250.269 127.856L249.907 129.356L249.473 130.846L248.97 132.324L248.398 133.788L247.759 135.236L247.054 136.666L246.286 138.076L245.456 139.464L244.566 140.83L243.62 142.17L242.62 143.485L241.569 144.772L240.47 146.031L239.326 147.261L238.14 148.461L236.916 149.629L235.657 150.767L234.365 151.873L233.043 152.946L231.694 153.987L230.321 154.995L228.927 155.971L227.514 156.914L226.086 157.825L224.644 158.704L223.192 159.551L221.732 160.367L220.266 161.153L218.797 161.908L217.327 162.634L215.858 163.332L214.392 164.002L212.931 164.645L211.478 165.262L210.033 165.855L208.599 166.424L207.177 166.97L205.769 167.495L204.376 168L203.001 168.486L201.644 168.955L200.307 169.408L198.991 169.847L197.698 170.273L196.429 170.687L195.185 171.093L193.966 171.49L192.775 171.881L191.611 172.268L190.476 172.652L189.371 173.036L188.295 173.42L187.25 173.807L186.235 174.199L185.252 174.597L184.299 175.003L183.378 175.418L182.488 175.846L181.63 176.286L180.802 176.742L180.004 177.213L179.237 177.703L178.498 178.211L177.789 178.741L177.107 179.293L176.453 179.867L175.824 180.467L175.221 181.092L174.641 181.743L174.084 182.422L173.549 183.129L173.033 183.865L172.536 184.63L172.056 185.425L171.592 186.251L171.142 187.108L170.704 187.996L170.276 188.914L169.858 189.864L169.447 190.844L169.042 191.855L168.641 192.896L168.241 193.967L167.842 195.067L167.442 196.196L167.038 197.353L166.63 198.536L166.215 199.745L165.792 200.98L165.358 202.238L164.914 203.518L164.456 204.82L163.984 206.142L163.497 207.483L162.992 208.84L162.468 210.213L161.924 211.601L161.36 213L160.773 214.41L160.163 215.829L159.528 217.256L158.869 218.687L158.183 220.122L157.471 221.558L156.73 222.993L155.962 224.425L155.164 225.851L154.336 227.268L153.478 228.674L152.59 230.066L151.67 231.441L150.719 232.796L149.737 234.128L148.724 235.434L147.679 236.71L146.604 237.953L145.497 239.16L144.361 240.328L143.195 241.452L142 242.529L140.778 243.556L139.528 244.529L138.254 245.445L136.955 246.3L135.633 247.09L134.29 247.814L132.929 248.469L131.55 249.052L130.156 249.561L128.749 249.995L127.331 250.352L125.905 250.632L124.473 250.833L123.037 250.956L121.6 251L120.163 250.966L118.73 250.855L117.302 250.667L115.882 250.404L114.471 250.069L113.073 249.662L111.687 249.186L110.318 248.645L108.965 248.04L107.63 247.375L106.316 246.654L105.022 245.879L103.749 245.056L102.5 244.187L101.273 243.277L100.069 242.331L98.8884 241.351L97.7312 240.344L96.5967 239.314L95.4846 238.264L94.394 237.2L93.3239 236.126L92.2732 235.047L91.2406 233.967L90.2244 232.89L89.2231 231.82L88.2346 230.761L87.2571 229.718L86.2883 228.693L85.3261 227.691L84.3681 226.713L83.4119 225.764L82.455 224.845L81.4949 223.96L80.529 223.109L79.555 222.296L78.5703 221.52L77.5725 220.783L76.5593 220.086L75.5283 219.429L74.4774 218.812L73.4046 218.235L72.308 217.697L71.186 217.197L70.0368 216.735L68.8593 216.308L67.6522 215.914L66.4146 215.553L65.1459 215.22L63.8455 214.914L62.5134 214.633L61.1494 214.372L59.7541 214.13L58.3279 213.902L56.8718 213.685L55.3868 213.476L53.8743 213.272L52.336 213.068L50.7738 212.86L49.1899 212.646L47.5866 212.421L45.9666 212.182L44.3326 211.926L42.6876 211.648L41.0347 211.346L39.3771 211.016L37.7181 210.656L36.0612 210.262L34.4097 209.833L32.7671 209.366L31.1369 208.859L29.5224 208.31L27.9271 207.718L26.354 207.082L24.8063 206.4L23.2869 205.672L21.7988 204.897L20.3447 204.076L18.9274 203.208L17.5495 202.293L16.2136 201.331L14.9223 200.324L13.6778 199.271L12.4825 198.174L11.3384 197.032L10.2476 195.848L9.21181 194.623L8.23282 193.357L7.31212 192.053L6.45108 190.712L5.65086 189.335L4.91252 187.925L4.2369 186.483L3.6247 185.011L3.07644 183.511L2.59248 181.986L2.17301 180.437L1.81805 178.867L1.52745 177.278L1.30089 175.672L1.13792 174.051L1.03788 172.418L1 170.774L1.02333 169.123L1.10678 167.465L1.24912 165.803L1.44899 164.14L1.7049 162.478L2.01525 160.817L2.37831 159.161L2.79227 157.511L3.25521 155.869L3.76515 154.237L4.32003 152.615L4.91772 151.007L5.55605 149.412L6.23282 147.833L6.9458 146.271L7.69274 144.727L8.47138 143.201L9.2795 141.695L10.1148 140.21L10.9752 138.746L11.8585 137.304L12.7625 135.884L13.6853 134.488L14.6247 133.114L15.5789 131.764L16.5459 130.438L17.5241 129.135L18.5117 127.856L19.507 126.601L20.5084 125.369L21.5146 124.161L22.5241 122.976L23.5356 121.814L24.5479 120.674L25.5598 119.557L26.5704 118.462L27.5786 117.388L28.5837 116.336L29.5847 115.303L30.581 114.292L31.572 113.299L32.5568 112.326L33.5345 111.371L34.5041 110.434L35.4643 109.514L36.4136 108.61L37.3507 107.722L38.2737 106.848L39.1811 105.987L40.0712 105.138L40.9419 104.299L41.7916 103.47L42.6183 102.648L43.4201 101.832L44.195 101.021L44.9412 100.211L45.6566 99.4018L46.3393 98.5907L46.9875 97.7754L47.5992 96.9536L48.1724 96.1227L48.7054 95.2803L49.1966 94.4236L49.6446 93.5499L50.0484 92.6568L50.4073 91.7416L50.721 90.8018L50.9892 89.8349L51.2122 88.8387L51.3904 87.8109L51.5248 86.7494L51.6164 85.6523L51.6667 84.5179L51.6772 83.3446L51.6502 82.131L51.5876 80.876L51.4922 79.5787L51.3665 78.2385L51.2135 76.8548L51.0365 75.4275L50.8385 73.9568L50.6232 72.4429L50.3942 70.8865L50.1551 69.2885L49.9098 67.65L49.6621 65.9725L49.4161 64.2577L49.1756 62.5076L48.9447 60.7243L48.7273 58.9104L48.5273 57.0685L48.3486 55.2017L48.195 53.3129L48.0701 51.4057L47.9775 49.4835L47.9206 47.5499L47.9027 45.609L47.9267 43.6645L47.9957 41.7206L48.1122 39.7815L48.2786 37.8513L48.4973 35.9344L48.77 34.0349L49.0986 32.1572L49.4844 30.3056L49.9287 28.4841L50.4322 26.6968L50.9957 24.9479L51.6195 23.2411L52.3035 21.5802L53.0478 19.9687L53.8517 18.41L54.7146 16.9072L55.6354 15.4634L56.6131 14.0812L57.6461 12.7631L58.7329 11.5111L59.8715 10.3273L61.0599 9.21315L62.2959 8.17005L63.5773 7.19895L64.9014 6.30055L66.2656 5.47521L67.6673 4.72297L69.1036 4.04357L70.5717 3.43642L72.0688 2.90065L73.5917 2.43506L75.1378 2.03819L76.704 1.70833L78.2875 1.44366L79.8857 1.24236L81.4961 1.10257L83.1162 1.02242L84.7436 1L86.3761 1.03341L88.0117 1.12071L89.6484 1.25996L91.2842 1.44924L92.9174 1.68662L94.5463 1.9702L96.1693 2.29813L97.7851 2.6686L99.3923 3.07989L100.99 3.53034L102.576 4.01844L104.15 4.54277L105.711 5.1021L107.258 5.69537L108.791 6.3217L110.308 6.98031L111.808 7.67035L113.292 8.39095L114.758 9.14113L116.205 9.91989L117.634 10.7262L119.043 11.5588L120.432 12.4165L121.8 13.2982L123.147 14.2024L124.473 15.1279L125.777 16.0731L127.059 17.0365L128.318 18.0168L129.555 19.0122L130.77 20.0212L131.961 21.0422L133.13 22.0734L134.277 23.1134L135.4 24.1603L136.502 25.2126L137.582 26.2687L138.64 27.3268L139.677 28.3853L140.693 29.4427L141.688 30.4974L142.665 31.5478L143.622 32.5924L144.561 33.6298L145.482 34.6585L146.387 35.6772L147.276 36.6845L148.15 37.6791L149.01 38.66L149.857 39.6259L150.692 40.5758L151.516 41.5087L152.33 42.4238L153.136 43.3201L153.934 44.197L154.725 45.0539L155.512 45.8902L156.294 46.7054L157.073 47.4992L157.85 48.2713L158.626 49.0217L159.402 49.7501L160.18 50.4567L160.96 51.1417L161.744 51.8051L162.532 52.4475L163.325 53.0691L164.124 53.6705L164.931 54.2523L165.745 54.8151L166.567 55.3597L167.398 55.887L168.24 56.3978L169.091 56.893L169.953 57.3737L170.826 57.8409L171.71 58.2958L172.606 58.7395L173.513 59.1733L174.433 59.5984L175.364 60.0161L176.306 60.4277L177.261 60.8345L178.226 61.2379L179.203 61.6391L180.191 62.0391L181.19 62.439L182.199 62.8397L183.22 63.242L184.251 63.6466L185.293 64.0543L186.345 64.4657L187.409 64.8814L188.483 65.302L189.569 65.728L190.665 66.16L191.773 66.5984L192.892 67.0439L194.022 67.4968L195.163 67.9578L196.317 68.4272L197.481 68.9056L198.658 69.3936L199.846 69.8915L201.046 70.4001L202.257 70.9197L203.48 71.4511L204.714 71.9949L205.959 72.5516L207.215 73.1221L208.481 73.707L209.757 74.307L211.042 74.923L212.336 75.5557L213.637 76.206L214.946 76.8746L216.26 77.5624L217.578 78.2702L218.9 78.9989L220.224 79.7493L221.549 80.5222L222.872 81.3183L224.193 82.1385L225.508 82.9835L226.818 83.8539L228.118 84.7504L229.408 85.6736L230.684 86.624L231.945 87.602L233.188 88.6079L234.411 89.6421L235.611 90.7048L236.785 91.796L237.931 92.9157L239.047 94.0638L240.128 95.2401L241.174 96.4442L242.18 97.6757L243.145 98.934L244.065 100.218L244.939 101.528L245.763 102.862L246.535 104.22L247.253 105.599L247.914 107L248.517 108.42L249.058 109.857L249.537 111.312L249.951 112.781L250.298 114.263L250.578 115.756L250.789 117.258L250.93 118.767L251 120.282L250.998 121.799L250.924 123.318L250.778 124.835L250.56 126.348L250.269 127.856Z" fill="#F9F9F9"/>
<path d="M250.269 127.856V127.856ZM250.269 127.856L249.907 129.356L249.473 130.846L248.97 132.324L248.398 133.788L247.759 135.236L247.054 136.666L246.286 138.076L245.456 139.464L244.566 140.83L243.62 142.17L242.62 143.485L241.569 144.772L240.47 146.031L239.326 147.261L238.14 148.461L236.916 149.629L235.657 150.767L234.365 151.873L233.043 152.946L231.694 153.987L230.321 154.995L228.927 155.971L227.514 156.914L226.086 157.825L224.644 158.704L223.192 159.551L221.732 160.367L220.266 161.153L218.797 161.908L217.327 162.634L215.858 163.332L214.392 164.002L212.931 164.645L211.478 165.262L210.033 165.855L208.599 166.424L207.177 166.97L205.769 167.495L204.376 168L203.001 168.486L201.644 168.955L200.307 169.408L198.991 169.847L197.698 170.273L196.429 170.687L195.185 171.093L193.966 171.49L192.775 171.881L191.611 172.268L190.476 172.652L189.371 173.036L188.295 173.42L187.25 173.807L186.235 174.199L185.252 174.597L184.299 175.003L183.378 175.418L182.488 175.846L181.63 176.286L180.802 176.742L180.004 177.213L179.237 177.703L178.498 178.211L177.789 178.741L177.107 179.293L176.453 179.867L175.824 180.467L175.221 181.092L174.641 181.743L174.084 182.422L173.549 183.129L173.033 183.865L172.536 184.63L172.056 185.425L171.592 186.251L171.142 187.108L170.704 187.996L170.276 188.914L169.858 189.864L169.447 190.844L169.042 191.855L168.641 192.896L168.241 193.967L167.842 195.067L167.442 196.196L167.038 197.353L166.63 198.536L166.215 199.745L165.792 200.98L165.358 202.238L164.914 203.518L164.456 204.82L163.984 206.142L163.497 207.483L162.992 208.84L162.468 210.213L161.924 211.601L161.36 213L160.773 214.41L160.163 215.829L159.528 217.256L158.869 218.687L158.183 220.122L157.471 221.558L156.73 222.993L155.962 224.425L155.164 225.851L154.336 227.268L153.478 228.674L152.59 230.066L151.67 231.441L150.719 232.796L149.737 234.128L148.724 235.434L147.679 236.71L146.604 237.953L145.497 239.16L144.361 240.328L143.195 241.452L142 242.529L140.778 243.556L139.528 244.529L138.254 245.445L136.955 246.3L135.633 247.09L134.29 247.814L132.929 248.469L131.55 249.052L130.156 249.561L128.749 249.995L127.331 250.352L125.905 250.632L124.473 250.833L123.037 250.956L121.6 251L120.163 250.966L118.73 250.855L117.302 250.667L115.882 250.404L114.471 250.069L113.073 249.662L111.687 249.186L110.318 248.645L108.965 248.04L107.63 247.375L106.316 246.654L105.022 245.879L103.749 245.056L102.5 244.187L101.273 243.277L100.069 242.331L98.8884 241.351L97.7312 240.344L96.5967 239.314L95.4846 238.264L94.394 237.2L93.3239 236.126L92.2732 235.047L91.2406 233.967L90.2244 232.89L89.2231 231.82L88.2346 230.761L87.2571 229.718L86.2883 228.693L85.3261 227.691L84.3681 226.713L83.4119 225.764L82.455 224.845L81.4949 223.96L80.529 223.109L79.555 222.296L78.5703 221.52L77.5725 220.783L76.5593 220.086L75.5283 219.429L74.4774 218.812L73.4046 218.235L72.308 217.697L71.186 217.197L70.0368 216.735L68.8593 216.308L67.6522 215.914L66.4146 215.553L65.1459 215.22L63.8455 214.914L62.5134 214.633L61.1494 214.372L59.7541 214.13L58.3279 213.902L56.8718 213.685L55.3868 213.476L53.8743 213.272L52.336 213.068L50.7738 212.86L49.1899 212.646L47.5866 212.421L45.9666 212.182L44.3326 211.926L42.6876 211.648L41.0347 211.346L39.3771 211.016L37.7181 210.656L36.0612 210.262L34.4097 209.833L32.7671 209.366L31.1369 208.859L29.5224 208.31L27.9271 207.718L26.354 207.082L24.8063 206.4L23.2869 205.672L21.7988 204.897L20.3447 204.076L18.9274 203.208L17.5495 202.293L16.2137 201.331L14.9223 200.324L13.6778 199.271L12.4825 198.174L11.3384 197.032L10.2476 195.848L9.21181 194.623L8.23282 193.357L7.31212 192.053L6.45108 190.712L5.65086 189.335L4.91252 187.925L4.2369 186.483L3.6247 185.011L3.07644 183.511L2.59248 181.986L2.17301 180.437L1.81805 178.867L1.52745 177.278L1.30089 175.672L1.13792 174.051L1.03788 172.418L1 170.774L1.02333 169.123L1.10678 167.465L1.24912 165.803L1.44899 164.14L1.7049 162.478L2.01525 160.817L2.37831 159.161L2.79227 157.511L3.25521 155.869L3.76515 154.237L4.32003 152.615L4.91772 151.007L5.55605 149.412L6.23282 147.833L6.9458 146.271L7.69274 144.727L8.47138 143.201L9.27949 141.695L10.1148 140.21L10.9752 138.746L11.8585 137.304L12.7625 135.884L13.6853 134.488L14.6247 133.114L15.5789 131.764L16.5459 130.438L17.5241 129.135L18.5117 127.856L19.507 126.601L20.5084 125.369L21.5146 124.161L22.5241 122.976L23.5356 121.814L24.5479 120.674L25.5598 119.557L26.5704 118.462L27.5786 117.388L28.5837 116.336L29.5847 115.303L30.581 114.292L31.572 113.299L32.5568 112.326L33.5345 111.371L34.5041 110.434L35.4643 109.514L36.4136 108.61L37.3507 107.722L38.2737 106.848L39.1811 105.987L40.0712 105.138L40.9419 104.299L41.7916 103.47L42.6183 102.648L43.4201 101.832L44.195 101.021L44.9412 100.211L45.6566 99.4018L46.3393 98.5907L46.9875 97.7754L47.5992 96.9536L48.1724 96.1227L48.7054 95.2803L49.1966 94.4236L49.6446 93.5499L50.0484 92.6568L50.4073 91.7416L50.721 90.8018L50.9892 89.8349L51.2122 88.8387L51.3904 87.8109L51.5248 86.7494L51.6164 85.6523L51.6667 84.5179L51.6772 83.3446L51.6501 82.131L51.5876 80.876L51.4922 79.5787L51.3665 78.2385L51.2135 76.8548L51.0365 75.4275L50.8385 73.9568L50.6232 72.4429L50.3942 70.8865L50.1551 69.2885L49.9098 67.65L49.6621 65.9725L49.4161 64.2577L49.1756 62.5076L48.9447 60.7243L48.7273 58.9104L48.5273 57.0685L48.3486 55.2017L48.195 53.3129L48.0701 51.4057L47.9775 49.4835L47.9206 47.5499L47.9027 45.609L47.9267 43.6645L47.9957 41.7206L48.1122 39.7815L48.2786 37.8513L48.4973 35.9344L48.77 34.0349L49.0986 32.1572L49.4844 30.3056L49.9287 28.4841L50.4322 26.6968L50.9957 24.9479L51.6195 23.2411L52.3035 21.5802L53.0478 19.9687L53.8517 18.41L54.7146 16.9072L55.6354 15.4634L56.6131 14.0812L57.6461 12.7631L58.7329 11.5111L59.8715 10.3273L61.0599 9.21315L62.2959 8.17005L63.5773 7.19895L64.9014 6.30055L66.2656 5.47521L67.6673 4.72297L69.1036 4.04357L70.5717 3.43642L72.0688 2.90065L73.5917 2.43506L75.1378 2.03819L76.704 1.70833L78.2875 1.44366L79.8857 1.24236L81.4961 1.10257L83.1162 1.02242L84.7436 1L86.3761 1.03341L88.0117 1.12071L89.6484 1.25996L91.2842 1.44924L92.9174 1.68662L94.5463 1.9702L96.1693 2.29813L97.7851 2.6686L99.3923 3.07989L100.99 3.53034L102.576 4.01844L104.15 4.54277L105.711 5.1021L107.258 5.69537L108.791 6.3217L110.308 6.98031L111.808 7.67035L113.292 8.39095L114.758 9.14113L116.205 9.91989L117.634 10.7262L119.043 11.5588L120.432 12.4165L121.8 13.2982L123.147 14.2024L124.473 15.1279L125.777 16.0731L127.059 17.0365L128.318 18.0168L129.555 19.0122L130.77 20.0212L131.961 21.0422L133.13 22.0734L134.277 23.1134L135.4 24.1603L136.502 25.2126L137.582 26.2687L138.64 27.3268L139.677 28.3853L140.693 29.4427L141.688 30.4974L142.665 31.5478L143.622 32.5924L144.561 33.6298L145.482 34.6585L146.387 35.6772L147.276 36.6845L148.15 37.6791L149.01 38.66L149.857 39.6259L150.692 40.5758L151.516 41.5087L152.33 42.4238L153.136 43.3201L153.934 44.197L154.725 45.0539L155.512 45.8902L156.294 46.7054L157.073 47.4992L157.85 48.2713L158.626 49.0217L159.402 49.7501L160.18 50.4567L160.96 51.1417L161.744 51.8051L162.532 52.4475L163.325 53.0691L164.124 53.6705L164.931 54.2523L165.745 54.8151L166.567 55.3597L167.398 55.887L168.24 56.3978L169.091 56.893L169.953 57.3737L170.826 57.8409L171.71 58.2958L172.606 58.7395L173.513 59.1733L174.433 59.5984L175.364 60.0161L176.306 60.4277L177.261 60.8345L178.226 61.2379L179.203 61.6391L180.191 62.0391L181.19 62.439L182.199 62.8397L183.22 63.242L184.251 63.6466L185.293 64.0543L186.345 64.4657L187.409 64.8814L188.483 65.302L189.569 65.728L190.665 66.16L191.773 66.5984L192.892 67.0439L194.022 67.4968L195.163 67.9578L196.317 68.4272L197.481 68.9056L198.658 69.3936L199.846 69.8915L201.046 70.4001L202.257 70.9197L203.48 71.4511L204.714 71.9949L205.959 72.5516L207.215 73.1221L208.481 73.707L209.757 74.307L211.042 74.923L212.336 75.5557L213.637 76.206L214.946 76.8746L216.26 77.5624L217.578 78.2702L218.9 78.9989L220.224 79.7493L221.549 80.5222L222.872 81.3183L224.193 82.1385L225.508 82.9835L226.818 83.8539L228.118 84.7504L229.408 85.6736L230.684 86.624L231.945 87.602L233.188 88.6079L234.411 89.6421L235.611 90.7048L236.785 91.796L237.931 92.9157L239.047 94.0638L240.128 95.2401L241.174 96.4442L242.18 97.6757L243.145 98.934L244.065 100.218L244.939 101.528L245.763 102.862L246.535 104.22L247.253 105.599L247.914 107L248.517 108.42L249.058 109.857L249.537 111.312L249.951 112.781L250.298 114.263L250.578 115.756L250.789 117.258L250.93 118.767L251 120.282L250.998 121.799L250.924 123.318L250.778 124.835L250.56 126.348L250.269 127.856" stroke="black" stroke-width="2" stroke-linejoin="round"/>
</svg>
