<svg width="252" height="252" viewBox="0 0 252 252" fill="none" xmlns="http://www.w3.org/2000/svg">
<path fill-rule="evenodd" clip-rule="evenodd" d="M248.265 163.127L248.526 164.449L248.779 165.779L249.024 167.116L249.26 168.459L249.485 169.811L249.698 171.169L249.899 172.535L250.086 173.908L250.258 175.288L250.415 176.675L250.555 178.069L250.678 179.469L250.782 180.876L250.867 182.289L250.932 183.707L250.976 185.131L250.999 186.56L251 187.993L250.978 189.43L250.933 190.871L250.864 192.315L250.772 193.762L250.654 195.211L250.511 196.662L250.343 198.114L250.149 199.567L249.928 201.02L249.681 202.473L249.407 203.924L249.104 205.373L248.774 206.82L248.414 208.264L248.025 209.703L247.606 211.137L247.157 212.565L246.675 213.985L246.161 215.397L245.613 216.799L245.03 218.19L244.413 219.568L243.76 220.932L243.07 222.281L242.344 223.613L241.58 224.927L240.779 226.22L239.941 227.493L239.065 228.743L238.151 229.97L237.201 231.171L236.213 232.345L235.189 233.491L234.128 234.608L233.032 235.695L231.901 236.75L230.736 237.773L229.538 238.762L228.307 239.715L227.045 240.634L225.752 241.515L224.43 242.36L223.081 243.166L221.704 243.933L220.302 244.662L218.877 245.35L217.429 245.999L215.959 246.607L214.471 247.175L212.964 247.702L211.441 248.188L209.903 248.634L208.352 249.04L206.79 249.405L205.218 249.731L203.638 250.018L202.051 250.267L200.459 250.477L198.865 250.651L197.268 250.789L195.671 250.891L194.076 250.96L192.483 250.996L190.895 251L189.313 250.974L187.737 250.92L186.17 250.838L184.612 250.732L183.066 250.602L181.531 250.45L180.009 250.279L178.5 250.09L177.007 249.886L175.528 249.669L174.066 249.44L172.619 249.203L171.19 248.96L169.778 248.712L168.382 248.463L167.004 248.213L165.643 247.966L164.299 247.724L162.971 247.488L161.659 247.261L160.363 247.044L159.081 246.84L157.813 246.65L156.558 246.476L155.314 246.319L154.082 246.18L152.859 246.061L151.644 245.962L150.437 245.884L149.235 245.828L148.038 245.795L146.843 245.783L145.65 245.794L144.457 245.827L143.263 245.882L142.066 245.957L140.866 246.053L139.66 246.168L138.448 246.3L137.228 246.449L136 246.612L134.762 246.789L133.514 246.976L132.256 247.172L130.986 247.375L129.704 247.582L128.41 247.79L127.104 247.999L125.786 248.203L124.456 248.402L123.115 248.591L121.763 248.77L120.4 248.933L119.028 249.08L117.648 249.207L116.26 249.312L114.866 249.391L113.467 249.443L112.066 249.466L110.663 249.456L109.26 249.411L107.859 249.331L106.462 249.212L105.071 249.054L103.688 248.854L102.315 248.612L100.954 248.326L99.607 247.996L98.2758 247.621L96.9626 247.2L95.6692 246.734L94.3975 246.222L93.1491 245.666L91.9258 245.064L90.7289 244.418L89.5599 243.729L88.42 242.999L87.31 242.228L86.2306 241.418L85.1821 240.572L84.1646 239.692L83.1777 238.78L82.2209 237.839L81.2932 236.872L80.3934 235.883L79.5201 234.874L78.6714 233.848L77.8453 232.808L77.0394 231.759L76.2512 230.702L75.4778 229.64L74.7162 228.578L73.9634 227.516L73.2159 226.459L72.4703 225.408L71.7233 224.365L70.9711 223.333L70.2102 222.313L69.437 221.307L68.6481 220.315L67.8401 219.339L67.0097 218.379L66.1537 217.436L65.2693 216.508L64.3539 215.597L63.405 214.701L62.4207 213.819L61.3992 212.951L60.3392 212.093L59.2399 211.246L58.1005 210.407L56.9209 209.573L55.701 208.743L54.4412 207.914L53.1419 207.085L51.8041 206.252L50.4291 205.413L49.0181 204.565L47.5731 203.707L46.0961 202.836L44.5894 201.949L43.0555 201.043L41.4975 200.118L39.9182 199.17L38.3212 198.197L36.7097 197.198L35.0876 196.17L33.4587 195.112L31.827 194.022L30.1966 192.899L28.5718 191.742L26.9569 190.55L25.3563 189.322L23.7742 188.057L22.2152 186.755L20.6836 185.416L19.1837 184.039L17.7199 182.626L16.2961 181.176L14.9166 179.691L13.5852 178.17L12.3056 176.615L11.0815 175.027L9.91623 173.408L8.8129 171.759L7.77446 170.082L6.80356 168.378L5.90263 166.649L5.07379 164.898L4.3189 163.127L3.6395 161.337L3.03685 159.531L2.51192 157.712L2.06532 155.881L1.69729 154.042L1.40758 152.195L1.19556 150.344L1.06017 148.491L1 146.637L1.01326 144.785L1.09786 142.937L1.25138 141.094L1.47116 139.257L1.75429 137.429L2.09764 135.61L2.49793 133.801L2.9517 132.004L3.4554 130.218L4.00539 128.445L4.598 126.684L5.22951 124.935L5.89626 123.199L6.59459 121.475L7.32095 119.763L8.07189 118.061L8.84407 116.37L9.63434 114.688L10.4397 113.014L11.2574 111.348L12.085 109.687L12.92 108.032L13.7606 106.38L14.6049 104.73L15.4515 103.082L16.2993 101.433L17.1474 99.7834L17.9955 98.1315L18.8432 96.4764L19.6904 94.8173L20.5373 93.1533L21.3841 91.4835L22.2312 89.8074L23.0792 88.1242L23.9287 86.4335L24.7806 84.7348L25.6357 83.0277L26.4952 81.3121L27.3601 79.5877L28.2318 77.8546L29.1114 76.1128L30.0003 74.3625L30.9 72.604L31.8119 70.8377L32.7376 69.0642L33.6785 67.2841L34.6361 65.4981L35.6121 63.7071L36.6079 61.9119L37.6251 60.1137L38.665 58.3136L39.7292 56.5127L40.819 54.7125L41.9358 52.9141L43.0808 51.1191L44.2553 49.329L45.4604 47.5453L46.6971 45.7697L47.9665 44.0037L49.2694 42.2491L50.6066 40.5076L51.9789 38.7808L53.3868 37.0706L54.8308 35.3788L56.3114 33.707L57.8288 32.0571L59.3833 30.4309L60.9751 28.8299L62.604 27.2561L64.2701 25.7111L65.9731 24.1965L67.7128 22.7141L69.4888 21.2655L71.3008 19.8524L73.1483 18.4766L75.0308 17.1398L76.9478 15.8438L78.8986 14.5905L80.8825 13.3817L82.8987 12.2191L84.9462 11.1047L87.0242 10.04L89.1316 9.02694L91.2672 8.06712L93.4297 7.1622L95.618 6.31375L97.8306 5.52329L100.066 4.79228L102.323 4.12208L104.599 3.51398L106.893 2.96917L109.204 2.48876L111.528 2.07376L113.865 1.72507L116.213 1.44348L118.569 1.22967L120.932 1.08421L123.3 1.00754L125.669 1L128.039 1.06177L130.407 1.19294L132.771 1.39342L135.129 1.66304L137.479 2.00145L139.818 2.40819L142.145 2.88263L144.457 3.42405L146.753 4.03155L149.03 4.70415L151.287 5.4407L153.521 6.23996L155.731 7.10056L157.915 8.021L160.071 8.99968L162.198 10.0349L164.295 11.1249L166.359 12.2677L168.389 13.4613L170.385 14.7037L172.345 15.9927L174.268 17.3261L176.153 18.7015L178 20.1167L179.807 21.5693L181.574 23.0568L183.302 24.5768L184.989 26.1267L186.635 27.7041L188.24 29.3065L189.804 30.9313L191.328 32.576L192.812 34.2382L194.256 35.9154L195.66 37.6051L197.026 39.305L198.354 41.0128L199.645 42.7261L200.899 44.4427L202.119 46.1605L203.304 47.8774L204.457 49.5914L205.577 51.3007L206.668 53.0034L207.73 54.6979L208.764 56.3825L209.772 58.0558L210.756 59.7164L211.717 61.363L212.656 62.9945L213.576 64.61L214.477 66.2087L215.361 67.7903L216.229 69.3543L217.083 70.9009L217.922 72.4303L218.749 73.9426L219.563 75.4386L220.366 76.9187L221.157 78.3838L221.937 79.8346L222.706 81.2722L223.464 82.6974L224.211 84.1114L224.946 85.5151L225.67 86.9096L226.382 88.296L227.082 89.6752L227.768 91.0483L228.441 92.4162L229.1 93.7798L229.744 95.1398L230.373 96.497L230.986 97.852L231.582 99.2053L232.161 100.558L232.723 101.909L233.266 103.259L233.792 104.61L234.3 105.959L234.789 107.308L235.261 108.657L235.715 110.004L236.152 111.35L236.573 112.694L236.979 114.035L237.369 115.374L237.746 116.711L238.11 118.044L238.462 119.373L238.802 120.699L239.132 122.02L239.453 123.337L239.765 124.65L240.07 125.959L240.368 127.263L240.661 128.563L240.949 129.858L241.234 131.149L241.515 132.436L241.794 133.719L242.071 134.998L242.348 136.275L242.624 137.548L242.9 138.818L243.177 140.087L243.455 141.353L243.734 142.619L244.015 143.883L244.297 145.148L244.581 146.412L244.866 147.678L245.153 148.945L245.441 150.214L245.729 151.486L246.018 152.761L246.307 154.039L246.594 155.322L246.881 156.609L247.165 157.901L247.447 159.198L247.724 160.501L247.997 161.811L248.265 163.127Z" fill="#F9F9F9"/>
<path d="M248.265 163.127V163.127ZM248.265 163.127L248.526 164.449L248.779 165.779L249.024 167.116L249.26 168.459L249.485 169.811L249.698 171.169L249.899 172.535L250.086 173.908L250.258 175.288L250.415 176.675L250.555 178.069L250.678 179.469L250.782 180.876L250.867 182.289L250.932 183.707L250.976 185.131L250.999 186.56L251 187.993L250.978 189.43L250.933 190.871L250.864 192.315L250.772 193.762L250.654 195.211L250.511 196.662L250.343 198.114L250.149 199.567L249.928 201.02L249.681 202.473L249.407 203.924L249.104 205.373L248.774 206.82L248.414 208.264L248.026 209.703L247.606 211.137L247.157 212.565L246.675 213.985L246.161 215.397L245.613 216.799L245.03 218.19L244.413 219.568L243.76 220.932L243.07 222.281L242.344 223.613L241.58 224.927L240.779 226.22L239.941 227.493L239.065 228.743L238.151 229.97L237.201 231.171L236.213 232.345L235.189 233.491L234.128 234.608L233.032 235.695L231.901 236.75L230.736 237.773L229.538 238.762L228.307 239.715L227.045 240.634L225.752 241.515L224.43 242.36L223.081 243.166L221.704 243.933L220.302 244.662L218.877 245.35L217.429 245.999L215.959 246.607L214.471 247.175L212.964 247.702L211.441 248.188L209.903 248.634L208.352 249.04L206.79 249.405L205.218 249.731L203.638 250.018L202.051 250.267L200.459 250.477L198.865 250.651L197.268 250.789L195.671 250.891L194.076 250.96L192.483 250.996L190.895 251L189.313 250.974L187.737 250.92L186.17 250.838L184.612 250.732L183.066 250.602L181.531 250.45L180.009 250.279L178.5 250.09L177.007 249.886L175.528 249.669L174.066 249.44L172.619 249.203L171.19 248.96L169.778 248.712L168.382 248.463L167.004 248.213L165.643 247.966L164.299 247.724L162.971 247.488L161.659 247.261L160.363 247.044L159.081 246.84L157.813 246.65L156.558 246.476L155.314 246.319L154.082 246.18L152.859 246.061L151.644 245.962L150.437 245.884L149.235 245.828L148.038 245.795L146.843 245.783L145.65 245.794L144.457 245.827L143.263 245.882L142.066 245.957L140.866 246.053L139.66 246.168L138.448 246.3L137.228 246.449L136 246.612L134.762 246.789L133.514 246.976L132.256 247.172L130.986 247.375L129.704 247.582L128.41 247.79L127.104 247.999L125.786 248.203L124.456 248.402L123.115 248.591L121.763 248.77L120.4 248.933L119.028 249.08L117.648 249.207L116.26 249.312L114.866 249.391L113.467 249.443L112.066 249.466L110.663 249.456L109.26 249.411L107.859 249.331L106.462 249.212L105.071 249.054L103.688 248.854L102.315 248.612L100.954 248.326L99.607 247.996L98.2758 247.621L96.9626 247.2L95.6692 246.734L94.3975 246.222L93.1491 245.666L91.9258 245.064L90.7289 244.418L89.5599 243.729L88.42 242.999L87.31 242.228L86.2306 241.418L85.1821 240.572L84.1646 239.692L83.1777 238.78L82.2209 237.839L81.2932 236.872L80.3934 235.883L79.5201 234.874L78.6714 233.848L77.8453 232.808L77.0394 231.759L76.2512 230.702L75.4778 229.64L74.7162 228.578L73.9634 227.516L73.2159 226.459L72.4703 225.408L71.7233 224.365L70.9711 223.333L70.2102 222.313L69.437 221.307L68.6481 220.315L67.8401 219.339L67.0097 218.379L66.1537 217.436L65.2693 216.508L64.3539 215.597L63.405 214.701L62.4207 213.819L61.3992 212.951L60.3392 212.093L59.2399 211.246L58.1005 210.407L56.9209 209.573L55.701 208.743L54.4412 207.914L53.1419 207.085L51.8041 206.252L50.4291 205.413L49.0181 204.565L47.5731 203.707L46.0961 202.836L44.5894 201.949L43.0555 201.043L41.4975 200.118L39.9182 199.17L38.3212 198.197L36.7097 197.198L35.0876 196.17L33.4587 195.112L31.827 194.022L30.1966 192.899L28.5718 191.742L26.9569 190.55L25.3563 189.322L23.7742 188.057L22.2152 186.755L20.6836 185.416L19.1837 184.039L17.7199 182.626L16.2961 181.176L14.9166 179.691L13.5852 178.17L12.3056 176.615L11.0815 175.027L9.91623 173.408L8.8129 171.759L7.77446 170.082L6.80356 168.378L5.90263 166.649L5.07379 164.898L4.3189 163.127L3.6395 161.337L3.03685 159.531L2.51192 157.712L2.06532 155.881L1.69729 154.042L1.40758 152.195L1.19556 150.344L1.06017 148.491L1 146.637L1.01326 144.785L1.09786 142.937L1.25138 141.094L1.47116 139.257L1.75429 137.429L2.09764 135.61L2.49793 133.801L2.9517 132.004L3.4554 130.218L4.00539 128.445L4.598 126.684L5.22951 124.935L5.89626 123.199L6.59459 121.475L7.32095 119.763L8.07189 118.061L8.84407 116.37L9.63434 114.688L10.4397 113.014L11.2574 111.348L12.085 109.687L12.92 108.032L13.7606 106.38L14.6049 104.73L15.4515 103.082L16.2993 101.433L17.1474 99.7834L17.9955 98.1315L18.8432 96.4764L19.6904 94.8173L20.5373 93.1533L21.3841 91.4835L22.2312 89.8074L23.0792 88.1242L23.9287 86.4335L24.7806 84.7348L25.6357 83.0277L26.4952 81.3121L27.3601 79.5877L28.2318 77.8546L29.1114 76.1128L30.0003 74.3625L30.9 72.604L31.8119 70.8377L32.7376 69.0642L33.6785 67.2841L34.6361 65.4981L35.6121 63.7071L36.6079 61.9119L37.6251 60.1137L38.665 58.3136L39.7292 56.5127L40.819 54.7125L41.9358 52.9141L43.0808 51.1191L44.2553 49.329L45.4604 47.5453L46.6971 45.7697L47.9665 44.0037L49.2694 42.2491L50.6066 40.5076L51.9789 38.7808L53.3868 37.0706L54.8308 35.3788L56.3114 33.707L57.8288 32.0571L59.3833 30.4309L60.9751 28.8299L62.604 27.2561L64.2701 25.7111L65.9731 24.1965L67.7128 22.7141L69.4888 21.2655L71.3008 19.8524L73.1483 18.4766L75.0308 17.1398L76.9478 15.8438L78.8986 14.5905L80.8825 13.3817L82.8986 12.2191L84.9462 11.1047L87.0242 10.04L89.1316 9.02694L91.2672 8.06712L93.4297 7.1622L95.618 6.31375L97.8306 5.52329L100.066 4.79228L102.323 4.12208L104.599 3.51398L106.893 2.96917L109.204 2.48876L111.528 2.07376L113.865 1.72507L116.213 1.44348L118.569 1.22967L120.932 1.08421L123.3 1.00754L125.669 1L128.039 1.06177L130.407 1.19294L132.771 1.39342L135.129 1.66304L137.479 2.00145L139.818 2.40819L142.145 2.88263L144.457 3.42405L146.753 4.03155L149.03 4.70415L151.287 5.4407L153.521 6.23996L155.731 7.10056L157.915 8.021L160.071 8.99968L162.198 10.0349L164.295 11.1249L166.359 12.2677L168.389 13.4613L170.385 14.7037L172.345 15.9927L174.268 17.3261L176.153 18.7015L178 20.1167L179.807 21.5693L181.574 23.0568L183.302 24.5768L184.989 26.1267L186.635 27.7041L188.24 29.3065L189.804 30.9313L191.328 32.576L192.812 34.2382L194.256 35.9154L195.66 37.6051L197.026 39.305L198.354 41.0128L199.645 42.7261L200.899 44.4427L202.119 46.1605L203.304 47.8774L204.457 49.5914L205.577 51.3007L206.668 53.0034L207.73 54.6979L208.764 56.3825L209.772 58.0558L210.756 59.7164L211.717 61.363L212.656 62.9945L213.576 64.61L214.477 66.2087L215.361 67.7903L216.229 69.3543L217.083 70.9009L217.922 72.4303L218.749 73.9426L219.563 75.4386L220.366 76.9187L221.157 78.3837L221.937 79.8346L222.706 81.2722L223.464 82.6974L224.211 84.1114L224.946 85.5151L225.67 86.9096L226.382 88.296L227.082 89.6752L227.768 91.0483L228.441 92.4162L229.1 93.7798L229.744 95.1398L230.373 96.497L230.986 97.852L231.582 99.2053L232.161 100.558L232.723 101.909L233.266 103.259L233.792 104.61L234.3 105.959L234.789 107.308L235.261 108.657L235.715 110.004L236.152 111.35L236.573 112.694L236.979 114.035L237.369 115.374L237.746 116.711L238.11 118.044L238.462 119.373L238.802 120.699L239.132 122.02L239.453 123.337L239.765 124.65L240.07 125.959L240.369 127.263L240.661 128.563L240.949 129.858L241.234 131.149L241.515 132.436L241.794 133.719L242.071 134.998L242.348 136.275L242.624 137.548L242.9 138.818L243.177 140.087L243.455 141.353L243.734 142.619L244.015 143.883L244.297 145.148L244.581 146.412L244.866 147.678L245.153 148.945L245.441 150.214L245.729 151.486L246.018 152.761L246.307 154.039L246.594 155.322L246.881 156.609L247.165 157.901L247.447 159.198L247.724 160.501L247.997 161.811L248.265 163.127" stroke="black" stroke-width="2" stroke-linejoin="round"/>
</svg>
