<svg width="252" height="252" viewBox="0 0 252 252" fill="none" xmlns="http://www.w3.org/2000/svg">
<path fill-rule="evenodd" clip-rule="evenodd" d="M251 109.213L239.803 156.395L251 109.213L239.803 156.395L218.634 199.177L162.838 174.043L139.097 251L108.699 192.22L80.8786 175.063L1 173.913L73.8102 109.213L78.9941 81.0539L86.7004 49.9478L99.4684 1L139.097 44.4182L171.536 20.631L179.276 63.767L196.842 82.1582L251 109.213Z" fill="#F9F9F9"/>
<path d="M251 109.213L239.804 156.395L218.634 199.177L162.838 174.043L139.097 251L108.699 192.22L80.8786 175.063L1 173.913L73.8102 109.213L78.9941 81.0539L86.7004 49.9478L99.4684 1L139.097 44.4182L171.536 20.631L179.276 63.767L196.842 82.1582L251 109.213Z" stroke="black" stroke-width="2" stroke-linejoin="round"/>
</svg>
