<svg width="226" height="217" viewBox="0 0 226 217" fill="none" xmlns="http://www.w3.org/2000/svg">
<path fill-rule="evenodd" clip-rule="evenodd" d="M13.1926 127.093L1.5 139.631C6.60134 163.302 19.0533 184.24 36.3485 199.938L52.9834 196.096C69.7367 208.598 90.5196 216 113.031 216C135.523 216 156.29 208.611 173.035 196.129L189.533 199.939C206.828 184.241 219.28 163.304 224.382 139.634L212.849 127.269C213.3 123.408 213.531 119.481 213.531 115.5C213.531 74.09 188.486 38.5296 152.717 23.1397L147.758 6.91463C136.783 3.39841 125.084 1.5 112.941 1.5C100.797 1.5 89.0966 3.39888 78.1202 6.91594L73.1335 23.231C37.4774 38.6699 12.5311 74.1717 12.5311 115.5C12.5311 119.421 12.7557 123.29 13.1926 127.093Z" fill="#F9F9F9"/>
<path d="M1.5 139.631L0.768693 138.949L0.412388 139.331L0.522443 139.841L1.5 139.631ZM13.1926 127.093L13.9239 127.776L14.2388 127.438L14.1861 126.979L13.1926 127.093ZM36.3485 199.938L35.6765 200.678L36.0638 201.03L36.5736 200.912L36.3485 199.938ZM52.9834 196.096L53.5815 195.295L53.21 195.018L52.7584 195.122L52.9834 196.096ZM173.035 196.129L173.26 195.154L172.809 195.05L172.438 195.327L173.035 196.129ZM189.533 199.939L189.308 200.913L189.818 201.031L190.205 200.679L189.533 199.939ZM224.382 139.634L225.359 139.844L225.469 139.334L225.113 138.952L224.382 139.634ZM212.849 127.269L211.856 127.153L211.803 127.612L212.118 127.951L212.849 127.269ZM152.717 23.1397L151.761 23.432L151.896 23.8751L152.322 24.0583L152.717 23.1397ZM147.758 6.91463L148.714 6.62232L148.561 6.12195L148.063 5.96231L147.758 6.91463ZM78.1202 6.91594L77.8151 5.96363L77.3169 6.12328L77.1639 6.62363L78.1202 6.91594ZM73.1335 23.231L73.5308 24.1487L73.9547 23.9651L74.0898 23.5233L73.1335 23.231ZM2.23131 140.313L13.9239 127.776L12.4613 126.411L0.768693 138.949L2.23131 140.313ZM37.0206 199.197C19.8757 183.636 7.53366 162.881 2.47756 139.42L0.522443 139.841C5.66901 163.722 18.231 184.844 35.6765 200.678L37.0206 199.197ZM52.7584 195.122L36.1235 198.964L36.5736 200.912L53.2084 197.071L52.7584 195.122ZM113.031 215C90.7424 215 70.168 207.673 53.5815 195.295L52.3853 196.898C69.3055 209.524 90.2968 217 113.031 217V215ZM172.438 195.327C155.859 207.685 135.301 215 113.031 215V217C135.746 217 156.721 209.537 173.633 196.93L172.438 195.327ZM189.758 198.964L173.26 195.154L172.81 197.103L189.308 200.913L189.758 198.964ZM223.404 139.423C218.348 162.884 206.006 183.637 188.861 199.198L190.205 200.679C207.65 184.846 220.212 163.725 225.359 139.844L223.404 139.423ZM212.118 127.951L223.65 140.316L225.113 138.952L213.581 126.587L212.118 127.951ZM212.531 115.5C212.531 119.442 212.302 123.331 211.856 127.153L213.843 127.384C214.297 123.486 214.531 119.52 214.531 115.5H212.531ZM152.322 24.0583C187.737 39.2959 212.531 74.5036 212.531 115.5H214.531C214.531 73.6764 189.235 37.7633 153.113 22.2211L152.322 24.0583ZM146.802 7.20693L151.761 23.432L153.674 22.8474L148.714 6.62232L146.802 7.20693ZM112.941 2.5C124.979 2.5 136.575 4.38195 147.453 7.86695L148.063 5.96231C136.991 2.41488 125.189 0.5 112.941 0.5V2.5ZM78.4254 7.86824C89.3043 4.38242 100.902 2.5 112.941 2.5V0.5C100.692 0.5 88.8889 2.41535 77.8151 5.96363L78.4254 7.86824ZM74.0898 23.5233L79.0766 7.20824L77.1639 6.62363L72.1771 22.9387L74.0898 23.5233ZM13.5311 115.5C13.5311 74.5845 38.2274 39.4348 73.5308 24.1487L72.7361 22.3133C36.7273 37.9049 11.5311 73.7589 11.5311 115.5H13.5311ZM14.1861 126.979C13.7535 123.213 13.5311 119.383 13.5311 115.5H11.5311C11.5311 119.459 11.7579 123.366 12.1991 127.208L14.1861 126.979Z" fill="black"/>
</svg>
