<svg width="230" height="230" viewBox="0 0 230 230" fill="none" xmlns="http://www.w3.org/2000/svg">
<path fill-rule="evenodd" clip-rule="evenodd" d="M20.6718 80.4895L5.07358 84.6892C2.41826 94.3408 1 104.505 1 115C1 125.495 2.41826 135.659 5.07358 145.311L20.6718 149.511C30.8057 177.229 52.7971 199.236 80.5049 209.391L84.6877 224.926C94.3397 227.582 104.504 229 115 229C125.494 229 135.657 227.582 145.308 224.927L149.471 209.465C177.293 199.337 199.378 177.267 209.528 149.456L224.927 145.31C227.582 135.658 229 125.495 229 115C229 104.505 227.582 94.3416 224.927 84.6904L209.528 80.5443C199.378 52.7326 177.293 30.6633 149.471 20.5348L145.308 5.07284C135.657 2.418 125.494 1 115 1C104.504 1 94.3397 2.41841 84.6877 5.074L80.5049 20.6092C52.7971 30.7643 30.8057 52.7715 20.6718 80.4895Z" fill="#F9F9F9"/>
<path d="M5.07358 84.6892L4.81359 83.7236L4.26116 83.8724L4.1094 84.424L5.07358 84.6892ZM20.6718 80.4895L20.9318 81.4551L21.4328 81.3202L21.611 80.8328L20.6718 80.4895ZM5.07358 145.311L4.1094 145.576L4.26116 146.128L4.81359 146.276L5.07358 145.311ZM20.6718 149.511L21.611 149.167L21.4328 148.68L20.9318 148.545L20.6718 149.511ZM80.5049 209.391L81.4705 209.131L81.3357 208.63L80.849 208.452L80.5049 209.391ZM84.6877 224.926L83.7221 225.186L83.8708 225.738L84.4224 225.89L84.6877 224.926ZM145.308 224.927L145.573 225.891L146.125 225.74L146.274 225.187L145.308 224.927ZM149.471 209.465L149.129 208.526L148.641 208.703L148.506 209.205L149.471 209.465ZM209.528 149.456L209.268 148.49L208.767 148.625L208.589 149.113L209.528 149.456ZM224.927 145.31L225.187 146.275L225.739 146.126L225.891 145.575L224.927 145.31ZM224.927 84.6904L225.891 84.4251L225.739 83.8735L225.187 83.7248L224.927 84.6904ZM209.528 80.5443L208.589 80.8871L208.767 81.3749L209.268 81.5099L209.528 80.5443ZM149.471 20.5348L148.506 20.7948L148.641 21.2967L149.129 21.4745L149.471 20.5348ZM145.308 5.07284L146.274 4.81285L146.125 4.26041L145.573 4.10866L145.308 5.07284ZM84.6877 5.074L84.4224 4.10983L83.8708 4.26159L83.7221 4.81401L84.6877 5.074ZM80.5049 20.6092L80.849 21.5481L81.3357 21.3697L81.4705 20.8692L80.5049 20.6092ZM5.33357 85.6549L20.9318 81.4551L20.4118 79.5238L4.81359 83.7236L5.33357 85.6549ZM2 115C2 104.595 3.40599 94.5204 6.03775 84.9545L4.1094 84.424C1.43053 94.1611 0 104.414 0 115H2ZM6.03775 145.046C3.40599 135.48 2 125.405 2 115H0C0 125.586 1.43053 135.839 4.1094 145.576L6.03775 145.046ZM20.9318 148.545L5.33356 144.345L4.81359 146.276L20.4118 150.476L20.9318 148.545ZM80.849 208.452C53.4175 198.398 31.6438 176.609 21.611 149.167L19.7326 149.854C29.9676 177.848 52.1767 200.073 80.1608 210.33L80.849 208.452ZM85.6533 224.666L81.4705 209.131L79.5393 209.651L83.7221 225.186L85.6533 224.666ZM115 228C104.595 228 94.5194 226.594 84.953 223.962L84.4224 225.89C94.16 228.569 104.414 230 115 230V228ZM145.043 223.963C135.478 226.594 125.404 228 115 228V230C125.585 230 135.837 228.57 145.573 225.891L145.043 223.963ZM148.506 209.205L144.342 224.667L146.274 225.187L150.437 209.725L148.506 209.205ZM208.589 149.113C198.54 176.647 176.674 198.498 149.129 208.526L149.813 210.405C177.913 200.175 200.216 177.888 210.467 149.799L208.589 149.113ZM224.667 144.344L209.268 148.49L209.788 150.421L225.187 146.275L224.667 144.344ZM228 115C228 125.404 226.594 135.479 223.963 145.044L225.891 145.575C228.57 135.838 230 125.585 230 115H228ZM223.963 84.9556C226.594 94.5212 228 104.596 228 115H230C230 104.415 228.57 94.1619 225.891 84.4251L223.963 84.9556ZM209.268 81.5099L224.667 85.656L225.187 83.7248L209.788 79.5787L209.268 81.5099ZM149.129 21.4745C176.674 31.5019 198.54 53.3528 208.589 80.8871L210.467 80.2015C200.216 52.1124 177.913 29.8246 149.813 19.5951L149.129 21.4745ZM144.342 5.33283L148.506 20.7948L150.437 20.2748L146.274 4.81285L144.342 5.33283ZM115 2C125.404 2 135.478 3.40573 145.043 6.03702L145.573 4.10866C135.837 1.43027 125.585 0 115 0V2ZM84.953 6.03817C94.5194 3.40614 104.595 2 115 2V0C104.414 0 94.16 1.43068 84.4224 4.10983L84.953 6.03817ZM81.4705 20.8692L85.6533 5.33399L83.7221 4.81401L79.5393 20.3492L81.4705 20.8692ZM21.611 80.8328C31.6438 53.3913 53.4175 31.602 80.849 21.5481L80.1608 19.6703C52.1767 29.9267 29.9676 52.1517 19.7326 80.1461L21.611 80.8328Z" fill="black"/>
</svg>
