<svg width="230" height="222" viewBox="0 0 230 222" fill="none" xmlns="http://www.w3.org/2000/svg">
<path fill-rule="evenodd" clip-rule="evenodd" d="M32.78 57.319L17.4321 56.0053C8.56704 70.6352 2.89973 87.4186 1.39941 105.386L14.6028 113.353C14.594 113.901 14.5896 114.45 14.5896 115C14.5896 137.655 22.086 158.56 34.7336 175.368L28.7474 189.545C40.1274 202.701 54.4666 213.226 70.7302 220.085L82.3302 210.04C92.5983 213.579 103.62 215.5 115.09 215.5C126.511 215.5 137.487 213.595 147.718 210.085L159.267 220.087C175.53 213.227 189.869 202.703 201.249 189.548L195.328 175.524C208.047 158.689 215.59 137.726 215.59 115C215.59 114.413 215.585 113.828 215.575 113.244L228.6 105.384C227.099 87.4171 221.432 70.6344 212.567 56.005L197.389 57.3042C184.658 39.1781 166.091 25.4489 144.418 18.8466L140.953 3.96735C132.616 2.0263 123.928 1 115 1C106.07 1 97.3807 2.02663 89.0425 3.96831L85.564 18.907C63.9695 25.5342 45.4724 39.2407 32.78 57.319Z" fill="#F9F9F9"/>
<path d="M17.4321 56.0053L17.5173 55.0089L16.8986 54.956L16.5768 55.4871L17.4321 56.0053ZM32.78 57.319L32.6947 58.3154L33.2679 58.3644L33.5984 57.8936L32.78 57.319ZM1.39941 105.386L0.402882 105.303L0.351223 105.922L0.882765 106.242L1.39941 105.386ZM14.6028 113.353L15.6027 113.369L15.6119 112.794L15.1195 112.497L14.6028 113.353ZM34.7336 175.368L35.6549 175.757L35.8788 175.227L35.5327 174.767L34.7336 175.368ZM28.7474 189.545L27.8262 189.156L27.5843 189.729L27.9911 190.199L28.7474 189.545ZM70.7302 220.085L70.3415 221.007L70.9146 221.249L71.3848 220.841L70.7302 220.085ZM82.3302 210.04L82.656 209.094L82.1112 208.907L81.6756 209.284L82.3302 210.04ZM147.718 210.085L148.372 209.329L147.937 208.952L147.393 209.139L147.718 210.085ZM159.267 220.087L158.612 220.842L159.082 221.25L159.655 221.008L159.267 220.087ZM201.249 189.548L202.006 190.202L202.413 189.732L202.171 189.159L201.249 189.548ZM195.328 175.524L194.53 174.922L194.182 175.382L194.407 175.913L195.328 175.524ZM215.575 113.244L215.058 112.387L214.565 112.685L214.575 113.261L215.575 113.244ZM228.6 105.384L229.117 106.24L229.648 105.919L229.596 105.301L228.6 105.384ZM212.567 56.005L213.423 55.4867L213.101 54.9557L212.482 55.0086L212.567 56.005ZM197.389 57.3042L196.57 57.8789L196.901 58.3496L197.474 58.3005L197.389 57.3042ZM144.418 18.8466L143.444 19.0734L143.574 19.6351L144.126 19.8032L144.418 18.8466ZM140.953 3.96735L141.927 3.74057L141.786 3.1345L141.18 2.9934L140.953 3.96735ZM89.0425 3.96831L88.8157 2.99437L88.2097 3.13549L88.0686 3.74153L89.0425 3.96831ZM85.564 18.907L85.8574 19.863L86.4075 19.6942L86.538 19.1338L85.564 18.907ZM17.3468 57.0017L32.6947 58.3154L32.8653 56.3226L17.5173 55.0089L17.3468 57.0017ZM2.39595 105.469C3.88308 87.6597 9.5003 71.0247 18.2873 56.5235L16.5768 55.4871C7.63378 70.2457 1.91638 87.1775 0.402882 105.303L2.39595 105.469ZM15.1195 112.497L1.91606 104.53L0.882765 106.242L14.0862 114.21L15.1195 112.497ZM15.5896 115C15.5896 114.455 15.594 113.912 15.6027 113.369L13.603 113.337C13.5941 113.89 13.5896 114.445 13.5896 115H15.5896ZM35.5327 174.767C23.011 158.126 15.5896 137.431 15.5896 115H13.5896C13.5896 137.88 21.161 158.994 33.9346 175.97L35.5327 174.767ZM29.6687 189.934L35.6549 175.757L33.8124 174.979L27.8262 189.156L29.6687 189.934ZM71.1188 219.164C54.9987 212.365 40.7847 201.932 29.5037 188.891L27.9911 190.199C39.4701 203.469 53.9345 214.087 70.3415 221.007L71.1188 219.164ZM81.6756 209.284L70.0755 219.329L71.3848 220.841L82.9849 210.796L81.6756 209.284ZM115.09 214.5C103.732 214.5 92.8207 212.597 82.656 209.094L82.0044 210.985C92.3759 214.56 103.507 216.5 115.09 216.5V214.5ZM147.393 209.139C137.265 212.614 126.399 214.5 115.09 214.5V216.5C126.623 216.5 137.708 214.576 148.042 211.031L147.393 209.139ZM159.921 219.331L148.372 209.329L147.063 210.841L158.612 220.842L159.921 219.331ZM200.493 188.894C189.212 201.934 174.998 212.366 158.878 219.165L159.655 221.008C176.062 214.088 190.527 203.472 202.006 190.202L200.493 188.894ZM194.407 175.913L200.328 189.937L202.171 189.159L196.249 175.135L194.407 175.913ZM214.59 115C214.59 137.501 207.122 158.254 194.53 174.922L196.126 176.127C208.971 159.125 216.59 137.951 216.59 115H214.59ZM214.575 113.261C214.585 113.839 214.59 114.419 214.59 115H216.59C216.59 114.408 216.585 113.817 216.574 113.227L214.575 113.261ZM228.083 104.528L215.058 112.387L216.091 114.1L229.117 106.24L228.083 104.528ZM211.712 56.5232C220.499 71.0238 226.116 87.6582 227.603 105.467L229.596 105.301C228.083 87.176 222.365 70.2449 213.423 55.4867L211.712 56.5232ZM197.474 58.3005L212.653 57.0013L212.482 55.0086L197.304 56.3078L197.474 58.3005ZM144.126 19.8032C165.582 26.3392 183.965 39.9316 196.57 57.8789L198.207 56.7294C185.351 38.4245 166.6 24.5585 144.709 17.89L144.126 19.8032ZM139.979 4.19413L143.444 19.0734L145.391 18.6198L141.927 3.74057L139.979 4.19413ZM115 2C123.851 2 132.463 3.01743 140.726 4.9413L141.18 2.9934C132.769 1.03516 124.005 0 115 0V2ZM89.2693 4.94225C97.5337 3.01777 106.147 2 115 2V0C105.993 0 97.2278 1.0355 88.8157 2.99437L89.2693 4.94225ZM86.538 19.1338L90.0164 4.19509L88.0686 3.74153L84.5901 18.6803L86.538 19.1338ZM33.5984 57.8936C46.1656 39.9936 64.4797 26.4237 85.8574 19.863L85.2706 17.951C63.4594 24.6447 44.7792 38.4877 31.9616 56.7444L33.5984 57.8936Z" fill="black"/>
</svg>
