<svg width="220" height="230" viewBox="0 0 220 230" fill="none" xmlns="http://www.w3.org/2000/svg">
<path fill-rule="evenodd" clip-rule="evenodd" d="M38.5859 44.4195L24.4632 39.682C14.5884 50.8932 6.88206 64.0603 2 78.5274L13.1861 88.4087C10.8682 96.8785 9.63064 105.795 9.63064 115C9.63064 124.205 10.8682 133.121 13.1861 141.591L2 151.473C6.88206 165.94 14.5884 179.107 24.4632 190.318L38.5859 185.581C51.0804 198.245 66.9124 207.608 84.6555 212.243L87.604 226.793C94.8582 228.241 102.361 229 110.041 229C117.719 229 125.221 228.241 132.474 226.794L135.412 212.293C153.212 207.681 169.097 198.313 181.63 185.627L195.617 190.319C205.492 179.108 213.198 165.942 218.081 151.475L207.039 141.722C209.38 133.213 210.631 124.253 210.631 115C210.631 105.747 209.38 96.7869 207.039 88.2782L218.081 78.5247C213.198 64.0582 205.492 50.8917 195.617 39.681L181.63 44.3732C169.097 31.6865 153.212 22.3187 135.412 17.7066L132.474 3.20649C125.221 1.75915 117.719 1 110.041 1C102.361 1 94.8582 1.75943 87.604 3.2073L84.6555 17.757C66.9124 22.3924 51.0804 31.7554 38.5859 44.4195Z" fill="#F9F9F9"/>
<path d="M24.4632 39.682L24.7813 38.7339L24.1517 38.5227L23.7128 39.021L24.4632 39.682ZM38.5859 44.4195L38.2679 45.3676L38.8595 45.566L39.2978 45.1218L38.5859 44.4195ZM2 78.5274L1.0525 78.2077L0.840093 78.8371L1.33796 79.2769L2 78.5274ZM13.1861 88.4087L14.1507 88.6727L14.3151 88.0717L13.8482 87.6592L13.1861 88.4087ZM13.1861 141.591L13.8482 142.341L14.3151 141.928L14.1507 141.327L13.1861 141.591ZM2 151.473L1.33796 150.723L0.840093 151.163L1.0525 151.792L2 151.473ZM24.4632 190.318L23.7128 190.979L24.1517 191.477L24.7813 191.266L24.4632 190.318ZM38.5859 185.581L39.2978 184.878L38.8595 184.434L38.2679 184.632L38.5859 185.581ZM84.6555 212.243L85.6356 212.044L85.5117 211.433L84.9083 211.275L84.6555 212.243ZM87.604 226.793L86.6239 226.991L86.756 227.643L87.4083 227.773L87.604 226.793ZM132.474 226.794L132.669 227.774L133.321 227.644L133.454 226.992L132.474 226.794ZM135.412 212.293L135.161 211.325L134.556 211.482L134.432 212.095L135.412 212.293ZM181.63 185.627L181.948 184.679L181.357 184.48L180.918 184.924L181.63 185.627ZM195.617 190.319L195.299 191.267L195.929 191.478L196.368 190.98L195.617 190.319ZM218.081 151.475L219.028 151.795L219.241 151.166L218.743 150.726L218.081 151.475ZM207.039 141.722L206.075 141.457L205.91 142.058L206.377 142.471L207.039 141.722ZM207.039 88.2782L206.377 87.5287L205.91 87.9418L206.075 88.5434L207.039 88.2782ZM218.081 78.5247L218.743 79.2742L219.241 78.8344L219.028 78.205L218.081 78.5247ZM195.617 39.681L196.368 39.02L195.929 38.5217L195.299 38.7329L195.617 39.681ZM181.63 44.3732L180.918 45.076L181.357 45.5196L181.948 45.3213L181.63 44.3732ZM135.412 17.7066L134.432 17.9052L134.556 18.5178L135.161 18.6746L135.412 17.7066ZM132.474 3.20649L133.454 3.00788L133.321 2.35599L132.669 2.22582L132.474 3.20649ZM87.604 3.2073L87.4083 2.22665L86.756 2.35683L86.6239 3.00869L87.604 3.2073ZM84.6555 17.757L84.9083 18.7245L85.5117 18.5669L85.6356 17.9556L84.6555 17.757ZM24.1452 40.6301L38.2679 45.3676L38.904 43.4714L24.7813 38.7339L24.1452 40.6301ZM2.9475 78.8471C7.78636 64.508 15.4249 51.4565 25.2136 40.343L23.7128 39.021C13.752 50.3299 5.97777 63.6125 1.0525 78.2077L2.9475 78.8471ZM13.8482 87.6592L2.66204 77.7779L1.33796 79.2769L12.5241 89.1582L13.8482 87.6592ZM10.6306 115C10.6306 105.885 11.8561 97.0573 14.1507 88.6727L12.2216 88.1447C9.88039 96.6998 8.63064 105.705 8.63064 115H10.6306ZM14.1507 141.327C11.8561 132.943 10.6306 124.115 10.6306 115H8.63064C8.63064 124.295 9.88039 133.3 12.2216 141.855L14.1507 141.327ZM2.66204 152.222L13.8482 142.341L12.5241 140.842L1.33796 150.723L2.66204 152.222ZM25.2136 189.657C15.4249 178.544 7.78636 165.492 2.9475 151.153L1.0525 151.792C5.97777 166.388 13.752 179.67 23.7128 190.979L25.2136 189.657ZM38.2679 184.632L24.1452 189.37L24.7813 191.266L38.904 186.529L38.2679 184.632ZM84.9083 211.275C67.3436 206.687 51.669 197.417 39.2978 184.878L37.8741 186.283C50.4918 199.072 66.4813 208.529 84.4027 213.211L84.9083 211.275ZM88.5841 226.594L85.6356 212.044L83.6754 212.442L86.6239 226.991L88.5841 226.594ZM110.041 228C102.427 228 94.9899 227.247 87.7997 225.812L87.4083 227.773C94.7266 229.234 102.295 230 110.041 230V228ZM132.278 225.813C125.089 227.247 117.653 228 110.041 228V230C117.785 230 125.352 229.234 132.669 227.774L132.278 225.813ZM134.432 212.095L131.493 226.595L133.454 226.992L136.392 212.492L134.432 212.095ZM180.918 184.924C168.509 197.486 152.782 206.76 135.161 211.325L135.663 213.261C153.642 208.603 169.685 199.141 182.341 186.33L180.918 184.924ZM195.936 189.371L181.948 184.679L181.312 186.575L195.299 191.267L195.936 189.371ZM217.133 151.156C212.294 165.494 204.656 178.545 194.867 189.658L196.368 190.98C206.329 179.672 214.103 166.39 219.028 151.795L217.133 151.156ZM206.377 142.471L217.419 152.225L218.743 150.726L207.701 140.972L206.377 142.471ZM209.631 115C209.631 124.162 208.393 133.033 206.075 141.457L208.003 141.987C210.368 133.393 211.631 124.343 211.631 115H209.631ZM206.075 88.5434C208.393 96.9666 209.631 105.838 209.631 115H211.631C211.631 105.657 210.368 96.6072 208.003 88.0129L206.075 88.5434ZM217.419 77.7753L206.377 87.5287L207.701 89.0276L218.743 79.2742L217.419 77.7753ZM194.867 40.342C204.656 51.455 212.294 64.506 217.133 78.8445L219.028 78.205C214.103 63.6104 206.329 50.3284 196.368 39.02L194.867 40.342ZM181.948 45.3213L195.936 40.6291L195.299 38.7329L181.312 43.4251L181.948 45.3213ZM135.161 18.6746C152.782 23.2403 168.509 32.5144 180.918 45.076L182.341 43.6704C169.685 30.8586 153.642 21.397 135.663 16.7385L135.161 18.6746ZM131.493 3.4051L134.432 17.9052L136.392 17.5079L133.454 3.00788L131.493 3.4051ZM110.041 2C117.653 2 125.089 2.7526 132.278 4.18715L132.669 2.22582C125.352 0.765697 117.785 0 110.041 0V2ZM87.7997 4.18796C94.9899 2.75289 102.427 2 110.041 2V0C102.295 0 94.7266 0.765984 87.4083 2.22665L87.7997 4.18796ZM85.6356 17.9556L88.5841 3.40592L86.6239 3.00869L83.6754 17.5584L85.6356 17.9556ZM39.2978 45.1218C51.669 32.5826 67.3436 23.3133 84.9083 18.7245L84.4027 16.7895C66.4813 21.4715 50.4918 30.9282 37.8741 43.7172L39.2978 45.1218Z" fill="black"/>
</svg>
