<svg width="230" height="230" viewBox="0 0 230 230" fill="none" xmlns="http://www.w3.org/2000/svg">
<path fill-rule="evenodd" clip-rule="evenodd" d="M61.1097 30.1552L48.6499 22.2872C38.4877 29.5728 29.5728 38.4877 22.2872 48.6499L30.1552 61.1097C24.0002 70.7799 19.4529 81.5735 16.8899 93.1141L2.51627 96.3608C1.51879 102.426 1 108.652 1 115C1 121.348 1.51879 127.574 2.51627 133.639L16.8899 136.886C19.4529 148.426 24.0002 159.22 30.1552 168.89L22.2872 181.35C29.5728 191.512 38.4877 200.427 48.6499 207.713L61.1097 199.845C70.7799 206 81.5735 210.547 93.1141 213.11L96.3608 227.484C102.426 228.481 108.652 229 115 229C121.348 229 127.574 228.481 133.639 227.484L136.886 213.11C148.426 210.547 159.22 206 168.89 199.845L181.35 207.713C191.512 200.427 200.427 191.512 207.713 181.35L199.845 168.89C206 159.22 210.547 148.426 213.11 136.886L227.484 133.639C228.481 127.574 229 121.348 229 115C229 108.652 228.481 102.426 227.484 96.3608L213.11 93.1141C210.547 81.5735 206 70.7799 199.845 61.1097L207.713 48.6499C200.427 38.4877 191.512 29.5728 181.35 22.2872L168.89 30.1552C159.22 24.0002 148.426 19.4529 136.886 16.8899L133.639 2.51627C127.574 1.51879 121.348 1 115 1C108.652 1 102.426 1.51879 96.3608 2.51627L93.1141 16.8899C81.5735 19.4529 70.7799 24.0002 61.1097 30.1552Z" fill="#F9F9F9"/>
<path d="M48.6499 22.2872L49.1839 21.4417L48.6145 21.0822L48.0673 21.4745L48.6499 22.2872ZM61.1097 30.1552L60.5757 31.0007L61.1118 31.3392L61.6466 30.9988L61.1097 30.1552ZM22.2872 48.6499L21.4745 48.0673L21.0822 48.6145L21.4417 49.1839L22.2872 48.6499ZM30.1552 61.1097L30.9988 61.6466L31.3392 61.1118L31.0007 60.5757L30.1552 61.1097ZM16.8899 93.1141L17.1102 94.0895L17.7287 93.9498L17.8661 93.3309L16.8899 93.1141ZM2.51627 96.3608L2.29594 95.3854L1.63884 95.5338L1.52952 96.1986L2.51627 96.3608ZM2.51627 133.639L1.52952 133.801L1.63884 134.466L2.29594 134.615L2.51627 133.639ZM16.8899 136.886L17.8661 136.669L17.7287 136.05L17.1102 135.911L16.8899 136.886ZM30.1552 168.89L31.0007 169.424L31.3392 168.888L30.9988 168.353L30.1552 168.89ZM22.2872 181.35L21.4417 180.816L21.0822 181.385L21.4745 181.933L22.2872 181.35ZM48.6499 207.713L48.0673 208.525L48.6145 208.918L49.1839 208.558L48.6499 207.713ZM61.1097 199.845L61.6466 199.001L61.1118 198.661L60.5757 198.999L61.1097 199.845ZM93.1141 213.11L94.0895 212.89L93.9498 212.271L93.3309 212.134L93.1141 213.11ZM96.3608 227.484L95.3854 227.704L95.5338 228.361L96.1986 228.47L96.3608 227.484ZM133.639 227.484L133.801 228.47L134.466 228.361L134.615 227.704L133.639 227.484ZM136.886 213.11L136.669 212.134L136.05 212.271L135.911 212.89L136.886 213.11ZM168.89 199.845L169.424 198.999L168.888 198.661L168.353 199.001L168.89 199.845ZM181.35 207.713L180.816 208.558L181.385 208.918L181.933 208.525L181.35 207.713ZM207.713 181.35L208.525 181.933L208.918 181.385L208.558 180.816L207.713 181.35ZM199.845 168.89L199.001 168.353L198.661 168.888L198.999 169.424L199.845 168.89ZM213.11 136.886L212.89 135.911L212.271 136.05L212.134 136.669L213.11 136.886ZM227.484 133.639L227.704 134.615L228.361 134.466L228.47 133.801L227.484 133.639ZM227.484 96.3608L228.47 96.1986L228.361 95.5338L227.704 95.3854L227.484 96.3608ZM213.11 93.1141L212.134 93.3309L212.271 93.9498L212.89 94.0895L213.11 93.1141ZM199.845 61.1097L198.999 60.5757L198.661 61.1118L199.001 61.6466L199.845 61.1097ZM207.713 48.6499L208.558 49.1839L208.918 48.6145L208.525 48.0673L207.713 48.6499ZM181.35 22.2872L181.933 21.4745L181.385 21.0822L180.816 21.4417L181.35 22.2872ZM168.89 30.1552L168.353 30.9988L168.888 31.3392L169.424 31.0007L168.89 30.1552ZM136.886 16.8899L135.911 17.1102L136.05 17.7287L136.669 17.8661L136.886 16.8899ZM133.639 2.51627L134.615 2.29594L134.466 1.63884L133.801 1.52952L133.639 2.51627ZM96.3608 2.51627L96.1986 1.52952L95.5338 1.63884L95.3854 2.29594L96.3608 2.51627ZM93.1141 16.8899L93.3309 17.8661L93.9498 17.7287L94.0895 17.1102L93.1141 16.8899ZM48.116 23.1327L60.5757 31.0007L61.6436 29.3097L49.1839 21.4417L48.116 23.1327ZM23.0999 49.2326C30.3219 39.1591 39.1591 30.3219 49.2326 23.0999L48.0673 21.4745C37.8163 28.8237 28.8237 37.8163 21.4745 48.0673L23.0999 49.2326ZM31.0007 60.5757L23.1327 48.116L21.4417 49.1839L29.3097 61.6436L31.0007 60.5757ZM17.8661 93.3309C20.4034 81.9062 24.905 71.2207 30.9988 61.6466L29.3116 60.5727C23.0953 70.3392 18.5025 81.2409 15.9137 92.8972L17.8661 93.3309ZM2.7366 97.3363L17.1102 94.0895L16.6696 92.1386L2.29594 95.3854L2.7366 97.3363ZM2 115C2 108.707 2.51432 102.535 3.50301 96.5231L1.52952 96.1986C0.523253 102.317 0 108.598 0 115H2ZM3.50301 133.477C2.51432 127.465 2 121.293 2 115H0C0 121.402 0.523253 127.683 1.52952 133.801L3.50301 133.477ZM17.1102 135.911L2.7366 132.664L2.29594 134.615L16.6696 137.861L17.1102 135.911ZM30.9988 168.353C24.905 158.779 20.4034 148.094 17.8661 136.669L15.9137 137.103C18.5025 148.759 23.0953 159.661 29.3116 169.427L30.9988 168.353ZM23.1327 181.884L31.0007 169.424L29.3097 168.356L21.4417 180.816L23.1327 181.884ZM49.2326 206.9C39.1591 199.678 30.3219 190.841 23.0999 180.767L21.4745 181.933C28.8237 192.184 37.8163 201.176 48.0673 208.525L49.2326 206.9ZM60.5757 198.999L48.116 206.867L49.1839 208.558L61.6436 200.69L60.5757 198.999ZM93.3309 212.134C81.9062 209.597 71.2207 205.095 61.6466 199.001L60.5727 200.688C70.3392 206.905 81.2409 211.498 92.8972 214.086L93.3309 212.134ZM97.3363 227.263L94.0895 212.89L92.1386 213.33L95.3854 227.704L97.3363 227.263ZM115 228C108.707 228 102.535 227.486 96.5231 226.497L96.1986 228.47C102.317 229.477 108.598 230 115 230V228ZM133.477 226.497C127.465 227.486 121.293 228 115 228V230C121.402 230 127.683 229.477 133.801 228.47L133.477 226.497ZM135.911 212.89L132.664 227.263L134.615 227.704L137.861 213.33L135.911 212.89ZM168.353 199.001C158.779 205.095 148.094 209.597 136.669 212.134L137.103 214.086C148.759 211.498 159.661 206.905 169.427 200.688L168.353 199.001ZM181.884 206.867L169.424 198.999L168.356 200.69L180.816 208.558L181.884 206.867ZM206.9 180.767C199.678 190.841 190.841 199.678 180.767 206.9L181.933 208.525C192.184 201.176 201.176 192.184 208.525 181.933L206.9 180.767ZM198.999 169.424L206.867 181.884L208.558 180.816L200.69 168.356L198.999 169.424ZM212.134 136.669C209.597 148.094 205.095 158.779 199.001 168.353L200.688 169.427C206.905 159.661 211.498 148.759 214.086 137.103L212.134 136.669ZM227.263 132.664L212.89 135.911L213.33 137.861L227.704 134.615L227.263 132.664ZM228 115C228 121.293 227.486 127.465 226.497 133.477L228.47 133.801C229.477 127.683 230 121.402 230 115H228ZM226.497 96.5231C227.486 102.535 228 108.707 228 115H230C230 108.598 229.477 102.317 228.47 96.1986L226.497 96.5231ZM212.89 94.0895L227.263 97.3363L227.704 95.3854L213.33 92.1386L212.89 94.0895ZM199.001 61.6466C205.095 71.2207 209.597 81.9062 212.134 93.3309L214.086 92.8972C211.498 81.2409 206.905 70.3392 200.688 60.5727L199.001 61.6466ZM206.867 48.116L198.999 60.5757L200.69 61.6436L208.558 49.1839L206.867 48.116ZM180.767 23.0999C190.841 30.3219 199.678 39.1591 206.9 49.2326L208.525 48.0673C201.176 37.8163 192.184 28.8237 181.933 21.4745L180.767 23.0999ZM169.424 31.0007L181.884 23.1327L180.816 21.4417L168.356 29.3097L169.424 31.0007ZM136.669 17.8661C148.094 20.4034 158.779 24.905 168.353 30.9988L169.427 29.3116C159.661 23.0953 148.759 18.5025 137.103 15.9137L136.669 17.8661ZM132.664 2.7366L135.911 17.1102L137.861 16.6696L134.615 2.29594L132.664 2.7366ZM115 2C121.293 2 127.465 2.51432 133.477 3.50301L133.801 1.52952C127.683 0.523253 121.402 0 115 0V2ZM96.5231 3.50301C102.535 2.51432 108.707 2 115 2V0C108.598 0 102.317 0.523253 96.1986 1.52952L96.5231 3.50301ZM94.0895 17.1102L97.3363 2.7366L95.3854 2.29594L92.1386 16.6696L94.0895 17.1102ZM61.6466 30.9988C71.2207 24.905 81.9062 20.4034 93.3309 17.8661L92.8972 15.9137C81.2409 18.5025 70.3392 23.0953 60.5727 29.3116L61.6466 30.9988Z" fill="black"/>
</svg>
