<svg width="230" height="230" viewBox="0 0 230 230" fill="none" xmlns="http://www.w3.org/2000/svg">
<path fill-rule="evenodd" clip-rule="evenodd" d="M61.1099 30.1552L48.6581 22.2922C38.5201 29.5472 29.6009 38.4443 22.2924 48.6578L30.1554 61.1097C24.0004 70.7799 19.4531 81.5735 16.8901 93.1141L2.53499 96.3567C0.569127 108.215 0.476568 120.396 2.34369 132.45C2.40538 132.848 2.46915 133.246 2.53499 133.643L16.8901 136.886C19.4531 148.426 24.0004 159.22 30.1554 168.89L22.2924 181.342C27.1265 188.098 32.7148 194.347 38.9858 199.958C42.0794 202.726 45.309 205.311 48.6579 207.708L61.1099 199.845C70.7802 206 81.5738 210.547 93.1143 213.11L96.3569 227.465C100.897 228.218 105.498 228.698 110.137 228.896C118.051 229.234 125.926 228.745 133.644 227.465L136.886 213.11C148.427 210.547 159.22 206 168.891 199.845L181.342 207.708C182.066 207.19 182.783 206.664 183.496 206.128C192.851 199.097 200.996 190.722 207.708 181.342L199.845 168.89C206 159.22 210.547 148.426 213.11 136.886L227.466 133.643C229.521 121.247 229.503 108.649 227.465 96.3567L213.11 93.1141C204.685 55.1792 174.821 25.3148 136.886 16.8899L133.644 2.53456C121.297 0.487928 108.697 0.489025 96.3569 2.53458L93.1143 16.8899C81.5738 19.4529 70.7802 24.0002 61.1099 30.1552Z" fill="#F9F9F9"/>
<path d="M48.6581 22.2922L49.192 21.4467L48.6232 21.0875L48.0761 21.479L48.6581 22.2922ZM61.1099 30.1552L60.5759 31.0007L61.112 31.3392L61.6468 30.9988L61.1099 30.1552ZM22.2924 48.6578L21.4791 48.0758L21.0877 48.6229L21.4468 49.1917L22.2924 48.6578ZM30.1554 61.1097L30.999 61.6466L31.3395 61.1118L31.001 60.5757L30.1554 61.1097ZM16.8901 93.1141L17.1105 94.0895L17.7289 93.9498L17.8663 93.3309L16.8901 93.1141ZM2.53499 96.3567L2.31465 95.3812L1.65847 95.5295L1.54845 96.1931L2.53499 96.3567ZM2.34369 132.45L1.35548 132.603H1.35548L2.34369 132.45ZM2.53499 133.643L1.54845 133.807L1.65846 134.471L2.31466 134.619L2.53499 133.643ZM16.8901 136.886L17.8663 136.669L17.7289 136.05L17.1105 135.911L16.8901 136.886ZM30.1554 168.89L31.001 169.424L31.3395 168.888L30.999 168.353L30.1554 168.89ZM22.2924 181.342L21.4468 180.808L21.0877 181.377L21.4791 181.924L22.2924 181.342ZM38.9858 199.958L38.319 200.703L38.9858 199.958ZM48.6579 207.708L48.076 208.521L48.6231 208.913L49.1919 208.553L48.6579 207.708ZM61.1099 199.845L61.6468 199.001L61.112 198.661L60.5759 198.999L61.1099 199.845ZM93.1143 213.11L94.0897 212.89L93.95 212.271L93.3311 212.134L93.1143 213.11ZM96.3569 227.465L95.3815 227.686L95.5297 228.342L96.1934 228.452L96.3569 227.465ZM110.137 228.896L110.18 227.897L110.137 228.896ZM133.644 227.465L133.807 228.452L134.471 228.342L134.619 227.686L133.644 227.465ZM136.886 213.11L136.669 212.134L136.05 212.271L135.911 212.89L136.886 213.11ZM168.891 199.845L169.424 198.999L168.888 198.661L168.354 199.001L168.891 199.845ZM181.342 207.708L180.808 208.553L181.377 208.912L181.924 208.521L181.342 207.708ZM183.496 206.128L182.895 205.329V205.329L183.496 206.128ZM207.708 181.342L208.521 181.924L208.913 181.377L208.554 180.808L207.708 181.342ZM199.845 168.89L199.001 168.353L198.661 168.888L198.999 169.424L199.845 168.89ZM213.11 136.886L212.89 135.911L212.272 136.05L212.134 136.669L213.11 136.886ZM227.466 133.643L227.686 134.619L228.342 134.471L228.452 133.807L227.466 133.643ZM227.465 96.3567L228.452 96.1931L228.342 95.5295L227.686 95.3812L227.465 96.3567ZM213.11 93.1141L212.134 93.3309L212.272 93.9498L212.89 94.0895L213.11 93.1141ZM136.886 16.8899L135.911 17.1102L136.05 17.7287L136.669 17.8661L136.886 16.8899ZM133.644 2.53456L134.619 2.31423L134.471 1.65804L133.807 1.54802L133.644 2.53456ZM96.3569 2.53458L96.1934 1.54804L95.5297 1.65805L95.3815 2.31424L96.3569 2.53458ZM93.1143 16.8899L93.3311 17.8661L93.95 17.7287L94.0897 17.1102L93.1143 16.8899ZM48.1241 23.1377L60.5759 31.0007L61.6438 29.3097L49.192 21.4467L48.1241 23.1377ZM23.1056 49.2397C30.35 39.1159 39.1909 30.2968 49.24 23.1054L48.0761 21.479C37.8492 28.7976 28.8518 37.7728 21.4791 48.0758L23.1056 49.2397ZM31.001 60.5757L23.1379 48.1238L21.4468 49.1917L29.3099 61.6436L31.001 60.5757ZM17.8663 93.3309C20.4036 81.9062 24.9052 71.2207 30.999 61.6466L29.3118 60.5727C23.0955 70.3392 18.5027 81.2409 15.9139 92.8972L17.8663 93.3309ZM2.75532 97.3321L17.1105 94.0895L16.6698 92.1386L2.31465 95.3812L2.75532 97.3321ZM3.33191 132.297C1.48116 120.349 1.5729 108.275 3.52152 96.5202L1.54845 96.1931C-0.434652 108.156 -0.528024 120.444 1.35548 132.603L3.33191 132.297ZM3.52153 133.48C3.45626 133.086 3.39305 132.692 3.33191 132.297L1.35548 132.603C1.4177 133.005 1.48203 133.406 1.54845 133.807L3.52153 133.48ZM17.1105 135.911L2.75532 132.668L2.31466 134.619L16.6698 137.861L17.1105 135.911ZM30.999 168.353C24.9052 158.779 20.4036 148.094 17.8663 136.669L15.9139 137.103C18.5027 148.759 23.0955 159.661 29.3118 169.427L30.999 168.353ZM23.1379 181.876L31.001 169.424L29.3099 168.356L21.4468 180.808L23.1379 181.876ZM39.6526 199.212C33.4366 193.651 27.8973 187.456 23.1056 180.76L21.4791 181.924C26.3557 188.739 31.9931 195.043 38.319 200.703L39.6526 199.212ZM49.2399 206.895C45.9204 204.519 42.7191 201.956 39.6526 199.212L38.319 200.703C41.4397 203.495 44.6977 206.104 48.076 208.521L49.2399 206.895ZM60.5759 198.999L48.124 206.862L49.1919 208.553L61.6438 200.69L60.5759 198.999ZM93.3311 212.134C81.9064 209.597 71.2209 205.095 61.6468 199.001L60.5729 200.688C70.3394 206.905 81.2411 211.498 92.8975 214.086L93.3311 212.134ZM97.3324 227.245L94.0897 212.89L92.1388 213.33L95.3815 227.686L97.3324 227.245ZM110.18 227.897C105.582 227.701 101.021 227.225 96.5205 226.479L96.1934 228.452C100.774 229.211 105.415 229.696 110.094 229.895L110.18 227.897ZM133.48 226.479C125.83 227.747 118.024 228.232 110.18 227.897L110.094 229.895C118.077 230.236 126.022 229.743 133.807 228.452L133.48 226.479ZM135.911 212.89L132.668 227.245L134.619 227.686L137.862 213.33L135.911 212.89ZM168.354 199.001C158.78 205.095 148.094 209.597 136.669 212.134L137.103 214.086C148.759 211.498 159.661 206.905 169.428 200.688L168.354 199.001ZM181.876 206.862L169.424 198.999L168.357 200.69L180.808 208.553L181.876 206.862ZM182.895 205.329C182.189 205.86 181.477 206.382 180.76 206.895L181.924 208.521C182.654 207.999 183.378 207.468 184.097 206.928L182.895 205.329ZM206.895 180.76C200.241 190.058 192.168 198.359 182.895 205.329L184.097 206.928C193.534 199.834 201.75 191.386 208.521 181.924L206.895 180.76ZM198.999 169.424L206.862 181.876L208.554 180.808L200.691 168.356L198.999 169.424ZM212.134 136.669C209.597 148.094 205.095 158.779 199.001 168.353L200.689 169.427C206.905 159.661 211.498 148.759 214.087 137.103L212.134 136.669ZM227.245 132.668L212.89 135.911L213.331 137.861L227.686 134.619L227.245 132.668ZM226.479 96.5202C228.499 108.705 228.516 121.192 226.479 133.48L228.452 133.807C230.525 121.302 230.507 108.593 228.452 96.1931L226.479 96.5202ZM212.89 94.0895L227.245 97.3321L227.686 95.3812L213.331 92.1386L212.89 94.0895ZM136.669 17.8661C174.225 26.2068 203.793 55.7752 212.134 93.3309L214.087 92.8973C205.577 54.5833 175.417 24.4228 137.103 15.9137L136.669 17.8661ZM132.668 2.7549L135.911 17.1102L137.862 16.6696L134.619 2.31423L132.668 2.7549ZM96.5204 3.52112C108.753 1.49351 121.241 1.49242 133.48 3.5211L133.807 1.54802C121.352 -0.516564 108.642 -0.515457 96.1934 1.54804L96.5204 3.52112ZM94.0897 17.1102L97.3323 2.75491L95.3815 2.31424L92.1388 16.6696L94.0897 17.1102ZM61.6468 30.9988C71.2209 24.905 81.9064 20.4034 93.3311 17.8661L92.8975 15.9137C81.2411 18.5025 70.3394 23.0953 60.5729 29.3116L61.6468 30.9988Z" fill="black"/>
</svg>
