<svg width="189" height="252" viewBox="0 0 189 252" fill="none" xmlns="http://www.w3.org/2000/svg">
<path d="M54.6795 228.739C14.4018 212.22 2.31633 199.73 1.10728 173.371C0.256195 154.849 4.28133 139.309 19.1541 103.69C24.5523 90.7588 25.1906 88.2337 25.2269 79.6269C25.2906 64.5358 13.0983 57.2229 2.17239 49.5251C11.0728 35.2798 18.8218 19.1478 29.1269 5.8995C29.3096 5.66332 33.0406 7.48116 37.4187 9.93844C59.0791 22.0975 76.5345 15.4838 94.1599 1.00316C111.785 15.4838 129.241 22.0975 150.901 9.93844C155.279 7.48116 159.01 5.66332 159.193 5.8995C169.498 19.1478 177.247 35.2798 186.147 49.5251C175.222 57.2229 163.029 64.5358 163.093 79.6269C163.129 88.2337 163.768 90.7588 169.166 103.69C184.039 139.309 188.064 154.849 187.213 173.371C186.004 199.73 173.918 212.22 133.64 228.739C118.923 234.774 106.392 241.021 94.1599 250.997C81.928 241.021 69.397 234.774 54.6795 228.739Z" fill="#F9F9F9"/>
<path d="M94.1638 251C94.1625 250.999 94.1612 250.998 94.1599 250.997M94.1638 1C94.1625 1.00105 94.1612 1.00211 94.1599 1.00316M94.1561 1C94.1574 1.00105 94.1587 1.0021 94.1599 1.00316M94.1561 251C94.1574 250.999 94.1587 250.998 94.1599 250.997M94.1599 1.00316C76.5345 15.4838 59.0791 22.0975 37.4187 9.93844C33.0406 7.48116 29.3096 5.66332 29.1269 5.8995C18.8218 19.1478 11.0728 35.2798 2.1724 49.5251C13.0982 57.2229 25.2906 64.5357 25.2269 79.6269C25.1906 88.2337 24.5523 90.7588 19.1541 103.69C4.28133 139.309 0.256198 154.849 1.10729 173.371C2.31633 199.73 14.4018 212.22 54.6795 228.739C69.397 234.774 81.928 241.021 94.1599 250.997M94.1599 1.00316C111.785 15.4838 129.241 22.0975 150.901 9.93844C155.279 7.48116 159.01 5.66332 159.193 5.8995C169.498 19.1478 177.247 35.2798 186.147 49.5251C175.222 57.2229 163.029 64.5358 163.093 79.6269C163.129 88.2337 163.768 90.7588 169.166 103.69C184.039 139.309 188.064 154.849 187.213 173.371C186.004 199.73 173.918 212.22 133.64 228.739C118.923 234.774 106.392 241.021 94.1599 250.997" stroke="black" stroke-width="2" stroke-linejoin="round"/>
</svg>
