<svg width="206" height="252" viewBox="0 0 206 252" fill="none" xmlns="http://www.w3.org/2000/svg">
<path d="M49.9276 1C49.9276 9.51377 43.0258 16.4156 34.5121 16.4156C25.9983 16.4156 19.0965 9.51377 19.0965 1L1 1.00001V18.0193C1.3688 17.9929 1.74119 17.9794 2.11671 17.9794C10.6305 17.9794 17.5323 24.8812 17.5323 33.395C17.5323 41.9088 10.6305 48.8105 2.11671 48.8105C1.74119 48.8105 1.3688 48.7971 1 48.7707V64.2659C1.3688 64.2395 1.74119 64.2261 2.11671 64.2261C10.6305 64.2261 17.5323 71.1279 17.5323 79.6416C17.5323 88.1554 10.6305 95.0572 2.11671 95.0572C1.74119 95.0572 1.3688 95.0437 1 95.0173V110.513C1.3688 110.486 1.74118 110.473 2.11671 110.473C10.6305 110.473 17.5323 117.425 17.5323 126C17.5323 134.575 10.6305 141.527 2.11671 141.527C1.74118 141.527 1.3688 141.514 1 141.487V156.983C1.3688 156.956 1.74118 156.943 2.11671 156.943C10.6305 156.943 17.5323 163.845 17.5323 172.358C17.5323 180.872 10.6305 187.774 2.11671 187.774C1.74118 187.774 1.3688 187.76 1 187.734V203.229C1.3688 203.203 1.74118 203.189 2.1167 203.189C10.6305 203.189 17.5323 210.091 17.5323 218.605C17.5323 227.119 10.6305 234.021 2.1167 234.021C1.74118 234.021 1.3688 234.007 1 233.981V251H19.0965C19.0965 242.486 25.9983 235.584 34.5121 235.584C43.0258 235.584 49.9276 242.486 49.9276 251H65.3432C65.3432 242.486 72.245 235.584 80.7587 235.584C89.2725 235.584 96.1743 242.486 96.1743 251H111.59C111.59 242.486 118.542 235.584 127.117 235.584C135.693 235.584 142.644 242.486 142.644 251H157.948C157.948 242.486 164.85 235.584 173.364 235.584C181.878 235.584 188.779 242.486 188.779 251H204.642V233.981C196.649 233.409 190.343 226.743 190.343 218.605C190.343 210.467 196.649 203.801 204.642 203.229V187.734C196.649 187.162 190.343 180.497 190.343 172.358C190.343 164.22 196.649 157.555 204.642 156.983V141.487C196.649 140.911 190.343 134.197 190.343 126C190.343 117.803 196.649 111.089 204.642 110.513V95.0174C196.649 94.4452 190.343 87.7799 190.343 79.6416C190.343 71.5034 196.649 64.8381 204.642 64.2659V48.7707C196.649 48.1986 190.343 41.5332 190.343 33.395C190.343 25.2568 196.649 18.5914 204.642 18.0193V1.00001L188.779 1C188.779 9.51377 181.878 16.4155 173.364 16.4155C164.85 16.4155 157.948 9.51377 157.948 1L142.644 1C142.644 9.51377 135.693 16.4156 127.117 16.4156C118.542 16.4156 111.59 9.51377 111.59 1H96.1743C96.1743 9.51377 89.2725 16.4156 80.7587 16.4156C72.245 16.4156 65.3432 9.51377 65.3432 1H49.9276Z" fill="#F9F9F9"/>
<path d="M127.117 235.584C118.542 235.584 111.59 242.486 111.59 251H96.1743C96.1743 242.486 89.2725 235.584 80.7587 235.584C72.245 235.584 65.3432 242.486 65.3432 251H49.9276C49.9276 242.486 43.0258 235.584 34.5121 235.584C25.9983 235.584 19.0965 242.486 19.0965 251H1V233.981C1.3688 234.007 1.74118 234.021 2.1167 234.021C10.6305 234.021 17.5323 227.119 17.5323 218.605C17.5323 210.091 10.6305 203.189 2.1167 203.189C1.74118 203.189 1.3688 203.203 1 203.229V187.734C1.3688 187.76 1.74118 187.774 2.11671 187.774C10.6305 187.774 17.5323 180.872 17.5323 172.358C17.5323 163.845 10.6305 156.943 2.11671 156.943C1.74118 156.943 1.3688 156.956 1 156.983V141.487C1.3688 141.514 1.74118 141.527 2.11671 141.527C10.6305 141.527 17.5323 134.575 17.5323 126C17.5323 117.425 10.6305 110.473 2.11671 110.473C1.74118 110.473 1.3688 110.486 1 110.513V95.0174C1.3688 95.0438 1.74119 95.0572 2.11671 95.0572C10.6305 95.0572 17.5323 88.1554 17.5323 79.6416C17.5323 71.1279 10.6305 64.2261 2.11671 64.2261C1.74119 64.2261 1.3688 64.2395 1 64.2659V48.7707C1.3688 48.7971 1.74119 48.8105 2.11671 48.8105C10.6305 48.8105 17.5323 41.9088 17.5323 33.395C17.5323 24.8812 10.6305 17.9794 2.11671 17.9794C1.74119 17.9794 1.3688 17.9929 1 18.0193V1.00001L19.0965 1C19.0965 9.51377 25.9983 16.4156 34.5121 16.4156C43.0258 16.4156 49.9276 9.51377 49.9276 1H65.3432C65.3432 9.51377 72.245 16.4156 80.7587 16.4156C89.2725 16.4156 96.1743 9.51377 96.1743 1H111.59C111.59 9.51377 118.542 16.4156 127.117 16.4156M127.117 235.584C135.693 235.584 142.644 242.486 142.644 251M127.117 235.584C135.631 235.584 142.533 242.486 142.533 251H157.948M142.644 251H158.06M142.644 251H157.948M158.06 1C152.04 1 148.664 1 142.644 1M142.644 1C142.644 9.51377 135.693 16.4156 127.117 16.4156M142.644 1L157.948 1M127.117 16.4156C135.631 16.4156 142.533 9.51377 142.533 1H157.948M157.948 251C157.948 242.486 164.85 235.584 173.364 235.584C181.878 235.584 188.779 242.486 188.779 251H204.642V233.981C196.649 233.409 190.343 226.743 190.343 218.605C190.343 210.467 196.649 203.801 204.642 203.229V187.734C196.649 187.162 190.343 180.497 190.343 172.358C190.343 164.22 196.649 157.555 204.642 156.983V141.487C196.649 140.911 190.343 134.197 190.343 126C190.343 117.803 196.649 111.089 204.642 110.513V95.0174C196.649 94.4452 190.343 87.7799 190.343 79.6416C190.343 71.5034 196.649 64.8381 204.642 64.2659V48.7707C196.649 48.1986 190.343 41.5332 190.343 33.395C190.343 25.2568 196.649 18.5914 204.642 18.0193V1.00001L188.779 1C188.779 9.51377 181.878 16.4155 173.364 16.4155C164.85 16.4155 157.948 9.51377 157.948 1" stroke="black" stroke-width="2" stroke-linejoin="round"/>
</svg>
