<svg width="188" height="252" viewBox="0 0 188 252" fill="none" xmlns="http://www.w3.org/2000/svg">
<path d="M18.173 246.644L20.2649 243.257C24.003 237.204 32.8049 237.204 36.5429 243.257C40.281 249.31 49.0828 249.31 52.8209 243.257C56.5589 237.204 65.3608 237.204 69.0988 243.257C72.8369 249.31 81.6387 249.31 85.3768 243.257C89.1149 237.204 97.9167 237.204 101.655 243.257C105.393 249.31 114.195 249.31 117.933 243.257C121.671 237.204 130.473 237.204 134.211 243.257C137.949 249.31 146.751 249.31 150.489 243.257C154.227 237.204 163.029 237.204 166.767 243.257L168.859 246.645C171.955 251.658 178.907 252.496 183.105 248.361C187.345 244.186 186.551 237.142 181.488 234.015L178.257 232.019C172.204 228.281 172.204 219.479 178.257 215.741C184.31 212.003 184.31 203.201 178.257 199.463C172.204 195.725 172.204 186.923 178.257 183.185C184.31 179.447 184.31 170.645 178.257 166.907C172.204 163.169 172.204 154.367 178.257 150.629C184.31 146.891 184.31 138.089 178.257 134.351C172.204 130.613 172.204 121.811 178.257 118.073C184.31 114.335 184.31 105.533 178.257 101.795C172.204 98.0572 172.204 89.2554 178.257 85.5173C184.31 81.7793 184.31 72.9774 178.257 69.2394C172.204 65.5013 172.204 56.6995 178.257 52.9614C184.31 49.2233 184.31 40.4215 178.257 36.6834C172.204 32.9454 172.204 24.1435 178.257 20.4055L181.582 18.3519C186.656 15.2184 187.553 8.20639 183.432 3.89642C179.146 -0.584864 171.769 0.253953 168.599 5.58291L166.767 8.6632C163.096 14.8347 154.16 14.8347 150.489 8.66317C146.818 2.49163 137.882 2.49163 134.211 8.66317C130.54 14.8347 121.604 14.8347 117.933 8.66317C114.262 2.49163 105.326 2.49163 101.655 8.66317C97.9837 14.8347 89.0479 14.8347 85.3768 8.66317C81.7057 2.49162 72.77 2.49162 69.0989 8.66317C65.4277 14.8347 56.492 14.8347 52.8209 8.66317C49.1498 2.49162 40.214 2.49162 36.5429 8.66317C32.8718 14.8347 23.9361 14.8347 20.2649 8.66318L18.4326 5.58277C15.2627 0.253873 7.88543 -0.584953 3.60012 3.89627C-0.521397 8.20621 0.375681 15.2182 5.44948 18.3517L8.77462 20.4053C14.8273 24.1433 14.8273 32.9452 8.77462 36.6832C2.72197 40.4213 2.72197 49.2231 8.77462 52.9612C14.8273 56.6993 14.8273 65.5011 8.77462 69.2392C2.72197 72.9772 2.72197 81.7791 8.77462 85.5171C14.8273 89.2552 14.8273 98.057 8.77462 101.795C2.72197 105.533 2.72197 114.335 8.77462 118.073C14.8273 121.811 14.8273 130.613 8.77462 134.351C2.72197 138.089 2.72197 146.891 8.77462 150.629C14.8273 154.367 14.8273 163.169 8.77462 166.907C2.72197 170.645 2.72197 179.447 8.77462 183.185C14.8273 186.923 14.8273 195.725 8.77462 199.463C2.72197 203.201 2.72197 212.003 8.77462 215.741C14.8273 219.479 14.8273 228.281 8.77463 232.019L5.54316 234.015C0.480213 237.141 -0.313726 244.186 3.92624 248.361C8.12487 252.496 15.0767 251.658 18.173 246.644Z" fill="#F9F9F9" stroke="black" stroke-width="2" stroke-linejoin="round"/>
</svg>
