<svg width="200" height="252" viewBox="0 0 200 252" fill="none" xmlns="http://www.w3.org/2000/svg">
<path d="M28.9765 1C28.9765 5.86812 25.0301 9.81451 20.162 9.81451C15.2939 9.81451 11.3475 5.86812 11.3475 1H1V11.2838C1.02128 11.2837 1.04257 11.2836 1.06388 11.2836C5.93201 11.2836 9.8784 15.23 9.8784 20.0981C9.8784 24.9662 5.932 28.9126 1.06388 28.9126C1.04257 28.9126 1.02128 28.9125 1 28.9124V37.7273C1.02128 37.7272 1.04257 37.7271 1.06388 37.7271C5.932 37.7271 9.87839 41.6735 9.87839 46.5416C9.87839 51.4098 5.932 55.3561 1.06388 55.3561C1.04257 55.3561 1.02128 55.3561 1 55.3559V64.1709C1.02128 64.1707 1.04257 64.1707 1.06388 64.1707C5.932 64.1707 9.87839 68.1456 9.87839 73.049C9.87839 77.9524 5.932 81.9274 1.06388 81.9274C1.04257 81.9274 1.02128 81.9274 1 81.9272V90.7422C1.02128 90.742 1.04257 90.7419 1.06388 90.7419C5.932 90.7419 9.87839 94.6883 9.87839 99.5564C9.87839 104.425 5.932 108.371 1.06388 108.371C1.04257 108.371 1.02128 108.371 1 108.371V117.186C1.02127 117.186 1.04257 117.185 1.06388 117.185C5.932 117.185 9.87839 121.132 9.87839 126C9.87839 130.868 5.932 134.814 1.06388 134.814C1.04257 134.814 1.02127 134.814 1 134.814V143.629C1.02127 143.629 1.04257 143.629 1.06388 143.629C5.932 143.629 9.87839 147.575 9.87839 152.444C9.87839 157.312 5.932 161.258 1.06388 161.258C1.04257 161.258 1.02127 161.258 1 161.258V170.073C1.02127 170.073 1.04257 170.073 1.06388 170.073C5.932 170.073 9.87839 174.048 9.87839 178.951C9.87839 183.854 5.932 187.829 1.06388 187.829C1.04257 187.829 1.02127 187.829 1 187.829V196.644C1.02127 196.644 1.04257 196.644 1.06388 196.644C5.932 196.644 9.87839 200.59 9.87839 205.458C9.87839 210.326 5.932 214.273 1.06387 214.273C1.04257 214.273 1.02127 214.273 1 214.273V223.088C1.02127 223.087 1.04257 223.087 1.06387 223.087C5.932 223.087 9.87839 227.034 9.87839 231.902C9.87839 236.77 5.932 240.716 1.06387 240.716C1.04256 240.716 1.02127 240.716 1 240.716V251H11.3475C11.3475 246.132 15.2939 242.185 20.162 242.185C25.0301 242.185 28.9765 246.132 28.9765 251H37.791C37.791 246.132 41.7374 242.185 46.6055 242.185C51.4736 242.185 55.42 246.132 55.42 251H64.2346C64.2346 246.132 68.2095 242.185 73.1129 242.185C78.0163 242.185 81.9913 246.132 81.9913 251H90.8058C90.8058 246.132 94.7522 242.185 99.6203 242.185C104.488 242.185 108.435 246.132 108.435 251H117.249C117.249 246.132 121.196 242.185 126.064 242.185C130.967 242.185 134.942 246.132 134.942 251H143.693C143.693 246.132 147.639 242.185 152.507 242.185C152.518 242.185 152.529 242.186 152.539 242.186C152.55 242.186 152.561 242.185 152.571 242.185C157.439 242.185 161.386 246.132 161.386 251H170.136H170.2C170.2 246.132 174.147 242.185 179.015 242.185C183.883 242.185 187.829 246.132 187.829 251H198.049V240.716C193.21 240.682 189.298 236.749 189.298 231.902C189.298 227.055 193.21 223.122 198.049 223.088V214.273C193.21 214.238 189.298 210.305 189.298 205.458C189.298 200.612 193.21 196.678 198.049 196.644V187.829C193.21 187.794 189.298 183.833 189.298 178.951C189.298 174.069 193.21 170.107 198.049 170.073V161.258C193.21 161.223 189.298 157.29 189.298 152.444C189.298 147.597 193.21 143.664 198.049 143.629V134.814C193.21 134.78 189.298 130.847 189.298 126C189.298 121.153 193.21 117.22 198.049 117.186V108.371C193.21 108.336 189.298 104.403 189.298 99.5565C189.298 94.7096 193.21 90.7765 198.049 90.7422V81.9272C193.21 81.8926 189.298 77.931 189.298 73.049C189.298 68.1671 193.21 64.2055 198.049 64.1709V55.3559C193.21 55.3216 189.298 51.3885 189.298 46.5416C189.298 41.6948 193.21 37.7617 198.049 37.7274V28.9124C193.21 28.878 189.298 24.9449 189.298 20.0981C189.298 15.2513 193.21 11.3182 198.049 11.2838V1H187.829C187.829 5.86812 183.883 9.81451 179.015 9.81451C174.147 9.81451 170.2 5.86812 170.2 1H170.136H161.386C161.386 5.86812 157.439 9.81451 152.571 9.81451C152.561 9.81451 152.55 9.81449 152.539 9.81446C152.529 9.81449 152.518 9.81451 152.507 9.81451C147.639 9.81451 143.693 5.86812 143.693 1H134.942C134.942 5.86812 130.967 9.81451 126.064 9.81451C121.196 9.81451 117.249 5.86812 117.249 1H108.435C108.435 5.86812 104.488 9.81451 99.6203 9.81451C94.7522 9.81451 90.8058 5.86812 90.8058 1H81.9913C81.9913 5.86812 78.0163 9.81451 73.1129 9.81451C68.2095 9.81451 64.2346 5.86812 64.2346 1H55.42C55.42 5.86812 51.4736 9.81451 46.6055 9.81451C41.7374 9.81451 37.791 5.86812 37.791 1H28.9765Z" fill="#F9F9F9"/>
<path d="M126.064 9.81451C121.196 9.81451 117.249 5.86812 117.249 1H108.435C108.435 5.86812 104.488 9.81451 99.6203 9.81451C94.7522 9.81451 90.8058 5.86812 90.8058 1H81.9913C81.9913 5.86812 78.0163 9.81451 73.1129 9.81451C68.2095 9.81451 64.2346 5.86812 64.2346 1H55.42C55.42 5.86812 51.4736 9.81451 46.6055 9.81451C41.7374 9.81451 37.791 5.86812 37.791 1H28.9765C28.9765 5.86812 25.0301 9.81451 20.162 9.81451C15.2939 9.81451 11.3475 5.86812 11.3475 1H1V11.2838C1.02128 11.2837 1.04257 11.2836 1.06388 11.2836C5.93201 11.2836 9.8784 15.23 9.8784 20.0981C9.8784 24.9662 5.932 28.9126 1.06388 28.9126C1.04257 28.9126 1.02128 28.9125 1 28.9124V37.7273C1.02128 37.7272 1.04257 37.7271 1.06388 37.7271C5.932 37.7271 9.87839 41.6735 9.87839 46.5416C9.87839 51.4098 5.932 55.3561 1.06388 55.3561C1.04257 55.3561 1.02128 55.3561 1 55.3559V64.1709C1.02128 64.1707 1.04257 64.1707 1.06388 64.1707C5.932 64.1707 9.87839 68.1456 9.87839 73.049C9.87839 77.9524 5.932 81.9274 1.06388 81.9274C1.04257 81.9274 1.02128 81.9274 1 81.9272V90.7422C1.02128 90.742 1.04257 90.7419 1.06388 90.7419C5.932 90.7419 9.87839 94.6883 9.87839 99.5565C9.87839 104.425 5.932 108.371 1.06388 108.371C1.04257 108.371 1.02128 108.371 1 108.371V117.186C1.02127 117.186 1.04257 117.185 1.06388 117.185C5.932 117.185 9.87839 121.132 9.87839 126C9.87839 130.868 5.932 134.814 1.06388 134.814C1.04257 134.814 1.02127 134.814 1 134.814V143.629C1.02127 143.629 1.04257 143.629 1.06388 143.629C5.932 143.629 9.87839 147.575 9.87839 152.444C9.87839 157.312 5.932 161.258 1.06388 161.258C1.04257 161.258 1.02127 161.258 1 161.258V170.073C1.02127 170.073 1.04257 170.073 1.06388 170.073C5.932 170.073 9.87839 174.048 9.87839 178.951C9.87839 183.854 5.932 187.829 1.06388 187.829C1.04257 187.829 1.02127 187.829 1 187.829V196.644C1.02127 196.644 1.04257 196.644 1.06388 196.644C5.932 196.644 9.87839 200.59 9.87839 205.458C9.87839 210.326 5.932 214.273 1.06387 214.273C1.04257 214.273 1.02127 214.273 1 214.273V223.088C1.02127 223.087 1.04257 223.087 1.06387 223.087C5.932 223.087 9.87839 227.034 9.87839 231.902C9.87839 236.77 5.932 240.716 1.06387 240.716C1.04256 240.716 1.02127 240.716 1 240.716V251H11.3475C11.3475 246.132 15.2939 242.185 20.162 242.185C25.0301 242.185 28.9765 246.132 28.9765 251H37.791C37.791 246.132 41.7374 242.185 46.6055 242.185C51.4736 242.185 55.42 246.132 55.42 251H64.2346C64.2346 246.132 68.2095 242.185 73.1129 242.185C78.0163 242.185 81.9913 246.132 81.9913 251H90.8058C90.8058 246.132 94.7522 242.185 99.6203 242.185C104.488 242.185 108.435 246.132 108.435 251H117.249C117.249 246.132 121.196 242.185 126.064 242.185M126.064 9.81451C130.932 9.81451 134.878 5.86812 134.878 1H143.693M126.064 9.81451C130.967 9.81451 134.942 5.86812 134.942 1M143.693 1C143.693 5.86812 147.639 9.81451 152.507 9.81451C152.518 9.81451 152.529 9.81449 152.539 9.81446M143.693 1H134.942M170.136 1H161.322C161.322 5.85747 157.393 9.79724 152.539 9.81446M170.136 1H170.2M170.136 1H161.386M170.136 251H161.322C161.322 246.143 157.393 242.203 152.539 242.186M170.136 251H161.386M170.136 251H170.2M143.693 251C143.693 246.132 147.639 242.185 152.507 242.185C152.518 242.185 152.529 242.186 152.539 242.186M143.693 251H134.878C134.878 246.132 130.932 242.185 126.064 242.185M143.693 251H134.942M126.064 242.185C130.967 242.185 134.942 246.132 134.942 251M134.942 1H143.757C143.757 5.85747 147.686 9.79724 152.539 9.81446M161.386 1C161.386 5.86812 157.439 9.81451 152.571 9.81451C152.561 9.81451 152.55 9.81449 152.539 9.81446M161.386 1H170.2M170.2 1C170.2 5.86812 174.147 9.81451 179.015 9.81451C183.883 9.81451 187.829 5.86812 187.829 1H198.049V11.2838C193.21 11.3182 189.298 15.2513 189.298 20.0981C189.298 24.9449 193.21 28.878 198.049 28.9124V37.7274C193.21 37.7617 189.298 41.6948 189.298 46.5416C189.298 51.3884 193.21 55.3216 198.049 55.3559V64.1709C193.21 64.2055 189.298 68.1671 189.298 73.0491C189.298 77.931 193.21 81.8926 198.049 81.9272V90.7422C193.21 90.7765 189.298 94.7097 189.298 99.5565C189.298 104.403 193.21 108.336 198.049 108.371V117.186C193.21 117.22 189.298 121.153 189.298 126C189.298 130.847 193.21 134.78 198.049 134.814V143.629C193.21 143.664 189.298 147.597 189.298 152.444C189.298 157.29 193.21 161.223 198.049 161.258V170.073C193.21 170.107 189.298 174.069 189.298 178.951C189.298 183.833 193.21 187.794 198.049 187.829V196.644C193.21 196.678 189.298 200.612 189.298 205.458C189.298 210.305 193.21 214.238 198.049 214.273V223.088C193.21 223.122 189.298 227.055 189.298 231.902C189.298 236.749 193.21 240.682 198.049 240.716V251H187.829C187.829 246.132 183.883 242.185 179.015 242.185C174.147 242.185 170.2 246.132 170.2 251M170.2 251H161.386M161.386 251C161.386 246.132 157.439 242.185 152.571 242.185C152.561 242.185 152.55 242.186 152.539 242.186M134.942 251H143.757C143.757 246.143 147.686 242.203 152.539 242.186" stroke="black" stroke-width="2" stroke-linejoin="round"/>
</svg>
