<svg width="254" height="121" viewBox="0 0 254 121" fill="none" xmlns="http://www.w3.org/2000/svg">
<path fill-rule="evenodd" clip-rule="evenodd" d="M252 60.3785L251.42 60.9665L250.869 61.5436L250.344 62.1107L249.845 62.6687L249.37 63.2184L248.919 63.7605L248.489 64.2958L248.081 64.825L247.692 65.3486L247.323 65.8673L246.972 66.3817L246.639 66.8924L246.322 67.3997L246.022 67.9044L245.736 68.4067L245.465 68.9072L245.209 69.4063L244.965 69.9044L244.734 70.4019L244.516 70.8991L244.309 71.3965L244.113 71.8943L243.927 72.3928L243.752 72.8925L243.586 73.3935L243.429 73.8961L243.281 74.4007L243.14 74.9074L243.008 75.4165L242.882 75.9281L242.763 76.4426L242.651 76.9601L242.544 77.4808L242.443 78.0048L242.347 78.5323L242.255 79.0635L242.167 79.5984L242.083 80.1371L242.002 80.6798L241.924 81.2266L241.848 81.7774L241.774 82.3323L241.702 82.8914L241.63 83.4547L241.559 84.0221L241.488 84.5937L241.417 85.1693L241.345 85.749L241.272 86.3327L241.197 86.9202L241.12 87.5115L241.041 88.1063L240.958 88.7047L240.872 89.3063L240.781 89.911L240.687 90.5185L240.587 91.1287L240.482 91.7412L240.371 92.3559L240.255 92.9724L240.131 93.5903L240 94.2094L239.862 94.8293L239.716 95.4496L239.561 96.0699L239.398 96.6899L239.226 97.3091L239.044 97.9271L238.853 98.5434L238.651 99.1576L238.439 99.7692L238.216 100.378L237.982 100.983L237.737 101.584L237.481 102.18L237.213 102.771L236.933 103.357L236.641 103.937L236.336 104.51L236.02 105.076L235.691 105.635L235.35 106.185L234.997 106.728L234.631 107.261L234.253 107.785L233.863 108.299L233.46 108.803L233.046 109.297L232.62 109.78L232.182 110.251L231.733 110.711L231.273 111.159L230.801 111.595L230.32 112.019L229.827 112.431L229.325 112.83L228.813 113.216L228.291 113.589L227.761 113.949L227.222 114.296L226.675 114.631L226.12 114.952L225.558 115.26L224.988 115.555L224.412 115.838L223.83 116.108L223.242 116.365L222.649 116.61L222.051 116.843L221.449 117.064L220.842 117.274L220.231 117.471L219.618 117.658L219.001 117.834L218.382 117.999L217.76 118.154L217.137 118.299L216.512 118.435L215.886 118.561L215.258 118.679L214.63 118.787L214.002 118.888L213.373 118.981L212.745 119.066L212.116 119.145L211.488 119.216L210.861 119.282L210.235 119.341L209.609 119.395L208.985 119.443L208.361 119.487L207.739 119.525L207.119 119.56L206.499 119.59L205.881 119.617L205.265 119.641L204.65 119.661L204.037 119.679L203.425 119.694L202.815 119.707L202.207 119.717L201.599 119.726L200.994 119.734L200.389 119.74L199.786 119.744L199.185 119.748L198.584 119.751L197.985 119.753L197.386 119.754L196.788 119.755L196.192 119.756L195.596 119.757L195 119.757L194.405 119.757L62.5673 119.757L61.9729 119.757H61.3787H60.7844L60.19 119.757L59.5954 119.757L59.0004 119.757L58.405 119.757L57.809 119.756L57.2124 119.756L56.6149 119.755L56.0166 119.753L55.4172 119.751L54.8168 119.749L54.2153 119.745L53.6125 119.74L53.0083 119.735L52.4028 119.728L51.7959 119.719L51.1875 119.709L50.5776 119.696L49.9662 119.681L49.3532 119.664L48.7386 119.644L48.1225 119.621L47.505 119.595L46.8859 119.565L46.2654 119.531L45.6435 119.493L45.0204 119.45L44.3961 119.403L43.7707 119.35L43.1443 119.292L42.5172 119.227L41.8894 119.157L41.2611 119.079L40.6326 118.995L40.004 118.903L39.3755 118.804L38.7474 118.696L38.12 118.58L37.4936 118.456L36.8683 118.322L36.2446 118.178L35.6228 118.025L35.0031 117.861L34.386 117.687L33.7718 117.502L33.1608 117.306L32.5535 117.098L31.9502 116.879L31.3514 116.648L30.7574 116.405L30.1687 116.15L29.5857 115.882L29.0087 115.601L28.4383 115.308L27.8748 115.002L27.3186 114.683L26.7702 114.35L26.2299 114.005L25.6982 113.647L25.1753 113.276L24.6618 112.892L24.1579 112.495L23.6639 112.086L23.1803 111.664L22.7073 111.23L22.2452 110.783L21.7942 110.325L21.3546 109.855L20.9267 109.374L20.5105 108.883L20.1062 108.38L19.7141 107.867L19.3341 107.345L18.9664 106.813L18.6111 106.272L18.2681 105.723L17.9374 105.166L17.619 104.601L17.3129 104.029L17.0189 103.45L16.7369 102.865L16.4668 102.275L16.2084 101.679L15.9615 101.079L15.726 100.474L15.5014 99.8663L15.2876 99.2552L15.0843 98.6414L14.8912 98.0254L14.708 97.4076L14.5342 96.7886L14.3696 96.1687L14.2138 95.5484L14.0664 94.928L13.927 94.3081L13.7951 93.6888L13.6704 93.0707L13.5524 92.454L13.4408 91.839L13.335 91.2261L13.2346 90.6155L13.1391 90.0075L13.0482 89.4024L12.9614 88.8003L12.8781 88.2014L12.798 87.606L12.7206 87.0141L12.6454 86.426L12.5719 85.8417L12.4998 85.2614L12.4286 84.6851L12.3577 84.1128L12.2869 83.5448L12.2155 82.9808L12.1432 82.4211L12.0695 81.8655L11.9941 81.314L11.9163 80.7666L11.8359 80.2233L11.7523 79.6839L11.6652 79.1484L11.574 78.6167L11.4784 78.0886L11.378 77.564L11.2722 77.0428L11.1606 76.5248L11.0429 76.0099L10.9185 75.4978L10.7871 74.9883L10.6481 74.4812L10.5011 73.9763L10.3456 73.4734L10.1811 72.9722L10.0072 72.4723L9.82339 71.9736L9.62912 71.4757L9.42388 70.9783L9.20712 70.4811L8.97831 69.9837L8.73686 69.4857L8.48217 68.9868L8.21363 68.4865L7.93059 67.9845L7.63238 67.4803L7.31831 66.9734L6.98763 66.4633L6.63957 65.9495L6.27333 65.4315L5.88805 64.9087L5.48282 64.3805L5.0567 63.8462L4.60868 63.3052L4.13768 62.7568L3.64256 62.2002L3.12212 61.6346L2.57506 61.0591L2 60.4729L2.39499 59.8833L2.95082 59.3046L3.47959 58.7359L3.98264 58.1765L4.4612 57.6256L4.91642 57.0823L5.34941 56.546L5.76118 56.0159L6.15272 55.4914L6.52493 54.9719L6.87869 54.4569L7.21482 53.9457L7.5341 53.4378L7.83728 52.9328L8.12507 52.4301L8.39816 51.9293L8.6572 51.43L8.9028 50.9318L9.13558 50.4343L9.35611 49.937L9.56496 49.4397L9.76267 48.942L9.94976 48.4436L10.1268 47.9441L10.2942 47.4434L10.4525 46.941L10.6021 46.4368L10.7436 45.9304L10.8775 45.4217L11.004 44.9105L11.1238 44.3964L11.2373 43.8794L11.3449 43.3593L11.447 42.8358L11.5441 42.3088L11.6366 41.7783L11.7249 41.244L11.8096 40.7059L11.891 40.1638L11.9696 39.6177L12.0457 39.0676L12.1199 38.5133L12.1926 37.9549L12.2642 37.3923L12.3352 36.8255L12.406 36.2546L12.4771 35.6796L12.5488 35.1005L12.6218 34.5175L12.6964 33.9306L12.7731 33.3399L12.8523 32.7456L12.9345 32.1478L13.0201 31.5467L13.1097 30.9425L13.2037 30.3354L13.3024 29.7256L13.4065 29.1134L13.5162 28.4991L13.6321 27.8829L13.7546 27.2651L13.8841 26.6462L14.0211 26.0264L14.166 25.4062L14.3191 24.7858L14.4808 24.1657L14.6516 23.5464L14.8318 22.9282L15.0217 22.3115L15.2218 21.697L15.4322 21.0849L15.6532 20.4759L15.8853 19.8703L16.1285 19.2687L16.3832 18.6716L16.6496 18.0795L16.9278 17.4928L17.2179 16.912L17.5202 16.3378L17.8346 15.7705L18.1614 15.2106L18.5005 14.6587L18.8519 14.1151L19.2157 13.5803L19.5917 13.0548L19.98 12.539L20.3804 12.0333L20.7928 11.538L21.217 11.0535L21.653 10.5802L22.1003 10.1183L22.5589 9.66822L23.0285 9.23011L23.5088 8.80424L23.9994 8.3908L24.5002 7.98996L25.0107 7.60187L25.5306 7.22664L26.0596 6.86434L26.5972 6.51504L27.1431 6.17874L27.6968 5.85545L28.258 5.54512L28.8263 5.24769L29.4012 4.96307L29.9824 4.69114L30.5693 4.43174L31.1617 4.18473L31.759 3.94989L32.3609 3.72702L32.9669 3.51587L33.5768 3.31621L34.19 3.12775L34.8063 2.95021L35.4251 2.78329L36.0463 2.62667L36.6695 2.48002L37.2943 2.34301L37.9204 2.2153L38.5475 2.09653L39.1754 1.98634L39.8037 1.88438L40.4323 1.79028L41.0609 1.70368L41.6893 1.62422L42.3173 1.55151L42.9447 1.48522L43.5713 1.42498L44.197 1.37043L44.8217 1.32123L45.4452 1.27703L46.0675 1.2375L46.6884 1.20232L47.3079 1.17116L47.926 1.14372L48.5425 1.11969L49.1576 1.09879L49.7711 1.08075L50.383 1.06528L50.9934 1.05214L51.6023 1.04108L52.2097 1.03188L52.8156 1.02432L53.4202 1.01818L54.0234 1.01329L54.6254 1.00945L55.2261 1.00651L55.8258 1.00432L56.4244 1.00273L57.0222 1.00163L57.6191 1.0009L58.2153 1.00045L58.8108 1.00019L59.4059 1.00007L60.0006 1.00001L60.5951 1L61.1894 1L61.7836 1L62.378 1.00001L194.216 1.00003L194.811 1.00012L195.406 1.0003L196.002 1.00065L196.598 1.00124L197.196 1.00215L197.794 1.00349L198.393 1.00538L198.993 1.00795L199.595 1.01133L200.197 1.0157L200.801 1.02122L201.406 1.02808L202.013 1.03647L202.621 1.04661L203.231 1.05872L203.842 1.07305L204.455 1.08983L205.069 1.10934L205.685 1.13183L206.302 1.15761L206.921 1.18695L207.541 1.22017L208.163 1.25758L208.786 1.29951L209.41 1.34627L210.035 1.39822L210.662 1.4557L211.289 1.51906L211.916 1.58866L212.545 1.66485L213.173 1.74799L213.802 1.83846L214.43 1.93662L215.058 2.04283L215.686 2.15746L216.312 2.28085L216.938 2.41338L217.562 2.55538L218.184 2.70719L218.804 2.86915L219.422 3.04158L220.036 3.22479L220.648 3.41906L221.256 3.62468L221.86 3.84192L222.459 4.07101L223.054 4.31219L223.644 4.56564L224.228 4.83157L224.806 5.11011L225.377 5.4014L225.942 5.70556L226.499 6.02265L227.049 6.35273L227.59 6.69582L228.123 7.05192L228.648 7.42098L229.163 7.80294L229.668 8.1977L230.164 8.60514L230.649 9.02509L231.124 9.45738L231.588 9.90179L232.04 10.3581L232.482 10.8259L232.912 11.3051L233.33 11.7953L233.736 12.2961L234.13 12.8071L234.512 13.3281L234.882 13.8584L235.239 14.3979L235.584 14.9459L235.917 15.502L236.237 16.0658L236.545 16.6368L236.841 17.2145L237.125 17.7984L237.397 18.388L237.657 18.9828L237.906 19.5824L238.143 20.1861L238.369 20.7935L238.585 21.4042L238.79 22.0176L238.984 22.6333L239.169 23.2508L239.344 23.8697L239.51 24.4895L239.668 25.1097L239.816 25.7301L239.957 26.3502L240.09 26.9696L240.216 27.5879L240.335 28.2049L240.448 28.8201L240.554 29.4334L240.656 30.0443L240.752 30.6528L240.843 31.2584L240.931 31.861L241.015 32.4604L241.095 33.0564L241.173 33.6488L241.249 34.2375L241.322 34.8224L241.394 35.4034L241.466 35.9804L241.537 36.5532L241.608 37.122L241.679 37.6866L241.751 38.247L241.824 38.8033L241.9 39.3554L241.977 39.9034L242.057 40.4474L242.14 40.9874L242.226 41.5235L242.317 42.0558L242.412 42.5845L242.511 43.1096L242.616 43.6313L242.727 44.1498L242.844 44.6652L242.967 45.1778L243.097 45.6877L243.235 46.1951L243.381 46.7003L243.535 47.2035L243.698 47.705L243.87 48.2051L244.052 48.704L244.245 49.202L244.448 49.6994L244.663 50.1967L244.89 50.694L245.13 51.1919L245.382 51.6906L245.648 52.1906L245.929 52.6923L246.225 53.1962L246.536 53.7026L246.864 54.2122L247.21 54.7253L247.573 55.2426L247.955 55.7646L248.357 56.2919L248.78 56.8252L249.224 57.3651L249.691 57.9123L250.183 58.4675L250.699 59.0317L251.242 59.6055L251.812 60.1899L252 60.3785Z" fill="#F9F9F9" stroke="black" stroke-width="2"/>
</svg>
