<svg width="252" height="127" viewBox="0 0 252 127" fill="none" xmlns="http://www.w3.org/2000/svg">
<path d="M251 125.925C251 109.52 247.767 93.2752 241.485 78.1186C235.203 62.9619 225.996 49.1902 214.388 37.5898C202.781 25.9894 189.001 16.7875 173.835 10.5094C158.67 4.23129 142.415 0.999999 126 1C109.585 1 93.3303 4.2313 78.1646 10.5094C62.9989 16.7875 49.219 25.9894 37.6116 37.5898C26.0043 49.1902 16.7969 62.9619 10.5151 78.1186C4.23322 93.2752 0.999998 109.52 1 125.925L92.2989 125.925C92.2989 121.502 93.1706 117.123 94.8643 113.036C96.5579 108.95 99.0403 105.237 102.17 102.109C105.299 98.9818 109.014 96.5009 113.103 94.8083C117.192 93.1156 121.574 92.2445 126 92.2445C130.426 92.2445 134.808 93.1156 138.897 94.8083C142.986 96.5009 146.701 98.9818 149.83 102.109C152.96 105.237 155.442 108.95 157.136 113.036C158.829 117.123 159.701 121.502 159.701 125.925L251 125.925Z" fill="#F9F9F9" stroke="black" stroke-width="2"/>
</svg>
