<svg width="252" height="240" viewBox="0 0 252 240" fill="none" xmlns="http://www.w3.org/2000/svg">
<path d="M126 1C126 1 127.166 68.296 156.902 89.9002C186.637 111.504 251 91.8178 251 91.8178C251 91.8178 187.358 113.722 176 148.679C164.642 183.635 203.254 238.764 203.254 238.764C203.254 238.764 162.755 185.006 126 185.006C89.2447 185.006 48.7458 238.764 48.7458 238.764C48.7458 238.764 87.358 183.635 76 148.679C64.642 113.722 1 91.8178 1 91.8178C1 91.8178 65.3626 111.504 95.0983 89.9002C124.834 68.296 126 1 126 1Z" fill="#F9F9F9" stroke="black" stroke-width="2" stroke-linejoin="round"/>
</svg>
