<svg width="220" height="253" viewBox="0 0 220 253" fill="none" xmlns="http://www.w3.org/2000/svg">
<path d="M110 1.5C110 1.5 106.096 66.6459 135.057 83.3621C164.018 100.078 218.5 64.125 218.5 64.125C218.5 64.125 160.114 93.3176 160.114 126.75C160.114 160.182 218.5 189.375 218.5 189.375C218.5 189.375 164.018 153.422 135.057 170.138C106.096 186.854 110 252 110 252C110 252 113.904 186.854 84.943 170.138C55.9816 153.422 1.5 189.375 1.5 189.375C1.5 189.375 59.886 160.182 59.886 126.75C59.886 93.3176 1.5 64.125 1.5 64.125C1.5 64.125 55.9816 100.078 84.943 83.3621C113.904 66.6459 110 1.5 110 1.5Z" fill="#F9F9F9" stroke="black" stroke-width="2" stroke-linejoin="round"/>
</svg>
