<svg width="232" height="252" viewBox="0 0 232 252" fill="none" xmlns="http://www.w3.org/2000/svg">
<path d="M129.689 250.632L103.648 250.789L85.0567 221.564L84.809 180.53L49.3981 201.261L14.7751 200.194L1.61887 177.721L17.6337 147.007L53.0451 126.276L17.3853 105.974L1 75.4559L13.8847 52.825L48.4908 51.3389L84.151 71.6412L83.9032 30.6068L102.139 1.15787L128.18 1L146.769 30.2258L147.017 71.26L182.43 50.5285L217.051 51.5957L230.209 74.0687L214.192 104.783L178.78 125.515L214.44 145.817L230.828 176.334L217.943 198.964L183.337 200.451L147.677 180.15L147.925 221.183L129.689 250.632Z" fill="#F9F9F9" stroke="black" stroke-width="2" stroke-linejoin="round"/>
</svg>
