<svg width="252" height="240" viewBox="0 0 252 240" fill="none" xmlns="http://www.w3.org/2000/svg">
<path d="M81.6953 199.74L128.192 238.523L173.98 198.908L173.274 120.707L240.638 81.0012L250.976 21.3443L193.774 1.5L126.407 41.2105L58.3345 2.72274L1.5 23.5967L12.9184 83.0605L80.9892 121.546L81.6953 199.74Z" fill="#F9F9F9"/>
<path d="M80.9874 121.338L80.9892 121.546M173.272 120.506L173.274 120.707M126.587 41.3126L126.407 41.2105M81.1666 121.646L80.9892 121.546M173.093 120.814L173.274 120.707M126.233 41.3126L126.407 41.2105M173.274 120.707L240.638 81.0012L250.976 21.3443L193.774 1.5L126.407 41.2105M173.274 120.707L173.98 198.908L128.192 238.523L81.6953 199.74L80.9892 121.546M126.407 41.2105L58.3345 2.72274L1.5 23.5967L12.9184 83.0605L80.9892 121.546" stroke="black" stroke-width="2" stroke-linejoin="round"/>
</svg>
