<svg width="252" height="243" viewBox="0 0 252 243" fill="none" xmlns="http://www.w3.org/2000/svg">
<path d="M1.60892 91.2521C7.58688 73.5901 57.4035 73.5161 83.6144 74.7391C91.0487 49.907 107.916 1.74092 126.838 1.9831C145.505 2.22201 160.959 49.4999 167.894 74.789C193.825 74.1918 244.869 75.3577 250.482 93.4035C256.019 111.205 215.805 140.506 193.876 154.918C202.461 179.385 217.131 228.266 201.688 239.174C186.451 249.937 146.127 220.765 125.642 204.386C105.016 220.107 63.0461 249.151 47.8928 237.846C32.942 226.692 57.5103 154.822 57.5103 154.822C36.1766 140.075 -4.44855 109.149 1.60892 91.2521Z" fill="#F9F9F9" stroke="black" stroke-width="2" stroke-linejoin="round"/>
</svg>
