<svg width="222" height="252" viewBox="0 0 222 252" fill="none" xmlns="http://www.w3.org/2000/svg">
<path d="M218.909 62.9981C226.778 76.6354 202.621 106.509 185.316 125.217C202.655 143.881 227.422 174.251 219.468 188.034C211.601 201.669 173.675 195.672 148.828 190.027C141.348 214.382 127.457 251 111.556 251C95.8229 251 82.0581 215.152 74.5234 190.803C49.708 196.5 11.045 202.782 3.09114 188.987C-4.77802 175.34 19.3809 145.468 36.6858 126.763C19.3462 108.108 -5.42202 77.7496 2.53152 63.9656C10.4006 50.3278 48.3311 56.3306 73.1712 61.9761C80.6512 37.6211 94.5422 1 110.444 1C126.177 1 139.942 36.8477 147.476 61.1964C172.292 55.498 210.955 49.2135 218.909 62.9981Z" fill="#F9F9F9" stroke="black" stroke-width="2" stroke-linejoin="round"/>
</svg>
