<svg width="252" height="247" viewBox="0 0 252 247" fill="none" xmlns="http://www.w3.org/2000/svg">
<path d="M70.007 244.589C56.652 237.989 62.0212 198.222 65.7255 177.95C45.4283 176.681 4.39384 172.294 1.20155 157.503C-1.94529 142.922 32.5287 122.318 50.6982 112.575C39.0382 95.9367 16.8718 61.1374 26.4417 49.4028C35.871 37.8406 73.4716 51.926 92.428 60.0522C98.1903 40.5548 111.6 1.60425 126.731 1.76569C141.655 1.92493 154.079 40.0914 159.538 59.9598C178.376 52.307 217.257 38.4733 226.571 50.3993C235.752 62.1553 213.627 95.6577 201.48 112.31C219.217 122.258 254.282 144.008 250.752 158.702C247.273 173.187 207.267 176.802 186.664 177.702C189.941 197.753 194.79 238.697 181.079 245.112C167.562 251.436 139.791 222.436 126.244 206.904C112.587 221.967 83.5563 251.286 70.007 244.589Z" fill="#F9F9F9" stroke="black" stroke-width="2" stroke-linejoin="round"/>
</svg>
