<svg width="252" height="252" viewBox="0 0 252 252" fill="none" xmlns="http://www.w3.org/2000/svg">
<path d="M251 125.699C250.947 138.969 218.353 150.317 199.574 155.755C208.846 172.802 224.155 204.704 214.616 214.156C205.202 223.485 174.115 208.458 156.985 199.026C151.493 217.632 139.755 251.053 126.301 251C113.033 250.947 101.697 218.34 96.2654 199.549C79.2179 208.82 47.2801 224.146 37.844 214.599C28.5375 205.184 43.5467 174.114 52.9725 156.984C34.3673 151.492 0.950822 139.754 1.00005 126.301C1.04863 113.029 33.6688 101.67 52.454 96.2286C43.1805 79.1721 27.8817 47.2733 37.4176 37.844C46.8264 28.5404 77.8853 43.5377 95.0208 52.9639C100.51 34.356 112.241 0.946736 125.704 1.00006C138.982 1.05266 150.32 33.6373 155.754 52.4237C172.799 43.1514 204.705 27.8403 214.162 37.3835C223.494 46.8005 208.472 77.8864 199.04 95.0191C217.649 100.513 251.053 112.249 251 125.699Z" fill="#F9F9F9" stroke="black" stroke-width="2" stroke-linejoin="round"/>
</svg>
