<svg width="252" height="252" viewBox="0 0 252 252" fill="none" xmlns="http://www.w3.org/2000/svg">
<path d="M251 126C251 159.152 237.83 190.946 214.388 214.388C190.946 237.83 159.152 251 126 251C92.8479 251 61.0537 237.83 37.6117 214.388C14.1696 190.946 1 159.152 1 126C1 112.189 3.23481 98.8829 16.0079 119.23C11.5102 74.0755 17.5414 62.518 69.1852 79.7794C32.7175 41.8343 41.8345 32.6987 82.5941 21.5433C62.5182 17.5318 74.0756 11.51 86.4933 7.36762C105.286 1.13115 125.29 -0.555721 144.861 2.44571C164.432 5.44713 183.012 13.0511 199.071 24.6325C215.131 36.2138 228.213 51.4417 237.24 69.064C246.268 86.6864 250.984 106.2 251 126Z" fill="#F9F9F9" stroke="black" stroke-width="2" stroke-linejoin="round"/>
</svg>
