<svg width="253" height="246" viewBox="0 0 253 246" fill="none" xmlns="http://www.w3.org/2000/svg">
<path d="M252 136.457C184.585 142.068 180.888 154.867 218.479 208.434C167.988 176.852 158.787 186.038 161.328 243.019C136.764 198.915 123.942 202.606 100.535 245C96.5759 202.606 83.7601 198.932 49.7886 221.439C61.737 186.038 52.5296 176.853 16.1839 181.798C39.6082 154.873 35.9108 142.074 1.5 130.907C35.9108 114.81 39.6082 101.984 9.65095 77.4453C52.5074 79.9985 61.7147 70.8126 40.5534 31.4327C83.7379 57.9357 96.5537 54.2447 95.5973 1C123.903 54.2447 136.741 57.9357 167.772 3.72523C158.748 70.8126 167.95 79.9985 231.456 52.4908C180.865 101.956 184.563 114.755 252 136.457Z" fill="#F9F9F9" stroke="black" stroke-width="2" stroke-linejoin="round"/>
</svg>
