<svg width="253" height="244" viewBox="0 0 253 244" fill="none" xmlns="http://www.w3.org/2000/svg">
<path d="M231.324 190.461C205.876 207.178 174.862 212.75 145.438 207.178C146.233 221.507 158.957 232.651 170.886 239.02C140.717 237.275 112.317 224.198 91.3619 202.401C84.2048 215.138 87.3857 231.059 93.7476 243C70.6857 223.895 53.9857 196.829 51.6 166.579C37.2857 171.355 31.719 187.276 28.5381 200.809C22.1762 171.355 24.5619 139.513 39.6714 113.243C25.3571 112.447 11.0429 117.224 1.5 128.368C11.8381 99.7105 34.1048 77.4211 61.1429 63.8882C50.8048 53.5395 35.6952 50.3553 21.381 53.5395C46.8286 36.8224 77.8429 31.25 107.267 36.8224C106.471 22.4934 93.7476 11.3487 81.819 4.98026C111.988 6.7248 140.388 19.8022 161.343 41.5987C168.5 28.8618 165.319 12.9408 158.957 1C170.147 10.6186 179.801 21.8936 187.586 34.4342C195.538 47.9671 198.719 62.2961 201.9 77.4211C215.419 71.0526 220.986 56.7237 224.167 43.1908C230.529 72.6447 228.143 104.487 213.033 130.757C227.348 132.349 241.662 125.98 252 115.632C240.074 143.583 218.669 166.419 191.562 180.112C201.9 190.461 217.01 192.849 231.324 190.461Z" fill="#F9F9F9" stroke="black" stroke-width="2" stroke-linejoin="round"/>
</svg>
