<svg width="252" height="253" viewBox="0 0 252 253" fill="none" xmlns="http://www.w3.org/2000/svg">
<path d="M251 116.676C213.438 125.318 192.268 132.003 186.961 143.22C181.942 154.195 192.804 169.708 225.138 190.307C184.762 178.449 165.409 171.998 152.576 180.146C140.009 188.066 133.943 210.592 126 251.5C118.057 213.629 111.991 192.776 99.4052 187.85C86.5727 183.165 67.2192 194.4 26.8436 226.123C59.1773 187.091 70.0394 167.936 65.0209 156.047C59.7438 144.411 38.5616 140.047 1 136.522C42.1823 125.281 64.4236 117.879 71.9914 105.225C79.8177 92.4405 73.0443 74.4154 61.9914 38.9886C81.08 65.8534 96.3695 74.687 106.394 68.372C116.671 61.8595 121.69 40.1923 126 1.5C130.31 41.5751 135.329 63.2855 145.606 69.6313C155.631 76.1685 170.932 67.335 190.009 50.7481C178.98 74.8784 172.151 91.4899 179.996 101.589C187.576 111.805 209.805 115.49 251 116.676Z" fill="#F9F9F9" stroke="black" stroke-width="2" stroke-linejoin="round"/>
</svg>
