<svg width="253" height="253" viewBox="0 0 253 253" fill="none" xmlns="http://www.w3.org/2000/svg">
<path d="M251.5 126.254C213.287 136.98 195.92 144.183 220.953 165.476C188.052 163.181 195.083 180.511 214.817 214.818C180.509 195.084 163.178 188.054 165.474 220.961C144.18 195.936 136.976 213.288 126.25 251.5C115.524 213.288 108.32 195.922 87.0264 220.961C89.3218 188.054 71.9909 195.084 37.6828 214.818C57.4174 180.511 64.4479 163.181 31.5474 165.476C56.5656 144.183 39.2131 136.98 1 126.254C39.2131 115.528 56.5801 108.331 31.5474 87.0311C64.4479 89.3264 57.4174 72.0033 37.6828 37.6962C71.9909 57.423 89.3218 64.4533 87.0264 31.5537C108.32 56.5784 115.524 39.2553 126.25 1C136.976 39.212 144.18 56.5784 165.474 31.5465C163.178 64.4461 180.509 57.4157 214.817 37.689C195.083 71.9961 188.052 89.3192 220.953 87.0239C195.934 108.331 213.287 115.528 251.5 126.254Z" fill="#F9F9F9" stroke="black" stroke-width="2" stroke-linejoin="round"/>
</svg>
