<svg width="252" height="252" viewBox="0 0 252 252" fill="none" xmlns="http://www.w3.org/2000/svg">
<path d="M251 125.989C183.51 125.989 161.382 140.658 203.016 157.883C161.416 140.658 166.649 166.634 214.39 214.371C166.649 166.634 140.649 161.39 157.897 202.998C140.649 161.39 126 183.516 126 251C126 183.516 111.34 161.39 94.1138 203.02C111.34 161.423 85.3512 166.656 37.6105 214.393C85.3512 166.656 90.5844 140.681 48.9842 157.905C90.5844 140.681 68.523 126.011 1 126.011C68.4898 126.011 90.6176 111.342 48.9842 94.1166C90.5844 111.342 85.3512 85.3659 37.6105 37.6293C85.3291 85.3438 111.34 90.5876 94.1138 48.9799C111.34 90.5765 126 68.517 126 1C126 68.4838 140.671 90.6097 157.897 48.9799C140.649 90.5876 166.649 85.3437 214.39 37.6072C166.649 85.3437 161.416 111.319 203.016 94.0945C161.416 111.319 183.477 125.989 251 125.989Z" fill="#F9F9F9" stroke="black" stroke-width="2" stroke-linejoin="round"/>
</svg>
