<svg width="223" height="252" viewBox="0 0 223 252" fill="none" xmlns="http://www.w3.org/2000/svg">
<path d="M70.1921 48.3684C76.6079 59.8636 114.122 51.2334 107.952 1C114.122 51.2334 152.703 58.0022 165.468 8.63086C152.703 58.0022 177.889 88.0294 197.601 43.4545C177.889 88.0294 191.445 124.886 221.5 105.355C191.445 124.886 193.182 161.198 211.313 169.838C193.157 161.213 152.961 192.323 186.722 250.5C152.971 192.342 114.094 199.602 114.584 239.802C114.094 199.602 75.9129 191.125 53.2229 221.807C75.9129 191.125 49.733 162.132 1 156.382C49.733 162.132 38.6984 124.942 2.91627 132.055C38.6984 124.942 49.5315 87.6168 4.41333 48.7138C49.5455 87.5842 76.6079 59.8636 70.1921 48.3684Z" fill="#F9F9F9" stroke="black" stroke-width="2" stroke-linejoin="round"/>
</svg>
