<svg width="242" height="252" viewBox="0 0 242 252" fill="none" xmlns="http://www.w3.org/2000/svg">
<path d="M133.418 251C121.797 181.775 115.405 158.927 93.0931 207.348C97.6087 179.863 96.8616 169.542 86.8898 170.149C77.178 171.15 58.2469 183.079 32.3765 209.144C53.3274 175.327 69.1264 158.485 72.3636 147.257C75.7724 136.289 66.6195 130.929 41.6733 126C65.142 121.071 73.1328 115.711 66.78 104.743C60.2446 93.515 39.3768 76.673 1 42.8564C41.95 68.9206 65.1033 80.8504 76.3867 81.8505C87.4044 82.4583 86.5578 72.1365 73.3984 44.6522C112.423 93.0896 112.135 70.2412 116.246 1C132.178 77.1427 132.997 91.0672 167.29 62.964C157.268 81.2869 157.606 90.6693 168.679 92.0949C179.985 93.9681 202.037 87.8071 241 84.1326C205.473 93.0785 186.249 103.527 180.853 110.882C175.624 118.491 184.218 123.005 208.124 126.017C183.648 129.028 175.104 133.542 179.63 141.151C183.991 148.506 201.422 158.955 225.168 167.901C197.333 164.226 177.328 158.087 167.65 159.905C157.739 161.331 158.159 170.713 165.746 189.036C138.802 160.933 133.556 174.857 133.418 251Z" fill="#F9F9F9" stroke="black" stroke-width="2" stroke-linejoin="round"/>
</svg>
