<svg width="253" height="251" viewBox="0 0 253 251" fill="none" xmlns="http://www.w3.org/2000/svg">
<path d="M110.536 68.5244C118.057 97.3497 129.9 74.83 139.532 13.3885C129.918 74.8251 158.548 70.5921 209.665 3.00426C158.538 70.59 155.511 98.9384 202.181 72.4278C155.488 98.9444 175.511 122.831 251.201 130.913C175.511 122.831 147.252 134.489 182.019 159.447C147.248 134.475 137.889 171.363 159.091 249.733C137.894 171.381 106.833 160.869 83.0594 224.048C106.835 160.874 94.6752 134.489 53.2915 159.448C94.674 134.485 73.4676 120.922 1.36719 126.236C73.4676 120.922 103.15 103.44 74.0466 83.4354C103.15 103.44 82.8036 70.0539 24.225 1.69922C82.8036 70.0539 118.057 97.3497 110.536 68.5244Z" fill="#F9F9F9" stroke="black" stroke-width="2" stroke-linejoin="round"/>
</svg>
