<svg width="208" height="252" viewBox="0 0 208 252" fill="none" xmlns="http://www.w3.org/2000/svg">
<path d="M205.589 101.598C187.747 99.7532 173.654 103.275 167.397 106.234C161.162 109.435 162.727 112.079 177.229 114.066C162.34 115.443 159.429 119.259 164.968 122.208C170.633 125.561 184.773 128.053 206.5 136.189C182.15 131.127 165.811 132.51 156.864 134.844C148.053 137.472 146.639 141.004 155.293 147.458C128.593 144.83 134.729 160.72 147.964 186.007C119.96 174.444 111.767 158.381 104.013 191.642C96.2596 168.877 88.0663 191.358 60.0363 251C73.2607 196.809 79.407 171.569 52.7068 205.571C61.3661 186.491 59.9473 181.949 51.1362 187.227C42.189 192.104 25.8495 206.811 1.5 217.035C23.2266 200.031 37.3673 182.086 43.0319 172.315C48.5866 162.044 45.6496 159.942 30.7708 163.069C45.2726 152.073 46.8328 146.349 40.6027 142.796C34.3203 138.97 20.253 137.319 2.41094 128C22.5617 129.051 37.4039 124.399 44.6968 119.748C52.0262 114.686 51.8168 109.598 42.9063 100.232C67.5699 103.007 54.2355 84.6627 42.1314 45.7985C62.4184 71.4382 77.7317 84.8467 72.3184 51.0126C78.6322 63.9691 82.166 63.4698 83.5743 54.2715C85.0926 44.9049 84.4853 26.8394 85.1449 1C91.1132 51.9377 100.108 68.4264 103.992 42.1927C107.866 71.9533 116.855 49.9719 122.839 28.8525C123.509 42.8025 122.902 55.1335 124.41 61.3726C125.818 67.7904 129.347 68.1162 135.666 62.2188C130.232 80.442 145.566 72.9782 165.853 63.1071C153.749 78.555 140.414 90.392 165.078 86.597C156.178 91.4117 155.953 94.7704 163.288 95.7953C170.596 97.1935 185.438 96.2789 205.589 101.598Z" fill="#F9F9F9" stroke="black" stroke-width="2" stroke-linejoin="round"/>
</svg>
