<svg width="256" height="256" viewBox="0 0 256 256" fill="none" xmlns="http://www.w3.org/2000/svg">
<path d="M255 128C203.82 121.283 197.522 128.285 233.685 165.127C193.105 137.804 198.102 147.979 237.665 192.099C193.466 155.893 181.032 160.425 191.367 213.075C170.878 167.284 171.79 183.178 192.108 237.662C164.124 187.671 150.018 183.662 136.492 232.028C136.435 185.22 129.947 203.176 128.019 255C121.731 203.176 115.205 189.448 87.3638 225.141C102.496 184.736 88.7031 198.91 63.9301 237.662C83.0988 195.633 88.9311 179.197 53.6428 202.463C79.8027 169.83 60.539 175.787 18.3734 192.099C57.3948 170.409 72.4601 158.657 32.3463 168.937C67.8721 145.614 48.5609 139.913 1 128C48.4944 132.247 68.442 128.152 25.8111 122.86C70.0378 113.759 59.1426 98.7296 18.3354 63.9015C63.6546 91.0343 83.1178 94.616 42.871 70.9412C90.8594 82.8356 92.6072 67.0651 63.8921 18.3381C101.441 61.8874 116.136 70.3712 88.5892 28.0949C127.687 64.481 137.442 56.3582 128 1C148.347 56.3582 155.594 65.792 154.72 15.944C165.986 67.1791 174.022 66.5331 192.089 18.3381C181.897 71.1407 183.236 78.0379 212.388 43.0388C189.496 84.0041 194.464 85.7902 237.646 63.9395C198.7 93.1149 196.848 98.9291 242.518 98.8626C198.501 107.612 203.82 111.992 255 128Z" fill="#F9F9F9" stroke="black" stroke-width="2" stroke-linejoin="round"/>
</svg>
