<svg width="251" height="239" viewBox="0 0 251 239" fill="none" xmlns="http://www.w3.org/2000/svg">
<path d="M250 148.545C180.87 145.34 176.304 158.068 219.352 228.44C164.051 170.208 160.673 171.805 197.518 238C146.643 170.722 135.99 168.777 130.663 217.517C119.084 156.27 111.87 149.786 81.5342 174.092C98.4702 135.842 92.2487 128.429 35.8257 127.279C78.6471 116.741 71.7636 108.93 1.5 80.3924C66.5963 92.2945 68.1594 82.7044 18.8345 27.3041C82.944 72.1968 91.0841 69.4201 61.5639 5.64676C106.745 62.3681 118.293 61.8238 134.255 1.5C139.293 68.6861 148.126 76.4292 193.173 44.9248C159.846 89.8297 164.541 91.8297 220.517 67.5546C176.819 104.111 180.87 117.346 250 148.545Z" fill="#F9F9F9" stroke="black" stroke-width="2" stroke-linejoin="round"/>
</svg>
