<svg width="252" height="208" viewBox="0 0 252 208" fill="none" xmlns="http://www.w3.org/2000/svg">
<path d="M234.054 113.147C267.439 103.566 242.902 164.839 191.097 125.198C242.902 164.839 190.501 207.555 163.158 156.119C190.501 207.582 123.052 217.968 108.482 194.551C123.052 217.968 56.3649 205.761 77.7016 168.463C56.3741 205.724 -0.648927 167.95 29.866 142.072C-0.648927 167.95 -19.2165 103.53 38.5492 121.108C-19.2165 103.53 2.3769 41.5796 62.5908 47.2897C2.3769 41.5796 55.5855 -0.550049 65.9375 18.0075C55.5855 -0.586651 123.061 -14.2761 123.309 34.68C123.061 -14.2761 189.327 2.2226 158.216 50.5564C189.391 2.2226 246.167 39.5756 216.174 59.4509C246.157 39.6488 267.439 103.566 234.054 113.147Z" fill="#F9F9F9" stroke="black" stroke-width="2" stroke-linejoin="round"/>
</svg>
