<svg width="253" height="178" viewBox="0 0 253 178" fill="none" xmlns="http://www.w3.org/2000/svg">
<path d="M241.359 97.1144C262.935 88.0803 247.457 129.734 203.578 103.015C247.451 129.734 216.164 162.985 187.108 129.722C216.187 162.985 172.668 178.014 145.094 168.077C172.668 178.014 127.307 184.163 124.828 156.866C127.307 184.192 81.1434 181.271 80.9309 153.243C81.1434 181.271 40.6115 159.385 72.1232 155.686C40.6115 159.385 6.33105 130.348 57.1112 105.718C6.34285 130.348 -10.635 88.1098 13.8341 73.6292C-10.635 88.1098 3.45614 43.842 37.1816 63.7808C3.45614 43.842 39.8676 15.595 55.2634 47.7543C39.8676 15.595 81.3205 -4.3379 105.902 19.8848C81.3205 -4.3379 127.307 -6.40907 139.279 24.4402C127.307 -6.40907 172.444 -0.933142 177.296 16.6925C172.444 -0.939042 214.652 15.7602 191.033 39.4578C214.646 15.7602 247.48 46.4443 232.161 45.7716C247.48 46.4325 262.935 88.0803 241.359 97.1144Z" fill="#F9F9F9" stroke="black" stroke-width="2" stroke-linejoin="round"/>
</svg>
