<svg width="252" height="256" viewBox="0 0 252 256" fill="none" xmlns="http://www.w3.org/2000/svg">
<path d="M227.23 207.54C256.066 260.319 190.467 260.319 160.544 218.557C190.467 260.319 124.877 260.319 127.068 245.505C124.854 260.319 59.2557 260.319 97.7914 215.795C59.2785 260.319 -6.3273 260.319 14.5117 244.311C-6.30448 260.288 -6.30448 194.727 37.6559 191.052C-6.30448 194.704 -6.30448 129.106 42.8371 114.208C-6.30448 129.144 -6.30448 63.5447 39.2156 62.3578C-6.30448 63.5447 -6.30447 -2.05423 44.2599 44.5163C-6.3273 -2.06944 59.2709 -2.06944 65.8292 10.5528C59.2709 -2.06944 124.869 -2.06944 120.608 14.2124C124.9 -2.06944 190.498 -2.06944 158.482 52.6724C190.498 -2.10748 256.096 -2.10748 219.691 30.6996C256.096 -2.06944 256.096 63.5219 209.107 77.1103C256.096 63.5599 256.096 129.159 229.87 151.208C256.096 129.144 256.096 194.758 239.799 159.181C256.066 194.72 256.066 260.319 227.23 207.54Z" fill="#F9F9F9" stroke="black" stroke-width="2" stroke-linejoin="round"/>
</svg>
