<svg width="252" height="252" viewBox="0 0 252 252" fill="none" xmlns="http://www.w3.org/2000/svg">
<path d="M214.769 125.912C271.462 126.16 254.784 199.475 204.547 170.841C254.784 199.475 201.593 254.101 171.951 204.323C201.593 254.101 127.639 272.878 126.631 215.805C127.639 272.851 53.5256 254.348 81.2042 204.465C53.5256 254.348 0.281666 199.572 48.5646 170.903C0.281666 199.581 -21.428 126.142 35.3001 125.859C-21.3926 126.107 -1.13322 51.829 47.6803 80.33C-1.15975 51.829 54.4718 -0.483325 81.7879 48.2697C54.4718 -0.483325 127.648 -21.9011 126.64 35.1364C127.648 -21.9011 199.922 1.08879 170.926 49.2677C199.922 1.12412 256.42 51.9173 205.555 80.383C256.411 51.9173 271.462 126.16 214.769 125.912Z" fill="#F9F9F9" stroke="black" stroke-width="2" stroke-linejoin="round"/>
</svg>
