<svg width="240" height="252" viewBox="0 0 240 252" fill="none" xmlns="http://www.w3.org/2000/svg">
<path d="M90.1895 109.748C32.834 -51.5825 236.696 -14.1367 173.091 101.735C288.382 141.929 236.429 243.374 131.867 176.099C83.2774 291.637 -15.4217 264.264 64.57 151.367C-38.7764 160.811 -4.34001 110.107 90.1895 109.748C78.1523 73.5451 141.131 71.8284 134.535 116.472C176.653 141.396 147.615 183.784 129.186 145.406" fill="#F9F9F9"/>
<path d="M90.1895 109.748C32.834 -51.5825 236.696 -14.1367 173.091 101.735C288.382 141.929 236.429 243.374 131.867 176.099C83.2774 291.637 -15.4217 264.264 64.57 151.367C-38.7764 160.811 -4.34001 110.107 90.1895 109.748ZM90.1895 109.748C78.1523 73.5451 141.131 71.8284 134.535 116.472C176.653 141.396 147.615 183.784 129.186 145.406" stroke="black" stroke-width="2" stroke-linejoin="round"/>
</svg>
