<svg width="252" height="232" viewBox="0 0 252 232" fill="none" xmlns="http://www.w3.org/2000/svg">
<path d="M198.225 103.17C268 98.9115 259.422 176.019 225.067 157.575C261.023 179.655 194.468 216.075 156.563 184.355C187.961 213.168 145.161 231.268 143.359 211.645C129.123 239.018 83.9259 237.824 78.1263 199.898C80.3087 243.884 8.53807 222.071 70.0523 185.402C8.57699 221.937 2.20934 173.159 39.0662 152.762C-22.1812 173.211 2.69596 117.958 29.2849 115.924C1.44884 117.958 16.5202 59.9147 66.2991 77.2316C39.3716 60.0729 64.0462 8.06423 98.597 41.0847C64.2168 6.61823 140.797 -19.842 130.53 23.7924C141.42 -20.236 200.287 22.3202 184.881 52.1713C211.992 22.2876 267.273 98.835 198.225 103.17Z" fill="#F9F9F9" stroke="black" stroke-width="2" stroke-linejoin="round"/>
</svg>
