<svg width="253" height="242" viewBox="0 0 253 242" fill="none" xmlns="http://www.w3.org/2000/svg">
<path d="M231.461 133.572C265.426 162.712 256.458 184.648 210.536 179.783C237.526 204.591 236.529 207.582 205.485 184.838C231.547 210.574 230.551 212.568 201.878 188.448C183.719 252.453 119.947 259.433 85.7077 201.445C42.2256 218.551 21.2834 199.605 41.693 158.844C-13.5745 133.795 -11.5644 87.9272 45.988 69.3084C27.2448 30.0938 44.1841 15.1541 84.2303 36.8158C76.0698 1.17713 87.0306 -2.81138 107.32 28.8732C105.963 -7.79702 113.934 -7.79702 124.637 26.707C139.841 -9.79128 156.781 -6.81708 162.158 31.7614C175.713 -0.81713 177.706 0.180003 166.453 33.9276C236.529 20.1053 278.379 78.9272 231.461 133.572Z" fill="#F9F9F9" stroke="black" stroke-width="2" stroke-linejoin="round"/>
</svg>
