<svg width="246" height="251" viewBox="0 0 246 251" fill="none" xmlns="http://www.w3.org/2000/svg">
<path d="M202.7 83.5809C261.394 150.956 254.458 175.006 205.632 162.574C230.258 216.318 212.996 233.578 195.847 207.244C171.679 257.775 147.626 264.711 165.922 217.11C96.2861 264.711 72.2433 257.785 129.352 214.68C30.9271 233.579 13.6538 216.318 88.7969 198.243C-10.5455 175.006 -17.4819 150.956 54.5945 169.771C-17.4819 99.6215 -10.5455 75.571 41.7021 119.709C13.6538 34.2909 30.9271 17.03 52.5709 69.6992C72.2433 -7.1665 96.2861 -14.1021 115.823 31.9025C147.626 -14.1021 171.679 -7.1665 149.869 47.7554C212.996 17.03 230.258 34.2909 188.848 50.2481C254.458 75.571 261.394 99.6215 202.7 83.5809Z" fill="#F9F9F9" stroke="black" stroke-width="2" stroke-linejoin="round"/>
</svg>
