<svg width="253" height="250" viewBox="0 0 253 250" fill="none" xmlns="http://www.w3.org/2000/svg">
<path d="M231.372 140.862C261.115 160.127 251.015 172.215 208.734 167.93C235.9 187.404 232.87 191.445 201.421 175.978C221.69 210.64 216.675 225.794 188.952 209.63C207.585 242.969 201.525 243.979 177.25 211.825C181.325 244.99 165.165 248.02 143.607 213.288C133.855 253.072 118.705 260.144 110.694 229.383C87.3947 256.103 71.2346 241.959 75.5881 198.656C48.0045 224.784 40.9345 220.743 58.7663 192.072C24.8092 215.692 17.7044 212.661 41.9445 186.951C8.61433 205.589 7.60432 199.527 39.7155 175.281C6.55949 179.357 4.53948 163.193 37.5213 141.628C3.5643 145.008 2.51948 141.977 36.0586 135.044C-4.55055 126.823 -9.60057 113.689 22.1275 108.708C-4.58538 85.4017 9.55468 69.2374 52.8456 73.592C30.7648 38.9293 36.8248 23.7752 64.5477 39.9396C45.9845 6.56582 52.0445 5.55554 76.2846 37.6752C72.2098 4.51043 88.3698 1.47963 109.928 36.212C119.68 -3.57172 134.83 -10.6436 142.84 20.1174C166.14 -6.60254 182.3 7.54124 177.947 50.8435C205.53 24.7158 212.6 28.7569 194.769 57.4277C228.726 33.8083 236.84 37.8493 212.322 62.5487C246.941 60.0753 247.951 80.2807 215.979 107.906C249.936 104.527 250.981 107.558 217.441 114.491C258.051 122.712 263.101 135.846 231.372 140.827V140.862Z" fill="#F9F9F9" stroke="black" stroke-width="2" stroke-linejoin="round"/>
</svg>
