<svg width="244" height="252" viewBox="0 0 244 252" fill="none" xmlns="http://www.w3.org/2000/svg">
<path fill-rule="evenodd" clip-rule="evenodd" d="M159.194 125.999L159.209 126.369L159.253 126.74L159.327 127.113L159.431 127.489L159.565 127.869L159.729 128.254L159.924 128.644L160.149 129.042L160.406 129.447L160.695 129.861L161.015 130.286L161.368 130.722L161.754 131.17L162.174 131.632L162.629 132.109L163.119 132.602L163.644 133.113L164.206 133.643L164.806 134.193L165.444 134.765L166.122 135.361L166.84 135.981L167.598 136.629L168.399 137.305L169.243 138.011L170.131 138.75L171.064 139.523L172.043 140.332L173.069 141.179L174.143 142.067L175.266 142.997L176.438 143.973L177.661 144.996L178.934 146.068L180.26 147.192L181.637 148.371L183.066 149.607L184.548 150.901L186.082 152.258L187.668 153.678L189.305 155.165L190.993 156.72L192.731 158.346L194.516 160.044L196.348 161.816L198.223 163.665L200.14 165.59L202.094 167.592L204.082 169.674L206.1 171.834L208.144 174.072L210.207 176.388L212.283 178.78L214.367 181.246L216.45 183.784L218.525 186.39L220.583 189.059L222.615 191.788L224.612 194.57L226.564 197.398L228.459 200.265L230.287 203.163L232.036 206.082L233.695 209.012L235.253 211.942L236.697 214.86L238.016 217.754L239.199 220.611L240.236 223.418L241.116 226.16L241.829 228.823L242.368 231.394L242.724 233.858L242.892 236.201L242.866 238.411L242.643 240.474L242.22 242.378L241.597 244.113L240.774 245.668L239.753 247.036L238.54 248.208L237.139 249.18L235.556 249.946L233.801 250.505L231.883 250.855L229.813 250.996L227.601 250.933L225.26 250.667L222.804 250.205L220.246 249.552L217.6 248.717L214.878 247.709L212.096 246.538L209.267 245.214L206.404 243.748L203.52 242.153L200.628 240.44L197.738 238.622L194.862 236.712L192.01 234.72L189.19 232.661L186.412 230.544L183.683 228.383L181.009 226.186L178.396 223.966L175.849 221.73L173.371 219.489L170.967 217.251L168.638 215.024L166.387 212.814L164.214 210.629L162.121 208.473L160.107 206.352L158.173 204.27L156.317 202.231L154.538 200.239L152.835 198.296L151.207 196.405L149.651 194.568L148.166 192.786L146.749 191.059L145.397 189.39L144.11 187.779L142.883 186.225L141.715 184.729L140.603 183.29L139.544 181.908L138.537 180.583L137.578 179.315L136.665 178.101L135.796 176.941L134.968 175.835L134.18 174.782L133.428 173.78L132.712 172.828L132.028 171.926L131.375 171.073L130.751 170.266L130.153 169.507L129.581 168.793L129.033 168.123L128.506 167.498L128 166.915L127.512 166.374L127.041 165.876L126.586 165.418L126.145 165L125.717 164.623L125.301 164.285L124.894 163.987L124.497 163.727L124.107 163.507L123.724 163.325L123.346 163.183L122.972 163.08L122.6 163.016L122.23 162.993L121.86 163.01L121.489 163.067L121.115 163.164L120.738 163.3L120.355 163.475L119.967 163.689L119.571 163.943L119.166 164.235L118.751 164.566L118.325 164.938L117.886 165.349L117.434 165.8L116.965 166.292L116.48 166.826L115.977 167.402L115.454 168.021L114.909 168.683L114.34 169.39L113.747 170.142L113.128 170.941L112.479 171.787L111.801 172.681L111.089 173.625L110.344 174.619L109.561 175.664L108.74 176.762L107.878 177.913L106.972 179.118L106.021 180.378L105.021 181.694L103.971 183.066L102.867 184.496L101.708 185.983L100.491 187.527L99.2131 189.13L97.8721 190.79L96.4656 192.507L94.9913 194.28L93.4468 196.109L91.8302 197.992L90.1395 199.926L88.373 201.911L86.5294 203.942L84.6074 206.017L82.6063 208.133L80.5257 210.283L78.3657 212.465L76.1269 214.671L73.8103 216.896L71.4178 219.133L68.9518 221.373L66.4154 223.61L63.8125 225.834L61.1478 228.035L58.4269 230.203L55.6561 232.327L52.8429 234.397L49.9953 236.4L47.1224 238.324L44.2341 240.157L41.3412 241.888L38.4552 243.502L35.5881 244.989L32.7527 246.337L29.9623 247.533L27.2305 248.568L24.571 249.431L21.9977 250.113L19.5245 250.606L17.1648 250.904L14.9318 251L12.8378 250.891L10.8947 250.574L9.1131 250.049L7.50277 249.316L6.07214 248.377L4.82832 247.236L3.77701 245.899L2.92238 244.373L2.26707 242.666L1.81215 240.788L1.55713 238.75L1.5 236.563L1.63728 234.24L1.96409 231.794L2.47429 229.239L3.16053 226.59L4.01444 223.859L5.02674 221.062L6.18739 218.212L7.48575 215.323L8.91071 212.408L10.4509 209.479L12.0946 206.548L13.8303 203.627L15.6464 200.725L17.5316 197.852L19.4747 195.017L21.4651 192.227L23.4926 189.49L25.5474 186.811L27.6202 184.194L29.7026 181.646L31.7865 179.168L33.8646 176.764L35.9301 174.436L37.9768 172.185L39.9994 170.013L41.9928 167.919L43.9527 165.903L45.8753 163.966L47.7574 162.106L49.5961 160.321L51.389 158.611L53.1343 156.974L54.8303 155.408L56.4759 153.911L58.0702 152.48L59.6126 151.113L61.1027 149.809L62.5404 148.564L63.9258 147.376L65.2592 146.244L66.541 145.163L67.7716 144.133L68.9519 143.15L70.0824 142.212L71.164 141.318L72.1976 140.464L73.1841 139.649L74.1244 138.87L75.0195 138.127L75.8705 137.415L76.6782 136.734L77.4436 136.083L78.1677 135.458L78.8515 134.858L79.4959 134.283L80.1018 133.729L80.67 133.196L81.2014 132.683L81.6967 132.187L82.1568 131.707L82.5823 131.243L82.9739 130.792L83.3322 130.355L83.6578 129.928L83.9512 129.512L84.2129 129.106L84.4434 128.707L84.643 128.315L84.812 127.93L84.9507 127.549L85.0594 127.173L85.1383 126.8L85.1874 126.428L85.2069 126.058L85.1969 125.688L85.1572 125.317L85.0878 124.945L84.9886 124.569L84.8594 124.19L84.7001 123.806L84.5103 123.417L84.2897 123.021L84.038 122.616L83.7547 122.204L83.4394 121.781L83.0916 121.347L82.7107 120.9L82.2961 120.441L81.8471 119.966L81.3631 119.476L80.8432 118.968L80.2868 118.441L79.6931 117.894L79.061 117.326L78.3899 116.734L77.6787 116.118L76.9265 115.475L76.1324 114.803L75.2953 114.102L74.4144 113.368L73.4886 112.601L72.5169 111.798L71.4984 110.957L70.4322 110.076L69.3173 109.152L68.153 108.184L66.9385 107.169L65.6731 106.105L64.3562 104.989L62.9874 103.819L61.5663 102.592L60.0929 101.307L58.5672 99.9607L56.9894 98.5506L55.36 97.0746L53.6799 95.5305L51.9502 93.9162L50.1723 92.2297L48.3479 90.4692L46.4794 88.6333L44.5693 86.7205L42.6209 84.7301L40.6377 82.6612L38.6239 80.5137L36.5843 78.2878L34.5242 75.9842L32.4494 73.6043L30.3666 71.1498L28.2829 68.6233L26.2061 66.0282L24.1446 63.3684L22.1074 60.6488L20.1041 57.8751L18.1447 55.0537L16.2399 52.1922L14.4006 49.2987L12.638 46.3824L10.9637 43.4535L9.38934 40.5227L7.92644 37.6017L6.58653 34.7028L5.38083 31.8389L4.32016 29.0234L3.41475 26.2702L2.67415 23.5933L2.10703 21.0069L1.72108 18.525L1.52283 16.1615L1.51759 13.9298L1.70929 11.8427L2.1004 9.91236L2.69192 8.14984L3.48328 6.5652L4.47232 5.16724L5.65537 3.96341L7.0272 2.95969L8.58114 2.16052L10.3092 1.56875L12.202 1.18559L14.2491 1.01062L16.4392 1.04185L18.7599 1.27571L21.1984 1.70718L23.7413 2.32987L26.3748 3.13614L29.0851 4.1172L31.8584 5.26333L34.6809 6.56395L37.5392 8.00782L40.4206 9.58321L43.3126 11.278L46.2036 13.0799L49.0825 14.9766L51.9391 16.9558L54.7643 19.0053L57.5494 21.1135L60.2869 23.2688L62.9701 25.4604L65.5933 27.6779L68.1514 29.9115L70.6402 32.152L73.0564 34.3909L75.3974 36.6205L77.6611 38.8334L79.8463 41.0233L81.9522 43.1844L83.9786 45.3114L85.9257 47.3997L87.7942 49.4454L89.5851 51.4451L91.2998 53.3959L92.9398 55.2953L94.507 57.1414L96.0035 58.9326L97.4313 60.6678L98.7929 62.3461L100.091 63.9669L101.327 65.53L102.504 67.0353L103.625 68.4831L104.692 69.8737L105.707 71.2076L106.674 72.4854L107.594 73.7079L108.47 74.8759L109.304 75.9903L110.098 77.0521L110.856 78.0623L111.578 79.0218L112.267 79.9317L112.924 80.793L113.553 81.6066L114.154 82.3736L114.73 83.095L115.282 83.7715L115.812 84.4041L116.322 84.9935L116.813 85.5406L117.286 86.046L117.744 86.5103L118.187 86.9342L118.617 87.3179L119.035 87.6621L119.443 87.9669L119.841 88.2325L120.232 88.4592L120.616 88.6469L120.995 88.7956L121.37 88.905L121.742 88.9749L122.112 89.0047L122.482 88.9941L122.853 88.9433L123.227 88.8528L123.603 88.7228L123.985 88.5538L124.372 88.3457L124.767 88.0987L125.17 87.8126L125.583 87.4873L126.007 87.1225L126.444 86.7179L126.895 86.273L127.36 85.7872L127.842 85.2602L128.343 84.691L128.863 84.0792L129.404 83.4237L129.969 82.7239L130.558 81.9789L131.173 81.1876L131.817 80.3492L132.49 79.4627L133.196 78.527L133.936 77.5412L134.713 76.5042L135.528 75.415L136.383 74.2727L137.282 73.0763L138.226 71.8251L139.218 70.5181L140.26 69.1546L141.355 67.7343L142.505 66.2564L143.712 64.7209L144.98 63.1277L146.311 61.4768L147.707 59.7687L149.17 58.0042L150.704 56.1841L152.309 54.31L153.987 52.3835L155.742 50.4068L157.573 48.3827L159.482 46.3142L161.471 44.2052L163.539 42.0598L165.686 39.883L167.913 37.6803L170.217 35.4578L172.597 33.2225L175.052 30.9817L177.577 28.7437L180.17 26.5173L182.825 24.3121L185.537 22.1381L188.301 20.006L191.108 17.927L193.95 15.9127L196.82 13.9751L199.706 12.1264L202.599 10.3788L205.487 8.74487L208.358 7.23666L211.2 5.86616L213.998 4.64486L216.74 3.58366L219.412 2.69272L222 1.98129L224.49 1.45757L226.869 1.12858L229.123 1L231.24 1.0761L233.208 1.35964L235.016 1.85179L236.654 2.55212L238.114 3.45856L239.388 4.56743L240.47 5.87348L241.356 7.36994L242.043 9.04865L242.53 10.9001L242.817 12.9138L242.905 15.0779L242.799 17.3801L242.502 19.8071L242.02 22.3454L241.361 24.9808L240.534 27.6993L239.546 30.4868L238.408 33.3292L237.131 36.2131L235.725 39.1251L234.203 42.0527L232.575 44.9839L230.853 47.9075L229.049 50.8131L227.174 53.691L225.239 56.5326L223.256 59.3299L221.234 62.0762L219.183 64.7652L217.112 67.3917L215.031 69.9514L212.946 72.4407L210.867 74.8565L208.799 77.1968L206.749 79.4599L204.722 81.6449L202.724 83.7514L200.758 85.7793L198.829 87.729L196.941 89.6015L195.095 91.3978L193.295 93.1195L191.542 94.7681L189.838 96.3455L188.184 97.8538L186.581 99.2951L185.031 100.672L183.532 101.986L182.086 103.24L180.693 104.437L179.351 105.578L178.061 106.667L176.822 107.705L175.634 108.695L174.496 109.64L173.406 110.541L172.365 111.401L171.371 112.222L170.424 113.006L169.521 113.756L168.663 114.472L167.849 115.157L167.077 115.814L166.346 116.443L165.656 117.046L165.005 117.625L164.393 118.182L163.819 118.718L163.282 119.235L162.781 119.734L162.315 120.216L161.884 120.682L161.487 121.135L161.124 121.575L160.793 122.003L160.495 122.42L160.228 122.829L159.992 123.228L159.788 123.621L159.614 124.007L159.471 124.389L159.357 124.766L159.273 125.139L159.22 125.511L159.195 125.881L159.194 125.999Z" fill="#F9F9F9"/>
<path d="M159.194 125.999V125.999ZM159.194 125.999L159.209 126.369L159.253 126.74L159.327 127.113L159.431 127.489L159.565 127.869L159.729 128.254L159.924 128.644L160.149 129.042L160.406 129.447L160.695 129.861L161.015 130.286L161.368 130.722L161.754 131.17L162.174 131.632L162.629 132.109L163.119 132.602L163.644 133.113L164.206 133.643L164.806 134.193L165.444 134.765L166.122 135.361L166.84 135.981L167.598 136.629L168.399 137.305L169.243 138.011L170.131 138.75L171.064 139.523L172.043 140.332L173.069 141.179L174.143 142.067L175.266 142.997L176.438 143.973L177.661 144.996L178.934 146.068L180.26 147.192L181.637 148.371L183.066 149.607L184.548 150.901L186.082 152.258L187.668 153.678L189.305 155.165L190.993 156.72L192.731 158.346L194.516 160.044L196.348 161.816L198.223 163.665L200.14 165.59L202.094 167.593L204.082 169.674L206.1 171.834L208.144 174.072L210.207 176.388L212.283 178.78L214.367 181.246L216.45 183.784L218.525 186.39L220.583 189.059L222.615 191.788L224.612 194.57L226.564 197.398L228.459 200.265L230.287 203.163L232.036 206.082L233.695 209.012L235.253 211.942L236.697 214.86L238.016 217.754L239.199 220.611L240.236 223.418L241.116 226.16L241.829 228.823L242.368 231.394L242.724 233.858L242.892 236.201L242.866 238.411L242.643 240.474L242.22 242.378L241.597 244.113L240.774 245.668L239.753 247.036L238.54 248.208L237.139 249.18L235.556 249.946L233.801 250.505L231.883 250.855L229.813 250.996L227.601 250.933L225.26 250.667L222.804 250.205L220.246 249.552L217.6 248.717L214.878 247.709L212.096 246.538L209.267 245.214L206.404 243.748L203.52 242.153L200.628 240.44L197.738 238.622L194.862 236.712L192.01 234.72L189.19 232.661L186.412 230.544L183.683 228.383L181.009 226.186L178.396 223.966L175.849 221.73L173.371 219.489L170.967 217.251L168.638 215.024L166.387 212.814L164.214 210.629L162.121 208.473L160.107 206.352L158.173 204.27L156.317 202.231L154.538 200.239L152.835 198.296L151.207 196.405L149.651 194.568L148.166 192.786L146.749 191.059L145.397 189.39L144.11 187.779L142.883 186.225L141.715 184.729L140.603 183.29L139.544 181.908L138.537 180.583L137.578 179.315L136.665 178.101L135.796 176.941L134.968 175.835L134.18 174.782L133.428 173.78L132.712 172.828L132.028 171.926L131.375 171.073L130.751 170.266L130.153 169.507L129.581 168.793L129.033 168.123L128.506 167.498L128 166.915L127.512 166.374L127.041 165.876L126.586 165.418L126.145 165L125.717 164.623L125.301 164.285L124.894 163.987L124.497 163.727L124.107 163.507L123.724 163.325L123.346 163.183L122.972 163.08L122.6 163.016L122.23 162.993L121.86 163.01L121.489 163.067L121.115 163.164L120.738 163.3L120.355 163.475L119.967 163.689L119.571 163.943L119.166 164.235L118.751 164.566L118.325 164.938L117.886 165.349L117.434 165.8L116.965 166.292L116.48 166.826L115.977 167.402L115.454 168.021L114.909 168.683L114.34 169.39L113.747 170.142L113.128 170.941L112.479 171.787L111.801 172.681L111.089 173.625L110.344 174.619L109.561 175.664L108.74 176.762L107.878 177.913L106.972 179.118L106.021 180.378L105.021 181.694L103.971 183.066L102.867 184.496L101.708 185.983L100.491 187.527L99.2131 189.13L97.8721 190.79L96.4656 192.507L94.9913 194.28L93.4468 196.109L91.8302 197.992L90.1395 199.926L88.373 201.911L86.5294 203.942L84.6074 206.017L82.6063 208.133L80.5257 210.283L78.3657 212.465L76.1269 214.671L73.8103 216.896L71.4178 219.133L68.9518 221.373L66.4154 223.61L63.8125 225.834L61.1478 228.035L58.4269 230.203L55.6561 232.327L52.8429 234.397L49.9953 236.4L47.1224 238.324L44.2341 240.157L41.3412 241.888L38.4552 243.502L35.5881 244.989L32.7527 246.337L29.9623 247.533L27.2305 248.568L24.571 249.431L21.9977 250.113L19.5245 250.606L17.1648 250.904L14.9318 251L12.8378 250.891L10.8947 250.574L9.1131 250.049L7.50277 249.316L6.07214 248.377L4.82832 247.236L3.77701 245.899L2.92238 244.373L2.26707 242.666L1.81215 240.788L1.55713 238.75L1.5 236.563L1.63728 234.24L1.96409 231.794L2.47429 229.239L3.16053 226.59L4.01444 223.859L5.02674 221.062L6.18739 218.212L7.48575 215.323L8.91071 212.408L10.4509 209.479L12.0946 206.548L13.8303 203.627L15.6464 200.725L17.5316 197.852L19.4747 195.017L21.4651 192.227L23.4926 189.49L25.5474 186.811L27.6202 184.194L29.7026 181.646L31.7865 179.168L33.8646 176.764L35.9301 174.436L37.9768 172.185L39.9994 170.013L41.9928 167.919L43.9527 165.903L45.8753 163.966L47.7574 162.106L49.5961 160.321L51.389 158.611L53.1343 156.974L54.8303 155.408L56.4759 153.911L58.0702 152.48L59.6126 151.113L61.1027 149.809L62.5404 148.564L63.9258 147.376L65.2592 146.244L66.541 145.163L67.7716 144.133L68.9519 143.15L70.0824 142.212L71.164 141.318L72.1976 140.464L73.1841 139.649L74.1244 138.87L75.0195 138.127L75.8705 137.415L76.6782 136.734L77.4436 136.083L78.1677 135.458L78.8515 134.858L79.4959 134.283L80.1018 133.729L80.67 133.196L81.2014 132.683L81.6967 132.187L82.1568 131.707L82.5823 131.243L82.9739 130.792L83.3322 130.355L83.6578 129.928L83.9512 129.512L84.2129 129.106L84.4434 128.707L84.643 128.315L84.812 127.93L84.9507 127.549L85.0594 127.173L85.1383 126.8L85.1874 126.428L85.207 126.058L85.1969 125.688L85.1572 125.317L85.0878 124.945L84.9886 124.569L84.8594 124.19L84.7001 123.806L84.5103 123.417L84.2897 123.021L84.038 122.616L83.7547 122.204L83.4394 121.781L83.0916 121.347L82.7107 120.9L82.2961 120.441L81.8471 119.966L81.3631 119.476L80.8432 118.968L80.2868 118.441L79.6931 117.894L79.061 117.326L78.3899 116.734L77.6787 116.118L76.9265 115.475L76.1324 114.803L75.2953 114.102L74.4144 113.368L73.4886 112.601L72.5169 111.798L71.4984 110.957L70.4322 110.076L69.3173 109.152L68.153 108.184L66.9385 107.169L65.6731 106.105L64.3562 104.989L62.9874 103.819L61.5663 102.592L60.0929 101.307L58.5672 99.9607L56.9894 98.5506L55.36 97.0746L53.6799 95.5305L51.9502 93.9162L50.1723 92.2297L48.3479 90.4692L46.4794 88.6333L44.5693 86.7205L42.6209 84.7301L40.6377 82.6612L38.6239 80.5137L36.5843 78.2878L34.5242 75.9842L32.4494 73.6043L30.3666 71.1498L28.2829 68.6233L26.2061 66.0282L24.1446 63.3684L22.1074 60.6489L20.1041 57.8751L18.1447 55.0537L16.2399 52.1922L14.4006 49.2987L12.638 46.3824L10.9637 43.4535L9.38934 40.5227L7.92644 37.6017L6.58653 34.7028L5.38083 31.8389L4.32016 29.0234L3.41475 26.2702L2.67415 23.5933L2.10703 21.0069L1.72108 18.525L1.52283 16.1615L1.51759 13.9298L1.70929 11.8427L2.1004 9.91236L2.69192 8.14984L3.48328 6.5652L4.47232 5.16724L5.65537 3.96341L7.0272 2.95969L8.58114 2.16052L10.3092 1.56875L12.202 1.18559L14.2491 1.01062L16.4392 1.04185L18.7599 1.27571L21.1984 1.70718L23.7413 2.32987L26.3748 3.13614L29.0851 4.1172L31.8584 5.26333L34.6808 6.56395L37.5392 8.00782L40.4206 9.58321L43.3126 11.278L46.2036 13.0799L49.0825 14.9766L51.9391 16.9558L54.7643 19.0053L57.5494 21.1135L60.2869 23.2688L62.9702 25.4604L65.5933 27.6779L68.1513 29.9115L70.6402 32.152L73.0564 34.3909L75.3974 36.6205L77.6611 38.8334L79.8463 41.0233L81.9522 43.1844L83.9786 45.3114L85.9257 47.3997L87.7942 49.4454L89.5851 51.4451L91.2998 53.3959L92.9398 55.2953L94.507 57.1414L96.0035 58.9326L97.4313 60.6678L98.7929 62.3461L100.091 63.9669L101.327 65.53L102.504 67.0353L103.625 68.4831L104.692 69.8737L105.707 71.2076L106.674 72.4854L107.594 73.7079L108.47 74.8759L109.304 75.9903L110.098 77.0521L110.856 78.0623L111.578 79.0218L112.267 79.9317L112.924 80.793L113.553 81.6066L114.154 82.3736L114.73 83.095L115.282 83.7715L115.812 84.4041L116.322 84.9935L116.813 85.5406L117.286 86.046L117.744 86.5103L118.187 86.9342L118.617 87.3179L119.035 87.6621L119.443 87.9669L119.841 88.2325L120.232 88.4592L120.616 88.6469L120.995 88.7956L121.37 88.905L121.742 88.9749L122.112 89.0047L122.482 88.9941L122.853 88.9433L123.227 88.8528L123.603 88.7228L123.985 88.5538L124.372 88.3457L124.767 88.0987L125.17 87.8126L125.583 87.4873L126.007 87.1225L126.444 86.7179L126.895 86.273L127.36 85.7872L127.842 85.2602L128.343 84.691L128.863 84.0792L129.404 83.4237L129.969 82.7239L130.558 81.9789L131.173 81.1876L131.817 80.3492L132.49 79.4627L133.196 78.527L133.936 77.5412L134.713 76.5042L135.528 75.415L136.383 74.2727L137.282 73.0764L138.226 71.8251L139.218 70.5181L140.26 69.1546L141.355 67.7343L142.505 66.2564L143.712 64.7209L144.98 63.1277L146.311 61.4768L147.707 59.7688L149.17 58.0042L150.704 56.1841L152.309 54.31L153.987 52.3835L155.742 50.4068L157.573 48.3827L159.482 46.3142L161.471 44.2052L163.539 42.0598L165.686 39.883L167.913 37.6803L170.217 35.4578L172.597 33.2225L175.052 30.9817L177.577 28.7437L180.17 26.5173L182.825 24.3121L185.537 22.1381L188.301 20.006L191.108 17.927L193.95 15.9127L196.82 13.9751L199.706 12.1264L202.599 10.3788L205.487 8.74487L208.358 7.23666L211.2 5.86616L213.998 4.64486L216.74 3.58366L219.412 2.69272L222 1.98129L224.49 1.45757L226.869 1.12858L229.123 1L231.24 1.0761L233.208 1.35964L235.016 1.85179L236.654 2.55212L238.114 3.45856L239.388 4.56743L240.47 5.87348L241.356 7.36994L242.043 9.04865L242.53 10.9001L242.817 12.9138L242.905 15.0779L242.799 17.3801L242.502 19.8071L242.02 22.3454L241.361 24.9808L240.534 27.6993L239.546 30.4868L238.408 33.3292L237.131 36.2131L235.725 39.1251L234.203 42.0527L232.575 44.9839L230.853 47.9075L229.049 50.8131L227.174 53.691L225.239 56.5326L223.256 59.3299L221.234 62.0762L219.183 64.7652L217.112 67.3917L215.031 69.9514L212.946 72.4407L210.867 74.8565L208.799 77.1968L206.749 79.4599L204.722 81.6449L202.724 83.7514L200.758 85.7793L198.829 87.729L196.941 89.6015L195.095 91.3978L193.295 93.1195L191.542 94.7681L189.838 96.3455L188.184 97.8538L186.581 99.2951L185.031 100.672L183.532 101.986L182.086 103.24L180.693 104.437L179.351 105.578L178.061 106.667L176.822 107.705L175.634 108.695L174.496 109.64L173.406 110.541L172.365 111.401L171.371 112.222L170.424 113.006L169.521 113.756L168.663 114.472L167.849 115.157L167.077 115.814L166.346 116.443L165.656 117.046L165.005 117.625L164.393 118.182L163.819 118.719L163.282 119.235L162.781 119.734L162.315 120.216L161.884 120.682L161.487 121.135L161.124 121.575L160.793 122.003L160.495 122.42L160.228 122.829L159.992 123.228L159.788 123.621L159.614 124.007L159.471 124.389L159.357 124.766L159.273 125.139L159.22 125.511L159.195 125.881L159.194 125.999Z" stroke="black" stroke-width="2" stroke-linejoin="round"/>
</svg>
