<svg width="253" height="252" viewBox="0 0 253 252" fill="none" xmlns="http://www.w3.org/2000/svg">
<path fill-rule="evenodd" clip-rule="evenodd" d="M175.289 126.003L175.346 126.497L175.516 126.994L175.801 127.498L176.201 128.012L176.719 128.541L177.356 129.088L178.116 129.657L179 130.252L180.013 130.878L181.158 131.537L182.438 132.237L183.859 132.98L185.424 133.772L187.136 134.619L189 135.525L191.018 136.496L193.193 137.537L195.525 138.654L198.014 139.853L200.658 141.137L203.453 142.511L206.39 143.98L209.46 145.545L212.648 147.207L215.935 148.967L219.298 150.822L222.707 152.767L226.129 154.795L229.523 156.896L232.847 159.055L236.05 161.255L239.08 163.476L241.882 165.695L244.4 167.885L246.58 170.018L248.37 172.063L249.726 173.991L250.608 175.773L250.99 177.38L250.855 178.79L250.197 179.983L249.027 180.943L247.364 181.663L245.24 182.138L242.697 182.374L239.784 182.377L236.557 182.162L233.073 181.746L229.392 181.151L225.571 180.398L221.666 179.514L217.726 178.521L213.798 177.445L209.92 176.307L206.128 175.129L202.447 173.931L198.901 172.73L195.506 171.54L192.273 170.376L189.212 169.248L186.326 168.165L183.617 167.136L181.085 166.165L178.726 165.259L176.537 164.421L174.513 163.653L172.648 162.959L170.937 162.341L169.373 161.8L167.951 161.337L166.664 160.954L165.507 160.652L164.475 160.434L163.564 160.301L162.769 160.256L162.088 160.302L161.518 160.443L161.057 160.682L160.704 161.027L160.456 161.479L160.308 162.041L160.255 162.713L160.293 163.498L160.419 164.4L160.63 165.422L160.925 166.569L161.301 167.845L161.758 169.257L162.293 170.809L162.906 172.508L163.594 174.361L164.355 176.372L165.188 178.547L166.089 180.892L167.054 183.411L168.08 186.106L169.158 188.977L170.283 192.025L171.445 195.244L172.632 198.627L173.833 202.161L175.032 205.832L176.212 209.617L177.354 213.488L178.437 217.414L179.437 221.354L180.331 225.264L181.094 229.094L181.703 232.788L182.134 236.29L182.366 239.54L182.381 242.48L182.164 245.054L181.708 247.213L181.008 248.914L180.066 250.125L178.892 250.823L177.499 251L175.906 250.659L174.137 249.815L172.22 248.496L170.183 246.739L168.056 244.589L165.869 242.096L163.652 239.314L161.43 236.3L159.227 233.109L157.064 229.793L154.958 226.402L152.924 222.981L150.972 219.57L149.11 216.202L147.342 212.908L145.672 209.712L144.099 206.632L142.623 203.683L141.241 200.877L139.95 198.221L138.745 195.719L137.622 193.374L136.574 191.187L135.598 189.157L134.687 187.281L133.836 185.556L133.039 183.98L132.292 182.548L131.59 181.256L130.927 180.101L130.299 179.077L129.702 178.183L129.131 177.414L128.582 176.767L128.052 176.24L127.537 175.83L127.032 175.536L126.535 175.357L126.041 175.291L125.548 175.339L125.051 175.5L124.548 175.776L124.034 176.167L123.506 176.675L122.961 177.303L122.394 178.052L121.801 178.927L121.178 179.929L120.522 181.063L119.826 182.333L119.086 183.743L118.298 185.296L117.456 186.996L116.555 188.848L115.589 190.853L114.553 193.015L113.442 195.335L112.251 197.812L110.974 200.444L109.606 203.227L108.146 206.153L106.589 209.213L104.934 212.392L103.182 215.672L101.334 219.029L99.3958 222.436L97.374 225.858L95.279 229.257L93.1242 232.588L90.9263 235.803L88.7057 238.848L86.4856 241.671L84.2923 244.213L82.1541 246.422L80.1007 248.245L78.1622 249.636L76.3681 250.558L74.7457 250.98L73.3192 250.886L72.1089 250.271L71.1296 249.14L70.3907 247.515L69.8956 245.427L69.6415 242.915L69.6202 240.03L69.8185 236.826L70.219 233.36L70.8009 229.693L71.5414 225.881L72.4164 221.98L73.4013 218.042L74.4722 214.111L75.6059 210.228L76.7812 206.428L77.9784 202.737L79.1801 199.18L80.3709 195.772L81.5376 192.526L82.6688 189.451L83.7554 186.551L84.7894 183.828L85.7647 181.282L86.6763 178.909L87.5202 176.707L88.2933 174.67L88.9931 172.793L89.6176 171.07L90.1652 169.494L90.6345 168.061L91.0239 166.763L91.3319 165.596L91.5568 164.555L91.6965 163.634L91.7486 162.83L91.7101 162.14L91.5772 161.561L91.3455 161.092L91.0097 160.73L90.5659 160.474L90.0132 160.318L89.3499 160.257L88.5736 160.288L87.6813 160.407L86.669 160.612L85.5324 160.9L84.2665 161.27L82.8659 161.72L81.325 162.25L79.6376 162.856L77.7977 163.538L75.7995 164.294L73.6371 165.121L71.3057 166.017L68.8011 166.977L66.1204 167.998L63.2627 169.072L60.2291 170.194L57.0236 171.353L53.6536 172.539L50.1304 173.739L46.47 174.939L42.6934 176.121L38.8275 177.267L34.9048 178.355L30.964 179.362L27.0497 180.266L23.2118 181.041L19.5045 181.663L15.9854 182.108L12.7134 182.357L9.74685 182.389L7.14147 182.192L4.94776 181.755L3.20881 181.074L1.95823 180.152L1.21853 178.995L1 177.619L1.3003 176.041L2.10468 174.286L3.38691 172.379L5.11073 170.35L7.23172 168.23L9.69952 166.047L12.46 163.831L15.4575 161.608L18.6367 159.403L21.9445 157.236L25.3312 155.125L28.7514 153.085L32.165 151.126L35.5369 149.256L38.8376 147.481L42.0426 145.803L45.1325 144.223L48.092 142.739L50.9099 141.35L53.5784 140.051L56.0926 138.84L58.4498 137.71L60.6494 136.657L62.6922 135.675L64.5804 134.759L66.3167 133.903L67.9047 133.103L69.3481 132.352L70.6509 131.646L71.8172 130.98L72.8508 130.35L73.7554 129.75L74.5344 129.177L75.1908 128.627L75.7274 128.096L76.1463 127.579L76.4494 127.074L76.6379 126.576L76.7127 126.082L76.674 125.589L76.5218 125.092L76.2554 124.59L75.8735 124.077L75.3746 123.551L74.7566 123.007L74.017 122.442L73.1528 121.851L72.1607 121.231L71.0371 120.577L69.7781 119.884L68.3799 119.148L66.8384 118.364L65.1498 117.527L63.3103 116.631L61.317 115.67L59.1675 114.64L56.8605 113.536L54.3962 112.35L51.7764 111.08L49.0054 109.72L46.0899 108.267L43.0401 106.718L39.8699 105.071L36.5973 103.326L33.2451 101.486L29.8413 99.555L26.419 97.5396L23.017 95.45L19.6788 93.2993L16.453 91.1042L13.3917 88.8846L10.5497 86.6635L7.98268 84.4671L5.74553 82.3234L3.89005 80.2621L2.46279 78.3134L1.50284 76.5067L1.0398 74.8697L1.09221 73.4268L1.66642 72.1987L2.75615 71.2006L4.34269 70.4424L6.39581 69.9278L8.87523 69.6548L11.7326 69.6154L14.9135 69.7968L18.3604 70.1819L22.0141 70.7502L25.8164 71.4789L29.712 72.3441L33.6495 73.3212L37.5824 74.386L41.4702 75.5156L45.2785 76.6883L48.9784 77.8844L52.5473 79.0863L55.9676 80.2785L59.2265 81.4475L62.3154 82.582L65.2294 83.6724L67.9664 84.7109L70.5269 85.6911L72.9131 86.6079L75.1288 87.4573L77.1787 88.2361L79.0684 88.9418L80.8036 89.5724L82.3906 90.1262L83.8352 90.6017L85.1434 90.9975L86.3206 91.3121L87.372 91.5437L88.3021 91.6903L89.115 91.7495L89.814 91.7183L90.4017 91.5931L90.8801 91.3694L91.2501 91.0421L91.5144 90.6069L91.6782 90.0629L91.7464 89.4085L91.7228 88.6414L91.6106 87.7584L91.4126 86.7558L91.1309 85.6293L90.7673 84.3739L90.3233 82.9842L89.8005 81.4547L89.2002 79.7792L88.5242 77.9517L87.7742 75.9663L86.9526 73.8172L86.0622 71.4994L85.1067 69.0087L84.0908 66.3421L83.0202 63.4985L81.9022 60.4788L80.7457 57.2868L79.5613 53.9295L78.3615 50.418L77.161 46.7677L75.9768 42.9995L74.8275 39.1396L73.7342 35.2201L72.7194 31.2792L71.8067 27.3611L71.0207 23.5151L70.3857 19.7954L69.9251 16.2591L69.6603 12.9652L69.61 9.97228L69.7887 7.33621L70.2066 5.10802L70.8679 3.33149L71.7713 2.04104L72.9094 1.26011L74.269 1L75.8314 1.25936L77.5737 2.02442L79.4693 3.26981L81.4894 4.95999L83.6039 7.05114L85.7828 9.49327L87.9973 12.2325L90.2204 15.2131L92.4279 18.3798L94.5984 21.6793L96.7141 25.0614L98.7604 28.4805L100.726 31.896L102.603 35.2724L104.386 38.5797L106.072 41.7931L107.66 44.8927L109.151 47.8631L110.548 50.6926L111.853 53.3733L113.072 55.8998L114.208 58.2696L115.267 60.4817L116.254 62.537L117.176 64.4373L118.036 66.1856L118.841 67.7853L119.595 69.2401L120.304 70.554L120.973 71.731L121.606 72.775L122.208 73.6897L122.783 74.4786L123.335 75.1447L123.868 75.6907L124.385 76.119L124.892 76.4312L125.39 76.6288L125.884 76.7126L126.377 76.683L126.873 76.5399L127.375 76.2825L127.887 75.9099L128.412 75.4204L128.954 74.812L129.517 74.0821L130.106 73.228L130.723 72.2461L131.375 71.1332L132.064 69.8852L132.796 68.4982L133.576 66.9683L134.409 65.2914L135.301 63.4641L136.256 61.4832L137.28 59.3462L138.379 57.0517L139.557 54.5999L140.82 51.9924L142.173 49.2332L143.619 46.3289L145.16 43.2894L146.799 40.1281L148.536 36.8629L150.369 33.5161L152.293 30.1152L154.302 26.6931L156.386 23.2879L158.533 19.9429L160.725 16.7063L162.943 13.6299L165.165 10.7684L167.365 8.17744L169.514 5.91207L171.582 4.02441L173.541 2.56151L175.36 1.56312L177.012 1.05968L178.471 1.07064L179.717 1.60336L180.734 2.65256L181.511 4.2005L182.045 6.21782L182.337 8.66497L182.395 11.4941L182.23 14.6514L181.861 18.0793L181.306 21.7186L180.589 25.5112L179.734 29.4014L178.765 33.3372L177.706 37.2721L176.581 41.1649L175.411 44.9806L174.216 48.6901L173.014 52.2701L171.821 55.7027L170.649 58.9748L169.512 62.0775L168.418 65.0055L167.375 67.7567L166.39 70.3311L165.468 72.7311L164.613 74.9602L163.828 77.0231L163.117 78.9253L162.48 80.6727L161.92 82.2712L161.438 83.727L161.036 85.0458L160.715 86.2333L160.477 87.2945L160.323 88.2342L160.257 89.0562L160.281 89.7642L160.398 90.3607L160.614 90.8477L160.933 91.2263L161.359 91.4988L161.895 91.6704L162.54 91.7461L163.298 91.7296L164.172 91.6245L165.165 91.4332L166.281 91.1581L167.526 90.8009L168.905 90.3633L170.423 89.8467L172.087 89.2526L173.902 88.5825L175.875 87.8384L178.011 87.0223L180.315 86.1373L182.792 85.1868L185.444 84.1755L188.274 83.109L191.279 81.9945L194.458 80.8407L197.802 79.6581L201.302 78.459L204.942 77.258L208.702 76.0718L212.555 74.919L216.471 73.8204L220.412 72.7985L224.334 71.8768L228.188 71.0798L231.919 70.4319L235.472 69.9566L238.788 69.6755L241.807 69.6075L244.473 69.7676L246.736 70.1661L248.549 70.808L249.88 71.6923L250.702 72.8122L251.003 74.1547L250.785 75.7018L250.06 77.4307L248.851 79.3152L247.195 81.3264L245.134 83.4344L242.718 85.6093L240 87.822L237.037 90.0454L233.883 92.2549L230.592 94.4291L227.215 96.5497L223.797 98.602L220.38 100.575L216.999 102.459L213.686 104.249L210.464 105.943L207.355 107.539L204.373 109.038L201.532 110.442L198.84 111.754L196.301 112.98L193.918 114.122L191.694 115.187L189.626 116.18L187.713 117.106L185.953 117.971L184.342 118.78L182.876 119.538L181.551 120.251L180.363 120.923L179.308 121.559L178.383 122.163L177.585 122.74L176.909 123.293L176.353 123.828L175.916 124.346L175.594 124.853L175.388 125.352L175.295 125.846L175.289 126.003Z" fill="#F9F9F9"/>
<path d="M175.289 126.003V126.003ZM175.289 126.003L175.346 126.497L175.516 126.994L175.801 127.498L176.201 128.012L176.719 128.541L177.356 129.088L178.116 129.657L179 130.252L180.013 130.878L181.158 131.537L182.438 132.237L183.859 132.98L185.424 133.772L187.136 134.619L189 135.525L191.018 136.496L193.193 137.537L195.525 138.654L198.014 139.853L200.658 141.137L203.453 142.511L206.39 143.98L209.46 145.545L212.648 147.207L215.935 148.967L219.298 150.822L222.707 152.767L226.129 154.795L229.523 156.896L232.847 159.055L236.05 161.255L239.08 163.476L241.882 165.695L244.4 167.885L246.58 170.018L248.37 172.063L249.726 173.991L250.608 175.773L250.99 177.38L250.855 178.79L250.197 179.983L249.027 180.943L247.364 181.663L245.24 182.138L242.697 182.374L239.784 182.377L236.557 182.162L233.073 181.746L229.392 181.151L225.571 180.398L221.666 179.514L217.726 178.521L213.798 177.445L209.92 176.307L206.128 175.129L202.447 173.931L198.901 172.73L195.506 171.54L192.273 170.376L189.212 169.248L186.326 168.165L183.617 167.136L181.085 166.165L178.726 165.259L176.537 164.421L174.513 163.653L172.648 162.959L170.937 162.341L169.373 161.8L167.951 161.337L166.664 160.954L165.507 160.652L164.475 160.434L163.564 160.301L162.769 160.256L162.088 160.302L161.518 160.443L161.057 160.682L160.704 161.027L160.456 161.479L160.308 162.041L160.255 162.713L160.293 163.498L160.419 164.4L160.63 165.422L160.925 166.569L161.301 167.845L161.758 169.257L162.293 170.809L162.906 172.508L163.594 174.361L164.355 176.372L165.188 178.547L166.089 180.892L167.054 183.411L168.08 186.106L169.158 188.977L170.283 192.025L171.445 195.244L172.632 198.627L173.833 202.161L175.032 205.832L176.212 209.617L177.354 213.488L178.437 217.414L179.437 221.354L180.331 225.264L181.094 229.094L181.703 232.788L182.134 236.29L182.366 239.54L182.381 242.48L182.164 245.054L181.708 247.213L181.008 248.914L180.066 250.125L178.892 250.823L177.499 251L175.906 250.659L174.137 249.815L172.22 248.496L170.183 246.739L168.056 244.589L165.869 242.096L163.652 239.314L161.43 236.3L159.227 233.109L157.064 229.793L154.958 226.402L152.924 222.981L150.972 219.57L149.11 216.202L147.342 212.908L145.672 209.712L144.099 206.632L142.623 203.683L141.241 200.877L139.95 198.221L138.745 195.719L137.622 193.374L136.574 191.187L135.598 189.157L134.687 187.281L133.836 185.556L133.039 183.98L132.292 182.548L131.59 181.256L130.927 180.101L130.299 179.078L129.702 178.183L129.131 177.414L128.582 176.767L128.052 176.24L127.537 175.83L127.032 175.536L126.535 175.357L126.041 175.291L125.548 175.339L125.051 175.5L124.548 175.776L124.034 176.167L123.506 176.675L122.961 177.303L122.394 178.052L121.801 178.927L121.178 179.929L120.522 181.063L119.826 182.333L119.086 183.743L118.298 185.296L117.456 186.996L116.555 188.848L115.589 190.853L114.553 193.015L113.442 195.335L112.251 197.812L110.974 200.444L109.606 203.227L108.146 206.153L106.589 209.213L104.934 212.392L103.182 215.672L101.334 219.029L99.3958 222.436L97.374 225.858L95.279 229.257L93.1242 232.588L90.9263 235.803L88.7057 238.848L86.4856 241.671L84.2923 244.213L82.1541 246.422L80.1007 248.245L78.1622 249.636L76.3681 250.558L74.7456 250.98L73.3192 250.886L72.1089 250.271L71.1296 249.14L70.3907 247.515L69.8956 245.427L69.6415 242.915L69.6202 240.03L69.8185 236.826L70.219 233.36L70.8009 229.693L71.5414 225.881L72.4164 221.98L73.4013 218.042L74.4722 214.111L75.6059 210.228L76.7812 206.428L77.9784 202.737L79.1801 199.18L80.3709 195.772L81.5376 192.526L82.6688 189.451L83.7554 186.551L84.7894 183.828L85.7647 181.282L86.6763 178.909L87.5202 176.707L88.2933 174.67L88.9931 172.793L89.6176 171.07L90.1652 169.494L90.6345 168.061L91.0239 166.763L91.3319 165.596L91.5568 164.555L91.6965 163.634L91.7486 162.83L91.7101 162.14L91.5772 161.561L91.3455 161.092L91.0097 160.73L90.5659 160.474L90.0132 160.318L89.3499 160.257L88.5736 160.288L87.6813 160.407L86.669 160.612L85.5324 160.9L84.2665 161.27L82.8659 161.72L81.3249 162.25L79.6376 162.856L77.7977 163.538L75.7995 164.294L73.6371 165.121L71.3057 166.017L68.8011 166.977L66.1204 167.998L63.2627 169.072L60.2291 170.194L57.0236 171.353L53.6536 172.539L50.1304 173.739L46.47 174.939L42.6934 176.121L38.8275 177.267L34.9048 178.355L30.964 179.362L27.0497 180.266L23.2118 181.041L19.5045 181.663L15.9854 182.108L12.7134 182.357L9.74685 182.389L7.14147 182.192L4.94776 181.755L3.20881 181.074L1.95823 180.152L1.21853 178.995L1 177.619L1.3003 176.041L2.10468 174.286L3.38691 172.379L5.11073 170.35L7.23172 168.23L9.69952 166.047L12.46 163.831L15.4575 161.608L18.6367 159.403L21.9445 157.236L25.3312 155.125L28.7514 153.085L32.165 151.126L35.5369 149.256L38.8376 147.481L42.0426 145.803L45.1325 144.223L48.092 142.739L50.9099 141.35L53.5784 140.051L56.0926 138.84L58.4498 137.71L60.6494 136.657L62.6922 135.675L64.5804 134.759L66.3167 133.903L67.9047 133.103L69.3481 132.352L70.6509 131.646L71.8172 130.98L72.8508 130.35L73.7554 129.75L74.5344 129.177L75.1908 128.627L75.7274 128.096L76.1463 127.579L76.4494 127.074L76.6379 126.576L76.7127 126.082L76.674 125.589L76.5218 125.092L76.2554 124.59L75.8735 124.077L75.3746 123.551L74.7566 123.007L74.017 122.442L73.1528 121.851L72.1606 121.231L71.0371 120.577L69.7781 119.884L68.3799 119.148L66.8384 118.364L65.1498 117.527L63.3103 116.631L61.317 115.67L59.1675 114.64L56.8605 113.536L54.3962 112.35L51.7764 111.08L49.0054 109.72L46.0899 108.267L43.0402 106.718L39.8699 105.071L36.5973 103.326L33.2451 101.486L29.8413 99.555L26.419 97.5396L23.0169 95.45L19.6788 93.2993L16.453 91.1042L13.3917 88.8846L10.5497 86.6635L7.98268 84.4671L5.74553 82.3234L3.89005 80.2621L2.46279 78.3134L1.50284 76.5067L1.0398 74.8697L1.09221 73.4268L1.66642 72.1987L2.75615 71.2006L4.34269 70.4424L6.39581 69.9278L8.87523 69.6548L11.7326 69.6154L14.9135 69.7968L18.3604 70.1819L22.0141 70.7502L25.8164 71.4789L29.712 72.3441L33.6495 73.3212L37.5824 74.386L41.4703 75.5156L45.2785 76.6883L48.9784 77.8844L52.5473 79.0863L55.9676 80.2785L59.2265 81.4475L62.3154 82.582L65.2294 83.6724L67.9664 84.7109L70.5269 85.6911L72.9131 86.6079L75.1288 87.4573L77.1787 88.2361L79.0684 88.9418L80.8036 89.5724L82.3906 90.1262L83.8352 90.6017L85.1434 90.9975L86.3206 91.3121L87.372 91.5437L88.3022 91.6903L89.115 91.7495L89.814 91.7183L90.4017 91.5931L90.8801 91.3694L91.2501 91.0421L91.5144 90.6069L91.6782 90.0629L91.7464 89.4085L91.7228 88.6414L91.6106 87.7584L91.4126 86.7558L91.1309 85.6293L90.7672 84.3739L90.3233 82.9842L89.8005 81.4547L89.2003 79.7792L88.5242 77.9517L87.7742 75.9663L86.9526 73.8172L86.0622 71.4994L85.1067 69.0087L84.0908 66.3421L83.0202 63.4985L81.9022 60.4788L80.7457 57.2868L79.5613 53.9295L78.3615 50.418L77.161 46.7677L75.9768 42.9995L74.8275 39.1396L73.7342 35.2201L72.7194 31.2792L71.8067 27.3611L71.0207 23.5151L70.3857 19.7954L69.9251 16.2591L69.6603 12.9652L69.61 9.97228L69.7887 7.33621L70.2066 5.10802L70.8679 3.33149L71.7713 2.04104L72.9094 1.26011L74.269 1L75.8314 1.25936L77.5737 2.02442L79.4693 3.26981L81.4894 4.95999L83.6039 7.05114L85.7828 9.49327L87.9973 12.2325L90.2204 15.2131L92.4279 18.3798L94.5984 21.6793L96.7141 25.0614L98.7604 28.4805L100.726 31.896L102.603 35.2724L104.386 38.5797L106.072 41.7931L107.66 44.8927L109.151 47.8631L110.548 50.6926L111.853 53.3733L113.072 55.8998L114.208 58.2696L115.267 60.4817L116.254 62.537L117.176 64.4373L118.036 66.1856L118.841 67.7853L119.595 69.2401L120.304 70.554L120.973 71.731L121.606 72.775L122.208 73.6897L122.783 74.4786L123.335 75.1447L123.868 75.6907L124.385 76.119L124.892 76.4312L125.39 76.6288L125.884 76.7126L126.377 76.683L126.873 76.5399L127.375 76.2825L127.887 75.9099L128.412 75.4204L128.954 74.812L129.517 74.0821L130.106 73.2279L130.723 72.2461L131.375 71.1332L132.064 69.8852L132.796 68.4982L133.576 66.9683L134.409 65.2914L135.301 63.4641L136.256 61.4832L137.28 59.3462L138.379 57.0517L139.557 54.5999L140.82 51.9924L142.173 49.2332L143.619 46.3289L145.16 43.2894L146.799 40.1281L148.536 36.8629L150.369 33.5161L152.293 30.1152L154.302 26.6931L156.386 23.2879L158.533 19.9429L160.725 16.7063L162.943 13.6299L165.165 10.7684L167.365 8.17744L169.514 5.91207L171.582 4.02441L173.541 2.56151L175.36 1.56312L177.012 1.05968L178.471 1.07064L179.717 1.60336L180.734 2.65256L181.511 4.2005L182.045 6.21782L182.337 8.66497L182.395 11.4941L182.23 14.6514L181.861 18.0793L181.306 21.7186L180.589 25.5112L179.734 29.4014L178.765 33.3372L177.706 37.2721L176.581 41.1649L175.411 44.9806L174.216 48.6901L173.014 52.2701L171.821 55.7027L170.649 58.9748L169.512 62.0775L168.418 65.0055L167.375 67.7567L166.39 70.3311L165.468 72.7311L164.613 74.9602L163.828 77.0231L163.117 78.9253L162.48 80.6727L161.92 82.2712L161.438 83.727L161.036 85.0458L160.715 86.2333L160.477 87.2945L160.323 88.2342L160.257 89.0562L160.281 89.7642L160.398 90.3607L160.614 90.8477L160.933 91.2263L161.359 91.4988L161.895 91.6704L162.54 91.7461L163.298 91.7296L164.172 91.6245L165.165 91.4332L166.281 91.1581L167.526 90.8009L168.905 90.3633L170.423 89.8467L172.087 89.2526L173.902 88.5825L175.875 87.8384L178.011 87.0223L180.315 86.1373L182.792 85.1868L185.444 84.1755L188.274 83.109L191.279 81.9945L194.458 80.8407L197.802 79.658L201.302 78.459L204.942 77.258L208.702 76.0718L212.555 74.919L216.471 73.8204L220.412 72.7985L224.334 71.8768L228.188 71.0798L231.919 70.4319L235.472 69.9566L238.788 69.6755L241.807 69.6075L244.473 69.7676L246.736 70.1661L248.549 70.808L249.88 71.6923L250.702 72.8122L251.003 74.1547L250.785 75.7018L250.06 77.4307L248.851 79.3152L247.195 81.3264L245.134 83.4344L242.718 85.6093L240 87.822L237.037 90.0454L233.883 92.2549L230.592 94.4291L227.215 96.5497L223.797 98.602L220.38 100.575L216.999 102.459L213.686 104.249L210.464 105.943L207.355 107.539L204.373 109.038L201.532 110.442L198.84 111.754L196.301 112.98L193.918 114.122L191.694 115.187L189.626 116.18L187.713 117.106L185.953 117.971L184.342 118.78L182.876 119.538L181.551 120.251L180.363 120.923L179.308 121.559L178.383 122.163L177.585 122.74L176.909 123.293L176.353 123.828L175.916 124.346L175.594 124.853L175.388 125.352L175.295 125.846L175.289 126.003Z" stroke="black" stroke-width="2" stroke-linejoin="round"/>
</svg>
