<svg width="220" height="252" viewBox="0 0 220 252" fill="none" xmlns="http://www.w3.org/2000/svg">
<path fill-rule="evenodd" clip-rule="evenodd" d="M125.709 125.991L125.729 126.148L125.79 126.305L125.892 126.466L126.037 126.63L126.224 126.799L126.455 126.975L126.732 127.159L127.057 127.352L127.432 127.557L127.859 127.775L128.342 128.008L128.883 128.258L129.487 128.528L130.158 128.82L130.9 129.138L131.718 129.483L132.617 129.86L133.604 130.272L134.685 130.723L135.867 131.218L137.156 131.762L138.561 132.36L140.089 133.017L141.749 133.741L143.548 134.536L145.494 135.412L147.596 136.373L149.86 137.429L152.292 138.587L154.899 139.855L157.682 141.239L160.644 142.747L163.781 144.385L167.089 146.157L170.558 148.067L174.174 150.116L177.916 152.302L181.759 154.62L185.669 157.061L189.606 159.614L193.526 162.259L197.375 164.974L201.094 167.731L204.62 170.498L207.889 173.237L210.833 175.908L213.388 178.467L215.495 180.87L217.1 183.073L218.159 185.034L218.642 186.715L218.531 188.085L217.823 189.119L216.531 189.8L214.68 190.121L212.312 190.084L209.477 189.7L206.235 188.988L202.652 187.972L198.798 186.685L194.742 185.161L190.551 183.439L186.29 181.556L182.017 179.55L177.782 177.457L173.63 175.311L169.597 173.142L165.712 170.977L161.998 168.839L158.469 166.747L155.136 164.716L152.003 162.759L149.073 160.885L146.342 159.099L143.805 157.407L141.456 155.811L139.286 154.309L137.286 152.903L135.446 151.59L133.756 150.367L132.206 149.231L130.785 148.178L129.484 147.206L128.294 146.309L127.206 145.484L126.212 144.727L125.304 144.034L124.475 143.402L123.719 142.827L123.029 142.306L122.4 141.836L121.827 141.415L121.305 141.039L120.83 140.708L120.399 140.417L120.007 140.167L119.652 139.956L119.332 139.782L119.043 139.644L118.783 139.541L118.55 139.473L118.343 139.44L118.159 139.441L117.998 139.477L117.858 139.547L117.739 139.653L117.638 139.795L117.555 139.975L117.49 140.193L117.442 140.451L117.41 140.751L117.393 141.095L117.392 141.487L117.407 141.928L117.436 142.422L117.479 142.973L117.537 143.585L117.609 144.262L117.696 145.009L117.796 145.831L117.91 146.736L118.037 147.729L118.177 148.817L118.33 150.009L118.496 151.312L118.673 152.735L118.86 154.288L119.057 155.98L119.263 157.822L119.475 159.823L119.691 161.995L119.909 164.348L120.126 166.891L120.338 169.634L120.54 172.583L120.729 175.746L120.897 179.126L121.04 182.722L121.149 186.533L121.217 190.548L121.236 194.756L121.197 199.135L121.091 203.659L120.909 208.293L120.643 212.994L120.286 217.709L119.831 222.381L119.274 226.942L118.611 231.321L117.844 235.441L116.975 239.224L116.01 242.593L114.96 245.476L113.835 247.806L112.652 249.529L111.428 250.602L110.182 251L108.934 250.712L107.705 249.744L106.515 248.122L105.38 245.885L104.316 243.087L103.337 239.79L102.452 236.068L101.669 231.997L100.989 227.654L100.415 223.117L99.9443 218.458L99.5719 213.745L99.2922 209.039L99.0977 204.391L98.9802 199.847L98.931 195.443L98.9412 191.206L99.002 187.159L99.1051 183.315L99.2427 179.684L99.4076 176.27L99.5933 173.073L99.7941 170.089L100.005 167.314L100.221 164.74L100.439 162.358L100.656 160.158L100.869 158.129L101.075 156.263L101.274 154.548L101.463 152.973L101.642 151.53L101.809 150.209L101.964 149L102.106 147.896L102.236 146.888L102.352 145.97L102.454 145.134L102.542 144.376L102.617 143.688L102.677 143.066L102.723 142.506L102.754 142.003L102.771 141.554L102.772 141.155L102.759 140.803L102.729 140.496L102.683 140.231L102.621 140.007L102.541 139.821L102.443 139.673L102.327 139.562L102.19 139.486L102.032 139.445L101.853 139.438L101.649 139.466L101.421 139.528L101.165 139.625L100.881 139.757L100.565 139.926L100.216 140.131L99.8309 140.375L99.406 140.659L98.9384 140.984L98.4244 141.352L97.8597 141.766L97.2399 142.228L96.56 142.74L95.8146 143.307L94.9977 143.929L94.1028 144.612L93.1229 145.359L92.0504 146.173L90.8773 147.058L89.5947 148.018L88.1937 149.058L86.6645 150.18L84.9973 151.389L83.1819 152.688L81.2081 154.079L79.0659 155.565L76.746 157.147L74.2397 158.824L71.54 160.594L68.6415 162.455L65.5413 164.399L62.24 166.419L58.7418 168.502L55.0559 170.634L51.1969 172.796L47.1858 174.966L43.0505 177.118L38.8261 179.221L34.5554 181.243L30.2886 183.149L26.0828 184.899L22.0008 186.457L18.1097 187.784L14.4791 188.845L11.1783 189.608L8.27423 190.046L5.82786 190.139L3.89197 189.875L2.50845 189.251L1.70626 188.273L1.5 186.955L1.88924 185.321L2.8587 183.403L4.37917 181.236L6.40913 178.862L8.89699 176.324L11.7836 173.668L15.0049 170.937L18.4948 168.172L22.1874 165.411L26.0193 162.687L29.9313 160.029L33.8696 157.461L37.7869 155.001L41.6425 152.662L45.4025 150.455L49.0397 148.384L52.5332 146.452L55.8677 144.658L59.0328 142.999L62.0224 141.471L64.8342 140.067L67.4687 138.782L69.9289 137.607L72.2194 136.535L74.3465 135.559L76.3171 134.67L78.1389 133.862L79.82 133.128L81.3684 132.46L82.7924 131.853L84.0997 131.301L85.2979 130.799L86.3944 130.341L87.396 129.923L88.3092 129.541L89.1397 129.191L89.8933 128.869L90.575 128.573L91.1893 128.3L91.7405 128.047L92.2324 127.811L92.6683 127.591L93.0512 127.384L93.3838 127.189L93.6684 127.004L93.9069 126.827L94.101 126.656L94.252 126.492L94.361 126.331L94.4286 126.173L94.4554 126.016L94.4416 125.86L94.387 125.702L94.2912 125.543L94.1537 125.379L93.9735 125.211L93.7493 125.036L93.4796 124.854L93.1625 124.662L92.7959 124.459L92.3771 124.243L91.9035 124.013L91.3715 123.765L90.7778 123.499L90.118 123.21L89.3879 122.897L88.5824 122.557L87.6962 122.185L86.7235 121.779L85.6579 121.334L84.4928 120.846L83.2211 120.311L81.8351 119.722L80.3272 119.074L78.6893 118.362L76.9132 117.578L74.9908 116.716L72.9144 115.768L70.6766 114.728L68.2711 113.587L65.6925 112.337L62.9374 110.972L60.0043 109.484L56.8946 107.868L53.6132 106.117L50.1689 104.229L46.5755 102.203L42.8519 100.038L39.0235 97.7406L35.1218 95.3179L31.1853 92.7822L27.2594 90.1506L23.3958 87.445L19.6521 84.6923L16.0906 81.9246L12.7765 79.1782L9.77617 76.4936L7.15459 73.9136L4.97276 71.4827L3.28497 69.2452L2.1362 67.2431L1.55979 65.515L1.5756 64.0938L2.18884 63.0053L3.38967 62.2673L5.15357 61.8887L7.4426 61.8689L10.2072 62.1987L13.3886 62.8605L16.9216 63.8297L20.7373 65.0758L24.766 66.5641L28.9394 68.2576L33.1933 70.1177L37.4685 72.1067L41.7127 74.188L45.8806 76.3276L49.9346 78.4947L53.8446 80.662L57.5875 82.8058L61.1467 84.9065L64.5114 86.9479L67.6759 88.9173L70.6385 90.8053L73.4011 92.605L75.9683 94.3121L78.3467 95.9242L80.5444 97.4405L82.5708 98.8618L84.4356 100.19L86.1489 101.427L87.721 102.577L89.1618 103.642L90.481 104.627L91.6881 105.536L92.7917 106.372L93.8002 107.14L94.7214 107.842L95.5624 108.484L96.33 109.068L97.0301 109.597L97.6685 110.075L98.2502 110.504L98.7799 110.887L99.2619 111.225L99.7 111.522L100.098 111.778L100.458 111.995L100.784 112.176L101.078 112.319L101.342 112.427L101.579 112.501L101.791 112.539L101.978 112.544L102.142 112.514L102.285 112.449L102.408 112.349L102.512 112.212L102.597 112.039L102.665 111.827L102.716 111.576L102.751 111.282L102.77 110.945L102.773 110.561L102.761 110.128L102.735 109.643L102.693 109.101L102.638 108.499L102.568 107.833L102.484 107.098L102.386 106.287L102.274 105.396L102.149 104.418L102.011 103.345L101.86 102.171L101.696 100.886L101.521 99.4827L101.335 97.9512L101.139 96.2819L100.935 94.4647L100.724 92.4892L100.508 90.345L100.29 88.0219L100.073 85.5097L99.8603 82.7995L99.6559 79.8832L99.4648 76.7546L99.2926 73.4097L99.1456 69.8476L99.0306 66.0709L98.9555 62.0871L98.9282 57.9088L98.9576 53.5551L99.0523 49.052L99.2213 44.433L99.4731 39.7401L99.8152 35.0231L100.254 30.3401L100.795 25.7565L101.441 21.3436L102.192 17.1772L103.045 13.3353L103.995 9.89526L105.032 6.93065L106.146 4.50843L107.321 2.68557L108.54 1.50633L109.784 1L111.032 1.17928L112.265 2.03967L113.464 3.55965L114.609 5.70189L115.684 8.41515L116.678 11.6369L117.578 15.2963L118.378 19.3174L119.074 23.6221L119.665 28.1334L120.152 32.7775L120.54 37.4859L120.834 42.1971L121.041 46.8571L121.17 51.4203L121.23 55.8491L121.229 60.114L121.175 64.1926L121.078 68.0695L120.946 71.7348L120.785 75.1835L120.602 78.4152L120.403 81.4322L120.194 84.24L119.978 86.8457L119.76 89.258L119.543 91.4864L119.33 93.5412L119.122 95.4327L118.922 97.1714L118.731 98.7675L118.551 100.231L118.382 101.571L118.225 102.797L118.08 103.918L117.949 104.94L117.831 105.872L117.726 106.72L117.635 107.491L117.559 108.19L117.496 108.821L117.448 109.391L117.414 109.903L117.395 110.361L117.391 110.768L117.403 111.127L117.43 111.441L117.473 111.712L117.532 111.943L117.609 112.134L117.704 112.288L117.818 112.405L117.951 112.487L118.106 112.534L118.282 112.546L118.481 112.523L118.706 112.467L118.957 112.375L119.236 112.249L119.547 112.086L119.89 111.887L120.27 111.649L120.688 111.372L121.149 111.054L121.655 110.692L122.211 110.286L122.822 109.832L123.492 109.327L124.227 108.77L125.032 108.156L125.914 107.483L126.88 106.747L127.937 105.944L129.093 105.071L130.358 104.122L131.739 103.096L133.247 101.987L134.892 100.792L136.683 99.5078L138.631 98.1314L140.746 96.6606L143.037 95.0943L145.513 93.4324L148.181 91.6766L151.048 89.83L154.116 87.8985L157.385 85.8901L160.853 83.816L164.51 81.6905L168.342 79.5318L172.331 77.3614L176.449 75.205L180.661 73.0918L184.928 71.0543L189.199 69.1279L193.419 67.35L197.525 65.7589L201.451 64.3926L205.128 63.287L208.485 62.4748L211.457 61.9837L213.98 61.8348L216 62.0414L217.474 62.6082L218.37 63.5309L218.672 64.7959L218.377 66.3811L217.498 68.2567L216.063 70.3869L214.111 72.7308L211.692 75.2451L208.865 77.8852L205.692 80.6073L202.241 83.3696L198.576 86.1338L194.762 88.8655L190.859 91.5356L186.922 94.1195L182.998 96.598L179.131 98.9567L175.353 101.185L171.695 103.278L168.177 105.232L164.817 107.048L161.624 108.728L158.606 110.277L155.766 111.7L153.104 113.004L150.616 114.196L148.299 115.283L146.146 116.274L144.151 117.176L142.306 117.997L140.603 118.742L139.034 119.42L137.591 120.036L136.266 120.597L135.05 121.107L133.938 121.572L132.922 121.996L131.995 122.383L131.152 122.738L130.386 123.064L129.694 123.364L129.069 123.641L128.508 123.897L128.007 124.135L127.562 124.358L127.171 124.566L126.83 124.763L126.538 124.95L126.293 125.128L126.092 125.299L125.934 125.465L125.818 125.626L125.744 125.785L125.711 125.942L125.709 125.991Z" fill="#F9F9F9"/>
<path d="M125.709 125.991V125.991ZM125.709 125.991L125.729 126.148L125.79 126.305L125.892 126.466L126.037 126.63L126.224 126.799L126.455 126.975L126.732 127.159L127.057 127.352L127.432 127.557L127.859 127.775L128.342 128.008L128.883 128.258L129.487 128.528L130.158 128.82L130.9 129.138L131.718 129.483L132.617 129.86L133.604 130.272L134.685 130.723L135.867 131.218L137.156 131.762L138.561 132.36L140.089 133.017L141.749 133.741L143.548 134.536L145.494 135.412L147.596 136.373L149.86 137.429L152.292 138.587L154.899 139.855L157.682 141.239L160.644 142.747L163.781 144.385L167.089 146.157L170.558 148.067L174.174 150.116L177.916 152.302L181.759 154.62L185.669 157.061L189.606 159.614L193.526 162.259L197.375 164.974L201.094 167.731L204.62 170.498L207.889 173.237L210.833 175.908L213.388 178.467L215.495 180.87L217.1 183.073L218.159 185.034L218.642 186.715L218.531 188.085L217.823 189.119L216.531 189.8L214.68 190.121L212.312 190.084L209.477 189.7L206.235 188.988L202.652 187.972L198.798 186.685L194.742 185.161L190.551 183.439L186.29 181.556L182.017 179.55L177.782 177.457L173.63 175.311L169.597 173.142L165.712 170.977L161.998 168.839L158.469 166.747L155.136 164.716L152.003 162.759L149.073 160.885L146.342 159.099L143.805 157.407L141.456 155.811L139.286 154.309L137.286 152.903L135.446 151.59L133.756 150.367L132.206 149.231L130.785 148.178L129.484 147.206L128.294 146.309L127.206 145.484L126.212 144.727L125.304 144.034L124.475 143.402L123.719 142.827L123.029 142.306L122.4 141.836L121.827 141.415L121.305 141.039L120.83 140.707L120.399 140.417L120.007 140.167L119.652 139.956L119.332 139.782L119.043 139.644L118.783 139.541L118.55 139.473L118.343 139.44L118.159 139.441L117.998 139.477L117.858 139.547L117.738 139.653L117.638 139.795L117.555 139.975L117.49 140.192L117.442 140.451L117.41 140.751L117.393 141.095L117.392 141.487L117.407 141.928L117.436 142.422L117.479 142.973L117.537 143.585L117.609 144.262L117.696 145.009L117.796 145.831L117.91 146.736L118.037 147.729L118.177 148.817L118.33 150.009L118.496 151.312L118.673 152.735L118.86 154.288L119.057 155.98L119.263 157.822L119.475 159.823L119.691 161.995L119.909 164.348L120.126 166.891L120.337 169.634L120.54 172.583L120.729 175.746L120.897 179.126L121.04 182.722L121.149 186.533L121.217 190.548L121.236 194.756L121.197 199.135L121.091 203.659L120.909 208.293L120.643 212.994L120.286 217.709L119.831 222.381L119.274 226.942L118.611 231.321L117.844 235.441L116.975 239.224L116.01 242.593L114.96 245.476L113.835 247.806L112.652 249.529L111.428 250.602L110.182 251L108.934 250.712L107.705 249.744L106.515 248.122L105.38 245.885L104.316 243.087L103.337 239.79L102.452 236.068L101.669 231.997L100.989 227.654L100.415 223.117L99.9443 218.458L99.5719 213.745L99.2922 209.039L99.0977 204.391L98.9802 199.847L98.931 195.443L98.9412 191.206L99.002 187.159L99.1051 183.315L99.2427 179.684L99.4076 176.27L99.5933 173.073L99.7941 170.089L100.005 167.314L100.221 164.74L100.439 162.358L100.656 160.158L100.869 158.129L101.075 156.263L101.274 154.548L101.463 152.973L101.642 151.53L101.809 150.209L101.964 149L102.106 147.896L102.236 146.888L102.352 145.97L102.454 145.134L102.542 144.376L102.617 143.688L102.677 143.066L102.723 142.506L102.754 142.003L102.771 141.554L102.772 141.155L102.759 140.803L102.729 140.496L102.683 140.231L102.621 140.007L102.541 139.821L102.443 139.673L102.327 139.562L102.19 139.486L102.032 139.445L101.853 139.438L101.649 139.466L101.421 139.528L101.165 139.625L100.881 139.757L100.565 139.926L100.216 140.131L99.8309 140.375L99.406 140.659L98.9384 140.984L98.4244 141.352L97.8597 141.766L97.2399 142.228L96.56 142.74L95.8146 143.306L94.9977 143.929L94.1028 144.612L93.1229 145.359L92.0504 146.173L90.8773 147.058L89.5948 148.018L88.1937 149.058L86.6645 150.18L84.9973 151.389L83.1819 152.688L81.2081 154.079L79.0659 155.565L76.746 157.147L74.2397 158.824L71.54 160.594L68.6415 162.455L65.5413 164.399L62.24 166.419L58.7418 168.502L55.0559 170.634L51.1969 172.796L47.1858 174.966L43.0505 177.118L38.8261 179.221L34.5554 181.243L30.2886 183.149L26.0828 184.899L22.0008 186.457L18.1097 187.784L14.4791 188.845L11.1783 189.608L8.27423 190.046L5.82786 190.139L3.89197 189.875L2.50845 189.251L1.70626 188.273L1.5 186.955L1.88924 185.321L2.8587 183.403L4.37917 181.236L6.40913 178.862L8.89699 176.324L11.7836 173.668L15.0049 170.937L18.4948 168.172L22.1874 165.411L26.0193 162.687L29.9313 160.029L33.8696 157.461L37.7869 155.001L41.6425 152.662L45.4025 150.455L49.0397 148.384L52.5332 146.452L55.8677 144.658L59.0328 142.999L62.0224 141.471L64.8342 140.067L67.4687 138.782L69.9289 137.607L72.2194 136.535L74.3465 135.559L76.3171 134.67L78.1389 133.862L79.82 133.128L81.3684 132.46L82.7924 131.853L84.0997 131.301L85.2979 130.799L86.3944 130.341L87.396 129.923L88.3092 129.541L89.1397 129.191L89.8933 128.869L90.575 128.573L91.1893 128.3L91.7405 128.047L92.2324 127.811L92.6683 127.591L93.0512 127.384L93.3838 127.189L93.6684 127.004L93.9069 126.827L94.101 126.656L94.252 126.492L94.361 126.331L94.4286 126.173L94.4554 126.016L94.4416 125.86L94.387 125.702L94.2912 125.543L94.1537 125.379L93.9735 125.211L93.7493 125.036L93.4796 124.854L93.1625 124.662L92.7959 124.459L92.3771 124.243L91.9035 124.013L91.3715 123.765L90.7778 123.499L90.118 123.21L89.3879 122.897L88.5824 122.557L87.6962 122.185L86.7235 121.779L85.6579 121.334L84.4928 120.846L83.2211 120.311L81.8351 119.722L80.3272 119.074L78.6893 118.362L76.9132 117.578L74.9908 116.716L72.9144 115.768L70.6766 114.728L68.2711 113.587L65.6925 112.337L62.9374 110.972L60.0043 109.484L56.8946 107.868L53.6132 106.117L50.1689 104.229L46.5755 102.203L42.8519 100.038L39.0235 97.7406L35.1218 95.3179L31.1853 92.7822L27.2594 90.1506L23.3958 87.445L19.6521 84.6923L16.0906 81.9246L12.7765 79.1782L9.77617 76.4936L7.15459 73.9136L4.97276 71.4827L3.28497 69.2452L2.1362 67.2431L1.55979 65.515L1.5756 64.0938L2.18884 63.0053L3.38967 62.2673L5.15357 61.8887L7.4426 61.8689L10.2072 62.1987L13.3886 62.8605L16.9216 63.8297L20.7373 65.0758L24.766 66.5641L28.9394 68.2576L33.1933 70.1177L37.4685 72.1067L41.7127 74.188L45.8805 76.3276L49.9346 78.4947L53.8446 80.662L57.5875 82.8058L61.1467 84.9065L64.5114 86.9479L67.6759 88.9173L70.6385 90.8053L73.4011 92.605L75.9683 94.3121L78.3467 95.9242L80.5445 97.4405L82.5708 98.8618L84.4356 100.19L86.1489 101.427L87.721 102.577L89.1618 103.642L90.481 104.627L91.6881 105.536L92.7917 106.372L93.8002 107.14L94.7214 107.842L95.5624 108.484L96.33 109.068L97.0301 109.597L97.6685 110.075L98.2502 110.504L98.7799 110.887L99.2619 111.225L99.7 111.522L100.098 111.778L100.458 111.995L100.784 112.176L101.078 112.319L101.342 112.427L101.579 112.501L101.791 112.539L101.978 112.544L102.142 112.514L102.285 112.449L102.408 112.349L102.512 112.212L102.597 112.039L102.665 111.827L102.716 111.576L102.751 111.282L102.77 110.945L102.773 110.561L102.761 110.128L102.735 109.643L102.693 109.101L102.638 108.499L102.568 107.833L102.484 107.098L102.386 106.287L102.274 105.396L102.149 104.418L102.011 103.345L101.86 102.171L101.696 100.886L101.521 99.4827L101.335 97.9512L101.139 96.2819L100.935 94.4647L100.724 92.4892L100.508 90.345L100.29 88.0219L100.073 85.5097L99.8603 82.7995L99.6559 79.8832L99.4648 76.7546L99.2926 73.4097L99.1456 69.8476L99.0306 66.0709L98.9555 62.0871L98.9282 57.9088L98.9576 53.5551L99.0523 49.052L99.2213 44.433L99.4731 39.7401L99.8152 35.0231L100.254 30.3401L100.795 25.7565L101.441 21.3436L102.192 17.1772L103.045 13.3353L103.995 9.89526L105.032 6.93065L106.146 4.50843L107.321 2.68557L108.54 1.50633L109.784 1L111.032 1.17928L112.265 2.03967L113.464 3.55965L114.609 5.70189L115.684 8.41516L116.678 11.6369L117.578 15.2963L118.378 19.3174L119.074 23.6221L119.665 28.1334L120.152 32.7775L120.54 37.4859L120.834 42.1971L121.041 46.8571L121.17 51.4203L121.23 55.8491L121.229 60.114L121.175 64.1927L121.078 68.0695L120.946 71.7348L120.785 75.1835L120.602 78.4152L120.403 81.4322L120.194 84.24L119.978 86.8457L119.76 89.258L119.543 91.4864L119.33 93.5412L119.122 95.4327L118.922 97.1714L118.731 98.7675L118.551 100.231L118.382 101.571L118.225 102.797L118.08 103.918L117.949 104.94L117.831 105.872L117.726 106.72L117.635 107.491L117.559 108.19L117.496 108.821L117.448 109.391L117.414 109.903L117.395 110.361L117.391 110.768L117.403 111.127L117.43 111.441L117.473 111.712L117.532 111.943L117.609 112.134L117.704 112.288L117.818 112.405L117.951 112.487L118.106 112.534L118.282 112.546L118.481 112.523L118.706 112.467L118.957 112.375L119.236 112.249L119.547 112.086L119.89 111.887L120.27 111.649L120.688 111.372L121.149 111.054L121.655 110.692L122.211 110.286L122.822 109.832L123.492 109.327L124.227 108.77L125.032 108.156L125.914 107.483L126.88 106.747L127.937 105.944L129.093 105.071L130.358 104.122L131.739 103.096L133.248 101.987L134.892 100.792L136.683 99.5078L138.631 98.1314L140.746 96.6606L143.037 95.0943L145.513 93.4324L148.181 91.6766L151.048 89.8301L154.116 87.8985L157.385 85.8901L160.853 83.816L164.51 81.6905L168.342 79.5318L172.331 77.3614L176.449 75.205L180.661 73.0918L184.928 71.0543L189.199 69.1279L193.419 67.35L197.525 65.7589L201.451 64.3926L205.128 63.287L208.485 62.4748L211.457 61.9837L213.98 61.8348L216 62.0414L217.474 62.6082L218.37 63.5309L218.672 64.7959L218.377 66.3811L217.498 68.2567L216.063 70.3869L214.111 72.7308L211.692 75.2451L208.865 77.8852L205.692 80.6073L202.241 83.3696L198.576 86.1338L194.762 88.8655L190.859 91.5356L186.922 94.1195L182.998 96.598L179.131 98.9567L175.353 101.185L171.695 103.278L168.177 105.232L164.817 107.048L161.624 108.728L158.606 110.277L155.766 111.7L153.104 113.004L150.616 114.196L148.299 115.283L146.146 116.274L144.151 117.176L142.306 117.997L140.603 118.742L139.034 119.42L137.591 120.036L136.266 120.597L135.05 121.107L133.938 121.572L132.922 121.996L131.995 122.383L131.152 122.738L130.386 123.064L129.694 123.364L129.069 123.641L128.508 123.897L128.007 124.135L127.562 124.358L127.171 124.566L126.83 124.763L126.538 124.95L126.293 125.128L126.092 125.299L125.934 125.465L125.818 125.626L125.744 125.785L125.711 125.942L125.709 125.991Z" stroke="black" stroke-width="2" stroke-linejoin="round"/>
</svg>
