<svg width="220" height="252" viewBox="0 0 220 252" fill="none" xmlns="http://www.w3.org/2000/svg">
<path fill-rule="evenodd" clip-rule="evenodd" d="M136.378 126.014L136.413 126.289L136.519 126.565L136.693 126.846L136.936 127.133L137.248 127.429L137.629 127.736L138.081 128.055L138.605 128.39L139.201 128.742L139.874 129.115L140.624 129.51L141.454 129.931L142.368 130.38L143.368 130.861L144.458 131.377L145.642 131.932L146.922 132.529L148.303 133.171L149.789 133.864L151.382 134.611L153.086 135.417L154.905 136.286L156.84 137.222L158.893 138.231L161.065 139.316L163.356 140.482L165.765 141.732L168.29 143.071L170.924 144.501L173.662 146.025L176.496 147.644L179.413 149.358L182.4 151.165L185.44 153.064L188.513 155.049L191.596 157.114L194.663 159.251L197.686 161.448L200.633 163.692L203.471 165.968L206.166 168.258L208.681 170.542L210.981 172.798L213.031 175.003L214.798 177.134L216.251 179.166L217.366 181.075L218.119 182.838L218.496 184.433L218.486 185.842L218.086 187.048L217.3 188.039L216.137 188.804L214.614 189.339L212.754 189.643L210.582 189.719L208.131 189.572L205.434 189.213L202.529 188.656L199.452 187.915L196.24 187.008L192.931 185.953L189.559 184.772L186.157 183.482L182.755 182.104L179.379 180.658L176.054 179.161L172.8 177.629L169.633 176.08L166.568 174.527L163.615 172.981L160.782 171.455L158.076 169.958L155.498 168.497L153.052 167.079L150.737 165.71L148.552 164.393L146.493 163.132L144.558 161.929L142.742 160.786L141.042 159.702L139.451 158.68L137.966 157.717L136.58 156.814L135.288 155.971L134.086 155.185L132.967 154.457L131.928 153.783L130.963 153.165L130.068 152.599L129.238 152.084L128.47 151.62L127.759 151.205L127.102 150.839L126.496 150.519L125.936 150.245L125.421 150.017L124.948 149.834L124.514 149.695L124.116 149.6L123.753 149.549L123.423 149.543L123.123 149.58L122.853 149.662L122.609 149.789L122.392 149.962L122.2 150.182L122.03 150.45L121.884 150.767L121.758 151.136L121.653 151.557L121.566 152.034L121.499 152.568L121.448 153.162L121.415 153.818L121.397 154.541L121.395 155.332L121.407 156.197L121.432 157.137L121.469 158.159L121.518 159.265L121.577 160.461L121.645 161.751L121.721 163.14L121.804 164.633L121.891 166.235L121.981 167.951L122.072 169.786L122.161 171.745L122.247 173.832L122.325 176.05L122.393 178.403L122.448 180.894L122.485 183.523L122.501 186.289L122.49 189.193L122.449 192.229L122.372 195.392L122.253 198.673L122.088 202.062L121.871 205.543L121.597 209.101L121.26 212.712L120.856 216.354L120.38 219.998L119.83 223.613L119.202 227.164L118.495 230.613L117.709 233.923L116.846 237.051L115.908 239.957L114.899 242.599L113.826 244.94L112.697 246.942L111.521 248.574L110.308 249.807L109.071 250.621L107.821 251L106.573 250.938L105.337 250.434L104.128 249.496L102.958 248.14L101.837 246.386L100.775 244.263L99.7816 241.804L98.8622 239.045L98.0222 236.027L97.2649 232.79L96.592 229.376L96.0034 225.826L95.4978 222.182L95.0723 218.479L94.7234 214.755L94.4464 211.039L94.2361 207.361L94.0869 203.745L93.9927 200.212L93.9476 196.78L93.9455 193.462L93.9805 190.271L94.047 187.213L94.1396 184.295L94.2533 181.52L94.3834 178.889L94.5258 176.403L94.6763 174.059L94.8317 171.854L94.9887 169.787L95.1444 167.851L95.2964 166.043L95.4425 164.358L95.5805 162.791L95.7088 161.335L95.8258 159.988L95.93 158.742L96.0201 157.594L96.0949 156.539L96.1532 155.571L96.194 154.689L96.216 153.886L96.2183 153.16L96.1997 152.508L96.159 151.927L96.095 151.414L96.0061 150.967L95.891 150.585L95.7478 150.266L95.5747 150.01L95.3696 149.815L95.13 149.681L94.8542 149.608L94.5408 149.594L94.1882 149.636L93.7947 149.734L93.3581 149.887L92.8763 150.095L92.3466 150.357L91.7663 150.673L91.1323 151.045L90.4412 151.472L89.6893 151.956L88.8729 152.497L87.9878 153.096L87.0294 153.756L85.9932 154.476L84.8741 155.259L83.6672 156.105L82.3672 157.017L80.9686 157.994L79.4661 159.037L77.8542 160.148L76.1278 161.326L74.2819 162.571L72.3119 163.881L70.2139 165.255L67.9846 166.691L65.622 168.183L63.125 169.728L60.4943 171.32L57.7322 172.95L54.8432 174.61L51.8343 176.289L48.7149 177.974L45.4976 179.651L42.198 181.304L38.835 182.916L35.431 184.468L32.0116 185.94L28.6057 187.311L25.2449 188.56L21.9633 189.666L18.7971 190.608L15.7834 191.366L12.9595 191.924L10.3621 192.266L8.02638 192.38L5.98444 192.257L4.2648 191.893L2.89127 191.285L1.88218 190.439L1.24982 189.361L1 188.063L1.13196 186.561L1.63843 184.873L2.50598 183.02L3.71557 181.025L5.24327 178.913L7.06111 176.708L9.13802 174.436L11.4408 172.12L13.9352 169.783L16.5865 167.447L19.3608 165.132L22.2252 162.853L25.1488 160.626L28.103 158.464L31.0617 156.375L34.0018 154.369L36.9027 152.452L39.7471 150.626L42.5203 148.894L45.2101 147.257L47.8071 145.714L50.3037 144.265L52.6948 142.906L54.9766 141.634L57.1472 140.446L59.2058 139.338L61.1527 138.305L62.9892 137.344L64.7171 136.45L66.3391 135.619L67.8581 134.846L69.2772 134.126L70.6 133.457L71.83 132.834L72.9707 132.253L74.0257 131.711L74.9984 131.204L75.8923 130.729L76.7106 130.284L77.4563 129.865L78.1322 129.47L78.7411 129.096L79.2853 128.741L79.7671 128.402L80.1884 128.078L80.5511 127.767L80.8567 127.466L81.1064 127.174L81.3014 126.889L81.4424 126.609L81.5301 126.332L81.5649 126.058L81.5469 125.784L81.4761 125.508L81.3521 125.229L81.1744 124.946L80.9422 124.656L80.6546 124.358L80.3102 124.05L79.9078 123.731L79.4454 123.397L78.9213 123.047L78.3333 122.68L77.679 122.291L76.9559 121.88L76.161 121.444L75.2916 120.979L74.3443 120.483L73.3158 119.952L72.2028 119.384L71.0017 118.774L69.7089 118.12L68.3208 117.417L66.834 116.662L65.2452 115.849L63.5512 114.976L61.7496 114.036L59.838 113.027L57.8151 111.944L55.6802 110.782L53.4336 109.537L51.077 108.206L48.6135 106.786L46.0478 105.273L43.3866 103.666L40.6388 101.965L37.8156 100.168L34.9309 98.2795L32.0013 96.301L29.0461 94.2383L26.0878 92.0985L23.1515 89.8909L20.2649 87.6272L17.4585 85.3215L14.7643 82.9901L12.2162 80.6516L9.84865 78.3267L7.6961 76.0379L5.79225 73.809L4.16893 71.6646L2.8552 69.6297L1.87638 67.7289L1.25316 65.9858L1.00082 64.4222L1.12863 63.0575L1.63946 61.9081L2.52958 60.9869L3.78874 60.3028L5.40046 59.8606L7.34263 59.661L9.58813 59.7002L12.1058 59.9708L14.8615 60.4615L17.8188 61.1581L20.9405 62.0437L24.1893 63.0995L27.5287 64.3051L30.9238 65.6396L34.3422 67.0817L37.7541 68.6104L41.1327 70.2054L44.4547 71.8475L47.7 73.5187L50.8521 75.2028L53.8974 76.8848L56.8254 78.5519L59.6285 80.1927L62.3015 81.7975L64.8412 83.3582L67.2466 84.8683L69.5182 86.3223L71.6577 87.7163L73.6681 89.0472L75.553 90.313L77.317 91.5122L78.9648 92.6444L80.5015 93.7094L81.9327 94.7076L83.2635 95.6397L84.4995 96.5067L85.6459 97.3096L86.708 98.0498L87.6907 98.7285L88.5986 99.347L89.4365 99.9066L90.2085 100.408L90.9185 100.854L91.5703 101.243L92.1674 101.577L92.7129 101.856L93.2097 102.081L93.6604 102.251L94.0674 102.367L94.4328 102.427L94.7585 102.431L95.0462 102.377L95.2971 102.263L95.513 102.087L95.696 101.85L95.8485 101.551L95.9724 101.19L96.0694 100.764L96.1412 100.272L96.1892 99.7128L96.2147 99.0836L96.219 98.3816L96.2031 97.6039L96.1682 96.747L96.1153 95.8071L96.0457 94.7803L95.9603 93.6622L95.8605 92.4482L95.7474 91.1335L95.6225 89.7132L95.4874 88.182L95.3437 86.5349L95.1934 84.7666L95.0385 82.8723L94.8817 80.8471L94.7255 78.6867L94.573 76.3875L94.4277 73.9465L94.2932 71.3617L94.1738 68.6326L94.0739 65.7598L93.9985 62.7463L93.9529 59.5967L93.9425 56.3184L93.9733 52.9215L94.0512 49.419L94.1822 45.8273L94.3725 42.1664L94.6276 38.4597L94.9531 34.7344L95.3537 31.0213L95.8335 27.3543L96.3954 23.7703L97.0414 20.3089L97.7719 17.0108L98.5858 13.9181L99.4804 11.0721L100.451 8.51338L101.492 6.27965L102.595 4.40521L103.751 2.91956L104.949 1.8465L106.177 1.20329L107.423 1L108.674 1.23919L109.916 1.91584L111.138 3.01749L112.327 4.5248L113.472 6.41219L114.564 8.64877L115.594 11.1994L116.555 14.0257L117.443 17.0875L118.253 20.3435L118.985 23.7529L119.638 27.2756L120.213 30.8739L120.712 34.5121L121.139 38.1579L121.496 41.7821L121.79 45.3591L122.025 48.8669L122.206 52.2868L122.339 55.6037L122.429 58.8053L122.481 61.8825L122.501 64.8286L122.493 67.6393L122.462 70.3122L122.412 72.8466L122.348 75.2433L122.273 77.5044L122.189 79.6326L122.101 81.6316L122.01 83.5055L121.919 85.259L121.831 86.8969L121.747 88.4241L121.669 89.8458L121.598 91.1668L121.536 92.3921L121.483 93.5264L121.442 94.5744L121.413 95.5404L121.397 96.4286L121.395 97.2429L121.408 97.987L121.436 98.6642L121.481 99.2777L121.543 99.8305L121.623 100.325L121.722 100.764L121.841 101.149L121.981 101.483L122.143 101.766L122.328 102.002L122.537 102.189L122.772 102.331L123.034 102.427L123.324 102.479L123.645 102.486L123.997 102.449L124.383 102.368L124.806 102.243L125.266 102.074L125.768 101.86L126.312 101.601L126.904 101.296L127.544 100.945L128.237 100.545L128.987 100.097L129.797 99.599L130.671 99.0496L131.613 98.4477L132.628 97.792L133.721 97.0811L134.896 96.3138L136.158 95.4888L137.514 94.6051L138.967 93.6618L140.524 92.6583L142.189 91.5942L143.967 90.4697L145.863 89.2854L147.882 88.0427L150.027 86.7434L152.301 85.3904L154.705 83.9876L157.241 82.5399L159.906 81.0534L162.699 79.5356L165.615 77.9953L168.645 76.4431L171.781 74.891L175.009 73.3524L178.314 71.8426L181.676 70.378L185.072 68.9764L188.477 67.6567L191.862 66.4384L195.195 65.3413L198.442 64.3853L201.566 63.5894L204.53 62.9715L207.297 62.548L209.83 62.3326L212.094 62.3363L214.057 62.5669L215.69 63.0284L216.97 63.7209L217.877 64.6405L218.401 65.7792L218.535 67.1252L218.281 68.6633L217.646 70.3752L216.644 72.24L215.296 74.2353L213.626 76.3372L211.663 78.5215L209.439 80.764L206.988 83.0414L204.347 85.3316L201.551 87.614L198.634 89.8702L195.632 92.0838L192.576 94.2409L189.495 96.3299L186.416 98.3413L183.364 100.268L180.358 102.105L177.417 103.849L174.555 105.498L171.785 107.052L169.117 108.511L166.557 109.879L164.111 111.158L161.782 112.35L159.572 113.461L157.481 114.493L155.508 115.452L153.653 116.342L151.913 117.167L150.285 117.932L148.765 118.642L147.351 119.3L146.039 119.911L144.825 120.479L143.705 121.007L142.677 121.498L141.736 121.958L140.879 122.387L140.104 122.79L139.407 123.17L138.787 123.528L138.24 123.868L137.766 124.192L137.362 124.503L137.028 124.802L136.763 125.092L136.567 125.374L136.439 125.652L136.382 125.927L136.378 126.014Z" fill="#F9F9F9"/>
<path d="M136.378 126.014V126.014ZM136.378 126.014L136.413 126.289L136.519 126.565L136.693 126.846L136.936 127.133L137.248 127.429L137.629 127.736L138.081 128.055L138.605 128.39L139.201 128.742L139.874 129.115L140.624 129.51L141.454 129.931L142.368 130.38L143.368 130.861L144.458 131.377L145.642 131.932L146.922 132.529L148.303 133.171L149.789 133.864L151.382 134.611L153.086 135.417L154.905 136.286L156.84 137.222L158.893 138.231L161.065 139.316L163.356 140.482L165.765 141.732L168.289 143.071L170.924 144.501L173.662 146.025L176.496 147.644L179.413 149.358L182.4 151.165L185.44 153.064L188.513 155.049L191.596 157.114L194.663 159.251L197.686 161.448L200.633 163.692L203.471 165.968L206.166 168.258L208.681 170.542L210.981 172.798L213.031 175.003L214.798 177.134L216.251 179.166L217.366 181.075L218.119 182.838L218.496 184.433L218.486 185.842L218.086 187.048L217.3 188.039L216.137 188.804L214.614 189.339L212.754 189.643L210.582 189.719L208.131 189.572L205.434 189.213L202.529 188.656L199.452 187.915L196.24 187.008L192.931 185.953L189.559 184.772L186.157 183.482L182.755 182.104L179.379 180.658L176.054 179.161L172.8 177.629L169.633 176.08L166.568 174.527L163.615 172.981L160.782 171.455L158.076 169.958L155.498 168.497L153.052 167.079L150.737 165.71L148.552 164.393L146.493 163.132L144.558 161.929L142.742 160.786L141.042 159.702L139.451 158.68L137.966 157.717L136.58 156.814L135.288 155.971L134.086 155.185L132.967 154.457L131.928 153.783L130.963 153.165L130.068 152.599L129.238 152.084L128.47 151.62L127.759 151.205L127.102 150.839L126.496 150.519L125.936 150.245L125.421 150.017L124.948 149.834L124.514 149.695L124.116 149.6L123.753 149.549L123.423 149.543L123.123 149.58L122.853 149.662L122.609 149.789L122.392 149.962L122.2 150.182L122.03 150.45L121.884 150.767L121.758 151.136L121.653 151.557L121.566 152.034L121.499 152.568L121.448 153.162L121.415 153.818L121.397 154.541L121.395 155.332L121.407 156.197L121.432 157.137L121.469 158.159L121.518 159.265L121.577 160.461L121.645 161.751L121.721 163.14L121.804 164.633L121.891 166.235L121.981 167.951L122.072 169.786L122.161 171.745L122.247 173.832L122.325 176.05L122.393 178.403L122.448 180.894L122.485 183.523L122.501 186.289L122.49 189.193L122.449 192.229L122.372 195.392L122.253 198.673L122.088 202.062L121.871 205.543L121.597 209.101L121.26 212.712L120.856 216.354L120.38 219.998L119.83 223.613L119.202 227.164L118.495 230.613L117.709 233.923L116.846 237.051L115.908 239.957L114.899 242.599L113.826 244.94L112.697 246.942L111.521 248.574L110.308 249.807L109.071 250.621L107.821 251L106.573 250.938L105.337 250.434L104.128 249.496L102.958 248.14L101.837 246.386L100.775 244.263L99.7816 241.804L98.8622 239.045L98.0222 236.027L97.2649 232.79L96.592 229.376L96.0034 225.826L95.4978 222.182L95.0723 218.479L94.7234 214.755L94.4464 211.039L94.2361 207.361L94.0869 203.745L93.9927 200.212L93.9476 196.78L93.9455 193.462L93.9805 190.271L94.047 187.213L94.1396 184.295L94.2533 181.52L94.3834 178.889L94.5258 176.403L94.6763 174.059L94.8317 171.854L94.9887 169.787L95.1444 167.851L95.2964 166.043L95.4425 164.358L95.5805 162.791L95.7088 161.335L95.8258 159.988L95.93 158.742L96.0201 157.594L96.0949 156.539L96.1532 155.571L96.194 154.689L96.216 153.886L96.2183 153.16L96.1997 152.508L96.159 151.927L96.095 151.414L96.0061 150.967L95.891 150.585L95.7478 150.266L95.5747 150.01L95.3696 149.815L95.13 149.681L94.8542 149.608L94.5408 149.594L94.1882 149.636L93.7947 149.734L93.3581 149.887L92.8763 150.095L92.3466 150.357L91.7663 150.673L91.1323 151.045L90.4412 151.472L89.6893 151.956L88.8729 152.497L87.9878 153.096L87.0294 153.756L85.9932 154.476L84.8741 155.259L83.6672 156.105L82.3672 157.017L80.9686 157.994L79.4661 159.037L77.8542 160.148L76.1278 161.326L74.2819 162.571L72.3119 163.881L70.2139 165.255L67.9846 166.691L65.622 168.183L63.125 169.728L60.4943 171.32L57.7322 172.95L54.8432 174.61L51.8343 176.289L48.7149 177.974L45.4976 179.651L42.198 181.304L38.835 182.916L35.431 184.468L32.0116 185.94L28.6057 187.311L25.2449 188.56L21.9633 189.666L18.7971 190.608L15.7834 191.366L12.9595 191.924L10.3621 192.266L8.02638 192.38L5.98444 192.257L4.2648 191.893L2.89127 191.285L1.88218 190.439L1.24982 189.361L1 188.063L1.13196 186.561L1.63843 184.873L2.50598 183.02L3.71557 181.025L5.24327 178.913L7.06111 176.708L9.13802 174.436L11.4408 172.12L13.9352 169.783L16.5865 167.447L19.3608 165.132L22.2252 162.853L25.1488 160.626L28.103 158.464L31.0617 156.375L34.0018 154.369L36.9027 152.452L39.7471 150.626L42.5203 148.894L45.2101 147.257L47.8071 145.714L50.3037 144.265L52.6948 142.906L54.9766 141.634L57.1472 140.446L59.2058 139.338L61.1527 138.305L62.9892 137.344L64.7171 136.45L66.3391 135.619L67.8581 134.846L69.2772 134.126L70.6 133.457L71.83 132.834L72.9707 132.253L74.0257 131.711L74.9984 131.204L75.8923 130.729L76.7106 130.284L77.4563 129.865L78.1322 129.47L78.7411 129.096L79.2853 128.741L79.7671 128.402L80.1884 128.078L80.5511 127.767L80.8567 127.466L81.1064 127.174L81.3014 126.889L81.4424 126.609L81.5301 126.332L81.5649 126.058L81.5469 125.784L81.4761 125.508L81.3521 125.229L81.1744 124.946L80.9422 124.656L80.6546 124.358L80.3102 124.05L79.9078 123.731L79.4454 123.397L78.9213 123.047L78.3333 122.68L77.679 122.291L76.9559 121.88L76.161 121.444L75.2916 120.979L74.3443 120.483L73.3158 119.952L72.2028 119.384L71.0017 118.774L69.7089 118.12L68.3208 117.417L66.834 116.662L65.2452 115.849L63.5512 114.976L61.7496 114.036L59.838 113.027L57.8151 111.944L55.6802 110.782L53.4336 109.537L51.077 108.206L48.6135 106.786L46.0478 105.273L43.3866 103.666L40.6388 101.965L37.8156 100.168L34.9309 98.2795L32.0013 96.301L29.0461 94.2383L26.0878 92.0985L23.1515 89.8909L20.2649 87.6272L17.4585 85.3215L14.7644 82.9901L12.2162 80.6516L9.84865 78.3267L7.6961 76.0379L5.79225 73.809L4.16893 71.6646L2.8552 69.6297L1.87638 67.7289L1.25316 65.9858L1.00082 64.4222L1.12863 63.0575L1.63946 61.9081L2.52958 60.9869L3.78874 60.3028L5.40046 59.8606L7.34263 59.661L9.58813 59.7002L12.1058 59.9708L14.8615 60.4615L17.8188 61.1581L20.9405 62.0437L24.1893 63.0995L27.5287 64.3051L30.9238 65.6396L34.3422 67.0817L37.7541 68.6104L41.1327 70.2054L44.4547 71.8475L47.7 73.5187L50.8521 75.2028L53.8974 76.8848L56.8254 78.5519L59.6285 80.1927L62.3015 81.7975L64.8412 83.3582L67.2466 84.8683L69.5182 86.3223L71.6577 87.7163L73.6681 89.0472L75.553 90.313L77.317 91.5122L78.9648 92.6444L80.5015 93.7094L81.9327 94.7076L83.2635 95.6397L84.4995 96.5067L85.6459 97.3096L86.708 98.0498L87.6907 98.7285L88.5987 99.347L89.4365 99.9066L90.2085 100.408L90.9185 100.853L91.5703 101.243L92.1674 101.577L92.7129 101.856L93.2097 102.081L93.6604 102.251L94.0674 102.367L94.4328 102.427L94.7585 102.431L95.0462 102.377L95.2971 102.263L95.513 102.087L95.696 101.85L95.8485 101.551L95.9724 101.19L96.0694 100.764L96.1412 100.272L96.1892 99.7128L96.2147 99.0836L96.219 98.3816L96.2031 97.6039L96.1682 96.747L96.1153 95.8071L96.0457 94.7803L95.9603 93.6622L95.8605 92.4482L95.7474 91.1335L95.6225 89.7131L95.4874 88.182L95.3437 86.5348L95.1934 84.7666L95.0385 82.8723L94.8817 80.8471L94.7255 78.6867L94.573 76.3875L94.4276 73.9465L94.2932 71.3617L94.1738 68.6326L94.0739 65.7598L93.9985 62.7463L93.9529 59.5967L93.9425 56.3184L93.9733 52.9215L94.0512 49.419L94.1822 45.8273L94.3725 42.1664L94.6276 38.4597L94.9531 34.7344L95.3537 31.0213L95.8335 27.3543L96.3954 23.7703L97.0414 20.3089L97.7719 17.0108L98.5858 13.9181L99.4804 11.0721L100.451 8.51338L101.492 6.27965L102.595 4.40521L103.751 2.91956L104.949 1.8465L106.177 1.20329L107.423 1L108.674 1.23919L109.916 1.91584L111.138 3.01749L112.327 4.5248L113.472 6.41219L114.564 8.64877L115.594 11.1994L116.555 14.0257L117.443 17.0875L118.253 20.3435L118.985 23.7529L119.638 27.2756L120.213 30.8739L120.712 34.5121L121.139 38.1579L121.496 41.7821L121.79 45.3591L122.025 48.8669L122.206 52.2868L122.339 55.6037L122.429 58.8053L122.481 61.8825L122.501 64.8286L122.493 67.6393L122.462 70.3122L122.412 72.8466L122.348 75.2433L122.273 77.5044L122.189 79.6326L122.101 81.6316L122.01 83.5055L121.919 85.259L121.831 86.8969L121.747 88.4241L121.669 89.8458L121.598 91.1668L121.536 92.3921L121.483 93.5264L121.442 94.5744L121.413 95.5404L121.397 96.4286L121.395 97.2429L121.408 97.987L121.436 98.6642L121.481 99.2777L121.543 99.8305L121.623 100.325L121.722 100.764L121.841 101.149L121.981 101.483L122.143 101.766L122.328 102.002L122.537 102.189L122.772 102.331L123.034 102.427L123.324 102.479L123.645 102.486L123.997 102.449L124.383 102.368L124.806 102.243L125.266 102.074L125.768 101.86L126.312 101.601L126.904 101.296L127.544 100.945L128.237 100.545L128.987 100.097L129.797 99.599L130.671 99.0496L131.613 98.4477L132.628 97.792L133.721 97.0811L134.896 96.3138L136.158 95.4888L137.514 94.6051L138.967 93.6618L140.524 92.6583L142.189 91.5942L143.967 90.4697L145.863 89.2854L147.882 88.0427L150.027 86.7434L152.301 85.3904L154.705 83.9876L157.241 82.5399L159.906 81.0534L162.699 79.5356L165.615 77.9953L168.645 76.4431L171.781 74.891L175.009 73.3524L178.314 71.8426L181.676 70.378L185.072 68.9764L188.477 67.6567L191.862 66.4384L195.195 65.3413L198.442 64.3853L201.566 63.5894L204.53 62.9715L207.297 62.548L209.83 62.3326L212.094 62.3363L214.057 62.5669L215.69 63.0284L216.97 63.7209L217.877 64.6405L218.401 65.7792L218.535 67.1252L218.281 68.6633L217.646 70.3752L216.644 72.24L215.296 74.2353L213.626 76.3372L211.663 78.5215L209.439 80.764L206.988 83.0414L204.347 85.3316L201.551 87.614L198.634 89.8702L195.632 92.0838L192.576 94.2409L189.495 96.3299L186.416 98.3413L183.364 100.268L180.358 102.105L177.417 103.849L174.555 105.498L171.785 107.052L169.117 108.511L166.557 109.879L164.111 111.158L161.782 112.35L159.572 113.461L157.481 114.493L155.508 115.452L153.653 116.342L151.913 117.167L150.285 117.932L148.765 118.642L147.351 119.3L146.039 119.911L144.825 120.479L143.705 121.007L142.677 121.498L141.736 121.958L140.879 122.387L140.104 122.79L139.407 123.17L138.787 123.528L138.24 123.868L137.766 124.192L137.362 124.503L137.028 124.802L136.763 125.092L136.567 125.374L136.439 125.652L136.382 125.927L136.378 126.014Z" stroke="black" stroke-width="2" stroke-linejoin="round"/>
</svg>
