<svg width="254" height="252" viewBox="0 0 254 252" fill="none" xmlns="http://www.w3.org/2000/svg">
<path fill-rule="evenodd" clip-rule="evenodd" d="M144.052 126.028L144.174 126.2L144.535 126.38L145.139 126.575L145.999 126.792L147.136 127.04L148.579 127.329L150.363 127.672L152.536 128.082L155.15 128.576L158.265 129.173L161.946 129.897L166.258 130.772L171.263 131.826L177.007 133.087L183.512 134.581L190.762 136.331L198.681 138.347L207.122 140.623L215.85 143.132L224.54 145.817L232.783 148.592L240.116 151.341L246.067 153.926L250.209 156.199L252.222 158.024L251.945 159.288L249.401 159.926L244.792 159.923L238.466 159.316L230.867 158.183L222.469 156.636L213.725 154.795L205.022 152.781L196.665 150.7L188.866 148.641L181.755 146.669L175.39 144.829L169.778 143.147L164.891 141.637L160.675 140.301L157.068 139.133L154.004 138.124L151.416 137.264L149.244 136.539L147.435 135.939L145.941 135.453L144.721 135.072L143.744 134.788L142.981 134.597L142.413 134.493L142.022 134.477L141.798 134.548L141.734 134.71L141.829 134.967L142.084 135.327L142.505 135.801L143.103 136.403L143.893 137.15L144.895 138.065L146.132 139.173L147.633 140.507L149.434 142.103L151.571 144.004L154.087 146.258L157.024 148.916L160.423 152.032L164.316 155.657L168.723 159.835L173.64 164.59L179.03 169.922L184.811 175.789L190.844 182.097L196.931 188.685L202.81 195.325L208.17 201.723L212.677 207.539L216.005 212.414L217.884 216.018L218.137 218.091L216.713 218.485L213.696 217.186L209.296 214.315L203.813 210.108L197.596 204.88L190.998 198.974L184.34 192.728L177.882 186.438L171.815 180.34L166.263 174.605L161.288 169.341L156.906 164.605L153.1 160.414L149.831 156.753L147.048 153.592L144.696 150.891L142.722 148.603L141.074 146.686L139.707 145.097L138.582 143.802L137.665 142.768L136.93 141.972L136.355 141.395L135.923 141.026L135.623 140.86L135.448 140.9L135.391 141.15L135.447 141.613L135.611 142.297L135.884 143.22L136.27 144.405L136.775 145.885L137.407 147.701L138.179 149.9L139.102 152.541L140.189 155.685L141.454 159.402L142.905 163.761L144.549 168.825L146.38 174.646L148.384 181.246L150.529 188.608L152.761 196.654L155.004 205.23L157.16 214.094L159.108 222.909L160.718 231.259L161.861 238.674L162.427 244.679L162.341 248.852L161.579 250.886L160.171 250.634L158.199 248.134L155.788 243.602L153.085 237.391L150.241 229.945L147.394 221.729L144.656 213.185L142.109 204.688L139.804 196.529L137.763 188.914L135.989 181.964L134.47 175.736L133.183 170.239L132.102 165.443L131.198 161.302L130.446 157.755L129.82 154.739L129.299 152.194L128.863 150.061L128.495 148.291L128.183 146.839L127.915 145.668L127.681 144.747L127.472 144.052L127.281 143.564L127.103 143.271L126.93 143.164L126.758 143.241L126.581 143.505L126.393 143.96L126.187 144.621L125.957 145.505L125.695 146.634L125.391 148.039L125.033 149.756L124.609 151.828L124.102 154.304L123.494 157.24L122.764 160.699L121.887 164.742L120.836 169.429L119.583 174.812L118.102 180.923L116.37 187.76L114.372 195.276L112.108 203.359L109.597 211.82L106.885 220.38L104.048 228.676L101.195 236.276L98.4599 242.714L95.9923 247.541L93.9415 250.383L92.4366 251L91.5681 249.325L91.3752 245.476L91.8413 239.737L92.8991 232.515L94.4429 224.282L96.3459 215.511L98.4767 206.63L100.713 197.989L102.953 189.847L105.115 182.369L107.145 175.645L109.005 169.701L110.679 164.519L112.161 160.052L113.455 156.237L114.57 153.006L115.518 150.29L116.313 148.024L116.967 146.151L117.491 144.62L117.895 143.39L118.186 142.428L118.367 141.707L118.44 141.21L118.402 140.926L118.246 140.853L117.966 140.986L117.556 141.323L117.004 141.866L116.296 142.626L115.411 143.62L114.321 144.872L112.995 146.412L111.395 148.274L109.475 150.5L107.187 153.132L104.477 156.217L101.288 159.796L97.5708 163.902L93.2827 168.551L88.4022 173.733L82.939 179.399L76.9477 185.449L70.541 191.722L63.8988 197.994L57.2716 203.975L50.9708 209.335L45.3466 213.727L40.7518 216.829L37.4982 218.39L35.8114 218.269L35.7971 216.456L37.4257 213.081L40.5393 208.387L44.8793 202.698L50.1265 196.369L55.9445 189.746L62.017 183.132L68.0741 176.768L73.9059 170.823L79.3651 165.401L84.3611 160.553L88.8501 156.285L92.8241 152.574L96.2993 149.38L99.3072 146.653L101.887 144.338L104.082 142.384L105.934 140.743L107.481 139.37L108.758 138.228L109.795 137.284L110.617 136.512L111.245 135.888L111.693 135.395L111.974 135.017L112.094 134.744L112.056 134.568L111.858 134.482L111.494 134.485L110.955 134.574L110.224 134.752L109.283 135.021L108.104 135.386L106.656 135.855L104.9 136.436L102.789 137.14L100.272 137.978L97.2874 138.962L93.7715 140.104L89.6573 141.413L84.8805 142.895L79.3869 144.55L73.1426 146.366L66.1476 148.32L58.4517 150.369L50.1717 152.451L41.5062 154.483L32.7443 156.359L24.2622 157.962L16.5042 159.168L9.94466 159.865L5.03532 159.968L2.14421 159.433L1.5 158.265L3.15476 156.523L6.97515 154.313L12.6644 151.768L19.8092 149.035L27.9393 146.256L36.5867 143.549L45.3326 141.008L53.8373 138.692L61.8517 136.634L69.2147 134.843L75.8413 133.308L81.7059 132.012L86.8254 130.927L91.244 130.025L95.021 129.279L98.2218 128.663L100.911 128.154L103.151 127.732L104.994 127.38L106.488 127.083L107.672 126.829L108.574 126.607L109.219 126.41L109.618 126.228L109.778 126.055L109.695 125.883L109.372 125.705L108.807 125.513L107.988 125.3L106.897 125.058L105.506 124.776L103.779 124.443L101.671 124.044L99.131 123.565L96.0999 122.985L92.5136 122.284L88.3063 121.435L83.4158 120.411L77.7919 119.185L71.4077 117.729L64.2732 116.021L56.4528 114.048L48.0816 111.812L39.3798 109.337L30.6589 106.675L22.3148 103.907L14.8041 101.145L8.60242 98.524L4.14786 96.1914L1.7803 94.2875L1.68891 92.928L3.88122 92.1876L8.18198 92.0898L14.2621 92.6056L21.69 93.661L29.992 95.1503L38.7094 96.9527L47.4413 98.9469L55.8699 101.023L63.7682 103.091L70.9947 105.08L77.4802 106.944L83.2106 108.652L88.2105 110.19L92.5291 111.554L96.2283 112.748L99.3748 113.781L102.034 114.664L104.268 115.409L106.132 116.029L107.674 116.532L108.934 116.929L109.948 117.228L110.744 117.434L111.342 117.552L111.76 117.582L112.01 117.525L112.099 117.378L112.03 117.136L111.801 116.793L111.407 116.338L110.837 115.758L110.079 115.035L109.113 114.148L107.915 113.073L106.458 111.777L104.708 110.226L102.626 108.377L100.173 106.183L97.3063 103.592L93.9839 100.553L90.1715 97.0115L85.847 92.9245L81.0097 88.262L75.6907 83.0201L69.9644 77.2333L63.9593 70.9872L57.8651 64.4302L51.9335 57.7803L46.4683 51.3215L41.803 45.3892L38.267 40.3407L36.1427 36.5144L35.624 34.1842L36.7832 33.5183L39.557 34.5527L43.7551 37.1867L49.0887 41.2L55.213 46.2889L61.7725 52.1099L68.4402 58.3227L74.9449 64.6232L81.0838 70.7651L86.7237 76.567L91.7927 81.9107L96.2684 86.7323L100.164 91.0104L103.515 94.7539L106.372 97.9917L108.789 100.764L110.82 103.114L112.517 105.088L113.926 106.726L115.087 108.066L116.035 109.139L116.797 109.972L117.396 110.583L117.85 110.984L118.171 111.182L118.366 111.176L118.44 110.959L118.402 110.531L118.255 109.883L118 109L117.632 107.858L117.147 106.428L116.536 104.668L115.787 102.533L114.889 99.9673L113.829 96.9075L112.593 93.2865L111.172 89.0346L109.559 84.0863L107.757 78.3886L105.778 71.9126L103.653 64.6687L101.431 56.7237L99.183 48.2181L97.0061 39.3801L95.0165 30.5308L93.3439 22.076L92.1185 14.4797L91.4544 8.21996L91.433 3.73095L92.0879 1.34221L93.3976 1.22798L95.2871 3.37982L97.6375 7.60934L100.304 13.5803L103.135 20.8611L105.99 28.985L108.752 37.5042L111.333 46.0308L113.68 54.259L115.763 61.9713L117.579 69.0327L119.138 75.3766L120.46 80.9893L121.572 85.8936L122.502 90.1355L123.276 93.7731L123.921 96.8692L124.457 99.4857L124.906 101.68L125.283 103.505L125.603 105.005L125.878 106.219L126.117 107.178L126.329 107.908L126.522 108.427L126.702 108.751L126.876 108.887L127.047 108.839L127.223 108.606L127.409 108.181L127.612 107.554L127.837 106.707L128.094 105.619L128.391 104.26L128.739 102.595L129.151 100.584L129.644 98.1755L130.234 95.3161L130.944 91.9451L131.796 87.9996L132.817 83.4185L134.036 78.1488L135.478 72.1551L137.169 65.4319L139.124 58.0183L141.347 50.0148L143.821 41.5981L146.506 33.0317L149.329 24.666L152.188 16.9242L154.951 10.27L157.472 5.15921L159.599 1.98103L161.198 1L162.172 2.31281L162.472 5.83085L162.108 11.2937L161.138 18.3098L159.663 26.4144L157.809 35.1302L155.706 44.0192L153.478 52.7178L151.233 60.9533L149.054 68.5447L147.001 75.392L145.112 81.46L143.408 86.7609L141.895 91.3378L140.572 95.2517L139.43 98.571L138.456 101.365L137.637 103.698L136.962 105.631L136.417 107.213L135.995 108.488L135.686 109.491L135.488 110.249L135.397 110.781L135.417 111.099L135.554 111.205L135.814 111.104L136.203 110.8L136.731 110.29L137.413 109.566L138.268 108.61L139.324 107.401L140.61 105.91L142.164 104.101L144.029 101.936L146.255 99.3715L148.894 96.3617L152.003 92.8643L155.633 88.8442L159.828 84.2818L164.614 79.1824L169.987 73.5883L175.9 67.5903L182.25 61.3387L188.87 55.0493L195.519 49.0003L201.895 43.518L207.651 38.9493L212.432 35.6228L215.917 33.8035L217.864 33.6529L218.146 35.2012L216.772 38.3411L213.879 42.845L209.714 48.3995L204.589 54.6507L198.84 61.2485L192.788 67.8813L186.713 74.2987L180.834 80.3193L175.308 85.8286L170.234 90.7695L165.663 95.1292L161.608 98.9262L158.055 102.199L154.975 104.998L152.33 107.374L150.076 109.382L148.173 111.071L146.58 112.483L145.262 113.66L144.188 114.633L143.333 115.431L142.676 116.077L142.2 116.591L141.893 116.986L141.747 117.275L141.76 117.466L141.933 117.565L142.269 117.577L142.78 117.501L143.479 117.338L144.385 117.084L145.524 116.735L146.927 116.283L148.631 115.72L150.682 115.037L153.131 114.221L156.037 113.261L159.463 112.145L163.478 110.863L168.145 109.408L173.522 107.78L179.645 105.989L186.522 104.055L194.113 102.017L202.311 99.9348L210.932 97.8887L219.701 95.9801L228.256 94.3257L236.161 93.0485L242.943 92.2633L248.143 92.0613L251.375 92.4943L252.385 93.5643L251.092 95.2203L247.601 97.3646L242.184 99.866L235.24 102.578L227.235 105.359L218.64 108.084L209.885 110.657L201.323 113.011L193.217 115.111L185.743 116.945L178.996 118.519L173.01 119.852L167.775 120.969L163.248 121.898L159.373 122.667L156.085 123.302L153.318 123.826L151.011 124.261L149.108 124.624L147.561 124.929L146.33 125.189L145.385 125.415L144.7 125.615L144.263 125.799L144.065 125.973L144.052 126.028Z" fill="#F9F9F9"/>
<path d="M144.052 126.028V126.028ZM144.052 126.028L144.174 126.2L144.535 126.38L145.139 126.575L145.999 126.792L147.136 127.04L148.579 127.329L150.363 127.672L152.536 128.082L155.15 128.576L158.265 129.173L161.946 129.897L166.258 130.772L171.263 131.826L177.007 133.087L183.512 134.581L190.762 136.331L198.681 138.347L207.122 140.623L215.85 143.132L224.54 145.817L232.783 148.592L240.116 151.341L246.067 153.926L250.209 156.199L252.222 158.024L251.945 159.288L249.401 159.926L244.792 159.923L238.466 159.316L230.867 158.183L222.469 156.636L213.725 154.795L205.022 152.781L196.665 150.7L188.866 148.641L181.755 146.669L175.39 144.829L169.778 143.147L164.891 141.637L160.675 140.301L157.068 139.133L154.004 138.124L151.416 137.264L149.244 136.539L147.435 135.939L145.941 135.453L144.721 135.072L143.744 134.788L142.981 134.597L142.413 134.493L142.022 134.477L141.798 134.548L141.734 134.71L141.829 134.967L142.084 135.327L142.505 135.801L143.103 136.403L143.893 137.15L144.895 138.065L146.132 139.173L147.633 140.507L149.434 142.103L151.571 144.004L154.087 146.258L157.024 148.916L160.423 152.032L164.316 155.657L168.723 159.835L173.64 164.59L179.03 169.922L184.811 175.789L190.844 182.097L196.931 188.685L202.81 195.325L208.17 201.723L212.677 207.539L216.005 212.414L217.884 216.018L218.137 218.091L216.713 218.485L213.696 217.186L209.296 214.315L203.813 210.108L197.596 204.88L190.998 198.974L184.34 192.728L177.882 186.438L171.815 180.34L166.263 174.605L161.288 169.341L156.906 164.605L153.1 160.414L149.831 156.753L147.048 153.592L144.696 150.891L142.722 148.603L141.074 146.686L139.707 145.097L138.582 143.802L137.665 142.768L136.93 141.972L136.355 141.395L135.923 141.026L135.623 140.86L135.448 140.9L135.391 141.15L135.447 141.613L135.611 142.297L135.884 143.22L136.27 144.405L136.775 145.885L137.407 147.701L138.179 149.9L139.102 152.541L140.189 155.685L141.454 159.402L142.905 163.761L144.549 168.825L146.38 174.646L148.384 181.246L150.529 188.608L152.761 196.654L155.004 205.23L157.16 214.094L159.108 222.909L160.718 231.259L161.861 238.674L162.427 244.679L162.341 248.852L161.579 250.886L160.171 250.634L158.199 248.134L155.788 243.602L153.085 237.391L150.241 229.945L147.394 221.729L144.656 213.185L142.109 204.688L139.804 196.529L137.763 188.914L135.989 181.964L134.47 175.736L133.183 170.239L132.102 165.443L131.198 161.302L130.446 157.755L129.82 154.739L129.299 152.194L128.863 150.061L128.495 148.291L128.183 146.839L127.915 145.668L127.681 144.747L127.472 144.052L127.281 143.564L127.103 143.271L126.93 143.164L126.758 143.241L126.581 143.505L126.393 143.96L126.187 144.621L125.957 145.505L125.695 146.634L125.391 148.039L125.033 149.756L124.609 151.828L124.102 154.304L123.494 157.24L122.764 160.699L121.887 164.742L120.836 169.429L119.583 174.812L118.102 180.923L116.37 187.76L114.372 195.276L112.108 203.359L109.597 211.82L106.885 220.38L104.048 228.676L101.195 236.276L98.4599 242.714L95.9923 247.541L93.9415 250.383L92.4366 251L91.5681 249.325L91.3752 245.476L91.8413 239.737L92.8991 232.515L94.4429 224.282L96.346 215.511L98.4767 206.63L100.713 197.989L102.953 189.847L105.115 182.369L107.145 175.645L109.005 169.701L110.679 164.519L112.161 160.052L113.455 156.237L114.57 153.006L115.518 150.29L116.313 148.024L116.967 146.151L117.491 144.62L117.895 143.39L118.186 142.428L118.367 141.707L118.44 141.21L118.402 140.926L118.246 140.853L117.966 140.986L117.556 141.323L117.004 141.866L116.296 142.626L115.411 143.62L114.321 144.872L112.995 146.412L111.395 148.274L109.475 150.5L107.187 153.132L104.477 156.217L101.288 159.796L97.5708 163.902L93.2827 168.551L88.4022 173.733L82.939 179.399L76.9477 185.449L70.541 191.722L63.8988 197.994L57.2716 203.975L50.9708 209.335L45.3466 213.727L40.7518 216.829L37.4982 218.39L35.8114 218.269L35.7971 216.456L37.4257 213.081L40.5393 208.387L44.8793 202.698L50.1265 196.369L55.9445 189.746L62.017 183.132L68.0741 176.768L73.9059 170.823L79.3651 165.401L84.3611 160.553L88.8501 156.285L92.8241 152.574L96.2993 149.38L99.3072 146.653L101.887 144.338L104.082 142.384L105.934 140.743L107.481 139.37L108.758 138.228L109.795 137.284L110.617 136.512L111.245 135.888L111.693 135.395L111.974 135.017L112.094 134.744L112.056 134.568L111.858 134.482L111.494 134.485L110.955 134.574L110.224 134.752L109.283 135.021L108.104 135.386L106.656 135.855L104.9 136.436L102.789 137.14L100.272 137.978L97.2874 138.962L93.7715 140.104L89.6573 141.413L84.8805 142.895L79.3869 144.55L73.1426 146.366L66.1476 148.32L58.4517 150.369L50.1717 152.451L41.5062 154.483L32.7443 156.359L24.2622 157.962L16.5042 159.168L9.94466 159.865L5.03532 159.968L2.14421 159.433L1.5 158.265L3.15476 156.523L6.97515 154.313L12.6644 151.768L19.8092 149.035L27.9393 146.256L36.5867 143.549L45.3327 141.008L53.8373 138.692L61.8517 136.634L69.2147 134.843L75.8413 133.308L81.7059 132.012L86.8254 130.927L91.244 130.025L95.021 129.279L98.2218 128.663L100.911 128.154L103.151 127.732L104.994 127.38L106.488 127.083L107.672 126.829L108.574 126.607L109.219 126.41L109.618 126.228L109.778 126.055L109.695 125.883L109.372 125.705L108.807 125.513L107.988 125.3L106.897 125.058L105.506 124.776L103.779 124.443L101.671 124.044L99.131 123.565L96.0999 122.985L92.5136 122.284L88.3063 121.435L83.4158 120.411L77.7919 119.185L71.4077 117.729L64.2732 116.021L56.4528 114.048L48.0816 111.812L39.3798 109.337L30.6589 106.675L22.3148 103.907L14.8041 101.145L8.60242 98.524L4.14786 96.1914L1.7803 94.2875L1.68891 92.928L3.88122 92.1876L8.18198 92.0898L14.2621 92.6056L21.69 93.661L29.992 95.1503L38.7094 96.9527L47.4413 98.9469L55.8699 101.023L63.7682 103.091L70.9947 105.08L77.4802 106.944L83.2106 108.652L88.2105 110.19L92.5291 111.554L96.2283 112.748L99.3748 113.781L102.034 114.664L104.268 115.409L106.132 116.029L107.674 116.532L108.934 116.929L109.948 117.228L110.744 117.434L111.342 117.552L111.76 117.582L112.01 117.525L112.099 117.378L112.03 117.136L111.801 116.793L111.407 116.338L110.837 115.758L110.079 115.035L109.113 114.148L107.915 113.073L106.458 111.777L104.708 110.226L102.626 108.377L100.173 106.183L97.3063 103.592L93.9839 100.553L90.1715 97.0115L85.847 92.9245L81.0097 88.262L75.6907 83.0201L69.9644 77.2333L63.9593 70.9872L57.8651 64.4302L51.9335 57.7803L46.4683 51.3215L41.803 45.3892L38.267 40.3407L36.1427 36.5144L35.624 34.1842L36.7832 33.5183L39.557 34.5527L43.7551 37.1867L49.0887 41.2L55.213 46.2889L61.7725 52.1099L68.4402 58.3227L74.9449 64.6232L81.0838 70.7651L86.7237 76.567L91.7927 81.9107L96.2684 86.7323L100.164 91.0104L103.515 94.7539L106.372 97.9917L108.789 100.764L110.82 103.114L112.517 105.088L113.926 106.726L115.087 108.066L116.035 109.139L116.797 109.972L117.396 110.583L117.85 110.984L118.171 111.182L118.366 111.176L118.44 110.959L118.402 110.531L118.255 109.883L118 109L117.632 107.858L117.147 106.428L116.536 104.668L115.787 102.533L114.889 99.9673L113.829 96.9075L112.593 93.2865L111.172 89.0346L109.559 84.0863L107.757 78.3886L105.778 71.9126L103.653 64.6687L101.431 56.7237L99.183 48.2181L97.0061 39.3801L95.0165 30.5308L93.3439 22.076L92.1185 14.4797L91.4544 8.21996L91.433 3.73095L92.0879 1.34221L93.3976 1.22798L95.2871 3.37982L97.6375 7.60934L100.304 13.5803L103.135 20.8611L105.99 28.985L108.752 37.5042L111.333 46.0308L113.68 54.259L115.763 61.9713L117.579 69.0327L119.138 75.3766L120.46 80.9893L121.572 85.8936L122.502 90.1355L123.276 93.7731L123.921 96.8692L124.457 99.4857L124.906 101.68L125.283 103.505L125.603 105.005L125.878 106.219L126.117 107.178L126.329 107.908L126.522 108.427L126.702 108.751L126.876 108.887L127.047 108.839L127.223 108.606L127.409 108.181L127.612 107.554L127.837 106.707L128.094 105.619L128.391 104.26L128.739 102.595L129.151 100.584L129.644 98.1755L130.234 95.3161L130.944 91.9451L131.796 87.9996L132.817 83.4185L134.036 78.1488L135.478 72.1551L137.169 65.4319L139.124 58.0183L141.347 50.0148L143.821 41.5981L146.506 33.0317L149.329 24.666L152.188 16.9242L154.951 10.27L157.472 5.15921L159.599 1.98103L161.198 1L162.172 2.31281L162.472 5.83085L162.108 11.2937L161.138 18.3098L159.663 26.4144L157.809 35.1302L155.706 44.0192L153.478 52.7178L151.233 60.9533L149.054 68.5447L147.001 75.392L145.112 81.4599L143.408 86.7609L141.895 91.3378L140.572 95.2517L139.43 98.571L138.456 101.365L137.637 103.698L136.962 105.631L136.417 107.213L135.995 108.488L135.686 109.491L135.488 110.249L135.397 110.781L135.417 111.098L135.554 111.205L135.814 111.104L136.203 110.8L136.731 110.29L137.413 109.566L138.268 108.61L139.324 107.401L140.61 105.91L142.164 104.101L144.029 101.936L146.255 99.3715L148.894 96.3617L152.003 92.8643L155.633 88.8442L159.828 84.2818L164.614 79.1824L169.987 73.5883L175.9 67.5903L182.25 61.3387L188.87 55.0493L195.519 49.0003L201.895 43.518L207.651 38.9493L212.432 35.6228L215.917 33.8035L217.864 33.6529L218.146 35.2012L216.772 38.3411L213.879 42.845L209.714 48.3995L204.589 54.6507L198.84 61.2485L192.789 67.8813L186.713 74.2987L180.834 80.3193L175.308 85.8286L170.234 90.7695L165.663 95.1291L161.608 98.9262L158.055 102.199L154.975 104.998L152.33 107.374L150.076 109.382L148.173 111.071L146.58 112.483L145.262 113.66L144.188 114.633L143.333 115.431L142.676 116.077L142.2 116.591L141.893 116.986L141.747 117.275L141.76 117.466L141.933 117.565L142.269 117.577L142.78 117.501L143.479 117.338L144.385 117.084L145.524 116.735L146.927 116.283L148.631 115.72L150.682 115.037L153.131 114.221L156.037 113.261L159.463 112.145L163.478 110.863L168.145 109.408L173.522 107.78L179.645 105.989L186.522 104.055L194.113 102.017L202.311 99.9348L210.932 97.8887L219.701 95.9801L228.256 94.3257L236.161 93.0485L242.943 92.2633L248.143 92.0613L251.375 92.4943L252.385 93.5643L251.092 95.2203L247.601 97.3646L242.184 99.866L235.24 102.578L227.235 105.359L218.64 108.084L209.885 110.657L201.323 113.011L193.217 115.111L185.743 116.945L178.996 118.519L173.01 119.852L167.775 120.969L163.248 121.898L159.373 122.667L156.085 123.302L153.318 123.826L151.011 124.261L149.108 124.624L147.561 124.929L146.33 125.189L145.385 125.415L144.7 125.615L144.263 125.799L144.065 125.973L144.052 126.028Z" stroke="black" stroke-width="2" stroke-linejoin="round"/>
</svg>
