<svg width="253" height="252" viewBox="0 0 253 252" fill="none" xmlns="http://www.w3.org/2000/svg">
<path fill-rule="evenodd" clip-rule="evenodd" d="M134.1 125.979L134.158 126.061L134.334 126.146L134.636 126.238L135.075 126.342L135.669 126.463L136.443 126.606L137.429 126.78L138.668 126.994L140.214 127.261L142.131 127.597L144.5 128.021L147.419 128.561L150.998 129.246L155.363 130.116L160.647 131.214L166.975 132.59L174.442 134.293L183.082 136.364L192.824 138.829L203.444 141.676L214.528 144.846L225.451 148.216L235.411 151.595L243.516 154.735L248.925 157.364L251.019 159.234L249.538 160.166L244.648 160.094L236.899 159.07L227.101 157.25L216.155 154.855L204.905 152.124L194.026 149.276L183.982 146.486L175.038 143.875L167.289 141.516L160.718 139.441L155.232 137.65L150.704 136.129L146.999 134.853L143.984 133.791L141.54 132.914L139.565 132.195L137.973 131.611L136.694 131.14L135.673 130.766L134.863 130.476L134.231 130.259L133.75 130.107L133.4 130.015L133.165 129.981L133.037 130.002L133.011 130.08L133.085 130.219L133.261 130.424L133.548 130.704L133.955 131.071L134.499 131.54L135.202 132.133L136.092 132.876L137.206 133.804L138.589 134.958L140.296 136.394L142.394 138.177L144.962 140.385L148.085 143.111L151.856 146.455L156.365 150.525L161.679 155.417L167.83 161.203L174.777 167.895L182.376 175.415L190.351 183.558L198.276 191.963L205.588 200.113L211.646 207.371L215.823 213.067L217.629 216.613L216.822 217.63L213.467 216.026L207.922 212.023L200.764 206.093L192.661 198.856L184.256 190.959L176.076 182.97L168.497 175.329L161.735 168.323L155.877 162.106L150.915 156.725L146.783 152.155L143.385 148.328L140.614 145.157L138.368 142.548L136.555 140.416L135.094 138.68L133.919 137.274L132.975 136.14L132.218 135.233L131.615 134.517L131.136 133.961L130.762 133.543L130.476 133.248L130.265 133.063L130.121 132.981L130.038 132.999L130.013 133.119L130.043 133.345L130.13 133.686L130.277 134.156L130.488 134.775L130.772 135.569L131.139 136.572L131.601 137.828L132.176 139.393L132.883 141.335L133.747 143.738L134.793 146.703L136.051 150.349L137.552 154.806L139.32 160.21L141.373 166.692L143.71 174.344L146.302 183.195L149.082 193.158L151.931 203.986L154.679 215.228L157.109 226.227L158.983 236.15L160.078 244.095L160.23 249.237L159.376 251L157.576 249.187L154.998 244.023L151.889 236.104L148.52 226.259L145.141 215.381L141.95 204.285L139.074 193.609L136.578 183.787L134.476 175.055L132.745 167.495L131.345 161.079L130.226 155.716L129.34 151.283L128.641 147.646L128.092 144.679L127.659 142.27L127.317 140.32L127.045 138.747L126.827 137.486L126.651 136.481L126.505 135.692L126.383 135.084L126.278 134.634L126.185 134.321L126.1 134.135L126.018 134.068L125.937 134.117L125.852 134.284L125.76 134.575L125.658 135.003L125.538 135.584L125.397 136.342L125.226 137.31L125.016 138.527L124.753 140.046L124.424 141.931L124.007 144.261L123.478 147.131L122.806 150.653L121.952 154.951L120.874 160.158L119.522 166.398L117.847 173.772L115.806 182.32L113.373 191.979L110.555 202.542L107.407 213.609L104.046 224.573L100.66 234.642L97.4911 242.927L94.8111 248.577L92.8731 250.95L91.8619 249.754L91.8548 245.12L92.8078 237.571L94.5718 227.903L96.9297 217.016L99.6425 205.763L102.488 194.834L105.288 184.712L107.916 175.674L110.297 167.83L112.395 161.168L114.208 155.599L115.75 151.001L117.045 147.235L118.123 144.17L119.013 141.684L119.744 139.675L120.338 138.055L120.817 136.754L121.198 135.714L121.495 134.889L121.717 134.244L121.874 133.751L121.97 133.391L122.009 133.148L121.992 133.012L121.919 132.977L121.785 133.043L121.586 133.211L121.312 133.488L120.953 133.885L120.492 134.418L119.91 135.107L119.18 135.982L118.269 137.076L117.134 138.436L115.722 140.115L113.97 142.179L111.799 144.706L109.118 147.781L105.827 151.498L101.819 155.945L96.995 161.193L91.2822 167.278L84.6611 174.165L77.2011 181.72L69.0966 189.679L60.6954 197.627L52.5033 205.011L45.1494 211.193L39.3057 215.54L35.5704 217.548L34.3449 216.951L35.7439 213.788L39.5709 208.399L45.369 201.346L52.5255 193.293L60.3932 184.891L68.3925 176.678L76.074 169.04L83.1373 162.209L89.4198 156.278L94.8672 151.247L99.4999 147.052L103.383 143.599L106.603 140.782L109.253 138.498L111.421 136.653L113.185 135.167L114.616 133.971L115.769 133.01L116.692 132.24L117.423 131.626L117.991 131.138L118.419 130.756L118.724 130.463L118.917 130.247L119.007 130.098L118.997 130.011L118.885 129.98L118.668 130.006L118.337 130.089L117.878 130.23L117.271 130.437L116.492 130.714L115.507 131.074L114.273 131.528L112.735 132.094L110.826 132.79L108.463 133.639L105.547 134.67L101.96 135.91L97.5731 137.39L92.2486 139.137L85.8573 141.166L78.3 143.481L69.5431 146.055L59.6619 148.824L48.8899 151.673L37.6587 154.436L26.612 156.901L16.5701 158.828L8.43584 159.991L3.04527 160.222L1 159.448L2.53129 157.718L7.4458 155.194L15.1734 152.118L24.8983 148.759L35.7256 145.373L46.8309 142.161L57.5583 139.257L67.4594 136.73L76.2829 134.597L83.9365 132.838L90.4405 131.413L95.883 130.274L100.386 129.371L104.082 128.659L107.097 128.099L109.547 127.658L111.531 127.309L113.13 127.033L114.415 126.811L115.438 126.631L116.243 126.484L116.864 126.36L117.327 126.254L117.649 126.16L117.845 126.074L117.922 125.992L117.882 125.911L117.725 125.827L117.444 125.736L117.028 125.634L116.459 125.517L115.716 125.377L114.767 125.209L113.571 125.002L112.078 124.744L110.225 124.421L107.934 124.012L105.11 123.493L101.645 122.833L97.4131 121.996L92.2839 120.937L86.1298 119.608L78.8486 117.961L70.3941 115.95L60.8175 113.549L50.3145 110.76L39.2681 107.635L28.2694 104.286L18.097 100.893L9.63746 97.697L3.75011 94.9682L1.10032 92.9631L2.01133 91.8737L6.38608 91.7867L13.7293 92.6675L23.2617 94.3743L34.0838 96.6937L45.3357 99.3867L56.311 102.229L66.5101 105.038L75.6399 107.683L83.5799 110.085L90.3342 112.207L95.9853 114.042L100.656 115.604L104.483 116.918L107.6 118.012L110.127 118.916L112.171 119.658L113.819 120.263L115.143 120.751L116.203 121.139L117.043 121.442L117.701 121.67L118.205 121.831L118.576 121.932L118.828 121.976L118.972 121.964L119.015 121.895L118.957 121.766L118.797 121.572L118.529 121.305L118.142 120.953L117.621 120.501L116.945 119.929L116.086 119.212L115.011 118.317L113.674 117.201L112.023 115.814L109.992 114.092L107.505 111.957L104.476 109.321L100.814 106.082L96.4288 102.135L91.2458 97.3789L85.2276 91.7384L78.4012 85.1886L70.8911 77.7901L62.9513 69.7263L54.9842 61.3321L47.5324 53.1016L41.2311 45.6563L36.7168 39.6686L34.509 35.7473L34.8959 34.3137L37.8629 35.5069L43.0929 39.1544L50.0377 44.8167L58.0352 51.889L66.4316 59.7227L74.6762 67.73L82.3695 75.4497L89.2706 82.5699L95.2741 88.9178L100.375 94.4317L104.633 99.1273L108.141 103.067L111.005 106.337L113.328 109.029L115.205 111.232L116.717 113.026L117.934 114.48L118.911 115.654L119.695 116.594L120.321 117.339L120.818 117.919L121.208 118.357L121.507 118.671L121.729 118.874L121.883 118.971L121.975 118.969L122.01 118.866L121.989 118.657L121.911 118.335L121.774 117.887L121.573 117.293L121.301 116.529L120.949 115.562L120.502 114.349L119.947 112.838L119.262 110.962L118.425 108.638L117.41 105.77L116.187 102.241L114.728 97.9228L113.003 92.678L110.996 86.3758L108.704 78.9137L106.148 70.2513L103.392 60.4534L100.544 49.7393L97.7666 38.5239L95.2698 27.4343L93.2911 17.2796L92.0594 8.96084L91.7504 3.32563L92.4444 1L94.1026 2.24801L96.5715 6.90968L99.6143 14.441L102.96 24.0396L106.352 34.8111L109.584 45.9208L112.515 56.6976L115.074 66.6761L117.238 75.5905L119.025 83.3378L120.475 89.9307L121.635 95.4536L122.555 100.027L123.281 103.782L123.852 106.847L124.302 109.338L124.657 111.355L124.938 112.983L125.164 114.29L125.346 115.333L125.496 116.154L125.622 116.789L125.729 117.263L125.824 117.596L125.91 117.802L125.992 117.888L126.073 117.857L126.157 117.71L126.247 117.439L126.348 117.034L126.464 116.479L126.601 115.75L126.767 114.818L126.971 113.644L127.224 112.177L127.541 110.356L127.943 108.102L128.452 105.325L129.099 101.915L129.921 97.749L130.96 92.6961L132.266 86.6279L133.886 79.4391L135.866 71.0778L138.236 61.5855L140.995 51.145L144.097 40.1229L147.434 29.094L150.831 18.824L154.053 10.1952L156.829 4.07505L158.9 1.15034L160.067 1.77568L160.234 5.88802L159.426 13.0206L157.778 22.4111L155.499 33.1635L152.827 44.4096L149.989 55.428L147.172 65.7023L144.51 74.9236L142.087 82.9595L139.942 89.806L138.085 95.5408L136.502 100.285L135.169 104.174L134.059 107.342L133.14 109.913L132.386 111.992L131.771 113.668L131.275 115.016L130.879 116.095L130.57 116.951L130.337 117.623L130.17 118.138L130.064 118.518L130.016 118.78L130.024 118.932L130.088 118.983L130.212 118.933L130.401 118.781L130.662 118.522L131.007 118.145L131.45 117.635L132.011 116.972L132.715 116.13L133.595 115.073L134.691 113.759L136.055 112.135L137.748 110.137L139.847 107.69L142.439 104.707L145.626 101.099L149.513 96.7743L154.201 91.6568L159.77 85.7052L166.248 78.9401L173.584 71.477L181.605 63.5587L189.989 55.5755L198.254 48.0602L205.786 41.6432L211.914 36.9652L216.018 34.5595L217.659 34.7361L216.673 37.5056L213.208 42.5731L207.685 49.405L200.701 57.3433L192.905 65.73L184.893 74.0034L177.137 81.7515L169.961 88.7211L163.548 94.7973L157.968 99.9688L153.209 104.291L149.211 107.855L145.892 110.766L143.157 113.128L140.919 115.037L139.095 116.576L137.615 117.814L136.421 118.809L135.464 119.607L134.704 120.244L134.112 120.75L133.663 121.148L133.34 121.454L133.129 121.682L133.023 121.841L133.018 121.938L133.113 121.977L133.313 121.96L133.625 121.887L134.063 121.755L134.644 121.559L135.394 121.294L136.343 120.948L137.535 120.509L139.02 119.963L140.864 119.289L143.149 118.466L145.97 117.466L149.441 116.261L153.692 114.821L158.858 113.119L165.072 111.135L172.439 108.864L181.006 106.328L190.719 103.585L201.373 100.739L212.569 97.9483L223.696 95.4206L233.958 93.3919L242.456 92.0933L248.331 91.7064L250.936 92.3203L249.972 93.906L245.567 96.3182L238.237 99.3251L228.77 102.656L218.06 106.053L206.95 109.304L196.127 112.263L186.073 114.852L177.068 117.048L169.227 118.864L162.544 120.339L156.94 121.52L152.297 122.458L148.481 123.197L145.365 123.779L142.832 124.237L140.781 124.599L139.125 124.886L137.794 125.115L136.733 125.301L135.895 125.453L135.246 125.58L134.76 125.689L134.416 125.784L134.201 125.871L134.106 125.953L134.1 125.979Z" fill="#F9F9F9"/>
<path d="M134.1 125.979V125.979ZM134.1 125.979L134.158 126.061L134.334 126.146L134.636 126.238L135.075 126.342L135.669 126.463L136.443 126.606L137.429 126.78L138.668 126.994L140.214 127.261L142.131 127.597L144.5 128.021L147.419 128.561L150.998 129.246L155.363 130.116L160.647 131.214L166.975 132.59L174.442 134.293L183.082 136.364L192.824 138.829L203.444 141.676L214.528 144.846L225.451 148.216L235.411 151.595L243.516 154.735L248.925 157.364L251.019 159.234L249.538 160.166L244.648 160.094L236.899 159.07L227.101 157.25L216.155 154.855L204.905 152.124L194.026 149.276L183.982 146.486L175.038 143.875L167.289 141.516L160.718 139.441L155.232 137.65L150.704 136.129L146.999 134.853L143.984 133.791L141.54 132.914L139.565 132.195L137.973 131.611L136.694 131.14L135.673 130.766L134.863 130.476L134.231 130.259L133.75 130.107L133.4 130.015L133.165 129.981L133.037 130.002L133.011 130.08L133.085 130.219L133.261 130.424L133.547 130.704L133.955 131.071L134.499 131.54L135.202 132.133L136.092 132.876L137.206 133.804L138.589 134.958L140.296 136.394L142.394 138.177L144.962 140.385L148.085 143.111L151.856 146.455L156.365 150.525L161.679 155.417L167.83 161.203L174.777 167.895L182.376 175.415L190.351 183.558L198.276 191.963L205.588 200.113L211.646 207.371L215.823 213.067L217.629 216.613L216.822 217.63L213.467 216.026L207.922 212.023L200.764 206.093L192.661 198.856L184.256 190.959L176.076 182.97L168.497 175.329L161.735 168.323L155.877 162.106L150.915 156.725L146.783 152.155L143.385 148.328L140.614 145.157L138.368 142.548L136.555 140.416L135.094 138.68L133.919 137.274L132.975 136.14L132.218 135.233L131.615 134.517L131.136 133.961L130.762 133.543L130.476 133.248L130.265 133.063L130.121 132.981L130.038 132.999L130.013 133.119L130.043 133.345L130.13 133.686L130.277 134.156L130.488 134.775L130.772 135.569L131.139 136.572L131.601 137.828L132.176 139.393L132.883 141.335L133.747 143.738L134.793 146.703L136.051 150.349L137.552 154.806L139.32 160.21L141.373 166.692L143.71 174.344L146.302 183.195L149.082 193.158L151.931 203.986L154.679 215.228L157.109 226.227L158.983 236.15L160.078 244.095L160.23 249.237L159.376 251L157.576 249.187L154.998 244.023L151.889 236.104L148.52 226.259L145.141 215.381L141.95 204.285L139.074 193.609L136.578 183.787L134.476 175.055L132.745 167.495L131.345 161.079L130.226 155.716L129.34 151.283L128.641 147.646L128.092 144.679L127.659 142.27L127.317 140.32L127.045 138.747L126.827 137.486L126.651 136.481L126.505 135.692L126.383 135.084L126.278 134.634L126.185 134.321L126.1 134.135L126.018 134.068L125.937 134.117L125.852 134.284L125.76 134.575L125.658 135.003L125.538 135.584L125.397 136.342L125.226 137.31L125.016 138.527L124.753 140.046L124.424 141.931L124.007 144.261L123.478 147.131L122.806 150.653L121.952 154.951L120.874 160.158L119.522 166.398L117.847 173.772L115.806 182.32L113.373 191.979L110.555 202.542L107.407 213.609L104.046 224.573L100.66 234.642L97.4911 242.927L94.8111 248.577L92.8731 250.95L91.8619 249.754L91.8548 245.12L92.8078 237.571L94.5718 227.903L96.9297 217.016L99.6425 205.763L102.488 194.834L105.288 184.712L107.916 175.674L110.297 167.83L112.395 161.168L114.208 155.599L115.75 151.001L117.045 147.235L118.123 144.17L119.013 141.684L119.744 139.675L120.338 138.055L120.817 136.754L121.198 135.714L121.495 134.889L121.717 134.244L121.874 133.751L121.97 133.391L122.009 133.148L121.992 133.012L121.919 132.977L121.785 133.043L121.586 133.211L121.312 133.488L120.953 133.885L120.492 134.418L119.91 135.107L119.18 135.982L118.269 137.076L117.134 138.436L115.722 140.115L113.97 142.179L111.799 144.706L109.118 147.781L105.827 151.498L101.819 155.945L96.9951 161.193L91.2822 167.278L84.6612 174.165L77.2011 181.72L69.0966 189.679L60.6954 197.627L52.5033 205.011L45.1494 211.193L39.3057 215.54L35.5704 217.548L34.3449 216.951L35.7439 213.788L39.5709 208.399L45.369 201.346L52.5255 193.293L60.3932 184.891L68.3925 176.678L76.074 169.04L83.1373 162.209L89.4198 156.278L94.8672 151.247L99.4999 147.052L103.383 143.599L106.603 140.782L109.253 138.498L111.421 136.653L113.185 135.167L114.616 133.971L115.769 133.01L116.692 132.24L117.423 131.626L117.991 131.138L118.419 130.756L118.724 130.463L118.917 130.247L119.007 130.098L118.997 130.011L118.885 129.98L118.668 130.006L118.337 130.089L117.878 130.23L117.271 130.437L116.492 130.714L115.507 131.074L114.273 131.528L112.735 132.094L110.826 132.79L108.463 133.639L105.547 134.67L101.96 135.91L97.5731 137.39L92.2487 139.137L85.8573 141.166L78.3 143.481L69.5431 146.055L59.6619 148.824L48.8898 151.673L37.6587 154.436L26.612 156.901L16.5701 158.828L8.43584 159.991L3.04527 160.222L1 159.448L2.53129 157.718L7.4458 155.194L15.1734 152.118L24.8983 148.759L35.7256 145.373L46.8309 142.161L57.5583 139.257L67.4594 136.73L76.2829 134.597L83.9365 132.838L90.4405 131.413L95.883 130.274L100.386 129.371L104.082 128.659L107.097 128.099L109.547 127.658L111.531 127.309L113.13 127.033L114.415 126.811L115.438 126.631L116.243 126.484L116.864 126.36L117.327 126.254L117.649 126.16L117.845 126.074L117.922 125.992L117.882 125.911L117.725 125.827L117.444 125.736L117.028 125.634L116.459 125.517L115.716 125.377L114.767 125.209L113.571 125.002L112.078 124.744L110.225 124.421L107.934 124.012L105.11 123.493L101.645 122.833L97.4131 121.996L92.2839 120.937L86.1298 119.608L78.8486 117.961L70.3941 115.95L60.8175 113.549L50.3145 110.76L39.2681 107.635L28.2694 104.286L18.097 100.893L9.63746 97.697L3.75011 94.9682L1.10032 92.9631L2.01133 91.8738L6.38608 91.7867L13.7293 92.6675L23.2617 94.3742L34.0838 96.6937L45.3357 99.3867L56.311 102.229L66.5101 105.038L75.6399 107.683L83.5799 110.085L90.3342 112.207L95.9853 114.042L100.656 115.604L104.483 116.918L107.6 118.012L110.127 118.916L112.171 119.658L113.819 120.263L115.143 120.751L116.203 121.139L117.043 121.442L117.701 121.67L118.205 121.831L118.576 121.932L118.828 121.976L118.972 121.964L119.015 121.895L118.957 121.766L118.797 121.572L118.529 121.305L118.142 120.953L117.621 120.501L116.945 119.929L116.086 119.212L115.011 118.317L113.674 117.201L112.023 115.814L109.992 114.092L107.505 111.957L104.476 109.321L100.814 106.082L96.4288 102.135L91.2458 97.3789L85.2276 91.7384L78.4012 85.1886L70.8911 77.7901L62.9513 69.7263L54.9842 61.3321L47.5324 53.1016L41.2311 45.6563L36.7168 39.6686L34.509 35.7473L34.8959 34.3137L37.8629 35.5069L43.0929 39.1544L50.0377 44.8167L58.0352 51.889L66.4316 59.7227L74.6762 67.73L82.3695 75.4497L89.2706 82.5699L95.2741 88.9178L100.375 94.4317L104.633 99.1273L108.141 103.067L111.005 106.337L113.328 109.029L115.205 111.232L116.717 113.026L117.934 114.48L118.911 115.654L119.695 116.594L120.321 117.339L120.818 117.919L121.208 118.357L121.507 118.671L121.729 118.874L121.883 118.971L121.975 118.969L122.01 118.866L121.989 118.657L121.911 118.335L121.774 117.887L121.573 117.293L121.301 116.529L120.949 115.562L120.502 114.349L119.947 112.838L119.262 110.962L118.425 108.638L117.41 105.77L116.187 102.241L114.728 97.9228L113.003 92.678L110.996 86.3758L108.704 78.9137L106.148 70.2513L103.392 60.4535L100.544 49.7393L97.7666 38.5239L95.2698 27.4343L93.2911 17.2796L92.0594 8.96084L91.7504 3.32563L92.4444 1L94.1026 2.24801L96.5715 6.90968L99.6143 14.441L102.96 24.0396L106.352 34.8111L109.584 45.9208L112.515 56.6976L115.074 66.6761L117.238 75.5905L119.025 83.3378L120.475 89.9307L121.635 95.4536L122.555 100.027L123.281 103.782L123.852 106.847L124.302 109.338L124.657 111.355L124.938 112.983L125.164 114.29L125.346 115.333L125.496 116.154L125.622 116.789L125.729 117.263L125.824 117.596L125.91 117.802L125.992 117.888L126.073 117.857L126.157 117.71L126.247 117.439L126.348 117.034L126.464 116.479L126.601 115.75L126.767 114.818L126.971 113.644L127.224 112.177L127.541 110.356L127.943 108.102L128.452 105.325L129.099 101.915L129.921 97.749L130.96 92.6961L132.266 86.6279L133.886 79.4391L135.866 71.0778L138.236 61.5855L140.995 51.145L144.097 40.1229L147.434 29.094L150.831 18.824L154.053 10.1952L156.829 4.07505L158.9 1.15034L160.067 1.77568L160.234 5.88802L159.426 13.0206L157.778 22.4111L155.499 33.1635L152.827 44.4096L149.989 55.428L147.172 65.7023L144.51 74.9236L142.087 82.9595L139.942 89.806L138.085 95.5408L136.502 100.285L135.169 104.174L134.059 107.342L133.14 109.913L132.386 111.992L131.771 113.668L131.275 115.016L130.879 116.095L130.57 116.951L130.337 117.623L130.17 118.138L130.064 118.518L130.016 118.78L130.024 118.932L130.088 118.983L130.212 118.933L130.401 118.781L130.662 118.522L131.007 118.145L131.45 117.635L132.011 116.972L132.715 116.13L133.595 115.073L134.691 113.759L136.055 112.135L137.748 110.137L139.847 107.69L142.439 104.707L145.626 101.099L149.513 96.7743L154.201 91.6568L159.77 85.7052L166.248 78.9401L173.584 71.477L181.605 63.5587L189.989 55.5755L198.254 48.0602L205.786 41.6432L211.914 36.9652L216.018 34.5595L217.659 34.7361L216.673 37.5056L213.208 42.5731L207.685 49.405L200.701 57.3433L192.905 65.73L184.893 74.0034L177.137 81.7515L169.961 88.7211L163.548 94.7973L157.968 99.9688L153.209 104.291L149.211 107.855L145.892 110.766L143.157 113.128L140.919 115.037L139.095 116.576L137.615 117.814L136.421 118.809L135.464 119.607L134.704 120.244L134.112 120.75L133.663 121.148L133.34 121.454L133.129 121.682L133.023 121.841L133.018 121.938L133.113 121.977L133.313 121.96L133.625 121.887L134.063 121.755L134.644 121.559L135.394 121.294L136.343 120.948L137.535 120.509L139.02 119.963L140.864 119.289L143.149 118.466L145.97 117.466L149.441 116.261L153.692 114.821L158.858 113.119L165.072 111.135L172.439 108.864L181.006 106.328L190.719 103.585L201.373 100.739L212.569 97.9483L223.696 95.4206L233.958 93.3919L242.456 92.0933L248.331 91.7064L250.936 92.3203L249.972 93.906L245.567 96.3182L238.237 99.3251L228.77 102.656L218.06 106.053L206.95 109.304L196.127 112.263L186.073 114.852L177.068 117.048L169.227 118.864L162.544 120.339L156.94 121.52L152.297 122.458L148.481 123.197L145.365 123.779L142.832 124.237L140.781 124.599L139.125 124.886L137.794 125.115L136.733 125.301L135.895 125.453L135.246 125.58L134.76 125.689L134.416 125.784L134.201 125.871L134.106 125.953L134.1 125.979Z" stroke="black" stroke-width="2" stroke-linejoin="round"/>
</svg>
