<svg width="237" height="227" viewBox="0 0 237 227" fill="none" xmlns="http://www.w3.org/2000/svg">
<path fill-rule="evenodd" clip-rule="evenodd" d="M236.587 113.054L228.39 114.147L221.297 115.099L215.137 115.937L209.772 116.685L205.088 117.359L200.992 117.976L197.406 118.548L194.267 119.084L191.521 119.594L189.122 120.084L187.032 120.562L185.218 121.032L183.654 121.5L182.316 121.969L181.184 122.444L180.241 122.928L179.472 123.425L178.864 123.938L178.407 124.469L178.092 125.021L177.91 125.599L177.854 126.203L177.918 126.836L178.097 127.503L178.386 128.204L178.781 128.942L179.278 129.721L179.873 130.543L180.564 131.409L181.347 132.323L182.219 133.287L183.175 134.303L184.214 135.373L185.331 136.499L186.522 137.682L187.783 138.923L189.107 140.225L190.491 141.587L191.927 143.008L193.408 144.49L194.926 146.03L196.473 147.627L198.04 149.278L199.615 150.98L201.187 152.728L202.744 154.518L204.274 156.343L205.763 158.195L207.196 160.068L208.56 161.951L209.839 163.835L211.02 165.71L212.087 167.563L213.026 169.383L213.825 171.158L214.471 172.875L214.954 174.522L215.263 176.087L215.392 177.557L215.335 178.923L215.088 180.173L214.65 181.3L214.022 182.296L213.206 183.154L212.21 183.871L211.039 184.444L209.704 184.871L208.215 185.155L206.586 185.297L204.829 185.301L202.961 185.174L200.995 184.921L198.948 184.552L196.835 184.075L194.673 183.499L192.475 182.837L190.257 182.097L188.033 181.291L185.814 180.431L183.613 179.526L181.441 178.588L179.306 177.626L177.217 176.65L175.181 175.67L173.205 174.695L171.293 173.732L169.45 172.788L167.678 171.872L165.981 170.989L164.359 170.145L162.815 169.346L161.348 168.596L159.958 167.9L158.645 167.263L157.409 166.688L156.248 166.18L155.162 165.742L154.149 165.378L153.208 165.092L152.337 164.888L151.535 164.77L150.802 164.743L150.135 164.811L149.535 164.981L149 165.257L148.529 165.648L148.122 166.161L147.78 166.805L147.502 167.59L147.289 168.528L147.142 169.632L147.063 170.919L147.054 172.406L147.117 174.115L147.257 176.071L147.476 178.303L147.78 180.844L148.175 183.737L148.669 187.028L149.271 190.775L149.991 195.046L150.843 199.923L151.841 205.507L153.006 211.917L154.359 219.304L154.114 222.203L150.711 215.103L147.755 208.953L145.173 203.611L142.904 198.96L140.898 194.904L139.117 191.365L137.527 188.277L136.098 185.585L134.809 183.244L133.639 181.215L132.572 179.465L131.593 177.968L130.689 176.7L129.849 175.64L129.065 174.773L128.328 174.084L127.631 173.561L126.966 173.192L126.328 172.97L125.711 172.887L125.111 172.936L124.523 173.111L123.942 173.408L123.364 173.824L122.786 174.353L122.204 174.994L121.614 175.744L121.012 176.6L120.396 177.559L119.763 178.62L119.108 179.78L118.429 181.036L117.723 182.386L116.987 183.826L116.219 185.353L115.415 186.963L114.574 188.65L113.693 190.411L112.77 192.237L111.804 194.122L110.793 196.059L109.737 198.036L108.636 200.045L107.489 202.075L106.297 204.111L105.062 206.142L103.786 208.152L102.471 210.127L101.122 212.049L99.7427 213.903L98.3382 215.672L96.9145 217.337L95.4781 218.882L94.0362 220.29L92.5968 221.545L91.1678 222.632L89.758 223.537L88.376 224.249L87.0306 224.756L85.7303 225.052L84.4835 225.13L83.2979 224.987L82.1807 224.623L81.1382 224.039L80.176 223.242L79.2986 222.237L78.5091 221.033L77.8101 219.644L77.2024 218.081L76.6861 216.361L76.2601 214.498L75.9221 212.51L75.6689 210.415L75.4965 208.231L75.4003 205.974L75.3747 203.663L75.4139 201.314L75.5116 198.944L75.6613 196.568L75.8561 194.199L76.0893 191.851L76.3542 189.535L76.6441 187.263L76.9524 185.043L77.2729 182.883L77.5995 180.79L77.9265 178.771L78.2483 176.83L78.5596 174.97L78.8554 173.196L79.1311 171.51L79.3821 169.913L79.6041 168.407L79.793 166.993L79.9446 165.671L80.055 164.441L80.1202 163.303L80.1362 162.258L80.0989 161.306L80.0041 160.446L79.8472 159.678L79.6234 159.004L79.3276 158.422L78.954 157.935L78.4964 157.544L77.9477 157.25L77.3001 157.056L76.5447 156.964L75.6715 156.978L74.6688 157.103L73.5236 157.345L72.2206 157.71L70.7421 158.206L69.0679 158.843L67.174 159.632L65.0325 160.588L62.6108 161.726L59.8701 163.066L56.7645 164.631L53.2392 166.45L49.2285 168.555L44.6534 170.987L39.4177 173.795L33.4043 177.037L26.4691 180.786L28.0927 178.212L33.5222 173.037L38.2265 168.541L42.3112 164.615L45.8627 161.174L48.9519 158.145L51.6377 155.471L53.9689 153.101L55.9862 150.996L57.724 149.12L59.2108 147.445L60.471 145.946L61.5251 144.602L62.3903 143.394L63.0812 142.308L63.6104 141.329L63.9882 140.446L64.2235 139.648L64.3237 138.927L64.295 138.274L64.1428 137.681L63.8713 137.143L63.484 136.653L62.984 136.207L62.3737 135.798L61.655 135.423L60.8297 135.076L59.8992 134.754L58.8647 134.453L57.7275 134.169L56.4889 133.898L55.1501 133.637L53.7127 133.381L52.1786 133.127L50.55 132.871L48.8297 132.61L47.0211 132.34L45.128 132.056L43.1555 131.756L41.1092 131.436L38.9958 131.091L36.823 130.718L34.5999 130.314L32.3363 129.875L30.0436 129.398L27.7342 128.88L25.4218 128.318L23.1212 127.709L20.8483 127.053L18.6197 126.347L16.453 125.592L14.3662 124.785L12.3776 123.929L10.5055 123.024L8.76801 122.073L7.18255 121.077L5.76561 120.041L4.53238 118.968L3.49647 117.863L2.66955 116.732L2.0611 115.581L1.67822 114.415L1.52539 113.241L1.60443 112.067L1.91439 110.898L2.45164 109.741L3.20989 108.603L4.1804 107.489L5.35217 106.405L6.71217 105.357L8.24569 104.348L9.9366 103.382L11.7677 102.462L13.7212 101.59L15.7788 100.768L17.922 99.996L20.1328 99.2745L22.3935 98.6026L24.687 97.9792L26.9973 97.4027L29.3091 96.8707L31.6086 96.3808L33.8827 95.93L36.1199 95.5152L38.3097 95.1329L40.4429 94.7797L42.5114 94.4518L44.5081 94.1456L46.427 93.8573L48.263 93.5832L50.0119 93.3195L51.67 93.0624L53.2344 92.8083L54.7028 92.5533L56.0732 92.2939L57.3439 92.0263L58.5136 91.7469L59.5809 91.4517L60.5447 91.137L61.4036 90.7989L62.1564 90.4332L62.8015 90.0356L63.3369 89.6015L63.7603 89.126L64.0691 88.6039L64.2598 88.0295L64.3283 87.3963L64.2697 86.6974L64.0782 85.925L63.7467 85.0702L63.2668 84.1231L62.6286 83.0724L61.8204 81.9051L60.8283 80.6062L59.6358 79.1586L58.2236 77.5421L56.5686 75.7332L54.6438 73.7044L52.4166 71.423L49.8487 68.8505L46.8938 65.9406L43.4967 62.6378L39.5904 58.8752L35.0939 54.5711L29.9083 49.6257L24.0385 44.0079L31.303 47.936L37.5929 51.3309L43.0625 54.2698L47.8367 56.8157L52.0178 59.0203L55.69 60.9263L58.9229 62.5692L61.7745 63.9785L64.2933 65.1786L66.5202 66.1904L68.4897 67.0311L70.2311 67.7152L71.7696 68.2549L73.1265 68.6606L74.3202 68.9407L75.3668 69.1023L76.2799 69.1515L77.0716 69.0931L77.7525 68.931L78.3318 68.6684L78.8176 68.3078L79.2173 67.8512L79.5372 67.2999L79.7834 66.6549L79.961 65.9169L80.0751 65.0863L80.1303 64.1632L80.1308 63.1477L80.0808 62.0398L79.9844 60.8394L79.8455 59.5465L79.6681 58.1614L79.4562 56.6845L79.214 55.1165L78.9457 53.4585L78.6557 51.7122L78.3488 49.8798L78.0298 47.9643L77.7039 45.9693L77.3766 43.8995L77.0535 41.7604L76.7406 39.5586L76.4441 37.3018L76.1706 34.9989L75.9265 32.6601L75.7187 30.2966L75.554 27.9212L75.439 25.5474L75.3805 23.1902L75.3847 20.8653L75.4579 18.5895L75.6054 16.3799L75.8324 14.2543L76.143 12.2304L76.5407 10.326L77.0281 8.55834L77.6066 6.94378L78.2766 5.49765L79.0374 4.23386L79.8872 3.16455L80.8228 2.29984L81.8402 1.64763L82.9343 1.21338L84.0988 1L85.327 1.0078L86.6111 1.23447L87.9431 1.67517L89.3144 2.32263L90.7163 3.16738L92.14 4.19792L93.5771 5.40104L95.019 6.7621L96.458 8.26532L97.8865 9.89412L99.2978 11.6314L100.686 13.46L102.045 15.3626L103.371 17.3224L104.66 19.323L105.908 21.3488L107.114 23.3851L108.275 25.4179L109.391 27.4347L110.462 29.4236L111.487 31.3741L112.467 33.2766L113.404 35.1226L114.298 36.9047L115.151 38.6162L115.967 40.2514L116.746 41.8053L117.492 43.2736L118.207 44.6525L118.894 45.9387L119.557 47.1294L120.197 48.222L120.818 49.2139L121.424 50.1029L122.017 50.8866L122.601 51.5625L123.18 52.128L123.758 52.5801L124.337 52.9155L124.923 53.1303L125.519 53.22L126.129 53.1793L126.76 53.0022L127.416 52.6813L128.102 52.2083L128.826 51.5731L129.594 50.7642L130.415 49.7679L131.297 48.5681L132.251 47.1462L133.289 45.4798L134.424 43.5431L135.674 41.3051L137.055 38.7295L138.591 35.773L140.309 32.384L142.238 28.5007L144.419 24.0488L146.895 18.9384L149.725 13.0601L152.976 6.28007L154.834 4.21744L153.415 11.9518L152.193 18.6559L151.144 24.4886L150.247 29.5791L149.487 34.0336L148.849 37.9393L148.321 41.3688L147.895 44.3825L147.563 47.0313L147.317 49.3578L147.153 51.3982L147.066 53.183L147.053 54.7385L147.11 56.087L147.235 57.2476L147.427 58.237L147.684 59.0693L148.006 59.7568L148.392 60.3103L148.843 60.7392L149.357 61.0514L149.937 61.2544L150.582 61.3543L151.294 61.357L152.074 61.2674L152.923 61.0903L153.841 60.83L154.831 60.4905L155.894 60.0757L157.031 59.5895L158.243 59.0355L159.531 58.4177L160.896 57.7402L162.339 57.0071L163.859 56.2229L165.456 55.3925L167.129 54.5213L168.878 53.6148L170.698 52.6794L172.589 51.7218L174.545 50.7493L176.562 49.7699L178.635 48.7921L180.756 47.8249L182.918 46.878L185.111 45.9614L187.325 45.0855L189.549 44.2612L191.77 43.4993L193.976 42.8109L196.151 42.2067L198.281 41.6972L200.351 41.2925L202.344 41.0019L204.246 40.8337L206.04 40.7954L207.711 40.8929L209.246 41.1309L210.631 41.5125L211.855 42.039L212.908 42.7101L213.782 43.5238L214.47 44.4763L214.969 45.562L215.277 46.7741L215.394 48.104L215.324 49.5423L215.071 51.0781L214.643 52.7001L214.048 54.3962L213.296 56.154L212.4 57.9612L211.373 59.8053L210.227 61.6743L208.977 63.5566L207.639 65.4413L206.226 67.3183L204.753 69.1781L203.235 71.0125L201.685 72.814L200.116 74.576L198.541 76.2932L196.971 77.9609L195.416 79.5753L193.888 81.1338L192.394 82.6342L190.943 84.0752L189.542 85.456L188.198 86.7767L186.916 88.0374L185.703 89.2391L184.562 90.3829L183.498 91.4703L182.514 92.5032L181.615 93.4833L180.804 94.413L180.083 95.2944L179.457 96.13L178.928 96.9221L178.5 97.6733L178.177 98.3861L177.962 99.0632L177.861 99.707L177.878 100.32L178.02 100.906L178.292 101.466L178.703 102.004L179.261 102.522L179.978 103.023L180.864 103.511L181.934 103.989L183.205 104.459L184.694 104.927L186.425 105.396L188.424 105.871L190.721 106.356L193.352 106.859L196.361 107.386L199.798 107.946L203.723 108.547L208.211 109.201L213.348 109.924L219.241 110.731L226.02 111.644L233.844 112.688L236.587 113.054Z" fill="#F9F9F9"/>
<path d="M236.587 113.054V113.054ZM236.587 113.054L228.39 114.147L221.297 115.099L215.137 115.937L209.772 116.685L205.088 117.359L200.992 117.976L197.406 118.548L194.267 119.084L191.521 119.594L189.122 120.084L187.032 120.562L185.218 121.032L183.654 121.5L182.316 121.969L181.184 122.444L180.241 122.928L179.472 123.425L178.864 123.938L178.407 124.469L178.092 125.021L177.909 125.599L177.853 126.203L177.918 126.836L178.097 127.503L178.386 128.204L178.781 128.942L179.278 129.721L179.873 130.543L180.564 131.409L181.347 132.323L182.219 133.287L183.175 134.303L184.214 135.373L185.331 136.499L186.522 137.682L187.783 138.923L189.107 140.225L190.491 141.587L191.927 143.008L193.408 144.49L194.926 146.03L196.473 147.627L198.04 149.278L199.615 150.98L201.187 152.728L202.744 154.518L204.274 156.343L205.763 158.195L207.196 160.068L208.56 161.951L209.839 163.835L211.02 165.71L212.087 167.563L213.026 169.383L213.825 171.158L214.471 172.875L214.954 174.522L215.263 176.087L215.392 177.557L215.335 178.923L215.088 180.173L214.65 181.3L214.022 182.296L213.206 183.154L212.21 183.871L211.039 184.444L209.704 184.871L208.215 185.155L206.586 185.297L204.829 185.301L202.961 185.174L200.995 184.921L198.948 184.552L196.835 184.075L194.673 183.499L192.475 182.837L190.257 182.097L188.033 181.291L185.814 180.431L183.613 179.526L181.441 178.588L179.306 177.626L177.217 176.65L175.181 175.67L173.205 174.695L171.293 173.732L169.45 172.788L167.678 171.872L165.981 170.989L164.359 170.145L162.815 169.346L161.348 168.596L159.958 167.9L158.645 167.263L157.409 166.688L156.248 166.18L155.162 165.742L154.149 165.378L153.208 165.092L152.337 164.888L151.535 164.77L150.802 164.743L150.135 164.811L149.535 164.981L149 165.257L148.529 165.648L148.122 166.161L147.78 166.805L147.502 167.59L147.289 168.528L147.142 169.632L147.063 170.919L147.054 172.406L147.117 174.115L147.257 176.071L147.476 178.303L147.78 180.844L148.175 183.737L148.669 187.028L149.271 190.775L149.991 195.046L150.843 199.923L151.841 205.507L153.006 211.917L154.359 219.304L154.114 222.203L150.711 215.103L147.755 208.953L145.173 203.611L142.904 198.96L140.898 194.904L139.117 191.365L137.527 188.277L136.098 185.585L134.809 183.244L133.639 181.215L132.572 179.465L131.593 177.968L130.689 176.7L129.849 175.64L129.065 174.773L128.328 174.084L127.631 173.561L126.966 173.192L126.328 172.97L125.711 172.887L125.111 172.936L124.523 173.111L123.942 173.408L123.364 173.824L122.786 174.353L122.204 174.994L121.614 175.744L121.012 176.6L120.396 177.559L119.763 178.62L119.108 179.78L118.429 181.036L117.723 182.386L116.987 183.826L116.219 185.353L115.415 186.963L114.574 188.65L113.693 190.411L112.77 192.237L111.804 194.122L110.793 196.059L109.737 198.036L108.636 200.045L107.489 202.075L106.297 204.111L105.062 206.142L103.786 208.152L102.471 210.127L101.122 212.049L99.7427 213.903L98.3382 215.672L96.9145 217.337L95.4781 218.882L94.0362 220.29L92.5968 221.545L91.1678 222.632L89.758 223.537L88.376 224.249L87.0306 224.756L85.7303 225.052L84.4835 225.13L83.2979 224.987L82.1807 224.623L81.1382 224.039L80.176 223.242L79.2986 222.237L78.5092 221.033L77.8101 219.644L77.2024 218.081L76.6861 216.361L76.2601 214.498L75.922 212.51L75.6689 210.415L75.4965 208.231L75.4003 205.974L75.3747 203.663L75.4139 201.314L75.5116 198.944L75.6613 196.568L75.8561 194.199L76.0893 191.851L76.3542 189.535L76.644 187.263L76.9524 185.043L77.2729 182.883L77.5995 180.79L77.9265 178.771L78.2483 176.83L78.5596 174.97L78.8554 173.196L79.1311 171.51L79.3821 169.913L79.6041 168.407L79.793 166.993L79.9446 165.671L80.055 164.441L80.1202 163.303L80.1362 162.258L80.0989 161.306L80.0041 160.446L79.8472 159.678L79.6234 159.004L79.3276 158.422L78.954 157.935L78.4964 157.544L77.9477 157.25L77.3001 157.056L76.5447 156.964L75.6715 156.978L74.6688 157.103L73.5236 157.345L72.2206 157.71L70.7421 158.206L69.0679 158.843L67.174 159.632L65.0325 160.588L62.6108 161.726L59.8701 163.066L56.7645 164.631L53.2392 166.45L49.2285 168.555L44.6534 170.987L39.4177 173.795L33.4043 177.037L26.4691 180.786L28.0927 178.212L33.5222 173.037L38.2265 168.541L42.3112 164.615L45.8627 161.174L48.9519 158.145L51.6377 155.471L53.9689 153.101L55.9862 150.996L57.724 149.12L59.2108 147.445L60.471 145.946L61.5251 144.602L62.3903 143.394L63.0812 142.308L63.6104 141.329L63.9882 140.446L64.2235 139.648L64.3237 138.927L64.295 138.274L64.1428 137.681L63.8713 137.143L63.484 136.653L62.984 136.207L62.3737 135.798L61.655 135.423L60.8297 135.076L59.8992 134.754L58.8647 134.453L57.7275 134.169L56.4889 133.898L55.1501 133.637L53.7127 133.381L52.1786 133.127L50.55 132.871L48.8297 132.61L47.0211 132.34L45.128 132.056L43.1555 131.756L41.1092 131.436L38.9958 131.091L36.823 130.718L34.5999 130.314L32.3363 129.875L30.0436 129.398L27.7342 128.88L25.4218 128.318L23.1212 127.709L20.8483 127.053L18.6197 126.347L16.453 125.592L14.3662 124.785L12.3776 123.929L10.5055 123.024L8.76801 122.073L7.18255 121.077L5.76561 120.041L4.53238 118.968L3.49647 117.863L2.66955 116.732L2.0611 115.581L1.67822 114.415L1.52539 113.241L1.60443 112.067L1.91439 110.898L2.45164 109.741L3.20989 108.603L4.1804 107.489L5.35217 106.405L6.71217 105.357L8.24568 104.348L9.9366 103.382L11.7677 102.462L13.7212 101.59L15.7788 100.768L17.922 99.996L20.1328 99.2745L22.3935 98.6026L24.687 97.9792L26.9973 97.4027L29.3091 96.8707L31.6086 96.3808L33.8827 95.93L36.1199 95.5152L38.3097 95.1329L40.4429 94.7797L42.5114 94.4518L44.5081 94.1456L46.427 93.8573L48.263 93.5832L50.0119 93.3195L51.67 93.0624L53.2344 92.8083L54.7028 92.5533L56.0732 92.2939L57.3439 92.0263L58.5136 91.7469L59.5809 91.4517L60.5447 91.137L61.4036 90.7989L62.1564 90.4332L62.8015 90.0356L63.3369 89.6015L63.7603 89.126L64.0691 88.6039L64.2597 88.0295L64.3283 87.3963L64.2697 86.6974L64.0782 85.925L63.7467 85.0702L63.2668 84.1231L62.6286 83.0724L61.8204 81.9051L60.8283 80.6062L59.6358 79.1586L58.2236 77.5421L56.5686 75.7332L54.6438 73.7044L52.4166 71.423L49.8487 68.8505L46.8938 65.9406L43.4967 62.6378L39.5904 58.8752L35.0939 54.5711L29.9083 49.6257L24.0385 44.0079L31.303 47.936L37.5929 51.3309L43.0625 54.2698L47.8367 56.8157L52.0178 59.0203L55.69 60.9263L58.9229 62.5692L61.7745 63.9785L64.2933 65.1786L66.5202 66.1904L68.4897 67.0311L70.2311 67.7152L71.7696 68.2549L73.1265 68.6606L74.3202 68.9407L75.3668 69.1023L76.2799 69.1515L77.0716 69.0931L77.7525 68.931L78.3318 68.6684L78.8176 68.3078L79.2173 67.8512L79.5372 67.2999L79.7834 66.6549L79.961 65.9169L80.0751 65.0863L80.1303 64.1632L80.1308 63.1477L80.0808 62.0398L79.9844 60.8394L79.8455 59.5465L79.6681 58.1614L79.4562 56.6845L79.214 55.1165L78.9457 53.4585L78.6557 51.7122L78.3488 49.8798L78.0298 47.9643L77.7039 45.9693L77.3766 43.8995L77.0535 41.7604L76.7406 39.5586L76.4441 37.3018L76.1706 34.9989L75.9265 32.6601L75.7187 30.2966L75.554 27.9212L75.439 25.5474L75.3805 23.1902L75.3847 20.8653L75.4579 18.5895L75.6054 16.3799L75.8324 14.2543L76.143 12.2304L76.5407 10.326L77.0281 8.55834L77.6066 6.94378L78.2766 5.49765L79.0374 4.23386L79.8872 3.16455L80.8228 2.29984L81.8402 1.64763L82.9343 1.21338L84.0988 1L85.327 1.0078L86.6111 1.23447L87.9431 1.67517L89.3144 2.32263L90.7163 3.16738L92.14 4.19792L93.5771 5.40104L95.019 6.7621L96.458 8.26532L97.8865 9.89413L99.2978 11.6314L100.686 13.46L102.045 15.3626L103.371 17.3224L104.66 19.323L105.908 21.3488L107.114 23.3851L108.275 25.4179L109.391 27.4347L110.462 29.4236L111.487 31.3741L112.467 33.2766L113.404 35.1226L114.298 36.9047L115.151 38.6162L115.967 40.2514L116.746 41.8053L117.492 43.2736L118.207 44.6525L118.894 45.9387L119.557 47.1294L120.197 48.222L120.818 49.2139L121.424 50.1029L122.017 50.8866L122.601 51.5625L123.18 52.128L123.758 52.5801L124.337 52.9155L124.923 53.1303L125.519 53.22L126.129 53.1793L126.76 53.0022L127.416 52.6813L128.102 52.2083L128.826 51.5731L129.594 50.7642L130.415 49.7679L131.297 48.5681L132.251 47.1462L133.289 45.4798L134.425 43.5431L135.674 41.3051L137.055 38.7295L138.591 35.773L140.309 32.384L142.238 28.5007L144.419 24.0488L146.895 18.9384L149.725 13.0601L152.976 6.28007L154.834 4.21744L153.415 11.9518L152.193 18.6559L151.144 24.4886L150.248 29.5791L149.487 34.0336L148.849 37.9393L148.321 41.3688L147.895 44.3825L147.563 47.0313L147.317 49.3578L147.153 51.3982L147.066 53.183L147.053 54.7385L147.11 56.087L147.235 57.2476L147.427 58.237L147.684 59.0693L148.006 59.7568L148.392 60.3103L148.843 60.7392L149.357 61.0514L149.937 61.2544L150.582 61.3543L151.294 61.357L152.074 61.2674L152.923 61.0903L153.841 60.83L154.831 60.4905L155.894 60.0757L157.031 59.5895L158.243 59.0355L159.531 58.4177L160.896 57.7402L162.339 57.0071L163.859 56.2229L165.456 55.3925L167.129 54.5213L168.878 53.6148L170.698 52.6794L172.589 51.7218L174.545 50.7493L176.562 49.7699L178.635 48.7921L180.756 47.8249L182.918 46.878L185.111 45.9614L187.325 45.0855L189.549 44.2612L191.77 43.4993L193.976 42.8109L196.151 42.2067L198.281 41.6972L200.351 41.2925L202.344 41.0019L204.246 40.8337L206.04 40.7954L207.711 40.8929L209.246 41.1309L210.631 41.5125L211.855 42.039L212.908 42.7101L213.782 43.5238L214.47 44.4763L214.969 45.562L215.277 46.7741L215.394 48.104L215.324 49.5423L215.071 51.0781L214.643 52.7001L214.048 54.3962L213.296 56.154L212.4 57.9612L211.373 59.8053L210.227 61.6743L208.977 63.5566L207.639 65.4413L206.226 67.3183L204.753 69.1781L203.235 71.0125L201.685 72.814L200.116 74.576L198.541 76.2932L196.971 77.9609L195.416 79.5753L193.888 81.1338L192.394 82.6342L190.943 84.0752L189.542 85.456L188.198 86.7767L186.916 88.0374L185.703 89.2391L184.562 90.3829L183.498 91.4703L182.514 92.5032L181.615 93.4833L180.804 94.413L180.083 95.2944L179.457 96.13L178.928 96.9221L178.5 97.6733L178.177 98.3861L177.962 99.0632L177.861 99.707L177.878 100.32L178.02 100.906L178.292 101.466L178.703 102.004L179.261 102.522L179.978 103.023L180.864 103.511L181.934 103.989L183.205 104.459L184.694 104.927L186.425 105.396L188.424 105.871L190.721 106.356L193.352 106.859L196.361 107.386L199.798 107.946L203.723 108.547L208.211 109.201L213.348 109.924L219.241 110.731L226.02 111.644L233.844 112.688L236.587 113.054Z" stroke="black" stroke-width="2" stroke-linejoin="round"/>
</svg>
