<svg width="253" height="252" viewBox="0 0 253 252" fill="none" xmlns="http://www.w3.org/2000/svg">
<path fill-rule="evenodd" clip-rule="evenodd" d="M251.028 125.999L250.971 127.248L250.803 128.494L250.524 129.735L250.135 130.966L249.639 132.184L249.04 133.388L248.34 134.575L247.544 135.741L246.656 136.885L245.682 138.004L244.627 139.098L243.497 140.163L242.297 141.2L241.034 142.206L239.715 143.181L238.345 144.125L236.932 145.036L235.481 145.916L233.998 146.764L232.491 147.58L230.965 148.366L229.426 149.121L227.879 149.847L226.329 150.544L224.783 151.215L223.243 151.861L221.716 152.482L220.206 153.08L218.715 153.658L217.248 154.217L215.808 154.758L214.399 155.284L213.022 155.797L211.681 156.298L210.378 156.789L209.114 157.273L207.892 157.752L206.714 158.227L205.581 158.7L204.494 159.175L203.455 159.652L202.465 160.134L201.525 160.624L200.636 161.123L199.798 161.635L199.013 162.16L198.281 162.702L197.604 163.263L196.982 163.846L196.416 164.453L195.907 165.087L195.457 165.752L195.065 166.45L194.734 167.184L194.464 167.959L194.258 168.777L194.117 169.643L194.042 170.561L194.036 171.535L194.101 172.572L194.241 173.675L194.457 174.852L194.753 176.108L195.133 177.452L195.601 178.89L196.162 180.432L196.821 182.087L197.585 183.866L198.459 185.781L199.453 187.845L200.574 190.075L201.833 192.486L203.24 195.099L204.809 197.934L206.553 201.018L208.491 204.378L210.64 208.046L213.023 212.062L212.425 213.196L208.38 210.794L204.685 208.627L201.302 206.673L198.198 204.914L195.343 203.332L192.714 201.912L190.287 200.642L188.044 199.51L185.967 198.507L184.04 197.623L182.251 196.851L180.586 196.184L179.036 195.615L177.59 195.14L176.239 194.753L174.976 194.45L173.793 194.228L172.684 194.083L171.643 194.011L170.663 194.012L169.741 194.081L168.871 194.217L168.049 194.418L167.272 194.683L166.534 195.009L165.833 195.396L165.166 195.842L164.53 196.346L163.92 196.908L163.336 197.525L162.773 198.198L162.23 198.925L161.703 199.706L161.191 200.54L160.691 201.425L160.2 202.361L159.717 203.348L159.24 204.383L158.765 205.466L158.291 206.595L157.817 207.77L157.339 208.988L156.855 210.248L156.365 211.548L155.864 212.887L155.353 214.261L154.828 215.668L154.288 217.105L153.731 218.57L153.154 220.059L152.557 221.568L151.938 223.094L151.295 224.632L150.626 226.179L149.93 227.728L149.207 229.275L148.454 230.816L147.671 232.343L146.857 233.852L146.012 235.337L145.135 236.79L144.226 238.207L143.285 239.58L142.312 240.904L141.308 242.171L140.274 243.376L139.211 244.513L138.119 245.574L137.002 246.555L135.86 247.449L134.695 248.253L133.511 248.96L132.308 249.568L131.09 250.072L129.86 250.469L128.621 250.758L127.375 250.935L126.125 251L124.876 250.953L123.629 250.793L122.388 250.523L121.156 250.143L119.936 249.655L118.731 249.064L117.543 248.372L116.376 247.583L115.23 246.703L114.108 245.736L113.013 244.687L111.945 243.562L110.906 242.368L109.898 241.11L108.92 239.795L107.974 238.429L107.059 237.019L106.177 235.57L105.327 234.09L104.508 232.585L103.72 231.06L102.963 229.521L102.234 227.975L101.534 226.425L100.861 224.878L100.214 223.338L99.5912 221.81L98.9908 220.298L98.4114 218.806L97.8512 217.337L97.3084 215.895L96.7812 214.483L96.2677 213.103L95.7659 211.759L95.2738 210.453L94.7894 209.186L94.3106 207.961L93.8355 206.779L93.3618 205.643L92.8876 204.552L92.4105 203.509L91.9286 202.515L91.4395 201.571L90.9411 200.677L90.431 199.835L89.9068 199.046L89.3662 198.31L88.8067 197.629L88.2258 197.002L87.6206 196.432L86.9885 195.919L86.3264 195.463L85.6313 195.067L84.9 194.731L84.1289 194.456L83.3144 194.245L82.4525 194.098L81.5388 194.018L80.5688 194.007L79.5376 194.066L78.4396 194.2L77.2689 194.409L76.019 194.699L74.6829 195.072L73.2526 195.533L71.7195 196.086L70.074 196.738L68.3053 197.493L66.4014 198.358L64.3491 199.342L62.1333 200.453L59.737 201.7L57.1413 203.095L54.3244 204.65L51.2617 206.381L47.925 208.302L44.2822 210.434L40.296 212.797L38.6257 212.736L41.0481 208.662L43.233 204.94L45.2028 201.534L46.9771 198.408L48.5728 195.535L50.0049 192.888L51.2864 190.446L52.4287 188.189L53.442 186.099L54.3351 184.161L55.1159 182.361L55.7913 180.687L56.3676 179.128L56.8502 177.674L57.244 176.316L57.5532 175.047L57.7817 173.858L57.9329 172.743L58.0098 171.696L58.0152 170.712L57.9513 169.785L57.8204 168.911L57.6243 168.086L57.3648 167.305L57.0433 166.564L56.6613 165.861L56.2199 165.191L55.7202 164.552L55.1633 163.941L54.5502 163.354L53.8818 162.79L53.1588 162.245L52.3822 161.717L51.5529 161.204L50.6716 160.703L49.7393 160.212L48.757 159.728L47.7257 159.25L46.6466 158.776L45.5207 158.302L44.3497 157.827L43.1348 157.35L41.8779 156.867L40.5808 156.377L39.2455 155.877L37.8743 155.367L36.4697 154.843L35.0345 154.304L33.5718 153.748L32.0847 153.174L30.5768 152.579L29.0521 151.961L27.5147 151.32L25.969 150.653L24.4197 149.96L22.8719 149.238L21.3309 148.488L19.8022 147.707L18.2915 146.896L16.8049 146.053L15.3485 145.179L13.9285 144.272L12.5515 143.333L11.2236 142.363L9.95152 141.362L8.74143 140.33L7.59961 139.269L6.53212 138.18L5.54475 137.065L4.64302 135.925L3.83206 134.762L3.11657 133.578L2.50079 132.377L1.9884 131.161L1.5825 129.931L1.2856 128.692L1.09951 127.447L1.02539 126.198L1.06371 124.948L1.21422 123.701L1.476 122.459L1.84742 121.227L2.32619 120.006L2.90942 118.799L3.59358 117.61L4.37462 116.441L5.24798 115.293L6.20865 114.169L7.25123 113.072L8.37002 112.002L9.55903 110.961L10.8121 109.95L12.1229 108.969L13.4849 108.021L14.8919 107.104L16.3374 106.219L17.8151 105.366L19.3187 104.545L20.8423 103.755L22.3801 102.995L23.9263 102.264L25.4756 101.562L27.023 100.887L28.5636 100.238L30.0928 99.6128L31.6064 99.0106L33.1005 98.4296L34.5714 97.868L36.0158 97.3239L37.4304 96.7955L38.8125 96.281L40.1595 95.7783L41.469 95.2855L42.739 94.8005L43.9674 94.3214L45.1526 93.846L46.293 93.3724L47.3871 92.8982L48.4338 92.4215L49.4318 91.94L50.3801 91.4516L51.2778 90.954L52.1237 90.4449L52.9172 89.922L53.6574 89.3828L54.3433 88.8249L54.9741 88.2457L55.549 87.6426L56.067 87.0127L56.5271 86.3531L56.9282 85.6608L57.2691 84.9325L57.5485 84.1647L57.7649 83.3538L57.9168 82.4958L58.0022 81.5864L58.0192 80.6211L57.9653 79.5949L57.8381 78.5024L57.6346 77.3377L57.3514 76.0945L56.9851 74.7655L56.5313 73.343L55.9854 71.8184L55.3422 70.1822L54.5956 68.4237L53.7391 66.5311L52.7651 64.4911L51.6649 62.2889L50.4289 59.9077L49.0461 57.3286L47.504 54.5302L45.7883 51.488L43.8828 48.1743L41.7687 44.5571L39.4246 40.5998L38.9475 38.3946L43.0516 40.837L46.7995 43.04L50.23 45.0262L53.3768 46.8154L56.2691 48.4248L58.9328 49.8694L61.3904 51.1624L63.6618 52.3155L65.7645 53.3386L67.7141 54.241L69.5245 55.0305L71.2081 55.7141L72.7759 56.2981L74.2379 56.7879L75.6032 57.1886L76.8797 57.5044L78.0748 57.7392L79.1953 57.8964L80.2473 57.9792L81.2362 57.9901L82.1673 57.9317L83.0452 57.8061L83.8744 57.6151L84.6589 57.3606L85.4025 57.044L86.1087 56.6667L86.781 56.23L87.4223 55.7349L88.0358 55.1826L88.6241 54.5739L89.1902 53.9098L89.7365 53.1912L90.2656 52.4188L90.78 51.5937L91.2819 50.7165L91.7737 49.7882L92.2577 48.8099L92.736 47.7825L93.2109 46.7071L93.6845 45.5849L94.159 44.4174L94.6364 43.206L95.1187 41.9523L95.6082 40.6583L96.1067 39.326L96.6163 37.9576L97.1389 36.5556L97.6765 35.1227L98.2309 33.662L98.804 32.1767L99.3976 30.6704L100.013 29.1469L100.653 27.6103L101.317 26.0651L102.008 24.5159L102.727 22.9678L103.476 21.4261L104.254 19.8961L105.063 18.3838L105.903 16.8951L106.775 15.436L107.679 14.013L108.615 12.6322L109.583 11.3003L110.582 10.0235L111.611 8.8082L112.67 7.66072L113.756 6.58709L114.87 5.59314L116.008 4.68439L117.169 3.86603L118.351 3.14277L119.551 2.51891L120.766 1.99816L121.995 1.58369L123.233 1.27802L124.478 1.08306L125.727 1L126.977 1.02936L128.224 1.17097L129.466 1.42394L130.7 1.7867L131.922 2.25702L133.129 2.83205L134.32 3.50832L135.491 4.2818L136.641 5.14799L137.766 6.1019L138.866 7.13817L139.938 8.2511L140.982 9.43475L141.995 10.6829L142.978 11.9893L143.929 13.3476L144.849 14.7512L145.736 16.1939L146.591 17.6692L147.415 19.171L148.208 20.6932L148.97 22.2301L149.703 23.7758L150.407 25.3251L151.085 26.8728L151.736 28.4141L152.363 29.9444L152.967 31.4594L153.549 32.9552L154.112 34.4281L154.658 35.8746L155.187 37.2917L155.703 38.6765L156.206 40.0264L156.7 41.339L157.185 42.6121L157.665 43.8439L158.141 45.0326L158.614 46.1766L159.088 47.2745L159.565 48.325L160.046 49.327L160.533 50.2793L161.03 51.181L161.538 52.0311L162.06 52.8288L162.598 53.5732L163.154 54.2635L163.732 54.8987L164.333 55.4781L164.96 56.0007L165.618 56.4654L166.307 56.8712L167.032 57.217L167.797 57.5014L168.604 57.7229L169.458 57.8799L170.364 57.9707L171.324 57.9932L172.345 57.9451L173.432 57.8238L174.591 57.6265L175.828 57.3498L177.15 56.9902L178.564 56.5436L180.081 56.0052L181.707 55.3699L183.456 54.6319L185.337 53.7844L187.365 52.82L189.554 51.7302L191.92 50.5054L194.483 49.1347L197.263 47.6058L200.284 45.9045L203.575 44.0147L207.167 41.918L211.096 39.593L213.835 38.5769L211.373 42.7112L209.152 46.486L207.149 49.9405L205.345 53.1087L203.721 56.0203L202.264 58.7014L200.96 61.1746L199.796 63.4601L198.763 65.5757L197.851 67.5369L197.053 69.358L196.361 71.0512L195.769 72.6279L195.272 74.098L194.864 75.4706L194.542 76.7539L194.301 77.9553L194.138 79.0815L194.049 80.1387L194.032 81.1324L194.085 82.0679L194.206 82.95L194.392 83.7829L194.641 84.5708L194.953 85.3175L195.325 86.0266L195.757 86.7014L196.248 87.3451L196.796 87.9607L197.4 88.551L198.06 89.1187L198.774 89.6665L199.542 90.1969L200.363 90.7123L201.236 91.2151L202.16 91.7077L203.135 92.1922L204.158 92.6709L205.23 93.146L206.348 93.6196L207.512 94.0939L208.72 94.571L209.971 95.0529L211.262 95.5417L212.591 96.0394L213.956 96.5481L215.356 97.0696L216.786 97.6059L218.245 98.1589L219.729 98.7305L221.233 99.3223L222.756 99.9361L224.291 100.574L225.836 101.236L227.385 101.925L228.933 102.642L230.476 103.388L232.007 104.163L233.521 104.97L235.012 105.808L236.473 106.677L237.899 107.579L239.284 108.512L240.62 109.477L241.901 110.474L243.122 111.501L244.275 112.557L245.355 113.642L246.355 114.753L247.271 115.889L248.097 117.049L248.828 118.229L249.459 119.428L249.989 120.642L250.412 121.869L250.726 123.107L250.93 124.352L251.022 125.6L251.028 125.999Z" fill="#F9F9F9"/>
<path d="M251.028 125.999V125.999ZM251.028 125.999L250.971 127.248L250.803 128.494L250.524 129.735L250.135 130.966L249.639 132.184L249.04 133.388L248.34 134.575L247.544 135.741L246.656 136.885L245.682 138.004L244.627 139.098L243.497 140.163L242.297 141.2L241.034 142.206L239.715 143.181L238.345 144.125L236.932 145.036L235.481 145.916L233.998 146.764L232.491 147.58L230.965 148.366L229.426 149.121L227.879 149.847L226.329 150.544L224.783 151.215L223.243 151.861L221.716 152.482L220.206 153.08L218.715 153.658L217.248 154.217L215.808 154.758L214.399 155.284L213.022 155.797L211.681 156.298L210.378 156.789L209.114 157.273L207.892 157.752L206.714 158.227L205.581 158.7L204.494 159.175L203.455 159.652L202.465 160.134L201.525 160.624L200.636 161.123L199.798 161.635L199.013 162.16L198.281 162.702L197.604 163.263L196.982 163.846L196.416 164.453L195.907 165.087L195.457 165.752L195.065 166.45L194.734 167.184L194.464 167.959L194.258 168.777L194.117 169.643L194.042 170.561L194.036 171.535L194.101 172.572L194.241 173.675L194.457 174.852L194.753 176.108L195.133 177.452L195.601 178.89L196.162 180.432L196.821 182.087L197.585 183.866L198.459 185.781L199.453 187.845L200.574 190.075L201.833 192.486L203.24 195.099L204.809 197.934L206.553 201.018L208.491 204.378L210.64 208.046L213.023 212.062L212.425 213.196L208.38 210.794L204.685 208.627L201.302 206.673L198.198 204.914L195.343 203.332L192.714 201.912L190.287 200.642L188.044 199.51L185.967 198.507L184.04 197.623L182.251 196.851L180.586 196.184L179.036 195.615L177.59 195.14L176.239 194.753L174.976 194.45L173.793 194.228L172.684 194.083L171.643 194.011L170.663 194.012L169.741 194.081L168.871 194.217L168.049 194.418L167.272 194.683L166.534 195.009L165.833 195.396L165.166 195.842L164.53 196.346L163.92 196.908L163.336 197.525L162.773 198.198L162.23 198.925L161.703 199.706L161.191 200.54L160.691 201.425L160.2 202.361L159.717 203.348L159.24 204.383L158.765 205.466L158.291 206.595L157.817 207.77L157.339 208.988L156.855 210.248L156.365 211.548L155.864 212.887L155.353 214.261L154.828 215.668L154.288 217.105L153.731 218.57L153.154 220.059L152.557 221.568L151.938 223.094L151.295 224.632L150.626 226.179L149.93 227.728L149.207 229.275L148.454 230.816L147.671 232.343L146.857 233.852L146.012 235.337L145.135 236.79L144.226 238.207L143.284 239.58L142.312 240.904L141.308 242.171L140.274 243.376L139.211 244.513L138.119 245.574L137.002 246.555L135.86 247.449L134.695 248.253L133.511 248.96L132.308 249.568L131.09 250.072L129.86 250.469L128.621 250.758L127.375 250.935L126.125 251L124.876 250.953L123.629 250.793L122.388 250.523L121.156 250.143L119.936 249.655L118.731 249.064L117.543 248.372L116.376 247.583L115.23 246.703L114.108 245.736L113.013 244.687L111.945 243.562L110.906 242.368L109.898 241.11L108.92 239.795L107.974 238.429L107.059 237.019L106.177 235.57L105.327 234.09L104.508 232.585L103.72 231.06L102.963 229.521L102.234 227.975L101.534 226.425L100.861 224.878L100.214 223.338L99.5912 221.81L98.9908 220.298L98.4114 218.806L97.8512 217.337L97.3084 215.895L96.7812 214.483L96.2677 213.103L95.7659 211.759L95.2738 210.453L94.7894 209.186L94.3106 207.961L93.8355 206.779L93.3618 205.643L92.8876 204.552L92.4105 203.509L91.9286 202.515L91.4395 201.571L90.9411 200.677L90.431 199.835L89.9068 199.046L89.3662 198.31L88.8067 197.629L88.2258 197.002L87.6206 196.432L86.9885 195.919L86.3264 195.463L85.6314 195.067L84.9 194.731L84.1289 194.456L83.3144 194.245L82.4525 194.098L81.5388 194.018L80.5688 194.007L79.5376 194.066L78.4396 194.2L77.2689 194.409L76.019 194.699L74.6829 195.072L73.2526 195.533L71.7195 196.086L70.074 196.738L68.3053 197.493L66.4014 198.358L64.3491 199.342L62.1333 200.453L59.737 201.7L57.1413 203.095L54.3244 204.65L51.2617 206.381L47.925 208.302L44.2822 210.434L40.296 212.797L38.6257 212.736L41.0481 208.662L43.233 204.94L45.2028 201.534L46.9771 198.408L48.5728 195.535L50.0049 192.888L51.2864 190.446L52.4287 188.189L53.442 186.099L54.3351 184.161L55.1159 182.361L55.7913 180.687L56.3676 179.128L56.8502 177.674L57.244 176.316L57.5532 175.047L57.7817 173.858L57.9329 172.743L58.0098 171.696L58.0152 170.712L57.9513 169.785L57.8204 168.911L57.6243 168.086L57.3648 167.305L57.0433 166.564L56.6613 165.861L56.2199 165.191L55.7202 164.552L55.1633 163.941L54.5502 163.354L53.8818 162.79L53.1588 162.245L52.3822 161.717L51.5529 161.204L50.6716 160.703L49.7393 160.212L48.757 159.728L47.7257 159.25L46.6466 158.776L45.5207 158.302L44.3497 157.827L43.1348 157.35L41.8779 156.867L40.5808 156.377L39.2455 155.877L37.8743 155.367L36.4697 154.843L35.0345 154.304L33.5718 153.748L32.0847 153.174L30.5768 152.579L29.0521 151.961L27.5147 151.32L25.969 150.653L24.4197 149.96L22.8719 149.238L21.3309 148.488L19.8022 147.707L18.2915 146.896L16.8049 146.053L15.3485 145.179L13.9285 144.272L12.5515 143.333L11.2236 142.363L9.95152 141.362L8.74143 140.33L7.59961 139.269L6.53212 138.18L5.54475 137.065L4.64302 135.925L3.83206 134.762L3.11657 133.578L2.50079 132.377L1.9884 131.161L1.5825 129.931L1.2856 128.692L1.09951 127.447L1.02539 126.198L1.06371 124.948L1.21422 123.701L1.476 122.459L1.84742 121.227L2.32619 120.006L2.90942 118.799L3.59358 117.61L4.37462 116.441L5.24798 115.293L6.20865 114.169L7.25123 113.072L8.37002 112.002L9.55903 110.961L10.8121 109.95L12.1229 108.969L13.4849 108.021L14.8919 107.104L16.3374 106.219L17.8151 105.366L19.3187 104.545L20.8423 103.755L22.3801 102.995L23.9263 102.264L25.4756 101.562L27.023 100.887L28.5636 100.238L30.0928 99.6128L31.6064 99.0106L33.1005 98.4296L34.5714 97.868L36.0158 97.3239L37.4304 96.7955L38.8125 96.281L40.1595 95.7783L41.469 95.2855L42.739 94.8005L43.9674 94.3214L45.1526 93.846L46.293 93.3724L47.3871 92.8982L48.4338 92.4215L49.4318 91.94L50.3801 91.4516L51.2778 90.954L52.1237 90.4449L52.9172 89.9219L53.6574 89.3828L54.3433 88.8249L54.9741 88.2457L55.549 87.6426L56.067 87.0127L56.5271 86.3531L56.9282 85.6608L57.2691 84.9325L57.5485 84.1647L57.7649 83.3538L57.9168 82.4958L58.0022 81.5864L58.0192 80.6211L57.9653 79.5949L57.8381 78.5024L57.6346 77.3377L57.3514 76.0945L56.9851 74.7655L56.5313 73.343L55.9854 71.8184L55.3422 70.1822L54.5956 68.4237L53.7391 66.5311L52.7651 64.4911L51.6649 62.2889L50.4289 59.9077L49.0461 57.3286L47.504 54.5302L45.7883 51.488L43.8828 48.1743L41.7687 44.5571L39.4246 40.5998L38.9475 38.3946L43.0516 40.837L46.7995 43.04L50.23 45.0262L53.3768 46.8154L56.2691 48.4248L58.9328 49.8694L61.3904 51.1624L63.6618 52.3155L65.7645 53.3387L67.7141 54.241L69.5245 55.0305L71.2081 55.7141L72.7759 56.2981L74.2379 56.7879L75.6032 57.1886L76.8797 57.5044L78.0748 57.7392L79.1953 57.8964L80.2472 57.9792L81.2362 57.9901L82.1673 57.9317L83.0452 57.8061L83.8744 57.6151L84.6589 57.3606L85.4025 57.044L86.1087 56.6667L86.781 56.23L87.4223 55.7349L88.0358 55.1826L88.6241 54.5739L89.1902 53.9098L89.7365 53.1912L90.2656 52.4188L90.78 51.5937L91.2819 50.7165L91.7737 49.7882L92.2577 48.8099L92.736 47.7825L93.2109 46.707L93.6845 45.5849L94.159 44.4174L94.6364 43.206L95.1187 41.9523L95.6082 40.6583L96.1067 39.326L96.6163 37.9576L97.1389 36.5556L97.6765 35.1227L98.2309 33.662L98.804 32.1767L99.3975 30.6704L100.013 29.1469L100.653 27.6103L101.317 26.0651L102.008 24.5159L102.727 22.9678L103.476 21.4261L104.254 19.8961L105.063 18.3838L105.903 16.8951L106.775 15.436L107.679 14.013L108.615 12.6322L109.583 11.3003L110.582 10.0235L111.611 8.8082L112.67 7.66072L113.756 6.58709L114.87 5.59314L116.008 4.68439L117.169 3.86603L118.351 3.14277L119.551 2.51891L120.766 1.99816L121.995 1.58369L123.233 1.27802L124.478 1.08306L125.727 1L126.977 1.02936L128.224 1.17097L129.466 1.42394L130.7 1.7867L131.922 2.25702L133.129 2.83205L134.32 3.50832L135.491 4.2818L136.641 5.14799L137.766 6.1019L138.866 7.13817L139.938 8.2511L140.982 9.43475L141.995 10.6829L142.978 11.9893L143.929 13.3476L144.849 14.7512L145.736 16.1939L146.591 17.6692L147.415 19.171L148.208 20.6932L148.97 22.2301L149.703 23.7758L150.407 25.3251L151.085 26.8728L151.736 28.4141L152.363 29.9444L152.967 31.4594L153.549 32.9552L154.112 34.4281L154.658 35.8746L155.187 37.2917L155.703 38.6765L156.206 40.0264L156.7 41.339L157.185 42.6121L157.665 43.8439L158.14 45.0326L158.614 46.1766L159.088 47.2745L159.565 48.325L160.046 49.327L160.533 50.2793L161.03 51.181L161.538 52.0311L162.06 52.8288L162.598 53.5732L163.154 54.2635L163.732 54.8987L164.333 55.4781L164.96 56.0007L165.618 56.4654L166.307 56.8712L167.032 57.217L167.797 57.5014L168.604 57.7229L169.458 57.8799L170.364 57.9707L171.324 57.9932L172.345 57.9451L173.432 57.8238L174.591 57.6265L175.828 57.3498L177.15 56.9902L178.564 56.5436L180.081 56.0052L181.707 55.3699L183.456 54.6319L185.337 53.7844L187.365 52.82L189.554 51.7302L191.92 50.5054L194.483 49.1347L197.263 47.6058L200.284 45.9045L203.575 44.0147L207.167 41.918L211.096 39.593L213.835 38.5768L211.373 42.7112L209.152 46.486L207.149 49.9405L205.345 53.1087L203.721 56.0203L202.264 58.7014L200.96 61.1746L199.796 63.4601L198.763 65.5757L197.851 67.5369L197.053 69.358L196.361 71.0512L195.769 72.6279L195.272 74.098L194.864 75.4706L194.542 76.7539L194.301 77.9553L194.138 79.0815L194.049 80.1387L194.032 81.1324L194.085 82.0679L194.206 82.95L194.392 83.7829L194.641 84.5708L194.953 85.3175L195.325 86.0266L195.757 86.7014L196.248 87.3451L196.796 87.9607L197.4 88.551L198.06 89.1187L198.774 89.6665L199.542 90.1969L200.363 90.7123L201.236 91.2151L202.16 91.7077L203.135 92.1922L204.158 92.6709L205.23 93.146L206.348 93.6196L207.512 94.0939L208.72 94.571L209.971 95.0529L211.261 95.5417L212.591 96.0394L213.957 96.5481L215.356 97.0696L216.786 97.6059L218.245 98.1589L219.728 98.7305L221.233 99.3223L222.756 99.9362L224.291 100.574L225.836 101.236L227.385 101.925L228.933 102.642L230.476 103.388L232.007 104.163L233.521 104.97L235.012 105.808L236.473 106.677L237.899 107.579L239.284 108.512L240.62 109.477L241.901 110.474L243.122 111.501L244.275 112.557L245.355 113.642L246.355 114.753L247.271 115.889L248.097 117.049L248.828 118.229L249.459 119.428L249.989 120.642L250.412 121.869L250.726 123.107L250.93 124.352L251.022 125.6L251.028 125.999Z" stroke="black" stroke-width="2" stroke-linejoin="round"/>
</svg>
