<svg width="237" height="249" viewBox="0 0 237 249" fill="none" xmlns="http://www.w3.org/2000/svg">
<path fill-rule="evenodd" clip-rule="evenodd" d="M219.561 124.746L212.877 125.663L207.394 126.47L202.904 127.198L199.245 127.869L196.293 128.503L193.948 129.116L192.132 129.719L190.783 130.324L189.851 130.94L189.295 131.577L189.083 132.242L189.19 132.943L189.593 133.686L190.273 134.478L191.215 135.326L192.405 136.236L193.828 137.212L195.47 138.261L197.318 139.385L199.355 140.59L201.563 141.877L203.921 143.247L206.407 144.701L208.993 146.236L211.649 147.848L214.342 149.532L217.034 151.279L219.688 153.078L222.26 154.917L224.709 156.78L226.994 158.652L229.073 160.513L230.91 162.345L232.47 164.128L233.728 165.845L234.662 167.478L235.259 169.011L235.515 170.432L235.433 171.73L235.024 172.898L234.306 173.934L233.304 174.837L232.047 175.611L230.57 176.263L228.909 176.802L227.1 177.24L225.18 177.59L223.187 177.866L221.153 178.083L219.112 178.257L217.091 178.404L215.116 178.538L213.21 178.674L211.391 178.826L209.676 179.006L208.077 179.227L206.604 179.499L205.265 179.834L204.065 180.239L203.008 180.723L202.096 181.294L201.329 181.958L200.704 182.721L200.22 183.586L199.872 184.559L199.655 185.642L199.563 186.836L199.587 188.141L199.718 189.557L199.946 191.08L200.257 192.705L200.637 194.426L201.071 196.234L201.541 198.115L202.027 200.056L202.508 202.038L202.962 204.041L203.364 206.042L203.69 208.013L203.914 209.927L204.012 211.753L203.961 213.458L203.738 215.012L203.325 216.384L202.707 217.543L201.872 218.464L200.813 219.126L199.532 219.511L198.031 219.609L196.322 219.415L194.42 218.934L192.346 218.174L190.123 217.153L187.778 215.892L185.341 214.418L182.84 212.762L180.306 210.959L177.767 209.042L175.248 207.049L172.775 205.013L170.369 202.969L168.048 200.948L165.826 198.98L163.717 197.091L161.729 195.305L159.868 193.643L158.14 192.125L156.547 190.769L155.089 189.589L153.768 188.601L152.583 187.82L151.531 187.261L150.613 186.94L149.828 186.874L149.174 187.084L148.652 187.595L148.265 188.436L148.014 189.642L147.905 191.258L147.944 193.337L148.142 195.947L148.512 199.173L149.07 203.122L149.841 207.931L150.855 213.775L150.632 216.149L147.868 210.462L145.544 205.816L143.577 202.039L141.9 198.995L140.461 196.58L139.216 194.711L138.133 193.322L137.184 192.363L136.346 191.792L135.598 191.575L134.924 191.687L134.311 192.107L133.744 192.816L133.212 193.8L132.705 195.046L132.213 196.543L131.727 198.28L131.237 200.244L130.735 202.422L130.213 204.8L129.663 207.36L129.078 210.083L128.451 212.943L127.776 215.915L127.047 218.967L126.261 222.063L125.414 225.166L124.504 228.232L123.533 231.219L122.5 234.082L121.411 236.774L120.269 239.254L119.083 241.48L117.861 243.417L116.611 245.036L115.345 246.313L114.073 247.236L112.807 247.797L111.555 248L110.329 247.856L109.136 247.385L107.982 246.611L106.875 245.566L105.816 244.285L104.808 242.807L103.85 241.17L102.941 239.413L102.078 237.577L101.257 235.696L100.472 233.805L99.7179 231.936L98.9877 230.115L98.2744 228.369L97.5707 226.717L96.8694 225.179L96.1628 223.768L95.4439 222.497L94.7053 221.376L93.9402 220.412L93.1419 219.61L92.304 218.973L91.4204 218.503L90.4856 218.2L89.4945 218.061L88.4424 218.085L87.3252 218.265L86.1399 218.596L84.884 219.069L83.5561 219.675L82.1561 220.401L80.6852 221.234L79.1461 222.156L77.5437 223.15L75.8843 224.193L74.1768 225.261L72.4322 226.329L70.664 227.367L68.888 228.344L67.1223 229.229L65.3871 229.988L63.7043 230.589L62.0969 231L60.5886 231.191L59.2028 231.136L57.9621 230.812L56.8871 230.204L55.9956 229.3L55.3019 228.098L54.8161 226.6L54.5434 224.819L54.4842 222.771L54.6337 220.482L54.9822 217.981L55.5155 215.302L56.2155 212.481L57.0611 209.557L58.0286 206.568L59.0931 203.551L60.2287 200.543L61.4098 197.575L62.6111 194.678L63.8087 191.877L64.9799 189.195L66.1036 186.649L67.1606 184.255L68.133 182.026L69.0043 179.97L69.7593 178.094L70.3834 176.404L70.8625 174.905L71.1824 173.6L71.3283 172.493L71.2839 171.587L71.0315 170.889L70.5502 170.403L69.8158 170.14L68.7993 170.111L67.4655 170.33L65.7715 170.818L63.6642 171.601L61.0776 172.71L57.9292 174.189L54.1147 176.091L49.5012 178.486L43.9183 181.465L45.2274 179.344L49.4682 175.22L52.9074 171.788L55.6716 168.927L57.859 166.538L59.5466 164.546L60.7948 162.89L61.6512 161.522L62.153 160.4L62.33 159.494L62.2053 158.775L61.7974 158.221L61.1208 157.813L60.1872 157.533L59.0064 157.368L57.5869 157.302L55.9365 157.324L54.0635 157.421L51.9766 157.581L49.686 157.792L47.2042 158.041L44.5459 158.316L41.7293 158.602L38.7759 158.887L35.7111 159.155L32.5643 159.391L29.369 159.582L26.162 159.711L22.9834 159.766L19.8757 159.732L16.8824 159.598L14.0471 159.354L11.4121 158.993L9.0165 158.51L6.89511 157.902L5.07691 157.17L3.58396 156.32L2.4305 155.356L1.62251 154.289L1.15763 153.13L1.02539 151.892L1.20795 150.59L1.68101 149.237L2.41496 147.848L3.37622 146.438L4.52854 145.019L5.83425 143.603L7.2555 142.2L8.75519 140.818L10.2979 139.465L11.8504 138.145L13.3822 136.861L14.8658 135.616L16.2767 134.41L17.5935 133.242L18.798 132.11L19.8744 131.012L20.81 129.944L21.5941 128.903L22.2186 127.883L22.677 126.879L22.965 125.888L23.0799 124.902L23.0205 123.918L22.7874 122.929L22.3829 121.93L21.8107 120.915L21.0766 119.881L20.1883 118.822L19.1554 117.734L17.9902 116.613L16.7073 115.457L15.3242 114.263L13.8612 113.031L12.3419 111.759L10.7929 110.451L9.24356 109.107L7.72641 107.734L6.27622 106.337L4.92961 104.924L3.72432 103.505L2.69817 102.09L1.88801 100.693L1.32842 99.3274L1.05042 98.0073L1.08011 96.7473L1.43754 95.5618L2.13558 94.4642L3.17924 93.4666L4.56522 92.579L6.28185 91.809L8.3095 91.1615L10.6213 90.6384L13.1841 90.2387L15.9601 89.9583L18.9077 89.7904L21.9837 89.7259L25.1444 89.7535L28.3468 89.8606L31.5501 90.0333L34.7161 90.2568L37.8104 90.5164L40.8022 90.7972L43.665 91.0846L46.3758 91.3645L48.9156 91.6231L51.2685 91.8475L53.4215 92.025L55.3637 92.1434L57.0859 92.1906L58.5798 92.1543L59.8375 92.022L60.8508 91.7804L61.6104 91.415L62.1054 90.9096L62.3221 90.2456L62.2435 89.4015L61.8479 88.3517L61.1082 87.0657L59.9894 85.5061L58.4476 83.6272L56.4269 81.3725L53.8559 78.6709L50.644 75.4332L46.6743 71.5452L41.9022 66.9372L47.8375 70.1245L52.7392 72.6946L56.7922 74.7454L60.1402 76.3524L62.8959 77.5743L65.1479 78.4568L66.9673 79.0355L68.4107 79.3381L69.5242 79.3861L70.345 79.1961L70.9041 78.7806L71.227 78.1491L71.3356 77.3089L71.2485 76.2653L70.9824 75.0228L70.5524 73.585L69.973 71.9556L69.2581 70.1387L68.4222 68.1393L67.4803 65.9641L66.4484 63.6217L65.3439 61.123L64.1856 58.4823L62.9941 55.7169L61.7914 52.8478L60.6012 49.8996L59.4484 46.9008L58.3584 43.8831L57.3572 40.8813L56.4702 37.9323L55.7213 35.0743L55.1328 32.3458L54.7237 29.7841L54.5096 27.4241L54.5015 25.2967L54.706 23.4283L55.1242 21.8387L55.7526 20.5415L56.5825 19.5427L57.6008 18.8411L58.7909 18.4284L60.1328 18.29L61.6046 18.4054L63.183 18.7493L64.8443 19.293L66.5653 20.0053L68.3235 20.8536L70.0983 21.805L71.8708 22.8269L73.6245 23.8881L75.3451 24.9594L77.0209 26.0133L78.6423 27.025L80.2021 27.9724L81.6951 28.8356L83.1179 29.5974L84.4688 30.243L85.7476 30.7596L86.9552 31.1368L88.0938 31.3658L89.1662 31.4396L90.1763 31.3531L91.1285 31.1025L92.0277 30.6856L92.8796 30.1018L93.6898 29.3521L94.4648 28.4392L95.2111 27.3675L95.9355 26.1436L96.6452 24.7764L97.3475 23.2771L98.0496 21.6597L98.759 19.9413L99.483 18.142L100.229 16.2853L101.003 14.3981L101.812 12.5105L102.661 10.6558L103.555 8.86984L104.497 7.19059L105.489 5.65727L106.532 4.30936L107.625 3.18538L108.764 2.32161L109.945 1.75063L111.161 1.5L112.406 1.59097L113.669 2.03737L114.94 2.84485L116.209 4.01045L117.465 5.52253L118.697 7.36117L119.896 9.49893L121.052 11.9019L122.159 14.5312L123.21 17.3443L124.202 20.2964L125.131 23.3425L125.998 26.4382L126.803 29.5408L127.55 32.6108L128.242 35.6117L128.884 38.511L129.481 41.2803L130.041 43.8945L130.571 46.3325L131.079 48.5761L131.571 50.6098L132.058 52.42L132.547 53.9947L133.048 55.3223L133.571 56.3913L134.125 57.1894L134.723 57.7026L135.376 57.9146L136.098 57.8053L136.906 57.3502L137.818 56.5185L138.855 55.272L140.045 53.5625L141.418 51.3294L143.014 48.496L144.883 44.9651L147.084 40.6126L149.697 35.2793L151.234 33.6029L150.136 39.8202L149.292 44.9376L148.668 49.1445L148.24 52.5883L147.989 55.3845L147.901 57.6245L147.963 59.3811L148.17 60.7124L148.514 61.6653L148.993 62.2778L149.605 62.5811L150.349 62.6009L151.225 62.3588L152.233 61.8736L153.376 61.1616L154.654 60.2383L156.068 59.1182L157.618 57.8163L159.303 56.348L161.122 54.7303L163.07 52.9815L165.142 51.1226L167.329 49.1766L169.62 47.1694L172.001 45.1294L174.455 43.0875L176.961 41.0769L179.496 39.1321L182.035 37.2889L184.55 35.5825L187.011 34.0472L189.388 32.7151L191.653 31.6146L193.777 30.7695L195.737 30.1982L197.509 29.9125L199.077 29.9178L200.429 30.2121L201.559 30.787L202.465 31.6277L203.151 32.7138L203.628 34.0206L203.91 35.5197L204.013 37.1805L203.96 38.9714L203.773 40.8604L203.477 42.8168L203.097 44.8111L202.657 46.8162L202.182 48.8076L201.695 50.7637L201.218 52.6657L200.77 54.4979L200.371 56.2475L200.036 57.9044L199.781 59.4607L199.618 60.911L199.558 62.2517L199.613 63.4811L199.789 64.5991L200.094 65.6066L200.535 66.5061L201.114 67.301L201.836 67.9958L202.702 68.5956L203.713 69.1067L204.867 69.5363L206.162 69.8922L207.593 70.1834L209.153 70.4197L210.833 70.6117L212.62 70.7712L214.5 70.9108L216.456 71.0439L218.464 71.1849L220.502 71.3486L222.542 71.5505L224.552 71.8061L226.498 72.1306L228.347 72.5388L230.059 73.0444L231.599 73.6594L232.93 74.3939L234.016 75.2556L234.827 76.2488L235.337 77.3751L235.525 78.6322L235.378 80.0146L234.889 81.5131L234.061 83.1158L232.905 84.8078L231.438 86.5722L229.686 88.3909L227.68 90.2447L225.457 92.1148L223.055 93.9826L220.518 95.8309L217.886 97.6442L215.201 99.409L212.504 101.114L209.833 102.75L207.221 104.31L204.7 105.79L202.299 107.187L200.04 108.5L197.947 109.731L196.037 110.881L194.328 111.953L192.833 112.952L191.568 113.882L190.545 114.749L189.78 115.558L189.287 116.317L189.084 117.03L189.191 117.706L189.634 118.351L190.443 118.973L191.654 119.58L193.316 120.183L195.484 120.791L198.233 121.416L201.654 122.074L205.864 122.782L211.011 123.561L217.287 124.439L219.561 124.746Z" fill="#F9F9F9"/>
<path d="M219.561 124.746V124.746ZM219.561 124.746L212.877 125.663L207.394 126.47L202.904 127.198L199.245 127.869L196.293 128.503L193.948 129.116L192.132 129.719L190.783 130.324L189.851 130.94L189.295 131.577L189.083 132.242L189.19 132.943L189.593 133.686L190.273 134.478L191.215 135.326L192.405 136.236L193.828 137.212L195.47 138.261L197.318 139.385L199.355 140.59L201.563 141.877L203.921 143.247L206.407 144.701L208.993 146.236L211.649 147.848L214.342 149.532L217.034 151.279L219.688 153.078L222.26 154.917L224.709 156.78L226.994 158.652L229.073 160.513L230.91 162.345L232.47 164.128L233.728 165.845L234.662 167.478L235.259 169.011L235.515 170.432L235.433 171.73L235.024 172.898L234.306 173.934L233.304 174.837L232.047 175.611L230.57 176.263L228.909 176.802L227.1 177.24L225.18 177.59L223.187 177.866L221.153 178.083L219.112 178.257L217.091 178.404L215.116 178.538L213.21 178.674L211.391 178.826L209.676 179.006L208.077 179.227L206.604 179.499L205.265 179.834L204.065 180.239L203.008 180.723L202.096 181.294L201.329 181.958L200.704 182.721L200.22 183.586L199.872 184.559L199.655 185.642L199.563 186.836L199.587 188.141L199.718 189.557L199.946 191.08L200.257 192.705L200.637 194.426L201.071 196.234L201.541 198.115L202.027 200.056L202.508 202.038L202.962 204.041L203.364 206.042L203.69 208.013L203.914 209.927L204.012 211.753L203.961 213.458L203.738 215.012L203.325 216.384L202.707 217.543L201.872 218.464L200.813 219.126L199.532 219.511L198.031 219.609L196.322 219.415L194.42 218.934L192.346 218.174L190.123 217.153L187.778 215.892L185.341 214.418L182.84 212.762L180.306 210.959L177.767 209.042L175.248 207.049L172.775 205.013L170.369 202.969L168.048 200.948L165.826 198.98L163.717 197.091L161.728 195.305L159.868 193.643L158.14 192.125L156.547 190.769L155.089 189.589L153.768 188.601L152.583 187.82L151.531 187.261L150.613 186.94L149.828 186.874L149.174 187.084L148.652 187.595L148.265 188.436L148.014 189.642L147.905 191.258L147.944 193.337L148.142 195.947L148.512 199.173L149.071 203.122L149.841 207.931L150.855 213.775L150.632 216.149L147.868 210.462L145.544 205.816L143.577 202.039L141.9 198.995L140.461 196.58L139.216 194.711L138.133 193.322L137.184 192.363L136.346 191.792L135.598 191.575L134.924 191.687L134.311 192.107L133.744 192.816L133.212 193.8L132.705 195.046L132.213 196.543L131.727 198.28L131.237 200.244L130.735 202.422L130.213 204.8L129.663 207.36L129.078 210.083L128.451 212.943L127.776 215.915L127.047 218.967L126.261 222.063L125.414 225.166L124.504 228.232L123.533 231.219L122.5 234.082L121.411 236.774L120.269 239.254L119.083 241.48L117.861 243.417L116.611 245.036L115.345 246.313L114.073 247.236L112.807 247.797L111.555 248L110.329 247.856L109.136 247.385L107.982 246.611L106.875 245.566L105.816 244.285L104.808 242.807L103.85 241.17L102.941 239.413L102.078 237.577L101.257 235.696L100.472 233.805L99.7179 231.936L98.9877 230.115L98.2744 228.369L97.5707 226.717L96.8694 225.179L96.1628 223.768L95.4439 222.497L94.7053 221.376L93.9402 220.412L93.1419 219.61L92.304 218.973L91.4204 218.503L90.4856 218.2L89.4945 218.061L88.4424 218.085L87.3252 218.265L86.1399 218.596L84.884 219.069L83.5561 219.675L82.1561 220.401L80.6851 221.234L79.1461 222.156L77.5437 223.15L75.8843 224.193L74.1768 225.261L72.4322 226.329L70.664 227.367L68.888 228.344L67.1223 229.229L65.3871 229.988L63.7043 230.589L62.0969 231L60.5886 231.191L59.2028 231.136L57.9621 230.812L56.8871 230.204L55.9956 229.3L55.3019 228.098L54.8161 226.6L54.5434 224.819L54.4842 222.771L54.6337 220.482L54.9822 217.981L55.5155 215.302L56.2155 212.481L57.0611 209.557L58.0286 206.568L59.0931 203.551L60.2287 200.543L61.4098 197.575L62.6111 194.678L63.8087 191.877L64.9799 189.195L66.1036 186.649L67.1606 184.255L68.133 182.026L69.0043 179.97L69.7593 178.094L70.3834 176.404L70.8625 174.905L71.1825 173.6L71.3283 172.493L71.2839 171.587L71.0315 170.889L70.5502 170.403L69.8158 170.14L68.7993 170.111L67.4655 170.33L65.7715 170.818L63.6642 171.601L61.0776 172.71L57.9292 174.189L54.1147 176.091L49.5012 178.486L43.9183 181.465L45.2274 179.344L49.4682 175.22L52.9074 171.788L55.6716 168.927L57.859 166.538L59.5466 164.546L60.7948 162.89L61.6512 161.522L62.153 160.4L62.33 159.494L62.2053 158.775L61.7974 158.221L61.1208 157.813L60.1872 157.533L59.0064 157.368L57.5869 157.302L55.9365 157.324L54.0635 157.421L51.9766 157.581L49.686 157.792L47.2042 158.041L44.5459 158.316L41.7293 158.602L38.7759 158.887L35.7111 159.155L32.5643 159.391L29.369 159.582L26.162 159.711L22.9834 159.766L19.8757 159.732L16.8824 159.598L14.0471 159.354L11.4121 158.993L9.0165 158.51L6.89511 157.902L5.07691 157.17L3.58396 156.32L2.4305 155.356L1.62251 154.289L1.15763 153.13L1.02539 151.892L1.20795 150.59L1.68101 149.237L2.41496 147.848L3.37622 146.438L4.52854 145.019L5.83425 143.603L7.2555 142.2L8.75519 140.818L10.2979 139.465L11.8504 138.145L13.3822 136.861L14.8658 135.616L16.2767 134.41L17.5935 133.242L18.798 132.11L19.8744 131.012L20.81 129.944L21.5941 128.903L22.2186 127.883L22.677 126.879L22.965 125.888L23.0799 124.902L23.0205 123.918L22.7874 122.929L22.3829 121.93L21.8107 120.915L21.0766 119.881L20.1883 118.822L19.1554 117.734L17.9902 116.613L16.7073 115.457L15.3242 114.263L13.8612 113.031L12.3419 111.759L10.7929 110.451L9.24356 109.107L7.72641 107.734L6.27622 106.337L4.92961 104.924L3.72432 103.505L2.69817 102.09L1.88801 100.693L1.32842 99.3274L1.05042 98.0073L1.08011 96.7473L1.43754 95.5618L2.13558 94.4642L3.17924 93.4666L4.56522 92.579L6.28185 91.809L8.3095 91.1615L10.6213 90.6384L13.1841 90.2387L15.9601 89.9582L18.9077 89.7904L21.9837 89.7259L25.1444 89.7535L28.3468 89.8606L31.5501 90.0333L34.7161 90.2568L37.8104 90.5164L40.8022 90.7972L43.665 91.0846L46.3758 91.3645L48.9156 91.6231L51.2685 91.8475L53.4215 92.025L55.3637 92.1434L57.0859 92.1906L58.5798 92.1543L59.8375 92.022L60.8508 91.7804L61.6104 91.415L62.1054 90.9096L62.3221 90.2456L62.2434 89.4015L61.8479 88.3517L61.1082 87.0657L59.9894 85.5061L58.4476 83.6272L56.4269 81.3725L53.8559 78.6709L50.644 75.4332L46.6743 71.5452L41.9022 66.9372L47.8375 70.1245L52.7392 72.6946L56.7922 74.7454L60.1402 76.3524L62.8959 77.5743L65.148 78.4568L66.9673 79.0355L68.4107 79.3381L69.5242 79.3861L70.345 79.1961L70.9041 78.7806L71.227 78.1491L71.3356 77.3089L71.2485 76.2653L70.9824 75.0228L70.5524 73.585L69.973 71.9556L69.2581 70.1387L68.4222 68.1393L67.4803 65.9641L66.4484 63.6217L65.3439 61.123L64.1856 58.4823L62.9941 55.7169L61.7914 52.8478L60.6012 49.8996L59.4484 46.9008L58.3584 43.8831L57.3572 40.8813L56.4702 37.9323L55.7213 35.0743L55.1328 32.3458L54.7237 29.7841L54.5096 27.4241L54.5015 25.2967L54.706 23.4283L55.1242 21.8387L55.7526 20.5415L56.5825 19.5427L57.6008 18.8411L58.7909 18.4284L60.1328 18.29L61.6046 18.4054L63.183 18.7493L64.8443 19.293L66.5653 20.0053L68.3235 20.8536L70.0983 21.805L71.8708 22.8269L73.6245 23.8881L75.3451 24.9594L77.0209 26.0133L78.6423 27.025L80.2021 27.9724L81.6951 28.8356L83.1179 29.5974L84.4688 30.243L85.7476 30.7596L86.9552 31.1368L88.0937 31.3658L89.1662 31.4396L90.1763 31.3531L91.1285 31.1025L92.0277 30.6856L92.8796 30.1018L93.6898 29.3521L94.4648 28.4392L95.2111 27.3675L95.9355 26.1436L96.6452 24.7764L97.3475 23.2771L98.0496 21.6597L98.759 19.9413L99.483 18.142L100.229 16.2853L101.003 14.3981L101.812 12.5105L102.661 10.6558L103.555 8.86984L104.497 7.19059L105.489 5.65727L106.532 4.30936L107.625 3.18538L108.764 2.32161L109.945 1.75063L111.161 1.5L112.406 1.59097L113.669 2.03737L114.94 2.84485L116.209 4.01045L117.465 5.52253L118.697 7.36117L119.896 9.49893L121.052 11.9019L122.159 14.5312L123.21 17.3443L124.202 20.2964L125.131 23.3425L125.998 26.4382L126.803 29.5408L127.55 32.6108L128.242 35.6117L128.884 38.511L129.481 41.2803L130.041 43.8945L130.571 46.3325L131.079 48.5761L131.571 50.6098L132.058 52.42L132.547 53.9947L133.048 55.3223L133.571 56.3912L134.125 57.1894L134.723 57.7026L135.376 57.9146L136.098 57.8053L136.906 57.3502L137.818 56.5185L138.855 55.272L140.045 53.5625L141.418 51.3294L143.014 48.496L144.883 44.9651L147.084 40.6126L149.697 35.2793L151.234 33.6029L150.136 39.8202L149.292 44.9376L148.668 49.1445L148.24 52.5883L147.989 55.3845L147.901 57.6245L147.963 59.3811L148.17 60.7124L148.514 61.6653L148.993 62.2778L149.605 62.5811L150.349 62.6009L151.225 62.3588L152.233 61.8736L153.376 61.1616L154.654 60.2383L156.068 59.1182L157.618 57.8163L159.303 56.348L161.122 54.7303L163.07 52.9815L165.142 51.1226L167.329 49.1766L169.62 47.1694L172.001 45.1294L174.455 43.0875L176.961 41.0769L179.496 39.1321L182.035 37.2889L184.55 35.5824L187.011 34.0472L189.388 32.7151L191.653 31.6146L193.777 30.7695L195.737 30.1982L197.509 29.9125L199.077 29.9178L200.429 30.2121L201.559 30.787L202.465 31.6277L203.151 32.7138L203.628 34.0206L203.91 35.5197L204.013 37.1805L203.96 38.9714L203.773 40.8604L203.477 42.8168L203.097 44.8111L202.657 46.8162L202.182 48.8076L201.695 50.7637L201.218 52.6657L200.77 54.4979L200.371 56.2475L200.036 57.9044L199.781 59.4607L199.618 60.911L199.558 62.2517L199.613 63.4811L199.789 64.5991L200.094 65.6066L200.535 66.5061L201.114 67.301L201.836 67.9957L202.702 68.5956L203.713 69.1067L204.867 69.5363L206.162 69.8922L207.593 70.1835L209.153 70.4197L210.833 70.6117L212.62 70.7712L214.5 70.9108L216.456 71.0439L218.464 71.1849L220.502 71.3486L222.542 71.5505L224.552 71.8061L226.498 72.1306L228.347 72.5388L230.059 73.0444L231.599 73.6594L232.93 74.3939L234.016 75.2556L234.827 76.2488L235.337 77.3751L235.525 78.6322L235.378 80.0146L234.889 81.5131L234.061 83.1158L232.905 84.8078L231.438 86.5722L229.686 88.3909L227.68 90.2447L225.457 92.1148L223.055 93.9826L220.518 95.8309L217.886 97.6442L215.201 99.409L212.504 101.114L209.833 102.75L207.221 104.31L204.7 105.79L202.299 107.187L200.04 108.5L197.947 109.731L196.037 110.881L194.328 111.953L192.833 112.952L191.568 113.882L190.545 114.749L189.78 115.558L189.287 116.317L189.084 117.03L189.191 117.706L189.634 118.351L190.443 118.973L191.654 119.58L193.316 120.183L195.484 120.791L198.233 121.416L201.654 122.074L205.864 122.782L211.011 123.561L217.287 124.439L219.561 124.746Z" stroke="black" stroke-width="2" stroke-linejoin="round"/>
</svg>
