<svg width="252" height="252" viewBox="0 0 252 252" fill="none" xmlns="http://www.w3.org/2000/svg">
<path fill-rule="evenodd" clip-rule="evenodd" d="M251.025 125.996L240.662 127.143L231.946 128.116L224.581 128.957L218.335 129.697L213.024 130.359L208.501 130.963L204.651 131.525L201.378 132.057L198.605 132.57L196.271 133.072L194.322 133.571L192.717 134.073L191.42 134.585L190.403 135.112L189.642 135.658L189.116 136.228L188.808 136.827L188.705 137.459L188.795 138.129L189.068 138.839L189.516 139.595L190.132 140.401L190.908 141.26L191.84 142.176L192.922 143.153L194.149 144.195L195.514 145.306L197.012 146.488L198.637 147.744L200.381 149.077L202.235 150.488L204.189 151.978L206.232 153.547L208.35 155.195L210.528 156.918L212.748 158.713L214.991 160.575L217.236 162.496L219.459 164.47L221.635 166.484L223.737 168.526L225.738 170.584L227.608 172.64L229.32 174.679L230.845 176.681L232.156 178.628L233.23 180.5L234.044 182.278L234.579 183.944L234.823 185.479L234.764 186.868L234.399 188.097L233.729 189.155L232.758 190.033L231.499 190.726L229.966 191.231L228.18 191.55L226.163 191.688L223.942 191.651L221.545 191.45L219.002 191.095L216.342 190.602L213.596 189.986L210.791 189.262L207.956 188.449L205.116 187.562L202.295 186.619L199.512 185.636L196.788 184.629L194.138 183.612L191.575 182.599L189.111 181.604L186.755 180.638L184.514 179.711L182.393 178.834L180.396 178.015L178.525 177.262L176.783 176.584L175.17 175.986L173.686 175.475L172.33 175.059L171.103 174.742L170.003 174.533L169.029 174.439L168.183 174.466L167.463 174.623L166.872 174.92L166.41 175.369L166.079 175.98L165.884 176.771L165.829 177.757L165.921 178.959L166.168 180.402L166.581 182.116L167.173 184.133L167.96 186.498L168.963 189.261L170.207 192.483L171.723 196.24L173.549 200.626L175.735 205.755L178.338 211.772L181.436 218.859L185.122 227.248L186.364 231.761L180.478 223.805L175.511 217.111L171.291 211.458L167.684 206.674L164.585 202.622L161.909 199.192L159.588 196.297L157.568 193.867L155.803 191.843L154.257 190.179L152.898 188.836L151.701 187.782L150.645 186.993L149.71 186.446L148.883 186.124L148.148 186.014L147.494 186.104L146.911 186.383L146.39 186.846L145.923 187.486L145.501 188.298L145.117 189.277L144.767 190.422L144.442 191.728L144.137 193.193L143.847 194.814L143.564 196.589L143.285 198.512L143.003 200.581L142.711 202.788L142.405 205.127L142.079 207.59L141.727 210.165L141.342 212.84L140.92 215.6L140.456 218.428L139.943 221.303L139.377 224.202L138.755 227.102L138.073 229.973L137.328 232.787L136.52 235.511L135.647 238.113L134.711 240.56L133.714 242.82L132.66 244.858L131.553 246.646L130.399 248.156L129.207 249.363L127.985 250.249L126.742 250.797L125.488 251L124.233 250.853L122.987 250.359L121.761 249.526L120.563 248.369L119.403 246.906L118.289 245.161L117.225 243.16L116.219 240.934L115.273 238.514L114.39 235.934L113.571 233.227L112.817 230.426L112.125 227.562L111.493 224.665L110.919 221.763L110.398 218.883L109.926 216.046L109.497 213.274L109.107 210.585L108.75 207.993L108.42 205.511L108.112 203.152L107.818 200.923L107.535 198.832L107.255 196.885L106.974 195.087L106.685 193.441L106.383 191.951L106.062 190.619L105.716 189.449L105.338 188.442L104.923 187.604L104.463 186.936L103.951 186.445L103.378 186.136L102.737 186.015L102.016 186.093L101.203 186.38L100.287 186.89L99.2514 187.639L98.0783 188.649L96.7469 189.944L95.2322 191.555L93.5043 193.519L91.5274 195.881L89.258 198.697L86.6427 202.036L83.6161 205.983L80.0968 210.642L75.9827 216.146L71.145 222.661L65.4189 230.399L65.0043 228.722L68.7948 220.101L71.979 212.824L74.6558 206.649L76.9033 201.389L78.7835 196.894L80.3461 193.043L81.631 189.741L82.6704 186.91L83.4904 184.486L84.1121 182.415L84.5525 180.656L84.8252 179.172L84.9413 177.933L84.9095 176.914L84.7364 176.094L84.4273 175.455L83.9858 174.981L83.4146 174.661L82.7155 174.482L81.8892 174.435L80.9363 174.511L79.8564 174.702L78.6491 175.001L77.3139 175.402L75.8501 175.898L74.2574 176.483L72.5358 177.149L70.6859 177.891L68.709 178.699L66.6076 179.568L64.3851 180.487L62.0468 181.448L59.5994 182.439L57.0517 183.45L54.4145 184.467L51.701 185.477L48.9269 186.465L46.1102 187.415L43.2716 188.312L40.4341 189.138L37.623 189.877L34.8653 190.512L32.1898 191.026L29.626 191.403L27.2039 191.63L24.9531 191.694L22.902 191.584L21.0773 191.294L19.5026 190.819L18.1985 190.156L17.1811 189.307L16.4623 188.278L16.0485 187.075L15.9415 185.711L16.1373 184.198L16.6272 182.552L17.3978 180.79L18.4313 178.932L19.7066 176.995L21.1992 175L22.883 172.967L24.73 170.912L26.7117 168.853L28.7997 166.807L30.9658 164.788L33.1831 162.807L35.4262 160.877L37.6713 159.005L39.8965 157.199L42.0821 155.464L44.2106 153.805L46.2661 152.223L48.2352 150.72L50.1059 149.297L51.8679 147.951L53.5123 146.683L55.0314 145.489L56.4185 144.368L57.6674 143.315L58.7727 142.327L59.7289 141.402L60.5306 140.534L61.172 139.72L61.647 138.957L61.9485 138.239L62.0683 137.563L61.9969 136.926L61.7228 136.322L61.2325 135.747L60.5097 135.197L59.535 134.668L58.2849 134.154L56.7311 133.65L54.8398 133.151L52.5695 132.65L49.8706 132.14L46.682 131.612L42.9294 131.055L38.5214 130.459L33.3447 129.807L27.2586 129.081L20.0861 128.258L11.6036 127.308L1.52539 126.192L8.58223 125.018L17.5385 124.02L25.1014 123.16L31.5124 122.406L36.962 121.733L41.6014 121.121L45.5519 120.553L48.9113 120.017L51.759 119.502L54.1599 118.999L56.1671 118.5L57.8244 117.998L59.1679 117.488L60.2276 116.965L61.0283 116.422L61.5908 115.856L61.9322 115.261L62.0668 114.635L62.0068 113.972L61.7622 113.268L61.3417 112.519L60.7526 111.722L60.0013 110.872L59.0937 109.965L58.0354 108.998L56.8316 107.966L55.4878 106.867L54.0101 105.696L52.4048 104.452L50.6794 103.132L48.8423 101.733L46.9033 100.256L44.8739 98.6989L42.7671 97.0639L40.5978 95.3528L38.3832 93.5689L36.1422 91.7173L33.896 89.8045L31.6678 87.8389L29.4825 85.8306L27.3666 83.7915L25.348 81.7354L23.4549 79.6777L21.7161 77.6352L20.1596 75.6259L18.8124 73.6689L17.6994 71.7834L16.843 69.9888L16.262 68.304L15.9713 66.7468L15.9812 65.3335L16.2972 64.0782L16.9193 62.9926L17.8426 62.0857L19.057 61.3633L20.5475 60.828L22.295 60.4792L24.2768 60.313L26.467 60.3227L28.8377 60.4989L31.3596 60.8298L34.0028 61.3017L36.7374 61.8995L39.5345 62.607L42.3665 63.4074L45.2073 64.2837L48.0334 65.219L50.8231 66.1967L53.5577 67.2012L56.2208 68.2174L58.7983 69.2313L61.2787 70.2301L63.6526 71.2017L65.9125 72.1353L68.053 73.0211L70.0699 73.8499L71.9604 74.6136L73.723 75.3047L75.3568 75.916L76.8616 76.4408L78.2377 76.8728L79.4857 77.2053L80.6061 77.4318L81.5994 77.5453L82.466 77.5382L83.2057 77.4022L83.8178 77.1279L84.3008 76.7045L84.6525 76.1197L84.8694 75.3589L84.9469 74.4054L84.8787 73.2389L84.657 71.8359L84.2713 70.1679L83.7091 68.201L82.9544 65.8946L81.9874 63.1993L80.7839 60.0551L79.3137 56.3889L77.5395 52.1106L75.4151 47.1086L72.8827 41.2437L69.8697 34.3409L66.2846 26.1779L63.3756 18.8289L69.4265 27.0096L74.5273 33.8885L78.8564 39.6946L82.553 44.6072L85.7268 48.7682L88.4653 52.2907L90.8386 55.2654L92.9035 57.7657L94.7065 59.851L96.2856 61.5698L97.6725 62.9618L98.8936 64.0595L99.971 64.8896L100.924 65.4738L101.767 65.8302L102.516 65.9732L103.182 65.9148L103.775 65.6647L104.306 65.2306L104.781 64.6187L105.21 63.8341L105.599 62.881L105.955 61.7626L106.283 60.482L106.591 59.042L106.883 57.4452L107.166 55.695L107.446 53.7948L107.727 51.7492L108.017 49.5636L108.32 47.2449L108.642 44.8014L108.99 42.2434L109.369 39.5833L109.785 36.8357L110.243 34.0176L110.747 31.1487L111.304 28.2512L111.917 25.35L112.589 22.4723L113.324 19.6475L114.122 16.9068L114.985 14.2828L115.911 11.8086L116.898 9.51744L117.944 7.44158L119.043 5.6117L120.189 4.05591L121.376 2.79886L122.594 1.86105L123.834 1.25804L125.088 1L126.343 1.09131L127.591 1.53041L128.821 2.30988L130.023 3.41666L131.19 4.83255L132.312 6.53479L133.384 8.4968L134.4 10.6891L135.356 13.0799L136.249 15.6365L137.078 18.3256L137.843 21.1141L138.545 23.9703L139.185 26.8639L139.769 29.7664L140.298 32.6518L140.777 35.4968L141.212 38.2804L141.608 40.9843L141.97 43.5928L142.304 46.0924L142.616 48.4719L142.911 50.722L143.196 52.8353L143.475 54.8056L143.756 56.6279L144.043 58.2984L144.343 59.8137L144.661 61.1708L145.003 62.367L145.375 63.3995L145.784 64.2651L146.236 64.9601L146.739 65.4798L147.301 65.8187L147.931 65.9698L148.639 65.9243L149.436 65.6716L150.335 65.1982L151.35 64.4881L152.5 63.5213L153.805 62.2735L155.288 60.7153L156.98 58.8106L158.915 56.5153L161.134 53.7755L163.69 50.5249L166.646 46.6816L170.081 42.1438L174.093 36.7845L178.805 30.4433L184.377 22.9169L186.439 21.7525L182.541 30.6137L179.267 38.0875L176.515 44.4238L174.204 49.8187L172.269 54.4274L170.658 58.3736L169.332 61.7571L168.255 64.6587L167.402 67.1442L166.75 69.2677L166.281 71.0739L165.983 72.5997L165.842 73.876L165.851 74.9285L166.002 75.7791L166.29 76.4461L166.71 76.9449L167.261 77.289L167.94 77.4899L168.746 77.5575L169.679 77.5006L170.738 77.3272L171.925 77.0445L173.24 76.6592L174.683 76.1779L176.256 75.6071L177.957 74.9533L179.786 74.2234L181.743 73.4247L183.825 72.5651L186.028 71.6532L188.349 70.6984L190.779 69.7112L193.312 68.7029L195.935 67.6861L198.638 66.6743L201.403 65.6818L204.214 64.7242L207.051 63.8177L209.89 62.9789L212.707 62.2249L215.476 61.5726L218.166 61.0386L220.75 60.6385L223.196 60.3868L225.476 60.2962L227.561 60.3774L229.424 60.6383L231.04 61.0842L232.388 61.7173L233.452 62.5366L234.219 63.5377L234.681 64.7132L234.837 66.0527L234.689 67.5431L234.245 69.169L233.518 70.9134L232.525 72.7579L231.287 74.6832L229.827 76.6699L228.172 78.6988L226.349 80.7514L224.387 82.8103L222.314 84.8593L220.159 86.884L217.948 88.8714L215.707 90.8106L213.461 92.6923L211.231 94.5093L209.038 96.2557L206.899 97.9274L204.831 99.5216L202.847 101.037L200.96 102.473L199.18 103.831L197.517 105.111L195.977 106.317L194.569 107.45L193.297 108.513L192.169 109.511L191.188 110.446L190.362 111.323L189.694 112.145L189.192 112.916L188.863 113.641L188.714 114.323L188.754 114.966L188.995 115.575L189.45 116.154L190.134 116.708L191.067 117.24L192.272 117.756L193.775 118.261L195.61 118.76L197.817 119.261L200.444 119.769L203.55 120.294L207.207 120.845L211.504 121.434L216.549 122.076L222.48 122.789L229.466 123.594L237.722 124.522L247.524 125.608L251.025 125.996Z" fill="#F9F9F9"/>
<path d="M251.025 125.996V125.996ZM251.025 125.996L240.662 127.143L231.946 128.116L224.581 128.957L218.335 129.697L213.024 130.359L208.501 130.963L204.651 131.525L201.378 132.057L198.605 132.57L196.271 133.072L194.322 133.571L192.717 134.073L191.42 134.585L190.403 135.112L189.642 135.658L189.116 136.228L188.808 136.827L188.705 137.459L188.795 138.129L189.068 138.839L189.516 139.595L190.132 140.401L190.908 141.26L191.84 142.176L192.922 143.153L194.149 144.195L195.514 145.306L197.012 146.488L198.637 147.744L200.381 149.077L202.235 150.488L204.189 151.978L206.232 153.547L208.35 155.195L210.528 156.918L212.748 158.713L214.991 160.575L217.236 162.496L219.459 164.47L221.635 166.484L223.737 168.526L225.738 170.584L227.608 172.64L229.32 174.679L230.845 176.681L232.156 178.628L233.23 180.5L234.044 182.278L234.579 183.944L234.823 185.479L234.764 186.868L234.399 188.097L233.729 189.155L232.758 190.033L231.499 190.726L229.966 191.231L228.18 191.55L226.163 191.688L223.942 191.651L221.545 191.45L219.002 191.095L216.342 190.602L213.596 189.986L210.791 189.262L207.956 188.449L205.116 187.562L202.295 186.619L199.512 185.636L196.788 184.629L194.138 183.612L191.575 182.599L189.111 181.604L186.755 180.638L184.514 179.711L182.393 178.834L180.396 178.015L178.526 177.262L176.783 176.584L175.17 175.986L173.686 175.475L172.33 175.059L171.103 174.742L170.003 174.533L169.029 174.439L168.183 174.466L167.463 174.623L166.872 174.92L166.41 175.369L166.079 175.98L165.884 176.771L165.829 177.757L165.921 178.959L166.168 180.402L166.581 182.116L167.173 184.133L167.96 186.498L168.963 189.261L170.207 192.483L171.723 196.24L173.549 200.626L175.735 205.755L178.338 211.772L181.436 218.859L185.122 227.248L186.364 231.761L180.478 223.805L175.511 217.111L171.291 211.458L167.684 206.674L164.585 202.622L161.909 199.192L159.588 196.297L157.568 193.867L155.803 191.843L154.257 190.179L152.898 188.836L151.701 187.782L150.645 186.993L149.71 186.446L148.883 186.124L148.148 186.014L147.494 186.104L146.911 186.383L146.39 186.846L145.923 187.486L145.501 188.298L145.117 189.277L144.767 190.422L144.442 191.728L144.137 193.193L143.847 194.814L143.564 196.589L143.285 198.512L143.003 200.581L142.711 202.788L142.405 205.127L142.079 207.59L141.727 210.165L141.342 212.84L140.92 215.6L140.456 218.428L139.943 221.303L139.377 224.202L138.755 227.102L138.073 229.973L137.328 232.787L136.52 235.511L135.647 238.113L134.711 240.56L133.714 242.82L132.66 244.858L131.553 246.646L130.399 248.156L129.207 249.363L127.985 250.249L126.742 250.797L125.488 251L124.233 250.853L122.987 250.359L121.761 249.526L120.563 248.369L119.403 246.906L118.289 245.161L117.225 243.16L116.219 240.934L115.273 238.514L114.39 235.934L113.571 233.227L112.817 230.426L112.125 227.562L111.493 224.665L110.919 221.763L110.398 218.883L109.926 216.046L109.497 213.274L109.107 210.585L108.75 207.993L108.42 205.511L108.112 203.152L107.818 200.923L107.535 198.832L107.255 196.885L106.974 195.087L106.685 193.441L106.383 191.951L106.062 190.619L105.716 189.449L105.338 188.442L104.923 187.604L104.463 186.936L103.951 186.445L103.378 186.136L102.737 186.015L102.016 186.093L101.203 186.38L100.287 186.89L99.2514 187.639L98.0783 188.649L96.7469 189.944L95.2322 191.555L93.5043 193.519L91.5274 195.881L89.258 198.697L86.6427 202.036L83.6161 205.983L80.0968 210.642L75.9827 216.146L71.145 222.661L65.4189 230.399L65.0043 228.722L68.7948 220.101L71.979 212.824L74.6558 206.649L76.9033 201.389L78.7835 196.894L80.3461 193.043L81.631 189.741L82.6704 186.91L83.4904 184.486L84.1121 182.416L84.5525 180.656L84.8252 179.172L84.9413 177.933L84.9095 176.914L84.7364 176.094L84.4273 175.455L83.9858 174.981L83.4146 174.661L82.7155 174.482L81.8892 174.435L80.9363 174.511L79.8564 174.702L78.6491 175.001L77.3139 175.402L75.8501 175.898L74.2574 176.483L72.5358 177.149L70.6859 177.891L68.709 178.699L66.6075 179.568L64.3851 180.487L62.0468 181.448L59.5994 182.439L57.0517 183.45L54.4145 184.467L51.701 185.477L48.9269 186.465L46.1102 187.415L43.2716 188.312L40.4341 189.138L37.623 189.877L34.8653 190.512L32.1898 191.026L29.626 191.403L27.2039 191.63L24.9531 191.694L22.902 191.584L21.0773 191.294L19.5026 190.819L18.1985 190.156L17.1811 189.307L16.4623 188.278L16.0485 187.075L15.9415 185.711L16.1373 184.198L16.6272 182.552L17.3978 180.79L18.4313 178.932L19.7066 176.995L21.1992 175L22.883 172.967L24.73 170.912L26.7117 168.853L28.7997 166.807L30.9658 164.788L33.1831 162.807L35.4262 160.877L37.6713 159.005L39.8965 157.199L42.0821 155.464L44.2106 153.805L46.2661 152.223L48.2352 150.72L50.1059 149.297L51.8679 147.951L53.5123 146.683L55.0314 145.489L56.4185 144.368L57.6674 143.315L58.7727 142.327L59.7289 141.402L60.5306 140.534L61.172 139.72L61.647 138.957L61.9485 138.239L62.0683 137.563L61.9969 136.926L61.7228 136.322L61.2325 135.747L60.5097 135.197L59.535 134.668L58.2849 134.154L56.7311 133.65L54.8398 133.151L52.5696 132.65L49.8706 132.14L46.682 131.612L42.9294 131.055L38.5214 130.459L33.3447 129.807L27.2586 129.081L20.0861 128.258L11.6036 127.308L1.52539 126.192L8.58223 125.018L17.5385 124.02L25.1014 123.16L31.5124 122.406L36.962 121.733L41.6014 121.121L45.5519 120.553L48.9113 120.017L51.759 119.502L54.1599 118.999L56.1671 118.5L57.8244 117.998L59.1679 117.488L60.2276 116.965L61.0283 116.422L61.5908 115.856L61.9322 115.261L62.0668 114.635L62.0068 113.972L61.7622 113.268L61.3417 112.519L60.7526 111.722L60.0013 110.872L59.0937 109.965L58.0354 108.998L56.8316 107.966L55.4878 106.867L54.0101 105.696L52.4048 104.452L50.6794 103.132L48.8423 101.733L46.9033 100.256L44.8739 98.6989L42.7671 97.0639L40.5978 95.3528L38.3832 93.5689L36.1422 91.7173L33.896 89.8045L31.6678 87.8389L29.4825 85.8306L27.3666 83.7915L25.348 81.7354L23.4549 79.6777L21.7161 77.6352L20.1596 75.6259L18.8124 73.6689L17.6994 71.7834L16.843 69.9888L16.262 68.304L15.9713 66.7469L15.9812 65.3335L16.2972 64.0782L16.9193 62.9926L17.8426 62.0857L19.057 61.3633L20.5475 60.828L22.295 60.4792L24.2768 60.313L26.467 60.3227L28.8377 60.4989L31.3596 60.8298L34.0028 61.3017L36.7374 61.8995L39.5346 62.607L42.3665 63.4074L45.2073 64.2837L48.0334 65.219L50.8231 66.1967L53.5577 67.2012L56.2208 68.2174L58.7983 69.2313L61.2787 70.2301L63.6526 71.2017L65.9125 72.1353L68.053 73.0211L70.0699 73.8499L71.9605 74.6136L73.723 75.3047L75.3568 75.916L76.8616 76.4408L78.2377 76.8728L79.4857 77.2053L80.6061 77.4318L81.5994 77.5453L82.4661 77.5382L83.2057 77.4022L83.8178 77.1279L84.3008 76.7045L84.6525 76.1197L84.8694 75.3589L84.9469 74.4054L84.8787 73.2389L84.657 71.8359L84.2713 70.1679L83.7091 68.2011L82.9544 65.8946L81.9874 63.1993L80.7839 60.0551L79.3137 56.3889L77.5395 52.1106L75.4151 47.1086L72.8827 41.2437L69.8697 34.3409L66.2846 26.1779L63.3756 18.8289L69.4265 27.0096L74.5273 33.8885L78.8564 39.6946L82.553 44.6072L85.7268 48.7682L88.4653 52.2907L90.8386 55.2654L92.9035 57.7657L94.7065 59.851L96.2856 61.5698L97.6725 62.9618L98.8936 64.0595L99.971 64.8896L100.924 65.4738L101.767 65.8302L102.516 65.9732L103.182 65.9148L103.775 65.6647L104.306 65.2306L104.781 64.6187L105.21 63.8341L105.599 62.881L105.955 61.7626L106.283 60.482L106.591 59.042L106.883 57.4452L107.166 55.695L107.446 53.7948L107.727 51.7492L108.017 49.5636L108.32 47.2449L108.642 44.8014L108.99 42.2434L109.369 39.5833L109.785 36.8357L110.243 34.0176L110.747 31.1487L111.304 28.2512L111.917 25.35L112.589 22.4723L113.324 19.6475L114.122 16.9068L114.985 14.2828L115.911 11.8086L116.898 9.51744L117.944 7.44158L119.043 5.6117L120.189 4.05591L121.376 2.79886L122.594 1.86105L123.834 1.25804L125.088 1L126.343 1.09131L127.591 1.53041L128.821 2.30988L130.023 3.41666L131.19 4.83255L132.312 6.53479L133.384 8.4968L134.4 10.6891L135.356 13.0799L136.249 15.6365L137.078 18.3256L137.843 21.1141L138.545 23.9703L139.185 26.8639L139.769 29.7664L140.298 32.6518L140.777 35.4968L141.212 38.2804L141.608 40.9843L141.97 43.5928L142.304 46.0924L142.616 48.4719L142.911 50.722L143.196 52.8353L143.475 54.8056L143.756 56.6279L144.043 58.2984L144.343 59.8137L144.661 61.1708L145.003 62.367L145.375 63.3995L145.784 64.2651L146.236 64.9601L146.739 65.4798L147.301 65.8187L147.931 65.9698L148.639 65.9243L149.436 65.6716L150.335 65.1982L151.35 64.4881L152.5 63.5213L153.805 62.2735L155.288 60.7153L156.98 58.8106L158.915 56.5153L161.134 53.7755L163.69 50.5249L166.646 46.6816L170.081 42.1438L174.093 36.7845L178.805 30.4433L184.377 22.9169L186.439 21.7525L182.541 30.6137L179.267 38.0875L176.515 44.4238L174.204 49.8187L172.269 54.4274L170.658 58.3736L169.332 61.7571L168.255 64.6587L167.402 67.1442L166.75 69.2677L166.281 71.0739L165.983 72.5997L165.842 73.876L165.851 74.9285L166.002 75.7791L166.29 76.4461L166.71 76.9449L167.261 77.289L167.94 77.4899L168.746 77.5575L169.679 77.5006L170.738 77.3272L171.925 77.0445L173.24 76.6592L174.683 76.1779L176.256 75.6071L177.957 74.9533L179.786 74.2234L181.743 73.4247L183.825 72.5651L186.028 71.6531L188.349 70.6984L190.779 69.7112L193.312 68.703L195.935 67.6861L198.638 66.6743L201.403 65.6818L204.214 64.7242L207.051 63.8177L209.89 62.9789L212.707 62.2249L215.476 61.5726L218.166 61.0386L220.75 60.6385L223.196 60.3868L225.476 60.2962L227.561 60.3774L229.424 60.6383L231.04 61.0842L232.388 61.7173L233.452 62.5366L234.219 63.5377L234.681 64.7132L234.837 66.0527L234.689 67.5431L234.245 69.169L233.518 70.9134L232.525 72.7579L231.287 74.6832L229.827 76.6699L228.172 78.6988L226.349 80.7514L224.387 82.8103L222.314 84.8593L220.159 86.884L217.948 88.8714L215.707 90.8106L213.461 92.6923L211.231 94.5093L209.038 96.2557L206.899 97.9274L204.831 99.5216L202.847 101.037L200.96 102.473L199.18 103.831L197.517 105.111L195.977 106.317L194.569 107.45L193.297 108.513L192.169 109.511L191.188 110.446L190.362 111.323L189.694 112.145L189.192 112.916L188.863 113.641L188.713 114.323L188.754 114.966L188.995 115.575L189.45 116.154L190.134 116.708L191.067 117.24L192.272 117.756L193.775 118.261L195.61 118.76L197.817 119.261L200.444 119.769L203.55 120.294L207.207 120.845L211.504 121.434L216.549 122.076L222.48 122.789L229.466 123.594L237.722 124.522L247.524 125.608L251.025 125.996Z" stroke="black" stroke-width="2" stroke-linejoin="round"/>
</svg>
