<svg width="253" height="252" viewBox="0 0 253 252" fill="none" xmlns="http://www.w3.org/2000/svg">
<path fill-rule="evenodd" clip-rule="evenodd" d="M238.274 126.001L232.045 127.061L226.723 128.015L222.18 128.886L218.308 129.694L215.022 130.454L212.249 131.18L209.93 131.883L208.017 132.574L206.468 133.26L205.25 133.949L204.334 134.649L203.695 135.366L203.314 136.105L203.173 136.872L203.257 137.673L203.554 138.512L204.052 139.394L204.741 140.324L205.613 141.306L206.657 142.345L207.866 143.444L209.231 144.606L210.743 145.836L212.394 147.136L214.172 148.507L216.067 149.953L218.067 151.473L220.157 153.068L222.324 154.736L224.549 156.477L226.816 158.285L229.104 160.159L231.393 162.091L233.661 164.074L235.883 166.101L238.037 168.161L240.098 170.244L242.043 172.338L243.847 174.43L245.488 176.507L246.947 178.555L248.204 180.561L249.244 182.509L250.053 184.389L250.623 186.187L250.948 187.892L251.025 189.495L250.857 190.988L250.449 192.365L249.809 193.622L248.95 194.758L247.887 195.772L246.635 196.666L245.216 197.445L243.648 198.113L241.953 198.679L240.152 199.15L238.267 199.535L236.318 199.845L234.326 200.091L232.31 200.283L230.287 200.432L228.275 200.55L226.287 200.647L224.337 200.735L222.436 200.823L220.596 200.922L218.823 201.04L217.126 201.187L215.51 201.37L213.98 201.598L212.54 201.877L211.19 202.213L209.934 202.614L208.771 203.084L207.702 203.628L206.725 204.25L205.839 204.955L205.042 205.745L204.331 206.624L203.702 207.593L203.152 208.655L202.677 209.81L202.271 211.059L201.929 212.401L201.646 213.834L201.414 215.357L201.228 216.967L201.078 218.657L200.958 220.424L200.858 222.26L200.77 224.156L200.682 226.102L200.586 228.087L200.47 230.098L200.324 232.121L200.136 234.138L199.895 236.133L199.59 238.085L199.211 239.976L198.748 241.785L198.19 243.489L197.53 245.068L196.76 246.5L195.875 247.765L194.871 248.844L193.745 249.72L192.497 250.378L191.129 250.805L189.645 250.993L188.051 250.935L186.353 250.63L184.563 250.079L182.689 249.289L180.746 248.267L178.744 247.027L176.699 245.583L174.624 243.956L172.532 242.164L170.438 240.23L168.353 238.177L166.291 236.029L164.261 233.811L162.274 231.547L160.338 229.259L158.46 226.97L156.645 224.7L154.899 222.471L153.225 220.299L151.624 218.202L150.098 216.195L148.647 214.291L147.269 212.503L145.964 210.842L144.729 209.318L143.561 207.941L142.457 206.719L141.414 205.662L140.427 204.776L139.493 204.073L138.607 203.559L137.765 203.246L136.961 203.144L136.192 203.266L135.451 203.628L134.732 204.245L134.032 205.138L133.341 206.332L132.655 207.853L131.966 209.735L131.264 212.02L130.54 214.755L129.783 217.998L128.979 221.82L128.114 226.306L127.167 231.561L126.116 237.713L125.047 232.477L124.086 227.089L123.209 222.488L122.397 218.566L121.633 215.236L120.905 212.424L120.2 210.071L119.509 208.127L118.823 206.551L118.134 205.308L117.435 204.368L116.72 203.708L115.983 203.308L115.218 203.148L114.42 203.215L113.585 203.495L112.706 203.978L111.78 204.652L110.802 205.509L109.768 206.54L108.674 207.736L107.517 209.089L106.292 210.59L104.998 212.23L103.632 213.998L102.193 215.885L100.679 217.876L99.0898 219.96L97.427 222.121L95.6923 224.342L93.8887 226.606L92.0204 228.894L90.093 231.183L88.1134 233.453L86.0898 235.68L84.0318 237.841L81.9501 239.91L79.8564 241.865L77.7635 243.681L75.6847 245.336L73.6338 246.81L71.6246 248.083L69.6708 249.141L67.7854 249.969L65.9808 250.559L64.2679 250.903L62.6565 251L61.1545 250.851L59.7679 250.462L58.5009 249.84L57.3556 248.998L56.332 247.95L55.4282 246.713L54.6404 245.306L53.9632 243.749L53.3897 242.064L52.9116 240.27L52.5197 238.391L52.204 236.447L51.9539 234.458L51.7582 232.443L51.606 230.42L51.486 228.406L51.3873 226.416L51.2992 224.462L51.2113 222.558L51.1139 220.712L50.9975 218.934L50.8533 217.231L50.6732 215.608L50.4494 214.071L50.1748 212.623L49.8429 211.267L49.4476 210.003L48.9836 208.833L48.4458 207.756L47.8299 206.772L47.1319 205.879L46.3485 205.075L45.4768 204.356L44.5145 203.721L43.4601 203.165L42.3123 202.684L41.071 202.273L39.7365 201.926L38.3101 201.639L36.7941 201.403L35.1917 201.213L33.5072 201.061L31.7463 200.939L29.916 200.838L28.0244 200.749L26.0816 200.662L24.0989 200.566L22.0892 200.452L20.0672 200.309L18.0488 200.125L16.0518 199.889L14.095 199.589L12.1983 199.217L10.3826 198.76L8.66913 198.21L7.07951 197.558L5.63486 196.798L4.35563 195.922L3.26097 194.927L2.36831 193.811L1.6928 192.573L1.24692 191.215L1.04003 189.74L1.07811 188.154L1.36348 186.465L1.89472 184.681L2.66664 182.814L3.67041 180.875L4.8938 178.878L6.32143 176.836L7.93526 174.762L9.71498 172.672L11.6385 170.577L13.6827 168.491L15.8235 166.427L18.0368 164.394L20.2987 162.403L22.5857 160.463L24.8756 158.58L27.1471 156.76L29.3804 155.009L31.5572 153.329L33.6608 151.722L35.6758 150.19L37.5884 148.733L39.3862 147.349L41.0577 146.038L42.5929 144.798L43.9821 143.624L45.2165 142.516L46.2875 141.468L47.1868 140.477L47.9055 139.539L48.4346 138.649L48.7642 137.804L48.8832 136.997L48.7791 136.225L48.4373 135.482L47.8411 134.762L46.9706 134.06L45.8023 133.369L44.3084 132.683L42.4558 131.994L40.2048 131.293L37.5078 130.572L34.3074 129.818L30.5344 129.018L26.1045 128.158L20.915 127.219L14.8397 126.178L19.0827 125.101L24.5394 124.132L29.1991 123.249L33.1714 122.432L36.546 121.666L39.3966 120.935L41.7841 120.229L43.759 119.537L45.3633 118.851L46.632 118.162L47.5946 117.464L48.2759 116.751L48.6968 116.016L48.8749 115.253L48.8255 114.458L48.5617 113.626L48.0951 112.751L47.4357 111.829L46.593 110.855L45.5758 109.826L44.3925 108.737L43.0517 107.584L41.562 106.366L39.9328 105.077L38.1741 103.717L36.2968 102.283L34.3129 100.775L32.236 99.1923L30.0808 97.5354L27.8635 95.8064L25.6021 94.0081L23.3158 92.1448L21.0255 90.2219L18.7532 88.2462L16.5218 86.2258L14.3553 84.1702L12.2777 82.09L10.3132 79.9968L8.48517 77.9034L6.8162 75.823L5.32718 73.7694L4.03694 71.7563L2.96172 69.7976L2.11482 67.9064L1.50618 66.0949L1.14216 64.3744L1.02539 62.7547L1.15472 61.2437L1.52534 59.8478L2.12892 58.5712L2.95394 57.4161L3.98604 56.3829L5.20849 55.4696L6.60261 54.6728L8.14833 53.987L9.82465 53.4055L11.6101 52.9202L13.4833 52.5218L15.4232 52.2005L17.4095 51.9455L19.423 51.7459L21.4457 51.5906L23.461 51.4685L25.4538 51.3685L27.4106 51.2799L29.3197 51.1924L31.1705 51.0961L32.9543 50.9815L34.6638 50.8399L36.2929 50.6629L37.8368 50.4428L39.292 50.1725L40.656 49.8454L41.9271 49.4554L43.1046 48.997L44.1887 48.4653L45.1802 47.8558L46.0805 47.1645L46.8918 46.388L47.6166 45.5234L48.2583 44.5684L48.8205 43.5214L49.3075 42.3811L49.7241 41.1472L50.0756 39.8201L50.3677 38.401L50.607 36.892L50.8002 35.2963L50.955 33.6182L51.0793 31.8632L51.1818 30.0381L51.2717 28.1512L51.3586 26.2121L51.4528 24.2321L51.5648 22.224L51.7056 20.2024L51.8862 18.1832L52.1178 16.1838L52.4114 14.2231L52.7779 12.3209L53.2275 10.4979L53.7696 8.77561L54.413 7.17536L55.1649 5.71842L56.0312 4.42531L57.0164 3.3153L58.1229 2.40597L59.3512 1.71268L60.7001 1.24813L62.1659 1.02196L63.7432 1.04039L65.4247 1.30607L67.2012 1.81786L69.0622 2.57088L70.9956 3.55659L72.9886 4.763L75.0277 6.17498L77.0992 7.77468L79.189 9.54196L81.2839 11.4549L83.3707 13.4903L85.4375 15.6243L87.4731 17.8327L89.4677 20.0915L91.4125 22.3773L93.3003 24.6677L95.1251 26.9414L96.8822 29.1785L98.5681 31.3604L100.181 33.4704L101.719 35.4929L103.182 37.4142L104.571 39.2215L105.888 40.9035L107.134 42.4498L108.312 43.8509L109.426 45.098L110.479 46.1823L111.474 47.0955L112.416 47.8289L113.31 48.3735L114.159 48.7194L114.968 48.8556L115.743 48.7697L116.488 48.4475L117.209 47.8722L117.913 47.0244L118.604 45.8808L119.29 44.414L119.979 42.5913L120.678 40.3737L121.398 37.7141L122.149 34.5563L122.944 30.8317L123.798 26.4577L124.731 21.333L125.763 15.3336L126.845 18.5843L127.822 24.1098L128.711 28.8286L129.533 32.8521L130.303 36.2714L131.036 39.1613L131.744 41.5837L132.436 43.5897L133.123 45.2221L133.811 46.5164L134.508 47.5025L135.22 48.2053L135.953 48.6462L136.713 48.8431L137.505 48.8113L138.335 48.5642L139.206 48.1133L140.124 47.4689L141.094 46.6405L142.118 45.6369L143.202 44.4665L144.35 43.1379L145.563 41.6598L146.846 40.0414L148.2 38.2926L149.628 36.4243L151.13 34.4485L152.707 32.3785L154.358 30.2289L156.082 28.016L157.875 25.7574L159.733 23.4724L161.651 21.1817L163.623 18.9071L165.64 16.6717L167.694 14.4991L169.772 12.4136L171.865 10.4392L173.959 8.59948L176.041 6.91708L178.097 5.41303L180.114 4.10633L182.077 3.01348L183.974 2.148L185.793 1.52011L187.521 1.13647L189.149 1L190.669 1.10986L192.074 1.46152L193.36 2.04692L194.525 2.85479L195.568 3.87098L196.491 5.07892L197.297 6.46008L197.991 7.99447L198.581 9.66115L199.073 11.4387L199.478 13.3057L199.805 15.241L200.065 17.2243L200.269 19.2363L200.427 21.2589L200.552 23.2753L200.653 25.2704L200.742 27.2305L200.829 29.1437L200.925 30.9995L201.037 32.7889L201.176 34.5045L201.35 36.1402L201.567 37.691L201.833 39.1534L202.155 40.5247L202.54 41.8032L202.993 42.9882L203.518 44.0797L204.122 45.0785L204.806 45.986L205.576 46.8043L206.433 47.5359L207.381 48.184L208.421 48.7524L209.554 49.2452L210.78 49.6672L212.1 50.0237L213.512 50.3203L215.014 50.5636L216.602 50.7602L218.274 50.9177L220.023 51.0441L221.843 51.1481L223.726 51.2386L225.661 51.3254L227.638 51.4186L229.645 51.5288L231.666 51.6669L233.686 51.8439L235.687 52.071L237.652 52.3593L239.559 52.7196L241.39 53.1622L243.121 53.6967L244.731 54.3317L246.201 55.0747L247.507 55.9317L248.633 56.9073L249.559 58.004L250.27 59.2227L250.753 60.562L250.998 62.0187L250.999 63.5874L250.753 65.2609L250.261 67.0302L249.527 68.8848L248.56 70.8129L247.37 72.8016L245.974 74.8376L244.388 76.9069L242.634 78.9958L240.731 81.0907L238.705 83.1786L236.578 85.2474L234.374 87.2859L232.119 89.284L229.834 91.2331L227.543 93.1256L225.268 94.9556L223.027 96.7182L220.84 98.4098L218.724 100.028L216.694 101.572L214.764 103.041L212.947 104.436L211.255 105.759L209.697 107.011L208.284 108.194L207.024 109.313L205.927 110.37L205 111.37L204.252 112.316L203.692 113.213L203.329 114.066L203.176 114.878L203.244 115.655L203.547 116.403L204.101 117.126L204.926 117.83L206.046 118.522L207.486 119.209L209.279 119.897L211.463 120.595L214.086 121.313L217.201 122.061L220.878 122.852L225.197 123.701L230.258 124.626L236.182 125.65L238.274 126.001Z" fill="#F9F9F9"/>
<path d="M238.274 126.001V126.001ZM238.274 126.001L232.045 127.061L226.723 128.015L222.18 128.886L218.308 129.694L215.022 130.454L212.249 131.18L209.93 131.883L208.017 132.574L206.468 133.26L205.25 133.949L204.334 134.649L203.695 135.366L203.314 136.105L203.173 136.872L203.257 137.673L203.554 138.512L204.052 139.394L204.741 140.324L205.613 141.306L206.657 142.345L207.866 143.444L209.231 144.606L210.743 145.836L212.394 147.136L214.172 148.507L216.067 149.953L218.067 151.473L220.157 153.068L222.324 154.736L224.549 156.477L226.816 158.285L229.104 160.159L231.393 162.091L233.661 164.074L235.883 166.101L238.037 168.161L240.098 170.244L242.043 172.338L243.847 174.43L245.488 176.507L246.947 178.555L248.204 180.561L249.244 182.509L250.053 184.389L250.623 186.187L250.948 187.892L251.025 189.495L250.857 190.988L250.449 192.365L249.809 193.622L248.95 194.758L247.887 195.772L246.635 196.666L245.216 197.445L243.648 198.113L241.953 198.679L240.152 199.15L238.267 199.535L236.318 199.845L234.326 200.091L232.31 200.283L230.287 200.432L228.275 200.55L226.287 200.647L224.337 200.735L222.436 200.823L220.596 200.922L218.823 201.04L217.126 201.187L215.51 201.37L213.98 201.598L212.54 201.877L211.19 202.213L209.934 202.614L208.771 203.084L207.702 203.628L206.725 204.25L205.839 204.955L205.042 205.745L204.331 206.624L203.702 207.593L203.152 208.655L202.677 209.81L202.271 211.059L201.929 212.401L201.646 213.834L201.414 215.357L201.228 216.967L201.078 218.657L200.958 220.424L200.858 222.26L200.77 224.156L200.682 226.102L200.586 228.087L200.47 230.099L200.324 232.121L200.136 234.138L199.895 236.133L199.59 238.085L199.211 239.976L198.748 241.785L198.19 243.489L197.53 245.068L196.76 246.5L195.875 247.765L194.871 248.844L193.745 249.72L192.497 250.378L191.129 250.805L189.645 250.993L188.051 250.935L186.353 250.63L184.563 250.079L182.689 249.289L180.746 248.267L178.744 247.027L176.699 245.583L174.624 243.956L172.532 242.164L170.438 240.23L168.353 238.177L166.291 236.029L164.261 233.811L162.274 231.547L160.338 229.259L158.46 226.97L156.645 224.7L154.899 222.471L153.225 220.299L151.624 218.202L150.098 216.195L148.647 214.291L147.269 212.503L145.964 210.842L144.729 209.318L143.561 207.941L142.457 206.719L141.414 205.662L140.427 204.776L139.493 204.073L138.607 203.559L137.765 203.246L136.961 203.144L136.192 203.266L135.451 203.628L134.732 204.245L134.032 205.138L133.341 206.332L132.655 207.853L131.966 209.735L131.264 212.02L130.54 214.755L129.783 217.998L128.979 221.82L128.114 226.306L127.167 231.561L126.116 237.713L125.047 232.477L124.086 227.089L123.209 222.488L122.397 218.566L121.633 215.236L120.905 212.424L120.2 210.071L119.509 208.127L118.823 206.551L118.134 205.308L117.435 204.368L116.72 203.708L115.983 203.308L115.218 203.148L114.42 203.215L113.585 203.495L112.706 203.978L111.78 204.652L110.802 205.509L109.768 206.54L108.674 207.736L107.517 209.089L106.292 210.59L104.998 212.23L103.632 213.998L102.193 215.885L100.679 217.876L99.0898 219.96L97.427 222.121L95.6923 224.342L93.8887 226.606L92.0204 228.894L90.093 231.183L88.1134 233.453L86.0898 235.68L84.0318 237.841L81.9501 239.91L79.8564 241.865L77.7635 243.681L75.6847 245.336L73.6338 246.81L71.6246 248.083L69.6708 249.141L67.7854 249.969L65.9808 250.559L64.2679 250.903L62.6565 251L61.1545 250.851L59.7679 250.462L58.5009 249.84L57.3556 248.998L56.332 247.95L55.4282 246.713L54.6404 245.306L53.9632 243.749L53.3897 242.064L52.9116 240.27L52.5197 238.391L52.204 236.447L51.9539 234.458L51.7582 232.443L51.606 230.42L51.486 228.406L51.3873 226.416L51.2992 224.462L51.2113 222.558L51.1139 220.712L50.9975 218.934L50.8533 217.231L50.6732 215.608L50.4494 214.071L50.1748 212.623L49.8429 211.267L49.4476 210.003L48.9836 208.833L48.4458 207.756L47.8299 206.772L47.1319 205.879L46.3485 205.075L45.4768 204.356L44.5145 203.721L43.4601 203.165L42.3123 202.684L41.071 202.273L39.7365 201.926L38.3101 201.639L36.7941 201.403L35.1917 201.213L33.5072 201.061L31.7463 200.939L29.916 200.838L28.0244 200.749L26.0816 200.662L24.0989 200.566L22.0892 200.452L20.0671 200.309L18.0488 200.125L16.0518 199.889L14.095 199.589L12.1983 199.217L10.3826 198.76L8.66913 198.21L7.07951 197.558L5.63486 196.798L4.35563 195.922L3.26097 194.927L2.36831 193.811L1.6928 192.573L1.24692 191.215L1.04003 189.74L1.07811 188.154L1.36348 186.465L1.89472 184.681L2.66664 182.814L3.67041 180.875L4.8938 178.878L6.32143 176.836L7.93526 174.762L9.71498 172.672L11.6385 170.577L13.6827 168.491L15.8235 166.427L18.0368 164.394L20.2987 162.403L22.5857 160.463L24.8756 158.58L27.1471 156.76L29.3804 155.009L31.5572 153.329L33.6608 151.722L35.6758 150.19L37.5884 148.733L39.3862 147.349L41.0577 146.038L42.5929 144.798L43.9821 143.624L45.2165 142.516L46.2875 141.468L47.1868 140.477L47.9055 139.539L48.4346 138.649L48.7642 137.804L48.8832 136.997L48.7791 136.225L48.4373 135.482L47.8411 134.762L46.9706 134.06L45.8023 133.369L44.3084 132.683L42.4558 131.994L40.2048 131.293L37.5078 130.572L34.3074 129.818L30.5344 129.018L26.1045 128.158L20.915 127.219L14.8397 126.178L19.0827 125.101L24.5394 124.132L29.1991 123.249L33.1714 122.432L36.546 121.666L39.3966 120.935L41.7841 120.229L43.759 119.537L45.3633 118.851L46.632 118.162L47.5946 117.464L48.2759 116.751L48.6968 116.016L48.8749 115.253L48.8255 114.458L48.5617 113.626L48.0951 112.751L47.4357 111.829L46.593 110.855L45.5758 109.826L44.3925 108.737L43.0517 107.584L41.562 106.366L39.9328 105.077L38.1741 103.717L36.2968 102.283L34.3129 100.775L32.236 99.1923L30.0808 97.5354L27.8635 95.8064L25.6021 94.0081L23.3158 92.1448L21.0255 90.2219L18.7532 88.2462L16.5218 86.2258L14.3553 84.1702L12.2777 82.09L10.3132 79.9968L8.48517 77.9034L6.8162 75.823L5.32718 73.7694L4.03694 71.7563L2.96172 69.7976L2.11482 67.9064L1.50618 66.0949L1.14216 64.3744L1.02539 62.7547L1.15472 61.2437L1.52534 59.8478L2.12892 58.5712L2.95394 57.4161L3.98604 56.3829L5.20849 55.4696L6.60261 54.6728L8.14833 53.987L9.82465 53.4055L11.6101 52.9202L13.4833 52.5218L15.4232 52.2005L17.4095 51.9455L19.423 51.7459L21.4457 51.5906L23.461 51.4685L25.4538 51.3685L27.4106 51.2799L29.3196 51.1924L31.1705 51.0961L32.9543 50.9815L34.6638 50.8399L36.2929 50.6629L37.8368 50.4428L39.292 50.1725L40.656 49.8454L41.9271 49.4554L43.1046 48.997L44.1887 48.4653L45.1802 47.8558L46.0805 47.1645L46.8918 46.388L47.6166 45.5234L48.2583 44.5684L48.8205 43.5214L49.3075 42.3811L49.7241 41.1472L50.0756 39.8201L50.3677 38.401L50.607 36.892L50.8002 35.2963L50.955 33.6182L51.0793 31.8632L51.1818 30.0381L51.2717 28.1512L51.3586 26.2121L51.4528 24.2321L51.5648 22.224L51.7056 20.2024L51.8862 18.1832L52.1178 16.1838L52.4114 14.2231L52.7779 12.3209L53.2275 10.4979L53.7696 8.77561L54.413 7.17536L55.1649 5.71842L56.0312 4.42531L57.0164 3.3153L58.1229 2.40597L59.3512 1.71268L60.7001 1.24813L62.1659 1.02196L63.7432 1.04039L65.4247 1.30607L67.2012 1.81786L69.0622 2.57088L70.9956 3.55659L72.9886 4.763L75.0277 6.17498L77.0992 7.77468L79.189 9.54196L81.2839 11.4549L83.3707 13.4903L85.4375 15.6243L87.4731 17.8327L89.4677 20.0915L91.4125 22.3773L93.3003 24.6677L95.1251 26.9414L96.8822 29.1785L98.5681 31.3604L100.181 33.4704L101.719 35.4929L103.182 37.4142L104.571 39.2215L105.888 40.9035L107.134 42.4498L108.312 43.8509L109.426 45.098L110.479 46.1823L111.474 47.0955L112.416 47.8289L113.31 48.3735L114.159 48.7194L114.968 48.8556L115.743 48.7697L116.488 48.4475L117.209 47.8722L117.913 47.0244L118.604 45.8808L119.29 44.414L119.979 42.5913L120.678 40.3737L121.398 37.7141L122.149 34.5563L122.944 30.8317L123.798 26.4577L124.731 21.333L125.763 15.3336L126.845 18.5843L127.822 24.1098L128.711 28.8286L129.533 32.8521L130.303 36.2714L131.036 39.1613L131.744 41.5837L132.436 43.5898L133.123 45.2221L133.811 46.5164L134.508 47.5025L135.22 48.2053L135.953 48.6462L136.713 48.8431L137.505 48.8113L138.335 48.5642L139.206 48.1133L140.124 47.4689L141.094 46.6405L142.118 45.6369L143.202 44.4665L144.35 43.1379L145.563 41.6598L146.846 40.0414L148.2 38.2926L149.628 36.4243L151.13 34.4485L152.707 32.3785L154.358 30.2289L156.082 28.016L157.875 25.7574L159.733 23.4724L161.651 21.1817L163.623 18.9071L165.64 16.6717L167.694 14.4991L169.772 12.4136L171.865 10.4392L173.959 8.59948L176.041 6.91708L178.097 5.41303L180.114 4.10633L182.077 3.01348L183.974 2.148L185.793 1.52011L187.521 1.13647L189.149 1L190.669 1.10986L192.074 1.46152L193.36 2.04692L194.525 2.85479L195.568 3.87098L196.491 5.07892L197.297 6.46008L197.991 7.99447L198.581 9.66115L199.073 11.4387L199.478 13.3057L199.805 15.241L200.065 17.2243L200.269 19.2363L200.427 21.2589L200.552 23.2753L200.653 25.2704L200.742 27.2305L200.829 29.1437L200.925 30.9995L201.037 32.7889L201.176 34.5045L201.35 36.1402L201.567 37.691L201.833 39.1534L202.155 40.5247L202.54 41.8032L202.993 42.9882L203.518 44.0797L204.122 45.0785L204.806 45.986L205.576 46.8043L206.433 47.5359L207.381 48.184L208.421 48.7524L209.554 49.2452L210.78 49.6672L212.1 50.0237L213.512 50.3203L215.014 50.5636L216.602 50.7602L218.274 50.9177L220.023 51.0441L221.843 51.1481L223.726 51.2386L225.661 51.3254L227.638 51.4186L229.644 51.5288L231.666 51.6669L233.686 51.8439L235.687 52.071L237.652 52.3593L239.559 52.7196L241.39 53.1622L243.121 53.6967L244.731 54.3317L246.201 55.0747L247.507 55.9317L248.633 56.9073L249.559 58.004L250.27 59.2227L250.753 60.5621L250.998 62.0187L250.999 63.5874L250.753 65.2609L250.261 67.0302L249.527 68.8848L248.56 70.8129L247.37 72.8016L245.974 74.8376L244.388 76.9069L242.634 78.9958L240.731 81.0907L238.705 83.1786L236.578 85.2474L234.375 87.2859L232.119 89.284L229.834 91.2331L227.543 93.1256L225.268 94.9556L223.027 96.7182L220.84 98.4098L218.724 100.028L216.694 101.572L214.764 103.041L212.947 104.436L211.255 105.759L209.697 107.011L208.284 108.194L207.024 109.313L205.927 110.37L205 111.37L204.252 112.316L203.692 113.213L203.329 114.066L203.176 114.878L203.244 115.655L203.547 116.403L204.101 117.126L204.926 117.83L206.046 118.522L207.486 119.209L209.279 119.897L211.463 120.595L214.086 121.313L217.201 122.061L220.878 122.852L225.197 123.701L230.258 124.626L236.182 125.65L238.274 126.001Z" stroke="black" stroke-width="2" stroke-linejoin="round"/>
</svg>
