<svg width="253" height="252" viewBox="0 0 253 252" fill="none" xmlns="http://www.w3.org/2000/svg">
<path fill-rule="evenodd" clip-rule="evenodd" d="M251.025 125.999L250.994 127.249L250.901 128.497L250.745 129.742L250.528 130.982L250.252 132.216L249.916 133.442L249.523 134.658L249.074 135.864L248.572 137.058L248.018 138.239L247.415 139.406L246.765 140.558L246.071 141.694L245.337 142.813L244.564 143.915L243.756 144.999L242.915 146.064L242.045 147.111L241.149 148.14L240.23 149.15L239.291 150.141L238.334 151.114L237.363 152.068L236.381 153.005L235.39 153.925L234.393 154.828L233.393 155.714L232.392 156.586L231.392 157.442L230.397 158.285L229.407 159.115L228.425 159.934L227.453 160.741L226.493 161.539L225.547 162.328L224.616 163.109L223.702 163.885L222.806 164.655L221.929 165.421L221.074 166.185L220.24 166.948L219.43 167.711L218.644 168.476L217.883 169.244L217.148 170.017L216.441 170.796L215.761 171.582L215.11 172.378L214.489 173.185L213.898 174.005L213.338 174.839L212.81 175.689L212.315 176.558L211.853 177.447L211.425 178.359L211.032 179.295L210.675 180.258L210.355 181.25L210.073 182.274L209.829 183.333L209.625 184.429L209.462 185.566L209.341 186.747L209.264 187.975L209.232 189.254L209.247 190.588L209.31 191.982L209.423 193.44L209.589 194.968L209.81 196.571L210.089 198.255L210.429 200.027L210.832 201.895L211.303 203.866L211.845 205.949L212.464 208.155L213.164 210.495L213.95 212.981L213.211 213.992L210.713 213.198L208.362 212.491L206.146 211.866L204.053 211.318L202.073 210.841L200.198 210.433L198.418 210.088L196.727 209.805L195.118 209.579L193.585 209.409L192.121 209.291L190.722 209.224L189.383 209.206L188.1 209.234L186.868 209.308L185.684 209.425L184.544 209.585L183.444 209.786L182.383 210.026L181.356 210.306L180.361 210.623L179.396 210.977L178.458 211.367L177.544 211.792L176.654 212.251L175.783 212.744L174.931 213.269L174.096 213.827L173.275 214.415L172.467 215.034L171.671 215.683L170.884 216.36L170.104 217.065L169.331 217.798L168.563 218.557L167.798 219.341L167.035 220.149L166.272 220.981L165.508 221.835L164.742 222.71L163.972 223.604L163.197 224.517L162.416 225.447L161.627 226.392L160.831 227.351L160.024 228.322L159.207 229.303L158.377 230.292L157.536 231.288L156.68 232.287L155.81 233.288L154.924 234.288L154.023 235.286L153.105 236.277L152.169 237.26L151.216 238.232L150.245 239.19L149.255 240.131L148.247 241.052L147.22 241.95L146.174 242.822L145.11 243.665L144.027 244.476L142.927 245.251L141.809 245.989L140.675 246.686L139.524 247.339L138.359 247.946L137.179 248.504L135.986 249.011L134.78 249.464L133.565 249.861L132.339 250.202L131.106 250.483L129.867 250.705L128.622 250.865L127.374 250.964L126.125 251L124.875 250.974L123.626 250.885L122.381 250.735L121.141 250.523L119.906 250.251L118.68 249.92L117.463 249.531L116.256 249.087L115.061 248.588L113.878 248.038L112.71 247.439L111.557 246.793L110.42 246.103L109.3 245.372L108.197 244.602L107.111 243.796L106.044 242.958L104.996 242.09L103.966 241.196L102.954 240.279L101.962 239.341L100.987 238.386L100.031 237.416L99.093 236.434L98.1721 235.444L97.268 234.448L96.38 233.447L95.5076 232.446L94.6497 231.447L93.8057 230.45L92.9746 229.46L92.1555 228.478L91.3472 227.505L90.5488 226.544L89.7592 225.597L88.9771 224.664L88.2013 223.749L87.4307 222.851L86.664 221.973L85.8999 221.116L85.1369 220.28L84.3738 219.468L83.6092 218.68L82.8415 217.917L82.0693 217.18L81.291 216.47L80.5052 215.789L79.7101 215.135L78.9042 214.512L78.0857 213.918L77.2528 213.356L76.4037 212.825L75.5364 212.327L74.649 211.863L73.7394 211.432L72.8053 211.037L71.8446 210.677L70.8547 210.354L69.8332 210.068L68.7773 209.822L67.6841 209.614L66.5506 209.448L65.3736 209.324L64.1495 209.243L62.8745 209.207L61.5448 209.218L60.1558 209.277L58.7028 209.387L57.1808 209.549L55.5842 209.765L53.9067 210.039L52.1419 210.374L50.2823 210.772L48.3198 211.237L46.2455 211.774L44.0496 212.386L41.7209 213.079L39.2473 213.859L37.9658 213.391L38.767 210.881L39.4804 208.519L40.1115 206.292L40.6658 204.19L41.1478 202.201L41.5616 200.318L41.911 198.531L42.1992 196.834L42.4294 195.218L42.6041 193.679L42.7258 192.21L42.7967 190.806L42.8189 189.463L42.7941 188.175L42.7239 186.939L42.61 185.751L42.4537 184.607L42.2562 183.505L42.0187 182.44L41.7424 181.411L41.4282 180.414L41.0772 179.446L40.6901 178.506L40.2678 177.591L39.8113 176.698L39.3212 175.826L38.7984 174.973L38.2435 174.136L37.6575 173.315L37.041 172.506L36.3947 171.708L35.7196 170.92L35.0164 170.14L34.286 169.367L33.5293 168.598L32.7471 167.833L31.9406 167.07L31.1106 166.307L30.2585 165.543L29.3853 164.777L28.4922 164.008L27.5808 163.233L26.6523 162.453L25.7083 161.665L24.7505 160.869L23.7805 160.063L22.8002 159.246L21.8115 158.418L20.8165 157.577L19.8174 156.723L18.8164 155.854L17.8158 154.97L16.8183 154.07L15.8262 153.153L14.8424 152.219L13.8695 151.267L12.9105 150.297L11.9682 149.309L11.0456 148.302L10.1457 147.277L9.27152 146.232L8.42613 145.17L7.61255 144.089L6.83381 142.99L6.09285 141.873L5.39257 140.74L4.73578 139.591L4.12516 138.426L3.56325 137.247L3.05246 136.055L2.595 134.851L2.19288 133.636L1.84789 132.412L1.5616 131.179L1.3353 129.94L1.17004 128.696L1.06657 127.448L1.02539 126.198L1.04668 124.948L1.13034 123.7L1.27599 122.454L1.48295 121.213L1.75026 119.979L2.07671 118.751L2.46082 117.533L2.90086 116.325L3.39489 115.129L3.94077 113.946L4.53614 112.777L5.17851 111.623L5.86524 110.484L6.59355 109.363L7.36057 108.258L8.16338 107.171L8.99897 106.103L9.8643 105.052L10.7563 104.021L11.672 103.008L12.6084 102.014L13.5624 101.038L14.5312 100.081L15.5118 99.1411L16.5015 98.2189L17.4976 97.3134L18.4975 96.4242L19.4986 95.5505L20.4986 94.6916L21.4952 93.8465L22.4861 93.0144L23.4692 92.1943L24.4427 91.3852L25.4046 90.5861L26.3532 89.7958L27.2868 89.0131L28.2038 88.2369L29.1029 87.466L29.9826 86.699L30.8416 85.9347L31.6787 85.1717L32.4928 84.4086L33.2828 83.6441L34.0478 82.8767L34.7867 82.1049L35.4986 81.3272L36.1828 80.5421L36.8383 79.7478L37.4644 78.9428L38.0602 78.1254L38.6251 77.2937L39.1582 76.4459L39.6588 75.5801L40.1261 74.6944L40.5594 73.7866L40.9577 72.8546L41.3204 71.8961L41.6464 70.9086L41.9349 69.8897L42.1848 68.8366L42.3952 67.7465L42.5648 66.6163L42.6923 65.4429L42.7766 64.2227L42.816 62.9519L42.809 61.6267L42.7538 60.2425L42.6485 58.7949L42.4909 57.2786L42.2787 55.688L42.0093 54.0173L41.6797 52.2597L41.2868 50.4079L40.827 48.4539L40.2962 46.3889L39.6901 44.203L39.0035 41.8853L38.2309 39.4237L38.4268 37.8718L40.9494 38.6803L43.3228 39.4004L45.5598 40.038L47.6717 40.5982L49.6687 41.0858L51.5602 41.5049L53.3544 41.8592L55.0589 42.1523L56.6806 42.3869L58.2258 42.566L59.7001 42.6918L61.109 42.7667L62.4571 42.7927L63.7491 42.7715L64.9889 42.705L66.1806 42.5945L67.3276 42.4415L68.4332 42.2472L69.5007 42.0129L70.5329 41.7396L71.5326 41.4284L72.5023 41.0802L73.4446 40.696L74.3618 40.2765L75.256 39.8227L76.1295 39.3352L76.9842 38.815L77.822 38.2627L78.6449 37.6791L79.4547 37.0649L80.253 36.4211L81.0416 35.7482L81.8221 35.0472L82.596 34.3189L83.365 33.5642L84.1305 32.7841L84.8939 31.9794L85.6568 31.1513L86.4204 30.3009L87.1862 29.4293L87.9554 28.5378L88.7293 27.6277L89.5093 26.7005L90.2964 25.7577L91.0919 24.8009L91.8969 23.8318L92.7124 22.8523L93.5396 21.8642L94.3794 20.8697L95.2328 19.8708L96.1005 18.8698L96.9834 17.8691L97.8823 16.8712L98.7978 15.8786L99.7304 14.894L100.681 13.9202L101.649 12.96L102.636 12.0162L103.641 11.0919L104.665 10.1901L105.708 9.31377L106.769 8.46597L107.849 7.64975L108.947 6.86812L110.062 6.12404L111.193 5.42042L112.341 4.76006L113.505 4.14566L114.683 3.57979L115.874 3.06484L117.077 2.60306L118.291 2.19646L119.515 1.84686L120.747 1.55584L121.986 1.32472L123.229 1.15456L124.477 1.04615L125.726 1L126.976 1.01631L128.225 1.09502L129.471 1.23576L130.712 1.43786L131.947 1.70041L133.175 2.02221L134.394 2.40178L135.603 2.83744L136.8 3.32725L137.984 3.86908L139.155 4.46061L140.31 5.09934L141.45 5.78263L142.573 6.50774L143.679 7.27179L144.767 8.07186L145.837 8.90495L146.889 9.76803L147.922 10.6581L148.936 11.572L149.932 12.5068L150.909 13.4595L151.868 14.4272L152.809 15.407L153.732 16.3961L154.639 17.3918L155.53 18.3915L156.404 19.3926L157.265 20.3928L158.111 21.3897L158.944 22.3811L159.765 23.365L160.575 24.3393L161.375 25.3022L162.166 26.2519L162.949 27.1868L163.725 28.1052L164.497 29.0057L165.264 29.887L166.029 30.7477L166.792 31.5866L167.555 32.4026L168.319 33.1946L169.086 33.9616L169.857 34.7026L170.635 35.4167L171.419 36.1031L172.213 36.761L173.017 37.3894L173.833 37.9877L174.664 38.555L175.51 39.0907L176.374 39.5939L177.258 40.0639L178.164 40.4999L179.094 40.9011L180.051 41.2666L181.036 41.5956L182.052 41.8871L183.102 42.1402L184.189 42.3537L185.316 42.5266L186.486 42.6576L187.702 42.7453L188.969 42.7884L190.29 42.7851L191.669 42.7338L193.111 42.6326L194.622 42.4792L196.206 42.2715L197.87 42.0067L199.621 41.682L201.465 41.2943L203.41 40.8399L205.466 40.315L207.642 39.715L209.949 39.0351L212.398 38.2695L214.22 38.1929L213.405 40.7279L212.678 43.1128L212.034 45.3602L211.467 47.4817L210.974 49.4875L210.55 51.3871L210.19 53.1888L209.893 54.9002L209.653 56.5282L209.47 58.0793L209.34 59.5591L209.261 60.973L209.231 62.3258L209.249 63.622L209.312 64.8659L209.419 66.0613L209.569 67.2117L209.76 68.3206L209.991 69.391L210.261 70.4259L210.569 71.428L210.914 72.4001L211.296 73.3445L211.713 74.2636L212.164 75.1596L212.649 76.0346L213.166 76.8907L213.716 77.7299L214.297 78.5539L214.909 79.3646L215.55 80.1638L216.221 80.9531L216.92 81.7342L217.646 82.5086L218.398 83.2779L219.177 84.0436L219.979 84.8072L220.806 85.57L221.654 86.3336L222.524 87.0991L223.414 87.868L224.323 88.6415L225.249 89.4209L226.19 90.2075L227.146 91.0022L228.114 91.8064L229.093 92.6211L230.081 93.4474L231.075 94.2861L232.073 95.1384L233.074 96.0049L234.075 96.8866L235.073 97.7842L236.066 98.6983L237.052 99.6296L238.026 100.579L238.988 101.545L239.933 102.531L240.859 103.535L241.763 104.557L242.641 105.599L243.491 106.658L244.31 107.736L245.095 108.833L245.842 109.946L246.549 111.077L247.213 112.224L247.831 113.386L248.401 114.562L248.92 115.752L249.386 116.955L249.797 118.168L250.151 119.391L250.447 120.623L250.683 121.861L250.858 123.104L250.971 124.352L251.022 125.601L251.025 125.999Z" fill="#F9F9F9"/>
<path d="M251.025 125.999V125.999ZM251.025 125.999L250.994 127.249L250.901 128.497L250.745 129.742L250.528 130.982L250.252 132.216L249.916 133.442L249.523 134.658L249.074 135.864L248.572 137.058L248.018 138.239L247.415 139.406L246.765 140.558L246.071 141.694L245.337 142.813L244.564 143.915L243.756 144.999L242.915 146.064L242.045 147.111L241.149 148.14L240.23 149.15L239.291 150.141L238.334 151.114L237.363 152.068L236.381 153.005L235.39 153.925L234.393 154.828L233.393 155.714L232.392 156.586L231.392 157.442L230.397 158.285L229.407 159.115L228.425 159.934L227.453 160.741L226.493 161.539L225.547 162.328L224.616 163.109L223.702 163.885L222.806 164.655L221.929 165.421L221.074 166.185L220.24 166.948L219.43 167.711L218.644 168.476L217.883 169.244L217.148 170.017L216.441 170.796L215.761 171.582L215.11 172.378L214.489 173.185L213.898 174.005L213.338 174.839L212.81 175.689L212.315 176.558L211.853 177.447L211.425 178.359L211.032 179.295L210.675 180.258L210.355 181.25L210.073 182.274L209.829 183.333L209.625 184.429L209.462 185.566L209.341 186.747L209.264 187.975L209.232 189.254L209.247 190.588L209.31 191.982L209.423 193.44L209.589 194.968L209.81 196.571L210.089 198.255L210.429 200.027L210.832 201.895L211.303 203.866L211.845 205.949L212.464 208.155L213.164 210.495L213.95 212.981L213.211 213.992L210.713 213.198L208.362 212.491L206.146 211.866L204.053 211.318L202.073 210.841L200.198 210.433L198.418 210.088L196.727 209.805L195.118 209.579L193.585 209.409L192.121 209.291L190.722 209.224L189.383 209.206L188.1 209.234L186.868 209.308L185.684 209.425L184.544 209.585L183.444 209.786L182.383 210.026L181.356 210.306L180.361 210.623L179.396 210.977L178.458 211.367L177.544 211.792L176.654 212.251L175.783 212.744L174.931 213.269L174.096 213.827L173.275 214.415L172.467 215.034L171.671 215.683L170.884 216.36L170.104 217.065L169.331 217.798L168.563 218.557L167.798 219.341L167.035 220.149L166.272 220.981L165.508 221.835L164.742 222.71L163.972 223.604L163.197 224.517L162.416 225.447L161.627 226.392L160.831 227.351L160.024 228.322L159.207 229.303L158.377 230.292L157.536 231.288L156.68 232.287L155.81 233.288L154.924 234.288L154.023 235.286L153.105 236.277L152.169 237.26L151.216 238.232L150.245 239.19L149.255 240.131L148.247 241.052L147.22 241.95L146.174 242.822L145.11 243.665L144.027 244.476L142.927 245.251L141.809 245.989L140.675 246.686L139.524 247.339L138.359 247.946L137.179 248.504L135.986 249.011L134.78 249.464L133.565 249.861L132.339 250.202L131.106 250.483L129.867 250.705L128.622 250.865L127.374 250.964L126.125 251L124.875 250.974L123.626 250.885L122.381 250.735L121.141 250.523L119.906 250.251L118.68 249.92L117.463 249.531L116.256 249.087L115.061 248.588L113.878 248.038L112.71 247.439L111.557 246.793L110.42 246.103L109.3 245.372L108.197 244.602L107.111 243.796L106.044 242.958L104.996 242.09L103.966 241.196L102.954 240.279L101.962 239.341L100.987 238.386L100.031 237.416L99.093 236.434L98.1721 235.444L97.268 234.448L96.38 233.447L95.5076 232.446L94.6497 231.447L93.8057 230.45L92.9746 229.46L92.1555 228.478L91.3472 227.505L90.5488 226.544L89.7592 225.597L88.9771 224.664L88.2013 223.749L87.4307 222.851L86.664 221.973L85.8999 221.116L85.1369 220.28L84.3738 219.468L83.6092 218.68L82.8415 217.917L82.0693 217.18L81.291 216.47L80.5052 215.789L79.7101 215.135L78.9042 214.512L78.0857 213.918L77.2528 213.356L76.4037 212.825L75.5364 212.327L74.649 211.863L73.7394 211.432L72.8053 211.037L71.8446 210.677L70.8547 210.354L69.8332 210.068L68.7773 209.822L67.6841 209.614L66.5506 209.448L65.3736 209.324L64.1495 209.243L62.8745 209.207L61.5448 209.218L60.1558 209.277L58.7028 209.387L57.1808 209.549L55.5842 209.765L53.9067 210.039L52.1419 210.374L50.2823 210.772L48.3198 211.237L46.2455 211.774L44.0496 212.386L41.7209 213.079L39.2473 213.859L37.9658 213.391L38.767 210.881L39.4804 208.519L40.1116 206.292L40.6658 204.19L41.1478 202.201L41.5616 200.318L41.911 198.531L42.1992 196.834L42.4294 195.218L42.6041 193.679L42.7258 192.21L42.7967 190.806L42.8189 189.463L42.7941 188.175L42.7239 186.939L42.61 185.751L42.4537 184.607L42.2562 183.505L42.0187 182.44L41.7424 181.411L41.4282 180.414L41.0772 179.446L40.6901 178.506L40.2678 177.591L39.8113 176.698L39.3212 175.826L38.7984 174.973L38.2435 174.136L37.6575 173.315L37.041 172.506L36.3947 171.708L35.7196 170.92L35.0164 170.14L34.286 169.367L33.5293 168.598L32.7471 167.833L31.9406 167.07L31.1107 166.307L30.2585 165.543L29.3853 164.777L28.4922 164.008L27.5808 163.233L26.6523 162.453L25.7083 161.665L24.7505 160.869L23.7805 160.063L22.8002 159.246L21.8115 158.418L20.8165 157.577L19.8174 156.723L18.8164 155.854L17.8158 154.97L16.8183 154.07L15.8262 153.153L14.8424 152.219L13.8695 151.267L12.9105 150.297L11.9682 149.309L11.0456 148.302L10.1457 147.277L9.27152 146.232L8.42613 145.17L7.61255 144.089L6.83381 142.99L6.09285 141.873L5.39257 140.74L4.73578 139.591L4.12516 138.426L3.56325 137.247L3.05246 136.055L2.595 134.851L2.19288 133.636L1.84789 132.412L1.5616 131.179L1.3353 129.94L1.17004 128.696L1.06657 127.448L1.02539 126.198L1.04668 124.948L1.13034 123.7L1.27599 122.454L1.48295 121.213L1.75026 119.979L2.07671 118.751L2.46082 117.533L2.90086 116.325L3.39489 115.129L3.94077 113.946L4.53614 112.777L5.17851 111.623L5.86524 110.484L6.59355 109.363L7.36057 108.258L8.16338 107.171L8.99897 106.103L9.8643 105.052L10.7563 104.021L11.672 103.008L12.6084 102.014L13.5624 101.038L14.5312 100.081L15.5118 99.1411L16.5015 98.2189L17.4976 97.3134L18.4975 96.4242L19.4986 95.5505L20.4986 94.6916L21.4952 93.8465L22.4861 93.0144L23.4692 92.1943L24.4427 91.3852L25.4046 90.5861L26.3532 89.7958L27.2868 89.0131L28.2039 88.2369L29.1029 87.466L29.9826 86.699L30.8416 85.9347L31.6787 85.1717L32.4928 84.4086L33.2828 83.6441L34.0478 82.8767L34.7867 82.105L35.4986 81.3272L36.1828 80.5421L36.8383 79.7478L37.4644 78.9428L38.0602 78.1254L38.6251 77.2937L39.1582 76.4459L39.6588 75.5801L40.1261 74.6944L40.5594 73.7866L40.9577 72.8546L41.3204 71.8961L41.6464 70.9086L41.9349 69.8897L42.1848 68.8366L42.3952 67.7465L42.5648 66.6163L42.6923 65.4429L42.7766 64.2227L42.816 62.9519L42.809 61.6267L42.7538 60.2425L42.6485 58.7949L42.4909 57.2786L42.2787 55.688L42.0093 54.0173L41.6797 52.2597L41.2868 50.4079L40.827 48.4539L40.2962 46.3889L39.6901 44.203L39.0035 41.8853L38.2309 39.4237L38.4268 37.8718L40.9494 38.6803L43.3228 39.4004L45.5598 40.038L47.6717 40.5982L49.6687 41.0858L51.5602 41.5049L53.3544 41.8592L55.0589 42.1523L56.6806 42.3869L58.2258 42.566L59.7001 42.6918L61.109 42.7667L62.4571 42.7927L63.7491 42.7715L64.9889 42.705L66.1806 42.5945L67.3276 42.4415L68.4332 42.2472L69.5007 42.0129L70.5329 41.7396L71.5326 41.4284L72.5023 41.0803L73.4446 40.696L74.3618 40.2765L75.256 39.8227L76.1295 39.3352L76.9842 38.815L77.822 38.2627L78.6449 37.6791L79.4547 37.0649L80.253 36.4211L81.0416 35.7482L81.8221 35.0472L82.596 34.3189L83.365 33.5642L84.1305 32.7841L84.8939 31.9794L85.6568 31.1513L86.4204 30.3009L87.1862 29.4293L87.9554 28.5378L88.7293 27.6277L89.5093 26.7005L90.2964 25.7577L91.0919 24.8009L91.8969 23.8318L92.7124 22.8523L93.5396 21.8642L94.3794 20.8697L95.2328 19.8708L96.1005 18.8698L96.9834 17.8691L97.8823 16.8712L98.7978 15.8786L99.7304 14.894L100.681 13.9202L101.649 12.96L102.636 12.0162L103.641 11.0919L104.665 10.1901L105.708 9.31377L106.769 8.46597L107.849 7.64975L108.947 6.86812L110.062 6.12404L111.193 5.42042L112.341 4.76006L113.505 4.14566L114.683 3.57979L115.874 3.06484L117.077 2.60306L118.291 2.19646L119.515 1.84686L120.747 1.55584L121.986 1.32472L123.229 1.15456L124.477 1.04615L125.726 1L126.976 1.01631L128.225 1.09502L129.471 1.23576L130.712 1.43786L131.947 1.70041L133.175 2.02221L134.394 2.40178L135.603 2.83744L136.8 3.32725L137.984 3.86908L139.155 4.46061L140.31 5.09934L141.45 5.78263L142.573 6.50774L143.679 7.27179L144.767 8.07186L145.837 8.90495L146.889 9.76803L147.922 10.6581L148.936 11.572L149.932 12.5068L150.909 13.4595L151.868 14.4272L152.809 15.407L153.732 16.3961L154.639 17.3918L155.53 18.3915L156.404 19.3926L157.265 20.3928L158.111 21.3897L158.944 22.3811L159.765 23.365L160.575 24.3393L161.375 25.3022L162.166 26.2519L162.949 27.1868L163.725 28.1052L164.497 29.0057L165.264 29.887L166.029 30.7477L166.792 31.5866L167.555 32.4026L168.319 33.1946L169.086 33.9616L169.857 34.7026L170.635 35.4167L171.419 36.1031L172.213 36.761L173.017 37.3894L173.833 37.9877L174.664 38.555L175.51 39.0907L176.374 39.5939L177.258 40.0639L178.164 40.4999L179.094 40.9011L180.051 41.2666L181.036 41.5956L182.052 41.8871L183.102 42.1402L184.189 42.3537L185.316 42.5266L186.486 42.6576L187.702 42.7453L188.969 42.7884L190.29 42.7851L191.669 42.7338L193.111 42.6326L194.622 42.4792L196.206 42.2715L197.87 42.0067L199.621 41.682L201.465 41.2943L203.41 40.8399L205.466 40.315L207.642 39.715L209.949 39.0351L212.398 38.2695L214.22 38.1929L213.405 40.7279L212.678 43.1128L212.034 45.3602L211.467 47.4817L210.974 49.4875L210.55 51.3871L210.19 53.1888L209.893 54.9002L209.653 56.5282L209.47 58.0793L209.34 59.5591L209.261 60.973L209.231 62.3258L209.249 63.622L209.312 64.8659L209.419 66.0613L209.569 67.2117L209.76 68.3206L209.991 69.391L210.261 70.4259L210.569 71.428L210.914 72.4001L211.296 73.3445L211.713 74.2636L212.164 75.1596L212.649 76.0346L213.166 76.8907L213.716 77.7299L214.297 78.5539L214.909 79.3646L215.55 80.1638L216.221 80.9531L216.92 81.7342L217.646 82.5086L218.398 83.2779L219.177 84.0436L219.979 84.8072L220.806 85.57L221.654 86.3336L222.524 87.0991L223.414 87.868L224.323 88.6415L225.249 89.4209L226.19 90.2075L227.146 91.0022L228.114 91.8064L229.093 92.6211L230.081 93.4474L231.075 94.2861L232.073 95.1384L233.074 96.0049L234.075 96.8866L235.073 97.7842L236.066 98.6983L237.052 99.6296L238.026 100.579L238.988 101.545L239.933 102.531L240.859 103.535L241.763 104.557L242.641 105.599L243.491 106.658L244.31 107.736L245.095 108.833L245.842 109.946L246.549 111.077L247.213 112.224L247.831 113.386L248.401 114.562L248.92 115.752L249.386 116.955L249.797 118.168L250.151 119.391L250.447 120.623L250.683 121.861L250.858 123.104L250.971 124.352L251.022 125.601L251.025 125.999Z" stroke="black" stroke-width="2" stroke-linejoin="round"/>
</svg>
