<svg width="251" height="252" viewBox="0 0 251 252" fill="none" xmlns="http://www.w3.org/2000/svg">
<path fill-rule="evenodd" clip-rule="evenodd" d="M250 112.048L179.485 127.115L250 112.048L179.485 127.115L165.662 138.182L188.737 216.41L130.385 251L81.8914 198.78L32.5107 184.556L35.8777 141.049L1 112.048L19.6021 78.0538L7.17842 20.7742L68.295 1L130.385 31.6606L181.938 19.8458L195.286 63.9686L221.61 84.0553L250 112.048Z" fill="#F9F9F9"/>
<path d="M250 112.048L179.485 127.115L165.662 138.182L188.737 216.41L130.385 251L81.8914 198.78L32.5107 184.556L35.8777 141.049L1 112.048L19.6021 78.0538L7.17842 20.7742L68.295 1L130.385 31.6606L181.938 19.8458L195.286 63.9686L221.61 84.0553L250 112.048Z" stroke="black" stroke-width="2" stroke-linejoin="round"/>
</svg>
