<svg width="251" height="252" viewBox="0 0 251 252" fill="none" xmlns="http://www.w3.org/2000/svg">
<path fill-rule="evenodd" clip-rule="evenodd" d="M250 138.102L218.836 169.545L250 138.102L218.836 169.545L243.334 251L189.362 240.551L154.39 242.87L125.503 220.554L90.5405 204.864L1 181.742L111.339 124.17L62.4136 45.4535L109.87 21.3521L156.769 62.0066L198.251 1L209.192 73.2353L239.972 94.7383L250 138.102Z" fill="#F9F9F9"/>
<path d="M250 138.102L218.836 169.545L243.334 251L189.362 240.551L154.39 242.87L125.503 220.554L90.5405 204.864L1 181.742L111.339 124.17L62.4136 45.4535L109.87 21.3521L156.769 62.0066L198.251 1L209.192 73.2353L239.972 94.7383L250 138.102Z" stroke="black" stroke-width="2" stroke-linejoin="round"/>
</svg>
