<svg width="253" height="252" viewBox="0 0 253 252" fill="none" xmlns="http://www.w3.org/2000/svg">
<path fill-rule="evenodd" clip-rule="evenodd" d="M251.025 107.115L191.674 153.675L251.025 107.115L191.674 153.675L177.027 197.043L133.279 162.143L118.426 228.358L86.7118 224.612L24.6648 251L50.538 150.268L49.6407 107.115L1.02539 32.4897L63.9275 23.482L93.0547 13.1178L118.426 62.603L146.23 4.10969L187.576 1L215.92 45.1436L251.025 107.115Z" fill="#F9F9F9"/>
<path d="M251.025 107.115L191.674 153.675L177.027 197.043L133.279 162.143L118.426 228.358L86.7118 224.612L24.6648 251L50.538 150.268L49.6407 107.115L1.02539 32.4897L63.9275 23.482L93.0547 13.1178L118.426 62.603L146.23 4.10969L187.576 1L215.92 45.1436L251.025 107.115Z" stroke="black" stroke-width="2" stroke-linejoin="round"/>
</svg>
