<svg width="251" height="252" viewBox="0 0 251 252" fill="none" xmlns="http://www.w3.org/2000/svg">
<path fill-rule="evenodd" clip-rule="evenodd" d="M250 117.755L193.694 141.288L250 117.755L193.694 141.288L165.737 151.918L185.592 207.309L154.749 231.739L113.995 194.742L66.3534 251L66.3523 177.345L1 192.359L1.19533 151.061L57.3637 117.755L40.392 96.0219L86.209 99.4093L53.6118 42.2285L81.6834 27.3852L113.995 56.5812L155.74 1L186.4 27.1906L219.58 48.0423L239.424 80.7189L250 117.755Z" fill="#F9F9F9"/>
<path d="M250 117.755L193.694 141.288L165.737 151.918L185.592 207.309L154.749 231.739L113.995 194.742L66.3534 251L66.3523 177.345L1 192.359L1.19533 151.061L57.3637 117.755L40.392 96.0219L86.209 99.4093L53.6118 42.2285L81.6834 27.3852L113.995 56.5812L155.74 1L186.4 27.1906L219.58 48.0423L239.424 80.7189L250 117.755Z" stroke="black" stroke-width="2" stroke-linejoin="round"/>
</svg>
