<svg width="252" height="252" viewBox="0 0 252 252" fill="none" xmlns="http://www.w3.org/2000/svg">
<path fill-rule="evenodd" clip-rule="evenodd" d="M220.396 127.71L250.025 181.357L220.396 127.71L250.025 181.357L232.439 236.181L184.466 251L141.787 177.203L107.063 228.018L119.277 154.645L65.7595 165.392L1.02539 127.71L105.974 109.961L83.1386 57.5347L133.914 104.968L141.787 1L159.687 76.0007L210.847 45.0752L230.819 83.5836L220.396 127.71Z" fill="#F9F9F9"/>
<path d="M220.396 127.71L250.025 181.357L232.439 236.181L184.466 251L141.787 177.203L107.063 228.018L119.277 154.645L65.7595 165.392L1.02539 127.71L105.974 109.961L83.1386 57.5347L133.914 104.968L141.787 1L159.687 76.0007L210.847 45.0752L230.819 83.5836L220.396 127.71Z" stroke="black" stroke-width="2" stroke-linejoin="round"/>
</svg>
