<svg width="252" height="252" viewBox="0 0 252 252" fill="none" xmlns="http://www.w3.org/2000/svg">
<path fill-rule="evenodd" clip-rule="evenodd" d="M250.977 153.373L181.968 174.823L250.977 153.373L181.968 174.823L156.289 187.367L125.239 186.648L109.587 188.652L114.206 243.603L84.8864 251L54.6851 246.317L23.646 240.84L32.2477 196.779L2.41914 192.635L72.7101 156.063L50.987 153.373L54.9394 146.756L1.97656 113.901L34.8977 112.152L40.6809 90.2363L35.3739 1L84.8864 84.8235L126.375 25.6945L135.139 81.5991L182.334 73.0171L227.249 85.5961L187.068 130.796L250.977 153.373Z" fill="#F9F9F9"/>
<path d="M250.977 153.373L181.968 174.823L156.289 187.367L125.239 186.648L109.587 188.652L114.206 243.603L84.8864 251L54.6851 246.317L23.646 240.84L32.2477 196.779L2.41914 192.635L72.7101 156.063L50.987 153.373L54.9394 146.756L1.97656 113.901L34.8977 112.152L40.6809 90.2363L35.3739 1L84.8864 84.8235L126.375 25.6945L135.139 81.5991L182.334 73.0171L227.249 85.5961L187.068 130.796L250.977 153.373Z" stroke="black" stroke-width="2" stroke-linejoin="round"/>
</svg>
