<svg width="252" height="252" viewBox="0 0 252 252" fill="none" xmlns="http://www.w3.org/2000/svg">
<path fill-rule="evenodd" clip-rule="evenodd" d="M223.268 100.782L236.088 133.296L223.268 100.782L236.088 133.296L207.75 146.877L246.874 251L169.198 142.024L163.108 208.378L147.761 155.141L116.391 194.746L104.887 165.356L104.132 134.782L93.3849 113.584L1.55469 69.5175L37.8677 24.2169L101.575 32.1076L120.684 16.736L140.471 3.81663L162.669 1L180.59 20.8232L198.27 31.8581L211.671 51.1214L250.555 62.3156L223.268 100.782Z" fill="#F9F9F9"/>
<path d="M223.268 100.782L236.088 133.296L207.75 146.877L246.874 251L169.198 142.024L163.108 208.378L147.761 155.141L116.391 194.746L104.887 165.356L104.132 134.782L93.3849 113.584L1.55469 69.5175L37.8677 24.2169L101.575 32.1076L120.684 16.736L140.471 3.81663L162.669 1L180.59 20.8232L198.27 31.8581L211.671 51.1214L250.555 62.3156L223.268 100.782Z" stroke="black" stroke-width="2" stroke-linejoin="round"/>
</svg>
