<svg width="253" height="252" viewBox="0 0 253 252" fill="none" xmlns="http://www.w3.org/2000/svg">
<path fill-rule="evenodd" clip-rule="evenodd" d="M251.025 105.214L114.375 108.497L251.025 105.214L114.375 108.497L184.988 217.676L130.777 195.024L97.3448 250.5L58.3705 221.419L1.52539 208.872L88.3448 111.004L14.7184 78.6171L56.0369 54.216L79.1611 36.8898L103.579 38.7924L110.049 100.225L179.403 1L186.466 59.2554L251.025 105.214Z" fill="#F9F9F9"/>
<path d="M251.025 105.214L114.375 108.497L184.988 217.676L130.777 195.024L97.3448 250.5L58.3705 221.419L1.52539 208.872L88.3448 111.004L14.7184 78.6171L56.0369 54.216L79.1611 36.8898L103.579 38.7924L110.049 100.225L179.403 1L186.466 59.2554L251.025 105.214Z" stroke="black" stroke-width="2" stroke-linejoin="round"/>
</svg>
