<svg width="253" height="252" viewBox="0 0 253 252" fill="none" xmlns="http://www.w3.org/2000/svg">
<path fill-rule="evenodd" clip-rule="evenodd" d="M233.058 131.217L241.619 150.016L233.058 131.217L241.619 150.016L251.025 176.789L204.481 173.718L228.892 251L165.906 190.884L137.22 217.653L115.263 193.638L99.1538 177.73L7.85028 200.087L33.3143 157.208L14.7504 131.217L1.02539 98.2836L119.203 114.751L74.7431 64.0753L116.052 70.0613L142.279 70.5493L179.758 1L174.479 98.6851L210.584 83.5588L235.346 93.0244L221.253 116.798L233.058 131.217Z" fill="#F9F9F9"/>
<path d="M233.058 131.217L241.619 150.016L251.025 176.789L204.481 173.718L228.892 251L165.906 190.884L137.22 217.653L115.263 193.638L99.1538 177.73L7.85028 200.087L33.3143 157.208L14.7504 131.217L1.02539 98.2836L119.203 114.751L74.7431 64.0753L116.052 70.0614L142.279 70.5493L179.758 1L174.479 98.6851L210.584 83.5588L235.346 93.0244L221.253 116.798L233.058 131.217Z" stroke="black" stroke-width="2" stroke-linejoin="round"/>
</svg>
