<svg width="252" height="252" viewBox="0 0 252 252" fill="none" xmlns="http://www.w3.org/2000/svg">
<path d="M92.207 8.32233C96.8954 3.63392 103.254 1 109.885 1H140C153.807 1 165 12.1929 165 26L165 169.115C165 176.267 170.884 182.019 178.034 181.857C184.958 181.7 190.49 176.041 190.49 169.115V65.5034C190.49 57.637 196.867 51.26 204.733 51.26C208.511 51.26 212.133 52.7607 214.805 55.4318L243.678 84.3049C248.366 88.9933 251 95.3521 251 101.983V226C251 239.807 239.807 251 226 251H26C12.1929 251 1 239.807 1 226V211C1 197.193 12.1929 186 26 186L77.1461 186C88.3662 186 97.39 176.77 97.1358 165.552C96.8896 154.689 88.0125 146.01 77.1461 146.01H26C12.1929 146.01 1 134.817 1 121.01V109.885C1 103.254 3.6339 96.8955 8.32231 92.2071L92.207 8.32233Z" fill="#F9F9F9"/>
<path d="M23.184 23.184C31.3704 14.9975 25.5724 1 13.9951 1C6.81809 1 1 6.81809 1 13.9951C1 25.5724 14.9975 31.3704 23.184 23.184Z" fill="#F9F9F9"/>
<path d="M92.207 8.32233C96.8954 3.63392 103.254 1 109.885 1H140C153.807 1 165 12.1929 165 26L165 169.115C165 176.267 170.884 182.019 178.034 181.857C184.958 181.7 190.49 176.041 190.49 169.115V65.5034C190.49 57.637 196.867 51.26 204.733 51.26C208.511 51.26 212.133 52.7607 214.805 55.4318L243.678 84.3049C248.366 88.9933 251 95.3521 251 101.983V226C251 239.807 239.807 251 226 251H26C12.1929 251 1 239.807 1 226V211C1 197.193 12.1929 186 26 186L77.1461 186C88.3662 186 97.39 176.77 97.1358 165.552C96.8896 154.689 88.0125 146.01 77.1461 146.01H26C12.1929 146.01 1 134.817 1 121.01V109.885C1 103.254 3.6339 96.8955 8.32231 92.2071L92.207 8.32233Z" stroke="black" stroke-width="2" stroke-linejoin="round"/>
<path d="M23.184 23.184C31.3704 14.9975 25.5724 1 13.9951 1C6.81809 1 1 6.81809 1 13.9951C1 25.5724 14.9975 31.3704 23.184 23.184Z" stroke="black" stroke-width="2" stroke-linejoin="round"/>
</svg>
