<svg width="252" height="252" viewBox="0 0 252 252" fill="none" xmlns="http://www.w3.org/2000/svg">
<path d="M23.0748 1C42.7413 1 52.5903 24.7776 38.6839 38.684L25.3506 52.0173C17.7524 59.6155 17.8925 71.9771 25.6608 79.4013C33.1843 86.5913 45.0727 86.4566 52.4314 79.098L123.207 8.32233C127.895 3.63392 134.254 1 140.885 1H226C239.807 1 251 12.1929 251 26V29C251 42.8071 239.807 54 226 54H203.324C192.449 54 183.702 62.9467 183.949 73.819C184.187 84.3486 192.792 92.76 203.324 92.76L226.461 92.76C240.013 92.76 251 103.747 251 117.299C251 139.161 224.568 150.11 209.109 134.651L147.874 73.416C139.417 64.9591 125.659 65.1149 117.396 73.7612C109.393 82.1349 109.543 95.3669 117.733 103.557L248.064 233.888C249.944 235.768 251 238.318 251 240.976C251 246.512 246.512 251 240.976 251H177.592C162.613 251 155.111 232.889 165.703 222.298C172.374 215.626 172.251 204.772 165.431 198.253L163.078 196.005C155.222 188.497 142.808 188.638 135.125 196.322L87.7688 243.678C83.0804 248.366 76.7215 251 70.0911 251H16.1507C7.78318 251 1 244.217 1 235.849C1 231.831 2.59623 227.977 5.43753 225.136L82.0164 148.557C89.9503 140.623 89.8041 127.716 81.6925 119.964C73.8367 112.456 61.4231 112.597 53.7394 120.28L43.6777 130.342C27.9285 146.091 1 134.937 1 112.664V23.0748C1 10.8832 10.8832 1 23.0748 1Z" fill="#F9F9F9" stroke="black" stroke-width="2" stroke-linejoin="round"/>
</svg>
