<svg width="252" height="252" viewBox="0 0 252 252" fill="none" xmlns="http://www.w3.org/2000/svg">
<path d="M251 8.38528C251 4.3065 247.693 1 243.615 1H126C56.9644 1 1 56.9644 1 126V200.927C1 228.581 23.4187 251 51.0735 251C95.6842 251 118.025 197.064 86.4808 165.519L37.6113 116.65C29.8008 108.839 29.8008 96.176 37.6113 88.3655C45.4217 80.555 58.085 80.555 65.8955 88.3655L223.876 246.346C226.856 249.326 230.897 251 235.111 251C243.886 251 251 243.886 251 235.111V206.421C251 184.097 232.903 166 210.579 166H190.158C179.113 166 170.158 157.046 170.158 146C170.158 134.954 179.113 126 190.158 126H215.885C235.279 126 251 110.279 251 90.8853C251 71.492 235.279 55.7706 215.885 55.7706H139.159C128.113 55.7706 119.159 46.8162 119.159 35.7706C119.159 24.7249 128.113 15.7706 139.159 15.7706H243.615C247.693 15.7706 251 12.4641 251 8.38528Z" fill="#F9F9F9" stroke="black" stroke-width="2" stroke-linejoin="round"/>
</svg>
