<svg width="252" height="252" viewBox="0 0 252 252" fill="none" xmlns="http://www.w3.org/2000/svg">
<path d="M251 8.38527C251 4.3065 247.693 1 243.615 1H16.6374C8.00112 1 1 8.00112 1 16.6374C1 22.2242 3.98048 27.3865 8.81872 30.1799L178.726 128.276C188.292 133.799 191.57 146.031 186.047 155.597C180.524 165.163 168.292 168.44 158.726 162.917L99.3581 128.641C55.6434 103.402 1 134.95 1 185.428V228.872C1 241.093 10.9072 251 23.1283 251C45.8849 251 53.821 220.78 34.0007 209.599L20.2032 201.815C10.5827 196.388 7.18335 184.189 12.6105 174.569C18.0377 164.948 30.2361 161.549 39.8566 166.976L177.534 244.644C184.921 248.811 193.258 251 201.738 251C228.945 251 251 228.945 251 201.738V121.691C251 85.2842 221.486 55.7705 185.079 55.7705H139.159C128.113 55.7705 119.159 46.8162 119.159 35.7705C119.159 24.7249 128.113 15.7705 139.159 15.7705H243.615C247.693 15.7705 251 12.464 251 8.38527Z" fill="#F9F9F9" stroke="black" stroke-width="2" stroke-linejoin="round"/>
</svg>
