<svg width="252" height="252" viewBox="0 0 252 252" fill="none" xmlns="http://www.w3.org/2000/svg">
<path d="M29.6177 1C55.1134 1 67.8817 31.8253 49.8535 49.8535L29.51 70.197C21.6996 78.0075 21.6996 90.6708 29.51 98.4813C37.3205 106.292 49.9838 106.292 57.7943 98.4813L135.45 20.8252C148.144 8.13133 165.361 1 183.313 1C220.695 1 251 31.3047 251 68.6874V71.1332C251 89.7337 243.611 107.572 230.458 120.725L182.795 168.388C176.159 175.024 165.401 175.024 158.765 168.388C152.129 161.752 141.37 161.752 134.735 168.388L62.7106 240.412C55.9313 247.191 46.7366 251 37.1492 251C17.1846 251 1 234.815 1 214.851V29.6177C1 13.8126 13.8126 1 29.6177 1Z" fill="#F9F9F9"/>
<path d="M127.835 231.857C120.77 238.921 125.773 251 135.764 251H223.395C238.641 251 251 238.641 251 223.395C251 198.802 221.266 186.486 203.876 203.876L171.809 235.943C165.174 242.578 154.415 242.578 147.779 235.943L143.693 231.857C139.314 227.477 132.214 227.477 127.835 231.857Z" fill="#F9F9F9"/>
<path d="M29.6177 1C55.1134 1 67.8817 31.8253 49.8535 49.8535L29.51 70.197C21.6996 78.0075 21.6996 90.6708 29.51 98.4813C37.3205 106.292 49.9838 106.292 57.7943 98.4813L135.45 20.8252C148.144 8.13133 165.361 1 183.313 1C220.695 1 251 31.3047 251 68.6874V71.1332C251 89.7337 243.611 107.572 230.458 120.725L182.795 168.388C176.159 175.024 165.401 175.024 158.765 168.388C152.129 161.752 141.37 161.752 134.735 168.388L62.7106 240.412C55.9313 247.191 46.7366 251 37.1492 251C17.1846 251 1 234.815 1 214.851V29.6177C1 13.8126 13.8126 1 29.6177 1Z" stroke="black" stroke-width="2" stroke-linejoin="round"/>
<path d="M127.835 231.857C120.77 238.921 125.773 251 135.764 251H223.395C238.641 251 251 238.641 251 223.395C251 198.802 221.266 186.486 203.876 203.876L171.809 235.943C165.174 242.578 154.415 242.578 147.779 235.943L143.693 231.857C139.314 227.477 132.214 227.477 127.835 231.857Z" stroke="black" stroke-width="2" stroke-linejoin="round"/>
</svg>
