<svg width="252" height="252" viewBox="0 0 252 252" fill="none" xmlns="http://www.w3.org/2000/svg">
<path d="M69.3886 1C87.5263 1 104.921 8.20519 117.747 21.0305L186.104 89.3883C193.915 97.1988 206.578 97.1988 214.389 89.3883C222.199 81.5778 222.199 68.9145 214.389 61.104L202.642 49.3577C184.797 31.5125 197.436 1 222.673 1C238.317 1 251 13.6826 251 29.3273V75.1463C251 94.8111 243.188 113.67 229.283 127.576L158.218 198.641C150.407 206.451 150.407 219.115 158.218 226.925C166.028 234.736 178.692 234.736 186.502 226.925L206.714 206.714C223.056 190.371 251 201.945 251 225.058C251 239.385 239.385 251 225.058 251H49.4888C22.7092 251 1 229.291 1 202.511C1 159.312 53.2294 137.678 83.7757 168.224L107.651 192.099C115.461 199.91 128.124 199.91 135.935 192.099C143.745 184.289 143.745 171.626 135.935 163.815L6.77418 34.6544C3.07703 30.9572 1 25.9428 1 20.7143C1 9.82639 9.82638 1 20.7143 1H69.3886Z" fill="#F9F9F9" stroke="black" stroke-width="2" stroke-linejoin="round"/>
</svg>
