<svg width="252" height="252" viewBox="0 0 252 252" fill="none" xmlns="http://www.w3.org/2000/svg">
<path d="M231.9 1C242.449 1 251 9.55125 251 20.0998C251 25.1653 248.988 30.0234 245.406 33.6053L139.85 139.161C132.252 146.759 132.392 159.12 140.161 166.545C147.684 173.735 159.573 173.6 166.931 166.241L208.322 124.85C224.071 109.101 251 120.255 251 142.528V226C251 239.807 239.807 251 226 251H224.028C201.756 251 190.602 224.071 206.351 208.322L228.355 186.318C235.954 178.719 235.814 166.358 228.045 158.934C220.522 151.744 208.633 151.878 201.275 159.237L116.834 243.678C112.146 248.366 105.787 251 99.1563 251H26C12.1929 251 1 239.807 1 226V186.484C1 182.443 2.60553 178.567 5.4634 175.709C11.4146 169.757 21.0634 169.757 27.0146 175.709L58.1611 206.855C65.7593 214.453 78.1209 214.313 85.5451 206.545C92.7351 199.022 92.6004 187.133 85.2418 179.774L60.9974 155.53C51.2343 145.767 51.2343 129.938 60.9974 120.175L172.85 8.32233C177.538 3.63392 183.897 1 190.527 1H231.9Z" fill="#F9F9F9"/>
<path d="M1 26C1 12.1929 12.1929 1 26 1H65.6553C87.9279 1 99.0821 27.9285 83.333 43.6777L27.0146 99.9961C21.0634 105.947 11.4146 105.947 5.4634 99.9961C2.60553 97.1382 1 93.2621 1 89.2205V26Z" fill="#F9F9F9"/>
<path d="M231.9 1C242.449 1 251 9.55125 251 20.0998C251 25.1653 248.988 30.0234 245.406 33.6053L139.85 139.161C132.252 146.759 132.392 159.12 140.161 166.545C147.684 173.735 159.573 173.6 166.931 166.241L208.322 124.85C224.071 109.101 251 120.255 251 142.528V226C251 239.807 239.807 251 226 251H224.028C201.756 251 190.602 224.071 206.351 208.322L228.355 186.318C235.954 178.719 235.814 166.358 228.045 158.934C220.522 151.744 208.633 151.878 201.275 159.237L116.834 243.678C112.146 248.366 105.787 251 99.1563 251H26C12.1929 251 1 239.807 1 226V186.484C1 182.443 2.60553 178.567 5.4634 175.709C11.4146 169.757 21.0634 169.757 27.0146 175.709L58.1611 206.855C65.7593 214.453 78.1209 214.313 85.5451 206.545C92.7351 199.022 92.6004 187.133 85.2418 179.774L60.9974 155.53C51.2343 145.767 51.2343 129.938 60.9974 120.175L172.85 8.32233C177.538 3.63392 183.897 1 190.527 1H231.9Z" stroke="black" stroke-width="2" stroke-linejoin="round"/>
<path d="M1 26C1 12.1929 12.1929 1 26 1H65.6553C87.9279 1 99.0821 27.9285 83.333 43.6777L27.0146 99.9961C21.0634 105.947 11.4146 105.947 5.4634 99.9961C2.60553 97.1382 1 93.2621 1 89.2205V26Z" stroke="black" stroke-width="2" stroke-linejoin="round"/>
</svg>
