<svg width="252" height="252" viewBox="0 0 252 252" fill="none" xmlns="http://www.w3.org/2000/svg">
<path d="M1 148.549C1 126.277 27.9286 115.123 43.6777 130.872L63.6611 150.855C71.2593 158.453 83.6209 158.313 91.0451 150.545C98.2351 143.022 98.1004 131.133 90.7418 123.774L7.84129 40.8739C3.46089 36.4935 1 30.5524 1 24.3576C1 11.4576 11.4576 1 24.3576 1H55.9506C62.581 1 68.9398 3.63393 73.6282 8.32233L145.758 80.4519C149.29 83.9843 151.325 88.7427 151.438 93.737C151.677 104.283 160.294 112.707 170.843 112.707L226 112.707C239.807 112.707 251 123.9 251 137.707V226C251 239.807 239.807 251 226 251H139.323C132.692 251 126.333 248.366 121.645 243.678L61.3181 183.351C53.7199 175.753 41.3582 175.893 33.9341 183.661C26.7441 191.184 26.8787 203.073 34.2373 210.431L37.903 214.097C51.5211 227.715 41.8762 251 22.6172 251C10.6784 251 1 241.322 1 229.383V148.549Z" fill="#F9F9F9"/>
<path d="M251 49.4091C251 63.2162 239.807 74.4091 226 74.4091H204.232C197.601 74.4091 191.243 71.7752 186.554 67.0868L163.145 43.6777C147.396 27.9285 158.55 1 180.823 1H226C239.807 1 251 12.1929 251 26V49.4091Z" fill="#F9F9F9"/>
<path d="M1 148.549C1 126.277 27.9286 115.123 43.6777 130.872L63.6611 150.855C71.2593 158.453 83.6209 158.313 91.0451 150.545C98.2351 143.022 98.1004 131.133 90.7418 123.774L7.84129 40.8739C3.46089 36.4935 1 30.5524 1 24.3576C1 11.4576 11.4576 1 24.3576 1H55.9506C62.581 1 68.9398 3.63393 73.6282 8.32233L145.758 80.4519C149.29 83.9843 151.325 88.7427 151.438 93.737C151.677 104.283 160.294 112.707 170.843 112.707L226 112.707C239.807 112.707 251 123.9 251 137.707V226C251 239.807 239.807 251 226 251H139.323C132.692 251 126.333 248.366 121.645 243.678L61.3181 183.351C53.7199 175.753 41.3582 175.893 33.9341 183.661C26.7441 191.184 26.8787 203.073 34.2373 210.431L37.903 214.097C51.5211 227.715 41.8762 251 22.6172 251C10.6784 251 1 241.322 1 229.383V148.549Z" stroke="black" stroke-width="2" stroke-linejoin="round"/>
<path d="M251 49.4091C251 63.2162 239.807 74.4091 226 74.4091H204.232C197.601 74.4091 191.243 71.7752 186.554 67.0868L163.145 43.6777C147.396 27.9285 158.55 1 180.823 1H226C239.807 1 251 12.1929 251 26V49.4091Z" stroke="black" stroke-width="2" stroke-linejoin="round"/>
</svg>
