<svg width="252" height="252" viewBox="0 0 252 252" fill="none" xmlns="http://www.w3.org/2000/svg">
<path d="M1 17.25C1 8.27537 8.27537 1 17.25 1H139.156C161.428 1 172.583 27.9286 156.833 43.6777L139.85 60.6607C132.252 68.2589 132.392 80.6205 140.161 88.0446C147.684 95.2347 159.573 95.1 166.931 87.7414L208.322 46.3503C224.071 30.6011 251 41.7554 251 64.028V195C251 208.807 239.807 220 226 220H185.504C176.999 220 170.159 226.997 170.351 235.5C170.544 244.003 163.704 251 155.199 251H26C12.1929 251 1 239.807 1 226V197.298C1 183.491 12.1929 172.298 26 172.298H148.833C159.578 172.298 168.22 163.458 167.977 152.715C167.741 142.311 159.239 134 148.833 134H26C12.1929 134 1 122.807 1 109V96.7979C1 82.9908 12.1929 71.7979 26 71.7979H59.8327C70.5782 71.7979 79.2202 62.9579 78.9768 52.2152C78.7411 41.8112 70.2394 33.5 59.8327 33.5H17.25C8.27537 33.5 1 26.2246 1 17.25Z" fill="#F9F9F9" stroke="black" stroke-width="2" stroke-linejoin="round"/>
</svg>
