<svg width="252" height="252" viewBox="0 0 252 252" fill="none" xmlns="http://www.w3.org/2000/svg">
<path d="M1 19C1 9.05887 9.05888 1 19 1H226C239.807 1 251 12.1929 251 26V50.6558C251 57.2862 248.366 63.6451 243.678 68.3335L116.85 195.161C109.252 202.759 109.392 215.12 117.161 222.545C124.684 229.735 136.573 229.6 143.931 222.241L155.552 210.62C160.241 205.932 166.6 203.298 173.23 203.298H227.149C240.322 203.298 251 213.976 251 227.149C251 240.322 240.322 251 227.149 251H26C12.1929 251 1 239.807 1 226V134.205C1 127.771 3.48086 121.584 7.92641 116.933L40.3313 83.0252C45.048 78.0898 51.578 75.2979 58.4049 75.2979H139.833C150.578 75.2979 159.22 66.4579 158.977 55.7152C158.741 45.3112 150.239 37 139.833 37H19C9.05887 37 1 28.9411 1 19Z" fill="#F9F9F9"/>
<path d="M251 150.406C251 158.466 244.466 165 236.406 165C223.404 165 216.893 149.28 226.086 140.086C235.28 130.893 251 137.404 251 150.406Z" fill="#F9F9F9"/>
<path d="M1 19C1 9.05887 9.05888 1 19 1H226C239.807 1 251 12.1929 251 26V50.6558C251 57.2862 248.366 63.6451 243.678 68.3335L116.85 195.161C109.252 202.759 109.392 215.12 117.161 222.545C124.684 229.735 136.573 229.6 143.931 222.241L155.552 210.62C160.241 205.932 166.6 203.298 173.23 203.298H227.149C240.322 203.298 251 213.976 251 227.149C251 240.322 240.322 251 227.149 251H26C12.1929 251 1 239.807 1 226V134.205C1 127.771 3.48086 121.584 7.92641 116.933L40.3313 83.0252C45.048 78.0898 51.578 75.2979 58.4049 75.2979H139.833C150.578 75.2979 159.22 66.4579 158.977 55.7152C158.741 45.3112 150.239 37 139.833 37H19C9.05887 37 1 28.9411 1 19Z" stroke="black" stroke-width="2" stroke-linejoin="round"/>
<path d="M251 150.406C251 158.466 244.466 165 236.406 165C223.404 165 216.893 149.28 226.086 140.086C235.28 130.893 251 137.404 251 150.406Z" stroke="black" stroke-width="2" stroke-linejoin="round"/>
</svg>
