<svg width="252" height="252" viewBox="0 0 252 252" fill="none" xmlns="http://www.w3.org/2000/svg">
<path d="M245.406 33.6053C248.988 30.0234 251 25.1653 251 20.0998C251 9.55125 242.449 1 231.9 1H190.528C183.898 1 177.539 3.63392 172.85 8.32233L8.32234 172.85C3.63393 177.539 1 183.898 1 190.528V198.5C1 212.307 12.1929 223.5 26 223.5H112.299C119.945 223.5 126.191 229.606 126.364 237.25C126.537 244.894 132.784 251 140.429 251H226C239.807 251 251 239.807 251 226V142.528C251 120.255 224.071 109.101 208.322 124.85L166.931 166.241C159.573 173.6 147.684 173.735 140.161 166.545C132.392 159.12 132.252 146.759 139.85 139.161L245.406 33.6053Z" fill="#F9F9F9"/>
<path d="M1 26C1 12.1929 12.1929 1 26 1H65.6558C87.9284 1 99.0826 27.9285 83.3335 43.6777L43.6777 83.3335C27.9285 99.0826 1 87.9285 1 65.6558V26Z" fill="#F9F9F9"/>
<path d="M245.406 33.6053C248.988 30.0234 251 25.1653 251 20.0998C251 9.55125 242.449 1 231.9 1H190.528C183.898 1 177.539 3.63392 172.85 8.32233L8.32234 172.85C3.63393 177.539 1 183.898 1 190.528V198.5C1 212.307 12.1929 223.5 26 223.5H112.299C119.945 223.5 126.191 229.606 126.364 237.25C126.537 244.894 132.784 251 140.429 251H226C239.807 251 251 239.807 251 226V142.528C251 120.255 224.071 109.101 208.322 124.85L166.931 166.241C159.573 173.6 147.684 173.735 140.161 166.545C132.392 159.12 132.252 146.759 139.85 139.161L245.406 33.6053Z" stroke="black" stroke-width="2" stroke-linejoin="round"/>
<path d="M1 26C1 12.1929 12.1929 1 26 1H65.6558C87.9284 1 99.0826 27.9285 83.3335 43.6777L43.6777 83.3335C27.9285 99.0826 1 87.9285 1 65.6558V26Z" stroke="black" stroke-width="2" stroke-linejoin="round"/>
</svg>
