<svg width="252" height="252" viewBox="0 0 252 252" fill="none" xmlns="http://www.w3.org/2000/svg">
<path d="M127.128 8.32232C122.439 3.63391 116.08 1 109.45 1H24.3576C11.4576 1 1 11.4576 1 24.3576C1 30.5524 3.46088 36.4935 7.84128 40.8739L90.7418 123.774C98.1004 131.133 98.2351 143.022 91.0451 150.545C83.6209 158.313 71.2593 158.453 63.6611 150.855L43.6777 130.872C27.9286 115.123 1 126.277 1 148.549V229.383C1 241.322 10.6784 251 22.6172 251C41.8762 251 51.5211 227.715 37.903 214.097L34.2373 210.431C26.8787 203.073 26.7441 191.184 33.9341 183.661C41.3582 175.893 53.7199 175.753 61.3181 183.351L121.645 243.678C126.333 248.366 132.692 251 139.323 251H229.924C241.564 251 251 241.564 251 229.924C251 224.335 248.78 218.974 244.827 215.022L158.737 128.931C151.378 121.573 151.243 109.684 158.433 102.161C165.858 94.3925 178.219 94.2524 185.817 101.851L208.322 124.356C224.071 140.105 251 128.95 251 106.678V23.5625C251 11.1016 240.898 1 228.437 1C208.336 1 198.27 25.303 212.483 39.5166L215.241 42.2744C222.6 49.633 222.734 61.5215 215.544 69.0449C208.12 76.8133 195.759 76.9533 188.16 69.3551L127.128 8.32232Z" fill="#F9F9F9" stroke="black" stroke-width="2" stroke-linejoin="round"/>
</svg>
