<svg width="252" height="253" viewBox="0 0 252 253" fill="none" xmlns="http://www.w3.org/2000/svg">
<path fill-rule="evenodd" clip-rule="evenodd" d="M51.9621 1H135.962L146.307 21.9375H230.482V43.0824L251 53.2199V137.22L230.482 147.358V231.318H209.296L199.198 251.756L115.198 251.756L105.1 231.318H21.1016V209.968L1 200.036L1 116.036L21.1016 106.104V21.9375H41.6175L51.9621 1Z" fill="#F9F9F9"/>
<path d="M135.962 1L136.859 0.557044L136.584 0H135.962V1ZM51.9621 1V0H51.3407L51.0655 0.557044L51.9621 1ZM146.307 21.9375L145.411 22.3805L145.686 22.9375H146.307V21.9375ZM230.482 21.9375H231.482V20.9375H230.482V21.9375ZM230.482 43.0824H229.482V43.7037L230.039 43.979L230.482 43.0824ZM251 53.2199H252V52.5985L251.443 52.3233L251 53.2199ZM251 137.22L251.443 138.117L252 137.842V137.22H251ZM230.482 147.358L230.039 146.461L229.482 146.736V147.358H230.482ZM230.482 231.318V232.318H231.482V231.318H230.482ZM209.296 231.318V230.318H208.675L208.399 230.875L209.296 231.318ZM199.198 251.756V252.756H199.819L200.095 252.199L199.198 251.756ZM115.198 251.756L114.301 252.199L114.576 252.756H115.198V251.756ZM105.1 231.318L105.996 230.875L105.721 230.318H105.1V231.318ZM21.1016 231.318H20.1016V232.318H21.1016V231.318ZM21.1016 209.968H22.1016V209.346L21.5445 209.071L21.1016 209.968ZM1 200.036H4.11272e-06L4.17233e-06 200.657L0.557048 200.933L1 200.036ZM1 116.036L0.557044 115.139L0 115.414V116.036H1ZM21.1016 106.104L21.5445 107.001L22.1016 106.725V106.104H21.1016ZM21.1016 21.9375V20.9375H20.1016V21.9375H21.1016ZM41.6175 21.9375V22.9375H42.2388L42.514 22.3805L41.6175 21.9375ZM135.962 0H51.9621V2H135.962V0ZM147.204 21.4945L136.859 0.557044L135.066 1.44296L145.411 22.3805L147.204 21.4945ZM230.482 20.9375H146.307V22.9375H230.482V20.9375ZM231.482 43.0824V21.9375H229.482V43.0824H231.482ZM251.443 52.3233L230.925 42.1859L230.039 43.979L250.557 54.1164L251.443 52.3233ZM252 137.22V53.2199H250V137.22H252ZM230.925 148.254L251.443 138.117L250.557 136.324L230.039 146.461L230.925 148.254ZM231.482 231.318V147.358H229.482V231.318H231.482ZM209.296 232.318H230.482V230.318H209.296V232.318ZM200.095 252.199L210.193 231.761L208.399 230.875L198.302 251.313L200.095 252.199ZM115.198 252.756L199.198 252.756V250.756L115.198 250.756V252.756ZM104.203 231.761L114.301 252.199L116.094 251.313L105.996 230.875L104.203 231.761ZM21.1016 232.318H105.1V230.318H21.1016V232.318ZM20.1016 209.968V231.318H22.1016V209.968H20.1016ZM21.5445 209.071L1.44296 199.139L0.557048 200.933L20.6586 210.864L21.5445 209.071ZM2 200.036L2 116.036H0L4.11272e-06 200.036H2ZM1.44296 116.932L21.5445 107.001L20.6586 105.207L0.557044 115.139L1.44296 116.932ZM20.1016 21.9375V106.104H22.1016V21.9375H20.1016ZM41.6175 20.9375H21.1016V22.9375H41.6175V20.9375ZM51.0655 0.557044L40.7209 21.4945L42.514 22.3805L52.8586 1.44296L51.0655 0.557044Z" fill="black"/>
</svg>
