<svg width="250" height="252" viewBox="0 0 250 252" fill="none" xmlns="http://www.w3.org/2000/svg">
<path fill-rule="evenodd" clip-rule="evenodd" d="M100.732 1H54.9847L43.8141 23.6094H21.0117V47.826L1 57.7132L1 148.939L21.0117 158.826V251H248.402V23.6094H174.208L163.037 1H117.289L109.011 17.7556L100.732 1Z" fill="#F9F9F9"/>
<path d="M54.9847 1V0H54.3634L54.0882 0.557044L54.9847 1ZM100.732 1L101.629 0.557044L101.354 0H100.732V1ZM43.8141 23.6094V24.6094H44.4354L44.7106 24.0523L43.8141 23.6094ZM21.0117 23.6094V22.6094H20.0117V23.6094H21.0117ZM21.0117 47.826L21.4547 48.7226L22.0117 48.4473V47.826H21.0117ZM1 57.7132L0.557044 56.8167L0 57.0919V57.7132H1ZM1 148.939H4.47035e-06L4.52995e-06 149.56L0.557049 149.836L1 148.939ZM21.0117 158.826H22.0117V158.205L21.4547 157.93L21.0117 158.826ZM21.0117 251H20.0117V252H21.0117V251ZM248.402 251V252H249.402V251H248.402ZM248.402 23.6094H249.402V22.6094H248.402V23.6094ZM174.208 23.6094L173.311 24.0523L173.586 24.6094H174.208V23.6094ZM163.037 1L163.934 0.557044L163.658 0H163.037V1ZM117.289 1V0H116.668L116.393 0.557044L117.289 1ZM109.011 17.7556L108.114 18.1986L109.011 20.0132L109.907 18.1986L109.011 17.7556ZM54.9847 2H100.732V0H54.9847V2ZM44.7106 24.0523L55.8813 1.44296L54.0882 0.557044L42.9175 23.1664L44.7106 24.0523ZM21.0117 24.6094H43.8141V22.6094H21.0117V24.6094ZM22.0117 47.826V23.6094H20.0117V47.826H22.0117ZM1.44296 58.6098L21.4547 48.7226L20.5688 46.9295L0.557044 56.8167L1.44296 58.6098ZM2 148.939L2 57.7132H0L4.47035e-06 148.939H2ZM21.4547 157.93L1.44296 148.043L0.557049 149.836L20.5688 159.723L21.4547 157.93ZM22.0117 251V158.826H20.0117V251H22.0117ZM248.402 250H21.0117V252H248.402V250ZM247.402 23.6094V251H249.402V23.6094H247.402ZM174.208 24.6094H248.402V22.6094H174.208V24.6094ZM162.141 1.44296L173.311 24.0523L175.104 23.1664L163.934 0.557044L162.141 1.44296ZM117.289 2H163.037V0H117.289V2ZM109.907 18.1986L118.186 1.44296L116.393 0.557044L108.114 17.3127L109.907 18.1986ZM99.8359 1.44296L108.114 18.1986L109.907 17.3127L101.629 0.557044L99.8359 1.44296Z" fill="black"/>
</svg>
