<svg width="253" height="253" viewBox="0 0 253 253" fill="none" xmlns="http://www.w3.org/2000/svg">
<path fill-rule="evenodd" clip-rule="evenodd" d="M154.204 1H62.4936L51.4899 23.2715H23.4023V112.375L1 123.443L1 215.153L23.4023 226.221V251.869H137.705L252 137.574V23.2715H165.207L154.204 1Z" fill="#F9F9F9"/>
<path d="M62.4936 1V0H61.8722L61.597 0.557044L62.4936 1ZM154.204 1L155.1 0.557044L154.825 0H154.204V1ZM51.4899 23.2715V24.2715H52.1112L52.3864 23.7144L51.4899 23.2715ZM23.4023 23.2715V22.2715H22.4023V23.2715H23.4023ZM23.4023 112.375L23.8453 113.271L24.4023 112.996V112.375H23.4023ZM1 123.443L0.557044 122.546L0 122.822V123.443H1ZM1 215.153H4.52995e-06V215.774L0.557048 216.049L1 215.153ZM23.4023 226.221H24.4023V225.6L23.8453 225.325L23.4023 226.221ZM23.4023 251.869H22.4023V252.869H23.4023V251.869ZM137.705 251.869V252.869H138.119L138.412 252.576L137.705 251.869ZM252 137.574L252.707 138.281L253 137.989V137.574H252ZM252 23.2715H253V22.2715H252V23.2715ZM165.207 23.2715L164.311 23.7144L164.586 24.2715H165.207V23.2715ZM62.4936 2H154.204V0H62.4936V2ZM52.3864 23.7144L63.3901 1.44296L61.597 0.557044L50.5933 22.8285L52.3864 23.7144ZM23.4023 24.2715H51.4899V22.2715H23.4023V24.2715ZM24.4023 112.375V23.2715H22.4023V112.375H24.4023ZM1.44296 124.339L23.8453 113.271L22.9594 111.478L0.557044 122.546L1.44296 124.339ZM2 215.153L2 123.443H0L4.52995e-06 215.153H2ZM23.8453 225.325L1.44296 214.256L0.557048 216.049L22.9594 227.118L23.8453 225.325ZM24.4023 251.869V226.221H22.4023V251.869H24.4023ZM137.705 250.869H23.4023V252.869H137.705V250.869ZM251.293 136.867L136.998 251.162L138.412 252.576L252.707 138.281L251.293 136.867ZM251 23.2715V137.574H253V23.2715H251ZM165.207 24.2715H252V22.2715H165.207V24.2715ZM153.307 1.44296L164.311 23.7144L166.104 22.8285L155.1 0.557044L153.307 1.44296Z" fill="black"/>
</svg>
