<svg width="253" height="254" viewBox="0 0 253 254" fill="none" xmlns="http://www.w3.org/2000/svg">
<path fill-rule="evenodd" clip-rule="evenodd" d="M56.6264 1H148.305L159.531 23.7227H251.003V227.501H136.744V252.241H22.4844V160.287L1 149.672L1 57.994L22.4844 47.3792V23.7227H45.3998L56.6264 1Z" fill="#F9F9F9"/>
<path d="M148.305 1L149.201 0.557043L148.926 0H148.305V1ZM56.6264 1V0H56.0051L55.7298 0.557044L56.6264 1ZM159.531 23.7227L158.635 24.1656L158.91 24.7227H159.531V23.7227ZM251.003 23.7227H252.003V22.7227H251.003V23.7227ZM251.003 227.501V228.501H252.003V227.501H251.003ZM136.744 227.501V226.501H135.744V227.501H136.744ZM136.744 252.241V253.241H137.744V252.241H136.744ZM22.4844 252.241H21.4844V253.241H22.4844V252.241ZM22.4844 160.287H23.4844V159.666L22.9273 159.391L22.4844 160.287ZM1 149.672H4.52995e-06V150.294L0.557048 150.569L1 149.672ZM1 57.994L0.557044 57.0975L0 57.3727V57.994H1ZM22.4844 47.3792L22.9273 48.2758L23.4844 48.0006V47.3792H22.4844ZM22.4844 23.7227V22.7227H21.4844V23.7227H22.4844ZM45.3998 23.7227V24.7227H46.0211L46.2963 24.1656L45.3998 23.7227ZM148.305 0H56.6264V2H148.305V0ZM160.428 23.2797L149.201 0.557043L147.408 1.44296L158.635 24.1656L160.428 23.2797ZM251.003 22.7227H159.531V24.7227H251.003V22.7227ZM252.003 227.501V23.7227H250.003V227.501H252.003ZM136.744 228.501H251.003V226.501H136.744V228.501ZM137.744 252.241V227.501H135.744V252.241H137.744ZM22.4844 253.241H136.744V251.241H22.4844V253.241ZM21.4844 160.287V252.241H23.4844V160.287H21.4844ZM22.9273 159.391L1.44296 148.776L0.557048 150.569L22.0414 161.184L22.9273 159.391ZM2 149.672L2 57.994H0L4.52995e-06 149.672H2ZM1.44296 58.8906L22.9273 48.2758L22.0414 46.4827L0.557044 57.0975L1.44296 58.8906ZM21.4844 23.7227V47.3792H23.4844V23.7227H21.4844ZM45.3998 22.7227H22.4844V24.7227H45.3998V22.7227ZM55.7298 0.557044L44.5032 23.2797L46.2963 24.1656L57.5229 1.44296L55.7298 0.557044Z" fill="black"/>
</svg>
