<svg width="253" height="254" viewBox="0 0 253 254" fill="none" xmlns="http://www.w3.org/2000/svg">
<path fill-rule="evenodd" clip-rule="evenodd" d="M148.303 1H56.6244L45.3988 23.7207H22.4824V47.3802L1 57.994L1 149.672L22.4824 160.286V252.239H251.001V23.8519H251.009V1H221.29L210.065 23.7207H206.001H159.528L148.303 1Z" fill="#F9F9F9"/>
<path d="M56.6244 1V0H56.0031L55.7279 0.557044L56.6244 1ZM148.303 1L149.199 0.557044L148.924 0H148.303V1ZM45.3988 23.7207V24.7207H46.0201L46.2953 24.1637L45.3988 23.7207ZM22.4824 23.7207V22.7207H21.4824V23.7207H22.4824ZM22.4824 47.3802L22.9254 48.2767L23.4824 48.0015V47.3802H22.4824ZM1 57.994L0.557044 57.0975L0 57.3727V57.994H1ZM1 149.672H4.52995e-06V150.294L0.557048 150.569L1 149.672ZM22.4824 160.286H23.4824V159.665L22.9254 159.39L22.4824 160.286ZM22.4824 252.239H21.4824V253.239H22.4824V252.239ZM251.001 252.239V253.239H252.001V252.239H251.001ZM251.001 23.8519V22.8519H250.001V23.8519H251.001ZM251.009 23.8519V24.8519H252.009V23.8519H251.009ZM251.009 1H252.009V0H251.009V1ZM221.29 1V0H220.669L220.394 0.557044L221.29 1ZM210.065 23.7207V24.7207H210.686L210.961 24.1637L210.065 23.7207ZM159.528 23.7207L158.632 24.1637L158.907 24.7207H159.528V23.7207ZM56.6244 2H148.303V0H56.6244V2ZM46.2953 24.1637L57.521 1.44296L55.7279 0.557044L44.5022 23.2777L46.2953 24.1637ZM22.4824 24.7207H45.3988V22.7207H22.4824V24.7207ZM23.4824 47.3802V23.7207H21.4824V47.3802H23.4824ZM1.44296 58.8906L22.9254 48.2767L22.0395 46.4837L0.557044 57.0975L1.44296 58.8906ZM2 149.672L2 57.994H0L4.52995e-06 149.672H2ZM22.9254 159.39L1.44296 148.776L0.557048 150.569L22.0395 161.183L22.9254 159.39ZM23.4824 252.239V160.286H21.4824V252.239H23.4824ZM251.001 251.239H22.4824V253.239H251.001V251.239ZM250.001 23.8519V252.239H252.001V23.8519H250.001ZM251.009 22.8519H251.001V24.8519H251.009V22.8519ZM250.009 1V23.8519H252.009V1H250.009ZM221.29 2H251.009V0H221.29V2ZM210.961 24.1637L222.187 1.44296L220.394 0.557044L209.168 23.2777L210.961 24.1637ZM206.001 24.7207H210.065V22.7207H206.001V24.7207ZM159.528 24.7207H206.001V22.7207H159.528V24.7207ZM147.406 1.44296L158.632 24.1637L160.425 23.2777L149.199 0.557044L147.406 1.44296Z" fill="black"/>
</svg>
