<svg width="252" height="252" viewBox="0 0 252 252" fill="none" xmlns="http://www.w3.org/2000/svg">
<path d="M26 251C12.1929 251 1 239.807 1 226V47.1121C1 27.7402 22.081 15.7288 38.7461 25.6054L238.746 144.136C246.342 148.638 251 156.813 251 165.643V226C251 239.807 239.807 251 226 251H224.518C220.033 251 215.631 249.793 211.772 247.507L53.1299 153.487C43.8859 148.008 31.9445 151.207 26.6768 160.573C21.5752 169.643 24.6515 181.127 33.6041 186.433L64.0774 204.493C85.9514 217.457 76.7583 251 51.3313 251H26Z" fill="#F9F9F9"/>
<path d="M226 1C239.807 1 251 12.1929 251 26V63.0028C251 82.3747 229.919 94.3861 213.254 84.5095L150.818 47.5067C128.944 34.543 138.137 1 163.564 1H226Z" fill="#F9F9F9"/>
<path d="M26 251C12.1929 251 1 239.807 1 226V47.1121C1 27.7402 22.081 15.7288 38.7461 25.6054L238.746 144.136C246.342 148.638 251 156.813 251 165.643V226C251 239.807 239.807 251 226 251H224.518C220.033 251 215.631 249.793 211.772 247.507L53.1299 153.487C43.8859 148.008 31.9445 151.207 26.6768 160.573C21.5752 169.643 24.6515 181.127 33.6041 186.433L64.0774 204.493C85.9514 217.457 76.7583 251 51.3313 251H26Z" stroke="black" stroke-width="2" stroke-linejoin="round"/>
<path d="M226 1C239.807 1 251 12.1929 251 26V63.0028C251 82.3747 229.919 94.3861 213.254 84.5095L150.818 47.5067C128.944 34.543 138.137 1 163.564 1H226Z" stroke="black" stroke-width="2" stroke-linejoin="round"/>
</svg>
