<svg width="252" height="252" viewBox="0 0 252 252" fill="none" xmlns="http://www.w3.org/2000/svg">
<path d="M229.638 1C241.436 1 251 10.5642 251 22.3623C251 28.0279 248.749 33.4615 244.743 37.4677L149.351 132.86C141.752 140.458 141.892 152.82 149.661 160.244C157.184 167.434 169.073 167.3 176.431 159.941L208.322 128.05C224.071 112.301 251 123.455 251 145.728V226C251 239.807 239.807 251 226 251H224.518C220.033 251 215.631 249.793 211.772 247.507L53.1299 153.487C43.8859 148.008 31.9445 151.207 26.6768 160.573C21.5752 169.643 24.6515 181.127 33.6041 186.433L64.0774 204.493C85.9514 217.457 76.7583 251 51.3313 251H26C12.1929 251 1 239.807 1 226V26C1 12.1929 12.1929 1 26 1H229.638Z" fill="#F9F9F9" stroke="black" stroke-width="2" stroke-linejoin="round"/>
</svg>
