<svg width="252" height="252" viewBox="0 0 252 252" fill="none" xmlns="http://www.w3.org/2000/svg">
<path d="M251 18C251 8.61114 243.389 1 234 1H26C12.1929 1 1 12.1929 1 26V82C1 95.8071 12.1929 107 26 107H127.833C138.239 107 146.741 115.311 146.977 125.715C147.22 136.458 138.578 145.298 127.833 145.298H26C12.1929 145.298 1 156.491 1 170.298V226C1 239.807 12.1929 251 26 251H234.25C243.501 251 251 243.501 251 234.25C251 224.999 243.501 217.5 234.25 217.5H168.088C157.681 217.5 149.18 209.189 148.944 198.785C148.7 188.042 157.342 179.202 168.088 179.202H226C239.807 179.202 251 168.009 251 154.202V98.2978C251 84.4907 239.807 73.2978 226 73.2978L168.088 73.2978C157.681 73.2978 149.18 64.9866 148.944 54.5826C148.7 43.8399 157.342 34.9999 168.088 34.9999L234 34.9999C243.389 34.9999 251 27.3888 251 18Z" fill="#F9F9F9" stroke="black" stroke-width="2" stroke-linejoin="round"/>
</svg>
