<svg width="252" height="252" viewBox="0 0 252 252" fill="none" xmlns="http://www.w3.org/2000/svg">
<path d="M38.5 89.3369C21.8333 79.7144 1 91.7424 1 110.987V226C1 239.807 12.1929 251 26 251H50.8033C76.3809 251 85.4541 217.138 63.3033 204.349L32.7833 186.729C23.7708 181.525 20.5638 170.077 25.5616 160.949C30.7222 151.524 42.6263 148.189 51.9322 153.562L215.155 247.798C218.788 249.896 222.909 251 227.103 251C240.301 251 251 240.301 251 227.103V125.999C251 117.067 246.235 108.814 238.5 104.348L198.918 81.4952C189.906 76.2919 186.699 64.8434 191.696 55.7154C196.857 46.2902 208.761 42.9555 218.067 48.3283L219.63 49.2307C233.572 57.2802 251 47.2183 251 31.1192V25.2829C251 11.8718 240.128 1 226.717 1H15.2414C7.37607 1 1 7.37607 1 15.2414C1 20.3293 3.71439 25.0308 8.12068 27.5747L179.879 126.739C188.891 131.943 192.098 143.391 187.1 152.519C181.94 161.944 170.036 165.279 160.73 159.906L38.5 89.3369Z" fill="#F9F9F9" stroke="black" stroke-width="2" stroke-linejoin="round"/>
</svg>
