<svg width="252" height="252" viewBox="0 0 252 252" fill="none" xmlns="http://www.w3.org/2000/svg">
<path d="M37.5824 7.27654C33.5636 3.25774 28.1129 1 22.4295 1C10.5943 1 1 10.5943 1 22.4295V226C1 239.807 12.1929 251 26 251H78.4621C100.735 251 111.889 224.071 96.1398 208.322L47.3503 159.533C39.9917 152.174 39.8571 140.286 47.0471 132.762C54.4712 124.994 66.8328 124.854 74.4311 132.452L185.657 243.678C190.345 248.366 196.704 251 203.334 251H229.773C241.496 251 251 241.496 251 229.773C251 224.143 248.764 218.744 244.783 214.763L169.86 139.841C162.502 132.482 162.367 120.594 169.557 113.07C176.981 105.302 189.343 105.162 196.941 112.76L208.322 124.141C224.071 139.89 251 128.736 251 106.464V26C251 12.1929 239.807 1 226 1H145.823C123.55 1 112.396 27.9286 128.145 43.6777L142.441 57.9739C149.8 65.3325 149.934 77.221 142.744 84.7444C135.32 92.5128 122.959 92.6529 115.36 85.0546L37.5824 7.27654Z" fill="#F9F9F9" stroke="black" stroke-width="2" stroke-linejoin="round"/>
</svg>
