<svg width="252" height="252" viewBox="0 0 252 252" fill="none" xmlns="http://www.w3.org/2000/svg">
<path d="M1 144.628C1 125.383 21.8333 113.354 38.5 122.977L96.7015 156.58C106.007 161.952 117.912 158.618 123.072 149.193C128.07 140.065 124.863 128.616 115.85 123.413L13.5 64.3206C5.76497 59.8548 1 51.6016 1 42.6699V3.11714C1 1.94787 1.94787 1 3.11714 1C3.48877 1 3.85386 1.09783 4.17571 1.28364L142.826 81.3333C152.132 86.7061 164.036 83.3714 169.196 73.9462C174.194 64.8182 170.987 53.3697 161.975 48.1664L157.864 45.793C136.595 33.5135 145.307 1 169.866 1H226C239.807 1 251 12.1929 251 26V155.854C251 175.099 230.167 187.127 213.5 177.504L179.361 157.794C170.055 152.421 158.151 155.756 152.99 165.181C147.993 174.309 151.2 185.758 160.212 190.961L248.584 241.982C250.079 242.846 251 244.441 251 246.167C251 248.836 248.836 251 246.167 251H26C12.1929 251 1 239.807 1 226V144.628Z" fill="#F9F9F9" stroke="black" stroke-width="2" stroke-linejoin="round"/>
</svg>
