<?xml version="1.0" encoding="UTF-8"?>
<svg id="Layer_2" data-name="Layer 2" xmlns="http://www.w3.org/2000/svg" viewBox="0 0 1080 1080">
  <defs>
    <style>
      .cls-1 {
        fill: #ff6d2e;
      }

      .cls-1, .cls-2 {
        stroke-width: 0px;
      }

      .cls-2 {
        fill: #fff;
      }
    </style>
  </defs>
  <rect class="cls-1" x=".5" y=".5" width="1079" height="1080"/>
  <g>
    <path class="cls-2" d="M789.18,716.65c-10.14-9.23-15.2-20.84-15.2-34.82s5.06-25.57,15.2-34.81c10.15-9.23,22.41-13.86,36.84-13.86s27.26,4.63,37.18,13.86c9.91,9.24,14.87,20.85,14.87,34.81s-4.96,25.59-14.87,34.82c-9.91,9.24-22.3,13.86-37.18,13.86s-26.7-4.62-36.84-13.86Z"/>
    <path class="cls-2" d="M619.16,730.51c-42.8,0-88.16-20.83-129.27-58.44-37.3,34.87-80.58,58.44-124.23,58.44-32.76,0-62.66-12.14-86.49-35.1-69.01-66.54-77.53-212.73-77.24-332.67v-8.16h84.51v8.34c-.37,148.56,17.32,241.1,52.54,275.07,8.07,7.77,16.29,11.23,26.67,11.23,20.95,0,46.55-15.89,70.65-39.69-34.33-50.53-55.01-106.96-55.01-152.07,0-30.45,9.26-56.53,26.78-75.4,13.79-14.86,39.62-32.57,84.33-32.57s68.61,17.22,82.03,31.65c17.05,18.35,26.06,43.72,26.06,73.36,0,44.23-22.1,102.43-56.89,153.97,25.87,24.59,53.64,40.74,75.55,40.74,11.16,0,19.33-3.39,27.32-11.35,32.83-32.67,46.93-120.66,41.92-261.51-.34-9.45-.59-16.89-.59-21.79h84.5c0,4.28.25,10.78.54,19,4.08,114.88.33,255.15-65.6,320.78-23.76,23.65-54.22,36.16-88.09,36.16ZM492.41,430.78c-6.08,0-16.93.7-21.3,5.43-3.37,3.63-5.31,11.38-5.31,21.26,0,25.77,9.35,54.08,23.94,80.85,15.93-28.9,26.26-58.89,26.26-83.8,0-8.95-1.7-16.12-4.56-19.19-2.64-2.85-9.76-4.54-19.03-4.54Z"/>
  </g>
</svg>