<svg width="250" height="250" viewBox="0 0 250 250" fill="none" xmlns="http://www.w3.org/2000/svg">
<path d="M116.894 25C180.465 25 247 47.2144 247 74.6173C247 102.02 180.534 124.007 116.963 124.007C62.031 124.007 2.5 110.482 2.5 93.7979C2.5 77.1137 61.9485 63.5885 116.88 63.5885C172.126 63.5885 226.912 85.8029 226.912 113.206C226.912 140.609 172.126 162.823 116.88 162.823C69.1425 162.823 20.5033 149.071 20.5033 132.386C20.5033 115.702 60.5122 106.25 108.25 106.25C162.75 106.25 207.311 124.391 207.311 151.794C207.311 185.5 158.75 195.5 120.5 195.5C93.0949 195.5 46.5 186.225 46.5 171.25C46.5 156.275 84.5328 147.25 116.963 147.25C164.131 147.25 189.75 165.5 189.75 185C189.75 213 143.5 225.25 120.5 225.25" stroke="#03261C" stroke-width="2" stroke-linejoin="round"/>
<path d="M131 25L109 13.5V36.5L131 25Z" fill="#FF6D2E" stroke="#03261C" stroke-width="2" stroke-linejoin="round"/>
<path d="M105.632 123.999L127.499 135.75L127.762 112.752L105.632 123.999Z" fill="#FF6D2E" stroke="#03261C" stroke-width="2" stroke-linejoin="round"/>
<path d="M105.5 225L127.5 236.5V213.5L105.5 225Z" fill="#FF6D2E" stroke="#03261C" stroke-width="2" stroke-linejoin="round"/>
</svg>
