<svg width="252" height="252" viewBox="0 0 252 252" fill="none" xmlns="http://www.w3.org/2000/svg">
<g clip-path="url(#clip0_2_143)">
<path d="M226.437 125.751C226.437 105.807 220.547 86.3118 209.511 69.7294C198.474 53.1469 182.789 40.2225 164.435 32.5904C146.083 24.9584 125.888 22.9615 106.406 26.8523C86.9226 30.743 69.0263 40.3468 54.9798 54.449C40.9334 68.5512 31.3676 86.5185 27.4922 106.079C23.6168 125.639 25.6058 145.914 33.2076 164.339C40.8095 182.765 53.6829 198.513 70.1998 209.593C86.7167 220.673 106.135 226.587 126 226.587M126 202.674C141.154 202.674 155.967 198.162 168.567 189.71C181.167 181.257 190.987 169.244 196.786 155.188C202.585 141.132 204.103 125.666 201.146 110.744C198.19 95.8226 190.892 82.1163 180.177 71.3585C169.463 60.6007 155.81 53.2746 140.948 50.3065C126.085 47.3384 110.68 48.8617 96.6793 54.6838C82.6792 60.5059 70.713 70.3653 62.2941 83.0151C53.8751 95.665 49.3815 110.537 49.3815 125.751M74.7887 125.751C74.7887 135.92 77.7922 145.86 83.4194 154.315C89.0465 162.77 97.0446 169.36 106.403 173.252C112.646 175.848 119.308 177.165 126 177.166C129.339 177.166 132.684 176.838 135.99 176.178C145.925 174.194 155.05 169.297 162.212 162.107C169.374 154.916 174.252 145.755 176.228 135.781C176.885 132.462 177.212 129.103 177.212 125.751C177.212 119.032 175.899 112.344 173.313 106.075C169.437 96.6807 162.873 88.6509 154.451 83.0014C146.03 77.3519 136.129 74.3364 126 74.3364M250.257 125.751C250.257 194.649 194.626 250.501 126 250.501C57.3748 250.501 1.74307 194.649 1.74307 125.751C1.74307 56.8535 57.3748 1.00098 126 1.00098C194.626 1.00098 250.257 56.8535 250.257 125.751Z" stroke="#03261C" stroke-width="2" stroke-linejoin="round"/>
<path d="M147 125C147 137.15 137.15 147 125 147C112.85 147 103 137.15 103 125C103 112.85 112.85 103 125 103C137.15 103 147 112.85 147 125Z" fill="#FF6D2E" stroke="#03261C" stroke-width="2"/>
</g>
<defs>
<clipPath id="clip0_2_143">
<rect width="252" height="252" fill="white"/>
</clipPath>
</defs>
</svg>
