<svg width="252" height="252" viewBox="0 0 252 252" fill="none" xmlns="http://www.w3.org/2000/svg">
<g clip-path="url(#clip0_2_192)">
<path d="M188.5 251C223.018 251 251 195.036 251 126C251 56.9644 223.018 1 188.5 1C153.982 1 126 56.9644 126 126C126 195.036 153.982 251 188.5 251Z" fill="#FF6D2E" stroke="#03261C" stroke-width="2" stroke-linejoin="round"/>
<path d="M157.25 251C174.509 251 188.5 195.036 188.5 126C188.5 56.9644 174.509 1 157.25 1C139.991 1 126 56.9644 126 126C126 195.036 139.991 251 157.25 251Z" stroke="#03261C" stroke-width="2" stroke-linejoin="round"/>
<path d="M63.5 251C28.9822 251 1 195.036 1 126C1 56.9644 28.9822 1 63.5 1C98.0178 1 126 56.9644 126 126C126 195.036 98.0178 251 63.5 251Z" fill="#F6F1ED" stroke="#03261C" stroke-width="2" stroke-linejoin="round"/>
<path d="M126.256 251C126.397 251 126.512 195.036 126.512 126C126.512 56.9644 126.397 1 126.256 1C126.115 1 126 56.9644 126 126C126 195.036 126.115 251 126.256 251Z" fill="#F6F1ED" stroke="#03261C" stroke-width="2" stroke-linejoin="round"/>
<path d="M94.75 251C77.4911 251 63.5 195.036 63.5 126C63.5 56.9644 77.4911 1 94.75 1C112.009 1 126 56.9644 126 126C126 195.036 112.009 251 94.75 251Z" stroke="#03261C" stroke-width="2" stroke-linejoin="round"/>
</g>
<defs>
<clipPath id="clip0_2_192">
<rect width="252" height="252" fill="white"/>
</clipPath>
</defs>
</svg>
