<svg width="250" height="253" viewBox="0 0 250 253" fill="none" xmlns="http://www.w3.org/2000/svg">
<path d="M90.6797 13.7134L113.052 22.9647L111.282 0.999962L90.6797 13.7134Z" fill="#FF6D2E" stroke="#03261C" stroke-width="2" stroke-linejoin="round"/>
<path d="M55.7826 125.072L44.7646 146.629H66.8006L55.7826 125.072Z" fill="#FF6D2E" stroke="#03261C" stroke-width="2" stroke-linejoin="round"/>
<path d="M111.729 11.5386C145.152 11.5386 177.206 24.8195 200.839 48.4598C224.473 72.1 237.75 104.163 237.75 137.595C237.75 167.688 225.799 196.548 204.526 217.827C183.254 239.105 154.402 251.06 124.318 251.06C110.913 251.06 97.6387 248.418 85.2542 243.286C72.8697 238.155 61.6172 230.633 52.1391 221.15C42.661 211.668 35.1431 200.411 30.0147 188.022C24.8863 175.634 22.2479 162.356 22.25 148.947C22.25 124.575 31.9277 101.202 49.1545 83.9671C66.3812 66.7324 89.7463 57.0479 114.111 57.0435C136.048 57.0435 157.086 65.7603 172.598 81.2763C188.109 96.7923 196.824 117.837 196.824 139.78C196.824 159.528 188.981 178.468 175.02 192.432C161.06 206.397 142.125 214.242 122.382 214.242C104.618 214.242 87.5809 207.183 75.0196 194.618C62.4582 182.053 55.4013 165.012 55.4013 147.242" stroke="#03261C" stroke-width="2" stroke-linejoin="round"/>
</svg>
