<svg width="252" height="252" viewBox="0 0 252 252" fill="none" xmlns="http://www.w3.org/2000/svg">
<path d="M174.462 125.922C174.462 147.334 157.104 164.692 135.692 164.692C114.281 164.692 96.9231 147.334 96.9231 125.922C96.9231 104.51 114.281 87.1532 135.692 87.1532C157.104 87.1532 174.462 104.51 174.462 125.922Z" fill="#FF6D2E"/>
<path d="M58.1538 125.922C58.1538 168.746 92.869 203.461 135.692 203.461C163.431 203.461 187.767 188.896 201.471 166.996M58.1538 125.922C58.1538 83.0991 92.869 48.384 135.692 48.384C163.431 48.384 187.767 62.9493 201.471 84.8488M58.1538 125.922H0M58.1538 125.922H252M174.462 125.922C174.462 147.334 157.104 164.692 135.692 164.692C114.281 164.692 96.9231 147.334 96.9231 125.922C96.9231 104.51 114.281 87.1532 135.692 87.1532C157.104 87.1532 174.462 104.51 174.462 125.922Z" stroke="#03261C" stroke-width="2" stroke-linejoin="round"/>
</svg>
