<svg width="301" height="302" viewBox="0 0 301 302" fill="none" xmlns="http://www.w3.org/2000/svg">
<g clip-path="url(#clip0_2_179)">
<path d="M26.0039 150.006C26.0013 150.337 26 150.668 26 151C26 219.869 81.6958 275.731 150.503 275.999L150.744 213.499C116.344 213.361 88.5 185.432 88.5 151C88.5 150.829 88.5007 150.659 88.5021 150.488L26.0039 150.006Z" fill="#F6F1ED" stroke="#03261C" stroke-width="2" stroke-linejoin="round"/>
<path d="M150.999 276.001C220.035 276.001 275.999 220.036 275.999 151.001C275.999 150.999 275.999 150.998 275.999 150.996H213.499V151.001C213.499 185.518 185.517 213.501 150.999 213.501C150.914 213.501 150.829 213.5 150.743 213.5L150.502 276C150.668 276 150.834 276.001 150.999 276.001Z" fill="#F6F1ED" stroke="#03261C" stroke-width="2" stroke-linejoin="round"/>
<path d="M151.754 88.5037C185.922 88.9081 213.497 116.731 213.499 150.995H275.999C275.997 82.4547 220.83 26.8001 152.478 26.0078L151.754 88.5037Z" fill="#F6F1ED" stroke="#03261C" stroke-width="2" stroke-linejoin="round"/>
<path d="M151 88.5C151.252 88.5 151.504 88.5015 151.755 88.5045L152.479 26.0086C151.986 26.0029 151.494 26 151 26C82.2961 26 26.538 81.428 26.0039 150.006L88.5021 150.489C88.7768 116.206 116.653 88.5 151 88.5Z" fill="#F6F1ED" stroke="#03261C" stroke-width="2" stroke-linejoin="round"/>
<path d="M151 213.5C185.518 213.5 213.5 185.518 213.5 151C213.5 150.998 213.5 150.997 213.5 150.995C213.498 116.732 185.923 88.9089 151.755 88.5045C151.504 88.5015 151.252 88.5 151 88.5C116.653 88.5 88.7768 116.206 88.5021 150.489C88.5007 150.659 88.5 150.829 88.5 151C88.5 185.432 116.344 213.361 150.744 213.499C150.829 213.5 150.915 213.5 151 213.5Z" fill="#FF6D2E" stroke="#03261C" stroke-width="2" stroke-linejoin="round"/>
<path d="M213.5 151C213.5 185.518 185.518 213.5 151 213.5C150.915 213.5 150.829 213.5 150.744 213.499M213.5 151C213.5 150.998 213.5 150.997 213.5 150.995M213.5 151V150.995M150.744 213.499L150.911 170.196M150.744 213.499C116.344 213.361 88.5 185.432 88.5 151C88.5 150.829 88.5007 150.659 88.5021 150.489M150.744 213.499L150.503 275.999M213.5 150.995H170.198M213.5 150.995C213.498 116.732 185.923 88.9089 151.755 88.5045M213.5 150.995H276M301 150.995H276M276 150.995C276 150.997 276 150.998 276 151C276 220.036 220.036 276 151 276C150.834 276 150.668 276 150.503 275.999M276 150.995C275.998 82.4555 220.831 26.8009 152.479 26.0086M150.406 301L150.503 275.999M150.503 275.999C81.6958 275.731 26 219.87 26 151C26 150.668 26.0013 150.337 26.0039 150.006M131.798 150.823L88.5021 150.489M88.5021 150.489C88.7768 116.206 116.653 88.5 151 88.5C151.252 88.5 151.504 88.5015 151.755 88.5045M88.5021 150.489L26.0039 150.006M1 149.813L26.0039 150.006M26.0039 150.006C26.538 81.428 82.296 26 151 26C151.494 26 151.986 26.0029 152.479 26.0086M151.254 131.796L151.755 88.5045M151.755 88.5045L152.479 26.0086M152.768 1L152.479 26.0086" stroke="#03261C" stroke-width="2" stroke-linejoin="round"/>
</g>
<defs>
<clipPath id="clip0_2_179">
<rect width="301" height="302" fill="white"/>
</clipPath>
</defs>
</svg>
