<svg width="252" height="250" viewBox="0 0 252 250" fill="none" xmlns="http://www.w3.org/2000/svg">
<path d="M154.775 145.57C137.962 111.051 125.728 76.2902 125.728 12C125.728 76.3075 113.542 111.063 96.7805 145.57H154.775Z" fill="#FF6D2E"/>
<path d="M126 13V237M126 13C126 77.3075 113.814 112.063 97.0526 146.57M126 13C126 77.2902 138.234 112.051 155.047 146.57M126 237H251C251 237 225.094 230.587 196.869 204.212M126 237H1C1 237 27.0088 230.658 55.2988 204.212M97.0526 146.57C91.9547 157.065 86.4335 166.386 80.7031 174.656M97.0526 146.57H155.047M155.047 146.57C160.158 157.063 165.692 166.384 171.434 174.656M196.869 204.212H55.2988M196.869 204.212C188.387 196.285 179.695 186.556 171.434 174.656M55.2988 204.212C63.7748 196.288 72.4556 186.56 80.7031 174.656M80.7031 174.656H171.434" stroke="#03261C" stroke-width="2" stroke-linejoin="round"/>
</svg>
