<svg width="256" height="256" viewBox="0 0 256 256" fill="none" xmlns="http://www.w3.org/2000/svg">
<path d="M217.095 217.095C167.889 266.302 88.1106 266.302 38.9045 217.095C-10.3015 167.889 -10.3015 88.1106 38.9045 38.9045C88.1106 -10.3015 167.889 -10.3015 217.095 38.9045C266.302 88.1106 266.302 167.889 217.095 217.095Z" stroke="#101010" stroke-width="2.39241" stroke-linejoin="round"/>
<circle cx="127.998" cy="128" r="88.2" fill="#FF6D2E" stroke="#101010" stroke-width="2.39241" stroke-linejoin="round"/>
<path d="M156.798 144.378C156.798 150.922 154.65 156.138 150.352 160.026C146.119 163.914 140.026 165.923 132.073 166.052V174.8H128.032V165.955C120.913 165.502 114.884 163.331 109.946 159.443C105.071 155.555 102.089 149.95 100.998 142.628H109.946C110.908 147.488 113.024 151.117 116.295 153.514C119.566 155.912 123.479 157.369 128.032 157.888V130.09L127.648 129.993C122.517 128.891 118.38 127.789 115.237 126.688C112.094 125.522 109.432 123.642 107.252 121.05C105.071 118.459 103.981 114.895 103.981 110.359C103.981 106.212 104.975 102.616 106.963 99.5701C109.016 96.4598 111.838 94.0947 115.429 92.4748C119.085 90.79 123.286 89.9477 128.032 89.9477V81.2H132.073V90.1421C137.91 90.8548 142.88 92.9608 146.985 96.4598C151.09 99.9589 153.656 104.916 154.682 111.331H146.119C145.286 107.378 143.618 104.365 141.117 102.292C138.679 100.153 135.665 98.7925 132.073 98.2094V122.8C137.397 123.966 141.694 125.198 144.965 126.493C148.3 127.725 151.09 129.766 153.335 132.617C155.644 135.468 156.798 139.388 156.798 144.378ZM112.832 109.581C112.832 113.21 114.114 115.899 116.68 117.649C119.246 119.333 123.03 120.759 128.032 121.925V97.9178H127.936C123.062 97.9178 119.31 98.9545 116.68 101.028C114.114 103.102 112.832 105.953 112.832 109.581ZM132.073 158.082C137.14 157.953 141.052 156.819 143.81 154.68C146.568 152.477 147.947 149.237 147.947 144.961C147.947 140.814 146.568 137.768 143.81 135.824C141.117 133.816 137.204 132.196 132.073 130.964V158.082Z" fill="#101010"/>
</svg>
