<svg width="257" height="38" viewBox="0 0 257 38" fill="none" xmlns="http://www.w3.org/2000/svg">
<path d="M11 19.0005H246" stroke="black" stroke-width="2" stroke-linejoin="round"/>
<path d="M253 18.9359L251.405 19.4282C238.13 23.5262 225.375 29.1346 213.393 36.1418L213 36.3718C215.082 24.8401 215.082 13.0317 213 1.5L213.393 1.72999C225.375 8.73723 238.13 14.3456 251.405 18.4436L253 18.9359Z" fill="black" stroke="black" stroke-width="2" stroke-linejoin="round"/>
<path d="M3 18.9359L4.59463 19.4282C17.8697 23.5262 30.6248 29.1346 42.6067 36.1418L43 36.3718C40.9183 24.8401 40.9183 13.0317 43 1.5L42.6067 1.72999C30.6248 8.73723 17.8697 14.3456 4.59463 18.4436L3 18.9359Z" fill="black" stroke="black" stroke-width="2" stroke-linejoin="round"/>
</svg>
