<svg width="252" height="251" viewBox="0 0 252 251" fill="none" xmlns="http://www.w3.org/2000/svg">
<path d="M19 71.4995L19 245" stroke="black" stroke-width="2" stroke-linejoin="round"/>
<path d="M69 21.5L246.5 21.5" stroke="black" stroke-width="2" stroke-linejoin="round"/>
<path d="M19 71.5C19 43.8858 41.3858 21.5 69 21.5" stroke="black" stroke-width="2" stroke-linejoin="round"/>
<path d="M251 21.4359L249.405 21.9282C236.13 26.0262 223.375 31.6346 211.393 38.6418L211 38.8718C213.082 27.3401 213.082 15.5317 211 4L211.393 4.22999C223.375 11.2372 236.13 16.8456 249.405 20.9436L251 21.4359Z" fill="black" stroke="black" stroke-width="2" stroke-linejoin="round"/>
<path d="M18.4352 250L17.9429 248.405C13.8449 235.13 8.23653 222.375 1.2293 210.393L0.999302 210C12.531 212.082 24.3394 212.082 35.8711 210L35.6411 210.393C28.6339 222.375 23.0255 235.13 18.9275 248.405L18.4352 250Z" fill="black" stroke="black" stroke-width="2" stroke-linejoin="round"/>
</svg>
