<svg width="252" height="252" viewBox="0 0 252 252" fill="none" xmlns="http://www.w3.org/2000/svg">
<path d="M222 18.5005H201.787C109.279 18.5005 34.2871 93.4928 34.2871 186" stroke="black" stroke-width="2" stroke-linejoin="round"/>
<path d="M251 18.4359L249.405 18.9282C236.13 23.0262 223.375 28.6346 211.393 35.6418L211 35.8718C213.082 24.3401 213.082 12.5317 211 0.999998L211.393 1.22999C223.375 8.23723 236.13 13.8456 249.405 17.9436L251 18.4359Z" fill="black" stroke="black" stroke-width="2" stroke-linejoin="round"/>
<path d="M66.5 218.5C66.5 236.449 51.9493 251 34 251C16.0507 251 1.5 236.449 1.5 218.5C1.5 200.55 16.0507 186 34 186C51.9493 186 66.5 200.55 66.5 218.5Z" fill="#F9F9F9" stroke="black" stroke-width="2" stroke-linecap="square" stroke-linejoin="round"/>
</svg>
