<svg width="276" height="276" viewBox="0 0 276 276" fill="none" xmlns="http://www.w3.org/2000/svg">
<path d="M263 13L13 263" stroke="black" stroke-width="2" stroke-linecap="square" stroke-linejoin="round" stroke-dasharray="20 20"/>
<path d="M1 263C1 256.373 6.37258 251 13 251C19.6274 251 25 256.373 25 263C25 269.627 19.6274 275 13 275C6.37258 275 1 269.627 1 263Z" fill="#F9F9F9" stroke="black" stroke-width="2" stroke-linecap="square" stroke-linejoin="round"/>
<path d="M251 13C251 6.37258 256.373 1 263 1C269.627 1 275 6.37258 275 13C275 19.6274 269.627 25 263 25C256.373 25 251 19.6274 251 13Z" fill="#F9F9F9" stroke="black" stroke-width="2" stroke-linecap="square" stroke-linejoin="round"/>
<path d="M126 138C126 131.373 131.373 126 138 126C144.627 126 150 131.373 150 138C150 144.627 144.627 150 138 150C131.373 150 126 144.627 126 138Z" fill="#F9F9F9" stroke="black" stroke-width="2" stroke-linecap="square" stroke-linejoin="round"/>
</svg>
