<svg width="276" height="279" viewBox="0 0 276 279" fill="none" xmlns="http://www.w3.org/2000/svg">
<path d="M13 266C75.5 266 75.5 16 138 16C200.5 16 200.5 266 263 266" stroke="black" stroke-width="2" stroke-linecap="square" stroke-linejoin="round" stroke-dasharray="20 20"/>
<path d="M1 266C1 259.373 6.37258 254 13 254C19.6274 254 25 259.373 25 266C25 272.627 19.6274 278 13 278C6.37258 278 1 272.627 1 266Z" fill="#F9F9F9" stroke="black" stroke-width="2" stroke-linecap="square" stroke-linejoin="round"/>
<path d="M127 13C127 6.37258 132.373 1 139 1C145.627 1 151 6.37258 151 13C151 19.6274 145.627 25 139 25C132.373 25 127 19.6274 127 13Z" fill="#F9F9F9" stroke="black" stroke-width="2" stroke-linecap="square" stroke-linejoin="round"/>
<path d="M251 266C251 259.373 256.373 254 263 254C269.627 254 275 259.373 275 266C275 272.627 269.627 278 263 278C256.373 278 251 272.627 251 266Z" fill="#F9F9F9" stroke="black" stroke-width="2" stroke-linecap="square" stroke-linejoin="round"/>
</svg>
