<svg width="276" height="277" viewBox="0 0 276 277" fill="none" xmlns="http://www.w3.org/2000/svg">
<path d="M263 138C263 113.277 255.669 89.1099 241.934 68.5538C228.199 47.9976 208.676 31.9761 185.835 22.5151C170.596 16.2028 154.336 13.0001 138 13M138 263C113.277 263 89.1099 255.669 68.5538 241.934C47.9976 228.198 31.9761 208.676 22.5151 185.835C16.2028 170.596 13.0001 154.336 13 138" stroke="black" stroke-width="2" stroke-linejoin="round"/>
<circle cx="262.999" cy="138" r="12" transform="rotate(-90 262.999 138)" fill="#F9F9F9" stroke="black" stroke-width="2" stroke-linecap="square" stroke-linejoin="round"/>
<circle cx="138.031" cy="13.0298" r="12" transform="rotate(179.858 138.031 13.0298)" fill="#F9F9F9" stroke="black" stroke-width="2" stroke-linecap="square" stroke-linejoin="round"/>
<circle cx="13.0731" cy="138.071" r="12" transform="rotate(89.6612 13.0731 138.071)" fill="#F9F9F9" stroke="black" stroke-width="2" stroke-linecap="square" stroke-linejoin="round"/>
<circle cx="138.017" cy="263.017" r="12" transform="rotate(0.0809014 138.017 263.017)" fill="#F9F9F9" stroke="black" stroke-width="2" stroke-linecap="square" stroke-linejoin="round"/>
</svg>
