<svg width="276" height="277" viewBox="0 0 276 277" fill="none" xmlns="http://www.w3.org/2000/svg">
<path d="M263 138C263 113.277 255.669 89.1099 241.934 68.5538C228.199 47.9976 208.676 31.9761 185.835 22.5151C162.995 13.0542 137.861 10.5787 113.614 15.4019C89.3661 20.225 67.0933 32.1301 49.6117 49.6117C32.1301 67.0932 20.225 89.3661 15.4019 113.614C10.5787 137.861 13.0542 162.995 22.5151 185.835C31.9761 208.676 47.9976 228.198 68.5538 241.934C89.1099 255.669 113.277 263 138 263" stroke="black" stroke-width="2" stroke-linejoin="round"/>
<circle cx="263.001" cy="138" r="12" transform="rotate(-90 263.001 138)" fill="#F9F9F9" stroke="black" stroke-width="2" stroke-linecap="square" stroke-linejoin="round"/>
<circle cx="138.028" cy="13.0298" r="12" transform="rotate(179.858 138.028 13.0298)" fill="#F9F9F9" stroke="black" stroke-width="2" stroke-linecap="square" stroke-linejoin="round"/>
<circle cx="13.0722" cy="138.071" r="12" transform="rotate(89.6612 13.0722 138.071)" fill="#F9F9F9" stroke="black" stroke-width="2" stroke-linecap="square" stroke-linejoin="round"/>
<circle cx="138.017" cy="263.017" r="12" transform="rotate(0.0809014 138.017 263.017)" fill="#F9F9F9" stroke="black" stroke-width="2" stroke-linecap="square" stroke-linejoin="round"/>
</svg>
