<svg width="276" height="277" viewBox="0 0 276 277" fill="none" xmlns="http://www.w3.org/2000/svg">
<path d="M138.001 263C162.724 263 186.891 255.669 207.447 241.934C228.003 228.199 244.025 208.676 253.486 185.835C262.947 162.995 265.422 137.861 260.599 113.614C255.776 89.3661 243.871 67.0933 226.389 49.6117C208.908 32.1301 186.635 20.225 162.387 15.4019C138.14 10.5787 113.006 13.0542 90.1656 22.5151C67.3248 31.9761 47.8025 47.9976 34.0673 68.5538C20.3321 89.1099 13.001 113.277 13.001 138L13.001 263" stroke="black" stroke-width="2" stroke-linejoin="round"/>
<circle cx="263" cy="138" r="12" transform="rotate(-90 263 138)" fill="#F9F9F9" stroke="black" stroke-width="2" stroke-linecap="square" stroke-linejoin="round"/>
<circle cx="138.029" cy="13.0298" r="12" transform="rotate(179.858 138.029 13.0298)" fill="#F9F9F9" stroke="black" stroke-width="2" stroke-linecap="square" stroke-linejoin="round"/>
<circle cx="13.0712" cy="138.071" r="12" transform="rotate(89.6612 13.0712 138.071)" fill="#F9F9F9" stroke="black" stroke-width="2" stroke-linecap="square" stroke-linejoin="round"/>
<circle cx="138.018" cy="263.017" r="12" transform="rotate(0.0809014 138.018 263.017)" fill="#F9F9F9" stroke="black" stroke-width="2" stroke-linecap="square" stroke-linejoin="round"/>
<circle cx="13.002" cy="263" r="12" fill="#F9F9F9" stroke="black" stroke-width="2" stroke-linecap="square" stroke-linejoin="round"/>
</svg>
