<svg width="277" height="277" viewBox="0 0 277 277" fill="none" xmlns="http://www.w3.org/2000/svg">
<path d="M13.0008 12.9999L13.0009 137C13.0009 161.723 20.332 186.89 34.0671 207.446C47.8023 228.002 67.3247 244.024 90.1654 253.485C113.006 262.946 138.14 265.421 162.387 260.598C186.635 255.775 208.908 243.87 226.389 226.388C243.871 208.907 255.776 186.634 260.599 162.386C262.27 153.986 263.065 145.48 262.997 137L262.997 12.9999" stroke="black" stroke-width="2" stroke-linejoin="round"/>
<circle cx="262.999" cy="138" r="12" transform="rotate(-90 262.999 138)" fill="#F9F9F9" stroke="black" stroke-width="2" stroke-linecap="square" stroke-linejoin="round"/>
<circle cx="263.028" cy="13.0298" r="12" transform="rotate(179.858 263.028 13.0298)" fill="#F9F9F9" stroke="black" stroke-width="2" stroke-linecap="square" stroke-linejoin="round"/>
<circle cx="13.0712" cy="138.071" r="12" transform="rotate(89.6612 13.0712 138.071)" fill="#F9F9F9" stroke="black" stroke-width="2" stroke-linecap="square" stroke-linejoin="round"/>
<circle cx="138.017" cy="263.017" r="12" transform="rotate(0.0809014 138.017 263.017)" fill="#F9F9F9" stroke="black" stroke-width="2" stroke-linecap="square" stroke-linejoin="round"/>
<circle cx="13.0172" cy="13.0169" r="12" transform="rotate(0.0809014 13.0172 13.0169)" fill="#F9F9F9" stroke="black" stroke-width="2" stroke-linecap="square" stroke-linejoin="round"/>
</svg>
