<svg width="252" height="251" viewBox="0 0 252 251" fill="none" xmlns="http://www.w3.org/2000/svg">
<path d="M183.167 16.7461C183.167 19.6916 185.555 22.0794 188.5 22.0794C191.446 22.0794 193.833 19.6916 193.833 16.7461C193.833 13.8006 191.446 11.4128 188.5 11.4128C185.555 11.4128 183.167 13.8006 183.167 16.7461ZM58.1665 16.7462C58.1665 19.6917 60.5543 22.0796 63.4998 22.0796C66.4453 22.0796 68.8332 19.6917 68.8332 16.7462C68.8332 13.8007 66.4453 11.4129 63.4998 11.4129C60.5543 11.4129 58.1665 13.8007 58.1665 16.7462ZM188 17.6121C211.64 31.2604 230.115 52.3277 240.561 77.5465L242.409 76.7811C231.794 51.1556 213.021 29.7485 189 15.8801L188 17.6121ZM240.561 77.5465C251.007 102.765 252.84 130.726 245.775 157.093L247.707 157.61C254.886 130.819 253.023 102.407 242.409 76.7811L240.561 77.5465ZM245.775 157.093C238.71 183.459 223.142 206.758 201.487 223.375L202.704 224.962C224.709 208.077 240.528 184.402 247.707 157.61L245.775 157.093ZM201.487 223.375C179.831 239.992 153.297 248.999 126 248.999V250.999C153.737 250.999 180.699 241.847 202.704 224.962L201.487 223.375ZM126 248.999C98.7035 248.999 72.1697 239.992 50.5138 223.375L49.2962 224.962C71.3014 241.847 98.2633 250.999 126 250.999V248.999ZM50.5138 223.375C28.8579 206.758 13.2902 183.46 6.22529 157.093L4.29344 157.611C11.4723 184.402 27.2911 208.077 49.2962 224.962L50.5138 223.375ZM6.22529 157.093C-0.839637 130.727 0.992972 102.766 11.4389 77.5467L9.59113 76.7814C-1.02327 102.407 -2.88544 130.819 4.29344 157.611L6.22529 157.093ZM11.4389 77.5467C21.8848 52.3279 40.3603 31.2606 63.9998 17.6123L62.9998 15.8802C38.979 29.7487 20.2055 51.1558 9.59113 76.7814L11.4389 77.5467Z" fill="black"/>
</svg>
