<svg width="252" height="251" viewBox="0 0 252 251" fill="none" xmlns="http://www.w3.org/2000/svg">
<path d="M209.055 36.6113C209.055 39.5569 211.443 41.9447 214.388 41.9447C217.334 41.9447 219.722 39.5569 219.722 36.6113C219.722 33.6658 217.334 31.278 214.388 31.278C211.443 31.278 209.055 33.6658 209.055 36.6113ZM32.2784 36.6113C32.2784 39.5568 34.6662 41.9447 37.6117 41.9447C40.5573 41.9447 42.9451 39.5568 42.9451 36.6113C42.9451 33.6658 40.5573 31.278 37.6117 31.278C34.6662 31.278 32.2784 33.6658 32.2784 36.6113ZM213.681 37.3185C231.023 54.6602 242.833 76.7548 247.617 100.808L249.579 100.418C244.717 75.9767 232.717 53.5257 215.096 35.9042L213.681 37.3185ZM247.617 100.808C252.402 124.862 249.946 149.794 240.561 172.452L242.409 173.218C251.946 150.194 254.441 124.86 249.579 100.418L247.617 100.808ZM240.561 172.452C231.176 195.111 215.282 214.477 194.891 228.102L196.002 229.765C216.723 215.92 232.872 196.241 242.409 173.218L240.561 172.452ZM194.891 228.102C174.499 241.727 150.525 249 126 249V251C150.92 251 175.281 243.61 196.002 229.765L194.891 228.102ZM126 249C101.475 249 77.501 241.727 57.1093 228.102L55.9982 229.765C76.7188 243.61 101.08 251 126 251V249ZM57.1093 228.102C36.7176 214.477 20.8242 195.11 11.439 172.452L9.59122 173.218C19.1279 196.241 35.2776 215.92 55.9982 229.765L57.1093 228.102ZM11.439 172.452C2.05372 149.794 -0.401886 124.862 4.38269 100.808L2.42112 100.418C-2.44063 124.86 0.0545872 150.194 9.59122 173.218L11.439 172.452ZM4.38269 100.808C9.16726 76.7548 20.9771 54.6601 38.3188 37.3184L36.9046 35.9042C19.2832 53.5256 7.28286 75.9767 2.42112 100.418L4.38269 100.808Z" fill="black"/>
</svg>
