<svg width="252" height="251" viewBox="0 0 252 251" fill="none" xmlns="http://www.w3.org/2000/svg">
<path d="M228.92 62.5C228.92 65.4455 231.308 67.8333 234.253 67.8333C237.199 67.8333 239.586 65.4455 239.586 62.5C239.586 59.5545 237.199 57.1667 234.253 57.1667C231.308 57.1667 228.92 59.5545 228.92 62.5ZM12.4135 62.5C12.4135 65.4455 14.8013 67.8334 17.7468 67.8334C20.6923 67.8334 23.0802 65.4455 23.0802 62.5C23.0802 59.5545 20.6923 57.1667 17.7468 57.1667C14.8013 57.1667 12.4135 59.5545 12.4135 62.5ZM233.387 63C244.27 81.8504 250 103.233 250 125H252C252 102.882 246.178 81.1544 235.119 62L233.387 63ZM250 125C250 146.767 244.27 168.15 233.387 187L235.119 188C246.178 168.846 252 147.118 252 125H250ZM233.387 187C222.504 205.85 206.85 221.504 188 232.387L189 234.119C208.154 223.06 224.06 207.154 235.119 188L233.387 187ZM188 232.387C169.15 243.27 147.767 249 126 249V251C148.118 251 169.846 245.178 189 234.119L188 232.387ZM126 249C104.233 249 82.8504 243.27 64 232.387L63 234.119C82.1544 245.178 103.882 251 126 251V249ZM64 232.387C45.1496 221.504 29.4961 205.85 18.6129 187L16.8808 188C27.9396 207.154 43.8456 223.06 63 234.119L64 232.387ZM18.6129 187C7.72958 168.15 2 146.767 2 125H0C2.08616e-06 147.118 5.82199 168.846 16.8808 188L18.6129 187ZM2 125C2 103.233 7.72957 81.8504 18.6128 63L16.8808 62C5.82198 81.1545 -2.14577e-06 102.882 0 125H2Z" fill="black"/>
</svg>
