<svg width="254" height="251" viewBox="0 0 254 251" fill="none" xmlns="http://www.w3.org/2000/svg">
<path d="M242.407 92.6485C242.407 95.594 244.795 97.9818 247.741 97.9818C250.686 97.9818 253.074 95.594 253.074 92.6485C253.074 89.703 250.686 87.3152 247.741 87.3152C244.795 87.3152 242.407 89.703 242.407 92.6485ZM0.925956 92.6484C0.925956 95.594 3.31377 97.9818 6.25929 97.9818C9.20481 97.9818 11.5926 95.594 11.5926 92.6484C11.5926 89.7029 9.20481 87.3151 6.25929 87.3151C3.31377 87.3151 0.925956 89.7029 0.925956 92.6484ZM246.775 92.9073C251.698 111.279 252.328 130.537 248.617 149.192L250.579 149.582C254.349 130.627 253.709 111.058 248.707 92.3897L246.775 92.9073ZM248.617 149.192C244.907 167.847 236.954 185.398 225.376 200.487L226.962 201.705C238.728 186.372 246.808 168.538 250.579 149.582L248.617 149.192ZM225.376 200.487C213.797 215.577 198.902 227.801 181.844 236.213L182.728 238.007C200.062 229.459 215.197 217.038 226.962 201.705L225.376 200.487ZM181.844 236.213C164.785 244.625 146.02 249.001 127 249.001V251.001C146.327 251.001 165.395 246.555 182.728 238.007L181.844 236.213ZM127 249.001C107.98 249.001 89.2147 244.625 72.1562 236.213L71.2716 238.007C88.6053 246.555 107.673 251.001 127 251.001V249.001ZM72.1562 236.213C55.0976 227.801 40.2028 215.577 28.6242 200.487L27.0375 201.705C38.8029 217.038 53.9379 229.459 71.2716 238.007L72.1562 236.213ZM28.6242 200.487C17.0455 185.398 9.09324 167.847 5.38262 149.192L3.42105 149.582C7.19152 168.538 15.272 186.372 27.0375 201.705L28.6242 200.487ZM5.38262 149.192C1.67199 130.537 2.30245 111.279 7.22521 92.9073L5.29336 92.3896C0.2912 111.058 -0.349425 130.627 3.42105 149.582L5.38262 149.192Z" fill="black"/>
</svg>
