<svg width="262" height="251" viewBox="0 0 262 251" fill="none" xmlns="http://www.w3.org/2000/svg">
<path d="M250.667 125C250.667 127.946 253.054 130.333 256 130.333C258.946 130.333 261.333 127.946 261.333 125C261.333 122.054 258.946 119.667 256 119.667C253.054 119.667 250.667 122.054 250.667 125ZM0.666667 125C0.666667 127.946 3.05448 130.333 6 130.333C8.94552 130.333 11.3333 127.946 11.3333 125C11.3333 122.054 8.94552 119.667 6 119.667C3.05448 119.667 0.666667 122.054 0.666667 125ZM255 125C255 157.887 241.936 189.427 218.681 212.681L220.095 214.095C243.725 190.466 257 158.417 257 125H255ZM218.681 212.681C195.427 235.936 163.887 249 131 249V251C164.417 251 196.466 237.725 220.095 214.095L218.681 212.681ZM131 249C98.1132 249 66.5733 235.936 43.3188 212.681L41.9046 214.095C65.5341 237.725 97.5827 251 131 251V249ZM43.3188 212.681C20.0643 189.427 7.00001 157.887 7 125L5 125C5.00001 158.417 18.275 190.466 41.9046 214.095L43.3188 212.681Z" fill="black"/>
</svg>
