<svg width="250" height="251" viewBox="0 0 250 251" fill="none" xmlns="http://www.w3.org/2000/svg">
<path d="M227.92 187.5C227.92 190.446 230.308 192.833 233.253 192.833C236.199 192.833 238.587 190.446 238.587 187.5C238.587 184.554 236.199 182.167 233.253 182.167C230.308 182.167 227.92 184.554 227.92 187.5ZM125 250V251V250ZM11.4137 187.5C11.4137 190.446 13.8016 192.833 16.7471 192.833C19.6926 192.833 22.0804 190.446 22.0804 187.5C22.0804 184.554 19.6926 182.167 16.7471 182.167C13.8016 182.167 11.4137 184.554 11.4137 187.5ZM232.387 187C221.504 205.85 205.851 221.504 187 232.387L188 234.119C207.155 223.06 223.061 207.154 234.119 188L232.387 187ZM187 232.387C168.15 243.27 146.767 249 125 249V251C147.118 251 168.846 245.178 188 234.119L187 232.387ZM125 249C103.234 249 81.8506 243.27 63.0002 232.387L62.0002 234.119C81.1547 245.178 102.883 251 125 251V249ZM63.0002 232.387C44.1499 221.504 28.4964 205.85 17.6131 187L15.881 188C26.9399 207.154 42.8458 223.06 62.0002 234.119L63.0002 232.387Z" fill="black"/>
</svg>
