<svg width="256" height="256" viewBox="0 0 256 256" fill="none" xmlns="http://www.w3.org/2000/svg">
<path d="M246 250.001L236 244.228V255.775L246 250.001ZM6 10.001L0.226501 20.001H11.7735L6 10.001ZM6 250.001H5C5 250.266 5.10536 250.521 5.29289 250.708C5.48043 250.896 5.73478 251.001 6 251.001V250.001ZM237 249.001H6V251.001H237V249.001ZM5 19.001L5 250.001H7L7 19.001H5Z" fill="black"/>
<path d="M181 250C181 153.35 102.65 74.9998 6 74.9998" stroke="black" stroke-width="2" stroke-linejoin="round" stroke-dasharray="2.5 10"/>
<path d="M211 44.4993L199.847 47.4879L208.012 55.6528L211 44.4993ZM203.929 50.1561L4.79289 249.292L6.20711 250.706L205.343 51.5703L203.929 50.1561Z" fill="black"/>
</svg>
