<svg width="250" height="250" viewBox="0 0 250 250" fill="none" xmlns="http://www.w3.org/2000/svg">
<path d="M124.911 0L119.137 10H130.684L124.911 0ZM250 216L244.224 206.001L238.453 216.003L250 216ZM0 215.897L11.547 215.899L5.77565 205.898L0 215.897ZM124.911 107.854H123.911C123.911 108.12 124.016 108.374 124.204 108.562C124.392 108.749 124.647 108.855 124.913 108.854L124.911 107.854ZM8.29501 212.265L85.5202 167.701L84.5205 165.969L7.29538 210.532L8.29501 212.265ZM164.458 167.792L241.705 212.368L242.705 210.636L165.458 166.059L164.458 167.792ZM124.913 108.854C124.944 108.854 124.976 108.854 125.008 108.854V106.854C124.974 106.854 124.941 106.854 124.908 106.854L124.913 108.854ZM123.911 9V107.854H125.911V9H123.911Z" fill="black"/>
</svg>
