<svg width="250" height="250" viewBox="0 0 250 250" fill="none" xmlns="http://www.w3.org/2000/svg">
<path d="M125 30.0242L119.227 40.0242H130.774L125 30.0242ZM233.254 217.524L227.48 207.524L221.707 217.524H233.254ZM16.7471 217.524H28.2941L22.5206 207.524L16.7471 217.524ZM225.959 212.158L125.5 154.158L124.5 155.89L224.959 213.89L225.959 212.158ZM25.0413 213.89L125.5 155.89L124.5 154.158L24.0413 212.158L25.0413 213.89ZM124 39.0242V155.024H126V39.0242H124ZM180.75 121.682L124.5 154.158L125.5 155.89L181.75 123.414L180.75 121.682ZM126 219.976V155.024H124V219.976H126ZM68.2503 123.414L124.5 155.89L125.5 154.158L69.2503 121.682L68.2503 123.414Z" fill="black"/>
</svg>
