<svg width="250" height="250" viewBox="0 0 250 250" fill="none" xmlns="http://www.w3.org/2000/svg">
<path d="M250 125.001L240 119.228V130.775L250 125.001ZM124.507 250L130.328 240.028L118.781 239.973L124.507 250ZM0.00390625 124.016L9.94887 129.884L10.058 118.337L0.00390625 124.016ZM126.476 0.00976562L120.561 9.92688L132.107 10.0906L126.476 0.00976562ZM161 126.001H241V124.001H161V126.001ZM123.928 160.996L123.55 240.996L125.55 241.005L125.928 161.006L123.928 160.996ZM89.0102 123.858L9.01296 123.101L8.99405 125.101L88.9912 125.857L89.0102 123.858ZM126.213 89.0167L127.348 9.02304L125.348 8.99468L124.213 88.9883L126.213 89.0167Z" fill="black"/>
</svg>
