<svg width="251" height="252" viewBox="0 0 251 252" fill="none" xmlns="http://www.w3.org/2000/svg">
<path d="M162.001 126.001L172.001 131.775V120.228L162.001 126.001ZM125.929 162.001L120.108 171.974L131.655 172.028L125.929 162.001ZM90.0017 125.857L80.0567 119.99L79.9475 131.536L90.0017 125.857ZM126.214 90.0025L132.129 80.0854L120.583 79.9216L126.214 90.0025ZM171.001 127.001H251.001V125.001H171.001V127.001ZM124.886 170.996L124.508 250.996L126.508 251.005L126.886 171.006L124.886 170.996ZM81.0115 124.772L1.01434 124.016L0.995428 126.016L80.9926 126.772L81.0115 124.772ZM127.342 81.0176L128.476 1.02395L126.477 0.995584L125.342 80.9892L127.342 81.0176Z" fill="black"/>
</svg>
