<svg width="250" height="257" viewBox="0 0 250 257" fill="none" xmlns="http://www.w3.org/2000/svg">
<path d="M250 91.3959L238.705 88.9992L242.277 99.9798L250 91.3959ZM202.247 238.487L201.046 227.002L191.701 233.784L202.247 238.487ZM47.7691 238.5L58.3151 233.798L48.9695 227.016L47.7691 238.5ZM0 91.3876L7.72342 99.9715L11.2955 88.9909L0 91.3876ZM125.013 0.500244L119.239 10.5002H130.786L125.013 0.500244ZM105.904 156.686L52.2456 230.629L53.8643 231.804L107.523 157.86L105.904 156.686ZM142.323 157.612L196.152 231.79L197.77 230.615L143.942 156.437L142.323 157.612ZM241.132 93.2292L154.279 121.484L154.897 123.385L241.751 95.1311L241.132 93.2292ZM126.013 100.501V9.50024H124.013V100.501H126.013ZM95.2703 121.328L8.86788 93.2209L8.24917 95.1228L94.6516 123.23L95.2703 121.328Z" fill="black"/>
</svg>
