<svg width="252" height="257" viewBox="0 0 252 257" fill="none" xmlns="http://www.w3.org/2000/svg">
<path d="M144.132 157.025L145.333 168.509L154.678 161.727L144.132 157.025ZM107.713 157.273L97.1674 161.976L106.513 168.757L107.713 157.273ZM155.588 122.435L166.883 124.831L163.311 113.851L155.588 122.435ZM126.013 100.501L131.786 90.5014H120.239L126.013 100.501ZM95.961 122.279L88.2375 113.696L84.6654 124.676L95.961 122.279ZM101.618 163.97L47.9597 237.913L49.5784 239.088L103.237 165.144L101.618 163.97ZM148.609 164.896L202.438 239.074L204.056 237.9L150.227 163.722L148.609 164.896ZM250.691 90.445L163.837 118.699L164.456 120.601L251.309 92.3469L250.691 90.445ZM127.013 91.5014V0.500244H125.013V91.5014H127.013ZM87.7118 118.544L1.30935 90.4367L0.690647 92.3386L87.0931 120.446L87.7118 118.544Z" fill="black"/>
</svg>
