<svg width="250" height="250" viewBox="0 0 250 250" fill="none" xmlns="http://www.w3.org/2000/svg">
<path d="M124.802 250L130.575 240H119.028L124.802 250ZM233.257 62.6297L221.71 62.6297L227.484 72.6297L233.257 62.6297ZM16.5011 62.7193L22.2746 72.7193L28.0481 62.7193H16.5011ZM124.801 0L119.028 10H130.575L124.801 0ZM233.257 187.37L227.484 177.37L221.71 187.37H233.257ZM16.501 187.281H28.048L22.2745 177.281L16.501 187.281ZM124.802 153.497L124.817 152.497C124.549 152.493 124.291 152.596 124.1 152.784C123.909 152.972 123.802 153.229 123.802 153.497H124.802ZM124.801 97.0036H123.801C123.801 97.2715 123.909 97.5282 124.1 97.7162C124.291 97.9041 124.549 98.0076 124.817 98.0034L124.801 97.0036ZM149.322 140.065L224.963 183.736L225.963 182.004L150.322 138.333L149.322 140.065ZM150.105 111.792L225.963 67.9958L224.963 66.2637L149.105 110.06L150.105 111.792ZM124.786 154.496C124.941 154.499 125.096 154.5 125.251 154.5V152.5C125.106 152.5 124.962 152.499 124.817 152.497L124.786 154.496ZM125.802 241V153.497H123.802V241H125.802ZM24.7952 183.647L100.96 139.673L99.9604 137.941L23.7952 181.915L24.7952 183.647ZM23.7954 68.0853L100.171 112.181L101.171 110.449L24.7954 66.3532L23.7954 68.0853ZM124.817 98.0034C124.961 98.0012 125.106 98.0001 125.251 98.0001V96.0001C125.096 96.0001 124.941 96.0013 124.786 96.0037L124.817 98.0034ZM123.801 9V97.0036H125.801V9H123.801Z" fill="black"/>
</svg>
