<svg width="250" height="250" viewBox="0 0 250 250" fill="none" xmlns="http://www.w3.org/2000/svg">
<path d="M149.605 110.926H161.152L155.378 100.926L149.605 110.926ZM149.822 139.199L155.595 149.199L161.369 139.199H149.822ZM124.801 153.497L119.027 163.497H130.574L124.801 153.497ZM100.459 138.807H88.9124L94.6859 148.807L100.459 138.807ZM100.67 111.315L94.897 101.315L89.1235 111.315H100.67ZM124.801 97.0036L130.574 87.0036H119.027L124.801 97.0036ZM157.116 144.565L232.756 188.236L233.756 186.504L158.116 142.833L157.116 144.565ZM157.899 107.292L233.756 63.4958L232.756 61.7637L156.899 105.56L157.899 107.292ZM125.801 250V162.497H123.801V250H125.801ZM17 188.147L93.1652 144.173L92.1652 142.441L16 186.415L17 188.147ZM16.0002 63.5853L92.3763 107.681L93.3763 105.949L17.0002 61.8532L16.0002 63.5853ZM123.801 0V88.0036H125.801V0H123.801Z" fill="black"/>
</svg>
