<svg width="250" height="250" viewBox="0 0 250 250" fill="none" xmlns="http://www.w3.org/2000/svg">
<path d="M250 125L240 119.227V130.774L250 125ZM125 250L130.774 240H119.227L125 250ZM0 125L10 130.774V119.227L0 125ZM125 0L119.227 10H130.774L125 0ZM213.388 36.6117L202.235 39.6003L210.4 47.7652L213.388 36.6117ZM36.6117 213.388L47.7652 210.4L39.6003 202.235L36.6117 213.388ZM36.6117 36.6117L39.6003 47.7652L47.7652 39.6003L36.6117 36.6117ZM213.388 213.388L210.4 202.235L202.235 210.4L213.388 213.388ZM124 9V125H126V9H124ZM124 125V241H126V125H124ZM125 126H241V124H125V126ZM9 126H125V124H9V126ZM125.707 125.707L207.732 43.6827L206.317 42.2685L124.293 124.293L125.707 125.707ZM124.293 124.293L42.2685 206.317L43.6827 207.732L125.707 125.707L124.293 124.293ZM125.707 124.293L43.6827 42.2685L42.2685 43.6827L124.293 125.707L125.707 124.293ZM124.293 125.707L206.317 207.732L207.732 206.317L125.707 124.293L124.293 125.707Z" fill="black"/>
</svg>
