<svg width="250" height="250" viewBox="0 0 250 250" fill="none" xmlns="http://www.w3.org/2000/svg">
<path d="M125 0L119.227 10H130.774L125 0ZM213.389 36.6113L202.235 39.5999L210.4 47.7649L213.389 36.6113ZM250 125L240 119.227V130.774L250 125ZM213.389 213.389L210.4 202.235L202.235 210.4L213.389 213.389ZM125 250L130.774 240H119.227L125 250ZM36.6113 213.389L47.7649 210.4L39.5999 202.235L36.6113 213.389ZM0 125L10 130.774V119.227L0 125ZM36.6113 36.6113L39.5999 47.7649L47.7649 39.5999L36.6113 36.6113ZM124 9V100H126V9H124ZM206.318 42.2682L141.971 106.615L143.385 108.029L207.732 43.6824L206.318 42.2682ZM241 124H150V126H241V124ZM207.732 206.318L143.385 141.971L141.971 143.385L206.318 207.732L207.732 206.318ZM126 241V150H124V241H126ZM43.6824 207.732L108.029 143.385L106.615 141.971L42.2682 206.318L43.6824 207.732ZM9 126H100V124H9V126ZM42.2682 43.6824L106.615 108.029L108.029 106.615L43.6824 42.2682L42.2682 43.6824Z" fill="black"/>
</svg>
