<svg width="250" height="250" viewBox="0 0 250 250" fill="none" xmlns="http://www.w3.org/2000/svg">
<path d="M125 100L130.774 90H119.227L125 100ZM142.678 107.322L153.832 104.333L145.667 96.1685L142.678 107.322ZM150 125L160 130.774V119.227L150 125ZM142.678 142.678L145.667 153.832L153.832 145.667L142.678 142.678ZM125 150L119.227 160H130.774L125 150ZM107.322 142.678L96.1685 145.667L104.333 153.832L107.322 142.678ZM100 125L90 119.227V130.774L100 125ZM107.322 107.322L104.333 96.1685L96.1685 104.333L107.322 107.322ZM124 0V91H126V0H124ZM212.682 35.9042L148.335 100.251L149.749 101.665L214.096 37.3185L212.682 35.9042ZM250 124H159V126H250V124ZM214.096 212.682L149.749 148.335L148.335 149.749L212.682 214.096L214.096 212.682ZM126 250V159H124V250H126ZM37.3185 214.096L101.665 149.749L100.251 148.335L35.9042 212.682L37.3185 214.096ZM0 126H91V124H0V126ZM35.9042 37.3185L100.251 101.665L101.665 100.251L37.3185 35.9042L35.9042 37.3185Z" fill="black"/>
</svg>
