<svg width="258" height="251" viewBox="0 0 258 251" fill="none" xmlns="http://www.w3.org/2000/svg">
<path d="M4 251.001L11.6021 242.309L0.274057 240.072L4 251.001ZM254 251.001L257.58 240.023L246.283 242.412L254 251.001ZM6.7271 242.356C15.229 199.505 27.8594 139.361 47.4256 89.94C57.2098 65.2266 68.7027 43.2632 82.2319 27.4938C95.7563 11.7302 111.228 2.25073 129 2.25073V0.250732C110.435 0.250732 94.4566 10.1736 80.714 26.1915C66.9765 42.2037 55.3858 64.4008 45.566 89.2037C25.9243 138.815 13.2649 199.127 4.76534 241.967L6.7271 242.356ZM129 2.25073C145.184 2.25073 160.36 14.1829 174.237 33.252C188.08 52.2741 200.442 78.1426 211.044 105.459C232.244 160.079 246.324 220.253 251.161 242.406L253.115 241.979C248.272 219.799 234.166 159.503 212.908 104.735C202.282 77.3572 189.847 51.3027 175.855 32.0752C161.896 12.8947 146.199 0.250732 129 0.250732V2.25073Z" fill="black"/>
</svg>
