<svg width="250" height="250" viewBox="0 0 250 250" fill="none" xmlns="http://www.w3.org/2000/svg">
<path d="M108.922 74.7197L97.6721 72.1185L101.045 83.1621L108.922 74.7197ZM184.285 167.878L192.162 159.435L180.912 156.834L184.285 167.878ZM65.9265 186.564L69.2988 197.607L77.1767 189.165L65.9265 186.564ZM30.167 211.134C15.3738 154.773 46.636 97.171 100.636 78.2948L99.9764 76.4068C44.9975 95.6251 13.1729 154.266 28.2325 211.642L30.167 211.134ZM105.524 31.4658C161.731 46.8355 195.985 102.711 185.331 158.914L187.296 159.287C198.143 102.064 163.271 45.1831 106.052 29.5366L105.524 31.4658ZM223.443 186.561C182.029 227.553 116.513 229.28 73.1655 191.952L71.8604 193.468C115.993 231.472 182.69 229.713 224.85 187.983L223.443 186.561Z" fill="black"/>
</svg>
