<svg width="252" height="252" viewBox="0 0 252 252" fill="none" xmlns="http://www.w3.org/2000/svg">
<path d="M91.0202 126.769L94.5415 115.772L83.2572 118.221L91.0202 126.769ZM125.232 91.0212L136.229 94.5425L133.78 83.2582L125.232 91.0212ZM160.98 125.234L157.458 136.231L168.743 133.782L160.98 125.234ZM126.768 160.981L115.771 157.459L118.219 168.744L126.768 160.981ZM90.096 117.799C81.2105 66.1908 113.111 15.4924 164.638 1.96822L164.131 0.0337378C111.589 13.8243 79.0653 65.5183 88.125 118.139L90.096 117.799ZM134.202 90.097C185.81 81.2114 236.509 113.112 250.033 164.639L251.967 164.131C238.177 111.589 186.483 79.0662 133.862 88.126L134.202 90.097ZM161.904 134.203C170.789 185.812 138.889 236.51 87.3617 250.034L87.8695 251.969C140.411 238.178 172.935 186.484 163.875 133.863L161.904 134.203ZM117.798 161.905C66.1897 170.79 15.4914 138.89 1.96724 87.3623L0.0327609 87.87C13.8232 140.412 65.5172 172.935 118.138 163.876L117.798 161.905Z" fill="black"/>
</svg>
