<svg width="264" height="264" viewBox="0 0 264 264" fill="none" xmlns="http://www.w3.org/2000/svg">
<path d="M87.1918 137.668L90.6752 126.659L79.3994 129.147L87.1918 137.668ZM108.384 97.8314L119.931 97.7423L114.08 87.7871L108.384 97.8314ZM152.82 105.676L156.473 116.63L164.133 107.99L152.82 105.676ZM159.091 150.361L149.802 157.22L160.386 161.835L159.091 150.361ZM118.53 170.134L109.136 163.419L108.018 174.912L118.53 170.134ZM86.2365 128.701C76.1245 72.3122 110.877 16.742 167.169 1.96724L166.661 0.0327613C109.35 15.075 73.9737 71.6488 84.2679 129.054L86.2365 128.701ZM116.618 94.1517C167.122 67.1096 230.711 82.9891 262.158 131.96L263.841 130.879C231.825 81.0218 167.088 64.859 115.674 92.3885L116.618 94.1517ZM158.864 112.369C200.189 152.045 204.737 217.429 167.881 262.47L169.429 263.736C206.952 217.88 202.319 151.317 160.249 110.927L158.864 112.369ZM154.593 158.178C129.629 209.741 68.8503 234.271 14.6251 213.136L13.8988 215C69.1058 236.517 130.979 211.542 156.393 159.049L154.593 158.178ZM109.706 168.271C52.953 160.463 10.8416 110.24 14.1851 52.1376L12.1884 52.0227C8.78439 111.177 51.6574 162.304 109.434 170.253L109.706 168.271Z" fill="black"/>
</svg>
