<svg width="252" height="250" viewBox="0 0 252 250" fill="none" xmlns="http://www.w3.org/2000/svg">
<path d="M71.6105 120.921L77.7853 111.163L66.2478 110.695L71.6105 120.921ZM102.283 75.826L113.821 76.2949L108.458 66.0687L102.283 75.826ZM156.673 79.8418L162.035 90.068L168.21 80.3107L156.673 79.8418ZM180.39 128.952L174.215 138.71L185.752 139.179L180.39 128.952ZM149.717 174.047L138.18 173.578L143.542 183.805L149.717 174.047ZM95.3275 170.032L89.9648 159.805L83.79 169.563L95.3275 170.032ZM72.9727 112.009C77.4976 56.5746 123.863 13.0007 180.39 13.0007V11.0007C122.811 11.0007 75.5881 55.3846 70.9793 111.846L72.9727 112.009ZM110.682 72.5496C160.952 48.7513 221.871 67.118 250.134 116.071L251.866 115.071C223.077 65.2068 161.028 46.5026 109.827 70.7419L110.682 72.5496ZM163.71 85.4776C209.454 117.113 224.008 179.054 195.745 228.007L197.477 229.007C226.266 179.143 211.44 116.055 164.847 83.8326L163.71 85.4776ZM179.027 137.865C174.503 193.298 128.137 236.872 71.6105 236.872V238.872C129.189 238.872 176.412 194.488 181.021 138.027L179.027 137.865ZM141.318 177.324C91.0481 201.122 30.1293 182.755 1.86603 133.802L0.133975 134.802C28.9233 184.667 90.9723 203.371 142.174 179.131L141.318 177.324ZM88.2904 164.396C42.5457 132.76 27.9923 70.8195 56.2556 21.8661L54.5235 20.8661C25.7341 70.7307 40.5603 133.819 87.1528 166.041L88.2904 164.396Z" fill="black"/>
</svg>
