<svg width="250" height="250" viewBox="0 0 250 250" fill="none" xmlns="http://www.w3.org/2000/svg">
<path d="M124.006 68.9227L120.38 57.9598L112.699 66.5814L124.006 68.9227ZM79.2009 88.8885L68.4662 84.6343L70.1493 96.058L79.2009 88.8885ZM162.076 83.0393L166.497 72.3723L155.049 73.8767L162.076 83.0393ZM179.605 119.418L190.342 115.169L181.293 107.995L179.605 119.418ZM168.88 160.177L179.643 164.36L177.884 152.948L168.88 160.177ZM129.285 180.026L133.837 190.639L140.751 181.391L129.285 180.026ZM88.0644 170.765L84.2874 181.676L95.6258 179.491L88.0644 170.765ZM66.1943 131.068L55.6644 135.806L65.0331 142.556L66.1943 131.068ZM65.9337 46.0459C85.1482 46.0459 102.793 52.6644 116.663 63.7175L117.909 62.1534C103.696 50.8268 85.6148 44.0459 65.9337 44.0459V46.0459ZM8.56657 69.6317C23.21 55.0658 43.5031 46.0459 65.9337 46.0459V44.0459C42.9569 44.0459 22.1617 53.2876 7.15611 68.2137L8.56657 69.6317ZM24.4046 118.649C36.6188 103.986 53.021 94.7295 70.4968 91.1803L70.0988 89.2203C52.1968 92.8561 35.3858 102.341 22.8679 117.369L24.4046 118.649ZM6.41145 177.365C4.32367 156.949 10.1596 135.75 24.4046 118.649L22.8679 117.369C8.26653 134.898 2.28124 156.636 4.42183 177.568L6.41145 177.365ZM133.044 28.3671C147.62 40.6915 156.657 57.024 159.921 74.3008L161.886 73.9295C158.539 56.2144 149.271 39.4692 134.336 26.8399L133.044 28.3671ZM73.9327 9.43795C94.6544 7.77863 116.009 13.9631 133.044 28.3671L134.336 26.8399C116.879 12.0793 94.9964 5.74485 73.7731 7.44433L73.9327 9.43795ZM198.685 60.6176C200.021 79.5303 194.571 97.3614 184.379 111.789L186.013 112.943C196.46 98.1538 202.05 79.8683 200.68 60.4767L198.685 60.6176ZM170.871 5.76127C186.605 19.1734 197.124 38.532 198.685 60.6176L200.68 60.4767C199.079 37.8299 188.291 17.9823 172.169 4.23922L170.871 5.76127ZM223.474 130.055C211.359 144.799 195.02 154.163 177.569 157.828L177.98 159.785C195.857 156.031 212.603 146.435 225.019 131.325L223.474 130.055ZM241.068 71.2218C243.295 91.6231 237.603 112.86 223.474 130.055L225.019 131.325C239.501 113.7 245.339 91.9221 243.057 71.0048L241.068 71.2218ZM189.136 197.89C169.988 199.521 151.828 194.422 137.045 184.582L135.937 186.247C151.084 196.329 169.692 201.554 189.305 199.883L189.136 197.89ZM244.237 169.524C230.915 185.278 211.483 195.987 189.136 197.89L189.305 199.883C212.197 197.933 232.112 186.96 245.764 170.815L244.237 169.524ZM120.311 223.651C105.025 212.196 95.0278 196.418 90.7378 179.361L88.7982 179.849C93.1969 197.338 103.448 213.514 119.112 225.251L120.311 223.651ZM180.451 239.105C159.864 241.968 138.177 237.038 120.311 223.651L119.112 225.251C137.418 238.969 159.641 244.018 180.726 241.086L180.451 239.105ZM49.861 190.668C47.6493 171.838 52.2658 153.782 61.7754 138.909L60.0904 137.832C50.3421 153.077 45.607 171.595 47.8747 190.902L49.861 190.668ZM80.1894 244.21C63.8498 231.524 52.4441 212.66 49.861 190.668L47.8747 190.902C50.5233 213.452 62.2208 232.791 78.9628 245.79L80.1894 244.21Z" fill="black"/>
</svg>
