<svg width="252" height="256" viewBox="0 0 252 256" fill="none" xmlns="http://www.w3.org/2000/svg">
<path d="M142.5 251.841L153.321 255.87L151.4 244.484L142.5 251.841ZM109 4.06672L98.1624 0.0819862L100.13 11.4601L109 4.06672ZM109.135 250.783C48.6297 242.556 2 190.683 2 127.92H0C0 191.697 47.3824 244.405 108.865 252.765L109.135 250.783ZM2 127.92C2 68.2383 44.1651 18.4021 100.332 6.5802L99.9197 4.62308C42.8466 16.6358 0 67.2733 0 127.92H2ZM142.369 4.99117C203.115 13.0016 250 64.9866 250 127.92H252C252 63.9699 204.359 11.1483 142.631 3.00834L142.369 4.99117ZM250 127.92C250 187.778 207.587 237.732 151.173 249.364L151.577 251.323C208.902 239.503 252 188.746 252 127.92H250Z" fill="black"/>
</svg>
