<svg width="252" height="257" viewBox="0 0 252 257" fill="none" xmlns="http://www.w3.org/2000/svg">
<path d="M126 5.99976L115.802 0.584014L116.211 12.1238L126 5.99976ZM234.192 193.647L243.991 187.538L233.801 182.107L234.192 193.647ZM17.9339 193.863L18.398 205.401L28.1579 199.23L17.9339 193.863ZM213.681 43.3185C236.122 65.7592 250 96.7579 250 131H252C252 96.2061 237.896 64.7047 215.096 41.9043L213.681 43.3185ZM126 255C91.7581 255 60.7595 241.122 38.3188 218.681L36.9046 220.095C59.705 242.896 91.2064 257 126 257V255ZM213.681 218.681C191.241 241.122 160.242 255 126 255V257C160.794 257 192.295 242.896 215.096 220.095L213.681 218.681ZM2 131C2 96.7579 15.8781 65.7592 38.3188 43.3185L36.9046 41.9043C14.1041 64.7047 0 96.2061 0 131H2ZM38.3188 43.3185C58.7929 22.8444 86.3904 9.49837 117.074 7.31606L116.932 5.3211C85.7508 7.53881 57.7064 21.1025 36.9046 41.9043L38.3188 43.3185ZM158.562 11.3189C179.716 17.0606 198.625 28.2621 213.681 43.3185L215.096 41.9043C199.798 26.6071 180.585 15.224 159.086 9.38878L158.562 11.3189ZM250 131C250 150.464 245.516 168.879 237.526 185.269L239.323 186.145C247.444 169.488 252 150.775 252 131H250ZM38.3188 218.681C32.8724 213.235 27.9304 207.284 23.5687 200.906L21.9178 202.034C26.3496 208.516 31.371 214.562 36.9046 220.095L38.3188 218.681ZM6.33123 163.606C3.50739 153.217 2 142.285 2 131H0C0 142.464 1.53136 153.572 4.40126 164.13L6.33123 163.606Z" fill="black"/>
</svg>
