<svg width="257" height="257" viewBox="0 0 257 257" fill="none" xmlns="http://www.w3.org/2000/svg">
<path d="M131 251L141.198 256.416L140.789 244.876L131 251ZM6 126L0.583876 136.198L12.1237 135.789L6 126ZM218.306 36.5421L214.787 25.5443L207.022 34.0907L218.306 36.5421ZM255 126C255 191.483 204.24 245.112 139.921 249.684L140.063 251.679C205.421 247.033 257 192.54 257 126H255ZM131 1.99976C161.489 1.99976 189.406 13.0024 211.001 31.2551L212.292 29.7276C190.35 11.1813 161.98 -0.000244141 131 -0.000244141V1.99976ZM87.6963 242.229C43.2192 225.651 10.8224 184.274 7.31564 134.917L5.32067 135.058C8.88438 185.218 41.8057 227.259 86.9978 244.103L87.6963 242.229ZM11.0674 94.3805C25.0468 41.2123 73.4454 1.99976 131 1.99976V-0.000244141C72.5143 -0.000244141 23.3378 39.8467 9.13315 93.8719L11.0674 94.3805Z" fill="black"/>
</svg>
