<svg width="253" height="253" viewBox="0 0 253 253" fill="none" xmlns="http://www.w3.org/2000/svg">
<path d="M188.531 17.7776L182.403 7.99062L176.992 18.1908L188.531 17.7776ZM63.5311 234.284L69.6587 244.071L75.0707 233.871L63.5311 234.284ZM234.284 188.531L244.071 182.403L233.871 176.991L234.284 188.531ZM17.7779 63.5308L7.99087 69.6585L18.1911 75.0704L17.7779 63.5308ZM213.713 38.3499C236.153 60.7906 250.031 91.7892 250.031 126.031H252.031C252.031 91.2375 237.927 59.7361 215.127 36.9357L213.713 38.3499ZM38.35 213.712C15.9093 191.272 2.03118 160.273 2.03118 126.031H0.0311775C0.0311775 160.825 14.1353 192.326 36.9357 215.127L38.35 213.712ZM213.713 213.712C191.272 236.153 160.273 250.031 126.031 250.031V252.031C160.825 252.031 192.326 237.927 215.127 215.127L213.713 213.712ZM38.35 38.3499C60.7906 15.9092 91.7893 2.03111 126.031 2.03111V0.0311051C91.2376 0.0311051 59.7362 14.1352 36.9357 36.9357L38.35 38.3499ZM93.9375 6.25598C123.911 -1.77533 154.26 1.89146 180.143 14.4583L181.016 12.6592C154.717 -0.109765 123.875 -3.83633 93.4199 4.32413L93.9375 6.25598ZM158.125 245.806C128.151 253.837 97.802 250.17 71.9194 237.603L71.0458 239.403C97.3447 252.171 128.187 255.898 158.642 247.738L158.125 245.806ZM245.806 93.9373C253.837 123.911 250.17 154.26 237.604 180.143L239.403 181.016C252.172 154.717 255.898 123.875 247.738 93.4196L245.806 93.9373ZM6.25622 158.124C-1.77508 128.151 1.8917 97.8018 14.4585 71.9191L12.6594 71.0456C-0.109521 97.3445 -3.83608 128.187 4.32437 158.642L6.25622 158.124Z" fill="black"/>
</svg>
