<svg width="262" height="262" viewBox="0 0 262 262" fill="none" xmlns="http://www.w3.org/2000/svg">
<path d="M256 131L261.416 120.802L249.876 121.211L256 131ZM131 256L141.198 261.416L140.789 249.876L131 256ZM6 131L0.584258 141.198L12.124 140.789L6 131ZM131 5.99976L120.802 0.584014L121.211 12.1238L131 5.99976ZM218.681 43.3185C239.155 63.7926 252.501 91.3902 254.684 122.074L256.679 121.932C254.461 90.7506 240.897 62.7061 220.096 41.9043L218.681 43.3185ZM43.3188 218.681C22.8447 198.207 9.49861 170.609 7.31631 139.926L5.32134 140.068C7.53905 171.249 21.1027 199.293 41.9046 220.095L43.3188 218.681ZM218.681 218.681C198.207 239.155 170.61 252.501 139.926 254.684L140.068 256.679C171.249 254.461 199.294 240.897 220.096 220.095L218.681 218.681ZM43.3188 43.3185C63.7929 22.8444 91.3904 9.49837 122.074 7.31606L121.932 5.3211C90.7508 7.53881 62.7064 21.1025 41.9046 41.9043L43.3188 43.3185Z" fill="black"/>
</svg>
