<svg width="257" height="257" viewBox="0 0 257 257" fill="none" xmlns="http://www.w3.org/2000/svg">
<path d="M251 126L256.416 115.802L244.876 116.211L251 126ZM126 251L136.198 256.416L135.789 244.876L126 251ZM196 22.4231L190.587 12.2236L184.46 22.0113L196 22.4231ZM213.681 38.3185C234.155 58.7926 247.502 86.3902 249.684 117.074L251.679 116.932C249.461 85.7506 235.897 57.7061 215.096 36.9043L213.681 38.3185ZM38.3188 213.681C15.8781 191.24 2 160.242 2 126H0C0 160.794 14.1041 192.295 36.9046 215.095L38.3188 213.681ZM213.681 213.681C193.207 234.155 165.61 247.501 134.926 249.684L135.068 251.679C166.249 249.461 194.294 235.897 215.096 215.095L213.681 213.681ZM2 126C2 91.7579 15.8781 60.7592 38.3188 38.3185L36.9046 36.9043C14.1041 59.7048 0 91.2061 0 126H2ZM38.3188 38.3185C60.7595 15.8778 91.7581 1.99976 126 1.99976V-0.000244141C91.2064 -0.000244141 59.705 14.1039 36.9046 36.9043L38.3188 38.3185ZM126 1.99976C148.536 1.99976 169.665 8.01065 187.874 18.516L188.874 16.7836C170.369 6.10764 148.896 -0.000244141 126 -0.000244141V1.99976ZM248.461 145.593C244.272 171.987 231.753 195.609 213.681 213.681L215.096 215.095C233.457 196.734 246.179 172.731 250.436 145.907L248.461 145.593ZM92.2715 245.358C71.5888 239.525 53.0978 228.46 38.3188 213.681L36.9046 215.095C51.9199 230.111 70.7089 241.355 91.7286 247.283L92.2715 245.358Z" fill="black"/>
</svg>
