<svg width="256" height="256" viewBox="0 0 256 256" fill="none" xmlns="http://www.w3.org/2000/svg">
<path d="M8.63896 8.2489V7.2489C8.08668 7.2489 7.63896 7.69661 7.63896 8.2489H8.63896ZM92.7657 8.956C93.1562 8.56548 93.1562 7.93231 92.7657 7.54179L86.4017 1.17783C86.0112 0.787303 85.378 0.787303 84.9875 1.17783C84.597 1.56835 84.597 2.20152 84.9875 2.59204L90.6443 8.2489L84.9875 13.9057C84.597 14.2963 84.597 14.9294 84.9875 15.32C85.378 15.7105 86.0112 15.7105 86.4017 15.32L92.7657 8.956ZM248 8.00001H249C249 7.44772 248.552 7.00001 248 7.00001V8.00001ZM247.293 92.2627C247.683 92.6532 248.317 92.6532 248.707 92.2627L255.071 85.8987C255.462 85.5082 255.462 84.875 255.071 84.4845C254.681 84.094 254.047 84.094 253.657 84.4845L248 90.1414L242.343 84.4845C241.953 84.094 241.319 84.094 240.929 84.4845C240.538 84.875 240.538 85.5082 240.929 85.8987L247.293 92.2627ZM247.361 247.751V248.751C247.913 248.751 248.361 248.303 248.361 247.751H247.361ZM163.234 247.044C162.844 247.435 162.844 248.068 163.234 248.458L169.598 254.822C169.989 255.213 170.622 255.213 171.012 254.822C171.403 254.432 171.403 253.798 171.012 253.408L165.356 247.751L171.012 242.094C171.403 241.704 171.403 241.071 171.012 240.68C170.622 240.29 169.989 240.29 169.598 240.68L163.234 247.044ZM8 248H7C7 248.552 7.44772 249 8 249V248ZM8.70711 163.737C8.31658 163.347 7.68342 163.347 7.29289 163.737L0.928933 170.101C0.538408 170.492 0.538408 171.125 0.928933 171.516C1.31946 171.906 1.95262 171.906 2.34315 171.516L8 165.859L13.6569 171.516C14.0474 171.906 14.6805 171.906 15.0711 171.516C15.4616 171.125 15.4616 170.492 15.0711 170.101L8.70711 163.737ZM9.63896 151.111V8.2489H7.63896V151.111H9.63896ZM8.63896 9.2489H92.0586V7.2489H8.63896V9.2489ZM105.37 9L248 9.00001V7.00001L105.37 7V9ZM247 8.00001V91.5556H249V8.00001H247ZM246.361 104.889L246.361 247.751H248.361L248.361 104.889H246.361ZM247.361 246.751H163.941V248.751H247.361V246.751ZM150.63 247H8V249H150.63V247ZM9 248L9 164.444H7L7 248H9Z" fill="black"/>
</svg>
