<svg width="250" height="253" viewBox="0 0 250 253" fill="none" xmlns="http://www.w3.org/2000/svg">
<path d="M245.707 8.70711C246.098 8.31659 246.098 7.68342 245.707 7.2929L239.343 0.928935C238.953 0.538411 238.319 0.538411 237.929 0.928935C237.538 1.31946 237.538 1.95262 237.929 2.34315L243.586 8L237.929 13.6569C237.538 14.0474 237.538 14.6805 237.929 15.0711C238.319 15.4616 238.953 15.4616 239.343 15.0711L245.707 8.70711ZM125.351 8C125.351 7.44772 124.904 7 124.351 7C123.799 7 123.351 7.44772 123.351 8H125.351ZM123.644 251.457C124.035 251.848 124.668 251.848 125.058 251.457L131.422 245.093C131.813 244.703 131.813 244.069 131.422 243.679C131.032 243.288 130.399 243.288 130.008 243.679L124.351 249.336L118.694 243.679C118.304 243.288 117.671 243.288 117.28 243.679C116.89 244.069 116.89 244.703 117.28 245.093L123.644 251.457ZM5 9H245V7H5V9ZM123.351 8V250.75H125.351V8H123.351Z" fill="black"/>
<path d="M10 3V23" stroke="black" stroke-width="2" stroke-linecap="round" stroke-linejoin="round"/>
<path d="M119.5 252L129.5 252" stroke="black" stroke-width="2" stroke-linecap="round" stroke-linejoin="round"/>
</svg>
