<svg width="251" height="252" viewBox="0 0 251 252" fill="none" xmlns="http://www.w3.org/2000/svg">
<path d="M251 184.013L240.683 189.199L250.333 195.54L251 184.013ZM159.494 251V252V251ZM245.233 190.967C218.72 229.855 189.246 250 159.494 250V252C190.218 252 220.218 231.208 246.885 192.094L245.233 190.967ZM159.494 250C127.884 250 96.5871 227.257 68.8319 183.477L67.1427 184.548C95.0304 228.537 126.853 252 159.494 252V250ZM68.8319 183.477C41.0976 139.731 18.0275 76.7383 1.97839 0.793241L0.021608 1.20676C16.098 77.2809 39.2341 140.526 67.1427 184.548L68.8319 183.477Z" fill="black"/>
</svg>
