<svg width="257" height="252" viewBox="0 0 257 252" fill="none" xmlns="http://www.w3.org/2000/svg">
<path d="M104.167 251C104.167 251.552 104.614 252 105.167 252C105.719 252 106.167 251.552 106.167 251H104.167ZM187.5 251C187.5 251.552 187.948 252 188.5 252C189.052 252 189.5 251.552 189.5 251H187.5ZM251 251L256.712 240.965L245.165 241.036L251 251ZM2 251C2 182.012 7.82634 119.583 17.2338 74.4273C21.9393 51.8411 27.5301 33.6292 33.7072 21.0881C36.7968 14.8156 40.0081 10.0135 43.2875 6.79253C46.5634 3.57478 49.8364 2 53.0833 2V0C49.1391 0 45.391 1.92299 41.886 5.36569C38.3843 8.80513 35.0547 13.8262 31.9131 20.2044C25.6279 32.9647 19.9956 51.3645 15.2759 74.0194C5.83291 119.346 0 181.917 0 251H2ZM53.0833 2C56.3303 2 59.6032 3.57478 62.8792 6.79253C66.1585 10.0135 69.3699 14.8156 72.4594 21.0881C78.6366 33.6292 84.2274 51.8411 88.9328 74.4273C98.3403 119.583 104.167 182.012 104.167 251H106.167C106.167 181.917 100.334 119.346 90.8908 74.0194C86.171 51.3645 80.5388 32.9647 74.2536 20.2044C71.112 13.8262 67.7824 8.80513 64.2807 5.36569C60.7757 1.92299 57.0276 0 53.0833 0V2ZM106.167 251C106.167 195.819 110.827 145.89 118.35 109.783C122.112 91.7205 126.581 77.1698 131.512 67.1589C133.978 62.1514 136.536 58.3317 139.137 55.7767C141.735 53.225 144.306 52 146.833 52V50C143.608 50 140.562 51.5732 137.735 54.3499C134.912 57.1233 132.236 61.162 129.718 66.2751C124.679 76.5053 120.169 91.2439 116.392 109.375C108.834 145.653 104.167 195.724 104.167 251H106.167ZM146.833 52C149.361 52 151.932 53.225 154.53 55.7767C157.131 58.3317 159.688 62.1514 162.155 67.1589C167.086 77.1698 171.554 91.7205 175.317 109.783C182.84 145.89 187.5 195.819 187.5 251H189.5C189.5 195.724 184.833 145.653 177.275 109.375C173.498 91.2439 168.988 76.5053 163.949 66.2751C161.43 61.162 158.755 57.1233 155.931 54.3499C153.104 51.5732 150.058 50 146.833 50V52ZM189.5 251C189.5 209.626 192.994 172.197 198.632 145.138C201.452 131.6 204.798 120.71 208.483 113.23C210.326 109.487 212.23 106.65 214.153 104.761C216.073 102.875 217.941 102 219.75 102V100C217.244 100 214.9 101.223 212.751 103.334C210.606 105.441 208.584 108.498 206.689 112.346C202.896 120.046 199.509 131.123 196.674 144.73C191.001 171.96 187.5 209.531 187.5 251H189.5ZM219.75 102C221.493 102 223.291 102.812 225.138 104.559C226.99 106.31 228.827 108.944 230.614 112.427C234.185 119.39 237.451 129.546 240.243 142.22C245.823 167.553 249.46 202.731 249.945 242.012L251.945 241.988C251.459 202.617 247.814 167.295 242.196 141.79C239.389 129.046 236.078 118.699 232.393 111.514C230.551 107.923 228.591 105.072 226.512 103.106C224.429 101.136 222.164 100 219.75 100V102Z" fill="black"/>
</svg>
