<svg width="251" height="257" viewBox="0 0 251 257" fill="none" xmlns="http://www.w3.org/2000/svg">
<path d="M125 251L115.146 244.981L114.86 256.525L125 251ZM125 1.99999C159.419 2 190.532 7.81479 213.004 17.1779C224.242 21.8604 233.271 27.4106 239.475 33.5225C245.676 39.631 249 46.2405 249 53.0833L251 53.0833C251 45.5438 247.329 38.4516 240.879 32.0978C234.432 25.7474 225.156 20.0745 213.773 15.3318C191.003 5.84445 159.617 -3.95077e-06 125 -5.46392e-06L125 1.99999ZM249 53.0833C249 59.9262 245.676 66.5357 239.475 72.6441C233.271 78.7561 224.242 84.3063 213.004 88.9887C190.532 98.3519 159.419 104.167 125 104.167L125 106.167C159.617 106.167 191.003 100.322 213.773 90.8349C225.156 86.0921 234.432 80.4193 240.879 74.0689C247.329 67.7151 251 60.6229 251 53.0833L249 53.0833ZM125 187.5C97.4848 187.5 72.6213 182.851 54.6739 175.373C45.698 171.633 38.4995 167.205 33.5603 162.339C28.6245 157.477 26 152.238 26 146.833L24 146.833C24 152.935 26.9719 158.657 32.1567 163.764C37.338 168.868 44.7842 173.419 53.9047 177.219C72.1502 184.821 97.2867 189.5 125 189.5L125 187.5ZM26 146.833C26 141.429 28.6245 136.189 33.5603 131.327C38.4995 126.461 45.698 122.034 54.6739 118.294C72.6213 110.816 97.4848 106.167 125 106.167L125 104.167C97.2867 104.167 72.1502 108.845 53.9047 116.447C44.7842 120.248 37.338 124.798 32.1567 129.902C26.9719 135.01 24 140.732 24 146.833L26 146.833ZM125 106.167C152.515 106.167 177.379 110.816 195.326 118.294C204.302 122.034 211.5 126.461 216.44 131.327C221.375 136.189 224 141.429 224 146.833L226 146.833C226 140.732 223.028 135.01 217.843 129.902C212.662 124.798 205.216 120.248 196.095 116.447C177.85 108.845 152.713 104.167 125 104.167L125 106.167ZM224 146.833C224 152.238 221.375 157.477 216.44 162.339C211.5 167.205 204.302 171.633 195.326 175.373C177.379 182.851 152.515 187.5 125 187.5L125 189.5C152.713 189.5 177.85 184.821 196.095 177.219C205.216 173.419 212.662 168.868 217.843 163.764C223.028 158.657 226 152.935 226 146.833L224 146.833ZM116.055 249.779C97.556 248.858 81.189 245.118 69.4826 239.66C63.6282 236.93 58.9836 233.791 55.8155 230.401C52.6525 227.016 51 223.426 51 219.75L49 219.75C49 224.069 50.9506 228.124 54.3542 231.766C57.7526 235.403 62.638 238.675 68.6374 241.472C80.6386 247.068 97.2744 250.846 115.956 251.776L116.055 249.779ZM51 219.75C51 215.784 52.925 211.914 56.5956 208.298C60.2698 204.679 65.6378 201.373 72.3516 198.576C85.7749 192.983 104.388 189.5 125 189.5L125 187.5C104.19 187.5 85.3037 191.013 71.5824 196.73C64.7239 199.588 59.1083 203.016 55.1921 206.874C51.2723 210.735 49 215.087 49 219.75L51 219.75Z" fill="black"/>
</svg>
