<svg width="256" height="250" viewBox="0 0 256 250" fill="none" xmlns="http://www.w3.org/2000/svg">
<path d="M251 0L244 9.18355L255.453 10.6537L251 0ZM248.886 8.67398C244.259 26.6112 225.422 43.0153 197.267 54.9544C169.173 66.8671 132.049 74.2212 91.3179 74.2212L91.3179 76.2212C132.27 76.2212 169.667 68.8301 198.047 56.7957C226.365 44.7879 245.955 28.0432 250.823 9.17355L248.886 8.67398ZM91.3179 10.4817C135.301 10.4817 175.072 18.7407 203.81 32.0506C232.631 45.3992 250 63.6393 250 83.4387L252 83.4387C252 62.3927 233.623 43.6543 204.65 30.2358C175.595 16.7785 135.524 8.48166 91.3179 8.48166L91.3179 10.4817ZM250 83.4387C250 103.245 232.622 121.799 203.802 135.463C175.065 149.087 135.296 157.66 91.3179 157.66L91.3179 159.66C135.53 159.66 175.602 151.045 204.659 137.27C233.632 123.534 252 104.478 252 83.4387L250 83.4387ZM91.3179 74.2212C66.4626 74.2212 44.0042 70.5531 27.7955 64.6542C19.687 61.7032 13.1956 58.2131 8.74986 54.3878C4.30098 50.5599 2 46.4891 2 42.3515L-1.85124e-06 42.3515C-2.06714e-06 47.2906 2.7536 51.8669 7.4454 55.9039C12.1404 59.9436 18.8756 63.5363 27.1115 66.5336C43.5914 72.5312 66.292 76.2212 91.3179 76.2212L91.3179 74.2212ZM2 42.3515C2 38.2139 4.30098 34.1431 8.74986 30.3151C13.1956 26.4898 19.687 22.9997 27.7955 20.0487C44.0042 14.1498 66.4626 10.4817 91.3179 10.4817L91.3179 8.48166C66.292 8.48166 43.5914 12.1717 27.1115 18.1693C18.8756 21.1666 12.1404 24.7593 7.4454 28.799C2.7536 32.836 -1.63534e-06 37.4123 -1.85124e-06 42.3515L2 42.3515ZM91.3179 93.9203C135.301 93.9204 175.072 102.179 203.81 115.489C232.631 128.838 250 147.078 250 166.877L252 166.877C252 145.831 233.623 127.093 204.65 113.674C175.595 100.217 135.524 91.9204 91.3179 91.9203L91.3179 93.9203ZM250 166.877C250 186.683 232.622 205.238 203.802 218.901C175.065 232.525 135.296 241.099 91.3179 241.099L91.3179 243.099C135.53 243.099 175.602 234.484 204.659 220.709C233.632 206.973 252 187.917 252 166.877L250 166.877ZM91.3179 157.66C66.4626 157.66 44.0042 153.992 27.7955 148.093C19.687 145.142 13.1956 141.652 8.74986 137.827C4.30097 133.999 1.99999 129.928 1.99999 125.79L-5.49846e-06 125.79C-5.71436e-06 130.729 2.7536 135.306 7.4454 139.343C12.1404 143.382 18.8756 146.975 27.1115 149.972C43.5914 155.97 66.292 159.66 91.3179 159.66L91.3179 157.66ZM1.99999 125.79C1.99999 121.653 4.30097 117.582 8.74986 113.754C13.1956 109.929 19.687 106.438 27.7955 103.487C44.0042 97.5885 66.4626 93.9203 91.3179 93.9203L91.3179 91.9203C66.292 91.9203 43.5914 95.6104 27.1115 101.608C18.8756 104.605 12.1404 108.198 7.4454 112.238C2.7536 116.275 -5.28256e-06 120.851 -5.49846e-06 125.79L1.99999 125.79ZM91.3179 177.043C135.301 177.043 175.072 185.302 203.81 198.612C232.631 211.961 250 230.201 250 250L252 250C252 228.954 233.623 210.216 204.65 196.797C175.595 183.34 135.524 175.043 91.3179 175.043L91.3179 177.043ZM91.3179 240.783C66.4626 240.783 44.0042 237.114 27.7955 231.216C19.687 228.265 13.1955 224.774 8.74985 220.949C4.30097 217.121 1.99999 213.05 1.99999 208.913L-9.13187e-06 208.913C-9.34776e-06 213.852 2.75359 218.428 7.44539 222.465C12.1404 226.505 18.8756 230.098 27.1115 233.095C43.5914 239.093 66.292 242.783 91.3179 242.783L91.3179 240.783ZM1.99999 208.913C1.99999 204.775 4.30097 200.704 8.74985 196.876C13.1955 193.051 19.687 189.561 27.7955 186.61C44.0042 180.711 66.4626 177.043 91.3179 177.043L91.3179 175.043C66.292 175.043 43.5914 178.733 27.1115 184.731C18.8756 187.728 12.1404 191.321 7.4454 195.36C2.75359 199.397 -8.91597e-06 203.974 -9.13187e-06 208.913L1.99999 208.913Z" fill="black"/>
</svg>
