<svg width="250" height="262" viewBox="0 0 250 262" fill="none" xmlns="http://www.w3.org/2000/svg">
<path d="M250 6L239.727 0.728085L240.298 12.261L250 6ZM0 256L10.2733 261.272L9.70225 249.739L0 256ZM9.08785 256.55C37.7486 253.665 59.5444 237.164 77.853 214.049C96.1458 190.954 111.049 161.138 125.894 131.447C140.764 101.708 155.576 72.094 173.715 49.1929C191.838 26.3118 213.191 10.2503 241.112 7.43998L240.912 5.45004C212.251 8.33481 190.456 24.8359 172.147 47.9511C153.854 71.0462 138.951 100.862 124.106 130.553C109.236 160.292 94.4243 189.906 76.2852 212.807C58.162 235.688 36.8091 251.75 8.88756 254.56L9.08785 256.55Z" fill="black"/>
</svg>
