<svg width="253" height="72" viewBox="0 0 253 72" fill="none" xmlns="http://www.w3.org/2000/svg">
<path d="M72.0069 35.1908C71.6164 34.8003 70.9832 34.8003 70.5927 35.1908L64.2287 41.5548C63.8382 41.9453 63.8382 42.5785 64.2287 42.969C64.6192 43.3595 65.2524 43.3595 65.6429 42.969L71.2998 37.3122L76.9566 42.969C77.3472 43.3595 77.9803 43.3595 78.3709 42.969C78.7614 42.5785 78.7614 41.9453 78.3709 41.5548L72.0069 35.1908ZM68.5511 25.1474C68.7269 25.6709 69.2939 25.9528 69.8175 25.7769C70.341 25.601 70.6228 25.034 70.447 24.5105L68.5511 25.1474ZM70.2998 35.8979C70.2998 54.5308 55.1949 69.6357 36.562 69.6357V71.6357C56.2994 71.6357 72.2998 55.6354 72.2998 35.8979H70.2998ZM36.562 69.6357C17.9291 69.6357 2.82422 54.5308 2.82422 35.8979H0.824219C0.824219 55.6354 16.8246 71.6357 36.562 71.6357V69.6357ZM2.82422 35.8979C2.82422 17.2651 17.9291 2.16016 36.562 2.16016V0.160156C16.8246 0.160156 0.824219 16.1605 0.824219 35.8979H2.82422ZM36.562 2.16016C51.4346 2.16016 64.062 11.7843 68.5511 25.1474L70.447 24.5105C65.6926 10.3577 52.3195 0.160156 36.562 0.160156V2.16016Z" fill="black"/>
<path d="M158.852 36.8097C158.461 37.2002 157.828 37.2002 157.437 36.8097L151.073 30.4457C150.683 30.0552 150.683 29.422 151.073 29.0315C151.464 28.641 152.097 28.641 152.488 29.0315L158.145 34.6883L163.801 29.0315C164.192 28.641 164.825 28.641 165.216 29.0315C165.606 29.422 165.606 30.0552 165.216 30.4457L158.852 36.8097ZM155.396 46.8531C155.572 46.3296 156.139 46.0477 156.662 46.2236C157.186 46.3995 157.468 46.9664 157.292 47.49L155.396 46.8531ZM157.145 36.1025C157.145 17.4697 142.04 2.36476 123.407 2.36476V0.364761C143.144 0.364761 159.145 16.3651 159.145 36.1025H157.145ZM123.407 2.36476C104.774 2.36476 89.6689 17.4697 89.6689 36.1025H87.6689C87.6689 16.3651 103.669 0.364761 123.407 0.364761V2.36476ZM89.6689 36.1025C89.6689 54.7354 104.774 69.8403 123.407 69.8403V71.8403C103.669 71.8403 87.6689 55.84 87.6689 36.1025H89.6689ZM123.407 69.8403C138.279 69.8403 150.907 60.2161 155.396 46.8531L157.292 47.49C152.537 61.6428 139.164 71.8403 123.407 71.8403V69.8403Z" fill="black"/>
<path d="M245.696 35.1908C245.306 34.8003 244.673 34.8003 244.282 35.1908L237.918 41.5548C237.528 41.9453 237.528 42.5785 237.918 42.969C238.309 43.3595 238.942 43.3595 239.332 42.969L244.989 37.3122L250.646 42.969C251.037 43.3595 251.67 43.3595 252.06 42.969C252.451 42.5785 252.451 41.9453 252.06 41.5548L245.696 35.1908ZM242.241 25.1474C242.416 25.6709 242.983 25.9528 243.507 25.7769C244.03 25.601 244.312 25.034 244.136 24.5105L242.241 25.1474ZM243.989 35.8979C243.989 54.5308 228.884 69.6357 210.251 69.6357V71.6357C229.989 71.6357 245.989 55.6354 245.989 35.8979H243.989ZM210.251 69.6357C191.619 69.6357 176.514 54.5308 176.514 35.8979H174.514C174.514 55.6354 190.514 71.6357 210.251 71.6357V69.6357ZM176.514 35.8979C176.514 17.2651 191.619 2.16016 210.251 2.16016V0.160156C190.514 0.160156 174.514 16.1605 174.514 35.8979H176.514ZM210.251 2.16016C225.124 2.16016 237.751 11.7843 242.241 25.1474L244.136 24.5105C239.382 10.3577 226.009 0.160156 210.251 0.160156V2.16016Z" fill="black"/>
</svg>
