<svg width="250" height="252" viewBox="0 0 250 252" fill="none" xmlns="http://www.w3.org/2000/svg">
<path d="M55.2287 35.4233C54.9102 34.9721 54.2863 34.8645 53.8351 35.183C53.3839 35.5015 53.2763 36.1255 53.5948 36.5767L55.2287 35.4233ZM53.5301 213.385C53.2695 213.872 53.4529 214.478 53.9398 214.739C54.4267 214.999 55.0328 214.816 55.2934 214.329L53.5301 213.385ZM132.93 20.5091C132.659 20.0279 132.049 19.8577 131.568 20.1288C131.087 20.3999 130.916 21.0097 131.188 21.4909L132.93 20.5091ZM131.171 230.54C130.917 231.03 131.108 231.634 131.599 231.888C132.089 232.142 132.692 231.951 132.947 231.46L131.171 230.54ZM4.8847 92.8638C4.3361 92.9275 3.94299 93.4238 4.00667 93.9724C4.07035 94.521 4.5667 94.9141 5.1153 94.8505L4.8847 92.8638ZM245.784 66.6209C246.127 66.1879 246.054 65.559 245.621 65.2161L238.566 59.6283C238.133 59.2854 237.504 59.3584 237.161 59.7914C236.818 60.2243 236.891 60.8533 237.324 61.1961L243.595 66.1631L238.628 72.4344C238.285 72.8673 238.358 73.4963 238.791 73.8392C239.224 74.1821 239.853 74.1091 240.196 73.6761L245.784 66.6209ZM5.1153 157.15C4.5667 157.086 4.07035 157.479 4.00667 158.028C3.94299 158.576 4.3361 159.073 4.8847 159.136L5.1153 157.15ZM245.621 186.784C246.054 186.441 246.127 185.812 245.784 185.379L240.196 178.324C239.853 177.891 239.224 177.818 238.791 178.161C238.358 178.504 238.285 179.133 238.628 179.566L243.595 185.837L237.324 190.804C236.891 191.147 236.818 191.776 237.161 192.209C237.504 192.642 238.133 192.715 238.566 192.372L245.621 186.784ZM4.77905 58.5961C4.24042 58.7182 3.90269 59.2537 4.02471 59.7924C4.14674 60.331 4.68231 60.6687 5.22095 60.5467L4.77905 58.5961ZM242.316 6.5334C242.611 6.06624 242.471 5.44872 242.004 5.15414L234.391 0.353552C233.924 0.0589647 233.307 0.198861 233.012 0.666018C232.717 1.13318 232.857 1.75069 233.324 2.04528L240.091 6.31247L235.824 13.0794C235.53 13.5465 235.669 14.1641 236.137 14.4586C236.604 14.7532 237.221 14.6133 237.516 14.1462L242.316 6.5334ZM5.22095 191.453C4.68231 191.331 4.14674 191.669 4.02471 192.208C3.90269 192.746 4.24042 193.282 4.77905 193.404L5.22095 191.453ZM242.004 246.846C242.471 246.551 242.611 245.934 242.316 245.467L237.516 237.854C237.221 237.387 236.604 237.247 236.137 237.541C235.669 237.836 235.53 238.453 235.824 238.921L240.091 245.688L233.324 249.955C232.857 250.249 232.717 250.867 233.012 251.334C233.307 251.801 233.924 251.941 234.391 251.646L242.004 246.846ZM5 125C4.44772 125 4 125.448 4 126C4 126.552 4.44772 127 5 127V125ZM243.942 126.707C244.333 126.317 244.333 125.683 243.942 125.293L237.578 118.929C237.188 118.538 236.555 118.538 236.164 118.929C235.774 119.319 235.774 119.953 236.164 120.343L241.821 126L236.164 131.657C235.774 132.047 235.774 132.681 236.164 133.071C236.555 133.462 237.188 133.462 237.578 133.071L243.942 126.707ZM53.5948 36.5767C58.7627 43.8978 62.8117 55.913 65.5891 70.6054C68.3607 85.267 69.8459 102.482 69.9559 120.113C70.1762 155.426 64.8796 192.183 53.5301 213.385L55.2934 214.329C66.8851 192.674 72.1767 155.503 71.9559 120.101C71.8453 102.375 70.3525 85.0365 67.5543 70.2339C64.7618 55.462 60.6491 43.1022 55.2287 35.4233L53.5948 36.5767ZM131.188 21.4909C142.537 41.6327 150.031 79.4699 150.912 119.593C151.793 159.702 146.059 201.828 131.171 230.54L132.947 231.46C148.059 202.315 153.795 159.798 152.912 119.549C152.028 79.3158 144.522 41.0816 132.93 20.5091L131.188 21.4909ZM5.1153 94.8505L245.115 66.9933L244.885 65.0067L4.8847 92.8638L5.1153 94.8505ZM4.8847 159.136L244.885 186.993L245.115 185.007L5.1153 157.15L4.8847 159.136ZM5.22095 60.5467L241.692 6.97529L241.25 5.02471L4.77905 58.5961L5.22095 60.5467ZM4.77905 193.404L241.25 246.975L241.692 245.025L5.22095 191.453L4.77905 193.404ZM5 127H243.235V125H5V127Z" fill="black"/>
</svg>
