<svg width="253" height="250" viewBox="0 0 253 250" fill="none" xmlns="http://www.w3.org/2000/svg">
<path d="M244.293 245.566C244.683 245.956 245.317 245.956 245.707 245.566L252.071 239.202C252.462 238.811 252.462 238.178 252.071 237.788C251.681 237.397 251.047 237.397 250.657 237.788L245 243.444L239.343 237.788C238.953 237.397 238.319 237.397 237.929 237.788C237.538 238.178 237.538 238.811 237.929 239.202L244.293 245.566ZM195.346 245.566C195.736 245.956 196.369 245.956 196.76 245.566L203.124 239.202C203.514 238.811 203.514 238.178 203.124 237.788C202.733 237.397 202.1 237.397 201.709 237.788L196.053 243.444L190.396 237.788C190.005 237.397 189.372 237.397 188.982 237.788C188.591 238.178 188.591 238.811 188.982 239.202L195.346 245.566ZM146.924 245.566C147.315 245.956 147.948 245.956 148.339 245.566L154.703 239.202C155.093 238.811 155.093 238.178 154.703 237.788C154.312 237.397 153.679 237.397 153.288 237.788L147.632 243.444L141.975 237.788C141.584 237.397 140.951 237.397 140.561 237.788C140.17 238.178 140.17 238.811 140.561 239.202L146.924 245.566ZM97.4508 245.566C97.8413 245.956 98.4745 245.956 98.865 245.566L105.229 239.202C105.619 238.811 105.619 238.178 105.229 237.788C104.838 237.397 104.205 237.397 103.815 237.788L98.1579 243.444L92.5011 237.788C92.1105 237.397 91.4774 237.397 91.0868 237.788C90.6963 238.178 90.6963 238.811 91.0868 239.202L97.4508 245.566ZM49.0298 245.566C49.4203 245.956 50.0535 245.956 50.444 245.566L56.808 239.202C57.1985 238.811 57.1985 238.178 56.808 237.788C56.4174 237.397 55.7843 237.397 55.3937 237.788L49.7369 243.444L44.08 237.788C43.6895 237.397 43.0563 237.397 42.6658 237.788C42.2753 238.178 42.2753 238.811 42.6658 239.202L49.0298 245.566ZM5.00005 6C136.997 6.00001 244 112.941 244 244.859H246C246 111.836 138.1 4.00001 5.00005 4L5.00005 6ZM5.00005 54.9185C109.964 54.9185 195.053 139.958 195.053 244.859H197.053C197.053 138.852 111.067 52.9185 5.00005 52.9185L5.00005 54.9185ZM5 103.311C83.2215 103.311 146.632 166.685 146.632 244.859H148.632C148.632 165.579 84.325 101.311 5 101.311L5 103.311ZM5 152.756C55.898 152.756 97.1579 193.992 97.1579 244.859H99.1579C99.1579 192.886 57.0014 150.756 5 150.756L5 152.756ZM5 201.148C29.1558 201.148 48.7369 220.719 48.7369 244.859H50.7369C50.7369 219.613 30.2592 199.148 5 199.148L5 201.148Z" fill="black"/>
</svg>
