<svg width="252" height="250" viewBox="0 0 252 250" fill="none" xmlns="http://www.w3.org/2000/svg">
<path d="M245.513 245.874C245.996 246.142 246.605 245.969 246.874 245.487L251.253 237.624C251.522 237.142 251.349 236.533 250.866 236.264C250.384 235.995 249.775 236.168 249.506 236.651L245.613 243.64L238.624 239.747C238.142 239.478 237.533 239.651 237.264 240.134C236.995 240.616 237.168 241.225 237.651 241.494L245.513 245.874ZM5.12595 245.486C5.39429 245.969 6.00313 246.142 6.48586 245.874L14.3522 241.501C14.8349 241.233 15.0087 240.624 14.7403 240.141C14.472 239.659 13.8631 239.485 13.3804 239.753L6.38816 243.64L2.50124 236.648C2.23292 236.165 1.62406 235.991 1.14135 236.26C0.658636 236.528 0.484838 237.137 0.753179 237.62L5.12595 245.486ZM125.293 245.707C125.683 246.098 126.317 246.098 126.707 245.707L133.071 239.343C133.462 238.953 133.462 238.319 133.071 237.929C132.681 237.538 132.047 237.538 131.657 237.929L126 243.586L120.343 237.929C119.953 237.538 119.319 237.538 118.929 237.929C118.538 238.319 118.538 238.953 118.929 239.343L125.293 245.707ZM185.401 245.801C185.844 246.132 186.47 246.041 186.801 245.599L192.188 238.389C192.519 237.947 192.428 237.32 191.986 236.99C191.544 236.659 190.917 236.75 190.586 237.192L185.798 243.6L179.389 238.812C178.947 238.481 178.32 238.572 177.99 239.014C177.659 239.456 177.75 240.083 178.192 240.414L185.401 245.801ZM65.1984 245.598C65.5286 246.041 66.1551 246.132 66.5978 245.802L73.8123 240.421C74.255 240.091 74.3462 239.464 74.016 239.021C73.6859 238.579 73.0593 238.488 72.6166 238.818L66.2037 243.601L61.4209 237.188C61.0907 236.745 60.4642 236.654 60.0215 236.984C59.5787 237.314 59.4875 237.941 59.8177 238.383L65.1984 245.598ZM95.2443 245.655C95.6061 246.072 96.2376 246.117 96.655 245.756L103.456 239.861C103.873 239.499 103.918 238.868 103.556 238.45C103.195 238.033 102.563 237.988 102.146 238.35L96.1007 243.589L90.8608 237.544C90.4991 237.127 89.8675 237.082 89.4502 237.444C89.0328 237.805 88.9878 238.437 89.3495 238.854L95.2443 245.655ZM35.1615 245.545C35.4625 246.008 36.0819 246.139 36.5449 245.838L44.0911 240.934C44.5542 240.633 44.6856 240.014 44.3846 239.55C44.0837 239.087 43.4643 238.956 43.0012 239.257L36.2935 243.617L31.9339 236.909C31.6329 236.446 31.0135 236.314 30.5505 236.615C30.0874 236.916 29.956 237.536 30.2569 237.999L35.1615 245.545ZM155.343 245.754C155.759 246.117 156.391 246.073 156.754 245.657L162.668 238.873C163.031 238.457 162.988 237.825 162.571 237.462C162.155 237.099 161.523 237.143 161.16 237.559L155.903 243.589L149.873 238.332C149.457 237.969 148.825 238.012 148.462 238.429C148.099 238.845 148.143 239.477 148.559 239.84L155.343 245.754ZM215.456 245.839C215.919 246.14 216.538 246.008 216.839 245.544L221.737 237.993C222.037 237.53 221.905 236.911 221.442 236.61C220.978 236.31 220.359 236.442 220.059 236.905L215.705 243.617L208.993 239.263C208.53 238.963 207.911 239.095 207.61 239.558C207.31 240.021 207.442 240.641 207.905 240.941L215.456 245.839ZM127 245L127 4.99999L125 4.99999L125 245L127 245ZM150.298 5.14314L185.01 245.143L186.99 244.857L152.277 4.85685L150.298 5.14314ZM99.953 4.85592L65.0104 244.856L66.9896 245.144L101.932 5.14407L99.953 4.85592ZM112.129 4.92882L95.0025 244.929L96.9975 245.071L114.124 5.07117L112.129 4.92882ZM85.9413 4.79245L35.0218 244.792L36.9782 245.208L87.8978 5.20754L85.9413 4.79245ZM138.566 5.06832L155.002 245.068L156.998 244.932L140.561 4.93167L138.566 5.06832ZM163.873 5.20844L215.022 245.208L216.978 244.792L165.829 4.79156L163.873 5.20844ZM176.762 5.27362L245.038 245.274L246.962 244.726L178.686 4.72637L176.762 5.27362ZM73.5442 4.72551L5.0384 244.726L6.96158 245.274L75.4673 5.27447L73.5442 4.72551Z" fill="black"/>
</svg>
