<svg width="250" height="250" viewBox="0 0 250 250" fill="none" xmlns="http://www.w3.org/2000/svg">
<path d="M246 5C246 4.44772 245.552 4 245 4L236 4C235.448 4 235 4.44772 235 5C235 5.55228 235.448 6 236 6H244V14C244 14.5523 244.448 15 245 15C245.552 15 246 14.5523 246 14V5ZM164.453 10.5187C164.453 9.96641 164.005 9.5187 163.453 9.5187H154.453C153.901 9.5187 153.453 9.96641 153.453 10.5187C153.453 11.071 153.901 11.5187 154.453 11.5187H162.453V19.5187C162.453 20.071 162.901 20.5187 163.453 20.5187C164.005 20.5187 164.453 20.071 164.453 19.5187V10.5187ZM232.835 94.1932C232.835 93.6409 232.387 93.1932 231.835 93.1932H222.835C222.283 93.1932 221.835 93.6409 221.835 94.1932C221.835 94.7455 222.283 95.1932 222.835 95.1932H230.835V103.193C230.835 103.745 231.283 104.193 231.835 104.193C232.387 104.193 232.835 103.745 232.835 103.193V94.1932ZM5.70711 245.707L245.707 5.70711L244.293 4.29289L4.29289 244.293L5.70711 245.707ZM19.0616 156.324L164.16 11.2258L162.746 9.81159L17.6473 154.91L19.0616 156.324ZM87.4434 239.999L232.542 94.9003L231.128 93.4861L86.0292 238.585L87.4434 239.999Z" fill="black"/>
</svg>
