<svg width="250" height="250" viewBox="0 0 250 250" fill="none" xmlns="http://www.w3.org/2000/svg">
<path d="M137.207 13.2071C137.598 12.8166 137.598 12.1834 137.207 11.7929L130.843 5.42893C130.453 5.03841 129.819 5.03841 129.429 5.42893C129.038 5.81946 129.038 6.45262 129.429 6.84315L135.086 12.5L129.429 18.1569C129.038 18.5474 129.038 19.1805 129.429 19.5711C129.819 19.9616 130.453 19.9616 130.843 19.5711L137.207 13.2071ZM12.5 137.5C12.5 69.0167 68.0167 13.5 136.5 13.5V11.5C66.9121 11.5 10.5 67.9121 10.5 137.5H12.5Z" fill="black"/>
<path d="M162.707 38.2071C163.098 37.8166 163.098 37.1834 162.707 36.7929L156.343 30.4289C155.953 30.0384 155.319 30.0384 154.929 30.4289C154.538 30.8195 154.538 31.4526 154.929 31.8431L160.586 37.5L154.929 43.1569C154.538 43.5474 154.538 44.1805 154.929 44.5711C155.319 44.9616 155.953 44.9616 156.343 44.5711L162.707 38.2071ZM38 162.5C38 94.0167 93.5167 38.5 162 38.5V36.5C92.4121 36.5 36 92.9121 36 162.5H38Z" fill="black"/>
<path d="M188.207 63.2071C188.598 62.8166 188.598 62.1834 188.207 61.7929L181.843 55.4289C181.453 55.0384 180.819 55.0384 180.429 55.4289C180.038 55.8195 180.038 56.4526 180.429 56.8431L186.086 62.5L180.429 68.1569C180.038 68.5474 180.038 69.1805 180.429 69.5711C180.819 69.9616 181.453 69.9616 181.843 69.5711L188.207 63.2071ZM63.5 187.5C63.5 119.017 119.017 63.5 187.5 63.5V61.5C117.912 61.5 61.5 117.912 61.5 187.5H63.5Z" fill="black"/>
<path d="M213.707 88.2071C214.098 87.8166 214.098 87.1834 213.707 86.7929L207.343 80.4289C206.953 80.0384 206.319 80.0384 205.929 80.4289C205.538 80.8195 205.538 81.4526 205.929 81.8431L211.586 87.5L205.929 93.1569C205.538 93.5474 205.538 94.1805 205.929 94.5711C206.319 94.9616 206.953 94.9616 207.343 94.5711L213.707 88.2071ZM89 212.5C89 144.017 144.517 88.5 213 88.5V86.5C143.412 86.5 87 142.912 87 212.5H89Z" fill="black"/>
<path d="M239.207 113.207C239.598 112.817 239.598 112.183 239.207 111.793L232.843 105.429C232.453 105.038 231.819 105.038 231.429 105.429C231.038 105.819 231.038 106.453 231.429 106.843L237.086 112.5L231.429 118.157C231.038 118.547 231.038 119.181 231.429 119.571C231.819 119.962 232.453 119.962 232.843 119.571L239.207 113.207ZM114.5 237.5C114.5 169.017 170.017 113.5 238.5 113.5V111.5C168.912 111.5 112.5 167.912 112.5 237.5H114.5Z" fill="black"/>
</svg>
