<svg width="250" height="259" viewBox="0 0 250 259" fill="none" xmlns="http://www.w3.org/2000/svg">
<path d="M86.201 8C123.037 8.00483 158.362 22.6411 184.407 48.6896C210.452 74.7381 225.084 110.065 225.084 146.901C225.084 161.5 222.207 175.956 216.617 189.442C211.026 202.928 202.833 215.181 192.505 225.499C182.177 235.816 169.917 243.998 156.425 249.574C142.933 255.151 128.474 258.014 113.876 258C90.3043 258 67.6984 248.636 51.031 231.969C34.3636 215.302 25 192.696 25 169.124C25 150.267 32.4909 132.183 45.8248 118.849C59.1587 105.515 77.2434 98.024 96.1004 98.024C103.572 98.0216 110.97 99.4911 117.873 102.349C124.776 105.206 131.049 109.395 136.333 114.677C141.616 119.96 145.808 126.231 148.667 133.133C151.527 140.035 152.999 147.433 152.999 154.904" stroke="black" stroke-width="2" stroke-linejoin="round"/>
<path d="M152.434 169.5L152.238 168.862C150.609 163.552 148.378 158.45 145.592 153.657L145.501 153.5C150.086 154.332 154.782 154.332 159.367 153.5L159.276 153.657C156.489 158.45 154.259 163.552 152.63 168.862L152.434 169.5Z" fill="black" stroke="black" stroke-width="2" stroke-linejoin="round"/>
<path d="M77 7.93239L77.6379 7.73664C82.9479 6.10705 88.0499 3.87692 92.8427 1.09051L93 0.999056C92.1673 5.58462 92.1673 10.2802 93 14.8657L92.8427 14.7743C88.0499 11.9879 82.9479 9.75773 77.6379 8.12814L77 7.93239Z" fill="black" stroke="black" stroke-width="2" stroke-linejoin="round"/>
</svg>
