<svg width="250" height="259" viewBox="0 0 250 259" fill="none" xmlns="http://www.w3.org/2000/svg">
<path d="M70.4333 153L70.6291 153.637C72.2587 158.947 74.4888 164.049 77.2752 168.842L77.3667 169C72.7811 168.167 68.0856 168.167 63.5 169L63.5915 168.842C66.3779 164.049 68.608 158.947 70.2376 153.637L70.4333 153Z" fill="black" stroke="black" stroke-width="2" stroke-linejoin="round"/>
<path d="M86.0917 8C104.333 7.99761 122.396 11.5887 139.25 18.5683C156.103 25.5479 171.416 35.7792 184.315 48.6778C197.214 61.5764 207.445 76.8897 214.424 93.7431C221.404 110.596 224.995 128.66 224.993 146.901C224.993 176.366 213.288 204.625 192.453 225.46C171.618 246.295 143.359 258 113.894 258C90.3208 258 67.7131 248.637 51.0428 231.97C34.3725 215.303 25.0048 192.697 25 169.124C25 150.267 32.4909 132.183 45.8248 118.849C59.1588 105.515 77.2434 98.024 96.1004 98.024C111.186 98.024 125.654 104.017 136.321 114.684C146.988 125.351 152.981 139.819 152.981 154.904C152.981 166.992 148.179 178.585 139.632 187.132C131.084 195.68 119.491 200.482 107.404 200.482C97.7333 200.482 88.4591 196.64 81.6212 189.802C74.7833 182.964 70.9418 173.69 70.9418 164.02" stroke="black" stroke-width="2" stroke-linejoin="round"/>
<path d="M77.5 7.93239L78.1379 7.73664C83.4479 6.10705 88.5499 3.87692 93.3427 1.09051L93.5 0.999056C92.6673 5.58462 92.6673 10.2802 93.5 14.8657L93.3427 14.7743C88.5499 11.9879 83.4479 9.75773 78.1379 8.12814L77.5 7.93239Z" fill="black" stroke="black" stroke-width="2" stroke-linejoin="round"/>
</svg>
