<svg width="250" height="259" viewBox="0 0 250 259" fill="none" xmlns="http://www.w3.org/2000/svg">
<path d="M86.1054 8C104.346 8 122.409 11.5931 139.261 18.5742C156.113 25.5552 171.425 35.7875 184.323 48.6867C197.22 61.5858 207.45 76.8992 214.429 93.7523C221.408 110.605 224.999 128.668 224.996 146.909C224.996 161.499 222.122 175.947 216.538 189.426C210.954 202.905 202.77 215.153 192.452 225.469C182.134 235.785 169.886 243.967 156.406 249.549C142.925 255.131 128.477 258.002 113.887 258C90.3161 258 67.71 248.638 51.0409 231.972C34.3718 215.306 25.0048 192.702 25 169.131C25 150.275 32.4904 132.192 45.8233 118.859C59.1563 105.526 77.2396 98.0357 96.0952 98.0357C103.566 98.0357 110.963 99.5075 117.865 102.367C124.767 105.226 131.038 109.417 136.319 114.701C141.601 119.984 145.79 126.256 148.647 133.159C151.504 140.062 152.974 147.46 152.971 154.93C152.971 167.017 148.17 178.609 139.623 187.156C131.076 195.702 119.484 200.504 107.398 200.504C97.728 200.504 88.4545 196.663 81.6171 189.825C74.7797 182.988 70.9385 173.714 70.9385 164.045C70.9385 156.309 74.0114 148.89 79.4814 143.421C84.9513 137.951 92.3701 134.878 100.106 134.878C106.286 134.878 112.214 137.332 116.586 141.7C120.958 146.069 123.416 151.994 123.421 158.175C123.417 163.102 121.462 167.827 117.985 171.318C114.508 174.809 109.791 176.782 104.864 176.806" stroke="black" stroke-width="2" stroke-linejoin="round"/>
<path d="M99.4669 181.504L99.9214 181.015C103.705 176.949 107.009 172.467 109.766 167.657L109.857 167.499C111.428 171.887 113.776 175.953 116.79 179.508L116.608 179.508C111.064 179.491 105.531 180.111 100.117 181.354L99.4669 181.504Z" fill="black" stroke="black" stroke-width="2" stroke-linejoin="round"/>
<path d="M77.5 7.93239L78.1379 7.73664C83.4479 6.10705 88.5499 3.87692 93.3427 1.09051L93.5 0.999056C92.6673 5.58462 92.6673 10.2802 93.5 14.8657L93.3427 14.7743C88.5499 11.9879 83.4479 9.75773 78.1379 8.12814L77.5 7.93239Z" fill="black" stroke="black" stroke-width="2" stroke-linejoin="round"/>
</svg>
