<svg width="250" height="259" viewBox="0 0 250 259" fill="none" xmlns="http://www.w3.org/2000/svg">
<path d="M105.965 8C140.85 8 174.307 21.862 198.974 46.5364C223.642 71.2109 237.5 104.677 237.5 139.572C237.5 170.981 225.026 201.104 202.823 223.313C180.62 245.523 150.505 258 119.105 258C105.113 258 91.2588 255.243 78.3325 249.887C65.4062 244.53 53.6613 236.679 43.7686 226.782C33.8759 216.885 26.0291 205.136 20.6763 192.205C15.3235 179.274 12.5696 165.415 12.5719 151.42C12.5719 125.982 22.673 101.586 40.6534 83.5973C58.6339 65.6085 83.0212 55.5003 108.452 55.4957C131.348 55.4957 153.307 64.5938 169.497 80.7887C185.688 96.9836 194.783 118.949 194.783 141.851C194.783 162.464 186.597 182.233 172.026 196.808C157.455 211.383 137.692 219.572 117.085 219.572C98.5432 219.572 80.761 212.204 67.6501 199.089C54.5392 185.975 47.1736 168.188 47.1736 149.641" stroke="black" stroke-width="2" stroke-linejoin="round"/>
<path d="M46.9353 135L47.131 135.637C48.7606 140.947 50.9908 146.049 53.7772 150.842L53.8686 151C49.2831 150.167 44.5875 150.167 40.002 151L40.0934 150.842C42.8798 146.049 45.11 140.947 46.7395 135.637L46.9353 135Z" fill="black" stroke="black" stroke-width="2" stroke-linejoin="round"/>
<path d="M98.002 7.93239L98.6398 7.73664C103.95 6.10705 109.052 3.87692 113.845 1.09051L114.002 0.999056C113.169 5.58462 113.169 10.2802 114.002 14.8657L113.845 14.7743C109.052 11.9879 103.95 9.75773 98.6398 8.12814L98.002 7.93239Z" fill="black" stroke="black" stroke-width="2" stroke-linejoin="round"/>
</svg>
