<svg width="250" height="259" viewBox="0 0 250 259" fill="none" xmlns="http://www.w3.org/2000/svg">
<path d="M105.912 7.99999C140.805 7.99999 174.268 21.861 198.941 46.5338C223.614 71.2066 237.475 104.67 237.475 139.563C237.479 155.114 234.42 170.515 228.472 184.884C222.523 199.253 213.803 212.31 202.807 223.308C191.812 234.307 178.758 243.031 164.391 248.984C150.023 254.936 134.624 258 119.072 258C90.8069 258 63.6996 246.772 43.7133 226.785C23.727 206.799 12.4988 179.692 12.4988 151.427C12.4988 138.831 14.9798 126.358 19.8001 114.721C24.6204 103.084 31.6856 92.51 40.5924 83.6032C49.4991 74.6965 60.073 67.6313 71.7102 62.811C83.3474 57.9907 95.8201 55.5097 108.416 55.5097C131.318 55.5097 153.281 64.6072 169.475 80.8009C185.668 96.9947 194.766 118.958 194.766 141.859" stroke="black" stroke-width="2" stroke-linejoin="round"/>
<path d="M193.933 151L193.737 150.362C192.108 145.052 189.877 139.95 187.091 135.157L187 135C191.585 135.832 196.281 135.832 200.866 135L200.775 135.157C197.988 139.95 195.758 145.052 194.129 150.362L193.933 151Z" fill="black" stroke="black" stroke-width="2" stroke-linejoin="round"/>
<path d="M97.999 7.93239L98.6369 7.73664C103.947 6.10705 109.049 3.87692 113.842 1.09051L113.999 0.999056C113.166 5.58462 113.166 10.2802 113.999 14.8657L113.842 14.7743C109.049 11.9879 103.947 9.75773 98.6369 8.12814L97.999 7.93239Z" fill="black" stroke="black" stroke-width="2" stroke-linejoin="round"/>
</svg>
