<svg width="250" height="259" viewBox="0 0 250 259" fill="none" xmlns="http://www.w3.org/2000/svg">
<path d="M106.051 7.875C140.95 7.875 174.42 21.7388 199.098 46.4165C223.776 71.0943 237.639 104.564 237.639 139.464C237.635 170.87 225.156 200.988 202.947 223.194C180.737 245.4 150.617 257.875 119.211 257.875C90.9443 257.875 63.8352 246.646 43.8475 226.658C23.8598 206.671 12.6309 179.562 12.6309 151.295C12.6309 125.854 22.7371 101.455 40.7263 83.4662C58.7156 65.477 83.1142 55.3707 108.555 55.3707C131.458 55.3707 153.423 64.4689 169.618 80.6637C185.812 96.8586 194.911 118.823 194.911 141.726C194.911 162.339 186.722 182.108 172.147 196.683C157.572 211.258 137.803 219.447 117.19 219.447C108.008 219.449 98.9146 217.642 90.4303 214.13C81.946 210.617 74.2368 205.468 67.7429 198.976C61.249 192.483 56.0976 184.775 52.583 176.292C49.0684 167.808 47.2595 158.716 47.2595 149.533C47.2595 132.841 53.8903 116.833 65.6931 105.031C77.4959 93.2277 93.5039 86.597 110.196 86.597C125.217 86.597 139.623 92.563 150.247 103.183C160.87 113.803 166.84 128.208 166.845 143.229C166.831 156.733 161.461 169.68 151.912 179.229C142.363 188.777 129.416 194.148 115.912 194.162" stroke="black" stroke-width="2" stroke-linejoin="round"/>
<path d="M102.002 194.432L102.64 194.237C107.95 192.607 113.052 190.377 117.845 187.591L118.002 187.499C117.169 192.085 117.169 196.78 118.002 201.366L117.845 201.274C113.052 198.488 107.95 196.258 102.64 194.628L102.002 194.432Z" fill="black" stroke="black" stroke-width="2" stroke-linejoin="round"/>
<path d="M98.002 7.93337L98.6398 7.73762C103.95 6.10803 109.052 3.8779 113.845 1.09149L114.002 1.00003C113.169 5.5856 113.169 10.2811 114.002 14.8667L113.845 14.7752C109.052 11.9888 103.95 9.7587 98.6398 8.12912L98.002 7.93337Z" fill="black" stroke="black" stroke-width="2" stroke-linejoin="round"/>
</svg>
