<svg width="264" height="260" viewBox="0 0 264 260" fill="none" xmlns="http://www.w3.org/2000/svg">
<path d="M262.504 180.967L262.355 181.617C261.111 187.03 260.492 192.564 260.508 198.108L260.509 198.29C256.954 195.276 252.888 192.928 248.5 191.356L248.658 191.266C253.467 188.508 257.95 185.205 262.016 181.421L262.504 180.967Z" fill="black" stroke="black" stroke-width="2" stroke-linejoin="round"/>
<path d="M257 192.013C229.179 235.897 197.619 259 165.494 259C133.368 259 101.809 235.897 73.9873 192.013C46.1659 148.129 23.0627 85.0096 7 9" stroke="black" stroke-width="2" stroke-linejoin="round"/>
<path d="M3.69745 1.29448L3.67345 1.96126C3.47373 7.51212 2.64009 13.0175 1.18909 18.3681L1.14146 18.5438C5.35526 16.5526 9.8908 15.3373 14.5356 14.9548L14.4066 14.8265C10.4747 10.9183 7.00001 6.56726 4.05161 1.85993L3.69745 1.29448Z" fill="black" stroke="black" stroke-width="2" stroke-linejoin="round"/>
</svg>
