<svg width="262" height="261" viewBox="0 0 262 261" fill="none" xmlns="http://www.w3.org/2000/svg">
<path d="M3.69709 1.79537L4.05125 2.36082C6.99965 7.06815 10.4743 11.4191 14.4062 15.3274L14.5353 15.4557C9.89045 15.8382 5.3549 17.0535 1.1411 19.0447L1.18873 18.869C2.63973 13.5184 3.47337 8.01301 3.67309 2.46215L3.69709 1.79537Z" fill="black" stroke="black" stroke-width="2" stroke-linejoin="round"/>
<path d="M257.838 1.79448L257.862 2.46126C258.061 8.01212 258.895 13.5175 260.346 18.8681L260.394 19.0438C256.18 17.0526 251.644 15.8373 247 15.4548L247.129 15.3265C251.06 11.4183 254.535 7.06726 257.484 2.35993L257.838 1.79448Z" fill="black" stroke="black" stroke-width="2" stroke-linejoin="round"/>
<path d="M256 10C243.332 86.0096 225.111 149.129 203.169 193.013C181.227 236.897 156.337 260 131 260C105.663 260 80.7733 236.897 58.8312 193.013C36.8891 149.129 18.6683 86.0096 6 10" stroke="black" stroke-width="2" stroke-linejoin="round"/>
</svg>
