<svg width="268" height="267" viewBox="0 0 268 267" fill="none" xmlns="http://www.w3.org/2000/svg">
<path d="M9 258C9 119.929 120.929 8 259 8" stroke="black" stroke-width="2" stroke-linejoin="round"/>
<path d="M266.499 7.93333L265.861 8.12908C260.551 9.75867 255.449 11.9888 250.656 14.7752L250.499 14.8667C251.332 10.2811 251.332 5.58556 250.499 0.999999L250.656 1.09146C255.449 3.87786 260.551 6.108 265.861 7.73758L266.499 7.93333Z" fill="black" stroke="black" stroke-width="2" stroke-linejoin="round"/>
<path d="M8.43288 266L8.23713 265.362C6.60754 260.052 4.37741 254.95 1.591 250.157L1.49954 250C6.08511 250.833 10.7806 250.833 15.3662 250L15.2748 250.157C12.4883 254.95 10.2582 260.052 8.62863 265.362L8.43288 266Z" fill="black" stroke="black" stroke-width="2" stroke-linejoin="round"/>
</svg>
