<svg width="250" height="252" viewBox="0 0 250 252" fill="none" xmlns="http://www.w3.org/2000/svg">
<path d="M158.34 9.49999C195.575 53.4194 226 98.7144 226 150.74C226 284.792 24 284.047 24 150.74C24.4286 99.1166 54.5662 53.5678 91.4358 9.49999" stroke="black" stroke-width="2" stroke-linejoin="round"/>
<path d="M96.551 3.43151L96.2938 4.04718C94.1532 9.17255 92.6073 14.5218 91.6869 19.9888L91.6567 20.1682C88.6623 16.5969 85.051 13.5957 80.9922 11.3052L81.1631 11.2426C86.3694 9.33762 91.3455 6.83919 95.9928 3.79695L96.551 3.43151Z" fill="black" stroke="black" stroke-width="2" stroke-linejoin="round"/>
<path d="M152.131 3.60263L152.408 4.20961C154.714 9.26263 156.434 14.5588 157.531 19.9929L157.567 20.1712C160.444 16.5044 163.956 13.3873 167.938 10.966L167.765 10.909C162.5 9.17439 157.445 6.83916 152.701 3.94971L152.131 3.60263Z" fill="black" stroke="black" stroke-width="2" stroke-linejoin="round"/>
</svg>
