<svg width="250" height="252" viewBox="0 0 250 252" fill="none" xmlns="http://www.w3.org/2000/svg">
<path d="M226 7.5C175.122 7.5 73.5676 95.8197 73.5676 184.494C73.5675 273.169 175.527 273.169 175.527 184.494C175.527 95.8197 73.3649 7.49999 23.5 7.49998" stroke="black" stroke-width="2" stroke-linejoin="round"/>
<path d="M235 7.93333L234.362 8.12908C229.052 9.75867 223.95 11.9888 219.157 14.7752L219 14.8667C219.833 10.2811 219.833 5.58556 219 1L219.157 1.09146C223.95 3.87787 229.052 6.108 234.362 7.73758L235 7.93333Z" fill="black" stroke="black" stroke-width="2" stroke-linejoin="round"/>
<path d="M13.5 7.93333L14.1379 8.12908C19.4479 9.75867 24.5499 11.9888 29.3427 14.7752L29.5 14.8667C28.6673 10.2811 28.6673 5.58556 29.5 1L29.3427 1.09146C24.5499 3.87787 19.4479 6.108 14.1379 7.73758L13.5 7.93333Z" fill="black" stroke="black" stroke-width="2" stroke-linejoin="round"/>
</svg>
