<svg width="250" height="250" viewBox="0 0 250 250" fill="none" xmlns="http://www.w3.org/2000/svg">
<path d="M172.864 224.137C217.492 268.765 268.847 217.41 224.219 172.783C199.784 148.348 165.645 141.564 124.834 140.414C119.579 140.266 114.234 140.319 108.858 140.604M108.858 140.604C78.4626 142.213 47.0787 151.206 25.4222 172.863C-19.2412 217.526 32.0723 268.84 76.7357 224.176C97.973 202.939 106.917 174.457 108.858 140.604ZM108.858 140.604C109.152 135.476 109.285 130.224 109.276 124.856C109.216 89.8035 102.551 51.1148 76.9069 25.4705C32.2794 -19.157 -19.0755 32.1979 25.552 76.8253" stroke="black" stroke-width="2" stroke-linejoin="round"/>
<path d="M33.2175 84.2161L32.6281 83.9035C27.721 81.301 22.5364 79.2703 17.1771 77.8515L17.0012 77.805C20.8325 75.1513 24.1527 71.8311 26.8064 67.9998L26.853 68.1757C28.2717 73.535 30.3024 78.7196 32.9049 83.6266L33.2175 84.2161Z" fill="black" stroke="black" stroke-width="2" stroke-linejoin="round"/>
<path d="M164.902 216.402L165.491 216.715C170.398 219.317 175.583 221.348 180.942 222.767L181.118 222.813C177.287 225.467 173.966 228.787 171.313 232.618L171.266 232.442C169.847 227.083 167.817 221.899 165.214 216.992L164.902 216.402Z" fill="black" stroke="black" stroke-width="2" stroke-linejoin="round"/>
</svg>
