<svg width="253" height="253" viewBox="0 0 253 253" fill="none" xmlns="http://www.w3.org/2000/svg">
<path d="M126.75 126.75C10.2466 337.696 -84.1964 243.253 126.75 126.75ZM126.75 126.75C243.214 -84.1964 337.657 10.2466 126.75 126.75ZM126.75 126.75C230.832 315.205 317.306 259.921 184.153 162.92M126.75 126.75C22.3598 -62.2636 -64.3188 -6.09111 70.5373 91.4441" stroke="black" stroke-width="2" stroke-linejoin="round"/>
<path d="M171.138 154.394L171.772 154.603C177.049 156.336 182.503 157.459 188.025 157.95L188.206 157.966C184.88 161.23 182.17 165.065 180.203 169.29L180.128 169.125C177.822 164.083 174.942 159.318 171.546 154.922L171.138 154.394Z" fill="black" stroke="black" stroke-width="2" stroke-linejoin="round"/>
<path d="M81.6355 99.4025L81.0016 99.1943C75.7246 97.4607 70.2709 96.3375 64.7487 95.8472L64.5675 95.8311C67.8939 92.5668 70.6037 88.7321 72.57 84.5066L72.6457 84.6721C74.9517 89.7136 77.8314 94.4793 81.2275 98.8745L81.6355 99.4025Z" fill="black" stroke="black" stroke-width="2" stroke-linejoin="round"/>
</svg>
