<svg width="250" height="250" viewBox="0 0 250 250" fill="none" xmlns="http://www.w3.org/2000/svg">
<path d="M151 152.93C163.481 168.331 172.5 184.497 172.5 202.581C172.5 261.272 77.7622 259.668 77.5005 202.581C77.2388 145.494 171.977 105.405 172.5 47.6762C172.5 -9.73161 77.5005 -10.0523 77.5005 47.6762C77.5005 65.7696 86.8326 81.9727 99.647 97.5" stroke="black" stroke-width="2" stroke-linejoin="round"/>
<path d="M143.9 146.578L144.475 146.917C149.257 149.742 154.343 152.009 159.631 153.673L159.805 153.727C155.855 156.202 152.386 159.366 149.559 163.072L149.521 162.894C148.35 157.475 146.559 152.203 144.185 147.181L143.9 146.578Z" fill="black" stroke="black" stroke-width="2" stroke-linejoin="round"/>
<path d="M105.334 104.29L104.76 103.951C99.9776 101.126 94.8918 98.8588 89.6033 97.1953L89.4297 97.1407C93.3789 94.6659 96.8483 91.5018 99.6752 87.7965L99.7136 87.9743C100.885 93.3932 102.675 98.6656 105.049 103.687L105.334 104.29Z" fill="black" stroke="black" stroke-width="2" stroke-linejoin="round"/>
</svg>
