<svg width="250" height="250" viewBox="0 0 250 250" fill="none" xmlns="http://www.w3.org/2000/svg">
<path d="M97.6578 152.544C130.823 153.351 163.305 163.804 177.326 177.825C151.556 152.055 137.494 60.5223 176.385 21.6313C215.276 -17.2597 267.968 35.4328 229.077 74.3238C190.186 113.215 98.9679 99.4673 72.674 73.1734C86.4157 86.9151 96.8283 119.356 97.6578 152.544ZM97.6578 152.544C68.628 151.837 39.0751 158.522 20.9224 176.675C-17.9686 215.566 34.7239 268.258 73.615 229.367C91.7676 211.215 98.3839 181.593 97.6578 152.544Z" stroke="black" stroke-width="2" stroke-linejoin="round"/>
<path d="M182.531 183.436L181.942 183.123C177.034 180.521 171.85 178.49 166.491 177.071L166.315 177.025C170.146 174.371 173.466 171.051 176.12 167.219L176.166 167.395C177.585 172.755 179.616 177.939 182.218 182.846L182.531 183.436Z" fill="black" stroke="black" stroke-width="2" stroke-linejoin="round"/>
<path d="M66.5661 67.47L66.8788 68.0594C69.4812 72.9665 71.512 78.1511 72.9307 83.5104L72.9772 83.6863C75.6309 79.855 78.9512 76.5348 82.7825 73.8811L82.6066 73.8345C77.2473 72.4158 72.0626 70.3851 67.1556 67.7826L66.5661 67.47Z" fill="black" stroke="black" stroke-width="2" stroke-linejoin="round"/>
</svg>
