<svg width="257" height="253" viewBox="0 0 257 253" fill="none" xmlns="http://www.w3.org/2000/svg">
<path d="M250.268 70.0087C240.014 116.29 211.584 158.224 179.142 156.182C143.771 153.955 107.907 100.174 107.907 43.9419C107.907 -12.2905 155.682 -12.2905 155.682 43.9419C155.682 74.3294 144.639 105.132 128.767 126.768M125.805 130.997C140.002 151.985 149.628 180.46 149.628 209.593C149.628 265.826 101.853 265.826 101.853 209.593C101.853 181.135 111.538 152.312 125.805 130.997ZM125.805 130.997C112.6 111.473 95.4394 98.4266 78.3935 97.3534C45.951 95.3107 17.5207 137.245 7.26758 183.526M125.805 130.997C126.772 129.552 127.76 128.141 128.768 126.768" stroke="black" stroke-width="2" stroke-linejoin="round"/>
<path d="M252.57 59.0621L252.594 59.7288C252.794 65.2797 253.627 70.7851 255.078 76.1357L255.126 76.3113C250.912 74.3202 246.377 73.1049 241.732 72.7224L241.861 72.5941C245.793 68.6858 249.268 64.3348 252.216 59.6275L252.57 59.0621Z" fill="black" stroke="black" stroke-width="2" stroke-linejoin="round"/>
<path d="M4.42987 194.017L4.40588 193.35C4.20615 187.799 3.37252 182.294 1.92151 176.943L1.87389 176.768C6.08768 178.759 10.6232 179.974 15.2681 180.357L15.139 180.485C11.2071 184.393 7.73243 188.744 4.78403 193.452L4.42987 194.017Z" fill="black" stroke="black" stroke-width="2" stroke-linejoin="round"/>
</svg>
