<svg width="250" height="250" viewBox="0 0 250 250" fill="none" xmlns="http://www.w3.org/2000/svg">
<path d="M113.364 242.819C172.788 233.76 222.294 207.525 224.089 176.726C226.204 140.416 152.124 102.545 79.8707 102.545C7.61733 102.545 7.61732 150.39 79.8707 150.39C152.124 150.39 221.227 114.474 224.089 79.0507C226.713 46.5601 172.832 18.0877 113.364 7.81933" stroke="black" stroke-width="2" stroke-linejoin="round"/>
<path d="M100.711 7.05155L101.363 6.91213C106.795 5.75155 112.072 3.97457 117.089 1.61649L117.254 1.53909C116.025 6.03463 115.616 10.7123 116.046 15.353L115.897 15.2482C111.365 12.0546 106.477 9.38833 101.329 7.30214L100.711 7.05155Z" fill="black" stroke="black" stroke-width="2" stroke-linejoin="round"/>
<path d="M100.711 243.447L101.363 243.586C106.795 244.746 112.072 246.523 117.089 248.882L117.254 248.959C116.025 244.463 115.616 239.786 116.046 235.145L115.897 235.25C111.365 238.443 106.477 241.11 101.329 243.196L100.711 243.447Z" fill="black" stroke="black" stroke-width="2" stroke-linejoin="round"/>
</svg>
