<svg width="250" height="250" viewBox="0 0 250 250" fill="none" xmlns="http://www.w3.org/2000/svg">
<path d="M23.5 208.154C42.8171 186.696 65.5063 134.702 65.5063 82.5478C65.5063 14.4841 26.709 14.4841 26.709 82.5478C26.7089 150.612 52.4855 215.449 82.4082 218.403C113.616 221.484 142.561 150.612 142.561 82.5478C142.561 14.4841 103.764 14.4841 103.764 82.5478C103.764 150.612 131.058 216.875 161.612 218.403C192.837 219.965 221.765 150.612 221.765 82.5478C221.765 14.4841 182.968 14.4841 182.968 82.5478C182.968 134.702 205.793 186.696 225 208.154" stroke="black" stroke-width="2" stroke-linejoin="round"/>
<path d="M19.0053 217.323L19.1547 216.673C20.3985 211.26 21.0181 205.726 21.0014 200.182L21.0009 200C24.5557 203.014 28.6222 205.362 33.0098 206.934L32.8519 207.024C28.0424 209.782 23.5601 213.085 19.4938 216.869L19.0053 217.323Z" fill="black" stroke="black" stroke-width="2" stroke-linejoin="round"/>
<path d="M229.006 217.323L228.857 216.673C227.613 211.26 226.994 205.726 227.01 200.182L227.011 200C223.456 203.014 219.39 205.362 215.002 206.934L215.16 207.024C219.969 209.782 224.452 213.085 228.518 216.869L229.006 217.323Z" fill="black" stroke="black" stroke-width="2" stroke-linejoin="round"/>
</svg>
