<svg width="251" height="253" viewBox="0 0 251 253" fill="none" xmlns="http://www.w3.org/2000/svg">
<path d="M239.196 244.378C65.8736 252.508 -103.628 249.189 86.5542 202.352C-79.105 134.617 281.344 89.5936 172.973 9.71104" stroke="black" stroke-width="2" stroke-linejoin="round"/>
<path d="M249.464 243.84L248.836 244.065C243.609 245.945 238.619 248.415 233.963 251.425L233.811 251.524C234.425 246.904 234.202 242.214 233.153 237.673L233.314 237.757C238.234 240.313 243.436 242.298 248.817 243.674L249.464 243.84Z" fill="black" stroke="black" stroke-width="2" stroke-linejoin="round"/>
<path d="M164.676 2.16717L165.287 2.43521C170.373 4.66653 175.694 6.30711 181.144 7.3244L181.323 7.35779C177.699 10.2883 174.634 13.8457 172.272 17.8633L172.213 17.6913C170.4 12.452 167.991 7.43231 165.031 2.73181L164.676 2.16717Z" fill="black" stroke="black" stroke-width="2" stroke-linejoin="round"/>
</svg>
