<svg width="250" height="250" viewBox="0 0 250 250" fill="none" xmlns="http://www.w3.org/2000/svg">
<path d="M26.1456 239.246C-9.92947 152.604 24.1265 49.2625 179.863 150.836C79.8991 -110.893 290.231 137.238 223.753 18.7891" stroke="black" stroke-width="2" stroke-linejoin="round"/>
<path d="M26.6818 242.857L26.2692 242.332C22.834 237.967 18.9137 234.013 14.5862 230.548L14.4441 230.434C19.0214 229.557 23.4008 227.863 27.3774 225.433L27.3488 225.612C26.4787 231.088 26.2389 236.651 26.6343 242.191L26.6818 242.857Z" fill="black" stroke="black" stroke-width="2" stroke-linejoin="round"/>
<path d="M217.297 8.46717L217.786 8.92169C221.852 12.7055 226.335 16.0089 231.144 18.7664L231.302 18.8569C226.914 20.4286 222.848 22.7763 219.293 25.7902L219.294 25.6083C219.31 20.0644 218.691 14.5309 217.447 9.11744L217.297 8.46717Z" fill="black" stroke="black" stroke-width="2" stroke-linejoin="round"/>
</svg>
