<svg width="250" height="250" viewBox="0 0 250 250" fill="none" xmlns="http://www.w3.org/2000/svg">
<path d="M147.608 70.1984C101.137 64.7709 58.3456 70.4462 32.7696 96.2489C-48.1332 177.869 72.5298 299.412 153.883 217.363C183.878 187.112 187.492 137.64 175.215 74.5936C173.205 63.585 172.36 53.5748 173.046 44.7608C173.944 33.214 177.469 23.7201 184.443 16.7235C217.712 -16.6546 266.288 31.8606 232.989 65.2692C226.015 72.266 216.54 75.8104 205.011 76.726" stroke="black" stroke-width="2" stroke-linejoin="round"/>
<path d="M158.844 70.0176L158.201 70.1957C152.848 71.678 147.686 73.7664 142.818 76.4194L142.658 76.5065C143.617 71.9457 143.747 67.2519 143.041 62.6451L143.196 62.7409C147.91 65.6586 152.949 68.0287 158.212 69.8043L158.844 70.0176Z" fill="black" stroke="black" stroke-width="2" stroke-linejoin="round"/>
<path d="M191.656 76.5784L192.294 76.3826C197.604 74.753 202.706 72.5229 207.499 69.7365L207.656 69.6451C206.824 74.2306 206.824 78.9262 207.656 83.5117L207.499 83.4203C202.706 80.6339 197.604 78.4037 192.294 76.7741L191.656 76.5784Z" fill="black" stroke="black" stroke-width="2" stroke-linejoin="round"/>
</svg>
