<svg width="250" height="252" viewBox="0 0 250 252" fill="none" xmlns="http://www.w3.org/2000/svg">
<path d="M125.239 11.5322C193.026 11.5322 247.979 35.2698 247.979 64.5516C247.979 93.8334 193.026 117.571 125.239 117.571C57.4516 117.571 2.49902 107.591 2.49902 95.2806C2.49902 82.9699 57.4516 72.9902 125.239 72.9902C193.026 72.9902 247.979 96.7278 247.979 126.01C247.979 155.291 193.026 179.029 125.239 179.029C57.4516 179.029 2.49902 169.049 2.49902 156.739C2.49902 144.428 57.4516 134.448 125.239 134.448C193.026 134.448 247.979 158.186 247.979 187.468C247.979 216.749 193.026 240.487 125.239 240.487C57.4516 240.487 2.49902 230.507 2.49902 218.196C2.49902 205.886 57.4516 195.906 125.239 195.906" stroke="black" stroke-width="2" stroke-linejoin="round"/>
<path d="M136.489 11.5319L113.989 1V22.0638L136.489 11.5319Z" fill="#F9F9F9" stroke="black" stroke-width="2" stroke-linejoin="round"/>
<path d="M131.405 117.738L154.63 126.854L153.077 105.839L131.405 117.738Z" fill="#F9F9F9" stroke="black" stroke-width="2" stroke-linejoin="round"/>
<path d="M137.131 73.0278L114.673 62.4209L114.589 83.4846L137.131 73.0278Z" fill="#F9F9F9" stroke="black" stroke-width="2" stroke-linejoin="round"/>
<path d="M130.11 179.216L153.28 188.449L151.854 167.426L130.11 179.216Z" fill="#F9F9F9" stroke="black" stroke-width="2" stroke-linejoin="round"/>
<path d="M138.733 134.55L116.339 123.831L116.129 144.894L138.733 134.55Z" fill="#F9F9F9" stroke="black" stroke-width="2" stroke-linejoin="round"/>
<path d="M128.818 240.706L151.951 250.018L150.609 228.99L128.818 240.706Z" fill="#F9F9F9" stroke="black" stroke-width="2" stroke-linejoin="round"/>
<path d="M136.005 195.898L113.496 185.382L113.514 206.446L136.005 195.898Z" fill="#F9F9F9" stroke="black" stroke-width="2" stroke-linejoin="round"/>
</svg>
