<svg width="258" height="250" viewBox="0 0 258 250" fill="none" xmlns="http://www.w3.org/2000/svg">
<path d="M245.013 124.763C245.013 192.556 212.063 247.513 171.417 247.513C130.771 247.513 97.8216 192.556 97.8216 124.763C97.8216 56.9697 111.674 2.01269 128.763 2.01269C145.851 2.01269 159.704 56.9697 159.704 124.763C159.704 192.556 126.754 247.513 86.1082 247.513C45.4625 247.513 12.5127 192.556 12.5127 124.763" stroke="black" stroke-width="2" stroke-linejoin="round"/>
<path d="M245.013 136.013L256.513 113.513L233.513 113.513L245.013 136.013Z" fill="#F9F9F9" stroke="black" stroke-width="2" stroke-linejoin="round"/>
<path d="M98.8453 144.379L91.1768 168.456L113.868 164.697L98.8453 144.379Z" fill="#F9F9F9" stroke="black" stroke-width="2" stroke-linejoin="round"/>
<path d="M159.333 103.879L168.92 80.5L146 82.4147L159.333 103.879Z" fill="#F9F9F9" stroke="black" stroke-width="2" stroke-linejoin="round"/>
<path d="M12.487 113.997L1.03906 136.523L24.039 136.47L12.487 113.997Z" fill="#F9F9F9" stroke="black" stroke-width="2" stroke-linejoin="round"/>
</svg>
