<svg width="250" height="250" viewBox="0 0 250 250" fill="none" xmlns="http://www.w3.org/2000/svg">
<path d="M151.736 109.353C153.167 109.353 154.584 109.072 155.906 108.526C157.228 107.979 158.43 107.178 159.441 106.169C160.453 105.159 161.256 103.961 161.804 102.641C162.351 101.322 162.633 99.9084 162.633 98.4806C162.641 96.6906 162.294 94.9167 161.613 93.2607C160.932 91.6047 159.929 90.0992 158.663 88.8308C157.397 87.5623 155.893 86.5558 154.236 85.869C152.579 85.1823 150.803 84.8288 149.008 84.8288C144.49 84.8318 140.158 86.624 136.963 89.8116C133.768 92.9992 131.972 97.3216 131.969 101.83C131.969 107.464 134.212 112.868 138.205 116.852C142.199 120.837 147.615 123.075 153.263 123.075C160.323 123.075 167.094 120.277 172.086 115.296C177.078 110.315 179.883 103.559 179.883 96.5154C179.883 87.7104 176.377 79.266 170.137 73.0399C163.896 66.8138 155.433 63.3161 146.607 63.3161C135.577 63.3191 125 67.693 117.201 75.4758C109.403 83.2586 105.022 93.8131 105.022 104.818C105.022 118.576 110.5 131.771 120.25 141.499C128.478 149.708 139.18 154.882 150.607 156.297C152.722 156.56 154.862 156.693 157.016 156.693C165.256 156.691 173.335 155.128 180.855 152.168C189.062 148.938 196.604 144.043 202.962 137.697C204.579 136.084 206.101 134.395 207.526 132.638C215.18 123.201 220.022 111.81 221.506 99.776C221.829 97.1607 221.993 94.515 221.993 91.8524C221.995 81.2092 219.895 70.67 215.814 60.8365C211.732 51.0031 205.75 42.068 198.207 34.5416C190.664 27.0152 181.71 21.0449 171.854 16.9716C161.999 12.8983 151.436 10.8018 140.768 10.8018C127.433 10.8002 114.228 13.4195 101.907 18.51C89.5862 23.6005 78.3911 31.0625 68.9611 40.4699C59.531 49.8773 52.0506 61.0459 46.947 73.3378C41.8434 85.6298 39.2166 98.8043 39.2166 112.109C39.2166 145.698 52.5902 177.911 76.3954 201.661C88.1826 213.422 102.176 222.75 117.577 229.115C128.166 233.491 139.278 236.407 150.607 237.802" stroke="black" stroke-width="2" stroke-linejoin="round"/>
<path d="M118.717 139.767L116.429 115.049L97.1147 127.538L118.717 139.767Z" fill="#F9F9F9" stroke="black" stroke-width="2" stroke-linejoin="round"/>
<path d="M146.089 62.9948L163.756 80.4346L170.493 58.4434L146.089 62.9948Z" fill="#F9F9F9" stroke="black" stroke-width="2" stroke-linejoin="round"/>
<path d="M192.503 146.088L167.759 144.091L176.74 165.265L192.503 146.088Z" fill="#F9F9F9" stroke="black" stroke-width="2" stroke-linejoin="round"/>
<path d="M150.462 11.1341L168.887 27.7705L174.639 5.50135L150.462 11.1341Z" fill="#F9F9F9" stroke="black" stroke-width="2" stroke-linejoin="round"/>
<path d="M39.9972 125.894L50.9941 103.639L28.0001 104.162L39.9972 125.894Z" fill="#F9F9F9" stroke="black" stroke-width="2" stroke-linejoin="round"/>
<path d="M161.442 239.143L141.021 225.027L138.196 247.853L161.442 239.143Z" fill="#F9F9F9" stroke="black" stroke-width="2" stroke-linejoin="round"/>
</svg>
