<svg width="253" height="253" viewBox="0 0 253 253" fill="none" xmlns="http://www.w3.org/2000/svg">
<path d="M126.404 126.098C101.277 101.699 76.0399 77.3493 46.2853 77.0801C-13.262 77.0801 -13.5946 175.419 46.2853 175.419C76.2866 175.419 101.278 150.733 126.404 126.098ZM126.404 126.098C151.845 150.802 177.173 175.555 206.963 175.419C266.178 175.148 267.841 77.0801 206.963 77.0801C176.587 77.0801 151.428 101.564 126.404 126.098Z" stroke="black" stroke-width="2" stroke-linejoin="round"/>
<path d="M56.7755 78.6567L35.8945 67.5L35.6961 89.4338L56.7755 78.6567Z" fill="#F9F9F9" stroke="black" stroke-width="2" stroke-linejoin="round"/>
<path d="M195.555 174.466L216.411 185.67L216.659 163.737L195.555 174.466Z" fill="#F9F9F9" stroke="black" stroke-width="2" stroke-linejoin="round"/>
<path d="M127.237 126.239C151.636 101.112 175.986 75.8749 176.255 46.1203C176.255 -13.427 77.9159 -13.7597 77.9159 46.1203C77.9159 76.1216 102.602 101.112 127.237 126.239ZM127.237 126.239C102.533 151.679 77.7796 177.008 77.9159 206.798C78.1868 266.013 176.255 267.676 176.255 206.798C176.255 176.422 151.771 151.263 127.237 126.239Z" stroke="black" stroke-width="2" stroke-linejoin="round"/>
<path d="M174.678 56.6104L185.835 35.7295L163.901 35.531L174.678 56.6104Z" fill="#F9F9F9" stroke="black" stroke-width="2" stroke-linejoin="round"/>
<path d="M78.8687 195.39L67.665 216.246L89.5983 216.494L78.8687 195.39Z" fill="#F9F9F9" stroke="black" stroke-width="2" stroke-linejoin="round"/>
</svg>
