<svg width="250" height="250" viewBox="0 0 250 250" fill="none" xmlns="http://www.w3.org/2000/svg">
<path d="M241.5 222.163C212.812 222.163 154.037 147.385 154.037 72.308C154.037 -2.76935 212.696 -2.76935 212.696 72.308C212.696 147.385 168.834 237.053 121.75 233.391C76.614 229.881 37.5375 147.385 37.5375 72.3081C37.5375 -2.76933 96.1957 -2.76933 96.1957 72.3081C96.1957 147.385 37.7708 222.163 8.5 222.163" stroke="black" stroke-width="2" stroke-linejoin="round"/>
<path d="M222.099 213.791L235.835 235L247.335 215.081L222.099 213.791Z" fill="#F9F9F9" stroke="black" stroke-width="2" stroke-linejoin="round"/>
<path d="M153.616 71.7726L143.763 95.041L166.703 93.3878L153.616 71.7726Z" fill="#F9F9F9" stroke="black" stroke-width="2" stroke-linejoin="round"/>
<path d="M209.845 108.537L223.912 87.5459L201.072 84.8398L209.845 108.537Z" fill="#F9F9F9" stroke="black" stroke-width="2" stroke-linejoin="round"/>
<path d="M37.567 83.7442L28.3369 107.267L51.2253 105.003L37.567 83.7442Z" fill="#F9F9F9" stroke="black" stroke-width="2" stroke-linejoin="round"/>
<path d="M94.68 96.3865L108.054 74.9473L85.1372 72.9892L94.68 96.3865Z" fill="#F9F9F9" stroke="black" stroke-width="2" stroke-linejoin="round"/>
<path d="M7.2488 225.21L32.4844 223.919L20.9844 204L7.2488 225.21Z" fill="#F9F9F9" stroke="black" stroke-width="2" stroke-linejoin="round"/>
</svg>
