<svg width="250" height="250" viewBox="0 0 250 250" fill="none" xmlns="http://www.w3.org/2000/svg">
<path d="M147.608 70.0353C101.137 64.6078 58.3456 70.2831 32.7696 96.0858C-48.1332 177.706 72.5298 299.249 153.883 217.2C183.878 186.949 187.492 137.477 175.215 74.4305C173.205 63.4219 172.36 53.4118 173.046 44.5977C173.944 33.051 177.469 23.557 184.443 16.5604C217.712 -16.8177 266.288 31.6975 232.989 65.1062C226.015 72.1029 216.54 75.6473 205.011 76.5629" stroke="black" stroke-width="2" stroke-linejoin="round"/>
<path d="M136.433 68.7302L157.447 82.7627L160.115 59.918L136.433 68.7302Z" fill="#F9F9F9" stroke="black" stroke-width="2" stroke-linejoin="round"/>
<path d="M23.0542 106.281L46.8867 97.8838L30.2083 82.0461L23.0542 106.281Z" fill="#F9F9F9" stroke="black" stroke-width="2" stroke-linejoin="round"/>
<path d="M33.401 219.836L28.0137 195.148L10.2363 209.742L33.401 219.836Z" fill="#F9F9F9" stroke="black" stroke-width="2" stroke-linejoin="round"/>
<path d="M147.024 224.402L121.922 227.302L134.67 246.445L147.024 224.402Z" fill="#F9F9F9" stroke="black" stroke-width="2" stroke-linejoin="round"/>
<path d="M180.625 108.635L170.557 131.811L193.511 130.37L180.625 108.635Z" fill="#F9F9F9" stroke="black" stroke-width="2" stroke-linejoin="round"/>
<path d="M210.924 5.46202L186 1.30273L192.954 23.2264L210.924 5.46202Z" fill="#F9F9F9" stroke="black" stroke-width="2" stroke-linejoin="round"/>
<path d="M193.88 77.4592L217.23 87.1152L215.384 64.1895L193.88 77.4592Z" fill="#F9F9F9" stroke="black" stroke-width="2" stroke-linejoin="round"/>
</svg>
