<svg width="250" height="251" viewBox="0 0 250 251" fill="none" xmlns="http://www.w3.org/2000/svg">
<path d="M237.719 99.1477C232.812 71.0965 218.061 46.4309 197.158 28.8431C186.663 20.0131 174.618 12.9671 161.489 8.17225C148.783 3.53191 135.062 1 120.75 1C106.523 1 92.8795 3.50205 80.2369 8.09013M44.4921 28.7172C23.5201 46.304 8.7146 71.0039 3.78843 99.104C2.61296 105.809 2 112.708 2 119.75C2 126.792 2.61296 133.691 3.78843 140.396C8.7146 168.496 23.5201 193.196 44.4921 210.783M80.2368 231.41C92.8795 235.998 106.523 238.5 120.75 238.5C135.062 238.5 148.783 235.968 161.489 231.328C174.618 226.533 186.663 219.487 197.158 210.657C218.061 193.069 232.812 168.404 237.719 140.352" stroke="black" stroke-width="2" stroke-linejoin="round"/>
<path d="M240.006 109.63L244.846 87L224.499 92.4518L240.006 109.63Z" fill="#F9F9F9" stroke="black" stroke-width="2" stroke-linejoin="round"/>
<path d="M68.8808 226.291L84.1562 243.675L91.9178 224.093L68.8808 226.291Z" fill="#F9F9F9" stroke="black" stroke-width="2" stroke-linejoin="round"/>
<path d="M53.0921 21.6174L30.5 26.6309L43.9222 42.8648L53.0921 21.6174Z" fill="#F9F9F9" stroke="black" stroke-width="2" stroke-linejoin="round"/>
</svg>
