<svg width="250" height="250" viewBox="0 0 250 250" fill="none" xmlns="http://www.w3.org/2000/svg">
<path d="M212.274 82.7705C167.565 127.763 75.4581 130.75 24.4075 84.2198C-26.6431 37.69 31.0141 -25.5691 82.0646 20.9607C109.652 46.105 124.775 125.134 124.775 125.134C124.775 125.134 139.9 204.161 167.487 229.305C218.538 275.835 276.195 212.576 225.145 166.046C174.094 119.516 81.9873 122.503 37.2777 167.495" stroke="black" stroke-width="2" stroke-linejoin="round"/>
<path d="M204.521 90.5735L228.186 83.0742L211.871 66.8622L204.521 90.5735Z" fill="#F9F9F9" stroke="black" stroke-width="2" stroke-linejoin="round"/>
<path d="M28.2979 88.2926L40.0967 110.134L52.9662 91.0714L28.2979 88.2926Z" fill="#F9F9F9" stroke="black" stroke-width="2" stroke-linejoin="round"/>
<path d="M100.808 47.5329L97.0156 23L78.4997 36.6441L100.808 47.5329Z" fill="#F9F9F9" stroke="black" stroke-width="2" stroke-linejoin="round"/>
<path d="M163.976 225.971L159.801 201.5L141.5 215.432L163.976 225.971Z" fill="#F9F9F9" stroke="black" stroke-width="2" stroke-linejoin="round"/>
<path d="M201.337 148.705L213.403 170.399L226.038 151.18L201.337 148.705Z" fill="#F9F9F9" stroke="black" stroke-width="2" stroke-linejoin="round"/>
<path d="M29.808 174.941L53.5078 167.554L37.2702 151.264L29.808 174.941Z" fill="#F9F9F9" stroke="black" stroke-width="2" stroke-linejoin="round"/>
</svg>
