<svg width="250" height="250" viewBox="0 0 250 250" fill="none" xmlns="http://www.w3.org/2000/svg">
<path d="M62.25 42.5002C46.2499 64.0002 54.4183 79.8435 58.998 84.2597C64.6652 89.7245 73.7144 91.8756 81.3147 92.3255C92.4286 92.9834 103.886 92.2226 114.312 88.5001C127.232 83.8876 142.678 77.0439 149.25 61.7501C153.158 52.656 151.7 41.7001 138.5 39.5001C120.899 37.4734 105.513 48.0735 94.2499 61.7501C87.2499 70.2501 82.5043 77.3357 78.7584 84.1862C74.3881 92.1786 71.0024 100.869 69.4144 109.867C68.1584 116.985 67.5882 124.71 69.2381 131.817C70.7266 138.229 74.7695 144.117 79.9337 148.154C95.3188 160.183 120.901 162.182 138.5 157C196.006 139.496 198.746 110.117 188 99.0002C180.75 91.5002 162.285 92.3255 145.25 106.25C132.883 116.359 127.288 124.798 121.5 134.75C115.013 147.873 107.186 179.556 127.77 201.309C134.172 207.112 142.074 209.326 150.601 209.536C166.587 209.931 180.853 203.407 195.176 197.225M195.176 197.225L169 191.75M195.176 197.225L180.5 218.25" stroke="black" stroke-width="2" stroke-linecap="square" stroke-linejoin="round"/>
</svg>
