<svg width="250" height="250" viewBox="0 0 250 250" fill="none" xmlns="http://www.w3.org/2000/svg">
<path d="M57.1646 192.546C56.4146 187.546 58.2227 182.971 62.6914 182.432C66.6251 181.958 69.0664 187.213 70.5894 188.8C75.4416 193.859 78.6555 189.701 81.9223 184.939C87.5158 176.786 90.9833 166.224 90.1963 156.256C89.5055 147.505 84.5687 143.811 79.9165 147.505C76.1646 150.485 75.6646 156.546 75.6646 162.296C75.6646 168.29 76.1646 171.188 77.1584 175.612C78.8753 183.255 83.98 194.784 93.5561 194.316C102.557 193.877 108.26 185.259 112.035 178.119C117.576 167.639 119.137 156.523 118.504 144.772C117.362 123.591 110.435 115.23 112.035 96.2962C113.535 78.5462 124.415 68.5462 140.915 78.0462C157.415 87.5462 166.75 86.7962 172.25 78.0462C177.75 69.2962 177.375 51 177.375 51M177.375 51C171.859 56.1744 163.25 64.25 163.25 64.25M177.375 51C181.036 57.346 186.75 67.25 186.75 67.25" stroke="black" stroke-width="2" stroke-linecap="square" stroke-linejoin="round"/>
</svg>
