<svg width="250" height="250" viewBox="0 0 250 250" fill="none" xmlns="http://www.w3.org/2000/svg">
<path d="M3.5 46.7309C10.1462 43.1585 24.2858 40.5997 27.6754 58.9434C31.9123 81.8731 24.8549 114.512 47.8631 119.508C79.6008 126.399 93.1606 89.9198 111.935 100.267C127.94 109.086 112.262 129.356 89.7258 148.612C73.2719 162.671 38.551 178.247 50.2056 194.018C61.3105 209.044 79.0674 191.899 99.9706 155.64C116.18 127.523 130.999 124.934 154.842 130.319C179.774 135.95 187.383 203.5 156.278 203.5C121.732 203.5 138.334 156.893 163.257 115.52C188.18 74.1468 197.664 40.5 176.965 40.5C148.516 40.5 138.085 112.529 246.5 112.529M246.5 112.529L214.1 88.8517M246.5 112.529L210.112 131.969" stroke="black" stroke-width="2" stroke-linecap="round" stroke-linejoin="round"/>
</svg>
