<svg width="250" height="250" viewBox="0 0 250 250" fill="none" xmlns="http://www.w3.org/2000/svg">
<path d="M7.5 181.35C13.6068 189.57 24.6038 200.182 35.4097 200.966C43.0975 201.524 46.7524 195.117 49.3237 188.788C55.1166 174.527 57.9289 158.487 58.8179 143.18C59.6699 128.511 59.5072 99.311 40.3348 93.613C24.1708 88.8091 16.9747 107.399 19.2428 122.843C23.4968 151.811 39.0288 170.383 60.8641 181.84C81.0652 192.44 94.5524 172.787 99.5776 155.277C104.721 137.356 106.518 117.817 104.325 99.289C102.428 82.2088 87.4689 42.2453 66.8074 49.9828C51.3218 55.782 56.3936 91.2614 62.0724 107.154C70.0606 129.509 78.5662 140.837 92.1295 155.849C102.916 167.787 126.333 188.97 146.225 178.08C159.69 170.708 165.595 160.159 169.469 143.18C173.075 127.379 174.42 111.452 171.521 96.4283C168.367 80.083 155.643 82.8666 155.643 97.9812C155.643 122.768 171.352 145.032 192.228 149.882C214.191 154.985 230.808 116.916 232.315 103.5M232.315 103.5L207.995 118.33M232.315 103.5L242 129.936" stroke="black" stroke-width="2" stroke-linecap="square" stroke-linejoin="round"/>
</svg>
