<svg width="250" height="250" viewBox="0 0 250 250" fill="none" xmlns="http://www.w3.org/2000/svg">
<path d="M24.9542 229.676C41.4561 230.142 83.829 221.214 82.5295 179.372C80.9824 129.554 34.0309 142.27 38.37 167.018C42.7091 191.767 73.0297 209.234 97.0734 193.916C121.117 178.599 147.373 139.253 124.112 108.702C100.85 78.1517 71.938 113.702 99.5717 138.42C127.205 163.138 161.059 123.262 170.705 110.104C191.673 81.5009 161.066 46.9087 143.614 58.3427C118.733 74.6441 143.987 117.064 178.219 106.103C212.45 95.1417 220.275 57.6254 210.859 16.1376M210.859 16.1376L190.501 43.5006M210.859 16.1376L237.001 38.7506" stroke="black" stroke-width="2" stroke-linecap="square" stroke-linejoin="round"/>
</svg>
