<svg width="252" height="253" viewBox="0 0 252 253" fill="none" xmlns="http://www.w3.org/2000/svg">
<path d="M101.128 101.849L113.322 114.043" stroke="black" stroke-width="2" stroke-linejoin="round"/>
<path d="M138.707 139.43L150.901 151.624" stroke="black" stroke-width="2" stroke-linejoin="round"/>
<path d="M163.612 164.335L175.806 176.529" stroke="black" stroke-width="2" stroke-linejoin="round"/>
<path d="M213.872 214.596L226.066 226.79" stroke="black" stroke-width="2" stroke-linejoin="round"/>
<path d="M238.778 239.5L250.972 251.694" stroke="black" stroke-width="2" stroke-linejoin="round"/>
<path d="M150.931 101.849L138.737 114.043" stroke="black" stroke-width="2" stroke-linejoin="round"/>
<path d="M175.841 76.9437L163.647 89.1377" stroke="black" stroke-width="2" stroke-linejoin="round"/>
<path d="M200.738 52.0401L188.544 64.2341" stroke="black" stroke-width="2" stroke-linejoin="round"/>
<path d="M225.647 27.1355L213.453 39.3295" stroke="black" stroke-width="2" stroke-linejoin="round"/>
<path d="M251.002 1.77902L238.808 13.9731" stroke="black" stroke-width="2" stroke-linejoin="round"/>
<path d="M112.868 139.915L100.674 152.109" stroke="black" stroke-width="2" stroke-linejoin="round"/>
<path d="M92.9756 127.206H75.7306" stroke="black" stroke-width="2" stroke-linejoin="round"/>
<path d="M145.5 68.3405L151.071 52.0203" stroke="black" stroke-width="2" stroke-linejoin="round"/>
<path d="M168.142 42.9841L175.86 27.5627" stroke="black" stroke-width="2" stroke-linejoin="round"/>
<path d="M191.688 16.7218L200.687 2.01042" stroke="black" stroke-width="2" stroke-linejoin="round"/>
<path d="M125.576 177.014V159.769" stroke="black" stroke-width="2" stroke-linejoin="round"/>
<path d="M150.479 201.917L145.47 185.415" stroke="black" stroke-width="2" stroke-linejoin="round"/>
<path d="M175.388 226.822L167.771 211.35" stroke="black" stroke-width="2" stroke-linejoin="round"/>
<path d="M200.738 252.18L191.971 237.329" stroke="black" stroke-width="2" stroke-linejoin="round"/>
<path d="M251.002 201.917L236.152 193.15" stroke="black" stroke-width="2" stroke-linejoin="round"/>
<path d="M225.647 176.559L210.176 168.942" stroke="black" stroke-width="2" stroke-linejoin="round"/>
<path d="M200.738 151.656L184.425 146.066" stroke="black" stroke-width="2" stroke-linejoin="round"/>
<path d="M175.841 126.752H158.596" stroke="black" stroke-width="2" stroke-linejoin="round"/>
<path d="M200.738 101.849L184.295 107.045" stroke="black" stroke-width="2" stroke-linejoin="round"/>
<path d="M225.647 76.9437L210.111 84.4275" stroke="black" stroke-width="2" stroke-linejoin="round"/>
<path d="M250.55 52.0401L235.547 60.5433" stroke="black" stroke-width="2" stroke-linejoin="round"/>
<path d="M250.55 101.849L233.543 104.705" stroke="black" stroke-width="2" stroke-linejoin="round"/>
<path d="M225.647 126.752L208.404 126.963" stroke="black" stroke-width="2" stroke-linejoin="round"/>
<path d="M250.55 151.656L233.704 147.968" stroke="black" stroke-width="2" stroke-linejoin="round"/>
<path d="M88.6807 89.3438L76.4866 77.1497" stroke="black" stroke-width="2" stroke-linejoin="round"/>
<path d="M63.7793 64.4402L51.5852 52.2461" stroke="black" stroke-width="2" stroke-linejoin="round"/>
<path d="M38.4248 39.0827L26.2308 26.8886" stroke="black" stroke-width="2" stroke-linejoin="round"/>
<path d="M13.5156 14.1791L1.32158 1.98503" stroke="black" stroke-width="2" stroke-linejoin="round"/>
<path d="M76.4561 176.735L88.6501 164.541" stroke="black" stroke-width="2" stroke-linejoin="round"/>
<path d="M51.5547 201.639L63.7487 189.445" stroke="black" stroke-width="2" stroke-linejoin="round"/>
<path d="M26.6533 226.543L38.8474 214.349" stroke="black" stroke-width="2" stroke-linejoin="round"/>
<path d="M1.29492 251.899L13.489 239.705" stroke="black" stroke-width="2" stroke-linejoin="round"/>
<path d="M106.797 185.338L101.226 201.658" stroke="black" stroke-width="2" stroke-linejoin="round"/>
<path d="M84.3506 210.968L76.6324 226.389" stroke="black" stroke-width="2" stroke-linejoin="round"/>
<path d="M60.6094 236.957L51.6113 251.668" stroke="black" stroke-width="2" stroke-linejoin="round"/>
<path d="M126.717 76.6665V93.9115" stroke="black" stroke-width="2" stroke-linejoin="round"/>
<path d="M101.815 51.7609L106.824 68.2625" stroke="black" stroke-width="2" stroke-linejoin="round"/>
<path d="M76.9092 26.8573L84.5261 42.329" stroke="black" stroke-width="2" stroke-linejoin="round"/>
<path d="M51.5547 1.50082L60.3216 16.3511" stroke="black" stroke-width="2" stroke-linejoin="round"/>
<path d="M26.6533 77.1184L42.125 84.7354" stroke="black" stroke-width="2" stroke-linejoin="round"/>
<path d="M51.5547 102.023L67.8683 107.614" stroke="black" stroke-width="2" stroke-linejoin="round"/>
<path d="M51.5547 151.831L67.9983 146.635" stroke="black" stroke-width="2" stroke-linejoin="round"/>
<path d="M1.74414 201.639L16.7469 193.136" stroke="black" stroke-width="2" stroke-linejoin="round"/>
<path d="M1.74414 151.831L18.751 148.975" stroke="black" stroke-width="2" stroke-linejoin="round"/>
<path d="M26.6533 126.927L43.897 126.716" stroke="black" stroke-width="2" stroke-linejoin="round"/>
<path d="M1.74414 102.023L18.59 105.712" stroke="black" stroke-width="2" stroke-linejoin="round"/>
<path d="M1.00195 52.0528L15.8523 60.8197" stroke="black" stroke-width="2" stroke-linejoin="round"/>
<path d="M151.329 2.24557L148.473 19.2524" stroke="black" stroke-width="2" stroke-linejoin="round"/>
<path d="M126.428 27.1482L126.217 44.3919" stroke="black" stroke-width="2" stroke-linejoin="round"/>
<path d="M101.526 2.24557L105.215 19.0915" stroke="black" stroke-width="2" stroke-linejoin="round"/>
<path d="M188.354 189.401L200.548 201.595" stroke="black" stroke-width="2" stroke-linejoin="round"/>
<path d="M42.1025 169.025L26.6811 176.743" stroke="black" stroke-width="2" stroke-linejoin="round"/>
<path d="M100.964 251.434L103.82 234.427" stroke="black" stroke-width="2" stroke-linejoin="round"/>
<path d="M125.869 226.53L126.08 209.287" stroke="black" stroke-width="2" stroke-linejoin="round"/>
<path d="M150.771 251.434L147.083 234.588" stroke="black" stroke-width="2" stroke-linejoin="round"/>
</svg>
