<svg width="252" height="252" viewBox="0 0 252 252" fill="none" xmlns="http://www.w3.org/2000/svg">
<path d="M1.00684 126.152H18.5217" stroke="black" stroke-width="2" stroke-linejoin="round"/>
<path d="M1.00684 111.767L18.4257 109.857" stroke="black" stroke-width="2" stroke-linejoin="round"/>
<path d="M1.00684 140.567L18.4257 142.477" stroke="black" stroke-width="2" stroke-linejoin="round"/>
<path d="M1.00684 95.5211L18.1389 91.7216" stroke="black" stroke-width="2" stroke-linejoin="round"/>
<path d="M1.00684 156.812L18.1389 160.611" stroke="black" stroke-width="2" stroke-linejoin="round"/>
<path d="M1.00684 77.7975L17.6644 72.1504" stroke="black" stroke-width="2" stroke-linejoin="round"/>
<path d="M1.00684 175.273L17.6644 180.92" stroke="black" stroke-width="2" stroke-linejoin="round"/>
<path d="M1.00684 57.1379L17.0074 49.705" stroke="black" stroke-width="2" stroke-linejoin="round"/>
<path d="M1.00684 195.213L17.0074 202.646" stroke="black" stroke-width="2" stroke-linejoin="round"/>
<path d="M1.00684 34.9683L16.1751 25.8311" stroke="black" stroke-width="2" stroke-linejoin="round"/>
<path d="M1.00684 217.365L16.1751 226.502" stroke="black" stroke-width="2" stroke-linejoin="round"/>
<path d="M1.00684 11.7406L15.1766 0.999181" stroke="black" stroke-width="2" stroke-linejoin="round"/>
<path d="M1.00684 240.259L15.1766 251" stroke="black" stroke-width="2" stroke-linejoin="round"/>
<path d="M39.7529 126.152H57.2678" stroke="black" stroke-width="2" stroke-linejoin="round"/>
<path d="M39.7529 111.767L57.1718 109.857" stroke="black" stroke-width="2" stroke-linejoin="round"/>
<path d="M39.7529 140.567L57.1718 142.477" stroke="black" stroke-width="2" stroke-linejoin="round"/>
<path d="M39.7529 95.5211L56.885 91.7216" stroke="black" stroke-width="2" stroke-linejoin="round"/>
<path d="M39.7529 156.812L56.885 160.611" stroke="black" stroke-width="2" stroke-linejoin="round"/>
<path d="M39.7529 77.7975L56.4105 72.1504" stroke="black" stroke-width="2" stroke-linejoin="round"/>
<path d="M39.7529 175.273L56.4105 180.92" stroke="black" stroke-width="2" stroke-linejoin="round"/>
<path d="M39.7529 57.1203L55.7535 49.6875" stroke="black" stroke-width="2" stroke-linejoin="round"/>
<path d="M39.7529 195.213L55.7535 202.646" stroke="black" stroke-width="2" stroke-linejoin="round"/>
<path d="M39.7529 34.9683L54.9212 25.8311" stroke="black" stroke-width="2" stroke-linejoin="round"/>
<path d="M39.7529 217.365L54.9212 226.502" stroke="black" stroke-width="2" stroke-linejoin="round"/>
<path d="M39.7529 11.7406L53.9227 0.999181" stroke="black" stroke-width="2" stroke-linejoin="round"/>
<path d="M39.7529 240.259L53.9227 251" stroke="black" stroke-width="2" stroke-linejoin="round"/>
<path d="M78.5078 126.152H96.0226" stroke="black" stroke-width="2" stroke-linejoin="round"/>
<path d="M78.5078 126.152H96.0226" stroke="black" stroke-width="2" stroke-linejoin="round"/>
<path d="M78.5078 111.767L95.9267 109.857" stroke="black" stroke-width="2" stroke-linejoin="round"/>
<path d="M78.5078 140.567L95.9267 142.477" stroke="black" stroke-width="2" stroke-linejoin="round"/>
<path d="M78.5078 95.5211L95.6399 91.7216" stroke="black" stroke-width="2" stroke-linejoin="round"/>
<path d="M78.5078 156.812L95.6399 160.611" stroke="black" stroke-width="2" stroke-linejoin="round"/>
<path d="M78.5078 77.7975L95.1654 72.1504" stroke="black" stroke-width="2" stroke-linejoin="round"/>
<path d="M78.5078 175.273L95.1654 180.92" stroke="black" stroke-width="2" stroke-linejoin="round"/>
<path d="M78.5078 57.1203L94.5084 49.6875" stroke="black" stroke-width="2" stroke-linejoin="round"/>
<path d="M78.5078 195.213L94.5084 202.646" stroke="black" stroke-width="2" stroke-linejoin="round"/>
<path d="M78.5078 34.9683L93.6761 25.8311" stroke="black" stroke-width="2" stroke-linejoin="round"/>
<path d="M78.5078 217.365L93.6761 226.502" stroke="black" stroke-width="2" stroke-linejoin="round"/>
<path d="M78.5078 11.7406L92.6776 0.999181" stroke="black" stroke-width="2" stroke-linejoin="round"/>
<path d="M78.5078 240.259L92.6776 251" stroke="black" stroke-width="2" stroke-linejoin="round"/>
<path d="M117.254 126.152H134.769" stroke="black" stroke-width="2" stroke-linejoin="round"/>
<path d="M117.254 111.767L134.673 109.857" stroke="black" stroke-width="2" stroke-linejoin="round"/>
<path d="M117.254 140.567L134.673 142.477" stroke="black" stroke-width="2" stroke-linejoin="round"/>
<path d="M117.254 95.5211L134.386 91.7216" stroke="black" stroke-width="2" stroke-linejoin="round"/>
<path d="M117.254 156.812L134.386 160.611" stroke="black" stroke-width="2" stroke-linejoin="round"/>
<path d="M117.254 77.7975L133.911 72.1504" stroke="black" stroke-width="2" stroke-linejoin="round"/>
<path d="M117.254 175.273L133.911 180.92" stroke="black" stroke-width="2" stroke-linejoin="round"/>
<path d="M117.254 57.1203L133.254 49.6875" stroke="black" stroke-width="2" stroke-linejoin="round"/>
<path d="M117.254 195.213L133.255 202.646" stroke="black" stroke-width="2" stroke-linejoin="round"/>
<path d="M117.254 34.9683L132.422 25.8311" stroke="black" stroke-width="2" stroke-linejoin="round"/>
<path d="M117.254 217.365L132.422 226.502" stroke="black" stroke-width="2" stroke-linejoin="round"/>
<path d="M117.254 11.7406L131.424 0.999181" stroke="black" stroke-width="2" stroke-linejoin="round"/>
<path d="M117.254 240.259L131.424 251" stroke="black" stroke-width="2" stroke-linejoin="round"/>
<path d="M155.993 126.152H173.508" stroke="black" stroke-width="2" stroke-linejoin="round"/>
<path d="M155.993 111.767L173.412 109.857" stroke="black" stroke-width="2" stroke-linejoin="round"/>
<path d="M155.993 140.567L173.412 142.477" stroke="black" stroke-width="2" stroke-linejoin="round"/>
<path d="M155.993 95.5211L173.125 91.7216" stroke="black" stroke-width="2" stroke-linejoin="round"/>
<path d="M155.993 156.812L173.125 160.611" stroke="black" stroke-width="2" stroke-linejoin="round"/>
<path d="M155.993 77.7975L172.651 72.1504" stroke="black" stroke-width="2" stroke-linejoin="round"/>
<path d="M155.993 175.273L172.651 180.92" stroke="black" stroke-width="2" stroke-linejoin="round"/>
<path d="M155.993 57.1203L171.994 49.6875" stroke="black" stroke-width="2" stroke-linejoin="round"/>
<path d="M155.993 195.213L171.994 202.646" stroke="black" stroke-width="2" stroke-linejoin="round"/>
<path d="M155.993 34.9683L171.161 25.8311" stroke="black" stroke-width="2" stroke-linejoin="round"/>
<path d="M155.993 217.365L171.161 226.502" stroke="black" stroke-width="2" stroke-linejoin="round"/>
<path d="M155.993 11.7406L170.163 0.999181" stroke="black" stroke-width="2" stroke-linejoin="round"/>
<path d="M155.993 240.259L170.163 251" stroke="black" stroke-width="2" stroke-linejoin="round"/>
<path d="M194.743 126.152H212.258" stroke="black" stroke-width="2" stroke-linejoin="round"/>
<path d="M194.743 111.767L212.162 109.857" stroke="black" stroke-width="2" stroke-linejoin="round"/>
<path d="M194.743 140.567L212.162 142.477" stroke="black" stroke-width="2" stroke-linejoin="round"/>
<path d="M194.743 95.5211L211.875 91.7216" stroke="black" stroke-width="2" stroke-linejoin="round"/>
<path d="M194.743 156.812L211.875 160.611" stroke="black" stroke-width="2" stroke-linejoin="round"/>
<path d="M194.743 77.7975L211.401 72.1504" stroke="black" stroke-width="2" stroke-linejoin="round"/>
<path d="M194.743 175.273L211.401 180.92" stroke="black" stroke-width="2" stroke-linejoin="round"/>
<path d="M194.743 57.1203L210.744 49.6875" stroke="black" stroke-width="2" stroke-linejoin="round"/>
<path d="M194.743 195.213L210.744 202.646" stroke="black" stroke-width="2" stroke-linejoin="round"/>
<path d="M194.743 34.9683L209.911 25.8311" stroke="black" stroke-width="2" stroke-linejoin="round"/>
<path d="M194.743 217.365L209.911 226.502" stroke="black" stroke-width="2" stroke-linejoin="round"/>
<path d="M194.743 11.7406L208.913 0.999181" stroke="black" stroke-width="2" stroke-linejoin="round"/>
<path d="M194.743 240.259L208.913 251" stroke="black" stroke-width="2" stroke-linejoin="round"/>
<path d="M233.494 126.152H251.009" stroke="black" stroke-width="2" stroke-linejoin="round"/>
<path d="M233.494 111.767L250.913 109.857" stroke="black" stroke-width="2" stroke-linejoin="round"/>
<path d="M233.494 140.567L250.913 142.477" stroke="black" stroke-width="2" stroke-linejoin="round"/>
<path d="M233.494 95.5211L250.626 91.7216" stroke="black" stroke-width="2" stroke-linejoin="round"/>
<path d="M233.494 156.812L250.626 160.611" stroke="black" stroke-width="2" stroke-linejoin="round"/>
<path d="M233.494 77.7975L250.152 72.1504" stroke="black" stroke-width="2" stroke-linejoin="round"/>
<path d="M233.494 175.273L250.152 180.92" stroke="black" stroke-width="2" stroke-linejoin="round"/>
<path d="M233.494 57.1203L249.495 49.6875" stroke="black" stroke-width="2" stroke-linejoin="round"/>
<path d="M233.494 195.213L249.495 202.646" stroke="black" stroke-width="2" stroke-linejoin="round"/>
<path d="M233.494 34.9683L248.662 25.8311" stroke="black" stroke-width="2" stroke-linejoin="round"/>
<path d="M233.494 217.365L248.662 226.502" stroke="black" stroke-width="2" stroke-linejoin="round"/>
<path d="M233.494 11.7406L247.664 0.999181" stroke="black" stroke-width="2" stroke-linejoin="round"/>
<path d="M233.494 240.259L247.664 251" stroke="black" stroke-width="2" stroke-linejoin="round"/>
</svg>
