<svg width="251" height="253" viewBox="0 0 251 253" fill="none" xmlns="http://www.w3.org/2000/svg">
<path d="M36.9512 1.99942L36.9512 19.2724" stroke="black" stroke-width="2" stroke-linejoin="round"/>
<path d="M36.9512 55.4991L36.9512 72.7721" stroke="black" stroke-width="2" stroke-linejoin="round"/>
<path d="M36.9512 90.999L36.9512 108.272" stroke="black" stroke-width="2" stroke-linejoin="round"/>
<path d="M36.9512 90.999L36.9512 108.272" stroke="black" stroke-width="2" stroke-linejoin="round"/>
<path d="M36.9512 125.999L36.9512 143.272" stroke="black" stroke-width="2" stroke-linejoin="round"/>
<path d="M36.9512 162.499L36.9512 179.772" stroke="black" stroke-width="2" stroke-linejoin="round"/>
<path d="M36.9512 197L36.9512 214.273" stroke="black" stroke-width="2" stroke-linejoin="round"/>
<path d="M36.9512 234.5L36.9512 251.773" stroke="black" stroke-width="2" stroke-linejoin="round"/>
<path d="M72.5078 37.4739L55.2349 37.4739" stroke="black" stroke-width="2" stroke-linejoin="round"/>
<path d="M107.502 37.4739L90.229 37.4739" stroke="black" stroke-width="2" stroke-linejoin="round"/>
<path d="M143.008 37.4739L125.735 37.4739" stroke="black" stroke-width="2" stroke-linejoin="round"/>
<path d="M178.505 37.4739L161.232 37.4739" stroke="black" stroke-width="2" stroke-linejoin="round"/>
<path d="M214.003 37.4739L196.73 37.4739" stroke="black" stroke-width="2" stroke-linejoin="round"/>
<path d="M249.005 37.4739L231.732 37.4739" stroke="black" stroke-width="2" stroke-linejoin="round"/>
<path d="M18.5029 37.4739L1.22997 37.4739" stroke="black" stroke-width="2" stroke-linejoin="round"/>
<path d="M13.002 13.9993L0.788128 1.78547" stroke="black" stroke-width="2" stroke-linejoin="round"/>
<path d="M60.5059 13.9993L72.7197 1.78547" stroke="black" stroke-width="2" stroke-linejoin="round"/>
<path d="M92.0059 9.49957L107.511 1.88663" stroke="black" stroke-width="2" stroke-linejoin="round"/>
<path d="M126.504 7.4996L142.893 2.04374" stroke="black" stroke-width="2" stroke-linejoin="round"/>
<path d="M161.502 5.99936L178.294 1.95292" stroke="black" stroke-width="2" stroke-linejoin="round"/>
<path d="M197.004 4.9989L214.021 2.03488" stroke="black" stroke-width="2" stroke-linejoin="round"/>
<path d="M232.002 4.9989L249.019 2.03488" stroke="black" stroke-width="2" stroke-linejoin="round"/>
<path d="M1.00391 72.9992L13.2177 60.7854" stroke="black" stroke-width="2" stroke-linejoin="round"/>
<path d="M1.00391 108.499L9.14365 93.2642" stroke="black" stroke-width="2" stroke-linejoin="round"/>
<path d="M1.00391 143.499L6.56701 127.147" stroke="black" stroke-width="2" stroke-linejoin="round"/>
<path d="M1.00391 180L5.31252 163.273" stroke="black" stroke-width="2" stroke-linejoin="round"/>
<path d="M1.00391 214.5L4.01807 197.492" stroke="black" stroke-width="2" stroke-linejoin="round"/>
<path d="M1.00391 252L4.83962 235.158" stroke="black" stroke-width="2" stroke-linejoin="round"/>
<path d="M72.5078 214.5L69.4937 197.492" stroke="black" stroke-width="2" stroke-linejoin="round"/>
<path d="M69.5049 234.999L72.2635 252.2" stroke="black" stroke-width="2" stroke-linejoin="round"/>
<path d="M72.5078 180L68.1992 163.273" stroke="black" stroke-width="2" stroke-linejoin="round"/>
<path d="M72.5078 143.499L66.9447 127.147" stroke="black" stroke-width="2" stroke-linejoin="round"/>
<path d="M72.5078 108.499L64.9132 92.9853" stroke="black" stroke-width="2" stroke-linejoin="round"/>
<path d="M72.5078 72.9992L60.294 60.7854" stroke="black" stroke-width="2" stroke-linejoin="round"/>
<path d="M107.502 72.9992L92.1757 65.033" stroke="black" stroke-width="2" stroke-linejoin="round"/>
<path d="M143.008 72.9992L126.704 67.2958" stroke="black" stroke-width="2" stroke-linejoin="round"/>
<path d="M178.505 72.9992L161.857 68.3958" stroke="black" stroke-width="2" stroke-linejoin="round"/>
<path d="M214.003 72.9992L196.982 70.0588" stroke="black" stroke-width="2" stroke-linejoin="round"/>
<path d="M249.005 72.9992L231.994 69.9998" stroke="black" stroke-width="2" stroke-linejoin="round"/>
<path d="M249.005 108.499L232.774 102.591" stroke="black" stroke-width="2" stroke-linejoin="round"/>
<path d="M214.003 108.499L197.978 102.053" stroke="black" stroke-width="2" stroke-linejoin="round"/>
<path d="M178.505 108.499L163.15 100.587" stroke="black" stroke-width="2" stroke-linejoin="round"/>
<path d="M143.008 108.499L128.94 98.4768" stroke="black" stroke-width="2" stroke-linejoin="round"/>
<path d="M107.502 108.499L95.1396 96.4356" stroke="black" stroke-width="2" stroke-linejoin="round"/>
<path d="M107.502 143.499L98.1833 128.956" stroke="black" stroke-width="2" stroke-linejoin="round"/>
<path d="M143.008 143.499L130.957 131.124" stroke="black" stroke-width="2" stroke-linejoin="round"/>
<path d="M178.505 143.499L164.94 132.806" stroke="black" stroke-width="2" stroke-linejoin="round"/>
<path d="M214.003 143.499L199.371 134.321" stroke="black" stroke-width="2" stroke-linejoin="round"/>
<path d="M249.005 143.499L234.046 134.863" stroke="black" stroke-width="2" stroke-linejoin="round"/>
<path d="M249.005 180L235.773 168.897" stroke="black" stroke-width="2" stroke-linejoin="round"/>
<path d="M214.003 180L200.65 169.043" stroke="black" stroke-width="2" stroke-linejoin="round"/>
<path d="M178.505 180L166.225 167.852" stroke="black" stroke-width="2" stroke-linejoin="round"/>
<path d="M143.008 180L132.174 166.547" stroke="black" stroke-width="2" stroke-linejoin="round"/>
<path d="M107.502 180L99.6131 164.633" stroke="black" stroke-width="2" stroke-linejoin="round"/>
<path d="M107.502 214.5L100.945 198.52" stroke="black" stroke-width="2" stroke-linejoin="round"/>
<path d="M102.504 235.499L107.691 251.963" stroke="black" stroke-width="2" stroke-linejoin="round"/>
<path d="M143.008 214.5L133.943 199.797" stroke="black" stroke-width="2" stroke-linejoin="round"/>
<path d="M135.503 236L143.063 252.103" stroke="black" stroke-width="2" stroke-linejoin="round"/>
<path d="M178.505 214.5L167.815 200.932" stroke="black" stroke-width="2" stroke-linejoin="round"/>
<path d="M170.006 237L178.642 251.959" stroke="black" stroke-width="2" stroke-linejoin="round"/>
<path d="M214.007 214.5L201.861 202.219" stroke="black" stroke-width="2" stroke-linejoin="round"/>
<path d="M202.005 240L214.219 252.214" stroke="black" stroke-width="2" stroke-linejoin="round"/>
<path d="M249.005 214.5L236.169 202.942" stroke="black" stroke-width="2" stroke-linejoin="round"/>
<path d="M249.005 252L236.791 239.786" stroke="black" stroke-width="2" stroke-linejoin="round"/>
</svg>
