<svg width="262" height="262" viewBox="0 0 262 262" fill="none" xmlns="http://www.w3.org/2000/svg">
<path d="M0.670573 5.99966C0.670573 8.94518 3.05839 11.333 6.00391 11.333C8.94942 11.333 11.3372 8.94518 11.3372 5.99966C11.3372 3.05415 8.94942 0.666331 6.00391 0.666331C3.05839 0.666331 0.670573 3.05415 0.670573 5.99966ZM28.4206 5.99966C28.4206 8.94518 30.8084 11.333 33.7539 11.333C36.6995 11.333 39.0873 8.94518 39.0873 5.99966C39.0873 3.05415 36.6995 0.666331 33.7539 0.666331C30.8084 0.666331 28.4206 3.05415 28.4206 5.99966ZM56.1707 5.99966C56.1707 8.94518 58.5585 11.333 61.504 11.333C64.4495 11.333 66.8373 8.94518 66.8373 5.99966C66.8373 3.05415 64.4495 0.666331 61.504 0.666331C58.5585 0.666331 56.1707 3.05415 56.1707 5.99966ZM83.9207 5.99966C83.9207 8.94518 86.3085 11.333 89.254 11.333C92.1995 11.333 94.5874 8.94518 94.5874 5.99966C94.5874 3.05415 92.1995 0.666331 89.254 0.666331C86.3085 0.666331 83.9207 3.05415 83.9207 5.99966ZM111.671 5.99966C111.671 8.94518 114.059 11.333 117.004 11.333C119.95 11.333 122.337 8.94518 122.337 5.99966C122.337 3.05415 119.95 0.666331 117.004 0.666331C114.059 0.666331 111.671 3.05415 111.671 5.99966ZM139.421 5.99966C139.421 8.94518 141.809 11.333 144.754 11.333C147.7 11.333 150.087 8.94518 150.087 5.99966C150.087 3.05415 147.7 0.666331 144.754 0.666331C141.809 0.666331 139.421 3.05415 139.421 5.99966ZM167.171 5.99966C167.171 8.94518 169.559 11.333 172.504 11.333C175.45 11.333 177.837 8.94518 177.837 5.99966C177.837 3.05415 175.45 0.666331 172.504 0.666331C169.559 0.666331 167.171 3.05415 167.171 5.99966ZM194.921 5.99966C194.921 8.94518 197.309 11.333 200.254 11.333C203.2 11.333 205.588 8.94518 205.588 5.99966C205.588 3.05415 203.2 0.666331 200.254 0.666331C197.309 0.666331 194.921 3.05415 194.921 5.99966ZM222.671 5.99966C222.671 8.94518 225.059 11.333 228.004 11.333C230.95 11.333 233.338 8.94518 233.338 5.99966C233.338 3.05415 230.95 0.666331 228.004 0.666331C225.059 0.666331 222.671 3.05415 222.671 5.99966ZM250.421 5.99966C250.421 8.94518 252.809 11.333 255.754 11.333C258.7 11.333 261.088 8.94518 261.088 5.99966C261.088 3.05415 258.7 0.666331 255.754 0.666331C252.809 0.666331 250.421 3.05415 250.421 5.99966ZM0.670573 33.7497C0.670573 36.6952 3.05839 39.083 6.00391 39.083C8.94942 39.083 11.3372 36.6952 11.3372 33.7497C11.3372 30.8042 8.94942 28.4164 6.00391 28.4164C3.05839 28.4164 0.670573 30.8042 0.670573 33.7497ZM28.4206 33.7497C28.4206 36.6952 30.8084 39.083 33.7539 39.083C36.6995 39.083 39.0873 36.6952 39.0873 33.7497C39.0873 30.8042 36.6995 28.4164 33.7539 28.4164C30.8084 28.4164 28.4206 30.8042 28.4206 33.7497ZM56.1707 33.7497C56.1707 36.6952 58.5585 39.083 61.504 39.083C64.4495 39.083 66.8373 36.6952 66.8373 33.7497C66.8373 30.8042 64.4495 28.4164 61.504 28.4164C58.5585 28.4164 56.1707 30.8042 56.1707 33.7497ZM83.9207 33.7497C83.9207 36.6952 86.3085 39.083 89.254 39.083C92.1995 39.083 94.5874 36.6952 94.5874 33.7497C94.5874 30.8042 92.1995 28.4164 89.254 28.4164C86.3085 28.4164 83.9207 30.8042 83.9207 33.7497ZM111.671 33.7497C111.671 36.6952 114.059 39.083 117.004 39.083C119.95 39.083 122.337 36.6952 122.337 33.7497C122.337 30.8042 119.95 28.4164 117.004 28.4164C114.059 28.4164 111.671 30.8042 111.671 33.7497ZM139.421 33.7497C139.421 36.6952 141.809 39.083 144.754 39.083C147.7 39.083 150.087 36.6952 150.087 33.7497C150.087 30.8042 147.7 28.4164 144.754 28.4164C141.809 28.4164 139.421 30.8042 139.421 33.7497ZM167.171 33.7497C167.171 36.6952 169.559 39.083 172.504 39.083C175.45 39.083 177.837 36.6952 177.837 33.7497C177.837 30.8042 175.45 28.4164 172.504 28.4164C169.559 28.4164 167.171 30.8042 167.171 33.7497ZM194.921 33.7497C194.921 36.6952 197.309 39.083 200.254 39.083C203.2 39.083 205.588 36.6952 205.588 33.7497C205.588 30.8042 203.2 28.4164 200.254 28.4164C197.309 28.4164 194.921 30.8042 194.921 33.7497ZM222.671 33.7497C222.671 36.6952 225.059 39.083 228.004 39.083C230.95 39.083 233.338 36.6952 233.338 33.7497C233.338 30.8042 230.95 28.4164 228.004 28.4164C225.059 28.4164 222.671 30.8042 222.671 33.7497ZM250.421 33.7497C250.421 36.6952 252.809 39.083 255.754 39.083C258.7 39.083 261.088 36.6952 261.088 33.7497C261.088 30.8042 258.7 28.4164 255.754 28.4164C252.809 28.4164 250.421 30.8042 250.421 33.7497ZM0.670573 61.4997C0.670573 64.4453 3.05839 66.8331 6.00391 66.8331C8.94942 66.8331 11.3372 64.4453 11.3372 61.4997C11.3372 58.5542 8.94942 56.1664 6.00391 56.1664C3.05839 56.1664 0.670573 58.5542 0.670573 61.4997ZM28.4206 61.4997C28.4206 64.4453 30.8084 66.8331 33.7539 66.8331C36.6995 66.8331 39.0873 64.4453 39.0873 61.4997C39.0873 58.5542 36.6995 56.1664 33.7539 56.1664C30.8084 56.1664 28.4206 58.5542 28.4206 61.4997ZM56.1707 61.4997C56.1707 64.4453 58.5585 66.8331 61.504 66.8331C64.4495 66.8331 66.8373 64.4453 66.8373 61.4997C66.8373 58.5542 64.4495 56.1664 61.504 56.1664C58.5585 56.1664 56.1707 58.5542 56.1707 61.4997ZM83.9207 61.4997C83.9207 64.4453 86.3085 66.8331 89.254 66.8331C92.1995 66.8331 94.5874 64.4453 94.5874 61.4997C94.5874 58.5542 92.1995 56.1664 89.254 56.1664C86.3085 56.1664 83.9207 58.5542 83.9207 61.4997ZM111.671 61.4997C111.671 64.4453 114.059 66.8331 117.004 66.8331C119.95 66.8331 122.337 64.4453 122.337 61.4997C122.337 58.5542 119.95 56.1664 117.004 56.1664C114.059 56.1664 111.671 58.5542 111.671 61.4997ZM139.421 61.4997C139.421 64.4453 141.809 66.8331 144.754 66.8331C147.7 66.8331 150.087 64.4453 150.087 61.4997C150.087 58.5542 147.7 56.1664 144.754 56.1664C141.809 56.1664 139.421 58.5542 139.421 61.4997ZM167.171 61.4997C167.171 64.4453 169.559 66.8331 172.504 66.8331C175.45 66.8331 177.837 64.4453 177.837 61.4997C177.837 58.5542 175.45 56.1664 172.504 56.1664C169.559 56.1664 167.171 58.5542 167.171 61.4997ZM194.921 61.4997C194.921 64.4453 197.309 66.8331 200.254 66.8331C203.2 66.8331 205.588 64.4453 205.588 61.4997C205.588 58.5542 203.2 56.1664 200.254 56.1664C197.309 56.1664 194.921 58.5542 194.921 61.4997ZM222.671 61.4997C222.671 64.4453 225.059 66.8331 228.004 66.8331C230.95 66.8331 233.338 64.4453 233.338 61.4997C233.338 58.5542 230.95 56.1664 228.004 56.1664C225.059 56.1664 222.671 58.5542 222.671 61.4997ZM250.421 61.4997C250.421 64.4453 252.809 66.8331 255.754 66.8331C258.7 66.8331 261.088 64.4453 261.088 61.4997C261.088 58.5542 258.7 56.1664 255.754 56.1664C252.809 56.1664 250.421 58.5542 250.421 61.4997ZM0.670573 89.2498C0.670573 92.1953 3.05839 94.5831 6.00391 94.5831C8.94942 94.5831 11.3372 92.1953 11.3372 89.2498C11.3372 86.3043 8.94942 83.9165 6.00391 83.9165C3.05839 83.9165 0.670573 86.3043 0.670573 89.2498ZM28.4206 89.2498C28.4206 92.1953 30.8084 94.5831 33.7539 94.5831C36.6995 94.5831 39.0873 92.1953 39.0873 89.2498C39.0873 86.3043 36.6995 83.9165 33.7539 83.9165C30.8084 83.9165 28.4206 86.3043 28.4206 89.2498ZM56.1707 89.2498C56.1707 92.1953 58.5585 94.5831 61.504 94.5831C64.4495 94.5831 66.8373 92.1953 66.8373 89.2498C66.8373 86.3043 64.4495 83.9165 61.504 83.9165C58.5585 83.9165 56.1707 86.3043 56.1707 89.2498ZM83.9207 89.2498C83.9207 92.1953 86.3085 94.5831 89.254 94.5831C92.1995 94.5831 94.5874 92.1953 94.5874 89.2498C94.5874 86.3043 92.1995 83.9165 89.254 83.9165C86.3085 83.9165 83.9207 86.3043 83.9207 89.2498ZM111.671 89.2498C111.671 92.1953 114.059 94.5831 117.004 94.5831C119.95 94.5831 122.337 92.1953 122.337 89.2498C122.337 86.3043 119.95 83.9165 117.004 83.9165C114.059 83.9165 111.671 86.3043 111.671 89.2498ZM139.421 89.2498C139.421 92.1953 141.809 94.5831 144.754 94.5831C147.7 94.5831 150.087 92.1953 150.087 89.2498C150.087 86.3043 147.7 83.9165 144.754 83.9165C141.809 83.9165 139.421 86.3043 139.421 89.2498ZM167.171 89.2498C167.171 92.1953 169.559 94.5831 172.504 94.5831C175.45 94.5831 177.837 92.1953 177.837 89.2498C177.837 86.3043 175.45 83.9165 172.504 83.9165C169.559 83.9165 167.171 86.3043 167.171 89.2498ZM194.921 89.2498C194.921 92.1953 197.309 94.5831 200.254 94.5831C203.2 94.5831 205.588 92.1953 205.588 89.2498C205.588 86.3043 203.2 83.9165 200.254 83.9165C197.309 83.9165 194.921 86.3043 194.921 89.2498ZM222.671 89.2498C222.671 92.1953 225.059 94.5831 228.004 94.5831C230.95 94.5831 233.338 92.1953 233.338 89.2498C233.338 86.3043 230.95 83.9165 228.004 83.9165C225.059 83.9165 222.671 86.3043 222.671 89.2498ZM250.421 89.2498C250.421 92.1953 252.809 94.5831 255.754 94.5831C258.7 94.5831 261.088 92.1953 261.088 89.2498C261.088 86.3043 258.7 83.9165 255.754 83.9165C252.809 83.9165 250.421 86.3043 250.421 89.2498ZM0.670573 117C0.670573 119.945 3.05839 122.333 6.00391 122.333C8.94942 122.333 11.3372 119.945 11.3372 117C11.3372 114.054 8.94942 111.666 6.00391 111.666C3.05839 111.666 0.670573 114.054 0.670573 117ZM28.4206 117C28.4206 119.945 30.8084 122.333 33.7539 122.333C36.6995 122.333 39.0873 119.945 39.0873 117C39.0873 114.054 36.6995 111.666 33.7539 111.666C30.8084 111.666 28.4206 114.054 28.4206 117ZM56.1707 117C56.1707 119.945 58.5585 122.333 61.504 122.333C64.4495 122.333 66.8373 119.945 66.8373 117C66.8373 114.054 64.4495 111.666 61.504 111.666C58.5585 111.666 56.1707 114.054 56.1707 117ZM83.9207 117C83.9207 119.945 86.3085 122.333 89.254 122.333C92.1995 122.333 94.5874 119.945 94.5874 117C94.5874 114.054 92.1995 111.666 89.254 111.666C86.3085 111.666 83.9207 114.054 83.9207 117ZM111.671 117C111.671 119.945 114.059 122.333 117.004 122.333C119.95 122.333 122.337 119.945 122.337 117C122.337 114.054 119.95 111.666 117.004 111.666C114.059 111.666 111.671 114.054 111.671 117ZM139.421 117C139.421 119.945 141.809 122.333 144.754 122.333C147.7 122.333 150.087 119.945 150.087 117C150.087 114.054 147.7 111.666 144.754 111.666C141.809 111.666 139.421 114.054 139.421 117ZM167.171 117C167.171 119.945 169.559 122.333 172.504 122.333C175.45 122.333 177.837 119.945 177.837 117C177.837 114.054 175.45 111.666 172.504 111.666C169.559 111.666 167.171 114.054 167.171 117ZM194.921 117C194.921 119.945 197.309 122.333 200.254 122.333C203.2 122.333 205.588 119.945 205.588 117C205.588 114.054 203.2 111.666 200.254 111.666C197.309 111.666 194.921 114.054 194.921 117ZM222.671 117C222.671 119.945 225.059 122.333 228.004 122.333C230.95 122.333 233.338 119.945 233.338 117C233.338 114.054 230.95 111.666 228.004 111.666C225.059 111.666 222.671 114.054 222.671 117ZM250.421 117C250.421 119.945 252.809 122.333 255.754 122.333C258.7 122.333 261.088 119.945 261.088 117C261.088 114.054 258.7 111.666 255.754 111.666C252.809 111.666 250.421 114.054 250.421 117ZM0.670573 144.75C0.670573 147.695 3.05839 150.083 6.00391 150.083C8.94942 150.083 11.3372 147.695 11.3372 144.75C11.3372 141.804 8.94942 139.417 6.00391 139.417C3.05839 139.417 0.670573 141.804 0.670573 144.75ZM28.4206 144.75C28.4206 147.695 30.8084 150.083 33.7539 150.083C36.6995 150.083 39.0873 147.695 39.0873 144.75C39.0873 141.804 36.6995 139.417 33.7539 139.417C30.8084 139.417 28.4206 141.804 28.4206 144.75ZM56.1707 144.75C56.1707 147.695 58.5585 150.083 61.504 150.083C64.4495 150.083 66.8373 147.695 66.8373 144.75C66.8373 141.804 64.4495 139.417 61.504 139.417C58.5585 139.417 56.1707 141.804 56.1707 144.75ZM83.9207 144.75C83.9207 147.695 86.3085 150.083 89.254 150.083C92.1995 150.083 94.5874 147.695 94.5874 144.75C94.5874 141.804 92.1995 139.417 89.254 139.417C86.3085 139.417 83.9207 141.804 83.9207 144.75ZM111.671 144.75C111.671 147.695 114.059 150.083 117.004 150.083C119.95 150.083 122.337 147.695 122.337 144.75C122.337 141.804 119.95 139.417 117.004 139.417C114.059 139.417 111.671 141.804 111.671 144.75ZM139.421 144.75C139.421 147.695 141.809 150.083 144.754 150.083C147.7 150.083 150.087 147.695 150.087 144.75C150.087 141.804 147.7 139.417 144.754 139.417C141.809 139.417 139.421 141.804 139.421 144.75ZM167.171 144.75C167.171 147.695 169.559 150.083 172.504 150.083C175.45 150.083 177.837 147.695 177.837 144.75C177.837 141.804 175.45 139.417 172.504 139.417C169.559 139.417 167.171 141.804 167.171 144.75ZM194.921 144.75C194.921 147.695 197.309 150.083 200.254 150.083C203.2 150.083 205.588 147.695 205.588 144.75C205.588 141.804 203.2 139.417 200.254 139.417C197.309 139.417 194.921 141.804 194.921 144.75ZM222.671 144.75C222.671 147.695 225.059 150.083 228.004 150.083C230.95 150.083 233.338 147.695 233.338 144.75C233.338 141.804 230.95 139.417 228.004 139.417C225.059 139.417 222.671 141.804 222.671 144.75ZM250.421 144.75C250.421 147.695 252.809 150.083 255.754 150.083C258.7 150.083 261.088 147.695 261.088 144.75C261.088 141.804 258.7 139.417 255.754 139.417C252.809 139.417 250.421 141.804 250.421 144.75ZM0.670573 172.5C0.670573 175.445 3.05839 177.833 6.00391 177.833C8.94942 177.833 11.3372 175.445 11.3372 172.5C11.3372 169.554 8.94942 167.167 6.00391 167.167C3.05839 167.167 0.670573 169.554 0.670573 172.5ZM28.4206 172.5C28.4206 175.445 30.8084 177.833 33.7539 177.833C36.6995 177.833 39.0873 175.445 39.0873 172.5C39.0873 169.554 36.6995 167.167 33.7539 167.167C30.8084 167.167 28.4206 169.554 28.4206 172.5ZM56.1707 172.5C56.1707 175.445 58.5585 177.833 61.504 177.833C64.4495 177.833 66.8373 175.445 66.8373 172.5C66.8373 169.554 64.4495 167.167 61.504 167.167C58.5585 167.167 56.1707 169.554 56.1707 172.5ZM83.9207 172.5C83.9207 175.445 86.3085 177.833 89.254 177.833C92.1995 177.833 94.5874 175.445 94.5874 172.5C94.5874 169.554 92.1995 167.167 89.254 167.167C86.3085 167.167 83.9207 169.554 83.9207 172.5ZM111.671 172.5C111.671 175.445 114.059 177.833 117.004 177.833C119.95 177.833 122.337 175.445 122.337 172.5C122.337 169.554 119.95 167.167 117.004 167.167C114.059 167.167 111.671 169.554 111.671 172.5ZM139.421 172.5C139.421 175.445 141.809 177.833 144.754 177.833C147.7 177.833 150.087 175.445 150.087 172.5C150.087 169.554 147.7 167.167 144.754 167.167C141.809 167.167 139.421 169.554 139.421 172.5ZM167.171 172.5C167.171 175.445 169.559 177.833 172.504 177.833C175.45 177.833 177.837 175.445 177.837 172.5C177.837 169.554 175.45 167.167 172.504 167.167C169.559 167.167 167.171 169.554 167.171 172.5ZM194.921 172.5C194.921 175.445 197.309 177.833 200.254 177.833C203.2 177.833 205.588 175.445 205.588 172.5C205.588 169.554 203.2 167.167 200.254 167.167C197.309 167.167 194.921 169.554 194.921 172.5ZM222.671 172.5C222.671 175.445 225.059 177.833 228.004 177.833C230.95 177.833 233.338 175.445 233.338 172.5C233.338 169.554 230.95 167.167 228.004 167.167C225.059 167.167 222.671 169.554 222.671 172.5ZM250.421 172.5C250.421 175.445 252.809 177.833 255.754 177.833C258.7 177.833 261.088 175.445 261.088 172.5C261.088 169.554 258.7 167.167 255.754 167.167C252.809 167.167 250.421 169.554 250.421 172.5ZM0.670573 200.25C0.670573 203.195 3.05839 205.583 6.00391 205.583C8.94942 205.583 11.3372 203.195 11.3372 200.25C11.3372 197.304 8.94942 194.917 6.00391 194.917C3.05839 194.917 0.670573 197.304 0.670573 200.25ZM28.4206 200.25C28.4206 203.195 30.8084 205.583 33.7539 205.583C36.6995 205.583 39.0873 203.195 39.0873 200.25C39.0873 197.304 36.6995 194.917 33.7539 194.917C30.8084 194.917 28.4206 197.304 28.4206 200.25ZM56.1707 200.25C56.1707 203.195 58.5585 205.583 61.504 205.583C64.4495 205.583 66.8373 203.195 66.8373 200.25C66.8373 197.304 64.4495 194.917 61.504 194.917C58.5585 194.917 56.1707 197.304 56.1707 200.25ZM83.9207 200.25C83.9207 203.195 86.3085 205.583 89.254 205.583C92.1995 205.583 94.5874 203.195 94.5874 200.25C94.5874 197.304 92.1995 194.917 89.254 194.917C86.3085 194.917 83.9207 197.304 83.9207 200.25ZM111.671 200.25C111.671 203.195 114.059 205.583 117.004 205.583C119.95 205.583 122.337 203.195 122.337 200.25C122.337 197.304 119.95 194.917 117.004 194.917C114.059 194.917 111.671 197.304 111.671 200.25ZM139.421 200.25C139.421 203.195 141.809 205.583 144.754 205.583C147.7 205.583 150.087 203.195 150.087 200.25C150.087 197.304 147.7 194.917 144.754 194.917C141.809 194.917 139.421 197.304 139.421 200.25ZM167.171 200.25C167.171 203.195 169.559 205.583 172.504 205.583C175.45 205.583 177.837 203.195 177.837 200.25C177.837 197.304 175.45 194.917 172.504 194.917C169.559 194.917 167.171 197.304 167.171 200.25ZM194.921 200.25C194.921 203.195 197.309 205.583 200.254 205.583C203.2 205.583 205.588 203.195 205.588 200.25C205.588 197.304 203.2 194.917 200.254 194.917C197.309 194.917 194.921 197.304 194.921 200.25ZM222.671 200.25C222.671 203.195 225.059 205.583 228.004 205.583C230.95 205.583 233.338 203.195 233.338 200.25C233.338 197.304 230.95 194.917 228.004 194.917C225.059 194.917 222.671 197.304 222.671 200.25ZM250.421 200.25C250.421 203.195 252.809 205.583 255.754 205.583C258.7 205.583 261.088 203.195 261.088 200.25C261.088 197.304 258.7 194.917 255.754 194.917C252.809 194.917 250.421 197.304 250.421 200.25ZM0.670573 228C0.670573 230.945 3.05839 233.333 6.00391 233.333C8.94942 233.333 11.3372 230.945 11.3372 228C11.3372 225.054 8.94942 222.667 6.00391 222.667C3.05839 222.667 0.670573 225.054 0.670573 228ZM28.4206 228C28.4206 230.945 30.8084 233.333 33.7539 233.333C36.6995 233.333 39.0873 230.945 39.0873 228C39.0873 225.054 36.6995 222.667 33.7539 222.667C30.8084 222.667 28.4206 225.054 28.4206 228ZM56.1707 228C56.1707 230.945 58.5585 233.333 61.504 233.333C64.4495 233.333 66.8373 230.945 66.8373 228C66.8373 225.054 64.4495 222.667 61.504 222.667C58.5585 222.667 56.1707 225.054 56.1707 228ZM83.9207 228C83.9207 230.945 86.3085 233.333 89.254 233.333C92.1995 233.333 94.5874 230.945 94.5874 228C94.5874 225.054 92.1995 222.667 89.254 222.667C86.3085 222.667 83.9207 225.054 83.9207 228ZM111.671 228C111.671 230.945 114.059 233.333 117.004 233.333C119.95 233.333 122.337 230.945 122.337 228C122.337 225.054 119.95 222.667 117.004 222.667C114.059 222.667 111.671 225.054 111.671 228ZM139.421 228C139.421 230.945 141.809 233.333 144.754 233.333C147.7 233.333 150.087 230.945 150.087 228C150.087 225.054 147.7 222.667 144.754 222.667C141.809 222.667 139.421 225.054 139.421 228ZM167.171 228C167.171 230.945 169.559 233.333 172.504 233.333C175.45 233.333 177.837 230.945 177.837 228C177.837 225.054 175.45 222.667 172.504 222.667C169.559 222.667 167.171 225.054 167.171 228ZM194.921 228C194.921 230.945 197.309 233.333 200.254 233.333C203.2 233.333 205.588 230.945 205.588 228C205.588 225.054 203.2 222.667 200.254 222.667C197.309 222.667 194.921 225.054 194.921 228ZM222.671 228C222.671 230.945 225.059 233.333 228.004 233.333C230.95 233.333 233.338 230.945 233.338 228C233.338 225.054 230.95 222.667 228.004 222.667C225.059 222.667 222.671 225.054 222.671 228ZM250.421 228C250.421 230.945 252.809 233.333 255.754 233.333C258.7 233.333 261.088 230.945 261.088 228C261.088 225.054 258.7 222.667 255.754 222.667C252.809 222.667 250.421 225.054 250.421 228ZM0.670573 255.75C0.670573 258.696 3.05839 261.083 6.00391 261.083C8.94942 261.083 11.3372 258.696 11.3372 255.75C11.3372 252.805 8.94942 250.417 6.00391 250.417C3.05839 250.417 0.670573 252.805 0.670573 255.75ZM28.4206 255.75C28.4206 258.696 30.8084 261.083 33.7539 261.083C36.6995 261.083 39.0873 258.696 39.0873 255.75C39.0873 252.805 36.6995 250.417 33.7539 250.417C30.8084 250.417 28.4206 252.805 28.4206 255.75ZM56.1707 255.75C56.1707 258.696 58.5585 261.083 61.504 261.083C64.4495 261.083 66.8373 258.696 66.8373 255.75C66.8373 252.805 64.4495 250.417 61.504 250.417C58.5585 250.417 56.1707 252.805 56.1707 255.75ZM83.9207 255.75C83.9207 258.696 86.3085 261.083 89.254 261.083C92.1995 261.083 94.5874 258.696 94.5874 255.75C94.5874 252.805 92.1995 250.417 89.254 250.417C86.3085 250.417 83.9207 252.805 83.9207 255.75ZM111.671 255.75C111.671 258.696 114.059 261.083 117.004 261.083C119.95 261.083 122.337 258.696 122.337 255.75C122.337 252.805 119.95 250.417 117.004 250.417C114.059 250.417 111.671 252.805 111.671 255.75ZM139.421 255.75C139.421 258.696 141.809 261.083 144.754 261.083C147.7 261.083 150.087 258.696 150.087 255.75C150.087 252.805 147.7 250.417 144.754 250.417C141.809 250.417 139.421 252.805 139.421 255.75ZM167.171 255.75C167.171 258.696 169.559 261.083 172.504 261.083C175.45 261.083 177.837 258.696 177.837 255.75C177.837 252.805 175.45 250.417 172.504 250.417C169.559 250.417 167.171 252.805 167.171 255.75ZM194.921 255.75C194.921 258.696 197.309 261.083 200.254 261.083C203.2 261.083 205.588 258.696 205.588 255.75C205.588 252.805 203.2 250.417 200.254 250.417C197.309 250.417 194.921 252.805 194.921 255.75ZM222.671 255.75C222.671 258.696 225.059 261.083 228.004 261.083C230.95 261.083 233.338 258.696 233.338 255.75C233.338 252.805 230.95 250.417 228.004 250.417C225.059 250.417 222.671 252.805 222.671 255.75ZM250.421 255.75C250.421 258.696 252.809 261.083 255.754 261.083C258.7 261.083 261.088 258.696 261.088 255.75C261.088 252.805 258.7 250.417 255.754 250.417C252.809 250.417 250.421 252.805 250.421 255.75ZM6.00391 6.99966H6.50391V4.99966H6.00391V6.99966ZM33.7539 6.99966H34.2539V4.99966H33.7539V6.99966ZM61.504 6.99966H62.004V4.99966H61.504V6.99966ZM89.254 6.99966H89.754V4.99966H89.254V6.99966ZM117.004 6.99966H117.504V4.99966H117.004V6.99966ZM144.754 6.99966H145.254V4.99966H144.754V6.99966ZM172.504 6.99966H173.004V4.99966H172.504V6.99966ZM200.254 6.99966H200.754V4.99966H200.254V6.99966ZM228.004 6.99966H228.504V4.99966H228.004V6.99966ZM255.754 6.99966H256.254V4.99966H255.754V6.99966ZM6.00391 34.7497H6.50391V32.7497H6.00391V34.7497ZM33.7539 34.7497H34.2539V32.7497H33.7539V34.7497ZM61.504 34.7497H62.004V32.7497H61.504V34.7497ZM89.254 34.7497H89.754V32.7497H89.254V34.7497ZM117.004 34.7497H117.504V32.7497H117.004V34.7497ZM144.754 34.7497H145.254V32.7497H144.754V34.7497ZM172.504 34.7497H173.004V32.7497H172.504V34.7497ZM200.254 34.7497H200.754V32.7497H200.254V34.7497ZM228.004 34.7497H228.504V32.7497H228.004V34.7497ZM255.754 34.7497H256.254V32.7497H255.754V34.7497ZM6.00391 62.4997H6.50391V60.4997H6.00391V62.4997ZM33.7539 62.4997H34.2539V60.4997H33.7539V62.4997ZM61.504 62.4997H62.004V60.4997H61.504V62.4997ZM89.254 62.4997H89.754V60.4997H89.254V62.4997ZM117.004 62.4997H117.504V60.4997H117.004V62.4997ZM144.754 62.4997H145.254V60.4997H144.754V62.4997ZM172.504 62.4997H173.004V60.4997H172.504V62.4997ZM200.254 62.4997H200.754V60.4997H200.254V62.4997ZM228.004 62.4997H228.504V60.4997H228.004V62.4997ZM255.754 62.4997H256.254V60.4997H255.754V62.4997ZM6.00391 90.2498H6.50391V88.2498H6.00391V90.2498ZM33.7539 90.2498H34.2539V88.2498H33.7539V90.2498ZM61.504 90.2498H62.004V88.2498H61.504V90.2498ZM89.254 90.2498H89.754V88.2498H89.254V90.2498ZM117.004 90.2498H117.504V88.2498H117.004V90.2498ZM144.754 90.2498H145.254V88.2498H144.754V90.2498ZM172.504 90.2498H173.004V88.2498H172.504V90.2498ZM200.254 90.2498H200.754V88.2498H200.254V90.2498ZM228.004 90.2498H228.504V88.2498H228.004V90.2498ZM255.754 90.2498H256.254V88.2498H255.754V90.2498ZM6.00391 118H6.50391V116H6.00391V118ZM33.7539 118H34.2539V116H33.7539V118ZM61.504 118H62.004V116H61.504V118ZM89.254 118H89.754V116H89.254V118ZM117.004 118H117.504V116H117.004V118ZM144.754 118H145.254V116H144.754V118ZM172.504 118H173.004V116H172.504V118ZM200.254 118H200.754V116H200.254V118ZM228.004 118H228.504V116H228.004V118ZM255.754 118H256.254V116H255.754V118ZM6.00391 145.75H6.50391V143.75H6.00391V145.75ZM33.7539 145.75H34.2539V143.75H33.7539V145.75ZM61.504 145.75H62.004V143.75H61.504V145.75ZM89.254 145.75H89.754V143.75H89.254V145.75ZM117.004 145.75H117.504V143.75H117.004V145.75ZM144.754 145.75H145.254V143.75H144.754V145.75ZM172.504 145.75H173.004V143.75H172.504V145.75ZM200.254 145.75H200.754V143.75H200.254V145.75ZM228.004 145.75H228.504V143.75H228.004V145.75ZM255.754 145.75H256.254V143.75H255.754V145.75ZM6.00391 173.5H6.50391V171.5H6.00391V173.5ZM33.7539 173.5H34.2539V171.5H33.7539V173.5ZM61.504 173.5H62.004V171.5H61.504V173.5ZM89.254 173.5H89.754V171.5H89.254V173.5ZM117.004 173.5H117.504V171.5H117.004V173.5ZM144.754 173.5H145.254V171.5H144.754V173.5ZM172.504 173.5H173.004V171.5H172.504V173.5ZM200.254 173.5H200.754V171.5H200.254V173.5ZM228.004 173.5H228.504V171.5H228.004V173.5ZM255.754 173.5H256.254V171.5H255.754V173.5ZM6.00391 201.25H6.50391V199.25H6.00391V201.25ZM33.7539 201.25H34.2539V199.25H33.7539V201.25ZM61.504 201.25H62.004V199.25H61.504V201.25ZM89.254 201.25H89.754V199.25H89.254V201.25ZM117.004 201.25H117.504V199.25H117.004V201.25ZM144.754 201.25H145.254V199.25H144.754V201.25ZM172.504 201.25H173.004V199.25H172.504V201.25ZM200.254 201.25H200.754V199.25H200.254V201.25ZM228.004 201.25H228.504V199.25H228.004V201.25ZM255.754 201.25H256.254V199.25H255.754V201.25ZM6.00391 229H6.50391V227H6.00391V229ZM33.7539 229H34.2539V227H33.7539V229ZM61.504 229H62.004V227H61.504V229ZM89.254 229H89.754V227H89.254V229ZM117.004 229H117.504V227H117.004V229ZM144.754 229H145.254V227H144.754V229ZM172.504 229H173.004V227H172.504V229ZM200.254 229H200.754V227H200.254V229ZM228.004 229H228.504V227H228.004V229ZM255.754 229H256.254V227H255.754V229ZM6.00391 256.75H6.50391V254.75H6.00391V256.75ZM33.7539 256.75H34.2539V254.75H33.7539V256.75ZM61.504 256.75H62.004V254.75H61.504V256.75ZM89.254 256.75H89.754V254.75H89.254V256.75ZM117.004 256.75H117.504V254.75H117.004V256.75ZM144.754 256.75H145.254V254.75H144.754V256.75ZM172.504 256.75H173.004V254.75H172.504V256.75ZM200.254 256.75H200.754V254.75H200.254V256.75ZM228.004 256.75H228.504V254.75H228.004V256.75ZM255.754 256.75H256.254V254.75H255.754V256.75Z" fill="black"/>
</svg>
