<svg width="262" height="262" viewBox="0 0 262 262" fill="none" xmlns="http://www.w3.org/2000/svg">
<path d="M0.671549 5.99966C0.671549 8.94518 3.05936 11.333 6.00488 11.333C8.9504 11.333 11.3382 8.94518 11.3382 5.99966C11.3382 3.05415 8.9504 0.666331 6.00488 0.666331C3.05936 0.666331 0.671549 3.05415 0.671549 5.99966ZM63.1559 5.99966C63.1559 8.94518 65.5437 11.333 68.4892 11.333C71.4348 11.333 73.8226 8.94518 73.8226 5.99966C73.8226 3.05415 71.4348 0.666331 68.4892 0.666331C65.5437 0.666331 63.1559 3.05415 63.1559 5.99966ZM125.64 5.99966C125.64 8.94518 128.028 11.333 130.974 11.333C133.919 11.333 136.307 8.94518 136.307 5.99966C136.307 3.05415 133.919 0.666331 130.974 0.666331C128.028 0.666331 125.64 3.05415 125.64 5.99966ZM188.125 5.99966C188.125 8.94518 190.512 11.333 193.458 11.333C196.403 11.333 198.791 8.94518 198.791 5.99966C198.791 3.05415 196.403 0.666331 193.458 0.666331C190.512 0.666331 188.125 3.05415 188.125 5.99966ZM250.609 5.99966C250.609 8.94518 252.997 11.333 255.942 11.333C258.888 11.333 261.276 8.94518 261.276 5.99966C261.276 3.05415 258.888 0.666331 255.942 0.666331C252.997 0.666331 250.609 3.05415 250.609 5.99966ZM0.671549 68.4998C0.671549 71.4453 3.05936 73.8331 6.00488 73.8331C8.9504 73.8331 11.3382 71.4453 11.3382 68.4998C11.3382 65.5542 8.9504 63.1664 6.00488 63.1664C3.05936 63.1664 0.671549 65.5542 0.671549 68.4998ZM63.1559 68.4998C63.1559 71.4453 65.5437 73.8331 68.4892 73.8331C71.4348 73.8331 73.8226 71.4453 73.8226 68.4998C73.8226 65.5542 71.4348 63.1664 68.4892 63.1664C65.5437 63.1664 63.1559 65.5542 63.1559 68.4998ZM125.64 68.4998C125.64 71.4453 128.028 73.8331 130.974 73.8331C133.919 73.8331 136.307 71.4453 136.307 68.4998C136.307 65.5542 133.919 63.1664 130.974 63.1664C128.028 63.1664 125.64 65.5542 125.64 68.4998ZM188.125 68.4998C188.125 71.4453 190.512 73.8331 193.458 73.8331C196.403 73.8331 198.791 71.4453 198.791 68.4998C198.791 65.5542 196.403 63.1664 193.458 63.1664C190.512 63.1664 188.125 65.5542 188.125 68.4998ZM250.609 68.4998C250.609 71.4453 252.997 73.8331 255.942 73.8331C258.888 73.8331 261.276 71.4453 261.276 68.4998C261.276 65.5542 258.888 63.1664 255.942 63.1664C252.997 63.1664 250.609 65.5542 250.609 68.4998ZM0.671549 131C0.671549 133.945 3.05936 136.333 6.00488 136.333C8.9504 136.333 11.3382 133.945 11.3382 131C11.3382 128.054 8.9504 125.667 6.00488 125.667C3.05936 125.667 0.671549 128.054 0.671549 131ZM63.1559 131C63.1559 133.945 65.5437 136.333 68.4892 136.333C71.4348 136.333 73.8226 133.945 73.8226 131C73.8226 128.054 71.4348 125.667 68.4892 125.667C65.5437 125.667 63.1559 128.054 63.1559 131ZM125.64 131C125.64 133.945 128.028 136.333 130.974 136.333C133.919 136.333 136.307 133.945 136.307 131C136.307 128.054 133.919 125.667 130.974 125.667C128.028 125.667 125.64 128.054 125.64 131ZM188.125 131C188.125 133.945 190.512 136.333 193.458 136.333C196.403 136.333 198.791 133.945 198.791 131C198.791 128.054 196.403 125.667 193.458 125.667C190.512 125.667 188.125 128.054 188.125 131ZM250.609 131C250.609 133.945 252.997 136.333 255.942 136.333C258.888 136.333 261.276 133.945 261.276 131C261.276 128.054 258.888 125.667 255.942 125.667C252.997 125.667 250.609 128.054 250.609 131ZM0.671549 193.5C0.671549 196.445 3.05936 198.833 6.00488 198.833C8.9504 198.833 11.3382 196.445 11.3382 193.5C11.3382 190.554 8.9504 188.167 6.00488 188.167C3.05936 188.167 0.671549 190.554 0.671549 193.5ZM63.1559 193.5C63.1559 196.445 65.5437 198.833 68.4892 198.833C71.4348 198.833 73.8226 196.445 73.8226 193.5C73.8226 190.554 71.4348 188.167 68.4892 188.167C65.5437 188.167 63.1559 190.554 63.1559 193.5ZM125.64 193.5C125.64 196.445 128.028 198.833 130.974 198.833C133.919 198.833 136.307 196.445 136.307 193.5C136.307 190.554 133.919 188.167 130.974 188.167C128.028 188.167 125.64 190.554 125.64 193.5ZM188.125 193.5C188.125 196.445 190.512 198.833 193.458 198.833C196.403 198.833 198.791 196.445 198.791 193.5C198.791 190.554 196.403 188.167 193.458 188.167C190.512 188.167 188.125 190.554 188.125 193.5ZM250.609 193.5C250.609 196.445 252.997 198.833 255.942 198.833C258.888 198.833 261.276 196.445 261.276 193.5C261.276 190.554 258.888 188.167 255.942 188.167C252.997 188.167 250.609 190.554 250.609 193.5ZM0.671549 256C0.671549 258.946 3.05936 261.333 6.00488 261.333C8.9504 261.333 11.3382 258.946 11.3382 256C11.3382 253.055 8.9504 250.667 6.00488 250.667C3.05936 250.667 0.671549 253.055 0.671549 256ZM63.1559 256C63.1559 258.946 65.5437 261.333 68.4892 261.333C71.4348 261.333 73.8226 258.946 73.8226 256C73.8226 253.055 71.4348 250.667 68.4892 250.667C65.5437 250.667 63.1559 253.055 63.1559 256ZM125.64 256C125.64 258.946 128.028 261.333 130.974 261.333C133.919 261.333 136.307 258.946 136.307 256C136.307 253.055 133.919 250.667 130.974 250.667C128.028 250.667 125.64 253.055 125.64 256ZM188.125 256C188.125 258.946 190.512 261.333 193.458 261.333C196.403 261.333 198.791 258.946 198.791 256C198.791 253.055 196.403 250.667 193.458 250.667C190.512 250.667 188.125 253.055 188.125 256ZM250.609 256C250.609 258.946 252.997 261.333 255.942 261.333C258.888 261.333 261.276 258.946 261.276 256C261.276 253.055 258.888 250.667 255.942 250.667C252.997 250.667 250.609 253.055 250.609 256ZM6.00488 6.99966H6.5678V4.99966H6.00488V6.99966ZM68.4892 6.99966H69.0522V4.99966H68.4892V6.99966ZM130.974 6.99966H131.537V4.99966H130.974V6.99966ZM193.458 6.99966H194.021V4.99966H193.458V6.99966ZM255.942 6.99966H256.505V4.99966H255.942V6.99966ZM6.00488 69.4998H6.5678V67.4998H6.00488V69.4998ZM68.4892 69.4998H69.0522V67.4998H68.4892V69.4998ZM130.974 69.4998H131.537V67.4998H130.974V69.4998ZM193.458 69.4998H194.021V67.4998H193.458V69.4998ZM255.942 69.4998H256.505V67.4998H255.942V69.4998ZM6.00488 132H6.5678V130H6.00488V132ZM68.4892 132H69.0522V130H68.4892V132ZM130.974 132H131.537V130H130.974V132ZM193.458 132H194.021V130H193.458V132ZM255.942 132H256.505V130H255.942V132ZM6.00488 194.5H6.5678V192.5H6.00488V194.5ZM68.4892 194.5H69.0522V192.5H68.4892V194.5ZM130.974 194.5H131.537V192.5H130.974V194.5ZM193.458 194.5H194.021V192.5H193.458V194.5ZM255.942 194.5H256.505V192.5H255.942V194.5ZM6.00488 257H6.5678V255H6.00488V257ZM68.4892 257H69.0522V255H68.4892V257ZM130.974 257H131.537V255H130.974V257ZM193.458 257H194.021V255H193.458V257ZM255.942 257H256.505V255H255.942V257Z" fill="black"/>
</svg>
