<svg width="252" height="252" viewBox="0 0 252 252" fill="none" xmlns="http://www.w3.org/2000/svg">
<path d="M13.2807 13.2765H58.3701M13.2807 13.2765V58.3658M13.2807 13.2765L238.727 238.723M13.2807 13.2765L1.00391 0.999664M58.3701 13.2765V58.3658M58.3701 13.2765H103.459M58.3701 58.3658H13.2807M58.3701 58.3658V103.455M58.3701 58.3658H103.459M13.2807 58.3658V103.455M58.3701 103.455H13.2807M58.3701 103.455V148.545M58.3701 103.455H103.459M13.2807 103.455V148.545M58.3701 148.545H13.2807M58.3701 148.545V193.634M58.3701 148.545H103.459M13.2807 148.545V193.634M58.3701 193.634H13.2807M58.3701 193.634V238.723M58.3701 193.634H103.459M13.2807 193.634V238.723M58.3701 238.723H13.2807M58.3701 238.723H103.459M13.2807 238.723L238.727 13.2765M13.2807 238.723L1.00391 251M103.459 13.2765V58.3658M103.459 13.2765H148.549M103.459 58.3658V103.455M103.459 58.3658H148.549M103.459 103.455V148.545M103.459 103.455H148.549M103.459 148.545V193.634M103.459 148.545H148.549M103.459 193.634V238.723M103.459 193.634H148.549M103.459 238.723H148.549M148.549 13.2765V58.3658M148.549 13.2765H193.638M148.549 58.3658V103.455M148.549 58.3658H193.638M148.549 103.455V148.545M148.549 103.455H193.638M148.549 148.545V193.634M148.549 148.545H193.638M148.549 193.634V238.723M148.549 193.634H193.638M148.549 238.723H193.638M193.638 13.2765V58.3658M193.638 13.2765H238.727M193.638 58.3658V103.455M193.638 58.3658H238.727M193.638 103.455V148.545M193.638 103.455H238.727M193.638 148.545V193.634M193.638 148.545H238.727M193.638 193.634V238.723M193.638 193.634H238.727M193.638 238.723H238.727M238.727 13.2765V58.3658M238.727 13.2765L251.004 0.999664M238.727 58.3658V103.455M238.727 103.455V148.545M238.727 148.545V193.634M238.727 193.634V238.723M238.727 238.723L251.004 251M238.727 126C238.727 119.33 238.148 112.795 237.037 106.443C232.379 79.8155 218.377 56.4017 198.534 39.7065C188.572 31.3246 177.138 24.6362 164.675 20.0847C152.614 15.6799 139.59 13.2765 126.004 13.2765C112.499 13.2765 99.548 15.6515 87.547 20.0068C75.0605 24.5382 63.6021 31.2132 53.6164 39.587C33.7087 56.2813 19.6546 79.7276 14.9784 106.402C13.8626 112.767 13.2807 119.315 13.2807 126C13.2807 132.684 13.8626 139.233 14.9784 145.598C19.6546 172.272 33.7087 195.718 53.6164 212.413C63.6021 220.786 75.0605 227.462 87.547 231.993C99.548 236.348 112.499 238.723 126.004 238.723C139.59 238.723 152.614 236.32 164.675 231.915C177.138 227.363 188.572 220.675 198.534 212.293C218.377 195.598 232.379 172.184 237.037 145.557C238.148 139.205 238.727 132.67 238.727 126ZM193.638 126C193.638 163.353 163.357 193.634 126.004 193.634C88.6509 193.634 58.3701 163.353 58.3701 126C58.3701 88.6466 88.6509 58.3658 126.004 58.3658C163.357 58.3658 193.638 88.6466 193.638 126ZM148.549 126C148.549 138.451 138.455 148.545 126.004 148.545C113.553 148.545 103.459 138.451 103.459 126C103.459 113.549 113.553 103.455 126.004 103.455C138.455 103.455 148.549 113.549 148.549 126Z" stroke="black" stroke-width="2" stroke-linejoin="round"/>
</svg>
