<svg width="252" height="252" viewBox="0 0 252 252" fill="none" xmlns="http://www.w3.org/2000/svg">
<path d="M26.0019 1.00011V0.250106H25.2519L25.2519 1.0001L26.0019 1.00011ZM0.999023 26V25.25H0.249022V26H0.999023ZM0.999023 226H0.249022V226.75H0.999023V226ZM26.0019 251H25.2519V251.75H26.0019V251ZM226.002 251V251.75H226.752V251H226.002ZM250.999 226L250.999 226.75L251.749 226.75V226H250.999ZM250.999 26H251.749V25.2501L250.999 25.25L250.999 26ZM226.002 1.00011L226.752 1.0001V0.250106H226.002V1.00011ZM1.00184 26.75C15.2231 26.75 26.7518 15.2214 26.7519 1.00011L25.2519 1.0001C25.2518 14.393 14.3947 25.25 1.00184 25.25V26.75ZM0.999023 26.75C0.999025 26.75 0.999027 26.75 0.999029 26.75C0.999031 26.75 0.999033 26.75 0.999034 26.75C0.999036 26.75 0.999038 26.75 0.99904 26.75C0.999042 26.75 0.999044 26.75 0.999045 26.75C0.999047 26.75 0.999049 26.75 0.999051 26.75C0.999053 26.75 0.999055 26.75 0.999056 26.75C0.999058 26.75 0.99906 26.75 0.999062 26.75C0.999064 26.75 0.999066 26.75 0.999067 26.75C0.999069 26.75 0.999071 26.75 0.999073 26.75C0.999075 26.75 0.999077 26.75 0.999078 26.75C0.99908 26.75 0.999082 26.75 0.999084 26.75C0.999086 26.75 0.999088 26.75 0.999089 26.75C0.999091 26.75 0.999093 26.75 0.999095 26.75C0.999097 26.75 0.999099 26.75 0.9991 26.75C0.999102 26.75 0.999104 26.75 0.999106 26.75C0.999108 26.75 0.99911 26.75 0.999111 26.75C0.999113 26.75 0.999115 26.75 0.999117 26.75C0.999119 26.75 0.999121 26.75 0.999122 26.75C0.999124 26.75 0.999126 26.75 0.999128 26.75C0.99913 26.75 0.999132 26.75 0.999133 26.75C0.999135 26.75 0.999137 26.75 0.999139 26.75C0.999141 26.75 0.999143 26.75 0.999144 26.75C0.999146 26.75 0.999148 26.75 0.99915 26.75C0.999152 26.75 0.999154 26.75 0.999155 26.75C0.999157 26.75 0.999159 26.75 0.999161 26.75C0.999163 26.75 0.999165 26.75 0.999166 26.75C0.999168 26.75 0.99917 26.75 0.999172 26.75C0.999174 26.75 0.999176 26.75 0.999177 26.75C0.999179 26.75 0.999181 26.75 0.999183 26.75C0.999185 26.75 0.999187 26.75 0.999188 26.75C0.99919 26.75 0.999192 26.75 0.999194 26.75C0.999196 26.75 0.999198 26.75 0.999199 26.75C0.999201 26.75 0.999203 26.75 0.999205 26.75C0.999207 26.75 0.999209 26.75 0.99921 26.75C0.999212 26.75 0.999214 26.75 0.999216 26.75C0.999218 26.75 0.99922 26.75 0.999221 26.75C0.999223 26.75 0.999225 26.75 0.999227 26.75C0.999229 26.75 0.999231 26.75 0.999232 26.75C0.999234 26.75 0.999236 26.75 0.999238 26.75C0.99924 26.75 0.999242 26.75 0.999243 26.75C0.999245 26.75 0.999247 26.75 0.999249 26.75C0.999251 26.75 0.999253 26.75 0.999254 26.75C0.999256 26.75 0.999258 26.75 0.99926 26.75C0.999262 26.75 0.999264 26.75 0.999265 26.75C0.999267 26.75 0.999269 26.75 0.999271 26.75C0.999273 26.75 0.999275 26.75 0.999276 26.75C0.999278 26.75 0.99928 26.75 0.999282 26.75C0.999284 26.75 0.999286 26.75 0.999287 26.75C0.999289 26.75 0.999291 26.75 0.999293 26.75C0.999295 26.75 0.999297 26.75 0.999298 26.75C0.9993 26.75 0.999302 26.75 0.999304 26.75C0.999306 26.75 0.999308 26.75 0.999309 26.75C0.999311 26.75 0.999313 26.75 0.999315 26.75C0.999317 26.75 0.999319 26.75 0.99932 26.75C0.999322 26.75 0.999324 26.75 0.999326 26.75C0.999328 26.75 0.99933 26.75 0.999331 26.75C0.999333 26.75 0.999335 26.75 0.999337 26.75C0.999339 26.75 0.999341 26.75 0.999342 26.75C0.999344 26.75 0.999346 26.75 0.999348 26.75C0.99935 26.75 0.999352 26.75 0.999353 26.75C0.999355 26.75 0.999357 26.75 0.999359 26.75C0.999361 26.75 0.999363 26.75 0.999364 26.75C0.999366 26.75 0.999368 26.75 0.99937 26.75C0.999372 26.75 0.999374 26.75 0.999375 26.75C0.999377 26.75 0.999379 26.75 0.999381 26.75C0.999383 26.75 0.999385 26.75 0.999386 26.75C0.999388 26.75 0.99939 26.75 0.999392 26.75C0.999394 26.75 0.999396 26.75 0.999397 26.75C0.999399 26.75 0.999401 26.75 0.999403 26.75C0.999405 26.75 0.999406 26.75 0.999408 26.75C0.99941 26.75 0.999412 26.75 0.999414 26.75C0.999416 26.75 0.999417 26.75 0.999419 26.75C0.999421 26.75 0.999423 26.75 0.999425 26.75C0.999427 26.75 0.999428 26.75 0.99943 26.75C0.999432 26.75 0.999434 26.75 0.999436 26.75C0.999438 26.75 0.999439 26.75 0.999441 26.75C0.999443 26.75 0.999445 26.75 0.999447 26.75C0.999449 26.75 0.99945 26.75 0.999452 26.75C0.999454 26.75 0.999456 26.75 0.999458 26.75C0.99946 26.75 0.999461 26.75 0.999463 26.75C0.999465 26.75 0.999467 26.75 0.999469 26.75C0.999471 26.75 0.999472 26.75 0.999474 26.75C0.999476 26.75 0.999478 26.75 0.99948 26.75C0.999482 26.75 0.999483 26.75 0.999485 26.75C0.999487 26.75 0.999489 26.75 0.999491 26.75C0.999493 26.75 0.999494 26.75 0.999496 26.75C0.999498 26.75 0.9995 26.75 0.999502 26.75C0.999504 26.75 0.999505 26.75 0.999507 26.75C0.999509 26.75 0.999511 26.75 0.999513 26.75C0.999515 26.75 0.999516 26.75 0.999518 26.75C0.99952 26.75 0.999522 26.75 0.999524 26.75C0.999526 26.75 0.999527 26.75 0.999529 26.75C0.999531 26.75 0.999533 26.75 0.999535 26.75C0.999537 26.75 0.999538 26.75 0.99954 26.75C0.999542 26.75 0.999544 26.75 0.999546 26.75C0.999548 26.75 0.999549 26.75 0.999551 26.75C0.999553 26.75 0.999555 26.75 0.999557 26.75C0.999559 26.75 0.99956 26.75 0.999562 26.75C0.999564 26.75 0.999566 26.75 0.999568 26.75C0.99957 26.75 0.999571 26.75 0.999573 26.75C0.999575 26.75 0.999577 26.75 0.999579 26.75C0.999581 26.75 0.999582 26.75 0.999584 26.75C0.999586 26.75 0.999588 26.75 0.99959 26.75C0.999592 26.75 0.999593 26.75 0.999595 26.75C0.999597 26.75 0.999599 26.75 0.999601 26.75C0.999603 26.75 0.999604 26.75 0.999606 26.75C0.999608 26.75 0.99961 26.75 0.999612 26.75C0.999614 26.75 0.999615 26.75 0.999617 26.75C0.999619 26.75 0.999621 26.75 0.999623 26.75C0.999625 26.75 0.999626 26.75 0.999628 26.75C0.99963 26.75 0.999632 26.75 0.999634 26.75C0.999636 26.75 0.999637 26.75 0.999639 26.75C0.999641 26.75 0.999643 26.75 0.999645 26.75C0.999647 26.75 0.999648 26.75 0.99965 26.75C0.999652 26.75 0.999654 26.75 0.999656 26.75C0.999658 26.75 0.999659 26.75 0.999661 26.75C0.999663 26.75 0.999665 26.75 0.999667 26.75C0.999669 26.75 0.99967 26.75 0.999672 26.75C0.999674 26.75 0.999676 26.75 0.999678 26.75C0.99968 26.75 0.999681 26.75 0.999683 26.75C0.999685 26.75 0.999687 26.75 0.999689 26.75C0.999691 26.75 0.999692 26.75 0.999694 26.75C0.999696 26.75 0.999698 26.75 0.9997 26.75C0.999702 26.75 0.999703 26.75 0.999705 26.75C0.999707 26.75 0.999709 26.75 0.999711 26.75C0.999713 26.75 0.999714 26.75 0.999716 26.75C0.999718 26.75 0.99972 26.75 0.999722 26.75C0.999724 26.75 0.999725 26.75 0.999727 26.75C0.999729 26.75 0.999731 26.75 0.999733 26.75C0.999735 26.75 0.999736 26.75 0.999738 26.75C0.99974 26.75 0.999742 26.75 0.999744 26.75C0.999746 26.75 0.999747 26.75 0.999749 26.75C0.999751 26.75 0.999753 26.75 0.999755 26.75C0.999757 26.75 0.999758 26.75 0.99976 26.75C0.999762 26.75 0.999764 26.75 0.999766 26.75C0.999768 26.75 0.999769 26.75 0.999771 26.75C0.999773 26.75 0.999775 26.75 0.999777 26.75C0.999779 26.75 0.99978 26.75 0.999782 26.75C0.999784 26.75 0.999786 26.75 0.999788 26.75C0.99979 26.75 0.999791 26.75 0.999793 26.75C0.999795 26.75 0.999797 26.75 0.999799 26.75C0.999801 26.75 0.999802 26.75 0.999804 26.75C0.999806 26.75 0.999808 26.75 0.99981 26.75C0.999812 26.75 0.999813 26.75 0.999815 26.75C0.999817 26.75 0.999819 26.75 0.999821 26.75C0.999823 26.75 0.999824 26.75 0.999826 26.75C0.999828 26.75 0.99983 26.75 0.999832 26.75C0.999834 26.75 0.999835 26.75 0.999837 26.75C0.999839 26.75 0.999841 26.75 0.999843 26.75C0.999845 26.75 0.999846 26.75 0.999848 26.75C0.99985 26.75 0.999852 26.75 0.999854 26.75C0.999856 26.75 0.999857 26.75 0.999859 26.75C0.999861 26.75 0.999863 26.75 0.999865 26.75C0.999867 26.75 0.999868 26.75 0.99987 26.75C0.999872 26.75 0.999874 26.75 0.999876 26.75C0.999878 26.75 0.999879 26.75 0.999881 26.75C0.999883 26.75 0.999885 26.75 0.999887 26.75C0.999889 26.75 0.99989 26.75 0.999892 26.75C0.999894 26.75 0.999896 26.75 0.999898 26.75C0.9999 26.75 0.999901 26.75 0.999903 26.75C0.999905 26.75 0.999907 26.75 0.999909 26.75C0.999911 26.75 0.999912 26.75 0.999914 26.75C0.999916 26.75 0.999918 26.75 0.99992 26.75C0.999922 26.75 0.999923 26.75 0.999925 26.75C0.999927 26.75 0.999929 26.75 0.999931 26.75C0.999933 26.75 0.999934 26.75 0.999936 26.75C0.999938 26.75 0.99994 26.75 0.999942 26.75C0.999944 26.75 0.999945 26.75 0.999947 26.75C0.999949 26.75 0.999951 26.75 0.999953 26.75C0.999955 26.75 0.999956 26.75 0.999958 26.75C0.99996 26.75 0.999962 26.75 0.999964 26.75C0.999966 26.75 0.999967 26.75 0.999969 26.75C0.999971 26.75 0.999973 26.75 0.999975 26.75C0.999977 26.75 0.999978 26.75 0.99998 26.75C0.999982 26.75 0.999984 26.75 0.999986 26.75C0.999988 26.75 0.999989 26.75 0.999991 26.75C0.999993 26.75 0.999995 26.75 0.999997 26.75C0.999999 26.75 1 26.75 1 26.75C1 26.75 1.00001 26.75 1.00001 26.75C1.00001 26.75 1.00001 26.75 1.00001 26.75C1.00001 26.75 1.00002 26.75 1.00002 26.75C1.00002 26.75 1.00002 26.75 1.00002 26.75C1.00003 26.75 1.00003 26.75 1.00003 26.75C1.00003 26.75 1.00003 26.75 1.00004 26.75C1.00004 26.75 1.00004 26.75 1.00004 26.75C1.00004 26.75 1.00004 26.75 1.00005 26.75C1.00005 26.75 1.00005 26.75 1.00005 26.75C1.00005 26.75 1.00006 26.75 1.00006 26.75C1.00006 26.75 1.00006 26.75 1.00006 26.75C1.00006 26.75 1.00007 26.75 1.00007 26.75C1.00007 26.75 1.00007 26.75 1.00007 26.75C1.00008 26.75 1.00008 26.75 1.00008 26.75C1.00008 26.75 1.00008 26.75 1.00008 26.75C1.00009 26.75 1.00009 26.75 1.00009 26.75C1.00009 26.75 1.00009 26.75 1.0001 26.75C1.0001 26.75 1.0001 26.75 1.0001 26.75C1.0001 26.75 1.0001 26.75 1.00011 26.75C1.00011 26.75 1.00011 26.75 1.00011 26.75C1.00011 26.75 1.00012 26.75 1.00012 26.75C1.00012 26.75 1.00012 26.75 1.00012 26.75C1.00012 26.75 1.00013 26.75 1.00013 26.75C1.00013 26.75 1.00013 26.75 1.00013 26.75C1.00014 26.75 1.00014 26.75 1.00014 26.75C1.00014 26.75 1.00014 26.75 1.00015 26.75C1.00015 26.75 1.00015 26.75 1.00015 26.75C1.00015 26.75 1.00015 26.75 1.00016 26.75C1.00016 26.75 1.00016 26.75 1.00016 26.75C1.00016 26.75 1.00017 26.75 1.00017 26.75C1.00017 26.75 1.00017 26.75 1.00017 26.75C1.00017 26.75 1.00018 26.75 1.00018 26.75C1.00018 26.75 1.00018 26.75 1.00018 26.75C1.00019 26.75 1.00019 26.75 1.00019 26.75C1.00019 26.75 1.00019 26.75 1.00019 26.75C1.0002 26.75 1.0002 26.75 1.0002 26.75C1.0002 26.75 1.0002 26.75 1.00021 26.75C1.00021 26.75 1.00021 26.75 1.00021 26.75C1.00021 26.75 1.00021 26.75 1.00022 26.75C1.00022 26.75 1.00022 26.75 1.00022 26.75C1.00022 26.75 1.00023 26.75 1.00023 26.75C1.00023 26.75 1.00023 26.75 1.00023 26.75C1.00023 26.75 1.00024 26.75 1.00024 26.75C1.00024 26.75 1.00024 26.75 1.00024 26.75C1.00025 26.75 1.00025 26.75 1.00025 26.75C1.00025 26.75 1.00025 26.75 1.00026 26.75C1.00026 26.75 1.00026 26.75 1.00026 26.75C1.00026 26.75 1.00026 26.75 1.00027 26.75C1.00027 26.75 1.00027 26.75 1.00027 26.75C1.00027 26.75 1.00028 26.75 1.00028 26.75C1.00028 26.75 1.00028 26.75 1.00028 26.75C1.00028 26.75 1.00029 26.75 1.00029 26.75C1.00029 26.75 1.00029 26.75 1.00029 26.75C1.0003 26.75 1.0003 26.75 1.0003 26.75C1.0003 26.75 1.0003 26.75 1.0003 26.75C1.00031 26.75 1.00031 26.75 1.00031 26.75C1.00031 26.75 1.00031 26.75 1.00032 26.75C1.00032 26.75 1.00032 26.75 1.00032 26.75C1.00032 26.75 1.00032 26.75 1.00033 26.75C1.00033 26.75 1.00033 26.75 1.00033 26.75C1.00033 26.75 1.00034 26.75 1.00034 26.75C1.00034 26.75 1.00034 26.75 1.00034 26.75C1.00034 26.75 1.00035 26.75 1.00035 26.75C1.00035 26.75 1.00035 26.75 1.00035 26.75C1.00036 26.75 1.00036 26.75 1.00036 26.75C1.00036 26.75 1.00036 26.75 1.00037 26.75C1.00037 26.75 1.00037 26.75 1.00037 26.75C1.00037 26.75 1.00037 26.75 1.00038 26.75C1.00038 26.75 1.00038 26.75 1.00038 26.75C1.00038 26.75 1.00039 26.75 1.00039 26.75C1.00039 26.75 1.00039 26.75 1.00039 26.75C1.00039 26.75 1.0004 26.75 1.0004 26.75C1.0004 26.75 1.0004 26.75 1.0004 26.75C1.00041 26.75 1.00041 26.75 1.00041 26.75C1.00041 26.75 1.00041 26.75 1.00041 26.75C1.00042 26.75 1.00042 26.75 1.00042 26.75C1.00042 26.75 1.00042 26.75 1.00043 26.75C1.00043 26.75 1.00043 26.75 1.00043 26.75C1.00043 26.75 1.00043 26.75 1.00044 26.75C1.00044 26.75 1.00044 26.75 1.00044 26.75C1.00044 26.75 1.00045 26.75 1.00045 26.75C1.00045 26.75 1.00045 26.75 1.00045 26.75C1.00045 26.75 1.00046 26.75 1.00046 26.75C1.00046 26.75 1.00046 26.75 1.00046 26.75C1.00047 26.75 1.00047 26.75 1.00047 26.75C1.00047 26.75 1.00047 26.75 1.00048 26.75C1.00048 26.75 1.00048 26.75 1.00048 26.75C1.00048 26.75 1.00048 26.75 1.00049 26.75C1.00049 26.75 1.00049 26.75 1.00049 26.75C1.00049 26.75 1.0005 26.75 1.0005 26.75C1.0005 26.75 1.0005 26.75 1.0005 26.75C1.0005 26.75 1.00051 26.75 1.00051 26.75C1.00051 26.75 1.00051 26.75 1.00051 26.75C1.00052 26.75 1.00052 26.75 1.00052 26.75C1.00052 26.75 1.00052 26.75 1.00052 26.75C1.00053 26.75 1.00053 26.75 1.00053 26.75C1.00053 26.75 1.00053 26.75 1.00054 26.75C1.00054 26.75 1.00054 26.75 1.00054 26.75C1.00054 26.75 1.00054 26.75 1.00055 26.75C1.00055 26.75 1.00055 26.75 1.00055 26.75C1.00055 26.75 1.00056 26.75 1.00056 26.75C1.00056 26.75 1.00056 26.75 1.00056 26.75C1.00056 26.75 1.00057 26.75 1.00057 26.75C1.00057 26.75 1.00057 26.75 1.00057 26.75C1.00058 26.75 1.00058 26.75 1.00058 26.75C1.00058 26.75 1.00058 26.75 1.00059 26.75C1.00059 26.75 1.00059 26.75 1.00059 26.75C1.00059 26.75 1.00059 26.75 1.0006 26.75C1.0006 26.75 1.0006 26.75 1.0006 26.75C1.0006 26.75 1.00061 26.75 1.00061 26.75C1.00061 26.75 1.00061 26.75 1.00061 26.75C1.00061 26.75 1.00062 26.75 1.00062 26.75C1.00062 26.75 1.00062 26.75 1.00062 26.75C1.00063 26.75 1.00063 26.75 1.00063 26.75C1.00063 26.75 1.00063 26.75 1.00063 26.75C1.00064 26.75 1.00064 26.75 1.00064 26.75C1.00064 26.75 1.00064 26.75 1.00065 26.75C1.00065 26.75 1.00065 26.75 1.00065 26.75C1.00065 26.75 1.00065 26.75 1.00066 26.75C1.00066 26.75 1.00066 26.75 1.00066 26.75C1.00066 26.75 1.00067 26.75 1.00067 26.75C1.00067 26.75 1.00067 26.75 1.00067 26.75C1.00067 26.75 1.00068 26.75 1.00068 26.75C1.00068 26.75 1.00068 26.75 1.00068 26.75C1.00069 26.75 1.00069 26.75 1.00069 26.75C1.00069 26.75 1.00069 26.75 1.00069 26.75C1.0007 26.75 1.0007 26.75 1.0007 26.75C1.0007 26.75 1.0007 26.75 1.00071 26.75C1.00071 26.75 1.00071 26.75 1.00071 26.75C1.00071 26.75 1.00072 26.75 1.00072 26.75C1.00072 26.75 1.00072 26.75 1.00072 26.75C1.00072 26.75 1.00073 26.75 1.00073 26.75C1.00073 26.75 1.00073 26.75 1.00073 26.75C1.00074 26.75 1.00074 26.75 1.00074 26.75C1.00074 26.75 1.00074 26.75 1.00074 26.75C1.00075 26.75 1.00075 26.75 1.00075 26.75C1.00075 26.75 1.00075 26.75 1.00076 26.75C1.00076 26.75 1.00076 26.75 1.00076 26.75C1.00076 26.75 1.00076 26.75 1.00077 26.75C1.00077 26.75 1.00077 26.75 1.00077 26.75C1.00077 26.75 1.00078 26.75 1.00078 26.75C1.00078 26.75 1.00078 26.75 1.00078 26.75C1.00078 26.75 1.00079 26.75 1.00079 26.75C1.00079 26.75 1.00079 26.75 1.00079 26.75C1.0008 26.75 1.0008 26.75 1.0008 26.75C1.0008 26.75 1.0008 26.75 1.0008 26.75C1.00081 26.75 1.00081 26.75 1.00081 26.75C1.00081 26.75 1.00081 26.75 1.00082 26.75C1.00082 26.75 1.00082 26.75 1.00082 26.75C1.00082 26.75 1.00083 26.75 1.00083 26.75C1.00083 26.75 1.00083 26.75 1.00083 26.75C1.00083 26.75 1.00084 26.75 1.00084 26.75C1.00084 26.75 1.00084 26.75 1.00084 26.75C1.00085 26.75 1.00085 26.75 1.00085 26.75C1.00085 26.75 1.00085 26.75 1.00085 26.75C1.00086 26.75 1.00086 26.75 1.00086 26.75C1.00086 26.75 1.00086 26.75 1.00087 26.75C1.00087 26.75 1.00087 26.75 1.00087 26.75C1.00087 26.75 1.00087 26.75 1.00088 26.75C1.00088 26.75 1.00088 26.75 1.00088 26.75C1.00088 26.75 1.00089 26.75 1.00089 26.75C1.00089 26.75 1.00089 26.75 1.00089 26.75C1.00089 26.75 1.0009 26.75 1.0009 26.75C1.0009 26.75 1.0009 26.75 1.0009 26.75C1.00091 26.75 1.00091 26.75 1.00091 26.75C1.00091 26.75 1.00091 26.75 1.00091 26.75C1.00092 26.75 1.00092 26.75 1.00092 26.75C1.00092 26.75 1.00092 26.75 1.00093 26.75C1.00093 26.75 1.00093 26.75 1.00093 26.75C1.00093 26.75 1.00094 26.75 1.00094 26.75C1.00094 26.75 1.00094 26.75 1.00094 26.75C1.00094 26.75 1.00095 26.75 1.00095 26.75C1.00095 26.75 1.00095 26.75 1.00095 26.75C1.00096 26.75 1.00096 26.75 1.00096 26.75C1.00096 26.75 1.00096 26.75 1.00096 26.75C1.00097 26.75 1.00097 26.75 1.00097 26.75C1.00097 26.75 1.00097 26.75 1.00098 26.75C1.00098 26.75 1.00098 26.75 1.00098 26.75C1.00098 26.75 1.00098 26.75 1.00099 26.75C1.00099 26.75 1.00099 26.75 1.00099 26.75C1.00099 26.75 1.001 26.75 1.001 26.75C1.001 26.75 1.001 26.75 1.001 26.75C1.001 26.75 1.00101 26.75 1.00101 26.75C1.00101 26.75 1.00101 26.75 1.00101 26.75C1.00102 26.75 1.00102 26.75 1.00102 26.75C1.00102 26.75 1.00102 26.75 1.00102 26.75C1.00103 26.75 1.00103 26.75 1.00103 26.75C1.00103 26.75 1.00103 26.75 1.00104 26.75C1.00104 26.75 1.00104 26.75 1.00104 26.75C1.00104 26.75 1.00105 26.75 1.00105 26.75C1.00105 26.75 1.00105 26.75 1.00105 26.75C1.00105 26.75 1.00106 26.75 1.00106 26.75C1.00106 26.75 1.00106 26.75 1.00106 26.75C1.00107 26.75 1.00107 26.75 1.00107 26.75C1.00107 26.75 1.00107 26.75 1.00107 26.75C1.00108 26.75 1.00108 26.75 1.00108 26.75C1.00108 26.75 1.00108 26.75 1.00109 26.75C1.00109 26.75 1.00109 26.75 1.00109 26.75C1.00109 26.75 1.00109 26.75 1.0011 26.75C1.0011 26.75 1.0011 26.75 1.0011 26.75C1.0011 26.75 1.00111 26.75 1.00111 26.75C1.00111 26.75 1.00111 26.75 1.00111 26.75C1.00111 26.75 1.00112 26.75 1.00112 26.75C1.00112 26.75 1.00112 26.75 1.00112 26.75C1.00113 26.75 1.00113 26.75 1.00113 26.75C1.00113 26.75 1.00113 26.75 1.00113 26.75C1.00114 26.75 1.00114 26.75 1.00114 26.75C1.00114 26.75 1.00114 26.75 1.00115 26.75C1.00115 26.75 1.00115 26.75 1.00115 26.75C1.00115 26.75 1.00116 26.75 1.00116 26.75C1.00116 26.75 1.00116 26.75 1.00116 26.75C1.00116 26.75 1.00117 26.75 1.00117 26.75C1.00117 26.75 1.00117 26.75 1.00117 26.75C1.00118 26.75 1.00118 26.75 1.00118 26.75C1.00118 26.75 1.00118 26.75 1.00118 26.75C1.00119 26.75 1.00119 26.75 1.00119 26.75C1.00119 26.75 1.00119 26.75 1.0012 26.75C1.0012 26.75 1.0012 26.75 1.0012 26.75C1.0012 26.75 1.0012 26.75 1.00121 26.75C1.00121 26.75 1.00121 26.75 1.00121 26.75C1.00121 26.75 1.00122 26.75 1.00122 26.75C1.00122 26.75 1.00122 26.75 1.00122 26.75C1.00122 26.75 1.00123 26.75 1.00123 26.75C1.00123 26.75 1.00123 26.75 1.00123 26.75C1.00124 26.75 1.00124 26.75 1.00124 26.75C1.00124 26.75 1.00124 26.75 1.00124 26.75C1.00125 26.75 1.00125 26.75 1.00125 26.75C1.00125 26.75 1.00125 26.75 1.00126 26.75C1.00126 26.75 1.00126 26.75 1.00126 26.75C1.00126 26.75 1.00126 26.75 1.00127 26.75C1.00127 26.75 1.00127 26.75 1.00127 26.75C1.00127 26.75 1.00128 26.75 1.00128 26.75C1.00128 26.75 1.00128 26.75 1.00128 26.75C1.00129 26.75 1.00129 26.75 1.00129 26.75C1.00129 26.75 1.00129 26.75 1.00129 26.75C1.0013 26.75 1.0013 26.75 1.0013 26.75C1.0013 26.75 1.0013 26.75 1.00131 26.75C1.00131 26.75 1.00131 26.75 1.00131 26.75C1.00131 26.75 1.00131 26.75 1.00132 26.75C1.00132 26.75 1.00132 26.75 1.00132 26.75C1.00132 26.75 1.00133 26.75 1.00133 26.75C1.00133 26.75 1.00133 26.75 1.00133 26.75C1.00133 26.75 1.00134 26.75 1.00134 26.75C1.00134 26.75 1.00134 26.75 1.00134 26.75C1.00135 26.75 1.00135 26.75 1.00135 26.75C1.00135 26.75 1.00135 26.75 1.00135 26.75C1.00136 26.75 1.00136 26.75 1.00136 26.75C1.00136 26.75 1.00136 26.75 1.00137 26.75C1.00137 26.75 1.00137 26.75 1.00137 26.75C1.00137 26.75 1.00137 26.75 1.00138 26.75C1.00138 26.75 1.00138 26.75 1.00138 26.75C1.00138 26.75 1.00139 26.75 1.00139 26.75C1.00139 26.75 1.00139 26.75 1.00139 26.75C1.0014 26.75 1.0014 26.75 1.0014 26.75C1.0014 26.75 1.0014 26.75 1.0014 26.75C1.00141 26.75 1.00141 26.75 1.00141 26.75C1.00141 26.75 1.00141 26.75 1.00142 26.75C1.00142 26.75 1.00142 26.75 1.00142 26.75C1.00142 26.75 1.00142 26.75 1.00143 26.75C1.00143 26.75 1.00143 26.75 1.00143 26.75C1.00143 26.75 1.00144 26.75 1.00144 26.75C1.00144 26.75 1.00144 26.75 1.00144 26.75C1.00144 26.75 1.00145 26.75 1.00145 26.75C1.00145 26.75 1.00145 26.75 1.00145 26.75C1.00146 26.75 1.00146 26.75 1.00146 26.75C1.00146 26.75 1.00146 26.75 1.00146 26.75C1.00147 26.75 1.00147 26.75 1.00147 26.75C1.00147 26.75 1.00147 26.75 1.00148 26.75C1.00148 26.75 1.00148 26.75 1.00148 26.75C1.00148 26.75 1.00148 26.75 1.00149 26.75C1.00149 26.75 1.00149 26.75 1.00149 26.75C1.00149 26.75 1.0015 26.75 1.0015 26.75C1.0015 26.75 1.0015 26.75 1.0015 26.75C1.00151 26.75 1.00151 26.75 1.00151 26.75C1.00151 26.75 1.00151 26.75 1.00151 26.75C1.00152 26.75 1.00152 26.75 1.00152 26.75C1.00152 26.75 1.00152 26.75 1.00153 26.75C1.00153 26.75 1.00153 26.75 1.00153 26.75C1.00153 26.75 1.00153 26.75 1.00154 26.75C1.00154 26.75 1.00154 26.75 1.00154 26.75C1.00154 26.75 1.00155 26.75 1.00155 26.75C1.00155 26.75 1.00155 26.75 1.00155 26.75C1.00155 26.75 1.00156 26.75 1.00156 26.75C1.00156 26.75 1.00156 26.75 1.00156 26.75C1.00157 26.75 1.00157 26.75 1.00157 26.75C1.00157 26.75 1.00157 26.75 1.00157 26.75C1.00158 26.75 1.00158 26.75 1.00158 26.75C1.00158 26.75 1.00158 26.75 1.00159 26.75C1.00159 26.75 1.00159 26.75 1.00159 26.75C1.00159 26.75 1.00159 26.75 1.0016 26.75C1.0016 26.75 1.0016 26.75 1.0016 26.75C1.0016 26.75 1.00161 26.75 1.00161 26.75C1.00161 26.75 1.00161 26.75 1.00161 26.75C1.00162 26.75 1.00162 26.75 1.00162 26.75C1.00162 26.75 1.00162 26.75 1.00162 26.75C1.00163 26.75 1.00163 26.75 1.00163 26.75C1.00163 26.75 1.00163 26.75 1.00164 26.75C1.00164 26.75 1.00164 26.75 1.00164 26.75C1.00164 26.75 1.00164 26.75 1.00165 26.75C1.00165 26.75 1.00165 26.75 1.00165 26.75C1.00165 26.75 1.00166 26.75 1.00166 26.75C1.00166 26.75 1.00166 26.75 1.00166 26.75C1.00166 26.75 1.00167 26.75 1.00167 26.75C1.00167 26.75 1.00167 26.75 1.00167 26.75C1.00168 26.75 1.00168 26.75 1.00168 26.75C1.00168 26.75 1.00168 26.75 1.00168 26.75C1.00169 26.75 1.00169 26.75 1.00169 26.75C1.00169 26.75 1.00169 26.75 1.0017 26.75C1.0017 26.75 1.0017 26.75 1.0017 26.75C1.0017 26.75 1.0017 26.75 1.00171 26.75C1.00171 26.75 1.00171 26.75 1.00171 26.75C1.00171 26.75 1.00172 26.75 1.00172 26.75C1.00172 26.75 1.00172 26.75 1.00172 26.75C1.00173 26.75 1.00173 26.75 1.00173 26.75C1.00173 26.75 1.00173 26.75 1.00173 26.75C1.00174 26.75 1.00174 26.75 1.00174 26.75C1.00174 26.75 1.00174 26.75 1.00175 26.75C1.00175 26.75 1.00175 26.75 1.00175 26.75C1.00175 26.75 1.00175 26.75 1.00176 26.75C1.00176 26.75 1.00176 26.75 1.00176 26.75C1.00176 26.75 1.00177 26.75 1.00177 26.75C1.00177 26.75 1.00177 26.75 1.00177 26.75C1.00177 26.75 1.00178 26.75 1.00178 26.75C1.00178 26.75 1.00178 26.75 1.00178 26.75C1.00179 26.75 1.00179 26.75 1.00179 26.75C1.00179 26.75 1.00179 26.75 1.00179 26.75C1.0018 26.75 1.0018 26.75 1.0018 26.75C1.0018 26.75 1.0018 26.75 1.00181 26.75C1.00181 26.75 1.00181 26.75 1.00181 26.75C1.00181 26.75 1.00181 26.75 1.00182 26.75C1.00182 26.75 1.00182 26.75 1.00182 26.75C1.00182 26.75 1.00183 26.75 1.00183 26.75C1.00183 26.75 1.00183 26.75 1.00183 26.75C1.00184 26.75 1.00184 26.75 1.00184 26.75V25.25C1.00184 25.25 1.00184 25.25 1.00183 25.25C1.00183 25.25 1.00183 25.25 1.00183 25.25C1.00183 25.25 1.00182 25.25 1.00182 25.25C1.00182 25.25 1.00182 25.25 1.00182 25.25C1.00181 25.25 1.00181 25.25 1.00181 25.25C1.00181 25.25 1.00181 25.25 1.00181 25.25C1.0018 25.25 1.0018 25.25 1.0018 25.25C1.0018 25.25 1.0018 25.25 1.00179 25.25C1.00179 25.25 1.00179 25.25 1.00179 25.25C1.00179 25.25 1.00179 25.25 1.00178 25.25C1.00178 25.25 1.00178 25.25 1.00178 25.25C1.00178 25.25 1.00177 25.25 1.00177 25.25C1.00177 25.25 1.00177 25.25 1.00177 25.25C1.00177 25.25 1.00176 25.25 1.00176 25.25C1.00176 25.25 1.00176 25.25 1.00176 25.25C1.00175 25.25 1.00175 25.25 1.00175 25.25C1.00175 25.25 1.00175 25.25 1.00175 25.25C1.00174 25.25 1.00174 25.25 1.00174 25.25C1.00174 25.25 1.00174 25.25 1.00173 25.25C1.00173 25.25 1.00173 25.25 1.00173 25.25C1.00173 25.25 1.00173 25.25 1.00172 25.25C1.00172 25.25 1.00172 25.25 1.00172 25.25C1.00172 25.25 1.00171 25.25 1.00171 25.25C1.00171 25.25 1.00171 25.25 1.00171 25.25C1.0017 25.25 1.0017 25.25 1.0017 25.25C1.0017 25.25 1.0017 25.25 1.0017 25.25C1.00169 25.25 1.00169 25.25 1.00169 25.25C1.00169 25.25 1.00169 25.25 1.00168 25.25C1.00168 25.25 1.00168 25.25 1.00168 25.25C1.00168 25.25 1.00168 25.25 1.00167 25.25C1.00167 25.25 1.00167 25.25 1.00167 25.25C1.00167 25.25 1.00166 25.25 1.00166 25.25C1.00166 25.25 1.00166 25.25 1.00166 25.25C1.00166 25.25 1.00165 25.25 1.00165 25.25C1.00165 25.25 1.00165 25.25 1.00165 25.25C1.00164 25.25 1.00164 25.25 1.00164 25.25C1.00164 25.25 1.00164 25.25 1.00164 25.25C1.00163 25.25 1.00163 25.25 1.00163 25.25C1.00163 25.25 1.00163 25.25 1.00162 25.25C1.00162 25.25 1.00162 25.25 1.00162 25.25C1.00162 25.25 1.00162 25.25 1.00161 25.25C1.00161 25.25 1.00161 25.25 1.00161 25.25C1.00161 25.25 1.0016 25.25 1.0016 25.25C1.0016 25.25 1.0016 25.25 1.0016 25.25C1.00159 25.25 1.00159 25.25 1.00159 25.25C1.00159 25.25 1.00159 25.25 1.00159 25.25C1.00158 25.25 1.00158 25.25 1.00158 25.25C1.00158 25.25 1.00158 25.25 1.00157 25.25C1.00157 25.25 1.00157 25.25 1.00157 25.25C1.00157 25.25 1.00157 25.25 1.00156 25.25C1.00156 25.25 1.00156 25.25 1.00156 25.25C1.00156 25.25 1.00155 25.25 1.00155 25.25C1.00155 25.25 1.00155 25.25 1.00155 25.25C1.00155 25.25 1.00154 25.25 1.00154 25.25C1.00154 25.25 1.00154 25.25 1.00154 25.25C1.00153 25.25 1.00153 25.25 1.00153 25.25C1.00153 25.25 1.00153 25.25 1.00153 25.25C1.00152 25.25 1.00152 25.25 1.00152 25.25C1.00152 25.25 1.00152 25.25 1.00151 25.25C1.00151 25.25 1.00151 25.25 1.00151 25.25C1.00151 25.25 1.00151 25.25 1.0015 25.25C1.0015 25.25 1.0015 25.25 1.0015 25.25C1.0015 25.25 1.00149 25.25 1.00149 25.25C1.00149 25.25 1.00149 25.25 1.00149 25.25C1.00148 25.25 1.00148 25.25 1.00148 25.25C1.00148 25.25 1.00148 25.25 1.00148 25.25C1.00147 25.25 1.00147 25.25 1.00147 25.25C1.00147 25.25 1.00147 25.25 1.00146 25.25C1.00146 25.25 1.00146 25.25 1.00146 25.25C1.00146 25.25 1.00146 25.25 1.00145 25.25C1.00145 25.25 1.00145 25.25 1.00145 25.25C1.00145 25.25 1.00144 25.25 1.00144 25.25C1.00144 25.25 1.00144 25.25 1.00144 25.25C1.00144 25.25 1.00143 25.25 1.00143 25.25C1.00143 25.25 1.00143 25.25 1.00143 25.25C1.00142 25.25 1.00142 25.25 1.00142 25.25C1.00142 25.25 1.00142 25.25 1.00142 25.25C1.00141 25.25 1.00141 25.25 1.00141 25.25C1.00141 25.25 1.00141 25.25 1.0014 25.25C1.0014 25.25 1.0014 25.25 1.0014 25.25C1.0014 25.25 1.0014 25.25 1.00139 25.25C1.00139 25.25 1.00139 25.25 1.00139 25.25C1.00139 25.25 1.00138 25.25 1.00138 25.25C1.00138 25.25 1.00138 25.25 1.00138 25.25C1.00137 25.25 1.00137 25.25 1.00137 25.25C1.00137 25.25 1.00137 25.25 1.00137 25.25C1.00136 25.25 1.00136 25.25 1.00136 25.25C1.00136 25.25 1.00136 25.25 1.00135 25.25C1.00135 25.25 1.00135 25.25 1.00135 25.25C1.00135 25.25 1.00135 25.25 1.00134 25.25C1.00134 25.25 1.00134 25.25 1.00134 25.25C1.00134 25.25 1.00133 25.25 1.00133 25.25C1.00133 25.25 1.00133 25.25 1.00133 25.25C1.00133 25.25 1.00132 25.25 1.00132 25.25C1.00132 25.25 1.00132 25.25 1.00132 25.25C1.00131 25.25 1.00131 25.25 1.00131 25.25C1.00131 25.25 1.00131 25.25 1.00131 25.25C1.0013 25.25 1.0013 25.25 1.0013 25.25C1.0013 25.25 1.0013 25.25 1.00129 25.25C1.00129 25.25 1.00129 25.25 1.00129 25.25C1.00129 25.25 1.00129 25.25 1.00128 25.25C1.00128 25.25 1.00128 25.25 1.00128 25.25C1.00128 25.25 1.00127 25.25 1.00127 25.25C1.00127 25.25 1.00127 25.25 1.00127 25.25C1.00126 25.25 1.00126 25.25 1.00126 25.25C1.00126 25.25 1.00126 25.25 1.00126 25.25C1.00125 25.25 1.00125 25.25 1.00125 25.25C1.00125 25.25 1.00125 25.25 1.00124 25.25C1.00124 25.25 1.00124 25.25 1.00124 25.25C1.00124 25.25 1.00124 25.25 1.00123 25.25C1.00123 25.25 1.00123 25.25 1.00123 25.25C1.00123 25.25 1.00122 25.25 1.00122 25.25C1.00122 25.25 1.00122 25.25 1.00122 25.25C1.00122 25.25 1.00121 25.25 1.00121 25.25C1.00121 25.25 1.00121 25.25 1.00121 25.25C1.0012 25.25 1.0012 25.25 1.0012 25.25C1.0012 25.25 1.0012 25.25 1.0012 25.25C1.00119 25.25 1.00119 25.25 1.00119 25.25C1.00119 25.25 1.00119 25.25 1.00118 25.25C1.00118 25.25 1.00118 25.25 1.00118 25.25C1.00118 25.25 1.00118 25.25 1.00117 25.25C1.00117 25.25 1.00117 25.25 1.00117 25.25C1.00117 25.25 1.00116 25.25 1.00116 25.25C1.00116 25.25 1.00116 25.25 1.00116 25.25C1.00116 25.25 1.00115 25.25 1.00115 25.25C1.00115 25.25 1.00115 25.25 1.00115 25.25C1.00114 25.25 1.00114 25.25 1.00114 25.25C1.00114 25.25 1.00114 25.25 1.00113 25.25C1.00113 25.25 1.00113 25.25 1.00113 25.25C1.00113 25.25 1.00113 25.25 1.00112 25.25C1.00112 25.25 1.00112 25.25 1.00112 25.25C1.00112 25.25 1.00111 25.25 1.00111 25.25C1.00111 25.25 1.00111 25.25 1.00111 25.25C1.00111 25.25 1.0011 25.25 1.0011 25.25C1.0011 25.25 1.0011 25.25 1.0011 25.25C1.00109 25.25 1.00109 25.25 1.00109 25.25C1.00109 25.25 1.00109 25.25 1.00109 25.25C1.00108 25.25 1.00108 25.25 1.00108 25.25C1.00108 25.25 1.00108 25.25 1.00107 25.25C1.00107 25.25 1.00107 25.25 1.00107 25.25C1.00107 25.25 1.00107 25.25 1.00106 25.25C1.00106 25.25 1.00106 25.25 1.00106 25.25C1.00106 25.25 1.00105 25.25 1.00105 25.25C1.00105 25.25 1.00105 25.25 1.00105 25.25C1.00105 25.25 1.00104 25.25 1.00104 25.25C1.00104 25.25 1.00104 25.25 1.00104 25.25C1.00103 25.25 1.00103 25.25 1.00103 25.25C1.00103 25.25 1.00103 25.25 1.00102 25.25C1.00102 25.25 1.00102 25.25 1.00102 25.25C1.00102 25.25 1.00102 25.25 1.00101 25.25C1.00101 25.25 1.00101 25.25 1.00101 25.25C1.00101 25.25 1.001 25.25 1.001 25.25C1.001 25.25 1.001 25.25 1.001 25.25C1.001 25.25 1.00099 25.25 1.00099 25.25C1.00099 25.25 1.00099 25.25 1.00099 25.25C1.00098 25.25 1.00098 25.25 1.00098 25.25C1.00098 25.25 1.00098 25.25 1.00098 25.25C1.00097 25.25 1.00097 25.25 1.00097 25.25C1.00097 25.25 1.00097 25.25 1.00096 25.25C1.00096 25.25 1.00096 25.25 1.00096 25.25C1.00096 25.25 1.00096 25.25 1.00095 25.25C1.00095 25.25 1.00095 25.25 1.00095 25.25C1.00095 25.25 1.00094 25.25 1.00094 25.25C1.00094 25.25 1.00094 25.25 1.00094 25.25C1.00094 25.25 1.00093 25.25 1.00093 25.25C1.00093 25.25 1.00093 25.25 1.00093 25.25C1.00092 25.25 1.00092 25.25 1.00092 25.25C1.00092 25.25 1.00092 25.25 1.00091 25.25C1.00091 25.25 1.00091 25.25 1.00091 25.25C1.00091 25.25 1.00091 25.25 1.0009 25.25C1.0009 25.25 1.0009 25.25 1.0009 25.25C1.0009 25.25 1.00089 25.25 1.00089 25.25C1.00089 25.25 1.00089 25.25 1.00089 25.25C1.00089 25.25 1.00088 25.25 1.00088 25.25C1.00088 25.25 1.00088 25.25 1.00088 25.25C1.00087 25.25 1.00087 25.25 1.00087 25.25C1.00087 25.25 1.00087 25.25 1.00087 25.25C1.00086 25.25 1.00086 25.25 1.00086 25.25C1.00086 25.25 1.00086 25.25 1.00085 25.25C1.00085 25.25 1.00085 25.25 1.00085 25.25C1.00085 25.25 1.00085 25.25 1.00084 25.25C1.00084 25.25 1.00084 25.25 1.00084 25.25C1.00084 25.25 1.00083 25.25 1.00083 25.25C1.00083 25.25 1.00083 25.25 1.00083 25.25C1.00083 25.25 1.00082 25.25 1.00082 25.25C1.00082 25.25 1.00082 25.25 1.00082 25.25C1.00081 25.25 1.00081 25.25 1.00081 25.25C1.00081 25.25 1.00081 25.25 1.0008 25.25C1.0008 25.25 1.0008 25.25 1.0008 25.25C1.0008 25.25 1.0008 25.25 1.00079 25.25C1.00079 25.25 1.00079 25.25 1.00079 25.25C1.00079 25.25 1.00078 25.25 1.00078 25.25C1.00078 25.25 1.00078 25.25 1.00078 25.25C1.00078 25.25 1.00077 25.25 1.00077 25.25C1.00077 25.25 1.00077 25.25 1.00077 25.25C1.00076 25.25 1.00076 25.25 1.00076 25.25C1.00076 25.25 1.00076 25.25 1.00076 25.25C1.00075 25.25 1.00075 25.25 1.00075 25.25C1.00075 25.25 1.00075 25.25 1.00074 25.25C1.00074 25.25 1.00074 25.25 1.00074 25.25C1.00074 25.25 1.00074 25.25 1.00073 25.25C1.00073 25.25 1.00073 25.25 1.00073 25.25C1.00073 25.25 1.00072 25.25 1.00072 25.25C1.00072 25.25 1.00072 25.25 1.00072 25.25C1.00072 25.25 1.00071 25.25 1.00071 25.25C1.00071 25.25 1.00071 25.25 1.00071 25.25C1.0007 25.25 1.0007 25.25 1.0007 25.25C1.0007 25.25 1.0007 25.25 1.00069 25.25C1.00069 25.25 1.00069 25.25 1.00069 25.25C1.00069 25.25 1.00069 25.25 1.00068 25.25C1.00068 25.25 1.00068 25.25 1.00068 25.25C1.00068 25.25 1.00067 25.25 1.00067 25.25C1.00067 25.25 1.00067 25.25 1.00067 25.25C1.00067 25.25 1.00066 25.25 1.00066 25.25C1.00066 25.25 1.00066 25.25 1.00066 25.25C1.00065 25.25 1.00065 25.25 1.00065 25.25C1.00065 25.25 1.00065 25.25 1.00065 25.25C1.00064 25.25 1.00064 25.25 1.00064 25.25C1.00064 25.25 1.00064 25.25 1.00063 25.25C1.00063 25.25 1.00063 25.25 1.00063 25.25C1.00063 25.25 1.00063 25.25 1.00062 25.25C1.00062 25.25 1.00062 25.25 1.00062 25.25C1.00062 25.25 1.00061 25.25 1.00061 25.25C1.00061 25.25 1.00061 25.25 1.00061 25.25C1.00061 25.25 1.0006 25.25 1.0006 25.25C1.0006 25.25 1.0006 25.25 1.0006 25.25C1.00059 25.25 1.00059 25.25 1.00059 25.25C1.00059 25.25 1.00059 25.25 1.00059 25.25C1.00058 25.25 1.00058 25.25 1.00058 25.25C1.00058 25.25 1.00058 25.25 1.00057 25.25C1.00057 25.25 1.00057 25.25 1.00057 25.25C1.00057 25.25 1.00056 25.25 1.00056 25.25C1.00056 25.25 1.00056 25.25 1.00056 25.25C1.00056 25.25 1.00055 25.25 1.00055 25.25C1.00055 25.25 1.00055 25.25 1.00055 25.25C1.00054 25.25 1.00054 25.25 1.00054 25.25C1.00054 25.25 1.00054 25.25 1.00054 25.25C1.00053 25.25 1.00053 25.25 1.00053 25.25C1.00053 25.25 1.00053 25.25 1.00052 25.25C1.00052 25.25 1.00052 25.25 1.00052 25.25C1.00052 25.25 1.00052 25.25 1.00051 25.25C1.00051 25.25 1.00051 25.25 1.00051 25.25C1.00051 25.25 1.0005 25.25 1.0005 25.25C1.0005 25.25 1.0005 25.25 1.0005 25.25C1.0005 25.25 1.00049 25.25 1.00049 25.25C1.00049 25.25 1.00049 25.25 1.00049 25.25C1.00048 25.25 1.00048 25.25 1.00048 25.25C1.00048 25.25 1.00048 25.25 1.00048 25.25C1.00047 25.25 1.00047 25.25 1.00047 25.25C1.00047 25.25 1.00047 25.25 1.00046 25.25C1.00046 25.25 1.00046 25.25 1.00046 25.25C1.00046 25.25 1.00045 25.25 1.00045 25.25C1.00045 25.25 1.00045 25.25 1.00045 25.25C1.00045 25.25 1.00044 25.25 1.00044 25.25C1.00044 25.25 1.00044 25.25 1.00044 25.25C1.00043 25.25 1.00043 25.25 1.00043 25.25C1.00043 25.25 1.00043 25.25 1.00043 25.25C1.00042 25.25 1.00042 25.25 1.00042 25.25C1.00042 25.25 1.00042 25.25 1.00041 25.25C1.00041 25.25 1.00041 25.25 1.00041 25.25C1.00041 25.25 1.00041 25.25 1.0004 25.25C1.0004 25.25 1.0004 25.25 1.0004 25.25C1.0004 25.25 1.00039 25.25 1.00039 25.25C1.00039 25.25 1.00039 25.25 1.00039 25.25C1.00039 25.25 1.00038 25.25 1.00038 25.25C1.00038 25.25 1.00038 25.25 1.00038 25.25C1.00037 25.25 1.00037 25.25 1.00037 25.25C1.00037 25.25 1.00037 25.25 1.00037 25.25C1.00036 25.25 1.00036 25.25 1.00036 25.25C1.00036 25.25 1.00036 25.25 1.00035 25.25C1.00035 25.25 1.00035 25.25 1.00035 25.25C1.00035 25.25 1.00034 25.25 1.00034 25.25C1.00034 25.25 1.00034 25.25 1.00034 25.25C1.00034 25.25 1.00033 25.25 1.00033 25.25C1.00033 25.25 1.00033 25.25 1.00033 25.25C1.00032 25.25 1.00032 25.25 1.00032 25.25C1.00032 25.25 1.00032 25.25 1.00032 25.25C1.00031 25.25 1.00031 25.25 1.00031 25.25C1.00031 25.25 1.00031 25.25 1.0003 25.25C1.0003 25.25 1.0003 25.25 1.0003 25.25C1.0003 25.25 1.0003 25.25 1.00029 25.25C1.00029 25.25 1.00029 25.25 1.00029 25.25C1.00029 25.25 1.00028 25.25 1.00028 25.25C1.00028 25.25 1.00028 25.25 1.00028 25.25C1.00028 25.25 1.00027 25.25 1.00027 25.25C1.00027 25.25 1.00027 25.25 1.00027 25.25C1.00026 25.25 1.00026 25.25 1.00026 25.25C1.00026 25.25 1.00026 25.25 1.00026 25.25C1.00025 25.25 1.00025 25.25 1.00025 25.25C1.00025 25.25 1.00025 25.25 1.00024 25.25C1.00024 25.25 1.00024 25.25 1.00024 25.25C1.00024 25.25 1.00023 25.25 1.00023 25.25C1.00023 25.25 1.00023 25.25 1.00023 25.25C1.00023 25.25 1.00022 25.25 1.00022 25.25C1.00022 25.25 1.00022 25.25 1.00022 25.25C1.00021 25.25 1.00021 25.25 1.00021 25.25C1.00021 25.25 1.00021 25.25 1.00021 25.25C1.0002 25.25 1.0002 25.25 1.0002 25.25C1.0002 25.25 1.0002 25.25 1.00019 25.25C1.00019 25.25 1.00019 25.25 1.00019 25.25C1.00019 25.25 1.00019 25.25 1.00018 25.25C1.00018 25.25 1.00018 25.25 1.00018 25.25C1.00018 25.25 1.00017 25.25 1.00017 25.25C1.00017 25.25 1.00017 25.25 1.00017 25.25C1.00017 25.25 1.00016 25.25 1.00016 25.25C1.00016 25.25 1.00016 25.25 1.00016 25.25C1.00015 25.25 1.00015 25.25 1.00015 25.25C1.00015 25.25 1.00015 25.25 1.00015 25.25C1.00014 25.25 1.00014 25.25 1.00014 25.25C1.00014 25.25 1.00014 25.25 1.00013 25.25C1.00013 25.25 1.00013 25.25 1.00013 25.25C1.00013 25.25 1.00012 25.25 1.00012 25.25C1.00012 25.25 1.00012 25.25 1.00012 25.25C1.00012 25.25 1.00011 25.25 1.00011 25.25C1.00011 25.25 1.00011 25.25 1.00011 25.25C1.0001 25.25 1.0001 25.25 1.0001 25.25C1.0001 25.25 1.0001 25.25 1.0001 25.25C1.00009 25.25 1.00009 25.25 1.00009 25.25C1.00009 25.25 1.00009 25.25 1.00008 25.25C1.00008 25.25 1.00008 25.25 1.00008 25.25C1.00008 25.25 1.00008 25.25 1.00007 25.25C1.00007 25.25 1.00007 25.25 1.00007 25.25C1.00007 25.25 1.00006 25.25 1.00006 25.25C1.00006 25.25 1.00006 25.25 1.00006 25.25C1.00006 25.25 1.00005 25.25 1.00005 25.25C1.00005 25.25 1.00005 25.25 1.00005 25.25C1.00004 25.25 1.00004 25.25 1.00004 25.25C1.00004 25.25 1.00004 25.25 1.00004 25.25C1.00003 25.25 1.00003 25.25 1.00003 25.25C1.00003 25.25 1.00003 25.25 1.00002 25.25C1.00002 25.25 1.00002 25.25 1.00002 25.25C1.00002 25.25 1.00001 25.25 1.00001 25.25C1.00001 25.25 1.00001 25.25 1.00001 25.25C1.00001 25.25 1 25.25 1 25.25C1 25.25 0.999999 25.25 0.999997 25.25C0.999995 25.25 0.999993 25.25 0.999991 25.25C0.999989 25.25 0.999988 25.25 0.999986 25.25C0.999984 25.25 0.999982 25.25 0.99998 25.25C0.999978 25.25 0.999977 25.25 0.999975 25.25C0.999973 25.25 0.999971 25.25 0.999969 25.25C0.999967 25.25 0.999966 25.25 0.999964 25.25C0.999962 25.25 0.99996 25.25 0.999958 25.25C0.999956 25.25 0.999955 25.25 0.999953 25.25C0.999951 25.25 0.999949 25.25 0.999947 25.25C0.999945 25.25 0.999944 25.25 0.999942 25.25C0.99994 25.25 0.999938 25.25 0.999936 25.25C0.999934 25.25 0.999933 25.25 0.999931 25.25C0.999929 25.25 0.999927 25.25 0.999925 25.25C0.999923 25.25 0.999922 25.25 0.99992 25.25C0.999918 25.25 0.999916 25.25 0.999914 25.25C0.999912 25.25 0.999911 25.25 0.999909 25.25C0.999907 25.25 0.999905 25.25 0.999903 25.25C0.999901 25.25 0.9999 25.25 0.999898 25.25C0.999896 25.25 0.999894 25.25 0.999892 25.25C0.99989 25.25 0.999889 25.25 0.999887 25.25C0.999885 25.25 0.999883 25.25 0.999881 25.25C0.999879 25.25 0.999878 25.25 0.999876 25.25C0.999874 25.25 0.999872 25.25 0.99987 25.25C0.999868 25.25 0.999867 25.25 0.999865 25.25C0.999863 25.25 0.999861 25.25 0.999859 25.25C0.999857 25.25 0.999856 25.25 0.999854 25.25C0.999852 25.25 0.99985 25.25 0.999848 25.25C0.999846 25.25 0.999845 25.25 0.999843 25.25C0.999841 25.25 0.999839 25.25 0.999837 25.25C0.999835 25.25 0.999834 25.25 0.999832 25.25C0.99983 25.25 0.999828 25.25 0.999826 25.25C0.999824 25.25 0.999823 25.25 0.999821 25.25C0.999819 25.25 0.999817 25.25 0.999815 25.25C0.999813 25.25 0.999812 25.25 0.99981 25.25C0.999808 25.25 0.999806 25.25 0.999804 25.25C0.999802 25.25 0.999801 25.25 0.999799 25.25C0.999797 25.25 0.999795 25.25 0.999793 25.25C0.999791 25.25 0.99979 25.25 0.999788 25.25C0.999786 25.25 0.999784 25.25 0.999782 25.25C0.99978 25.25 0.999779 25.25 0.999777 25.25C0.999775 25.25 0.999773 25.25 0.999771 25.25C0.999769 25.25 0.999768 25.25 0.999766 25.25C0.999764 25.25 0.999762 25.25 0.99976 25.25C0.999758 25.25 0.999757 25.25 0.999755 25.25C0.999753 25.25 0.999751 25.25 0.999749 25.25C0.999747 25.25 0.999746 25.25 0.999744 25.25C0.999742 25.25 0.99974 25.25 0.999738 25.25C0.999736 25.25 0.999735 25.25 0.999733 25.25C0.999731 25.25 0.999729 25.25 0.999727 25.25C0.999725 25.25 0.999724 25.25 0.999722 25.25C0.99972 25.25 0.999718 25.25 0.999716 25.25C0.999714 25.25 0.999713 25.25 0.999711 25.25C0.999709 25.25 0.999707 25.25 0.999705 25.25C0.999703 25.25 0.999702 25.25 0.9997 25.25C0.999698 25.25 0.999696 25.25 0.999694 25.25C0.999692 25.25 0.999691 25.25 0.999689 25.25C0.999687 25.25 0.999685 25.25 0.999683 25.25C0.999681 25.25 0.99968 25.25 0.999678 25.25C0.999676 25.25 0.999674 25.25 0.999672 25.25C0.99967 25.25 0.999669 25.25 0.999667 25.25C0.999665 25.25 0.999663 25.25 0.999661 25.25C0.999659 25.25 0.999658 25.25 0.999656 25.25C0.999654 25.25 0.999652 25.25 0.99965 25.25C0.999648 25.25 0.999647 25.25 0.999645 25.25C0.999643 25.25 0.999641 25.25 0.999639 25.25C0.999637 25.25 0.999636 25.25 0.999634 25.25C0.999632 25.25 0.99963 25.25 0.999628 25.25C0.999626 25.25 0.999625 25.25 0.999623 25.25C0.999621 25.25 0.999619 25.25 0.999617 25.25C0.999615 25.25 0.999614 25.25 0.999612 25.25C0.99961 25.25 0.999608 25.25 0.999606 25.25C0.999604 25.25 0.999603 25.25 0.999601 25.25C0.999599 25.25 0.999597 25.25 0.999595 25.25C0.999593 25.25 0.999592 25.25 0.99959 25.25C0.999588 25.25 0.999586 25.25 0.999584 25.25C0.999582 25.25 0.999581 25.25 0.999579 25.25C0.999577 25.25 0.999575 25.25 0.999573 25.25C0.999571 25.25 0.99957 25.25 0.999568 25.25C0.999566 25.25 0.999564 25.25 0.999562 25.25C0.99956 25.25 0.999559 25.25 0.999557 25.25C0.999555 25.25 0.999553 25.25 0.999551 25.25C0.999549 25.25 0.999548 25.25 0.999546 25.25C0.999544 25.25 0.999542 25.25 0.99954 25.25C0.999538 25.25 0.999537 25.25 0.999535 25.25C0.999533 25.25 0.999531 25.25 0.999529 25.25C0.999527 25.25 0.999526 25.25 0.999524 25.25C0.999522 25.25 0.99952 25.25 0.999518 25.25C0.999516 25.25 0.999515 25.25 0.999513 25.25C0.999511 25.25 0.999509 25.25 0.999507 25.25C0.999505 25.25 0.999504 25.25 0.999502 25.25C0.9995 25.25 0.999498 25.25 0.999496 25.25C0.999494 25.25 0.999493 25.25 0.999491 25.25C0.999489 25.25 0.999487 25.25 0.999485 25.25C0.999483 25.25 0.999482 25.25 0.99948 25.25C0.999478 25.25 0.999476 25.25 0.999474 25.25C0.999472 25.25 0.999471 25.25 0.999469 25.25C0.999467 25.25 0.999465 25.25 0.999463 25.25C0.999461 25.25 0.99946 25.25 0.999458 25.25C0.999456 25.25 0.999454 25.25 0.999452 25.25C0.99945 25.25 0.999449 25.25 0.999447 25.25C0.999445 25.25 0.999443 25.25 0.999441 25.25C0.999439 25.25 0.999438 25.25 0.999436 25.25C0.999434 25.25 0.999432 25.25 0.99943 25.25C0.999428 25.25 0.999427 25.25 0.999425 25.25C0.999423 25.25 0.999421 25.25 0.999419 25.25C0.999417 25.25 0.999416 25.25 0.999414 25.25C0.999412 25.25 0.99941 25.25 0.999408 25.25C0.999406 25.25 0.999405 25.25 0.999403 25.25C0.999401 25.25 0.999399 25.25 0.999397 25.25C0.999396 25.25 0.999394 25.25 0.999392 25.25C0.99939 25.25 0.999388 25.25 0.999386 25.25C0.999385 25.25 0.999383 25.25 0.999381 25.25C0.999379 25.25 0.999377 25.25 0.999375 25.25C0.999374 25.25 0.999372 25.25 0.99937 25.25C0.999368 25.25 0.999366 25.25 0.999364 25.25C0.999363 25.25 0.999361 25.25 0.999359 25.25C0.999357 25.25 0.999355 25.25 0.999353 25.25C0.999352 25.25 0.99935 25.25 0.999348 25.25C0.999346 25.25 0.999344 25.25 0.999342 25.25C0.999341 25.25 0.999339 25.25 0.999337 25.25C0.999335 25.25 0.999333 25.25 0.999331 25.25C0.99933 25.25 0.999328 25.25 0.999326 25.25C0.999324 25.25 0.999322 25.25 0.99932 25.25C0.999319 25.25 0.999317 25.25 0.999315 25.25C0.999313 25.25 0.999311 25.25 0.999309 25.25C0.999308 25.25 0.999306 25.25 0.999304 25.25C0.999302 25.25 0.9993 25.25 0.999298 25.25C0.999297 25.25 0.999295 25.25 0.999293 25.25C0.999291 25.25 0.999289 25.25 0.999287 25.25C0.999286 25.25 0.999284 25.25 0.999282 25.25C0.99928 25.25 0.999278 25.25 0.999276 25.25C0.999275 25.25 0.999273 25.25 0.999271 25.25C0.999269 25.25 0.999267 25.25 0.999265 25.25C0.999264 25.25 0.999262 25.25 0.99926 25.25C0.999258 25.25 0.999256 25.25 0.999254 25.25C0.999253 25.25 0.999251 25.25 0.999249 25.25C0.999247 25.25 0.999245 25.25 0.999243 25.25C0.999242 25.25 0.99924 25.25 0.999238 25.25C0.999236 25.25 0.999234 25.25 0.999232 25.25C0.999231 25.25 0.999229 25.25 0.999227 25.25C0.999225 25.25 0.999223 25.25 0.999221 25.25C0.99922 25.25 0.999218 25.25 0.999216 25.25C0.999214 25.25 0.999212 25.25 0.99921 25.25C0.999209 25.25 0.999207 25.25 0.999205 25.25C0.999203 25.25 0.999201 25.25 0.999199 25.25C0.999198 25.25 0.999196 25.25 0.999194 25.25C0.999192 25.25 0.99919 25.25 0.999188 25.25C0.999187 25.25 0.999185 25.25 0.999183 25.25C0.999181 25.25 0.999179 25.25 0.999177 25.25C0.999176 25.25 0.999174 25.25 0.999172 25.25C0.99917 25.25 0.999168 25.25 0.999166 25.25C0.999165 25.25 0.999163 25.25 0.999161 25.25C0.999159 25.25 0.999157 25.25 0.999155 25.25C0.999154 25.25 0.999152 25.25 0.99915 25.25C0.999148 25.25 0.999146 25.25 0.999144 25.25C0.999143 25.25 0.999141 25.25 0.999139 25.25C0.999137 25.25 0.999135 25.25 0.999133 25.25C0.999132 25.25 0.99913 25.25 0.999128 25.25C0.999126 25.25 0.999124 25.25 0.999122 25.25C0.999121 25.25 0.999119 25.25 0.999117 25.25C0.999115 25.25 0.999113 25.25 0.999111 25.25C0.99911 25.25 0.999108 25.25 0.999106 25.25C0.999104 25.25 0.999102 25.25 0.9991 25.25C0.999099 25.25 0.999097 25.25 0.999095 25.25C0.999093 25.25 0.999091 25.25 0.999089 25.25C0.999088 25.25 0.999086 25.25 0.999084 25.25C0.999082 25.25 0.99908 25.25 0.999078 25.25C0.999077 25.25 0.999075 25.25 0.999073 25.25C0.999071 25.25 0.999069 25.25 0.999067 25.25C0.999066 25.25 0.999064 25.25 0.999062 25.25C0.99906 25.25 0.999058 25.25 0.999056 25.25C0.999055 25.25 0.999053 25.25 0.999051 25.25C0.999049 25.25 0.999047 25.25 0.999045 25.25C0.999044 25.25 0.999042 25.25 0.99904 25.25C0.999038 25.25 0.999036 25.25 0.999034 25.25C0.999033 25.25 0.999031 25.25 0.999029 25.25C0.999027 25.25 0.999025 25.25 0.999023 25.25V26.75ZM1.74902 226V26H0.249022V226H1.74902ZM1.00184 225.25C1.00184 225.25 1.00184 225.25 1.00183 225.25C1.00183 225.25 1.00183 225.25 1.00183 225.25C1.00183 225.25 1.00182 225.25 1.00182 225.25C1.00182 225.25 1.00182 225.25 1.00182 225.25C1.00181 225.25 1.00181 225.25 1.00181 225.25C1.00181 225.25 1.00181 225.25 1.00181 225.25C1.0018 225.25 1.0018 225.25 1.0018 225.25C1.0018 225.25 1.0018 225.25 1.00179 225.25C1.00179 225.25 1.00179 225.25 1.00179 225.25C1.00179 225.25 1.00179 225.25 1.00178 225.25C1.00178 225.25 1.00178 225.25 1.00178 225.25C1.00178 225.25 1.00177 225.25 1.00177 225.25C1.00177 225.25 1.00177 225.25 1.00177 225.25C1.00177 225.25 1.00176 225.25 1.00176 225.25C1.00176 225.25 1.00176 225.25 1.00176 225.25C1.00175 225.25 1.00175 225.25 1.00175 225.25C1.00175 225.25 1.00175 225.25 1.00175 225.25C1.00174 225.25 1.00174 225.25 1.00174 225.25C1.00174 225.25 1.00174 225.25 1.00173 225.25C1.00173 225.25 1.00173 225.25 1.00173 225.25C1.00173 225.25 1.00173 225.25 1.00172 225.25C1.00172 225.25 1.00172 225.25 1.00172 225.25C1.00172 225.25 1.00171 225.25 1.00171 225.25C1.00171 225.25 1.00171 225.25 1.00171 225.25C1.0017 225.25 1.0017 225.25 1.0017 225.25C1.0017 225.25 1.0017 225.25 1.0017 225.25C1.00169 225.25 1.00169 225.25 1.00169 225.25C1.00169 225.25 1.00169 225.25 1.00168 225.25C1.00168 225.25 1.00168 225.25 1.00168 225.25C1.00168 225.25 1.00168 225.25 1.00167 225.25C1.00167 225.25 1.00167 225.25 1.00167 225.25C1.00167 225.25 1.00166 225.25 1.00166 225.25C1.00166 225.25 1.00166 225.25 1.00166 225.25C1.00166 225.25 1.00165 225.25 1.00165 225.25C1.00165 225.25 1.00165 225.25 1.00165 225.25C1.00164 225.25 1.00164 225.25 1.00164 225.25C1.00164 225.25 1.00164 225.25 1.00164 225.25C1.00163 225.25 1.00163 225.25 1.00163 225.25C1.00163 225.25 1.00163 225.25 1.00162 225.25C1.00162 225.25 1.00162 225.25 1.00162 225.25C1.00162 225.25 1.00162 225.25 1.00161 225.25C1.00161 225.25 1.00161 225.25 1.00161 225.25C1.00161 225.25 1.0016 225.25 1.0016 225.25C1.0016 225.25 1.0016 225.25 1.0016 225.25C1.00159 225.25 1.00159 225.25 1.00159 225.25C1.00159 225.25 1.00159 225.25 1.00159 225.25C1.00158 225.25 1.00158 225.25 1.00158 225.25C1.00158 225.25 1.00158 225.25 1.00157 225.25C1.00157 225.25 1.00157 225.25 1.00157 225.25C1.00157 225.25 1.00157 225.25 1.00156 225.25C1.00156 225.25 1.00156 225.25 1.00156 225.25C1.00156 225.25 1.00155 225.25 1.00155 225.25C1.00155 225.25 1.00155 225.25 1.00155 225.25C1.00155 225.25 1.00154 225.25 1.00154 225.25C1.00154 225.25 1.00154 225.25 1.00154 225.25C1.00153 225.25 1.00153 225.25 1.00153 225.25C1.00153 225.25 1.00153 225.25 1.00153 225.25C1.00152 225.25 1.00152 225.25 1.00152 225.25C1.00152 225.25 1.00152 225.25 1.00151 225.25C1.00151 225.25 1.00151 225.25 1.00151 225.25C1.00151 225.25 1.00151 225.25 1.0015 225.25C1.0015 225.25 1.0015 225.25 1.0015 225.25C1.0015 225.25 1.00149 225.25 1.00149 225.25C1.00149 225.25 1.00149 225.25 1.00149 225.25C1.00148 225.25 1.00148 225.25 1.00148 225.25C1.00148 225.25 1.00148 225.25 1.00148 225.25C1.00147 225.25 1.00147 225.25 1.00147 225.25C1.00147 225.25 1.00147 225.25 1.00146 225.25C1.00146 225.25 1.00146 225.25 1.00146 225.25C1.00146 225.25 1.00146 225.25 1.00145 225.25C1.00145 225.25 1.00145 225.25 1.00145 225.25C1.00145 225.25 1.00144 225.25 1.00144 225.25C1.00144 225.25 1.00144 225.25 1.00144 225.25C1.00144 225.25 1.00143 225.25 1.00143 225.25C1.00143 225.25 1.00143 225.25 1.00143 225.25C1.00142 225.25 1.00142 225.25 1.00142 225.25C1.00142 225.25 1.00142 225.25 1.00142 225.25C1.00141 225.25 1.00141 225.25 1.00141 225.25C1.00141 225.25 1.00141 225.25 1.0014 225.25C1.0014 225.25 1.0014 225.25 1.0014 225.25C1.0014 225.25 1.0014 225.25 1.00139 225.25C1.00139 225.25 1.00139 225.25 1.00139 225.25C1.00139 225.25 1.00138 225.25 1.00138 225.25C1.00138 225.25 1.00138 225.25 1.00138 225.25C1.00137 225.25 1.00137 225.25 1.00137 225.25C1.00137 225.25 1.00137 225.25 1.00137 225.25C1.00136 225.25 1.00136 225.25 1.00136 225.25C1.00136 225.25 1.00136 225.25 1.00135 225.25C1.00135 225.25 1.00135 225.25 1.00135 225.25C1.00135 225.25 1.00135 225.25 1.00134 225.25C1.00134 225.25 1.00134 225.25 1.00134 225.25C1.00134 225.25 1.00133 225.25 1.00133 225.25C1.00133 225.25 1.00133 225.25 1.00133 225.25C1.00133 225.25 1.00132 225.25 1.00132 225.25C1.00132 225.25 1.00132 225.25 1.00132 225.25C1.00131 225.25 1.00131 225.25 1.00131 225.25C1.00131 225.25 1.00131 225.25 1.00131 225.25C1.0013 225.25 1.0013 225.25 1.0013 225.25C1.0013 225.25 1.0013 225.25 1.00129 225.25C1.00129 225.25 1.00129 225.25 1.00129 225.25C1.00129 225.25 1.00129 225.25 1.00128 225.25C1.00128 225.25 1.00128 225.25 1.00128 225.25C1.00128 225.25 1.00127 225.25 1.00127 225.25C1.00127 225.25 1.00127 225.25 1.00127 225.25C1.00126 225.25 1.00126 225.25 1.00126 225.25C1.00126 225.25 1.00126 225.25 1.00126 225.25C1.00125 225.25 1.00125 225.25 1.00125 225.25C1.00125 225.25 1.00125 225.25 1.00124 225.25C1.00124 225.25 1.00124 225.25 1.00124 225.25C1.00124 225.25 1.00124 225.25 1.00123 225.25C1.00123 225.25 1.00123 225.25 1.00123 225.25C1.00123 225.25 1.00122 225.25 1.00122 225.25C1.00122 225.25 1.00122 225.25 1.00122 225.25C1.00122 225.25 1.00121 225.25 1.00121 225.25C1.00121 225.25 1.00121 225.25 1.00121 225.25C1.0012 225.25 1.0012 225.25 1.0012 225.25C1.0012 225.25 1.0012 225.25 1.0012 225.25C1.00119 225.25 1.00119 225.25 1.00119 225.25C1.00119 225.25 1.00119 225.25 1.00118 225.25C1.00118 225.25 1.00118 225.25 1.00118 225.25C1.00118 225.25 1.00118 225.25 1.00117 225.25C1.00117 225.25 1.00117 225.25 1.00117 225.25C1.00117 225.25 1.00116 225.25 1.00116 225.25C1.00116 225.25 1.00116 225.25 1.00116 225.25C1.00116 225.25 1.00115 225.25 1.00115 225.25C1.00115 225.25 1.00115 225.25 1.00115 225.25C1.00114 225.25 1.00114 225.25 1.00114 225.25C1.00114 225.25 1.00114 225.25 1.00113 225.25C1.00113 225.25 1.00113 225.25 1.00113 225.25C1.00113 225.25 1.00113 225.25 1.00112 225.25C1.00112 225.25 1.00112 225.25 1.00112 225.25C1.00112 225.25 1.00111 225.25 1.00111 225.25C1.00111 225.25 1.00111 225.25 1.00111 225.25C1.00111 225.25 1.0011 225.25 1.0011 225.25C1.0011 225.25 1.0011 225.25 1.0011 225.25C1.00109 225.25 1.00109 225.25 1.00109 225.25C1.00109 225.25 1.00109 225.25 1.00109 225.25C1.00108 225.25 1.00108 225.25 1.00108 225.25C1.00108 225.25 1.00108 225.25 1.00107 225.25C1.00107 225.25 1.00107 225.25 1.00107 225.25C1.00107 225.25 1.00107 225.25 1.00106 225.25C1.00106 225.25 1.00106 225.25 1.00106 225.25C1.00106 225.25 1.00105 225.25 1.00105 225.25C1.00105 225.25 1.00105 225.25 1.00105 225.25C1.00105 225.25 1.00104 225.25 1.00104 225.25C1.00104 225.25 1.00104 225.25 1.00104 225.25C1.00103 225.25 1.00103 225.25 1.00103 225.25C1.00103 225.25 1.00103 225.25 1.00102 225.25C1.00102 225.25 1.00102 225.25 1.00102 225.25C1.00102 225.25 1.00102 225.25 1.00101 225.25C1.00101 225.25 1.00101 225.25 1.00101 225.25C1.00101 225.25 1.001 225.25 1.001 225.25C1.001 225.25 1.001 225.25 1.001 225.25C1.001 225.25 1.00099 225.25 1.00099 225.25C1.00099 225.25 1.00099 225.25 1.00099 225.25C1.00098 225.25 1.00098 225.25 1.00098 225.25C1.00098 225.25 1.00098 225.25 1.00098 225.25C1.00097 225.25 1.00097 225.25 1.00097 225.25C1.00097 225.25 1.00097 225.25 1.00096 225.25C1.00096 225.25 1.00096 225.25 1.00096 225.25C1.00096 225.25 1.00096 225.25 1.00095 225.25C1.00095 225.25 1.00095 225.25 1.00095 225.25C1.00095 225.25 1.00094 225.25 1.00094 225.25C1.00094 225.25 1.00094 225.25 1.00094 225.25C1.00094 225.25 1.00093 225.25 1.00093 225.25C1.00093 225.25 1.00093 225.25 1.00093 225.25C1.00092 225.25 1.00092 225.25 1.00092 225.25C1.00092 225.25 1.00092 225.25 1.00091 225.25C1.00091 225.25 1.00091 225.25 1.00091 225.25C1.00091 225.25 1.00091 225.25 1.0009 225.25C1.0009 225.25 1.0009 225.25 1.0009 225.25C1.0009 225.25 1.00089 225.25 1.00089 225.25C1.00089 225.25 1.00089 225.25 1.00089 225.25C1.00089 225.25 1.00088 225.25 1.00088 225.25C1.00088 225.25 1.00088 225.25 1.00088 225.25C1.00087 225.25 1.00087 225.25 1.00087 225.25C1.00087 225.25 1.00087 225.25 1.00087 225.25C1.00086 225.25 1.00086 225.25 1.00086 225.25C1.00086 225.25 1.00086 225.25 1.00085 225.25C1.00085 225.25 1.00085 225.25 1.00085 225.25C1.00085 225.25 1.00085 225.25 1.00084 225.25C1.00084 225.25 1.00084 225.25 1.00084 225.25C1.00084 225.25 1.00083 225.25 1.00083 225.25C1.00083 225.25 1.00083 225.25 1.00083 225.25C1.00083 225.25 1.00082 225.25 1.00082 225.25C1.00082 225.25 1.00082 225.25 1.00082 225.25C1.00081 225.25 1.00081 225.25 1.00081 225.25C1.00081 225.25 1.00081 225.25 1.0008 225.25C1.0008 225.25 1.0008 225.25 1.0008 225.25C1.0008 225.25 1.0008 225.25 1.00079 225.25C1.00079 225.25 1.00079 225.25 1.00079 225.25C1.00079 225.25 1.00078 225.25 1.00078 225.25C1.00078 225.25 1.00078 225.25 1.00078 225.25C1.00078 225.25 1.00077 225.25 1.00077 225.25C1.00077 225.25 1.00077 225.25 1.00077 225.25C1.00076 225.25 1.00076 225.25 1.00076 225.25C1.00076 225.25 1.00076 225.25 1.00076 225.25C1.00075 225.25 1.00075 225.25 1.00075 225.25C1.00075 225.25 1.00075 225.25 1.00074 225.25C1.00074 225.25 1.00074 225.25 1.00074 225.25C1.00074 225.25 1.00074 225.25 1.00073 225.25C1.00073 225.25 1.00073 225.25 1.00073 225.25C1.00073 225.25 1.00072 225.25 1.00072 225.25C1.00072 225.25 1.00072 225.25 1.00072 225.25C1.00072 225.25 1.00071 225.25 1.00071 225.25C1.00071 225.25 1.00071 225.25 1.00071 225.25C1.0007 225.25 1.0007 225.25 1.0007 225.25C1.0007 225.25 1.0007 225.25 1.00069 225.25C1.00069 225.25 1.00069 225.25 1.00069 225.25C1.00069 225.25 1.00069 225.25 1.00068 225.25C1.00068 225.25 1.00068 225.25 1.00068 225.25C1.00068 225.25 1.00067 225.25 1.00067 225.25C1.00067 225.25 1.00067 225.25 1.00067 225.25C1.00067 225.25 1.00066 225.25 1.00066 225.25C1.00066 225.25 1.00066 225.25 1.00066 225.25C1.00065 225.25 1.00065 225.25 1.00065 225.25C1.00065 225.25 1.00065 225.25 1.00065 225.25C1.00064 225.25 1.00064 225.25 1.00064 225.25C1.00064 225.25 1.00064 225.25 1.00063 225.25C1.00063 225.25 1.00063 225.25 1.00063 225.25C1.00063 225.25 1.00063 225.25 1.00062 225.25C1.00062 225.25 1.00062 225.25 1.00062 225.25C1.00062 225.25 1.00061 225.25 1.00061 225.25C1.00061 225.25 1.00061 225.25 1.00061 225.25C1.00061 225.25 1.0006 225.25 1.0006 225.25C1.0006 225.25 1.0006 225.25 1.0006 225.25C1.00059 225.25 1.00059 225.25 1.00059 225.25C1.00059 225.25 1.00059 225.25 1.00059 225.25C1.00058 225.25 1.00058 225.25 1.00058 225.25C1.00058 225.25 1.00058 225.25 1.00057 225.25C1.00057 225.25 1.00057 225.25 1.00057 225.25C1.00057 225.25 1.00056 225.25 1.00056 225.25C1.00056 225.25 1.00056 225.25 1.00056 225.25C1.00056 225.25 1.00055 225.25 1.00055 225.25C1.00055 225.25 1.00055 225.25 1.00055 225.25C1.00054 225.25 1.00054 225.25 1.00054 225.25C1.00054 225.25 1.00054 225.25 1.00054 225.25C1.00053 225.25 1.00053 225.25 1.00053 225.25C1.00053 225.25 1.00053 225.25 1.00052 225.25C1.00052 225.25 1.00052 225.25 1.00052 225.25C1.00052 225.25 1.00052 225.25 1.00051 225.25C1.00051 225.25 1.00051 225.25 1.00051 225.25C1.00051 225.25 1.0005 225.25 1.0005 225.25C1.0005 225.25 1.0005 225.25 1.0005 225.25C1.0005 225.25 1.00049 225.25 1.00049 225.25C1.00049 225.25 1.00049 225.25 1.00049 225.25C1.00048 225.25 1.00048 225.25 1.00048 225.25C1.00048 225.25 1.00048 225.25 1.00048 225.25C1.00047 225.25 1.00047 225.25 1.00047 225.25C1.00047 225.25 1.00047 225.25 1.00046 225.25C1.00046 225.25 1.00046 225.25 1.00046 225.25C1.00046 225.25 1.00045 225.25 1.00045 225.25C1.00045 225.25 1.00045 225.25 1.00045 225.25C1.00045 225.25 1.00044 225.25 1.00044 225.25C1.00044 225.25 1.00044 225.25 1.00044 225.25C1.00043 225.25 1.00043 225.25 1.00043 225.25C1.00043 225.25 1.00043 225.25 1.00043 225.25C1.00042 225.25 1.00042 225.25 1.00042 225.25C1.00042 225.25 1.00042 225.25 1.00041 225.25C1.00041 225.25 1.00041 225.25 1.00041 225.25C1.00041 225.25 1.00041 225.25 1.0004 225.25C1.0004 225.25 1.0004 225.25 1.0004 225.25C1.0004 225.25 1.00039 225.25 1.00039 225.25C1.00039 225.25 1.00039 225.25 1.00039 225.25C1.00039 225.25 1.00038 225.25 1.00038 225.25C1.00038 225.25 1.00038 225.25 1.00038 225.25C1.00037 225.25 1.00037 225.25 1.00037 225.25C1.00037 225.25 1.00037 225.25 1.00037 225.25C1.00036 225.25 1.00036 225.25 1.00036 225.25C1.00036 225.25 1.00036 225.25 1.00035 225.25C1.00035 225.25 1.00035 225.25 1.00035 225.25C1.00035 225.25 1.00034 225.25 1.00034 225.25C1.00034 225.25 1.00034 225.25 1.00034 225.25C1.00034 225.25 1.00033 225.25 1.00033 225.25C1.00033 225.25 1.00033 225.25 1.00033 225.25C1.00032 225.25 1.00032 225.25 1.00032 225.25C1.00032 225.25 1.00032 225.25 1.00032 225.25C1.00031 225.25 1.00031 225.25 1.00031 225.25C1.00031 225.25 1.00031 225.25 1.0003 225.25C1.0003 225.25 1.0003 225.25 1.0003 225.25C1.0003 225.25 1.0003 225.25 1.00029 225.25C1.00029 225.25 1.00029 225.25 1.00029 225.25C1.00029 225.25 1.00028 225.25 1.00028 225.25C1.00028 225.25 1.00028 225.25 1.00028 225.25C1.00028 225.25 1.00027 225.25 1.00027 225.25C1.00027 225.25 1.00027 225.25 1.00027 225.25C1.00026 225.25 1.00026 225.25 1.00026 225.25C1.00026 225.25 1.00026 225.25 1.00026 225.25C1.00025 225.25 1.00025 225.25 1.00025 225.25C1.00025 225.25 1.00025 225.25 1.00024 225.25C1.00024 225.25 1.00024 225.25 1.00024 225.25C1.00024 225.25 1.00023 225.25 1.00023 225.25C1.00023 225.25 1.00023 225.25 1.00023 225.25C1.00023 225.25 1.00022 225.25 1.00022 225.25C1.00022 225.25 1.00022 225.25 1.00022 225.25C1.00021 225.25 1.00021 225.25 1.00021 225.25C1.00021 225.25 1.00021 225.25 1.00021 225.25C1.0002 225.25 1.0002 225.25 1.0002 225.25C1.0002 225.25 1.0002 225.25 1.00019 225.25C1.00019 225.25 1.00019 225.25 1.00019 225.25C1.00019 225.25 1.00019 225.25 1.00018 225.25C1.00018 225.25 1.00018 225.25 1.00018 225.25C1.00018 225.25 1.00017 225.25 1.00017 225.25C1.00017 225.25 1.00017 225.25 1.00017 225.25C1.00017 225.25 1.00016 225.25 1.00016 225.25C1.00016 225.25 1.00016 225.25 1.00016 225.25C1.00015 225.25 1.00015 225.25 1.00015 225.25C1.00015 225.25 1.00015 225.25 1.00015 225.25C1.00014 225.25 1.00014 225.25 1.00014 225.25C1.00014 225.25 1.00014 225.25 1.00013 225.25C1.00013 225.25 1.00013 225.25 1.00013 225.25C1.00013 225.25 1.00012 225.25 1.00012 225.25C1.00012 225.25 1.00012 225.25 1.00012 225.25C1.00012 225.25 1.00011 225.25 1.00011 225.25C1.00011 225.25 1.00011 225.25 1.00011 225.25C1.0001 225.25 1.0001 225.25 1.0001 225.25C1.0001 225.25 1.0001 225.25 1.0001 225.25C1.00009 225.25 1.00009 225.25 1.00009 225.25C1.00009 225.25 1.00009 225.25 1.00008 225.25C1.00008 225.25 1.00008 225.25 1.00008 225.25C1.00008 225.25 1.00008 225.25 1.00007 225.25C1.00007 225.25 1.00007 225.25 1.00007 225.25C1.00007 225.25 1.00006 225.25 1.00006 225.25C1.00006 225.25 1.00006 225.25 1.00006 225.25C1.00006 225.25 1.00005 225.25 1.00005 225.25C1.00005 225.25 1.00005 225.25 1.00005 225.25C1.00004 225.25 1.00004 225.25 1.00004 225.25C1.00004 225.25 1.00004 225.25 1.00004 225.25C1.00003 225.25 1.00003 225.25 1.00003 225.25C1.00003 225.25 1.00003 225.25 1.00002 225.25C1.00002 225.25 1.00002 225.25 1.00002 225.25C1.00002 225.25 1.00001 225.25 1.00001 225.25C1.00001 225.25 1.00001 225.25 1.00001 225.25C1.00001 225.25 1 225.25 1 225.25C1 225.25 0.999999 225.25 0.999997 225.25C0.999995 225.25 0.999993 225.25 0.999991 225.25C0.999989 225.25 0.999988 225.25 0.999986 225.25C0.999984 225.25 0.999982 225.25 0.99998 225.25C0.999978 225.25 0.999977 225.25 0.999975 225.25C0.999973 225.25 0.999971 225.25 0.999969 225.25C0.999967 225.25 0.999966 225.25 0.999964 225.25C0.999962 225.25 0.99996 225.25 0.999958 225.25C0.999956 225.25 0.999955 225.25 0.999953 225.25C0.999951 225.25 0.999949 225.25 0.999947 225.25C0.999945 225.25 0.999944 225.25 0.999942 225.25C0.99994 225.25 0.999938 225.25 0.999936 225.25C0.999934 225.25 0.999933 225.25 0.999931 225.25C0.999929 225.25 0.999927 225.25 0.999925 225.25C0.999923 225.25 0.999922 225.25 0.99992 225.25C0.999918 225.25 0.999916 225.25 0.999914 225.25C0.999912 225.25 0.999911 225.25 0.999909 225.25C0.999907 225.25 0.999905 225.25 0.999903 225.25C0.999901 225.25 0.9999 225.25 0.999898 225.25C0.999896 225.25 0.999894 225.25 0.999892 225.25C0.99989 225.25 0.999889 225.25 0.999887 225.25C0.999885 225.25 0.999883 225.25 0.999881 225.25C0.999879 225.25 0.999878 225.25 0.999876 225.25C0.999874 225.25 0.999872 225.25 0.99987 225.25C0.999868 225.25 0.999867 225.25 0.999865 225.25C0.999863 225.25 0.999861 225.25 0.999859 225.25C0.999857 225.25 0.999856 225.25 0.999854 225.25C0.999852 225.25 0.99985 225.25 0.999848 225.25C0.999846 225.25 0.999845 225.25 0.999843 225.25C0.999841 225.25 0.999839 225.25 0.999837 225.25C0.999835 225.25 0.999834 225.25 0.999832 225.25C0.99983 225.25 0.999828 225.25 0.999826 225.25C0.999824 225.25 0.999823 225.25 0.999821 225.25C0.999819 225.25 0.999817 225.25 0.999815 225.25C0.999813 225.25 0.999812 225.25 0.99981 225.25C0.999808 225.25 0.999806 225.25 0.999804 225.25C0.999802 225.25 0.999801 225.25 0.999799 225.25C0.999797 225.25 0.999795 225.25 0.999793 225.25C0.999791 225.25 0.99979 225.25 0.999788 225.25C0.999786 225.25 0.999784 225.25 0.999782 225.25C0.99978 225.25 0.999779 225.25 0.999777 225.25C0.999775 225.25 0.999773 225.25 0.999771 225.25C0.999769 225.25 0.999768 225.25 0.999766 225.25C0.999764 225.25 0.999762 225.25 0.99976 225.25C0.999758 225.25 0.999757 225.25 0.999755 225.25C0.999753 225.25 0.999751 225.25 0.999749 225.25C0.999747 225.25 0.999746 225.25 0.999744 225.25C0.999742 225.25 0.99974 225.25 0.999738 225.25C0.999736 225.25 0.999735 225.25 0.999733 225.25C0.999731 225.25 0.999729 225.25 0.999727 225.25C0.999725 225.25 0.999724 225.25 0.999722 225.25C0.99972 225.25 0.999718 225.25 0.999716 225.25C0.999714 225.25 0.999713 225.25 0.999711 225.25C0.999709 225.25 0.999707 225.25 0.999705 225.25C0.999703 225.25 0.999702 225.25 0.9997 225.25C0.999698 225.25 0.999696 225.25 0.999694 225.25C0.999692 225.25 0.999691 225.25 0.999689 225.25C0.999687 225.25 0.999685 225.25 0.999683 225.25C0.999681 225.25 0.99968 225.25 0.999678 225.25C0.999676 225.25 0.999674 225.25 0.999672 225.25C0.99967 225.25 0.999669 225.25 0.999667 225.25C0.999665 225.25 0.999663 225.25 0.999661 225.25C0.999659 225.25 0.999658 225.25 0.999656 225.25C0.999654 225.25 0.999652 225.25 0.99965 225.25C0.999648 225.25 0.999647 225.25 0.999645 225.25C0.999643 225.25 0.999641 225.25 0.999639 225.25C0.999637 225.25 0.999636 225.25 0.999634 225.25C0.999632 225.25 0.99963 225.25 0.999628 225.25C0.999626 225.25 0.999625 225.25 0.999623 225.25C0.999621 225.25 0.999619 225.25 0.999617 225.25C0.999615 225.25 0.999614 225.25 0.999612 225.25C0.99961 225.25 0.999608 225.25 0.999606 225.25C0.999604 225.25 0.999603 225.25 0.999601 225.25C0.999599 225.25 0.999597 225.25 0.999595 225.25C0.999593 225.25 0.999592 225.25 0.99959 225.25C0.999588 225.25 0.999586 225.25 0.999584 225.25C0.999582 225.25 0.999581 225.25 0.999579 225.25C0.999577 225.25 0.999575 225.25 0.999573 225.25C0.999571 225.25 0.99957 225.25 0.999568 225.25C0.999566 225.25 0.999564 225.25 0.999562 225.25C0.99956 225.25 0.999559 225.25 0.999557 225.25C0.999555 225.25 0.999553 225.25 0.999551 225.25C0.999549 225.25 0.999548 225.25 0.999546 225.25C0.999544 225.25 0.999542 225.25 0.99954 225.25C0.999538 225.25 0.999537 225.25 0.999535 225.25C0.999533 225.25 0.999531 225.25 0.999529 225.25C0.999527 225.25 0.999526 225.25 0.999524 225.25C0.999522 225.25 0.99952 225.25 0.999518 225.25C0.999516 225.25 0.999515 225.25 0.999513 225.25C0.999511 225.25 0.999509 225.25 0.999507 225.25C0.999505 225.25 0.999504 225.25 0.999502 225.25C0.9995 225.25 0.999498 225.25 0.999496 225.25C0.999494 225.25 0.999493 225.25 0.999491 225.25C0.999489 225.25 0.999487 225.25 0.999485 225.25C0.999483 225.25 0.999482 225.25 0.99948 225.25C0.999478 225.25 0.999476 225.25 0.999474 225.25C0.999472 225.25 0.999471 225.25 0.999469 225.25C0.999467 225.25 0.999465 225.25 0.999463 225.25C0.999461 225.25 0.99946 225.25 0.999458 225.25C0.999456 225.25 0.999454 225.25 0.999452 225.25C0.99945 225.25 0.999449 225.25 0.999447 225.25C0.999445 225.25 0.999443 225.25 0.999441 225.25C0.999439 225.25 0.999438 225.25 0.999436 225.25C0.999434 225.25 0.999432 225.25 0.99943 225.25C0.999428 225.25 0.999427 225.25 0.999425 225.25C0.999423 225.25 0.999421 225.25 0.999419 225.25C0.999417 225.25 0.999416 225.25 0.999414 225.25C0.999412 225.25 0.99941 225.25 0.999408 225.25C0.999406 225.25 0.999405 225.25 0.999403 225.25C0.999401 225.25 0.999399 225.25 0.999397 225.25C0.999396 225.25 0.999394 225.25 0.999392 225.25C0.99939 225.25 0.999388 225.25 0.999386 225.25C0.999385 225.25 0.999383 225.25 0.999381 225.25C0.999379 225.25 0.999377 225.25 0.999375 225.25C0.999374 225.25 0.999372 225.25 0.99937 225.25C0.999368 225.25 0.999366 225.25 0.999364 225.25C0.999363 225.25 0.999361 225.25 0.999359 225.25C0.999357 225.25 0.999355 225.25 0.999353 225.25C0.999352 225.25 0.99935 225.25 0.999348 225.25C0.999346 225.25 0.999344 225.25 0.999342 225.25C0.999341 225.25 0.999339 225.25 0.999337 225.25C0.999335 225.25 0.999333 225.25 0.999331 225.25C0.99933 225.25 0.999328 225.25 0.999326 225.25C0.999324 225.25 0.999322 225.25 0.99932 225.25C0.999319 225.25 0.999317 225.25 0.999315 225.25C0.999313 225.25 0.999311 225.25 0.999309 225.25C0.999308 225.25 0.999306 225.25 0.999304 225.25C0.999302 225.25 0.9993 225.25 0.999298 225.25C0.999297 225.25 0.999295 225.25 0.999293 225.25C0.999291 225.25 0.999289 225.25 0.999287 225.25C0.999286 225.25 0.999284 225.25 0.999282 225.25C0.99928 225.25 0.999278 225.25 0.999276 225.25C0.999275 225.25 0.999273 225.25 0.999271 225.25C0.999269 225.25 0.999267 225.25 0.999265 225.25C0.999264 225.25 0.999262 225.25 0.99926 225.25C0.999258 225.25 0.999256 225.25 0.999254 225.25C0.999253 225.25 0.999251 225.25 0.999249 225.25C0.999247 225.25 0.999245 225.25 0.999243 225.25C0.999242 225.25 0.99924 225.25 0.999238 225.25C0.999236 225.25 0.999234 225.25 0.999232 225.25C0.999231 225.25 0.999229 225.25 0.999227 225.25C0.999225 225.25 0.999223 225.25 0.999221 225.25C0.99922 225.25 0.999218 225.25 0.999216 225.25C0.999214 225.25 0.999212 225.25 0.99921 225.25C0.999209 225.25 0.999207 225.25 0.999205 225.25C0.999203 225.25 0.999201 225.25 0.999199 225.25C0.999198 225.25 0.999196 225.25 0.999194 225.25C0.999192 225.25 0.99919 225.25 0.999188 225.25C0.999187 225.25 0.999185 225.25 0.999183 225.25C0.999181 225.25 0.999179 225.25 0.999177 225.25C0.999176 225.25 0.999174 225.25 0.999172 225.25C0.99917 225.25 0.999168 225.25 0.999166 225.25C0.999165 225.25 0.999163 225.25 0.999161 225.25C0.999159 225.25 0.999157 225.25 0.999155 225.25C0.999154 225.25 0.999152 225.25 0.99915 225.25C0.999148 225.25 0.999146 225.25 0.999144 225.25C0.999143 225.25 0.999141 225.25 0.999139 225.25C0.999137 225.25 0.999135 225.25 0.999133 225.25C0.999132 225.25 0.99913 225.25 0.999128 225.25C0.999126 225.25 0.999124 225.25 0.999122 225.25C0.999121 225.25 0.999119 225.25 0.999117 225.25C0.999115 225.25 0.999113 225.25 0.999111 225.25C0.99911 225.25 0.999108 225.25 0.999106 225.25C0.999104 225.25 0.999102 225.25 0.9991 225.25C0.999099 225.25 0.999097 225.25 0.999095 225.25C0.999093 225.25 0.999091 225.25 0.999089 225.25C0.999088 225.25 0.999086 225.25 0.999084 225.25C0.999082 225.25 0.99908 225.25 0.999078 225.25C0.999077 225.25 0.999075 225.25 0.999073 225.25C0.999071 225.25 0.999069 225.25 0.999067 225.25C0.999066 225.25 0.999064 225.25 0.999062 225.25C0.99906 225.25 0.999058 225.25 0.999056 225.25C0.999055 225.25 0.999053 225.25 0.999051 225.25C0.999049 225.25 0.999047 225.25 0.999045 225.25C0.999044 225.25 0.999042 225.25 0.99904 225.25C0.999038 225.25 0.999036 225.25 0.999034 225.25C0.999033 225.25 0.999031 225.25 0.999029 225.25C0.999027 225.25 0.999025 225.25 0.999023 225.25V226.75C0.999025 226.75 0.999027 226.75 0.999029 226.75C0.999031 226.75 0.999033 226.75 0.999034 226.75C0.999036 226.75 0.999038 226.75 0.99904 226.75C0.999042 226.75 0.999044 226.75 0.999045 226.75C0.999047 226.75 0.999049 226.75 0.999051 226.75C0.999053 226.75 0.999055 226.75 0.999056 226.75C0.999058 226.75 0.99906 226.75 0.999062 226.75C0.999064 226.75 0.999066 226.75 0.999067 226.75C0.999069 226.75 0.999071 226.75 0.999073 226.75C0.999075 226.75 0.999077 226.75 0.999078 226.75C0.99908 226.75 0.999082 226.75 0.999084 226.75C0.999086 226.75 0.999088 226.75 0.999089 226.75C0.999091 226.75 0.999093 226.75 0.999095 226.75C0.999097 226.75 0.999099 226.75 0.9991 226.75C0.999102 226.75 0.999104 226.75 0.999106 226.75C0.999108 226.75 0.99911 226.75 0.999111 226.75C0.999113 226.75 0.999115 226.75 0.999117 226.75C0.999119 226.75 0.999121 226.75 0.999122 226.75C0.999124 226.75 0.999126 226.75 0.999128 226.75C0.99913 226.75 0.999132 226.75 0.999133 226.75C0.999135 226.75 0.999137 226.75 0.999139 226.75C0.999141 226.75 0.999143 226.75 0.999144 226.75C0.999146 226.75 0.999148 226.75 0.99915 226.75C0.999152 226.75 0.999154 226.75 0.999155 226.75C0.999157 226.75 0.999159 226.75 0.999161 226.75C0.999163 226.75 0.999165 226.75 0.999166 226.75C0.999168 226.75 0.99917 226.75 0.999172 226.75C0.999174 226.75 0.999176 226.75 0.999177 226.75C0.999179 226.75 0.999181 226.75 0.999183 226.75C0.999185 226.75 0.999187 226.75 0.999188 226.75C0.99919 226.75 0.999192 226.75 0.999194 226.75C0.999196 226.75 0.999198 226.75 0.999199 226.75C0.999201 226.75 0.999203 226.75 0.999205 226.75C0.999207 226.75 0.999209 226.75 0.99921 226.75C0.999212 226.75 0.999214 226.75 0.999216 226.75C0.999218 226.75 0.99922 226.75 0.999221 226.75C0.999223 226.75 0.999225 226.75 0.999227 226.75C0.999229 226.75 0.999231 226.75 0.999232 226.75C0.999234 226.75 0.999236 226.75 0.999238 226.75C0.99924 226.75 0.999242 226.75 0.999243 226.75C0.999245 226.75 0.999247 226.75 0.999249 226.75C0.999251 226.75 0.999253 226.75 0.999254 226.75C0.999256 226.75 0.999258 226.75 0.99926 226.75C0.999262 226.75 0.999264 226.75 0.999265 226.75C0.999267 226.75 0.999269 226.75 0.999271 226.75C0.999273 226.75 0.999275 226.75 0.999276 226.75C0.999278 226.75 0.99928 226.75 0.999282 226.75C0.999284 226.75 0.999286 226.75 0.999287 226.75C0.999289 226.75 0.999291 226.75 0.999293 226.75C0.999295 226.75 0.999297 226.75 0.999298 226.75C0.9993 226.75 0.999302 226.75 0.999304 226.75C0.999306 226.75 0.999308 226.75 0.999309 226.75C0.999311 226.75 0.999313 226.75 0.999315 226.75C0.999317 226.75 0.999319 226.75 0.99932 226.75C0.999322 226.75 0.999324 226.75 0.999326 226.75C0.999328 226.75 0.99933 226.75 0.999331 226.75C0.999333 226.75 0.999335 226.75 0.999337 226.75C0.999339 226.75 0.999341 226.75 0.999342 226.75C0.999344 226.75 0.999346 226.75 0.999348 226.75C0.99935 226.75 0.999352 226.75 0.999353 226.75C0.999355 226.75 0.999357 226.75 0.999359 226.75C0.999361 226.75 0.999363 226.75 0.999364 226.75C0.999366 226.75 0.999368 226.75 0.99937 226.75C0.999372 226.75 0.999374 226.75 0.999375 226.75C0.999377 226.75 0.999379 226.75 0.999381 226.75C0.999383 226.75 0.999385 226.75 0.999386 226.75C0.999388 226.75 0.99939 226.75 0.999392 226.75C0.999394 226.75 0.999396 226.75 0.999397 226.75C0.999399 226.75 0.999401 226.75 0.999403 226.75C0.999405 226.75 0.999406 226.75 0.999408 226.75C0.99941 226.75 0.999412 226.75 0.999414 226.75C0.999416 226.75 0.999417 226.75 0.999419 226.75C0.999421 226.75 0.999423 226.75 0.999425 226.75C0.999427 226.75 0.999428 226.75 0.99943 226.75C0.999432 226.75 0.999434 226.75 0.999436 226.75C0.999438 226.75 0.999439 226.75 0.999441 226.75C0.999443 226.75 0.999445 226.75 0.999447 226.75C0.999449 226.75 0.99945 226.75 0.999452 226.75C0.999454 226.75 0.999456 226.75 0.999458 226.75C0.99946 226.75 0.999461 226.75 0.999463 226.75C0.999465 226.75 0.999467 226.75 0.999469 226.75C0.999471 226.75 0.999472 226.75 0.999474 226.75C0.999476 226.75 0.999478 226.75 0.99948 226.75C0.999482 226.75 0.999483 226.75 0.999485 226.75C0.999487 226.75 0.999489 226.75 0.999491 226.75C0.999493 226.75 0.999494 226.75 0.999496 226.75C0.999498 226.75 0.9995 226.75 0.999502 226.75C0.999504 226.75 0.999505 226.75 0.999507 226.75C0.999509 226.75 0.999511 226.75 0.999513 226.75C0.999515 226.75 0.999516 226.75 0.999518 226.75C0.99952 226.75 0.999522 226.75 0.999524 226.75C0.999526 226.75 0.999527 226.75 0.999529 226.75C0.999531 226.75 0.999533 226.75 0.999535 226.75C0.999537 226.75 0.999538 226.75 0.99954 226.75C0.999542 226.75 0.999544 226.75 0.999546 226.75C0.999548 226.75 0.999549 226.75 0.999551 226.75C0.999553 226.75 0.999555 226.75 0.999557 226.75C0.999559 226.75 0.99956 226.75 0.999562 226.75C0.999564 226.75 0.999566 226.75 0.999568 226.75C0.99957 226.75 0.999571 226.75 0.999573 226.75C0.999575 226.75 0.999577 226.75 0.999579 226.75C0.999581 226.75 0.999582 226.75 0.999584 226.75C0.999586 226.75 0.999588 226.75 0.99959 226.75C0.999592 226.75 0.999593 226.75 0.999595 226.75C0.999597 226.75 0.999599 226.75 0.999601 226.75C0.999603 226.75 0.999604 226.75 0.999606 226.75C0.999608 226.75 0.99961 226.75 0.999612 226.75C0.999614 226.75 0.999615 226.75 0.999617 226.75C0.999619 226.75 0.999621 226.75 0.999623 226.75C0.999625 226.75 0.999626 226.75 0.999628 226.75C0.99963 226.75 0.999632 226.75 0.999634 226.75C0.999636 226.75 0.999637 226.75 0.999639 226.75C0.999641 226.75 0.999643 226.75 0.999645 226.75C0.999647 226.75 0.999648 226.75 0.99965 226.75C0.999652 226.75 0.999654 226.75 0.999656 226.75C0.999658 226.75 0.999659 226.75 0.999661 226.75C0.999663 226.75 0.999665 226.75 0.999667 226.75C0.999669 226.75 0.99967 226.75 0.999672 226.75C0.999674 226.75 0.999676 226.75 0.999678 226.75C0.99968 226.75 0.999681 226.75 0.999683 226.75C0.999685 226.75 0.999687 226.75 0.999689 226.75C0.999691 226.75 0.999692 226.75 0.999694 226.75C0.999696 226.75 0.999698 226.75 0.9997 226.75C0.999702 226.75 0.999703 226.75 0.999705 226.75C0.999707 226.75 0.999709 226.75 0.999711 226.75C0.999713 226.75 0.999714 226.75 0.999716 226.75C0.999718 226.75 0.99972 226.75 0.999722 226.75C0.999724 226.75 0.999725 226.75 0.999727 226.75C0.999729 226.75 0.999731 226.75 0.999733 226.75C0.999735 226.75 0.999736 226.75 0.999738 226.75C0.99974 226.75 0.999742 226.75 0.999744 226.75C0.999746 226.75 0.999747 226.75 0.999749 226.75C0.999751 226.75 0.999753 226.75 0.999755 226.75C0.999757 226.75 0.999758 226.75 0.99976 226.75C0.999762 226.75 0.999764 226.75 0.999766 226.75C0.999768 226.75 0.999769 226.75 0.999771 226.75C0.999773 226.75 0.999775 226.75 0.999777 226.75C0.999779 226.75 0.99978 226.75 0.999782 226.75C0.999784 226.75 0.999786 226.75 0.999788 226.75C0.99979 226.75 0.999791 226.75 0.999793 226.75C0.999795 226.75 0.999797 226.75 0.999799 226.75C0.999801 226.75 0.999802 226.75 0.999804 226.75C0.999806 226.75 0.999808 226.75 0.99981 226.75C0.999812 226.75 0.999813 226.75 0.999815 226.75C0.999817 226.75 0.999819 226.75 0.999821 226.75C0.999823 226.75 0.999824 226.75 0.999826 226.75C0.999828 226.75 0.99983 226.75 0.999832 226.75C0.999834 226.75 0.999835 226.75 0.999837 226.75C0.999839 226.75 0.999841 226.75 0.999843 226.75C0.999845 226.75 0.999846 226.75 0.999848 226.75C0.99985 226.75 0.999852 226.75 0.999854 226.75C0.999856 226.75 0.999857 226.75 0.999859 226.75C0.999861 226.75 0.999863 226.75 0.999865 226.75C0.999867 226.75 0.999868 226.75 0.99987 226.75C0.999872 226.75 0.999874 226.75 0.999876 226.75C0.999878 226.75 0.999879 226.75 0.999881 226.75C0.999883 226.75 0.999885 226.75 0.999887 226.75C0.999889 226.75 0.99989 226.75 0.999892 226.75C0.999894 226.75 0.999896 226.75 0.999898 226.75C0.9999 226.75 0.999901 226.75 0.999903 226.75C0.999905 226.75 0.999907 226.75 0.999909 226.75C0.999911 226.75 0.999912 226.75 0.999914 226.75C0.999916 226.75 0.999918 226.75 0.99992 226.75C0.999922 226.75 0.999923 226.75 0.999925 226.75C0.999927 226.75 0.999929 226.75 0.999931 226.75C0.999933 226.75 0.999934 226.75 0.999936 226.75C0.999938 226.75 0.99994 226.75 0.999942 226.75C0.999944 226.75 0.999945 226.75 0.999947 226.75C0.999949 226.75 0.999951 226.75 0.999953 226.75C0.999955 226.75 0.999956 226.75 0.999958 226.75C0.99996 226.75 0.999962 226.75 0.999964 226.75C0.999966 226.75 0.999967 226.75 0.999969 226.75C0.999971 226.75 0.999973 226.75 0.999975 226.75C0.999977 226.75 0.999978 226.75 0.99998 226.75C0.999982 226.75 0.999984 226.75 0.999986 226.75C0.999988 226.75 0.999989 226.75 0.999991 226.75C0.999993 226.75 0.999995 226.75 0.999997 226.75C0.999999 226.75 1 226.75 1 226.75C1 226.75 1.00001 226.75 1.00001 226.75C1.00001 226.75 1.00001 226.75 1.00001 226.75C1.00001 226.75 1.00002 226.75 1.00002 226.75C1.00002 226.75 1.00002 226.75 1.00002 226.75C1.00003 226.75 1.00003 226.75 1.00003 226.75C1.00003 226.75 1.00003 226.75 1.00004 226.75C1.00004 226.75 1.00004 226.75 1.00004 226.75C1.00004 226.75 1.00004 226.75 1.00005 226.75C1.00005 226.75 1.00005 226.75 1.00005 226.75C1.00005 226.75 1.00006 226.75 1.00006 226.75C1.00006 226.75 1.00006 226.75 1.00006 226.75C1.00006 226.75 1.00007 226.75 1.00007 226.75C1.00007 226.75 1.00007 226.75 1.00007 226.75C1.00008 226.75 1.00008 226.75 1.00008 226.75C1.00008 226.75 1.00008 226.75 1.00008 226.75C1.00009 226.75 1.00009 226.75 1.00009 226.75C1.00009 226.75 1.00009 226.75 1.0001 226.75C1.0001 226.75 1.0001 226.75 1.0001 226.75C1.0001 226.75 1.0001 226.75 1.00011 226.75C1.00011 226.75 1.00011 226.75 1.00011 226.75C1.00011 226.75 1.00012 226.75 1.00012 226.75C1.00012 226.75 1.00012 226.75 1.00012 226.75C1.00012 226.75 1.00013 226.75 1.00013 226.75C1.00013 226.75 1.00013 226.75 1.00013 226.75C1.00014 226.75 1.00014 226.75 1.00014 226.75C1.00014 226.75 1.00014 226.75 1.00015 226.75C1.00015 226.75 1.00015 226.75 1.00015 226.75C1.00015 226.75 1.00015 226.75 1.00016 226.75C1.00016 226.75 1.00016 226.75 1.00016 226.75C1.00016 226.75 1.00017 226.75 1.00017 226.75C1.00017 226.75 1.00017 226.75 1.00017 226.75C1.00017 226.75 1.00018 226.75 1.00018 226.75C1.00018 226.75 1.00018 226.75 1.00018 226.75C1.00019 226.75 1.00019 226.75 1.00019 226.75C1.00019 226.75 1.00019 226.75 1.00019 226.75C1.0002 226.75 1.0002 226.75 1.0002 226.75C1.0002 226.75 1.0002 226.75 1.00021 226.75C1.00021 226.75 1.00021 226.75 1.00021 226.75C1.00021 226.75 1.00021 226.75 1.00022 226.75C1.00022 226.75 1.00022 226.75 1.00022 226.75C1.00022 226.75 1.00023 226.75 1.00023 226.75C1.00023 226.75 1.00023 226.75 1.00023 226.75C1.00023 226.75 1.00024 226.75 1.00024 226.75C1.00024 226.75 1.00024 226.75 1.00024 226.75C1.00025 226.75 1.00025 226.75 1.00025 226.75C1.00025 226.75 1.00025 226.75 1.00026 226.75C1.00026 226.75 1.00026 226.75 1.00026 226.75C1.00026 226.75 1.00026 226.75 1.00027 226.75C1.00027 226.75 1.00027 226.75 1.00027 226.75C1.00027 226.75 1.00028 226.75 1.00028 226.75C1.00028 226.75 1.00028 226.75 1.00028 226.75C1.00028 226.75 1.00029 226.75 1.00029 226.75C1.00029 226.75 1.00029 226.75 1.00029 226.75C1.0003 226.75 1.0003 226.75 1.0003 226.75C1.0003 226.75 1.0003 226.75 1.0003 226.75C1.00031 226.75 1.00031 226.75 1.00031 226.75C1.00031 226.75 1.00031 226.75 1.00032 226.75C1.00032 226.75 1.00032 226.75 1.00032 226.75C1.00032 226.75 1.00032 226.75 1.00033 226.75C1.00033 226.75 1.00033 226.75 1.00033 226.75C1.00033 226.75 1.00034 226.75 1.00034 226.75C1.00034 226.75 1.00034 226.75 1.00034 226.75C1.00034 226.75 1.00035 226.75 1.00035 226.75C1.00035 226.75 1.00035 226.75 1.00035 226.75C1.00036 226.75 1.00036 226.75 1.00036 226.75C1.00036 226.75 1.00036 226.75 1.00037 226.75C1.00037 226.75 1.00037 226.75 1.00037 226.75C1.00037 226.75 1.00037 226.75 1.00038 226.75C1.00038 226.75 1.00038 226.75 1.00038 226.75C1.00038 226.75 1.00039 226.75 1.00039 226.75C1.00039 226.75 1.00039 226.75 1.00039 226.75C1.00039 226.75 1.0004 226.75 1.0004 226.75C1.0004 226.75 1.0004 226.75 1.0004 226.75C1.00041 226.75 1.00041 226.75 1.00041 226.75C1.00041 226.75 1.00041 226.75 1.00041 226.75C1.00042 226.75 1.00042 226.75 1.00042 226.75C1.00042 226.75 1.00042 226.75 1.00043 226.75C1.00043 226.75 1.00043 226.75 1.00043 226.75C1.00043 226.75 1.00043 226.75 1.00044 226.75C1.00044 226.75 1.00044 226.75 1.00044 226.75C1.00044 226.75 1.00045 226.75 1.00045 226.75C1.00045 226.75 1.00045 226.75 1.00045 226.75C1.00045 226.75 1.00046 226.75 1.00046 226.75C1.00046 226.75 1.00046 226.75 1.00046 226.75C1.00047 226.75 1.00047 226.75 1.00047 226.75C1.00047 226.75 1.00047 226.75 1.00048 226.75C1.00048 226.75 1.00048 226.75 1.00048 226.75C1.00048 226.75 1.00048 226.75 1.00049 226.75C1.00049 226.75 1.00049 226.75 1.00049 226.75C1.00049 226.75 1.0005 226.75 1.0005 226.75C1.0005 226.75 1.0005 226.75 1.0005 226.75C1.0005 226.75 1.00051 226.75 1.00051 226.75C1.00051 226.75 1.00051 226.75 1.00051 226.75C1.00052 226.75 1.00052 226.75 1.00052 226.75C1.00052 226.75 1.00052 226.75 1.00052 226.75C1.00053 226.75 1.00053 226.75 1.00053 226.75C1.00053 226.75 1.00053 226.75 1.00054 226.75C1.00054 226.75 1.00054 226.75 1.00054 226.75C1.00054 226.75 1.00054 226.75 1.00055 226.75C1.00055 226.75 1.00055 226.75 1.00055 226.75C1.00055 226.75 1.00056 226.75 1.00056 226.75C1.00056 226.75 1.00056 226.75 1.00056 226.75C1.00056 226.75 1.00057 226.75 1.00057 226.75C1.00057 226.75 1.00057 226.75 1.00057 226.75C1.00058 226.75 1.00058 226.75 1.00058 226.75C1.00058 226.75 1.00058 226.75 1.00059 226.75C1.00059 226.75 1.00059 226.75 1.00059 226.75C1.00059 226.75 1.00059 226.75 1.0006 226.75C1.0006 226.75 1.0006 226.75 1.0006 226.75C1.0006 226.75 1.00061 226.75 1.00061 226.75C1.00061 226.75 1.00061 226.75 1.00061 226.75C1.00061 226.75 1.00062 226.75 1.00062 226.75C1.00062 226.75 1.00062 226.75 1.00062 226.75C1.00063 226.75 1.00063 226.75 1.00063 226.75C1.00063 226.75 1.00063 226.75 1.00063 226.75C1.00064 226.75 1.00064 226.75 1.00064 226.75C1.00064 226.75 1.00064 226.75 1.00065 226.75C1.00065 226.75 1.00065 226.75 1.00065 226.75C1.00065 226.75 1.00065 226.75 1.00066 226.75C1.00066 226.75 1.00066 226.75 1.00066 226.75C1.00066 226.75 1.00067 226.75 1.00067 226.75C1.00067 226.75 1.00067 226.75 1.00067 226.75C1.00067 226.75 1.00068 226.75 1.00068 226.75C1.00068 226.75 1.00068 226.75 1.00068 226.75C1.00069 226.75 1.00069 226.75 1.00069 226.75C1.00069 226.75 1.00069 226.75 1.00069 226.75C1.0007 226.75 1.0007 226.75 1.0007 226.75C1.0007 226.75 1.0007 226.75 1.00071 226.75C1.00071 226.75 1.00071 226.75 1.00071 226.75C1.00071 226.75 1.00072 226.75 1.00072 226.75C1.00072 226.75 1.00072 226.75 1.00072 226.75C1.00072 226.75 1.00073 226.75 1.00073 226.75C1.00073 226.75 1.00073 226.75 1.00073 226.75C1.00074 226.75 1.00074 226.75 1.00074 226.75C1.00074 226.75 1.00074 226.75 1.00074 226.75C1.00075 226.75 1.00075 226.75 1.00075 226.75C1.00075 226.75 1.00075 226.75 1.00076 226.75C1.00076 226.75 1.00076 226.75 1.00076 226.75C1.00076 226.75 1.00076 226.75 1.00077 226.75C1.00077 226.75 1.00077 226.75 1.00077 226.75C1.00077 226.75 1.00078 226.75 1.00078 226.75C1.00078 226.75 1.00078 226.75 1.00078 226.75C1.00078 226.75 1.00079 226.75 1.00079 226.75C1.00079 226.75 1.00079 226.75 1.00079 226.75C1.0008 226.75 1.0008 226.75 1.0008 226.75C1.0008 226.75 1.0008 226.75 1.0008 226.75C1.00081 226.75 1.00081 226.75 1.00081 226.75C1.00081 226.75 1.00081 226.75 1.00082 226.75C1.00082 226.75 1.00082 226.75 1.00082 226.75C1.00082 226.75 1.00083 226.75 1.00083 226.75C1.00083 226.75 1.00083 226.75 1.00083 226.75C1.00083 226.75 1.00084 226.75 1.00084 226.75C1.00084 226.75 1.00084 226.75 1.00084 226.75C1.00085 226.75 1.00085 226.75 1.00085 226.75C1.00085 226.75 1.00085 226.75 1.00085 226.75C1.00086 226.75 1.00086 226.75 1.00086 226.75C1.00086 226.75 1.00086 226.75 1.00087 226.75C1.00087 226.75 1.00087 226.75 1.00087 226.75C1.00087 226.75 1.00087 226.75 1.00088 226.75C1.00088 226.75 1.00088 226.75 1.00088 226.75C1.00088 226.75 1.00089 226.75 1.00089 226.75C1.00089 226.75 1.00089 226.75 1.00089 226.75C1.00089 226.75 1.0009 226.75 1.0009 226.75C1.0009 226.75 1.0009 226.75 1.0009 226.75C1.00091 226.75 1.00091 226.75 1.00091 226.75C1.00091 226.75 1.00091 226.75 1.00091 226.75C1.00092 226.75 1.00092 226.75 1.00092 226.75C1.00092 226.75 1.00092 226.75 1.00093 226.75C1.00093 226.75 1.00093 226.75 1.00093 226.75C1.00093 226.75 1.00094 226.75 1.00094 226.75C1.00094 226.75 1.00094 226.75 1.00094 226.75C1.00094 226.75 1.00095 226.75 1.00095 226.75C1.00095 226.75 1.00095 226.75 1.00095 226.75C1.00096 226.75 1.00096 226.75 1.00096 226.75C1.00096 226.75 1.00096 226.75 1.00096 226.75C1.00097 226.75 1.00097 226.75 1.00097 226.75C1.00097 226.75 1.00097 226.75 1.00098 226.75C1.00098 226.75 1.00098 226.75 1.00098 226.75C1.00098 226.75 1.00098 226.75 1.00099 226.75C1.00099 226.75 1.00099 226.75 1.00099 226.75C1.00099 226.75 1.001 226.75 1.001 226.75C1.001 226.75 1.001 226.75 1.001 226.75C1.001 226.75 1.00101 226.75 1.00101 226.75C1.00101 226.75 1.00101 226.75 1.00101 226.75C1.00102 226.75 1.00102 226.75 1.00102 226.75C1.00102 226.75 1.00102 226.75 1.00102 226.75C1.00103 226.75 1.00103 226.75 1.00103 226.75C1.00103 226.75 1.00103 226.75 1.00104 226.75C1.00104 226.75 1.00104 226.75 1.00104 226.75C1.00104 226.75 1.00105 226.75 1.00105 226.75C1.00105 226.75 1.00105 226.75 1.00105 226.75C1.00105 226.75 1.00106 226.75 1.00106 226.75C1.00106 226.75 1.00106 226.75 1.00106 226.75C1.00107 226.75 1.00107 226.75 1.00107 226.75C1.00107 226.75 1.00107 226.75 1.00107 226.75C1.00108 226.75 1.00108 226.75 1.00108 226.75C1.00108 226.75 1.00108 226.75 1.00109 226.75C1.00109 226.75 1.00109 226.75 1.00109 226.75C1.00109 226.75 1.00109 226.75 1.0011 226.75C1.0011 226.75 1.0011 226.75 1.0011 226.75C1.0011 226.75 1.00111 226.75 1.00111 226.75C1.00111 226.75 1.00111 226.75 1.00111 226.75C1.00111 226.75 1.00112 226.75 1.00112 226.75C1.00112 226.75 1.00112 226.75 1.00112 226.75C1.00113 226.75 1.00113 226.75 1.00113 226.75C1.00113 226.75 1.00113 226.75 1.00113 226.75C1.00114 226.75 1.00114 226.75 1.00114 226.75C1.00114 226.75 1.00114 226.75 1.00115 226.75C1.00115 226.75 1.00115 226.75 1.00115 226.75C1.00115 226.75 1.00116 226.75 1.00116 226.75C1.00116 226.75 1.00116 226.75 1.00116 226.75C1.00116 226.75 1.00117 226.75 1.00117 226.75C1.00117 226.75 1.00117 226.75 1.00117 226.75C1.00118 226.75 1.00118 226.75 1.00118 226.75C1.00118 226.75 1.00118 226.75 1.00118 226.75C1.00119 226.75 1.00119 226.75 1.00119 226.75C1.00119 226.75 1.00119 226.75 1.0012 226.75C1.0012 226.75 1.0012 226.75 1.0012 226.75C1.0012 226.75 1.0012 226.75 1.00121 226.75C1.00121 226.75 1.00121 226.75 1.00121 226.75C1.00121 226.75 1.00122 226.75 1.00122 226.75C1.00122 226.75 1.00122 226.75 1.00122 226.75C1.00122 226.75 1.00123 226.75 1.00123 226.75C1.00123 226.75 1.00123 226.75 1.00123 226.75C1.00124 226.75 1.00124 226.75 1.00124 226.75C1.00124 226.75 1.00124 226.75 1.00124 226.75C1.00125 226.75 1.00125 226.75 1.00125 226.75C1.00125 226.75 1.00125 226.75 1.00126 226.75C1.00126 226.75 1.00126 226.75 1.00126 226.75C1.00126 226.75 1.00126 226.75 1.00127 226.75C1.00127 226.75 1.00127 226.75 1.00127 226.75C1.00127 226.75 1.00128 226.75 1.00128 226.75C1.00128 226.75 1.00128 226.75 1.00128 226.75C1.00129 226.75 1.00129 226.75 1.00129 226.75C1.00129 226.75 1.00129 226.75 1.00129 226.75C1.0013 226.75 1.0013 226.75 1.0013 226.75C1.0013 226.75 1.0013 226.75 1.00131 226.75C1.00131 226.75 1.00131 226.75 1.00131 226.75C1.00131 226.75 1.00131 226.75 1.00132 226.75C1.00132 226.75 1.00132 226.75 1.00132 226.75C1.00132 226.75 1.00133 226.75 1.00133 226.75C1.00133 226.75 1.00133 226.75 1.00133 226.75C1.00133 226.75 1.00134 226.75 1.00134 226.75C1.00134 226.75 1.00134 226.75 1.00134 226.75C1.00135 226.75 1.00135 226.75 1.00135 226.75C1.00135 226.75 1.00135 226.75 1.00135 226.75C1.00136 226.75 1.00136 226.75 1.00136 226.75C1.00136 226.75 1.00136 226.75 1.00137 226.75C1.00137 226.75 1.00137 226.75 1.00137 226.75C1.00137 226.75 1.00137 226.75 1.00138 226.75C1.00138 226.75 1.00138 226.75 1.00138 226.75C1.00138 226.75 1.00139 226.75 1.00139 226.75C1.00139 226.75 1.00139 226.75 1.00139 226.75C1.0014 226.75 1.0014 226.75 1.0014 226.75C1.0014 226.75 1.0014 226.75 1.0014 226.75C1.00141 226.75 1.00141 226.75 1.00141 226.75C1.00141 226.75 1.00141 226.75 1.00142 226.75C1.00142 226.75 1.00142 226.75 1.00142 226.75C1.00142 226.75 1.00142 226.75 1.00143 226.75C1.00143 226.75 1.00143 226.75 1.00143 226.75C1.00143 226.75 1.00144 226.75 1.00144 226.75C1.00144 226.75 1.00144 226.75 1.00144 226.75C1.00144 226.75 1.00145 226.75 1.00145 226.75C1.00145 226.75 1.00145 226.75 1.00145 226.75C1.00146 226.75 1.00146 226.75 1.00146 226.75C1.00146 226.75 1.00146 226.75 1.00146 226.75C1.00147 226.75 1.00147 226.75 1.00147 226.75C1.00147 226.75 1.00147 226.75 1.00148 226.75C1.00148 226.75 1.00148 226.75 1.00148 226.75C1.00148 226.75 1.00148 226.75 1.00149 226.75C1.00149 226.75 1.00149 226.75 1.00149 226.75C1.00149 226.75 1.0015 226.75 1.0015 226.75C1.0015 226.75 1.0015 226.75 1.0015 226.75C1.00151 226.75 1.00151 226.75 1.00151 226.75C1.00151 226.75 1.00151 226.75 1.00151 226.75C1.00152 226.75 1.00152 226.75 1.00152 226.75C1.00152 226.75 1.00152 226.75 1.00153 226.75C1.00153 226.75 1.00153 226.75 1.00153 226.75C1.00153 226.75 1.00153 226.75 1.00154 226.75C1.00154 226.75 1.00154 226.75 1.00154 226.75C1.00154 226.75 1.00155 226.75 1.00155 226.75C1.00155 226.75 1.00155 226.75 1.00155 226.75C1.00155 226.75 1.00156 226.75 1.00156 226.75C1.00156 226.75 1.00156 226.75 1.00156 226.75C1.00157 226.75 1.00157 226.75 1.00157 226.75C1.00157 226.75 1.00157 226.75 1.00157 226.75C1.00158 226.75 1.00158 226.75 1.00158 226.75C1.00158 226.75 1.00158 226.75 1.00159 226.75C1.00159 226.75 1.00159 226.75 1.00159 226.75C1.00159 226.75 1.00159 226.75 1.0016 226.75C1.0016 226.75 1.0016 226.75 1.0016 226.75C1.0016 226.75 1.00161 226.75 1.00161 226.75C1.00161 226.75 1.00161 226.75 1.00161 226.75C1.00162 226.75 1.00162 226.75 1.00162 226.75C1.00162 226.75 1.00162 226.75 1.00162 226.75C1.00163 226.75 1.00163 226.75 1.00163 226.75C1.00163 226.75 1.00163 226.75 1.00164 226.75C1.00164 226.75 1.00164 226.75 1.00164 226.75C1.00164 226.75 1.00164 226.75 1.00165 226.75C1.00165 226.75 1.00165 226.75 1.00165 226.75C1.00165 226.75 1.00166 226.75 1.00166 226.75C1.00166 226.75 1.00166 226.75 1.00166 226.75C1.00166 226.75 1.00167 226.75 1.00167 226.75C1.00167 226.75 1.00167 226.75 1.00167 226.75C1.00168 226.75 1.00168 226.75 1.00168 226.75C1.00168 226.75 1.00168 226.75 1.00168 226.75C1.00169 226.75 1.00169 226.75 1.00169 226.75C1.00169 226.75 1.00169 226.75 1.0017 226.75C1.0017 226.75 1.0017 226.75 1.0017 226.75C1.0017 226.75 1.0017 226.75 1.00171 226.75C1.00171 226.75 1.00171 226.75 1.00171 226.75C1.00171 226.75 1.00172 226.75 1.00172 226.75C1.00172 226.75 1.00172 226.75 1.00172 226.75C1.00173 226.75 1.00173 226.75 1.00173 226.75C1.00173 226.75 1.00173 226.75 1.00173 226.75C1.00174 226.75 1.00174 226.75 1.00174 226.75C1.00174 226.75 1.00174 226.75 1.00175 226.75C1.00175 226.75 1.00175 226.75 1.00175 226.75C1.00175 226.75 1.00175 226.75 1.00176 226.75C1.00176 226.75 1.00176 226.75 1.00176 226.75C1.00176 226.75 1.00177 226.75 1.00177 226.75C1.00177 226.75 1.00177 226.75 1.00177 226.75C1.00177 226.75 1.00178 226.75 1.00178 226.75C1.00178 226.75 1.00178 226.75 1.00178 226.75C1.00179 226.75 1.00179 226.75 1.00179 226.75C1.00179 226.75 1.00179 226.75 1.00179 226.75C1.0018 226.75 1.0018 226.75 1.0018 226.75C1.0018 226.75 1.0018 226.75 1.00181 226.75C1.00181 226.75 1.00181 226.75 1.00181 226.75C1.00181 226.75 1.00181 226.75 1.00182 226.75C1.00182 226.75 1.00182 226.75 1.00182 226.75C1.00182 226.75 1.00183 226.75 1.00183 226.75C1.00183 226.75 1.00183 226.75 1.00183 226.75C1.00184 226.75 1.00184 226.75 1.00184 226.75V225.25ZM26.7519 251C26.7519 236.779 15.2232 225.25 1.00184 225.25V226.75C14.3948 226.75 25.2519 237.607 25.2519 251H26.7519ZM26.7519 251V251C26.7519 251 26.7519 251 26.7519 251C26.7519 251 26.7519 251 26.7519 251C26.7519 251 26.7519 251 26.7519 251C26.7519 251 26.7519 251 26.7519 251C26.7519 251 26.7519 251 26.7519 251C26.7519 251 26.7519 251 26.7519 251V251V251H25.2519V251V251C25.2519 251 25.2519 251 25.2519 251C25.2519 251 25.2519 251 25.2519 251C25.2519 251 25.2519 251 25.2519 251C25.2519 251 25.2519 251 25.2519 251C25.2519 251 25.2519 251 25.2519 251C25.2519 251 25.2519 251 25.2519 251V251H26.7519ZM226.002 250.25H26.0019V251.75H226.002V250.25ZM226.752 251V251C226.752 251 226.752 251 226.752 251C226.752 251 226.752 251 226.752 251C226.752 251 226.752 251 226.752 251C226.752 251 226.752 251 226.752 251C226.752 251 226.752 251 226.752 251C226.752 251 226.752 251 226.752 251V251V251H225.252V251V251C225.252 251 225.252 251 225.252 251C225.252 251 225.252 251 225.252 251C225.252 251 225.252 251 225.252 251C225.252 251 225.252 251 225.252 251C225.252 251 225.252 251 225.252 251C225.252 251 225.252 251 225.252 251V251H226.752ZM226.752 251C226.752 237.608 237.608 226.752 250.999 226.75L250.999 225.25C236.779 225.252 225.252 236.78 225.252 251H226.752ZM250.249 26V226H251.749V26H250.249ZM225.252 1.00011C225.252 15.2204 236.779 26.7485 250.999 26.75L250.999 25.25C237.608 25.2485 226.752 14.3921 226.752 1.0001L225.252 1.00011ZM26.0019 1.75011H226.002V0.250106H26.0019V1.75011Z" fill="black"/>
</svg>
