<svg width="251" height="250" viewBox="0 0 251 250" fill="none" xmlns="http://www.w3.org/2000/svg">
<path d="M124.922 230.231L24.9286 130.237C-0.413699 104.895 -0.413701 63.8071 24.9286 38.4648C50.2709 13.1225 91.3589 13.1225 116.701 38.4648L124.922 46.6854L133.143 38.4647C158.485 13.1224 199.573 13.1224 224.915 38.4647C250.257 63.807 250.257 104.895 224.915 130.237L124.922 230.231Z" stroke="black" stroke-width="2" stroke-linejoin="round"/>
<rect x="118.922" y="224.231" width="12" height="12" fill="#F9F9F9" stroke="black" stroke-width="2" stroke-linejoin="round"/>
<rect x="68.4541" y="173.763" width="12" height="12" fill="#F9F9F9" stroke="black" stroke-width="2" stroke-linejoin="round"/>
<rect x="17.9727" y="123.263" width="12" height="12" fill="#F9F9F9" stroke="black" stroke-width="2" stroke-linejoin="round"/>
<rect x="3.50195" y="57.0479" width="12" height="12" fill="#F9F9F9" stroke="black" stroke-width="2" stroke-linejoin="round"/>
<rect x="56.416" y="14.0005" width="12" height="12" fill="#F9F9F9" stroke="black" stroke-width="2" stroke-linejoin="round"/>
<rect x="119.516" y="40.0918" width="12" height="12" fill="#F9F9F9" stroke="black" stroke-width="2" stroke-linejoin="round"/>
<rect x="182.299" y="14.1192" width="12" height="12" fill="#F9F9F9" stroke="black" stroke-width="2" stroke-linejoin="round"/>
<rect x="234.631" y="57.9014" width="12" height="12" fill="#F9F9F9" stroke="black" stroke-width="2" stroke-linejoin="round"/>
<rect x="218.953" y="124.199" width="12" height="12" fill="#F9F9F9" stroke="black" stroke-width="2" stroke-linejoin="round"/>
<rect x="168.486" y="174.667" width="12" height="12" fill="#F9F9F9" stroke="black" stroke-width="2" stroke-linejoin="round"/>
</svg>
