<svg width="251" height="252" viewBox="0 0 251 252" fill="none" xmlns="http://www.w3.org/2000/svg">
<path d="M124.8 7.00049C141.802 47.8069 184.017 72.1801 227.857 66.5005C201.019 101.627 201.019 150.374 227.857 185.5C184.017 179.821 141.802 204.194 124.8 245C107.799 204.194 65.5833 179.821 21.7432 185.5C48.5819 150.374 48.5819 101.627 21.7432 66.5005C65.5833 72.1801 107.799 47.8069 124.8 7.00049Z" stroke="black" stroke-width="2" stroke-linejoin="round"/>
<rect x="118.8" y="1.00049" width="12" height="12" fill="#F9F9F9" stroke="black" stroke-width="2" stroke-linejoin="round"/>
<rect x="221.666" y="60.7515" width="12" height="12" fill="#F9F9F9" stroke="black" stroke-width="2" stroke-linejoin="round"/>
<rect x="221.231" y="179.421" width="12" height="12" fill="#F9F9F9" stroke="black" stroke-width="2" stroke-linejoin="round"/>
<rect x="118.433" y="238.129" width="12" height="12" fill="#F9F9F9" stroke="black" stroke-width="2" stroke-linejoin="round"/>
<rect x="16.502" y="178.495" width="12" height="12" fill="#F9F9F9" stroke="black" stroke-width="2" stroke-linejoin="round"/>
<rect x="17.3057" y="60.6904" width="12" height="12" fill="#F9F9F9" stroke="black" stroke-width="2" stroke-linejoin="round"/>
</svg>
