<svg width="252" height="252" viewBox="0 0 252 252" fill="none" xmlns="http://www.w3.org/2000/svg">
<path d="M125.741 7.01074L156.242 52.6907L210.11 41.9576L199.377 95.8257L245.057 126.327L199.377 156.828L210.11 210.696L156.242 199.963L125.741 245.643L95.2397 199.963L41.3716 210.696L52.1048 156.828L6.4248 126.327L52.1048 95.8257L41.3716 41.9576L95.2397 52.6907L125.741 7.01074Z" stroke="black" stroke-width="2" stroke-linejoin="round"/>
<rect x="119.73" y="1.00049" width="12.0206" height="12.0206" fill="#F9F9F9" stroke="black" stroke-width="2" stroke-linejoin="round"/>
<rect x="150.103" y="46.7061" width="12.0206" height="12.0206" fill="#F9F9F9" stroke="black" stroke-width="2" stroke-linejoin="round"/>
<rect x="204.099" y="35.9474" width="12.0206" height="12.0206" fill="#F9F9F9" stroke="black" stroke-width="2" stroke-linejoin="round"/>
<rect x="193.476" y="89.8882" width="12.0206" height="12.0206" fill="#F9F9F9" stroke="black" stroke-width="2" stroke-linejoin="round"/>
<rect x="238.829" y="120.462" width="12.0206" height="12.0206" fill="#F9F9F9" stroke="black" stroke-width="2" stroke-linejoin="round"/>
<rect x="193.443" y="151.202" width="12.0206" height="12.0206" fill="#F9F9F9" stroke="black" stroke-width="2" stroke-linejoin="round"/>
<rect x="203.586" y="204.583" width="12.0206" height="12.0206" fill="#F9F9F9" stroke="black" stroke-width="2" stroke-linejoin="round"/>
<rect x="149.867" y="194.497" width="12.0206" height="12.0206" fill="#F9F9F9" stroke="black" stroke-width="2" stroke-linejoin="round"/>
<rect x="119.295" y="238.98" width="12.0206" height="12.0206" fill="#F9F9F9" stroke="black" stroke-width="2" stroke-linejoin="round"/>
<rect x="88.332" y="194.131" width="12.0206" height="12.0206" fill="#F9F9F9" stroke="black" stroke-width="2" stroke-linejoin="round"/>
<rect x="35.5664" y="203.66" width="12.0206" height="12.0206" fill="#F9F9F9" stroke="black" stroke-width="2" stroke-linejoin="round"/>
<rect x="45.1152" y="150.164" width="12.0206" height="12.0206" fill="#F9F9F9" stroke="black" stroke-width="2" stroke-linejoin="round"/>
<rect x="1.50195" y="119.59" width="12.0206" height="12.0206" fill="#F9F9F9" stroke="black" stroke-width="2" stroke-linejoin="round"/>
<rect x="45.8135" y="88.4048" width="12.0206" height="12.0206" fill="#F9F9F9" stroke="black" stroke-width="2" stroke-linejoin="round"/>
<rect x="36.9004" y="36.2539" width="12.0206" height="12.0206" fill="#F9F9F9" stroke="black" stroke-width="2" stroke-linejoin="round"/>
<rect x="90.1738" y="45.2666" width="12.0206" height="12.0206" fill="#F9F9F9" stroke="black" stroke-width="2" stroke-linejoin="round"/>
</svg>
