<svg width="262" height="250" viewBox="0 0 262 250" fill="none" xmlns="http://www.w3.org/2000/svg">
<path d="M251.165 125.149C251.165 128.095 253.553 130.483 256.498 130.483C259.444 130.483 261.831 128.095 261.831 125.149C261.831 122.204 259.444 119.816 256.498 119.816C253.553 119.816 251.165 122.204 251.165 125.149ZM255.498 125.149V125.441H257.498V125.149H255.498Z" fill="black"/>
<path d="M188.698 233.696C188.698 236.642 191.086 239.03 194.032 239.03C196.977 239.03 199.365 236.642 199.365 233.696C199.365 230.751 196.977 228.363 194.032 228.363C191.086 228.363 188.698 230.751 188.698 233.696ZM193.529 232.832L193.277 232.978L194.282 234.708L194.534 234.561L193.529 232.832Z" fill="black"/>
<path d="M63.0119 233.628C63.0119 236.574 65.3997 238.961 68.3452 238.961C71.2908 238.961 73.6786 236.574 73.6786 233.628C73.6786 230.683 71.2908 228.295 68.3452 228.295C65.3997 228.295 63.0119 230.683 63.0119 233.628ZM68.8475 232.763L68.595 232.617L67.5905 234.346L67.843 234.493L68.8475 232.763Z" fill="black"/>
<path d="M0.66569 124.455C0.66569 127.401 3.0535 129.788 5.99902 129.788C8.94454 129.788 11.3324 127.401 11.3324 124.455C11.3324 121.51 8.94454 119.122 5.99902 119.122C3.0535 119.122 0.66569 121.51 0.66569 124.455ZM6.99899 124.463L7.00125 124.171L5.00131 124.155L4.99905 124.447L6.99899 124.463Z" fill="black"/>
<path d="M63.5563 16.6458C63.5563 19.5913 65.9441 21.9791 68.8896 21.9791C71.8352 21.9791 74.223 19.5913 74.223 16.6458C74.223 13.7002 71.8352 11.3124 68.8896 11.3124C65.9441 11.3124 63.5563 13.7002 63.5563 16.6458ZM69.3855 17.5141L69.6391 17.3694L68.6473 15.6326L68.3938 15.7774L69.3855 17.5141Z" fill="black"/>
<path d="M189.145 17.1533C189.145 20.0988 191.533 22.4867 194.479 22.4867C197.424 22.4867 199.812 20.0988 199.812 17.1533C199.812 14.2078 197.424 11.82 194.479 11.82C191.533 11.82 189.145 14.2078 189.145 17.1533ZM193.97 18.0143L194.221 18.1628L195.239 16.4408L194.987 16.2923L193.97 18.0143Z" fill="black"/>
</svg>
