<svg width="262" height="262" viewBox="0 0 262 262" fill="none" xmlns="http://www.w3.org/2000/svg">
<path d="M250.664 130.868C250.664 133.814 253.052 136.201 255.997 136.201C258.943 136.201 261.33 133.814 261.33 130.868C261.33 127.923 258.943 125.535 255.997 125.535C253.052 125.535 250.664 127.923 250.664 130.868ZM254.997 130.868V131.118H256.997V130.868H254.997Z" fill="black"/>
<path d="M214.14 219.294C214.14 222.239 216.528 224.627 219.474 224.627C222.419 224.627 224.807 222.239 224.807 219.294C224.807 216.348 222.419 213.961 219.474 213.961C216.528 213.961 214.14 216.348 214.14 219.294ZM218.767 218.587L218.59 218.764L220.004 220.178L220.181 220.001L218.767 218.587Z" fill="black"/>
<path d="M125.296 255.994C125.296 258.94 127.683 261.327 130.629 261.327C133.574 261.327 135.962 258.94 135.962 255.994C135.962 253.049 133.574 250.661 130.629 250.661C127.683 250.661 125.296 253.049 125.296 255.994ZM130.633 254.994L130.383 254.993L130.375 256.993L130.625 256.994L130.633 254.994Z" fill="black"/>
<path d="M37.0235 219.13C37.0235 222.075 39.4113 224.463 42.3568 224.463C45.3023 224.463 47.6901 222.075 47.6901 219.13C47.6901 216.184 45.3023 213.796 42.3568 213.796C39.4113 213.796 37.0235 216.184 37.0235 219.13ZM43.0665 218.425L42.8903 218.248L41.471 219.657L41.6471 219.834L43.0665 218.425Z" fill="black"/>
<path d="M0.666667 130.134C0.666667 133.079 3.05448 135.467 6 135.467C8.94552 135.467 11.3333 133.079 11.3333 130.134C11.3333 127.188 8.94552 124.8 6 124.8C3.05448 124.8 0.666667 127.188 0.666667 130.134ZM6.99997 130.142L7.0019 129.892L5.00196 129.876L5.00003 130.126L6.99997 130.142Z" fill="black"/>
<path d="M37.7985 42.0866C37.7985 45.0321 40.1863 47.42 43.1318 47.42C46.0774 47.42 48.4652 45.0321 48.4652 42.0866C48.4652 39.1411 46.0774 36.7533 43.1318 36.7533C40.1863 36.7533 37.7985 39.1411 37.7985 42.0866ZM43.8338 42.7988L44.0118 42.6234L42.6079 41.1989L42.4299 41.3744L43.8338 42.7988Z" fill="black"/>
<path d="M127.014 6.00098C127.014 8.9465 129.402 11.3343 132.348 11.3343C135.293 11.3343 137.681 8.9465 137.681 6.00098C137.681 3.05546 135.293 0.667643 132.348 0.667643C129.402 0.667643 127.014 3.05546 127.014 6.00098ZM132.336 7.00091L132.586 7.0038L132.609 5.00394L132.359 5.00104L132.336 7.00091Z" fill="black"/>
<path d="M214.876 43.4365C214.876 46.382 217.263 48.7699 220.209 48.7699C223.155 48.7699 225.542 46.382 225.542 43.4365C225.542 40.491 223.155 38.1032 220.209 38.1032C217.263 38.1032 214.876 40.491 214.876 43.4365ZM219.494 44.1359L219.669 44.3146L221.099 42.9159L220.924 42.7372L219.494 44.1359Z" fill="black"/>
</svg>
