<svg width="262" height="250" viewBox="0 0 262 250" fill="none" xmlns="http://www.w3.org/2000/svg">
<path d="M250.664 125.11C250.664 128.056 253.052 130.444 255.997 130.444C258.943 130.444 261.33 128.056 261.33 125.11C261.33 122.165 258.943 119.777 255.997 119.777C253.052 119.777 250.664 122.165 250.664 125.11ZM254.997 125.11V125.36H256.997V125.11H254.997Z" fill="black"/>
<path d="M226.88 198.601C226.88 201.546 229.268 203.934 232.213 203.934C235.159 203.934 237.547 201.546 237.547 198.601C237.547 195.655 235.159 193.267 232.213 193.267C229.268 193.267 226.88 195.655 226.88 198.601ZM231.405 198.012L231.258 198.215L232.875 199.391L233.022 199.189L231.405 198.012Z" fill="black"/>
<path d="M164.441 244.103C164.441 247.048 166.829 249.436 169.775 249.436C172.72 249.436 175.108 247.048 175.108 244.103C175.108 241.157 172.72 238.769 169.775 238.769C166.829 238.769 164.441 241.157 164.441 244.103ZM169.462 243.153L169.225 243.231L169.849 245.131L170.087 245.053L169.462 243.153Z" fill="black"/>
<path d="M86.6786 244.036C86.6786 246.982 89.0664 249.37 92.0119 249.37C94.9574 249.37 97.3452 246.982 97.3452 244.036C97.3452 241.091 94.9574 238.703 92.0119 238.703C89.0664 238.703 86.6786 241.091 86.6786 244.036ZM92.3242 243.086L92.0867 243.008L91.4621 244.908L91.6996 244.986L92.3242 243.086Z" fill="black"/>
<path d="M24.313 198.415C24.313 201.36 26.7008 203.748 29.6463 203.748C32.5918 203.748 34.9797 201.36 34.9797 198.415C34.9797 195.469 32.5918 193.081 29.6463 193.081C26.7008 193.081 24.313 195.469 24.313 198.415ZM30.4571 197.829L30.3108 197.627L28.6892 198.797L28.8355 199L30.4571 197.829Z" fill="black"/>
<path d="M0.666667 124.374C0.666667 127.32 3.05448 129.707 6 129.707C8.94552 129.707 11.3333 127.32 11.3333 124.374C11.3333 121.429 8.94552 119.041 6 119.041C3.05448 119.041 0.666667 121.429 0.666667 124.374ZM6.99997 124.382L7.0019 124.132L5.00196 124.116L5.00003 124.366L6.99997 124.382Z" fill="black"/>
<path d="M24.944 51.1905C24.944 54.136 27.3318 56.5238 30.2773 56.5238C33.2229 56.5238 35.6107 54.136 35.6107 51.1905C35.6107 48.245 33.2229 45.8571 30.2773 45.8571C27.3318 45.8571 24.944 48.245 24.944 51.1905ZM31.0817 51.7846L31.2302 51.5835L29.6215 50.3952L29.473 50.5963L31.0817 51.7846Z" fill="black"/>
<path d="M87.7848 6.07647C87.7848 9.02199 90.1726 11.4098 93.1182 11.4098C96.0637 11.4098 98.4515 9.02199 98.4515 6.07647C98.4515 3.13096 96.0637 0.743141 93.1182 0.743141C90.1726 0.743141 87.7848 3.13096 87.7848 6.07647ZM93.4197 7.02994L93.658 6.95456L93.055 5.04763L92.8167 5.12301L93.4197 7.02994Z" fill="black"/>
<path d="M165.414 6.68665C165.414 9.63216 167.802 12.02 170.747 12.02C173.693 12.02 176.08 9.63216 176.08 6.68665C176.08 3.74113 173.693 1.35331 170.747 1.35331C167.802 1.35331 165.414 3.74113 165.414 6.68665ZM170.428 7.63426L170.665 7.71411L171.303 5.81889L171.066 5.73904L170.428 7.63426Z" fill="black"/>
<path d="M227.52 52.7589C227.52 55.7044 229.908 58.0922 232.854 58.0922C235.799 58.0922 238.187 55.7044 238.187 52.7589C238.187 49.8133 235.799 47.4255 232.854 47.4255C229.908 47.4255 227.52 49.8133 227.52 52.7589ZM232.038 53.3382L232.183 53.542L233.813 52.3833L233.669 52.1795L232.038 53.3382Z" fill="black"/>
</svg>
