<svg width="262" height="262" viewBox="0 0 262 262" fill="none" xmlns="http://www.w3.org/2000/svg">
<path d="M250.664 130.868C250.664 133.814 253.052 136.201 255.997 136.201C258.943 136.201 261.33 133.814 261.33 130.868C261.33 127.923 258.943 125.535 255.997 125.535C253.052 125.535 250.664 127.923 250.664 130.868ZM254.997 130.868V131.118H256.997V130.868H254.997Z" fill="black"/>
<path d="M234.061 193.286C234.061 196.232 236.449 198.619 239.394 198.619C242.34 198.619 244.728 196.232 244.728 193.286C244.728 190.341 242.34 187.953 239.394 187.953C236.449 187.953 234.061 190.341 234.061 193.286ZM238.528 192.787L238.403 193.004L240.136 194.002L240.261 193.785L238.528 192.787Z" fill="black"/>
<path d="M188.305 239.188C188.305 242.134 190.693 244.522 193.638 244.522C196.584 244.522 198.971 242.134 198.971 239.188C198.971 236.243 196.584 233.855 193.638 233.855C190.693 233.855 188.305 236.243 188.305 239.188ZM193.136 238.324L192.92 238.449L193.924 240.179L194.14 240.053L193.136 238.324Z" fill="black"/>
<path d="M125.296 255.994C125.296 258.94 127.683 261.327 130.629 261.327C133.574 261.327 135.962 258.94 135.962 255.994C135.962 253.049 133.574 250.661 130.629 250.661C127.683 250.661 125.296 253.049 125.296 255.994ZM130.633 254.994L130.383 254.993L130.375 256.993L130.625 256.994L130.633 254.994Z" fill="black"/>
<path d="M62.8701 239.101C62.8701 242.047 65.258 244.434 68.2035 244.434C71.149 244.434 73.5368 242.047 73.5368 239.101C73.5368 236.156 71.149 233.768 68.2035 233.768C65.258 233.768 62.8701 236.156 62.8701 239.101ZM68.7058 238.236L68.4896 238.111L67.485 239.84L67.7012 239.966L68.7058 238.236Z" fill="black"/>
<path d="M17.269 193.29C17.269 196.235 19.6568 198.623 22.6023 198.623C25.5478 198.623 27.9356 196.235 27.9356 193.29C27.9356 190.344 25.5478 187.957 22.6023 187.957C19.6568 187.957 17.269 190.344 17.269 193.29ZM23.4689 192.791L23.3441 192.574L21.611 193.572L21.7358 193.789L23.4689 192.791Z" fill="black"/>
<path d="M0.666667 130.134C0.666667 133.079 3.05448 135.467 6 135.467C8.94552 135.467 11.3333 133.079 11.3333 130.134C11.3333 127.188 8.94552 124.8 6 124.8C3.05448 124.8 0.666667 127.188 0.666667 130.134ZM6.99997 130.142L7.0019 129.892L5.00196 129.876L5.00003 130.126L6.99997 130.142Z" fill="black"/>
<path d="M17.5866 68.1483C17.5866 71.0938 19.9744 73.4816 22.9199 73.4816C25.8654 73.4816 28.2533 71.0938 28.2533 68.1483C28.2533 65.2028 25.8654 62.8149 22.9199 62.8149C19.9744 62.8149 17.5866 65.2028 17.5866 68.1483ZM23.7828 68.6537L23.9091 68.438L22.1834 67.4271L22.0571 67.6428L23.7828 68.6537Z" fill="black"/>
<path d="M63.4489 22.5507C63.4489 25.4962 65.8367 27.8841 68.7822 27.8841C71.7277 27.8841 74.1156 25.4962 74.1156 22.5507C74.1156 19.6052 71.7277 17.2174 68.7822 17.2174C65.8367 17.2174 63.4489 19.6052 63.4489 22.5507ZM69.2781 23.4191L69.4952 23.2951L68.5034 21.5584L68.2863 21.6823L69.2781 23.4191Z" fill="black"/>
<path d="M127.014 6.00098C127.014 8.9465 129.402 11.3343 132.348 11.3343C135.293 11.3343 137.681 8.9465 137.681 6.00098C137.681 3.05546 135.293 0.667643 132.348 0.667643C129.402 0.667643 127.014 3.05546 127.014 6.00098ZM132.336 7.00091L132.586 7.0038L132.609 5.00394L132.359 5.00104L132.336 7.00091Z" fill="black"/>
<path d="M188.786 23.0771C188.786 26.0227 191.174 28.4105 194.119 28.4105C197.065 28.4105 199.452 26.0227 199.452 23.0771C199.452 20.1316 197.065 17.7438 194.119 17.7438C191.174 17.7438 188.786 20.1316 188.786 23.0771ZM193.611 23.9381L193.826 24.0653L194.843 22.3433L194.628 22.2162L193.611 23.9381Z" fill="black"/>
<path d="M234.38 69.2568C234.38 72.2024 236.767 74.5902 239.713 74.5902C242.658 74.5902 245.046 72.2024 245.046 69.2568C245.046 66.3113 242.658 63.9235 239.713 63.9235C236.767 63.9235 234.38 66.3113 234.38 69.2568ZM238.843 69.7495L238.966 69.9671L240.706 68.9817L240.583 68.7642L238.843 69.7495Z" fill="black"/>
</svg>
