<svg width="262" height="262" viewBox="0 0 262 262" fill="none" xmlns="http://www.w3.org/2000/svg">
<path d="M250.664 130.868C250.664 133.814 253.052 136.201 255.997 136.201C258.943 136.201 261.33 133.814 261.33 130.868C261.33 127.923 258.943 125.535 255.997 125.535C253.052 125.535 250.664 127.923 250.664 130.868ZM254.997 130.868V131.118H256.997V130.868H254.997Z" fill="black"/>
<path d="M241.24 178.696C241.24 181.642 243.628 184.03 246.573 184.03C249.519 184.03 251.907 181.642 251.907 178.696C251.907 175.751 249.519 173.363 246.573 173.363C243.628 173.363 241.24 175.751 241.24 178.696ZM245.649 178.314L245.554 178.545L247.401 179.31L247.497 179.079L245.649 178.314Z" fill="black"/>
<path d="M214.14 219.294C214.14 222.239 216.528 224.627 219.474 224.627C222.419 224.627 224.807 222.239 224.807 219.294C224.807 216.348 222.419 213.961 219.474 213.961C216.528 213.961 214.14 216.348 214.14 219.294ZM218.767 218.587L218.59 218.764L220.004 220.178L220.181 220.001L218.767 218.587Z" fill="black"/>
<path d="M173.655 246.45C173.655 249.396 176.043 251.784 178.988 251.784C181.934 251.784 184.322 249.396 184.322 246.45C184.322 243.505 181.934 241.117 178.988 241.117C176.043 241.117 173.655 243.505 173.655 246.45ZM178.602 245.528L178.372 245.624L179.144 247.469L179.375 247.373L178.602 245.528Z" fill="black"/>
<path d="M125.296 255.994C125.296 258.94 127.683 261.327 130.629 261.327C133.574 261.327 135.962 258.94 135.962 255.994C135.962 253.049 133.574 250.661 130.629 250.661C127.683 250.661 125.296 253.049 125.296 255.994ZM130.633 254.994L130.383 254.993L130.375 256.993L130.625 256.994L130.633 254.994Z" fill="black"/>
<path d="M77.4832 246.371C77.4832 249.316 79.871 251.704 82.8166 251.704C85.7621 251.704 88.1499 249.316 88.1499 246.371C88.1499 243.425 85.7621 241.038 82.8166 241.038C79.871 241.038 77.4832 243.425 77.4832 246.371ZM83.2027 245.448L82.972 245.352L82.1998 247.197L82.4304 247.293L83.2027 245.448Z" fill="black"/>
<path d="M37.0235 219.13C37.0235 222.075 39.4113 224.463 42.3568 224.463C45.3023 224.463 47.6901 222.075 47.6901 219.13C47.6901 216.184 45.3023 213.796 42.3568 213.796C39.4113 213.796 37.0235 216.184 37.0235 219.13ZM43.0665 218.425L42.8903 218.248L41.471 219.657L41.6471 219.834L43.0665 218.425Z" fill="black"/>
<path d="M10.1119 178.751C10.1119 181.697 12.4998 184.085 15.4453 184.085C18.3908 184.085 20.7786 181.697 20.7786 178.751C20.7786 175.806 18.3908 173.418 15.4453 173.418C12.4998 173.418 10.1119 175.806 10.1119 178.751ZM16.3692 178.369L16.2735 178.138L14.4257 178.903L14.5214 179.134L16.3692 178.369Z" fill="black"/>
<path d="M0.666667 130.134C0.666667 133.079 3.05448 135.467 6 135.467C8.94552 135.467 11.3333 133.079 11.3333 130.134C11.3333 127.188 8.94552 124.8 6 124.8C3.05448 124.8 0.666667 127.188 0.666667 130.134ZM6.99997 130.142L7.0019 129.892L5.00196 129.876L5.00003 130.126L6.99997 130.142Z" fill="black"/>
<path d="M10.4215 82.4929C10.4215 85.4385 12.8094 87.8263 15.7549 87.8263C18.7004 87.8263 21.0882 85.4385 21.0882 82.4929C21.0882 79.5474 18.7004 77.1596 15.7549 77.1596C12.8094 77.1596 10.4215 79.5474 10.4215 82.4929ZM16.6759 82.8825L16.7733 82.6522L14.9313 81.8731L14.8339 82.1034L16.6759 82.8825Z" fill="black"/>
<path d="M37.7985 42.0866C37.7985 45.0321 40.1863 47.42 43.1318 47.42C46.0774 47.42 48.4652 45.0321 48.4652 42.0866C48.4652 39.1411 46.0774 36.7533 43.1318 36.7533C40.1863 36.7533 37.7985 39.1411 37.7985 42.0866ZM43.8338 42.7988L44.0118 42.6234L42.6079 41.1989L42.4299 41.3744L43.8338 42.7988Z" fill="black"/>
<path d="M78.6022 15.1555C78.6022 18.101 80.99 20.4888 83.9355 20.4888C86.8811 20.4888 89.2689 18.101 89.2689 15.1555C89.2689 12.2099 86.8811 9.82212 83.9355 9.82212C80.99 9.82212 78.6022 12.2099 78.6022 15.1555ZM84.3113 16.0822L84.543 15.9882L83.7915 14.1348L83.5598 14.2287L84.3113 16.0822Z" fill="black"/>
<path d="M127.014 6.00098C127.014 8.9465 129.402 11.3343 132.348 11.3343C135.293 11.3343 137.681 8.9465 137.681 6.00098C137.681 3.05546 135.293 0.667643 132.348 0.667643C129.402 0.667643 127.014 3.05546 127.014 6.00098ZM132.336 7.00091L132.586 7.0038L132.609 5.00394L132.359 5.00104L132.336 7.00091Z" fill="black"/>
<path d="M174.514 15.8994C174.514 18.8449 176.902 21.2327 179.848 21.2327C182.793 21.2327 185.181 18.8449 185.181 15.8994C185.181 12.9539 182.793 10.5661 179.848 10.5661C176.902 10.5661 174.514 12.9539 174.514 15.8994ZM179.455 16.819L179.685 16.9172L180.471 15.0781L180.241 14.9799L179.455 16.819Z" fill="black"/>
<path d="M214.876 43.4365C214.876 46.382 217.263 48.7699 220.209 48.7699C223.155 48.7699 225.542 46.382 225.542 43.4365C225.542 40.491 223.155 38.1032 220.209 38.1032C217.263 38.1032 214.876 40.491 214.876 43.4365ZM219.494 44.1359L219.669 44.3146L221.099 42.9159L220.924 42.7372L219.494 44.1359Z" fill="black"/>
<path d="M241.674 84.3564C241.674 87.302 244.061 89.6898 247.007 89.6898C249.952 89.6898 252.34 87.302 252.34 84.3564C252.34 81.4109 249.952 79.0231 247.007 79.0231C244.061 79.0231 241.674 81.4109 241.674 84.3564ZM246.079 84.7287L246.172 84.9607L248.028 84.2162L247.935 83.9842L246.079 84.7287Z" fill="black"/>
</svg>
