<svg width="261" height="256" viewBox="0 0 261 256" fill="none" xmlns="http://www.w3.org/2000/svg">
<path d="M125.29 5.5011C125.29 8.44662 127.678 10.8344 130.623 10.8344C133.569 10.8344 135.956 8.44662 135.956 5.5011C135.956 2.55558 133.569 0.167765 130.623 0.167765C127.678 0.167765 125.29 2.55558 125.29 5.5011ZM130.188 6.40153L130.413 6.51028L131.283 4.70941L131.058 4.60066L130.188 6.40153Z" fill="black"/>
<path d="M225.671 54.0948C225.671 57.0404 228.058 59.4282 231.004 59.4282C233.949 59.4282 236.337 57.0404 236.337 54.0948C236.337 51.1493 233.949 48.7615 231.004 48.7615C228.058 48.7615 225.671 51.1493 225.671 54.0948ZM230.029 54.3167L230.084 54.5605L232.034 54.1168L231.979 53.873L230.029 54.3167Z" fill="black"/>
<path d="M250.23 163.009C250.23 165.954 252.618 168.342 255.564 168.342C258.509 168.342 260.897 165.954 260.897 163.009C260.897 160.063 258.509 157.676 255.564 157.676C252.618 157.676 250.23 160.063 250.23 163.009ZM254.781 162.387L254.625 162.582L256.191 163.827L256.347 163.631L254.781 162.387Z" fill="black"/>
<path d="M180.556 250.056C180.556 253.001 182.944 255.389 185.89 255.389C188.835 255.389 191.223 253.001 191.223 250.056C191.223 247.11 188.835 244.722 185.89 244.722C182.944 244.722 180.556 247.11 180.556 250.056ZM185.89 251.056H186.14V249.056H185.89V251.056Z" fill="black"/>
<path d="M69.1552 249.281C69.1552 252.226 71.5431 254.614 74.4886 254.614C77.4341 254.614 79.8219 252.226 79.8219 249.281C79.8219 246.335 77.4341 243.947 74.4886 243.947C71.5431 243.947 69.1552 246.335 69.1552 249.281ZM75.2714 248.658L75.1158 248.463L73.5502 249.707L73.7058 249.903L75.2714 248.658Z" fill="black"/>
<path d="M0.666667 161.63C0.666667 164.575 3.05448 166.963 6 166.963C8.94552 166.963 11.3333 164.575 11.3333 161.63C11.3333 158.684 8.94552 156.296 6 156.296C3.05448 156.296 0.666667 158.684 0.666667 161.63ZM6.97508 161.851L7.03054 161.608L5.08038 161.164L5.02492 161.408L6.97508 161.851Z" fill="black"/>
<path d="M26.113 53.52C26.113 56.4655 28.5008 58.8533 31.4463 58.8533C34.3918 58.8533 36.7796 56.4655 36.7796 53.52C36.7796 50.5745 34.3918 48.1867 31.4463 48.1867C28.5008 48.1867 26.113 50.5745 26.113 53.52ZM31.8813 54.4204L32.1064 54.3117L31.2364 52.5108L31.0113 52.6196L31.8813 54.4204Z" fill="black"/>
</svg>
