<svg width="251" height="252" viewBox="0 0 251 252" fill="none" xmlns="http://www.w3.org/2000/svg">
<path d="M243 126H251M242.403 137.901L250.363 138.702M240.483 150.262L248.311 151.911M237.309 162.157L244.918 164.627M232.933 173.558L240.241 176.811M227.402 184.409L234.334 188.401M220.673 194.761L227.143 199.467M213.007 204.225L218.963 209.565M204.308 212.932L209.67 218.869M194.814 220.635L199.544 227.087M184.515 227.34L188.533 234.258M173.604 232.912L176.884 240.209M162.161 237.308L164.659 244.907M150.325 240.47L152.003 248.292M138.238 242.368L139.069 250.325M125.538 242.999L125.507 250.999M113.275 242.317L112.443 250.274M101.204 240.369L99.5251 248.191M89.3941 237.162L86.8959 244.762M77.9861 232.728L74.7056 240.025M67.1165 227.126L63.0984 234.044M56.865 220.4L52.1354 226.852M47.421 212.686L42.0592 218.624M38.7736 203.98L32.817 209.32M31.0633 194.397L24.5767 199.08M24.4755 184.195L17.543 188.188M18.9863 173.374L11.6777 176.628M14.5548 161.733L6.93628 164.174M11.4964 150.163L3.66816 151.811M9.59235 137.852L1.63251 138.652M9.00367 125.077L1.00391 125.015M9.68193 113.288L1.72849 112.426M11.6919 100.924L3.87641 99.2156M14.9563 89.0379L7.36585 86.511M19.3863 77.7333L12.1021 74.4257M24.8889 67.0904L17.986 63.0468M31.7892 56.6082L25.3544 51.8551M39.2557 47.484L33.338 42.1006M48.126 38.6789L42.8075 32.7029M57.9206 30.8349L53.262 24.3313M67.8611 24.4425L63.894 17.4953M78.4951 19.0427L75.269 11.722M90.6523 14.4324L88.2403 6.80465M101.808 11.5012L100.19 3.66666M114.498 9.55768L113.728 1.59482M127.383 9.00825L127.476 1.00879M138.77 9.68674L139.662 1.73668M151.381 11.7585L153.119 3.94961M163.313 15.0736L165.869 7.49271M174.574 19.5259L177.909 12.2541M185.161 25.0354L189.23 18.1474M195.698 32.0154L200.474 25.5979M204.796 39.5092L210.2 33.6111M213.603 48.4422L219.598 43.1454M221.409 58.2613L227.929 53.6265M227.815 68.3125L234.777 64.3711M233.466 79.659L240.811 76.4877M237.704 91.084L245.34 88.7008M240.651 102.548L248.491 100.959M242.493 115.032L250.459 114.292" stroke="black" stroke-width="2" stroke-linejoin="round"/>
</svg>
