<svg width="250" height="251" viewBox="0 0 250 251" fill="none" xmlns="http://www.w3.org/2000/svg">
<path d="M125 0.125977L125 14.8319M233.253 62.626L220.518 69.9789M233.253 187.626L220.518 180.273M125 250.126L125 235.42M16.7468 187.626L29.4824 180.273M16.7468 62.626L29.4824 69.9789M138.066 0.810719L136.529 15.436M239.193 74.2841L225.759 80.2655M226.127 198.599L214.23 189.955M111.934 249.441L113.471 234.816M10.8068 175.968L24.2413 169.987M23.8729 51.6529L35.7703 60.2967M150.989 2.85748L147.932 17.242M243.882 86.4989L229.896 91.0433M217.893 208.767L206.965 198.927M99.0111 247.394L102.069 233.01M6.11802 163.753L20.1042 159.209M32.1069 41.4845L43.0355 51.3247M163.627 6.24385L159.083 20.23M247.269 99.1368L232.884 102.194M208.641 218.019L198.801 207.09M86.3729 244.008L90.9173 230.022M2.73165 151.115L17.1162 148.057M41.3589 32.2331L51.199 43.1617M175.842 10.9331L169.861 24.3676M249.315 112.06L234.69 113.597M198.473 226.253L189.829 214.356M74.158 239.319L80.1394 225.885M0.684743 138.192L15.3101 136.655M51.5269 23.9989L60.1708 35.8962M187.5 16.8729L180.147 29.6085M250 125.126H235.294M187.5 233.379L180.147 220.644M62.5 233.379L69.853 220.643M0 125.126H14.7059M62.5 16.8729L69.853 29.6085M198.473 23.9989L189.829 35.8962M249.315 138.192L234.69 136.655M175.842 239.319L169.861 225.885M51.5269 226.253L60.1708 214.356M0.684743 112.06L15.3101 113.597M74.158 10.9331L80.1394 24.3676M208.641 32.2331L198.801 43.1617M247.269 151.115L232.884 148.057M163.627 244.008L159.083 230.022M41.3589 218.019L51.199 207.09M2.73165 99.1368L17.1162 102.194M86.3729 6.24385L90.9173 20.23M217.893 41.4845L206.965 51.3247M243.882 163.753L229.896 159.209M150.989 247.394L147.932 233.01M32.1069 208.767L43.0355 198.927M6.11802 86.4989L20.1042 91.0433M99.0111 2.85748L102.069 17.242M226.127 51.6529L214.23 60.2967M239.193 175.968L225.759 169.987M138.066 249.441L136.529 234.816M23.8729 198.599L35.7702 189.955M10.8068 74.2841L24.2413 80.2655M111.934 0.810719L113.471 15.436" stroke="black" stroke-width="2" stroke-linejoin="round"/>
</svg>
