<svg width="251" height="251" viewBox="0 0 251 251" fill="none" xmlns="http://www.w3.org/2000/svg">
<path d="M242.996 125.992H250.996M242.399 137.893L250.359 138.694M240.479 150.254L248.307 151.903M237.305 162.149L244.914 164.619M232.929 173.55L240.237 176.803M227.398 184.401L234.33 188.394M220.669 194.753L227.139 199.459M213.003 204.217L218.959 209.557M204.304 212.924L209.666 218.861M194.81 220.627L199.54 227.079M184.511 227.333L188.529 234.25M173.6 232.904L176.88 240.201M162.157 237.3L164.655 244.9M150.321 240.462L152 248.284M138.234 242.361L139.065 250.317M125.534 242.992L125.503 250.992M113.271 242.309L112.44 250.266M101.2 240.361L99.5212 248.183M89.3902 237.154L86.892 244.754M77.9822 232.72L74.7017 240.017M67.1126 227.118L63.0945 234.036M56.8611 220.392L52.1315 226.844M47.4171 212.679L42.0553 218.616M38.7697 203.972L32.8131 209.312M31.0594 194.389L24.5728 199.072M24.4716 184.188L17.5391 188.18M18.9824 173.367L11.6737 176.62M14.5509 161.725L6.93237 164.166M11.4925 150.155L3.66426 151.804M9.58844 137.844L1.62861 138.645M8.99976 125.069L1 125.007M9.67803 113.28L1.72458 112.419M11.688 100.916L3.8725 99.2078M14.9524 89.03L7.36194 86.5032M19.3824 77.7255L12.0982 74.4179M24.885 67.0826L17.9821 63.039M31.7853 56.6004L25.3504 51.8473M39.2518 47.4762L33.3341 42.0927M48.1221 38.6711L42.8036 32.6951M57.9167 30.8271L53.2581 24.3235M67.8572 24.4347L63.8901 17.4875M78.4912 19.0349L75.2651 11.7142M90.6484 14.4246L88.2364 6.79684M101.804 11.4934L100.186 3.65884M114.494 9.54987L113.724 1.58701M127.379 9.00044L127.472 1.00098M138.766 9.67893L139.658 1.72886M151.377 11.7507L153.115 3.9418M163.309 15.0658L165.865 7.4849M174.57 19.5181L177.905 12.2462M185.157 25.0275L189.226 18.1396M195.694 32.0076L200.47 25.5901M204.792 39.5014L210.196 33.6033M213.599 48.4344L219.594 43.1376M221.405 58.2535L227.925 53.6187M227.811 68.3047L234.773 64.3633M233.462 79.6512L240.807 76.4799M237.7 91.0762L245.337 88.693M240.647 102.54L248.488 100.951M242.489 115.024L250.455 114.284" stroke="black" stroke-width="2" stroke-linejoin="round"/>
<path d="M231.996 125.992H250.996M217.866 178.911L234.33 188.394M178.986 217.821L188.529 234.25M125.576 231.992L125.503 250.992M72.6376 217.607L63.0945 234.036M34.0037 178.698L17.5391 188.18M19.9994 125.154L1 125.007M34.3764 72.6425L17.9821 63.039M73.3119 33.9869L63.8901 17.4875M127.252 19.9997L127.472 1.00098M179.562 34.4984L189.226 18.1396M218.239 73.7242L234.773 64.3633" stroke="black" stroke-width="2" stroke-linejoin="round"/>
</svg>
