<svg width="266" height="254" viewBox="0 0 266 254" fill="none" xmlns="http://www.w3.org/2000/svg">
<path d="M257.996 127.349C257.996 196.384 202.032 252.349 132.996 252.349C63.9605 252.349 7.99609 196.384 7.99609 127.349C7.99609 58.313 63.9605 2.34863 132.996 2.34863C202.032 2.34863 257.996 58.313 257.996 127.349Z" stroke="black" stroke-width="2" stroke-linejoin="round"/>
<path d="M265.496 127.349H250.496" stroke="black" stroke-width="2" stroke-linejoin="round"/>
<path d="M265.496 127.349H250.496" stroke="black" stroke-width="2" stroke-linejoin="round"/>
<path d="M240.203 205.228L228.073 196.404" stroke="black" stroke-width="2" stroke-linejoin="round"/>
<path d="M240.203 205.228L228.073 196.404" stroke="black" stroke-width="2" stroke-linejoin="round"/>
<path d="M173.997 253.38L169.313 239.13" stroke="black" stroke-width="2" stroke-linejoin="round"/>
<path d="M173.997 253.38L169.313 239.13" stroke="black" stroke-width="2" stroke-linejoin="round"/>
<path d="M91.5498 253.235L96.2339 238.985" stroke="black" stroke-width="2" stroke-linejoin="round"/>
<path d="M91.5498 253.235L96.2339 238.985" stroke="black" stroke-width="2" stroke-linejoin="round"/>
<path d="M25.4912 204.817L37.6536 196.038" stroke="black" stroke-width="2" stroke-linejoin="round"/>
<path d="M25.4912 204.817L37.6536 196.038" stroke="black" stroke-width="2" stroke-linejoin="round"/>
<path d="M0.5 126.306L15.4996 126.421" stroke="black" stroke-width="2" stroke-linejoin="round"/>
<path d="M0.5 126.306L15.4996 126.421" stroke="black" stroke-width="2" stroke-linejoin="round"/>
<path d="M26.3174 48.7471L38.3828 57.6592" stroke="black" stroke-width="2" stroke-linejoin="round"/>
<path d="M26.3174 48.7471L38.3828 57.6592" stroke="black" stroke-width="2" stroke-linejoin="round"/>
<path d="M92.9746 1.00098L97.4971 15.303" stroke="black" stroke-width="2" stroke-linejoin="round"/>
<path d="M92.9746 1.00098L97.4971 15.303" stroke="black" stroke-width="2" stroke-linejoin="round"/>
<path d="M175.26 1.7334L170.468 15.9476" stroke="black" stroke-width="2" stroke-linejoin="round"/>
<path d="M175.26 1.7334L170.468 15.9476" stroke="black" stroke-width="2" stroke-linejoin="round"/>
<path d="M241.038 50.6299L228.812 59.3201" stroke="black" stroke-width="2" stroke-linejoin="round"/>
<path d="M241.038 50.6299L228.812 59.3201" stroke="black" stroke-width="2" stroke-linejoin="round"/>
</svg>
