<svg width="266" height="266" viewBox="0 0 266 266" fill="none" xmlns="http://www.w3.org/2000/svg">
<path d="M257.996 132.993C257.996 202.029 202.032 257.993 132.996 257.993C63.9605 257.993 7.99609 202.029 7.99609 132.993C7.99609 63.9576 63.9605 7.99316 132.996 7.99316C202.032 7.99316 257.996 63.9576 257.996 132.993Z" stroke="black" stroke-width="2" stroke-linejoin="round"/>
<path d="M265.496 132.993H250.496" stroke="black" stroke-width="2" stroke-linejoin="round"/>
<path d="M247.83 199.138L234.832 191.652" stroke="black" stroke-width="2" stroke-linejoin="round"/>
<path d="M199.296 247.735L191.762 234.765" stroke="black" stroke-width="2" stroke-linejoin="round"/>
<path d="M132.474 265.491L132.532 250.491" stroke="black" stroke-width="2" stroke-linejoin="round"/>
<path d="M66.3271 247.521L73.8612 234.55" stroke="black" stroke-width="2" stroke-linejoin="round"/>
<path d="M18.0391 198.923L31.0374 191.437" stroke="black" stroke-width="2" stroke-linejoin="round"/>
<path d="M0.5 131.95L15.4996 132.066" stroke="black" stroke-width="2" stroke-linejoin="round"/>
<path d="M18.5107 66.2471L31.4536 73.8288" stroke="black" stroke-width="2" stroke-linejoin="round"/>
<path d="M67.1709 17.9736L74.6091 30.9995" stroke="black" stroke-width="2" stroke-linejoin="round"/>
<path d="M134.559 0.500977L134.385 15.5" stroke="black" stroke-width="2" stroke-linejoin="round"/>
<path d="M200.041 18.6807L192.412 31.5955" stroke="black" stroke-width="2" stroke-linejoin="round"/>
<path d="M248.299 67.6689L235.246 75.0591" stroke="black" stroke-width="2" stroke-linejoin="round"/>
</svg>
