<svg width="260" height="260" viewBox="0 0 260 260" fill="none" xmlns="http://www.w3.org/2000/svg">
<path d="M259.004 129.997H244.4" stroke="black" stroke-width="2" stroke-linejoin="round"/>
<path d="M241.804 194.396L229.148 187.107" stroke="black" stroke-width="2" stroke-linejoin="round"/>
<path d="M194.551 241.712L187.216 229.083" stroke="black" stroke-width="2" stroke-linejoin="round"/>
<path d="M129.492 258.999L129.549 244.395" stroke="black" stroke-width="2" stroke-linejoin="round"/>
<path d="M65.0898 241.503L72.4251 228.874" stroke="black" stroke-width="2" stroke-linejoin="round"/>
<path d="M18.0762 194.187L30.7316 186.898" stroke="black" stroke-width="2" stroke-linejoin="round"/>
<path d="M1 128.981L15.6038 129.094" stroke="black" stroke-width="2" stroke-linejoin="round"/>
<path d="M18.5352 65.0127L31.1365 72.3944" stroke="black" stroke-width="2" stroke-linejoin="round"/>
<path d="M65.9121 18.0127L73.1541 30.6949" stroke="black" stroke-width="2" stroke-linejoin="round"/>
<path d="M131.521 1.00098L131.352 15.6042" stroke="black" stroke-width="2" stroke-linejoin="round"/>
<path d="M195.275 18.7021L187.847 31.2762" stroke="black" stroke-width="2" stroke-linejoin="round"/>
<path d="M242.262 66.3955L229.553 73.5907" stroke="black" stroke-width="2" stroke-linejoin="round"/>
<path d="M255 129.995H250.242" stroke="black" stroke-width="2" stroke-linejoin="round"/>
<path d="M254.363 142.692L249.629 142.216" stroke="black" stroke-width="2" stroke-linejoin="round"/>
<path d="M252.311 155.901L247.655 154.921" stroke="black" stroke-width="2" stroke-linejoin="round"/>
<path d="M248.918 168.62L244.392 167.151" stroke="black" stroke-width="2" stroke-linejoin="round"/>
<path d="M244.24 180.806L239.893 178.871" stroke="black" stroke-width="2" stroke-linejoin="round"/>
<path d="M238.334 192.396L234.211 190.021" stroke="black" stroke-width="2" stroke-linejoin="round"/>
<path d="M231.141 203.464L227.293 200.665" stroke="black" stroke-width="2" stroke-linejoin="round"/>
<path d="M222.965 213.558L219.422 210.381" stroke="black" stroke-width="2" stroke-linejoin="round"/>
<path d="M213.671 222.862L210.482 219.331" stroke="black" stroke-width="2" stroke-linejoin="round"/>
<path d="M203.55 231.077L200.737 227.24" stroke="black" stroke-width="2" stroke-linejoin="round"/>
<path d="M192.537 238.251L190.147 234.137" stroke="black" stroke-width="2" stroke-linejoin="round"/>
<path d="M180.89 244.2L178.939 239.861" stroke="black" stroke-width="2" stroke-linejoin="round"/>
<path d="M168.664 248.899L167.178 244.379" stroke="black" stroke-width="2" stroke-linejoin="round"/>
<path d="M156.006 252.286L155.008 247.634" stroke="black" stroke-width="2" stroke-linejoin="round"/>
<path d="M143.065 254.321L142.571 249.589" stroke="black" stroke-width="2" stroke-linejoin="round"/>
<path d="M129.505 254.995L129.523 250.237" stroke="black" stroke-width="2" stroke-linejoin="round"/>
<path d="M116.452 254.271L116.947 249.538" stroke="black" stroke-width="2" stroke-linejoin="round"/>
<path d="M103.527 252.188L104.526 247.536" stroke="black" stroke-width="2" stroke-linejoin="round"/>
<path d="M90.8945 248.757L92.3804 244.237" stroke="black" stroke-width="2" stroke-linejoin="round"/>
<path d="M78.7031 244.021L80.6542 239.681" stroke="black" stroke-width="2" stroke-linejoin="round"/>
<path d="M67.0977 238.04L69.4875 233.926" stroke="black" stroke-width="2" stroke-linejoin="round"/>
<path d="M56.1318 230.847L58.9448 227.009" stroke="black" stroke-width="2" stroke-linejoin="round"/>
<path d="M46.0586 222.622L49.2476 219.091" stroke="black" stroke-width="2" stroke-linejoin="round"/>
<path d="M36.8154 213.317L40.3582 210.141" stroke="black" stroke-width="2" stroke-linejoin="round"/>
<path d="M28.5742 203.075L32.4322 200.29" stroke="black" stroke-width="2" stroke-linejoin="round"/>
<path d="M21.542 192.187L25.6652 189.812" stroke="black" stroke-width="2" stroke-linejoin="round"/>
<path d="M15.6758 180.626L20.0227 178.691" stroke="black" stroke-width="2" stroke-linejoin="round"/>
<path d="M10.9326 168.169L15.4639 166.717" stroke="black" stroke-width="2" stroke-linejoin="round"/>
<path d="M7.66406 155.806L12.32 154.825" stroke="black" stroke-width="2" stroke-linejoin="round"/>
<path d="M5.62891 142.644L10.3631 142.167" stroke="black" stroke-width="2" stroke-linejoin="round"/>
<path d="M5 129.009L9.75796 129.046" stroke="black" stroke-width="2" stroke-linejoin="round"/>
<path d="M5.72461 116.423L10.455 116.935" stroke="black" stroke-width="2" stroke-linejoin="round"/>
<path d="M7.87305 103.21L12.5214 104.226" stroke="black" stroke-width="2" stroke-linejoin="round"/>
<path d="M11.3633 90.5049L15.8778 92.0078" stroke="black" stroke-width="2" stroke-linejoin="round"/>
<path d="M16.0996 78.417L20.432 80.3843" stroke="black" stroke-width="2" stroke-linejoin="round"/>
<path d="M21.9854 67.0361L26.0909 69.4411" stroke="black" stroke-width="2" stroke-linejoin="round"/>
<path d="M29.3525 55.8447L33.1798 58.6717" stroke="black" stroke-width="2" stroke-linejoin="round"/>
<path d="M37.3379 46.0889L40.8575 49.2907" stroke="black" stroke-width="2" stroke-linejoin="round"/>
<path d="M46.8066 36.6924L49.9699 40.2467" stroke="black" stroke-width="2" stroke-linejoin="round"/>
<path d="M57.2578 28.3252L60.0286 32.1933" stroke="black" stroke-width="2" stroke-linejoin="round"/>
<path d="M67.8936 21.4854L70.253 25.6172" stroke="black" stroke-width="2" stroke-linejoin="round"/>
<path d="M79.2725 15.712L81.1912 20.0661" stroke="black" stroke-width="2" stroke-linejoin="round"/>
<path d="M92.2393 10.7979L93.6738 15.3345" stroke="black" stroke-width="2" stroke-linejoin="round"/>
<path d="M104.197 7.65723L105.16 12.3169" stroke="black" stroke-width="2" stroke-linejoin="round"/>
<path d="M117.73 5.58691L118.188 10.3229" stroke="black" stroke-width="2" stroke-linejoin="round"/>
<path d="M131.473 5.00098L131.418 9.75876" stroke="black" stroke-width="2" stroke-linejoin="round"/>
<path d="M143.666 5.72961L143.135 10.458" stroke="black" stroke-width="2" stroke-linejoin="round"/>
<path d="M157.118 7.94226L156.084 12.5867" stroke="black" stroke-width="2" stroke-linejoin="round"/>
<path d="M169.869 11.4854L168.349 15.9942" stroke="black" stroke-width="2" stroke-linejoin="round"/>
<path d="M181.911 16.249L179.928 20.574" stroke="black" stroke-width="2" stroke-linejoin="round"/>
<path d="M193.235 22.1455L190.815 26.2422" stroke="black" stroke-width="2" stroke-linejoin="round"/>
<path d="M204.477 29.5929L201.636 33.4098" stroke="black" stroke-width="2" stroke-linejoin="round"/>
<path d="M214.205 37.6084L210.99 41.1163" stroke="black" stroke-width="2" stroke-linejoin="round"/>
<path d="M223.599 47.1396L220.033 50.29" stroke="black" stroke-width="2" stroke-linejoin="round"/>
<path d="M231.928 57.6182L228.05 60.3748" stroke="black" stroke-width="2" stroke-linejoin="round"/>
<path d="M238.776 68.3643L234.636 70.7085" stroke="black" stroke-width="2" stroke-linejoin="round"/>
<path d="M244.81 80.4814L240.441 82.3676" stroke="black" stroke-width="2" stroke-linejoin="round"/>
<path d="M249.34 92.6963L244.798 94.1137" stroke="black" stroke-width="2" stroke-linejoin="round"/>
<path d="M252.492 104.958L247.829 105.903" stroke="black" stroke-width="2" stroke-linejoin="round"/>
<path d="M254.459 118.29L249.721 118.73" stroke="black" stroke-width="2" stroke-linejoin="round"/>
</svg>
