<svg width="251" height="251" viewBox="0 0 251 251" fill="none" xmlns="http://www.w3.org/2000/svg">
<path d="M245 125.002C245 148.538 238.021 171.546 224.945 191.115C211.869 210.685 193.283 225.938 171.539 234.945C149.794 243.952 125.867 246.308 102.783 241.716C79.6992 237.125 58.4952 225.791 41.8526 209.148C25.21 192.506 13.8763 171.302 9.28462 148.218C4.69294 125.134 7.04955 101.207 16.0565 79.4623C25.0634 57.7177 40.316 39.1323 59.8856 26.0563C79.4553 12.9803 102.463 6.00098 125.999 6.00098" stroke="black" stroke-width="2" stroke-linejoin="round"/>
<path d="M251 125.003H239" stroke="black" stroke-width="2" stroke-linejoin="round"/>
<path d="M234.279 187.458L223.882 181.466" stroke="black" stroke-width="2" stroke-linejoin="round"/>
<path d="M188.372 233.329L182.373 222.936" stroke="black" stroke-width="2" stroke-linejoin="round"/>
<path d="M125.647 250.001L125.677 238.001" stroke="black" stroke-width="2" stroke-linejoin="round"/>
<path d="M63.0518 232.997L69.0893 222.626" stroke="black" stroke-width="2" stroke-linejoin="round"/>
<path d="M17.4219 186.94L27.8428 180.99" stroke="black" stroke-width="2" stroke-linejoin="round"/>
<path d="M1 124.265L12.9999 124.335" stroke="black" stroke-width="2" stroke-linejoin="round"/>
<path d="M18.2666 61.6064L28.6085 67.6931" stroke="black" stroke-width="2" stroke-linejoin="round"/>
<path d="M64.4414 16.208L70.3453 26.6553" stroke="black" stroke-width="2" stroke-linejoin="round"/>
<path d="M125.822 0.000976562L125.839 12.0011" stroke="black" stroke-width="2" stroke-linejoin="round"/>
</svg>
