<svg width="251" height="251" viewBox="0 0 251 251" fill="none" xmlns="http://www.w3.org/2000/svg">
<path d="M245 125.002C245 148.538 238.021 171.546 224.945 191.115C211.869 210.685 193.283 225.938 171.539 234.945C149.794 243.952 125.867 246.308 102.783 241.716C79.6992 237.125 58.4953 225.791 41.8527 209.148C25.2101 192.506 13.8764 171.302 9.28467 148.218C4.69299 125.134 7.04961 101.207 16.0565 79.4623C25.0634 57.7177 40.3161 39.1323 59.8857 26.0563C79.4553 12.9803 102.463 6.00098 125.999 6.00098" stroke="black" stroke-width="2" stroke-linejoin="round"/>
<path d="M251 125.003H239" stroke="black" stroke-width="2" stroke-linejoin="round"/>
<path d="M247.892 152.704L236.189 150.047" stroke="black" stroke-width="2" stroke-linejoin="round"/>
<path d="M238.634 179.212L227.82 174.01" stroke="black" stroke-width="2" stroke-linejoin="round"/>
<path d="M223.651 203.036L214.272 195.551" stroke="black" stroke-width="2" stroke-linejoin="round"/>
<path d="M203.799 222.841L196.33 213.449" stroke="black" stroke-width="2" stroke-linejoin="round"/>
<path d="M180.08 237.698L174.886 226.881" stroke="black" stroke-width="2" stroke-linejoin="round"/>
<path d="M153.479 246.944L150.829 235.24" stroke="black" stroke-width="2" stroke-linejoin="round"/>
<path d="M125.647 250.001L125.677 238.001" stroke="black" stroke-width="2" stroke-linejoin="round"/>
<path d="M97.6777 246.751L100.383 235.06" stroke="black" stroke-width="2" stroke-linejoin="round"/>
<path d="M71.3066 237.403L76.5451 226.607" stroke="black" stroke-width="2" stroke-linejoin="round"/>
<path d="M47.6592 222.409L55.1768 213.056" stroke="black" stroke-width="2" stroke-linejoin="round"/>
<path d="M27.8633 202.427L37.2797 194.988" stroke="black" stroke-width="2" stroke-linejoin="round"/>
<path d="M13.0791 178.614L23.919 173.466" stroke="black" stroke-width="2" stroke-linejoin="round"/>
<path d="M3.98047 152.146L15.6941 149.539" stroke="black" stroke-width="2" stroke-linejoin="round"/>
<path d="M1 124.265L12.9999 124.335" stroke="black" stroke-width="2" stroke-linejoin="round"/>
<path d="M4.31641 96.3896L15.9977 99.1374" stroke="black" stroke-width="2" stroke-linejoin="round"/>
<path d="M13.751 69.9971L24.5243 75.2828" stroke="black" stroke-width="2" stroke-linejoin="round"/>
<path d="M28.9277 46.2471L38.2463 53.8079" stroke="black" stroke-width="2" stroke-linejoin="round"/>
<path d="M48.8223 26.6729L56.2283 36.115" stroke="black" stroke-width="2" stroke-linejoin="round"/>
<path d="M72.6514 11.9561L77.7625 22.8132" stroke="black" stroke-width="2" stroke-linejoin="round"/>
<path d="M99.3105 2.88379L101.869 14.608" stroke="black" stroke-width="2" stroke-linejoin="round"/>
<path d="M125.822 0.000976562L125.839 12.0011" stroke="black" stroke-width="2" stroke-linejoin="round"/>
</svg>
