<svg width="252" height="270" viewBox="0 0 252 270" fill="none" xmlns="http://www.w3.org/2000/svg">
<path d="M134.693 6.95203C112.233 6.95203 90.1697 12.864 70.7194 24.0936C51.269 35.3233 35.1173 51.475 23.8877 70.9253C12.658 90.3756 6.74609 112.439 6.74609 134.899C6.74609 157.358 12.658 179.422 23.8877 198.872C35.1173 218.322 51.269 234.474 70.7194 245.704C90.1697 256.933 112.233 262.845 134.693 262.845C157.152 262.845 179.216 256.933 198.666 245.704C218.116 234.474 234.268 218.322 245.498 198.872" stroke="black" stroke-width="2" stroke-linejoin="round"/>
<path d="M134.692 0.500977V13.4032" stroke="black" stroke-width="2" stroke-linejoin="round"/>
<path d="M109.429 16.0596L106.76 3.4364" stroke="black" stroke-width="2" stroke-linejoin="round"/>
<path d="M85.2773 23.9072L80.0329 12.119" stroke="black" stroke-width="2" stroke-linejoin="round"/>
<path d="M63.1699 36.6846L55.5832 26.2487" stroke="black" stroke-width="2" stroke-linejoin="round"/>
<path d="M44.3057 53.7119L34.708 45.0892" stroke="black" stroke-width="2" stroke-linejoin="round"/>
<path d="M29.3223 74.415L18.1325 67.992" stroke="black" stroke-width="2" stroke-linejoin="round"/>
<path d="M19.0781 97.5557L6.8019 93.5857" stroke="black" stroke-width="2" stroke-linejoin="round"/>
<path d="M13.834 122.47L0.999541 121.149" stroke="black" stroke-width="2" stroke-linejoin="round"/>
<path d="M13.8975 147.921L1.06976 149.305" stroke="black" stroke-width="2" stroke-linejoin="round"/>
<path d="M19.2773 172.851L7.02102 176.882" stroke="black" stroke-width="2" stroke-linejoin="round"/>
<path d="M29.7803 196.173L18.6391 202.68" stroke="black" stroke-width="2" stroke-linejoin="round"/>
<path d="M44.6533 216.472L35.0987 225.142" stroke="black" stroke-width="2" stroke-linejoin="round"/>
<path d="M63.7158 233.505L56.1813 243.979" stroke="black" stroke-width="2" stroke-linejoin="round"/>
<path d="M85.7549 246.103L80.5693 257.917" stroke="black" stroke-width="2" stroke-linejoin="round"/>
<path d="M110.131 253.886L107.525 266.522" stroke="black" stroke-width="2" stroke-linejoin="round"/>
<path d="M135.605 256.392L135.702 269.293" stroke="black" stroke-width="2" stroke-linejoin="round"/>
<path d="M160.566 253.606L163.329 266.209" stroke="black" stroke-width="2" stroke-linejoin="round"/>
<path d="M184.872 245.548L190.205 257.296" stroke="black" stroke-width="2" stroke-linejoin="round"/>
<path d="M206.783 232.694L214.448 243.073" stroke="black" stroke-width="2" stroke-linejoin="round"/>
<path d="M225.662 215.433L235.324 223.983" stroke="black" stroke-width="2" stroke-linejoin="round"/>
<path d="M239.835 195.778L251 202.243" stroke="black" stroke-width="2" stroke-linejoin="round"/>
</svg>
