<svg width="252" height="269" viewBox="0 0 252 269" fill="none" xmlns="http://www.w3.org/2000/svg">
<path d="M135.019 6.43457C112.623 6.43457 90.6209 12.3299 71.2252 23.528C51.8295 34.7261 35.7232 50.8324 24.5251 70.2281C13.327 89.6238 7.43164 111.625 7.43164 134.022C7.43164 156.418 13.327 178.42 24.5251 197.815C35.7232 217.211 51.8295 233.317 71.2252 244.515C90.6209 255.713 112.623 261.609 135.019 261.609C157.415 261.609 179.417 255.713 198.812 244.515C218.208 233.317 234.314 217.211 245.512 197.815" stroke="black" stroke-width="2" stroke-linejoin="round"/>
<path d="M135.02 0.000976562V12.8669" stroke="black" stroke-width="2" stroke-linejoin="round"/>
<path d="M74.3105 29.1748L67.8636 18.0407" stroke="black" stroke-width="2" stroke-linejoin="round"/>
<path d="M29.9453 73.7061L18.787 67.301" stroke="black" stroke-width="2" stroke-linejoin="round"/>
<path d="M13.8652 134.478L0.999398 134.526" stroke="black" stroke-width="2" stroke-linejoin="round"/>
<path d="M30.4014 195.122L19.2915 201.611" stroke="black" stroke-width="2" stroke-linejoin="round"/>
<path d="M75.1006 239.321L68.7376 250.504" stroke="black" stroke-width="2" stroke-linejoin="round"/>
<path d="M135.93 255.173L136.026 268.038" stroke="black" stroke-width="2" stroke-linejoin="round"/>
<path d="M196.514 238.407L203.044 249.493" stroke="black" stroke-width="2" stroke-linejoin="round"/>
<path d="M239.866 194.729L251 201.176" stroke="black" stroke-width="2" stroke-linejoin="round"/>
</svg>
