<svg width="250" height="250" viewBox="0 0 250 250" fill="none" xmlns="http://www.w3.org/2000/svg">
<path d="M244 125.001C244 140.628 240.922 156.103 234.942 170.54C228.961 184.978 220.196 198.097 209.146 209.147C198.096 220.197 184.977 228.962 170.539 234.943C156.102 240.923 140.627 244.001 125 244.001C109.373 244.001 93.8984 240.923 79.4607 234.943C65.0229 228.962 51.9045 220.197 40.8543 209.147C29.8041 198.097 21.0386 184.978 15.0583 170.54C9.07802 156.103 6 140.628 6 125.001" stroke="black" stroke-width="2" stroke-linejoin="round"/>
<path d="M250 125.001H238" stroke="black" stroke-width="2" stroke-linejoin="round"/>
<path d="M242.474 167.722L231.196 163.622" stroke="black" stroke-width="2" stroke-linejoin="round"/>
<path d="M220.703 205.411L211.512 197.696" stroke="black" stroke-width="2" stroke-linejoin="round"/>
<path d="M187.299 233.37L181.317 222.967" stroke="black" stroke-width="2" stroke-linejoin="round"/>
<path d="M146.362 248.161L144.308 236.338" stroke="black" stroke-width="2" stroke-linejoin="round"/>
<path d="M102.837 248.021L104.958 236.209" stroke="black" stroke-width="2" stroke-linejoin="round"/>
<path d="M62.0098 232.97L68.0495 222.6" stroke="black" stroke-width="2" stroke-linejoin="round"/>
<path d="M28.7998 204.817L38.034 197.154" stroke="black" stroke-width="2" stroke-linejoin="round"/>
<path d="M7.27539 167.024L18.5762 162.988" stroke="black" stroke-width="2" stroke-linejoin="round"/>
<path d="M0 125.118L12 125.107" stroke="black" stroke-width="2" stroke-linejoin="round"/>
</svg>
