<svg width="251" height="251" viewBox="0 0 251 251" fill="none" xmlns="http://www.w3.org/2000/svg">
<path d="M245 125.001C245 156.562 232.463 186.83 210.146 209.147C187.829 231.464 157.561 244.001 126 244.001C94.4393 244.001 64.1712 231.464 41.8543 209.147C19.5375 186.83 7 156.562 7 125.001" stroke="black" stroke-width="2" stroke-linejoin="round"/>
<path d="M251 125.001H239" stroke="black" stroke-width="2" stroke-linejoin="round"/>
<path d="M249.477 144.458L237.623 142.592" stroke="black" stroke-width="2" stroke-linejoin="round"/>
<path d="M244.92 163.511L233.502 159.818" stroke="black" stroke-width="2" stroke-linejoin="round"/>
<path d="M237.392 181.72L226.697 176.277" stroke="black" stroke-width="2" stroke-linejoin="round"/>
<path d="M227.158 198.431L217.443 191.386" stroke="black" stroke-width="2" stroke-linejoin="round"/>
<path d="M214.221 213.556L205.751 205.054" stroke="black" stroke-width="2" stroke-linejoin="round"/>
<path d="M199.304 226.251L192.26 216.536" stroke="black" stroke-width="2" stroke-linejoin="round"/>
<path d="M182.562 236.472L177.119 225.777" stroke="black" stroke-width="2" stroke-linejoin="round"/>
<path d="M164.407 243.954L160.715 232.536" stroke="black" stroke-width="2" stroke-linejoin="round"/>
<path d="M145.328 248.497L143.462 236.643" stroke="black" stroke-width="2" stroke-linejoin="round"/>
<path d="M125.526 250.001L125.572 238.001" stroke="black" stroke-width="2" stroke-linejoin="round"/>
<path d="M105.984 248.388L107.895 236.541" stroke="black" stroke-width="2" stroke-linejoin="round"/>
<path d="M86.9395 243.741L90.6745 232.337" stroke="black" stroke-width="2" stroke-linejoin="round"/>
<path d="M68.8389 236.165L74.3212 225.491" stroke="black" stroke-width="2" stroke-linejoin="round"/>
<path d="M52.167 225.866L59.2475 216.178" stroke="black" stroke-width="2" stroke-linejoin="round"/>
<path d="M37.1104 212.886L45.6436 204.449" stroke="black" stroke-width="2" stroke-linejoin="round"/>
<path d="M24.4883 197.942L34.2295 190.935" stroke="black" stroke-width="2" stroke-linejoin="round"/>
<path d="M14.3516 181.212L25.0665 175.809" stroke="black" stroke-width="2" stroke-linejoin="round"/>
<path d="M6.91602 163.001L18.3474 159.351" stroke="black" stroke-width="2" stroke-linejoin="round"/>
<path d="M2.44531 143.962L14.3062 142.14" stroke="black" stroke-width="2" stroke-linejoin="round"/>
<path d="M1 125.237L13 125.215" stroke="black" stroke-width="2" stroke-linejoin="round"/>
</svg>
