<svg width="250" height="128" viewBox="0 0 250 128" fill="none" xmlns="http://www.w3.org/2000/svg">
<path d="M0 126.114L30.4061 126.114M30.4061 126.114C30.4057 126.24 30.4054 126.365 30.4054 126.491M30.4061 126.114C30.439 117.627 31.5832 109.402 33.7004 101.579M33.7004 101.579L4.25928 93.6675M33.7004 101.579C35.8882 93.4949 39.1151 85.8395 43.2283 78.7661M43.2283 78.7661L16.7468 63.4326M43.2283 78.7661C47.3954 71.6001 52.4722 65.0315 58.2999 59.2194M58.2999 59.2194L36.6117 37.4682M58.2999 59.2194C64.1223 53.4127 70.6942 48.3611 77.8574 44.2235M77.8574 44.2235L62.5 17.5464M77.8574 44.2235C84.9163 40.1461 92.5492 36.9563 100.605 34.806M100.605 34.806C108.388 32.7285 116.565 31.6212 125 31.6212M100.605 34.806L92.6476 5.02298M125 31.6212C133.435 31.6212 141.612 32.7284 149.395 34.8059M125 31.6212V0.750977M149.395 34.8059L157.352 5.02227M149.395 34.8059C157.451 36.9563 165.084 40.1461 172.143 44.2235M172.143 44.2235L187.5 17.5466M172.143 44.2235C179.306 48.3612 185.878 53.4127 191.7 59.2195M191.7 59.2195L213.388 37.4684M191.7 59.2195C197.528 65.0316 202.605 71.6002 206.772 78.7661M206.772 78.7661L233.253 63.4326M206.772 78.7661C210.885 85.8396 214.112 93.4952 216.3 101.58M216.3 101.58L245.741 93.6681M216.3 101.58C218.417 109.403 219.561 117.627 219.594 126.114M219.594 126.114C219.594 126.24 219.595 126.365 219.595 126.491M219.594 126.114L250 126.114" stroke="black" stroke-width="2" stroke-linejoin="round"/>
</svg>
