<svg width="250" height="111" viewBox="0 0 250 111" fill="none" xmlns="http://www.w3.org/2000/svg">
<path d="M0 109.069H30.4061M30.4061 109.069C30.4056 109.194 30.4054 109.32 30.4054 109.445M30.4061 109.069C30.439 100.581 31.5832 92.3567 33.7003 84.5338M33.7003 84.5338L4.25925 76.6221M33.7003 84.5338C35.8882 76.4495 39.1151 68.7941 43.2283 61.7207M43.2283 61.7207L16.7468 46.3872M43.2283 61.7207C47.3954 54.5547 52.4722 47.9861 58.2999 42.174M58.2999 42.174L36.6117 20.4228M58.2999 42.174C64.1223 36.3673 70.6942 31.3157 77.8574 27.1781M77.8574 27.1781L62.5 0.500977M77.8574 27.1781C84.9163 23.1008 92.5492 19.911 100.605 17.7606C108.388 15.6831 116.565 14.5758 125 14.5758C133.435 14.5758 141.612 15.6831 149.395 17.7605C157.451 19.9109 165.084 23.1008 172.143 27.1781M172.143 27.1781L187.5 0.501193M172.143 27.1781C179.306 31.3158 185.878 36.3674 191.7 42.1741M191.7 42.1741L213.388 20.423M191.7 42.1741C197.528 47.9862 202.605 54.5548 206.772 61.7207M206.772 61.7207L233.253 46.3872M206.772 61.7207C210.885 68.7943 214.112 76.4498 216.3 84.5343M216.3 84.5343L245.741 76.6227M216.3 84.5343C218.417 92.3571 219.561 100.582 219.594 109.069M219.594 109.069C219.594 109.194 219.595 109.32 219.595 109.445M219.594 109.069L250 109.069" stroke="black" stroke-width="2" stroke-linejoin="round"/>
</svg>
