<svg width="250" height="126" viewBox="0 0 250 126" fill="none" xmlns="http://www.w3.org/2000/svg">
<path d="M0 124.976L30.4061 124.976M30.4061 124.976C30.4057 125.101 30.4054 125.226 30.4054 125.351M30.4061 124.976C30.439 116.515 31.5832 108.316 33.7004 100.517C35.8882 92.4576 39.1151 84.8259 43.2283 77.7744M43.2283 77.7744L16.7468 62.4884M43.2283 77.7744C47.3954 70.6306 52.4722 64.0824 58.2999 58.2883C64.1223 52.4995 70.6942 47.4636 77.8574 43.3388M77.8574 43.3388L62.5 16.7443M77.8574 43.3388C84.9163 39.2741 92.5492 36.0942 100.605 33.9505C108.388 31.8794 116.565 30.7756 125 30.7756M125 30.7756C133.435 30.7756 141.612 31.8794 149.395 33.9504C157.451 36.0941 165.084 39.2741 172.143 43.3389M125 30.7756V0.000976562M172.143 43.3389L187.5 16.7446M172.143 43.3389C179.306 47.4637 185.878 52.4996 191.7 58.2884C197.528 64.0824 202.605 70.6307 206.772 77.7744M206.772 77.7744L233.253 62.4884M206.772 77.7744C210.885 84.8261 214.112 92.4579 216.3 100.517C218.417 108.316 219.561 116.515 219.594 124.976M219.594 124.976C219.594 125.101 219.595 125.226 219.595 125.351M219.594 124.976H250" stroke="black" stroke-width="2" stroke-linejoin="round"/>
</svg>
