<svg width="251" height="128" viewBox="0 0 251 128" fill="none" xmlns="http://www.w3.org/2000/svg">
<path d="M20.3453 114.757L13.1553 113.978M22.1623 103.579L15.097 102.035M25.1134 92.8337L18.2515 90.5494M29.1181 82.614L22.5331 79.6238M40.3306 63.5162L34.5134 59.2193M47.0804 55.2676L41.7307 50.4008M55.0993 47.3075L50.2912 41.905M63.9537 40.2163L59.7423 34.3368M82.5533 29.5557L79.6369 22.9376M93.5436 25.3878L91.3631 18.4921M103.629 22.7379L102.165 15.6552M115.1 20.9809L114.404 13.7822M137.042 21.0976L137.849 13.9105M148.443 22.9706L150.014 15.911M159.23 25.9675L161.54 19.1141M169.41 29.9925L172.425 23.4185M188.506 41.2835L192.824 35.4819M196.731 48.0581L201.617 42.726M204.692 56.1339L210.112 51.3454M211.749 65.0107L217.644 60.8207M222.649 84.3549L229.289 81.488M226.48 94.6835L233.384 92.529M229.144 105.047L236.232 103.611M230.81 116.333L238.011 115.664" stroke="black" stroke-width="2" stroke-linejoin="round"/>
<path d="M231.496 126.242H250.496M19.4994 125.404L0.5 125.257M33.8764 72.8925L17.4821 63.289M72.8119 34.2369L63.3901 17.7375M126.752 20.2497L126.972 1.25098M179.062 34.7484L188.726 18.3896M217.739 73.9742L234.273 64.6133" stroke="black" stroke-width="2" stroke-linejoin="round"/>
</svg>
