<svg width="251" height="250" viewBox="0 0 251 250" fill="none" xmlns="http://www.w3.org/2000/svg">
<path d="M125.701 219.22C134.083 219.22 142.208 218.116 149.941 216.045M125.701 219.22C117.32 219.22 109.195 218.116 101.462 216.045M125.701 219.22V250.001M125.701 30.031C134.15 30.031 142.338 31.1529 150.127 33.2567M125.701 30.031C117.253 30.031 109.064 31.1529 101.276 33.2567M125.701 30.031V0.000976562M249.903 125.001H219.691M1.5 125.001H31.7118M245.671 157.354L216.418 149.465M5.73207 92.6489L34.7988 100.487M233.263 187.501L206.95 172.212M18.1398 62.501L44.1286 77.6021M213.525 36.6133L192.349 57.9254M37.8777 213.39L59.4273 191.702M233.263 62.501L207.274 77.6021M18.1398 187.501L44.4521 172.212M245.671 92.6483L216.604 100.487M5.73207 157.353L34.9849 149.464M157.847 4.26061L150.127 33.2567M93.5556 245.742L101.462 216.045M187.802 16.7477L172.865 42.7848M63.6006 233.254L78.8598 206.654M213.525 213.39L191.975 191.702M37.8777 36.6135L59.0536 57.9255M187.802 233.254L172.543 206.654M63.6006 16.7479L78.537 42.7848M157.847 245.741L149.941 216.045M93.5556 4.25989L101.276 33.2567M150.127 33.2567C158.185 35.4334 165.816 38.661 172.865 42.7848M172.865 42.7848C180.011 46.9648 186.559 52.0654 192.349 57.9254M192.349 57.9254C198.134 63.7801 203.162 70.3926 207.274 77.6021M207.274 77.6021C211.324 84.7026 214.485 92.3821 216.604 100.487M216.604 100.487C218.618 108.193 219.691 116.283 219.691 124.626C219.691 124.751 219.691 124.876 219.691 125.001M219.691 125.001C219.658 133.464 218.521 141.665 216.418 149.465M216.418 149.465C214.244 157.526 211.037 165.159 206.95 172.212M206.95 172.212C202.81 179.357 197.766 185.907 191.975 191.702M191.975 191.702C186.19 197.492 179.66 202.529 172.543 206.654M172.543 206.654C165.529 210.72 157.945 213.901 149.941 216.045M101.462 216.045C93.4579 213.901 85.8736 210.72 78.8598 206.654M78.8598 206.654C71.7424 202.529 65.2124 197.492 59.4273 191.702M59.4273 191.702C53.6368 185.907 48.5925 179.357 44.4521 172.212M44.4521 172.212C40.3651 165.159 37.1587 157.525 34.9849 149.464M34.9849 149.464C32.8813 141.664 31.7445 133.464 31.7118 125.001M31.7118 125.001C31.7114 124.876 31.7111 124.751 31.7111 124.626C31.7111 116.283 32.7841 108.193 34.7988 100.487M34.7988 100.487C36.9179 92.3824 40.0787 84.7027 44.1286 77.6021M44.1286 77.6021C48.2405 70.3926 53.2688 63.7801 59.0536 57.9255M59.0536 57.9255C64.8436 52.0655 71.3916 46.9648 78.537 42.7848M78.537 42.7848C85.5863 38.661 93.2172 35.4333 101.276 33.2567" stroke="black" stroke-width="2" stroke-linejoin="round"/>
</svg>
