<svg width="253" height="252" viewBox="0 0 253 252" fill="none" xmlns="http://www.w3.org/2000/svg">
<path d="M220.691 125.626C220.691 125.751 220.691 125.876 220.691 126.001H250.903M126.701 220.22V251.001M32.7111 125.626C32.7111 125.751 32.7114 125.876 32.7118 126.001H2.5M126.701 31.031V1.00098M246.671 158.354L217.418 150.465M6.73207 93.6489L35.7988 101.487M234.263 188.501L207.95 173.212M19.1398 63.501L45.1286 78.6021M214.525 37.6133L193.349 58.9254M38.8777 214.39L60.4273 192.702M234.263 63.501L208.274 78.6021M19.1398 188.501L45.4521 173.212M246.671 93.6483L217.604 101.487M6.73207 158.353L35.9849 150.464M158.847 5.26061L151.127 34.2567M94.5556 246.742L102.462 217.045M188.802 17.7477L173.865 43.7848M64.6006 234.254L79.8598 207.654M214.525 214.39L192.975 192.702M38.8777 37.6135L60.0536 58.9255M188.802 234.254L173.543 207.654M64.6006 17.7479L79.537 43.7848M158.847 246.741L150.941 217.045M94.5556 5.25989L102.276 34.2567" stroke="black" stroke-width="2" stroke-linejoin="round"/>
<circle cx="126.5" cy="126.001" r="125" stroke="black" stroke-width="2" stroke-linejoin="round"/>
</svg>
