<svg width="251" height="250" viewBox="0 0 251 250" fill="none" xmlns="http://www.w3.org/2000/svg">
<path d="M31.6014 124.376C31.6014 124.501 31.6016 124.626 31.6021 124.751M125.25 0.000976562V29.9709C116.832 29.9709 108.674 31.0906 100.913 33.1902L93.2211 4.25137M125.25 249.501V218.782C133.601 218.782 141.696 217.68 149.401 215.613L157.279 245.25M249 124.751H218.898C218.898 124.626 218.899 124.501 218.899 124.376C218.899 116.05 217.829 107.976 215.822 100.286L244.783 92.463M1.5 124.751H31.6021M244.783 157.039L215.637 149.166C213.471 157.211 210.276 164.829 206.204 171.867L232.421 187.126M5.71669 92.4636L34.6778 100.286C36.7892 92.1977 39.9386 84.5333 43.9737 77.4469L18.0794 62.376M212.754 36.54L191.655 57.8095C197.419 63.6525 202.429 70.2518 206.526 77.4469L232.421 62.376M37.7455 212.963L59.2168 191.318C53.4474 185.535 48.4214 178.998 44.296 171.867L18.0794 187.126M5.71669 157.038L34.8632 149.165C32.7673 141.381 31.6346 133.197 31.6021 124.751M157.279 4.25209L149.587 33.1902C157.616 35.3625 165.219 38.5837 172.243 42.6992L187.125 16.7142M93.2212 245.251L101.099 215.613C93.1238 213.473 85.5671 210.299 78.5788 206.241L63.375 232.788M212.754 212.963L191.283 191.319C185.519 197.097 179.013 202.124 171.921 206.241L187.125 232.788M37.7455 36.5402L58.8444 57.8096C64.6135 51.9614 71.1376 46.8709 78.2571 42.6993L63.375 16.7144" stroke="black" stroke-width="2" stroke-linejoin="round"/>
</svg>
