<svg width="253" height="253" viewBox="0 0 253 253" fill="none" xmlns="http://www.w3.org/2000/svg">
<path d="M251.5 117.754C247.411 55.0293 197.156 4.89687 134.379 1.00098M251.5 134.299C249.509 164.841 236.572 192.397 216.573 213.084C195.501 234.882 166.588 249.052 134.379 251.051M1.50001 134.299C5.58926 197.023 55.8445 247.155 118.621 251.051M1.5 117.754C5.58916 55.0293 55.8445 4.89687 118.621 1.00098M191.529 200.271C173.409 216.173 150.853 224.314 128.19 224.695C104.309 225.097 80.309 216.882 61.252 200.052M61.4704 51.781C98.685 19.1225 154.605 19.1966 191.748 51.9995M200.526 60.7778C233.329 97.9206 233.403 153.841 200.745 191.055M52.4736 191.274C19.6708 154.131 19.5967 98.2109 52.2551 60.9963M195.831 130.613C194.727 147.55 187.551 162.831 176.459 174.303C164.771 186.391 148.735 194.249 130.87 195.357M57.1687 121.439C59.4368 86.6555 87.3108 58.8551 122.13 56.6947M130.87 56.6947C165.689 58.8551 193.563 86.6555 195.831 121.439M122.13 195.357C87.3109 193.197 59.4369 165.396 57.1688 130.613" stroke="black" stroke-width="2" stroke-linejoin="round"/>
</svg>
