<svg width="253" height="252" viewBox="0 0 253 252" fill="none" xmlns="http://www.w3.org/2000/svg">
<path d="M227.336 125.751C227.336 105.807 221.422 86.3118 210.342 69.7294C199.262 53.1469 183.514 40.2225 165.088 32.5904C146.663 24.9584 126.388 22.9615 106.828 26.8523C87.2675 30.743 69.3002 40.3468 55.198 54.449C41.0958 68.5512 31.4921 86.5185 27.6013 106.079C23.7105 125.639 25.7074 145.914 33.3394 164.339C40.9715 182.765 53.8959 198.513 70.4784 209.593C87.0608 220.673 106.556 226.587 126.5 226.587M126.5 202.674C141.714 202.674 156.586 198.162 169.236 189.71C181.886 181.257 191.745 169.244 197.567 155.188C203.389 141.132 204.913 125.666 201.944 110.744C198.976 95.8226 191.65 82.1163 180.892 71.3585C170.135 60.6007 156.428 53.2746 141.507 50.3065C126.585 47.3384 111.119 48.8617 97.063 54.6838C83.0073 60.5059 70.9936 70.3653 62.5413 83.0151C54.0889 95.665 49.5775 110.537 49.5775 125.751M75.0855 125.751C75.0855 135.92 78.1009 145.86 83.7504 154.315C89.3999 162.77 97.4297 169.36 106.825 173.252C113.093 175.848 119.781 177.165 126.5 177.166C129.852 177.166 133.211 176.838 136.53 176.178C146.504 174.194 155.665 169.297 162.856 162.107C170.046 154.916 174.943 145.755 176.927 135.781C177.587 132.462 177.915 129.103 177.915 125.751C177.915 119.032 176.597 112.344 174.001 106.075C170.109 96.6807 163.519 88.6509 155.064 83.0014C146.609 77.3519 136.669 74.3364 126.5 74.3364M251.25 125.751C251.25 194.649 195.398 250.501 126.5 250.501C57.6025 250.501 1.75 194.649 1.75 125.751C1.75 56.8535 57.6025 1.00098 126.5 1.00098C195.398 1.00098 251.25 56.8535 251.25 125.751Z" stroke="black" stroke-width="2" stroke-linejoin="round"/>
</svg>
