<svg width="252" height="252" viewBox="0 0 252 252" fill="none" xmlns="http://www.w3.org/2000/svg">
<path d="M118.241 14.8257C120.703 14.6636 123.188 14.5812 125.691 14.5812C128.195 14.5812 130.68 14.6636 133.142 14.8257L134.069 1.00098H117.314L118.241 14.8257Z" stroke="black" stroke-width="2" stroke-linejoin="round"/>
<path d="M25.5533 76.6998L13.5168 70.7739L21.8941 56.228L33.0992 63.7601C30.3071 67.8852 27.7835 72.2068 25.5533 76.6998Z" stroke="black" stroke-width="2" stroke-linejoin="round"/>
<path d="M41.8115 52.501C45.1081 48.7574 48.6514 45.2363 52.416 41.9631L43.4449 31.6744L31.5976 43.551L41.8115 52.501Z" stroke="black" stroke-width="2" stroke-linejoin="round"/>
<path d="M63.7089 33.3362C67.8362 30.5792 72.1574 28.0897 76.6478 25.8925L70.6006 13.5489L56.0907 21.947L63.7089 33.3362Z" stroke="black" stroke-width="2" stroke-linejoin="round"/>
<path d="M89.7688 20.4815L85.3269 7.43403L101.511 3.08687L104.179 16.6503C99.2521 17.6113 94.441 18.896 89.7688 20.4815Z" stroke="black" stroke-width="2" stroke-linejoin="round"/>
<path d="M20.0446 89.8569C18.4254 94.5504 17.1102 99.3856 16.1225 104.339L3.08053 101.76L7.41696 85.5367L20.0446 89.8569Z" stroke="black" stroke-width="2" stroke-linejoin="round"/>
<path d="M14.2321 118.494C14.0536 121.076 13.963 123.682 13.963 126.31C13.963 128.729 14.0398 131.13 14.1913 133.511L1 134.399V117.603L14.2321 118.494Z" stroke="black" stroke-width="2" stroke-linejoin="round"/>
<path d="M16.0057 147.686C16.9679 152.653 18.2591 157.502 19.8556 162.21L7.41702 166.465L3.08059 150.241L16.0057 147.686Z" stroke="black" stroke-width="2" stroke-linejoin="round"/>
<path d="M25.3083 175.423C27.5224 179.94 30.0324 184.285 32.8131 188.434L21.8942 195.774L13.5169 181.228L25.3083 175.423Z" stroke="black" stroke-width="2" stroke-linejoin="round"/>
<path d="M41.5054 199.769C44.7996 203.541 48.3431 207.09 52.1104 210.389L43.4449 220.328L31.5976 208.451L41.5054 199.769Z" stroke="black" stroke-width="2" stroke-linejoin="round"/>
<path d="M63.4238 219.092C67.5626 221.875 71.8977 224.388 76.4041 226.607L70.6007 238.453L56.0907 230.055L63.4238 219.092Z" stroke="black" stroke-width="2" stroke-linejoin="round"/>
<path d="M89.5805 232.074C94.2748 233.676 99.1098 234.975 104.062 235.946L101.511 248.915L85.3269 244.568L89.5805 232.074Z" stroke="black" stroke-width="2" stroke-linejoin="round"/>
<path d="M118.199 237.791C120.675 237.955 123.174 238.038 125.691 238.038C128.209 238.038 130.707 237.955 133.183 237.791L134.069 251.001H117.314L118.199 237.791Z" stroke="black" stroke-width="2" stroke-linejoin="round"/>
<path d="M147.32 235.946C152.273 234.975 157.108 233.676 161.802 232.074L166.056 244.568L149.872 248.915L147.32 235.946Z" stroke="black" stroke-width="2" stroke-linejoin="round"/>
<path d="M174.979 226.607C179.485 224.388 183.82 221.875 187.959 219.092L195.292 230.055L180.782 238.453L174.979 226.607Z" stroke="black" stroke-width="2" stroke-linejoin="round"/>
<path d="M199.272 210.389C203.039 207.09 206.583 203.541 209.877 199.769L219.785 208.451L207.938 220.328L199.272 210.389Z" stroke="black" stroke-width="2" stroke-linejoin="round"/>
<path d="M218.57 188.434C221.35 184.285 223.86 179.94 226.074 175.423L237.866 181.228L229.488 195.774L218.57 188.434Z" stroke="black" stroke-width="2" stroke-linejoin="round"/>
<path d="M231.527 162.21C233.124 157.502 234.415 152.653 235.377 147.686L248.302 150.241L243.966 166.465L231.527 162.21Z" stroke="black" stroke-width="2" stroke-linejoin="round"/>
<path d="M237.191 133.511C237.343 131.13 237.42 128.729 237.42 126.31C237.42 123.682 237.329 121.076 237.151 118.494L250.383 117.603V134.399L237.191 133.511Z" stroke="black" stroke-width="2" stroke-linejoin="round"/>
<path d="M235.26 104.339C234.272 99.3857 232.957 94.5505 231.338 89.857L243.966 85.5368L248.302 101.761L235.26 104.339Z" stroke="black" stroke-width="2" stroke-linejoin="round"/>
<path d="M225.829 76.6999C223.599 72.2069 221.076 67.8853 218.284 63.7602L229.489 56.2281L237.866 70.774L225.829 76.6999Z" stroke="black" stroke-width="2" stroke-linejoin="round"/>
<path d="M209.571 52.501C206.275 48.7574 202.731 45.2364 198.967 41.9631L207.938 31.6744L219.785 43.551L209.571 52.501Z" stroke="black" stroke-width="2" stroke-linejoin="round"/>
<path d="M187.674 33.3362C183.546 30.5792 179.225 28.0897 174.735 25.8925L180.782 13.5488L195.292 21.9469L187.674 33.3362Z" stroke="black" stroke-width="2" stroke-linejoin="round"/>
<path d="M161.614 20.4815C156.942 18.896 152.131 17.6113 147.204 16.6503L149.872 3.0867L166.056 7.43386L161.614 20.4815Z" stroke="black" stroke-width="2" stroke-linejoin="round"/>
</svg>
