<svg width="266" height="266" viewBox="0 0 266 266" fill="none" xmlns="http://www.w3.org/2000/svg">
<path d="M125 0.000976563L125.282 1.27668C127.633 11.8967 130.849 22.1008 134.868 31.6864L135 32.001C128.386 30.3356 121.614 30.3356 115 32.001L115.132 31.6864C119.151 22.1008 122.367 11.8967 124.718 1.27668L125 0.000976563Z" fill="black"/>
<path d="M266 141.001L264.724 141.283C254.104 143.634 243.9 146.85 234.315 150.869L234 151.001C235.665 144.387 235.665 137.615 234 131.001L234.315 131.133C243.9 135.152 254.104 138.368 264.724 140.719L266 141.001Z" fill="black"/>
<path d="M250.5 141.001H125.5M125.5 266.001V141.001M0.5 141.001H125.5M125.5 16.001V141.001" stroke="black" stroke-width="2" stroke-linejoin="round"/>
<path d="M213.888 52.6123L125.5 141.001M125.5 141.001L37.1113 229.389M125.5 141.001L213.888 229.389M125.5 141.001L37.1113 52.6123" stroke="black" stroke-width="2" stroke-linejoin="round"/>
</svg>
