<svg width="252" height="102" viewBox="0 0 252 102" fill="none" xmlns="http://www.w3.org/2000/svg">
<path d="M1 101.001L4.125 100.985L7.25 100.961L10.375 100.928L13.5 100.881L16.625 100.816L19.75 100.726L22.875 100.603L26 100.437L29.125 100.215L32.25 99.9233L35.375 99.542L38.5 99.0498L41.625 98.4215L44.75 97.6286L47.875 96.6394L51 95.4192L54.125 93.9316L57.25 92.1394L60.375 90.0058L63.5 87.4965L66.625 84.5816L69.75 81.238L72.875 77.452L76 73.2215L79.125 68.5584L82.25 63.4908L85.375 58.0644L88.5 52.343L91.625 46.4088L94.75 40.3611L97.875 34.3145L101 28.3953L104.125 22.7378L107.25 17.4795L110.375 12.7552L113.5 8.69192L116.625 5.40271L119.75 2.98177L122.875 1.4999L126 1.00098L129.125 1.4999L132.25 2.98177L135.375 5.40271L138.5 8.69192L141.625 12.7552L144.75 17.4795L147.875 22.7378L151 28.3953L154.125 34.3145L157.25 40.3611L160.375 46.4088L163.5 52.343L166.625 58.0644L169.75 63.4908L172.875 68.5584L176 73.2215L179.125 77.452L182.25 81.238L185.375 84.5816L188.5 87.4965L191.625 90.0058L194.75 92.1394L197.875 93.9316L201 95.4192L204.125 96.6394L207.25 97.6286L210.375 98.4215L213.5 99.0498L216.625 99.542L219.75 99.9233L222.875 100.215L226 100.437L229.125 100.603L232.25 100.726L235.375 100.816L238.5 100.881L241.625 100.928L244.75 100.961L247.875 100.985L251 101.001" stroke="black" stroke-width="2" stroke-linecap="round" stroke-linejoin="round"/>
</svg>
