<svg width="252" height="102" viewBox="0 0 252 102" fill="none" xmlns="http://www.w3.org/2000/svg">
<path d="M1 51.001L3.5 44.7219L6 38.5419L8.5 32.5584L11 26.8657L13.5 21.5536L16 16.7059L18.5 12.3991L21 8.70111L23.5 5.67017L26 3.35413L28.5 1.78951L31 1.00098H33.5L36 1.78951L38.5 3.35413L41 5.67017L43.5 8.70111L46 12.3991L48.5 16.7059L51 21.5536L53.5 26.8657L56 32.5584L58.5 38.5419L61 44.7219L63.5 51.001L66 57.28L68.5 63.4601L71 69.4436L73.5 75.1363L76 80.4483L78.5 85.296L81 89.6028L83.5 93.3008L86 96.3318L88.5 98.6478L91 100.212L93.5 101.001H96L98.5 100.212L101 98.6478L103.5 96.3318L106 93.3008L108.5 89.6028L111 85.296L113.5 80.4483L116 75.1363L118.5 69.4436L121 63.4601L123.5 57.28L126 51.001L128.5 44.7219L131 38.5419L133.5 32.5584L136 26.8657L138.5 21.5536L141 16.7059L143.5 12.3991L146 8.70111L148.5 5.67017L151 3.35413L153.5 1.78951L156 1.00098L158.5 1.00098L161 1.78951L163.5 3.35413L166 5.67017L168.5 8.70111L171 12.3991L173.5 16.7059L176 21.5536L178.5 26.8657L181 32.5584L183.5 38.5419L186 44.7219L188.5 51.001L191 57.28L193.5 63.4601L196 69.4436L198.5 75.1363L201 80.4483L203.5 85.296L206 89.6028L208.5 93.3008L211 96.3318L213.5 98.6478L216 100.212L218.5 101.001H221L223.5 100.212L226 98.6478L228.5 96.3318L231 93.3008L233.5 89.6028L236 85.296L238.5 80.4483L241 75.1363L243.5 69.4436L246 63.4601L248.5 57.28L251 51.001" stroke="black" stroke-width="2" stroke-linecap="round" stroke-linejoin="round"/>
</svg>
