<svg width="252" height="103" viewBox="0 0 252 103" fill="none" xmlns="http://www.w3.org/2000/svg">
<path d="M1 50.1854C7.5 50.1854 12.6 50.1854 17 50.1854C22.5 50.1854 31 48.2757 39.5 52.0955C48 55.9154 51.5 55.9154 57.5 47.3207C63.5 38.7259 66.5 34.906 74 55.9154C81.5 76.9248 82 90.7719 91.5 43.0233C101 -4.72531 101.5 4.34693 109 55.9154C116.5 107.484 117.5 124.196 126 55.9154C134.5 -12.3651 134.5 -17.1399 143 43.0233C151.5 103.187 151.5 104.142 160.5 55.9154C169.5 7.68933 172.5 30.6089 178 47.3207C183.5 64.0325 186 67.3753 194.5 55.9154C203 44.4556 202.938 45.4105 213.719 50.1854C224.5 54.9603 225.995 50.1854 233.875 50.1854C239.5 50.1854 243.5 50.1854 251 50.1854" stroke="black" stroke-width="2" stroke-linecap="round" stroke-linejoin="round"/>
</svg>
