<svg width="252" height="103" viewBox="0 0 252 103" fill="none" xmlns="http://www.w3.org/2000/svg">
<path d="M1 101.001L4.20513 91.1703C7.41026 81.3396 13.8205 61.6782 20.2308 48.3509C26.641 35.0236 33.0513 28.0304 39.4615 36.2634C45.8718 44.4964 52.2821 67.9556 58.6923 80.4846C65.1026 93.0136 71.5128 94.6124 77.9231 89.0283C84.3333 83.4441 90.7436 70.6769 97.1538 66.0943C103.564 61.5117 109.974 65.1136 116.385 68.356C122.795 71.5983 129.205 74.4812 135.615 73.8719C142.026 73.2626 148.436 69.1612 154.846 63.3152C161.256 57.4692 167.667 49.8787 174.077 44.375C180.487 38.8713 186.897 35.4544 193.308 39.2347C199.718 43.0149 206.128 53.9924 212.538 53.0529C218.949 52.1133 225.359 39.2567 231.769 28.5952C238.179 17.9338 244.59 9.46736 247.795 5.23417L251 1.00098" stroke="black" stroke-width="2" stroke-linecap="round" stroke-linejoin="round"/>
</svg>
