<svg width="252" height="102" viewBox="0 0 252 102" fill="none" xmlns="http://www.w3.org/2000/svg">
<path d="M1 31.1928L3.77778 39.4017C6.55556 47.6107 12.1111 64.0285 17.6667 59.0476C23.2222 54.0667 28.7778 27.687 34.3333 25.3118C39.8889 22.9365 45.4444 44.5657 51 61.6137C56.5556 78.6616 62.1111 91.1282 67.6667 97.28C73.2222 103.432 78.7778 103.268 84.3333 86.6342C89.8889 69.9998 95.4444 36.8943 101 30.8425C106.556 24.7907 112.111 45.7925 117.667 51.9092C123.222 58.0259 128.778 49.2573 134.333 40.4535C139.889 31.6497 145.444 22.8106 151 14.5423C156.556 6.274 162.111 -1.4235 167.667 9.24085C173.222 19.9052 178.778 48.9314 184.333 57.1432C189.889 65.355 195.444 52.7523 201 48.0824C206.556 43.4125 212.111 46.6754 217.667 51.4345C223.222 56.1936 228.778 62.449 234.333 54.2928C239.889 46.1366 245.444 23.5688 248.222 12.2849L251 1.00098" stroke="black" stroke-width="2" stroke-linecap="round" stroke-linejoin="round"/>
</svg>
