<svg width="252" height="102" viewBox="0 0 252 102" fill="none" xmlns="http://www.w3.org/2000/svg">
<path d="M1 1.00098L5.62963 3.92567C10.2593 6.85035 19.5185 12.6997 28.7778 22.2793C38.037 31.8588 47.2963 45.1685 56.5556 45.4445C65.8148 45.7205 75.0741 32.9629 84.3333 33.514C93.5926 34.0652 102.852 47.9252 112.111 59.5879C121.37 71.2505 130.63 80.7158 139.889 77.2405C149.148 73.7652 158.407 57.3492 167.667 59.237C176.926 61.1248 186.185 81.3162 195.444 86.4393C204.704 91.5623 213.963 81.617 223.222 81.5326C232.481 81.4481 241.741 91.2246 246.37 96.1128L251 101.001" stroke="black" stroke-width="2" stroke-linecap="round" stroke-linejoin="round"/>
</svg>
