<svg width="252" height="103" viewBox="0 0 252 103" fill="none" xmlns="http://www.w3.org/2000/svg">
<path d="M1 4.14287L3.77778 11.6597C6.55556 19.1766 12.1111 34.2104 17.6667 34.015C23.2222 33.8196 28.7778 18.3951 34.3333 12.5539C39.8889 6.71277 45.4444 10.4549 51 10.3927C56.5556 10.3305 62.1111 6.46382 67.6667 4.39953C73.2222 2.33523 78.7778 2.07328 84.3333 5.76081C89.8889 9.44834 95.4444 17.0854 101 26.8517C106.556 36.6181 112.111 48.5138 117.667 57.474C123.222 66.4343 128.778 72.459 134.333 69.7416C139.889 67.0241 145.444 55.5643 151 40.6143C156.556 25.6642 162.111 7.2238 167.667 2.34694C173.222 -2.52991 178.778 6.15678 184.333 23.37C189.889 40.5832 195.444 66.323 201 64.2087C206.556 62.0944 212.111 32.126 217.667 25.7552C223.222 19.3844 228.778 36.6112 234.333 53.0851C239.889 69.559 245.444 85.28 248.222 93.1405L251 101.001" stroke="black" stroke-width="2" stroke-linecap="round" stroke-linejoin="round"/>
</svg>
