<svg width="252" height="102" viewBox="0 0 252 102" fill="none" xmlns="http://www.w3.org/2000/svg">
<path d="M1 101.001L2.73611 99.4779C4.47222 97.9548 7.94444 94.9085 11.4167 90.3627C14.8889 85.8169 18.3611 79.7715 21.8333 81.1293C25.3056 82.4872 28.7778 91.2484 32.25 87.3655C35.7222 83.4825 39.1944 66.9555 42.6667 61.8644C46.1389 56.7733 49.6111 63.1182 53.0833 70.8229C56.5556 78.5277 60.0278 87.5923 63.5 89.7893C66.9722 91.9862 70.4444 87.3154 73.9167 82.5909C77.3889 77.8665 80.8611 73.0884 84.3333 68.3944C87.8056 63.7004 91.2778 59.0904 94.75 60.5544C98.2222 62.0184 101.694 69.5564 105.167 74.418C108.639 79.2795 112.111 81.4647 115.583 79.572C119.056 77.6793 122.528 71.7088 126 64.4357C129.472 57.1626 132.944 48.5869 136.417 46.1253C139.889 43.6637 143.361 47.3161 146.833 52.436C150.306 57.5559 153.778 64.1434 157.25 62.4077C160.722 60.6721 164.194 50.6135 167.667 45.7532C171.139 40.893 174.611 41.2312 178.083 43.5944C181.556 45.9576 185.028 50.3457 188.5 48.3361C191.972 46.3264 195.444 37.9188 198.917 37.814C202.389 37.7093 205.861 45.9073 209.333 51.2115C212.806 56.5156 216.278 58.9259 219.75 59.7675C223.222 60.609 226.694 59.8817 230.167 56.3211C233.639 52.7605 237.111 46.3665 240.583 36.6743C244.056 26.982 247.528 13.9915 249.264 7.49624L251 1.00098" stroke="black" stroke-width="2" stroke-linecap="round" stroke-linejoin="round"/>
</svg>
