<svg width="252" height="102" viewBox="0 0 252 102" fill="none" xmlns="http://www.w3.org/2000/svg">
<path d="M1 58.6077L3.77778 59.3689C6.55556 60.1301 12.1111 61.6524 17.6667 57.6106C23.2222 53.5689 28.7778 43.9631 34.3333 54.2162C39.8889 64.4694 45.4444 94.5815 51 95.2508C56.5556 95.9201 62.1111 67.1467 67.6667 52.364C73.2222 37.5813 78.7778 36.7894 84.3333 45.4395C89.8889 54.0896 95.4444 72.1817 101 65.8157C106.556 59.4497 112.111 28.6257 117.667 28.3805C123.222 28.1354 128.778 58.4691 134.333 60.7533C139.889 63.0376 145.444 37.2723 151 19.6446C156.556 2.01696 162.111 -7.47318 167.667 11.1481C173.222 29.7694 178.778 76.5021 184.333 93.1982C189.889 109.894 195.444 96.5537 201 83.3855C206.556 70.2172 212.111 57.2213 217.667 64.1345C223.222 71.0477 228.778 97.8702 234.333 97.7714C239.889 97.6727 245.444 70.6529 248.222 57.143L251 43.6331" stroke="black" stroke-width="2" stroke-linecap="round" stroke-linejoin="round"/>
</svg>
