<svg width="252" height="103" viewBox="0 0 252 103" fill="none" xmlns="http://www.w3.org/2000/svg">
<path d="M0.5 100.615C0.5 100.615 23.5 100.171 31.8225 22.6365C40.145 -54.8976 38.0303 100.908 63.145 100.615C77.2792 100.451 79.6472 73.2144 93.7819 73.2144C107.917 73.2144 111.984 104.823 125.79 100.615C132.888 98.4523 134.184 86.6647 141.451 86.6647C148.718 86.6647 150.005 98.5148 157.113 100.615C173.953 105.592 171.217 57.5408 188.435 57.5408C205.653 57.5408 202.917 105.592 219.758 100.615C226.865 98.5148 228.152 86.6647 235.419 86.6647C242.686 86.6647 251 100.171 251 100.171" stroke="black" stroke-width="2" stroke-linejoin="round"/>
</svg>
