<svg width="252" height="102" viewBox="0 0 252 102" fill="none" xmlns="http://www.w3.org/2000/svg">
<path d="M1 11.001L9.54167 71.001L18.2917 81.001L26.8333 91.001L35.5833 61.001L44.125 31.001L52.6667 61.001L61.4167 21.001L69.9583 31.001L78.5 81.001L87.25 91.001C87.25 91.001 92.4559 97.0957 95.7917 101.001C99.2088 97.0957 104.542 91.001 104.542 91.001L113.083 41.001L121.625 71.001L130.375 1.00098L138.917 11.001L147.458 71.001L156.208 91.001H164.75L173.5 51.001L182.042 11.001L190.583 61.001L199.333 71.001L207.875 81.001L216.417 41.001L225.167 21.001L233.708 51.001L242.458 71.001L251 31.001" stroke="black" stroke-width="2" stroke-linejoin="round"/>
</svg>
