<svg width="252" height="103" viewBox="0 0 252 103" fill="none" xmlns="http://www.w3.org/2000/svg">
<path d="M1 1.00098L2.66667 3.10378C4.125 5.20658 7.45833 9.41219 10.5833 11.515C13.9167 13.6178 17.0417 13.6178 20.1667 24.1318C23.5 34.6458 26.625 55.6739 29.75 68.2907C33.0833 80.9075 36.2083 85.1131 39.5417 76.7019C42.6667 68.2907 45.7917 47.2627 49.125 51.4683C52.25 55.6739 55.5833 85.1131 58.7083 89.3187C61.8333 93.5243 65.1667 72.4963 68.2917 70.3935C71.4167 68.2907 74.75 85.1131 77.875 85.1131C81.2083 85.1131 84.3333 68.2907 87.4583 66.1879C90.7917 64.0851 93.9167 76.7019 97.25 74.5991C100.375 72.4963 103.5 55.6739 106.833 55.6739C109.958 55.6739 113.083 72.4963 116.417 74.5991C119.542 76.7019 122.875 64.0851 126 64.0851C129.125 64.0851 132.458 76.7019 135.583 74.5991C138.917 72.4963 142.042 55.6739 145.167 53.5711C148.5 51.4683 151.625 64.0851 154.75 72.4963C158.083 80.9075 161.208 85.1131 164.542 89.3187C167.667 93.5243 170.792 97.7299 174.125 99.8327C177.25 101.936 180.583 101.936 183.708 93.5243C186.833 85.1131 190.167 68.2907 193.292 53.5711C196.417 38.8514 199.75 26.2346 202.875 19.9262C206.208 13.6178 209.333 13.6178 212.458 17.8234C215.792 22.029 218.917 30.4402 222.25 45.1599C225.375 59.8795 228.5 80.9075 231.833 87.2159C234.958 93.5243 238.083 85.1131 241.417 76.7019C244.542 68.2907 247.875 59.8795 249.333 55.6739L251 51.4683" stroke="black" stroke-width="2" stroke-linejoin="round"/>
</svg>
