<svg width="252" height="102" viewBox="0 0 252 102" fill="none" xmlns="http://www.w3.org/2000/svg">
<path d="M1 52.2205V37.5863C1 34.2188 4.45459 31.4888 8.71605 31.4888C12.9775 31.4888 16.4321 34.2188 16.4321 37.5863V52.2205V69.2937C16.4321 72.6612 19.8867 75.3912 24.1481 75.3912C28.4096 75.3912 31.8642 72.6612 31.8642 69.2937V52.2205V8.31805C31.8642 4.27694 36.0097 1.00098 41.1235 1.00098C46.2372 1.00098 50.3827 4.27694 50.3827 8.31805V52.2205L50.3827 69.2937C50.3827 72.6612 53.8373 75.3912 58.0988 75.3912C62.3602 75.3912 65.8148 72.6612 65.8148 69.2937V52.2205V35.1473C65.8148 31.7797 69.2694 29.0498 73.5309 29.0498C77.7923 29.0498 81.2469 31.7797 81.2469 35.1473V52.2205V79.0498C81.2469 82.4173 84.7015 85.1473 88.963 85.1473C93.2244 85.1473 96.679 82.4173 96.679 79.0498V52.2205V35.1473C96.679 31.7797 100.134 29.0498 104.395 29.0498C108.657 29.0498 112.111 31.7797 112.111 35.1473V52.2205V69.2937C112.111 72.6612 115.566 75.3912 119.827 75.3912C124.089 75.3912 127.543 72.6612 127.543 69.2937V52.2205V24.1717C127.543 20.8041 130.998 18.0741 135.259 18.0741C139.521 18.0741 142.975 20.8041 142.975 24.1717V52.2205V92.4644C142.975 95.832 146.43 98.562 150.691 98.562C154.953 98.562 158.407 95.832 158.407 92.4644V52.2205V31.4888C158.407 28.1212 161.862 25.3912 166.123 25.3912C170.385 25.3912 173.84 28.1212 173.84 31.4888V52.2205V65.6351C173.84 69.0027 177.294 71.7327 181.556 71.7327C185.817 71.7327 189.272 69.0027 189.272 65.6351V52.2205V24.1717C189.272 20.8041 192.726 18.0741 196.988 18.0741C201.249 18.0741 204.704 20.8041 204.704 24.1717V52.2205V77.8302C204.704 81.1978 208.158 83.9278 212.42 83.9278C216.681 83.9278 220.136 81.1978 220.136 77.8302V52.2205V41.2449C220.136 37.8773 223.59 35.1473 227.852 35.1473C232.113 35.1473 235.568 37.8773 235.568 41.2449V52.2205V94.9034C235.568 98.271 239.022 101.001 243.284 101.001C247.545 101.001 251 98.271 251 94.9034V52.2205" stroke="black" stroke-width="2" stroke-linejoin="round"/>
</svg>
