<svg width="309" height="102" viewBox="0 0 309 102" fill="none" xmlns="http://www.w3.org/2000/svg">
<path d="M58.151 1.00098C-25.1319 134.334 -16.8036 134.334 83.1359 1.00098C-0.14705 134.334 8.18124 134.334 108.121 1.00098C24.8378 134.334 33.1661 134.334 133.106 1.00098C49.8227 134.334 58.151 134.334 158.09 1.00098C74.8076 134.334 83.1359 134.334 183.075 1.00098C99.7924 134.334 108.121 134.334 208.06 1.00098C124.777 134.334 133.106 134.334 233.045 1.00098C149.762 134.334 158.09 134.334 258.03 1.00098C174.747 134.334 183.075 134.334 283.015 1.00098C199.732 134.334 208.06 134.334 308 1.00098" stroke="black" stroke-width="2" stroke-linejoin="round"/>
</svg>
