<svg width="308" height="102" viewBox="0 0 308 102" fill="none" xmlns="http://www.w3.org/2000/svg">
<path d="M29.0189 51.001C-14.341 -15.6657 -6.00253 -15.6657 54.0341 51.001C114.071 117.668 122.409 117.668 79.0494 51.001C35.6896 -15.6657 44.028 -15.6657 104.065 51.001C164.101 117.668 172.44 117.668 129.08 51.001C85.7202 -15.6657 94.0586 -15.6657 154.095 51.001C214.132 117.668 222.47 117.668 179.111 51.001C135.751 -15.6657 144.089 -15.6657 204.126 51.001C264.162 117.668 272.501 117.668 229.141 51.001C185.781 -15.6657 194.12 -15.6657 254.156 51.001C314.193 117.668 322.531 117.668 279.172 51.001" stroke="black" stroke-width="2" stroke-linejoin="round"/>
</svg>
