<svg width="252" height="102" viewBox="0 0 252 102" fill="none" xmlns="http://www.w3.org/2000/svg">
<path d="M1 51.001C28.5 -15.6657 -14 -15.6657 13.5 51.001C41 117.668 -1.5 117.668 26 51.001C53.5 -15.6657 11 -15.6657 38.5 51.001C66 117.668 23.5 117.668 51 51.001C78.5 -15.6657 36 -15.6657 63.5 51.001C91 117.668 48.5 117.668 76 51.001C103.5 -15.6657 61 -15.6657 88.5 51.001C116 117.668 73.5 117.668 101 51.001C128.5 -15.6657 86 -15.6657 113.5 51.001C141 117.668 98.5 117.668 126 51.001C153.5 -15.6657 111 -15.6657 138.5 51.001C166 117.668 123.5 117.668 151 51.001C178.5 -15.6657 136 -15.6657 163.5 51.001C191 117.668 148.5 117.668 176 51.001C203.5 -15.6657 161 -15.6657 188.5 51.001C216 117.668 173.5 117.668 201 51.001C228.5 -15.6657 186 -15.6657 213.5 51.001C241 117.668 198.5 117.668 226 51.001C253.5 -15.6657 211 -15.6657 238.5 51.001C266 117.668 223.5 117.668 251 51.001" stroke="black" stroke-width="2" stroke-linejoin="round"/>
</svg>
