<svg width="264" height="102" viewBox="0 0 264 102" fill="none" xmlns="http://www.w3.org/2000/svg">
<path d="M7.06653 51.001C-17.9202 -15.6657 57.0401 -15.6657 32.0533 51.001C7.06653 117.668 82.0269 117.668 57.0401 51.001C32.0533 -15.6657 107.014 -15.6657 82.0269 51.001C57.0401 117.668 132 117.668 107.014 51.001C82.0269 -15.6657 156.987 -15.6657 132 51.001C107.014 117.668 181.974 117.668 156.987 51.001C132 -15.6657 206.961 -15.6657 181.974 51.001C156.987 117.668 231.948 117.668 206.961 51.001C181.974 -15.6657 256.934 -15.6657 231.948 51.001C206.961 117.668 281.921 117.668 256.934 51.001" stroke="black" stroke-width="2" stroke-linejoin="round"/>
</svg>
