<svg width="251" height="102" viewBox="0 0 251 102" fill="none" xmlns="http://www.w3.org/2000/svg">
<path d="M1 101.001L1.10014 48.6933H13.6001L13.5 101.001H26L26.162 16.3856H38.662L38.5 101.001H51L51.16 17.4112H63.66L63.5 101.001H76L76.1316 32.283H88.6315L88.5 101.001H101L101.191 1.00098H113.691L113.5 101.001H126L126.105 46.1292H138.605L138.5 101.001H151L151.129 33.8215H163.629L163.5 101.001H176L176.104 46.642H188.604L188.5 101.001H201L201.177 8.69328H213.677L213.5 101.001H226L226.116 40.4882H238.616L238.5 101.001H251" stroke="black" stroke-width="2" stroke-linejoin="round"/>
</svg>
