<svg width="252" height="102" viewBox="0 0 252 102" fill="none" xmlns="http://www.w3.org/2000/svg">
<path d="M1 101.001C9.33333 -32.3324 17.6667 -32.3324 26 101.001C34.3333 -32.3324 42.6667 -32.3324 51 101.001C59.3333 -32.3324 67.6667 -32.3324 76 101.001C84.3333 -32.3324 92.6667 -32.3324 101 101.001C109.333 -32.3324 117.667 -32.3324 126 101.001C134.333 -32.3324 142.667 -32.3324 151 101.001C159.333 -32.3324 167.667 -32.3324 176 101.001C184.333 -32.3324 192.667 -32.3324 201 101.001C209.333 -32.3324 217.667 -32.3324 226 101.001C234.333 -32.3324 242.667 -32.3324 251 101.001" stroke="black" stroke-width="2" stroke-linejoin="round"/>
</svg>
