<svg width="252" height="102" viewBox="0 0 252 102" fill="none" xmlns="http://www.w3.org/2000/svg">
<path d="M1 101.001C56 -32.3324 -29 -32.3324 26 101.001C81 -32.3324 -4 -32.3324 51 101.001C106 -32.3324 21 -32.3324 76 101.001C131 -32.3324 46 -32.3324 101 101.001C156 -32.3324 71 -32.3324 126 101.001C181 -32.3324 96 -32.3324 151 101.001C206 -32.3324 121 -32.3324 176 101.001C231 -32.3324 146 -32.3324 201 101.001C256 -32.3324 171 -32.3324 226 101.001C281 -32.3324 196 -32.3324 251 101.001" stroke="black" stroke-width="2" stroke-linejoin="round"/>
</svg>
