<svg width="260" height="102" viewBox="0 0 260 102" fill="none" xmlns="http://www.w3.org/2000/svg">
<path d="M5.09855 1.00098C-14.8856 134.334 50.0628 134.334 30.0787 1.00098C10.0946 134.334 75.043 134.334 55.0588 1.00098C35.0747 134.334 100.023 134.334 80.039 1.00098C60.0549 134.334 125.003 134.334 105.019 1.00098C85.035 134.334 149.983 134.334 129.999 1.00098C110.015 134.334 174.964 134.334 154.979 1.00098C134.995 134.334 199.944 134.334 179.96 1.00098C159.975 134.334 224.924 134.334 204.94 1.00098C184.956 134.334 249.904 134.334 229.92 1.00098C209.936 134.334 274.884 134.334 254.9 1.00098" stroke="black" stroke-width="2" stroke-linejoin="round"/>
</svg>
