<svg width="277" height="102" viewBox="0 0 277 102" fill="none" xmlns="http://www.w3.org/2000/svg">
<path d="M25.6103 64.8738C25.6103 84.8263 20.1011 101.001 13.3052 101.001C6.50921 101.001 1 84.8263 1 64.8738C1 29.5978 13.3957 1.00098 28.6866 1.00098C43.9775 1.00098 56.8466 29.5978 56.8466 64.8738C56.8466 84.8263 51.3373 101.001 44.5414 101.001C37.7454 101.001 32.2362 84.8263 32.2362 64.8738C32.2362 29.5978 44.6319 1.00098 59.9228 1.00098C75.2138 1.00098 88.0828 29.5978 88.0828 64.8738C88.0828 84.8263 82.5735 101.001 75.7776 101.001C68.9816 101.001 63.4724 84.8263 63.4724 64.8738C63.4724 29.5978 75.8681 1.00098 91.1591 1.00098C106.45 1.00098 119.319 29.5978 119.319 64.8738C119.319 84.8263 113.81 101.001 107.014 101.001C100.218 101.001 94.7086 84.8263 94.7086 64.8738C94.7086 29.5978 107.104 1.00098 122.395 1.00098C137.686 1.00098 150.555 29.5978 150.555 64.8738C150.555 84.8263 145.046 101.001 138.25 101.001C131.454 101.001 125.945 84.8263 125.945 64.8738C125.945 29.5978 138.341 1.00098 153.631 1.00098C168.922 1.00098 181.791 29.5978 181.791 64.8738C181.791 84.8263 176.282 101.001 169.486 101.001C162.69 101.001 157.181 84.8263 157.181 64.8738C157.181 29.5978 169.577 1.00098 184.868 1.00098C200.159 1.00098 213.028 29.5978 213.028 64.8738C213.028 84.8263 207.518 101.001 200.722 101.001C193.926 101.001 188.417 84.8263 188.417 64.8738C188.417 29.5978 200.813 1.00098 216.104 1.00098C231.395 1.00098 244.264 29.5978 244.264 64.8738C244.264 84.8263 238.755 101.001 231.959 101.001C225.163 101.001 219.653 84.8263 219.653 64.8738C219.653 29.5978 232.049 1.00098 247.34 1.00098C262.631 1.00098 275.5 29.5978 275.5 64.8738" stroke="black" stroke-width="2" stroke-linejoin="round"/>
</svg>
