<svg width="252" height="30" viewBox="0 0 252 30" fill="none" xmlns="http://www.w3.org/2000/svg">
<path d="M1 0.000976562V30.001" stroke="black" stroke-width="2" stroke-linejoin="round"/>
<path d="M63.5 0.000976562V30.001" stroke="black" stroke-width="2" stroke-linejoin="round"/>
<path d="M126 0.000976562V30.001" stroke="black" stroke-width="2" stroke-linejoin="round"/>
<path d="M188.5 0.000976562V30.001" stroke="black" stroke-width="2" stroke-linejoin="round"/>
<path d="M251 0.000976562V30.001" stroke="black" stroke-width="2" stroke-linejoin="round"/>
<path d="M13.5 7.50098V22.501" stroke="black" stroke-width="2" stroke-linejoin="round"/>
<path d="M76 7.50098V22.501" stroke="black" stroke-width="2" stroke-linejoin="round"/>
<path d="M138.5 7.50098V22.501" stroke="black" stroke-width="2" stroke-linejoin="round"/>
<path d="M201 7.50098V22.501" stroke="black" stroke-width="2" stroke-linejoin="round"/>
<path d="M26 7.50098V22.501" stroke="black" stroke-width="2" stroke-linejoin="round"/>
<path d="M88.5 7.50098V22.501" stroke="black" stroke-width="2" stroke-linejoin="round"/>
<path d="M151 7.50098V22.501" stroke="black" stroke-width="2" stroke-linejoin="round"/>
<path d="M213.5 7.50098V22.501" stroke="black" stroke-width="2" stroke-linejoin="round"/>
<path d="M38.5 7.50098V22.501" stroke="black" stroke-width="2" stroke-linejoin="round"/>
<path d="M101 7.50098V22.501" stroke="black" stroke-width="2" stroke-linejoin="round"/>
<path d="M163.5 7.50098V22.501" stroke="black" stroke-width="2" stroke-linejoin="round"/>
<path d="M226 7.50098V22.501" stroke="black" stroke-width="2" stroke-linejoin="round"/>
<path d="M51 7.50098V22.501" stroke="black" stroke-width="2" stroke-linejoin="round"/>
<path d="M113.5 7.50098V22.501" stroke="black" stroke-width="2" stroke-linejoin="round"/>
<path d="M176 7.50098V22.501" stroke="black" stroke-width="2" stroke-linejoin="round"/>
<path d="M238.5 7.50098V22.501" stroke="black" stroke-width="2" stroke-linejoin="round"/>
</svg>
