<svg width="252" height="30" viewBox="0 0 252 30" fill="none" xmlns="http://www.w3.org/2000/svg">
<path d="M1 0.000976562V30.001" stroke="black" stroke-width="2" stroke-linejoin="round"/>
<path d="M63.5 0.000976562V30.001" stroke="black" stroke-width="2" stroke-linejoin="round"/>
<path d="M126 0.000976562V30.001" stroke="black" stroke-width="2" stroke-linejoin="round"/>
<path d="M188.5 0.000976562V30.001" stroke="black" stroke-width="2" stroke-linejoin="round"/>
<path d="M251 0.000976562V30.001" stroke="black" stroke-width="2" stroke-linejoin="round"/>
<path d="M13.5 15.001V30.001" stroke="black" stroke-width="2" stroke-linejoin="round"/>
<path d="M76 15.001V30.001" stroke="black" stroke-width="2" stroke-linejoin="round"/>
<path d="M138.5 15.001V30.001" stroke="black" stroke-width="2" stroke-linejoin="round"/>
<path d="M201 15.001V30.001" stroke="black" stroke-width="2" stroke-linejoin="round"/>
<path d="M26 15.001V30.001" stroke="black" stroke-width="2" stroke-linejoin="round"/>
<path d="M88.5 15.001V30.001" stroke="black" stroke-width="2" stroke-linejoin="round"/>
<path d="M151 15.001V30.001" stroke="black" stroke-width="2" stroke-linejoin="round"/>
<path d="M213.5 15.001V30.001" stroke="black" stroke-width="2" stroke-linejoin="round"/>
<path d="M38.5 15.001V30.001" stroke="black" stroke-width="2" stroke-linejoin="round"/>
<path d="M101 15.001V30.001" stroke="black" stroke-width="2" stroke-linejoin="round"/>
<path d="M163.5 15.001V30.001" stroke="black" stroke-width="2" stroke-linejoin="round"/>
<path d="M226 15.001V30.001" stroke="black" stroke-width="2" stroke-linejoin="round"/>
<path d="M51 15.001V30.001" stroke="black" stroke-width="2" stroke-linejoin="round"/>
<path d="M113.5 15.001V30.001" stroke="black" stroke-width="2" stroke-linejoin="round"/>
<path d="M176 15.001V30.001" stroke="black" stroke-width="2" stroke-linejoin="round"/>
<path d="M238.5 15.001V30.001" stroke="black" stroke-width="2" stroke-linejoin="round"/>
</svg>
