<svg width="252" height="26" viewBox="0 0 252 26" fill="none" xmlns="http://www.w3.org/2000/svg">
<path d="M1 0.000976562V25.001H251V0.000976562M63.5 0.000976562V25.001M126 0.000976562V25.001M188.5 0.000976562V25.001M13.5 10.001V25.001M76 10.001V25.001M138.5 10.001V25.001M201 10.001V25.001M26 10.001V25.001M88.5 10.001V25.001M151 10.001V25.001M213.5 10.001V25.001M38.5 10.001V25.001M101 10.001V25.001M163.5 10.001V25.001M226 10.001V25.001M51 10.001V25.001M113.5 10.001V25.001M176 10.001V25.001M238.5 10.001V25.001" stroke="black" stroke-width="2" stroke-linejoin="round"/>
</svg>
