<svg width="250" height="30" viewBox="0 0 250 30" fill="none" xmlns="http://www.w3.org/2000/svg">
<path d="M25 0.000976562V30.001" stroke="black" stroke-width="2" stroke-linejoin="round"/>
<path d="M75 0.000976562V30.001" stroke="black" stroke-width="2" stroke-linejoin="round"/>
<path d="M125 0.000976562V30.001" stroke="black" stroke-width="2" stroke-linejoin="round"/>
<path d="M175 0.000976562V30.001" stroke="black" stroke-width="2" stroke-linejoin="round"/>
<path d="M225 0.000976562V30.001" stroke="black" stroke-width="2" stroke-linejoin="round"/>
<path d="M35 7.50098V22.501" stroke="black" stroke-width="2" stroke-linejoin="round"/>
<path d="M85 7.50098V22.501" stroke="black" stroke-width="2" stroke-linejoin="round"/>
<path d="M135 7.50098V22.501" stroke="black" stroke-width="2" stroke-linejoin="round"/>
<path d="M185 7.50098V22.501" stroke="black" stroke-width="2" stroke-linejoin="round"/>
<path d="M45 7.50098V22.501" stroke="black" stroke-width="2" stroke-linejoin="round"/>
<path d="M95 7.50098V22.501" stroke="black" stroke-width="2" stroke-linejoin="round"/>
<path d="M145 7.50098V22.501" stroke="black" stroke-width="2" stroke-linejoin="round"/>
<path d="M195 7.50098V22.501" stroke="black" stroke-width="2" stroke-linejoin="round"/>
<path d="M55 7.50098V22.501" stroke="black" stroke-width="2" stroke-linejoin="round"/>
<path d="M105 7.50098V22.501" stroke="black" stroke-width="2" stroke-linejoin="round"/>
<path d="M155 7.50098V22.501" stroke="black" stroke-width="2" stroke-linejoin="round"/>
<path d="M205 7.50098V22.501" stroke="black" stroke-width="2" stroke-linejoin="round"/>
<path d="M65 7.50098V22.501" stroke="black" stroke-width="2" stroke-linejoin="round"/>
<path d="M115 7.50098V22.501" stroke="black" stroke-width="2" stroke-linejoin="round"/>
<path d="M165 7.50098V22.501" stroke="black" stroke-width="2" stroke-linejoin="round"/>
<path d="M215 7.50098V22.501" stroke="black" stroke-width="2" stroke-linejoin="round"/>
<path d="M0 15.001H250" stroke="black" stroke-width="2" stroke-linejoin="round"/>
</svg>
