<svg width="250" height="33" viewBox="0 0 250 33" fill="none" xmlns="http://www.w3.org/2000/svg">
<path d="M25 1.50098V31.501" stroke="black" stroke-width="2" stroke-linejoin="round"/>
<path d="M75 1.50098V31.501" stroke="black" stroke-width="2" stroke-linejoin="round"/>
<path d="M125 1.50098V31.501" stroke="black" stroke-width="2" stroke-linejoin="round"/>
<path d="M175 1.50098V31.501" stroke="black" stroke-width="2" stroke-linejoin="round"/>
<path d="M225 1.50098V31.501" stroke="black" stroke-width="2" stroke-linejoin="round"/>
<path d="M35 16.501V31.501" stroke="black" stroke-width="2" stroke-linejoin="round"/>
<path d="M85 16.501V31.501" stroke="black" stroke-width="2" stroke-linejoin="round"/>
<path d="M135 16.501V31.501" stroke="black" stroke-width="2" stroke-linejoin="round"/>
<path d="M185 16.501V31.501" stroke="black" stroke-width="2" stroke-linejoin="round"/>
<path d="M45 16.501V31.501" stroke="black" stroke-width="2" stroke-linejoin="round"/>
<path d="M95 16.501V31.501" stroke="black" stroke-width="2" stroke-linejoin="round"/>
<path d="M145 16.501V31.501" stroke="black" stroke-width="2" stroke-linejoin="round"/>
<path d="M195 16.501V31.501" stroke="black" stroke-width="2" stroke-linejoin="round"/>
<path d="M55 16.501V31.501" stroke="black" stroke-width="2" stroke-linejoin="round"/>
<path d="M105 16.501V31.501" stroke="black" stroke-width="2" stroke-linejoin="round"/>
<path d="M155 16.501V31.501" stroke="black" stroke-width="2" stroke-linejoin="round"/>
<path d="M205 16.501V31.501" stroke="black" stroke-width="2" stroke-linejoin="round"/>
<path d="M65 16.501V31.501" stroke="black" stroke-width="2" stroke-linejoin="round"/>
<path d="M115 16.501V31.501" stroke="black" stroke-width="2" stroke-linejoin="round"/>
<path d="M165 16.501V31.501" stroke="black" stroke-width="2" stroke-linejoin="round"/>
<path d="M215 16.501V31.501" stroke="black" stroke-width="2" stroke-linejoin="round"/>
<path d="M0 31.501H250" stroke="black" stroke-width="2" stroke-linejoin="round"/>
</svg>
