<svg width="250" height="62" viewBox="0 0 250 62" fill="none" xmlns="http://www.w3.org/2000/svg">
<path d="M248.927 60.5075C229.517 57.0246 210.168 48.6853 191.533 40.8002C179.808 35.8387 166.918 29.5469 157.121 19.2811C155.691 17.7824 145.729 6.81357 150.106 3.54705C156.802 -1.44901 167.737 3.87036 174.103 6.88458C184.632 11.8705 194.763 18.6468 203.626 27.8315C206.663 30.9779 216.29 39.0162 215.01 46.0131C212.843 57.8649 194.056 54.1385 188.062 53.5464C161.232 50.8963 134.677 43.5102 108.656 34.5384C107.647 34.1905 100.575 32.1642 100.791 32.4087C103.935 35.967 107.752 38.3681 111.159 41.4041C112.303 42.4233 119.172 48.642 115.198 50.5267C112.992 51.573 110.198 51.4646 107.923 51.6074C101.171 52.0315 94.3921 51.9926 87.635 51.8617C70.7691 51.5351 54.0217 49.3868 37.3037 46.4581C25.1887 44.3358 13.292 42.0091 1.07268 41.6266" stroke="black" stroke-width="2" stroke-linecap="round" stroke-linejoin="round"/>
</svg>
