<svg width="250" height="104" viewBox="0 0 250 104" fill="none" xmlns="http://www.w3.org/2000/svg">
<path d="M1.15234 80.4228C14.952 68.4136 29.6749 57.5182 43.5966 45.6354C52.6885 37.8751 61.6869 30.0001 70.6716 22.1159C76.5117 16.9912 83.6173 11.9558 88.2748 5.61653C88.9221 4.73556 91.1179 1.61047 88.3195 1.90528C78.8031 2.90781 67.5753 13.9592 60.8424 19.7014C40.1529 37.3465 23.4283 60.6193 9.41781 83.7764C8.81576 84.7714 -3.46709 104.452 3.83303 101.885C11.3093 99.2566 18.2935 93.2461 24.8318 89.0079C37.4378 80.8365 50.1602 72.9024 63.121 65.3095C67.9019 62.5087 72.4516 59.3196 77.2393 56.5456C82.1304 53.7117 75.6745 60.5257 75.3181 60.9276C68.9357 68.1247 62.1753 74.9823 55.9278 82.3008C53.0439 85.6791 42.5051 95.8911 43.5519 101.304C44.4969 106.19 91.5985 82.5977 94.9318 81.0935C96.9089 80.2014 130.346 63.3211 129.289 72.732C128.69 78.0741 115.71 94.6055 126.251 96.028C142.632 98.2384 159.984 86.1504 174.593 80.3334C180.151 78.1206 170.945 88.7235 170.885 91.5119C170.686 100.652 206.514 92.8142 211.319 92.2273C223.975 90.6811 236.178 93.603 248.848 90.8859" stroke="black" stroke-width="2" stroke-linecap="round" stroke-linejoin="round"/>
</svg>
