<svg width="250" height="82" viewBox="0 0 250 82" fill="none" xmlns="http://www.w3.org/2000/svg">
<path d="M1 75.2066C6.4765 72.0332 12.2077 69.5379 18.0393 67.0811C35.2741 59.8204 52.2749 52.0356 69.4884 44.7269C106.034 29.2098 143.261 15.8061 181.624 5.49673C184.98 4.59481 187.313 4.05262 190.604 3.21719C192.233 2.80352 196.25 0.501765 195.498 2.00388C194.96 3.07947 188.158 5.94362 187.88 6.085C180.239 9.98065 172.522 13.7034 164.769 17.3724C144.045 27.1797 123.539 37.4155 103.125 47.8521C97.3131 50.8236 80.8811 60.6873 85.2397 55.8305C91.1 49.3002 101.183 44.9929 109.198 42.0429C114.006 40.2732 128.883 34.4027 133.929 38.7339C137.559 41.85 129.86 53.6003 128.592 56.3084C126.781 60.1779 123.649 65.5692 124.802 70.1327C126.062 75.1191 131.728 76.5847 136.063 76.9714C150.172 78.2299 164.966 72.6422 178.606 69.9121C196.569 66.317 214.783 63.6326 233.147 64.103C235.888 64.1732 248.219 63.41 248.972 68.0738C249.521 71.474 241.956 78.2535 240.139 80.501" stroke="black" stroke-width="2" stroke-linecap="round" stroke-linejoin="round"/>
</svg>
