<svg width="250" height="48" viewBox="0 0 250 48" fill="none" xmlns="http://www.w3.org/2000/svg">
<path d="M1.03516 45.9988C20.4509 43.4022 39.8059 37.185 58.446 31.3064C70.1749 27.6074 83.069 22.9167 92.8688 15.2633C94.2995 14.146 104.265 5.96836 99.8857 3.53307C93.1882 -0.191644 82.2493 3.77411 75.8818 6.0213C65.3492 9.73845 55.2159 14.7904 46.3495 21.6379C43.3122 23.9836 33.6817 29.9764 34.9619 35.1928C37.1303 44.0286 55.9226 41.2505 61.919 40.8091C88.7571 38.8333 115.32 33.3268 141.349 26.638C142.358 26.3787 149.433 24.868 149.216 25.0503C146.071 27.7031 142.253 29.4932 138.845 31.7567C137.701 32.5165 130.829 37.1527 134.805 38.5578C137.012 39.3378 139.806 39.257 142.081 39.3635C148.836 39.6797 155.617 39.6507 162.376 39.5531C179.247 39.3096 196 37.708 212.723 35.5245C224.841 33.9423 236.742 32.2077 248.965 31.9225" stroke="black" stroke-width="2" stroke-linecap="round" stroke-linejoin="round"/>
</svg>
