<svg width="252" height="38" viewBox="0 0 252 38" fill="none" xmlns="http://www.w3.org/2000/svg">
<path d="M250.008 17.0814C244.389 17.0814 244.389 35.4916 238.747 35.4916C233.104 35.4916 233.128 36.6101 227.485 36.6101C221.843 36.6101 221.843 29.8385 216.224 29.8385C210.606 29.8385 210.581 3.8103 204.939 3.8103C199.296 3.8103 199.32 1.84535 193.677 1.84535C188.035 1.84535 188.035 5.04975 182.392 5.04975C176.749 5.04975 176.773 15.8722 171.13 15.8722C165.488 15.8722 165.488 32.5895 159.869 32.5895C154.251 32.5895 154.226 19.0766 148.584 19.0766C142.941 19.0766 142.941 1.39187 137.322 1.39187C131.704 1.39187 131.68 34.6451 126.061 34.6451C120.443 34.6451 120.418 14.27 114.776 14.27C109.133 14.27 109.157 25.576 103.514 25.576C97.8715 25.576 97.8715 5.77528 92.2532 5.77528C86.6348 5.77528 86.6103 23.5204 80.9674 23.5204C75.3246 23.5204 75.3246 1.42212 69.6817 1.42212C64.0388 1.42212 64.0634 30.9571 58.4205 30.9571C52.7777 30.9571 52.7777 23.5204 47.1348 23.5204C41.4919 23.5204 41.5165 26.5434 35.8736 26.5434C30.2308 26.5434 30.2307 20.7694 24.5879 20.7694C18.945 20.7694 18.9451 2.1174 13.2777 2.1174C7.61028 2.1174 7.6348 31.9849 1.99194 31.9849" stroke="black" stroke-width="2" stroke-linecap="round" stroke-linejoin="round"/>
</svg>
