<svg width="252" height="80" viewBox="0 0 252 80" fill="none" xmlns="http://www.w3.org/2000/svg">
<path d="M1.99219 1.8064C82.2655 5.04426 162.559 5.66443 242.834 8.78543C249.794 9.05603 247.145 8.6654 249.785 9.19782C250.216 9.28472 250.034 9.19664 249.141 9.51505C237.772 13.5648 226.277 16.2018 214.805 18.4926C169.812 27.4778 124.511 28.8814 79.3965 33.9734C77.7933 34.1543 76.1894 34.3133 74.5877 34.5444C74.1366 34.6095 72.8544 34.3598 73.2395 34.8616C73.7335 35.5053 74.3976 35.0069 74.9772 35.052C76.5748 35.1761 78.1736 35.2331 79.771 35.3692C95.0999 36.6746 110.387 40.3014 125.641 43.5854C138.72 46.401 151.822 49.1104 164.83 53.1974C166.747 53.7996 172.439 55.8736 174.747 56.7504C175.408 57.0012 176.068 57.2556 176.725 57.5435C176.937 57.6365 177.269 57.4704 177.354 57.8924C177.359 57.9186 169.986 61.0428 169.924 61.0647C163.536 63.2911 157.093 64.7994 150.659 66.2672C148.943 66.6587 147.217 66.8662 145.505 67.3458C145.23 67.4231 146.009 67.8943 146.284 67.9803C152.088 69.7937 157.953 70.8553 163.782 72.2311C171.428 74.036 179.061 76.0412 186.702 77.9413C186.716 77.9448 189.388 78.3219 187.78 78.3219" stroke="black" stroke-width="2" stroke-linecap="round" stroke-linejoin="round"/>
</svg>
