<svg width="252" height="156" viewBox="0 0 252 156" fill="none" xmlns="http://www.w3.org/2000/svg">
<path d="M1.99219 79.4056C20.3087 64.0916 32.9512 54.5117 49.2028 37.1485C54.6971 31.2784 59.761 24.9914 64.4768 18.4784C67.4016 14.439 70.204 10.2099 72.0604 5.58042C72.5342 4.39882 72.396 2.04136 71.1347 1.87491C67.5539 1.40236 57.4746 12.4037 57.3917 12.4926C46.7376 23.9097 37.4274 37.7841 31.6145 52.3269C28.9264 59.0522 25.4842 70.841 27.5557 78.6217C30.789 90.7665 44.8276 91.9534 54.7926 90.5221C67.9481 88.6325 78.8239 83.805 90.966 78.5505C96.9315 75.9689 102.688 72.9202 108.661 70.3556C109.21 70.1197 124.178 62.5193 128.172 66.0087C132.038 69.3862 129.753 86.9133 129.667 87.9568C128.372 103.786 122.187 124.959 130.237 140.119C134.886 148.875 142.094 149.621 151.065 149.169C168.374 148.296 184.299 139.649 199.949 133.207C205.278 131.013 218.681 125.207 225.37 124.656C236.154 123.767 234.292 133.814 233.524 140.76C233.477 141.177 231.127 151.611 233.417 153.73C237.139 157.172 248.326 144.712 250.008 143.539" stroke="black" stroke-width="2" stroke-linecap="round" stroke-linejoin="round"/>
</svg>
