<svg width="252" height="186" viewBox="0 0 252 186" fill="none" xmlns="http://www.w3.org/2000/svg">
<path d="M108.158 1.23535C108.538 8.56542 106.631 26.4267 119.905 19.776C124.599 17.4241 129.726 12.1523 132.827 7.857C135.185 4.59152 135.283 3.04493 130.869 5.69883C113.937 15.8795 98.4284 32.1338 84.8584 46.0664C57.4129 74.2451 31.0932 105.844 12.3179 140.633C10.3512 144.277 -7.82898 174.443 9.23418 175.753C21.6513 176.706 42.4944 165.508 50.8887 161.136C72.1032 150.088 88.5114 139.588 107.179 124.594C123.453 111.522 134.088 100.92 146.777 84.7172C151.918 78.1533 162.498 64.2739 164.105 54.3557C165.767 44.0932 156.256 48.8886 151.819 51.0694C139.541 57.104 127.494 67.7653 117.849 76.9184C100.079 93.7834 81.6663 113.895 70.8594 136.219C67.7083 142.728 62.2288 157.017 68.0204 164.864C73.3082 172.028 87.3916 171.444 94.0606 169.965C112.226 165.935 128.285 153.243 141.344 140.682C145.537 136.65 154.238 127.942 156.958 121.504C157.357 120.561 157.537 118.39 156.518 118.463C154.099 118.637 152.096 120.539 150.155 121.995C138.63 130.639 128.403 142.858 121.765 155.642C115.31 168.075 110.787 187.72 132.142 184.581C160.659 180.39 186.322 162.411 211.437 149.658C217.432 146.614 228.922 140.377 236.792 141.026C249.606 142.082 239.657 146.445 250.008 151.326" stroke="black" stroke-width="2" stroke-linecap="round" stroke-linejoin="round"/>
</svg>
