<svg width="252" height="194" viewBox="0 0 252 194" fill="none" xmlns="http://www.w3.org/2000/svg">
<path d="M250.008 8.00871C192.798 -17.9976 67.1264 38.4792 122.659 54.909C141.726 60.5502 151.863 63.3976 170.814 71.2434C195.961 81.6539 227.591 95.5103 237.904 123.185C245.517 143.614 237.059 164.423 220.613 177.605C199.442 194.574 171.057 195.05 145.627 189.647C125.121 185.29 105.806 176.896 91.8514 160.694C79.2613 146.077 71.6029 125.207 72.6006 105.9C72.8041 101.962 74.1065 90.7578 78.2778 87.8083C82.8388 84.5834 73.717 98.3123 69.7187 102.213C53.7541 117.786 20.8401 125.526 5.39553 104.517C3.70232 102.214 -2.33591 85.0417 7.41283 88.9031C19.3748 93.641 21.4399 109.379 26.2026 119.267" stroke="black" stroke-width="2" stroke-linecap="round" stroke-linejoin="round"/>
</svg>
