<svg width="252" height="242" viewBox="0 0 252 242" fill="none" xmlns="http://www.w3.org/2000/svg">
<path d="M1.99219 185.378C22.5329 159.48 46.1697 137.109 69.1771 113.371C92.0483 89.7734 121.202 64.0209 133.837 32.4784C136.555 25.6926 138.977 11.9582 135.768 4.60109C134.705 2.16467 132.635 0.371527 130.308 3.00916C126.838 6.94203 127.251 13.1508 127.82 17.7438C129.873 34.3281 138.388 49.4489 145.647 64.169C159.477 92.2163 174.041 120.293 181.3 150.948C185.959 170.619 189.702 194.014 181.375 213.366C173.863 230.823 153.855 239.959 135.693 240.429C122.06 240.782 105.657 236.607 96.623 225.436C86.957 213.482 91.7478 199.066 99.5941 187.933C113.576 168.092 134.803 153.191 154.412 139.471C177.077 123.613 201.808 110.772 224.233 94.6008C231.821 89.1298 238.365 83.1944 242.172 74.5351C243.044 72.5505 244.865 68.448 243.694 65.835C242.941 64.1528 241.132 64.8592 240.389 65.909C237.922 69.3934 240.378 75.797 241.54 79.1258C243.735 85.4117 247.024 91.4663 250.008 97.4145" stroke="black" stroke-width="2" stroke-linecap="round" stroke-linejoin="round"/>
</svg>
