<svg width="252" height="162" viewBox="0 0 252 162" fill="none" xmlns="http://www.w3.org/2000/svg">
<path d="M3.85979 72.4756C3.27674 71.2415 1.52406 70.0057 2.11062 68.7733C5.83819 60.9411 26.2308 46.037 29.3378 43.5929C41.9146 33.6996 55.0278 24.4967 67.5434 14.5262C70.3511 12.2895 75.8638 8.38511 77.8543 4.33905C79.6852 0.617225 74.4721 1.06183 72.4917 1.28061C66.1008 1.98662 54.7191 4.42872 51.0874 10.5709C47.3139 16.9527 56.2761 25.9803 59.3039 29.8874C70.7706 44.6844 82.5141 59.0222 92.6301 74.8212C99.1609 85.0207 108.26 97.7943 106.37 110.718C105.855 114.241 100.85 123.36 96.7269 117.018C94.063 112.921 95.7781 106.458 98.1308 102.692C104.791 92.0314 118.884 87.7489 130.859 88.9866C155.119 91.4941 169.385 115.985 190.146 125.826C198.517 129.794 206.378 130.441 215.417 128.861C224.095 127.345 234.833 121.84 243.818 124.492C251.917 126.882 250.627 136.634 248.007 142.521C246.295 146.369 242.975 150.822 240.044 153.835C233.212 160.856 238.085 154.799 231.298 160.642" stroke="black" stroke-width="2" stroke-linecap="round" stroke-linejoin="round"/>
</svg>
