<svg width="252" height="190" viewBox="0 0 252 190" fill="none" xmlns="http://www.w3.org/2000/svg">
<path d="M1.99219 131.739C29.6781 108.907 55.0113 89.3916 80.0262 63.7563C92.3606 51.116 107.002 33.6596 115.055 17.0536C115.782 15.554 119.668 5.62758 116.026 2.42385C114.638 1.2025 109.894 2.89136 108.969 3.75383C105.835 6.67766 104.441 12.5573 104.06 16.3375C103.212 24.7559 104.338 36.028 105.748 44.1136C109.921 68.0399 118.914 90.8971 125.333 114.244C127.46 121.983 131.511 137.917 132.748 146.164C133.781 153.055 134.616 163.153 132.543 170.155C128.649 183.305 115.91 188.724 103.191 188.161C91.7844 187.655 80.851 182.785 81.3046 169.643C81.9292 151.547 94.1012 135.121 106.464 123.043C120.062 109.757 136.277 98.7712 152.333 88.719C157.369 85.566 167.97 79.3025 173.401 76.4935C175.605 75.3538 184.878 70.6996 188.384 70.5597C192.217 70.4067 192.494 74.1171 192.526 76.8004C192.569 80.3951 190.69 92.2461 190.378 95.1132C188.648 111.039 188.192 128.489 198.356 142.072C211.148 159.169 234.182 154.068 249.85 144.936C250.58 144.511 248.582 146.055 247.958 146.624C243.989 150.246 240.931 153.263 237.321 157.418C229.89 165.971 224.573 175.103 218.759 184.682" stroke="black" stroke-width="2" stroke-linecap="round" stroke-linejoin="round"/>
</svg>
