<svg width="252" height="110" viewBox="0 0 252 110" fill="none" xmlns="http://www.w3.org/2000/svg">
<path d="M1.99219 73.761C13.3952 60.414 21.6427 52.1987 32.9038 38.559C34.4871 36.6412 44.5319 25.1104 45.5839 19.4474C46.3004 15.5897 38.4176 16.1062 37.2236 16.3278C27.643 18.106 14.4485 26.5823 15.0336 37.7709C15.2514 41.9369 18.2124 47.604 20.191 50.9388C25.3566 59.6453 31.9662 67.4378 37.3057 76.0432C41.1922 82.3069 43.9127 87.2444 46.5693 94.0711C47.3927 96.1871 51.8327 106.072 47.4563 108.405C45.7958 109.29 41.7063 108.009 40.525 107.255C34.3255 103.299 32.0054 95.5228 31.6063 88.6201C28.1692 29.1698 93.8545 39.8863 127.774 44.5354C143.406 46.6779 157.326 39.9777 167.67 28.4942C171.893 23.8067 174.231 20.1676 176.999 14.6039C177.999 12.5951 178.788 10.4881 179.644 8.41395C179.802 8.02953 181.66 2.23616 183.06 1.55086C184.706 0.745228 188.32 4.20949 188.678 4.50626C194.17 9.0649 199.073 14.0203 205.529 17.313C218.03 23.6878 233.625 23.909 243.635 12.9127C246.086 10.2199 248.52 5.58411 250.008 2.24046" stroke="black" stroke-width="2" stroke-linecap="round" stroke-linejoin="round"/>
</svg>
