<svg width="251" height="144" viewBox="0 0 251 144" fill="none" xmlns="http://www.w3.org/2000/svg">
<path d="M103.958 51.3298C-155.966 5.46076 160.738 -35.1771 145.116 55.1783C144.171 60.6417 139.519 65.388 134.559 67.4722C132.048 68.5273 124.496 70.7952 121.971 68.6214C119.198 66.233 123.959 61.9574 125.606 60.8175C136.219 53.4703 164.611 51.2482 165.214 69.2361C165.55 79.2902 160.89 86.8593 155.298 94.7325C154.962 95.2057 152.654 97.7379 153.013 98.6612C153.281 99.3484 156.46 98.9498 156.982 98.9552C158.068 98.9663 166.794 99.1629 165.802 101.093C164.92 102.807 162.986 104.068 161.82 105.583C159.67 108.376 158.38 111.469 158.987 115.044C164.252 146.061 230.186 150.721 249.24 131.668" stroke="black" stroke-width="2" stroke-linecap="round" stroke-linejoin="round"/>
</svg>
