<svg width="252" height="122" viewBox="0 0 252 122" fill="none" xmlns="http://www.w3.org/2000/svg">
<path d="M1.99219 65.4967C10.9833 32.667 119.778 -21.0268 73.3132 13.0896C60.5266 22.478 48.8516 32.5156 39.7851 46.6301C19.7809 77.7723 98.2568 41.4194 120.62 38.6942C134.304 37.0266 148.814 36.7606 162.153 32.5551C172.135 29.4078 158.835 29.2116 156.707 29.4106C141.55 30.8283 105.196 45.4681 123.769 69.6893C126.887 73.7548 134.618 75.9312 135.842 81.5183C136.889 86.2975 122.621 94.917 120.357 98.4384C109.075 115.994 133.891 118 143.191 118.877C179.704 122.323 214.155 115.868 250.008 109.968" stroke="black" stroke-width="2" stroke-linecap="round" stroke-linejoin="round"/>
</svg>
