<svg width="252" height="188" viewBox="0 0 252 188" fill="none" xmlns="http://www.w3.org/2000/svg">
<path d="M5.45582 118.188C-9.49005 134.93 28.4709 110.501 32.9563 107.338C60.4866 87.9208 101.431 56.1344 127.543 35.29C135.365 29.0452 177.173 -11.5915 150.761 6.54712C138.838 14.7354 129.185 27.8142 120.12 38.8115C101.87 60.9523 85.8131 84.8239 71.3998 109.622C53.8284 139.853 39.3583 168.687 88.2427 163.301C120.385 159.759 152.909 143.941 177.881 123.755C213.485 94.9761 192.745 90.0463 164.987 115.808C151.934 127.923 140.503 140.995 131.397 156.353C119.68 176.112 117.765 190.272 143.862 184.953C181.676 177.246 220.006 160.029 250.01 135.843" stroke="black" stroke-width="2" stroke-linecap="round" stroke-linejoin="round"/>
</svg>
