<svg width="252" height="190" viewBox="0 0 252 190" fill="none" xmlns="http://www.w3.org/2000/svg">
<path d="M1.99219 125.715C7.2549 92.0062 15.4908 50.5418 37.3654 20.1656C69.1864 -24.0226 122.857 16.8938 94.6244 64.2852C90.7858 70.9435 87.0638 76.1558 83.5809 80.1834M83.5809 80.1834C60.0256 107.423 47.4048 80.4739 83.5809 80.1834ZM83.5809 80.1834C84.1913 80.1785 84.8156 80.1812 85.454 80.1919C105.041 80.5192 157.299 78.1766 137.206 119.834C129.877 135.03 120.4 149.466 112.327 164.309C109.872 168.823 97.4145 186.753 107.459 185.285C120.33 183.403 135.026 176.502 147.514 168.794C152.735 165.571 159.107 160.846 164.225 156.956C166.055 155.566 170.724 150.891 169.84 153.153C166.044 162.865 160.563 172.853 167.316 179.626C182.031 194.383 229.051 186.33 250.008 188.227" stroke="black" stroke-width="2" stroke-linecap="round" stroke-linejoin="round"/>
</svg>
