<svg width="252" height="190" viewBox="0 0 252 190" fill="none" xmlns="http://www.w3.org/2000/svg">
<path d="M64.1563 116.281C90.4952 88.4136 121.84 60.3031 135.938 23.4477C137.518 19.3181 143.672 4.0672 133.187 2.0433C127.426 0.931389 118.472 8.42779 115.211 11.0331C84.7285 35.3855 69.0173 72.0082 60.1209 108.943C54.4887 132.325 50.1516 173.451 25.2082 186.06C13.4343 192.011 0.075301 184.122 2.21844 170.649C3.75005 161.019 11.0506 152.223 17.8099 145.758C37.4 127.021 62.941 114.775 87.0238 103.072C108.739 92.5193 131.031 83.1122 152.447 71.9439C162.853 66.5168 175.762 59.977 183.691 50.8453C188.527 45.2747 172.642 45.2748 170.301 45.8305C160.587 48.136 152.287 57.9459 146.21 65.0333C131.907 81.7151 120.813 100.83 109.524 119.584C104.165 128.488 98.8545 137.401 93.0158 146.003C89.6054 151.027 85.8679 157.473 80.298 160.497C78.1338 161.672 76.789 161.416 76.9963 158.601C77.6059 150.326 82.1999 142.428 87.0238 135.973C107.372 108.745 135.897 89.1138 165.776 73.6562C170.107 71.4157 173.841 69.6169 178.249 67.7853C179.426 67.2964 182.214 66.0336 182.04 67.296C181.585 70.5936 179.044 73.248 177.332 76.1024C172.91 83.4736 170.464 87.08 166.204 94.9994C158.886 108.603 152.576 122.781 147.678 137.441C145.791 143.088 141.507 156.621 147.311 155.299C153.437 153.903 160.52 148.098 165.042 144.474C184.023 129.263 201.341 111.542 217.442 93.3482C231.986 76.9133 220.025 89.7214 227.408 87.7831C234.355 85.9593 241.313 81.2476 247.341 77.509C254.228 73.2367 245.739 77.2999 244.65 77.7536" stroke="black" stroke-width="2" stroke-linecap="round" stroke-linejoin="round"/>
</svg>
