<svg width="250" height="170" viewBox="0 0 250 170" fill="none" xmlns="http://www.w3.org/2000/svg">
<path d="M13.9877 168.159C-0.911386 143.023 -1.11239 106.517 4.27962 78.3568C26.0324 -35.2507 95.4439 -19.2424 75.5881 105.782C73.5163 118.827 69.1084 132.646 59.5235 141.329C57.3418 143.305 53.6372 145.93 51.1252 143.157C48.2631 139.998 48.0981 133.657 47.658 129.678C46.3104 117.496 43.7962 100.268 51.6645 89.9222C58.7017 80.6693 71.1113 77.7153 81.4823 79.8025C89.0077 81.3169 92.3813 85.9609 93.5789 93.9191C94.9247 102.861 95.482 112.987 93.656 121.897C93.3719 123.283 90.4052 135.598 87.2224 131.932C80.7641 124.494 93.9311 115.3 99.5502 115.392C107.199 115.517 118.174 119.782 122.318 127.382C124.834 131.997 123.975 142.175 119.39 145.283C114.878 148.343 112.527 135.797 112.456 132.952C112.39 130.321 113.178 130.838 114.613 132.442C119.097 137.453 123.291 141.178 130.061 141.244C133.041 141.273 139.449 140.369 139.192 135.546C139.039 132.674 137.097 134.998 136.996 136.567C136.545 143.533 142.057 148.088 147.783 149.195C159.797 151.518 176.362 145.042 181.029 131.592C181.501 130.231 182.11 121.239 178.101 122.918C174.408 124.464 178.188 134.332 179.103 136.014C182.86 142.925 190.639 147.852 197.826 144.008C199.802 142.95 205.321 134.435 200.291 133.378C196.623 132.607 202.484 141.585 205.068 144.56C216.483 157.703 232.79 162.925 248.947 163.014" stroke="black" stroke-width="2" stroke-linecap="round" stroke-linejoin="round"/>
</svg>
