<svg width="250" height="190" viewBox="0 0 250 190" fill="none" xmlns="http://www.w3.org/2000/svg">
<path d="M33.6865 188.102C-10.134 162.251 -5.81819 98.2981 22.9016 62.7677C35.3676 47.3456 57.5881 33.9788 76.2624 46.6929C79.9021 49.1709 82.8322 52.3688 85.2009 56.0376M85.2009 56.0376C92.9638 68.061 94.6988 85.1409 95.6277 98.5073M85.2009 56.0376C81.4941 55.2102 77.5532 55.2725 73.9449 56.1857C20.3354 69.7536 8.67691 170.945 72.2669 159.127C78.8745 157.899 84.0499 152.838 87.8091 147.029M85.2009 56.0376C88.4383 56.7603 91.4971 58.1616 93.9996 60.2674C101.563 66.6317 108.072 76.9652 112.316 86.9376M95.6277 98.5073C95.6856 99.3413 95.7404 100.161 95.7934 100.964C96.5918 113.071 97.1235 126.253 92.5208 137.807C91.3305 140.795 89.7606 144.013 87.8091 147.029M95.6277 98.5073C90.3458 103.387 86.17 109.083 82.8811 115.935C78.7664 124.509 75.3029 135.473 82.8664 143.246C84.2991 144.719 85.9782 145.986 87.8091 147.029M95.6277 98.5073C98.0418 96.2769 100.687 94.2168 103.584 92.2943C106.167 90.5803 109.153 88.6833 112.316 86.9376M87.8091 147.029C91.7336 149.264 96.3555 150.47 100.742 150.465C110.996 150.454 115.1 140.13 116.8 131.568C117.461 128.242 117.912 124.806 118.14 121.33M112.316 86.9376C113.61 89.9784 114.694 92.9856 115.533 95.8365C117.397 102.175 118.291 108.997 118.313 115.802M112.316 86.9376C117.289 84.1935 122.7 81.8232 127.678 81.1246C133.748 80.2726 136.944 86.1299 138.793 91.0114C138.913 91.3264 139.03 91.6435 139.144 91.9625M118.313 115.802C118.319 117.649 118.261 119.495 118.14 121.33M118.313 115.802C118.165 116.773 118.076 117.772 118.052 118.798C118.034 119.557 118.063 120.411 118.14 121.33M118.313 115.802C119.365 108.909 123.428 103.377 128.946 98.8987C131.442 96.8739 135.12 94.1715 139.144 91.9625M118.14 121.33C118.734 128.364 122.186 139.207 129.375 140.567C134.012 141.444 138.041 134.1 139.319 131.02C144.295 119.029 143.489 104.071 139.144 91.9625M139.144 91.9625C144.239 89.1661 149.887 87.1606 154.391 88.3226C156.549 88.8793 158.299 92.0601 159.331 95.8775M159.331 95.8775C160.913 101.73 160.806 109.079 157.893 110.762C155.801 111.97 156.942 105.91 157.393 103.538C157.884 100.957 158.522 98.388 159.331 95.8775ZM159.331 95.8775C161.609 88.8073 165.237 82.1971 170.725 77.0547C173.697 74.2691 179.025 69.9748 183.565 70.4616C186.491 70.7752 186.383 74.3264 188.816 75.0325C191.732 75.8785 197.556 66.6734 197.931 66.194C214.489 45.0159 231.255 24.0456 248.042 3.04965L248.962 1.89893" stroke="black" stroke-width="2" stroke-linecap="round" stroke-linejoin="round"/>
</svg>
