<svg width="250" height="118" viewBox="0 0 250 118" fill="none" xmlns="http://www.w3.org/2000/svg">
<path d="M68.8183 1.23438C52.7044 8.24042 47.6215 9.28253 32.3415 24.6613C22.9987 34.0645 13.0676 43.6843 7.49961 55.7137C-6.21136 85.3352 2.20888 97.7271 31.9485 108.935C60.6705 119.76 107.791 120.855 134.382 102.017C148.261 92.1853 159.921 70.9278 162.604 54.3772C166.772 28.6789 141.786 21.5184 120.861 22.1456C90.7045 23.0495 62.9886 47.5791 50.4227 73.7162C47.2535 80.3082 32.815 107.884 46.9637 110.979C63.8325 114.669 84.065 96.0374 90.8302 82.2065C93.9464 75.8354 93.9146 51.5606 85.8775 68.5277C80.5019 79.8762 77.447 105.674 92.2452 112.158C113.372 121.416 142.754 97.0348 153.407 81.4204C158.729 73.619 169.184 46.3543 150.419 46.0442C140.776 45.8848 131.164 55.534 132.102 65.3832C133.906 84.3265 160.309 79.8892 171.724 76.5463C177.482 74.86 196.087 70.6879 194.443 60.8236C194.049 58.4584 185.902 62.429 189.255 67.8988C198.382 82.7908 226.633 82.1561 241.454 80.1625C246.777 79.4467 252.646 77.1325 245.699 74.8168" stroke="black" stroke-width="2" stroke-linecap="round" stroke-linejoin="round"/>
</svg>
