<svg width="250" height="198" viewBox="0 0 250 198" fill="none" xmlns="http://www.w3.org/2000/svg">
<path d="M59.2063 196.618C53.254 192.459 43.2692 185.572 39.0094 181.801C27.6836 171.774 7.4563 153.297 2.61931 135.621C-8.94052 93.3758 44.9992 78.3847 67.0359 72.2442C89.8305 65.8926 113.072 62.9139 135.545 54.6156C145.51 50.9361 157.287 46.1393 161.348 33.0937C166.804 15.5649 148.131 1.74723 135.901 1.4055C102.993 0.485924 76.546 29.599 59.8291 60.9965C54.862 70.3257 17.1837 141.672 46.3052 135.837C56.5354 133.787 61.9339 127.369 69.3492 122.318C77.5161 116.755 87.323 110.576 93.1051 101.229C94.3631 99.1951 97.3601 93.4736 95.3294 94.0907C91.6312 95.2145 87.1638 100.995 84.7416 104.149C81.4787 108.396 65.7808 140.137 77.3568 139.514C88.9658 138.889 107.779 129.862 112.946 116.045C113.052 115.762 114.014 109.72 112.056 111.611C109.118 114.45 107.089 121.078 105.917 125.13C105.203 127.599 102.756 136.208 106.54 137.567C111.766 139.444 119.495 133.208 123.267 129.78C123.763 129.33 132.347 120.892 130.474 118.425C129.882 117.645 127.075 124.157 127.004 124.373C119.881 145.908 156.311 136.322 162.237 133.998C174.448 129.211 186.78 123.462 198.271 116.478C200.593 115.067 199.131 117.24 199.25 119.398C199.63 126.237 204.28 126.555 209.126 126.644C222.408 126.889 235.763 124.837 248.986 123.616" stroke="black" stroke-width="2" stroke-linecap="round" stroke-linejoin="round"/>
</svg>
