<svg width="250" height="182" viewBox="0 0 250 182" fill="none" xmlns="http://www.w3.org/2000/svg">
<path d="M179.914 25.8152C178.417 24.1063 180.052 26.1713 179.324 20.7494C178.661 15.8042 177.523 7.09913 172.834 3.78459C155.583 -8.40968 133.208 23.9025 125.634 34.2976C93.4628 78.45 72.9785 132.373 31.7048 169.545C23.8805 176.591 3.94332 190.366 1.49653 171.076C-3.95518 128.096 42.2211 102.042 75.0113 86.0166C81.3988 82.8949 94.7285 77.1341 102.152 74.4712C102.428 74.3719 108.703 72.0569 110.648 72.704C112.501 73.3209 114.228 80.0743 114.896 81.5398C121.428 95.8883 130.264 77.5602 133.894 70.3478C135.435 67.2858 145.53 38.1099 136.962 38.421C132.345 38.5886 127.262 45.9249 124.926 48.7884C114.663 61.3689 105.791 75.2366 97.5495 89.1975C87.3098 106.544 84.8696 125.368 77.7253 143.744C76.7106 146.354 73.2999 155.163 68.8752 151.755C60.4696 145.281 69.1045 130.81 74.0672 125.719C82.6449 116.919 95.3282 110.774 107.58 109.461C114.485 108.721 119.193 112.637 123.982 117.001C131.473 123.827 133.032 130.175 140.856 119.828C147.889 110.528 152.204 99.0894 156.196 88.2551C158.094 83.1028 161.421 75.8053 160.562 69.9944C159.984 66.0823 156.285 72.0891 155.96 72.704C154.558 75.3615 152.209 81.5481 153.6 84.6029C155.219 88.1596 175.991 77.9437 176.728 77.6521C200.61 68.2059 224.763 59.885 248.945 51.2624" stroke="black" stroke-width="2" stroke-linecap="round" stroke-linejoin="round"/>
</svg>
