<svg width="250" height="302" viewBox="0 0 250 302" fill="none" xmlns="http://www.w3.org/2000/svg">
<path d="M5.06043 206.956C-1.85144 205.893 0.963295 206.824 11.7701 191.978C52.3073 136.289 103.583 90.0878 158.725 49.1995C176.97 35.67 195.683 22.5939 215.577 11.6327C224.527 6.70184 234.485 0.672498 244.633 1.86646C261.627 3.86607 219.993 76.4045 218.932 78.2584C203.209 105.734 185.626 128.9 164.775 152.913C128.106 195.142 87.9276 236.305 43.4016 270.347C40.4374 272.613 16.6852 292.138 6.61804 288.321C1.49601 286.38 3.28293 275.058 3.86227 272.324C6.59541 259.428 11.2378 249.019 17.4015 237.034C34.078 204.608 55.5038 173.931 80.4247 147.281C95.1813 131.5 111.074 118.171 129.31 106.658C136.532 102.099 144.238 98.3398 151.895 94.5554C155.457 92.7949 173.641 83.314 181.19 84.25C195.96 86.0811 161.315 151.182 160.342 153.033C141.343 189.162 120.233 224.229 95.1621 256.506C84.4685 270.274 69.1469 290.567 53.2265 300.065C52.5975 300.44 51.1688 300.371 51.0698 299.645C50.8419 297.974 51.7876 296.318 52.5076 294.792C61.4275 275.888 74.6908 257.964 86.775 241.168C116.859 199.354 148.949 156.372 186.222 120.559C187.949 118.9 193.096 114.867 192.573 117.203C189.452 131.136 175.543 150.597 168.909 161.361C147.899 195.451 124.765 228.196 98.517 258.484C94.1266 263.549 73.3882 289.533 62.9915 292.216C59.7541 293.051 66.87 286.742 69.162 284.307C82.5005 270.14 96.8514 256.93 111.577 244.224C121.207 235.914 131.945 227.198 142.13 219.419C145.546 216.81 155.432 208.776 152.794 212.169C151.793 213.455 129.31 263.677 129.31 265.314C129.31 265.386 158.725 233.579 154.95 216.663" stroke="black" stroke-width="2" stroke-linecap="round" stroke-linejoin="round"/>
</svg>
