<svg width="252" height="254" viewBox="0 0 252 254" fill="none" xmlns="http://www.w3.org/2000/svg">
<path d="M188.847 1.50586C188.812 1.55034 74.1293 147.81 51.6849 173.933C22.0521 208.424 105.119 100.341 132.925 64.3668C139.667 55.6441 146.482 46.9783 153.275 38.2947C156.222 34.5275 162.248 22.3185 162.248 27.0981C162.248 31.7874 146.325 48.2102 145.904 48.6915C102.691 98.1279 56.4852 145.149 10.0234 191.528C-9.1206 210.638 11.5321 192.069 14.8305 189.289C42.2344 166.192 68.9556 142.339 96.0704 118.91C130.535 89.1306 169.221 52.8972 212.242 35.4156C221.601 31.6126 205.129 54.6324 198.942 62.6073C168.198 102.238 135.187 140.144 101.679 177.452C82.3822 198.937 62.5022 219.758 42.0707 240.153C40.8217 241.4 14.6114 267.697 42.7117 239.514C96.0901 185.976 147.453 130.837 198.141 74.7636C234.517 34.5225 188.348 85.0463 181.637 92.6782C157.886 119.685 133.985 146.614 110.972 174.253C107.068 178.943 85.1985 201.264 83.8924 211.042C82.5964 220.745 99.9785 199.791 107.447 193.448C130.023 174.273 152.218 154.661 174.426 135.065C183.87 126.733 193.222 117.988 202.948 109.953C207.97 105.804 195.566 120.689 192.212 126.268C189.315 131.088 158.475 180.715 163.53 185.13C171.959 192.492 235.559 136.414 242.687 130.107C246.59 126.653 254.963 116.623 246.052 128.027C234.926 142.266 224.095 156.92 214.165 172.014C207.124 182.716 191.897 203.21 200.384 211.682" stroke="black" stroke-width="2" stroke-linecap="round" stroke-linejoin="round"/>
</svg>
