<svg width="252" height="174" viewBox="0 0 252 174" fill="none" xmlns="http://www.w3.org/2000/svg">
<path d="M110.918 1.68359C90.385 34.3683 69.0351 66.5509 48.04 98.9377C32.7631 122.504 15.5052 144.981 2.86053 170.052C-2.40746 180.497 17.7167 151.964 24.9889 142.796C63.5759 94.1464 106.028 50.1692 151.321 7.83368C151.754 7.42855 152.579 6.00618 152.602 6.59845C152.688 8.8453 149.814 10.132 148.483 11.9458C138.321 25.7895 128.172 39.6352 117.92 53.4135C105.072 70.6825 92.1814 87.927 79.472 105.299L79.4534 105.324C78.9105 106.062 67.2013 121.968 71.7978 118.229C89.3075 103.984 105.55 87.0865 120.917 70.6398C125.037 66.231 137.01 52.6897 133.362 57.4943C124.142 69.6361 113.606 80.7626 104.178 92.7474C91.2755 109.151 79.2938 126.258 67.4839 143.454C62.9595 150.041 48.715 168.677 55.2519 164.071C59.231 161.267 62.2532 157.31 65.7567 153.932C77.3298 142.776 87.2849 133.536 99.9445 123.068C147.645 83.6269 199.398 49.9349 250.008 14.4583" stroke="black" stroke-width="2" stroke-linecap="round" stroke-linejoin="round"/>
</svg>
