<svg width="252" height="194" viewBox="0 0 252 194" fill="none" xmlns="http://www.w3.org/2000/svg">
<path d="M121.252 46.4531C109.748 61.627 40.123 156.242 8.15296 185.424C6.62937 186.814 1.45514 186.462 2.0377 184.482C5.491 172.749 29.7146 142.579 35.5036 135.537C64.0381 100.824 94.8567 67.7514 125.62 35.0235C132.349 27.8643 139.051 20.6748 145.981 13.7106C150.274 9.39725 159.095 -3.07089 160.631 2.81889C161.391 5.7332 159.516 8.7525 158.615 11.6264C154.561 24.563 148.257 38.9606 142.823 51.025C131.046 77.1711 118.165 102.895 104.317 128.007C97.6718 140.057 90.7186 152.176 81.9393 162.833C69.2673 178.216 82.7673 150.747 83.1489 149.925C102.213 108.86 131.617 70.2598 164.663 39.5281C168.697 35.7771 172.987 32.2931 177.431 29.0398C180.104 27.0831 184.944 22.2537 186.571 25.1402C188.879 29.2381 177.075 53.869 177.028 53.9832C159.837 95.6692 139.523 136.265 116.212 174.868C114.646 177.461 113.139 180.093 111.44 182.6C109.36 185.669 109.054 185.32 109.828 181.928C112.927 168.34 117.678 154.674 122.73 141.722C129.739 123.755 138.059 106.467 147.796 89.8184C151.712 83.1232 158.093 70.2342 165.335 65.3456C169.17 62.7572 169.011 68.8532 168.83 70.3208C167.396 81.9295 163.321 93.9543 159.422 104.879C152.847 123.297 144.313 140.938 135.297 158.262C129.578 169.248 123.577 182.328 115.472 192.013C112.169 195.96 118.916 182.279 121.252 177.692C133.42 153.801 149.91 132.961 166.41 111.938C177.757 97.4825 189.062 82.1233 202.027 68.9762C203.372 67.6122 207.809 64.7849 207.268 66.623C204.28 76.7887 198.108 87.2303 193.425 96.5417C184.675 113.942 175.376 131.045 165.873 148.042C162.516 154.046 150.372 170.058 156.062 166.195C160.458 163.21 165.653 154.984 168.695 151.337C193.972 121.032 219.899 92.179 250.008 66.6902" stroke="black" stroke-width="2" stroke-linecap="round" stroke-linejoin="round"/>
</svg>
