<svg width="250" height="212" viewBox="0 0 250 212" fill="none" xmlns="http://www.w3.org/2000/svg">
<path d="M137.255 1.57715C113.269 32.2567 86.7681 63.8119 69.3232 98.7931C64.597 108.27 54.5641 120.408 60.3586 129.273C65.1295 136.571 78.1493 128.065 86.0571 124.392C100.96 117.469 114.191 107.363 127.693 97.9962C145.339 85.7539 193.859 43.9015 175.105 54.3686C138.08 75.0337 107.155 111.15 76.8933 140.03C53.7964 162.073 -17.7417 225.78 5.67465 204.077C45.967 166.733 87.3438 130.718 128.39 94.2112C142.718 81.4676 157.059 68.6322 170.723 55.1654C172.194 53.7148 173.626 52.2218 175.006 50.6832C175.516 50.114 173.654 51.4375 173.113 51.978C146.836 78.2557 122.081 106.185 97.4122 133.954C79.151 154.511 60.2736 174.747 42.8279 196.009C22.7921 220.428 60.3293 190.964 63.3468 188.638C91.84 166.681 116.642 139.411 139.247 111.543C147.704 101.116 127.999 125.889 127.493 126.484C105.361 152.506 83.9767 179.266 60.3586 203.978C58.5637 205.856 53.2113 211.323 55.4779 210.054C69.4427 202.233 81.7902 189.631 94.1252 179.674C111.802 165.404 129.655 151.16 148.212 138.038C161.78 128.443 154.185 136.919 150.104 144.612C144.869 154.481 133.366 174.386 139.645 186.248C146.9 199.951 173.103 182.731 178.691 179.076C199.92 165.191 218.482 146.502 234.869 127.281C239.898 121.382 249.558 111.061 248.814 101.881C247.985 91.6572 241.927 107.103 241.244 109.152" stroke="black" stroke-width="2" stroke-linecap="round" stroke-linejoin="round"/>
</svg>
