<svg width="252" height="250" viewBox="0 0 252 250" fill="none" xmlns="http://www.w3.org/2000/svg">
<path d="M101.394 153.475C67.6348 72.6052 63.7278 43.0905 54.5897 27.559C47.2195 13.5674 34.5672 13.559 23.4574 27.0762C11.2125 39.0619 0.481031 64.5315 1.01943 89.6599C3.59499 114.896 17.4405 139.717 101.423 153.459M101.423 153.459C39.8639 171.138 17.3895 160.609 12.1948 143.737C7.26917 126.483 19.6231 102.877 33.9197 85.598C48.5728 68.2521 65.2048 57.2402 76.8021 63.6992C88.8578 70.4078 95.9297 94.5956 101.423 153.459ZM101.423 153.459C129.07 71.8311 109.193 105.116 88.7268 144.419C69.3228 183.057 49.344 227.712 101.423 153.459ZM101.423 153.459C100.142 212.313 118.368 229.643 137.073 232.581C156.157 234.878 175.699 222.793 186.547 207.894C197.541 192.828 199.84 174.958 187.959 161.915C175.969 149.189 149.805 141.29 101.452 153.459C398.245 -13.3754 173.974 338.892 101.423 153.459Z" stroke="black" stroke-width="2" stroke-linejoin="round"/>
</svg>
