<svg width="251" height="250" viewBox="0 0 251 250" fill="none" xmlns="http://www.w3.org/2000/svg">
<path d="M122.124 130.346C131.619 -99.4785 -98.2235 97.4909 122.124 130.346ZM122.124 130.346C-102.654 143.856 38.7223 -42.1191 122.124 130.346ZM122.124 130.346C90.6067 -2.75105 -50.7417 183.231 122.124 130.346ZM122.124 130.346C1.14263 222.592 142.491 36.6239 122.124 130.346ZM122.124 130.346C253.287 31.638 102.336 224.833 122.124 130.346ZM122.124 130.346C104.939 301.363 246.273 115.367 122.124 130.346ZM122.124 130.346C298.165 154.735 156.816 340.71 122.124 130.346ZM122.124 130.346C211.821 323.956 358.334 43.5357 122.124 130.346Z" stroke="black" stroke-width="2" stroke-linejoin="round"/>
</svg>
