<svg width="250" height="252" viewBox="0 0 250 252" fill="none" xmlns="http://www.w3.org/2000/svg">
<path d="M125.448 121.679C-28.2993 -27.1943 154.326 -50.8228 125.448 121.679C154.326 -50.8228 294.469 62.3469 125.448 121.679ZM125.448 121.679C294.469 62.3469 274.718 202.448 125.448 121.679ZM125.448 121.679C274.718 202.448 166.057 294.181 125.448 121.679ZM125.448 121.679C166.057 294.181 44.8772 294.035 125.448 121.679ZM125.448 121.679C44.8772 294.035 -43.5681 217.138 125.448 121.679ZM125.448 121.679C-43.5681 217.138 -25.1318 139.735 125.448 121.679ZM125.448 121.679C-25.1318 139.735 36.2565 87.3375 125.448 121.679ZM125.448 121.679C36.2565 87.3375 110.341 74.3386 125.448 121.679ZM125.448 121.679C110.341 74.3386 174.385 108.305 125.448 121.679ZM125.448 121.679C174.385 108.305 177.631 155.139 125.448 121.679ZM125.448 121.679C177.631 155.139 157.729 198.54 125.448 121.679Z" stroke="black" stroke-width="2" stroke-linejoin="round"/>
</svg>
