<svg width="252" height="250" viewBox="0 0 252 250" fill="none" xmlns="http://www.w3.org/2000/svg">
<path d="M54.6945 235.835C54.6945 235.835 38.3746 193.368 31.5821 146.846M31.5821 146.846C21.2564 76.1263 32.9475 -3.96317 157.454 41.516C157.888 41.6746 158.32 41.8341 158.751 41.9943M31.5821 146.846C31.8451 147.316 32.1099 147.787 32.3766 148.259C121.42 305.949 239.487 238.887 246.426 154.537M31.5821 146.846C-56.4839 -10.4476 64.2743 -20.9256 158.751 41.9943M158.751 41.9943C226.232 67.1133 249.85 112.928 246.426 154.537M158.751 41.9943C198.392 68.3945 233.406 107.716 246.426 154.537M246.426 154.537C248.577 162.271 250.128 170.209 251 178.328" stroke="black" stroke-width="2" stroke-linejoin="round"/>
</svg>
