<svg width="252" height="252" viewBox="0 0 252 252" fill="none" xmlns="http://www.w3.org/2000/svg">
<path d="M150.51 25.3902C150.51 38.8606 139.48 49.7805 125.873 49.7805C112.267 49.7805 101.236 38.8606 101.236 25.3902C101.236 11.9199 112.267 1 125.873 1C139.48 1 150.51 11.9199 150.51 25.3902Z" fill="#FF6D2E"/>
<path d="M238.713 75.8816C238.713 89.352 227.682 100.272 214.076 100.272C204.912 100.272 196.917 95.3188 192.672 87.9693C190.615 84.4062 189.44 80.2799 189.44 75.8816C189.44 62.4112 200.469 51.4913 214.076 51.4913C227.682 51.4913 238.713 62.4112 238.713 75.8816Z" fill="#FF6D2E"/>
<path d="M236.556 179.257C236.556 192.727 225.526 203.647 211.92 203.647C198.313 203.647 187.283 192.727 187.283 179.257C187.283 173.497 189.3 168.204 192.672 164.031C197.187 158.445 204.131 154.867 211.92 154.867C225.526 154.867 236.556 165.787 236.556 179.257Z" fill="#FF6D2E"/>
<path d="M150.51 226.61C150.51 240.08 139.48 251 125.873 251C112.267 251 101.236 240.08 101.236 226.61C101.236 213.139 112.267 202.22 125.873 202.22C139.48 202.22 150.51 213.139 150.51 226.61Z" fill="#FF6D2E"/>
<path d="M63.8673 178.305C63.8673 191.776 52.8372 202.696 39.2308 202.696C25.6244 202.696 14.5942 191.776 14.5942 178.305C14.5942 164.835 25.6244 153.915 39.2308 153.915C47.4284 153.915 54.6909 157.879 59.1694 163.976C62.1244 167.999 63.8673 172.951 63.8673 178.305Z" fill="#FF6D2E"/>
<path d="M37.7405 100.371C24.1341 100.371 13.104 89.4515 13.104 75.9811C13.104 62.5108 24.1341 51.5909 37.7405 51.5909C51.3469 51.5909 62.3772 62.5108 62.3772 75.9811C62.3772 80.3609 61.2111 84.471 59.1695 88.0238C54.9321 95.3981 46.923 100.371 37.7405 100.371Z" fill="#FF6D2E"/>
<path d="M125.873 126.15V202.22M125.873 126.15L192.672 87.9693M125.873 126.15L59.1695 88.0239M125.873 202.22C112.267 202.22 101.236 213.139 101.236 226.61C101.236 240.08 112.267 251 125.873 251C139.48 251 150.51 240.08 150.51 226.61C150.51 213.139 139.48 202.22 125.873 202.22ZM192.672 87.9693C196.917 95.3188 204.912 100.272 214.076 100.272C227.682 100.272 238.713 89.352 238.713 75.8816C238.713 62.4112 227.682 51.4913 214.076 51.4913C200.469 51.4913 189.439 62.4112 189.439 75.8816C189.439 80.2799 190.615 84.4062 192.672 87.9693ZM59.1695 88.0239C61.211 84.4711 62.3772 80.361 62.3772 75.9812C62.3772 62.5109 51.3469 51.591 37.7405 51.591C24.1341 51.591 13.104 62.5109 13.104 75.9812C13.104 89.4516 24.1341 100.371 37.7405 100.371C46.923 100.371 54.9321 95.3982 59.1695 88.0239ZM125.873 49.7805V125.85M125.873 49.7805C139.48 49.7805 150.51 38.8606 150.51 25.3902C150.51 11.9199 139.48 1 125.873 1C112.267 1 101.236 11.9199 101.236 25.3902C101.236 38.8606 112.267 49.7805 125.873 49.7805ZM125.873 125.85L192.672 164.031M125.873 125.85L59.1694 163.976M192.672 164.031C189.3 168.204 187.283 173.497 187.283 179.257C187.283 192.727 198.313 203.647 211.92 203.647C225.526 203.647 236.556 192.727 236.556 179.257C236.556 165.787 225.526 154.867 211.92 154.867C204.131 154.867 197.187 158.445 192.672 164.031ZM59.1694 163.976C54.6909 157.879 47.4284 153.915 39.2308 153.915C25.6244 153.915 14.5942 164.835 14.5942 178.305C14.5942 191.776 25.6244 202.696 39.2308 202.696C52.8371 202.696 63.8673 191.776 63.8673 178.305C63.8673 172.951 62.1244 167.999 59.1694 163.976Z" stroke="#03261C" stroke-width="2" stroke-linejoin="round"/>
</svg>
