<svg width="252" height="252" viewBox="0 0 252 252" fill="none" xmlns="http://www.w3.org/2000/svg">
<g clip-path="url(#clip0_2_42)">
<path d="M137.919 13.4455C137.919 20.3145 132.359 25.883 125.5 25.883C118.64 25.883 113.08 20.3145 113.08 13.4455C113.08 6.57639 118.64 1.00793 125.5 1.00793C132.359 1.00793 137.919 6.57639 137.919 13.4455Z" fill="#FF6D2E"/>
<path d="M137.919 238.05C137.919 244.92 132.359 250.488 125.5 250.488C118.64 250.488 113.08 244.92 113.08 238.05C113.08 231.182 118.64 225.613 125.5 225.613C132.359 225.613 137.919 231.182 137.919 238.05Z" fill="#FF6D2E"/>
<path d="M251 125.575C251 132.444 245.439 138.012 238.58 138.012C231.721 138.012 226.16 132.444 226.16 125.575C226.16 118.706 231.721 113.137 238.58 113.137C245.439 113.137 251 118.706 251 125.575Z" fill="#FF6D2E"/>
<path d="M25.8397 125.575C25.8397 132.444 20.2791 138.012 13.4199 138.012C6.56057 138.012 1.00001 132.444 1.00001 125.575C1.00001 118.706 6.56057 113.137 13.4199 113.137C20.2791 113.137 25.8397 118.706 25.8397 125.575Z" fill="#FF6D2E"/>
<path d="M194.082 69.4882C194.082 76.3572 188.521 81.9257 181.662 81.9257C178.168 81.9257 175.011 80.4805 172.754 78.1546C170.581 75.9147 169.242 72.8579 169.242 69.4882C169.242 62.6192 174.803 57.0507 181.662 57.0507C188.521 57.0507 194.082 62.6192 194.082 69.4882Z" fill="#FF6D2E"/>
<path d="M82.2692 68.9892C82.2692 72.6165 80.7187 75.8812 78.2451 78.1546C76.0344 80.1864 73.0865 81.4267 69.8494 81.4267C62.9901 81.4267 57.4296 75.8582 57.4296 68.9892C57.4296 62.1201 62.9901 56.5518 69.8494 56.5518C76.7087 56.5518 82.2692 62.1201 82.2692 68.9892Z" fill="#FF6D2E"/>
<path d="M194.375 181.349C194.375 188.219 188.814 193.787 181.955 193.787C175.095 193.787 169.535 188.219 169.535 181.349C169.535 178.134 170.754 175.202 172.754 172.995C175.026 170.487 178.307 168.912 181.955 168.912C188.814 168.912 194.375 174.481 194.375 181.349Z" fill="#FF6D2E"/>
<path d="M83.2141 182.947C83.2141 189.815 77.6535 195.385 70.7942 195.385C63.935 195.385 58.3744 189.815 58.3744 182.947C58.3744 176.077 63.935 170.509 70.7942 170.509C73.5897 170.509 76.1695 171.435 78.245 172.995C81.2623 175.264 83.2141 178.878 83.2141 182.947Z" fill="#FF6D2E"/>
<path d="M226.16 125.575H25.8397M226.16 125.575C226.16 132.444 231.721 138.012 238.58 138.012C245.439 138.012 251 132.444 251 125.575C251 118.706 245.439 113.137 238.58 113.137C231.721 113.137 226.16 118.706 226.16 125.575ZM25.8397 125.575C25.8397 132.444 20.2791 138.012 13.4198 138.012C6.56057 138.012 1.00001 132.444 1.00001 125.575C1.00001 118.706 6.56058 113.137 13.4199 113.137C20.2791 113.137 25.8397 118.706 25.8397 125.575ZM125.5 25.883V225.613M125.5 25.883C132.359 25.883 137.919 20.3145 137.919 13.4455C137.919 6.57639 132.359 1.00793 125.5 1.00793C118.64 1.00793 113.08 6.57639 113.08 13.4455C113.08 20.3145 118.64 25.883 125.5 25.883ZM125.5 225.613C118.64 225.613 113.08 231.182 113.08 238.05C113.08 244.92 118.64 250.488 125.5 250.488C132.359 250.488 137.919 244.92 137.919 238.05C137.919 231.182 132.359 225.613 125.5 225.613ZM172.754 78.1545L125.499 125.575M172.754 78.1545C175.011 80.4805 178.168 81.9256 181.662 81.9256C188.521 81.9256 194.082 76.3572 194.082 69.4881C194.082 62.6191 188.521 57.0506 181.662 57.0506C174.803 57.0506 169.242 62.6191 169.242 69.4881C169.242 72.8579 170.581 75.9146 172.754 78.1545ZM125.499 125.575L78.245 172.995M125.499 125.575L78.2451 78.1545M125.499 125.575L172.754 172.995M78.245 172.995C76.1695 171.435 73.5897 170.509 70.7942 170.509C63.935 170.509 58.3744 176.077 58.3744 182.947C58.3744 189.815 63.935 195.385 70.7942 195.385C77.6535 195.385 83.2141 189.815 83.2141 182.947C83.2141 178.878 81.2623 175.264 78.245 172.995ZM78.2451 78.1545C80.7187 75.8811 82.2692 72.6164 82.2692 68.9891C82.2692 62.1201 76.7087 56.5517 69.8494 56.5517C62.9901 56.5517 57.4296 62.1201 57.4296 68.9891C57.4296 75.8581 62.9901 81.4266 69.8494 81.4266C73.0865 81.4266 76.0344 80.1863 78.2451 78.1545ZM172.754 172.995C170.754 175.202 169.535 178.134 169.535 181.349C169.535 188.219 175.095 193.787 181.955 193.787C188.814 193.787 194.375 188.219 194.375 181.349C194.375 174.481 188.814 168.912 181.955 168.912C178.307 168.912 175.026 170.487 172.754 172.995Z" stroke="#03261C" stroke-width="2" stroke-linecap="square" stroke-linejoin="round"/>
</g>
<defs>
<clipPath id="clip0_2_42">
<rect width="252" height="252" fill="white"/>
</clipPath>
</defs>
</svg>
