<svg width="252" height="252" viewBox="0 0 252 252" fill="none" xmlns="http://www.w3.org/2000/svg">
<path d="M213.558 237.692C234.236 237.692 251 220.795 251 199.951C251 179.106 234.236 162.209 213.558 162.209C199.565 162.209 187.365 169.946 180.939 181.408C177.868 186.884 176.115 193.211 176.115 199.951C176.115 220.795 192.879 237.692 213.558 237.692Z" fill="#F6F1ED"/>
<path d="M126 85.5638C146.679 85.5638 163.442 68.6662 163.442 47.8219C163.442 26.9776 146.679 10.08 126 10.08C105.321 10.08 88.5576 26.9776 88.5576 47.8219C88.5576 68.6662 105.321 85.5638 126 85.5638Z" fill="#F6F1ED"/>
<path d="M126 111.693C105.321 111.693 88.5576 128.591 88.5576 149.435C88.5576 156.311 90.3816 162.757 93.5685 168.309C100.043 179.588 112.142 187.177 126 187.177C139.858 187.177 151.957 179.588 158.431 168.309C161.618 162.757 163.442 156.311 163.442 149.435C163.442 128.591 146.679 111.693 126 111.693Z" fill="#FF6D2E"/>
<path d="M38.4424 237.692C59.1213 237.692 75.8848 220.795 75.8848 199.951C75.8848 193.211 74.1322 186.884 71.0614 181.408C64.6349 169.946 52.435 162.209 38.4424 162.209C17.7635 162.209 1 179.106 1 199.951C1 220.795 17.7635 237.692 38.4424 237.692Z" fill="#F6F1ED"/>
<path d="M126 111.692C105.321 111.692 88.5576 128.591 88.5576 149.435C88.5576 156.311 90.3816 162.757 93.5685 168.309M126 111.692C146.679 111.692 163.442 128.591 163.442 149.435C163.442 156.311 161.618 162.757 158.431 168.309M126 111.692V85.5638M93.5685 168.309C100.043 179.588 112.142 187.176 126 187.176C139.858 187.176 151.957 179.588 158.431 168.309M93.5685 168.309L71.0614 181.408M158.431 168.309L180.939 181.408M126 85.5638C146.679 85.5638 163.442 68.6662 163.442 47.8219C163.442 26.9776 146.679 10.08 126 10.08C105.321 10.08 88.5576 26.9776 88.5576 47.8219C88.5576 68.6662 105.321 85.5638 126 85.5638ZM180.939 181.408C187.365 169.946 199.565 162.209 213.558 162.209C234.236 162.209 251 179.106 251 199.951C251 220.795 234.236 237.692 213.558 237.692C192.879 237.692 176.115 220.795 176.115 199.951C176.115 193.211 177.868 186.884 180.939 181.408ZM71.0614 181.408C74.1322 186.884 75.8848 193.211 75.8848 199.951C75.8848 220.795 59.1213 237.692 38.4424 237.692C17.7635 237.692 1 220.795 1 199.951C1 179.106 17.7635 162.209 38.4424 162.209C52.435 162.209 64.6349 169.946 71.0614 181.408Z" stroke="#03261C" stroke-width="2" stroke-linejoin="round"/>
</svg>
