<svg width="252" height="252" viewBox="0 0 252 252" fill="none" xmlns="http://www.w3.org/2000/svg">
<path fill-rule="evenodd" clip-rule="evenodd" d="M206.433 45.5666L126 126L45.5666 206.433C24.9819 185.849 12.25 157.411 12.25 126C12.25 63.1776 63.1776 12.25 126 12.25C157.411 12.25 185.849 24.9819 206.433 45.5666Z" fill="#F9F9F9"/>
<path d="M126 239.75C188.822 239.75 239.75 188.822 239.75 126C239.75 94.5888 227.018 66.1513 206.433 45.5666L126 126L45.5666 206.433C66.1513 227.018 94.5888 239.75 126 239.75Z" fill="#F9F9F9"/>
<path d="M251 1L206.433 45.5666M1 251L45.5666 206.433M206.433 45.5666L126 126L45.5666 206.433M206.433 45.5666C185.849 24.9819 157.411 12.25 126 12.25C63.1776 12.25 12.25 63.1776 12.25 126C12.25 157.411 24.9819 185.849 45.5666 206.433M206.433 45.5666C227.018 66.1513 239.75 94.5888 239.75 126C239.75 188.822 188.822 239.75 126 239.75C94.5888 239.75 66.1513 227.018 45.5666 206.433" stroke="black" stroke-width="2" stroke-linejoin="round"/>
<path d="M126 239.75C188.822 239.75 239.75 188.822 239.75 126C239.75 94.5886 227.018 66.1511 206.433 45.5664L126 126L45.5664 206.433C66.1511 227.018 94.5886 239.75 126 239.75Z" fill="#F9F9F9" stroke="black" stroke-width="2" stroke-linejoin="round"/>
</svg>
