<svg width="259" height="260" viewBox="0 0 259 260" fill="none" xmlns="http://www.w3.org/2000/svg">
<path d="M129.55 258.605C200.27 258.605 257.6 201.05 257.6 130.052C257.6 94.6442 243.34 62.5795 220.272 39.3304C197.086 15.9622 165 1.5 129.55 1.5C58.8299 1.5 1.5 59.0549 1.5 130.052C1.5 165.461 15.7594 197.525 38.8277 220.775C62.0141 244.143 94.0996 258.605 129.55 258.605Z" fill="#F9F9F9"/>
<path d="M258.102 1.5L155.8 103.803M110.333 149.269L8.0302 251.572M257.6 130.052C257.6 201.05 200.27 258.605 129.55 258.605C58.8299 258.605 1.5 201.05 1.5 130.052C1.5 59.0549 58.8299 1.5 129.55 1.5C200.27 1.5 257.6 59.0549 257.6 130.052Z" stroke="black" stroke-width="2" stroke-linejoin="round"/>
</svg>
