<svg width="252" height="252" viewBox="0 0 252 252" fill="none" xmlns="http://www.w3.org/2000/svg">
<path fill-rule="evenodd" clip-rule="evenodd" d="M1 126C1 195.036 56.9644 251 126 251L126 1C56.9644 1 1 56.9644 1 126Z" fill="#F9F9F9"/>
<path d="M126 251C195.036 251 251 195.036 251 126C251 56.9644 195.036 1 126 1L126 251Z" fill="#F9F9F9"/>
<path d="M126 251C195.036 251 251 195.036 251 126C251 56.9644 195.036 1 126 1L126 251Z" fill="#F9F9F9"/>
<path d="M126 251C195.036 251 251 195.036 251 126C251 56.9644 195.036 1 126 1M126 251C56.9644 251 1 195.036 1 126C1 56.9644 56.9644 1 126 1M126 251L126 1" stroke="black" stroke-width="2" stroke-linejoin="round"/>
<path d="M126 251C195.036 251 251 195.036 251 126C251 56.9644 195.036 1 126 1L126 251Z" fill="#F9F9F9"/>
<path d="M126 251C195.036 251 251 195.036 251 126C251 56.9644 195.036 1 126 1L126 251Z" fill="#F9F9F9"/>
<path d="M126 251C195.036 251 251 195.036 251 126C251 56.9644 195.036 1 126 1L126 251Z" stroke="black" stroke-width="2" stroke-linejoin="round"/>
<path d="M126 251C195.036 251 251 195.036 251 126C251 56.9644 195.036 1 126 1L126 251Z" stroke="black" stroke-width="2" stroke-linejoin="round"/>
</svg>
