<svg width="252" height="252" viewBox="0 0 252 252" fill="none" xmlns="http://www.w3.org/2000/svg">
<path d="M251 126C251 195.036 195.036 251 126 251C56.9644 251 1 195.036 1 126C1 56.9644 56.9644 1 126 1C195.036 1 251 56.9644 251 126ZM93.0535 126C93.0535 144.196 107.804 158.947 126 158.947C144.196 158.947 158.947 144.196 158.947 126C158.947 107.804 144.196 93.0535 126 93.0535C107.804 93.0535 93.0535 107.804 93.0535 126Z" fill="#F9F9F9"/>
<path d="M93.0535 126C93.0535 144.196 107.804 158.947 126 158.947C144.196 158.947 158.947 144.196 158.947 126C158.947 107.804 144.196 93.0535 126 93.0535C107.804 93.0535 93.0535 107.804 93.0535 126Z" fill="#F9F9F9"/>
<path d="M251 126C251 195.036 195.036 251 126 251C56.9644 251 1 195.036 1 126C1 56.9644 56.9644 1 126 1C195.036 1 251 56.9644 251 126ZM93.0535 126C93.0535 144.196 107.804 158.947 126 158.947C144.196 158.947 158.947 144.196 158.947 126C158.947 107.804 144.196 93.0535 126 93.0535C107.804 93.0535 93.0535 107.804 93.0535 126Z" stroke="black" stroke-width="2" stroke-linejoin="round"/>
<path d="M93.0535 126C93.0535 144.196 107.804 158.947 126 158.947C144.196 158.947 158.947 144.196 158.947 126C158.947 107.804 144.196 93.0535 126 93.0535C107.804 93.0535 93.0535 107.804 93.0535 126Z" stroke="black" stroke-width="2" stroke-linejoin="round"/>
<path d="M93.0527 125.999C93.0527 144.195 107.803 158.946 125.999 158.946C144.195 158.946 158.946 144.195 158.946 125.999C158.946 107.803 144.195 93.0527 125.999 93.0527C107.803 93.0527 93.0527 107.803 93.0527 125.999Z" fill="#F9F9F9" stroke="black" stroke-width="2" stroke-linejoin="round"/>
</svg>
