<svg width="256" height="252" viewBox="0 0 256 252" fill="none" xmlns="http://www.w3.org/2000/svg">
<path d="M128.167 126C128.167 79.732 153.639 39.3366 191.5 17.7235C172.869 7.08796 151.238 0.999978 128.167 0.999979C105.095 0.99998 83.4643 7.08709 64.8334 17.7227C102.694 39.3357 128.167 79.732 128.167 126Z" fill="#F9F9F9"/>
<path d="M191.5 234.277C153.639 212.664 128.167 172.267 128.167 126C128.167 172.267 102.694 212.663 64.8333 234.276C83.4643 244.912 105.095 250.999 128.167 250.999C151.238 250.999 172.869 244.913 191.5 234.277Z" fill="#F9F9F9"/>
<path d="M128.167 126C128.167 172.267 153.639 212.664 191.5 234.277C229.361 212.664 254.833 172.268 254.833 126C254.833 79.7329 229.361 39.3366 191.5 17.7235C153.639 39.3366 128.167 79.732 128.167 126Z" fill="#F9F9F9"/>
<path d="M1.50001 126C1.50001 172.267 26.9726 212.663 64.8333 234.276C102.694 212.663 128.167 172.267 128.167 126C128.167 79.732 102.694 39.3357 64.8334 17.7227C26.9726 39.3357 1.5 79.732 1.50001 126Z" fill="#F9F9F9"/>
<path d="M1.50001 0.999985C24.5715 0.999986 46.2024 7.0871 64.8334 17.7227M128.167 126C128.167 172.267 153.639 212.664 191.5 234.277M128.167 126C128.167 79.732 153.639 39.3366 191.5 17.7235M128.167 126C128.167 172.267 102.694 212.663 64.8333 234.276M128.167 126C128.167 79.732 102.694 39.3357 64.8334 17.7227M1.5 250.999C24.5715 250.999 46.2024 244.912 64.8333 234.276M254.833 251C231.762 251 210.131 244.913 191.5 234.277M191.5 234.277C229.361 212.664 254.833 172.268 254.833 126C254.833 79.7329 229.361 39.3366 191.5 17.7235M191.5 234.277C172.869 244.913 151.238 250.999 128.167 250.999C105.095 250.999 83.4643 244.912 64.8333 234.276M191.5 17.7235C210.131 7.08795 231.762 1.00084 254.833 1.00084M191.5 17.7235C172.869 7.08796 151.238 0.999978 128.167 0.999979C105.095 0.99998 83.4643 7.08709 64.8334 17.7227M64.8333 234.276C26.9726 212.663 1.50001 172.267 1.50001 126C1.5 79.732 26.9726 39.3357 64.8334 17.7227" stroke="black" stroke-width="2" stroke-linejoin="round"/>
<path d="M128.167 126C128.167 79.7329 153.64 39.3375 191.501 17.7245C172.87 7.08888 151.239 1.0009 128.167 1.0009C105.096 1.0009 83.465 7.08801 64.834 17.7236C102.695 39.3366 128.167 79.7329 128.167 126Z" fill="#F9F9F9"/>
<path d="M191.501 234.278C153.64 212.665 128.167 172.268 128.167 126C128.167 172.268 102.695 212.664 64.834 234.277C83.465 244.913 105.096 251 128.167 251C151.239 251 172.87 244.914 191.501 234.278Z" fill="#F9F9F9"/>
<path d="M128.167 126C128.167 172.268 153.64 212.665 191.501 234.278C172.87 244.914 151.239 251 128.167 251C105.096 251 83.465 244.913 64.834 234.277C102.695 212.664 128.167 172.268 128.167 126ZM128.167 126C128.167 79.7329 153.64 39.3375 191.501 17.7245C172.87 7.08887 151.239 1.0009 128.167 1.0009C105.096 1.0009 83.465 7.08801 64.834 17.7236C102.695 39.3366 128.167 79.7329 128.167 126Z" stroke="black" stroke-width="2" stroke-linejoin="round"/>
</svg>
