<svg width="252" height="252" viewBox="0 0 252 252" fill="none" xmlns="http://www.w3.org/2000/svg">
<path fill-rule="evenodd" clip-rule="evenodd" d="M4.22581 126C4.22581 92.373 17.8558 61.9295 39.8926 39.8927L126 126L39.8926 212.107C17.8558 190.071 4.22581 159.627 4.22581 126ZM212.107 212.107C234.144 190.071 247.774 159.627 247.774 126C247.774 92.373 234.144 61.9294 212.107 39.8926L126 126L212.107 212.107Z" fill="#F9F9F9"/>
<path d="M126 126L39.8926 212.107C61.9294 234.144 92.373 247.774 126 247.774C159.627 247.774 190.071 234.144 212.107 212.107L126 126Z" fill="#F9F9F9"/>
<path d="M126 126L212.107 39.8926C190.071 17.8559 159.627 4.22582 126 4.22582C92.373 4.22582 61.9294 17.8559 39.8926 39.8927L126 126Z" fill="#F9F9F9"/>
<path d="M1 1.00001L39.8926 39.8927M251 251L212.107 212.107M1 251L39.8926 212.107M251 1L212.107 39.8926M39.8926 39.8927C17.8558 61.9295 4.22581 92.373 4.22581 126C4.22581 159.627 17.8558 190.071 39.8926 212.107M39.8926 39.8927L126 126M39.8926 39.8927C61.9294 17.8559 92.373 4.22582 126 4.22582C159.627 4.22582 190.071 17.8559 212.107 39.8926M212.107 39.8926C234.144 61.9294 247.774 92.373 247.774 126C247.774 159.627 234.144 190.071 212.107 212.107M212.107 39.8926L126 126M126 126L39.8926 212.107M126 126L212.107 212.107M39.8926 212.107C61.9294 234.144 92.373 247.774 126 247.774C159.627 247.774 190.071 234.144 212.107 212.107" stroke="black" stroke-width="2" stroke-linejoin="round"/>
<path d="M126 126.001L39.8926 212.108C61.9294 234.145 92.3729 247.775 126 247.775C159.627 247.775 190.07 234.145 212.107 212.108L126 126.001Z" fill="#F9F9F9"/>
<path d="M126 126.001L212.107 39.8934C190.07 17.8566 159.627 4.22656 126 4.22656C92.3729 4.22656 61.9294 17.8566 39.8926 39.8934L126 126.001Z" fill="#F9F9F9"/>
<path d="M126 126.001L212.107 39.8934C190.07 17.8566 159.627 4.22656 126 4.22656C92.3729 4.22656 61.9294 17.8566 39.8926 39.8934L126 126.001ZM126 126.001L39.8926 212.108C61.9294 234.145 92.3729 247.775 126 247.775C159.627 247.775 190.071 234.145 212.107 212.108L126 126.001Z" stroke="black" stroke-width="2" stroke-linejoin="round"/>
</svg>
