<svg width="250" height="250" viewBox="0 0 250 250" fill="none" xmlns="http://www.w3.org/2000/svg">
<path fill-rule="evenodd" clip-rule="evenodd" d="M125 245C191.274 245 245 191.274 245 125C245 58.7258 191.274 5 125 5C108.251 5 92.3038 8.43134 77.8225 14.6294C70.1657 8.59829 60.5031 5 50 5C25.1472 5 5 25.1472 5 50C5 60.5031 8.59829 70.1657 14.6294 77.8225C8.43134 92.3038 5 108.251 5 125C5 191.274 58.7258 245 125 245ZM14.6294 77.8225C22.8693 88.2834 35.6503 95 50 95C74.8528 95 95 74.8528 95 50C95 35.6503 88.2834 22.8693 77.8225 14.6294C49.4833 26.7586 26.7586 49.4833 14.6294 77.8225Z" fill="#F9F9F9"/>
<path d="M50 95C74.8528 95 95 74.8528 95 50C95 35.6503 88.2834 22.8693 77.8225 14.6294C49.4833 26.7586 26.7586 49.4833 14.6294 77.8225C22.8693 88.2834 35.6503 95 50 95Z" fill="#F9F9F9"/>
<path d="M77.8225 14.6294C92.3038 8.43134 108.251 5 125 5C191.274 5 245 58.7258 245 125C245 191.274 191.274 245 125 245C58.7258 245 5 191.274 5 125C5 108.251 8.43134 92.3038 14.6294 77.8225M77.8225 14.6294C70.1657 8.59829 60.5031 5 50 5C25.1472 5 5 25.1472 5 50C5 60.5031 8.59829 70.1657 14.6294 77.8225M77.8225 14.6294C88.2834 22.8693 95 35.6503 95 50C95 74.8528 74.8528 95 50 95C35.6503 95 22.8693 88.2834 14.6294 77.8225M77.8225 14.6294C49.4833 26.7586 26.7586 49.4833 14.6294 77.8225" stroke="black" stroke-width="2" stroke-linejoin="round"/>
<path d="M49.9995 94.9995C74.8523 94.9995 94.9995 74.8523 94.9995 49.9995C94.9995 35.6498 88.2829 22.8688 77.822 14.6289C49.4828 26.7581 26.7581 49.4828 14.6289 77.822C22.8688 88.2829 35.6498 94.9995 49.9995 94.9995Z" fill="#F9F9F9" stroke="black" stroke-width="2" stroke-linejoin="round"/>
</svg>
