<svg width="252" height="252" viewBox="0 0 252 252" fill="none" xmlns="http://www.w3.org/2000/svg">
<path d="M251 126C251 195.036 195.036 251 126 251C56.9644 251 1 195.036 1 126C1 56.9644 56.9644 1 126 1C195.036 1 251 56.9644 251 126Z" fill="#F9F9F9"/>
<path d="M251 126C251 170.592 214.851 206.742 170.258 206.742C125.666 206.742 89.5168 170.592 89.5168 126C89.5168 81.4075 125.666 45.2583 170.258 45.2583C214.851 45.2583 251 81.4077 251 126Z" fill="#F9F9F9"/>
<path d="M251 126C251 195.036 195.036 251 126 251C56.9644 251 1 195.036 1 126C1 56.9644 56.9644 1 126 1C195.036 1 251 56.9644 251 126ZM251 126C251 170.592 214.851 206.742 170.258 206.742C125.666 206.742 89.5168 170.592 89.5168 126C89.5168 81.4075 125.666 45.2583 170.258 45.2583C214.851 45.2583 251 81.4076 251 126Z" stroke="black" stroke-width="2" stroke-linejoin="round"/>
<path d="M250.999 126C250.999 170.592 214.85 206.741 170.257 206.741C125.665 206.741 89.5156 170.592 89.5156 125.999C89.5156 81.4071 125.665 45.2578 170.257 45.2578C214.85 45.2578 250.999 81.4072 250.999 126Z" fill="#F9F9F9" stroke="black" stroke-width="2" stroke-linejoin="round"/>
</svg>
