<svg width="252" height="252" viewBox="0 0 252 252" fill="none" xmlns="http://www.w3.org/2000/svg">
<path d="M251 126C251 195.036 195.036 251 126 251C56.9644 251 1 195.036 1 126C1 56.9644 56.9644 1 126 1C195.036 1 251 56.9644 251 126Z" fill="#F9F9F9"/>
<path d="M58.2102 20.9605C47.3621 30.7886 38.4995 43.2594 32.2388 56.4914C25.9781 69.7233 22.3852 84.0592 21.6651 98.6805C20.945 113.302 23.1119 127.922 28.0421 141.707C32.9723 155.491 40.5691 168.17 50.3989 179.019C58.2613 187.703 67.7573 194.753 78.3446 199.767C88.9318 204.78 100.403 207.659 112.102 208.238C123.802 208.817 135.5 207.085 146.53 203.142C157.559 199.198 167.703 193.12 176.382 185.255C183.324 178.965 188.959 171.369 192.965 162.901C196.971 154.433 199.27 145.259 199.73 135.902C200.19 126.545 198.803 117.189 195.647 108.367C192.491 99.5461 187.629 91.4326 181.338 84.4902C176.306 78.9321 170.229 74.4198 163.453 71.2111C156.677 68.0023 149.335 66.16 141.847 65.7894C134.36 65.4189 126.873 66.5273 119.814 69.0513C112.755 71.5754 106.263 75.4657 100.708 80.4998C91.7378 88.6332 86.3655 99.9966 85.7724 112.091C85.1793 124.186 89.4141 136.022 97.5454 144.996C104.057 152.157 113.141 156.447 122.808 156.924C132.475 157.402 141.937 154.029 149.121 147.545C154.855 142.334 158.288 135.063 158.668 127.324C159.047 119.585 156.343 112.012 151.147 106.263C146.979 101.676 141.162 98.9277 134.972 98.622C128.782 98.3162 122.723 100.477 118.124 104.632" fill="#F9F9F9"/>
<path d="M58.2102 20.9605C47.3621 30.7886 38.4995 43.2594 32.2388 56.4914C25.9781 69.7233 22.3852 84.0592 21.6651 98.6805C20.945 113.302 23.1119 127.922 28.0421 141.707C32.9723 155.491 40.5691 168.17 50.3989 179.019C58.2613 187.703 67.7573 194.753 78.3446 199.767C88.9318 204.78 100.403 207.659 112.102 208.238C123.802 208.817 135.5 207.085 146.53 203.142C157.559 199.198 167.703 193.12 176.382 185.255C183.324 178.965 188.959 171.369 192.965 162.901C196.971 154.433 199.27 145.259 199.73 135.902C200.19 126.545 198.803 117.189 195.647 108.367C192.491 99.5461 187.629 91.4326 181.338 84.4902C176.306 78.9321 170.229 74.4198 163.453 71.2111C156.677 68.0023 149.335 66.16 141.847 65.7894C134.36 65.4189 126.873 66.5273 119.814 69.0513C112.755 71.5754 106.263 75.4657 100.708 80.4998C91.7378 88.6332 86.3655 99.9966 85.7724 112.091C85.1793 124.186 89.4141 136.022 97.5454 144.996C104.057 152.157 113.141 156.447 122.808 156.924C132.475 157.402 141.937 154.029 149.121 147.545C154.855 142.334 158.288 135.063 158.668 127.324C159.047 119.585 156.343 112.012 151.147 106.263C146.979 101.676 141.162 98.9277 134.972 98.622C128.782 98.3162 122.723 100.477 118.124 104.632M251 126C251 195.036 195.036 251 126 251C56.9644 251 1 195.036 1 126C1 56.9644 56.9644 1 126 1C195.036 1 251 56.9644 251 126Z" stroke="black" stroke-width="2" stroke-linejoin="round"/>
</svg>
