<svg width="252" height="252" viewBox="0 0 252 252" fill="none" xmlns="http://www.w3.org/2000/svg">
<path d="M176 126C176 153.614 153.614 176 126 176C98.3858 176 76 153.614 76 126C76 98.3858 98.3858 76 126 76C153.614 76 176 98.3858 176 126Z" fill="#F9F9F9"/>
<path fill-rule="evenodd" clip-rule="evenodd" d="M126 251C195.036 251 251 195.036 251 126C251 56.9644 195.036 1 126 1C56.9644 1 1 56.9644 1 126C1 195.036 56.9644 251 126 251ZM126 213.5C174.325 213.5 213.5 174.325 213.5 126C213.5 77.6751 174.325 38.5 126 38.5C77.6751 38.5 38.5 77.6751 38.5 126C38.5 174.325 77.6751 213.5 126 213.5ZM176 126C176 153.614 153.614 176 126 176C98.3858 176 76 153.614 76 126C76 98.3858 98.3858 76 126 76C153.614 76 176 98.3858 176 126Z" fill="#F9F9F9"/>
<path fill-rule="evenodd" clip-rule="evenodd" d="M213.5 126C213.5 174.325 174.325 213.5 126 213.5C77.6751 213.5 38.5 174.325 38.5 126C38.5 77.6751 77.6751 38.5 126 38.5C174.325 38.5 213.5 77.6751 213.5 126ZM126 176C153.614 176 176 153.614 176 126C176 98.3858 153.614 76 126 76C98.3858 76 76 98.3858 76 126C76 153.614 98.3858 176 126 176Z" fill="#F9F9F9"/>
<path d="M176 126C176 153.614 153.614 176 126 176C98.3858 176 76 153.614 76 126C76 98.3858 98.3858 76 126 76C153.614 76 176 98.3858 176 126Z" stroke="black" stroke-width="2" stroke-linejoin="round"/>
<path fill-rule="evenodd" clip-rule="evenodd" d="M126 251C195.036 251 251 195.036 251 126C251 56.9644 195.036 1 126 1C56.9644 1 1 56.9644 1 126C1 195.036 56.9644 251 126 251ZM126 213.5C174.325 213.5 213.5 174.325 213.5 126C213.5 77.6751 174.325 38.5 126 38.5C77.6751 38.5 38.5 77.6751 38.5 126C38.5 174.325 77.6751 213.5 126 213.5ZM176 126C176 153.614 153.614 176 126 176C98.3858 176 76 153.614 76 126C76 98.3858 98.3858 76 126 76C153.614 76 176 98.3858 176 126Z" stroke="black" stroke-width="2" stroke-linejoin="round"/>
<path fill-rule="evenodd" clip-rule="evenodd" d="M213.5 126C213.5 174.325 174.325 213.5 126 213.5C77.6751 213.5 38.5 174.325 38.5 126C38.5 77.6751 77.6751 38.5 126 38.5C174.325 38.5 213.5 77.6751 213.5 126ZM126 176C153.614 176 176 153.614 176 126C176 98.3858 153.614 76 126 76C98.3858 76 76 98.3858 76 126C76 153.614 98.3858 176 126 176Z" stroke="black" stroke-width="2" stroke-linejoin="round"/>
<path fill-rule="evenodd" clip-rule="evenodd" d="M213.5 126C213.5 174.325 174.325 213.5 126 213.5C77.6751 213.5 38.5 174.325 38.5 126C38.5 77.6751 77.6751 38.5 126 38.5C174.325 38.5 213.5 77.6751 213.5 126ZM126 176C153.614 176 176 153.614 176 126C176 98.3858 153.614 76 126 76C98.3858 76 76 98.3858 76 126C76 153.614 98.3858 176 126 176Z" fill="#F9F9F9" stroke="black" stroke-width="2" stroke-linejoin="round"/>
</svg>
