<svg width="250" height="250" viewBox="0 0 250 250" fill="none" xmlns="http://www.w3.org/2000/svg">
<path fill-rule="evenodd" clip-rule="evenodd" d="M226.228 125C226.228 180.907 180.907 226.228 125 226.228V158.743C162.271 158.743 192.486 128.528 192.486 91.2572C192.486 53.9859 162.271 23.7716 125 23.7716C180.907 23.7716 226.228 69.0931 226.228 125ZM125 23.7716C87.7286 23.7716 57.5143 53.9859 57.5143 91.2572C57.5143 128.528 87.7286 158.743 125 158.743V23.7716Z" fill="#F9F9F9"/>
<path d="M23.7715 125C23.7715 180.907 69.093 226.228 125 226.228V158.743C87.7286 158.743 57.5143 128.528 57.5143 91.2572C57.5143 53.9859 87.7286 23.7716 125 23.7716C69.093 23.7716 23.7715 69.0931 23.7715 125Z" fill="#F9F9F9"/>
<path d="M125 158.743C162.271 158.743 192.486 128.528 192.486 91.2572C192.486 53.9859 162.271 23.7716 125 23.7716V158.743Z" fill="#F9F9F9"/>
<path d="M125 226.228C180.907 226.228 226.228 180.907 226.228 125C226.228 69.0931 180.907 23.7716 125 23.7716M125 226.228C69.093 226.228 23.7715 180.907 23.7715 125C23.7715 69.0931 69.093 23.7716 125 23.7716M125 226.228V158.743M125 23.7716C87.7286 23.7716 57.5143 53.9859 57.5143 91.2572C57.5143 128.528 87.7286 158.743 125 158.743M125 23.7716C162.271 23.7716 192.486 53.9859 192.486 91.2572C192.486 128.528 162.271 158.743 125 158.743M125 23.7716V158.743M125 0V250" stroke="black" stroke-width="2" stroke-linejoin="round"/>
<path d="M23.7715 125C23.7715 180.907 69.093 226.228 125 226.228V158.743C87.7286 158.743 57.5143 128.528 57.5143 91.2571C57.5143 53.9858 87.7286 23.7715 125 23.7715C69.093 23.7715 23.7715 69.093 23.7715 125Z" fill="#F9F9F9"/>
<path d="M125 158.743C162.271 158.743 192.486 128.528 192.486 91.2571C192.486 53.9858 162.271 23.7715 125 23.7715V158.743Z" fill="#F9F9F9"/>
<path d="M125 23.7715C69.093 23.7715 23.7715 69.093 23.7715 125C23.7715 180.907 69.093 226.228 125 226.228V158.743M125 23.7715C87.7286 23.7715 57.5143 53.9858 57.5143 91.2571C57.5143 128.528 87.7286 158.743 125 158.743M125 23.7715C162.271 23.7715 192.486 53.9858 192.486 91.2571C192.486 128.528 162.271 158.743 125 158.743M125 23.7715V158.743" stroke="black" stroke-width="2" stroke-linejoin="round"/>
</svg>
