<svg width="250" height="250" viewBox="0 0 250 250" fill="none" xmlns="http://www.w3.org/2000/svg">
<path d="M245.5 123.25C245.5 55.7332 190.767 1 123.25 1L123.149 1.00004C55.6786 1.05463 1 55.7669 1 123.25C1 145.429 6.90602 166.228 17.2311 184.161C38.338 220.819 77.9118 245.5 123.25 245.5C168.552 245.5 208.099 220.859 229.218 184.248C239.575 166.295 245.5 145.465 245.5 123.25Z" fill="#F9F9F9"/>
<path d="M123.25 1C190.767 1 245.5 55.7332 245.5 123.25C245.5 145.465 239.575 166.295 229.218 184.248M123.25 1C123.216 1 123.183 1.00001 123.149 1.00004M123.25 1L123.149 1.00004M123.149 1.00004C55.6786 1.05463 1 55.7669 1 123.25C1 145.429 6.90602 166.228 17.2311 184.161M123.149 1.00004V70.0011M229.218 184.248C208.099 220.859 168.552 245.5 123.25 245.5C77.9118 245.5 38.338 220.819 17.2311 184.161M229.218 184.248L171.896 151.153M17.2311 184.161L74.9377 150.844" stroke="black" stroke-width="2" stroke-linejoin="round"/>
</svg>
