<svg width="252" height="252" viewBox="0 0 252 252" fill="none" xmlns="http://www.w3.org/2000/svg">
<path d="M126 251C56.9644 251 0.999997 195.036 1 126C1 56.9644 56.9644 0.999997 126 1C195.036 1 251 56.9644 251 126C251 195.036 195.036 251 126 251Z" fill="#F9F9F9"/>
<path d="M126 251C56.9644 251 0.999997 195.036 1 126M126 251C195.036 251 251 195.036 251 126M126 251L126 176M1 126C1 56.9644 56.9644 0.999997 126 1M1 126L76 126M126 1C195.036 1 251 56.9644 251 126M126 1V76M251 126L176 126" stroke="black" stroke-width="2" stroke-linejoin="round"/>
</svg>
