<svg width="252" height="252" viewBox="0 0 252 252" fill="none" xmlns="http://www.w3.org/2000/svg">
<path d="M251 126C251 195.036 195.036 251 126 251C56.9644 251 1 195.036 1 126C1 56.9644 56.9644 1 126 1C195.036 1 251 56.9644 251 126Z" fill="#F9F9F9"/>
<path d="M245 87.3127L185.756 106.617M126.512 63.4611V1M67.2561 106.614L8 87.3048M89.8986 176.461L53.2851 227M163.121 176.455L199.73 226.987M251 126C251 195.036 195.036 251 126 251C56.9644 251 1 195.036 1 126C1 56.9644 56.9644 1 126 1C195.036 1 251 56.9644 251 126Z" stroke="black" stroke-width="2" stroke-linejoin="round"/>
</svg>
