<svg width="252" height="252" viewBox="0 0 252 252" fill="none" xmlns="http://www.w3.org/2000/svg">
<path d="M10.548 78C4.39644 92.7792 1 108.993 1 126C0.999997 195.036 56.9644 251 126 251L126 126L10.548 78Z" fill="#F9F9F9" stroke="black" stroke-width="2" stroke-linejoin="round"/>
<path d="M126 251C178.029 251 222.633 219.213 241.452 174L126 126L126 251Z" fill="#F9F9F9" stroke="black" stroke-width="2" stroke-linejoin="round"/>
<path d="M251 126C251 56.9644 195.036 1 126 1L126 126L241.452 174C247.604 159.221 251 143.007 251 126Z" fill="#F9F9F9" stroke="black" stroke-width="2" stroke-linejoin="round"/>
<path d="M125.999 1C73.9703 0.999998 29.366 32.787 10.5469 78L125.999 126L125.999 1Z" fill="#F9F9F9" stroke="black" stroke-width="2" stroke-linejoin="round"/>
<path d="M126 251C178.029 251 222.633 219.213 241.452 174M126 251C56.9644 251 0.999997 195.036 1 126C1 108.993 4.39644 92.7792 10.548 78M126 251L126 126M126 1C195.036 1 251 56.9644 251 126C251 143.007 247.604 159.221 241.452 174M126 1C73.9715 0.999998 29.3672 32.787 10.548 78M126 1L126 126M241.452 174L126 126M10.548 78L126 126" stroke="black" stroke-width="2" stroke-linejoin="round"/>
</svg>
