<svg width="252" height="252" viewBox="0 0 252 252" fill="none" xmlns="http://www.w3.org/2000/svg">
<path d="M251 126C251 195.036 195.036 251 126 251C56.9644 251 1 195.036 1 126C1 56.9644 56.9644 1 126 1C195.036 1 251 56.9644 251 126Z" fill="#F9F9F9"/>
<path d="M189 63.5C189 98.0178 161.018 126 126.5 126C91.9822 126 64 98.0178 64 63.5C64 28.9822 91.9822 1 126.5 1C161.018 1 189 28.9822 189 63.5Z" fill="#F9F9F9"/>
<path d="M189 188.5C189 223.018 161.018 251 126.5 251C91.9822 251 64 223.018 64 188.5C64 153.982 91.9822 126 126.5 126C161.018 126 189 153.982 189 188.5Z" fill="#F9F9F9"/>
<path d="M126.5 126C161.018 126 189 98.0178 189 63.5C189 28.9822 161.018 1 126.5 1C91.9822 1 64 28.9822 64 63.5C64 98.0178 91.9822 126 126.5 126ZM126.5 126C91.9822 126 64 153.982 64 188.5C64 223.018 91.9822 251 126.5 251C161.018 251 189 223.018 189 188.5C189 153.982 161.018 126 126.5 126ZM251 126C251 195.036 195.036 251 126 251C56.9644 251 1 195.036 1 126C1 56.9644 56.9644 1 126 1C195.036 1 251 56.9644 251 126Z" stroke="black" stroke-width="2" stroke-linejoin="round"/>
<path d="M189 188.5C189 222.615 161.667 250.346 127.706 250.989C127.305 250.996 126.903 251 126.5 251C91.9822 251 64 223.018 64 188.5C64 153.982 91.9822 126 126.5 126C161.018 126 189 153.982 189 188.5Z" fill="#F9F9F9"/>
<path fill-rule="evenodd" clip-rule="evenodd" d="M127.706 250.989C127.138 250.996 126.57 251 126 251C56.9644 251 1 195.036 1 126C1 56.9644 56.9644 1 126 1C126.098 1 126.195 1.00011 126.293 1.00034C91.8704 1.112 64 29.0513 64 63.5C64 98.0178 91.9822 126 126.5 126C161.018 126 189 153.982 189 188.5C189 222.615 161.667 250.346 127.706 250.989ZM127.706 1.01141C127.305 1.00381 126.903 1 126.5 1C126.431 1 126.362 1.00011 126.293 1.00034C126.765 1.00142 127.236 1.00511 127.706 1.01141Z" fill="#F9F9F9"/>
<path d="M126.5 126C161.018 126 189 98.0178 189 63.5C189 29.3852 161.667 1.65422 127.706 1.01141M126.5 126C91.9822 126 64 98.0178 64 63.5C64 29.0513 91.8704 1.112 126.293 1.00034M126.5 126C91.9822 126 64 153.982 64 188.5C64 223.018 91.9822 251 126.5 251C126.903 251 127.305 250.996 127.706 250.989M126.5 126C161.018 126 189 153.982 189 188.5C189 222.615 161.667 250.346 127.706 250.989M127.706 1.01141C195.955 1.92443 251 57.534 251 126C251 194.466 195.955 250.076 127.706 250.989M127.706 1.01141C127.305 1.00381 126.903 1 126.5 1C126.431 1 126.362 1.00011 126.293 1.00034M127.706 1.01141C127.236 1.00511 126.765 1.00142 126.293 1.00034M126.293 1.00034C126.195 1.00011 126.098 1 126 1C56.9644 1 1 56.9644 1 126C1 195.036 56.9644 251 126 251C126.57 251 127.138 250.996 127.706 250.989" stroke="black" stroke-width="2" stroke-linejoin="round"/>
</svg>
