<svg width="252" height="252" viewBox="0 0 252 252" fill="none" xmlns="http://www.w3.org/2000/svg">
<path d="M251 126C251 143.295 247.487 159.77 241.137 174.75C222.139 219.564 177.74 251 126 251C74.2596 251 29.8615 219.564 10.8631 174.75C4.51251 159.77 1 143.295 1 126C1 108.705 4.51251 92.23 10.8631 77.25C29.8615 32.4359 74.2596 1 126 1C177.74 1 222.139 32.4359 241.137 77.25C247.487 92.23 251 108.705 251 126Z" fill="#F9F9F9"/>
<path d="M241.137 77.25C222.139 32.4359 177.74 1 126 1C74.2596 1 29.8615 32.4359 10.8631 77.25M241.137 77.25C247.487 92.23 251 108.705 251 126C251 143.295 247.487 159.77 241.137 174.75M241.137 77.25H10.8631M10.8631 77.25C4.51251 92.23 1 108.705 1 126C1 143.295 4.51251 159.77 10.8631 174.75M10.8631 174.75C29.8615 219.564 74.2596 251 126 251C177.74 251 222.139 219.564 241.137 174.75M10.8631 174.75H241.137" stroke="black" stroke-width="2" stroke-linejoin="round"/>
<path d="M178 126C178 195.036 154.719 251 126 251C97.2812 251 74 195.036 74 126C74 56.9644 97.2812 1 126 1C154.719 1 178 56.9644 178 126Z" stroke="black" stroke-width="2" stroke-linejoin="round"/>
</svg>
