<svg width="252" height="252" viewBox="0 0 252 252" fill="none" xmlns="http://www.w3.org/2000/svg">
<path d="M176 240.599C220.148 221.31 251 177.258 251 126C251 74.742 220.148 30.69 176 11.4011V240.599Z" fill="#F9F9F9"/>
<path d="M76 11.4011C31.8524 30.69 1 74.742 1 126C1 177.258 31.8524 221.31 76 240.599V11.4011Z" fill="#F9F9F9"/>
<path d="M176 11.4011C160.688 4.71119 143.778 1 126 1C108.222 1 91.3116 4.71119 76 11.4011V240.599C91.3116 247.289 108.222 251 126 251C143.778 251 160.688 247.289 176 240.599V11.4011Z" fill="#F9F9F9"/>
<path d="M76 11.4011C31.8524 30.69 1 74.742 1 126C1 177.258 31.8524 221.31 76 240.599M76 11.4011C91.3116 4.71119 108.222 1 126 1C143.778 1 160.688 4.71119 176 11.4011M76 11.4011V240.599M76 240.599C91.3116 247.289 108.222 251 126 251C143.778 251 160.688 247.289 176 240.599M176 240.599C220.148 221.31 251 177.258 251 126C251 74.742 220.148 30.69 176 11.4011M176 240.599V11.4011" stroke="black" stroke-width="2" stroke-linejoin="round"/>
<path fill-rule="evenodd" clip-rule="evenodd" d="M176 11.4011C160.688 4.71119 143.778 1 126 1C108.222 1 91.3116 4.71119 76 11.4011V240.599C91.3116 247.289 108.222 251 126 251C143.778 251 160.688 247.289 176 240.599V11.4011Z" fill="#F9F9F9"/>
<path d="M176 11.4011C160.688 4.71119 143.778 1 126 1C108.222 1 91.3116 4.71119 76 11.4011V240.599C91.3116 247.289 108.222 251 126 251C143.778 251 160.688 247.289 176 240.599V11.4011Z" fill="#F9F9F9"/>
<path fill-rule="evenodd" clip-rule="evenodd" d="M176 11.4011C160.688 4.71119 143.778 1 126 1C108.222 1 91.3116 4.71119 76 11.4011V240.599C91.3116 247.289 108.222 251 126 251C143.778 251 160.688 247.289 176 240.599V11.4011Z" stroke="black" stroke-width="2" stroke-linejoin="round"/>
<path d="M176 11.4011C160.688 4.71119 143.778 1 126 1C108.222 1 91.3116 4.71119 76 11.4011V240.599C91.3116 247.289 108.222 251 126 251C143.778 251 160.688 247.289 176 240.599V11.4011Z" stroke="black" stroke-width="2" stroke-linejoin="round"/>
</svg>
