<svg width="252" height="252" viewBox="0 0 252 252" fill="none" xmlns="http://www.w3.org/2000/svg">
<path d="M251 126C251 195.036 195.036 251 126 251C56.9644 251 1 195.036 1 126C1 56.9644 56.9644 1 126 1C195.036 1 251 56.9644 251 126Z" fill="#F9F9F9"/>
<path d="M126 251C195.036 251 251 195.036 251 126C251 56.9644 195.036 1 126 1C56.9644 1 1 56.9644 1 126C1 195.036 56.9644 251 126 251ZM126 251V126M157.542 198.244C185.366 186.078 204.809 158.31 204.809 126C204.809 82.4748 169.525 47.1906 126 47.1906C82.4748 47.1906 47.1906 82.4748 47.1906 126C47.1906 158.31 66.6336 186.078 94.4576 198.244" stroke="black" stroke-width="2" stroke-linejoin="round"/>
</svg>
