<svg width="252" height="252" viewBox="0 0 252 252" fill="none" xmlns="http://www.w3.org/2000/svg">
<path d="M251 126C251 195.036 195.036 251 126 251C56.9644 251 1 195.036 1 126C1 56.9644 56.9644 1 126 1C195.036 1 251 56.9644 251 126Z" fill="#F9F9F9"/>
<path d="M166.507 126C166.507 148.371 148.371 166.507 126 166.507C103.629 166.507 85.493 148.371 85.493 126C85.493 103.629 103.629 85.493 126 85.493C148.371 85.493 166.507 103.629 166.507 126Z" fill="#F9F9F9"/>
<path d="M251 126C251 195.036 195.036 251 126 251M251 126C251 56.9644 195.036 1 126 1M251 126H166.507M126 251C56.9644 251 1 195.036 1 126M126 251V166.507M1 126C1 56.9644 56.9644 1 126 1M1 126H85.493M126 1V85.493M166.507 126C166.507 148.371 148.371 166.507 126 166.507M166.507 126C166.507 103.629 148.371 85.493 126 85.493M126 166.507C103.629 166.507 85.493 148.371 85.493 126M85.493 126C85.493 103.629 103.629 85.493 126 85.493" stroke="black" stroke-width="2" stroke-linejoin="round"/>
<path d="M166.506 125.999C166.506 148.371 148.371 166.506 125.999 166.506C103.628 166.506 85.4922 148.371 85.4922 125.999C85.4922 103.628 103.628 85.4922 125.999 85.4922C148.371 85.4922 166.506 103.628 166.506 125.999Z" fill="#F9F9F9" stroke="black" stroke-width="2" stroke-linejoin="round"/>
</svg>
