<svg width="252" height="252" viewBox="0 0 252 252" fill="none" xmlns="http://www.w3.org/2000/svg">
<path d="M126 1C160.518 1 191.768 14.9911 214.388 37.6116C237.009 60.2322 251 91.4822 251 126C251 160.518 237.009 191.768 214.388 214.388C191.768 237.009 160.518 251 126 251C91.4821 251 60.2322 237.009 37.6117 214.388C14.9911 191.768 1 160.518 1 126C1 91.4822 14.9912 60.2322 37.6117 37.6117C60.2322 14.9911 91.4821 1 126 1Z" fill="#F9F9F9"/>
<path d="M241.487 10.5129L214.388 37.6116M10.5129 241.487L37.6117 214.388M10.5129 10.5129L37.6117 37.6117M241.487 241.487L214.388 214.388M214.388 37.6116C191.768 14.9911 160.518 1 126 1C91.4821 1 60.2322 14.9911 37.6117 37.6117M214.388 37.6116C237.009 60.2322 251 91.4822 251 126C251 160.518 237.009 191.768 214.388 214.388M214.388 214.388C191.768 237.009 160.518 251 126 251C91.4821 251 60.2322 237.009 37.6117 214.388M37.6117 214.388C14.9911 191.768 1 160.518 1 126C1 91.4822 14.9912 60.2322 37.6117 37.6117" stroke="black" stroke-width="2" stroke-linejoin="round"/>
</svg>
