<svg width="252" height="252" viewBox="0 0 252 252" fill="none" xmlns="http://www.w3.org/2000/svg">
<path d="M251 126C251 195.036 195.036 251 126 251C56.9644 251 1 195.036 1 126C1 56.9644 56.9644 1 126 1C195.036 1 251 56.9644 251 126Z" fill="#F9F9F9"/>
<path d="M188.5 63.4999C188.5 98.0177 160.518 126 126 126C91.4822 126 63.5 98.0177 63.5 63.4999C63.5 28.9821 91.4822 1 126 1C160.518 1 188.5 28.9821 188.5 63.4999Z" fill="#F9F9F9"/>
<path d="M188.5 188.5C188.5 223.018 160.518 251 126 251C91.4822 251 63.5 223.018 63.5 188.5C63.5 153.982 91.4822 126 126 126C160.518 126 188.5 153.982 188.5 188.5Z" fill="#F9F9F9"/>
<path d="M126 251C195.036 251 251 195.036 251 126C251 56.9644 195.036 1 126 1M126 251C56.9644 251 1 195.036 1 126C1 56.9644 56.9644 1 126 1M126 251C160.518 251 188.5 223.018 188.5 188.5C188.5 153.982 160.518 126 126 126M126 251C91.4822 251 63.5 223.018 63.5 188.5C63.5 153.982 91.4822 126 126 126M126 1C91.4822 1 63.5 28.9821 63.5 63.4999C63.5 98.0177 91.4822 126 126 126M126 1C160.518 1 188.5 28.9821 188.5 63.4999C188.5 98.0177 160.518 126 126 126" stroke="black" stroke-width="2" stroke-linejoin="round"/>
<path d="M188.5 63.4999C188.5 98.0177 160.518 126 126 126C91.4822 126 63.5 98.0177 63.5 63.4999C63.5 28.9821 91.4822 1 126 1C160.518 1 188.5 28.9821 188.5 63.4999Z" fill="#F9F9F9"/>
<path d="M188.5 188.5C188.5 223.018 160.518 251 126 251C91.4822 251 63.5 223.018 63.5 188.5C63.5 153.982 91.4822 126 126 126C160.518 126 188.5 153.982 188.5 188.5Z" fill="#F9F9F9"/>
<path d="M126 126C160.518 126 188.5 98.0177 188.5 63.4999C188.5 28.9821 160.518 1 126 1C91.4822 1 63.5 28.9821 63.5 63.4999C63.5 98.0177 91.4822 126 126 126ZM126 126C91.4822 126 63.5 153.982 63.5 188.5C63.5 223.018 91.4822 251 126 251C160.518 251 188.5 223.018 188.5 188.5C188.5 153.982 160.518 126 126 126Z" stroke="black" stroke-width="2" stroke-linejoin="round"/>
</svg>
