<svg width="252" height="252" viewBox="0 0 252 252" fill="none" xmlns="http://www.w3.org/2000/svg">
<path d="M251 126C251 148.939 244.821 170.435 234.037 188.914C212.365 226.048 172.096 251 126 251C79.8858 251 39.6039 226.029 17.9385 188.871C7.16948 170.402 1 148.921 1 126C1 56.9644 56.9644 1 126 1C195.036 1 251 56.9644 251 126Z" fill="#F9F9F9"/>
<path d="M126 1L234.037 188.914L17.9385 188.871L126 1Z" fill="#F9F9F9"/>
<path d="M126 1C56.9644 1 1 56.9644 1 126C1 148.921 7.16948 170.402 17.9385 188.871M126 1C195.036 1 251 56.9644 251 126C251 148.939 244.821 170.435 234.037 188.914M126 1L234.037 188.914M126 1L17.9385 188.871M234.037 188.914L17.9385 188.871M234.037 188.914C212.365 226.048 172.096 251 126 251C79.8858 251 39.6039 226.029 17.9385 188.871" stroke="black" stroke-width="2" stroke-linejoin="round"/>
<path d="M125.999 1L234.036 188.914L17.9375 188.871L125.999 1Z" fill="#F9F9F9" stroke="black" stroke-width="2" stroke-linejoin="round"/>
</svg>
