<svg width="250" height="250" viewBox="0 0 250 250" fill="none" xmlns="http://www.w3.org/2000/svg">
<path d="M125 245.223C188.866 245.223 240.64 193.449 240.64 129.582C240.64 89.5037 220.252 54.1874 189.281 33.4392C203.038 48.743 211.408 68.9859 211.408 91.1839C211.408 138.906 172.722 177.592 125 177.592C77.2776 177.592 38.5912 138.906 38.5912 91.1839C38.5912 68.9864 46.9612 48.7438 60.7174 33.4401C29.7473 54.1885 9.35937 89.5044 9.35937 129.582C9.35937 193.449 61.1334 245.223 125 245.223Z" fill="#F9F9F9"/>
<path d="M211.408 91.1839C211.408 138.906 172.722 177.592 125 177.592C77.2776 177.592 38.5912 138.906 38.5912 91.1839C38.5912 68.9864 46.9612 48.7438 60.7174 33.4401M211.408 91.1839C211.408 67.3228 201.736 45.7207 186.1 30.0839M211.408 91.1839C211.408 68.9859 203.038 48.743 189.281 33.4392M60.7174 33.4401C76.5353 15.8426 99.475 4.77543 125 4.77543C148.861 4.77543 170.463 14.447 186.1 30.0839M60.7174 33.4401C29.7473 54.1885 9.35937 89.5044 9.35937 129.582C9.35937 193.449 61.1334 245.223 125 245.223C188.866 245.223 240.64 193.449 240.64 129.582C240.64 89.5037 220.252 54.1874 189.281 33.4392M189.281 33.4392C188.25 32.2926 187.189 31.1737 186.1 30.0839" stroke="black" stroke-width="2" stroke-linejoin="round"/>
<path d="M125 177.592C172.722 177.592 211.409 138.905 211.409 91.1833C211.409 68.9854 203.038 48.7425 189.282 33.4387C188.251 32.2921 187.19 31.1732 186.1 30.0834C170.463 14.4465 148.861 4.77491 125 4.77491C99.4757 4.77491 76.536 15.8421 60.718 33.4396C46.9618 48.7433 38.5918 68.9859 38.5918 91.1833C38.5918 138.905 77.2782 177.592 125 177.592Z" fill="#F9F9F9" stroke="black" stroke-width="2" stroke-linejoin="round"/>
</svg>
