<svg width="252" height="252" viewBox="0 0 252 252" fill="none" xmlns="http://www.w3.org/2000/svg">
<path d="M251 126C251 195.036 195.036 251 126 251C56.9644 251 1 195.036 1 126C1 56.9644 56.9644 1 126 1C195.036 1 251 56.9644 251 126ZM63.5 126C63.5 160.518 91.4822 188.5 126 188.5C160.518 188.5 188.5 160.518 188.5 126C188.5 91.4822 160.518 63.5 126 63.5C91.4822 63.5 63.5 91.4822 63.5 126Z" fill="#F9F9F9" stroke="black" stroke-width="2" stroke-linejoin="round"/>
<path d="M251 126C251 142.415 247.767 158.67 241.485 173.835C235.203 189.001 225.996 202.781 214.388 214.388C202.781 225.996 189.001 235.203 173.835 241.485C158.67 247.767 142.415 251 126 251L126 188.5C134.208 188.5 142.335 186.883 149.918 183.742C157.501 180.602 164.391 175.998 170.194 170.194C175.998 164.391 180.602 157.501 183.742 149.918C186.883 142.335 188.5 134.208 188.5 126H251Z" fill="#F9F9F9" stroke="black" stroke-width="2" stroke-linejoin="round"/>
</svg>
