<svg width="252" height="252" viewBox="0 0 252 252" fill="none" xmlns="http://www.w3.org/2000/svg">
<path d="M251 126C251 195.036 195.036 251 126 251C56.9644 251 1 195.036 1 126C1 56.9644 56.9644 1 126 1C195.036 1 251 56.9644 251 126ZM51 126C51 167.421 84.5786 201 126 201C167.421 201 201 167.421 201 126C201 84.5786 167.421 51 126 51C84.5786 51 51 84.5786 51 126Z" fill="#F9F9F9" stroke="black" stroke-width="2" stroke-linejoin="round"/>
<path d="M126 0.999995C159.152 0.999993 190.946 14.1696 214.388 37.6116C237.83 61.0537 251 92.8479 251 126C251 159.152 237.83 190.946 214.388 214.388C190.946 237.83 159.152 251 126 251L126 126L126 0.999995Z" fill="#F9F9F9" stroke="black" stroke-width="2" stroke-linejoin="round"/>
<path d="M126 0.999995C147.942 0.999994 169.498 6.77578 188.5 17.7468C207.502 28.7179 223.282 44.4976 234.253 63.5C245.224 82.5024 251 104.058 251 126C251 147.942 245.224 169.498 234.253 188.5L126 126L126 0.999995Z" fill="#F9F9F9" stroke="black" stroke-width="2" stroke-linejoin="round"/>
<path d="M126 0.999995C147.942 0.999994 169.498 6.77578 188.5 17.7468C207.502 28.7179 223.282 44.4976 234.253 63.5L126 126L126 0.999995Z" fill="#F9F9F9" stroke="black" stroke-width="2" stroke-linejoin="round"/>
</svg>
