<svg width="252" height="252" viewBox="0 0 252 252" fill="none" xmlns="http://www.w3.org/2000/svg">
<path d="M251 126C251 195.036 195.036 251 126 251C56.9644 251 1 195.036 1 126C1 56.9644 56.9644 1 126 1C195.036 1 251 56.9644 251 126ZM51 126C51 167.421 84.5786 201 126 201C167.421 201 201 167.421 201 126C201 84.5786 167.421 51 126 51C84.5786 51 51 84.5786 51 126Z" fill="#F9F9F9" stroke="black" stroke-width="2" stroke-linejoin="round"/>
<path d="M126 1C142.415 1 158.67 4.23322 173.835 10.5151C189.001 16.7969 202.781 26.0043 214.388 37.6117C225.996 49.219 235.203 62.9989 241.485 78.1646C247.767 93.3303 251 109.585 251 126L188.5 126C188.5 117.792 186.883 109.665 183.742 102.082C180.602 94.4994 175.998 87.6095 170.194 81.8058C164.391 76.0022 157.501 71.3985 149.918 68.2575C142.335 65.1166 134.208 63.5 126 63.5V1Z" fill="#F9F9F9" stroke="black" stroke-width="2" stroke-linejoin="round"/>
</svg>
