<svg width="252" height="252" viewBox="0 0 252 252" fill="none" xmlns="http://www.w3.org/2000/svg">
<path d="M251 126C251 195.036 195.036 251 126 251C56.9644 251 1 195.036 1 126C1 56.9644 56.9644 1 126 1C195.036 1 251 56.9644 251 126ZM51 126C51 167.421 84.5786 201 126 201C167.421 201 201 167.421 201 126C201 84.5786 167.421 51 126 51C84.5786 51 51 84.5786 51 126Z" fill="#F9F9F9" stroke="black" stroke-width="2" stroke-linejoin="round"/>
<path d="M126 1C159.152 1 190.946 14.1696 214.388 37.6116C237.83 61.0537 251 92.8479 251 126C251 159.152 237.83 190.946 214.388 214.388C190.946 237.83 159.152 251 126 251L126 188.5C142.576 188.5 158.473 181.915 170.194 170.194C181.915 158.473 188.5 142.576 188.5 126C188.5 109.424 181.915 93.5268 170.194 81.8058C158.473 70.0848 142.576 63.5 126 63.5V1Z" fill="#F9F9F9" stroke="black" stroke-width="2" stroke-linejoin="round"/>
<path d="M126 1C142.415 1 158.67 4.23322 173.835 10.5151C189.001 16.7969 202.781 26.0043 214.388 37.6117C225.996 49.219 235.203 62.9989 241.485 78.1646C247.767 93.3303 251 109.585 251 126L176 126C176 119.434 174.707 112.932 172.194 106.866C169.681 100.8 165.998 95.2876 161.355 90.6447C156.712 86.0017 151.2 82.3188 145.134 79.806C139.068 77.2933 132.566 76 126 76V1Z" fill="#F9F9F9" stroke="black" stroke-width="2" stroke-linejoin="round"/>
</svg>
