<svg width="252" height="252" viewBox="0 0 252 252" fill="none" xmlns="http://www.w3.org/2000/svg">
<path d="M251 126C251 195.036 195.036 251 126 251C56.9644 251 1 195.036 1 126C1 56.9644 56.9644 1 126 1C195.036 1 251 56.9644 251 126ZM51 126C51 167.421 84.5786 201 126 201C167.421 201 201 167.421 201 126C201 84.5786 167.421 51 126 51C84.5786 51 51 84.5786 51 126Z" fill="#F9F9F9" stroke="black" stroke-width="2" stroke-linejoin="round"/>
<path d="M126 1C150.723 1 174.89 8.33112 195.446 22.0663C216.002 35.8015 232.024 55.3238 241.485 78.1646C250.946 101.005 253.421 126.139 248.598 150.386C243.775 174.634 231.87 196.907 214.388 214.388C196.907 231.87 174.634 243.775 150.386 248.598C126.139 253.421 101.005 250.946 78.1646 241.485C55.3238 232.024 35.8015 216.002 22.0663 195.446C8.33112 174.89 0.999999 150.723 1 126H63.5C63.5 138.361 67.1656 150.445 74.0331 160.723C80.9007 171.001 90.6619 179.012 102.082 183.742C113.503 188.473 126.069 189.711 138.193 187.299C150.317 184.887 161.453 178.935 170.194 170.194C178.935 161.453 184.887 150.317 187.299 138.193C189.711 126.069 188.473 113.503 183.742 102.082C179.012 90.6619 171.001 80.9007 160.723 74.0331C150.445 67.1656 138.361 63.5 126 63.5V1Z" fill="#F9F9F9" stroke="black" stroke-width="2" stroke-linejoin="round"/>
<path d="M126 1C159.152 1 190.946 14.1696 214.388 37.6116C237.83 61.0537 251 92.8479 251 126C251 159.152 237.83 190.946 214.388 214.388C190.946 237.83 159.152 251 126 251L126 176C139.261 176 151.979 170.732 161.355 161.355C170.732 151.979 176 139.261 176 126C176 112.739 170.732 100.021 161.355 90.6447C151.979 81.2678 139.261 76 126 76V1Z" fill="#F9F9F9" stroke="black" stroke-width="2" stroke-linejoin="round"/>
<path d="M126 1C142.415 1 158.67 4.23322 173.835 10.5151C189.001 16.7969 202.781 26.0043 214.388 37.6117C225.996 49.219 235.203 62.9989 241.485 78.1646C247.767 93.3303 251 109.585 251 126L163.5 126C163.5 121.075 162.53 116.199 160.645 111.649C158.761 107.1 155.999 102.966 152.517 99.4835C149.034 96.0013 144.9 93.2391 140.351 91.3545C135.801 89.47 130.925 88.5 126 88.5V1Z" fill="#F9F9F9" stroke="black" stroke-width="2" stroke-linejoin="round"/>
</svg>
