<svg width="252" height="252" viewBox="0 0 252 252" fill="none" xmlns="http://www.w3.org/2000/svg">
<path d="M52.5304 227.141L126.013 126L7.08712 87.3584C3.13562 99.5269 1 112.514 1 126C1 167.578 21.3004 204.416 52.5304 227.141Z" fill="#F9F9F9" stroke="black" stroke-width="2" stroke-linejoin="round"/>
<path d="M199.487 227.128L126.013 126L52.5303 227.141C73.1535 242.147 98.5428 251 126 251C153.465 251 178.861 242.142 199.487 227.128Z" fill="#F9F9F9" stroke="black" stroke-width="2" stroke-linejoin="round"/>
<path d="M244.916 87.3662L126.014 126L199.487 227.128C230.707 204.402 251 167.571 251 126C251 112.517 248.866 99.5325 244.916 87.3662Z" fill="#F9F9F9" stroke="black" stroke-width="2" stroke-linejoin="round"/>
<path d="M126.014 126L244.916 87.3664C228.643 37.2429 181.56 1.00584 126.014 1V126Z" fill="#F9F9F9" stroke="black" stroke-width="2" stroke-linejoin="round"/>
<path d="M7.08691 87.3585L126.013 126V1H126C70.4501 1 23.3635 37.2351 7.08691 87.3585Z" fill="#F9F9F9" stroke="black" stroke-width="2" stroke-linejoin="round"/>
</svg>
