<svg width="250" height="250" viewBox="0 0 250 250" fill="none" xmlns="http://www.w3.org/2000/svg">
<path d="M1 123.25C1 101.071 6.90602 80.2718 17.2311 62.339L123.149 123.491L17.231 184.16C16.6336 183.123 16.051 182.075 15.4835 181.019C12.4189 175.314 9.79408 169.338 7.6544 163.135C3.34183 150.635 1 137.216 1 123.25Z" fill="#F9F9F9" stroke="black" stroke-width="2" stroke-linejoin="round"/>
<path d="M123.148 123.491V245.5C103.331 245.484 84.618 240.753 68.0693 232.368C67.0375 231.845 66.0142 231.308 64.9995 230.757C57.3324 226.594 50.1604 221.635 43.5946 215.99C33.1105 206.977 24.1718 196.216 17.2305 184.161L123.148 123.491Z" fill="#F9F9F9" stroke="black" stroke-width="2" stroke-linejoin="round"/>
<path d="M123.148 245.5V123.491L229.213 184.256C208.093 220.862 168.548 245.5 123.25 245.5L123.148 245.5Z" fill="#F9F9F9" stroke="black" stroke-width="2" stroke-linejoin="round"/>
<path d="M245.5 123.25C245.5 145.468 239.573 166.301 229.213 184.256L123.148 123.491L229.218 62.2516C239.574 80.2043 245.5 101.035 245.5 123.25Z" fill="#F9F9F9" stroke="black" stroke-width="2" stroke-linejoin="round"/>
<path d="M123.25 1.00008C168.552 1.00008 208.098 25.6414 229.218 62.252L123.148 123.491L123.25 1.00008Z" fill="#F9F9F9" stroke="black" stroke-width="2" stroke-linejoin="round"/>
<path d="M17.2314 62.3395C38.3384 25.6807 77.9121 1.00008 123.25 1.00008L123.149 123.491L17.2314 62.3395Z" fill="#F9F9F9" stroke="black" stroke-width="2" stroke-linejoin="round"/>
</svg>
