<svg width="252" height="252" viewBox="0 0 252 252" fill="none" xmlns="http://www.w3.org/2000/svg">
<path d="M126.187 125.813L28.4315 47.8555C11.2674 69.2584 1 96.43 1 126C1 135.513 2.06283 144.779 4.07624 153.684L126.187 125.813Z" fill="#F9F9F9" stroke="black" stroke-width="2" stroke-linejoin="round"/>
<path d="M71.8308 238.685L126.187 125.813L4.07617 153.684C12.5658 191.233 37.9559 222.371 71.8308 238.685Z" fill="#F9F9F9" stroke="black" stroke-width="2" stroke-linejoin="round"/>
<path d="M180.473 238.539L126.187 125.813L71.8311 238.685C88.2192 246.578 106.593 251 126 251C145.527 251 164.008 246.523 180.473 238.539Z" fill="#F9F9F9" stroke="black" stroke-width="2" stroke-linejoin="round"/>
<path d="M126.188 125.813L180.473 238.539C214.22 222.173 239.496 191.075 247.943 153.603L126.188 125.813Z" fill="#F9F9F9" stroke="black" stroke-width="2" stroke-linejoin="round"/>
<path d="M126.188 125.813L247.943 153.603C249.944 144.723 251 135.485 251 126C251 96.5143 240.791 69.4129 223.715 48.0381L126.188 125.813Z" fill="#F9F9F9" stroke="black" stroke-width="2" stroke-linejoin="round"/>
<path d="M126.188 125.813L223.715 48.0377C200.846 19.4126 165.661 1.05781 126.188 1V125.813Z" fill="#F9F9F9" stroke="black" stroke-width="2" stroke-linejoin="round"/>
<path d="M126.187 125.813V1.00014L126 1C86.5342 1 51.3402 19.2898 28.4316 47.8557L126.187 125.813Z" fill="#F9F9F9" stroke="black" stroke-width="2" stroke-linejoin="round"/>
</svg>
