<svg width="252" height="252" viewBox="0 0 252 252" fill="none" xmlns="http://www.w3.org/2000/svg">
<path d="M214.388 214.388C165.573 263.204 86.4272 263.204 37.6116 214.388C-11.2039 165.573 -11.2039 86.4272 37.6116 37.6116C86.4272 -11.2039 165.573 -11.2039 214.388 37.6116C263.204 86.4272 263.204 165.573 214.388 214.388Z" fill="#F9F9F9" stroke="black" stroke-width="2" stroke-linejoin="round"/>
<path d="M171.255 171.255C146.261 196.248 105.739 196.248 80.7452 171.255C55.7516 146.261 55.7516 105.739 80.7452 80.7452C105.739 55.7516 146.261 55.7516 171.255 80.7452C196.248 105.739 196.248 146.261 171.255 171.255Z" fill="#F9F9F9" stroke="black" stroke-width="2" stroke-linejoin="round"/>
<path d="M190 126C190 109.026 183.257 92.7475 171.255 80.7452C159.253 68.7428 142.974 62 126 62C109.026 62 92.7475 68.7428 80.7452 80.7452C68.7428 92.7475 62 109.026 62 126L126 126H190Z" fill="#F9F9F9" stroke="black" stroke-width="2" stroke-linejoin="round"/>
</svg>
