<svg width="252" height="252" viewBox="0 0 252 252" fill="none" xmlns="http://www.w3.org/2000/svg">
<path d="M126 251C195.036 251 251 195.036 251 126C251 56.9644 195.036 1 126 1L126 26.4655V51.6572V77.3965L126 101.749C139.394 101.749 150.251 112.606 150.251 126C150.251 139.394 139.394 150.251 126 150.251L126 174.877L126 200.069L126 225.808L126 251Z" fill="#F9F9F9"/>
<path d="M126 251C195.036 251 251 195.036 251 126C251 56.9644 195.036 1 126 1M126 251C56.9644 251 1.00001 195.036 1.00001 126C1.00001 56.9644 56.9644 1 126 1M126 251C56.9644 251 0.999997 194.823 1 125.863C1 56.9031 56.9644 0.999997 126 1M126 251L126 225.808L126 200.069M126 1L126 26.4655V51.6572M126 200.069C84.9722 200.069 51.7127 166.846 51.7127 125.863C51.7127 84.8803 84.9722 51.6572 126 51.6572M126 200.069L126 174.877L126 150.251M126 51.6572V77.3965L126 101.749M126 150.251C139.394 150.251 150.251 139.394 150.251 126C150.251 112.606 139.394 101.749 126 101.749M126 150.251C112.607 150.251 101.749 139.394 101.749 126C101.749 112.606 112.607 101.749 126 101.749" stroke="black" stroke-width="2" stroke-linejoin="round"/>
<path d="M51.7127 125.863C51.7127 166.846 84.9722 200.069 126 200.069L126 174.877L126 150.251C112.607 150.251 101.749 139.394 101.749 126C101.749 112.606 112.607 101.749 126 101.749L126 77.3965V51.6572C84.9722 51.6572 51.7127 84.8803 51.7127 125.863Z" fill="#F9F9F9"/>
<path d="M126 150.251C139.394 150.251 150.251 139.394 150.251 126C150.251 112.606 139.394 101.749 126 101.749C112.607 101.749 101.749 112.606 101.749 126C101.749 139.394 112.607 150.251 126 150.251Z" fill="#F9F9F9"/>
<path d="M124.384 250.99C124.922 250.997 125.461 251 126 251L126 225.808L126 200.069C84.9722 200.069 51.7127 166.846 51.7127 125.863C51.7127 84.8803 84.9722 51.6572 126 51.6572V26.4655L126 1C125.962 1 125.925 1.00002 125.887 1.00005C56.9245 1.06102 1.03425 56.9678 1.00002 125.937C1.03946 194.324 56.1179 250.122 124.384 250.99Z" fill="#F9F9F9"/>
<path d="M126 251C195.036 251 251 195.036 251 126C251 56.9644 195.036 1 126 1M126 251L126 225.808L126 200.069M126 251C125.461 251 124.922 250.997 124.384 250.99M126 1L126 26.4655V51.6572M126 1C125.962 1 125.925 1.00002 125.887 1.00005M126 200.069C84.9722 200.069 51.7127 166.846 51.7127 125.863C51.7127 84.8803 84.9722 51.6572 126 51.6572M126 200.069L126 174.877L126 150.251M126 51.6572V77.3965L126 101.749M126 150.251C139.394 150.251 150.251 139.394 150.251 126C150.251 112.606 139.394 101.749 126 101.749M126 150.251C112.607 150.251 101.749 139.394 101.749 126C101.749 112.606 112.607 101.749 126 101.749M124.384 250.99C56.1179 250.122 1.03946 194.324 1.00002 125.937M124.384 250.99C56.0934 250.125 1.00001 194.496 1.00001 126C1.00001 125.979 1.00001 125.958 1.00002 125.937M125.887 1.00005C56.9245 1.06102 1.03425 56.9678 1.00002 125.937M125.887 1.00005C56.9034 1.06097 1 56.9407 1 125.863C1 125.888 1.00001 125.912 1.00002 125.937" stroke="black" stroke-width="2" stroke-linejoin="round"/>
</svg>
