<svg width="252" height="252" viewBox="0 0 252 252" fill="none" xmlns="http://www.w3.org/2000/svg">
<path d="M126 1C160.518 1 191.768 14.9911 214.388 37.6117C237.009 60.2322 251 91.4822 251 126C251 160.518 237.009 191.768 214.388 214.388C191.768 237.009 160.518 251 126 251C91.4822 251 60.2322 237.009 37.6117 214.388C14.9911 191.768 1 160.518 1 126C1 91.4822 14.9911 60.2322 37.6117 37.6117C60.2322 14.9911 91.4822 1 126 1Z" fill="#F9F9F9"/>
<path d="M126 251C91.4822 251 60.2322 237.009 37.6117 214.388C14.9911 191.768 1 160.518 1 126C1 91.4822 14.9911 60.2322 37.6117 37.6117C60.2322 14.9911 91.4822 1 126 1M126 251C160.518 251 191.768 237.009 214.388 214.388C237.009 191.768 251 160.518 251 126C251 91.4822 237.009 60.2322 214.388 37.6117C191.768 14.9911 160.518 1 126 1M126 251V1M126 251V220.5M126 1V31.5M126 220.5C152.095 220.5 175.72 209.923 192.822 192.822C209.923 175.72 220.5 152.095 220.5 126C220.5 99.9045 209.923 76.2795 192.822 59.1784C175.72 42.0773 152.095 31.5 126 31.5M126 220.5V188.5M126 31.5V63.5M126 63.5C143.259 63.5 158.884 70.4955 170.194 81.8058C181.504 93.1161 188.5 108.741 188.5 126C188.5 143.259 181.504 158.884 170.194 170.194C158.884 181.504 143.259 188.5 126 188.5M126 63.5V188.5" stroke="black" stroke-width="2" stroke-linejoin="round"/>
<path d="M37.6117 214.388C60.2322 237.009 91.4822 251 126 251V220.5V188.5V63.5V31.5V1C91.4822 1 60.2322 14.9911 37.6117 37.6117C14.9911 60.2322 1 91.4822 1 126C1 160.518 14.9911 191.768 37.6117 214.388Z" fill="#F9F9F9" stroke="black" stroke-width="2" stroke-linejoin="round"/>
</svg>
