<svg width="252" height="252" viewBox="0 0 252 252" fill="none" xmlns="http://www.w3.org/2000/svg">
<path d="M126 1C160.518 1 191.768 14.9911 214.388 37.6117C237.009 60.2322 251 91.4822 251 126C251 160.518 237.009 191.768 214.388 214.388C191.768 237.009 160.518 251 126 251C91.4822 251 60.2322 237.009 37.6117 214.388C14.9911 191.768 1 160.518 1 126C1 91.4822 14.9911 60.2322 37.6117 37.6117C60.2322 14.9911 91.4822 1 126 1Z" fill="#F9F9F9"/>
<path d="M251 126H126M251 126C251 91.4822 237.009 60.2322 214.388 37.6117M251 126C251 160.518 237.009 191.768 214.388 214.388M126 251V126M126 251C91.4822 251 60.2322 237.009 37.6117 214.388C14.9911 191.768 1 160.518 1 126C1 91.4822 14.9911 60.2322 37.6117 37.6117C60.2322 14.9911 91.4822 1 126 1M126 251C160.518 251 191.768 237.009 214.388 214.388M126 251V221.5M126 1V126M126 1C160.518 1 191.768 14.9911 214.388 37.6117M126 1V30.5M126 126L214.388 37.6117M126 126L214.388 214.388M126 126V163M126 126V89M126 61C143.949 61 160.199 68.2754 171.962 80.0381C183.725 91.8007 191 108.051 191 126C191 143.949 183.725 160.199 171.962 171.962C160.199 183.725 143.949 191 126 191M126 61V89M126 61V30.5M126 191V221.5M126 191V163M126 30.5C152.372 30.5 176.247 41.1892 193.529 58.4713C210.811 75.7534 221.5 99.6284 221.5 126C221.5 152.372 210.811 176.247 193.529 193.529C176.247 210.811 152.372 221.5 126 221.5M126 89C136.217 89 145.467 93.1414 152.163 99.8371C158.859 106.533 163 115.783 163 126C163 136.217 158.859 145.467 152.163 152.163C145.467 158.859 136.217 163 126 163" stroke="black" stroke-width="2" stroke-linejoin="round"/>
<path d="M126 30.5V1C91.4822 1 60.2322 14.9911 37.6117 37.6117C14.9911 60.2322 1 91.4822 1 126C1 160.518 14.9911 191.768 37.6117 214.388C60.2322 237.009 91.4822 251 126 251V221.5V191V163V126V89V61V30.5Z" fill="#F9F9F9" stroke="black" stroke-width="2" stroke-linejoin="round"/>
</svg>
