<svg width="253" height="252" viewBox="0 0 253 252" fill="none" xmlns="http://www.w3.org/2000/svg">
<path d="M126.135 126L249.126 104.313C243.961 74.7858 228.433 48.8221 206.429 30.3086L126.135 126Z" fill="#F9F9F9" stroke="black" stroke-width="2" stroke-linejoin="round"/>
<path d="M125.873 126L2.88201 147.687C8.04702 177.214 23.5746 203.178 45.5784 221.691L125.873 126Z" fill="#F9F9F9" stroke="black" stroke-width="2" stroke-linejoin="round"/>
<path d="M126.135 125.999L206.429 30.3076C195.382 21.0129 182.703 13.596 168.883 8.54883L126.135 125.999Z" fill="#F9F9F9" stroke="black" stroke-width="2" stroke-linejoin="round"/>
<path d="M125.873 126.001L45.5784 221.692C56.6254 230.987 69.3047 238.404 83.1246 243.451L125.873 126.001Z" fill="#F9F9F9" stroke="black" stroke-width="2" stroke-linejoin="round"/>
<path d="M126.135 126L168.884 8.54974C155.509 3.66517 141.066 1 126.001 1C111.025 1 96.6635 3.63373 83.3555 8.4633L126.135 126Z" fill="#F9F9F9" stroke="black" stroke-width="2" stroke-linejoin="round"/>
<path d="M125.872 126L83.1241 243.45C96.4987 248.335 110.942 251 126.007 251C140.983 251 155.344 248.366 168.652 243.537L125.872 126Z" fill="#F9F9F9" stroke="black" stroke-width="2" stroke-linejoin="round"/>
<path d="M126.134 126L83.3545 8.46289C69.5082 13.4878 56.8017 20.8898 45.7285 30.1756L126.134 126Z" fill="#F9F9F9" stroke="black" stroke-width="2" stroke-linejoin="round"/>
<path d="M125.873 126L168.653 243.537C182.5 238.512 195.206 231.11 206.279 221.824L125.873 126Z" fill="#F9F9F9" stroke="black" stroke-width="2" stroke-linejoin="round"/>
<path d="M126.135 126L45.7288 30.1758C23.653 48.6882 8.06826 74.6881 2.88281 104.267L126.135 126Z" fill="#F9F9F9" stroke="black" stroke-width="2" stroke-linejoin="round"/>
<path d="M125.873 126L206.279 221.824C228.355 203.312 243.94 177.312 249.125 147.733L125.873 126Z" fill="#F9F9F9" stroke="black" stroke-width="2" stroke-linejoin="round"/>
<path d="M126.134 126L2.88256 104.268C1.64522 111.326 1 118.588 1 126C1 133.413 1.64522 140.675 2.88256 147.733L126.134 126Z" fill="#F9F9F9" stroke="black" stroke-width="2" stroke-linejoin="round"/>
<path d="M125.873 126L249.125 147.732C250.363 140.674 251.008 133.412 251.008 126C251.008 118.587 250.363 111.325 249.125 104.267L125.873 126Z" fill="#F9F9F9" stroke="black" stroke-width="2" stroke-linejoin="round"/>
</svg>
