<svg width="250" height="250" viewBox="0 0 250 250" fill="none" xmlns="http://www.w3.org/2000/svg">
<path d="M247.271 125.159C247.286 82.8934 225.358 41.78 186.126 19.1289L138.404 101.627C146.875 106.201 152.743 114.975 153.219 125.159L247.271 125.159Z" fill="#F9F9F9" stroke="black" stroke-width="2" stroke-linejoin="round"/>
<path d="M2.6723 124.71C2.65702 166.976 24.5849 208.089 63.8177 230.74L111.539 148.243C103.069 143.669 97.2002 134.894 96.724 124.71L2.6723 124.71Z" fill="#F9F9F9" stroke="black" stroke-width="2" stroke-linejoin="round"/>
<path d="M186.125 19.1293C146.861 -3.53983 100.249 -1.95268 63.6406 19.2413L111.3 101.79C115.358 99.535 120.029 98.2509 125 98.2509C129.851 98.2509 134.416 99.4733 138.404 101.627L186.125 19.1293Z" fill="#F9F9F9" stroke="black" stroke-width="2" stroke-linejoin="round"/>
<path d="M63.818 230.742C103.082 253.411 149.694 251.824 186.303 230.63L138.644 148.082C134.586 150.336 129.914 151.62 124.943 151.62C120.092 151.62 115.528 150.398 111.539 148.244L63.818 230.742Z" fill="#F9F9F9" stroke="black" stroke-width="2" stroke-linejoin="round"/>
<path d="M63.6412 19.2402C45.733 29.608 30.2186 44.6675 19.1293 63.8748C14.9116 71.18 11.5336 78.7397 8.96529 86.4419C7.91919 89.5791 7.00741 92.7399 6.22795 95.9168C4.21964 104.102 3.08961 112.395 2.80338 120.665C2.80044 120.75 2.79759 120.835 2.79483 120.92C2.77622 121.492 2.76165 122.065 2.7511 122.637C2.73818 123.338 2.7313 124.04 2.73047 124.74L96.8048 124.74C97.4124 114.853 103.105 106.342 111.3 101.788L63.6412 19.2402Z" fill="#F9F9F9" stroke="black" stroke-width="2" stroke-linejoin="round"/>
<path d="M186.304 230.629C204.212 220.261 219.727 205.202 230.816 185.994C235.034 178.689 238.412 171.129 240.98 163.427C242.026 160.29 242.938 157.129 243.717 153.952C245.726 145.767 246.856 137.474 247.142 129.204C247.145 129.119 247.148 129.034 247.15 128.949C247.169 128.377 247.184 127.804 247.194 127.232C247.207 126.531 247.214 125.83 247.215 125.129L153.14 125.129C152.533 135.016 146.84 143.527 138.645 148.081L186.304 230.629Z" fill="#F9F9F9" stroke="black" stroke-width="2" stroke-linejoin="round"/>
<path d="M153.219 125.158C152.743 114.974 146.874 106.2 138.404 101.626C134.416 99.4724 129.851 98.25 125 98.25C120.029 98.25 115.358 99.5341 111.3 101.789C103.105 106.342 97.3888 114.955 96.7812 124.842C97.2574 135.026 103.126 143.8 111.596 148.374C115.584 150.528 120.149 151.75 125 151.75C129.971 151.75 134.643 150.466 138.701 148.211C146.896 143.658 152.611 135.045 153.219 125.158Z" fill="#F9F9F9" stroke="black" stroke-width="2" stroke-linejoin="round"/>
</svg>
