<svg width="253" height="253" viewBox="0 0 253 253" fill="none" xmlns="http://www.w3.org/2000/svg">
<path d="M90.4501 188.256C79.6241 181.937 70.6082 172.855 64.3694 161.977L17.998 188.749C28.9374 207.751 44.7274 223.608 63.6775 234.628L90.4501 188.256Z" fill="#F9F9F9" stroke="black" stroke-width="2" stroke-linejoin="round"/>
<path fill-rule="evenodd" clip-rule="evenodd" d="M188.92 234.802L162.149 188.43C151.643 194.494 139.452 197.964 126.449 197.964C126.383 197.964 126.316 197.964 126.25 197.964C113.199 197.928 100.97 194.396 90.4503 188.256L63.6777 234.627C65.7344 235.823 67.8282 236.962 69.9571 238.042C78.4412 242.346 87.4822 245.71 96.9432 247.999C101.674 249.143 106.509 250.018 111.433 250.607C116.356 251.197 121.367 251.5 126.449 251.5C149.204 251.5 170.539 245.422 188.92 234.802Z" fill="#F9F9F9" stroke="black" stroke-width="2" stroke-linejoin="round"/>
<path d="M188.429 162.148C182.136 173.05 173.05 182.136 162.148 188.429L188.92 234.801C207.944 223.808 223.804 207.95 234.797 188.926L188.429 162.148Z" fill="#F9F9F9" stroke="black" stroke-width="2" stroke-linejoin="round"/>
<path d="M188.256 90.4503C194.396 100.97 197.928 113.199 197.963 126.25C197.964 126.316 197.964 126.383 197.964 126.449C197.964 139.452 194.494 151.643 188.429 162.149L234.798 188.927C245.421 170.544 251.5 149.207 251.5 126.449C251.5 124.964 251.474 123.484 251.422 122.011C251.419 121.93 251.417 121.849 251.414 121.769C251.313 119.039 251.125 116.331 250.852 113.649C250.148 106.717 248.877 99.9523 247.087 93.4022C244.21 82.8753 239.991 72.9021 234.627 63.6777L188.256 90.4503Z" fill="#F9F9F9" stroke="black" stroke-width="2" stroke-linejoin="round"/>
<path d="M64.3702 161.977C70.609 172.855 79.6248 181.937 90.4508 188.256C100.97 194.397 113.199 197.928 126.25 197.964C126.317 197.964 126.383 197.964 126.45 197.964C139.452 197.964 151.644 194.494 162.15 188.43C173.051 182.137 182.137 173.051 188.43 162.15C194.494 151.644 197.964 139.452 197.964 126.45C197.964 126.383 197.964 126.317 197.964 126.25C197.928 113.199 194.397 100.971 188.256 90.4509C181.937 79.6249 172.855 70.609 161.977 64.3701C151.51 58.3675 139.381 54.9355 126.45 54.9355L126.319 54.9357L126.25 54.9358C113.271 54.9713 101.104 58.4646 90.6234 64.543C79.8204 70.8084 70.8083 79.8205 64.5429 90.6236C58.4645 101.104 54.9713 113.271 54.9358 126.25C54.9356 126.317 54.9355 126.383 54.9355 126.45C54.9355 139.381 58.3675 151.51 64.3702 161.977Z" fill="#F9F9F9" stroke="black" stroke-width="2" stroke-linejoin="round"/>
<path d="M188.256 90.4522L234.628 63.6796C223.608 44.7295 207.752 28.9394 188.749 18L161.977 64.3714C172.855 70.6102 181.937 79.6261 188.256 90.4522Z" fill="#F9F9F9" stroke="black" stroke-width="2" stroke-linejoin="round"/>
<path d="M188.75 17.9995C170.407 7.44025 149.134 1.40039 126.45 1.40039C103.643 1.40039 82.2614 7.50625 63.8516 18.1725L90.6239 64.5438C101.105 58.4653 113.271 54.972 126.251 54.9366L126.319 54.9364L126.45 54.9363C139.381 54.9363 151.51 58.3682 161.977 64.3709L188.75 17.9995Z" fill="#F9F9F9" stroke="black" stroke-width="2" stroke-linejoin="round"/>
<path d="M63.8512 18.1719C44.9241 29.1378 29.1378 44.9241 18.1719 63.8513L64.543 90.6237C70.8084 79.8206 79.8205 70.8085 90.6236 64.5431L63.8512 18.1719Z" fill="#F9F9F9" stroke="black" stroke-width="2" stroke-linejoin="round"/>
<path d="M1.39844 126.45C1.39844 149.134 7.43831 170.407 17.9976 188.75L64.369 161.977C58.3663 151.51 54.9343 139.381 54.9343 126.45C54.9343 126.384 54.9344 126.317 54.9346 126.251C54.9701 113.271 58.4633 101.105 64.5417 90.624L18.1705 63.8516C7.50428 82.2614 1.39844 103.643 1.39844 126.45Z" fill="#F9F9F9" stroke="black" stroke-width="2" stroke-linejoin="round"/>
</svg>
