<svg width="250" height="250" viewBox="0 0 250 250" fill="none" xmlns="http://www.w3.org/2000/svg">
<path d="M65.7852 63.8575L65.7344 63.7695C56.8067 68.9239 48.9817 75.7863 42.7061 83.9647C36.4306 92.1432 31.8273 101.478 29.1592 111.435C26.4911 121.393 25.8104 131.778 27.156 141.999C28.5015 152.219 31.847 162.075 37.0014 171.003C42.1558 179.93 49.0181 187.755 57.1966 194.031C65.3751 200.306 74.7096 204.91 84.6671 207.578C94.6246 210.246 105.01 210.927 115.231 209.581C125.451 208.235 135.307 204.89 144.234 199.736L144.184 199.648L125.277 166.9C120.661 169.564 115.566 171.294 110.282 171.99C104.998 172.685 99.6284 172.333 94.4804 170.954C89.3324 169.575 84.5065 167.195 80.2782 163.95C76.05 160.706 72.5022 156.66 69.8373 152.045C67.1725 147.429 65.443 142.334 64.7473 137.05C64.0517 131.766 64.4036 126.397 65.783 121.249C67.1624 116.101 69.5422 111.275 72.7867 107.046C76.0312 102.818 80.0767 99.2703 84.6922 96.6055L65.7852 63.8575Z" fill="#F9F9F9" stroke="black" stroke-width="2" stroke-linejoin="round"/>
<path d="M94.7497 54.0262C84.5423 55.37 74.6996 58.7112 65.7835 63.8589L84.6906 96.6069C80.075 99.2717 76.0295 102.819 72.785 107.048C69.5406 111.276 67.1607 116.102 65.7813 121.25C64.4019 126.398 64.05 131.767 64.7456 137.051C65.4413 142.335 67.1709 147.43 69.8357 152.046C72.5005 156.662 76.0483 160.707 80.2766 163.952C84.5048 167.196 89.3307 169.576 94.4787 170.955C99.6267 172.335 104.996 172.687 110.28 171.991C115.564 171.295 120.659 169.566 125.275 166.901L144.182 199.649C153.098 194.501 160.913 187.648 167.18 179.48C173.448 171.312 178.045 161.99 180.71 152.045C183.374 142.1 184.054 131.728 182.71 121.521C181.367 111.313 178.025 101.471 172.878 92.5547C167.73 83.6386 160.877 75.8237 152.709 69.5562C144.541 63.2888 135.218 58.6915 125.274 56.0268C115.329 53.3622 104.957 52.6824 94.7497 54.0262Z" fill="#F9F9F9" stroke="black" stroke-width="2" stroke-linejoin="round"/>
<path d="M167.484 240.007C181.7 231.799 194.161 220.872 204.154 207.849C214.147 194.826 221.477 179.962 225.725 164.106C229.974 148.25 231.058 131.713 228.915 115.438C226.772 99.1633 221.445 83.4699 213.238 69.2539C205.03 55.0379 194.103 42.5777 181.08 32.5847C168.056 22.5918 153.193 15.2618 137.337 11.0132C121.481 6.76461 104.943 5.68069 88.6686 7.8233C72.3938 9.96592 56.7004 15.2931 42.4844 23.5007L65.7344 63.7709L65.7852 63.8589C74.7013 58.7112 84.544 55.37 94.7513 54.0262C104.959 52.6824 115.331 53.3622 125.275 56.0269C135.22 58.6915 144.542 63.2888 152.71 69.5563C160.878 75.8237 167.732 83.6386 172.879 92.5547C178.027 101.471 181.368 111.314 182.712 121.521C184.056 131.728 183.376 142.1 180.711 152.045C178.047 161.99 173.449 171.312 167.182 179.48C160.915 187.648 153.1 194.501 144.184 199.649L144.234 199.737L167.484 240.007Z" fill="#F9F9F9" stroke="black" stroke-width="2" stroke-linejoin="round"/>
</svg>
