<svg width="252" height="252" viewBox="0 0 252 252" fill="none" xmlns="http://www.w3.org/2000/svg">
<path d="M191.996 190.452C208.238 173.823 218.248 151.08 218.248 125.999C218.248 100.918 208.238 78.1743 191.996 61.5454C175.245 44.396 151.865 33.75 125.999 33.75C100.918 33.75 78.1744 43.7594 61.5456 60.0017C44.3961 76.7524 33.75 100.132 33.75 125.999C33.75 151.865 44.396 175.245 61.5454 191.996C78.1742 208.238 100.918 218.248 125.999 218.248C151.865 218.248 175.245 207.602 191.996 190.452Z" fill="#F9F9F9" stroke="black" stroke-width="2" stroke-linejoin="round"/>
<path d="M218.248 126H250.999C250.999 91.8747 237.324 60.9434 215.156 38.3867L191.996 61.5464C208.238 78.1753 218.248 100.919 218.248 126Z" fill="#F9F9F9" stroke="black" stroke-width="2" stroke-linejoin="round"/>
<path d="M33.7521 126L1.001 126C1.001 160.125 14.6757 191.057 36.8442 213.613L60.0039 190.454C43.7616 173.825 33.7521 151.081 33.7521 126Z" fill="#F9F9F9" stroke="black" stroke-width="2" stroke-linejoin="round"/>
<path d="M126 33.7511V1C91.8746 1 60.9434 14.6746 38.3867 36.843L61.5464 60.0028C78.1753 43.7605 100.919 33.7511 126 33.7511Z" fill="#F9F9F9" stroke="black" stroke-width="2" stroke-linejoin="round"/>
<path d="M126 218.249L126 251C160.125 251 191.057 237.325 213.613 215.157L190.454 191.997C173.825 208.239 151.081 218.249 126 218.249Z" fill="#F9F9F9" stroke="black" stroke-width="2" stroke-linejoin="round"/>
<path d="M126 1V33.7511C151.866 33.7511 175.246 44.3971 191.997 61.5465L215.157 38.3868C192.478 15.3112 160.91 1 126 1Z" fill="#F9F9F9" stroke="black" stroke-width="2" stroke-linejoin="round"/>
<path d="M126 251L126 218.249C100.134 218.249 76.7537 207.603 60.0029 190.453L36.8432 213.613C59.5218 236.689 91.0896 251 126 251Z" fill="#F9F9F9" stroke="black" stroke-width="2" stroke-linejoin="round"/>
<path d="M1 126.001H33.7511C33.7511 100.134 44.3972 76.7542 61.5467 60.0035L38.387 36.8438C15.3112 59.5224 1 91.0903 1 126.001Z" fill="#F9F9F9" stroke="black" stroke-width="2" stroke-linejoin="round"/>
<path d="M251 125.999L218.249 125.999C218.249 151.866 207.603 175.246 190.453 191.997L213.613 215.156C236.689 192.478 251 160.91 251 125.999Z" fill="#F9F9F9" stroke="black" stroke-width="2" stroke-linejoin="round"/>
</svg>
