<svg width="256" height="250" viewBox="0 0 256 250" fill="none" xmlns="http://www.w3.org/2000/svg">
<path fill-rule="evenodd" clip-rule="evenodd" d="M128 16.5L255 233H128.048C168.121 232.974 200.599 200.481 200.599 160.403C200.599 120.309 168.095 87.8064 128 87.8064C87.9047 87.8064 55.4011 120.309 55.4011 160.403C55.4011 200.481 87.879 232.974 127.952 233H1L128 16.5Z" fill="#F9F9F9"/>
<path d="M128 87.8064C87.9047 87.8064 55.4011 120.309 55.4011 160.403C55.4011 200.481 87.879 232.974 127.952 233L128 233V87.8064Z" fill="#F9F9F9"/>
<path d="M200.599 160.403C200.599 120.309 168.095 87.8064 128 87.8064V233L128.048 233C168.121 232.974 200.599 200.481 200.599 160.403Z" fill="#F9F9F9"/>
<path d="M128 16.5L255 233H128.048M128 16.5L1 233H127.952M128 16.5L128 233M128 233L127.952 233M128 233V87.8064M128 233C128.016 233 128.032 233 128.048 233M128 233C127.984 233 127.968 233 127.952 233M128 233L128.048 233M128 87.8064C87.9047 87.8064 55.4011 120.309 55.4011 160.403C55.4011 200.481 87.879 232.974 127.952 233M128 87.8064C168.095 87.8064 200.599 120.309 200.599 160.403C200.599 200.481 168.121 232.974 128.048 233M127.952 233H128.048" stroke="black" stroke-width="2" stroke-linejoin="round"/>
<path d="M127.599 88C87.5037 88 55 120.503 55 160.597C55 200.675 87.4779 233.168 127.551 233.194L127.599 233.194V88Z" fill="#F9F9F9"/>
<path d="M127.599 233.194L127.551 233.194C87.4779 233.168 55 200.675 55 160.597C55 120.503 87.5037 88 127.599 88V233.194ZM127.599 233.194L127.647 233.194" stroke="black" stroke-width="2" stroke-linejoin="round"/>
<path d="M200.6 160.403C200.6 120.309 168.096 87.8066 128.001 87.8066V233L128.048 233C168.122 232.975 200.6 200.482 200.6 160.403Z" fill="#F9F9F9"/>
<path d="M128.001 233L127.953 233M128.001 233V87.8066C168.096 87.8066 200.6 120.309 200.6 160.403C200.6 200.482 168.122 232.975 128.048 233L128.001 233Z" stroke="black" stroke-width="2" stroke-linejoin="round"/>
</svg>
