<svg width="256" height="250" viewBox="0 0 256 250" fill="none" xmlns="http://www.w3.org/2000/svg">
<path d="M128 16.5L255 233H1L128 16.5Z" fill="#F9F9F9"/>
<path d="M200.599 160.403C200.599 200.497 168.095 233 128 233C87.9047 233 55.4011 200.497 55.4011 160.403C55.4011 120.309 87.9047 87.8064 128 87.8064C168.095 87.8064 200.599 120.309 200.599 160.403Z" fill="#F9F9F9"/>
<path d="M128 16.5L255 233H1L128 16.5Z" stroke="black" stroke-width="2" stroke-linejoin="round"/>
<path d="M200.599 160.403C200.599 200.497 168.095 233 128 233C87.9047 233 55.4011 200.497 55.4011 160.403C55.4011 120.309 87.9047 87.8064 128 87.8064C168.095 87.8064 200.599 120.309 200.599 160.403Z" stroke="black" stroke-width="2" stroke-linejoin="round"/>
<path d="M200.598 160.403C200.598 200.498 168.095 233 127.999 233C87.904 233 55.4004 200.498 55.4004 160.403C55.4004 120.309 87.904 87.8066 127.999 87.8066C168.095 87.8066 200.598 120.309 200.598 160.403Z" fill="#F9F9F9" stroke="black" stroke-width="2" stroke-linejoin="round"/>
</svg>
