<svg width="252" height="250" viewBox="0 0 252 250" fill="none" xmlns="http://www.w3.org/2000/svg">
<path d="M126 122.789C104.982 122.789 86.6407 111.313 76.8861 94.2775L57.8175 127.193C77.2682 127.292 96.1497 137.44 106.577 155.524C117.045 173.678 116.336 195.222 106.588 212.168H145.412C135.664 195.222 134.955 173.678 145.423 155.524C155.85 137.44 174.732 127.292 194.182 127.193L175.114 94.2775C165.359 111.313 147.018 122.789 126 122.789Z" fill="#F9F9F9"/>
<path fill-rule="evenodd" clip-rule="evenodd" d="M76.8861 94.2775L126 9.5L175.114 94.2775C179.86 85.9888 182.573 76.384 182.573 66.1446C182.573 34.8607 157.245 9.5 126 9.5C94.7554 9.5 69.4265 34.8607 69.4265 66.1446C69.4265 76.384 72.14 85.9888 76.8861 94.2775ZM194.182 127.193C203.873 127.143 213.706 129.589 222.704 134.79C249.762 150.432 259.033 185.076 243.411 212.168L194.182 127.193ZM243.411 212.168C227.789 239.261 193.189 248.544 166.13 232.902C157.203 227.741 150.212 220.512 145.412 212.168H243.411ZM106.588 212.168H8.58883L57.8175 127.193C48.1266 127.143 38.2944 129.589 29.2962 134.79C2.23754 150.432 -7.03348 185.076 8.58883 212.168C24.2111 239.261 58.811 248.544 85.8696 232.902C94.7969 227.741 101.788 220.512 106.588 212.168Z" fill="#F9F9F9"/>
<path d="M106.588 212.168C116.336 195.222 117.045 173.678 106.577 155.524C96.1497 137.44 77.2682 127.292 57.8175 127.193L8.58883 212.168H106.588Z" fill="#F9F9F9"/>
<path d="M194.182 127.193C174.732 127.292 155.85 137.44 145.423 155.524C134.955 173.678 135.664 195.222 145.412 212.168H243.411L194.182 127.193Z" fill="#F9F9F9"/>
<path d="M175.114 94.2775L126 9.5L76.8861 94.2775C86.6407 111.313 104.982 122.789 126 122.789C147.018 122.789 165.359 111.313 175.114 94.2775Z" fill="#F9F9F9"/>
<path d="M126 9.5C94.7554 9.5 69.4265 34.8607 69.4265 66.1446C69.4265 76.384 72.14 85.9888 76.8861 94.2775M126 9.5C157.245 9.5 182.573 34.8607 182.573 66.1446C182.573 76.384 179.86 85.9888 175.114 94.2775M126 9.5L175.114 94.2775M126 9.5L76.8861 94.2775M243.411 212.168C227.789 239.261 193.189 248.544 166.13 232.902C157.203 227.741 150.212 220.512 145.412 212.168M243.411 212.168C259.033 185.076 249.762 150.432 222.704 134.79C213.706 129.589 203.873 127.143 194.182 127.193M243.411 212.168H145.412M243.411 212.168L194.182 127.193M8.58883 212.168C24.2111 239.261 58.8109 248.544 85.8696 232.902C94.7969 227.741 101.788 220.512 106.588 212.168M8.58883 212.168C-7.03348 185.076 2.23754 150.432 29.2962 134.79C38.2944 129.589 48.1266 127.143 57.8175 127.193M8.58883 212.168L57.8175 127.193M8.58883 212.168H106.588M175.114 94.2775C165.359 111.313 147.018 122.789 126 122.789C104.982 122.789 86.6407 111.313 76.8861 94.2775M175.114 94.2775L194.182 127.193M76.8861 94.2775L57.8175 127.193M194.182 127.193C174.732 127.292 155.85 137.44 145.423 155.524C134.955 173.678 135.664 195.222 145.412 212.168M145.412 212.168H106.588M106.588 212.168C116.336 195.222 117.045 173.678 106.577 155.524C96.1497 137.44 77.2682 127.292 57.8175 127.193" stroke="black" stroke-width="2" stroke-linejoin="round"/>
<path d="M106.589 212.168C116.337 195.222 117.046 173.678 106.578 155.524C96.1507 137.44 77.2692 127.292 57.8185 127.193L8.58984 212.168H106.589Z" fill="#F9F9F9"/>
<path d="M194.183 127.193C174.733 127.292 155.851 137.44 145.424 155.524C134.956 173.678 135.665 195.222 145.413 212.168H243.412L194.183 127.193Z" fill="#F9F9F9"/>
<path d="M175.115 94.2775L126.001 9.5L76.8871 94.2775C86.6417 111.313 104.983 122.789 126.001 122.789C147.019 122.789 165.36 111.313 175.115 94.2775Z" fill="#F9F9F9"/>
<path d="M106.589 212.168C116.337 195.222 117.046 173.678 106.578 155.524C96.1507 137.44 77.2692 127.292 57.8185 127.193L8.58984 212.168H106.589Z" stroke="black" stroke-width="2" stroke-linejoin="round"/>
<path d="M194.183 127.193C174.733 127.292 155.851 137.44 145.424 155.524C134.956 173.678 135.665 195.222 145.413 212.168H243.412L194.183 127.193Z" stroke="black" stroke-width="2" stroke-linejoin="round"/>
<path d="M175.115 94.2775L126.001 9.5L76.8871 94.2775C86.6417 111.313 104.983 122.789 126.001 122.789C147.019 122.789 165.36 111.313 175.115 94.2775Z" stroke="black" stroke-width="2" stroke-linejoin="round"/>
</svg>
