<svg width="252" height="252" viewBox="0 0 252 252" fill="none" xmlns="http://www.w3.org/2000/svg">
<path d="M1 1H126V126L251 1V126H126L251 251H126V126L1 251V126H126L1 1Z" fill="#F9F9F9"/>
<path d="M126 126H1V251L126 126ZM126 126H251V1L126 126ZM126 126V1H1L126 126ZM126 126V251H251L126 126Z" stroke="black" stroke-width="2" stroke-linejoin="round"/>
<path d="M126 1L188.5 63.5L126 126H251L188.5 188.5L126 126V251L63.5 188.5L126 126H1.00002L63.5 63.5L126 126V1Z" fill="#F9F9F9"/>
<path d="M126 126L63.5 63.5L1.00002 126H126ZM126 126L188.5 188.5L251 126H126ZM126 126L188.5 63.5L126 1V126ZM126 126L63.5 188.5L126 251V126Z" stroke="black" stroke-width="2" stroke-linejoin="round"/>
</svg>
