<svg width="252" height="252" viewBox="0 0 252 252" fill="none" xmlns="http://www.w3.org/2000/svg">
<path d="M10.5151 173.835C4.23323 158.67 1.00001 142.415 1.00001 126L0.999978 1.00001C17.4152 1.00001 33.6697 4.23322 48.8354 10.5151C64.0011 16.7969 77.781 26.0043 89.3883 37.6117C100.996 49.219 110.203 62.9989 116.485 78.1646C122.767 93.3303 126 109.585 126 126L126 251C109.585 251 93.3303 247.767 78.1646 241.485C62.9989 235.203 49.219 225.996 37.6117 214.388C26.0043 202.781 16.7969 189.001 10.5151 173.835Z" fill="#F9F9F9" stroke="black" stroke-width="2" stroke-linejoin="round"/>
<path d="M241.485 173.835C247.767 158.67 251 142.415 251 126L251 1.00001C234.585 1.00001 218.33 4.23322 203.165 10.5151C187.999 16.7969 174.219 26.0043 162.612 37.6117C151.004 49.219 141.797 62.9989 135.515 78.1646C129.233 93.3303 126 109.585 126 126L126 251C142.415 251 158.67 247.767 173.835 241.485C189.001 235.203 202.781 225.996 214.388 214.388C225.996 202.781 235.203 189.001 241.485 173.835Z" fill="#F9F9F9" stroke="black" stroke-width="2" stroke-linejoin="round"/>
</svg>
