<svg width="252" height="252" viewBox="0 0 252 252" fill="none" xmlns="http://www.w3.org/2000/svg">
<path d="M1 1H251V251H1V1Z" fill="#F9F9F9"/>
<path d="M251 126C251 195.036 195.036 251 126 251C56.9644 251 1 195.036 1 126C1 56.9644 56.9644 1 126 1C195.036 1 251 56.9644 251 126Z" fill="#F9F9F9"/>
<path d="M1 1H251M1 1V251M1 1L251 251M251 1V251M251 1L1 251M251 251H1M251 126C251 195.036 195.036 251 126 251C56.9644 251 1 195.036 1 126C1 56.9644 56.9644 1 126 1C195.036 1 251 56.9644 251 126Z" stroke="black" stroke-width="2" stroke-linejoin="round"/>
<path d="M37.6117 214.388C60.2322 237.009 91.4822 251 126 251C160.518 251 191.768 237.009 214.388 214.388L126 126L37.6117 214.388Z" fill="#F9F9F9"/>
<path d="M126 126L214.388 214.388C237.009 191.768 251 160.518 251 126C251 91.4822 237.009 60.2322 214.388 37.6117L126 126Z" fill="#F9F9F9"/>
<path d="M126 126L214.388 37.6117C191.768 14.9911 160.518 1 126 1C91.4822 1 60.2322 14.9911 37.6117 37.6117L126 126Z" fill="#F9F9F9"/>
<path d="M37.6117 214.388L126 126L37.6117 37.6117C14.9911 60.2322 1 91.4822 1 126C1 160.518 14.9911 191.768 37.6117 214.388Z" fill="#F9F9F9"/>
<path d="M37.6117 214.388C60.2322 237.009 91.4822 251 126 251C160.518 251 191.768 237.009 214.388 214.388M37.6117 214.388L126 126M37.6117 214.388C14.9911 191.768 1 160.518 1 126C1 91.4822 14.9911 60.2322 37.6117 37.6117M126 126L214.388 214.388M126 126L214.388 37.6117M126 126L37.6117 37.6117M214.388 214.388C237.009 191.768 251 160.518 251 126C251 91.4822 237.009 60.2322 214.388 37.6117M214.388 37.6117C191.768 14.9911 160.518 1 126 1C91.4822 1 60.2322 14.9911 37.6117 37.6117" stroke="black" stroke-width="2" stroke-linejoin="round"/>
</svg>
