<svg width="252" height="252" viewBox="0 0 252 252" fill="none" xmlns="http://www.w3.org/2000/svg">
<path d="M1 1H126H251V251H126H1V1Z" fill="#F9F9F9"/>
<path d="M204.125 126C204.125 169.147 169.147 204.125 126 204.125C82.8528 204.125 47.875 169.147 47.875 126C47.875 82.8528 82.8528 47.875 126 47.875C169.147 47.875 204.125 82.8528 204.125 126Z" fill="#F9F9F9"/>
<path d="M126 1H1V251H126M126 1H251V251H126M126 1V251M204.125 126C204.125 169.147 169.147 204.125 126 204.125C82.8528 204.125 47.875 169.147 47.875 126C47.875 82.8528 82.8528 47.875 126 47.875C169.147 47.875 204.125 82.8528 204.125 126Z" stroke="black" stroke-width="2" stroke-linejoin="round"/>
</svg>
