<svg width="252" height="252" viewBox="0 0 252 252" fill="none" xmlns="http://www.w3.org/2000/svg">
<path fill-rule="evenodd" clip-rule="evenodd" d="M181.243 70.7573L251 1V251H1L70.7573 181.243C84.8951 195.381 104.426 204.125 126 204.125C169.147 204.125 204.125 169.147 204.125 126C204.125 104.426 195.381 84.8951 181.243 70.7573ZM181.243 70.7573C167.105 56.6194 147.574 47.875 126 47.875C82.8528 47.875 47.875 82.8528 47.875 126C47.875 147.574 56.6194 167.105 70.7573 181.243L181.243 70.7573Z" fill="#F9F9F9"/>
<path d="M126 204.125C169.147 204.125 204.125 169.147 204.125 126C204.125 104.426 195.381 84.8951 181.243 70.7573L70.7573 181.243C84.8951 195.381 104.426 204.125 126 204.125Z" fill="#F9F9F9"/>
<path d="M251 1H1V251L70.7573 181.243C56.6194 167.105 47.875 147.574 47.875 126C47.875 82.8528 82.8528 47.875 126 47.875C147.574 47.875 167.105 56.6194 181.243 70.7573L251 1Z" fill="#F9F9F9"/>
<path d="M251 1H1V251M251 1V251H1M251 1L181.243 70.7573M1 251L70.7573 181.243M181.243 70.7573C167.105 56.6194 147.574 47.875 126 47.875C82.8528 47.875 47.875 82.8528 47.875 126C47.875 147.574 56.6194 167.105 70.7573 181.243M181.243 70.7573L70.7573 181.243M181.243 70.7573C195.381 84.8951 204.125 104.426 204.125 126C204.125 169.147 169.147 204.125 126 204.125C104.426 204.125 84.8951 195.381 70.7573 181.243" stroke="black" stroke-width="2" stroke-linecap="round" stroke-linejoin="round"/>
<path d="M126 204.125C169.147 204.125 204.125 169.147 204.125 126C204.125 104.426 195.381 84.8951 181.243 70.7573L70.7573 181.243C84.8951 195.381 104.426 204.125 126 204.125Z" fill="#F9F9F9"/>
<path d="M251 1H1V251L70.7573 181.243C56.6194 167.105 47.875 147.574 47.875 126C47.875 82.8528 82.8528 47.875 126 47.875C147.574 47.875 167.105 56.6194 181.243 70.7573L251 1Z" fill="#F9F9F9"/>
<path d="M181.243 70.7573L251 1H1V251L70.7573 181.243M181.243 70.7573C167.105 56.6194 147.574 47.875 126 47.875C82.8528 47.875 47.875 82.8528 47.875 126C47.875 147.574 56.6194 167.105 70.7573 181.243M181.243 70.7573L70.7573 181.243M181.243 70.7573C195.381 84.8951 204.125 104.426 204.125 126C204.125 169.147 169.147 204.125 126 204.125C104.426 204.125 84.8951 195.381 70.7573 181.243" stroke="black" stroke-width="2" stroke-linejoin="round"/>
</svg>
