<svg width="253" height="252" viewBox="0 0 253 252" fill="none" xmlns="http://www.w3.org/2000/svg">
<path d="M230.51 126C201.889 154.565 155.503 154.596 126.843 126.092C126.812 126.062 126.781 126.031 126.75 126C126.719 125.97 126.689 125.939 126.658 125.908C98.0973 97.3056 98.1278 51.0116 126.75 22.4466C155.403 -6.14887 201.858 -6.14887 230.51 22.4466C244.822 36.7296 251.985 55.4452 252 74.1653C252 74.204 252 74.2427 252 74.2814C251.985 93.0015 244.822 111.717 230.51 126Z" fill="#F9F9F9"/>
<path fill-rule="evenodd" clip-rule="evenodd" d="M252 74.2814V74.1653C251.985 55.4452 244.822 36.7296 230.51 22.4466C201.858 -6.14887 155.403 -6.14887 126.75 22.4466C98.1278 51.0116 98.0973 97.3056 126.658 125.908L1.50002 1V177.726C1.51285 159.004 8.67602 140.285 22.9895 126C35.5251 113.489 51.4681 106.452 67.8371 104.888C88.8829 102.878 110.633 109.915 126.75 126C139.285 138.511 146.337 154.422 147.904 170.758C149.918 191.762 142.867 213.468 126.75 229.553C98.0974 258.149 51.6422 258.149 22.9895 229.553C8.67601 215.268 1.51285 196.55 1.50002 177.827V251H252L126.843 126.092C155.503 154.596 201.889 154.565 230.51 126C244.822 111.717 251.985 93.0015 252 74.2814Z" fill="#F9F9F9"/>
<path d="M252 1H1.50002L126.658 125.908C98.0973 97.3056 98.1278 51.0116 126.75 22.4466C155.403 -6.14887 201.858 -6.14887 230.51 22.4466C244.822 36.7296 251.985 55.4452 252 74.1653V1Z" fill="#F9F9F9"/>
<path d="M252 74.2814C251.985 93.0015 244.822 111.717 230.51 126C201.889 154.565 155.503 154.596 126.843 126.092L252 251V74.2814Z" fill="#F9F9F9"/>
<path d="M22.9895 229.553C51.6422 258.149 98.0974 258.149 126.75 229.553C142.867 213.468 149.918 191.762 147.904 170.758C146.337 154.422 139.285 138.511 126.75 126C110.633 109.915 88.8829 102.878 67.8371 104.888C51.4681 106.452 35.5251 113.489 22.9895 126C8.67602 140.285 1.51285 159.004 1.50002 177.726V177.827C1.51285 196.55 8.67601 215.268 22.9895 229.553Z" fill="#F9F9F9"/>
<path d="M1.50002 1H252V74.1653M1.50002 1V177.726M1.50002 1L126.658 125.908M252 251H1.50002V177.827M252 251L126.843 126.092M252 251V74.2814M126.75 126C126.781 126.031 126.812 126.062 126.843 126.092M126.75 126C126.719 125.97 126.689 125.939 126.658 125.908M126.75 126C139.285 138.511 146.337 154.422 147.904 170.758M126.75 126C110.633 109.915 88.8829 102.878 67.8371 104.888M1.50002 177.726C1.51285 159.004 8.67602 140.285 22.9895 126C35.5251 113.489 51.4681 106.452 67.8371 104.888M1.50002 177.726C1.49999 177.76 1.49999 177.793 1.50002 177.827M1.50002 177.726V177.827M1.50002 177.827C1.51285 196.55 8.67601 215.268 22.9895 229.553C51.6422 258.149 98.0974 258.149 126.75 229.553C142.867 213.468 149.918 191.762 147.904 170.758M252 74.2814C251.985 93.0015 244.822 111.717 230.51 126C201.889 154.565 155.503 154.596 126.843 126.092M252 74.2814V74.1653M252 74.2814C252 74.2427 252 74.204 252 74.1653M126.843 126.092L126.658 125.908M126.843 126.092C139.32 138.589 146.341 154.462 147.904 170.758M252 74.1653C251.985 55.4452 244.822 36.7296 230.51 22.4466C201.858 -6.14887 155.403 -6.14887 126.75 22.4466C98.1278 51.0116 98.0973 97.3056 126.658 125.908M126.658 125.908C110.55 109.888 88.843 102.882 67.8371 104.888" stroke="black" stroke-width="2" stroke-linejoin="round"/>
<path d="M252 1H1.50002L126.658 125.908C98.0973 97.3056 98.1278 51.0116 126.75 22.4466C155.403 -6.14887 201.858 -6.14887 230.51 22.4466C244.822 36.7296 251.985 55.4452 252 74.1653V1Z" fill="#F9F9F9"/>
<path d="M252 74.2814C251.985 93.0015 244.822 111.717 230.51 126C201.889 154.565 155.503 154.596 126.843 126.092L252 251V74.2814Z" fill="#F9F9F9"/>
<path d="M22.9895 229.553C51.6422 258.149 98.0974 258.149 126.75 229.553C142.867 213.468 149.918 191.762 147.904 170.758C146.337 154.422 139.285 138.511 126.75 126C110.633 109.915 88.8829 102.878 67.8371 104.888C51.4681 106.452 35.5251 113.489 22.9895 126C8.67602 140.285 1.51285 159.004 1.50002 177.726V177.827C1.51285 196.55 8.67601 215.268 22.9895 229.553Z" fill="#F9F9F9"/>
<path d="M252 1H1.50002L126.658 125.908C98.0973 97.3056 98.1278 51.0116 126.75 22.4466C155.403 -6.14887 201.858 -6.14887 230.51 22.4466C244.822 36.7296 251.985 55.4452 252 74.1653V1Z" stroke="black" stroke-width="2" stroke-linecap="round" stroke-linejoin="round"/>
<path d="M252 74.2814C251.985 93.0015 244.822 111.717 230.51 126C201.889 154.565 155.503 154.596 126.843 126.092L252 251V74.2814Z" stroke="black" stroke-width="2" stroke-linecap="round" stroke-linejoin="round"/>
<path d="M22.9895 229.553C51.6422 258.149 98.0974 258.149 126.75 229.553C142.867 213.468 149.918 191.762 147.904 170.758C146.337 154.422 139.285 138.511 126.75 126C110.633 109.915 88.8829 102.878 67.8371 104.888C51.4681 106.452 35.5251 113.489 22.9895 126C8.67602 140.285 1.51285 159.004 1.50002 177.726V177.827C1.51285 196.55 8.67601 215.268 22.9895 229.553Z" stroke="black" stroke-width="2" stroke-linecap="round" stroke-linejoin="round"/>
</svg>
