<svg width="253" height="253" viewBox="0 0 253 253" fill="none" xmlns="http://www.w3.org/2000/svg">
<rect width="250.092" height="250.092" transform="translate(1 1)" fill="#F9F9F9"/>
<rect x="1.00195" y="1" width="250.092" height="250.092" fill="#F9F9F9" stroke="black" stroke-width="2" stroke-linejoin="round"/>
<path d="M1.35547 226C1.35547 170.772 46.127 126 101.355 126H125.355C125.908 126 126.355 126.448 126.355 127V151C126.355 206.228 81.5839 251 26.3555 251H2.35547C1.80318 251 1.35547 250.552 1.35547 250V226Z" fill="#F9F9F9" stroke="black" stroke-width="2" stroke-linejoin="round"/>
<path d="M26.3555 0.999996C81.5839 0.999998 126.355 45.7715 126.355 101L126.355 125C126.355 125.552 125.908 126 125.355 126L101.355 126C46.127 126 1.35547 81.2285 1.35547 26L1.35547 1.99999C1.35547 1.44771 1.80318 0.999995 2.35547 0.999995L26.3555 0.999996Z" fill="#F9F9F9" stroke="black" stroke-width="2" stroke-linejoin="round"/>
<path d="M126.355 101C126.355 45.7715 171.127 1 226.355 1H250.355C250.908 1 251.355 1.44772 251.355 2V26C251.355 81.2285 206.584 126 151.355 126H127.355C126.803 126 126.355 125.552 126.355 125V101Z" fill="#F9F9F9" stroke="black" stroke-width="2" stroke-linejoin="round"/>
<path d="M151.355 126C206.584 126 251.355 170.772 251.355 226L251.355 250C251.355 250.552 250.908 251 250.355 251L226.355 251C171.127 251 126.355 206.228 126.355 151L126.355 127C126.355 126.448 126.803 126 127.355 126L151.355 126Z" fill="#F9F9F9" stroke="black" stroke-width="2" stroke-linejoin="round"/>
</svg>
