<svg width="253" height="252" viewBox="0 0 253 252" fill="none" xmlns="http://www.w3.org/2000/svg">
<path d="M1.18408 1H82.7813H251.184V93.4479V167.233V209.116V251H174.361H1.18408V206.295V93.4479V74.5677V1Z" fill="#F9F9F9"/>
<path d="M251.184 1L1.18408 74.5677M251.184 1V93.4479M251.184 1H82.7813M251.184 1L174.361 251M1.18408 251V206.295M1.18408 251L251.184 209.116M1.18408 251L82.7813 1M1.18408 251H174.361M1.18408 74.5677V1H82.7813M1.18408 74.5677C8.30214 74.5677 170.817 87.1545 251.184 93.4479M1.18408 74.5677V93.4479M251.184 93.4479H1.18408M251.184 93.4479V167.233M1.18408 93.4479L251.184 167.233M1.18408 93.4479V206.295M251.184 167.233L1.18408 206.295M251.184 167.233V209.116M1.18408 206.295L251.184 209.116M251.184 209.116V251H174.361M82.7813 1L174.361 251" stroke="black" stroke-width="2" stroke-linejoin="round"/>
</svg>
