<svg width="253" height="252" viewBox="0 0 253 252" fill="none" xmlns="http://www.w3.org/2000/svg">
<path d="M251.184 251V200.62C232.253 217.214 212.709 234.328 193.638 251H251.184Z" fill="#F9F9F9"/>
<path d="M251.184 114.512C215.335 161.045 178.261 209.23 146.209 251H193.638C212.709 234.328 232.253 217.214 251.184 200.62V114.512Z" fill="#F9F9F9"/>
<path d="M251.184 97.762L115.069 251H146.209C178.261 209.23 215.335 161.045 251.184 114.512V97.762Z" fill="#F9F9F9"/>
<path d="M251.184 42.4302L101.679 251H115.069L251.184 97.762V42.4302Z" fill="#F9F9F9"/>
<path d="M186.241 1H160.597L1.18408 141.696V251H101.679L251.184 42.4302V1H247.182L20.0807 189.36L186.241 1Z" fill="#F9F9F9"/>
<path d="M92.8421 1L1.18408 113.417V141.696L160.597 1H92.8421Z" fill="#F9F9F9"/>
<path d="M33.6144 1L1.18408 27.8371V113.417L92.8421 1H33.6144Z" fill="#F9F9F9"/>
<path d="M1.18408 27.8371L33.6144 1H1.18408V27.8371Z" fill="#F9F9F9"/>
<path d="M20.0807 189.36L247.182 1H186.241L20.0807 189.36Z" fill="#F9F9F9"/>
<path d="M251.184 200.62V251H193.638M251.184 200.62C232.253 217.214 212.709 234.328 193.638 251M251.184 200.62V114.512M193.638 251H146.209M251.184 114.512C215.335 161.045 178.261 209.23 146.209 251M251.184 114.512V97.762M146.209 251H115.069M251.184 97.762L115.069 251M251.184 97.762V42.4302M115.069 251H101.679M251.184 42.4302L101.679 251M251.184 42.4302V1H247.182M101.679 251H1.18408V141.696M186.241 1H160.597M186.241 1L20.0807 189.36L247.182 1M186.241 1H247.182M160.597 1L1.18408 141.696M160.597 1H92.8421M1.18408 141.696V113.417M92.8421 1L1.18408 113.417M92.8421 1H33.6144M1.18408 113.417V27.8371M33.6144 1L1.18408 27.8371M33.6144 1H1.18408V27.8371" stroke="black" stroke-width="2" stroke-linejoin="round"/>
</svg>
