<svg width="253" height="252" viewBox="0 0 253 252" fill="none" xmlns="http://www.w3.org/2000/svg">
<path d="M1.18408 1.00024H126.184H251.184V126V251H126.184H1.18408V126V1.00024Z" fill="#F9F9F9"/>
<path d="M1.18408 1.00024V126M1.18408 1.00024H126.184M1.18408 1.00024L251.184 251M1.18408 1.00024L251.184 126M251.184 1.00024H126.184M251.184 1.00024L1.18408 251M251.184 1.00024L126.184 251M251.184 1.00024V126M251.184 251H126.184M251.184 251V126M251.184 251L1.18408 126M1.18408 251V126M1.18408 251L126.184 1.00024M1.18408 251H126.184" stroke="black" stroke-width="2" stroke-linejoin="round"/>
</svg>
