<svg width="253" height="253" viewBox="0 0 253 253" fill="none" xmlns="http://www.w3.org/2000/svg">
<path fill-rule="evenodd" clip-rule="evenodd" d="M1.18408 126.092L126.184 1.0918V251.092H1.18408V126.092ZM251.184 126.092V251.092H126.184L251.184 126.092Z" fill="#F9F9F9"/>
<path d="M251.184 126.092V1.0918H126.184V251.092L251.184 126.092Z" fill="#F9F9F9"/>
<path d="M1.18408 1.0918V126.092L126.184 1.0918H1.18408Z" fill="#F9F9F9"/>
<path d="M126.184 1.0918H1.18408V126.092M126.184 1.0918H251.184V126.092M126.184 1.0918L1.18408 126.092M126.184 1.0918V251.092M251.184 126.092V251.092H126.184M251.184 126.092L126.184 251.092M126.184 251.092H1.18408V126.092" stroke="black" stroke-width="2" stroke-linejoin="round"/>
<path d="M251.184 126.092V1.0918H126.184V251.092L251.184 126.092Z" fill="#F9F9F9"/>
<path d="M1.18408 1.0918V126.092L126.184 1.0918H1.18408Z" fill="#F9F9F9"/>
<path d="M126.184 1.0918H1.18408V126.092L126.184 1.0918ZM126.184 1.0918H251.184V126.092L126.184 251.092V1.0918Z" stroke="black" stroke-width="2" stroke-linecap="round" stroke-linejoin="round"/>
</svg>
