<svg width="253" height="253" viewBox="0 0 253 253" fill="none" xmlns="http://www.w3.org/2000/svg">
<path d="M1.18408 1.0918H251.184V251.092H1.18408V1.0918Z" fill="#F9F9F9"/>
<path d="M251.184 126.092C251.184 195.127 195.22 251.092 126.184 251.092C57.1485 251.092 1.18408 195.127 1.18408 126.092C1.18408 57.0562 57.1485 1.0918 126.184 1.0918C195.22 1.0918 251.184 57.0562 251.184 126.092Z" fill="#F9F9F9"/>
<path d="M1.18408 1.0918H251.184V251.092H1.18408V1.0918Z" stroke="black" stroke-width="2" stroke-linejoin="round"/>
<path d="M251.184 126.092C251.184 195.127 195.22 251.092 126.184 251.092C57.1485 251.092 1.18408 195.127 1.18408 126.092C1.18408 57.0562 57.1485 1.0918 126.184 1.0918C195.22 1.0918 251.184 57.0562 251.184 126.092Z" stroke="black" stroke-width="2" stroke-linejoin="round"/>
<path d="M251.184 126.092C251.184 195.127 195.22 251.092 126.184 251.092C57.1485 251.092 1.18408 195.127 1.18408 126.092C1.18408 57.0562 57.1485 1.0918 126.184 1.0918C195.22 1.0918 251.184 57.0562 251.184 126.092Z" fill="#F9F9F9" stroke="black" stroke-width="2" stroke-linecap="round" stroke-linejoin="round"/>
</svg>
