<svg width="253" height="253" viewBox="0 0 253 253" fill="none" xmlns="http://www.w3.org/2000/svg">
<path d="M1.18408 1.0918H251.184V251.092H1.18408V1.0918Z" fill="#F9F9F9"/>
<path d="M204.309 126.092C204.309 169.239 169.331 204.217 126.184 204.217C83.0368 204.217 48.0591 169.239 48.0591 126.092C48.0591 82.9446 83.0368 47.9668 126.184 47.9668C169.331 47.9668 204.309 82.9446 204.309 126.092Z" fill="#F9F9F9"/>
<path d="M1.18408 1.0918H251.184V251.092H1.18408V1.0918Z" stroke="black" stroke-width="2" stroke-linejoin="round"/>
<path d="M204.309 126.092C204.309 169.239 169.331 204.217 126.184 204.217C83.0368 204.217 48.0591 169.239 48.0591 126.092C48.0591 82.9446 83.0368 47.9668 126.184 47.9668C169.331 47.9668 204.309 82.9446 204.309 126.092Z" stroke="black" stroke-width="2" stroke-linejoin="round"/>
<path d="M204.309 126.092C204.309 169.239 169.331 204.217 126.184 204.217C83.0368 204.217 48.0591 169.239 48.0591 126.092C48.0591 82.9446 83.0368 47.9668 126.184 47.9668C169.331 47.9668 204.309 82.9446 204.309 126.092Z" fill="#F9F9F9" stroke="black" stroke-width="2" stroke-linecap="round" stroke-linejoin="round"/>
</svg>
