<svg width="252" height="253" viewBox="0 0 252 253" fill="none" xmlns="http://www.w3.org/2000/svg">
<path d="M251 251.184V1.18359L126 126.184L251 251.184Z" fill="#F9F9F9"/>
<path d="M1 1.18359V251.184L126 126.184L1 1.18359Z" fill="#F9F9F9"/>
<path d="M251 1.18359H1L126 126.184L251 1.18359Z" fill="#F9F9F9"/>
<path d="M1 251.184H251L126 126.184L1 251.184Z" fill="#F9F9F9"/>
<path d="M1 1.18359H251M1 1.18359V251.184M1 1.18359L126 126.184M251 1.18359V251.184M251 1.18359L126 126.184M251 251.184H1M251 251.184L126 126.184M1 251.184L126 126.184" stroke="black" stroke-width="2" stroke-linejoin="round"/>
<path d="M251 251.184V1.18359L126 126.184L251 251.184Z" fill="#F9F9F9"/>
<path d="M1 1.18359V251.184L126 126.184L1 1.18359Z" fill="#F9F9F9"/>
<path d="M126 126.184L251 1.18359V251.184L126 126.184ZM126 126.184L1 251.184V1.18359L126 126.184Z" stroke="black" stroke-width="2" stroke-linejoin="round"/>
</svg>
