<svg width="253" height="253" viewBox="0 0 253 253" fill="none" xmlns="http://www.w3.org/2000/svg">
<rect width="250.092" height="250.092" transform="translate(1.36804 1.18359)" fill="#F9F9F9"/>
<rect x="1.36572" y="1.18359" width="250.092" height="250.092" fill="#F9F9F9" stroke="black" stroke-width="2" stroke-linejoin="round"/>
<path fill-rule="evenodd" clip-rule="evenodd" d="M63.8251 1.18359C29.3291 1.18359 1.36456 29.1481 1.36456 63.6441C1.36456 98.1402 29.3291 126.105 63.8251 126.105C98.3211 126.105 126.286 98.1402 126.286 63.6441C126.286 29.1481 98.3211 1.18359 63.8251 1.18359ZM63.8251 126.356C29.3291 126.356 1.36456 154.32 1.36456 188.816C1.36456 223.312 29.3291 251.277 63.8251 251.277C98.3211 251.277 126.286 223.312 126.286 188.816C126.286 154.32 98.3211 126.356 63.8251 126.356ZM126.536 63.6441C126.536 29.1481 154.501 1.18359 188.997 1.18359C223.493 1.18359 251.458 29.1481 251.458 63.6441C251.458 98.1402 223.493 126.105 188.997 126.105C154.501 126.105 126.536 98.1402 126.536 63.6441ZM188.997 126.356C154.501 126.356 126.536 154.32 126.536 188.816C126.536 223.312 154.501 251.277 188.997 251.277C223.493 251.277 251.458 223.312 251.458 188.816C251.458 154.32 223.493 126.356 188.997 126.356Z" fill="#F9F9F9"/>
<path d="M2.36456 63.6441C2.36456 29.7004 29.8814 2.18359 63.8251 2.18359V0.183594C28.7768 0.183594 0.364563 28.5958 0.364563 63.6441H2.36456ZM63.8251 125.105C29.8814 125.105 2.36456 97.5879 2.36456 63.6441H0.364563C0.364563 98.6924 28.7768 127.105 63.8251 127.105V125.105ZM125.286 63.6441C125.286 97.5879 97.7688 125.105 63.8251 125.105V127.105C98.8734 127.105 127.286 98.6924 127.286 63.6441H125.286ZM63.8251 2.18359C97.7688 2.18359 125.286 29.7004 125.286 63.6441H127.286C127.286 28.5958 98.8734 0.183594 63.8251 0.183594V2.18359ZM2.36456 188.816C2.36456 154.872 29.8814 127.356 63.8251 127.356V125.356C28.7768 125.356 0.364563 153.768 0.364563 188.816H2.36456ZM63.8251 250.277C29.8814 250.277 2.36456 222.76 2.36456 188.816H0.364563C0.364563 223.864 28.7768 252.277 63.8251 252.277V250.277ZM125.286 188.816C125.286 222.76 97.7688 250.277 63.8251 250.277V252.277C98.8734 252.277 127.286 223.864 127.286 188.816H125.286ZM63.8251 127.356C97.7688 127.356 125.286 154.872 125.286 188.816H127.286C127.286 153.768 98.8734 125.356 63.8251 125.356V127.356ZM188.997 0.183594C153.949 0.183594 125.536 28.5958 125.536 63.6441H127.536C127.536 29.7004 155.053 2.18359 188.997 2.18359V0.183594ZM252.458 63.6441C252.458 28.5958 224.045 0.183594 188.997 0.183594V2.18359C222.941 2.18359 250.458 29.7004 250.458 63.6441H252.458ZM188.997 127.105C224.045 127.105 252.458 98.6924 252.458 63.6441H250.458C250.458 97.5879 222.941 125.105 188.997 125.105V127.105ZM125.536 63.6441C125.536 98.6924 153.949 127.105 188.997 127.105V125.105C155.053 125.105 127.536 97.5879 127.536 63.6441H125.536ZM127.536 188.816C127.536 154.872 155.053 127.356 188.997 127.356V125.356C153.949 125.356 125.536 153.768 125.536 188.816H127.536ZM188.997 250.277C155.053 250.277 127.536 222.76 127.536 188.816H125.536C125.536 223.864 153.949 252.277 188.997 252.277V250.277ZM250.458 188.816C250.458 222.76 222.941 250.277 188.997 250.277V252.277C224.045 252.277 252.458 223.864 252.458 188.816H250.458ZM188.997 127.356C222.941 127.356 250.458 154.872 250.458 188.816H252.458C252.458 153.768 224.045 125.356 188.997 125.356V127.356Z" fill="black"/>
</svg>
