<svg width="253" height="253" viewBox="0 0 253 253" fill="none" xmlns="http://www.w3.org/2000/svg">
<rect width="250.092" height="250.092" transform="translate(1.45996 1.18359)" fill="#F9F9F9"/>
<rect x="1.45901" y="1.18359" width="250.092" height="250.092" fill="#F9F9F9" stroke="black" stroke-width="2" stroke-linejoin="round"/>
<path fill-rule="evenodd" clip-rule="evenodd" d="M1.45856 42.8656C1.45856 19.8453 20.1202 1.18359 43.1406 1.18359C66.1609 1.18359 84.8226 19.8453 84.8226 42.8656C84.8226 65.8859 66.1609 84.5476 43.1406 84.5476C20.1202 84.5476 1.45856 65.8859 1.45856 42.8656ZM1.45856 126.397C1.45856 103.377 20.1202 84.7148 43.1406 84.7148C66.1609 84.7148 84.8226 103.377 84.8226 126.397C84.8226 149.417 66.1609 168.079 43.1406 168.079C20.1202 168.079 1.45856 149.417 1.45856 126.397ZM43.1406 168.244C20.1202 168.244 1.45856 186.906 1.45856 209.926C1.45856 232.946 20.1202 251.608 43.1406 251.608C66.1609 251.608 84.8226 232.946 84.8226 209.926C84.8226 186.906 66.1609 168.244 43.1406 168.244ZM84.9878 42.8656C84.9878 19.8453 103.65 1.18359 126.67 1.18359C149.69 1.18359 168.352 19.8453 168.352 42.8656C168.352 65.8859 149.69 84.5476 126.67 84.5476C103.65 84.5476 84.9878 65.8859 84.9878 42.8656ZM126.67 84.7148C103.65 84.7148 84.9878 103.377 84.9878 126.397C84.9878 149.417 103.65 168.079 126.67 168.079C149.69 168.079 168.352 149.417 168.352 126.397C168.352 103.377 149.69 84.7148 126.67 84.7148ZM84.9878 209.926C84.9878 186.906 103.65 168.244 126.67 168.244C149.69 168.244 168.352 186.906 168.352 209.926C168.352 232.946 149.69 251.608 126.67 251.608C103.65 251.608 84.9878 232.946 84.9878 209.926ZM210.203 1.18359C187.183 1.18359 168.521 19.8453 168.521 42.8656C168.521 65.8859 187.183 84.5476 210.203 84.5476C233.223 84.5476 251.885 65.8859 251.885 42.8656C251.885 19.8453 233.223 1.18359 210.203 1.18359ZM168.521 126.397C168.521 103.377 187.183 84.7148 210.203 84.7148C233.223 84.7148 251.885 103.377 251.885 126.397C251.885 149.417 233.223 168.079 210.203 168.079C187.183 168.079 168.521 149.417 168.521 126.397ZM210.203 168.244C187.183 168.244 168.521 186.906 168.521 209.926C168.521 232.946 187.183 251.608 210.203 251.608C233.223 251.608 251.885 232.946 251.885 209.926C251.885 186.906 233.223 168.244 210.203 168.244Z" fill="#F9F9F9"/>
<path d="M43.1406 0.183594C19.5679 0.183594 0.458557 19.293 0.458557 42.8656H2.45856C2.45856 20.3975 20.6725 2.18359 43.1406 2.18359V0.183594ZM85.8226 42.8656C85.8226 19.293 66.7132 0.183594 43.1406 0.183594V2.18359C65.6086 2.18359 83.8226 20.3975 83.8226 42.8656H85.8226ZM43.1406 85.5476C66.7132 85.5476 85.8226 66.4382 85.8226 42.8656H83.8226C83.8226 65.3336 65.6086 83.5476 43.1406 83.5476V85.5476ZM0.458557 42.8656C0.458557 66.4382 19.5679 85.5476 43.1406 85.5476V83.5476C20.6725 83.5476 2.45856 65.3336 2.45856 42.8656H0.458557ZM43.1406 83.7148C19.5679 83.7148 0.458557 102.824 0.458557 126.397H2.45856C2.45856 103.929 20.6725 85.7148 43.1406 85.7148V83.7148ZM85.8226 126.397C85.8226 102.824 66.7132 83.7148 43.1406 83.7148V85.7148C65.6086 85.7148 83.8226 103.929 83.8226 126.397H85.8226ZM43.1406 169.079C66.7132 169.079 85.8226 149.969 85.8226 126.397H83.8226C83.8226 148.865 65.6086 167.079 43.1406 167.079V169.079ZM0.458557 126.397C0.458557 149.969 19.5679 169.079 43.1406 169.079V167.079C20.6725 167.079 2.45856 148.865 2.45856 126.397H0.458557ZM2.45856 209.926C2.45856 187.458 20.6725 169.244 43.1406 169.244V167.244C19.5679 167.244 0.458557 186.354 0.458557 209.926H2.45856ZM43.1406 250.608C20.6725 250.608 2.45856 232.394 2.45856 209.926H0.458557C0.458557 233.499 19.5679 252.608 43.1406 252.608V250.608ZM83.8226 209.926C83.8226 232.394 65.6086 250.608 43.1406 250.608V252.608C66.7132 252.608 85.8226 233.499 85.8226 209.926H83.8226ZM43.1406 169.244C65.6086 169.244 83.8226 187.458 83.8226 209.926H85.8226C85.8226 186.354 66.7132 167.244 43.1406 167.244V169.244ZM126.67 0.183594C103.097 0.183594 83.9878 19.293 83.9878 42.8656H85.9878C85.9878 20.3975 104.202 2.18359 126.67 2.18359V0.183594ZM169.352 42.8656C169.352 19.293 150.242 0.183594 126.67 0.183594V2.18359C149.138 2.18359 167.352 20.3975 167.352 42.8656H169.352ZM126.67 85.5476C150.242 85.5476 169.352 66.4382 169.352 42.8656H167.352C167.352 65.3336 149.138 83.5476 126.67 83.5476V85.5476ZM83.9878 42.8656C83.9878 66.4382 103.097 85.5476 126.67 85.5476V83.5476C104.202 83.5476 85.9878 65.3336 85.9878 42.8656H83.9878ZM85.9878 126.397C85.9878 103.929 104.202 85.7148 126.67 85.7148V83.7148C103.097 83.7148 83.9878 102.824 83.9878 126.397H85.9878ZM126.67 167.079C104.202 167.079 85.9878 148.865 85.9878 126.397H83.9878C83.9878 149.969 103.097 169.079 126.67 169.079V167.079ZM167.352 126.397C167.352 148.865 149.138 167.079 126.67 167.079V169.079C150.242 169.079 169.352 149.969 169.352 126.397H167.352ZM126.67 85.7148C149.138 85.7148 167.352 103.929 167.352 126.397H169.352C169.352 102.824 150.242 83.7148 126.67 83.7148V85.7148ZM126.67 167.244C103.097 167.244 83.9878 186.354 83.9878 209.926H85.9878C85.9878 187.458 104.202 169.244 126.67 169.244V167.244ZM169.352 209.926C169.352 186.354 150.242 167.244 126.67 167.244V169.244C149.138 169.244 167.352 187.458 167.352 209.926H169.352ZM126.67 252.608C150.242 252.608 169.352 233.499 169.352 209.926H167.352C167.352 232.394 149.138 250.608 126.67 250.608V252.608ZM83.9878 209.926C83.9878 233.499 103.097 252.608 126.67 252.608V250.608C104.202 250.608 85.9878 232.394 85.9878 209.926H83.9878ZM169.521 42.8656C169.521 20.3975 187.735 2.18359 210.203 2.18359V0.183594C186.63 0.183594 167.521 19.293 167.521 42.8656H169.521ZM210.203 83.5476C187.735 83.5476 169.521 65.3336 169.521 42.8656H167.521C167.521 66.4382 186.63 85.5476 210.203 85.5476V83.5476ZM250.885 42.8656C250.885 65.3336 232.671 83.5476 210.203 83.5476V85.5476C233.776 85.5476 252.885 66.4382 252.885 42.8656H250.885ZM210.203 2.18359C232.671 2.18359 250.885 20.3975 250.885 42.8656H252.885C252.885 19.293 233.776 0.183594 210.203 0.183594V2.18359ZM210.203 83.7148C186.63 83.7148 167.521 102.824 167.521 126.397H169.521C169.521 103.929 187.735 85.7148 210.203 85.7148V83.7148ZM252.885 126.397C252.885 102.824 233.776 83.7148 210.203 83.7148V85.7148C232.671 85.7148 250.885 103.929 250.885 126.397H252.885ZM210.203 169.079C233.776 169.079 252.885 149.969 252.885 126.397H250.885C250.885 148.865 232.671 167.079 210.203 167.079V169.079ZM167.521 126.397C167.521 149.969 186.63 169.079 210.203 169.079V167.079C187.735 167.079 169.521 148.865 169.521 126.397H167.521ZM169.521 209.926C169.521 187.458 187.735 169.244 210.203 169.244V167.244C186.63 167.244 167.521 186.354 167.521 209.926H169.521ZM210.203 250.608C187.735 250.608 169.521 232.394 169.521 209.926H167.521C167.521 233.499 186.63 252.608 210.203 252.608V250.608ZM250.885 209.926C250.885 232.394 232.671 250.608 210.203 250.608V252.608C233.776 252.608 252.885 233.499 252.885 209.926H250.885ZM210.203 169.244C232.671 169.244 250.885 187.458 250.885 209.926H252.885C252.885 186.354 233.776 167.244 210.203 167.244V169.244Z" fill="black"/>
</svg>
