<svg width="253" height="253" viewBox="0 0 253 253" fill="none" xmlns="http://www.w3.org/2000/svg">
<rect width="250.092" height="250.092" transform="translate(1.64404 1.18359)" fill="#F9F9F9"/>
<rect x="1.64471" y="1.1843" width="250.092" height="250.092" fill="#F9F9F9" stroke="black" stroke-width="2" stroke-linejoin="round"/>
<path fill-rule="evenodd" clip-rule="evenodd" d="M45.4937 251.184C63.851 251.184 79.5737 219.027 86.1079 173.395C92.6421 219.027 108.365 251.184 126.722 251.184C145.007 251.184 160.678 219.281 167.258 173.937C173.839 219.281 189.51 251.184 207.794 251.184C232.012 251.184 251.644 195.219 251.644 126.184C251.644 57.148 232.012 1.18359 207.794 1.18359C189.51 1.18359 173.839 33.0864 167.258 78.4305C160.678 33.0864 145.007 1.18359 126.722 1.18359C108.365 1.18359 92.6421 33.3405 86.1079 78.9719C79.5737 33.3405 63.851 1.18359 45.4937 1.18359C21.2762 1.18359 1.64404 57.148 1.64404 126.184C1.64404 195.219 21.2762 251.184 45.4937 251.184Z" fill="#F9F9F9"/>
<path d="M86.1079 173.395L87.0978 173.254H85.118L86.1079 173.395ZM167.258 173.937L168.248 173.793H166.269L167.258 173.937ZM167.258 78.4305L166.269 78.5742H168.248L167.258 78.4305ZM86.1079 78.9719L85.118 79.1136H87.0978L86.1079 78.9719ZM85.118 173.254C81.8601 196.005 76.3188 215.334 69.3445 228.945C62.325 242.644 54.0562 250.184 45.4937 250.184V252.184C55.2885 252.184 64.0597 243.645 71.1244 229.857C78.2344 215.982 83.8215 196.417 87.0978 173.537L85.118 173.254ZM126.722 250.184C118.16 250.184 109.891 242.644 102.871 228.945C95.897 215.334 90.3557 196.005 87.0978 173.254L85.118 173.537C88.3943 196.417 93.9814 215.982 101.091 229.857C108.156 243.645 116.927 252.184 126.722 252.184V250.184ZM166.269 173.793C162.988 196.401 157.448 215.595 150.49 229.106C143.488 242.705 135.25 250.184 126.722 250.184V252.184C136.478 252.184 145.219 243.711 152.268 230.022C159.362 216.246 164.948 196.816 168.248 174.08L166.269 173.793ZM207.794 250.184C199.266 250.184 191.029 242.705 184.026 229.106C177.069 215.595 171.529 196.401 168.248 173.793L166.269 174.08C169.568 196.816 175.154 216.246 182.248 230.022C189.298 243.711 198.038 252.184 207.794 252.184V250.184ZM250.644 126.184C250.644 160.619 245.746 191.752 237.857 214.241C233.911 225.49 229.235 234.522 224.093 240.722C218.945 246.929 213.433 250.184 207.794 250.184V252.184C214.265 252.184 220.288 248.443 225.632 241.999C230.982 235.548 235.755 226.275 239.744 214.903C247.726 192.15 252.644 160.783 252.644 126.184H250.644ZM207.794 2.18359C213.433 2.18359 218.945 5.43866 224.093 11.6451C229.235 17.8454 233.911 26.8774 237.857 38.1263C245.746 60.6149 250.644 91.7478 250.644 126.184H252.644C252.644 91.5838 247.726 60.2167 239.744 37.4642C235.755 26.0926 230.982 16.8187 225.632 10.3683C220.288 3.92408 214.265 0.183594 207.794 0.183594V2.18359ZM168.248 78.5742C171.529 55.9661 177.069 36.7721 184.026 23.2608C191.029 9.6625 199.266 2.18359 207.794 2.18359V0.183594C198.038 0.183594 189.298 8.65607 182.248 22.3452C175.154 36.1213 169.568 55.5508 166.269 78.2869L168.248 78.5742ZM126.722 2.18359C135.25 2.18359 143.488 9.6625 150.49 23.2608C157.448 36.7721 162.988 55.9661 166.269 78.5742L168.248 78.2869C164.948 55.5508 159.362 36.1213 152.268 22.3452C145.219 8.65607 136.478 0.183594 126.722 0.183594V2.18359ZM87.0978 79.1136C90.3557 56.3621 95.897 37.0327 102.871 23.422C109.891 9.72294 118.16 2.18359 126.722 2.18359V0.183594C116.927 0.183594 108.156 8.72268 101.091 22.5099C93.9814 36.3855 88.3943 55.9502 85.118 78.8301L87.0978 79.1136ZM45.4937 2.18359C54.0562 2.18359 62.325 9.72294 69.3445 23.422C76.3188 37.0327 81.8601 56.3621 85.118 79.1136L87.0978 78.8301C83.8215 55.9502 78.2344 36.3855 71.1244 22.5099C64.0597 8.72268 55.2885 0.183594 45.4937 0.183594V2.18359ZM2.64404 126.184C2.64404 91.7478 7.542 60.6149 15.4309 38.1263C19.377 26.8774 24.0528 17.8454 29.1951 11.6451C34.3426 5.43866 39.8553 2.18359 45.4937 2.18359V0.183594C39.0233 0.183594 33.0004 3.92408 27.6557 10.3683C22.3059 16.8187 17.5328 26.0926 13.5437 37.4642C5.56217 60.2167 0.644043 91.5838 0.644043 126.184H2.64404ZM45.4937 250.184C39.8553 250.184 34.3426 246.929 29.1951 240.722C24.0528 234.522 19.377 225.49 15.4309 214.241C7.542 191.752 2.64404 160.619 2.64404 126.184H0.644043C0.644043 160.783 5.56217 192.15 13.5437 214.903C17.5328 226.275 22.3059 235.548 27.6557 241.999C33.0004 248.443 39.0233 252.184 45.4937 252.184V250.184Z" fill="black"/>
</svg>
