<svg width="253" height="253" viewBox="0 0 253 253" fill="none" xmlns="http://www.w3.org/2000/svg">
<rect width="250.092" height="250.092" transform="translate(1.73608 1.18359)" fill="#F9F9F9"/>
<rect x="1.73749" y="1.1843" width="250.092" height="250.092" fill="#F9F9F9" stroke="black" stroke-width="2" stroke-linejoin="round"/>
<path fill-rule="evenodd" clip-rule="evenodd" d="M64.2993 1.0918C29.643 1.0918 1.54858 29.1862 1.54858 63.8425V188.341C1.54858 222.997 29.643 251.092 64.2993 251.092C96.2574 251.092 122.636 227.202 126.549 196.306C130.463 227.202 156.841 251.092 188.799 251.092C223.456 251.092 251.55 222.997 251.55 188.341V63.8425C251.55 29.1862 223.456 1.0918 188.799 1.0918C156.841 1.0918 130.463 24.982 126.549 55.8777C122.636 24.982 96.2574 1.0918 64.2993 1.0918Z" fill="#F9F9F9"/>
<path d="M126.549 196.306L127.541 196.18H125.557L126.549 196.306ZM126.549 55.8777L125.557 56.0033H127.541L126.549 55.8777ZM2.54858 63.8425C2.54858 29.7385 30.1953 2.0918 64.2993 2.0918V0.0917969C29.0907 0.0917969 0.548584 28.634 0.548584 63.8425H2.54858ZM2.54858 188.341V63.8425H0.548584V188.341H2.54858ZM64.2993 250.092C30.1953 250.092 2.54858 222.445 2.54858 188.341H0.548584C0.548584 223.55 29.0907 252.092 64.2993 252.092V250.092ZM125.557 196.18C121.706 226.583 95.7474 250.092 64.2993 250.092V252.092C96.7675 252.092 123.565 227.821 127.541 196.432L125.557 196.18ZM188.799 250.092C157.351 250.092 131.392 226.583 127.541 196.18L125.557 196.432C129.533 227.821 156.331 252.092 188.799 252.092V250.092ZM250.55 188.341C250.55 222.445 222.903 250.092 188.799 250.092V252.092C224.008 252.092 252.55 223.55 252.55 188.341H250.55ZM250.55 63.8425V188.341H252.55V63.8425H250.55ZM188.799 2.0918C222.903 2.0918 250.55 29.7385 250.55 63.8425H252.55C252.55 28.634 224.008 0.0917969 188.799 0.0917969V2.0918ZM127.541 56.0033C131.392 25.6011 157.351 2.0918 188.799 2.0918V0.0917969C156.331 0.0917969 129.533 24.363 125.557 55.752L127.541 56.0033ZM64.2993 2.0918C95.7474 2.0918 121.706 25.6011 125.557 56.0033L127.541 55.752C123.565 24.363 96.7675 0.0917969 64.2993 0.0917969V2.0918Z" fill="black"/>
</svg>
