<svg width="253" height="253" viewBox="0 0 253 253" fill="none" xmlns="http://www.w3.org/2000/svg">
<rect width="250.092" height="250.092" transform="translate(1.82812 1.18359)" fill="#F9F9F9"/>
<rect x="1.82629" y="1.1843" width="250.092" height="250.092" fill="#F9F9F9" stroke="black" stroke-width="2" stroke-linejoin="round"/>
<path fill-rule="evenodd" clip-rule="evenodd" d="M1.82812 42.8656C1.82812 19.8453 20.4898 1.18359 43.5101 1.18359C66.4719 1.18359 85.0972 19.7505 85.1918 42.69C85.2864 19.7505 103.912 1.18359 126.873 1.18359C149.006 1.18359 167.11 18.434 168.473 40.2233C169.836 18.4341 187.94 1.18359 210.073 1.18359C233.093 1.18359 251.755 19.8453 251.755 42.8656V209.594C251.755 232.614 233.093 251.276 210.073 251.276C187.94 251.276 169.836 234.025 168.473 212.236C167.11 234.025 149.006 251.276 126.873 251.276C103.912 251.276 85.2864 232.709 85.1918 209.769C85.0972 232.709 66.4719 251.276 43.5101 251.276C20.4898 251.276 1.82812 232.614 1.82812 209.594V42.8656Z" fill="#F9F9F9"/>
<path d="M85.1918 42.69L84.1918 42.6942H86.1918L85.1918 42.69ZM168.473 40.2233L167.475 40.2857H169.471L168.473 40.2233ZM168.473 212.236L169.471 212.173H167.475L168.473 212.236ZM85.1918 209.769L86.1918 209.765H84.1918L85.1918 209.769ZM43.5101 0.183594C19.9375 0.183594 0.828125 19.293 0.828125 42.8656H2.82812C2.82812 20.3976 21.0421 2.18359 43.5101 2.18359V0.183594ZM86.1918 42.6859C86.0949 19.1959 67.0228 0.183594 43.5101 0.183594V2.18359C65.921 2.18359 84.0995 20.305 84.1918 42.6942L86.1918 42.6859ZM126.873 0.183594C103.361 0.183594 84.2887 19.1959 84.1918 42.6859L86.1918 42.6942C86.2841 20.305 104.463 2.18359 126.873 2.18359V0.183594ZM169.471 40.1609C168.075 17.8479 149.538 0.183594 126.873 0.183594V2.18359C148.475 2.18359 166.145 19.0202 167.475 40.2857L169.471 40.1609ZM169.471 40.2857C170.801 19.0202 188.471 2.18359 210.073 2.18359V0.183594C187.408 0.183594 168.871 17.8479 167.475 40.1609L169.471 40.2857ZM210.073 2.18359C232.541 2.18359 250.755 20.3975 250.755 42.8656H252.755C252.755 19.293 233.645 0.183594 210.073 0.183594V2.18359ZM250.755 42.8656V209.594H252.755V42.8656H250.755ZM250.755 209.594C250.755 232.062 232.541 250.276 210.073 250.276V252.276C233.645 252.276 252.755 233.166 252.755 209.594H250.755ZM210.073 250.276C188.471 250.276 170.801 233.439 169.471 212.173L167.475 212.298C168.871 234.611 187.408 252.276 210.073 252.276V250.276ZM126.873 252.276C149.538 252.276 168.075 234.611 169.471 212.298L167.475 212.173C166.145 233.439 148.475 250.276 126.873 250.276V252.276ZM84.1918 209.773C84.2887 233.263 103.361 252.276 126.873 252.276V250.276C104.463 250.276 86.2841 232.154 86.1918 209.765L84.1918 209.773ZM43.5101 252.276C67.0228 252.276 86.0949 233.263 86.1918 209.773L84.1918 209.765C84.0994 232.154 65.921 250.276 43.5101 250.276V252.276ZM0.828125 209.594C0.828125 233.166 19.9375 252.276 43.5101 252.276V250.276C21.0421 250.276 2.82812 232.062 2.82812 209.594H0.828125ZM0.828125 42.8656V209.594H2.82812V42.8656H0.828125Z" fill="black"/>
</svg>
