<svg width="254" height="253" viewBox="0 0 254 253" fill="none" xmlns="http://www.w3.org/2000/svg">
<rect width="250.092" height="250.092" transform="translate(1.91992 1.18359)" fill="#F9F9F9"/>
<rect x="1.91809" y="1.1843" width="250.092" height="250.092" fill="#F9F9F9" stroke="black" stroke-width="2" stroke-linejoin="round"/>
<path d="M21.9199 62.7738C21.9199 39.7535 40.5816 21.0918 63.6019 21.0918C86.6223 21.0918 105.284 39.7535 105.284 62.7738C105.284 85.7941 86.6223 104.456 63.6019 104.456C40.5816 104.456 21.9199 85.7941 21.9199 62.7738Z" fill="#F9F9F9" stroke="black" stroke-width="2" stroke-linejoin="round"/>
<path d="M21.9199 189.834C21.9199 166.814 40.5816 148.152 63.6019 148.152C86.6223 148.152 105.284 166.814 105.284 189.834C105.284 212.855 86.6223 231.516 63.6019 231.516C40.5816 231.516 21.9199 212.855 21.9199 189.834Z" fill="#F9F9F9" stroke="black" stroke-width="2" stroke-linejoin="round"/>
<path d="M148.982 62.7738C148.982 39.7535 167.644 21.0918 190.664 21.0918C213.685 21.0918 232.346 39.7535 232.346 62.7738C232.346 85.7941 213.685 104.456 190.664 104.456C167.644 104.456 148.982 85.7941 148.982 62.7738Z" fill="#F9F9F9" stroke="black" stroke-width="2" stroke-linejoin="round"/>
<path d="M148.982 189.834C148.982 166.814 167.644 148.152 190.664 148.152C213.685 148.152 232.346 166.814 232.346 189.834C232.346 212.855 213.685 231.516 190.664 231.516C167.644 231.516 148.982 212.855 148.982 189.834Z" fill="#F9F9F9" stroke="black" stroke-width="2" stroke-linejoin="round"/>
</svg>
