<svg width="252" height="253" viewBox="0 0 252 253" fill="none" xmlns="http://www.w3.org/2000/svg">
<rect width="250" height="250" transform="translate(1 1.27539)" fill="#F9F9F9"/>
<path d="M1 26.2754C25.3594 25.9251 25.6493 25.6351 25.9996 1.27539C26.35 25.6351 26.6406 25.9251 51 26.2754C26.6406 26.6257 26.3507 26.9156 26.0004 51.2754C25.6501 26.9156 25.3594 26.6257 1 26.2754Z" fill="#F9F9F9"/>
<path d="M1 76.2754C25.3594 75.9251 25.6493 75.6351 25.9996 51.2754C26.35 75.6351 26.6406 75.9251 51 76.2754C26.6406 76.6257 26.3507 76.9156 26.0004 101.275C25.6501 76.9156 25.3594 76.6257 1 76.2754Z" fill="#F9F9F9"/>
<path d="M1 126.275C25.3594 125.925 25.6493 125.635 25.9996 101.275C26.35 125.635 26.6406 125.925 51 126.275C26.6406 126.626 26.3507 126.916 26.0004 151.275C25.6501 126.916 25.3594 126.626 1 126.275Z" fill="#F9F9F9"/>
<path d="M1 176.275C25.3594 175.925 25.6493 175.635 25.9996 151.275C26.35 175.635 26.6406 175.925 51 176.275C26.6406 176.626 26.3507 176.916 26.0004 201.275C25.6501 176.916 25.3594 176.626 1 176.275Z" fill="#F9F9F9"/>
<path d="M1 226.275C25.3594 225.925 25.6493 225.635 25.9996 201.275C26.35 225.635 26.6406 225.925 51 226.275C26.6406 226.626 26.3507 226.916 26.0004 251.275C25.6501 226.916 25.3594 226.626 1 226.275Z" fill="#F9F9F9"/>
<path d="M51 26.2754C75.3594 25.9251 75.6493 25.6351 75.9996 1.27539C76.35 25.6351 76.6406 25.9251 101 26.2754C76.6406 26.6257 76.3507 26.9156 76.0004 51.2754C75.65 26.9156 75.3594 26.6257 51 26.2754Z" fill="#F9F9F9"/>
<path d="M51 76.2754C75.3594 75.9251 75.6493 75.6351 75.9996 51.2754C76.35 75.6351 76.6406 75.9251 101 76.2754C76.6406 76.6257 76.3507 76.9156 76.0004 101.275C75.65 76.9156 75.3594 76.6257 51 76.2754Z" fill="#F9F9F9"/>
<path d="M51 126.275C75.3594 125.925 75.6493 125.635 75.9996 101.275C76.35 125.635 76.6406 125.925 101 126.275C76.6406 126.626 76.3507 126.916 76.0004 151.275C75.65 126.916 75.3594 126.626 51 126.275Z" fill="#F9F9F9"/>
<path d="M51 176.275C75.3594 175.925 75.6493 175.635 75.9996 151.275C76.35 175.635 76.6406 175.925 101 176.275C76.6406 176.626 76.3507 176.916 76.0004 201.275C75.65 176.916 75.3594 176.626 51 176.275Z" fill="#F9F9F9"/>
<path d="M51 226.275C75.3594 225.925 75.6493 225.635 75.9996 201.275C76.35 225.635 76.6406 225.925 101 226.275C76.6406 226.626 76.3507 226.916 76.0004 251.275C75.65 226.916 75.3594 226.626 51 226.275Z" fill="#F9F9F9"/>
<path d="M101 26.2754C125.359 25.9251 125.649 25.6351 126 1.27539C126.35 25.6351 126.641 25.9251 151 26.2754C126.641 26.6257 126.351 26.9156 126 51.2754C125.65 26.9156 125.359 26.6257 101 26.2754Z" fill="#F9F9F9"/>
<path d="M101 76.2754C125.359 75.9251 125.649 75.6351 126 51.2754C126.35 75.6351 126.641 75.9251 151 76.2754C126.641 76.6257 126.351 76.9156 126 101.275C125.65 76.9156 125.359 76.6257 101 76.2754Z" fill="#F9F9F9"/>
<path d="M101 126.275C125.359 125.925 125.649 125.635 126 101.275C126.35 125.635 126.641 125.925 151 126.275C126.641 126.626 126.351 126.916 126 151.275C125.65 126.916 125.359 126.626 101 126.275Z" fill="#F9F9F9"/>
<path d="M101 176.275C125.359 175.925 125.649 175.635 126 151.275C126.35 175.635 126.641 175.925 151 176.275C126.641 176.626 126.351 176.916 126 201.275C125.65 176.916 125.359 176.626 101 176.275Z" fill="#F9F9F9"/>
<path d="M101 226.275C125.359 225.925 125.649 225.635 126 201.275C126.35 225.635 126.641 225.925 151 226.275C126.641 226.626 126.351 226.916 126 251.275C125.65 226.916 125.359 226.626 101 226.275Z" fill="#F9F9F9"/>
<path d="M151 26.2754C175.359 25.9251 175.649 25.6351 176 1.27539C176.35 25.6351 176.641 25.9251 201 26.2754C176.641 26.6257 176.351 26.9156 176 51.2754C175.65 26.9156 175.359 26.6257 151 26.2754Z" fill="#F9F9F9"/>
<path d="M151 76.2754C175.359 75.9251 175.649 75.6351 176 51.2754C176.35 75.6351 176.641 75.9251 201 76.2754C176.641 76.6257 176.351 76.9156 176 101.275C175.65 76.9156 175.359 76.6257 151 76.2754Z" fill="#F9F9F9"/>
<path d="M151 126.275C175.359 125.925 175.649 125.635 176 101.275C176.35 125.635 176.641 125.925 201 126.275C176.641 126.626 176.351 126.916 176 151.275C175.65 126.916 175.359 126.626 151 126.275Z" fill="#F9F9F9"/>
<path d="M151 176.275C175.359 175.925 175.649 175.635 176 151.275C176.35 175.635 176.641 175.925 201 176.275C176.641 176.626 176.351 176.916 176 201.275C175.65 176.916 175.359 176.626 151 176.275Z" fill="#F9F9F9"/>
<path d="M151 226.275C175.359 225.925 175.649 225.635 176 201.275C176.35 225.635 176.641 225.925 201 226.275C176.641 226.626 176.351 226.916 176 251.275C175.65 226.916 175.359 226.626 151 226.275Z" fill="#F9F9F9"/>
<path d="M201 26.2754C225.359 25.9251 225.649 25.6351 226 1.27539C226.35 25.6351 226.641 25.9251 251 26.2754C226.641 26.6257 226.351 26.9156 226 51.2754C225.65 26.9156 225.359 26.6257 201 26.2754Z" fill="#F9F9F9"/>
<path d="M201 76.2754C225.359 75.9251 225.649 75.6351 226 51.2754C226.35 75.6351 226.641 75.9251 251 76.2754C226.641 76.6257 226.351 76.9156 226 101.275C225.65 76.9156 225.359 76.6257 201 76.2754Z" fill="#F9F9F9"/>
<path d="M201 126.275C225.359 125.925 225.649 125.635 226 101.275C226.35 125.635 226.641 125.925 251 126.275C226.641 126.626 226.351 126.916 226 151.275C225.65 126.916 225.359 126.626 201 126.275Z" fill="#F9F9F9"/>
<path d="M201 176.275C225.359 175.925 225.649 175.635 226 151.275C226.35 175.635 226.641 175.925 251 176.275C226.641 176.626 226.351 176.916 226 201.275C225.65 176.916 225.359 176.626 201 176.275Z" fill="#F9F9F9"/>
<path d="M201 226.275C225.359 225.925 225.649 225.635 226 201.275C226.35 225.635 226.641 225.925 251 226.275C226.641 226.626 226.351 226.916 226 251.275C225.65 226.916 225.359 226.626 201 226.275Z" fill="#F9F9F9"/>
<path d="M51 26.2754C26.6406 26.6257 26.3507 26.9156 26.0004 51.2754C25.6501 26.9156 25.3594 26.6257 1 26.2754C25.3594 25.9251 25.6493 25.6351 25.9996 1.27539C26.35 25.6351 26.6406 25.9251 51 26.2754ZM51 26.2754C75.3594 25.9251 75.6493 25.6351 75.9996 1.27539C76.35 25.6351 76.6406 25.9251 101 26.2754M51 26.2754C75.3594 26.6257 75.65 26.9156 76.0004 51.2754C76.3507 26.9156 76.6406 26.6257 101 26.2754M51 76.2754C26.6406 76.6257 26.3507 76.9156 26.0004 101.275C25.6501 76.9156 25.3594 76.6257 1 76.2754C25.3594 75.9251 25.6493 75.6351 25.9996 51.2754C26.35 75.6351 26.6406 75.9251 51 76.2754ZM51 76.2754C75.3594 75.9251 75.6493 75.6351 75.9996 51.2754C76.35 75.6351 76.6406 75.9251 101 76.2754M51 76.2754C75.3594 76.6257 75.65 76.9156 76.0004 101.275C76.3507 76.9156 76.6406 76.6257 101 76.2754M51 126.275C26.6406 126.626 26.3507 126.916 26.0004 151.275C25.6501 126.916 25.3594 126.626 1 126.275C25.3594 125.925 25.6493 125.635 25.9996 101.275C26.35 125.635 26.6406 125.925 51 126.275ZM51 126.275C75.3594 125.925 75.6493 125.635 75.9996 101.275C76.35 125.635 76.6406 125.925 101 126.275M51 126.275C75.3594 126.626 75.65 126.916 76.0004 151.275C76.3507 126.916 76.6406 126.626 101 126.275M51 176.275C26.6406 176.626 26.3507 176.916 26.0004 201.275C25.6501 176.916 25.3594 176.626 1 176.275C25.3594 175.925 25.6493 175.635 25.9996 151.275C26.35 175.635 26.6406 175.925 51 176.275ZM51 176.275C75.3594 175.925 75.6493 175.635 75.9996 151.275C76.35 175.635 76.6406 175.925 101 176.275M51 176.275C75.3594 176.626 75.65 176.916 76.0004 201.275C76.3507 176.916 76.6406 176.626 101 176.275M51 226.275C26.6406 226.626 26.3507 226.916 26.0004 251.275C25.6501 226.916 25.3594 226.626 1 226.275C25.3594 225.925 25.6493 225.635 25.9996 201.275C26.35 225.635 26.6406 225.925 51 226.275ZM51 226.275C75.3594 225.925 75.6493 225.635 75.9996 201.275C76.35 225.635 76.6406 225.925 101 226.275M51 226.275C75.3594 226.626 75.65 226.916 76.0004 251.275C76.3507 226.916 76.6406 226.626 101 226.275M101 26.2754C125.359 25.9251 125.649 25.6351 126 1.27539C126.35 25.6351 126.641 25.9251 151 26.2754M101 26.2754C125.359 26.6257 125.65 26.9156 126 51.2754C126.351 26.9156 126.641 26.6257 151 26.2754M101 76.2754C125.359 75.9251 125.649 75.6351 126 51.2754C126.35 75.6351 126.641 75.9251 151 76.2754M101 76.2754C125.359 76.6257 125.65 76.9156 126 101.275C126.351 76.9156 126.641 76.6257 151 76.2754M101 126.275C125.359 125.925 125.649 125.635 126 101.275C126.35 125.635 126.641 125.925 151 126.275M101 126.275C125.359 126.626 125.65 126.916 126 151.275C126.351 126.916 126.641 126.626 151 126.275M101 176.275C125.359 175.925 125.649 175.635 126 151.275C126.35 175.635 126.641 175.925 151 176.275M101 176.275C125.359 176.626 125.65 176.916 126 201.275C126.351 176.916 126.641 176.626 151 176.275M101 226.275C125.359 225.925 125.649 225.635 126 201.275C126.35 225.635 126.641 225.925 151 226.275M101 226.275C125.359 226.626 125.65 226.916 126 251.275C126.351 226.916 126.641 226.626 151 226.275M151 26.2754C175.359 25.9251 175.649 25.6351 176 1.27539C176.35 25.6351 176.641 25.9251 201 26.2754M151 26.2754C175.359 26.6257 175.65 26.9156 176 51.2754C176.351 26.9156 176.641 26.6257 201 26.2754M151 76.2754C175.359 75.9251 175.649 75.6351 176 51.2754C176.35 75.6351 176.641 75.9251 201 76.2754M151 76.2754C175.359 76.6257 175.65 76.9156 176 101.275C176.351 76.9156 176.641 76.6257 201 76.2754M151 126.275C175.359 125.925 175.649 125.635 176 101.275C176.35 125.635 176.641 125.925 201 126.275M151 126.275C175.359 126.626 175.65 126.916 176 151.275C176.351 126.916 176.641 126.626 201 126.275M151 176.275C175.359 175.925 175.649 175.635 176 151.275C176.35 175.635 176.641 175.925 201 176.275M151 176.275C175.359 176.626 175.65 176.916 176 201.275C176.351 176.916 176.641 176.626 201 176.275M151 226.275C175.359 225.925 175.649 225.635 176 201.275C176.35 225.635 176.641 225.925 201 226.275M151 226.275C175.359 226.626 175.65 226.916 176 251.275C176.351 226.916 176.641 226.626 201 226.275M201 26.2754C225.359 25.9251 225.649 25.6351 226 1.27539C226.35 25.6351 226.641 25.9251 251 26.2754C226.641 26.6257 226.351 26.9156 226 51.2754C225.65 26.9156 225.359 26.6257 201 26.2754ZM201 76.2754C225.359 75.9251 225.649 75.6351 226 51.2754C226.35 75.6351 226.641 75.9251 251 76.2754C226.641 76.6257 226.351 76.9156 226 101.275C225.65 76.9156 225.359 76.6257 201 76.2754ZM201 126.275C225.359 125.925 225.649 125.635 226 101.275C226.35 125.635 226.641 125.925 251 126.275C226.641 126.626 226.351 126.916 226 151.275C225.65 126.916 225.359 126.626 201 126.275ZM201 176.275C225.359 175.925 225.649 175.635 226 151.275C226.35 175.635 226.641 175.925 251 176.275C226.641 176.626 226.351 176.916 226 201.275C225.65 176.916 225.359 176.626 201 176.275ZM201 226.275C225.359 225.925 225.649 225.635 226 201.275C226.35 225.635 226.641 225.925 251 226.275C226.641 226.626 226.351 226.916 226 251.275C225.65 226.916 225.359 226.626 201 226.275Z" stroke="black" stroke-width="2" stroke-linejoin="round"/>
</svg>
