<svg width="256" height="257" viewBox="0 0 256 257" fill="none" xmlns="http://www.w3.org/2000/svg">
<rect width="250" height="250" transform="translate(3 3.27539)" fill="#F9F9F9"/>
<path d="M1.5 193.613C4.86543 178.08 23.5961 150.161 71.4817 139.096C79.0628 137.345 87.3746 136.015 96.472 135.225C90.7127 123.715 84.7956 112.26 78.876 101.076C45.2889 105.591 15.0075 125.319 1.5 137.334V193.613Z" fill="#F9F9F9"/>
<path d="M43.0975 255.275H84.695C57.2896 233.351 46.8832 193.613 45.1056 176.485C33.4918 206.516 37.6872 238.729 43.0975 255.275Z" fill="#F9F9F9"/>
<path d="M127.841 203.065C103.626 217.533 89.953 239.12 84.695 255.275H146.357C142.16 239.804 135.713 222.014 127.841 203.065Z" fill="#F9F9F9"/>
<path d="M146.357 30.1596C146.357 30.1596 107.207 20.3719 75.7383 34.564C82.0361 53.5123 86.6937 65.0166 93.9515 77.1123C127.313 59.6085 146.357 30.1596 146.357 30.1596Z" fill="#F9F9F9"/>
<path d="M1.5 1.77539V81.0553C7.23238 83.6767 14.3784 85.9887 22.5434 87.4736C40.3137 91.2196 56.5196 90.1164 70.9266 86.2185C63.0518 71.653 55.2969 57.7479 48.0326 45.0237C27.2793 47.6107 15.2769 33.1953 12.0217 1.77539H1.5Z" fill="#F9F9F9"/>
<path d="M71.4817 1.77539H22.5434C28.3717 11.2968 35.387 23.0779 43.0975 36.4288C44.7135 39.2269 46.36 42.094 48.0326 45.0237C55.9834 44.0326 65.2185 40.546 75.7383 34.564C75.1506 32.5429 74.5441 30.2495 74.056 28.202C71.346 16.8358 70.8153 7.77246 71.4817 1.77539Z" fill="#F9F9F9"/>
<path d="M167.89 255.275H255V199.975C226.984 190.034 202.877 186.555 182.326 187.461C198.724 222.961 182.342 246.346 167.89 255.275Z" fill="#F9F9F9"/>
<path d="M146.357 140.76C156.968 150.799 165.231 160.269 171.542 169.144C186.685 169.144 212.98 165.565 232.488 153.714C190.597 147.243 199.547 118.701 209.259 105.239C198.467 112.748 185.899 119.546 171.542 124.685C161.334 128.339 150.221 131.155 138.198 132.793C140.82 135.437 143.539 138.094 146.357 140.76Z" fill="#F9F9F9"/>
<path d="M78.876 101.076C89.5207 99.6458 100.498 99.7433 111.378 102.099C103.91 92.2816 98.4348 84.5841 93.9515 77.1123C86.9011 80.8114 79.2113 83.977 70.9266 86.2185C73.5676 91.1034 76.222 96.0626 78.876 101.076Z" fill="#F9F9F9"/>
<path d="M171.542 169.144C155.969 168.692 122.867 161.111 115.037 134.398C108.513 134.43 102.33 134.716 96.472 135.225C107.969 158.2 118.837 181.391 127.841 203.065C142.166 194.505 160.181 188.438 182.326 187.461C179.652 181.674 176.108 175.565 171.542 169.144Z" fill="#F9F9F9"/>
<path d="M209.259 63.9269C207.901 37.696 239.187 11.563 255 1.77539H183.061C177.687 9.75532 171.17 22.4611 166.491 37.7578C180.293 43.6521 198.063 52.7009 209.259 63.9269Z" fill="#F9F9F9"/>
<path d="M227.105 90.8459C222.948 80.2463 216.655 71.3428 209.259 63.9269C198.063 52.7009 180.293 43.6521 166.491 37.7578C158.803 62.8947 156.077 95.0282 171.542 124.685C185.899 119.546 198.467 112.748 209.259 105.239C215.874 100.636 221.821 95.7659 227.105 90.8459Z" fill="#F9F9F9"/>
<path d="M146.357 255.275H167.89C182.342 246.346 198.724 222.961 182.326 187.461C160.181 188.438 142.166 194.505 127.841 203.065C135.713 222.014 142.16 239.804 146.357 255.275Z" fill="#F9F9F9"/>
<path d="M255 199.975V127.547C251.093 138.999 242.725 147.495 232.488 153.714C212.98 165.565 186.685 169.144 171.542 169.144C176.108 175.565 179.652 181.674 182.326 187.461C202.877 186.555 226.984 190.034 255 199.975Z" fill="#F9F9F9"/>
<path d="M255 55.118C250.205 64.768 240.926 77.9768 227.105 90.8459C221.821 95.7659 215.874 100.636 209.259 105.239C199.547 118.701 190.597 147.243 232.488 153.714C242.725 147.495 251.093 138.999 255 127.547V55.118Z" fill="#F9F9F9"/>
<path d="M171.542 169.144C165.231 160.269 156.968 150.799 146.357 140.76C143.539 138.094 140.82 135.437 138.198 132.793C130.82 133.798 123.1 134.359 115.037 134.398C122.867 161.111 155.969 168.692 171.542 169.144Z" fill="#F9F9F9"/>
<path d="M138.198 132.793C150.221 131.155 161.334 128.339 171.542 124.685C156.077 95.0282 158.803 62.8947 166.491 37.7578C155.064 32.8773 146.357 30.1596 146.357 30.1596C146.357 30.1596 127.313 59.6085 93.9515 77.1123C98.4348 84.5841 103.91 92.2816 111.378 102.099C118.936 112.035 127.81 122.318 138.198 132.793Z" fill="#F9F9F9"/>
<path d="M78.876 101.076C84.7956 112.26 90.7127 123.715 96.472 135.225C102.33 134.716 108.513 134.43 115.037 134.398C123.1 134.359 130.82 133.798 138.198 132.793C127.81 122.318 118.936 112.035 111.378 102.099C100.498 99.7433 89.5207 99.6458 78.876 101.076Z" fill="#F9F9F9"/>
<path d="M255 55.118V1.77539C239.187 11.563 207.901 37.696 209.259 63.9269C216.655 71.3428 222.948 80.2463 227.105 90.8459C240.926 77.9768 250.205 64.768 255 55.118Z" fill="#F9F9F9"/>
<path d="M163.241 1.77539C157.286 13.2317 146.357 30.1596 146.357 30.1596C146.357 30.1596 155.064 32.8773 166.491 37.7578C171.17 22.4611 177.687 9.75532 183.061 1.77539H163.241Z" fill="#F9F9F9"/>
<path d="M163.241 1.77539H71.4817C70.8153 7.77246 71.346 16.8358 74.056 28.202C74.5441 30.2495 75.1506 32.5429 75.7383 34.564C107.207 20.3719 146.357 30.1596 146.357 30.1596C146.357 30.1596 157.286 13.2317 163.241 1.77539Z" fill="#F9F9F9"/>
<path d="M70.9266 86.2185C79.2113 83.977 86.9011 80.8114 93.9515 77.1123C86.6937 65.0166 82.0361 53.5123 75.7383 34.564C65.2185 40.546 55.9834 44.0326 48.0326 45.0237C55.2969 57.7479 63.0518 71.653 70.9266 86.2185Z" fill="#F9F9F9"/>
<path d="M43.0975 36.4288C35.387 23.0779 28.3717 11.2968 22.5434 1.77539H12.0217C15.2769 33.1953 27.2793 47.6107 48.0326 45.0237C46.36 42.094 44.7135 39.2269 43.0975 36.4288Z" fill="#F9F9F9"/>
<path d="M1.5 81.0553V137.334C15.0075 125.319 45.2889 105.591 78.876 101.076C76.222 96.0626 73.5676 91.1034 70.9266 86.2185C56.5196 90.1164 40.3137 91.2196 22.5434 87.4736C14.3784 85.9887 7.23238 83.6767 1.5 81.0553Z" fill="#F9F9F9"/>
<path d="M1.5 193.613V255.275H43.0975C37.6872 238.729 33.4918 206.516 45.1056 176.485C50.3 163.053 58.6567 150.058 71.4817 139.096C23.5961 150.161 4.86543 178.08 1.5 193.613Z" fill="#F9F9F9"/>
<path d="M71.4817 139.096C58.6567 150.058 50.3 163.053 45.1056 176.485C46.8832 193.613 57.2896 233.351 84.695 255.275C89.953 239.12 103.626 217.533 127.841 203.065C118.837 181.391 107.969 158.2 96.472 135.225C87.3746 136.015 79.0628 137.345 71.4817 139.096Z" fill="#F9F9F9"/>
<path d="M255 1.77539V55.1181M255 1.77539C239.187 11.563 207.901 37.696 209.259 63.9269M255 1.77539H183.061M71.4817 1.77539H163.241M71.4817 1.77539H22.5434M71.4817 1.77539C70.8153 7.77246 71.346 16.8358 74.056 28.202C74.5441 30.2495 75.1506 32.5429 75.7383 34.564M167.89 255.275H255V199.975M167.89 255.275H146.357M167.89 255.275C182.342 246.346 198.724 222.961 182.326 187.461M1.5 81.0553V1.77539H12.0217M1.5 81.0553V137.334M1.5 81.0553C7.23238 83.6766 14.3784 85.9887 22.5434 87.4736C40.3137 91.2196 56.5196 90.1164 70.9266 86.2185M163.241 1.77539C157.286 13.2317 146.357 30.1596 146.357 30.1596M163.241 1.77539H183.061M84.695 255.275H146.357M84.695 255.275H43.0975M84.695 255.275C57.2896 233.351 46.8832 193.613 45.1056 176.485M84.695 255.275C89.953 239.12 103.626 217.533 127.841 203.065M255 199.975V127.547M255 199.975C226.984 190.034 202.877 186.555 182.326 187.461M22.5434 1.77539C28.3717 11.2968 35.387 23.0779 43.0975 36.4288C44.7135 39.2269 46.36 42.094 48.0326 45.0237M22.5434 1.77539H12.0217M146.357 255.275C142.16 239.804 135.713 222.014 127.841 203.065M1.5 193.613V255.275H43.0975M1.5 193.613C4.86543 178.08 23.5961 150.161 71.4817 139.096M1.5 193.613V137.334M115.037 134.398C122.867 161.111 155.969 168.692 171.542 169.144M115.037 134.398C108.513 134.43 102.33 134.716 96.472 135.225M115.037 134.398C123.1 134.359 130.82 133.798 138.198 132.793M255 55.1181C250.205 64.768 240.926 77.9768 227.105 90.8459M255 55.1181V127.547M146.357 30.1596C146.357 30.1596 107.207 20.3719 75.7383 34.564M146.357 30.1596C146.357 30.1596 127.313 59.6085 93.9515 77.1123M146.357 30.1596C146.357 30.1596 155.064 32.8773 166.491 37.7578M227.105 90.8459C222.948 80.2463 216.655 71.3428 209.259 63.9269M227.105 90.8459C221.821 95.7659 215.874 100.636 209.259 105.239M43.0975 255.275C37.6872 238.729 33.4918 206.516 45.1056 176.485M71.4817 139.096C58.6567 150.058 50.3 163.053 45.1056 176.485M71.4817 139.096C79.0628 137.345 87.3746 136.015 96.472 135.225M171.542 169.144C165.231 160.269 156.968 150.799 146.357 140.76C143.539 138.094 140.82 135.437 138.198 132.793M171.542 169.144C186.685 169.144 212.98 165.565 232.488 153.714M171.542 169.144C176.108 175.565 179.652 181.674 182.326 187.461M255 127.547C251.093 138.999 242.725 147.495 232.488 153.714M209.259 63.9269C198.063 52.7009 180.293 43.6521 166.491 37.7578M183.061 1.77539C177.687 9.75532 171.17 22.4611 166.491 37.7578M171.542 124.685C185.899 119.546 198.467 112.748 209.259 105.239M171.542 124.685C161.334 128.339 150.221 131.155 138.198 132.793M171.542 124.685C156.077 95.0282 158.803 62.8947 166.491 37.7578M1.5 137.334C15.0075 125.319 45.2889 105.591 78.876 101.076M111.378 102.099C100.498 99.7433 89.5207 99.6458 78.876 101.076M111.378 102.099C118.936 112.035 127.81 122.318 138.198 132.793M111.378 102.099C103.91 92.2816 98.4348 84.5841 93.9515 77.1123M75.7383 34.564C82.0361 53.5123 86.6937 65.0166 93.9515 77.1123M75.7383 34.564C65.2185 40.546 55.9834 44.0326 48.0326 45.0237M12.0217 1.77539C15.2769 33.1953 27.2793 47.6107 48.0326 45.0237M209.259 105.239C199.547 118.701 190.597 147.243 232.488 153.714M96.472 135.225C90.7127 123.715 84.7956 112.26 78.876 101.076M96.472 135.225C107.969 158.2 118.837 181.391 127.841 203.065M78.876 101.076C76.222 96.0626 73.5676 91.1034 70.9266 86.2185M127.841 203.065C142.166 194.505 160.181 188.438 182.326 187.461M93.9515 77.1123C86.9011 80.8114 79.2113 83.977 70.9266 86.2185M70.9266 86.2185C63.0518 71.653 55.2969 57.7479 48.0326 45.0237" stroke="black" stroke-width="2" stroke-linejoin="round"/>
<path d="M1.5 193.613C4.86543 178.08 23.5961 150.161 71.4817 139.096C79.0628 137.345 87.3746 136.015 96.472 135.225C90.7127 123.715 84.7956 112.26 78.876 101.076C45.2889 105.591 15.0075 125.319 1.5 137.334V193.613Z" fill="#F9F9F9"/>
<path d="M43.0975 255.275H84.695C57.2896 233.351 46.8832 193.613 45.1056 176.485C33.4918 206.516 37.6872 238.729 43.0975 255.275Z" fill="#F9F9F9"/>
<path d="M127.841 203.065C103.626 217.533 89.953 239.12 84.695 255.275H146.357C142.16 239.804 135.713 222.014 127.841 203.065Z" fill="#F9F9F9"/>
<path d="M146.357 30.1596C146.357 30.1596 107.207 20.3719 75.7383 34.564C82.0361 53.5123 86.6937 65.0166 93.9515 77.1123C127.313 59.6085 146.357 30.1596 146.357 30.1596Z" fill="#F9F9F9"/>
<path d="M1.5 1.77539V81.0553C7.23238 83.6767 14.3784 85.9887 22.5434 87.4736C40.3137 91.2196 56.5196 90.1164 70.9266 86.2185C63.0518 71.653 55.2969 57.7479 48.0326 45.0237C27.2793 47.6107 15.2769 33.1953 12.0217 1.77539H1.5Z" fill="#F9F9F9"/>
<path d="M71.4817 1.77539H22.5434C28.3717 11.2968 35.387 23.0779 43.0975 36.4288C44.7135 39.2269 46.36 42.094 48.0326 45.0237C55.9834 44.0326 65.2185 40.546 75.7383 34.564C75.1506 32.5429 74.5441 30.2495 74.056 28.202C71.346 16.8358 70.8153 7.77246 71.4817 1.77539Z" fill="#F9F9F9"/>
<path d="M167.89 255.275H255V199.975C226.984 190.034 202.877 186.555 182.326 187.461C198.724 222.961 182.342 246.346 167.89 255.275Z" fill="#F9F9F9"/>
<path d="M146.357 140.76C156.968 150.799 165.231 160.269 171.542 169.144C186.685 169.144 212.98 165.565 232.488 153.714C190.597 147.243 199.547 118.701 209.259 105.239C198.467 112.748 185.899 119.546 171.542 124.685C161.334 128.339 150.221 131.155 138.198 132.793C140.82 135.437 143.539 138.094 146.357 140.76Z" fill="#F9F9F9"/>
<path d="M78.876 101.076C89.5207 99.6458 100.498 99.7433 111.378 102.099C103.91 92.2816 98.4348 84.5841 93.9515 77.1123C86.9011 80.8114 79.2113 83.977 70.9266 86.2185C73.5676 91.1034 76.222 96.0626 78.876 101.076Z" fill="#F9F9F9"/>
<path d="M171.542 169.144C155.969 168.692 122.867 161.111 115.037 134.398C108.513 134.43 102.33 134.716 96.472 135.225C107.969 158.2 118.837 181.391 127.841 203.065C142.166 194.505 160.181 188.438 182.326 187.461C179.652 181.674 176.108 175.565 171.542 169.144Z" fill="#F9F9F9"/>
<path d="M209.259 63.9269C207.901 37.696 239.187 11.563 255 1.77539H183.061C177.687 9.75532 171.17 22.4611 166.491 37.7578C180.293 43.6521 198.063 52.7009 209.259 63.9269Z" fill="#F9F9F9"/>
<path d="M227.105 90.8459C222.948 80.2463 216.655 71.3428 209.259 63.9269C198.063 52.7009 180.293 43.6521 166.491 37.7578C158.803 62.8947 156.077 95.0282 171.542 124.685C185.899 119.546 198.467 112.748 209.259 105.239C215.874 100.636 221.821 95.7659 227.105 90.8459Z" fill="#F9F9F9"/>
<path d="M255 1.77539V55.1181M255 1.77539C239.187 11.563 207.901 37.696 209.259 63.9269M255 1.77539H183.061M71.4817 1.77539H163.241M71.4817 1.77539H22.5434M71.4817 1.77539C70.8153 7.77246 71.346 16.8358 74.056 28.202C74.5441 30.2495 75.1506 32.5429 75.7383 34.564M167.89 255.275H255V199.975M167.89 255.275H146.357M167.89 255.275C182.342 246.346 198.724 222.961 182.326 187.461M1.5 81.0553V1.77539H12.0217M1.5 81.0553V137.334M1.5 81.0553C7.23238 83.6766 14.3784 85.9887 22.5434 87.4736C40.3137 91.2196 56.5196 90.1164 70.9266 86.2185M163.241 1.77539C157.286 13.2317 146.357 30.1596 146.357 30.1596M163.241 1.77539H183.061M84.695 255.275H146.357M84.695 255.275H43.0975M84.695 255.275C57.2896 233.351 46.8832 193.613 45.1056 176.485M84.695 255.275C89.953 239.12 103.626 217.533 127.841 203.065M255 199.975V127.547M255 199.975C226.984 190.034 202.877 186.555 182.326 187.461M22.5434 1.77539C28.3717 11.2968 35.387 23.0779 43.0975 36.4288C44.7135 39.2269 46.36 42.094 48.0326 45.0237M22.5434 1.77539H12.0217M146.357 255.275C142.16 239.804 135.713 222.014 127.841 203.065M1.5 193.613V255.275H43.0975M1.5 193.613C4.86543 178.08 23.5961 150.161 71.4817 139.096M1.5 193.613V137.334M115.037 134.398C122.867 161.111 155.969 168.692 171.542 169.144M115.037 134.398C108.513 134.43 102.33 134.716 96.472 135.225M115.037 134.398C123.1 134.359 130.82 133.798 138.198 132.793M255 55.1181C250.205 64.768 240.926 77.9768 227.105 90.8459M255 55.1181V127.547M146.357 30.1596C146.357 30.1596 107.207 20.3719 75.7383 34.564M146.357 30.1596C146.357 30.1596 127.313 59.6085 93.9515 77.1123M146.357 30.1596C146.357 30.1596 155.064 32.8773 166.491 37.7578M227.105 90.8459C222.948 80.2463 216.655 71.3428 209.259 63.9269M227.105 90.8459C221.821 95.7659 215.874 100.636 209.259 105.239M43.0975 255.275C37.6872 238.729 33.4918 206.516 45.1056 176.485M71.4817 139.096C58.6567 150.058 50.3 163.053 45.1056 176.485M71.4817 139.096C79.0628 137.345 87.3746 136.015 96.472 135.225M171.542 169.144C165.231 160.269 156.968 150.799 146.357 140.76C143.539 138.094 140.82 135.437 138.198 132.793M171.542 169.144C186.685 169.144 212.98 165.565 232.488 153.714M171.542 169.144C176.108 175.565 179.652 181.674 182.326 187.461M255 127.547C251.093 138.999 242.725 147.495 232.488 153.714M209.259 63.9269C198.063 52.7009 180.293 43.6521 166.491 37.7578M183.061 1.77539C177.687 9.75532 171.17 22.4611 166.491 37.7578M171.542 124.685C185.899 119.546 198.467 112.748 209.259 105.239M171.542 124.685C161.334 128.339 150.221 131.155 138.198 132.793M171.542 124.685C156.077 95.0282 158.803 62.8947 166.491 37.7578M1.5 137.334C15.0075 125.319 45.2889 105.591 78.876 101.076M111.378 102.099C100.498 99.7433 89.5207 99.6458 78.876 101.076M111.378 102.099C118.936 112.035 127.81 122.318 138.198 132.793M111.378 102.099C103.91 92.2816 98.4348 84.5841 93.9515 77.1123M75.7383 34.564C82.0361 53.5123 86.6937 65.0166 93.9515 77.1123M75.7383 34.564C65.2185 40.546 55.9834 44.0326 48.0326 45.0237M12.0217 1.77539C15.2769 33.1953 27.2793 47.6107 48.0326 45.0237M209.259 105.239C199.547 118.701 190.597 147.243 232.488 153.714M96.472 135.225C90.7127 123.715 84.7956 112.26 78.876 101.076M96.472 135.225C107.969 158.2 118.837 181.391 127.841 203.065M78.876 101.076C76.222 96.0626 73.5676 91.1034 70.9266 86.2185M127.841 203.065C142.166 194.505 160.181 188.438 182.326 187.461M93.9515 77.1123C86.9011 80.8114 79.2113 83.977 70.9266 86.2185M70.9266 86.2185C63.0518 71.653 55.2969 57.7479 48.0326 45.0237" stroke="black" stroke-width="2" stroke-linejoin="round"/>
</svg>
