<svg width="252" height="253" viewBox="0 0 252 253" fill="none" xmlns="http://www.w3.org/2000/svg">
<rect width="250" height="250" transform="translate(1 1.27539)" fill="#F9F9F9"/>
<rect x="1" y="1.27539" width="250" height="250" fill="#F9F9F9" stroke="black" stroke-width="2" stroke-linejoin="round"/>
<path d="M110.371 229.253L110.375 229.256V211.393L94.7511 202.402L79.1269 211.394L79.1242 211.393V229.315L94.7471 238.305V238.245L110.371 229.253Z" fill="#F9F9F9"/>
<path fill-rule="evenodd" clip-rule="evenodd" d="M63.5058 251.275H63.5045L63.5011 238.307L63.5035 238.306L79.1242 229.315L63.5058 238.307V251.275ZM94.7471 238.306L79.1242 229.315V211.393L63.5028 202.402V202.341L79.1242 211.332L94.7514 202.34L110.375 211.332V211.393L110.377 211.394L126.002 202.402L110.379 211.394V229.257L110.375 229.256V229.315L94.7514 238.307L94.7471 238.305V238.306ZM94.7471 238.306L94.7493 238.307V251.275H94.7471V238.306ZM141.625 211.393V229.254L141.623 229.253L125.996 238.245L110.379 229.257V229.378L125.996 238.366L126.003 238.37L141.627 229.378V229.317L157.247 238.306V251.275H157.25V238.307L172.873 229.315L157.249 238.307L157.247 238.306V238.245L141.627 229.255V211.394L157.253 202.402L172.872 211.394L172.873 211.394L188.496 202.402V202.342L188.497 202.341L204.124 211.332L188.5 202.34L188.497 202.341L188.496 202.341V184.418L188.494 184.417V184.416L188.498 184.418L204.123 175.426V175.366L204.126 175.368V175.489L219.743 184.477L219.75 184.481L235.374 175.489V175.428L250.994 184.417V184.356L235.374 175.366V157.505L235.372 157.504V175.365L235.37 175.364L219.743 184.356L204.126 175.368V157.505L219.749 148.513L204.124 157.505L204.123 157.504V157.442L188.498 148.451L172.871 157.442L157.25 148.452V130.529L172.873 121.537L157.249 130.529L157.247 130.528V130.467L141.627 121.477V103.616L157.253 94.6239L172.872 103.616L172.873 103.615L188.496 94.6239V94.5636L188.497 94.5632L204.124 103.553L188.5 94.5614L188.497 94.5632L188.496 94.5627V76.6401L188.494 76.6388V76.6376L188.498 76.6401L204.123 67.6481V67.5881L204.126 67.5899V67.7106L219.743 76.6985L219.75 76.7025L235.374 67.7106V67.6494L250.994 76.6391V76.5776L235.374 67.5879V49.7267L251 40.7348V40.6748V22.7509L250.998 22.7496L250.995 22.7509L251 40.6748L250.996 40.6723L235.372 49.6643V49.7254V67.5866L235.37 67.5857L219.743 76.5776L204.126 67.5899V49.7267L219.749 40.7348L204.124 49.7267L204.123 49.7257V49.6643L188.498 40.6723L172.871 49.6643L157.25 40.674V22.7509L172.873 13.759L157.249 22.7509L157.247 22.7499V22.6885L141.627 13.6988V1.27539H141.625V13.6975L141.623 13.6965L125.996 22.6885L110.379 13.7008V1.27539H110.375V13.699L110.371 13.6965L94.7471 22.6885V22.7484L79.1242 13.759L63.5035 22.7496L63.5011 22.7509L63.5058 40.6748L63.5015 40.6723L47.8774 49.6643V49.7254V67.5867L47.8757 67.5857L32.2486 76.5776L16.6314 67.5899V49.7267L32.2546 40.7348L16.6301 49.7267L16.6284 49.7257V67.5881L16.6314 67.5899V67.7106L32.2486 76.6985L32.2556 76.7025L47.8796 67.7106V67.6494L63.4998 76.6391V94.5614L63.5028 94.5632V94.6239L79.1242 103.614L79.1269 103.616L94.7511 94.6239L110.375 103.615V121.477L110.371 121.475L94.7471 130.467V130.527L79.1242 121.537L63.5035 130.528L63.5011 130.529L63.5058 148.453L63.5015 148.451L47.8774 157.442V157.504V175.365L47.8757 175.364L32.2486 184.356L16.6314 175.368V157.505L32.2546 148.513L16.6301 157.505L16.6284 157.504V175.366L16.6314 175.368V175.489L32.2486 184.477L32.2556 184.481L47.8796 175.489V175.428L63.4998 184.417V202.34L63.5028 202.341V184.418L79.126 175.426L63.5015 184.418L63.4998 184.417V184.356L47.8796 175.366V157.505L63.5058 148.513L79.1252 157.505L79.126 157.504L94.7493 148.513V148.453L94.7501 148.452L110.377 157.442L94.7531 148.451L94.7501 148.452L94.7493 148.452V130.529L94.7471 130.528V130.527L94.7514 130.529L110.375 121.537V121.477L110.379 121.479V121.6L125.996 130.588L126.003 130.592L141.627 121.6V121.539L157.247 130.528V148.451L157.25 148.452V148.513L172.871 157.503L172.874 157.505L188.498 148.513L204.123 157.504V175.366L204.118 175.364L188.494 184.356V184.416L172.871 175.426L157.251 184.417L157.248 184.418L157.253 202.342L157.249 202.34L141.625 211.332V211.393ZM157.253 202.342L172.873 211.332L188.496 202.342V202.341L188.494 202.34V184.417L172.871 175.426L157.253 184.418V202.342ZM157.253 94.5639L157.249 94.5614L141.625 103.553V103.615V121.476L141.623 121.475L125.996 130.467L110.379 121.479V103.616L126.002 94.6239L110.377 103.616L110.375 103.615V103.553L94.7514 94.5614L79.1242 103.553L63.5028 94.5632V76.6401L79.126 67.6481L63.5015 76.6401L63.4998 76.6391V76.5776L47.8796 67.5879V49.7267L63.5058 40.7348L79.1252 49.7267L79.126 49.7263L94.7493 40.7348V40.6745L94.7501 40.6741L110.377 49.6643L94.7531 40.6723L94.7501 40.6741L94.7493 40.6736V22.7509L94.7471 22.7496V22.7484L94.7514 22.7509L110.375 13.759V13.699L110.379 13.7008V13.8214L125.996 22.8094L126.003 22.8134L141.627 13.8214V13.7603L157.247 22.7499V40.6723L157.25 40.674V40.7348L172.871 49.7251L172.874 49.7267L188.498 40.7348L204.123 49.7257V67.5881L204.118 67.5857L188.494 76.5776V76.6376L172.871 67.6481L157.251 76.6387L157.248 76.6401L157.253 94.5639ZM157.253 94.5639V76.6401L172.871 67.6481L188.494 76.6388V94.5614L188.496 94.5627V94.5636L172.873 103.553L157.253 94.5639ZM94.7471 22.7496V40.6723L94.7493 40.6736V40.6745L79.126 49.6643L63.5058 40.6748V22.7509L79.1242 13.759L94.7471 22.7496ZM94.7471 130.528V148.451L94.7493 148.452V148.453L79.126 157.442L63.5058 148.453V130.529L79.1242 121.537L94.7471 130.528ZM1.00301 94.5632L1.0022 94.5636V94.5627L1.00301 94.5632ZM1.00301 94.5632L1.00602 94.5614L16.6301 103.553L1.00301 94.5632Z" fill="#F9F9F9"/>
<path d="M110.373 175.426L94.7531 184.418L94.7514 202.34L110.375 211.332V211.393L110.377 211.394L126.002 202.402V184.418L110.373 175.426Z" fill="#F9F9F9"/>
<path d="M157.247 148.451L141.623 157.442L141.629 175.426L157.251 184.417L172.871 175.426V157.503L157.25 148.513V148.452L157.247 148.451Z" fill="#F9F9F9"/>
<path d="M1 94.5614V184.356L16.6241 175.364L16.6284 175.366V157.504L1.00397 148.513L1.00602 130.529L16.6254 121.537L16.6301 103.553L1.00301 94.5632L1.0022 94.5636V94.5627L1 94.5614Z" fill="#F9F9F9"/>
<path d="M79.1242 121.537L63.5058 130.529V148.453L79.126 157.442L94.7493 148.453V148.452L94.7471 148.451V130.528L79.1242 121.537Z" fill="#F9F9F9"/>
<path d="M126.002 76.6401V94.6239L141.625 103.615V103.553L157.249 94.5614L157.253 94.5639L157.248 76.6401L157.251 76.6387L141.629 67.6481L126.002 76.6401Z" fill="#F9F9F9"/>
<path d="M157.253 94.6239L141.627 103.616V121.477L157.247 130.467V130.528L157.249 130.529L172.873 121.537V103.615L172.872 103.616L157.253 94.6239Z" fill="#F9F9F9"/>
<path d="M204.124 103.553L204.12 121.537L219.749 130.529L235.376 121.537L235.37 103.553L219.743 94.5614L204.124 103.553Z" fill="#F9F9F9"/>
<path d="M204.123 67.6481L188.498 76.6401L188.494 76.6376V76.6388L188.496 76.6401V94.5627L188.497 94.5632L188.5 94.5614L204.124 103.553L219.743 94.5614V76.6985L204.126 67.7106V67.5899L204.123 67.5881V67.6481Z" fill="#F9F9F9"/>
<path d="M141.623 49.6643L157.247 40.6723V22.7499L141.627 13.7603V13.8214L126.003 22.8134L125.996 22.8094V40.6723L141.623 49.6643Z" fill="#F9F9F9"/>
<path d="M32.2486 76.5776L47.8757 67.5857L47.8774 67.5867V49.7254L32.2546 40.7348L16.6314 49.7267V67.5899L32.2486 76.5776Z" fill="#F9F9F9"/>
<path d="M204.124 211.332L204.12 229.315L219.749 238.307L235.376 229.315L235.37 211.332L219.743 202.34L204.124 211.332Z" fill="#F9F9F9"/>
<path d="M188.498 148.451L204.123 157.442V157.504L204.124 157.505L219.749 148.513V130.529L204.12 121.537L188.5 130.529L188.498 148.451Z" fill="#F9F9F9"/>
<path d="M94.7511 94.6239L79.1269 103.616L79.1242 103.614V121.537L94.7471 130.527V130.467L110.371 121.475L110.375 121.477V103.615L94.7511 94.6239Z" fill="#F9F9F9"/>
<path d="M219.749 40.7348L204.126 49.7267V67.5899L219.743 76.5776L235.37 67.5857L235.372 67.5866V49.7254L219.749 40.7348Z" fill="#F9F9F9"/>
<path d="M16.6301 211.332L16.6254 229.315L32.2546 238.307L47.8817 229.315L47.8757 211.332L32.2486 202.34L16.6301 211.332Z" fill="#F9F9F9"/>
<path d="M188.5 22.7509L204.12 13.759L204.123 1.27539H172.873V13.759L188.5 22.7509Z" fill="#F9F9F9"/>
<path d="M47.8775 1.27539L47.8817 13.759L63.5035 22.7496L79.1242 13.759V1.27539H47.8775Z" fill="#F9F9F9"/>
<path d="M141.627 229.378L126.003 238.37L125.996 238.366V251.275H157.247V238.306L141.627 229.317V229.378Z" fill="#F9F9F9"/>
<path d="M251 251.275V1.27539H235.372M251 251.275V22.7509M251 251.275V40.6748M251 251.275V130.529M251 251.275V148.513M251 251.275V238.307L235.376 229.315M251 251.275H219.749M1 251.275V1.27539H16.6287M1 251.275V76.5776M1 251.275V94.5614M1 251.275V184.356M1 251.275V202.34M1 251.275H1.00454M110.377 49.6643L94.7531 40.6723L94.7501 40.6741M110.377 49.6643L110.373 67.6481M110.377 49.6643L125.996 40.6723M110.377 49.6643L94.7501 40.6741M110.373 67.6481L94.7531 76.6401M110.373 67.6481L126.002 76.6401M94.7531 76.6401L79.126 67.6481M94.7531 76.6401L94.7511 94.6239M94.7531 76.6401L94.7514 94.5614M79.126 67.6481L63.5028 76.6401V94.5632M79.126 67.6481L63.5015 76.6401L63.4998 76.6391M79.126 67.6481V49.7263M79.126 49.6643V49.7263M79.126 49.6643L94.7493 40.6745M79.126 49.6643L63.5058 40.6748M94.7511 94.6239L79.1269 103.616L79.1242 103.614M94.7511 94.6239L110.375 103.615M141.629 67.6481L126.002 76.6401M141.629 67.6481L141.623 49.6643M141.629 67.6481L157.251 76.6387M157.253 76.6401L172.871 67.6481M157.253 76.6401V94.5639M157.253 76.6401L157.251 76.6387M157.253 94.6239L141.627 103.616M157.253 94.6239L172.872 103.616L172.873 103.615M157.253 94.6239V94.5639M141.627 103.616L141.625 103.615M141.627 103.616V121.477M126.002 94.6239V76.6401M126.002 94.6239L110.379 103.616V121.479M126.002 94.6239L110.377 103.616L110.375 103.615M126.002 94.6239L141.625 103.615M157.247 40.6723L141.623 49.6643M157.247 40.6723V22.7499M157.247 40.6723L157.25 40.674M141.623 49.6643L125.996 40.6723M125.996 40.6723V22.8094M125.996 22.6885L141.623 13.6965L141.625 13.6975M125.996 22.6885L110.379 13.7008M125.996 22.6885V22.8094M188.498 40.6723L204.123 49.6643V49.7257M188.498 40.6723L172.871 49.6643M188.498 40.6723L188.5 22.7509M172.871 67.6481L188.494 76.6388M172.871 67.6481L157.251 76.6387M172.871 67.6481V49.7251M172.871 67.6481L188.494 76.6376M172.871 49.6643L157.25 40.674M172.871 49.6643V49.7251M1.00429 148.451L16.6284 157.442V157.504M1.00429 184.418L16.6284 175.426V175.366M1.0022 184.418V202.341M1.0022 202.402V202.341M250.997 202.402V184.418M250.996 148.451L235.372 157.442V157.504M250.996 184.418L250.994 184.417M125.996 238.245L141.623 229.253L141.625 229.254M125.996 238.245L110.379 229.257M125.996 238.245V238.366M1.00429 40.6723L16.6284 49.6643V49.7257M1.00429 76.6401L16.6284 67.6481V67.5881M1.0022 76.6401V94.5627M1.0022 94.6239V94.5636M250.997 94.6239V76.6401M250.996 76.6401L250.994 76.6391M110.377 157.442L94.7531 148.451L94.7501 148.452M110.377 157.442L110.373 175.426M110.377 157.442L125.996 148.451M110.377 157.442L94.7501 148.452M110.373 175.426L94.7531 184.418M110.373 175.426L126.002 184.418M94.7531 184.418L79.126 175.426M94.7531 184.418L94.7511 202.402M94.7531 184.418L94.7514 202.34M79.126 175.426L63.5028 184.418V202.341M79.126 175.426L63.5015 184.418L63.4998 184.417M79.126 175.426V157.504M79.126 157.442V157.504M79.126 157.442L63.5058 148.453M79.126 157.442L94.7493 148.453M94.7511 202.402L79.1269 211.394L79.1242 211.393M94.7511 202.402L110.375 211.393M141.629 175.426L126.002 184.418M141.629 175.426L141.623 157.442M141.629 175.426L157.251 184.417M157.253 184.418L172.871 175.426M157.253 184.418V202.342M157.253 184.418L157.251 184.417M157.253 202.402L141.627 211.394M157.253 202.402L172.872 211.394L172.873 211.394M157.253 202.402V202.342M141.627 211.394L141.625 211.393M141.627 211.394V229.255M126.002 202.402V184.418M126.002 202.402L110.379 211.394V229.257M126.002 202.402L110.377 211.394L110.375 211.393M126.002 202.402L141.625 211.393M157.247 148.451L141.623 157.442M157.247 148.451L157.25 148.452M157.247 148.451V130.528M141.623 157.442L125.996 148.451M125.996 148.451V130.588M125.996 130.467L141.623 121.475L141.625 121.476M125.996 130.467L110.379 121.479M125.996 130.467V130.588M188.498 148.451L204.123 157.442V157.504M188.498 148.451L172.871 157.442M188.498 148.451L188.5 130.529M172.871 175.426L157.251 184.417M172.871 175.426L188.494 184.417M172.871 175.426L188.494 184.416M172.871 175.426V157.503M172.871 157.442L157.25 148.452M172.871 157.442V157.503M204.12 13.759L188.5 22.7509M204.12 13.759L219.749 22.7509M204.12 13.759L204.123 1.27539M188.5 22.7509L172.873 13.759M188.5 22.7509L188.498 40.7348M172.873 13.759L157.25 22.7509V40.674M172.873 13.759L157.249 22.7509L157.247 22.7499M172.873 13.759V1.27539M188.498 40.7348L172.874 49.7267L172.871 49.7251M188.498 40.7348L204.123 49.7257M235.376 13.759L219.749 22.7509M235.376 13.759L250.998 22.7496M235.376 13.759L235.372 1.27539M251 22.7509L250.998 22.7496M251 22.7509V40.6748M235.374 49.7267L251 40.7348V40.6748M235.374 49.7267L235.372 49.7254M235.374 49.7267V67.5879M219.749 40.7348V22.7509M219.749 40.7348L204.126 49.7267V67.5899M219.749 40.7348L204.124 49.7267L204.123 49.7257M219.749 40.7348L235.372 49.7254M16.6301 103.553L1.00602 94.5614L1.00301 94.5632M16.6301 103.553L16.6254 121.537M16.6301 103.553L32.2486 94.5614M16.6301 103.553L1.00301 94.5632M16.6254 121.537L1.00602 130.529L1.00397 148.513L16.6284 157.504M16.6254 121.537L32.2546 130.529M47.8817 121.537L32.2546 130.529M47.8817 121.537L47.8757 103.553M47.8817 121.537L63.5035 130.528M63.5058 130.529L79.1242 121.537M63.5058 130.529L63.5035 130.528M63.5058 130.529V148.453M63.5058 148.513L47.8796 157.505M63.5058 148.513L79.1252 157.505L79.126 157.504M63.5058 148.513V148.453M47.8796 157.505V175.366M47.8796 157.505L47.8774 157.504M32.2546 148.513V130.529M32.2546 148.513L16.6314 157.505V175.368M32.2546 148.513L16.6301 157.505L16.6284 157.504M32.2546 148.513L47.8774 157.504M63.4998 94.5614L47.8757 103.553M63.4998 94.5614L63.5028 94.5632M63.4998 94.5614V76.6391M47.8757 103.553L32.2486 94.5614M32.2486 94.5614V76.6985M32.2486 76.5776L47.8757 67.5857L47.8774 67.5867M32.2486 76.5776L16.6314 67.5899M32.2486 76.5776V76.6985M1 94.5614V76.5776M1 94.5614L1.0022 94.5627M1 94.5614V184.356M1 76.5776L16.6241 67.5857L16.6284 67.5881M94.7514 94.5614L110.375 103.553V103.615M94.7514 94.5614L79.1242 103.553M79.1242 121.537L94.7471 130.527M79.1242 121.537L94.7471 130.528M79.1242 121.537V103.614M79.1242 121.537L63.5035 130.528M79.1242 103.553L63.5028 94.5632M79.1242 103.553V103.614M204.124 211.332L188.5 202.34L188.497 202.341M204.124 211.332L204.12 229.315M204.124 211.332L219.743 202.34M204.124 211.332L188.497 202.341M204.12 229.315L188.5 238.307M204.12 229.315L219.749 238.307M188.5 238.307L172.873 229.315M188.5 238.307L188.499 251.275M172.873 229.315L157.25 238.307V251.275M172.873 229.315L157.249 238.307L157.247 238.306M172.873 229.315V211.394M172.873 211.332L157.253 202.342M172.873 211.332L188.496 202.342M172.873 211.332V211.394M235.376 229.315L219.749 238.307M235.376 229.315L235.37 211.332M219.749 238.307V251.275M235.37 211.332L250.994 202.34V184.417M235.37 211.332L219.743 202.34M219.743 202.34V184.477M219.743 184.356L235.37 175.364L235.372 175.365M219.743 184.356V184.477M219.743 184.356L204.126 175.368M16.6254 13.759L1.00602 22.7509L1.00397 40.7348L16.6284 49.7257M16.6254 13.759L32.2546 22.7509M16.6254 13.759L16.6287 1.27539M47.8817 13.759L32.2546 22.7509M47.8817 13.759L47.8775 1.27539M47.8817 13.759L63.5035 22.7496M63.5058 22.7509L79.1242 13.759M63.5058 22.7509L63.5035 22.7496M63.5058 22.7509V40.6748M63.5058 40.7348L47.8796 49.7267M63.5058 40.7348L79.1252 49.7267L79.126 49.7263M63.5058 40.7348V40.6748M47.8796 49.7267L47.8774 49.7254M47.8796 49.7267V67.5879M32.2546 40.7348V22.7509M32.2546 40.7348L16.6314 49.7267V67.5899M32.2546 40.7348L16.6301 49.7267L16.6284 49.7257M32.2546 40.7348L47.8774 49.7254M79.1242 13.759L63.5035 22.7496M79.1242 13.759V1.27539M79.1242 13.759L94.7471 22.7484M79.1242 13.759L94.7471 22.7496M204.124 103.553L188.5 94.5614L188.497 94.5632M204.124 103.553L204.12 121.537M204.124 103.553L219.743 94.5614M204.124 103.553L188.497 94.5632M204.12 121.537L188.5 130.529M204.12 121.537L219.749 130.529M188.5 130.529L172.873 121.537M188.5 130.529L188.498 148.513M172.873 121.537L157.25 130.529V148.452M172.873 121.537L157.249 130.529L157.247 130.528M172.873 121.537V103.615M172.873 103.553L157.253 94.5639M172.873 103.553L188.496 94.5636M172.873 103.553V103.615M188.498 148.513L172.874 157.505L172.871 157.503M188.498 148.513L204.123 157.504M235.376 121.537L251 130.529M235.376 121.537L219.749 130.529M235.376 121.537L235.37 103.553M251 130.529V148.513M251 148.513L235.374 157.505M251 148.513L250.995 130.529M235.374 157.505L235.372 157.504M235.374 157.505V175.366M219.749 148.513V130.529M219.749 148.513L204.126 157.505V175.368M219.749 148.513L204.124 157.505L204.123 157.504M219.749 148.513L235.372 157.504M235.37 103.553L250.994 94.5614V76.6391M235.37 103.553L219.743 94.5614M219.743 94.5614V76.6985M219.743 76.5776L235.37 67.5857L235.372 67.5866M219.743 76.5776L204.126 67.5899M219.743 76.5776V76.6985M1.00602 202.34L16.6301 211.332M16.6301 211.332L16.6254 229.315M16.6301 211.332L32.2486 202.34M16.6301 211.332L1.0022 202.341M16.6254 229.315L1.00602 238.307L1.00454 251.275M16.6254 229.315L32.2546 238.307M47.8817 229.315L32.2546 238.307M47.8817 229.315L47.8757 211.332M47.8817 229.315L63.5035 238.306M63.5058 238.307L79.1242 229.315M63.5058 238.307L63.5035 238.306M63.5058 238.307V251.275M32.2546 238.307V251.275M63.4998 202.34L47.8757 211.332M63.4998 202.34V184.417M63.4998 202.34L63.5028 202.341M47.8757 211.332L32.2486 202.34M32.2486 202.34V184.477M32.2486 184.356L47.8757 175.364L47.8774 175.365M32.2486 184.356L16.6314 175.368M32.2486 184.356V184.477M1 202.34V184.356M1 202.34L1.0022 202.341M1 184.356L16.6241 175.364L16.6284 175.366M94.7514 202.34L110.375 211.332V211.393M94.7514 202.34L79.1242 211.332M79.1242 229.315V211.393M79.1242 229.315L94.7471 238.305M79.1242 229.315L94.7471 238.306M79.1242 229.315L63.5035 238.306M79.1242 211.332V211.393M79.1242 211.332L63.5028 202.341M63.5028 94.5632V94.6239L79.1242 103.614M125.996 130.588L110.379 121.6V121.479M125.996 130.588L126.003 130.592L141.627 121.6V121.539M110.379 121.479L110.375 121.477M110.375 121.477V121.537L94.7514 130.529L94.7471 130.527M110.375 121.477L110.371 121.475L94.7471 130.467V130.527M110.375 121.477V103.615M94.7471 130.527V130.528M94.7471 130.528L94.7493 130.529V148.452M94.7471 130.528V148.451L94.7493 148.452M94.7493 148.452L94.7501 148.452M94.7493 148.452V148.453M94.7501 148.452L94.7493 148.453M157.253 94.5639L157.249 94.5614L141.625 103.553V103.615M157.253 94.5639L157.248 76.6401L157.251 76.6387M188.496 94.5636V94.5627M188.496 94.5636V94.6239L172.873 103.615M188.496 94.5636L188.497 94.5632M188.496 94.5627L188.494 94.5614V76.6388M188.496 94.5627V76.6401L188.494 76.6388M188.496 94.5627L188.497 94.5632M188.494 76.6388V76.6376M157.25 148.452V148.513L172.871 157.503M141.625 103.615V121.476M94.7501 40.6741L94.7493 40.6745M94.7501 40.6741L94.7493 40.6736M94.7493 40.6745V40.7348L79.126 49.7263M94.7493 40.6745V40.6736M141.627 13.6988L157.247 22.6885V22.7499M141.627 13.6988L141.625 13.6975M141.627 13.6988V1.27539M141.627 13.6988V13.7603M157.247 22.7499L141.627 13.7603M79.126 157.504L94.7493 148.513V148.453M47.8796 175.366L63.4998 184.356V184.417M47.8796 175.366L47.8774 175.365M47.8796 175.366V175.428M63.4998 184.417L47.8796 175.428M157.251 184.417L157.248 184.418L157.253 202.342M141.625 211.393V211.332L157.249 202.34L157.253 202.342M141.625 211.393V229.254M110.375 229.256L110.371 229.253L94.7471 238.245V238.305M110.375 229.256V211.393M110.375 229.256V229.315L94.7514 238.307L94.7471 238.305M110.375 229.256L110.379 229.257M79.1242 211.393L63.5028 202.402V202.341M94.7471 238.305V238.306M250.994 184.417L235.374 175.428M250.994 184.417V184.356L235.374 175.366M235.374 175.428V175.489L219.75 184.481L219.743 184.477M235.374 175.428L235.372 175.426V175.365M235.374 175.428V175.366M219.743 184.477L204.126 175.489V175.368M188.494 184.417V202.34L188.496 202.341M188.494 184.417L188.496 184.418V202.341M188.494 184.417V184.416M188.496 202.342V202.341M188.496 202.342V202.402L172.873 211.394M188.496 202.342L188.497 202.341M188.496 202.341L188.497 202.341M251 40.6748L250.996 40.6723L235.372 49.6643V49.7254M251 40.6748L250.995 22.7509L250.998 22.7496M235.372 49.7254V67.5866M47.8774 67.5867V49.7254M47.8774 67.5867V67.6481L47.8796 67.6494M47.8774 67.5867L47.8796 67.5879M47.8774 49.7254V49.6643L63.5015 40.6723L63.5058 40.6748M16.6314 67.5899V67.7106L32.2486 76.6985M16.6314 67.5899L16.6284 67.5881M1.0022 94.5636L1.00301 94.5632M1.0022 94.5636V94.5627M1.00301 94.5632L1.0022 94.5627M47.8774 175.365V157.504M47.8774 175.365V175.426L47.8796 175.428M47.8774 157.504V157.442L63.5015 148.451L63.5058 148.453M16.6314 175.368V175.489L32.2486 184.477M16.6314 175.368L16.6284 175.366M125.996 238.366L110.379 229.378V229.257M125.996 238.366L126.003 238.37L141.627 229.378V229.317M125.996 238.366V251.275M94.7471 238.306L94.7493 238.307V251.275M94.7471 238.306V251.275M204.123 49.7257V67.5881M16.6287 1.27539H47.8775M47.8775 1.27539H79.1242M63.5035 22.7496L63.5011 22.7509L63.5058 40.6748M79.1242 1.27539H110.375M110.375 1.27539V13.699M110.375 1.27539H110.379M110.375 13.699L110.371 13.6965L94.7471 22.6885V22.7484M110.375 13.699V13.759L94.7514 22.7509L94.7471 22.7484M110.375 13.699L110.379 13.7008M94.7471 22.7484V22.7496M110.379 1.27539V13.7008M110.379 1.27539H141.625M110.379 13.7008V13.8214L125.996 22.8094M141.625 13.6975V1.27539M141.625 13.6975V13.759L141.627 13.7603M141.625 1.27539H141.627M172.873 1.27539H141.627M172.873 1.27539H204.123M204.123 1.27539H235.372M16.6284 49.7257V67.5881M94.7493 40.6736L94.7471 40.6723V22.7496M94.7493 40.6736V22.7509L94.7471 22.7496M125.996 22.8094L126.003 22.8134L141.627 13.8214V13.7603M157.25 40.674V40.7348L172.871 49.7251M235.374 67.5879L250.994 76.5776V76.6391M235.374 67.5879L235.372 67.5866M235.374 67.5879V67.6494M250.994 76.6391L235.374 67.6494M235.372 67.5866V67.6481L235.374 67.6494M204.126 67.5899V67.7106L219.743 76.6985M204.126 67.5899L204.123 67.5881M188.494 76.6376V76.5776L204.118 67.5857L204.123 67.5881M188.494 76.6376L188.498 76.6401L204.123 67.6481V67.5881M47.8796 67.5879L63.4998 76.5776V76.6391M47.8796 67.5879V67.6494M63.4998 76.6391L47.8796 67.6494M32.2486 76.6985L32.2556 76.7025L47.8796 67.7106V67.6494M219.743 76.6985L219.75 76.7025L235.374 67.7106V67.6494M141.627 121.477L157.247 130.467V130.528M141.627 121.477L141.625 121.476M141.627 121.477V121.539M157.247 130.528L141.627 121.539M141.625 121.476V121.537L141.627 121.539M63.5035 130.528L63.5011 130.529L63.5058 148.453M16.6284 157.504V175.366M204.123 157.504V175.366M235.372 157.504V175.365M235.374 175.366L235.372 175.365M204.126 175.368L204.123 175.366M188.494 184.416L188.498 184.418L204.123 175.426V175.366M188.494 184.416V184.356L204.118 175.364L204.123 175.366M47.8796 175.428V175.489L32.2556 184.481L32.2486 184.477M63.5035 238.306L63.5011 238.307L63.5045 251.275M1.00454 251.275H32.2546M32.2546 251.275H63.5045M63.5045 251.275H63.5058M63.5058 251.275H94.7471M94.7471 251.275H94.7493M125.996 251.275H94.7493M125.996 251.275H157.247M141.627 229.317L157.247 238.306M141.627 229.317L141.625 229.315V229.254M141.627 229.317V229.255M157.247 238.306V251.275M157.247 238.306V238.245L141.627 229.255M157.247 251.275H157.25M188.499 251.275H157.25M188.499 251.275H219.749M141.627 229.255L141.625 229.254" stroke="black" stroke-width="2" stroke-linejoin="round"/>
</svg>
