<svg width="252" height="253" viewBox="0 0 252 253" fill="none" xmlns="http://www.w3.org/2000/svg">
<rect width="250" height="250" transform="translate(1 1.27539)" fill="#F9F9F9"/>
<path d="M153.183 182.537C201.962 138.128 229.983 69.5963 209.497 1.27539H175.423C193.338 60.0401 174.364 120.906 134.996 164.423C101.313 201.679 52.5028 226.072 1 223.279V231.848C56.7614 240.357 112.213 219.863 153.183 182.537Z" fill="#F9F9F9"/>
<path d="M114.527 143.881C153.619 108.88 177.476 55.6878 166.326 1.27539H132.308C141.635 46.4173 126.241 92.072 96.3405 125.767C72.0179 153.201 37.9445 172.596 1 175.827V186.425C42.7819 188.272 83.4177 171.761 114.527 143.881Z" fill="#F9F9F9"/>
<path d="M75.8841 105.238C105.239 79.5689 124.588 41.4918 121.593 1.27539H87.5766C89.8246 32.5813 78.1979 63.3423 57.6917 87.1179C42.7499 104.472 22.9946 118.039 1 124.671V138.743C28.5711 135.878 54.7748 123.718 75.8841 105.238Z" fill="#F9F9F9"/>
<path d="M37.2306 66.5844C56.6969 50.1811 70.916 26.8679 74.0689 1.27539H39.9672C37.691 18.4607 30.2554 34.8415 19.0381 48.4644C13.8032 54.8398 7.7214 60.598 1 65.4709V87.057C14.1443 82.6772 26.4738 75.6652 37.2306 66.5844Z" fill="#F9F9F9"/>
<path d="M1 25.937C8.97457 19.1273 15.7232 10.7047 20.4258 1.27539H1V25.937Z" fill="#F9F9F9"/>
<path d="M191.839 221.192C217.879 197.192 238.663 167.203 251 134.071V1.27539H217.525C244.989 73.5052 222.531 149.783 173.646 203.072C155.487 222.881 133.64 239.48 109.515 251.275H151.268C165.776 242.779 179.401 232.662 191.839 221.192Z" fill="#F9F9F9"/>
<path d="M239.288 251.275C243.327 247.155 247.235 242.902 251 238.526V186.819C240.712 206.681 227.625 225.194 212.3 241.726C209.277 244.989 206.165 248.174 202.971 251.275H239.288Z" fill="#F9F9F9"/>
<path d="M209.497 1.27539C229.983 69.5963 201.962 138.128 153.183 182.537C112.213 219.863 56.7614 240.357 1 231.848M209.497 1.27539H175.423M209.497 1.27539H217.525M175.423 1.27539C193.338 60.0401 174.364 120.906 134.996 164.423C101.313 201.679 52.5028 226.072 1 223.279M175.423 1.27539H166.326M1 223.279V231.848M1 223.279V186.425M1 231.848V251.275H109.515M166.326 1.27539C177.476 55.6878 153.619 108.88 114.527 143.881C83.4177 171.761 42.7819 188.272 1 186.425M166.326 1.27539H132.308M132.308 1.27539C141.635 46.4173 126.241 92.072 96.3405 125.767C72.0179 153.201 37.9445 172.596 1 175.827M132.308 1.27539H121.593M1 175.827V186.425M1 175.827V138.743M121.593 1.27539C124.588 41.4918 105.239 79.5689 75.8841 105.238C54.7748 123.718 28.5711 135.878 1 138.743M121.593 1.27539H87.5766M87.5766 1.27539C89.8246 32.5813 78.1979 63.3423 57.6917 87.1179C42.7499 104.472 22.9946 118.039 1 124.671M87.5766 1.27539H74.0689M1 124.671V138.743M1 124.671V87.057M74.0689 1.27539C70.916 26.8679 56.6969 50.1811 37.2306 66.5844C26.4738 75.6652 14.1443 82.6772 1 87.057M74.0689 1.27539H39.9672M39.9672 1.27539C37.691 18.4607 30.2554 34.8415 19.0381 48.4644C13.8032 54.8398 7.7214 60.598 1 65.4709M39.9672 1.27539H20.4258M1 65.4709V87.057M1 65.4709V25.937M1 25.937C8.97457 19.1273 15.7232 10.7047 20.4258 1.27539M1 25.937V1.27539H20.4258M251 134.071C238.663 167.203 217.879 197.192 191.839 221.192C179.401 232.662 165.776 242.779 151.268 251.275M251 134.071V1.27539H217.525M251 134.071V186.819M217.525 1.27539C244.989 73.5052 222.531 149.783 173.646 203.072C155.487 222.881 133.64 239.48 109.515 251.275M109.515 251.275H151.268M151.268 251.275H202.971M239.288 251.275C243.327 247.155 247.235 242.902 251 238.526M239.288 251.275H202.971M239.288 251.275H251V238.526M251 238.526V186.819M251 186.819C240.712 206.681 227.625 225.194 212.3 241.726C209.277 244.989 206.165 248.174 202.971 251.275" stroke="black" stroke-width="2" stroke-linejoin="round"/>
</svg>
