<svg width="253" height="253" viewBox="0 0 253 253" fill="none" xmlns="http://www.w3.org/2000/svg">
<rect width="250" height="250" transform="translate(1 1.27539)" fill="#F9F9F9"/>
<path fill-rule="evenodd" clip-rule="evenodd" d="M1.24219 1.3418H21.822C14.6022 19.5178 7.73895 37.827 1.24219 56.1344V1.3418ZM1.24219 111.828C12.3045 75.5804 25.0434 38.46 39.4038 1.3418H52.2574C31.357 56.7372 14.2892 111.623 1.24219 163.125V111.828ZM2.40677 251.342H18.7427C25.5912 181.767 45.5825 94.1427 77.9201 1.3418H66.9985C34.1185 92.0549 12.3223 179.502 2.40677 251.342ZM57.708 251.342H39.7847C41.8546 185.22 59.0507 97.2938 90.5439 1.3418H99.9943C69.3457 100.506 54.9476 188.73 57.708 251.342ZM82.6857 251.342H106.357C104.459 246.466 102.782 241.258 101.329 235.708C87.4043 183.981 93.7724 101.309 119.552 1.3418H111.072C81.5868 105.887 71.7867 194.681 82.6857 251.342ZM223.149 251.342H146.568C136.496 241.366 128.657 228.33 123.066 211.955C107.038 165.978 109.499 92.5243 129.845 1.3418H137.957C121.946 85.0126 122.467 151.178 139.9 192.782C154.999 229.534 182.824 247.845 223.149 251.342ZM251.242 221.299C208.123 219.649 177.71 203.297 160.232 168.837C141.426 132.429 137.474 75.1664 148.179 1.3418H156.634C150.02 66.9921 156.412 117.366 175.957 149.752C192.043 176.95 217.19 191.835 251.242 196.245V221.299ZM177.451 1.3418H167.741C165.876 56.5226 174.847 98.527 194.745 126.132C208.412 145.352 227.26 157.744 251.242 163.991V137.465C234.34 131.039 220.331 121.132 209.235 107.496C189.584 83.5834 178.995 48.0432 177.451 1.3418ZM251.242 103.49V75.8924C228.104 59.7319 212.206 35.0211 203.574 1.3418H191.024C196.107 37.4738 207.952 65.2077 226.563 84.5728C233.776 92.1216 242.003 98.4147 251.242 103.49ZM251.242 13.6342V41.3267C239.384 30.6567 229.765 17.3529 222.39 1.3418H241.206C244.32 5.70694 247.665 9.80273 251.242 13.6342Z" fill="#F9F9F9"/>
<path d="M21.822 1.3418H1.24219V56.1344M21.822 1.3418C14.6022 19.5178 7.73895 37.827 1.24219 56.1344M21.822 1.3418H39.4038M1.24219 56.1344V111.828M39.4038 1.3418C25.0434 38.46 12.3045 75.5804 1.24219 111.828M39.4038 1.3418H52.2574M1.24219 111.828V163.125M52.2574 1.3418C31.357 56.7372 14.2892 111.623 1.24219 163.125M52.2574 1.3418H66.9985M1.24219 163.125V251.342H2.40677M2.40677 251.342C12.3223 179.502 34.1185 92.0549 66.9985 1.3418M2.40677 251.342H18.7427M66.9985 1.3418H77.9201M18.7427 251.342C25.5912 181.767 45.5825 94.1427 77.9201 1.3418M18.7427 251.342H39.7847M77.9201 1.3418H90.5439M39.7847 251.342C41.8546 185.22 59.0507 97.2938 90.5439 1.3418M39.7847 251.342H57.708M90.5439 1.3418H99.9943M57.708 251.342C54.9476 188.73 69.3457 100.506 99.9943 1.3418M57.708 251.342H82.6857M99.9943 1.3418H111.072M82.6857 251.342C71.7867 194.681 81.5868 105.887 111.072 1.3418M82.6857 251.342H106.357M111.072 1.3418H119.552M106.357 251.342C104.459 246.466 102.782 241.258 101.329 235.708C87.4043 183.981 93.7724 101.309 119.552 1.3418M106.357 251.342H146.568M119.552 1.3418H129.845M146.568 251.342C136.496 241.366 128.657 228.33 123.066 211.955C107.038 165.978 109.499 92.5243 129.845 1.3418M146.568 251.342H223.149M129.845 1.3418H137.957M223.149 251.342C182.824 247.845 154.999 229.534 139.9 192.782C122.467 151.178 121.946 85.0126 137.957 1.3418M223.149 251.342H251.242V221.299M137.957 1.3418H148.179M251.242 221.299C208.123 219.649 177.71 203.297 160.232 168.837C141.426 132.429 137.474 75.1664 148.179 1.3418M251.242 221.299V196.245M148.179 1.3418H156.634M251.242 196.245C217.19 191.835 192.043 176.95 175.957 149.752C156.412 117.366 150.02 66.9921 156.634 1.3418M251.242 196.245V163.991M156.634 1.3418H167.741M167.741 1.3418C165.876 56.5226 174.847 98.527 194.745 126.132C208.412 145.352 227.26 157.744 251.242 163.991M167.741 1.3418H177.451M251.242 163.991V137.465M177.451 1.3418C178.995 48.0432 189.584 83.5834 209.235 107.496C220.331 121.132 234.34 131.039 251.242 137.465M177.451 1.3418H191.024M251.242 137.465V103.49M251.242 103.49C242.003 98.4147 233.776 92.1216 226.563 84.5728C207.952 65.2077 196.107 37.4738 191.024 1.3418M251.242 103.49V75.8924M191.024 1.3418H203.574M251.242 75.8924C228.104 59.7319 212.206 35.0211 203.574 1.3418M251.242 75.8924V41.3267M203.574 1.3418H222.39M251.242 41.3267C239.384 30.6567 229.765 17.3529 222.39 1.3418M251.242 41.3267V13.6342M222.39 1.3418H241.206M251.242 13.6342C247.665 9.80273 244.32 5.70694 241.206 1.3418M251.242 13.6342V1.3418H241.206" stroke="black" stroke-width="2" stroke-linejoin="round"/>
</svg>
