<svg width="252" height="253" viewBox="0 0 252 253" fill="none" xmlns="http://www.w3.org/2000/svg">
<rect width="250" height="250" transform="translate(1 1.27539)" fill="#F9F9F9"/>
<path d="M177.043 1.38281C180.934 1.38281 184.917 1.38281 188.808 1.38281C147.723 42.9178 169.028 84.4529 190.334 125.988C211.733 167.707 232.887 209.426 191.063 251.146C186.987 251.146 183.157 251.146 178.989 251.146C212.931 209.414 195.6 167.683 178.268 125.952C161.023 84.4287 143.779 42.9057 177.043 1.38281Z" fill="#F9F9F9"/>
<path d="M148.883 1.38282C152.774 1.38282 156.757 1.38282 160.647 1.38282C138.137 42.9258 149.808 84.4689 161.48 126.012C173.198 167.723 184.917 209.434 162.037 251.146C157.961 251.146 153.885 251.146 149.717 251.146C164.716 209.411 157.065 167.677 149.414 125.943C142.755 89.6126 136.095 53.2827 144.376 16.9528C145.485 12.0872 146.862 7.22155 148.543 2.35594C148.655 2.03156 148.768 1.70719 148.883 1.38282Z" fill="#F9F9F9"/>
<path d="M120.722 1.38282C124.613 1.38282 128.596 1.38282 132.487 1.38282C132.486 1.39323 132.485 1.40365 132.484 1.41406C128.605 42.9492 130.627 84.4844 132.649 126.02V126.021C134.679 167.729 136.709 209.437 132.765 251.146C128.689 251.146 124.613 251.146 120.444 251.146C116.507 209.518 118.545 167.891 120.583 126.264C122.621 84.6371 124.659 43.0099 120.722 1.38282Z" fill="#F9F9F9"/>
<path d="M92.6539 1.38282C96.5445 1.38282 100.528 1.38282 104.418 1.38282C104.426 1.40365 104.433 1.42448 104.44 1.44531C119.109 42.9658 111.486 84.4863 103.864 126.007C96.2054 167.72 88.5472 209.433 103.492 251.146C99.4161 251.146 95.3402 251.146 91.1717 251.146C68.2836 209.42 80.018 167.695 91.7524 125.97C103.432 84.4408 115.111 42.9118 92.6539 1.38282Z" fill="#F9F9F9"/>
<path d="M64.4923 1.38282C68.383 1.38282 72.3662 1.38282 76.2569 1.38282C109.583 42.9247 92.3073 84.4667 75.0315 126.009C57.6849 167.721 40.3382 209.433 74.2189 251.146C70.143 251.146 66.0671 251.146 61.8985 251.146C20.0746 209.426 41.4975 167.707 62.9204 125.988C84.2487 84.453 105.577 42.9179 64.4923 1.38282Z" fill="#F9F9F9"/>
<path fill-rule="evenodd" clip-rule="evenodd" d="M48.0967 1.38282L36.3322 1.38282C95.9907 42.9148 65.0288 84.4469 34.0668 125.979C20.5074 144.167 6.94809 162.356 1 180.544V215.655C5.55209 227.485 15.3962 239.315 32.6267 251.146H44.9471C-7.87711 209.427 19.1504 167.709 46.1779 125.991C73.0873 84.4548 99.9967 42.9188 48.0967 1.38282ZM8.17215 1.38282L19.9367 1.38282C90.4645 42.9205 53.906 84.4582 17.3475 125.996C11.7717 132.331 6.19589 138.666 1 145.001V130.324C2.40875 128.878 3.82254 127.432 5.23633 125.986C45.8474 84.4519 86.4584 42.9173 8.17215 1.38282ZM1 5.9324V11.6272C56.2326 42.7677 35.5656 73.9082 1 105.049V114.642C40.329 78.4052 70.2729 42.1688 1 5.9324ZM1 25.8569V19.6262C38.2728 44.0838 27.1432 68.5414 1 92.9989V84.4236C19.9922 64.9014 26.0619 45.3792 1 25.8569ZM1 36.6302V71.0591C8.8017 59.5828 10.15 48.1065 1 36.6302ZM64.4923 1.38282C105.577 42.9179 84.2487 84.453 62.9204 125.988C41.4975 167.707 20.0746 209.426 61.8985 251.146H74.2189C40.3382 209.433 57.6849 167.721 75.0315 126.009C92.3073 84.4667 109.583 42.9247 76.2569 1.38282L64.4923 1.38282ZM92.6539 1.38282C115.111 42.9118 103.432 84.4408 91.7524 125.97C80.018 167.695 68.2836 209.42 91.1717 251.146H103.492C88.5472 209.433 96.2054 167.72 103.864 126.007C111.486 84.4863 119.109 42.9658 104.44 1.44531C104.433 1.42448 104.426 1.40365 104.418 1.38282L92.6539 1.38282ZM120.722 1.38282C124.659 43.0099 122.621 84.6371 120.583 126.264C118.545 167.891 116.507 209.518 120.444 251.146H132.765C136.709 209.437 134.679 167.729 132.649 126.021V126.02C130.627 84.4844 128.605 42.9492 132.484 1.41406C132.485 1.40365 132.486 1.39323 132.487 1.38282L120.722 1.38282ZM148.883 1.38282C148.768 1.70719 148.655 2.03156 148.543 2.35594C146.862 7.22155 145.485 12.0872 144.376 16.9528C136.095 53.2827 142.755 89.6126 149.414 125.943C157.065 167.677 164.716 209.411 149.717 251.146H162.037C184.917 209.434 173.198 167.723 161.48 126.012C149.808 84.4689 138.137 42.9258 160.647 1.38282L148.883 1.38282ZM177.043 1.38281C143.779 42.9057 161.023 84.4287 178.268 125.952C195.6 167.683 212.931 209.414 178.989 251.146C178.989 251.146 186.348 251.146 191.063 251.146C232.887 209.426 211.733 167.707 190.334 125.988C169.028 84.4529 147.723 42.9178 188.808 1.38281L177.043 1.38281ZM251 128.99V143.389C246.187 137.587 241.081 131.785 235.976 125.982C199.433 84.4492 162.89 42.9159 233.364 1.38281L245.129 1.38281C166.842 42.9173 207.453 84.4519 248.064 125.986C249.044 126.988 250.023 127.989 251 128.99ZM251 113.463V103.956C217.421 73.4088 197.913 42.8618 251 12.3149V6.57235C184.07 42.2024 212.536 77.8326 251 113.463ZM251 83.065V91.7312C226.136 67.9892 215.958 44.2472 251 20.5052V26.8928C228.013 45.6168 233.369 64.3409 251 83.065ZM251 69.0486V38.3597C243.775 48.5893 244.73 58.8189 251 69.0486ZM251 242.486C247.037 245.372 242.591 248.259 237.625 251.146H249.946C250.299 250.96 250.651 250.775 251 250.59V242.486ZM191.063 251.146C191.142 251.225 190.984 251.066 191.063 251.146C186.348 251.146 178.989 251.146 178.989 251.146C178.925 251.066 179.053 251.225 178.989 251.146C178.989 251.146 186.348 251.146 191.063 251.146ZM132.833 251.146L132.407 251.146H120.063L120.444 251.146H132.833ZM1 249.894C1.77307 250.311 2.55804 250.728 3.3551 251.146H15.6754C10.159 247.939 5.28363 244.732 1 241.525V249.894Z" fill="#F9F9F9"/>
<path fill-rule="evenodd" clip-rule="evenodd" d="M92.6539 1.38282L76.2569 1.38282L92.6539 1.38282ZM92.6539 1.38282L76.2569 1.38282L92.6539 1.38282Z" fill="#F9F9F9"/>
<path fill-rule="evenodd" clip-rule="evenodd" d="M92.6539 1.38282L76.2569 1.38282L92.6539 1.38282ZM92.6539 1.38282L76.2569 1.38282L92.6539 1.38282Z" fill="#F9F9F9"/>
<path d="M216.968 1.38281L205.204 1.38281C205.001 1.54506 204.799 1.70731 204.599 1.86956C201.594 4.30331 198.858 6.73706 196.377 9.1708C156.667 48.1108 181.895 87.0508 207.122 125.991C234.15 167.709 261.177 209.427 208.353 251.146L220.391 251.146C236.133 240.338 245.991 229.53 251 218.722V176.877C244.529 159.911 231.881 142.945 219.233 125.979C188.271 84.4469 157.309 42.9148 216.968 1.38281Z" fill="#F9F9F9"/>
<path d="M1 1.38289H251M1 1.38289L48.0967 1.38282M1 1.38289L19.9367 1.38282M1 1.38289V5.9324M251 1.38289L205.204 1.38281M251 1.38289L233.364 1.38281M251 1.38289V6.57235M251 1.38289L245.129 1.38281M2.65942 251.146C6.74307 251.146 10.8267 251.146 15.0032 251.146H2.65942ZM2.65942 251.146C2.5083 251.225 3.43689 251.066 3.28665 251.146M120.063 251.146C124.147 251.146 128.23 251.146 132.407 251.146M120.063 251.146H132.407M120.063 251.146L120.444 251.146M132.407 251.146L132.833 251.146M149.392 251.146C153.476 251.146 157.559 251.146 161.736 251.146H149.392ZM149.392 251.146L149.648 251.146M178.989 251.146C183.072 251.146 186.887 251.146 191.063 251.146M178.989 251.146C183.157 251.146 186.987 251.146 191.063 251.146M178.989 251.146C212.931 209.414 195.6 167.683 178.268 125.952C161.023 84.4287 143.779 42.9057 177.043 1.38281M178.989 251.146C178.989 251.146 186.348 251.146 191.063 251.146M178.989 251.146C179.053 251.225 178.925 251.066 178.989 251.146ZM178.989 251.146H162.037M191.063 251.146C232.887 209.426 211.733 167.707 190.334 125.988C169.028 84.4529 147.723 42.9178 188.808 1.38281M191.063 251.146C190.984 251.066 191.142 251.225 191.063 251.146ZM191.063 251.146C197.815 251.146 208.353 251.146 208.353 251.146M220.391 251.146C236.133 240.338 245.991 229.53 251 218.722M220.391 251.146C220.277 251.066 220.506 251.225 220.391 251.146ZM220.391 251.146L208.353 251.146M220.391 251.146L237.625 251.146M233.364 1.38281C237.255 1.38281 241.238 1.38281 245.129 1.38281M233.364 1.38281C162.89 42.9159 199.433 84.4492 235.976 125.982C241.081 131.785 246.187 137.587 251 143.389M233.364 1.38281L245.129 1.38281M233.364 1.38281L216.968 1.38281M245.129 1.38281C166.842 42.9173 207.453 84.4519 248.064 125.986C249.044 126.988 250.023 127.989 251 128.99M249.946 251.146C245.87 251.146 241.794 251.146 237.625 251.146M249.946 251.146H237.625M249.946 251.146C250.299 250.96 250.651 250.775 251 250.59M237.625 251.146C242.591 248.259 247.037 245.372 251 242.486M237.625 251.146H250.014H251V250.59M205.204 1.38281C209.094 1.38281 213.077 1.38281 216.968 1.38281M205.204 1.38281L216.968 1.38281M205.204 1.38281L188.808 1.38281M205.204 1.38281C205.001 1.54506 204.799 1.70731 204.599 1.86956C201.594 4.30331 198.858 6.73706 196.377 9.1708C156.667 48.1108 181.895 87.0508 207.122 125.991C234.15 167.709 261.177 209.427 208.353 251.146M216.968 1.38281C157.309 42.9148 188.271 84.4469 219.233 125.979C231.881 142.945 244.529 159.911 251 176.877M177.043 1.38281C180.934 1.38281 184.917 1.38281 188.808 1.38281M177.043 1.38281L188.808 1.38281M177.043 1.38281L160.647 1.38282M148.883 1.38282C152.774 1.38282 156.757 1.38282 160.647 1.38282M148.883 1.38282L160.647 1.38282M148.883 1.38282L132.487 1.38282M148.883 1.38282C148.768 1.70719 148.655 2.03156 148.543 2.35594C146.862 7.22155 145.485 12.0872 144.376 16.9528C136.095 53.2827 142.755 89.6126 149.414 125.943C157.065 167.677 164.716 209.411 149.717 251.146M160.647 1.38282C138.137 42.9258 149.808 84.4689 161.48 126.012C173.198 167.723 184.917 209.434 162.037 251.146M162.037 251.146C157.961 251.146 153.885 251.146 149.717 251.146M162.037 251.146H149.717M162.037 251.146H149.648M120.722 1.38282C124.613 1.38282 128.596 1.38282 132.487 1.38282M120.722 1.38282C124.659 43.0099 122.621 84.6371 120.583 126.264C118.545 167.891 116.507 209.518 120.444 251.146M120.722 1.38282L132.487 1.38282M120.722 1.38282L104.418 1.38282M132.487 1.38282C132.486 1.39323 132.485 1.40365 132.484 1.41406M132.487 1.38282L132.484 1.41406M132.765 251.146C128.689 251.146 124.613 251.146 120.444 251.146M132.765 251.146H120.444M132.765 251.146C136.709 209.437 134.679 167.729 132.649 126.021V126.02C130.627 84.4844 128.605 42.9492 132.484 1.41406M120.444 251.146H132.833M120.444 251.146H103.492M92.6539 1.38282C96.5445 1.38282 100.528 1.38282 104.418 1.38282M92.6539 1.38282C115.111 42.9118 103.432 84.4408 91.7524 125.97C80.018 167.695 68.2836 209.42 91.1717 251.146M92.6539 1.38282L104.418 1.38282M92.6539 1.38282L76.2569 1.38282M104.418 1.38282C104.426 1.40365 104.433 1.42448 104.44 1.44531M104.418 1.38282L104.44 1.44531M103.492 251.146C99.4161 251.146 95.3402 251.146 91.1717 251.146M103.492 251.146H91.1717M103.492 251.146C88.5472 209.433 96.2054 167.72 103.864 126.007C111.486 84.4863 119.109 42.9658 104.44 1.44531M103.492 251.146H91.1035H74.2189M64.4923 1.38282C68.383 1.38282 72.3663 1.38282 76.2569 1.38282M64.4923 1.38282C105.577 42.9179 84.2487 84.453 62.9204 125.988C41.4975 167.707 20.0746 209.426 61.8985 251.146M64.4923 1.38282L76.2569 1.38282M64.4923 1.38282L48.0967 1.38282M76.2569 1.38282C109.583 42.9247 92.3073 84.4667 75.0315 126.009C57.6849 167.721 40.3382 209.433 74.2189 251.146M74.2189 251.146C70.143 251.146 66.0671 251.146 61.8985 251.146M74.2189 251.146H61.8985M74.2189 251.146H61.8303H44.9471M36.3322 1.38282C40.2228 1.38282 44.206 1.38282 48.0967 1.38282M36.3322 1.38282L48.0967 1.38282M36.3322 1.38282C95.9907 42.9148 65.0288 84.4469 34.0668 125.979C20.5074 144.167 6.94809 162.356 1 180.544M36.3322 1.38282L19.9367 1.38282M48.0967 1.38282C99.9967 42.9188 73.0873 84.4548 46.1779 125.991C19.1504 167.709 -7.87711 209.427 44.9471 251.146M44.9471 251.146C40.8712 251.146 36.7952 251.146 32.6267 251.146M44.9471 251.146H32.6267M44.9471 251.146H32.5583H15.6754M32.6267 251.146C15.3962 239.315 5.55209 227.485 1 215.655M8.17215 1.38282C12.0628 1.38282 16.046 1.38282 19.9367 1.38282M8.17215 1.38282L19.9367 1.38282M8.17215 1.38282C86.4584 42.9173 45.8474 84.4519 5.23633 125.986C3.82254 127.432 2.40875 128.878 1 130.324M19.9367 1.38282C90.4645 42.9205 53.906 84.4582 17.3475 125.996C11.7717 132.331 6.19589 138.666 1 145.001M15.6754 251.146C11.5995 251.146 7.52364 251.146 3.3551 251.146M15.6754 251.146H3.28665M15.6754 251.146H3.3551M15.6754 251.146C10.159 247.939 5.28363 244.732 1 241.525M3.3551 251.146C2.55804 250.728 1.77307 250.311 1 249.894M1 215.655V241.525M1 215.655V180.544M251 218.722V242.486M251 218.722V176.877M251 242.486V250.59M149.648 251.146H132.833M3.28665 251.146H1V249.894M1 249.894V241.525M251 176.877V143.389M251 143.389V128.99M251 128.99V113.463M251 113.463C212.536 77.8326 184.07 42.2025 251 6.57235M251 113.463V103.956M251 6.57235V12.3149M251 103.956C217.421 73.4088 197.913 42.8618 251 12.3149M251 103.956V91.7312M251 12.3149V20.5052M251 91.7312C226.136 67.9892 215.958 44.2472 251 20.5052M251 91.7312V83.065M251 20.5052V26.8928M251 83.065C233.369 64.3409 228.013 45.6168 251 26.8928M251 83.065V69.0486M251 26.8928V38.3597M251 69.0486V38.3597M251 69.0486C244.73 58.8189 243.775 48.5893 251 38.3597M1 180.544V145.001M1 145.001V130.324M1 130.324V114.642M1 5.9324C70.2729 42.1688 40.329 78.4052 1 114.642M1 5.9324V11.6272M1 114.642V105.049M1 11.6272C56.2326 42.7677 35.5656 73.9082 1 105.049M1 11.6272V19.6262M1 105.049V92.9989M1 19.6262C38.2728 44.0838 27.1432 68.5414 1 92.9989M1 19.6262V25.8569M1 92.9989V84.4236M1 25.8569C26.0619 45.3792 19.9922 64.9014 1 84.4236M1 25.8569V36.6302M1 84.4236V71.0591M1 36.6302V71.0591M1 36.6302C10.15 48.1065 8.8017 59.5828 1 71.0591M31.9874 251.146C36.0711 251.146 40.1547 251.146 44.3311 251.146H31.9874ZM61.4076 251.146C65.4912 251.146 69.5749 251.146 73.7513 251.146H61.4076ZM90.7352 251.146C94.8188 251.146 98.9024 251.146 103.079 251.146H90.7352ZM237.376 251.146C241.459 251.146 245.543 251.146 249.719 251.146H237.376Z" stroke="black" stroke-width="2" stroke-linejoin="round"/>
</svg>
