<svg width="252" height="253" viewBox="0 0 252 253" fill="none" xmlns="http://www.w3.org/2000/svg">
<rect width="250" height="250" transform="translate(1 1.27539)" fill="#F9F9F9"/>
<path d="M71.7087 184.565C69.5347 194.215 71.3144 208.543 75.9624 226.266C76.7074 229.106 77.5259 232.034 78.3445 234.961C79.9235 240.608 81.5024 246.254 82.5526 251.275H251V97.6186C249.821 98.149 248.534 98.5521 247.124 98.8093C244.654 99.2597 241.806 99.2625 238.959 99.2653C231.486 99.2727 224.014 99.2801 223.374 107.372C222.904 113.31 226.113 123.601 229.322 133.892C232.153 142.97 234.983 152.048 235.289 158.138C235.94 171.131 225.095 170.52 213.893 169.486C203.343 168.512 192.476 167.163 181.61 165.814C180.938 165.731 180.266 165.648 179.594 165.564C168.056 164.134 156.541 162.729 154.345 172.353C153.565 175.768 153.96 180.573 154.354 185.378C155.072 194.111 155.789 202.844 149.458 203.236C143.357 203.615 130.713 196.249 118.069 188.883C110.37 184.398 102.672 179.914 96.4505 177.177C80.0104 169.945 73.8827 174.916 71.7087 184.565Z" fill="#F9F9F9"/>
<path d="M22.3902 138.766C17.7422 121.043 15.9625 106.715 18.1365 97.0654C20.3105 87.4157 26.4382 82.4447 42.8783 89.677C49.0997 92.4139 56.798 96.8984 64.4963 101.383C77.1407 108.749 89.785 116.115 95.8855 115.736C102.217 115.344 101.499 106.611 100.782 97.8783C100.388 93.0733 99.993 88.2684 100.772 84.8527C102.968 75.2291 114.484 76.6336 126.021 78.0643L127.252 78.217L128.037 78.3144C138.904 79.6633 149.771 81.0121 160.321 81.9859C171.523 83.0198 182.368 83.6309 181.716 70.6379C181.411 64.5481 178.58 55.4698 175.75 46.3915C172.541 36.1007 169.332 25.8098 169.802 19.872C170.442 11.7801 177.914 11.7727 185.386 11.7653C188.234 11.7625 191.082 11.7597 193.551 11.3093C199.657 10.1958 203.451 6.34626 206.213 1.27539H1V174.075C2.87146 174.767 4.79794 175.523 6.72442 176.28C14.8972 179.489 23.0699 182.699 27.0418 180.937C33.3505 178.139 29.0614 162.8 24.7722 147.461C23.9537 144.533 23.1351 141.606 22.3902 138.766Z" fill="#F9F9F9"/>
<path d="M126.021 78.0643C114.484 76.6336 102.968 75.2291 100.772 84.8527C99.993 88.2684 100.388 93.0733 100.782 97.8783C101.499 106.611 102.217 115.344 95.8855 115.736C89.785 116.115 77.1407 108.749 64.4963 101.383C56.798 96.8984 49.0997 92.4139 42.8783 89.677C26.4382 82.4447 20.3105 87.4157 18.1365 97.0654C15.9625 106.715 17.7422 121.043 22.3902 138.766C23.1351 141.606 23.9537 144.533 24.7722 147.461C29.0614 162.8 33.3505 178.139 27.0418 180.937C23.0699 182.699 14.8972 179.489 6.72442 176.28C4.79794 175.523 2.87146 174.767 1 174.075M126.021 78.0643C126.432 78.1152 126.842 78.1661 127.252 78.217M126.021 78.0643L127.252 78.217M82.5526 251.275H1V174.075M82.5526 251.275C81.5024 246.254 79.9235 240.608 78.3445 234.961C77.5259 232.034 76.7074 229.106 75.9624 226.266C71.3144 208.543 69.5347 194.215 71.7087 184.565C73.8827 174.916 80.0104 169.945 96.4505 177.177C102.672 179.914 110.37 184.398 118.069 188.883C130.713 196.249 143.357 203.615 149.458 203.236C155.789 202.844 155.072 194.111 154.354 185.378C153.96 180.573 153.565 175.768 154.345 172.353C156.541 162.729 168.056 164.134 179.594 165.564C180.266 165.648 180.938 165.731 181.61 165.814C192.476 167.163 203.343 168.512 213.893 169.486C225.095 170.52 235.94 171.131 235.289 158.138C234.983 152.048 232.153 142.97 229.322 133.892C226.113 123.601 222.904 113.31 223.374 107.372C224.014 99.2801 231.486 99.2727 238.959 99.2653C241.806 99.2625 244.654 99.2597 247.124 98.8093C248.534 98.5521 249.821 98.149 251 97.6186M82.5526 251.275H251V97.6186M251 97.6186V1.27539H206.213M206.213 1.27539H1V174.075M206.213 1.27539C203.451 6.34626 199.657 10.1958 193.551 11.3093C191.082 11.7597 188.234 11.7625 185.386 11.7653C177.914 11.7727 170.442 11.7801 169.802 19.872C169.332 25.8098 172.541 36.1007 175.75 46.3915C178.58 55.4698 181.411 64.5481 181.716 70.6379C182.368 83.6309 171.523 83.0198 160.321 81.9859C149.771 81.0121 138.904 79.6633 128.037 78.3144M128.037 78.3144L127.252 78.217M128.037 78.3144C127.775 78.282 127.514 78.2495 127.252 78.217" stroke="black" stroke-width="2" stroke-linecap="round" stroke-linejoin="round"/>
</svg>
