<svg width="252" height="253" viewBox="0 0 252 253" fill="none" xmlns="http://www.w3.org/2000/svg">
<rect width="250" height="250" transform="translate(1 1.27539)" fill="#F9F9F9"/>
<path d="M237.985 183.316C222.746 177.29 208.212 174.166 194.639 174.995C181.066 175.825 168.455 180.609 157.582 192.544C146.708 204.478 137.574 223.563 126.598 235.077C118.276 243.807 108.897 248.184 99.2039 251.275H251V188.92C246.655 186.954 242.292 185.019 237.985 183.316Z" fill="#F9F9F9"/>
<path d="M242.094 104.566C221.354 88.0361 199.381 81.8253 175.31 93.1991C151.239 104.573 125.069 133.531 101.969 136.77C78.8687 140.009 58.8386 117.529 37.4355 106.551C25.6695 100.515 13.4885 97.9558 1 97.9728V189.307C5.84842 189.71 10.696 190.097 15.5345 190.327C28.9946 190.967 42.385 190.388 55.744 189.26C69.1029 188.132 82.4303 186.453 95.3128 177.005C108.195 167.557 120.633 150.34 133.491 140.461C146.348 130.582 159.626 128.04 173.137 129.555C186.647 131.071 200.39 136.644 214.303 145.194C226.801 152.875 239.436 162.958 251 168.671V112.323C248.074 109.569 245.097 106.959 242.094 104.566Z" fill="#F9F9F9"/>
<path d="M129.301 73.9618C151.025 66.0134 169.791 34.7555 190.58 19.4346C209.285 5.64902 229.628 4.76631 251 11.9896V1.27539H1V69.2338C19.7796 60.9311 39.1528 57.3043 59.5331 61.6117C82.8932 66.5489 107.576 81.9101 129.301 73.9618Z" fill="#F9F9F9"/>
<path d="M251 188.92C246.655 186.954 242.292 185.019 237.985 183.316C222.746 177.29 208.212 174.166 194.639 174.995C181.066 175.825 168.455 180.609 157.582 192.544C146.708 204.478 137.574 223.563 126.598 235.077C118.276 243.807 108.897 248.184 99.2039 251.275M251 188.92V251.275H99.2039M251 188.92V168.671M99.2039 251.275H1V189.307M251 168.671C239.436 162.958 226.801 152.875 214.303 145.194C200.39 136.644 186.647 131.071 173.137 129.555C159.626 128.04 146.348 130.582 133.491 140.461C120.633 150.34 108.195 167.557 95.3128 177.005C82.4303 186.453 69.1029 188.132 55.744 189.26C42.385 190.388 28.9946 190.967 15.5345 190.327C10.696 190.097 5.84842 189.71 1 189.307M251 168.671V112.323M1 189.307V97.9728M251 112.323C248.074 109.569 245.097 106.959 242.094 104.566C221.354 88.0361 199.381 81.8253 175.31 93.1991C151.239 104.573 125.069 133.531 101.969 136.77C78.8687 140.009 58.8386 117.529 37.4355 106.551C25.6695 100.515 13.4885 97.9558 1 97.9728M251 112.323V11.9896M1 97.9728V69.2338M251 11.9896C229.628 4.76631 209.285 5.64902 190.58 19.4346C169.791 34.7555 151.025 66.0134 129.301 73.9618C107.576 81.9101 82.8932 66.5489 59.5331 61.6117C39.1528 57.3043 19.7796 60.9311 1 69.2338M251 11.9896V1.27539H1V69.2338" stroke="black" stroke-width="2" stroke-linecap="round" stroke-linejoin="round"/>
</svg>
