<svg width="252" height="253" viewBox="0 0 252 253" fill="none" xmlns="http://www.w3.org/2000/svg">
<rect width="250" height="250" transform="translate(1 1.27539)" fill="#F9F9F9"/>
<path d="M155.623 245.299C158.891 234.035 171.257 234.468 180.133 230.414C189.008 226.359 194.394 217.817 200.152 209.754C205.911 201.692 212.044 194.11 217.74 185.968C223.437 177.826 228.697 169.123 239.506 167.554C242.918 167.059 246.882 167.275 251 167.688V78.2071C248.593 81.8914 246.441 85.9029 244.562 90.2662C240.223 100.344 237.343 112.298 230.393 119.018C223.442 125.737 212.421 127.223 203.457 131.353C194.494 135.484 187.587 142.26 179.529 147.555C171.47 152.85 162.26 156.664 153.813 161.46C145.367 166.256 137.685 172.034 130.347 178.257C123.01 184.479 116.018 191.146 113.901 204.08C111.783 217.014 114.54 236.217 112.693 249.499C112.609 250.103 112.516 250.695 112.413 251.275H154.703C154.831 249.054 155.119 247.037 155.623 245.299Z" fill="#F9F9F9"/>
<path d="M19.8442 238.184C44.2902 237.926 62.0305 229.044 68.3436 205.468C74.6567 181.892 69.5426 143.622 81.142 126.843C92.7413 110.065 121.054 114.779 141.893 109.881C162.731 104.984 176.096 90.4749 185.504 70.8792C194.913 51.2835 200.365 26.6007 211.685 9.46333C213.632 6.51541 215.753 3.79077 217.974 1.27539H157.013C153.427 7.593 150.187 14.3555 146.808 20.9379C138.585 37.37 128.069 50.8537 112.29 57.5694C103.455 62.6499 93.091 65.7628 82.9237 69.1294C72.7565 72.4959 62.7865 76.1161 55.5402 83.2388C48.2939 90.3615 43.7714 100.987 41.0293 113.901C38.2872 126.816 37.3255 142.02 33.2849 153.265C28.1533 169.206 16.9012 177.276 1 179.368V237.01C7.46542 237.794 13.856 238.248 19.8442 238.184Z" fill="#F9F9F9"/>
<path d="M1.15364 104.822C6.06852 94.1076 7.67457 79.1385 12.1857 67.9049C16.6967 56.6713 24.1128 49.1733 32.8044 43.3154C41.4959 37.4575 51.4629 33.2396 60.6695 28.0441C69.8761 22.8486 78.3224 16.6753 85.5734 8.96492C88.4632 6.66748 91.1305 4.08394 93.6228 1.27539H1V105.194C1.05167 105.071 1.10287 104.947 1.15364 104.822Z" fill="#F9F9F9"/>
<path d="M251 167.688V245.25V251.275H249.35H154.703M251 167.688C246.882 167.275 242.918 167.059 239.506 167.554C228.697 169.123 223.437 177.826 217.74 185.968C212.044 194.11 205.911 201.692 200.152 209.754C194.394 217.817 189.008 226.359 180.133 230.414C171.257 234.468 158.892 234.035 155.623 245.299C155.119 247.037 154.831 249.054 154.703 251.275M251 167.688V78.2071M154.703 251.275H112.413M251 78.2071C248.593 81.8914 246.441 85.9029 244.562 90.2662C240.223 100.344 237.343 112.298 230.393 119.018C223.442 125.737 212.421 127.223 203.457 131.353C194.494 135.484 187.587 142.26 179.529 147.555C171.47 152.85 162.26 156.664 153.813 161.46C145.367 166.256 137.685 172.034 130.347 178.257C123.01 184.479 116.018 191.146 113.901 204.08C111.783 217.014 114.54 236.217 112.693 249.499C112.609 250.103 112.516 250.695 112.413 251.275M251 78.2071V1.27539H217.974M112.413 251.275H1V237.01M1 237.01C7.46542 237.794 13.856 238.248 19.8442 238.184C44.2902 237.926 62.0305 229.044 68.3436 205.468C74.6567 181.892 69.5426 143.622 81.142 126.843C92.7413 110.065 121.054 114.779 141.893 109.881C162.731 104.984 176.096 90.4749 185.504 70.8792C194.913 51.2835 200.365 26.6007 211.685 9.46333C213.632 6.51541 215.753 3.79077 217.974 1.27539M1 237.01V179.368M217.974 1.27539H157.013M157.013 1.27539C153.427 7.593 150.187 14.3555 146.808 20.9379C138.585 37.37 128.069 50.8537 112.29 57.5694C103.455 62.6499 93.091 65.7628 82.9237 69.1294C72.7565 72.4959 62.7865 76.1161 55.5402 83.2388C48.2939 90.3615 43.7714 100.987 41.0293 113.901C38.2872 126.816 37.3255 142.02 33.2849 153.265C28.1533 169.206 16.9012 177.276 1 179.368M157.013 1.27539H93.6228M1 179.368V105.194M1 105.194C1.05167 105.071 1.10287 104.947 1.15364 104.822C6.06852 94.1076 7.67457 79.1385 12.1857 67.9049C16.6967 56.6713 24.1128 49.1733 32.8044 43.3154C41.4959 37.4575 51.4629 33.2396 60.6695 28.0441C69.8761 22.8486 78.3224 16.6753 85.5734 8.96492C88.4632 6.66748 91.1305 4.08394 93.6228 1.27539M1 105.194V1.27539H93.6228" stroke="black" stroke-width="2" stroke-linejoin="round"/>
</svg>
