<svg width="252" height="253" viewBox="0 0 252 253" fill="none" xmlns="http://www.w3.org/2000/svg">
<rect width="250" height="250" transform="translate(1 1.27539)" fill="#F9F9F9"/>
<path d="M1 1.27539H251V251.275H1V1.27539Z" fill="#F9F9F9" stroke="black" stroke-width="2" stroke-linejoin="round"/>
<path d="M23.7273 24.0027L251 1.27539L228.273 228.548L1 251.275L23.7273 24.0027Z" fill="#F9F9F9" stroke="black" stroke-width="2" stroke-linejoin="round"/>
<path d="M46.4545 46.7299L251 1.27539L205.545 205.821L1 251.275L46.4545 46.7299Z" fill="#F9F9F9" stroke="black" stroke-width="2" stroke-linejoin="round"/>
<path d="M69.1818 69.4572L251 1.27539L182.818 183.094L1 251.275L69.1818 69.4572Z" fill="#F9F9F9" stroke="black" stroke-width="2" stroke-linejoin="round"/>
<path d="M91.9091 92.1845L251 1.27539L160.091 160.366L1 251.275L91.9091 92.1845Z" fill="#F9F9F9" stroke="black" stroke-width="2" stroke-linejoin="round"/>
<path d="M114.636 114.912L251 1.27539L137.364 137.639L1 251.275L114.636 114.912Z" fill="#F9F9F9" stroke="black" stroke-width="2" stroke-linejoin="round"/>
</svg>
