<svg width="253" height="253" viewBox="0 0 253 253" fill="none" xmlns="http://www.w3.org/2000/svg">
<rect width="250" height="250" transform="translate(2 1.27539)" fill="#F9F9F9"/>
<path fill-rule="evenodd" clip-rule="evenodd" d="M1.80078 63.7754V32.5254L33.0508 1.27539H64.3008L1.80078 63.7754ZM1.80078 126.275V95.0254L95.5508 1.27539H126.801L1.80078 126.275Z" fill="#F9F9F9"/>
<path fill-rule="evenodd" clip-rule="evenodd" d="M158.051 126.275H189.301L251.801 63.7754V32.5254L158.051 126.275ZM251.801 126.275H220.551L251.801 95.0254V126.275Z" fill="#F9F9F9"/>
<path d="M64.3008 126.275L126.801 63.7754L189.301 1.27539H158.051L126.801 32.5254L33.0508 126.275H64.3008Z" fill="#F9F9F9"/>
<path d="M95.5508 126.275H126.801L251.801 1.27539H220.551L126.801 95.0254L95.5508 126.275Z" fill="#F9F9F9"/>
<path d="M126.801 1.27539H95.5508M126.801 1.27539L1.80078 126.275M126.801 1.27539H158.051M126.801 126.275H95.5508M126.801 126.275L251.801 1.27539M126.801 126.275H158.051M1.80078 126.275V95.0254M1.80078 126.275H33.0508M1.80078 63.7754L64.3008 1.27539M1.80078 63.7754V32.5254M1.80078 63.7754V95.0254M64.3008 1.27539H33.0508M64.3008 1.27539H95.5508M1.80078 32.5254V1.27539H33.0508M1.80078 32.5254L33.0508 1.27539M95.5508 1.27539L1.80078 95.0254M64.3008 126.275L126.801 63.7754L189.301 1.27539M64.3008 126.275H33.0508M64.3008 126.275H95.5508M33.0508 126.275L126.801 32.5254L158.051 1.27539M95.5508 126.275L126.801 95.0254L220.551 1.27539M251.801 1.27539H220.551M251.801 1.27539V32.5254M189.301 1.27539H158.051M189.301 1.27539H220.551M251.801 63.7754L189.301 126.275M251.801 63.7754V32.5254M251.801 63.7754V95.0254M189.301 126.275H158.051M189.301 126.275H220.551M158.051 126.275L251.801 32.5254M251.801 95.0254V126.275H220.551M251.801 95.0254L220.551 126.275" stroke="black" stroke-width="2" stroke-linejoin="round"/>
<path fill-rule="evenodd" clip-rule="evenodd" d="M1.80078 188.775V220.025L33.0508 251.275H64.3008L1.80078 188.775ZM1.80078 126.275V157.525L95.5508 251.275H126.801L1.80078 126.275Z" fill="#F9F9F9"/>
<path fill-rule="evenodd" clip-rule="evenodd" d="M158.051 126.275H189.301L251.801 188.775V220.025L158.051 126.275ZM251.801 126.275H220.551L251.801 157.525V126.275Z" fill="#F9F9F9"/>
<path d="M64.3008 126.275L126.801 188.775L189.301 251.275H158.051L126.801 220.025L33.0508 126.275H64.3008Z" fill="#F9F9F9"/>
<path d="M95.5508 126.275H126.801L251.801 251.275H220.551L126.801 157.525L95.5508 126.275Z" fill="#F9F9F9"/>
<path d="M126.801 251.275H95.5508M126.801 251.275L1.80078 126.275M126.801 251.275H158.051M126.801 126.275H95.5508M126.801 126.275L251.801 251.275M126.801 126.275H158.051M1.80078 126.275V157.525M1.80078 126.275H33.0508M1.80078 188.775L64.3008 251.275M1.80078 188.775V220.025M1.80078 188.775V157.525M64.3008 251.275H33.0508M64.3008 251.275H95.5508M1.80078 220.025V251.275H33.0508M1.80078 220.025L33.0508 251.275M95.5508 251.275L1.80078 157.525M64.3008 126.275L126.801 188.775L189.301 251.275M64.3008 126.275H33.0508M64.3008 126.275H95.5508M33.0508 126.275L126.801 220.025L158.051 251.275M95.5508 126.275L126.801 157.525L220.551 251.275M251.801 251.275H220.551M251.801 251.275V220.025M189.301 251.275H158.051M189.301 251.275H220.551M251.801 188.775L189.301 126.275M251.801 188.775V220.025M251.801 188.775V157.525M189.301 126.275H158.051M189.301 126.275H220.551M158.051 126.275L251.801 220.025M251.801 157.525V126.275H220.551M251.801 157.525L220.551 126.275" stroke="black" stroke-width="2" stroke-linejoin="round"/>
</svg>
