<svg width="252" height="253" viewBox="0 0 252 253" fill="none" xmlns="http://www.w3.org/2000/svg">
<rect width="250" height="250" transform="translate(1 1.27539)" fill="#F9F9F9"/>
<path d="M129.838 250.468L130.638 251.012L131.042 251.275H251V183.416L250.926 182.821L250.837 181.987L250.763 181.156L250.704 180.329L250.659 179.503L250.628 178.678L250.61 177.854L250.604 177.029L250.609 176.203L250.625 175.376L250.65 174.548L250.683 173.716L250.723 172.882L250.769 172.045L250.819 171.205L250.873 170.361L250.983 168.663L251 168.402V156.038L250.965 155.709L250.855 154.859L250.728 154.016L250.582 153.179L250.417 152.349L250.233 151.529L250.03 150.717L249.808 149.915L249.566 149.123L249.304 148.343L249.024 147.574L248.724 146.818L248.405 146.076L248.067 145.347L247.711 144.632L247.336 143.933L246.944 143.249L246.534 142.58L246.107 141.928L245.664 141.293L245.204 140.675L244.729 140.074L244.239 139.49L243.735 138.924L243.217 138.377L242.686 137.847L242.142 137.335L241.587 136.842L241.021 136.367L240.444 135.91L239.858 135.471L239.263 135.05L238.66 134.646L238.049 134.26L237.431 133.891L236.808 133.54L236.179 133.205L235.545 132.886L234.907 132.583L234.266 132.295L233.622 132.023L232.976 131.765L232.328 131.521L231.68 131.291L231.031 131.074L230.382 130.869L229.734 130.677L229.087 130.496L228.442 130.325L227.799 130.165L227.159 130.015L226.521 129.873L225.887 129.74L225.256 129.615L224.629 129.497L224.006 129.386L223.388 129.281L222.774 129.181L222.166 129.087L221.562 128.996L220.963 128.91L220.37 128.827L219.782 128.746L219.2 128.668L217.486 128.44L216.926 128.365L216.372 128.289L215.824 128.212L215.281 128.133L214.745 128.052L214.213 127.967L213.688 127.879L213.168 127.786L212.654 127.688L212.145 127.585L211.641 127.475L211.142 127.359L210.648 127.236L210.159 127.104L209.675 126.964L209.195 126.816L208.719 126.657L208.247 126.489L207.778 126.311L207.312 126.122L206.85 125.921L206.39 125.71L205.932 125.486L205.476 125.25L205.022 125.001L204.568 124.74L204.115 124.466L203.663 124.179L203.21 123.879L202.757 123.565L202.303 123.238L201.847 122.897L201.389 122.544L200.928 122.176L200.465 121.796L199.998 121.402L199.528 120.996L199.053 120.577L198.573 120.146L198.088 119.702L197.598 119.248L197.101 118.781L196.597 118.304L196.087 117.817L195.569 117.32L193.966 115.777L193.415 115.247L192.854 114.711L192.283 114.169L191.702 113.622L191.111 113.071L190.51 112.517L189.898 111.96L189.275 111.402L188.64 110.843L187.995 110.284L187.338 109.727L186.67 109.172L185.99 108.621L185.298 108.073L184.595 107.531L183.88 106.995L183.154 106.466L182.416 105.946L181.667 105.435L180.906 104.934L180.135 104.445L179.352 103.968L178.559 103.504L177.756 103.055L176.942 102.621L176.118 102.203L175.286 101.802L174.444 101.419L173.593 101.055L172.734 100.711L171.867 100.387L170.993 100.085L170.111 99.8051L169.224 99.5479L168.33 99.3143L167.431 99.1049L166.528 98.9203L165.62 98.7612L164.708 98.6279L163.793 98.5211L162.876 98.4412L161.957 98.3886L161.036 98.3637L160.115 98.3667L159.194 98.3979L158.274 98.4575L157.354 98.5454L156.436 98.6617L155.521 98.8062L154.607 98.9788L153.697 99.1791L152.791 99.4067L151.888 99.6614L150.99 99.9426L150.096 100.25L149.206 100.583L148.322 100.94L147.443 101.323L146.569 101.728L145.701 102.157L144.839 102.609L143.982 103.082L143.132 103.577L142.287 104.092L141.448 104.627L140.616 105.182L139.789 105.755L138.969 106.346L138.154 106.955L137.346 107.581L136.543 108.224L135.747 108.883L134.957 109.558L134.173 110.248L133.395 110.954L132.623 111.674L131.857 112.408L131.098 113.157L130.346 113.92L129.601 114.697L128.862 115.489L128.131 116.293L127.407 117.112L126.692 117.945L125.984 118.791L125.285 119.65L124.594 120.523L123.913 121.41L123.24 122.31L122.578 123.222L121.925 124.148L121.282 125.086L120.649 126.038L120.028 127.001L119.417 127.977L118.817 128.965L118.228 129.964L117.651 130.975L117.086 131.998L116.533 133.031L115.991 134.076L115.462 135.13L114.946 136.195L114.442 137.27L113.951 138.354L113.473 139.448L113.007 140.55L112.554 141.661L112.115 142.78L111.688 143.908L111.274 145.042L110.873 146.184L110.485 147.333L110.11 148.488L109.748 149.649L109.398 150.816L109.061 151.988L108.737 153.166L108.425 154.348L108.125 155.535L107.837 156.726L107.561 157.921L107.297 159.12L107.044 160.321L106.803 161.527L106.573 162.734L106.355 163.945L106.147 165.158L105.95 166.373L105.764 167.59L105.588 168.809L105.423 170.029L105.268 171.251L105.123 172.475L104.988 173.699L104.863 174.925L104.749 176.151L104.644 177.378L104.548 178.606L104.463 179.835L104.388 181.063L104.323 182.292L104.267 183.521L104.222 184.751L104.187 185.98L104.163 187.209L104.148 188.437L104.145 189.665L104.152 190.892L104.171 192.118L104.201 193.343L104.242 194.567L104.295 195.789L104.361 197.009L104.438 198.228L104.529 199.444L104.632 200.657L104.748 201.867L104.878 203.074L105.022 204.277L105.179 205.476L105.352 206.671L105.538 207.861L105.74 209.045L105.957 210.224L106.189 211.397L106.437 212.563L106.701 213.722L106.981 214.873L107.276 216.017L107.588 217.152L107.916 218.278L108.26 219.394L108.621 220.501L108.997 221.598L109.389 222.684L109.797 223.759L110.22 224.823L110.658 225.875L111.111 226.915L111.58 227.943L112.062 228.959L112.56 229.961L113.071 230.95L113.597 231.925L114.136 232.887L114.689 233.834L115.255 234.766L115.835 235.684L116.427 236.586L117.033 237.473L117.651 238.344L118.281 239.198L118.924 240.037L119.578 240.858L120.244 241.663L120.921 242.45L121.61 243.22L122.309 243.972L123.019 244.706L123.74 245.421L124.47 246.119L125.211 246.797L125.96 247.457L126.719 248.098L127.487 248.719L128.263 249.322L129.047 249.905L129.838 250.468Z" fill="#F9F9F9"/>
<path d="M227.716 52.1185C223.437 63.4855 221.582 75.8123 226.794 85.8632C231.556 95.0454 240.95 99.4778 251 101.873V22.0228C250.932 22.049 250.863 22.0755 250.795 22.1023C238.778 26.8232 232.357 39.7909 227.716 52.1185Z" fill="#F9F9F9"/>
<path d="M100.254 109.479L101.825 108.993L103.384 108.428L104.929 107.786L106.457 107.068L107.964 106.278L109.449 105.417L110.909 104.489L112.341 103.499L113.743 102.45L115.114 101.347L116.451 100.195L117.754 99.0007L119.021 97.7683L120.251 96.5045L121.445 95.2154L122.602 93.9073L123.722 92.5868L124.806 91.2603L125.856 89.9344L126.872 88.6154L127.856 87.3097L128.811 86.0235L130.641 83.5328L131.522 82.3395L132.384 81.1876L133.231 80.0818L134.067 79.0264L134.895 78.0251L135.718 77.0812L136.542 76.1974L137.369 75.376L138.204 74.6186L139.051 73.9265L139.913 73.3002L140.794 72.7396L141.697 72.2441L142.627 71.8125L143.585 71.4429L144.575 71.1331L145.598 70.8801L146.657 70.6805L147.754 70.5303L148.89 70.4252L150.064 70.3604L151.278 70.3309L152.532 70.3313L153.824 70.3559L155.154 70.3989L156.519 70.4545L159.35 70.5791L160.81 70.6363L162.295 70.6823L163.803 70.7113L165.328 70.7179L166.868 70.6968L168.417 70.6431L169.971 70.5524L171.526 70.4205L173.077 70.2437L174.62 70.0191L176.15 69.7442L177.663 69.4169L179.155 69.0358L180.623 68.5995L182.063 68.1072L183.47 67.5584L184.841 66.9529L186.174 66.2909L187.464 65.573L188.709 64.7999L189.907 63.9728L191.054 63.0933L192.15 62.1631L193.193 61.1842L194.182 60.1589L195.115 59.0896L195.992 57.9791L196.813 56.83L197.58 55.6454L198.291 54.4282L198.95 53.1815L199.556 51.9084L200.112 50.6121L200.62 49.2955L201.084 47.9617L201.504 46.6135L201.886 45.2539L202.231 43.8853L202.544 42.5102L202.828 41.1309L203.087 39.7495L203.326 38.3677L203.547 36.9871L203.756 35.609L203.955 34.2345L204.342 31.4989L204.536 30.1387L204.736 28.7836L204.944 27.4333L205.164 26.0875L205.397 24.7454L205.646 23.4061L205.913 22.0687L206.199 20.7319L206.505 19.3945L206.832 18.0549L207.18 16.7118L207.549 15.3636L207.938 14.0088L208.345 12.6459L208.771 11.2735L209.211 9.89006L209.665 8.49443L210.13 7.08543L211.078 4.22354L211.554 2.76924L212.026 1.29883L212.034 1.27539H11.0431L10.8162 2.03351L10.4328 3.5302L10.1097 5.03802L9.84643 6.55492L9.64182 8.07893L9.49473 9.60815L9.40373 11.1407L9.36719 12.675L9.38311 14.2092L9.44918 15.742L9.56268 17.272L9.72072 18.7981L9.9202 20.3193L10.158 21.8349L10.4308 23.3442L10.7356 24.8469L11.0692 26.3427L11.4288 27.8315L11.8118 29.3134L12.2156 30.7883L12.6383 32.2566L13.0779 33.7185L13.5332 35.1742L14.0029 36.6239L14.4864 38.0679L14.983 39.5063L15.4923 40.9393L16.014 42.367L16.548 43.7896L17.0945 45.2071L17.6536 46.6195L18.2256 48.0266L18.8111 49.4284L19.4105 50.8247L20.0245 52.2151L20.6537 53.5992L21.2988 54.9768L21.9606 56.3471L22.6398 57.7098L23.3371 59.0641L24.0534 60.4093L24.7892 61.7449L25.5452 63.07L26.3218 64.3839L27.1197 65.6858L27.939 66.975L28.7801 68.2508L29.6431 69.5125L30.5281 70.7595L31.4348 71.9913L32.3632 73.2073L33.3128 74.4071L34.2834 75.5904L35.2743 76.757L36.285 77.9068L37.3148 79.0396L38.363 80.1555L39.4288 81.2547L40.5115 82.3374L41.6101 83.4038L42.724 84.4545L43.8522 85.4897L44.994 86.5101L46.1486 87.5161L47.3154 88.5083L48.4936 89.4871L49.6828 90.4533L50.8823 91.4073L52.0919 92.3495L53.3112 93.2805L54.5399 94.2006L55.7778 95.1101L57.025 96.0091L58.2815 96.8977L59.5473 97.7758L60.8227 98.6431L62.108 99.4992L63.4036 100.344L64.7097 101.175L66.027 101.994L67.3561 102.796L68.698 103.582L70.0536 104.346L71.4238 105.088L72.8097 105.802L74.2119 106.485L75.6314 107.133L77.0684 107.741L78.5234 108.305L79.9962 108.82L81.4867 109.281L82.9943 109.686L84.518 110.029L86.0567 110.307L87.6087 110.517L89.1724 110.656L90.7457 110.721L92.3265 110.711L93.9123 110.623L95.5006 110.457L97.0888 110.211L98.6741 109.885L100.254 109.479Z" fill="#F9F9F9"/>
<path d="M80.2209 182.479C76.9863 187.929 72.6944 192.789 67.1113 195.843C61.511 198.906 55.0567 199.922 48.6581 199.743C42.2675 199.564 35.8441 198.25 30.4626 194.816C25.1376 191.419 21.3878 186.163 18.5642 180.543C15.8068 175.055 14.5406 169.061 14.4449 162.934C14.3465 156.635 14.9862 150.239 18.0044 144.702C21.1015 139.02 25.8832 134.284 31.6731 131.327C37.4015 128.402 43.9763 127.721 50.4106 128.153C56.6801 128.574 62.7557 130.424 68.0629 133.77C73.3176 137.083 77.4916 141.752 80.5298 147.142C83.5892 152.57 85.5996 158.573 85.5453 164.786C85.4905 171.051 83.4226 177.085 80.2209 182.479Z" fill="#F9F9F9"/>
<path d="M129.838 250.468L130.638 251.012L131.042 251.275H251V183.416L250.926 182.821L250.837 181.987L250.763 181.156L250.704 180.329L250.659 179.503L250.628 178.678L250.61 177.854L250.604 177.029L250.609 176.203L250.625 175.376L250.65 174.548L250.683 173.716L250.723 172.882L250.769 172.045L250.819 171.205L250.873 170.361L250.983 168.663L251 168.402V156.038L250.965 155.709L250.855 154.859L250.728 154.016L250.582 153.179L250.417 152.349L250.233 151.529L250.03 150.717L249.808 149.915L249.566 149.123L249.304 148.343L249.024 147.574L248.724 146.818L248.405 146.076L248.067 145.347L247.711 144.632L247.336 143.933L246.944 143.249L246.534 142.58L246.107 141.928L245.664 141.293L245.204 140.675L244.729 140.074L244.239 139.49L243.735 138.924L243.217 138.377L242.686 137.847L242.142 137.335L241.587 136.842L241.021 136.367L240.444 135.91L239.858 135.471L239.263 135.05L238.66 134.646L238.049 134.26L237.431 133.891L236.808 133.54L236.179 133.205L235.545 132.886L234.907 132.583L234.266 132.295L233.622 132.023L232.976 131.765L232.328 131.521L231.68 131.291L231.031 131.074L230.382 130.869L229.734 130.677L229.087 130.496L228.442 130.325L227.799 130.165L227.159 130.015L226.521 129.873L225.887 129.74L225.256 129.615L224.629 129.497L224.006 129.386L223.388 129.281L222.774 129.181L222.166 129.087L221.562 128.996L220.963 128.91L220.37 128.827L219.782 128.746L219.2 128.668L217.486 128.44L216.926 128.365L216.372 128.289L215.824 128.212L215.281 128.133L214.745 128.052L214.213 127.967L213.688 127.879L213.168 127.786L212.654 127.688L212.145 127.585L211.641 127.475L211.142 127.359L210.648 127.236L210.159 127.104L209.675 126.964L209.195 126.816L208.719 126.657L208.247 126.489L207.778 126.311L207.312 126.122L206.85 125.921L206.39 125.71L205.932 125.486L205.476 125.25L205.022 125.001L204.568 124.74L204.115 124.466L203.663 124.179L203.21 123.879L202.757 123.565L202.303 123.238L201.847 122.897L201.389 122.544L200.928 122.176L200.465 121.796L199.998 121.402L199.528 120.996L199.053 120.577L198.573 120.146L198.088 119.702L197.598 119.248L197.101 118.781L196.597 118.304L196.087 117.817L195.569 117.32L193.966 115.777L193.415 115.247L192.854 114.711L192.283 114.169L191.702 113.622L191.111 113.071L190.51 112.517L189.898 111.96L189.275 111.402L188.64 110.843L187.995 110.284L187.338 109.727L186.67 109.172L185.99 108.621L185.298 108.073L184.595 107.531L183.88 106.995L183.154 106.466L182.416 105.946L181.667 105.435L180.906 104.934L180.135 104.445L179.352 103.968L178.559 103.504L177.756 103.055L176.942 102.621L176.118 102.203L175.286 101.802L174.444 101.419L173.593 101.055L172.734 100.711L171.867 100.387L170.993 100.085L170.111 99.8051L169.224 99.5479L168.33 99.3143L167.431 99.1049L166.528 98.9203L165.62 98.7612L164.708 98.6279L163.793 98.5211L162.876 98.4412L161.957 98.3886L161.036 98.3637L160.115 98.3667L159.194 98.3979L158.274 98.4575L157.354 98.5454L156.436 98.6617L155.521 98.8062L154.607 98.9788L153.697 99.1791L152.791 99.4067L151.888 99.6614L150.99 99.9426L150.096 100.25L149.206 100.583L148.322 100.94L147.443 101.323L146.569 101.728L145.701 102.157L144.839 102.609L143.982 103.082L143.132 103.577L142.287 104.092L141.448 104.627L140.616 105.182L139.789 105.755L138.969 106.346L138.154 106.955L137.346 107.581L136.543 108.224L135.747 108.883L134.957 109.558L134.173 110.248L133.395 110.954L132.623 111.674L131.857 112.408L131.098 113.157L130.346 113.92L129.601 114.697L128.862 115.489L128.131 116.293L127.407 117.112L126.692 117.945L125.984 118.791L125.285 119.65L124.594 120.523L123.913 121.41L123.24 122.31L122.578 123.222L121.925 124.148L121.282 125.086L120.649 126.038L120.028 127.001L119.417 127.977L118.817 128.965L118.228 129.964L117.651 130.975L117.086 131.998L116.533 133.031L115.991 134.076L115.462 135.13L114.946 136.195L114.442 137.27L113.951 138.354L113.473 139.448L113.007 140.55L112.554 141.661L112.115 142.78L111.688 143.908L111.274 145.042L110.873 146.184L110.485 147.333L110.11 148.488L109.748 149.649L109.398 150.816L109.061 151.988L108.737 153.166L108.425 154.348L108.125 155.535L107.837 156.726L107.561 157.921L107.297 159.12L107.044 160.321L106.803 161.527L106.573 162.734L106.355 163.945L106.147 165.158L105.95 166.373L105.764 167.59L105.588 168.809L105.423 170.029L105.268 171.251L105.123 172.475L104.988 173.699L104.863 174.925L104.749 176.151L104.644 177.378L104.548 178.606L104.463 179.835L104.388 181.063L104.323 182.292L104.267 183.521L104.222 184.751L104.187 185.98L104.163 187.209L104.148 188.437L104.145 189.665L104.152 190.892L104.171 192.118L104.201 193.343L104.242 194.567L104.295 195.789L104.361 197.009L104.438 198.228L104.529 199.444L104.632 200.657L104.748 201.867L104.878 203.074L105.022 204.277L105.179 205.476L105.352 206.671L105.538 207.861L105.74 209.045L105.957 210.224L106.189 211.397L106.437 212.563L106.701 213.722L106.981 214.873L107.276 216.017L107.588 217.152L107.916 218.278L108.26 219.394L108.621 220.501L108.997 221.598L109.389 222.684L109.797 223.759L110.22 224.823L110.658 225.875L111.111 226.915L111.58 227.943L112.062 228.959L112.56 229.961L113.071 230.95L113.597 231.925L114.136 232.887L114.689 233.834L115.255 234.766L115.835 235.684L116.427 236.586L117.033 237.473L117.651 238.344L118.281 239.198L118.924 240.037L119.578 240.858L120.244 241.663L120.921 242.45L121.61 243.22L122.309 243.972L123.019 244.706L123.74 245.421L124.47 246.119L125.211 246.797L125.96 247.457L126.719 248.098L127.487 248.719L128.263 249.322L129.047 249.905L129.838 250.468Z" stroke="black" stroke-width="2" stroke-linejoin="round"/>
<path d="M227.716 52.1185C223.437 63.4855 221.582 75.8123 226.794 85.8632C231.556 95.0454 240.95 99.4778 251 101.873V22.0228C250.932 22.049 250.863 22.0755 250.795 22.1023C238.778 26.8232 232.357 39.7909 227.716 52.1185Z" stroke="black" stroke-width="2" stroke-linejoin="round"/>
<path d="M100.254 109.479L101.825 108.993L103.384 108.428L104.929 107.786L106.457 107.068L107.964 106.278L109.449 105.417L110.909 104.489L112.341 103.499L113.743 102.45L115.114 101.347L116.451 100.195L117.754 99.0007L119.021 97.7683L120.251 96.5045L121.445 95.2154L122.602 93.9073L123.722 92.5868L124.806 91.2603L125.856 89.9344L126.872 88.6154L127.856 87.3097L128.811 86.0235L130.641 83.5328L131.522 82.3395L132.384 81.1876L133.231 80.0818L134.067 79.0264L134.895 78.0251L135.718 77.0812L136.542 76.1974L137.369 75.376L138.204 74.6186L139.051 73.9265L139.913 73.3002L140.794 72.7396L141.697 72.2441L142.627 71.8125L143.585 71.4429L144.575 71.1331L145.598 70.8801L146.657 70.6805L147.754 70.5303L148.89 70.4252L150.064 70.3604L151.278 70.3309L152.532 70.3313L153.824 70.3559L155.154 70.3989L156.519 70.4545L159.35 70.5791L160.81 70.6363L162.295 70.6823L163.803 70.7113L165.328 70.7179L166.868 70.6968L168.417 70.6431L169.971 70.5524L171.526 70.4205L173.077 70.2437L174.62 70.0191L176.15 69.7442L177.663 69.4169L179.155 69.0358L180.623 68.5995L182.063 68.1072L183.47 67.5584L184.841 66.9529L186.174 66.2909L187.464 65.573L188.709 64.7999L189.907 63.9728L191.054 63.0933L192.15 62.1631L193.193 61.1842L194.182 60.1589L195.115 59.0896L195.992 57.9791L196.813 56.83L197.58 55.6454L198.291 54.4282L198.95 53.1815L199.556 51.9084L200.112 50.6121L200.62 49.2955L201.084 47.9617L201.504 46.6135L201.886 45.2539L202.231 43.8853L202.544 42.5102L202.828 41.1309L203.087 39.7495L203.326 38.3677L203.547 36.9871L203.756 35.609L203.955 34.2345L204.342 31.4989L204.536 30.1387L204.736 28.7836L204.944 27.4333L205.164 26.0875L205.397 24.7454L205.646 23.4061L205.913 22.0687L206.199 20.7319L206.505 19.3945L206.832 18.0549L207.18 16.7118L207.549 15.3636L207.938 14.0088L208.345 12.6459L208.771 11.2735L209.211 9.89006L209.665 8.49443L210.13 7.08543L211.078 4.22354L211.554 2.76924L212.026 1.29883L212.034 1.27539H11.0431L10.8162 2.03351L10.4328 3.5302L10.1097 5.03802L9.84643 6.55492L9.64182 8.07893L9.49473 9.60815L9.40373 11.1407L9.36719 12.675L9.38311 14.2092L9.44918 15.742L9.56268 17.272L9.72072 18.7981L9.9202 20.3193L10.158 21.8349L10.4308 23.3442L10.7356 24.8469L11.0692 26.3427L11.4288 27.8315L11.8118 29.3134L12.2156 30.7883L12.6383 32.2566L13.0779 33.7185L13.5332 35.1742L14.0029 36.6239L14.4864 38.0679L14.983 39.5063L15.4923 40.9393L16.014 42.367L16.548 43.7896L17.0945 45.2071L17.6536 46.6195L18.2256 48.0266L18.8111 49.4284L19.4105 50.8247L20.0245 52.2151L20.6537 53.5992L21.2988 54.9768L21.9606 56.3471L22.6398 57.7098L23.3371 59.0641L24.0534 60.4093L24.7892 61.7449L25.5452 63.07L26.3218 64.3839L27.1197 65.6858L27.939 66.975L28.7801 68.2508L29.6431 69.5125L30.5281 70.7595L31.4348 71.9913L32.3632 73.2073L33.3128 74.4071L34.2834 75.5904L35.2743 76.757L36.285 77.9068L37.3148 79.0396L38.363 80.1555L39.4288 81.2547L40.5115 82.3374L41.6101 83.4038L42.724 84.4545L43.8522 85.4897L44.994 86.5101L46.1486 87.5161L47.3154 88.5083L48.4936 89.4871L49.6828 90.4533L50.8823 91.4073L52.0919 92.3495L53.3112 93.2805L54.5399 94.2006L55.7778 95.1101L57.025 96.0091L58.2815 96.8977L59.5473 97.7758L60.8227 98.6431L62.108 99.4992L63.4036 100.344L64.7097 101.175L66.027 101.994L67.3561 102.796L68.698 103.582L70.0536 104.346L71.4238 105.088L72.8097 105.802L74.2119 106.485L75.6314 107.133L77.0684 107.741L78.5234 108.305L79.9962 108.82L81.4867 109.281L82.9943 109.686L84.518 110.029L86.0567 110.307L87.6087 110.517L89.1724 110.656L90.7457 110.721L92.3265 110.711L93.9123 110.623L95.5006 110.457L97.0888 110.211L98.6741 109.885L100.254 109.479Z" stroke="black" stroke-width="2" stroke-linejoin="round"/>
<path d="M80.2209 182.479C76.9863 187.929 72.6944 192.789 67.1113 195.843C61.511 198.906 55.0567 199.922 48.6581 199.743C42.2675 199.564 35.8441 198.25 30.4626 194.816C25.1376 191.419 21.3878 186.163 18.5642 180.543C15.8068 175.055 14.5406 169.061 14.4449 162.934C14.3465 156.635 14.9862 150.239 18.0044 144.702C21.1015 139.02 25.8832 134.284 31.6731 131.327C37.4015 128.402 43.9763 127.721 50.4106 128.153C56.6801 128.574 62.7557 130.424 68.0629 133.77C73.3176 137.083 77.4916 141.752 80.5298 147.142C83.5892 152.57 85.5996 158.573 85.5453 164.786C85.4905 171.051 83.4226 177.085 80.2209 182.479Z" stroke="black" stroke-width="2" stroke-linejoin="round"/>
<rect x="1" y="1.27539" width="250" height="250" stroke="black" stroke-width="2" stroke-linejoin="round"/>
</svg>
