<svg width="252" height="253" viewBox="0 0 252 253" fill="none" xmlns="http://www.w3.org/2000/svg">
<rect x="1" y="1.27539" width="250" height="250" fill="#F9F9F9"/>
<path d="M1 1.27539H84.3333M1 1.27539V84.6087M1 1.27539L42.5 42.7754M84.3333 1.27539H167.666M84.3333 1.27539L112.167 84.7754M1 84.6087V167.942M1 84.6087L42.5 98.4421M1 167.942V251.275M1 167.942L84.5 140.109M84.3333 251.275H1M84.3333 251.275H167.666M84.3333 251.275L98.2777 209.442M1 251.275L42.8333 209.442M167.666 1.27539H250.999M167.666 1.27539L139.833 84.7754M167.666 251.275H250.999M167.666 251.275L139.944 168.109M250.999 1.27539V84.6087M250.999 1.27539L209.167 43.1082M250.999 84.6087V167.942M250.999 84.6087L209.167 98.553M250.999 167.942V251.275M250.999 167.942L209.167 153.998M250.999 251.275L209.166 209.442M42.5 42.7754H209.167V43.1082M42.5 42.7754L84.5 84.7754M42.5 42.7754V98.4421M84.5 84.7754V112.442M84.5 84.7754H112.167M167.833 168.109V140.22M167.833 168.109L209.166 209.442M167.833 168.109H139.944M167.833 112.331V84.7754H167.5M167.833 112.331L209.167 98.553M167.833 112.331V140.22M167.5 84.7754L209.167 43.1082M167.5 84.7754H139.833M209.167 98.553V43.1082M209.167 98.553V153.998M112.055 168.109H84.5V167.775M112.055 168.109L98.2777 209.442M112.055 168.109H139.944M84.5 167.775L42.8333 209.442M84.5 167.775V140.109M42.8333 209.442H98.2777M42.8333 209.442H42.5V98.4421M98.2777 209.442H209.166M209.167 153.998V209.442H209.166M209.167 153.998L167.833 140.22M84.5 112.442L42.5 98.4421M84.5 112.442V140.109M112.167 84.7754H139.833" stroke="black" stroke-width="2" stroke-linejoin="round"/>
<path fill-rule="evenodd" clip-rule="evenodd" d="M167.666 1.27539H84.3333L98.1666 42.7754H42.5L1 1.27539V84.6087L42.5 98.4421V154.109L1 167.942V251.275L42.8333 209.442H98.2777L84.3333 251.275H167.666L153.722 209.442H209.166L250.999 251.275V167.942L209.167 153.998V98.553L250.999 84.6087V1.27539L209.167 43.1082V42.7754H153.833L167.666 1.27539ZM139.833 84.7754L153.833 42.7754H98.1666L112.167 84.7754H84.5L42.5 42.7754V98.4421L84.5 112.442V140.109L42.5 154.109V209.442H42.8333L84.5 167.775V168.109H112.055L98.2777 209.442H153.722L139.944 168.109H167.833L209.166 209.442H209.167V153.998L167.833 140.22V112.331L209.167 98.553V43.1082L167.5 84.7754H139.833Z" fill="#F9F9F9"/>
<path d="M1 1.27539H84.3333M1 1.27539V84.6087M1 1.27539L42.5 42.7754M84.3333 1.27539H167.666M84.3333 1.27539L98.1666 42.7754M1 84.6087V167.942M1 84.6087L42.5 98.4421M1 167.942V251.275M1 167.942L42.5 154.109M84.3333 251.275H1M84.3333 251.275H167.666M84.3333 251.275L98.2777 209.442M1 251.275L42.8333 209.442M167.666 1.27539H250.999M167.666 1.27539L153.833 42.7754M167.666 251.275H250.999M167.666 251.275L153.722 209.442M250.999 1.27539V84.6087M250.999 1.27539L209.167 43.1082M250.999 84.6087V167.942M250.999 84.6087L209.167 98.553M250.999 167.942V251.275M250.999 167.942L209.167 153.998M250.999 251.275L209.166 209.442M42.5 42.7754L84.5 84.7754M42.5 42.7754V98.4421M42.5 42.7754H98.1666M84.5 84.7754V112.442M84.5 84.7754H112.167M167.833 168.109V140.22M167.833 168.109L209.166 209.442M167.833 168.109H139.944M167.833 112.331V84.7754H167.5M167.833 112.331L209.167 98.553M167.833 112.331V140.22M167.5 84.7754L209.167 43.1082M167.5 84.7754H139.833M209.167 98.553V43.1082M209.167 98.553V153.998M209.167 43.1082V42.7754H153.833M112.055 168.109H84.5V167.775M112.055 168.109L98.2777 209.442M112.055 168.109H139.944M84.5 167.775L42.8333 209.442M84.5 167.775V140.109M42.8333 209.442H98.2777M42.8333 209.442H42.5V154.109M98.2777 209.442H153.722M209.167 153.998V209.442H209.166M209.167 153.998L167.833 140.22M209.166 209.442H153.722M84.5 112.442L42.5 98.4421M84.5 112.442V140.109M42.5 98.4421V154.109M112.167 84.7754H139.833M112.167 84.7754L98.1666 42.7754M139.833 84.7754L153.833 42.7754M84.5 140.109L42.5 154.109M139.944 168.109L153.722 209.442M98.1666 42.7754H153.833" stroke="black" stroke-width="2" stroke-linejoin="round"/>
</svg>
