<svg width="252" height="253" viewBox="0 0 252 253" fill="none" xmlns="http://www.w3.org/2000/svg">
<rect width="250" height="250" transform="translate(1 1.27539)" fill="#F9F9F9"/>
<path d="M1 1.27539H51M1 1.27539V51.2754M1 1.27539L26 26.2754M51 1.27539H101M51 1.27539L111 101.275M1 51.2754V101.275M1 51.2754L26 66.2754M1 101.275V151.275M1 101.275L101 121.275M1 151.275V201.275M1 151.275L101 131.275M1 201.275V251.275M1 201.275L101 141.275M51 251.275H1M51 251.275H101M51 251.275L66 226.275M1 251.275L26 226.275M101 1.27539H151M101 1.27539L121 101.275M101 251.275H151M101 251.275L121 151.275M151 1.27539H201M151 1.27539L131 101.275M151 251.275H201M151 251.275L131 151.275M201 1.27539H251M201 1.27539L141 101.275M201 251.275H251M201 251.275L156 176.275M251 1.27539V51.2754M251 1.27539L226 26.2754M251 51.2754V101.275M251 51.2754L226 66.2754M251 101.275V151.275M251 101.275L151 121.275M251 151.275V201.275M251 151.275L151 131.275M251 201.275V251.275M251 201.275L226 186.275M251 251.275L226 226.275M26 26.2754H226M26 26.2754L51 51.2754M26 26.2754V66.2754M226 26.2754V66.2754M226 26.2754L201 51.2754M226 226.275H66M226 226.275L201 201.275M226 226.275V186.275M26 226.275H66M26 226.275L51 201.275M26 226.275V66.2754M51 51.2754H201M51 51.2754L76 76.2754M51 51.2754V81.2754M201 51.2754V81.2754M201 51.2754L176 76.2754M201 201.275H81M201 201.275L176 176.275M201 201.275V171.275M51 201.275H81M51 201.275L76 176.275M51 201.275V81.2754M76 76.2754H176M76 76.2754L101 101.275M76 76.2754V96.2754M176 76.2754L151 101.275M176 76.2754V96.2754M176 176.275L151 151.275M176 176.275V156.275M176 176.275H156M76 176.275V96.2754M76 176.275L101 151.275M76 176.275H96M101 101.275H111M101 101.275V111.275M151 101.275V111.275M151 101.275H141M151 151.275H141M151 151.275V141.275M101 151.275V141.275M101 151.275H111M131 151.275H121M131 151.275H141M121 151.275H111M141 151.275L156 176.275M151 141.275V131.275M151 141.275L176 156.275M151 131.275V121.275M151 111.275V121.275M151 111.275L176 96.2754M141 101.275H131M121 101.275H131M121 101.275H111M101 111.275V121.275M101 111.275L76 96.2754M101 121.275V131.275M101 141.275V131.275M111 151.275L96 176.275M76 96.2754L51 81.2754M96 176.275L81 201.275M96 176.275H156M176 156.275V96.2754M176 156.275L201 171.275M176 96.2754L201 81.2754M66 226.275L81 201.275M201 171.275L226 186.275M201 171.275V81.2754M226 186.275V66.2754M226 66.2754L201 81.2754M51 81.2754L26 66.2754" stroke="black" stroke-width="2" stroke-linejoin="round"/>
<path fill-rule="evenodd" clip-rule="evenodd" d="M1 51.2754V101.275L26 106.275V146.275L1 151.275V201.275L26 186.275V226.275L1 251.275H51L66 226.275H106L101 251.275H151L146 226.275H186L201 251.275H251L226 226.275V186.275L251 201.275V151.275L226 146.275V106.275L251 101.275V51.2754L226 66.2754V26.2754L251 1.27539H201L186 26.2754H146L151 1.27539H101L106 26.2754H66L51 1.27539H1L26 26.2754V66.2754L1 51.2754ZM51 81.2754L26 66.2754V106.275L51 111.275V141.275L26 146.275V186.275L51 171.275V201.275L26 226.275H66L81 201.275H111L106 226.275H146L141 201.275H171L186 226.275H226L201 201.275V171.275L226 186.275V146.275L201 141.275V111.275L226 106.275V66.2754L201 81.2754V51.2754L226 26.2754H186L171 51.2754H141L146 26.2754H106L111 51.2754H81L66 26.2754H26L51 51.2754V81.2754ZM76 96.2754L51 81.2754V111.275L76 116.275V136.275L51 141.275V171.275L76 156.275V176.275L51 201.275H81L96 176.275H116L111 201.275H141L136 176.275H156L171 201.275H201L176 176.275V156.275L201 171.275V141.275L176 136.275V116.275L201 111.275V81.2754L176 96.2754V76.2754L201 51.2754H171L156 76.2754H136L141 51.2754H111L116 76.2754H96L81 51.2754H51L76 76.2754V96.2754ZM76 96.2754L101 111.275V101.275L76 76.2754H96L111 101.275H121L116 76.2754H136L131 101.275H141L156 76.2754H176L151 101.275V111.275L176 96.2754V116.275L151 121.275V131.275L176 136.275V156.275L151 141.275V151.275L176 176.275H156L141 151.275H131L136 176.275H116L121 151.275H111L96 176.275H76L101 151.275V141.275L76 156.275V136.275L101 131.275V121.275L76 116.275V96.2754Z" fill="#F9F9F9"/>
<path d="M1 1.27539H51M1 1.27539V51.2754M1 1.27539L26 26.2754M51 1.27539H101M51 1.27539L66 26.2754M1 51.2754V101.275M1 51.2754L26 66.2754M1 101.275V151.275M1 101.275L26 106.275M1 151.275V201.275M1 151.275L26 146.275M1 201.275V251.275M1 201.275L26 186.275M51 251.275H1M51 251.275H101M51 251.275L66 226.275M1 251.275L26 226.275M101 1.27539H151M101 1.27539L106 26.2754M101 251.275H151M101 251.275L106 226.275M151 1.27539H201M151 1.27539L146 26.2754M151 251.275H201M151 251.275L146 226.275M201 1.27539H251M201 1.27539L186 26.2754M201 251.275H251M201 251.275L186 226.275M251 1.27539V51.2754M251 1.27539L226 26.2754M251 51.2754V101.275M251 51.2754L226 66.2754M251 101.275V151.275M251 101.275L226 106.275M251 151.275V201.275M251 151.275L226 146.275M251 201.275V251.275M251 201.275L226 186.275M251 251.275L226 226.275M26 26.2754L51 51.2754M26 26.2754V66.2754M26 26.2754H66M226 26.2754V66.2754M226 26.2754L201 51.2754M226 26.2754H186M226 226.275L201 201.275M226 226.275V186.275M226 226.275H186M26 226.275H66M26 226.275L51 201.275M26 226.275V186.275M51 51.2754L76 76.2754M51 51.2754V81.2754M51 51.2754H81M201 51.2754V81.2754M201 51.2754L176 76.2754M201 51.2754H171M201 201.275L176 176.275M201 201.275V171.275M201 201.275H171M51 201.275H81M51 201.275L76 176.275M51 201.275V171.275M76 76.2754L101 101.275M76 76.2754V96.2754M76 76.2754H96M176 76.2754L151 101.275M176 76.2754V96.2754M176 76.2754H156M176 176.275L151 151.275M176 176.275V156.275M176 176.275H156M76 176.275L101 151.275M76 176.275H96M76 176.275V156.275M101 101.275H111M101 101.275V111.275M151 101.275V111.275M151 101.275H141M151 151.275H141M151 151.275V141.275M101 151.275V141.275M101 151.275H111M131 151.275H121M131 151.275H141M131 151.275L136 176.275M121 151.275H111M121 151.275L116 176.275M141 151.275L156 176.275M151 141.275V131.275M151 141.275L176 156.275M151 131.275V121.275M151 131.275L176 136.275M151 111.275V121.275M151 111.275L176 96.2754M151 121.275L176 116.275M141 101.275H131M141 101.275L156 76.2754M121 101.275H131M121 101.275H111M121 101.275L116 76.2754M131 101.275L136 76.2754M111 101.275L96 76.2754M101 111.275V121.275M101 111.275L76 96.2754M101 121.275V131.275M101 121.275L76 116.275M101 141.275V131.275M101 141.275L76 156.275M101 131.275L76 136.275M111 151.275L96 176.275M76 96.2754L51 81.2754M76 96.2754V116.275M96 176.275L81 201.275M96 176.275H116M176 156.275L201 171.275M176 156.275V136.275M176 96.2754L201 81.2754M176 96.2754V116.275M66 226.275L81 201.275M66 226.275H106M81 201.275H111M201 171.275L226 186.275M201 171.275V141.275M226 186.275V146.275M226 66.2754L201 81.2754M226 66.2754V106.275M201 81.2754V111.275M51 81.2754L26 66.2754M51 81.2754V111.275M26 66.2754V106.275M156 176.275H136M156 176.275L171 201.275M116 176.275H136M116 176.275L111 201.275M136 176.275L141 201.275M176 136.275V116.275M176 136.275L201 141.275M176 116.275L201 111.275M156 76.2754H136M156 76.2754L171 51.2754M136 76.2754H116M136 76.2754L141 51.2754M116 76.2754H96M116 76.2754L111 51.2754M96 76.2754L81 51.2754M76 116.275V136.275M76 116.275L51 111.275M76 156.275V136.275M76 156.275L51 171.275M76 136.275L51 141.275M51 111.275V141.275M51 111.275L26 106.275M51 141.275V171.275M51 141.275L26 146.275M111 51.2754H81M111 51.2754H141M111 51.2754L106 26.2754M81 51.2754L66 26.2754M141 51.2754H171M141 51.2754L146 26.2754M171 51.2754L186 26.2754M201 141.275V111.275M201 141.275L226 146.275M201 111.275L226 106.275M141 201.275H171M141 201.275H111M141 201.275L146 226.275M171 201.275L186 226.275M111 201.275L106 226.275M51 171.275L26 186.275M106 226.275H146M146 226.275H186M226 146.275V106.275M186 26.2754H146M146 26.2754H106M106 26.2754H66M26 106.275V146.275M26 146.275V186.275" stroke="black" stroke-width="2" stroke-linejoin="round"/>
</svg>
