<svg width="252" height="253" viewBox="0 0 252 253" fill="none" xmlns="http://www.w3.org/2000/svg">
<rect width="250" height="250" transform="translate(1 1.27539)" fill="#F9F9F9"/>
<rect x="1.19922" y="126.275" width="31.2504" height="31.2504" fill="#F9F9F9" stroke="black" stroke-width="2" stroke-linejoin="round"/>
<rect x="63.5" y="126.275" width="31.2504" height="31.2504" fill="#F9F9F9" stroke="black" stroke-width="2" stroke-linejoin="round"/>
<rect x="125.801" y="126.275" width="31.2504" height="31.2504" fill="#F9F9F9" stroke="black" stroke-width="2" stroke-linejoin="round"/>
<rect x="188.102" y="126.275" width="31.2504" height="31.2504" fill="#F9F9F9" stroke="black" stroke-width="2" stroke-linejoin="round"/>
<rect x="1.19922" y="188.775" width="31.2504" height="31.2504" fill="#F9F9F9" stroke="black" stroke-width="2" stroke-linejoin="round"/>
<rect x="63.5" y="188.775" width="31.2504" height="31.2504" fill="#F9F9F9" stroke="black" stroke-width="2" stroke-linejoin="round"/>
<rect x="125.801" y="188.775" width="31.2504" height="31.2504" fill="#F9F9F9" stroke="black" stroke-width="2" stroke-linejoin="round"/>
<rect x="188.102" y="188.775" width="31.2504" height="31.2504" fill="#F9F9F9" stroke="black" stroke-width="2" stroke-linejoin="round"/>
<rect x="1.19922" y="157.525" width="31.2504" height="31.2504" fill="#F9F9F9" stroke="black" stroke-width="2" stroke-linejoin="round"/>
<rect x="63.5" y="157.525" width="31.2504" height="31.2504" fill="#F9F9F9" stroke="black" stroke-width="2" stroke-linejoin="round"/>
<rect x="125.801" y="157.525" width="31.2504" height="31.2504" fill="#F9F9F9" stroke="black" stroke-width="2" stroke-linejoin="round"/>
<rect x="188.102" y="157.525" width="31.2504" height="31.2504" fill="#F9F9F9" stroke="black" stroke-width="2" stroke-linejoin="round"/>
<rect x="1.19922" y="220.025" width="31.2504" height="31.2504" fill="#F9F9F9" stroke="black" stroke-width="2" stroke-linejoin="round"/>
<rect x="63.5" y="220.025" width="31.2504" height="31.2504" fill="#F9F9F9" stroke="black" stroke-width="2" stroke-linejoin="round"/>
<rect x="125.801" y="220.025" width="31.2504" height="31.2504" fill="#F9F9F9" stroke="black" stroke-width="2" stroke-linejoin="round"/>
<rect x="188.102" y="220.025" width="31.2504" height="31.2504" fill="#F9F9F9" stroke="black" stroke-width="2" stroke-linejoin="round"/>
<rect x="32.4492" y="126.275" width="31.2504" height="31.2504" fill="#F9F9F9" stroke="black" stroke-width="2" stroke-linejoin="round"/>
<rect x="94.75" y="126.275" width="31.2504" height="31.2504" fill="#F9F9F9" stroke="black" stroke-width="2" stroke-linejoin="round"/>
<rect x="157.051" y="126.275" width="31.2504" height="31.2504" fill="#F9F9F9" stroke="black" stroke-width="2" stroke-linejoin="round"/>
<rect x="219.352" y="126.275" width="31.2504" height="31.2504" fill="#F9F9F9" stroke="black" stroke-width="2" stroke-linejoin="round"/>
<rect x="32.4492" y="188.775" width="31.2504" height="31.2504" fill="#F9F9F9" stroke="black" stroke-width="2" stroke-linejoin="round"/>
<rect x="94.75" y="188.775" width="31.2504" height="31.2504" fill="#F9F9F9" stroke="black" stroke-width="2" stroke-linejoin="round"/>
<rect x="157.051" y="188.775" width="31.2504" height="31.2504" fill="#F9F9F9" stroke="black" stroke-width="2" stroke-linejoin="round"/>
<rect x="219.352" y="188.775" width="31.2504" height="31.2504" fill="#F9F9F9" stroke="black" stroke-width="2" stroke-linejoin="round"/>
<rect x="32.4492" y="157.525" width="31.2504" height="31.2504" fill="#F9F9F9" stroke="black" stroke-width="2" stroke-linejoin="round"/>
<rect x="94.75" y="157.525" width="31.2504" height="31.2504" fill="#F9F9F9" stroke="black" stroke-width="2" stroke-linejoin="round"/>
<rect x="157.051" y="157.525" width="31.2504" height="31.2504" fill="#F9F9F9" stroke="black" stroke-width="2" stroke-linejoin="round"/>
<rect x="219.352" y="157.525" width="31.2504" height="31.2504" fill="#F9F9F9" stroke="black" stroke-width="2" stroke-linejoin="round"/>
<rect x="32.4492" y="220.025" width="31.2504" height="31.2504" fill="#F9F9F9" stroke="black" stroke-width="2" stroke-linejoin="round"/>
<rect x="94.75" y="220.025" width="31.2504" height="31.2504" fill="#F9F9F9" stroke="black" stroke-width="2" stroke-linejoin="round"/>
<rect x="157.051" y="220.025" width="31.2504" height="31.2504" fill="#F9F9F9" stroke="black" stroke-width="2" stroke-linejoin="round"/>
<rect x="219.352" y="220.025" width="31.2504" height="31.2504" fill="#F9F9F9" stroke="black" stroke-width="2" stroke-linejoin="round"/>
<rect x="1.19922" y="95.0254" width="31.2504" height="31.2504" fill="#F9F9F9" stroke="black" stroke-width="2" stroke-linejoin="round"/>
<rect x="63.5" y="95.0254" width="31.2504" height="31.2504" fill="#F9F9F9" stroke="black" stroke-width="2" stroke-linejoin="round"/>
<rect x="125.801" y="95.0254" width="31.2504" height="31.2504" fill="#F9F9F9" stroke="black" stroke-width="2" stroke-linejoin="round"/>
<rect x="188.102" y="95.0254" width="31.2504" height="31.2504" fill="#F9F9F9" stroke="black" stroke-width="2" stroke-linejoin="round"/>
<rect x="32.4492" y="95.0254" width="31.2504" height="31.2504" fill="#F9F9F9" stroke="black" stroke-width="2" stroke-linejoin="round"/>
<rect x="94.75" y="95.0254" width="31.2504" height="31.2504" fill="#F9F9F9" stroke="black" stroke-width="2" stroke-linejoin="round"/>
<rect x="157.051" y="95.0254" width="31.2504" height="31.2504" fill="#F9F9F9" stroke="black" stroke-width="2" stroke-linejoin="round"/>
<rect x="219.352" y="95.0254" width="31.2504" height="31.2504" fill="#F9F9F9" stroke="black" stroke-width="2" stroke-linejoin="round"/>
<rect x="1.19922" y="63.7754" width="31.2504" height="31.2504" fill="#F9F9F9" stroke="black" stroke-width="2" stroke-linejoin="round"/>
<rect x="63.5" y="63.7754" width="31.2504" height="31.2504" fill="#F9F9F9" stroke="black" stroke-width="2" stroke-linejoin="round"/>
<rect x="125.801" y="63.7754" width="31.2504" height="31.2504" fill="#F9F9F9" stroke="black" stroke-width="2" stroke-linejoin="round"/>
<rect x="188.102" y="63.7754" width="31.2504" height="31.2504" fill="#F9F9F9" stroke="black" stroke-width="2" stroke-linejoin="round"/>
<rect x="1.19922" y="1.27539" width="31.2504" height="31.2504" fill="#F9F9F9" stroke="black" stroke-width="2" stroke-linejoin="round"/>
<rect x="63.5" y="1.27539" width="31.2504" height="31.2504" fill="#F9F9F9" stroke="black" stroke-width="2" stroke-linejoin="round"/>
<rect x="125.801" y="1.27539" width="31.2504" height="31.2504" fill="#F9F9F9" stroke="black" stroke-width="2" stroke-linejoin="round"/>
<rect x="188.102" y="1.27539" width="31.2504" height="31.2504" fill="#F9F9F9" stroke="black" stroke-width="2" stroke-linejoin="round"/>
<rect x="1.19922" y="32.5254" width="31.2504" height="31.2504" fill="#F9F9F9" stroke="black" stroke-width="2" stroke-linejoin="round"/>
<rect x="63.5" y="32.5254" width="31.2504" height="31.2504" fill="#F9F9F9" stroke="black" stroke-width="2" stroke-linejoin="round"/>
<rect x="125.801" y="32.5254" width="31.2504" height="31.2504" fill="#F9F9F9" stroke="black" stroke-width="2" stroke-linejoin="round"/>
<rect x="188.102" y="32.5254" width="31.2504" height="31.2504" fill="#F9F9F9" stroke="black" stroke-width="2" stroke-linejoin="round"/>
<rect x="32.4492" y="1.27539" width="31.2504" height="31.2504" fill="#F9F9F9" stroke="black" stroke-width="2" stroke-linejoin="round"/>
<rect x="94.75" y="1.27539" width="31.2504" height="31.2504" fill="#F9F9F9" stroke="black" stroke-width="2" stroke-linejoin="round"/>
<rect x="157.051" y="1.27539" width="31.2504" height="31.2504" fill="#F9F9F9" stroke="black" stroke-width="2" stroke-linejoin="round"/>
<rect x="219.352" y="1.27539" width="31.2504" height="31.2504" fill="#F9F9F9" stroke="black" stroke-width="2" stroke-linejoin="round"/>
<rect x="32.4492" y="32.5254" width="31.2504" height="31.2504" fill="#F9F9F9" stroke="black" stroke-width="2" stroke-linejoin="round"/>
<rect x="94.75" y="32.5254" width="31.2504" height="31.2504" fill="#F9F9F9" stroke="black" stroke-width="2" stroke-linejoin="round"/>
<rect x="157.051" y="32.5254" width="31.2504" height="31.2504" fill="#F9F9F9" stroke="black" stroke-width="2" stroke-linejoin="round"/>
<rect x="219.352" y="32.5254" width="31.2504" height="31.2504" fill="#F9F9F9" stroke="black" stroke-width="2" stroke-linejoin="round"/>
<rect x="32.4492" y="63.7754" width="31.2504" height="31.2504" fill="#F9F9F9" stroke="black" stroke-width="2" stroke-linejoin="round"/>
<rect x="94.75" y="63.7754" width="31.2504" height="31.2504" fill="#F9F9F9" stroke="black" stroke-width="2" stroke-linejoin="round"/>
<rect x="157.051" y="63.7754" width="31.2504" height="31.2504" fill="#F9F9F9" stroke="black" stroke-width="2" stroke-linejoin="round"/>
<rect x="219.352" y="63.7754" width="31.2504" height="31.2504" fill="#F9F9F9" stroke="black" stroke-width="2" stroke-linejoin="round"/>
</svg>
