<svg width="252" height="253" viewBox="0 0 252 253" fill="none" xmlns="http://www.w3.org/2000/svg">
<rect width="250" height="250" transform="translate(1 1.27539)" fill="#F9F9F9"/>
<rect x="1" y="1.27539" width="250" height="250" fill="#F9F9F9" stroke="black" stroke-width="2" stroke-linejoin="round"/>
<path d="M1 101.275H42.6667L84.3333 51.2754H42.6667L1 101.275Z" fill="#F9F9F9"/>
<path d="M84.3333 1.27539H42.6667L1 51.2754H42.6667L84.3333 1.27539Z" fill="#F9F9F9"/>
<path d="M1 201.275H42.6667L84.3333 151.275H42.6667L1 201.275Z" fill="#F9F9F9"/>
<path d="M84.3333 101.275H42.6667L1 151.275H42.6667L84.3333 101.275Z" fill="#F9F9F9"/>
<path d="M84.3333 101.275H126L167.667 51.2754H126L84.3333 101.275Z" fill="#F9F9F9"/>
<path d="M167.667 1.27539H126L84.3333 51.2754H126L167.667 1.27539Z" fill="#F9F9F9"/>
<path d="M84.3333 201.275H126L167.667 151.275H126L84.3333 201.275Z" fill="#F9F9F9"/>
<path d="M167.667 101.275H126L84.3333 151.275H126L167.667 101.275Z" fill="#F9F9F9"/>
<path d="M167.667 101.275H209.333L251 51.2754H209.333L167.667 101.275Z" fill="#F9F9F9"/>
<path d="M251 1.27539H209.333L167.667 51.2754H209.333L251 1.27539Z" fill="#F9F9F9"/>
<path d="M167.667 201.275H209.333L251 151.275H209.333L167.667 201.275Z" fill="#F9F9F9"/>
<path d="M251 101.275H209.333L167.667 151.275H209.333L251 101.275Z" fill="#F9F9F9"/>
<path d="M84.3333 201.275H42.6667L1 251.275H42.6667L84.3333 201.275Z" fill="#F9F9F9"/>
<path d="M167.667 201.275H126L84.3333 251.275H126L167.667 201.275Z" fill="#F9F9F9"/>
<path d="M251 201.275H209.333L167.667 251.275H209.333L251 201.275Z" fill="#F9F9F9"/>
<path d="M84.3333 51.2754L42.6667 101.275M84.3333 51.2754H42.6667M84.3333 51.2754L126 1.27539H167.667L126 51.2754M84.3333 51.2754H126M42.6667 101.275H1L42.6667 51.2754M42.6667 101.275H84.3333M42.6667 101.275L1 151.275H42.6667M42.6667 51.2754L84.3333 1.27539H42.6667L1 51.2754H42.6667ZM84.3333 101.275L42.6667 151.275M84.3333 101.275H126M84.3333 101.275L126 51.2754M84.3333 151.275L42.6667 201.275M84.3333 151.275H42.6667M84.3333 151.275L126 101.275M84.3333 151.275H126M42.6667 201.275H1L42.6667 151.275M42.6667 201.275H84.3333M42.6667 201.275L1 251.275H42.6667L84.3333 201.275M167.667 51.2754L126 101.275M167.667 51.2754H126M167.667 51.2754L209.333 1.27539H251L209.333 51.2754M167.667 51.2754H209.333M126 101.275H167.667M167.667 101.275L126 151.275M167.667 101.275H209.333M167.667 101.275L209.333 51.2754M84.3333 201.275H126M84.3333 201.275L126 151.275M167.667 151.275L126 201.275M167.667 151.275H126M167.667 151.275L209.333 101.275M167.667 151.275H209.333M126 201.275H167.667M126 201.275L84.3333 251.275H126L167.667 201.275M209.333 101.275L251 51.2754H209.333M209.333 101.275H251L209.333 151.275M167.667 201.275H209.333M167.667 201.275L209.333 151.275M209.333 201.275L251 151.275H209.333M209.333 201.275H251L209.333 251.275H167.667L209.333 201.275Z" stroke="black" stroke-width="2" stroke-linejoin="round"/>
</svg>
