<svg width="253" height="253" viewBox="0 0 253 253" fill="none" xmlns="http://www.w3.org/2000/svg">
<rect width="250" height="250" transform="translate(2 1.27539)" fill="#F9F9F9"/>
<rect x="2" y="1.27539" width="250" height="250" fill="#F9F9F9" stroke="black" stroke-width="2" stroke-linejoin="round"/>
<path d="M1.5 1.27539H37.2857V51.2754H1.5V1.27539Z" fill="#F9F9F9"/>
<path d="M1.5 101.275H37.2857V151.275H1.5V101.275Z" fill="#F9F9F9"/>
<path d="M1.5 201.275H37.2857V251.275H1.5V201.275Z" fill="#F9F9F9"/>
<path d="M73.0714 1.27539H108.857V51.2754H73.0714V1.27539Z" fill="#F9F9F9"/>
<path d="M73.0714 101.275H108.857V151.275H73.0714V101.275Z" fill="#F9F9F9"/>
<path d="M73.0714 201.275H108.857V251.275H73.0714V201.275Z" fill="#F9F9F9"/>
<path d="M144.643 1.27539H180.429V51.2754H144.643V1.27539Z" fill="#F9F9F9"/>
<path d="M144.643 101.275H180.429V151.275H144.643V101.275Z" fill="#F9F9F9"/>
<path d="M144.643 201.275H180.429V251.275H144.643V201.275Z" fill="#F9F9F9"/>
<path d="M216.214 1.27539H252V51.2754H216.214V1.27539Z" fill="#F9F9F9"/>
<path d="M216.214 101.275H252V151.275H216.214V101.275Z" fill="#F9F9F9"/>
<path d="M216.214 201.275H252V251.275H216.214V201.275Z" fill="#F9F9F9"/>
<path d="M37.2857 51.2754H73.0714V101.275H37.2857V51.2754Z" fill="#F9F9F9"/>
<path d="M37.2857 151.275H73.0714V201.275H37.2857V151.275Z" fill="#F9F9F9"/>
<path d="M108.857 51.2754H144.643V101.275H108.857V51.2754Z" fill="#F9F9F9"/>
<path d="M108.857 151.275H144.643V201.275H108.857V151.275Z" fill="#F9F9F9"/>
<path d="M180.429 51.2754H216.214V101.275H180.429V51.2754Z" fill="#F9F9F9"/>
<path d="M180.429 151.275H216.214V201.275H180.429V151.275Z" fill="#F9F9F9"/>
<path d="M37.2857 51.2754V1.27539H1.5V51.2754H37.2857ZM37.2857 51.2754H73.0714M37.2857 51.2754V101.275M37.2857 101.275H1.5V151.275H37.2857M37.2857 101.275V151.275M37.2857 101.275H73.0714M37.2857 151.275H73.0714M37.2857 151.275V201.275M37.2857 201.275H1.5V251.275H37.2857V201.275ZM37.2857 201.275H73.0714M108.857 51.2754V1.27539H73.0714V51.2754M108.857 51.2754H73.0714M108.857 51.2754H144.643M108.857 51.2754V101.275M73.0714 51.2754V101.275M73.0714 101.275H108.857M73.0714 101.275V151.275M108.857 101.275V151.275M108.857 101.275H144.643M108.857 151.275H73.0714M108.857 151.275H144.643M108.857 151.275V201.275M73.0714 151.275V201.275M73.0714 201.275H108.857M73.0714 201.275V251.275H108.857V201.275M108.857 201.275H144.643M180.429 51.2754V1.27539H144.643V51.2754M180.429 51.2754H144.643M180.429 51.2754H216.214M180.429 51.2754V101.275M144.643 51.2754V101.275M144.643 101.275H180.429M144.643 101.275V151.275M180.429 101.275V151.275M180.429 101.275H216.214M180.429 151.275H144.643M180.429 151.275H216.214M180.429 151.275V201.275M144.643 151.275V201.275M144.643 201.275H180.429M144.643 201.275V251.275H180.429V201.275M180.429 201.275H216.214M216.214 51.2754H252V1.27539H216.214V51.2754ZM216.214 51.2754V101.275M216.214 101.275H252V151.275H216.214M216.214 101.275V151.275M216.214 151.275V201.275M216.214 201.275H252V251.275H216.214V201.275Z" stroke="black" stroke-width="2" stroke-linejoin="round"/>
</svg>
