<svg width="252" height="253" viewBox="0 0 252 253" fill="none" xmlns="http://www.w3.org/2000/svg">
<rect width="250" height="250" transform="translate(1 1.27539)" fill="#F9F9F9"/>
<path d="M251 1.27539H234.983C237.429 4.15891 239.791 7.13903 242.065 10.2104C245.136 12.4841 248.116 14.8463 251 17.2926V1.27539Z" fill="#F9F9F9"/>
<path d="M228.085 24.1904C236.253 28.2001 243.918 32.6781 251 37.5685V23.4995C248.2 18.9039 245.218 14.4694 242.065 10.2104C237.806 7.05754 233.371 4.0751 228.776 1.27539H214.707C219.597 8.35745 224.075 16.0223 228.085 24.1904Z" fill="#F9F9F9"/>
<path d="M205.621 46.654C218.454 49.8683 230.401 53.8355 241.232 58.4395C237.723 46.2885 233.3 34.8138 228.085 24.1904C217.462 18.9752 205.987 14.552 193.836 11.0431C198.44 21.8739 202.407 33.8214 205.621 46.654Z" fill="#F9F9F9"/>
<path d="M177.161 75.114C189.338 76.2084 200.967 77.6833 211.894 79.4928C210.339 68.0469 208.228 57.0595 205.621 46.654C195.216 44.0475 184.228 41.936 172.783 40.3812C174.592 51.3083 176.067 62.9371 177.161 75.114Z" fill="#F9F9F9"/>
<path d="M143.713 108.562C155.934 108.683 167.792 108.927 179.16 109.283C178.826 97.5224 178.148 86.0953 177.161 75.114C166.18 74.1271 154.753 73.4497 142.993 73.1156C143.348 84.4835 143.592 96.3413 143.713 108.562Z" fill="#F9F9F9"/>
<path d="M126 144.075C131.978 144.075 137.887 144.046 143.713 143.988C143.771 138.162 143.8 132.253 143.8 126.275C143.8 120.298 143.771 114.389 143.713 108.562C137.887 108.505 131.978 108.475 126 108.475C120.022 108.475 114.113 108.505 108.287 108.562C108.229 114.389 108.2 120.298 108.2 126.275C108.2 132.253 108.229 138.162 108.287 143.988C114.113 144.046 120.022 144.075 126 144.075Z" fill="#F9F9F9"/>
<path d="M109.007 73.1156C97.247 73.4497 85.8199 74.1271 74.8386 75.114C73.8517 86.0953 73.1743 97.5224 72.8402 109.283C84.2081 108.927 96.0659 108.683 108.287 108.562C108.408 96.3413 108.652 84.4835 109.007 73.1156Z" fill="#F9F9F9"/>
<path d="M79.2174 40.3812C67.7715 41.936 56.7841 44.0475 46.3786 46.654C43.7721 57.0595 41.6606 68.0469 40.1058 79.4928C51.0329 77.6833 62.6617 76.2084 74.8386 75.114C75.933 62.9371 77.4079 51.3083 79.2174 40.3812Z" fill="#F9F9F9"/>
<path d="M58.1641 11.0431C46.0131 14.552 34.5384 18.9753 23.915 24.1904C18.6998 34.8138 14.2766 46.2885 10.7677 58.4396C21.5985 53.8355 33.546 49.8683 46.3786 46.654C49.5929 33.8214 53.5601 21.8739 58.1641 11.0431Z" fill="#F9F9F9"/>
<path d="M1 23.4995V37.5685C8.08206 32.6781 15.7469 28.2002 23.915 24.1904C27.9247 16.0223 32.4027 8.35745 37.2931 1.27539H23.2242C18.6285 4.0751 14.194 7.05755 9.93499 10.2104C6.78214 14.4694 3.7997 18.9039 1 23.4995Z" fill="#F9F9F9"/>
<path d="M87.0028 4.6749C87.325 3.5274 87.6517 2.39412 87.9828 1.27539H62.6379C61.0875 4.41881 59.595 7.67704 58.1641 11.0431C67.411 8.37289 77.0497 6.23216 87.0028 4.6749Z" fill="#F9F9F9"/>
<path d="M110.562 37.6055C111.31 24.6113 112.218 12.6504 113.258 1.98975C104.307 2.43292 95.5392 3.33932 87.0028 4.6749C83.9872 15.416 81.3664 27.4038 79.2174 40.3812C89.3359 39.0067 99.8126 38.0672 110.562 37.6055Z" fill="#F9F9F9"/>
<path d="M141.438 37.6055C136.35 37.3869 131.201 37.2754 126 37.2754C120.799 37.2754 115.65 37.3869 110.562 37.6055C109.921 48.7394 109.397 60.6321 109.007 73.1156C114.6 72.9567 120.268 72.8754 126 72.8754C131.732 72.8754 137.4 72.9567 142.993 73.1156C142.603 60.6321 142.079 48.7394 141.438 37.6055Z" fill="#F9F9F9"/>
<path d="M164.997 4.6749C156.461 3.33932 147.693 2.43292 138.742 1.98975C139.782 12.6504 140.69 24.6113 141.438 37.6055C152.187 38.0672 162.664 39.0067 172.783 40.3812C170.634 27.4038 168.013 15.416 164.997 4.6749Z" fill="#F9F9F9"/>
<path d="M193.836 11.0431C192.405 7.67704 190.913 4.41881 189.362 1.27539H164.017C164.348 2.39412 164.675 3.5274 164.997 4.6749C174.95 6.23216 184.589 8.37289 193.836 11.0431Z" fill="#F9F9F9"/>
<path d="M251 88.2581V62.9133C247.857 61.3628 244.598 59.8704 241.232 58.4395C243.903 67.6864 246.043 77.325 247.6 87.2782C248.748 87.6004 249.881 87.9271 251 88.2581Z" fill="#F9F9F9"/>
<path d="M211.894 79.4928C213.269 89.6113 214.208 100.088 214.67 110.838C227.664 111.586 239.625 112.493 250.286 113.533C249.842 104.582 248.936 95.8146 247.6 87.2782C236.859 84.2626 224.872 81.6418 211.894 79.4928Z" fill="#F9F9F9"/>
<path d="M214.67 141.713C214.888 136.625 215 131.476 215 126.275C215 121.074 214.888 115.925 214.67 110.838C203.536 110.197 191.643 109.673 179.16 109.283C179.319 114.876 179.4 120.544 179.4 126.275C179.4 132.007 179.319 137.675 179.16 143.268C191.643 142.878 203.536 142.354 214.67 141.713Z" fill="#F9F9F9"/>
<path d="M142.993 179.435C154.753 179.101 166.18 178.424 177.161 177.437C178.148 166.456 178.826 155.028 179.16 143.268C167.792 143.623 155.934 143.868 143.713 143.988C143.592 156.209 143.348 168.067 142.993 179.435Z" fill="#F9F9F9"/>
<path d="M126 215.275C131.201 215.275 136.35 215.164 141.438 214.945C142.079 203.811 142.603 191.919 142.993 179.435C137.4 179.594 131.732 179.675 126 179.675C120.268 179.675 114.6 179.594 109.007 179.435C109.397 191.919 109.921 203.811 110.562 214.945C115.65 215.164 120.799 215.275 126 215.275Z" fill="#F9F9F9"/>
<path d="M87.0028 247.876C95.5392 249.211 104.307 250.118 113.258 250.561C112.218 239.9 111.31 227.94 110.562 214.945C99.8126 214.484 89.3358 213.544 79.2174 212.17C81.3664 225.147 83.9872 237.135 87.0028 247.876Z" fill="#F9F9F9"/>
<path d="M62.6379 251.275H87.9828C87.6517 250.157 87.325 249.023 87.0028 247.876C77.0497 246.319 67.4111 244.178 58.1642 241.508C59.595 244.874 61.0875 248.132 62.6379 251.275Z" fill="#F9F9F9"/>
<path d="M10.7677 194.111C14.2766 206.262 18.6999 217.737 23.915 228.36C34.5384 233.576 46.0131 237.999 58.1642 241.508C53.5601 230.677 49.5929 218.729 46.3786 205.897C33.546 202.682 21.5985 198.715 10.7677 194.111Z" fill="#F9F9F9"/>
<path d="M74.8386 177.437C62.6617 176.342 51.0329 174.867 40.1058 173.058C41.6606 184.504 43.7721 195.491 46.3786 205.897C56.7841 208.503 67.7715 210.615 79.2174 212.17C77.4079 201.242 75.933 189.614 74.8386 177.437Z" fill="#F9F9F9"/>
<path d="M108.287 143.988C96.0659 143.868 84.2081 143.623 72.8402 143.268C73.1743 155.028 73.8517 166.455 74.8386 177.437C85.8199 178.424 97.247 179.101 109.007 179.435C108.652 168.067 108.408 156.209 108.287 143.988Z" fill="#F9F9F9"/>
<path d="M72.8402 109.283C60.3567 109.673 48.464 110.197 37.3301 110.838C37.1115 115.925 37 121.074 37 126.275C37 131.476 37.1115 136.625 37.3301 141.713C48.464 142.354 60.3567 142.878 72.8402 143.268C72.6813 137.675 72.6 132.007 72.6 126.275C72.6 120.544 72.6813 114.876 72.8402 109.283Z" fill="#F9F9F9"/>
<path d="M1.71435 139.018C2.15752 147.968 3.06392 156.736 4.3995 165.273C15.1406 168.288 27.1284 170.909 40.1058 173.058C38.7313 162.94 37.7918 152.463 37.3301 141.713C24.3359 140.965 12.375 140.058 1.71435 139.018Z" fill="#F9F9F9"/>
<path d="M1 164.293V189.637C4.14342 191.188 7.40165 192.68 10.7677 194.111C8.09749 184.864 5.95676 175.226 4.3995 165.273C3.252 164.95 2.11873 164.624 1 164.293Z" fill="#F9F9F9"/>
<path d="M9.93503 242.34C14.1941 245.493 18.6285 248.476 23.2241 251.275H37.2931C32.4027 244.193 27.9248 236.529 23.915 228.36C15.7469 224.351 8.08206 219.873 1 214.982V229.051C3.79972 233.647 6.78217 238.081 9.93503 242.34Z" fill="#F9F9F9"/>
<path d="M1 235.258V251.275H17.0172C14.571 248.392 12.2087 245.412 9.93503 242.34C6.86366 240.067 3.88352 237.704 1 235.258Z" fill="#F9F9F9"/>
<path d="M138.742 250.561C147.693 250.118 156.461 249.211 164.997 247.876C168.013 237.135 170.634 225.147 172.783 212.17C162.664 213.544 152.187 214.484 141.438 214.945C140.69 227.94 139.782 239.9 138.742 250.561Z" fill="#F9F9F9"/>
<path d="M189.362 251.275C190.913 248.132 192.405 244.874 193.836 241.508C184.589 244.178 174.95 246.319 164.997 247.876C164.675 249.023 164.348 250.157 164.017 251.275H189.362Z" fill="#F9F9F9"/>
<path d="M228.776 251.275C233.371 248.476 237.806 245.493 242.065 242.34C245.218 238.081 248.2 233.647 251 229.051V214.982C243.918 219.873 236.253 224.351 228.085 228.36C224.075 236.529 219.597 244.193 214.707 251.275H228.776Z" fill="#F9F9F9"/>
<path d="M241.232 194.111C230.401 198.715 218.454 202.682 205.621 205.897C202.407 218.729 198.44 230.677 193.836 241.508C205.987 237.999 217.462 233.576 228.085 228.36C233.3 217.737 237.723 206.262 241.232 194.111Z" fill="#F9F9F9"/>
<path d="M211.894 173.058C200.967 174.867 189.338 176.342 177.161 177.437C176.067 189.614 174.592 201.242 172.783 212.17C184.228 210.615 195.216 208.503 205.621 205.897C208.228 195.491 210.339 184.504 211.894 173.058Z" fill="#F9F9F9"/>
<path d="M250.286 139.018C239.625 140.058 227.664 140.965 214.67 141.713C214.208 152.463 213.269 162.94 211.894 173.058C224.872 170.909 236.859 168.288 247.6 165.273C248.936 156.736 249.842 147.968 250.286 139.018Z" fill="#F9F9F9"/>
<path d="M251 189.637V164.293C249.881 164.624 248.748 164.95 247.6 165.273C246.043 175.226 243.903 184.864 241.232 194.111C244.598 192.68 247.857 191.188 251 189.637Z" fill="#F9F9F9"/>
<path d="M1 88.2581C2.11873 87.9271 3.252 87.6004 4.3995 87.2782C5.95676 77.3251 8.09749 67.6865 10.7677 58.4396C7.40165 59.8704 4.14342 61.3629 1 62.9133V88.2581Z" fill="#F9F9F9"/>
<path d="M37.3301 110.838C37.7918 100.088 38.7313 89.6113 40.1058 79.4928C27.1284 81.6418 15.1406 84.2626 4.3995 87.2782C3.06392 95.8146 2.15752 104.582 1.71435 113.533C12.375 112.493 24.3359 111.586 37.3301 110.838Z" fill="#F9F9F9"/>
<path d="M1 17.2926C3.88351 14.8463 6.86362 12.4841 9.93499 10.2104C12.2086 7.13904 14.5709 4.15891 17.0172 1.27539H1V17.2926Z" fill="#F9F9F9"/>
<path d="M234.983 1.27539H251V17.2926M234.983 1.27539C237.429 4.15891 239.791 7.13903 242.065 10.2104M234.983 1.27539H228.776M242.065 10.2104C245.136 12.4841 248.116 14.8463 251 17.2926M242.065 10.2104C245.218 14.4694 248.2 18.9039 251 23.4995M242.065 10.2104C237.806 7.05754 233.371 4.0751 228.776 1.27539M251 17.2926V23.4995M228.085 24.1904C236.253 28.2001 243.918 32.6781 251 37.5685M228.085 24.1904C224.075 16.0223 219.597 8.35745 214.707 1.27539M228.085 24.1904C233.3 34.8138 237.723 46.2885 241.232 58.4395M228.085 24.1904C217.462 18.9752 205.987 14.552 193.836 11.0431M251 37.5685V23.4995M251 37.5685V62.9133M228.776 1.27539H214.707M214.707 1.27539H189.362M205.621 46.654C218.454 49.8683 230.401 53.8355 241.232 58.4395M205.621 46.654C202.407 33.8214 198.44 21.8739 193.836 11.0431M205.621 46.654C208.228 57.0595 210.339 68.0469 211.894 79.4928M205.621 46.654C195.216 44.0475 184.228 41.936 172.783 40.3812M241.232 58.4395C244.598 59.8704 247.857 61.3628 251 62.9133M241.232 58.4395C243.903 67.6864 246.043 77.325 247.6 87.2782M193.836 11.0431C184.589 8.37289 174.95 6.23216 164.997 4.6749M193.836 11.0431C192.405 7.67704 190.913 4.41881 189.362 1.27539M177.161 75.114C189.338 76.2084 200.967 77.6833 211.894 79.4928M177.161 75.114C176.067 62.9371 174.592 51.3083 172.783 40.3812M177.161 75.114C178.148 86.0953 178.826 97.5224 179.16 109.283M177.161 75.114C166.18 74.1271 154.753 73.4497 142.993 73.1156M211.894 79.4928C224.872 81.6418 236.859 84.2626 247.6 87.2782M211.894 79.4928C213.269 89.6113 214.208 100.088 214.67 110.838M172.783 40.3812C162.664 39.0067 152.187 38.0672 141.438 37.6055M172.783 40.3812C170.634 27.4038 168.013 15.416 164.997 4.6749M143.713 108.562C155.934 108.683 167.792 108.927 179.16 109.283M143.713 108.562C143.592 96.3413 143.348 84.4835 142.993 73.1156M143.713 108.562C143.771 114.389 143.8 120.298 143.8 126.275C143.8 132.253 143.771 138.162 143.713 143.988M143.713 108.562C137.887 108.505 131.978 108.475 126 108.475C120.022 108.475 114.113 108.505 108.287 108.562M179.16 109.283C179.319 114.876 179.4 120.544 179.4 126.275C179.4 132.007 179.319 137.675 179.16 143.268M179.16 109.283C191.643 109.673 203.536 110.197 214.67 110.838M142.993 73.1156C137.4 72.9567 131.732 72.8754 126 72.8754C120.268 72.8754 114.6 72.9567 109.007 73.1156M142.993 73.1156C142.603 60.6321 142.079 48.7394 141.438 37.6055M143.713 143.988C137.887 144.046 131.978 144.075 126 144.075C120.022 144.075 114.113 144.046 108.287 143.988M143.713 143.988C155.934 143.868 167.792 143.623 179.16 143.268M143.713 143.988C143.592 156.209 143.348 168.067 142.993 179.435M108.287 108.562C108.229 114.389 108.2 120.298 108.2 126.275C108.2 132.253 108.229 138.162 108.287 143.988M108.287 108.562C96.0659 108.683 84.2081 108.927 72.8402 109.283M108.287 108.562C108.408 96.3413 108.652 84.4835 109.007 73.1156M108.287 143.988C108.408 156.209 108.652 168.067 109.007 179.435M108.287 143.988C96.0659 143.868 84.2081 143.623 72.8402 143.268M109.007 73.1156C97.247 73.4497 85.8199 74.1271 74.8386 75.114M109.007 73.1156C109.397 60.6321 109.921 48.7394 110.562 37.6055M74.8386 75.114C73.8517 86.0953 73.1743 97.5224 72.8402 109.283M74.8386 75.114C62.6617 76.2084 51.0329 77.6833 40.1058 79.4928M74.8386 75.114C75.933 62.9371 77.4079 51.3083 79.2174 40.3812M72.8402 109.283C72.6813 114.876 72.6 120.544 72.6 126.275C72.6 132.007 72.6813 137.675 72.8402 143.268M72.8402 109.283C60.3567 109.673 48.464 110.197 37.3301 110.838M79.2174 40.3812C67.7715 41.936 56.7841 44.0475 46.3786 46.654M79.2174 40.3812C81.3664 27.4038 83.9872 15.416 87.0028 4.6749M79.2174 40.3812C89.3359 39.0067 99.8126 38.0672 110.562 37.6055M46.3786 46.654C43.7721 57.0595 41.6606 68.0469 40.1058 79.4928M46.3786 46.654C33.546 49.8683 21.5985 53.8355 10.7677 58.4396M46.3786 46.654C49.5929 33.8214 53.5601 21.8739 58.1641 11.0431M40.1058 79.4928C38.7313 89.6113 37.7918 100.088 37.3301 110.838M40.1058 79.4928C27.1284 81.6418 15.1406 84.2626 4.3995 87.2782M58.1641 11.0431C46.0131 14.552 34.5384 18.9753 23.915 24.1904M58.1641 11.0431C59.595 7.67704 61.0875 4.41881 62.6379 1.27539M58.1641 11.0431C67.411 8.37289 77.0497 6.23216 87.0028 4.6749M23.915 24.1904C18.6998 34.8138 14.2766 46.2885 10.7677 58.4396M23.915 24.1904C15.7469 28.2002 8.08206 32.6781 1 37.5685M23.915 24.1904C27.9247 16.0223 32.4027 8.35745 37.2931 1.27539M10.7677 58.4396C8.09749 67.6865 5.95676 77.3251 4.3995 87.2782M10.7677 58.4396C7.40165 59.8704 4.14342 61.3629 1 62.9133M1 23.4995V37.5685M1 23.4995C3.7997 18.9039 6.78214 14.4694 9.93499 10.2104M1 23.4995V17.2926M1 37.5685V62.9133M37.2931 1.27539H23.2242M37.2931 1.27539H62.6379M23.2242 1.27539C18.6285 4.0751 14.194 7.05755 9.93499 10.2104M23.2242 1.27539H17.0172M9.93499 10.2104C6.86362 12.4841 3.88351 14.8463 1 17.2926M9.93499 10.2104C12.2086 7.13904 14.5709 4.15891 17.0172 1.27539M87.0028 4.6749C87.325 3.5274 87.6517 2.39412 87.9828 1.27539M87.0028 4.6749C95.5392 3.33932 104.307 2.43292 113.258 1.98975M87.9828 1.27539H62.6379M87.9828 1.27539H164.017M110.562 37.6055C111.31 24.6113 112.218 12.6504 113.258 1.98975M110.562 37.6055C115.65 37.3869 120.799 37.2754 126 37.2754C131.201 37.2754 136.35 37.3869 141.438 37.6055M113.258 1.98975C117.466 1.78136 121.715 1.67539 126 1.67539C130.285 1.67539 134.534 1.78136 138.742 1.98975M141.438 37.6055C140.69 24.6113 139.782 12.6504 138.742 1.98975M164.997 4.6749C156.461 3.33932 147.693 2.43292 138.742 1.98975M164.997 4.6749C164.675 3.5274 164.348 2.39412 164.017 1.27539M189.362 1.27539H164.017M251 88.2581V62.9133M251 88.2581C249.881 87.9271 248.748 87.6004 247.6 87.2782M251 88.2581V164.293M247.6 87.2782C248.936 95.8146 249.842 104.582 250.286 113.533M214.67 110.838C227.664 111.586 239.625 112.493 250.286 113.533M214.67 110.838C214.888 115.925 215 121.074 215 126.275C215 131.476 214.888 136.625 214.67 141.713M250.286 113.533C250.494 117.742 250.6 121.991 250.6 126.275C250.6 130.56 250.494 134.809 250.286 139.018M214.67 141.713C203.536 142.354 191.643 142.878 179.16 143.268M214.67 141.713C214.208 152.463 213.269 162.94 211.894 173.058M214.67 141.713C227.664 140.965 239.625 140.058 250.286 139.018M179.16 143.268C178.826 155.028 178.148 166.456 177.161 177.437M142.993 179.435C154.753 179.101 166.18 178.424 177.161 177.437M142.993 179.435C137.4 179.594 131.732 179.675 126 179.675C120.268 179.675 114.6 179.594 109.007 179.435M142.993 179.435C142.603 191.919 142.079 203.811 141.438 214.945M177.161 177.437C176.067 189.614 174.592 201.242 172.783 212.17M177.161 177.437C189.338 176.342 200.967 174.867 211.894 173.058M141.438 214.945C136.35 215.164 131.201 215.275 126 215.275C120.799 215.275 115.65 215.164 110.562 214.945M141.438 214.945C152.187 214.484 162.664 213.544 172.783 212.17M141.438 214.945C140.69 227.94 139.782 239.9 138.742 250.561M109.007 179.435C109.397 191.919 109.921 203.811 110.562 214.945M109.007 179.435C97.247 179.101 85.8199 178.424 74.8386 177.437M110.562 214.945C111.31 227.94 112.218 239.9 113.258 250.561M110.562 214.945C99.8126 214.484 89.3358 213.544 79.2174 212.17M87.0028 247.876C95.5392 249.211 104.307 250.118 113.258 250.561M87.0028 247.876C83.9872 237.135 81.3664 225.147 79.2174 212.17M87.0028 247.876C87.325 249.023 87.6517 250.157 87.9828 251.275M87.0028 247.876C77.0497 246.319 67.4111 244.178 58.1642 241.508M113.258 250.561C117.466 250.769 121.715 250.875 126 250.875C130.285 250.875 134.534 250.769 138.742 250.561M79.2174 212.17C67.7715 210.615 56.7841 208.503 46.3786 205.897M79.2174 212.17C77.4079 201.242 75.933 189.614 74.8386 177.437M62.6379 251.275H87.9828M62.6379 251.275C61.0875 248.132 59.595 244.874 58.1642 241.508M62.6379 251.275H37.2931M87.9828 251.275H164.017M58.1642 241.508C46.0131 237.999 34.5384 233.576 23.915 228.36M58.1642 241.508C53.5601 230.677 49.5929 218.729 46.3786 205.897M10.7677 194.111C14.2766 206.262 18.6999 217.737 23.915 228.36M10.7677 194.111C21.5985 198.715 33.546 202.682 46.3786 205.897M10.7677 194.111C8.09749 184.864 5.95676 175.226 4.3995 165.273M10.7677 194.111C7.40165 192.68 4.14342 191.188 1 189.637M23.915 228.36C27.9248 236.529 32.4027 244.193 37.2931 251.275M23.915 228.36C15.7469 224.351 8.08206 219.873 1 214.982M46.3786 205.897C43.7721 195.491 41.6606 184.504 40.1058 173.058M74.8386 177.437C62.6617 176.342 51.0329 174.867 40.1058 173.058M74.8386 177.437C73.8517 166.455 73.1743 155.028 72.8402 143.268M40.1058 173.058C38.7313 162.94 37.7918 152.463 37.3301 141.713M40.1058 173.058C27.1284 170.909 15.1406 168.288 4.3995 165.273M72.8402 143.268C60.3567 142.878 48.464 142.354 37.3301 141.713M37.3301 110.838C37.1115 115.925 37 121.074 37 126.275C37 131.476 37.1115 136.625 37.3301 141.713M37.3301 110.838C24.3359 111.586 12.375 112.493 1.71435 113.533M37.3301 141.713C24.3359 140.965 12.375 140.058 1.71435 139.018M1.71435 139.018C2.15752 147.968 3.06392 156.736 4.3995 165.273M1.71435 139.018C1.50596 134.809 1.39999 130.56 1.39999 126.275C1.39999 121.991 1.50596 117.742 1.71435 113.533M4.3995 165.273C3.252 164.95 2.11873 164.624 1 164.293M1 164.293V189.637M1 164.293V88.2581M1 189.637V214.982M9.93503 242.34C14.1941 245.493 18.6285 248.476 23.2241 251.275M9.93503 242.34C6.78217 238.081 3.79972 233.647 1 229.051M9.93503 242.34C12.2087 245.412 14.571 248.392 17.0172 251.275M9.93503 242.34C6.86366 240.067 3.88352 237.704 1 235.258M23.2241 251.275H37.2931M23.2241 251.275H17.0172M1 214.982V229.051M1 229.051V235.258M1 235.258V251.275H17.0172M138.742 250.561C147.693 250.118 156.461 249.211 164.997 247.876M164.997 247.876C168.013 237.135 170.634 225.147 172.783 212.17M164.997 247.876C174.95 246.319 184.589 244.178 193.836 241.508M164.997 247.876C164.675 249.023 164.348 250.157 164.017 251.275M172.783 212.17C184.228 210.615 195.216 208.503 205.621 205.897M189.362 251.275C190.913 248.132 192.405 244.874 193.836 241.508M189.362 251.275H164.017M189.362 251.275H214.707M193.836 241.508C205.987 237.999 217.462 233.576 228.085 228.36M193.836 241.508C198.44 230.677 202.407 218.729 205.621 205.897M228.776 251.275C233.371 248.476 237.806 245.493 242.065 242.34C245.218 238.081 248.2 233.647 251 229.051M228.776 251.275H214.707M228.776 251.275H251V229.051M251 229.051V214.982M251 214.982C243.918 219.873 236.253 224.351 228.085 228.36M251 214.982V189.637M228.085 228.36C224.075 236.529 219.597 244.193 214.707 251.275M228.085 228.36C233.3 217.737 237.723 206.262 241.232 194.111M241.232 194.111C230.401 198.715 218.454 202.682 205.621 205.897M241.232 194.111C243.903 184.864 246.043 175.226 247.6 165.273M241.232 194.111C244.598 192.68 247.857 191.188 251 189.637M205.621 205.897C208.228 195.491 210.339 184.504 211.894 173.058M211.894 173.058C224.872 170.909 236.859 168.288 247.6 165.273M250.286 139.018C249.842 147.968 248.936 156.736 247.6 165.273M247.6 165.273C248.748 164.95 249.881 164.624 251 164.293M251 189.637V164.293M1 88.2581C2.11873 87.9271 3.252 87.6004 4.3995 87.2782M1 88.2581V62.9133M4.3995 87.2782C3.06392 95.8146 2.15752 104.582 1.71435 113.533M1 17.2926V1.27539H17.0172" stroke="black" stroke-width="2" stroke-linejoin="round"/>
</svg>
