<svg width="252" height="253" viewBox="0 0 252 253" fill="none" xmlns="http://www.w3.org/2000/svg">
<rect x="1" y="1.27539" width="250" height="250" fill="#F9F9F9"/>
<path d="M36.7946 74.7824C53.0735 32.2868 95.6806 2.95473 141.355 4.38036C186.24 5.31335 226.182 27.5276 251 61.2233V1.27539H10.3119C7.01229 5.45385 3.90335 9.78156 1 14.2428V191.48C30.2845 231.148 81.5056 253.565 130.494 245.721C184.467 237.141 225.057 189.259 223.596 134.556C222.775 83.7203 178.323 42.8893 127.486 47.8662C96.2702 50.7089 69.3866 75.7043 64.661 106.633C61.6103 124.167 66.1052 142.632 77.9576 156C86.6909 165.835 98.7142 172.57 111.703 174.465C116.514 175.208 121.539 175.285 126.367 174.738C126.948 174.623 127.553 174.525 128.161 174.427C129.225 174.254 130.303 174.079 131.298 173.808L134.511 172.894C143.911 169.864 152.396 163.641 157.942 155.471C164.77 145.654 167.538 132.934 164.821 121.239C160.565 102.638 140.723 89.8155 122.154 94.6301C112.515 97.1143 104.628 104.806 101.85 114.299C98.2015 126.412 103.346 139.234 115.352 144.049C123.581 147.327 133.554 145.389 138.792 137.903C144.09 130.792 143.329 119.822 135.57 114.888C130.364 111.324 122.455 111.713 118.427 116.827C118.25 117.018 118.078 117.214 117.911 117.415C116.093 119.619 115 122.445 115 125.525C115 132.426 120.482 138.046 127.329 138.269C121.633 139.495 115.016 136.678 111.883 131.534C108.909 126.933 109.046 121.051 111.173 116.168C116.523 104.089 130.605 101.895 141.091 108.741C147.406 112.839 151.439 119.839 151.635 127.24C151.704 128.49 151.585 129.824 151.469 131.119C151.441 131.434 151.413 131.746 151.388 132.055C151.369 132.15 151.333 132.33 151.287 132.554C151.146 133.251 150.918 134.378 150.866 134.727C149.867 138.901 147.961 142.914 145.269 146.251C140.954 151.817 134.519 155.625 127.606 156.854C123.06 157.648 118.326 157.178 113.857 156.171C105.892 154.148 98.6116 149.367 93.6212 142.922C79.0599 124.159 87.4429 95.8509 106.234 83.3703C117.975 75.1494 133.152 73.8775 146.662 77.7958C186.834 89.824 198.549 132.721 178.707 167.32C164.838 191.692 137.732 205.641 109.832 202.517C68.8397 198.991 34.0174 165.929 29.6422 125.012C27.8904 108.101 30.6335 90.6179 36.7946 74.7824Z" fill="#F9F9F9"/>
<path d="M251 61.2233V251.275H1V191.48M251 61.2233V1.27539H10.3119M251 61.2233C226.182 27.5276 186.24 5.31335 141.355 4.38036C95.6806 2.95473 53.0735 32.2868 36.7946 74.7824C30.6335 90.6179 27.8904 108.101 29.6422 125.012C34.0174 165.929 68.8397 198.991 109.832 202.517C137.732 205.641 164.838 191.692 178.707 167.32C198.549 132.721 186.834 89.824 146.662 77.7958C133.152 73.8775 117.975 75.1494 106.234 83.3703C87.4429 95.8509 79.0599 124.159 93.6212 142.922C98.6117 149.367 105.892 154.148 113.857 156.171C118.326 157.178 123.06 157.648 127.606 156.854C134.519 155.625 140.954 151.817 145.269 146.251C147.961 142.914 149.867 138.901 150.866 134.727C150.918 134.378 151.146 133.251 151.287 132.554C151.333 132.33 151.369 132.15 151.388 132.055C151.413 131.746 151.441 131.434 151.469 131.119C151.585 129.824 151.704 128.49 151.635 127.24C151.439 119.839 147.406 112.839 141.091 108.741C130.605 101.895 116.523 104.089 111.173 116.168C109.046 121.051 108.909 126.933 111.883 131.534C115.016 136.678 121.633 139.495 127.329 138.269C120.482 138.046 115 132.426 115 125.525C115 122.445 116.093 119.619 117.911 117.415C118.078 117.214 118.25 117.018 118.427 116.827C122.455 111.713 130.364 111.324 135.57 114.888C143.329 119.822 144.09 130.792 138.792 137.903C133.554 145.389 123.581 147.327 115.352 144.049C103.346 139.234 98.2015 126.412 101.85 114.299C104.628 104.806 112.515 97.1143 122.154 94.6301C140.723 89.8155 160.565 102.638 164.821 121.239C167.538 132.934 164.77 145.654 157.942 155.471C152.396 163.641 143.911 169.864 134.511 172.894L131.298 173.808C130.303 174.079 129.225 174.254 128.161 174.427C127.553 174.525 126.948 174.623 126.367 174.738C121.539 175.285 116.514 175.208 111.703 174.465C98.7142 172.57 86.6909 165.835 77.9576 156C66.1052 142.632 61.6103 124.167 64.661 106.633C69.3866 75.7043 96.2702 50.7089 127.486 47.8662C178.323 42.8893 222.776 83.7203 223.596 134.556C225.057 189.259 184.467 237.141 130.494 245.721C81.5056 253.565 30.2845 231.148 1 191.48M10.3119 1.27539H1V14.2428M10.3119 1.27539C7.01229 5.45385 3.90335 9.78156 1 14.2428M1 14.2428V191.48" stroke="black" stroke-width="2" stroke-linejoin="round"/>
</svg>
