<svg width="252" height="253" viewBox="0 0 252 253" fill="none" xmlns="http://www.w3.org/2000/svg">
<rect width="250" height="250" transform="translate(1 1.27539)" fill="#F9F9F9"/>
<path fill-rule="evenodd" clip-rule="evenodd" d="M1 126.275V63.7754L63.5 1.27539H126L1 126.275ZM1 251.275V188.775L188.5 1.27539H251L1 251.275ZM63.5 251.275H126L251 126.275V63.7754L63.5 251.275ZM251 251.275H188.5L251 188.775V251.275Z" fill="#F9F9F9"/>
<path d="M251 1.27539H188.5M251 1.27539L1 251.275M251 1.27539V63.7754M1 251.275V188.775M1 251.275H63.5M1 126.275L126 1.27539M1 126.275V63.7754M1 126.275V188.775M126 1.27539H63.5M126 1.27539H188.5M1 63.7754V1.27539H63.5M1 63.7754L63.5 1.27539M188.5 1.27539L1 188.775M251 126.275L126 251.275M251 126.275V63.7754M251 126.275V188.775M126 251.275H63.5M126 251.275H188.5M63.5 251.275L251 63.7754M251 188.775V251.275H188.5M251 188.775L188.5 251.275" stroke="black" stroke-width="2" stroke-linejoin="round"/>
</svg>
