<svg width="252" height="253" viewBox="0 0 252 253" fill="none" xmlns="http://www.w3.org/2000/svg">
<rect x="1" y="1.27539" width="250" height="250" fill="#F9F9F9"/>
<path d="M156.267 126.025C156.267 142.88 142.604 156.543 125.75 156.543C108.896 156.543 95.2328 142.88 95.2328 126.025C95.2328 109.171 108.896 95.5082 125.75 95.5082C142.604 95.5082 156.267 109.171 156.267 126.025Z" fill="#F9F9F9"/>
<path fill-rule="evenodd" clip-rule="evenodd" d="M193.825 126.025C193.825 163.622 163.347 194.101 125.75 194.101C88.153 194.101 57.6746 163.622 57.6746 126.025C57.6746 88.4284 88.153 57.95 125.75 57.95C163.347 57.95 193.825 88.4284 193.825 126.025ZM125.75 156.543C142.604 156.543 156.267 142.88 156.267 126.025C156.267 109.171 142.604 95.5082 125.75 95.5082C108.896 95.5082 95.2328 109.171 95.2328 126.025C95.2328 142.88 108.896 156.543 125.75 156.543Z" fill="#F9F9F9"/>
<path fill-rule="evenodd" clip-rule="evenodd" d="M196.096 1.27539H55.4041C32.6923 14.11 13.8346 32.9677 1 55.6795V196.371C14.0023 219.38 33.1861 238.433 56.2963 251.275H195.204C218.612 238.267 237.992 218.887 251 195.479V56.5717C238.157 33.4615 219.104 14.2777 196.096 1.27539ZM125.75 231.659C184.09 231.659 231.384 184.365 231.384 126.025C231.384 67.6856 184.09 20.3918 125.75 20.3918C67.4102 20.3918 20.1164 67.6856 20.1164 126.025C20.1164 184.365 67.4102 231.659 125.75 231.659Z" fill="#F9F9F9"/>
<path fill-rule="evenodd" clip-rule="evenodd" d="M231.384 126.025C231.384 184.365 184.09 231.659 125.75 231.659C67.4102 231.659 20.1164 184.365 20.1164 126.025C20.1164 67.6856 67.4102 20.3918 125.75 20.3918C184.09 20.3918 231.384 67.6856 231.384 126.025ZM125.75 194.101C163.347 194.101 193.825 163.622 193.825 126.025C193.825 88.4284 163.347 57.95 125.75 57.95C88.153 57.95 57.6746 88.4284 57.6746 126.025C57.6746 163.622 88.153 194.101 125.75 194.101Z" fill="#F9F9F9"/>
<path d="M196.096 1.27539C219.104 14.2777 238.157 33.4615 251 56.5717V23.3193V1.27539H229.062H196.096Z" fill="#F9F9F9"/>
<path d="M251 195.479C237.992 218.887 218.612 238.267 195.204 251.275H228.456H251V228.732V195.479Z" fill="#F9F9F9"/>
<path d="M56.2963 251.275C33.1861 238.433 14.0023 219.38 1 196.371V229.338V251.275H23.0439H56.2963Z" fill="#F9F9F9"/>
<path d="M1 55.6795C13.8346 32.9677 32.6923 14.11 55.4041 1.27539H22.4378H1V22.7132V55.6795Z" fill="#F9F9F9"/>
<path d="M196.096 1.27539H55.4041M196.096 1.27539C219.104 14.2777 238.157 33.4615 251 56.5717M196.096 1.27539H229.062H251V23.3193V56.5717M55.4041 1.27539C32.6923 14.11 13.8346 32.9677 1 55.6795M55.4041 1.27539H22.4378H1V22.7132V55.6795M1 55.6795V196.371M1 196.371C14.0023 219.38 33.1861 238.433 56.2963 251.275M1 196.371V229.338V251.275H23.0439H56.2963M56.2963 251.275H195.204M195.204 251.275C218.612 238.267 237.992 218.887 251 195.479M195.204 251.275H228.456H251V228.732V195.479M251 195.479V56.5717M156.267 126.025C156.267 142.88 142.604 156.543 125.75 156.543C108.896 156.543 95.2328 142.88 95.2328 126.025C95.2328 109.171 108.896 95.5082 125.75 95.5082C142.604 95.5082 156.267 109.171 156.267 126.025ZM193.825 126.025C193.825 163.622 163.347 194.101 125.75 194.101C88.153 194.101 57.6746 163.622 57.6746 126.025C57.6746 88.4284 88.153 57.95 125.75 57.95C163.347 57.95 193.825 88.4284 193.825 126.025ZM231.384 126.025C231.384 184.365 184.09 231.659 125.75 231.659C67.4102 231.659 20.1164 184.365 20.1164 126.025C20.1164 67.6856 67.4102 20.3918 125.75 20.3918C184.09 20.3918 231.384 67.6856 231.384 126.025Z" stroke="black" stroke-width="2" stroke-linejoin="round"/>
<path fill-rule="evenodd" clip-rule="evenodd" d="M193.825 126.025C193.825 163.622 163.347 194.101 125.75 194.101C88.153 194.101 57.6746 163.622 57.6746 126.025C57.6746 88.4284 88.153 57.95 125.75 57.95C163.347 57.95 193.825 88.4284 193.825 126.025ZM125.75 156.543C142.604 156.543 156.267 142.88 156.267 126.025C156.267 109.171 142.604 95.5082 125.75 95.5082C108.896 95.5082 95.2328 109.171 95.2328 126.025C95.2328 142.88 108.896 156.543 125.75 156.543Z" fill="#F9F9F9"/>
<path fill-rule="evenodd" clip-rule="evenodd" d="M196.096 1.27539H55.4041C32.6923 14.11 13.8346 32.9677 1 55.6795V196.371C14.0023 219.38 33.1861 238.433 56.2963 251.275H195.204C218.612 238.267 237.992 218.887 251 195.479V56.5717C238.157 33.4615 219.104 14.2777 196.096 1.27539ZM125.75 231.659C184.09 231.659 231.384 184.365 231.384 126.025C231.384 67.6856 184.09 20.3918 125.75 20.3918C67.4102 20.3918 20.1164 67.6856 20.1164 126.025C20.1164 184.365 67.4102 231.659 125.75 231.659Z" fill="#F9F9F9"/>
<path d="M196.096 1.27539H55.4041M196.096 1.27539C219.104 14.2777 238.157 33.4615 251 56.5717M196.096 1.27539H229.062H251V23.3193V56.5717M55.4041 1.27539C32.6923 14.11 13.8346 32.9677 1 55.6795M55.4041 1.27539H22.4378H1V22.7132V55.6795M1 55.6795V196.371M1 196.371C14.0023 219.38 33.1861 238.433 56.2963 251.275M1 196.371V229.338V251.275H23.0439H56.2963M56.2963 251.275H195.204M195.204 251.275C218.612 238.267 237.992 218.887 251 195.479M195.204 251.275H228.456H251V228.732V195.479M251 195.479V56.5717M156.267 126.025C156.267 142.88 142.604 156.543 125.75 156.543C108.896 156.543 95.2328 142.88 95.2328 126.025C95.2328 109.171 108.896 95.5082 125.75 95.5082C142.604 95.5082 156.267 109.171 156.267 126.025ZM193.825 126.025C193.825 163.622 163.347 194.101 125.75 194.101C88.153 194.101 57.6746 163.622 57.6746 126.025C57.6746 88.4284 88.153 57.95 125.75 57.95C163.347 57.95 193.825 88.4284 193.825 126.025ZM231.384 126.025C231.384 184.365 184.09 231.659 125.75 231.659C67.4102 231.659 20.1164 184.365 20.1164 126.025C20.1164 67.6856 67.4102 20.3918 125.75 20.3918C184.09 20.3918 231.384 67.6856 231.384 126.025Z" stroke="black" stroke-width="2" stroke-linejoin="round"/>
</svg>
