<svg width="253" height="252" viewBox="0 0 253 252" fill="none" xmlns="http://www.w3.org/2000/svg">
<rect x="2" y="1.27539" width="250" height="250" fill="#F9F9F9"/>
<path d="M135.866 250.775H178.976C195.973 206.734 175.334 151.5 127.251 126.275C158.737 164.06 160.059 215.978 135.866 250.775Z" fill="#F9F9F9"/>
<path d="M127.251 126.275C182.156 131.233 222.732 175.634 222.646 223.658C222.631 232.908 221.112 242.034 218.267 250.775H251.501V177.126C232.217 134.283 178.856 110.132 127.251 126.275Z" fill="#F9F9F9"/>
<path d="M251.501 117.553V74.4301C207.533 57.4384 152.436 78.1436 127.251 126.275C164.955 94.7269 216.712 93.3897 251.501 117.553Z" fill="#F9F9F9"/>
<path d="M127.251 126.275C132.192 71.2984 176.551 30.6318 224.5 30.7177C233.71 30.7359 242.796 32.2487 251.501 35.0811V1.41877C251.382 1.37074 251.262 1.32295 251.142 1.27539H179.242C135.691 20.1045 110.973 74.1143 127.251 126.275Z" fill="#F9F9F9"/>
<path d="M118.913 1.27539H75.6461C58.2991 45.3987 78.9858 100.955 127.251 126.275C95.566 88.3092 94.3579 36.0745 118.913 1.27539Z" fill="#F9F9F9"/>
<path d="M2.00111 134.319V177.761C46.1269 195.397 101.892 174.742 127.251 126.275C89.1976 158.117 36.7542 159.182 2.00111 134.319Z" fill="#F9F9F9"/>
<path d="M127.251 126.275C122.3 181.242 77.9512 221.919 29.9911 221.833C20.4323 221.814 11.0067 220.184 2.00111 217.139V250.763L2.03091 250.775H76.2969C119.153 231.498 143.377 177.983 127.251 126.275Z" fill="#F9F9F9"/>
<path d="M127.251 126.275C72.3568 121.317 31.6951 76.9163 31.7916 28.8933C31.8075 19.466 33.3847 10.1687 36.3356 1.27539H2.75774H2.00111V3.18903V73.1854C20.3609 117.42 74.7766 142.694 127.251 126.275Z" fill="#F9F9F9"/>
<path d="M224.5 30.7177C176.551 30.6318 132.192 71.2984 127.251 126.275C152.436 78.1436 207.533 57.4384 251.501 74.4301V35.0811C242.796 32.2487 233.71 30.7359 224.5 30.7177Z" fill="#F9F9F9"/>
<path d="M179.242 1.27539H118.913C94.3579 36.0745 95.566 88.3092 127.251 126.275C110.973 74.1143 135.691 20.1045 179.242 1.27539Z" fill="#F9F9F9"/>
<path d="M31.7916 28.8933C31.6951 76.9163 72.3568 121.317 127.251 126.275C78.9858 100.955 58.2991 45.3987 75.6461 1.27539H36.3356C33.3847 10.1687 31.8075 19.466 31.7916 28.8933Z" fill="#F9F9F9"/>
<path d="M2.00111 73.1854V134.319C36.7542 159.182 89.1976 158.117 127.251 126.275C74.7766 142.694 20.3609 117.42 2.00111 73.1854Z" fill="#F9F9F9"/>
<path d="M29.9911 221.833C77.9512 221.919 122.3 181.242 127.251 126.275C101.892 174.742 46.1269 195.397 2.00111 177.761V217.139C11.0067 220.184 20.4323 221.814 29.9911 221.833Z" fill="#F9F9F9"/>
<path d="M76.2969 250.775H135.866C160.059 215.978 158.737 164.06 127.251 126.275C143.377 177.983 119.153 231.498 76.2969 250.775Z" fill="#F9F9F9"/>
<path d="M222.646 223.658C222.732 175.634 182.156 131.233 127.251 126.275C175.334 151.5 195.973 206.734 178.976 250.775H218.267C221.112 242.034 222.631 232.908 222.646 223.658Z" fill="#F9F9F9"/>
<path d="M251.501 177.126V117.553C216.712 93.3897 164.955 94.7269 127.251 126.275C178.856 110.132 232.217 134.283 251.501 177.126Z" fill="#F9F9F9"/>
<path d="M127.251 126.275C182.156 131.233 222.732 175.634 222.646 223.658C222.631 232.908 221.112 242.034 218.267 250.775M127.251 126.275C122.3 181.242 77.9512 221.919 29.9911 221.833C20.4323 221.814 11.0067 220.184 2.00111 217.139M127.251 126.275C72.3568 121.317 31.6951 76.9163 31.7916 28.8933C31.8075 19.466 33.3847 10.1687 36.3356 1.27539M127.251 126.275C132.192 71.2984 176.551 30.6318 224.5 30.7177C233.71 30.7359 242.796 32.2487 251.501 35.0811M127.251 126.275C78.9858 100.955 58.2991 45.3987 75.6461 1.27539M127.251 126.275C152.436 78.1436 207.533 57.4384 251.501 74.4301M127.251 126.275C164.955 94.7269 216.712 93.3897 251.501 117.553M127.251 126.275C95.566 88.3092 94.3579 36.0745 118.913 1.27539M127.251 126.275C175.334 151.5 195.973 206.734 178.976 250.775M127.251 126.275C158.737 164.06 160.059 215.978 135.866 250.775M127.251 126.275C89.1976 158.117 36.7542 159.182 2.00111 134.319M127.251 126.275C74.7766 142.694 20.3609 117.42 2.00111 73.1854M127.251 126.275C101.892 174.741 46.1269 195.397 2.00111 177.761M127.251 126.275C110.973 74.1143 135.691 20.1045 179.242 1.27539M127.251 126.275C143.377 177.983 119.153 231.498 76.2969 250.775M127.251 126.275C178.856 110.132 232.217 134.283 251.501 177.126M0.839844 177.287C1.22602 177.448 1.61312 177.606 2.00111 177.761M36.3356 1.27539H2.75774H2.00111V3.18903V73.1854M36.3356 1.27539H75.6461M2.00111 73.1854V134.319M2.00111 134.319V177.761M2.00111 177.761V217.139M2.00111 217.139V250.763M2.00111 250.763C2.01104 250.767 2.02097 250.771 2.03091 250.775M2.00111 250.763V250.775H2.03091M2.00111 250.763L2.03091 250.775M2.03091 250.775H76.2969M76.2969 250.775H135.866M135.866 250.775H178.976M178.976 250.775H218.267M218.267 250.775H251.501V177.126M251.501 177.126V117.553M251.501 117.553V74.4301M251.501 74.4301V35.0811M251.501 35.0811V1.41877M251.501 1.41877C251.382 1.37074 251.262 1.32295 251.142 1.27539M251.501 1.41877V1.27539H251.142M251.142 1.27539H179.242M179.242 1.27539H118.913M118.913 1.27539H75.6461" stroke="black" stroke-width="2" stroke-linejoin="round"/>
<path d="M135.866 250.775H178.976C195.973 206.734 175.334 151.5 127.251 126.275C158.737 164.06 160.059 215.978 135.866 250.775Z" fill="#F9F9F9"/>
<path d="M127.251 126.275C182.156 131.233 222.732 175.634 222.646 223.658C222.631 232.908 221.112 242.034 218.267 250.775H251.501V177.126C232.217 134.283 178.856 110.132 127.251 126.275Z" fill="#F9F9F9"/>
<path d="M251.501 117.553V74.4301C207.533 57.4384 152.436 78.1436 127.251 126.275C164.955 94.7269 216.712 93.3897 251.501 117.553Z" fill="#F9F9F9"/>
<path d="M127.251 126.275C132.192 71.2984 176.551 30.6318 224.5 30.7177C233.71 30.7359 242.796 32.2487 251.501 35.0811V1.41877C251.382 1.37074 251.262 1.32295 251.142 1.27539H179.242C135.691 20.1045 110.973 74.1143 127.251 126.275Z" fill="#F9F9F9"/>
<path d="M118.913 1.27539H75.6461C58.2991 45.3987 78.9858 100.955 127.251 126.275C95.566 88.3092 94.3579 36.0745 118.913 1.27539Z" fill="#F9F9F9"/>
<path d="M2.00111 134.319V177.761C46.1269 195.397 101.892 174.742 127.251 126.275C89.1976 158.117 36.7542 159.182 2.00111 134.319Z" fill="#F9F9F9"/>
<path d="M127.251 126.275C122.3 181.242 77.9512 221.919 29.9911 221.833C20.4323 221.814 11.0067 220.184 2.00111 217.139V250.763L2.03091 250.775H76.2969C119.153 231.498 143.377 177.983 127.251 126.275Z" fill="#F9F9F9"/>
<path d="M127.251 126.275C72.3568 121.317 31.6951 76.9163 31.7916 28.8933C31.8075 19.466 33.3847 10.1687 36.3356 1.27539H2.75774H2.00111V3.18903V73.1854C20.3609 117.42 74.7766 142.694 127.251 126.275Z" fill="#F9F9F9"/>
<path d="M127.251 126.275C182.156 131.233 222.732 175.634 222.646 223.658C222.631 232.908 221.112 242.034 218.267 250.775M127.251 126.275C122.3 181.242 77.9512 221.919 29.9911 221.833C20.4323 221.814 11.0067 220.184 2.00111 217.139M127.251 126.275C72.3568 121.317 31.6951 76.9163 31.7916 28.8933C31.8075 19.466 33.3847 10.1687 36.3356 1.27539M127.251 126.275C132.192 71.2984 176.551 30.6318 224.5 30.7177C233.71 30.7359 242.796 32.2487 251.501 35.0811M127.251 126.275C78.9858 100.955 58.2991 45.3987 75.6461 1.27539M127.251 126.275C152.436 78.1436 207.533 57.4384 251.501 74.4301M127.251 126.275C164.955 94.7269 216.712 93.3897 251.501 117.553M127.251 126.275C95.566 88.3092 94.3579 36.0745 118.913 1.27539M127.251 126.275C175.334 151.5 195.973 206.734 178.976 250.775M127.251 126.275C158.737 164.06 160.059 215.978 135.866 250.775M127.251 126.275C89.1976 158.117 36.7542 159.182 2.00111 134.319M127.251 126.275C74.7766 142.694 20.3609 117.42 2.00111 73.1854M127.251 126.275C101.892 174.741 46.1269 195.397 2.00111 177.761M127.251 126.275C110.973 74.1143 135.691 20.1045 179.242 1.27539M127.251 126.275C143.377 177.983 119.153 231.498 76.2969 250.775M127.251 126.275C178.856 110.132 232.217 134.283 251.501 177.126M0.839844 177.287C1.22602 177.448 1.61312 177.606 2.00111 177.761M36.3356 1.27539H2.75774H2.00111V3.18903V73.1854M36.3356 1.27539H75.6461M2.00111 73.1854V134.319M2.00111 134.319V177.761M2.00111 177.761V217.139M2.00111 217.139V250.763M2.00111 250.763C2.01104 250.767 2.02097 250.771 2.03091 250.775M2.00111 250.763V250.775H2.03091M2.00111 250.763L2.03091 250.775M2.03091 250.775H76.2969M76.2969 250.775H135.866M135.866 250.775H178.976M178.976 250.775H218.267M218.267 250.775H251.501V177.126M251.501 177.126V117.553M251.501 117.553V74.4301M251.501 74.4301V35.0811M251.501 35.0811V1.41877M251.501 1.41877C251.382 1.37074 251.262 1.32295 251.142 1.27539M251.501 1.41877V1.27539H251.142M251.142 1.27539H179.242M179.242 1.27539H118.913M118.913 1.27539H75.6461" stroke="black" stroke-width="2" stroke-linejoin="round"/>
</svg>
