<svg width="252" height="253" viewBox="0 0 252 253" fill="none" xmlns="http://www.w3.org/2000/svg">
<rect x="1" y="1.27539" width="250" height="250" fill="#F9F9F9"/>
<path d="M137.488 126.025C137.488 132.508 132.233 137.763 125.75 137.763C119.267 137.763 114.012 132.508 114.012 126.025C114.012 119.543 119.267 114.287 125.75 114.287C132.233 114.287 137.488 119.543 137.488 126.025Z" fill="#F9F9F9"/>
<path fill-rule="evenodd" clip-rule="evenodd" d="M156.267 126.025C156.267 142.88 142.604 156.543 125.75 156.543C108.896 156.543 95.2328 142.88 95.2328 126.025C95.2328 109.171 108.896 95.5082 125.75 95.5082C142.604 95.5082 156.267 109.171 156.267 126.025ZM125.75 137.763C132.233 137.763 137.488 132.508 137.488 126.025C137.488 119.543 132.233 114.287 125.75 114.287C119.267 114.287 114.012 119.543 114.012 126.025C114.012 132.508 119.267 137.763 125.75 137.763Z" fill="#F9F9F9"/>
<path fill-rule="evenodd" clip-rule="evenodd" d="M175.046 126.025C175.046 153.251 152.976 175.322 125.75 175.322C98.5244 175.322 76.4537 153.251 76.4537 126.025C76.4537 98.7998 98.5244 76.7291 125.75 76.7291C152.976 76.7291 175.046 98.7998 175.046 126.025ZM125.75 156.543C142.604 156.543 156.267 142.88 156.267 126.025C156.267 109.171 142.604 95.5082 125.75 95.5082C108.896 95.5082 95.2328 109.171 95.2328 126.025C95.2328 142.88 108.896 156.543 125.75 156.543Z" fill="#F9F9F9"/>
<path fill-rule="evenodd" clip-rule="evenodd" d="M193.825 126.025C193.825 163.622 163.347 194.101 125.75 194.101C88.153 194.101 57.6746 163.622 57.6746 126.025C57.6746 88.4284 88.153 57.95 125.75 57.95C163.347 57.95 193.825 88.4284 193.825 126.025ZM125.75 175.322C152.976 175.322 175.046 153.251 175.046 126.025C175.046 98.7998 152.976 76.7291 125.75 76.7291C98.5244 76.7291 76.4537 98.7998 76.4537 126.025C76.4537 153.251 98.5244 175.322 125.75 175.322Z" fill="#F9F9F9"/>
<path fill-rule="evenodd" clip-rule="evenodd" d="M212.604 126.025C212.604 173.994 173.718 212.88 125.75 212.88C77.7816 212.88 38.8955 173.994 38.8955 126.025C38.8955 78.057 77.7816 39.1709 125.75 39.1709C173.718 39.1709 212.604 78.057 212.604 126.025ZM125.75 194.101C163.347 194.101 193.825 163.622 193.825 126.025C193.825 88.4284 163.347 57.95 125.75 57.95C88.153 57.95 57.6746 88.4284 57.6746 126.025C57.6746 163.622 88.153 194.101 125.75 194.101Z" fill="#F9F9F9"/>
<path fill-rule="evenodd" clip-rule="evenodd" d="M231.384 126.025C231.384 184.365 184.09 231.659 125.75 231.659C67.4102 231.659 20.1164 184.365 20.1164 126.025C20.1164 67.6856 67.4102 20.3918 125.75 20.3918C184.09 20.3918 231.384 67.6856 231.384 126.025ZM125.75 212.88C173.718 212.88 212.604 173.994 212.604 126.025C212.604 78.057 173.718 39.1709 125.75 39.1709C77.7816 39.1709 38.8955 78.057 38.8955 126.025C38.8955 173.994 77.7816 212.88 125.75 212.88Z" fill="#F9F9F9"/>
<path fill-rule="evenodd" clip-rule="evenodd" d="M250.163 126.025C250.163 194.737 194.461 250.438 125.75 250.438C57.0388 250.438 1.33731 194.737 1.33731 126.025C1.33731 57.3141 57.0388 1.6127 125.75 1.6127C194.461 1.6127 250.163 57.3141 250.163 126.025ZM125.75 231.659C184.09 231.659 231.384 184.365 231.384 126.025C231.384 67.6856 184.09 20.3918 125.75 20.3918C67.4102 20.3918 20.1164 67.6856 20.1164 126.025C20.1164 184.365 67.4102 231.659 125.75 231.659Z" fill="#F9F9F9"/>
<path fill-rule="evenodd" clip-rule="evenodd" d="M196.096 1.27539H55.4041C32.6923 14.11 13.8346 32.9677 1 55.6795V196.371C14.0023 219.38 33.1861 238.433 56.2963 251.275H195.204C218.612 238.267 237.992 218.887 251 195.479V56.5717C238.157 33.4615 219.104 14.2777 196.096 1.27539ZM125.75 250.438C194.461 250.438 250.163 194.737 250.163 126.025C250.163 57.3141 194.461 1.6127 125.75 1.6127C57.0388 1.6127 1.33731 57.3141 1.33731 126.025C1.33731 194.737 57.0388 250.438 125.75 250.438Z" fill="#F9F9F9"/>
<path d="M251 23.3193C244.408 15.2898 237.059 7.90546 229.062 1.27539H196.096C219.104 14.2777 238.157 33.4615 251 56.5717V23.3193Z" fill="#F9F9F9"/>
<path d="M22.4378 1.27539C14.6425 7.73832 7.46292 14.9179 1 22.7132V55.6795C13.8346 32.9677 32.6923 14.11 55.4041 1.27539H22.4378Z" fill="#F9F9F9"/>
<path d="M1 229.338C7.63007 237.334 15.0144 244.683 23.0439 251.275H56.2963C33.1861 238.433 14.0023 219.38 1 196.371V229.338Z" fill="#F9F9F9"/>
<path d="M228.456 251.275C236.688 244.517 244.242 236.963 251 228.732V195.479C237.992 218.887 218.612 238.267 195.204 251.275H228.456Z" fill="#F9F9F9"/>
<path d="M251 228.732C244.242 236.963 236.688 244.517 228.456 251.275H251V228.732Z" fill="#F9F9F9"/>
<path d="M229.062 1.27539C237.059 7.90546 244.408 15.2898 251 23.3193V1.27539H229.062Z" fill="#F9F9F9"/>
<path d="M1 22.7132C7.46292 14.9179 14.6425 7.73832 22.4378 1.27539H1V22.7132Z" fill="#F9F9F9"/>
<path d="M23.0439 251.275C15.0144 244.683 7.63007 237.334 1 229.338V251.275H23.0439Z" fill="#F9F9F9"/>
<path d="M196.096 1.27539H55.4041M196.096 1.27539C219.104 14.2777 238.157 33.4615 251 56.5717M196.096 1.27539H229.062M55.4041 1.27539C32.6923 14.11 13.8346 32.9677 1 55.6795M55.4041 1.27539H22.4378M1 55.6795V196.371M1 55.6795V22.7132M1 196.371C14.0023 219.38 33.1861 238.433 56.2963 251.275M1 196.371V229.338M56.2963 251.275H195.204M56.2963 251.275H23.0439M195.204 251.275C218.612 238.267 237.992 218.887 251 195.479M195.204 251.275H228.456M251 195.479V56.5717M251 195.479V228.732M251 56.5717V23.3193M251 23.3193C244.408 15.2898 237.059 7.90546 229.062 1.27539M251 23.3193V1.27539H229.062M22.4378 1.27539C14.6425 7.73832 7.46292 14.9179 1 22.7132M22.4378 1.27539H1V22.7132M1 229.338C7.63007 237.334 15.0144 244.683 23.0439 251.275M1 229.338V251.275H23.0439M228.456 251.275C236.688 244.517 244.242 236.963 251 228.732M228.456 251.275H251V228.732M137.488 126.025C137.488 132.508 132.233 137.763 125.75 137.763C119.267 137.763 114.012 132.508 114.012 126.025C114.012 119.543 119.267 114.287 125.75 114.287C132.233 114.287 137.488 119.543 137.488 126.025ZM156.267 126.025C156.267 142.88 142.604 156.543 125.75 156.543C108.896 156.543 95.2328 142.88 95.2328 126.025C95.2328 109.171 108.896 95.5082 125.75 95.5082C142.604 95.5082 156.267 109.171 156.267 126.025ZM175.046 126.025C175.046 153.251 152.976 175.322 125.75 175.322C98.5244 175.322 76.4537 153.251 76.4537 126.025C76.4537 98.7998 98.5244 76.7291 125.75 76.7291C152.976 76.7291 175.046 98.7998 175.046 126.025ZM193.825 126.025C193.825 163.622 163.347 194.101 125.75 194.101C88.153 194.101 57.6746 163.622 57.6746 126.025C57.6746 88.4284 88.153 57.95 125.75 57.95C163.347 57.95 193.825 88.4284 193.825 126.025ZM212.604 126.025C212.604 173.994 173.718 212.88 125.75 212.88C77.7816 212.88 38.8955 173.994 38.8955 126.025C38.8955 78.057 77.7816 39.1709 125.75 39.1709C173.718 39.1709 212.604 78.057 212.604 126.025ZM231.384 126.025C231.384 184.365 184.09 231.659 125.75 231.659C67.4102 231.659 20.1164 184.365 20.1164 126.025C20.1164 67.6856 67.4102 20.3918 125.75 20.3918C184.09 20.3918 231.384 67.6856 231.384 126.025ZM250.163 126.025C250.163 194.737 194.461 250.438 125.75 250.438C57.0388 250.438 1.33731 194.737 1.33731 126.025C1.33731 57.3141 57.0388 1.6127 125.75 1.6127C194.461 1.6127 250.163 57.3141 250.163 126.025Z" stroke="black" stroke-width="2" stroke-linejoin="round"/>
<path d="M137.488 126.025C137.488 132.508 132.233 137.763 125.75 137.763C119.267 137.763 114.012 132.508 114.012 126.025C114.012 119.543 119.267 114.287 125.75 114.287C132.233 114.287 137.488 119.543 137.488 126.025Z" fill="#F9F9F9"/>
<path fill-rule="evenodd" clip-rule="evenodd" d="M175.046 126.025C175.046 153.251 152.976 175.322 125.75 175.322C98.5244 175.322 76.4537 153.251 76.4537 126.025C76.4537 98.7998 98.5244 76.7291 125.75 76.7291C152.976 76.7291 175.046 98.7998 175.046 126.025ZM125.75 156.543C142.604 156.543 156.267 142.88 156.267 126.025C156.267 109.171 142.604 95.5082 125.75 95.5082C108.896 95.5082 95.2328 109.171 95.2328 126.025C95.2328 142.88 108.896 156.543 125.75 156.543Z" fill="#F9F9F9"/>
<path fill-rule="evenodd" clip-rule="evenodd" d="M212.604 126.025C212.604 173.994 173.718 212.88 125.75 212.88C77.7816 212.88 38.8955 173.994 38.8955 126.025C38.8955 78.057 77.7816 39.1709 125.75 39.1709C173.718 39.1709 212.604 78.057 212.604 126.025ZM125.75 194.101C163.347 194.101 193.825 163.622 193.825 126.025C193.825 88.4284 163.347 57.95 125.75 57.95C88.153 57.95 57.6746 88.4284 57.6746 126.025C57.6746 163.622 88.153 194.101 125.75 194.101Z" fill="#F9F9F9"/>
<path fill-rule="evenodd" clip-rule="evenodd" d="M250.163 126.025C250.163 194.737 194.461 250.438 125.75 250.438C57.0388 250.438 1.33731 194.737 1.33731 126.025C1.33731 57.3141 57.0388 1.6127 125.75 1.6127C194.461 1.6127 250.163 57.3141 250.163 126.025ZM125.75 231.659C184.09 231.659 231.384 184.365 231.384 126.025C231.384 67.6856 184.09 20.3918 125.75 20.3918C67.4102 20.3918 20.1164 67.6856 20.1164 126.025C20.1164 184.365 67.4102 231.659 125.75 231.659Z" fill="#F9F9F9"/>
<path d="M251 23.3193C244.408 15.2898 237.059 7.90546 229.062 1.27539H196.096C219.104 14.2777 238.157 33.4615 251 56.5717V23.3193Z" fill="#F9F9F9"/>
<path d="M22.4378 1.27539C14.6425 7.73832 7.46292 14.9179 1 22.7132V55.6795C13.8346 32.9677 32.6923 14.11 55.4041 1.27539H22.4378Z" fill="#F9F9F9"/>
<path d="M1 229.338C7.63007 237.334 15.0144 244.683 23.0439 251.275H56.2963C33.1861 238.433 14.0023 219.38 1 196.371V229.338Z" fill="#F9F9F9"/>
<path d="M228.456 251.275C236.688 244.517 244.242 236.963 251 228.732V195.479C237.992 218.887 218.612 238.267 195.204 251.275H228.456Z" fill="#F9F9F9"/>
<path d="M196.096 1.27539H55.4041M196.096 1.27539C219.104 14.2777 238.157 33.4615 251 56.5717M196.096 1.27539H229.062M55.4041 1.27539C32.6923 14.11 13.8346 32.9677 1 55.6795M55.4041 1.27539H22.4378M1 55.6795V196.371M1 55.6795V22.7132M1 196.371C14.0023 219.38 33.1861 238.433 56.2963 251.275M1 196.371V229.338M56.2963 251.275H195.204M56.2963 251.275H23.0439M195.204 251.275C218.612 238.267 237.992 218.887 251 195.479M195.204 251.275H228.456M251 195.479V56.5717M251 195.479V228.732M251 56.5717V23.3193M251 23.3193C244.408 15.2898 237.059 7.90546 229.062 1.27539M251 23.3193V1.27539H229.062M22.4378 1.27539C14.6425 7.73832 7.46292 14.9179 1 22.7132M22.4378 1.27539H1V22.7132M1 229.338C7.63007 237.334 15.0144 244.683 23.0439 251.275M1 229.338V251.275H23.0439M228.456 251.275C236.688 244.517 244.242 236.963 251 228.732M228.456 251.275H251V228.732M137.488 126.025C137.488 132.508 132.233 137.763 125.75 137.763C119.267 137.763 114.012 132.508 114.012 126.025C114.012 119.543 119.267 114.287 125.75 114.287C132.233 114.287 137.488 119.543 137.488 126.025ZM156.267 126.025C156.267 142.88 142.604 156.543 125.75 156.543C108.896 156.543 95.2328 142.88 95.2328 126.025C95.2328 109.171 108.896 95.5082 125.75 95.5082C142.604 95.5082 156.267 109.171 156.267 126.025ZM175.046 126.025C175.046 153.251 152.976 175.322 125.75 175.322C98.5244 175.322 76.4537 153.251 76.4537 126.025C76.4537 98.7998 98.5244 76.7291 125.75 76.7291C152.976 76.7291 175.046 98.7998 175.046 126.025ZM193.825 126.025C193.825 163.622 163.347 194.101 125.75 194.101C88.153 194.101 57.6746 163.622 57.6746 126.025C57.6746 88.4284 88.153 57.95 125.75 57.95C163.347 57.95 193.825 88.4284 193.825 126.025ZM212.604 126.025C212.604 173.994 173.718 212.88 125.75 212.88C77.7816 212.88 38.8955 173.994 38.8955 126.025C38.8955 78.057 77.7816 39.1709 125.75 39.1709C173.718 39.1709 212.604 78.057 212.604 126.025ZM231.384 126.025C231.384 184.365 184.09 231.659 125.75 231.659C67.4102 231.659 20.1164 184.365 20.1164 126.025C20.1164 67.6856 67.4102 20.3918 125.75 20.3918C184.09 20.3918 231.384 67.6856 231.384 126.025ZM250.163 126.025C250.163 194.737 194.461 250.438 125.75 250.438C57.0388 250.438 1.33731 194.737 1.33731 126.025C1.33731 57.3141 57.0388 1.6127 125.75 1.6127C194.461 1.6127 250.163 57.3141 250.163 126.025Z" stroke="black" stroke-width="2" stroke-linejoin="round"/>
</svg>
