<svg width="252" height="253" viewBox="0 0 252 253" fill="none" xmlns="http://www.w3.org/2000/svg">
<rect x="1" y="1.27539" width="250" height="250" fill="#F9F9F9"/>
<path d="M139.857 1.27539H112.147L126.001 126.265L126.004 126.257L139.857 1.27539Z" fill="#F9F9F9"/>
<path d="M126.003 126.266L217.901 1.27539H180.803L126.004 126.257L126.003 126.266Z" fill="#F9F9F9"/>
<path d="M251 71.4747V34.3778L126.011 126.274L126.019 126.273L251 71.4747Z" fill="#F9F9F9"/>
<path d="M126.011 126.277L251 140.13V112.421L126.019 126.273L126.011 126.277Z" fill="#F9F9F9"/>
<path d="M251 181.089L126.011 126.287L126.015 126.293L251 218.186V181.089Z" fill="#F9F9F9"/>
<path d="M180.81 251.275H217.907L126.015 126.293L126.009 126.288L180.81 251.275Z" fill="#F9F9F9"/>
<path d="M139.857 251.275L126.003 126.284L126.001 126.283L112.147 251.275H139.857Z" fill="#F9F9F9"/>
<path d="M125.99 126.29L125.98 126.297L34.0915 251.275H71.1893L125.99 126.29Z" fill="#F9F9F9"/>
<path d="M1 181.088V218.187L125.98 126.297L125.988 126.287L1 181.088Z" fill="#F9F9F9"/>
<path d="M1 140.13L125.988 126.277L125.98 126.273L1 112.421V140.13Z" fill="#F9F9F9"/>
<path d="M125.99 126.274L1 34.377V71.4752L125.98 126.273L125.99 126.274Z" fill="#F9F9F9"/>
<path d="M34.0977 1.27539L125.998 126.27L126 126.268L71.1962 1.27539H34.0977Z" fill="#F9F9F9"/>
<path d="M1 34.377L125.99 126.274L125.996 126.275L125.998 126.27L34.0977 1.27539H1V34.377Z" fill="#F9F9F9"/>
<path d="M1 112.421L125.98 126.273L1 71.4752V112.421Z" fill="#F9F9F9"/>
<path d="M1 181.088L125.988 126.287L125.993 126.279L125.988 126.277L1 140.13V181.088Z" fill="#F9F9F9"/>
<path d="M34.0915 251.275L125.98 126.297L1 218.187V251.275H34.0915Z" fill="#F9F9F9"/>
<path d="M112.147 251.275L126.001 126.283L126 126.282L125.99 126.29L71.1893 251.275H112.147Z" fill="#F9F9F9"/>
<path d="M180.81 251.275L126.009 126.288L126.003 126.284L139.857 251.275H180.81Z" fill="#F9F9F9"/>
<path d="M251 218.186L126.015 126.293L217.907 251.275H251V218.186Z" fill="#F9F9F9"/>
<path d="M251 140.13L126.011 126.277L126.005 126.279L126.011 126.287L251 181.089V140.13Z" fill="#F9F9F9"/>
<path d="M251 71.4747L126.019 126.273L251 112.421V71.4747Z" fill="#F9F9F9"/>
<path d="M217.901 1.27539L126.003 126.266L126.002 126.274L126.003 126.275L126.011 126.274L251 34.3778V1.27539H217.901Z" fill="#F9F9F9"/>
<path d="M139.857 1.27539L126.004 126.257L180.803 1.27539H139.857Z" fill="#F9F9F9"/>
<path d="M126.001 126.265L112.147 1.27539H71.1962L126 126.268L126.001 126.265Z" fill="#F9F9F9"/>
<path d="M126.002 126.275L112.147 251.275M126.002 126.275L126.003 126.284M126.002 126.275L126.002 126.274M126.003 126.28L126.011 126.274M126.003 126.28L125.988 126.287M126.003 126.28L126 126.282M126.003 126.28L126.005 126.279M125.996 126.275L126.003 126.266M125.996 126.275L125.99 126.29M125.996 126.275L125.998 126.27M125.996 126.275L125.99 126.274M125.996 126.275L125.993 126.279M126 126.275L126.011 126.277M126 126.275L125.988 126.277M126 126.275L125.99 126.274M126 126.275L126.003 126.275M126.001 126.283L126.003 126.284M126.001 126.283L112.147 251.275M126.001 126.283L126 126.282M126.004 126.278L125.998 126.27M126.004 126.278L126.005 126.279M126.004 126.278L126.003 126.275M139.857 1.27539H112.147M139.857 1.27539L126.004 126.257M139.857 1.27539H180.803M112.147 1.27539L126.001 126.265M112.147 1.27539H71.1962M126.001 126.265L126.004 126.257M126.001 126.265L126 126.268M126.001 126.265L126.002 126.274M126.004 126.257L180.803 1.27539M126.004 126.257L126.003 126.266M126.003 126.266L217.901 1.27539M126.003 126.266L126.002 126.274M217.901 1.27539H180.803M217.901 1.27539H251V34.3778M251 71.4747V34.3778M251 71.4747L126.019 126.273M251 71.4747V112.421M251 34.3778L126.011 126.274M126.011 126.274L126.019 126.273M126.011 126.274L126.003 126.275M126.019 126.273L251 112.421M126.019 126.273L126.011 126.277M126.011 126.277L251 140.13M126.011 126.277L126.005 126.279M251 140.13V112.421M251 140.13V181.089M251 181.089L126.011 126.287M251 181.089V218.186M126.011 126.287L126.015 126.293M126.011 126.287L126.003 126.284M126.011 126.287L126.005 126.279M126.015 126.293L251 218.186M126.015 126.293L217.907 251.275M126.015 126.293L126.009 126.288M251 218.186V251.275H217.907M180.81 251.275H217.907M180.81 251.275L126.009 126.288M180.81 251.275H139.857M126.009 126.288L126.003 126.284M126.009 126.288L126.005 126.279M139.857 251.275L126.003 126.284M139.857 251.275H112.147M112.147 251.275H71.1893M125.99 126.29L125.98 126.297M125.99 126.29L71.1893 251.275M125.99 126.29L126 126.282M125.98 126.297L34.0915 251.275M125.98 126.297L1 218.187M125.98 126.297L125.988 126.287M34.0915 251.275H71.1893M34.0915 251.275H1V218.187M1 181.088V218.187M1 181.088L125.988 126.287M1 181.088V140.13M125.988 126.287L125.993 126.279M1 140.13L125.988 126.277M1 140.13V112.421M125.988 126.277L125.98 126.273M125.988 126.277L125.993 126.279M125.98 126.273L1 112.421M125.98 126.273L1 71.4752M125.98 126.273L125.99 126.274M1 112.421V71.4752M125.99 126.274L1 34.377M125.99 126.274L126 126.282M1 34.377V71.4752M1 34.377V1.27539H34.0977M34.0977 1.27539L125.998 126.27M34.0977 1.27539H71.1962M125.998 126.27L126 126.268M126 126.268L71.1962 1.27539M126 126.268L126.002 126.274M125.993 126.279L126 126.282M126.002 126.274L126.003 126.275" stroke="black" stroke-width="2" stroke-linejoin="round"/>
<path d="M139.857 1.27539H112.147L126.001 126.265L126.004 126.257L139.857 1.27539Z" fill="#F9F9F9"/>
<path d="M126.003 126.266L217.901 1.27539H180.803L126.004 126.257L126.003 126.266Z" fill="#F9F9F9"/>
<path d="M251 71.4747V34.3778L126.011 126.274L126.019 126.273L251 71.4747Z" fill="#F9F9F9"/>
<path d="M126.011 126.277L251 140.13V112.421L126.019 126.273L126.011 126.277Z" fill="#F9F9F9"/>
<path d="M251 181.089L126.011 126.287L126.015 126.293L251 218.186V181.089Z" fill="#F9F9F9"/>
<path d="M180.81 251.275H217.907L126.015 126.293L126.009 126.288L180.81 251.275Z" fill="#F9F9F9"/>
<path d="M139.857 251.275L126.003 126.284L126.001 126.283L112.147 251.275H139.857Z" fill="#F9F9F9"/>
<path d="M125.99 126.29L125.98 126.297L34.0915 251.275H71.1893L125.99 126.29Z" fill="#F9F9F9"/>
<path d="M1 181.088V218.187L125.98 126.297L125.988 126.287L1 181.088Z" fill="#F9F9F9"/>
<path d="M1 140.13L125.988 126.277L125.98 126.273L1 112.421V140.13Z" fill="#F9F9F9"/>
<path d="M125.99 126.274L1 34.377V71.4752L125.98 126.273L125.99 126.274Z" fill="#F9F9F9"/>
<path d="M34.0977 1.27539L125.998 126.27L126 126.268L71.1962 1.27539H34.0977Z" fill="#F9F9F9"/>
<path d="M126.002 126.275L126.001 126.265M126.002 126.275L126.003 126.266M126.002 126.275L112.147 251.275M126.002 126.275L126.003 126.284M126.003 126.28L126.011 126.274M126.003 126.28L126.011 126.277M126.003 126.28L125.99 126.29M126.003 126.28L125.988 126.287M125.996 126.275L126.003 126.266M125.996 126.275L125.99 126.29M125.996 126.275L125.988 126.287M125.996 126.275L125.998 126.27M126 126.275L126.011 126.274M126 126.275L126.011 126.277M126 126.275L125.988 126.277M126 126.275L125.99 126.274M126.001 126.283L126.003 126.284M126.001 126.283L112.147 251.275M126.001 126.283L125.988 126.277M126.001 126.283L125.99 126.274M126.004 126.278L126.011 126.287M126.004 126.278L126.009 126.288M126.004 126.278L126 126.268M126.004 126.278L125.998 126.27M139.857 1.27539H112.147M139.857 1.27539L126.004 126.257M139.857 1.27539H180.803M112.147 1.27539L126.001 126.265M112.147 1.27539H71.1962M126.001 126.265L126.004 126.257M126.001 126.265L126 126.268M126.004 126.257L180.803 1.27539M126.004 126.257L126.003 126.266M126.003 126.266L217.901 1.27539M217.901 1.27539H180.803M217.901 1.27539H251V34.3778M251 71.4747V34.3778M251 71.4747L126.019 126.273M251 71.4747V112.421M251 34.3778L126.011 126.274M126.011 126.274L126.019 126.273M126.019 126.273L251 112.421M126.019 126.273L126.011 126.277M126.011 126.277L251 140.13M251 140.13V112.421M251 140.13V181.089M251 181.089L126.011 126.287M251 181.089V218.186M126.011 126.287L126.015 126.293M126.011 126.287L126.003 126.284M126.015 126.293L251 218.186M126.015 126.293L217.907 251.275M126.015 126.293L126.009 126.288M251 218.186V251.275H217.907M180.81 251.275H217.907M180.81 251.275L126.009 126.288M180.81 251.275H139.857M126.009 126.288L126.003 126.284M139.857 251.275L126.003 126.284M139.857 251.275H112.147M112.147 251.275H71.1893M125.99 126.29L125.98 126.297M125.99 126.29L71.1893 251.275M125.98 126.297L34.0915 251.275M125.98 126.297L1 218.187M125.98 126.297L125.988 126.287M34.0915 251.275H71.1893M34.0915 251.275H1V218.187M1 181.088V218.187M1 181.088L125.988 126.287M1 181.088V140.13M1 140.13L125.988 126.277M1 140.13V112.421M125.988 126.277L125.98 126.273M125.98 126.273L1 112.421M125.98 126.273L1 71.4752M125.98 126.273L125.99 126.274M1 112.421V71.4752M125.99 126.274L1 34.377M1 34.377V71.4752M1 34.377V1.27539H34.0977M34.0977 1.27539L125.998 126.27M34.0977 1.27539H71.1962M125.998 126.27L126 126.268M126 126.268L71.1962 1.27539" stroke="black" stroke-width="2" stroke-linejoin="round"/>
</svg>
