<svg width="252" height="253" viewBox="0 0 252 253" fill="none" xmlns="http://www.w3.org/2000/svg">
<rect x="1" y="167.943" width="41.6667" height="41.6667" fill="#F9F9F9" stroke="black" stroke-width="2" stroke-linejoin="round"/>
<rect x="1" y="209.609" width="41.6667" height="41.6667" fill="#F9F9F9" stroke="black" stroke-width="2" stroke-linejoin="round"/>
<rect x="42.6641" y="167.943" width="41.6667" height="41.6667" fill="#F9F9F9" stroke="black" stroke-width="2" stroke-linejoin="round"/>
<rect x="42.6641" y="209.609" width="41.6667" height="41.6667" fill="#F9F9F9" stroke="black" stroke-width="2" stroke-linejoin="round"/>
<rect x="84.3359" y="167.943" width="41.6667" height="41.6667" fill="#F9F9F9" stroke="black" stroke-width="2" stroke-linejoin="round"/>
<rect x="84.3359" y="209.609" width="41.6667" height="41.6667" fill="#F9F9F9" stroke="black" stroke-width="2" stroke-linejoin="round"/>
<rect x="1" y="126.275" width="41.6667" height="41.6667" fill="#F9F9F9" stroke="black" stroke-width="2" stroke-linejoin="round"/>
<rect x="42.6641" y="126.275" width="41.6667" height="41.6667" fill="#F9F9F9" stroke="black" stroke-width="2" stroke-linejoin="round"/>
<rect x="1" y="84.6094" width="41.6667" height="41.6667" fill="#F9F9F9" stroke="black" stroke-width="2" stroke-linejoin="round"/>
<rect x="1" y="1.27539" width="41.6667" height="41.6667" fill="#F9F9F9" stroke="black" stroke-width="2" stroke-linejoin="round"/>
<rect x="1" y="42.9432" width="41.6667" height="41.6667" fill="#F9F9F9" stroke="black" stroke-width="2" stroke-linejoin="round"/>
<rect x="42.6641" y="1.27539" width="41.6667" height="41.6667" fill="#F9F9F9" stroke="black" stroke-width="2" stroke-linejoin="round"/>
<rect x="42.6641" y="42.9434" width="41.6667" height="41.6667" fill="#F9F9F9" stroke="black" stroke-width="2" stroke-linejoin="round"/>
<rect x="42.6641" y="84.6094" width="41.6667" height="41.6667" fill="#F9F9F9" stroke="black" stroke-width="2" stroke-linejoin="round"/>
<rect x="84.3359" y="1.27539" width="41.6667" height="41.6667" fill="#F9F9F9" stroke="black" stroke-width="2" stroke-linejoin="round"/>
<rect x="84.3359" y="42.9434" width="41.6667" height="41.6667" fill="#F9F9F9" stroke="black" stroke-width="2" stroke-linejoin="round"/>
<rect x="84.3359" y="84.6094" width="41.6667" height="41.6667" fill="#F9F9F9" stroke="black" stroke-width="2" stroke-linejoin="round"/>
<rect x="84.3359" y="126.275" width="41.6667" height="41.6667" fill="#F9F9F9" stroke="black" stroke-width="2" stroke-linejoin="round"/>
<rect x="126" y="1.27539" width="41.6667" height="41.6667" fill="#F9F9F9" stroke="black" stroke-width="2" stroke-linejoin="round"/>
<rect x="126" y="42.9434" width="41.6667" height="41.6667" fill="#F9F9F9" stroke="black" stroke-width="2" stroke-linejoin="round"/>
<rect x="126" y="84.6094" width="41.6667" height="41.6667" fill="#F9F9F9" stroke="black" stroke-width="2" stroke-linejoin="round"/>
<rect x="126" y="126.275" width="41.6667" height="41.6667" fill="#F9F9F9" stroke="black" stroke-width="2" stroke-linejoin="round"/>
<rect x="126" y="167.943" width="41.6667" height="41.6667" fill="#F9F9F9" stroke="black" stroke-width="2" stroke-linejoin="round"/>
<rect x="126" y="209.609" width="41.6667" height="41.6667" fill="#F9F9F9" stroke="black" stroke-width="2" stroke-linejoin="round"/>
<rect x="167.668" y="1.27539" width="41.6667" height="41.6667" fill="#F9F9F9" stroke="black" stroke-width="2" stroke-linejoin="round"/>
<rect x="209.334" y="1.27539" width="41.6667" height="41.6667" fill="#F9F9F9" stroke="black" stroke-width="2" stroke-linejoin="round"/>
<rect x="167.668" y="42.9434" width="41.6667" height="41.6667" fill="#F9F9F9" stroke="black" stroke-width="2" stroke-linejoin="round"/>
<rect x="209.334" y="42.9434" width="41.6667" height="41.6667" fill="#F9F9F9" stroke="black" stroke-width="2" stroke-linejoin="round"/>
<rect x="167.668" y="84.6094" width="41.6667" height="41.6667" fill="#F9F9F9" stroke="black" stroke-width="2" stroke-linejoin="round"/>
<rect x="209.334" y="84.6094" width="41.6667" height="41.6667" fill="#F9F9F9" stroke="black" stroke-width="2" stroke-linejoin="round"/>
<rect x="167.668" y="126.275" width="41.6667" height="41.6667" fill="#F9F9F9" stroke="black" stroke-width="2" stroke-linejoin="round"/>
<rect x="209.334" y="126.275" width="41.6667" height="41.6667" fill="#F9F9F9" stroke="black" stroke-width="2" stroke-linejoin="round"/>
<rect x="167.668" y="167.943" width="41.6667" height="41.6667" fill="#F9F9F9" stroke="black" stroke-width="2" stroke-linejoin="round"/>
<rect x="167.668" y="209.609" width="41.6667" height="41.6667" fill="#F9F9F9" stroke="black" stroke-width="2" stroke-linejoin="round"/>
<rect x="209.334" y="167.943" width="41.6667" height="41.6667" fill="#F9F9F9" stroke="black" stroke-width="2" stroke-linejoin="round"/>
<rect x="209.334" y="209.609" width="41.6667" height="41.6667" fill="#F9F9F9" stroke="black" stroke-width="2" stroke-linejoin="round"/>
</svg>
