<svg width="252" height="253" viewBox="0 0 252 253" fill="none" xmlns="http://www.w3.org/2000/svg">
<rect x="1" y="1.27539" width="29.1667" height="29.1667" fill="#F9F9F9" stroke="black" stroke-width="2" stroke-linejoin="round"/>
<rect x="1" y="45.4421" width="29.1667" height="29.1667" fill="#F9F9F9" stroke="black" stroke-width="2" stroke-linejoin="round"/>
<rect x="1" y="89.6088" width="29.1667" height="29.1667" fill="#F9F9F9" stroke="black" stroke-width="2" stroke-linejoin="round"/>
<rect x="1" y="133.775" width="29.1667" height="29.1667" fill="#F9F9F9" stroke="black" stroke-width="2" stroke-linejoin="round"/>
<rect x="1" y="177.942" width="29.1667" height="29.1667" fill="#F9F9F9" stroke="black" stroke-width="2" stroke-linejoin="round"/>
<rect x="1" y="222.109" width="29.1667" height="29.1667" fill="#F9F9F9" stroke="black" stroke-width="2" stroke-linejoin="round"/>
<rect x="45.1666" y="1.27539" width="29.1667" height="29.1667" fill="#F9F9F9" stroke="black" stroke-width="2" stroke-linejoin="round"/>
<rect x="45.1664" y="45.4421" width="29.1667" height="29.1667" fill="#F9F9F9" stroke="black" stroke-width="2" stroke-linejoin="round"/>
<rect x="45.1666" y="89.6088" width="29.1667" height="29.1667" fill="#F9F9F9" stroke="black" stroke-width="2" stroke-linejoin="round"/>
<rect x="45.1666" y="133.775" width="29.1667" height="29.1667" fill="#F9F9F9" stroke="black" stroke-width="2" stroke-linejoin="round"/>
<rect x="45.1666" y="177.942" width="29.1667" height="29.1667" fill="#F9F9F9" stroke="black" stroke-width="2" stroke-linejoin="round"/>
<rect x="45.1666" y="222.109" width="29.1667" height="29.1667" fill="#F9F9F9" stroke="black" stroke-width="2" stroke-linejoin="round"/>
<rect x="89.3334" y="1.27539" width="29.1667" height="29.1667" fill="#F9F9F9" stroke="black" stroke-width="2" stroke-linejoin="round"/>
<rect x="89.3334" y="45.442" width="29.1667" height="29.1667" fill="#F9F9F9" stroke="black" stroke-width="2" stroke-linejoin="round"/>
<rect x="89.3334" y="89.6088" width="29.1667" height="29.1667" fill="#F9F9F9" stroke="black" stroke-width="2" stroke-linejoin="round"/>
<rect x="89.3334" y="133.775" width="29.1667" height="29.1667" fill="#F9F9F9" stroke="black" stroke-width="2" stroke-linejoin="round"/>
<rect x="89.3334" y="177.942" width="29.1667" height="29.1667" fill="#F9F9F9" stroke="black" stroke-width="2" stroke-linejoin="round"/>
<rect x="89.3334" y="222.109" width="29.1667" height="29.1667" fill="#F9F9F9" stroke="black" stroke-width="2" stroke-linejoin="round"/>
<rect x="133.5" y="1.27539" width="29.1667" height="29.1667" fill="#F9F9F9" stroke="black" stroke-width="2" stroke-linejoin="round"/>
<rect x="133.5" y="45.442" width="29.1667" height="29.1667" fill="#F9F9F9" stroke="black" stroke-width="2" stroke-linejoin="round"/>
<rect x="133.5" y="89.6088" width="29.1667" height="29.1667" fill="#F9F9F9" stroke="black" stroke-width="2" stroke-linejoin="round"/>
<rect x="133.5" y="133.775" width="29.1667" height="29.1667" fill="#F9F9F9" stroke="black" stroke-width="2" stroke-linejoin="round"/>
<rect x="133.5" y="177.942" width="29.1667" height="29.1667" fill="#F9F9F9" stroke="black" stroke-width="2" stroke-linejoin="round"/>
<rect x="133.5" y="222.109" width="29.1667" height="29.1667" fill="#F9F9F9" stroke="black" stroke-width="2" stroke-linejoin="round"/>
<rect x="177.667" y="1.27539" width="29.1667" height="29.1667" fill="#F9F9F9" stroke="black" stroke-width="2" stroke-linejoin="round"/>
<rect x="177.667" y="45.442" width="29.1667" height="29.1667" fill="#F9F9F9" stroke="black" stroke-width="2" stroke-linejoin="round"/>
<rect x="177.667" y="89.6088" width="29.1667" height="29.1667" fill="#F9F9F9" stroke="black" stroke-width="2" stroke-linejoin="round"/>
<rect x="177.667" y="133.775" width="29.1667" height="29.1667" fill="#F9F9F9" stroke="black" stroke-width="2" stroke-linejoin="round"/>
<rect x="177.667" y="177.942" width="29.1667" height="29.1667" fill="#F9F9F9" stroke="black" stroke-width="2" stroke-linejoin="round"/>
<rect x="177.667" y="222.109" width="29.1667" height="29.1667" fill="#F9F9F9" stroke="black" stroke-width="2" stroke-linejoin="round"/>
<rect x="221.833" y="1.27539" width="29.1667" height="29.1667" fill="#F9F9F9" stroke="black" stroke-width="2" stroke-linejoin="round"/>
<rect x="221.833" y="45.442" width="29.1667" height="29.1667" fill="#F9F9F9" stroke="black" stroke-width="2" stroke-linejoin="round"/>
<rect x="221.833" y="89.6088" width="29.1667" height="29.1667" fill="#F9F9F9" stroke="black" stroke-width="2" stroke-linejoin="round"/>
<rect x="221.833" y="133.775" width="29.1667" height="29.1667" fill="#F9F9F9" stroke="black" stroke-width="2" stroke-linejoin="round"/>
<rect x="221.833" y="177.942" width="29.1667" height="29.1667" fill="#F9F9F9" stroke="black" stroke-width="2" stroke-linejoin="round"/>
<rect x="221.833" y="222.109" width="29.1667" height="29.1667" fill="#F9F9F9" stroke="black" stroke-width="2" stroke-linejoin="round"/>
</svg>
