<svg width="253" height="253" viewBox="0 0 253 253" fill="none" xmlns="http://www.w3.org/2000/svg">
<rect x="1" y="126.275" width="31.2504" height="31.2504" fill="#F9F9F9" stroke="black" stroke-width="2" stroke-linejoin="round"/>
<rect x="1" y="188.775" width="31.2504" height="31.2504" fill="#F9F9F9" stroke="black" stroke-width="2" stroke-linejoin="round"/>
<rect x="1" y="157.525" width="31.2504" height="31.2504" fill="#F9F9F9" stroke="black" stroke-width="2" stroke-linejoin="round"/>
<rect x="1" y="220.025" width="31.2504" height="31.2504" fill="#F9F9F9" stroke="black" stroke-width="2" stroke-linejoin="round"/>
<rect x="32.25" y="126.275" width="31.2504" height="31.2504" fill="#F9F9F9" stroke="black" stroke-width="2" stroke-linejoin="round"/>
<rect x="32.25" y="188.775" width="31.2504" height="31.2504" fill="#F9F9F9" stroke="black" stroke-width="2" stroke-linejoin="round"/>
<rect x="32.25" y="157.525" width="31.2504" height="31.2504" fill="#F9F9F9" stroke="black" stroke-width="2" stroke-linejoin="round"/>
<rect x="32.25" y="220.025" width="31.2504" height="31.2504" fill="#F9F9F9" stroke="black" stroke-width="2" stroke-linejoin="round"/>
<rect x="63.502" y="126.275" width="31.2504" height="31.2504" fill="#F9F9F9" stroke="black" stroke-width="2" stroke-linejoin="round"/>
<rect x="63.502" y="188.775" width="31.2504" height="31.2504" fill="#F9F9F9" stroke="black" stroke-width="2" stroke-linejoin="round"/>
<rect x="63.502" y="157.525" width="31.2504" height="31.2504" fill="#F9F9F9" stroke="black" stroke-width="2" stroke-linejoin="round"/>
<rect x="63.502" y="220.025" width="31.2504" height="31.2504" fill="#F9F9F9" stroke="black" stroke-width="2" stroke-linejoin="round"/>
<rect x="1" y="95.0254" width="31.2504" height="31.2504" fill="#F9F9F9" stroke="black" stroke-width="2" stroke-linejoin="round"/>
<rect x="32.25" y="95.0254" width="31.2504" height="31.2504" fill="#F9F9F9" stroke="black" stroke-width="2" stroke-linejoin="round"/>
<rect x="1" y="63.7754" width="31.2504" height="31.2504" fill="#F9F9F9" stroke="black" stroke-width="2" stroke-linejoin="round"/>
<rect x="1" y="1.27539" width="31.2504" height="31.2504" fill="#F9F9F9" stroke="black" stroke-width="2" stroke-linejoin="round"/>
<rect x="1" y="32.5254" width="31.2504" height="31.2504" fill="#F9F9F9" stroke="black" stroke-width="2" stroke-linejoin="round"/>
<rect x="32.25" y="1.27539" width="31.2504" height="31.2504" fill="#F9F9F9" stroke="black" stroke-width="2" stroke-linejoin="round"/>
<rect x="32.25" y="32.5254" width="31.2504" height="31.2504" fill="#F9F9F9" stroke="black" stroke-width="2" stroke-linejoin="round"/>
<rect x="32.25" y="63.7754" width="31.2504" height="31.2504" fill="#F9F9F9" stroke="black" stroke-width="2" stroke-linejoin="round"/>
<rect x="63.502" y="1.27539" width="31.2504" height="31.2504" fill="#F9F9F9" stroke="black" stroke-width="2" stroke-linejoin="round"/>
<rect x="63.502" y="32.5254" width="31.2504" height="31.2504" fill="#F9F9F9" stroke="black" stroke-width="2" stroke-linejoin="round"/>
<rect x="63.502" y="63.7754" width="31.2504" height="31.2504" fill="#F9F9F9" stroke="black" stroke-width="2" stroke-linejoin="round"/>
<rect x="63.502" y="95.0254" width="31.2504" height="31.2504" fill="#F9F9F9" stroke="black" stroke-width="2" stroke-linejoin="round"/>
<rect x="94.7501" y="1.27539" width="31.2504" height="31.2504" fill="#F9F9F9" stroke="black" stroke-width="2" stroke-linejoin="round"/>
<rect x="94.75" y="32.5254" width="31.2504" height="31.2504" fill="#F9F9F9" stroke="black" stroke-width="2" stroke-linejoin="round"/>
<rect x="94.75" y="63.7754" width="31.2504" height="31.2504" fill="#F9F9F9" stroke="black" stroke-width="2" stroke-linejoin="round"/>
<rect x="94.75" y="95.0254" width="31.2504" height="31.2504" fill="#F9F9F9" stroke="black" stroke-width="2" stroke-linejoin="round"/>
<rect x="94.75" y="126.275" width="31.2504" height="31.2504" fill="#F9F9F9" stroke="black" stroke-width="2" stroke-linejoin="round"/>
<rect x="94.75" y="188.775" width="31.2504" height="31.2504" fill="#F9F9F9" stroke="black" stroke-width="2" stroke-linejoin="round"/>
<rect x="94.7501" y="157.525" width="31.2504" height="31.2504" fill="#F9F9F9" stroke="black" stroke-width="2" stroke-linejoin="round"/>
<rect x="94.75" y="220.025" width="31.2504" height="31.2504" fill="#F9F9F9" stroke="black" stroke-width="2" stroke-linejoin="round"/>
<rect x="125.998" y="1.27539" width="31.2504" height="31.2504" fill="#F9F9F9" stroke="black" stroke-width="2" stroke-linejoin="round"/>
<rect x="188.5" y="1.27539" width="31.2504" height="31.2504" fill="#F9F9F9" stroke="black" stroke-width="2" stroke-linejoin="round"/>
<rect x="157.25" y="1.27539" width="31.2504" height="31.2504" fill="#F9F9F9" stroke="black" stroke-width="2" stroke-linejoin="round"/>
<rect x="219.752" y="1.27539" width="31.2504" height="31.2504" fill="#F9F9F9" stroke="black" stroke-width="2" stroke-linejoin="round"/>
<rect x="125.998" y="32.5254" width="31.2504" height="31.2504" fill="#F9F9F9" stroke="black" stroke-width="2" stroke-linejoin="round"/>
<rect x="188.5" y="32.5254" width="31.2504" height="31.2504" fill="#F9F9F9" stroke="black" stroke-width="2" stroke-linejoin="round"/>
<rect x="157.25" y="32.5254" width="31.2504" height="31.2504" fill="#F9F9F9" stroke="black" stroke-width="2" stroke-linejoin="round"/>
<rect x="219.752" y="32.5254" width="31.2504" height="31.2504" fill="#F9F9F9" stroke="black" stroke-width="2" stroke-linejoin="round"/>
<rect x="125.998" y="63.7754" width="31.2504" height="31.2504" fill="#F9F9F9" stroke="black" stroke-width="2" stroke-linejoin="round"/>
<rect x="188.5" y="63.7754" width="31.2504" height="31.2504" fill="#F9F9F9" stroke="black" stroke-width="2" stroke-linejoin="round"/>
<rect x="157.25" y="63.7754" width="31.2504" height="31.2504" fill="#F9F9F9" stroke="black" stroke-width="2" stroke-linejoin="round"/>
<rect x="219.752" y="63.7754" width="31.2504" height="31.2504" fill="#F9F9F9" stroke="black" stroke-width="2" stroke-linejoin="round"/>
<rect x="125.998" y="95.0254" width="31.2504" height="31.2504" fill="#F9F9F9" stroke="black" stroke-width="2" stroke-linejoin="round"/>
<rect x="188.5" y="95.0254" width="31.2504" height="31.2504" fill="#F9F9F9" stroke="black" stroke-width="2" stroke-linejoin="round"/>
<rect x="157.25" y="95.0254" width="31.2504" height="31.2504" fill="#F9F9F9" stroke="black" stroke-width="2" stroke-linejoin="round"/>
<rect x="219.752" y="95.0254" width="31.2504" height="31.2504" fill="#F9F9F9" stroke="black" stroke-width="2" stroke-linejoin="round"/>
<rect x="125.998" y="126.275" width="31.2504" height="31.2504" fill="#F9F9F9" stroke="black" stroke-width="2" stroke-linejoin="round"/>
<rect x="125.998" y="188.775" width="31.2504" height="31.2504" fill="#F9F9F9" stroke="black" stroke-width="2" stroke-linejoin="round"/>
<rect x="188.5" y="126.275" width="31.2504" height="31.2504" fill="#F9F9F9" stroke="black" stroke-width="2" stroke-linejoin="round"/>
<rect x="188.5" y="188.775" width="31.2504" height="31.2504" fill="#F9F9F9" stroke="black" stroke-width="2" stroke-linejoin="round"/>
<rect x="125.998" y="157.525" width="31.2504" height="31.2504" fill="#F9F9F9" stroke="black" stroke-width="2" stroke-linejoin="round"/>
<rect x="125.998" y="220.025" width="31.2504" height="31.2504" fill="#F9F9F9" stroke="black" stroke-width="2" stroke-linejoin="round"/>
<rect x="188.5" y="157.525" width="31.2504" height="31.2504" fill="#F9F9F9" stroke="black" stroke-width="2" stroke-linejoin="round"/>
<rect x="188.5" y="220.025" width="31.2504" height="31.2504" fill="#F9F9F9" stroke="black" stroke-width="2" stroke-linejoin="round"/>
<rect x="157.25" y="126.275" width="31.2504" height="31.2504" fill="#F9F9F9" stroke="black" stroke-width="2" stroke-linejoin="round"/>
<rect x="157.25" y="188.775" width="31.2504" height="31.2504" fill="#F9F9F9" stroke="black" stroke-width="2" stroke-linejoin="round"/>
<rect x="219.752" y="126.275" width="31.2504" height="31.2504" fill="#F9F9F9" stroke="black" stroke-width="2" stroke-linejoin="round"/>
<rect x="219.752" y="188.775" width="31.2504" height="31.2504" fill="#F9F9F9" stroke="black" stroke-width="2" stroke-linejoin="round"/>
<rect x="157.25" y="157.525" width="31.2504" height="31.2504" fill="#F9F9F9" stroke="black" stroke-width="2" stroke-linejoin="round"/>
<rect x="157.25" y="220.025" width="31.2504" height="31.2504" fill="#F9F9F9" stroke="black" stroke-width="2" stroke-linejoin="round"/>
<rect x="219.752" y="157.525" width="31.2504" height="31.2504" fill="#F9F9F9" stroke="black" stroke-width="2" stroke-linejoin="round"/>
<rect x="219.752" y="220.025" width="31.2504" height="31.2504" fill="#F9F9F9" stroke="black" stroke-width="2" stroke-linejoin="round"/>
</svg>
