<svg width="252" height="253" viewBox="0 0 252 253" fill="none" xmlns="http://www.w3.org/2000/svg">
<rect x="1" y="1.27539" width="22.5" height="22.5" fill="#F9F9F9" stroke="black" stroke-width="2" stroke-linejoin="round"/>
<rect x="1" y="33.7754" width="22.5" height="22.5" fill="#F9F9F9" stroke="black" stroke-width="2" stroke-linejoin="round"/>
<rect x="1" y="66.2754" width="22.5" height="22.5" fill="#F9F9F9" stroke="black" stroke-width="2" stroke-linejoin="round"/>
<rect x="1" y="98.7754" width="22.5" height="22.5" fill="#F9F9F9" stroke="black" stroke-width="2" stroke-linejoin="round"/>
<rect x="1" y="131.275" width="22.5" height="22.5" fill="#F9F9F9" stroke="black" stroke-width="2" stroke-linejoin="round"/>
<rect x="1" y="163.775" width="22.5" height="22.5" fill="#F9F9F9" stroke="black" stroke-width="2" stroke-linejoin="round"/>
<rect x="1" y="196.275" width="22.5" height="22.5" fill="#F9F9F9" stroke="black" stroke-width="2" stroke-linejoin="round"/>
<rect x="1" y="228.775" width="22.5" height="22.5" fill="#F9F9F9" stroke="black" stroke-width="2" stroke-linejoin="round"/>
<rect x="33.5" y="1.27539" width="22.5" height="22.5" fill="#F9F9F9" stroke="black" stroke-width="2" stroke-linejoin="round"/>
<rect x="33.5" y="33.7754" width="22.5" height="22.5" fill="#F9F9F9" stroke="black" stroke-width="2" stroke-linejoin="round"/>
<rect x="33.5" y="66.2754" width="22.5" height="22.5" fill="#F9F9F9" stroke="black" stroke-width="2" stroke-linejoin="round"/>
<rect x="33.5" y="98.7754" width="22.5" height="22.5" fill="#F9F9F9" stroke="black" stroke-width="2" stroke-linejoin="round"/>
<rect x="33.5" y="131.275" width="22.5" height="22.5" fill="#F9F9F9" stroke="black" stroke-width="2" stroke-linejoin="round"/>
<rect x="33.5" y="163.775" width="22.5" height="22.5" fill="#F9F9F9" stroke="black" stroke-width="2" stroke-linejoin="round"/>
<rect x="33.5" y="196.275" width="22.5" height="22.5" fill="#F9F9F9" stroke="black" stroke-width="2" stroke-linejoin="round"/>
<rect x="33.5" y="228.775" width="22.5" height="22.5" fill="#F9F9F9" stroke="black" stroke-width="2" stroke-linejoin="round"/>
<rect x="66" y="1.27539" width="22.5" height="22.5" fill="#F9F9F9" stroke="black" stroke-width="2" stroke-linejoin="round"/>
<rect x="66" y="33.7754" width="22.5" height="22.5" fill="#F9F9F9" stroke="black" stroke-width="2" stroke-linejoin="round"/>
<rect x="66" y="66.2754" width="22.5" height="22.5" fill="#F9F9F9" stroke="black" stroke-width="2" stroke-linejoin="round"/>
<rect x="66" y="98.7754" width="22.5" height="22.5" fill="#F9F9F9" stroke="black" stroke-width="2" stroke-linejoin="round"/>
<rect x="66" y="131.275" width="22.5" height="22.5" fill="#F9F9F9" stroke="black" stroke-width="2" stroke-linejoin="round"/>
<rect x="66" y="163.775" width="22.5" height="22.5" fill="#F9F9F9" stroke="black" stroke-width="2" stroke-linejoin="round"/>
<rect x="66" y="196.275" width="22.5" height="22.5" fill="#F9F9F9" stroke="black" stroke-width="2" stroke-linejoin="round"/>
<rect x="66" y="228.775" width="22.5" height="22.5" fill="#F9F9F9" stroke="black" stroke-width="2" stroke-linejoin="round"/>
<rect x="98.5" y="1.27539" width="22.5" height="22.5" fill="#F9F9F9" stroke="black" stroke-width="2" stroke-linejoin="round"/>
<rect x="98.5" y="33.7754" width="22.5" height="22.5" fill="#F9F9F9" stroke="black" stroke-width="2" stroke-linejoin="round"/>
<rect x="98.5" y="66.2754" width="22.5" height="22.5" fill="#F9F9F9" stroke="black" stroke-width="2" stroke-linejoin="round"/>
<rect x="98.5" y="98.7754" width="22.5" height="22.5" fill="#F9F9F9" stroke="black" stroke-width="2" stroke-linejoin="round"/>
<rect x="98.5" y="131.275" width="22.5" height="22.5" fill="#F9F9F9" stroke="black" stroke-width="2" stroke-linejoin="round"/>
<rect x="98.5" y="163.775" width="22.5" height="22.5" fill="#F9F9F9" stroke="black" stroke-width="2" stroke-linejoin="round"/>
<rect x="98.5" y="196.275" width="22.5" height="22.5" fill="#F9F9F9" stroke="black" stroke-width="2" stroke-linejoin="round"/>
<rect x="98.5" y="228.775" width="22.5" height="22.5" fill="#F9F9F9" stroke="black" stroke-width="2" stroke-linejoin="round"/>
<rect x="131" y="1.27539" width="22.5" height="22.5" fill="#F9F9F9" stroke="black" stroke-width="2" stroke-linejoin="round"/>
<rect x="131" y="33.7754" width="22.5" height="22.5" fill="#F9F9F9" stroke="black" stroke-width="2" stroke-linejoin="round"/>
<rect x="131" y="66.2754" width="22.5" height="22.5" fill="#F9F9F9" stroke="black" stroke-width="2" stroke-linejoin="round"/>
<rect x="131" y="98.7754" width="22.5" height="22.5" fill="#F9F9F9" stroke="black" stroke-width="2" stroke-linejoin="round"/>
<rect x="131" y="131.275" width="22.5" height="22.5" fill="#F9F9F9" stroke="black" stroke-width="2" stroke-linejoin="round"/>
<rect x="131" y="163.775" width="22.5" height="22.5" fill="#F9F9F9" stroke="black" stroke-width="2" stroke-linejoin="round"/>
<rect x="131" y="196.275" width="22.5" height="22.5" fill="#F9F9F9" stroke="black" stroke-width="2" stroke-linejoin="round"/>
<rect x="131" y="228.775" width="22.5" height="22.5" fill="#F9F9F9" stroke="black" stroke-width="2" stroke-linejoin="round"/>
<rect x="163.5" y="1.27539" width="22.5" height="22.5" fill="#F9F9F9" stroke="black" stroke-width="2" stroke-linejoin="round"/>
<rect x="163.5" y="33.7754" width="22.5" height="22.5" fill="#F9F9F9" stroke="black" stroke-width="2" stroke-linejoin="round"/>
<rect x="163.5" y="66.2754" width="22.5" height="22.5" fill="#F9F9F9" stroke="black" stroke-width="2" stroke-linejoin="round"/>
<rect x="163.5" y="98.7754" width="22.5" height="22.5" fill="#F9F9F9" stroke="black" stroke-width="2" stroke-linejoin="round"/>
<rect x="163.5" y="131.275" width="22.5" height="22.5" fill="#F9F9F9" stroke="black" stroke-width="2" stroke-linejoin="round"/>
<rect x="163.5" y="163.775" width="22.5" height="22.5" fill="#F9F9F9" stroke="black" stroke-width="2" stroke-linejoin="round"/>
<rect x="163.5" y="196.275" width="22.5" height="22.5" fill="#F9F9F9" stroke="black" stroke-width="2" stroke-linejoin="round"/>
<rect x="163.5" y="228.775" width="22.5" height="22.5" fill="#F9F9F9" stroke="black" stroke-width="2" stroke-linejoin="round"/>
<rect x="196" y="1.27539" width="22.5" height="22.5" fill="#F9F9F9" stroke="black" stroke-width="2" stroke-linejoin="round"/>
<rect x="196" y="33.7754" width="22.5" height="22.5" fill="#F9F9F9" stroke="black" stroke-width="2" stroke-linejoin="round"/>
<rect x="196" y="66.2754" width="22.5" height="22.5" fill="#F9F9F9" stroke="black" stroke-width="2" stroke-linejoin="round"/>
<rect x="196" y="98.7754" width="22.5" height="22.5" fill="#F9F9F9" stroke="black" stroke-width="2" stroke-linejoin="round"/>
<rect x="196" y="131.275" width="22.5" height="22.5" fill="#F9F9F9" stroke="black" stroke-width="2" stroke-linejoin="round"/>
<rect x="196" y="163.775" width="22.5" height="22.5" fill="#F9F9F9" stroke="black" stroke-width="2" stroke-linejoin="round"/>
<rect x="196" y="196.275" width="22.5" height="22.5" fill="#F9F9F9" stroke="black" stroke-width="2" stroke-linejoin="round"/>
<rect x="196" y="228.775" width="22.5" height="22.5" fill="#F9F9F9" stroke="black" stroke-width="2" stroke-linejoin="round"/>
<rect x="228.5" y="1.27539" width="22.5" height="22.5" fill="#F9F9F9" stroke="black" stroke-width="2" stroke-linejoin="round"/>
<rect x="228.5" y="33.7754" width="22.5" height="22.5" fill="#F9F9F9" stroke="black" stroke-width="2" stroke-linejoin="round"/>
<rect x="228.5" y="66.2754" width="22.5" height="22.5" fill="#F9F9F9" stroke="black" stroke-width="2" stroke-linejoin="round"/>
<rect x="228.5" y="98.7754" width="22.5" height="22.5" fill="#F9F9F9" stroke="black" stroke-width="2" stroke-linejoin="round"/>
<rect x="228.5" y="131.275" width="22.5" height="22.5" fill="#F9F9F9" stroke="black" stroke-width="2" stroke-linejoin="round"/>
<rect x="228.5" y="163.775" width="22.5" height="22.5" fill="#F9F9F9" stroke="black" stroke-width="2" stroke-linejoin="round"/>
<rect x="228.5" y="196.275" width="22.5" height="22.5" fill="#F9F9F9" stroke="black" stroke-width="2" stroke-linejoin="round"/>
<rect x="228.5" y="228.775" width="22.5" height="22.5" fill="#F9F9F9" stroke="black" stroke-width="2" stroke-linejoin="round"/>
</svg>
