<svg width="252" height="253" viewBox="0 0 252 253" fill="none" xmlns="http://www.w3.org/2000/svg">
<path d="M1 57.5254C1 26.4594 26.184 1.27539 57.25 1.27539C88.316 1.27539 113.5 26.4594 113.5 57.5254C113.5 88.5914 88.316 113.775 57.25 113.775C26.184 113.775 1 88.5914 1 57.5254Z" fill="#F9F9F9" stroke="black" stroke-width="2" stroke-linejoin="round"/>
<path d="M1 195.025C1 163.959 26.184 138.775 57.25 138.775C88.316 138.775 113.5 163.959 113.5 195.025C113.5 226.091 88.316 251.275 57.25 251.275C26.184 251.275 1 226.091 1 195.025Z" fill="#F9F9F9" stroke="black" stroke-width="2" stroke-linejoin="round"/>
<path d="M138.5 57.5254C138.5 26.4594 163.684 1.27539 194.75 1.27539C225.816 1.27539 251 26.4594 251 57.5254C251 88.5914 225.816 113.775 194.75 113.775C163.684 113.775 138.5 88.5914 138.5 57.5254Z" fill="#F9F9F9" stroke="black" stroke-width="2" stroke-linejoin="round"/>
<path d="M138.5 195.025C138.5 163.959 163.684 138.775 194.75 138.775C225.816 138.775 251 163.959 251 195.025C251 226.091 225.816 251.275 194.75 251.275C163.684 251.275 138.5 226.091 138.5 195.025Z" fill="#F9F9F9" stroke="black" stroke-width="2" stroke-linejoin="round"/>
</svg>
