<svg width="252" height="253" viewBox="0 0 252 253" fill="none" xmlns="http://www.w3.org/2000/svg">
<path d="M1 34.6087C1 16.1992 15.9238 1.27539 34.3333 1.27539C52.7428 1.27539 67.6667 16.1992 67.6667 34.6087C67.6667 53.0182 52.7428 67.9421 34.3333 67.9421C15.9238 67.9421 1 53.0182 1 34.6087Z" fill="#F9F9F9" stroke="black" stroke-width="2" stroke-linejoin="round"/>
<path d="M1 126.275C1 107.866 15.9238 92.9421 34.3333 92.9421C52.7428 92.9421 67.6667 107.866 67.6667 126.275C67.6667 144.685 52.7428 159.609 34.3333 159.609C15.9238 159.609 1 144.685 1 126.275Z" fill="#F9F9F9" stroke="black" stroke-width="2" stroke-linejoin="round"/>
<path d="M1 217.942C1 199.533 15.9238 184.609 34.3333 184.609C52.7428 184.609 67.6667 199.533 67.6667 217.942C67.6667 236.352 52.7428 251.275 34.3333 251.275C15.9238 251.275 1 236.352 1 217.942Z" fill="#F9F9F9" stroke="black" stroke-width="2" stroke-linejoin="round"/>
<path d="M92.6667 34.6087C92.6667 16.1992 107.591 1.27539 126 1.27539C144.41 1.27539 159.333 16.1992 159.333 34.6087C159.333 53.0182 144.41 67.9421 126 67.9421C107.591 67.9421 92.6667 53.0182 92.6667 34.6087Z" fill="#F9F9F9" stroke="black" stroke-width="2" stroke-linejoin="round"/>
<path d="M92.6667 126.275C92.6667 107.866 107.591 92.9421 126 92.9421C144.41 92.9421 159.333 107.866 159.333 126.275C159.333 144.685 144.41 159.609 126 159.609C107.591 159.609 92.6667 144.685 92.6667 126.275Z" fill="#F9F9F9" stroke="black" stroke-width="2" stroke-linejoin="round"/>
<path d="M92.6667 217.942C92.6667 199.533 107.591 184.609 126 184.609C144.41 184.609 159.333 199.533 159.333 217.942C159.333 236.352 144.41 251.275 126 251.275C107.591 251.275 92.6667 236.352 92.6667 217.942Z" fill="#F9F9F9" stroke="black" stroke-width="2" stroke-linejoin="round"/>
<path d="M184.333 34.6087C184.333 16.1992 199.257 1.27539 217.667 1.27539C236.076 1.27539 251 16.1992 251 34.6087C251 53.0182 236.076 67.9421 217.667 67.9421C199.257 67.9421 184.333 53.0182 184.333 34.6087Z" fill="#F9F9F9" stroke="black" stroke-width="2" stroke-linejoin="round"/>
<path d="M184.333 126.275C184.333 107.866 199.257 92.9421 217.667 92.9421C236.076 92.9421 251 107.866 251 126.275C251 144.685 236.076 159.609 217.667 159.609C199.257 159.609 184.333 144.685 184.333 126.275Z" fill="#F9F9F9" stroke="black" stroke-width="2" stroke-linejoin="round"/>
<path d="M184.333 217.942C184.333 199.533 199.257 184.609 217.667 184.609C236.076 184.609 251 199.533 251 217.942C251 236.352 236.076 251.275 217.667 251.275C199.257 251.275 184.333 236.352 184.333 217.942Z" fill="#F9F9F9" stroke="black" stroke-width="2" stroke-linejoin="round"/>
</svg>
