<svg width="252" height="253" viewBox="0 0 252 253" fill="none" xmlns="http://www.w3.org/2000/svg">
<path d="M1 23.1504C1 11.0692 10.7938 1.27539 22.875 1.27539C34.9562 1.27539 44.75 11.0692 44.75 23.1504C44.75 35.2316 34.9562 45.0254 22.875 45.0254C10.7938 45.0254 1 35.2316 1 23.1504Z" fill="#F9F9F9" stroke="black" stroke-width="2" stroke-linejoin="round"/>
<path d="M1 91.9004C1 79.8192 10.7938 70.0254 22.875 70.0254C34.9562 70.0254 44.75 79.8192 44.75 91.9004C44.75 103.982 34.9562 113.775 22.875 113.775C10.7938 113.775 1 103.982 1 91.9004Z" fill="#F9F9F9" stroke="black" stroke-width="2" stroke-linejoin="round"/>
<path d="M1 160.65C1 148.569 10.7938 138.775 22.875 138.775C34.9562 138.775 44.75 148.569 44.75 160.65C44.75 172.732 34.9562 182.525 22.875 182.525C10.7938 182.525 1 172.732 1 160.65Z" fill="#F9F9F9" stroke="black" stroke-width="2" stroke-linejoin="round"/>
<path d="M1 229.4C1 217.319 10.7938 207.525 22.875 207.525C34.9562 207.525 44.75 217.319 44.75 229.4C44.75 241.482 34.9562 251.275 22.875 251.275C10.7938 251.275 1 241.482 1 229.4Z" fill="#F9F9F9" stroke="black" stroke-width="2" stroke-linejoin="round"/>
<path d="M69.75 23.1504C69.75 11.0692 79.5438 1.27539 91.625 1.27539C103.706 1.27539 113.5 11.0692 113.5 23.1504C113.5 35.2316 103.706 45.0254 91.625 45.0254C79.5438 45.0254 69.75 35.2316 69.75 23.1504Z" fill="#F9F9F9" stroke="black" stroke-width="2" stroke-linejoin="round"/>
<path d="M69.75 91.9004C69.75 79.8192 79.5438 70.0254 91.625 70.0254C103.706 70.0254 113.5 79.8192 113.5 91.9004C113.5 103.982 103.706 113.775 91.625 113.775C79.5438 113.775 69.75 103.982 69.75 91.9004Z" fill="#F9F9F9" stroke="black" stroke-width="2" stroke-linejoin="round"/>
<path d="M69.75 160.65C69.75 148.569 79.5438 138.775 91.625 138.775C103.706 138.775 113.5 148.569 113.5 160.65C113.5 172.732 103.706 182.525 91.625 182.525C79.5438 182.525 69.75 172.732 69.75 160.65Z" fill="#F9F9F9" stroke="black" stroke-width="2" stroke-linejoin="round"/>
<path d="M69.75 229.4C69.75 217.319 79.5438 207.525 91.625 207.525C103.706 207.525 113.5 217.319 113.5 229.4C113.5 241.482 103.706 251.275 91.625 251.275C79.5438 251.275 69.75 241.482 69.75 229.4Z" fill="#F9F9F9" stroke="black" stroke-width="2" stroke-linejoin="round"/>
<path d="M138.5 23.1504C138.5 11.0692 148.294 1.27539 160.375 1.27539C172.456 1.27539 182.25 11.0692 182.25 23.1504C182.25 35.2316 172.456 45.0254 160.375 45.0254C148.294 45.0254 138.5 35.2316 138.5 23.1504Z" fill="#F9F9F9" stroke="black" stroke-width="2" stroke-linejoin="round"/>
<path d="M138.5 91.9004C138.5 79.8192 148.294 70.0254 160.375 70.0254C172.456 70.0254 182.25 79.8192 182.25 91.9004C182.25 103.982 172.456 113.775 160.375 113.775C148.294 113.775 138.5 103.982 138.5 91.9004Z" fill="#F9F9F9" stroke="black" stroke-width="2" stroke-linejoin="round"/>
<path d="M138.5 160.65C138.5 148.569 148.294 138.775 160.375 138.775C172.456 138.775 182.25 148.569 182.25 160.65C182.25 172.732 172.456 182.525 160.375 182.525C148.294 182.525 138.5 172.732 138.5 160.65Z" fill="#F9F9F9" stroke="black" stroke-width="2" stroke-linejoin="round"/>
<path d="M138.5 229.4C138.5 217.319 148.294 207.525 160.375 207.525C172.456 207.525 182.25 217.319 182.25 229.4C182.25 241.482 172.456 251.275 160.375 251.275C148.294 251.275 138.5 241.482 138.5 229.4Z" fill="#F9F9F9" stroke="black" stroke-width="2" stroke-linejoin="round"/>
<path d="M207.25 23.1504C207.25 11.0692 217.044 1.27539 229.125 1.27539C241.206 1.27539 251 11.0692 251 23.1504C251 35.2316 241.206 45.0254 229.125 45.0254C217.044 45.0254 207.25 35.2316 207.25 23.1504Z" fill="#F9F9F9" stroke="black" stroke-width="2" stroke-linejoin="round"/>
<path d="M207.25 91.9004C207.25 79.8192 217.044 70.0254 229.125 70.0254C241.206 70.0254 251 79.8192 251 91.9004C251 103.982 241.206 113.775 229.125 113.775C217.044 113.775 207.25 103.982 207.25 91.9004Z" fill="#F9F9F9" stroke="black" stroke-width="2" stroke-linejoin="round"/>
<path d="M207.25 160.65C207.25 148.569 217.044 138.775 229.125 138.775C241.206 138.775 251 148.569 251 160.65C251 172.732 241.206 182.525 229.125 182.525C217.044 182.525 207.25 172.732 207.25 160.65Z" fill="#F9F9F9" stroke="black" stroke-width="2" stroke-linejoin="round"/>
<path d="M207.25 229.4C207.25 217.319 217.044 207.525 229.125 207.525C241.206 207.525 251 217.319 251 229.4C251 241.482 241.206 251.275 229.125 251.275C217.044 251.275 207.25 241.482 207.25 229.4Z" fill="#F9F9F9" stroke="black" stroke-width="2" stroke-linejoin="round"/>
</svg>
