<svg width="252" height="253" viewBox="0 0 252 253" fill="none" xmlns="http://www.w3.org/2000/svg">
<path d="M1 18.2754C1 8.88655 8.61116 1.27539 18 1.27539C27.3888 1.27539 35 8.88655 35 18.2754C35 27.6642 27.3888 35.2754 18 35.2754C8.61116 35.2754 1 27.6642 1 18.2754Z" fill="#F9F9F9" stroke="black" stroke-width="2" stroke-linejoin="round"/>
<path d="M1 72.2754C1 62.8865 8.61116 55.2754 18 55.2754C27.3888 55.2754 35 62.8865 35 72.2754C35 81.6642 27.3888 89.2754 18 89.2754C8.61116 89.2754 1 81.6642 1 72.2754Z" fill="#F9F9F9" stroke="black" stroke-width="2" stroke-linejoin="round"/>
<path d="M1 126.275C1 116.887 8.61116 109.275 18 109.275C27.3888 109.275 35 116.887 35 126.275C35 135.664 27.3888 143.275 18 143.275C8.61116 143.275 1 135.664 1 126.275Z" fill="#F9F9F9" stroke="black" stroke-width="2" stroke-linejoin="round"/>
<path d="M1 180.275C1 170.887 8.61116 163.275 18 163.275C27.3888 163.275 35 170.887 35 180.275C35 189.664 27.3888 197.275 18 197.275C8.61116 197.275 1 189.664 1 180.275Z" fill="#F9F9F9" stroke="black" stroke-width="2" stroke-linejoin="round"/>
<path d="M1 234.275C1 224.887 8.61116 217.275 18 217.275C27.3888 217.275 35 224.887 35 234.275C35 243.664 27.3888 251.275 18 251.275C8.61116 251.275 1 243.664 1 234.275Z" fill="#F9F9F9" stroke="black" stroke-width="2" stroke-linejoin="round"/>
<path d="M55 18.2754C55 8.88655 62.6112 1.27539 72 1.27539C81.3888 1.27539 89 8.88655 89 18.2754C89 27.6642 81.3888 35.2754 72 35.2754C62.6112 35.2754 55 27.6642 55 18.2754Z" fill="#F9F9F9" stroke="black" stroke-width="2" stroke-linejoin="round"/>
<path d="M55 72.2754C55 62.8865 62.6112 55.2754 72 55.2754C81.3888 55.2754 89 62.8865 89 72.2754C89 81.6642 81.3888 89.2754 72 89.2754C62.6112 89.2754 55 81.6642 55 72.2754Z" fill="#F9F9F9" stroke="black" stroke-width="2" stroke-linejoin="round"/>
<path d="M55 126.275C55 116.887 62.6112 109.275 72 109.275C81.3888 109.275 89 116.887 89 126.275C89 135.664 81.3888 143.275 72 143.275C62.6112 143.275 55 135.664 55 126.275Z" fill="#F9F9F9" stroke="black" stroke-width="2" stroke-linejoin="round"/>
<path d="M55 180.275C55 170.887 62.6112 163.275 72 163.275C81.3888 163.275 89 170.887 89 180.275C89 189.664 81.3888 197.275 72 197.275C62.6112 197.275 55 189.664 55 180.275Z" fill="#F9F9F9" stroke="black" stroke-width="2" stroke-linejoin="round"/>
<path d="M55 234.275C55 224.887 62.6112 217.275 72 217.275C81.3888 217.275 89 224.887 89 234.275C89 243.664 81.3888 251.275 72 251.275C62.6112 251.275 55 243.664 55 234.275Z" fill="#F9F9F9" stroke="black" stroke-width="2" stroke-linejoin="round"/>
<path d="M109 18.2754C109 8.88655 116.611 1.27539 126 1.27539C135.389 1.27539 143 8.88655 143 18.2754C143 27.6642 135.389 35.2754 126 35.2754C116.611 35.2754 109 27.6642 109 18.2754Z" fill="#F9F9F9" stroke="black" stroke-width="2" stroke-linejoin="round"/>
<path d="M109 72.2754C109 62.8865 116.611 55.2754 126 55.2754C135.389 55.2754 143 62.8865 143 72.2754C143 81.6642 135.389 89.2754 126 89.2754C116.611 89.2754 109 81.6642 109 72.2754Z" fill="#F9F9F9" stroke="black" stroke-width="2" stroke-linejoin="round"/>
<path d="M109 126.275C109 116.887 116.611 109.275 126 109.275C135.389 109.275 143 116.887 143 126.275C143 135.664 135.389 143.275 126 143.275C116.611 143.275 109 135.664 109 126.275Z" fill="#F9F9F9" stroke="black" stroke-width="2" stroke-linejoin="round"/>
<path d="M109 180.275C109 170.887 116.611 163.275 126 163.275C135.389 163.275 143 170.887 143 180.275C143 189.664 135.389 197.275 126 197.275C116.611 197.275 109 189.664 109 180.275Z" fill="#F9F9F9" stroke="black" stroke-width="2" stroke-linejoin="round"/>
<path d="M109 234.275C109 224.887 116.611 217.275 126 217.275C135.389 217.275 143 224.887 143 234.275C143 243.664 135.389 251.275 126 251.275C116.611 251.275 109 243.664 109 234.275Z" fill="#F9F9F9" stroke="black" stroke-width="2" stroke-linejoin="round"/>
<path d="M163 18.2754C163 8.88655 170.611 1.27539 180 1.27539C189.389 1.27539 197 8.88655 197 18.2754C197 27.6642 189.389 35.2754 180 35.2754C170.611 35.2754 163 27.6642 163 18.2754Z" fill="#F9F9F9" stroke="black" stroke-width="2" stroke-linejoin="round"/>
<path d="M163 72.2754C163 62.8865 170.611 55.2754 180 55.2754C189.389 55.2754 197 62.8865 197 72.2754C197 81.6642 189.389 89.2754 180 89.2754C170.611 89.2754 163 81.6642 163 72.2754Z" fill="#F9F9F9" stroke="black" stroke-width="2" stroke-linejoin="round"/>
<path d="M163 126.275C163 116.887 170.611 109.275 180 109.275C189.389 109.275 197 116.887 197 126.275C197 135.664 189.389 143.275 180 143.275C170.611 143.275 163 135.664 163 126.275Z" fill="#F9F9F9" stroke="black" stroke-width="2" stroke-linejoin="round"/>
<path d="M163 180.275C163 170.887 170.611 163.275 180 163.275C189.389 163.275 197 170.887 197 180.275C197 189.664 189.389 197.275 180 197.275C170.611 197.275 163 189.664 163 180.275Z" fill="#F9F9F9" stroke="black" stroke-width="2" stroke-linejoin="round"/>
<path d="M163 234.275C163 224.887 170.611 217.275 180 217.275C189.389 217.275 197 224.887 197 234.275C197 243.664 189.389 251.275 180 251.275C170.611 251.275 163 243.664 163 234.275Z" fill="#F9F9F9" stroke="black" stroke-width="2" stroke-linejoin="round"/>
<path d="M217 18.2754C217 8.88655 224.611 1.27539 234 1.27539C243.389 1.27539 251 8.88655 251 18.2754C251 27.6642 243.389 35.2754 234 35.2754C224.611 35.2754 217 27.6642 217 18.2754Z" fill="#F9F9F9" stroke="black" stroke-width="2" stroke-linejoin="round"/>
<path d="M217 72.2754C217 62.8865 224.611 55.2754 234 55.2754C243.389 55.2754 251 62.8865 251 72.2754C251 81.6642 243.389 89.2754 234 89.2754C224.611 89.2754 217 81.6642 217 72.2754Z" fill="#F9F9F9" stroke="black" stroke-width="2" stroke-linejoin="round"/>
<path d="M217 126.275C217 116.887 224.611 109.275 234 109.275C243.389 109.275 251 116.887 251 126.275C251 135.664 243.389 143.275 234 143.275C224.611 143.275 217 135.664 217 126.275Z" fill="#F9F9F9" stroke="black" stroke-width="2" stroke-linejoin="round"/>
<path d="M217 180.275C217 170.887 224.611 163.275 234 163.275C243.389 163.275 251 170.887 251 180.275C251 189.664 243.389 197.275 234 197.275C224.611 197.275 217 189.664 217 180.275Z" fill="#F9F9F9" stroke="black" stroke-width="2" stroke-linejoin="round"/>
<path d="M217 234.275C217 224.887 224.611 217.275 234 217.275C243.389 217.275 251 224.887 251 234.275C251 243.664 243.389 251.275 234 251.275C224.611 251.275 217 243.664 217 234.275Z" fill="#F9F9F9" stroke="black" stroke-width="2" stroke-linejoin="round"/>
</svg>
