<svg width="252" height="253" viewBox="0 0 252 253" fill="none" xmlns="http://www.w3.org/2000/svg">
<path d="M1 15.8587C1 7.80457 7.52918 1.27539 15.5833 1.27539C23.6375 1.27539 30.1667 7.80457 30.1667 15.8587C30.1667 23.9129 23.6375 30.4421 15.5833 30.4421C7.52918 30.4421 1 23.9129 1 15.8587Z" fill="#F9F9F9" stroke="black" stroke-width="2" stroke-linejoin="round"/>
<path d="M1 60.0254C1 51.9713 7.52918 45.4421 15.5833 45.4421C23.6375 45.4421 30.1667 51.9713 30.1667 60.0254C30.1667 68.0796 23.6375 74.6087 15.5833 74.6087C7.52918 74.6087 1 68.0796 1 60.0254Z" fill="#F9F9F9" stroke="black" stroke-width="2" stroke-linejoin="round"/>
<path d="M1 104.192C1 96.1381 7.52918 89.6089 15.5833 89.6089C23.6375 89.6089 30.1667 96.1381 30.1667 104.192C30.1667 112.246 23.6375 118.776 15.5833 118.776C7.52918 118.776 1 112.246 1 104.192Z" fill="#F9F9F9" stroke="black" stroke-width="2" stroke-linejoin="round"/>
<path d="M1 148.359C1 140.305 7.52918 133.775 15.5833 133.775C23.6375 133.775 30.1667 140.305 30.1667 148.359C30.1667 156.413 23.6375 162.942 15.5833 162.942C7.52918 162.942 1 156.413 1 148.359Z" fill="#F9F9F9" stroke="black" stroke-width="2" stroke-linejoin="round"/>
<path d="M1 192.525C1 184.471 7.52918 177.942 15.5833 177.942C23.6375 177.942 30.1667 184.471 30.1667 192.525C30.1667 200.58 23.6375 207.109 15.5833 207.109C7.52918 207.109 1 200.58 1 192.525Z" fill="#F9F9F9" stroke="black" stroke-width="2" stroke-linejoin="round"/>
<path d="M1 236.692C1 228.638 7.52918 222.109 15.5833 222.109C23.6375 222.109 30.1667 228.638 30.1667 236.692C30.1667 244.746 23.6375 251.275 15.5833 251.275C7.52918 251.275 1 244.746 1 236.692Z" fill="#F9F9F9" stroke="black" stroke-width="2" stroke-linejoin="round"/>
<path d="M45.1667 15.8587C45.1667 7.80457 51.6959 1.27539 59.75 1.27539C67.8042 1.27539 74.3334 7.80457 74.3334 15.8587C74.3334 23.9129 67.8042 30.4421 59.75 30.4421C51.6959 30.4421 45.1667 23.9129 45.1667 15.8587Z" fill="#F9F9F9" stroke="black" stroke-width="2" stroke-linejoin="round"/>
<path d="M45.1667 60.0254C45.1667 51.9713 51.6959 45.4421 59.75 45.4421C67.8042 45.4421 74.3334 51.9713 74.3334 60.0254C74.3334 68.0796 67.8042 74.6087 59.75 74.6087C51.6959 74.6087 45.1667 68.0796 45.1667 60.0254Z" fill="#F9F9F9" stroke="black" stroke-width="2" stroke-linejoin="round"/>
<path d="M45.1665 104.192C45.1665 96.1381 51.6957 89.6089 59.7498 89.6089C67.804 89.6089 74.3332 96.1381 74.3332 104.192C74.3332 112.246 67.804 118.776 59.7498 118.776C51.6957 118.776 45.1665 112.246 45.1665 104.192Z" fill="#F9F9F9" stroke="black" stroke-width="2" stroke-linejoin="round"/>
<path d="M45.1667 148.359C45.1667 140.305 51.6959 133.775 59.75 133.775C67.8042 133.775 74.3334 140.305 74.3334 148.359C74.3334 156.413 67.8042 162.942 59.75 162.942C51.6959 162.942 45.1667 156.413 45.1667 148.359Z" fill="#F9F9F9" stroke="black" stroke-width="2" stroke-linejoin="round"/>
<path d="M45.1667 192.525C45.1667 184.471 51.6959 177.942 59.75 177.942C67.8042 177.942 74.3334 184.471 74.3334 192.525C74.3334 200.58 67.8042 207.109 59.75 207.109C51.6959 207.109 45.1667 200.58 45.1667 192.525Z" fill="#F9F9F9" stroke="black" stroke-width="2" stroke-linejoin="round"/>
<path d="M45.1667 236.692C45.1667 228.638 51.6959 222.109 59.75 222.109C67.8042 222.109 74.3334 228.638 74.3334 236.692C74.3334 244.746 67.8042 251.275 59.75 251.275C51.6959 251.275 45.1667 244.746 45.1667 236.692Z" fill="#F9F9F9" stroke="black" stroke-width="2" stroke-linejoin="round"/>
<path d="M89.3333 15.8587C89.3333 7.80457 95.8625 1.27539 103.917 1.27539C111.971 1.27539 118.5 7.80457 118.5 15.8587C118.5 23.9129 111.971 30.4421 103.917 30.4421C95.8625 30.4421 89.3333 23.9129 89.3333 15.8587Z" fill="#F9F9F9" stroke="black" stroke-width="2" stroke-linejoin="round"/>
<path d="M89.3333 60.0254C89.3333 51.9713 95.8625 45.4421 103.917 45.4421C111.971 45.4421 118.5 51.9713 118.5 60.0254C118.5 68.0796 111.971 74.6087 103.917 74.6087C95.8625 74.6087 89.3333 68.0796 89.3333 60.0254Z" fill="#F9F9F9" stroke="black" stroke-width="2" stroke-linejoin="round"/>
<path d="M89.3333 104.192C89.3333 96.1379 95.8625 89.6087 103.917 89.6087C111.971 89.6087 118.5 96.1379 118.5 104.192C118.5 112.246 111.971 118.775 103.917 118.775C95.8625 118.775 89.3333 112.246 89.3333 104.192Z" fill="#F9F9F9" stroke="black" stroke-width="2" stroke-linejoin="round"/>
<path d="M89.3333 148.359C89.3333 140.305 95.8625 133.775 103.917 133.775C111.971 133.775 118.5 140.305 118.5 148.359C118.5 156.413 111.971 162.942 103.917 162.942C95.8625 162.942 89.3333 156.413 89.3333 148.359Z" fill="#F9F9F9" stroke="black" stroke-width="2" stroke-linejoin="round"/>
<path d="M89.3333 192.525C89.3333 184.471 95.8625 177.942 103.917 177.942C111.971 177.942 118.5 184.471 118.5 192.525C118.5 200.58 111.971 207.109 103.917 207.109C95.8625 207.109 89.3333 200.58 89.3333 192.525Z" fill="#F9F9F9" stroke="black" stroke-width="2" stroke-linejoin="round"/>
<path d="M89.3333 236.692C89.3333 228.638 95.8625 222.109 103.917 222.109C111.971 222.109 118.5 228.638 118.5 236.692C118.5 244.746 111.971 251.275 103.917 251.275C95.8625 251.275 89.3333 244.746 89.3333 236.692Z" fill="#F9F9F9" stroke="black" stroke-width="2" stroke-linejoin="round"/>
<path d="M133.5 15.8587C133.5 7.80457 140.029 1.27539 148.083 1.27539C156.137 1.27539 162.667 7.80457 162.667 15.8587C162.667 23.9129 156.137 30.4421 148.083 30.4421C140.029 30.4421 133.5 23.9129 133.5 15.8587Z" fill="#F9F9F9" stroke="black" stroke-width="2" stroke-linejoin="round"/>
<path d="M133.5 60.0254C133.5 51.9713 140.029 45.4421 148.083 45.4421C156.137 45.4421 162.667 51.9713 162.667 60.0254C162.667 68.0796 156.137 74.6087 148.083 74.6087C140.029 74.6087 133.5 68.0796 133.5 60.0254Z" fill="#F9F9F9" stroke="black" stroke-width="2" stroke-linejoin="round"/>
<path d="M133.5 104.192C133.5 96.1379 140.029 89.6087 148.083 89.6087C156.137 89.6087 162.667 96.1379 162.667 104.192C162.667 112.246 156.137 118.775 148.083 118.775C140.029 118.775 133.5 112.246 133.5 104.192Z" fill="#F9F9F9" stroke="black" stroke-width="2" stroke-linejoin="round"/>
<path d="M133.5 148.359C133.5 140.305 140.029 133.775 148.083 133.775C156.137 133.775 162.667 140.305 162.667 148.359C162.667 156.413 156.137 162.942 148.083 162.942C140.029 162.942 133.5 156.413 133.5 148.359Z" fill="#F9F9F9" stroke="black" stroke-width="2" stroke-linejoin="round"/>
<path d="M133.5 192.525C133.5 184.471 140.029 177.942 148.083 177.942C156.137 177.942 162.667 184.471 162.667 192.525C162.667 200.58 156.137 207.109 148.083 207.109C140.029 207.109 133.5 200.58 133.5 192.525Z" fill="#F9F9F9" stroke="black" stroke-width="2" stroke-linejoin="round"/>
<path d="M133.5 236.692C133.5 228.638 140.029 222.109 148.083 222.109C156.137 222.109 162.667 228.638 162.667 236.692C162.667 244.746 156.137 251.275 148.083 251.275C140.029 251.275 133.5 244.746 133.5 236.692Z" fill="#F9F9F9" stroke="black" stroke-width="2" stroke-linejoin="round"/>
<path d="M177.667 15.8587C177.667 7.80457 184.196 1.27539 192.25 1.27539C200.304 1.27539 206.833 7.80457 206.833 15.8587C206.833 23.9129 200.304 30.4421 192.25 30.4421C184.196 30.4421 177.667 23.9129 177.667 15.8587Z" fill="#F9F9F9" stroke="black" stroke-width="2" stroke-linejoin="round"/>
<path d="M177.667 60.0254C177.667 51.9713 184.196 45.4421 192.25 45.4421C200.304 45.4421 206.833 51.9713 206.833 60.0254C206.833 68.0796 200.304 74.6087 192.25 74.6087C184.196 74.6087 177.667 68.0796 177.667 60.0254Z" fill="#F9F9F9" stroke="black" stroke-width="2" stroke-linejoin="round"/>
<path d="M177.667 104.192C177.667 96.1379 184.196 89.6087 192.25 89.6087C200.304 89.6087 206.833 96.1379 206.833 104.192C206.833 112.246 200.304 118.775 192.25 118.775C184.196 118.775 177.667 112.246 177.667 104.192Z" fill="#F9F9F9" stroke="black" stroke-width="2" stroke-linejoin="round"/>
<path d="M177.667 148.359C177.667 140.305 184.196 133.775 192.25 133.775C200.304 133.775 206.833 140.305 206.833 148.359C206.833 156.413 200.304 162.942 192.25 162.942C184.196 162.942 177.667 156.413 177.667 148.359Z" fill="#F9F9F9" stroke="black" stroke-width="2" stroke-linejoin="round"/>
<path d="M177.667 192.525C177.667 184.471 184.196 177.942 192.25 177.942C200.304 177.942 206.833 184.471 206.833 192.525C206.833 200.58 200.304 207.109 192.25 207.109C184.196 207.109 177.667 200.58 177.667 192.525Z" fill="#F9F9F9" stroke="black" stroke-width="2" stroke-linejoin="round"/>
<path d="M177.667 236.692C177.667 228.638 184.196 222.109 192.25 222.109C200.304 222.109 206.833 228.638 206.833 236.692C206.833 244.746 200.304 251.275 192.25 251.275C184.196 251.275 177.667 244.746 177.667 236.692Z" fill="#F9F9F9" stroke="black" stroke-width="2" stroke-linejoin="round"/>
<path d="M221.833 15.8587C221.833 7.80457 228.363 1.27539 236.417 1.27539C244.471 1.27539 251 7.80457 251 15.8587C251 23.9129 244.471 30.4421 236.417 30.4421C228.363 30.4421 221.833 23.9129 221.833 15.8587Z" fill="#F9F9F9" stroke="black" stroke-width="2" stroke-linejoin="round"/>
<path d="M221.833 60.0254C221.833 51.9713 228.363 45.4421 236.417 45.4421C244.471 45.4421 251 51.9713 251 60.0254C251 68.0796 244.471 74.6087 236.417 74.6087C228.363 74.6087 221.833 68.0796 221.833 60.0254Z" fill="#F9F9F9" stroke="black" stroke-width="2" stroke-linejoin="round"/>
<path d="M221.833 104.192C221.833 96.1379 228.363 89.6087 236.417 89.6087C244.471 89.6087 251 96.1379 251 104.192C251 112.246 244.471 118.775 236.417 118.775C228.363 118.775 221.833 112.246 221.833 104.192Z" fill="#F9F9F9" stroke="black" stroke-width="2" stroke-linejoin="round"/>
<path d="M221.833 148.359C221.833 140.305 228.363 133.775 236.417 133.775C244.471 133.775 251 140.305 251 148.359C251 156.413 244.471 162.942 236.417 162.942C228.363 162.942 221.833 156.413 221.833 148.359Z" fill="#F9F9F9" stroke="black" stroke-width="2" stroke-linejoin="round"/>
<path d="M221.833 192.525C221.833 184.471 228.363 177.942 236.417 177.942C244.471 177.942 251 184.471 251 192.525C251 200.58 244.471 207.109 236.417 207.109C228.363 207.109 221.833 200.58 221.833 192.525Z" fill="#F9F9F9" stroke="black" stroke-width="2" stroke-linejoin="round"/>
<path d="M221.833 236.692C221.833 228.638 228.363 222.109 236.417 222.109C244.471 222.109 251 228.638 251 236.692C251 244.746 244.471 251.275 236.417 251.275C228.363 251.275 221.833 244.746 221.833 236.692Z" fill="#F9F9F9" stroke="black" stroke-width="2" stroke-linejoin="round"/>
</svg>
