<svg width="252" height="253" viewBox="0 0 252 253" fill="none" xmlns="http://www.w3.org/2000/svg">
<path d="M1 12.5254C1 6.31219 6.0368 1.27539 12.25 1.27539C18.4632 1.27539 23.5 6.31219 23.5 12.5254C23.5 18.7386 18.4632 23.7754 12.25 23.7754C6.0368 23.7754 1 18.7386 1 12.5254Z" fill="#F9F9F9" stroke="black" stroke-width="2" stroke-linejoin="round"/>
<path d="M1 45.0254C1 38.8122 6.0368 33.7754 12.25 33.7754C18.4632 33.7754 23.5 38.8122 23.5 45.0254C23.5 51.2386 18.4632 56.2754 12.25 56.2754C6.0368 56.2754 1 51.2386 1 45.0254Z" fill="#F9F9F9" stroke="black" stroke-width="2" stroke-linejoin="round"/>
<path d="M1 77.5254C1 71.3122 6.0368 66.2754 12.25 66.2754C18.4632 66.2754 23.5 71.3122 23.5 77.5254C23.5 83.7386 18.4632 88.7754 12.25 88.7754C6.0368 88.7754 1 83.7386 1 77.5254Z" fill="#F9F9F9" stroke="black" stroke-width="2" stroke-linejoin="round"/>
<path d="M1 110.025C1 103.812 6.0368 98.7754 12.25 98.7754C18.4632 98.7754 23.5 103.812 23.5 110.025C23.5 116.239 18.4632 121.275 12.25 121.275C6.0368 121.275 1 116.239 1 110.025Z" fill="#F9F9F9" stroke="black" stroke-width="2" stroke-linejoin="round"/>
<path d="M1 142.525C1 136.312 6.0368 131.275 12.25 131.275C18.4632 131.275 23.5 136.312 23.5 142.525C23.5 148.739 18.4632 153.775 12.25 153.775C6.0368 153.775 1 148.739 1 142.525Z" fill="#F9F9F9" stroke="black" stroke-width="2" stroke-linejoin="round"/>
<path d="M1 175.025C1 168.812 6.0368 163.775 12.25 163.775C18.4632 163.775 23.5 168.812 23.5 175.025C23.5 181.239 18.4632 186.275 12.25 186.275C6.0368 186.275 1 181.239 1 175.025Z" fill="#F9F9F9" stroke="black" stroke-width="2" stroke-linejoin="round"/>
<path d="M1 207.525C1 201.312 6.0368 196.275 12.25 196.275C18.4632 196.275 23.5 201.312 23.5 207.525C23.5 213.739 18.4632 218.775 12.25 218.775C6.0368 218.775 1 213.739 1 207.525Z" fill="#F9F9F9" stroke="black" stroke-width="2" stroke-linejoin="round"/>
<path d="M1 240.025C1 233.812 6.0368 228.775 12.25 228.775C18.4632 228.775 23.5 233.812 23.5 240.025C23.5 246.239 18.4632 251.275 12.25 251.275C6.0368 251.275 1 246.239 1 240.025Z" fill="#F9F9F9" stroke="black" stroke-width="2" stroke-linejoin="round"/>
<path d="M33.5 12.5254C33.5 6.31219 38.5368 1.27539 44.75 1.27539C50.9632 1.27539 56 6.31219 56 12.5254C56 18.7386 50.9632 23.7754 44.75 23.7754C38.5368 23.7754 33.5 18.7386 33.5 12.5254Z" fill="#F9F9F9" stroke="black" stroke-width="2" stroke-linejoin="round"/>
<path d="M33.5 45.0254C33.5 38.8122 38.5368 33.7754 44.75 33.7754C50.9632 33.7754 56 38.8122 56 45.0254C56 51.2386 50.9632 56.2754 44.75 56.2754C38.5368 56.2754 33.5 51.2386 33.5 45.0254Z" fill="#F9F9F9" stroke="black" stroke-width="2" stroke-linejoin="round"/>
<path d="M33.5 77.5254C33.5 71.3122 38.5368 66.2754 44.75 66.2754C50.9632 66.2754 56 71.3122 56 77.5254C56 83.7386 50.9632 88.7754 44.75 88.7754C38.5368 88.7754 33.5 83.7386 33.5 77.5254Z" fill="#F9F9F9" stroke="black" stroke-width="2" stroke-linejoin="round"/>
<path d="M33.5 110.025C33.5 103.812 38.5368 98.7754 44.75 98.7754C50.9632 98.7754 56 103.812 56 110.025C56 116.239 50.9632 121.275 44.75 121.275C38.5368 121.275 33.5 116.239 33.5 110.025Z" fill="#F9F9F9" stroke="black" stroke-width="2" stroke-linejoin="round"/>
<path d="M33.5 142.525C33.5 136.312 38.5368 131.275 44.75 131.275C50.9632 131.275 56 136.312 56 142.525C56 148.739 50.9632 153.775 44.75 153.775C38.5368 153.775 33.5 148.739 33.5 142.525Z" fill="#F9F9F9" stroke="black" stroke-width="2" stroke-linejoin="round"/>
<path d="M33.5 175.025C33.5 168.812 38.5368 163.775 44.75 163.775C50.9632 163.775 56 168.812 56 175.025C56 181.239 50.9632 186.275 44.75 186.275C38.5368 186.275 33.5 181.239 33.5 175.025Z" fill="#F9F9F9" stroke="black" stroke-width="2" stroke-linejoin="round"/>
<path d="M33.5 207.525C33.5 201.312 38.5368 196.275 44.75 196.275C50.9632 196.275 56 201.312 56 207.525C56 213.739 50.9632 218.775 44.75 218.775C38.5368 218.775 33.5 213.739 33.5 207.525Z" fill="#F9F9F9" stroke="black" stroke-width="2" stroke-linejoin="round"/>
<path d="M33.5 240.025C33.5 233.812 38.5368 228.775 44.75 228.775C50.9632 228.775 56 233.812 56 240.025C56 246.239 50.9632 251.275 44.75 251.275C38.5368 251.275 33.5 246.239 33.5 240.025Z" fill="#F9F9F9" stroke="black" stroke-width="2" stroke-linejoin="round"/>
<path d="M66 12.5254C66 6.31219 71.0368 1.27539 77.25 1.27539C83.4632 1.27539 88.5 6.31219 88.5 12.5254C88.5 18.7386 83.4632 23.7754 77.25 23.7754C71.0368 23.7754 66 18.7386 66 12.5254Z" fill="#F9F9F9" stroke="black" stroke-width="2" stroke-linejoin="round"/>
<path d="M66 45.0254C66 38.8122 71.0368 33.7754 77.25 33.7754C83.4632 33.7754 88.5 38.8122 88.5 45.0254C88.5 51.2386 83.4632 56.2754 77.25 56.2754C71.0368 56.2754 66 51.2386 66 45.0254Z" fill="#F9F9F9" stroke="black" stroke-width="2" stroke-linejoin="round"/>
<path d="M66 77.5254C66 71.3122 71.0368 66.2754 77.25 66.2754C83.4632 66.2754 88.5 71.3122 88.5 77.5254C88.5 83.7386 83.4632 88.7754 77.25 88.7754C71.0368 88.7754 66 83.7386 66 77.5254Z" fill="#F9F9F9" stroke="black" stroke-width="2" stroke-linejoin="round"/>
<path d="M66 110.025C66 103.812 71.0368 98.7754 77.25 98.7754C83.4632 98.7754 88.5 103.812 88.5 110.025C88.5 116.239 83.4632 121.275 77.25 121.275C71.0368 121.275 66 116.239 66 110.025Z" fill="#F9F9F9" stroke="black" stroke-width="2" stroke-linejoin="round"/>
<path d="M66 142.525C66 136.312 71.0368 131.275 77.25 131.275C83.4632 131.275 88.5 136.312 88.5 142.525C88.5 148.739 83.4632 153.775 77.25 153.775C71.0368 153.775 66 148.739 66 142.525Z" fill="#F9F9F9" stroke="black" stroke-width="2" stroke-linejoin="round"/>
<path d="M66 175.025C66 168.812 71.0368 163.775 77.25 163.775C83.4632 163.775 88.5 168.812 88.5 175.025C88.5 181.239 83.4632 186.275 77.25 186.275C71.0368 186.275 66 181.239 66 175.025Z" fill="#F9F9F9" stroke="black" stroke-width="2" stroke-linejoin="round"/>
<path d="M66 207.525C66 201.312 71.0368 196.275 77.25 196.275C83.4632 196.275 88.5 201.312 88.5 207.525C88.5 213.739 83.4632 218.775 77.25 218.775C71.0368 218.775 66 213.739 66 207.525Z" fill="#F9F9F9" stroke="black" stroke-width="2" stroke-linejoin="round"/>
<path d="M66 240.025C66 233.812 71.0368 228.775 77.25 228.775C83.4632 228.775 88.5 233.812 88.5 240.025C88.5 246.239 83.4632 251.275 77.25 251.275C71.0368 251.275 66 246.239 66 240.025Z" fill="#F9F9F9" stroke="black" stroke-width="2" stroke-linejoin="round"/>
<path d="M98.5 12.5254C98.5 6.31219 103.537 1.27539 109.75 1.27539C115.963 1.27539 121 6.31219 121 12.5254C121 18.7386 115.963 23.7754 109.75 23.7754C103.537 23.7754 98.5 18.7386 98.5 12.5254Z" fill="#F9F9F9" stroke="black" stroke-width="2" stroke-linejoin="round"/>
<path d="M98.5 45.0254C98.5 38.8122 103.537 33.7754 109.75 33.7754C115.963 33.7754 121 38.8122 121 45.0254C121 51.2386 115.963 56.2754 109.75 56.2754C103.537 56.2754 98.5 51.2386 98.5 45.0254Z" fill="#F9F9F9" stroke="black" stroke-width="2" stroke-linejoin="round"/>
<path d="M98.5 77.5254C98.5 71.3122 103.537 66.2754 109.75 66.2754C115.963 66.2754 121 71.3122 121 77.5254C121 83.7386 115.963 88.7754 109.75 88.7754C103.537 88.7754 98.5 83.7386 98.5 77.5254Z" fill="#F9F9F9" stroke="black" stroke-width="2" stroke-linejoin="round"/>
<path d="M98.5 110.025C98.5 103.812 103.537 98.7754 109.75 98.7754C115.963 98.7754 121 103.812 121 110.025C121 116.239 115.963 121.275 109.75 121.275C103.537 121.275 98.5 116.239 98.5 110.025Z" fill="#F9F9F9" stroke="black" stroke-width="2" stroke-linejoin="round"/>
<path d="M98.5 142.525C98.5 136.312 103.537 131.275 109.75 131.275C115.963 131.275 121 136.312 121 142.525C121 148.739 115.963 153.775 109.75 153.775C103.537 153.775 98.5 148.739 98.5 142.525Z" fill="#F9F9F9" stroke="black" stroke-width="2" stroke-linejoin="round"/>
<path d="M98.5 175.025C98.5 168.812 103.537 163.775 109.75 163.775C115.963 163.775 121 168.812 121 175.025C121 181.239 115.963 186.275 109.75 186.275C103.537 186.275 98.5 181.239 98.5 175.025Z" fill="#F9F9F9" stroke="black" stroke-width="2" stroke-linejoin="round"/>
<path d="M98.5 207.525C98.5 201.312 103.537 196.275 109.75 196.275C115.963 196.275 121 201.312 121 207.525C121 213.739 115.963 218.775 109.75 218.775C103.537 218.775 98.5 213.739 98.5 207.525Z" fill="#F9F9F9" stroke="black" stroke-width="2" stroke-linejoin="round"/>
<path d="M98.5 240.025C98.5 233.812 103.537 228.775 109.75 228.775C115.963 228.775 121 233.812 121 240.025C121 246.239 115.963 251.275 109.75 251.275C103.537 251.275 98.5 246.239 98.5 240.025Z" fill="#F9F9F9" stroke="black" stroke-width="2" stroke-linejoin="round"/>
<path d="M131 12.5254C131 6.31219 136.037 1.27539 142.25 1.27539C148.463 1.27539 153.5 6.31219 153.5 12.5254C153.5 18.7386 148.463 23.7754 142.25 23.7754C136.037 23.7754 131 18.7386 131 12.5254Z" fill="#F9F9F9" stroke="black" stroke-width="2" stroke-linejoin="round"/>
<path d="M131 45.0254C131 38.8122 136.037 33.7754 142.25 33.7754C148.463 33.7754 153.5 38.8122 153.5 45.0254C153.5 51.2386 148.463 56.2754 142.25 56.2754C136.037 56.2754 131 51.2386 131 45.0254Z" fill="#F9F9F9" stroke="black" stroke-width="2" stroke-linejoin="round"/>
<path d="M131 77.5254C131 71.3122 136.037 66.2754 142.25 66.2754C148.463 66.2754 153.5 71.3122 153.5 77.5254C153.5 83.7386 148.463 88.7754 142.25 88.7754C136.037 88.7754 131 83.7386 131 77.5254Z" fill="#F9F9F9" stroke="black" stroke-width="2" stroke-linejoin="round"/>
<path d="M131 110.025C131 103.812 136.037 98.7754 142.25 98.7754C148.463 98.7754 153.5 103.812 153.5 110.025C153.5 116.239 148.463 121.275 142.25 121.275C136.037 121.275 131 116.239 131 110.025Z" fill="#F9F9F9" stroke="black" stroke-width="2" stroke-linejoin="round"/>
<path d="M131 142.525C131 136.312 136.037 131.275 142.25 131.275C148.463 131.275 153.5 136.312 153.5 142.525C153.5 148.739 148.463 153.775 142.25 153.775C136.037 153.775 131 148.739 131 142.525Z" fill="#F9F9F9" stroke="black" stroke-width="2" stroke-linejoin="round"/>
<path d="M131 175.025C131 168.812 136.037 163.775 142.25 163.775C148.463 163.775 153.5 168.812 153.5 175.025C153.5 181.239 148.463 186.275 142.25 186.275C136.037 186.275 131 181.239 131 175.025Z" fill="#F9F9F9" stroke="black" stroke-width="2" stroke-linejoin="round"/>
<path d="M131 207.525C131 201.312 136.037 196.275 142.25 196.275C148.463 196.275 153.5 201.312 153.5 207.525C153.5 213.739 148.463 218.775 142.25 218.775C136.037 218.775 131 213.739 131 207.525Z" fill="#F9F9F9" stroke="black" stroke-width="2" stroke-linejoin="round"/>
<path d="M131 240.025C131 233.812 136.037 228.775 142.25 228.775C148.463 228.775 153.5 233.812 153.5 240.025C153.5 246.239 148.463 251.275 142.25 251.275C136.037 251.275 131 246.239 131 240.025Z" fill="#F9F9F9" stroke="black" stroke-width="2" stroke-linejoin="round"/>
<path d="M163.5 12.5254C163.5 6.31219 168.537 1.27539 174.75 1.27539C180.963 1.27539 186 6.31219 186 12.5254C186 18.7386 180.963 23.7754 174.75 23.7754C168.537 23.7754 163.5 18.7386 163.5 12.5254Z" fill="#F9F9F9" stroke="black" stroke-width="2" stroke-linejoin="round"/>
<path d="M163.5 45.0254C163.5 38.8122 168.537 33.7754 174.75 33.7754C180.963 33.7754 186 38.8122 186 45.0254C186 51.2386 180.963 56.2754 174.75 56.2754C168.537 56.2754 163.5 51.2386 163.5 45.0254Z" fill="#F9F9F9" stroke="black" stroke-width="2" stroke-linejoin="round"/>
<path d="M163.5 77.5254C163.5 71.3122 168.537 66.2754 174.75 66.2754C180.963 66.2754 186 71.3122 186 77.5254C186 83.7386 180.963 88.7754 174.75 88.7754C168.537 88.7754 163.5 83.7386 163.5 77.5254Z" fill="#F9F9F9" stroke="black" stroke-width="2" stroke-linejoin="round"/>
<path d="M163.5 110.025C163.5 103.812 168.537 98.7755 174.75 98.7755C180.963 98.7755 186 103.812 186 110.025C186 116.239 180.963 121.275 174.75 121.275C168.537 121.275 163.5 116.239 163.5 110.025Z" fill="#F9F9F9" stroke="black" stroke-width="2" stroke-linejoin="round"/>
<path d="M163.5 142.525C163.5 136.312 168.537 131.275 174.75 131.275C180.963 131.275 186 136.312 186 142.525C186 148.739 180.963 153.775 174.75 153.775C168.537 153.775 163.5 148.739 163.5 142.525Z" fill="#F9F9F9" stroke="black" stroke-width="2" stroke-linejoin="round"/>
<path d="M163.5 175.025C163.5 168.812 168.537 163.775 174.75 163.775C180.963 163.775 186 168.812 186 175.025C186 181.239 180.963 186.275 174.75 186.275C168.537 186.275 163.5 181.239 163.5 175.025Z" fill="#F9F9F9" stroke="black" stroke-width="2" stroke-linejoin="round"/>
<path d="M163.5 207.526C163.5 201.312 168.537 196.276 174.75 196.276C180.963 196.276 186 201.312 186 207.526C186 213.739 180.963 218.776 174.75 218.776C168.537 218.776 163.5 213.739 163.5 207.526Z" fill="#F9F9F9" stroke="black" stroke-width="2" stroke-linejoin="round"/>
<path d="M163.5 240.025C163.5 233.812 168.537 228.775 174.75 228.775C180.963 228.775 186 233.812 186 240.025C186 246.239 180.963 251.275 174.75 251.275C168.537 251.275 163.5 246.239 163.5 240.025Z" fill="#F9F9F9" stroke="black" stroke-width="2" stroke-linejoin="round"/>
<path d="M196 12.5254C196 6.31219 201.037 1.27539 207.25 1.27539C213.463 1.27539 218.5 6.31219 218.5 12.5254C218.5 18.7386 213.463 23.7754 207.25 23.7754C201.037 23.7754 196 18.7386 196 12.5254Z" fill="#F9F9F9" stroke="black" stroke-width="2" stroke-linejoin="round"/>
<path d="M196 45.0254C196 38.8122 201.037 33.7754 207.25 33.7754C213.463 33.7754 218.5 38.8122 218.5 45.0254C218.5 51.2386 213.463 56.2754 207.25 56.2754C201.037 56.2754 196 51.2386 196 45.0254Z" fill="#F9F9F9" stroke="black" stroke-width="2" stroke-linejoin="round"/>
<path d="M196 77.5254C196 71.3122 201.037 66.2754 207.25 66.2754C213.463 66.2754 218.5 71.3122 218.5 77.5254C218.5 83.7386 213.463 88.7754 207.25 88.7754C201.037 88.7754 196 83.7386 196 77.5254Z" fill="#F9F9F9" stroke="black" stroke-width="2" stroke-linejoin="round"/>
<path d="M196 110.025C196 103.812 201.037 98.7754 207.25 98.7754C213.463 98.7754 218.5 103.812 218.5 110.025C218.5 116.239 213.463 121.275 207.25 121.275C201.037 121.275 196 116.239 196 110.025Z" fill="#F9F9F9" stroke="black" stroke-width="2" stroke-linejoin="round"/>
<path d="M196 142.525C196 136.312 201.037 131.275 207.25 131.275C213.463 131.275 218.5 136.312 218.5 142.525C218.5 148.739 213.463 153.775 207.25 153.775C201.037 153.775 196 148.739 196 142.525Z" fill="#F9F9F9" stroke="black" stroke-width="2" stroke-linejoin="round"/>
<path d="M196 175.025C196 168.812 201.037 163.775 207.25 163.775C213.463 163.775 218.5 168.812 218.5 175.025C218.5 181.239 213.463 186.275 207.25 186.275C201.037 186.275 196 181.239 196 175.025Z" fill="#F9F9F9" stroke="black" stroke-width="2" stroke-linejoin="round"/>
<path d="M196 207.525C196 201.312 201.037 196.275 207.25 196.275C213.463 196.275 218.5 201.312 218.5 207.525C218.5 213.739 213.463 218.775 207.25 218.775C201.037 218.775 196 213.739 196 207.525Z" fill="#F9F9F9" stroke="black" stroke-width="2" stroke-linejoin="round"/>
<path d="M196 240.025C196 233.812 201.037 228.775 207.25 228.775C213.463 228.775 218.5 233.812 218.5 240.025C218.5 246.239 213.463 251.275 207.25 251.275C201.037 251.275 196 246.239 196 240.025Z" fill="#F9F9F9" stroke="black" stroke-width="2" stroke-linejoin="round"/>
<path d="M228.5 12.5254C228.5 6.31219 233.537 1.27539 239.75 1.27539C245.963 1.27539 251 6.31219 251 12.5254C251 18.7386 245.963 23.7754 239.75 23.7754C233.537 23.7754 228.5 18.7386 228.5 12.5254Z" fill="#F9F9F9" stroke="black" stroke-width="2" stroke-linejoin="round"/>
<path d="M228.5 45.0254C228.5 38.8122 233.537 33.7754 239.75 33.7754C245.963 33.7754 251 38.8122 251 45.0254C251 51.2386 245.963 56.2754 239.75 56.2754C233.537 56.2754 228.5 51.2386 228.5 45.0254Z" fill="#F9F9F9" stroke="black" stroke-width="2" stroke-linejoin="round"/>
<path d="M228.5 77.5254C228.5 71.3122 233.537 66.2754 239.75 66.2754C245.963 66.2754 251 71.3122 251 77.5254C251 83.7386 245.963 88.7754 239.75 88.7754C233.537 88.7754 228.5 83.7386 228.5 77.5254Z" fill="#F9F9F9" stroke="black" stroke-width="2" stroke-linejoin="round"/>
<path d="M228.5 110.025C228.5 103.812 233.537 98.7754 239.75 98.7754C245.963 98.7754 251 103.812 251 110.025C251 116.239 245.963 121.275 239.75 121.275C233.537 121.275 228.5 116.239 228.5 110.025Z" fill="#F9F9F9" stroke="black" stroke-width="2" stroke-linejoin="round"/>
<path d="M228.5 142.525C228.5 136.312 233.537 131.275 239.75 131.275C245.963 131.275 251 136.312 251 142.525C251 148.739 245.963 153.775 239.75 153.775C233.537 153.775 228.5 148.739 228.5 142.525Z" fill="#F9F9F9" stroke="black" stroke-width="2" stroke-linejoin="round"/>
<path d="M228.5 175.025C228.5 168.812 233.537 163.775 239.75 163.775C245.963 163.775 251 168.812 251 175.025C251 181.239 245.963 186.275 239.75 186.275C233.537 186.275 228.5 181.239 228.5 175.025Z" fill="#F9F9F9" stroke="black" stroke-width="2" stroke-linejoin="round"/>
<path d="M228.5 207.525C228.5 201.312 233.537 196.275 239.75 196.275C245.963 196.275 251 201.312 251 207.525C251 213.739 245.963 218.775 239.75 218.775C233.537 218.775 228.5 213.739 228.5 207.525Z" fill="#F9F9F9" stroke="black" stroke-width="2" stroke-linejoin="round"/>
<path d="M228.5 240.025C228.5 233.812 233.537 228.775 239.75 228.775C245.963 228.775 251 233.812 251 240.025C251 246.239 245.963 251.275 239.75 251.275C233.537 251.275 228.5 246.239 228.5 240.025Z" fill="#F9F9F9" stroke="black" stroke-width="2" stroke-linejoin="round"/>
</svg>
