<svg width="252" height="253" viewBox="0 0 252 253" fill="none" xmlns="http://www.w3.org/2000/svg">
<rect x="125.496" y="1.27539" width="62.751" height="62.751" fill="#F9F9F9" stroke="black" stroke-width="2" stroke-linejoin="round"/>
<rect x="188.25" y="1.27539" width="62.751" height="62.751" fill="#F9F9F9" stroke="black" stroke-width="2" stroke-linejoin="round"/>
<rect x="1" y="1.27539" width="62.751" height="62.751" fill="#F9F9F9" stroke="black" stroke-width="2" stroke-linejoin="round"/>
<rect x="63.75" y="1.27539" width="61.747" height="62.751" fill="#F9F9F9" stroke="black" stroke-width="2" stroke-linejoin="round"/>
<rect x="125.496" y="64.0273" width="62.751" height="61.747" fill="#F9F9F9" stroke="black" stroke-width="2" stroke-linejoin="round"/>
<rect x="188.25" y="64.0273" width="62.751" height="61.747" fill="#F9F9F9" stroke="black" stroke-width="2" stroke-linejoin="round"/>
<rect x="125.496" y="125.773" width="62.751" height="62.751" fill="#F9F9F9" stroke="black" stroke-width="2" stroke-linejoin="round"/>
<rect x="125.496" y="188.523" width="62.751" height="62.751" fill="#F9F9F9" stroke="black" stroke-width="2" stroke-linejoin="round"/>
<rect x="188.25" y="125.773" width="62.751" height="62.751" fill="#F9F9F9" stroke="black" stroke-width="2" stroke-linejoin="round"/>
<rect x="188.25" y="188.523" width="62.751" height="62.751" fill="#F9F9F9" stroke="black" stroke-width="2" stroke-linejoin="round"/>
<rect x="1" y="64.0273" width="62.751" height="61.747" fill="#F9F9F9" stroke="black" stroke-width="2" stroke-linejoin="round"/>
<rect x="1" y="125.773" width="62.751" height="62.751" fill="#F9F9F9" stroke="black" stroke-width="2" stroke-linejoin="round"/>
<rect x="1" y="188.523" width="62.751" height="62.751" fill="#F9F9F9" stroke="black" stroke-width="2" stroke-linejoin="round"/>
<rect x="63.75" y="64.0273" width="61.747" height="61.747" fill="#F9F9F9" stroke="black" stroke-width="2" stroke-linejoin="round"/>
<rect x="63.75" y="125.773" width="61.747" height="62.751" fill="#F9F9F9" stroke="black" stroke-width="2" stroke-linejoin="round"/>
<rect x="63.75" y="188.523" width="61.747" height="62.751" fill="#F9F9F9" stroke="black" stroke-width="2" stroke-linejoin="round"/>
</svg>
