<svg width="253" height="253" viewBox="0 0 253 253" fill="none" xmlns="http://www.w3.org/2000/svg">
<rect x="100.977" y="1.27539" width="50.2434" height="50.2028" fill="#F9F9F9" stroke="black" stroke-width="2" stroke-linejoin="round"/>
<rect x="151.223" y="1.27539" width="50.2434" height="50.2028" fill="#F9F9F9" stroke="black" stroke-width="2" stroke-linejoin="round"/>
<rect x="200.758" y="1.27539" width="50.2434" height="50.2028" fill="#F9F9F9" stroke="black" stroke-width="2" stroke-linejoin="round"/>
<rect x="1" y="1.27539" width="50.2434" height="50.2028" fill="#F9F9F9" stroke="black" stroke-width="2" stroke-linejoin="round"/>
<rect x="51.2422" y="1.27539" width="49.7359" height="50.2028" fill="#F9F9F9" stroke="black" stroke-width="2" stroke-linejoin="round"/>
<rect x="100.977" y="51.4785" width="50.2434" height="49.6957" fill="#F9F9F9" stroke="black" stroke-width="2" stroke-linejoin="round"/>
<rect x="151.223" y="51.4785" width="50.2434" height="49.6957" fill="#F9F9F9" stroke="black" stroke-width="2" stroke-linejoin="round"/>
<rect x="200.758" y="51.4785" width="50.2434" height="49.6957" fill="#F9F9F9" stroke="black" stroke-width="2" stroke-linejoin="round"/>
<rect x="100.977" y="101.174" width="50.2434" height="50.2028" fill="#F9F9F9" stroke="black" stroke-width="2" stroke-linejoin="round"/>
<rect x="100.977" y="151.377" width="50.2434" height="50.2028" fill="#F9F9F9" stroke="black" stroke-width="2" stroke-linejoin="round"/>
<rect x="100.977" y="201.072" width="50.2434" height="50.2028" fill="#F9F9F9" stroke="black" stroke-width="2" stroke-linejoin="round"/>
<rect x="151.223" y="101.174" width="50.2434" height="50.2028" fill="#F9F9F9" stroke="black" stroke-width="2" stroke-linejoin="round"/>
<rect x="200.758" y="101.174" width="50.2434" height="50.2028" fill="#F9F9F9" stroke="black" stroke-width="2" stroke-linejoin="round"/>
<rect x="151.223" y="151.377" width="50.2434" height="50.2028" fill="#F9F9F9" stroke="black" stroke-width="2" stroke-linejoin="round"/>
<rect x="151.223" y="201.072" width="50.2434" height="50.2028" fill="#F9F9F9" stroke="black" stroke-width="2" stroke-linejoin="round"/>
<rect x="200.758" y="151.377" width="50.2434" height="50.2028" fill="#F9F9F9" stroke="black" stroke-width="2" stroke-linejoin="round"/>
<rect x="200.758" y="201.072" width="50.2434" height="50.2028" fill="#F9F9F9" stroke="black" stroke-width="2" stroke-linejoin="round"/>
<rect x="1" y="51.4785" width="50.2434" height="49.6957" fill="#F9F9F9" stroke="black" stroke-width="2" stroke-linejoin="round"/>
<rect x="1" y="101.174" width="50.2434" height="50.2028" fill="#F9F9F9" stroke="black" stroke-width="2" stroke-linejoin="round"/>
<rect x="1" y="151.377" width="50.2434" height="50.2028" fill="#F9F9F9" stroke="black" stroke-width="2" stroke-linejoin="round"/>
<rect x="1" y="201.072" width="50.2434" height="50.2028" fill="#F9F9F9" stroke="black" stroke-width="2" stroke-linejoin="round"/>
<rect x="51.2422" y="51.4785" width="49.7359" height="49.6957" fill="#F9F9F9" stroke="black" stroke-width="2" stroke-linejoin="round"/>
<rect x="51.2422" y="101.174" width="49.7359" height="50.2028" fill="#F9F9F9" stroke="black" stroke-width="2" stroke-linejoin="round"/>
<rect x="51.2422" y="151.377" width="49.7359" height="50.2028" fill="#F9F9F9" stroke="black" stroke-width="2" stroke-linejoin="round"/>
<rect x="51.2422" y="201.072" width="49.7359" height="50.2028" fill="#F9F9F9" stroke="black" stroke-width="2" stroke-linejoin="round"/>
</svg>
