<svg width="252" height="251" viewBox="0 0 252 251" fill="none" xmlns="http://www.w3.org/2000/svg">
<rect x="1.99207" y="1.26746" width="49.6032" height="49.6032" fill="#F9F9F9" stroke="black" stroke-width="2" stroke-linejoin="round"/>
<rect x="101.199" y="100.475" width="49.6032" height="49.6032" fill="#F9F9F9" stroke="black" stroke-width="2" stroke-linejoin="round"/>
<rect x="1.99219" y="100.475" width="49.6032" height="49.6032" fill="#F9F9F9" stroke="black" stroke-width="2" stroke-linejoin="round"/>
<rect x="51.5938" y="100.475" width="49.6032" height="49.6032" fill="#F9F9F9" stroke="black" stroke-width="2" stroke-linejoin="round"/>
<rect x="1.99219" y="50.8711" width="49.6032" height="49.6032" fill="#F9F9F9" stroke="black" stroke-width="2" stroke-linejoin="round"/>
<rect x="101.199" y="150.076" width="49.6032" height="49.6032" fill="#F9F9F9" stroke="black" stroke-width="2" stroke-linejoin="round"/>
<rect x="101.199" y="199.68" width="49.6032" height="49.6032" fill="#F9F9F9" stroke="black" stroke-width="2" stroke-linejoin="round"/>
<rect x="1.99219" y="150.076" width="49.6032" height="49.6032" fill="#F9F9F9" stroke="black" stroke-width="2" stroke-linejoin="round"/>
<rect x="1.99219" y="199.68" width="49.6032" height="49.6032" fill="#F9F9F9" stroke="black" stroke-width="2" stroke-linejoin="round"/>
<rect x="51.5938" y="50.8711" width="49.6032" height="49.6032" fill="#F9F9F9" stroke="black" stroke-width="2" stroke-linejoin="round"/>
<rect x="150.801" y="150.076" width="49.6032" height="49.6032" fill="#F9F9F9" stroke="black" stroke-width="2" stroke-linejoin="round"/>
<rect x="150.801" y="199.68" width="49.6032" height="49.6032" fill="#F9F9F9" stroke="black" stroke-width="2" stroke-linejoin="round"/>
<rect x="200.406" y="199.68" width="49.6032" height="49.6032" fill="#F9F9F9" stroke="black" stroke-width="2" stroke-linejoin="round"/>
<rect x="51.5938" y="150.076" width="49.6032" height="49.6032" fill="#F9F9F9" stroke="black" stroke-width="2" stroke-linejoin="round"/>
<rect x="51.5938" y="199.68" width="49.6032" height="49.6032" fill="#F9F9F9" stroke="black" stroke-width="2" stroke-linejoin="round"/>
</svg>
