<?xml version="1.0" encoding="UTF-8"?>
<svg id="Layer_2" data-name="Layer 2" xmlns="http://www.w3.org/2000/svg" viewBox="0 0 1920 320">
  <defs>
    <style>
      .cls-1 {
        fill: #101010;
        stroke-width: 0px;
      }
    </style>
  </defs>
  <path class="cls-1" d="M71.5,307.98c-18.9-6.97-34.85-18.09-47.85-33.38C10.65,259.32,2.8,239.76.13,215.9h51.87c4.55,20.91,14.27,35.93,29.15,45.04,14.88,9.11,31.97,13.67,51.26,13.67s33.24-3.88,44.24-11.66c10.98-7.77,16.48-19.3,16.48-34.58,0-11.26-3.41-20.24-10.25-26.94-6.84-6.7-15.35-11.73-25.54-15.08-10.19-3.35-24.26-7.04-42.23-11.06-22.25-4.83-40.35-9.78-54.28-14.88-13.95-5.09-25.81-13.27-35.59-24.53-9.79-11.26-14.68-26.67-14.68-46.24,0-18.5,4.55-34.38,13.67-47.65,9.11-13.27,21.64-23.32,37.59-30.16C77.8,4.98,95.96,1.57,116.34,1.57c30.56,0,56.89,7.91,79.01,23.72,22.12,15.82,35.59,39.14,40.42,69.97h-51.07c-4.02-16.89-12.2-29.42-24.53-37.6-12.33-8.18-27.21-12.27-44.63-12.27s-29.76,3.49-39.4,10.46c-9.65,6.97-14.48,16.76-14.48,29.35,0,9.92,3.15,17.83,9.45,23.72,6.3,5.9,14.28,10.39,23.93,13.47,9.65,3.09,22.78,6.5,39.4,10.26,23.59,5.1,42.63,10.39,57.1,15.88,14.48,5.5,26.87,14.35,37.2,26.54,10.32,12.2,15.49,28.89,15.49,50.06,0,28.69-9.85,51.41-29.56,68.16-19.7,16.76-47.39,25.13-83.04,25.13-21.18,0-41.22-3.49-60.12-10.46Z"/>
  <path class="cls-1" d="M317,303.56c-17.16-9.92-30.5-23.79-40.02-41.62-9.52-17.82-14.27-38.26-14.27-61.32s4.76-42.15,14.27-59.71c9.52-17.56,22.86-31.23,40.02-41.02,17.15-9.78,36.72-14.68,58.71-14.68s41.55,4.89,58.71,14.68c17.16,9.79,30.56,23.46,40.21,41.02,9.65,17.56,14.47,37.47,14.47,59.71s-4.77,43.09-14.28,60.92c-9.52,17.83-22.86,31.77-40.01,41.82-17.16,10.05-36.86,15.08-59.11,15.08s-41.56-4.96-58.71-14.88ZM409.08,267.16c9.92-6.57,17.63-15.61,23.13-27.14,5.49-11.52,8.24-24.66,8.24-39.41,0-13.94-2.75-26.6-8.24-38-5.5-11.39-13.21-20.31-23.13-26.74-9.92-6.43-21.05-9.65-33.37-9.65s-23.46,3.15-33.38,9.45c-9.92,6.3-17.63,15.15-23.12,26.54-5.5,11.4-8.25,24.2-8.25,38.4,0,15.01,2.82,28.29,8.44,39.81,5.63,11.53,13.34,20.51,23.13,26.94,9.79,6.43,20.84,9.65,33.18,9.65s23.45-3.28,33.37-9.85Z"/>
  <path class="cls-1" d="M533.48,318.43v-185.78h-35.39v-39.01h35.39v-23.32c0-19.03,5.15-33.58,15.47-43.63,10.32-10.05,25.27-15.08,44.84-15.08h32.17v39.01h-20.91c-15.82,0-23.73,8.85-23.73,26.54v16.49h44.64v39.01h-44.64v185.78h-47.85Z"/>
  <path class="cls-1" d="M731.92,318.43c-17.43,0-30.56-4.02-39.41-12.06-8.84-8.04-13.27-21.31-13.27-39.81v-133.5h-33.78v-39.41h33.78V11.62h47.45v82.03h45.84v39.41h-45.84v120.23c0,8.58,1.34,14.95,4.02,19.1,2.68,4.16,8.58,6.23,17.7,6.23h23.72v39.81h-40.21Z"/>
  <path class="cls-1" d="M1866.99,310.19c-6.03-5.49-9.04-12.4-9.04-20.71s3.01-15.21,9.04-20.71c6.04-5.49,13.33-8.24,21.92-8.24s16.22,2.75,22.11,8.24c5.9,5.5,8.85,12.4,8.85,20.71s-2.95,15.22-8.85,20.71c-5.9,5.5-13.27,8.24-22.11,8.24s-15.88-2.75-21.92-8.24Z"/>
  <rect class="cls-1" x="1167.77" y="93.65" width="47.44" height="224.78"/>
  <path class="cls-1" d="M1254.51,318.43V93.65h47.45v28.15c8.85-11.79,18.55-20.11,29.15-24.93,10.58-4.83,23.13-7.24,37.59-7.24h5.23v46.24h-12.06c-17.96,0-31.77,4.83-41.42,14.48-12.33,11.53-18.49,31.37-18.49,59.51v108.57h-47.45Z"/>
  <path class="cls-1" d="M1434.77,303.36c-17.03-10.05-30.23-23.86-39.61-41.42-9.39-17.55-14.08-37.33-14.08-59.31,0-20.37,4.22-39.54,12.66-57.5,8.44-17.96,21.05-32.43,37.8-43.43,16.75-10.99,36.93-16.49,60.52-16.49,19.83,0,38.26,4.22,55.29,12.67,17.02,8.44,30.7,21.25,41.02,38.4,10.31,17.16,15.48,38.2,15.48,63.13v12.07h-174.52c1.61,10.46,4.15,18.77,7.65,24.93,5.36,12.6,13.07,22.52,23.12,29.76,10.05,7.24,21.51,10.86,34.38,10.86,13.68,0,25.4-3.55,35.19-10.65,9.78-7.1,16.82-16.01,21.11-26.74h49.06c-7.24,23.32-19.84,42.29-37.8,56.9-17.96,14.62-40.88,21.92-68.76,21.92-21.98,0-41.48-5.03-58.51-15.08ZM1554.4,174.07c-1.07-8.31-3.49-15.41-7.24-21.31-5.36-9.38-12.74-16.55-22.11-21.51-9.39-4.96-19.84-7.44-31.37-7.44s-22.25,2.48-31.37,7.44c-9.12,4.96-16.48,12.13-22.11,21.51-3.49,5.37-6.17,12.46-8.04,21.31h122.24Z"/>
  <path class="cls-1" d="M1672.72,303.76c-14.89-9.78-26.48-23.52-34.79-41.22-8.31-17.69-12.46-37.93-12.46-60.72s4.15-43.03,12.46-60.72c8.31-17.69,19.9-31.43,34.79-41.22,14.87-9.78,32.1-14.68,51.67-14.68,14.2,0,26.54,2.55,36.99,7.64,10.46,5.1,20.51,14.08,30.16,26.94V7.19h47.44v306.82h-47.44v-30.56c-9.66,12.87-19.65,21.91-29.96,27.14-10.33,5.23-22.72,7.84-37.2,7.84-19.57,0-36.8-4.89-51.67-14.68ZM1766.2,267.77c9.39-6.43,16.75-15.41,22.12-26.94,5.36-11.52,8.04-24.53,8.04-39.01s-2.69-27.48-8.04-39.01c-5.37-11.52-12.73-20.51-22.12-26.94-9.38-6.43-20.1-9.65-32.16-9.65-18.5,0-33.24,7.11-44.23,21.31-11,14.21-16.49,32.31-16.49,54.29s5.49,40.08,16.49,54.29c10.99,14.21,25.73,21.31,44.23,21.31,12.06,0,22.78-3.22,32.16-9.65Z"/>
  <path class="cls-1" d="M1047.86,318.43c-25.46,0-52.44-12.39-76.89-34.76-22.19,20.74-47.93,34.76-73.9,34.76-19.49,0-37.28-7.22-51.45-20.88-41.05-39.58-46.12-126.54-45.95-197.89v-4.85h50.27v4.96c-.22,88.37,10.3,143.42,31.26,163.63,4.8,4.62,9.69,6.68,15.87,6.68,12.46,0,27.69-9.45,42.02-23.61-20.42-30.06-32.72-63.63-32.72-90.46,0-18.11,5.51-33.62,15.93-44.85,8.2-8.84,23.57-19.38,50.17-19.38s40.82,10.24,48.8,18.83c10.14,10.91,15.5,26.01,15.5,43.64,0,26.31-13.15,60.93-33.84,91.59,15.39,14.63,31.91,24.23,44.94,24.23,6.64,0,11.5-2.02,16.25-6.75,19.53-19.44,27.92-71.78,24.94-155.56-.2-5.62-.35-10.05-.35-12.96h50.26c0,2.54.15,6.41.32,11.3,2.43,68.34.2,151.78-39.02,190.81-14.13,14.07-32.25,21.51-52.4,21.51ZM972.46,140.14c-3.61,0-10.07.42-12.67,3.23-2.01,2.16-3.16,6.77-3.16,12.65,0,15.33,5.56,32.17,14.24,48.09,9.47-17.19,15.62-35.03,15.62-49.85,0-5.32-1.01-9.59-2.71-11.41-1.57-1.69-5.8-2.7-11.32-2.7Z"/>
</svg>